<?xml version="1.0" encoding="utf-8"?>
<!-- Generator: Adobe Illustrator 26.0.1, SVG Export Plug-In . SVG Version: 6.00 Build 0)  -->
<svg version="1.1" xmlns="http://www.w3.org/2000/svg" xmlns:xlink="http://www.w3.org/1999/xlink" x="0px" y="0px"
	 viewBox="0 0 1920 1080" style="enable-background:new 0 0 1920 1080;" xml:space="preserve">
<style type="text/css">
	.st0{fill:none;}
	.st1{fill:#FFFF00;}
	.st2{fill:#0000FF;}
	.st3{fill:#00BE1C;}
</style>
<g id="Ebene_1">
	<rect class="st0" width="1920" height="1080"/>
	<g>
		<path class="st3" d="M756.99,546.27c-0.22-1.54-0.22-3.3,0-4.84c0.44-8.36-1.98-16.06-1.98-24.2c0-2.64-1.32-5.5-1.98-8.14
			c-2.86-7.7-5.94-15.4-8.36-23.32c-2.42-7.7-7.7-13.42-13.64-18.7c-0.88-0.66-2.42-1.1-3.52-1.54c-2.42-1.1-4.84-1.98-7.04-2.64
			c-4.84-1.54-9.02-3.3-12.76-6.16c-2.42-1.76-5.06-2.42-7.7-3.08c-6.6-2.2-13.64-2.64-20.24-4.62c-6.6-1.54-12.98-2.2-20.02-1.98
			h-18.04c-1.54,0-2.86,0-4.4,0.22c-9.68,2.86-19.58,2.86-29.26,5.72c-2.64,0.88-5.5,1.1-8.36,0.22c-1.98-0.88-4.18-0.22-6.38,0.22
			c-4.4,0.66-9.02,1.76-13.86,1.76c-9.24,0-18.26,0.22-27.28,3.3c-0.88,0.66-1.98,0-3.3,0.66c-1.98,0.88-4.62,1.54-6.38,3.3
			c-2.2,1.98-4.4,4.84-6.16,7.7c-1.1,2.2-0.88,5.28,0.88,7.04c2.64,3.08,5.5,6.16,10.34,6.16c6.16,0.22,12.32,0.44,18.26-1.76
			c1.1-0.44,2.42-0.88,3.74-0.44c1.76,0.44,3.3,0,4.84-0.66c4.62-1.54,9.02-1.98,14.08-1.98c3.74,0,7.7,0,11.66-0.88
			c8.14-1.54,16.5-3.74,24.86-5.28c5.5-1.1,11-1.98,16.72-2.2c6.38-0.22,12.76-0.22,19.14,0c2.42,0,5.06,0,7.26,0.88
			c6.16,2.42,13.2,1.76,18.7,6.38c0.66,0.66,1.76,0.88,2.42,0.88c3.96,0.44,7.26,2.2,10.78,4.18l14.52,8.36
			c4.62,2.86,7.92,7.26,9.24,12.54c2.64,11,6.38,22.22,7.92,33.66c0.44,3.52,0,7.26-0.22,10.78c0,1.54-0.66,3.3-0.88,4.84
			c-0.66,7.92-3.08,15.18-6.38,22.22c-3.52,7.26-8.58,12.98-12.54,19.58c-0.44,1.1-1.54,1.76-2.42,2.42
			c-5.28,4.62-10.78,8.8-15.84,13.64c-5.5,4.62-11.66,7.7-18.26,9.68c-11,3.3-22.44,5.72-34.32,5.28c-5.06,0-10.12,0.22-14.96,0.22
			c-6.6,0-13.42,0-20.02-1.54c-6.82-1.98-13.86-3.3-20.02-7.26c-8.58-5.06-14.74-11.88-19.36-20.46c-1.98-3.52-3.52-7.48-2.86-11.88
			c0.44-2.42,0-4.84,0-7.26c-0.22-1.98,0-3.96,0.22-5.94c0.22-2.64,0.66-5.5,1.1-8.14c1.32-7.92,4.4-14.96,9.24-21.12
			c2.86-3.52,6.38-6.82,10.12-9.9c7.7-6.82,16.72-12.1,27.06-13.86c3.96-0.44,8.36-1.32,12.32-2.2c7.48-1.54,15.18-2.64,22.88-2.64
			c6.6,0,12.76,0,18.26,4.4c0.44,0.66,1.76,0.44,2.42,1.1c3.74,2.2,7.48,4.18,10.12,8.14c1.32,2.42,3.52,4.62,5.5,6.16
			c3.96,3.52,4.84,8.8,7.04,13.2c0.22,0.44,0.44,1.1,0.22,1.54c-1.1,4.18-1.1,9.02-5.06,12.1c-2.64,2.2-5.28,4.84-7.26,7.92
			c-4.62,7.26-12.1,10.34-19.8,12.54c-3.08,0.88-5.94,1.98-9.02,0.44c-0.66-0.44-1.76-0.22-2.42-0.22
			c-5.94,0.44-11.22-2.2-16.94-3.3c-1.1-0.22-2.42-1.1-3.96-2.42c0.88-1.98,1.32-3.3,1.76-4.4c3.3-6.6,8.36-11,15.84-12.54
			c5.06-0.88,9.68-1.32,14.96-1.1c3.52,0.22,6.38-0.88,9.24-3.08c3.08-2.42,3.96-5.94,3.52-9.46c-0.88-6.16-5.94-10.56-12.1-10.78
			c-7.7-0.44-15.62,0.44-23.1,2.42c-6.82,1.32-13.2,3.96-19.58,6.38c-4.18,1.76-8.36,2.42-10.56,6.38
			c-0.22,0.44-0.88,0.88-1.32,0.88c-3.96,0.88-5.5,4.4-7.92,7.04c-2.42,2.2-3.08,5.06-2.86,8.14c0.66,6.16,0.88,12.1,1.76,18.26
			c0.66,4.18,2.42,7.7,6.16,10.12c3.52,2.42,6.38,5.28,9.9,7.26c3.52,2.64,6.82,4.62,11.22,5.28c1.98,0.22,4.18,0.66,6.38,1.54
			c6.16,1.98,11.88,1.54,17.82-0.66c5.5-1.76,11.22-3.08,17.16-3.08s11.44-1.54,17.16-3.3c3.08-0.88,5.72-3.08,7.92-5.5
			c0.88-1.54,1.76-2.86,2.86-4.4c4.84-6.6,9.46-13.64,16.94-17.82c1.54-1.32,2.86-2.86,3.3-4.84c0.44-2.42,1.1-5.06,1.32-7.26
			c0.44-4.62-0.44-9.02,1.54-13.2c-0.44-5.94,0.44-12.1-4.18-17.38c-0.88-0.66-1.1-1.98-1.32-2.86c-0.22-2.64-1.32-4.62-3.3-6.6
			c-5.5-5.5-11-10.78-16.72-15.84c-2.42-2.2-5.72-2.86-8.14-4.62c-4.18-3.74-9.24-4.62-14.3-5.94c-2.64-0.88-5.5-1.32-8.14-1.54
			c-2.64-0.22-4.84-0.22-7.48,0c-1.54,0-2.86,1.32-4.18,1.1c-4.84-1.1-9.9,0.44-14.74,0.22c-2.64,0-5.5,0.44-8.14,1.1
			c-5.94,1.1-11.22,2.64-17.16,3.52c-12.98,2.2-20.46,4.18-30.36,10.34c-3.96,2.42-8.14,4.62-11.44,8.14
			c-6.6,6.16-11.88,12.98-17.38,20.02c-0.66,1.1-0.88,2.2-1.1,3.08c-1.32,6.6-2.64,13.2-3.3,19.58c-0.66,4.84-1.98,9.24-0.66,14.08
			c-1.76,7.26-0.66,14.3-1.1,21.78c-0.22,4.18,0.88,7.92,3.74,11.44c1.76,1.98,3.08,3.96,4.62,5.94c1.98,2.64,4.4,5.06,6.38,7.92
			c3.52,4.84,7.48,9.46,12.98,12.54c10.56,6.16,21.78,10.56,34.32,12.32c9.46,1.32,18.92,3.52,28.82,3.3
			c6.6,1.76,12.98,0,19.58-1.32c10.34-1.32,20.46-4.62,31.02-6.16c5.72-0.66,11.22-1.54,16.5-4.62c1.1-0.66,2.42-1.54,3.3-2.42
			c4.4-3.52,8.36-7.26,12.54-10.78c5.72-4.84,11.88-9.24,17.6-14.08c1.54-1.32,3.3-3.3,4.18-5.06c4.18-8.58,9.46-16.94,12.98-25.96
			C754.35,568.27,757.43,557.71,756.99,546.27z"/>
		<path class="st3" d="M802.31,471.03l-62.26,154h24.86l16.72-44.44h67.76l16.94,44.44h25.96l-62.48-154H802.31z M789.11,561.01
			l21.34-56.54c1.98-4.62,3.74-9.24,5.28-13.86c1.54,4.62,3.08,9.02,4.84,13.86l21.56,56.54H789.11z"/>
		<path class="st3" d="M906.37,470.81c-12.54-2.2-23.98,5.72-25.96,18.04c-2.2,12.1,5.72,23.54,18.26,25.74
			c4.4,0.66,8.8,0.22,12.54-1.54v-40.92C909.67,471.47,908.13,471.03,906.37,470.81z"/>
		<path class="st3" d="M962.47,478.73c11.88,1.98,23.32-5.94,25.52-18.04c1.98-12.32-5.94-23.76-17.82-25.74
			c-12.54-2.2-23.98,5.72-25.96,18.04C942.01,465.09,949.93,476.53,962.47,478.73z"/>
		<path class="st3" d="M970.17,617.55c-12.54-2.2-23.98,5.72-25.96,18.04c-2.2,12.1,5.72,23.54,18.26,25.74
			c11.88,1.98,23.32-5.94,25.52-18.04C989.97,630.97,982.05,619.53,970.17,617.55z"/>
		<path class="st3" d="M988.65,594.01c-2.2,12.1,5.72,23.54,18.26,25.74l1.54,0.22c0.04,0,0.07,0,0.11,0.01l-18.37-31.25
			C989.53,590.27,988.87,592.03,988.65,594.01z"/>
		<path class="st3" d="M897.79,583.67c-1.98,10.56,3.74,20.46,13.42,24.42v-41.14C904.39,569.59,899.11,575.75,897.79,583.67z"/>
		<path class="st3" d="M1116.25,463.55c-0.1,0.1-0.22,0.21-0.34,0.31l0.89-0.52C1116.61,463.41,1116.43,463.48,1116.25,463.55z"/>
		<path class="st3" d="M1093.15,462.89c-0.22,0.15-0.41,0.32-0.62,0.47l1.19-0.7C1093.53,462.74,1093.34,462.81,1093.15,462.89z"/>
		<path class="st3" d="M1219.87,597.53c0.22-1.32,0.22-2.86,0.22-3.96c0-4.18-1.32-8.58-3.96-11.88c-2.64-3.96-6.6-6.6-11-7.7
			c1.76-3.08,2.86-6.82,2.86-10.56c0-2.64-0.44-5.06-1.54-7.48c-3.08-8.14-11.44-12.98-19.58-12.32c0.22-1.54,0.22-3.08,0.22-4.62
			c0-2.2-0.22-4.4-0.88-6.38c1.32-0.44,2.64-1.1,3.96-1.76l2.64-1.54c3.3-1.98,6.38-5.06,8.14-8.8c1.1-2.64,1.98-5.5,1.98-8.58
			c0-1.32,0-2.86-0.44-4.18c2.42-0.44,4.84-1.1,7.04-2.42l2.64-1.54c1.54-0.88,2.86-1.98,4.18-3.3c3.96-3.74,5.72-9.02,5.72-14.08
			c0-3.3-1.1-6.6-2.42-9.68c0.22-0.88,0.22-1.76,0.22-2.86c0-11-9.02-20.02-20.24-20.02c-3.52,0-7.04,0.88-9.9,2.64l-2.64,1.54
			c-3.96,2.2-7.04,5.94-8.8,10.12c-5.06-1.32-10.56-0.66-15.18,1.98l-2.64,1.54c-1.54,0.88-2.86,1.98-4.18,3.3
			c-3.74,3.96-5.72,9.24-5.72,14.08c0,1.76,0.22,3.52,0.66,5.28c-1.76,0.44-3.74,1.1-5.5,2.2l-2.64,1.54l-0.66,0.44
			c-1.32-1.54-2.64-2.86-4.18-3.96c4.84-3.74,7.92-9.46,7.92-16.06c0-11.22-8.8-20.24-20.24-20.24c-3.3,0-6.82,1.1-9.68,2.64
			l-1.98,1.32c-3.08-1.76-6.38-2.64-10.12-2.64c-3.52,0-6.82,0.88-9.68,2.64l-0.75,0.44c2.48-0.96,5.13-1.54,7.79-1.54
			c2.2,0,4.4,0.22,6.38,0.88c-1.1-0.22-2.42-0.22-3.74-0.22c-3.08,0-6.16,0.88-8.58,2.2l-2.86,1.54c-3.52,2.2-6.38,5.72-7.7,9.9
			c1.04-5.01,3.68-9.21,7.52-12.07l-0.7,0.41c-5.94,3.3-10.12,9.9-10.12,17.6c0,6.16,3.08,12.1,7.92,15.84
			c-4.84,3.74-8.14,9.46-8.14,16.06c0,6.6,3.3,12.32,8.14,16.28c-4.84,3.52-8.14,9.24-8.14,15.84c0,6.6,3.3,12.54,8.14,16.28
			c-4.84,3.52-8.14,9.46-8.14,15.84c0,1.34,0.13,2.63,0.37,3.88c-2.05-1.13-4.32-1.94-6.75-2.34c-12.54-2.2-23.98,5.72-25.96,18.04
			c-2.2,12.1,5.72,23.54,18.26,25.74c5.91,0.99,11.72-0.48,16.33-3.7c3.33,6.42,10,10.96,17.55,10.96h2.42
			c3.3,6.82,10.34,11.44,18.26,11.44c3.52,0,7.04-0.88,10.12-2.64l2.64-1.54c5.94-3.52,9.9-9.9,9.9-17.16
			c0-5.94-2.2-11.44-6.38-15.18c2.86-2.2,5.28-5.5,6.6-9.02c1.98,0.22,3.96,0,5.72-0.44c0,0.66,0,1.54,0,2.2
			c0,4.62,1.76,9.02,4.62,12.98c4.62,4.84,11,7.26,16.94,6.82c-0.22,1.32-0.44,2.64-0.44,4.18c0,11,9.02,19.8,20.24,19.8
			c3.52,0,7.04-0.88,10.12-2.64l2.64-1.54l2.42-1.76c6.38,4.4,14.74,4.84,21.56,1.1l2.64-1.54c6.38-3.74,10.12-10.78,10.12-17.38
			c0-4.84-1.54-9.68-5.06-13.64C1232.19,599.29,1225.59,596.87,1219.87,597.53z M1217.23,599.07c2.42-0.22,5.06,0,7.48,0.88
			c-2.64-0.44-5.5-0.44-7.92,0.44C1217.01,599.95,1217.01,599.51,1217.23,599.07z M1204.25,576.19c-1.1-0.22-2.2-0.44-3.08-0.44
			c1.76-1.98,3.08-4.18,3.74-6.6c-0.44,2.2-1.32,4.4-2.42,6.38L1204.25,576.19z M1191.49,546.05c-2.42-0.44-5.06-0.44-7.48,0.22
			c0-0.44,0.22-0.66,0.22-1.1C1186.65,544.95,1189.29,545.39,1191.49,546.05z M1198.31,522.07c-1.54,3.3-3.96,5.94-6.82,7.92
			c-1.76,0.88-3.74,1.54-5.72,1.76l-1.98,1.1l-0.88-1.76c2.2-0.44,4.4-1.1,6.16-2.2l2.64-1.54c3.08-1.76,5.5-4.4,7.26-7.7l1.1-2.86
			C1199.63,518.55,1198.97,520.31,1198.31,522.07z M1213.71,502.05c-0.88,0.88-1.76,1.76-2.86,2.42c-2.64,1.32-5.72,1.98-8.58,1.98
			l-1.98,1.1c-0.22-0.66-0.44-1.1-0.66-1.76c3.08,0,6.16-0.66,8.8-2.2l2.64-1.54c3.96-2.42,6.6-5.72,7.92-9.46
			C1218.11,496.11,1216.35,499.41,1213.71,502.05z M1142.43,498.97l1.98-1.54c2.42-1.1,4.84-1.76,7.26-2.2l1.98-1.1
			c0.22,0.66,0.44,1.32,0.66,1.76c-2.64,0.44-5.06,1.1-7.26,2.42l-2.64,1.54c-1.1,0.66-1.98,1.32-2.86,1.98l-0.88-1.76
			L1142.43,498.97z M1136.05,495.67c-0.66-0.44-1.1-0.88-1.76-1.1l0.22-0.22c4.18-2.42,7.26-5.94,8.58-10.12
			C1142.21,488.85,1139.57,492.81,1136.05,495.67z M1091.61,496.11l1.98,1.1h-0.22c-4.18,2.42-7.26,5.94-8.8,10.34
			C1085.67,502.93,1088.31,498.97,1091.61,496.11z M1091.61,528.23l1.98,1.32l-0.88,0.44c-3.96,2.2-6.6,5.5-8.14,9.68
			C1085.67,535.05,1088.09,531.09,1091.61,528.23z M1091.61,560.35l1.98,1.32l-1.1,0.44c-3.74,2.2-6.38,5.72-7.92,9.68
			C1085.67,567.39,1088.09,563.21,1091.61,560.35z M1103.93,628.55c-1.98,0-4.18-0.22-6.16-0.88c1.32,0.22,2.42,0.22,3.52,0.22
			c1.54,0,2.42,0,3.74-0.44c0.22,0.44,0.44,0.88,0.44,1.1H1103.93z M1133.41,638.01c-2.64,1.32-5.72,1.98-8.8,1.98
			c-2.2,0-4.18-0.22-6.16-0.88c1.1,0.22,2.42,0.22,3.52,0.22c3.3,0,6.38-0.88,9.24-2.42l2.64-1.54c3.52-1.98,6.38-5.5,7.7-9.46
			C1140.45,630.97,1137.59,635.15,1133.41,638.01z M1152.99,594.01c-2.42,0.66-5.06,0.66-7.48,0l-2.64,1.54
			c-1.1,4.18-3.52,7.92-6.82,10.56c-0.44-0.44-1.1-0.88-1.76-1.32l0.88-0.44c3.96-2.2,7.04-6.38,8.14-11
			c3.3,0.88,6.6,0.44,10.12-0.66L1152.99,594.01z M1174.77,616.01c-2.64,0.22-5.06-0.22-7.7-0.88c2.64,0.44,5.28,0.22,7.92-0.44
			C1174.99,615.13,1174.77,615.57,1174.77,616.01z M1206.67,635.15c-1.1,1.1-2.2,1.98-3.3,2.86c-2.86,1.32-5.72,1.98-8.8,1.98
			c-2.2,0-4.4-0.22-6.38-0.88c1.1,0.22,2.42,0.22,3.74,0.22c3.3,0,6.38-0.88,8.8-2.2l2.86-1.54c1.1-0.88,2.42-1.76,3.52-2.86
			c0.44,0.44,1.1,0.88,1.54,1.32L1206.67,635.15z M1229.99,635.81c-4.62,2.2-9.68,2.42-14.3,1.1c3.96,0.66,7.92,0,11.66-2.2
			l2.64-1.54c4.18-2.42,7.04-5.94,8.36-9.9C1237.25,628.11,1234.17,632.73,1229.99,635.81z M1228.67,633.83
			c-6.6,3.3-14.3,1.76-19.58-3.3l-2.64,1.54c-1.32,1.54-2.64,3.08-4.4,4.18c-2.2,1.1-4.62,1.54-7.48,1.54
			c-10.34,0-18.04-7.7-18.04-17.6c0-2.64,0.44-4.62,1.32-7.04c-6.6,1.76-13.42,0-18.26-5.28c-2.64-3.74-4.18-7.48-4.18-11.88
			c-0.22-1.76,0.22-2.86,0.66-4.84c-4.18,1.32-8.58,1.76-12.1,0l-2.86,1.54c-0.66,5.28-3.52,9.9-7.7,12.54l-1.76,1.1
			c5.28,3.3,8.14,8.8,8.14,15.4c0,6.16-2.86,11.22-7.48,14.52c-2.2,1.1-4.84,1.54-7.7,1.54c-7.92,0-14.3-4.84-16.94-11.88
			c-1.32,0.44-2.2,0.44-3.74,0.44c-7.39,0-13.56-4.42-16.2-10.78c2.59-2.94,4.45-6.61,5.2-10.78c0.55-3.43,0.33-6.79-0.52-9.9
			c0.97-0.88,2.03-1.69,3.16-2.42l0.66-0.22c-5.94-3.08-9.9-9.02-9.9-16.28c0-6.16,3.08-11.44,7.92-14.74l1.98-1.1
			c-5.94-3.3-9.9-9.24-9.9-16.28c0-6.38,3.08-11.44,7.92-14.74l1.98-1.1c-5.94-3.3-9.9-9.24-9.9-16.28c0-6.82,3.74-12.32,9.24-15.84
			l0.66-0.22c-5.94-3.08-9.68-9.24-9.68-15.84c0-6.38,3.08-11.66,7.7-14.96c2.2-1.1,4.62-1.54,7.26-1.54c3.96,0,7.04,1.1,10.56,3.08
			l2.64-1.54c0.34-0.34,0.8-0.67,1.2-1.01l-0.98,0.57c-0.22,0-0.44,0.22-0.44,0.22l-2.42-1.1l2.42-1.32
			c0.22-0.22,0.44-0.22,0.44-0.44c2.64-1.32,5.5-1.98,8.36-1.98c2.42,0,4.4,0.22,6.6,0.88c-1.32-0.22-2.64-0.22-3.96-0.22
			c-3.08,0-5.94,0.88-8.36,2.42l-0.77,0.45c2.05-0.77,4.27-1.33,6.49-1.33c10.34,0,18.04,7.92,18.04,18.04
			c0,6.82-3.52,12.32-9.24,15.62l-0.44,0.44c3.52,1.98,6.38,4.4,7.7,8.14l2.64-1.54c1.1-1.32,2.2-2.64,3.74-3.52
			c2.86-1.32,6.16-1.98,9.46-1.76l2.64-1.54c-1.76-2.64-2.42-5.28-2.42-8.36c0-4.4,1.76-9.02,5.06-12.54l2.2-1.83l-0.88,0.51
			c-1.54,0.66-2.86,1.76-3.96,2.86c-1.98,1.98-3.3,4.4-4.18,6.82c0.88-3.52,2.64-7.04,5.28-9.9c0.88-0.88,1.76-1.76,2.86-2.42
			c4.62-2.2,10.12-2.64,14.96-1.1c-4.18-0.88-8.58,0-12.32,2.2l-0.55,0.32c4.89-2.05,10.48-1.72,15.29,1l2.64-1.54
			c0.63-5.05,3.29-9.48,6.99-12.36l-0.83,0.48c-3.96,2.2-7.04,6.16-8.36,11c-0.66-0.44-1.32-0.66-1.98-0.66l2.64-1.54
			c1.32-4.84,4.18-8.8,8.14-11.44c2.64-1.32,5.5-1.98,8.58-1.98c2.2,0,4.4,0.22,6.38,0.88c-1.1-0.22-2.42-0.22-3.74-0.22
			c-3.3,0-6.38,0.88-9.02,2.42l-0.66,0.39c2.24-0.9,4.64-1.27,7.04-1.27c10.12,0,18.04,7.92,18.04,17.82c0,1.1-0.22,2.2-0.22,3.3
			c1.32,3.08,2.42,6.16,2.42,9.24c0,5.5-2.2,11-7.48,14.74c-3.52,1.54-7.26,1.98-11,1.32l-2.64,1.54c1.32,2.64,1.98,5.28,1.98,7.92
			c0,2.64-0.66,5.06-1.76,7.7c-1.54,2.86-3.52,5.28-5.94,6.82c-2.64,1.32-5.5,1.76-8.36,1.76l-2.64,1.54
			c2.42,3.08,2.86,5.72,2.86,9.24c0,2.42-0.22,4.84-1.1,7.26c8.58-2.2,17.38,2.2,20.68,10.56c0.88,2.2,1.32,4.18,1.32,6.6
			c0,4.62-1.54,8.8-4.84,12.32c5.5,0.22,10.34,2.64,13.42,7.26c2.42,3.08,3.52,6.82,3.52,10.56c0,1.98-0.44,4.62-1.1,6.82
			c6.16-1.98,13.2,0,17.82,5.28c3.3,3.52,4.62,7.7,4.62,12.1C1236.59,624.81,1233.95,630.31,1228.67,633.83z M1091.7,592.74
			l1.89,1.05h-0.22c-0.37,0.22-0.73,0.45-1.08,0.69C1092.11,593.89,1091.92,593.31,1091.7,592.74z"/>
		<path class="st3" d="M1163.11,472.79l-0.44,0.37l1.21-0.71C1163.62,472.56,1163.36,472.67,1163.11,472.79z"/>
		<path class="st3" d="M1189.29,459.15c-0.17,0.12-0.33,0.27-0.49,0.4l1.15-0.67C1189.73,458.96,1189.51,459.05,1189.29,459.15z"/>
		<rect x="1274.35" y="643.18" class="st3" width="23.98" height="24.64"/>
		<rect x="1318.13" y="643.18" class="st3" width="24.2" height="24.64"/>
		<path class="st3" d="M1322.09,624.48l62.26-154h-24.86l-16.72,44.44h-67.76l-16.94-44.44h-25.96l62.48,154H1322.09z
			 M1335.29,534.5l-21.34,56.54c-1.98,4.62-3.74,9.24-5.28,13.86c-1.54-4.62-3.08-9.02-4.84-13.86l-21.56-56.54H1335.29z"/>
	</g>
	<path class="st3" d="M1049.59,513.05c-2.2-0.44-4.39-0.44-6.37-0.22v-41.79h-0.01v-0.01h-23.54v104.72v1.76c0,0,0.01,0,0.02,0.01
		c0,0.18,0,0.34-0.01,0.51c0-0.17,0-0.34,0-0.51c-1.54-0.66-3.3-1.32-5.06-1.54c-2.18-0.44-4.58-0.44-6.76-0.23l-21.92-37.37
		l2.06,0.41c11.88,1.98,23.32-5.94,25.52-18.04c1.98-12.32-5.94-23.76-17.82-25.74c-11.88-2.2-22.88,5.06-25.52,16.28l-23.21-39.33
		l-0.54-0.92h0l-0.01-0.01h-35.2v1.1c0,0,0.01,0,0.01,0v0.01l-0.01-0.02l-10.8,18.48l10.8,22.44v53.9l-5.62,17.02l5.62,24.12l0.01,0
		v0c0,0-0.01,0-0.01,0v16.94h0.01v0.01h23.32V603.9c3.52-3.08,6.15-7.48,7.03-12.53c1.32-7.92-1.54-15.61-7.03-20.45v-19.59
		c11,1.75,21.33-5.06,24.41-15.62l-0.06-0.09l0.08,0.01c-0.01,0.03-0.01,0.05-0.02,0.08l31.24,53.02c0,0,0,0,0,0l18.37,31.25
		c0,0,0,0,0,0l2.97,5.05h0l0.01,0.01h31.68v-67.99c11.44,1.1,21.99-6.6,24.19-18.26C1069.39,526.47,1061.47,515.03,1049.59,513.05z
		 M942.32,507.55h-0.53c-2.42-0.44-4.84-0.44-7.26-0.22c0-0.01,0-0.03,0-0.04c0-3.88-0.01-8.16-0.19-12.62
		c-0.01-0.32-0.02-0.63-0.03-0.96L942.32,507.55z"/>
</g>
<g id="Ebene_2">
</g>
<g id="Ebene_3">
</g>
</svg>
