<?xml version="1.0" encoding="utf-8"?>
<!-- Generator: Adobe Illustrator 27.0.1, SVG Export Plug-In . SVG Version: 6.00 Build 0)  -->
<svg version="1.1" id="Ebene_1" xmlns="http://www.w3.org/2000/svg" xmlns:xlink="http://www.w3.org/1999/xlink" x="0px" y="0px"
	 viewBox="0 0 802.2 669.8" style="enable-background:new 0 0 802.2 669.8;" xml:space="preserve">
<style type="text/css">
	.st0{fill:#00BE1E;}
</style>
<g>
	<path class="st0" d="M337.1,372.9c-1.7-5.3,4.4-6.8,22.4-4.6c-34.9-16.5-37.9-23.5,0.7-38.6c-1.3,6.2-1.9,12.8-1.9,19.8
		c0,44.8,27.2,76.9,69.9,76.9c21.8,0,38.4-10.1,46.3-23.4c-0.4,4.9-0.6,9.7-0.6,14.2v5.9h19.4V345h-64.6v19h44.1v2.1
		c0,26.6-17.3,41.4-42.5,41.4c-28.9,0-48.8-23.7-48.8-58.1c0-38,20.9-58.9,49.6-58.9c20.5,0,35.3,11.8,38,28.5h23.4
		c-3.2-27.7-27.5-47.5-61.7-47.5c-34.8,0-63.1,21.2-70.6,57.7c-5.8,0.3-11,0.4-15.3,0.4C305.9,345.4,305.2,352.4,337.1,372.9z"/>
	<path class="st0" d="M317.3,388.1c-1.5-1.3-2.3-1.5-2.5-0.8l4.9,4.9C318.3,390.2,317.7,389,317.3,388.1z"/>
	<path class="st0" d="M332.3,328.3c-15.4-3.2-11.2-13.7,7.6-38.9c-31.5,22.8-34,17.1-23.9-16.5c-4.6,7.6-8.2,12.2-10.6,13.9
		C296.4,323.3,299.5,332.4,332.3,328.3z"/>
	<path class="st0" d="M302.7,287.6c-1.9-1.5-1.7-8.2-0.4-19.2c-5.9,14.8-7.2,11.4-6.5-1.5c-2.5,8.4-3,7.4-2.1-0.2
		c-0.6,6.1-2.7,7.2-5.5,3.2C287.5,309.3,289.2,317.4,302.7,287.6z"/>
	<path class="st0" d="M305.4,286.9c1.3-4.9,2.7-10.1,4.4-16.1c-2.7,6.5-5.3,12-7.2,16.7C303.3,288.2,304.2,288,305.4,286.9z"/>
	<path class="st0" d="M340.7,388.3c0.4-2.1,3.2-2.5,9.9-0.4c-5.7-5.1-9.7-9.1-11.8-12.2C306.3,360.2,308.8,363.6,340.7,388.3z"/>
	<path class="st0" d="M331.4,404.6c0.6,0.6,1.1,1.3,1.5,2.1c-4.9-5.5-9.3-10.3-13.3-14.6l11,16.7c-15-18.8-12.9-13.5-3.8,3
		c-3.2-3.6-3.6-3-3-0.8c-6.8-14.4-9.7-22.2-9.1-23.7c-19.4-19-28.7-18.8-41.6,3.4c8.4-5.1,13.7,5.3,20.9,32.3
		c0.8-43.3,6.5-43.5,30-11l1.3,3.4l2.5,6.8h24.9c0,0-1.9-5.1-5.3-12.9c-1.5-4-3.4-8.9-3.2-12c-2.3-3.6-4-7-3.6-8.9
		C305,361.1,303.1,362.8,331.4,404.6z"/>
	<path class="st0" d="M283.3,266.7v3.6h0.2C283.5,269,283.5,267.7,283.3,266.7z"/>
	<path class="st0" d="M220.3,377.3c-1.9,0.8-3.8,1.9-5.9,3C216.5,379.2,218.4,378.4,220.3,377.3z"/>
	<path class="st0" d="M207,333.2l3.4,0.8c-0.6-0.2-1.3-0.6-2.1-0.8H207z"/>
	<path class="st0" d="M276.7,266.9c0,1.7,0.2,3.4,0.2,4.9h0.4L276.7,266.9z"/>
	<path class="st0" d="M279.5,266.7c0,1.9,0,3.8,0.2,5.5h0.2C279.7,270.5,279.5,268.6,279.5,266.7z"/>
	<path class="st0" d="M264.5,269.2c0.2,1.5,0.6,2.7,1.1,4h0.2L264.5,269.2z"/>
	<path class="st0" d="M331.4,404.6c-11-14.2-15.4-19.2-14.2-16.5C320,390.4,324.7,395.9,331.4,404.6z"/>
	<path class="st0" d="M353.2,382.6c-5.9-3.6-11.4-6.8-16.1-9.7c0.4,0.8,0.8,1.7,1.7,2.7C343,377.6,347.7,380.1,353.2,382.6z"/>
	<path class="st0" d="M263,401.4c-1.1,5.3-2.3,11.2-3.8,17.7c5.3-11.8,9.7-21.3,13.9-28.5C270.2,392.5,266.8,396.1,263,401.4z"/>
	<path class="st0" d="M210.4,370.6c4.6-1.3,8.7-2.5,12.5-3.4c-0.4-0.4-1.1-0.8-1.9-1.1C217.8,367.4,214.2,368.9,210.4,370.6z"/>
	<path class="st0" d="M288.1,269.8c0-1.1,0.2-2.1,0.2-3.2l-0.4,3C288.1,269.6,288.1,269.8,288.1,269.8z"/>
	<path class="st0" d="M359.7,323.9c-10.8,2.1-19.9,3.6-27.5,4.4c3.4,0.8,7.6,1.1,12.7,1.3C349.4,327.7,354.4,325.8,359.7,323.9z"/>
	<path class="st0" d="M259.8,277.7c-1.1-1.9-1.9-3.8-2.7-6.1c0.4,1.7,0.8,3.4,1.5,4.9C259,276.8,259.4,277.4,259.8,277.7z"/>
	<path class="st0" d="M287.9,269.6c-0.4-1.1-1.1-2.1-1.7-3.6c-1.1,1.7-1.9,3.2-2.7,4.2C283.9,305.5,284.8,307,287.9,269.6z"/>
	<polygon class="st0" points="162.7,423 162.7,293.9 212.9,293.9 212.9,275.1 89.8,275.1 89.8,293.9 140.3,293.9 140.3,423 	"/>
	<path class="st0" d="M263,401.4c7.8-40.6-1.9-37.6-43.3-12.2c35.3-27,34.2-28.5,0.6-11.8c-1.5,1.7-3.2,3.4-5.3,5.3
		c7,1.3,4.6,7,2.5,12.5c-6.5,15.8-11,27-11,27h23.9l2.5-6.8c1.5-4,3.6-9.3,1.1-9.3c2.5-4.2,4.4-7.6,4.9-9.5
		c19.6-16.9,23.2-13.3,13.9,20.5C256.7,410.7,260,405.6,263,401.4z M237.4,395.3c-1.7,0.6-4.2,2.5-8.2,5.7
		c9.3-10.8,13.5-16.3,11.8-15.6C244.8,383,243.8,386,237.4,395.3z"/>
	<path class="st0" d="M258.6,276.4c-1.1-1.1-2.1-2.5-3.4-4.4c4.4,19,2.5,23.9-13.9,7.6c4.2,9.5,6.8,16.3,6.8,20.7
		C268.3,316.7,268.5,308.9,258.6,276.4z"/>
	<path class="st0" d="M248,300.3c-4.2-3.6-9.5-8-15.6-13.7c5.5,7.2,9.9,13.5,13.3,18.8C247.4,304.5,248.2,302.8,248,300.3z"/>
	<path class="st0" d="M210.4,334c27.2,11.2,23.7,18-2.1,30.2c5.9,0.2,10.1,0.8,12.7,1.9C256.2,350.9,254.8,345.9,210.4,334z"/>
	<path class="st0" d="M222.9,367.2c2.7,2.1,1.5,5.7-2.5,10.1C249.9,362.3,252,359.6,222.9,367.2z"/>
	<path class="st0" d="M245.7,305.3c-3.6,1.5-11.4-0.6-24.5-6.8c24.7,26.2,22.2,32.7-14.2,34l1.3,0.6
		C253.9,335.7,262.8,331.9,245.7,305.3z"/>
	<path class="st0" d="M276.9,271.7c-1.5-0.8-3.2-2.3-4.9-4.6c-0.2,0.2-0.2,0.6-0.4,1.1C277.4,295.6,278.4,295.2,276.9,271.7z"/>
	<path class="st0" d="M271.7,268.1c-2.7,5.9-5.3,5.7-6.8,0.2c0.6,2.7,1.1,4.4,0.8,4.9C275.2,303.6,275.9,300.5,271.7,268.1z"/>
	<path class="st0" d="M708.6,299.4c-1.7-2.1-2.7-4-4.2-5.9c-1.7-2.7-4-5.1-5.7-8c-3.2-4.9-6.8-9.5-11.8-12.7
		c-9.7-6.3-20.3-11.2-32.3-13.5c-8.9-1.7-18-4.2-27.5-4.6c-6.1-1.9-12.5-0.6-18.8,0.4c-9.9,0.6-19.9,3.4-30,4.4
		c-5.5,0.2-11,0.8-16.1,3.6c-1.1,0.4-2.5,1.3-3.4,2.1c-4.4,3.2-8.4,6.5-12.5,9.7c-5.7,4.2-11.8,8.2-17.7,12.7
		c-1.5,1.1-3.2,3-4.2,4.6c-4.4,8-9.9,15.6-13.7,24.1c-4.2,9.7-7.8,19.9-7.8,30.8c0,1.5,0,3.2-0.2,4.6c-0.8,7.8,1.1,15.4,0.6,23.2
		c-0.2,2.5,1.1,5.3,1.5,7.8c2.3,7.6,4.9,15.2,7,22.8c1.9,7.6,6.5,13.3,12,18.6c0.8,0.6,2.3,1.3,3.4,1.7c2.1,1.3,4.4,2.1,6.5,3
		c4.6,1.7,8.4,3.6,11.8,6.5c2.3,1.7,4.9,2.5,7.4,3.2c6.1,2.5,12.9,3.4,19.2,5.5c6.1,1.9,12.2,2.7,19,3c5.5,0.2,11.4,0.6,17.3,0.8
		c1.5,0,2.7,0.2,4.2,0c9.3-2.3,18.8-1.7,28.3-4c2.5-0.6,5.3-0.8,8,0.2c1.9,0.8,4,0.4,6.1,0c4.2-0.2,8.7-1.1,13.3-0.8
		c8.9,0.4,17.5,0.6,26.4-1.9c0.8-0.6,1.9,0.2,3.2-0.4c1.9-0.8,4.4-1.3,6.3-3c2.1-1.7,4.4-4.2,6.3-7c1.1-2.1,1.1-5.1-0.6-6.8
		c-2.3-3.2-4.9-6.1-9.5-6.5c-5.9-0.4-11.8-1.1-17.7,0.8c-1.1,0.4-2.3,0.8-3.6,0.2c-1.7-0.4-3.2-0.2-4.6,0.4
		c-4.4,1.3-8.7,1.5-13.5,1.3c-3.6-0.2-7.4-0.4-11.2,0.2c-8,1.1-16.1,2.7-24.1,3.8c-5.5,0.8-10.8,1.5-16.3,1.3
		c-6.1,0-12.2-0.4-18.4-0.8c-2.3-0.2-4.9-0.2-6.8-1.3c-5.9-2.5-12.7-2.3-17.7-7c-0.6-0.6-1.7-1.1-2.3-1.1c-3.6-0.6-6.8-2.5-10.1-4.4
		c-4.4-3-8.9-5.9-13.3-8.9c-4.4-3-7.4-7.4-8.2-12.5c-2.1-10.6-5.1-21.5-6.1-32.5c-0.2-3.6,0.4-7,0.8-10.3c0-1.5,0.8-3.2,1.1-4.6
		c1.1-7.6,3.8-14.4,7.2-20.9c3.8-7,8.9-12,13.1-18.2c0.4-1.1,1.5-1.7,2.3-2.3c5.3-4.2,10.8-7.8,15.8-12.2c5.5-4.2,11.6-6.8,18.2-8.4
		c10.6-2.5,21.8-4.2,33.2-3.4c4.9,0.4,9.7,0.4,14.4,0.6c6.3,0.2,12.9,0.6,19,2.5c6.5,2.1,13.1,3.8,18.8,7.8
		c8,5.3,13.5,12.2,17.5,20.7c1.9,3.4,3.2,7.2,2.3,11.4c-0.6,2.3-0.4,4.6-0.4,7c0,1.9-0.2,3.8-0.6,5.7c-0.2,2.5-0.8,5.3-1.3,7.8
		c-1.7,7.4-5.1,14.2-9.9,19.6c-3,3.4-6.5,6.3-10.3,9.1c-7.6,6.1-16.5,10.8-26.6,12c-3.8,0.2-8,0.8-11.8,1.5
		c-7.2,1.1-14.8,1.7-22.2,1.3c-6.3-0.2-12.2-0.6-17.1-5.1c-0.4-0.6-1.7-0.4-2.3-1.1c-3.6-2.3-7-4.4-9.3-8.4
		c-1.3-2.3-3.2-4.6-5.1-6.1c-3.6-3.6-4.2-8.7-6.1-13.1c0-0.4-0.2-1.1,0-1.5c1.3-3.8,1.5-8.4,5.5-11.2c2.5-2.1,5.3-4.4,7.2-7.4
		c4.9-6.8,12.2-9.3,19.6-11c3-0.6,5.9-1.7,8.7,0c0.6,0.4,1.7,0.4,2.3,0.4c5.7-0.2,10.8,2.5,16.1,4c1.1,0.2,2.3,1.1,3.8,2.5
		c-1.1,1.7-1.5,3-1.9,4c-3.6,6.1-8.7,10.1-15.8,11.2c-4.9,0.6-9.3,0.8-14.4,0.4c-3.4-0.4-6.1,0.4-9.1,2.5c-3.2,2.1-4,5.5-3.8,8.9
		c0.4,5.9,5.1,10.3,11,11c7.4,0.6,15,0.2,22.4-1.3c6.5-0.8,12.9-3.2,19-5.1c4-1.5,8.2-1.9,10.3-5.7c0.4-0.4,1.1-0.8,1.5-0.8
		c3.8-0.6,5.5-3.8,7.8-6.3c2.5-1.9,3.2-4.6,3.2-7.6c-0.2-5.9-0.2-11.6-0.8-17.5c-0.4-4-1.9-7.6-5.3-10.1c-3.4-2.3-5.9-5.3-9.1-7.4
		c-3.4-2.7-6.3-4.6-10.6-5.5c-1.9-0.4-4-0.8-6.1-1.9c-5.7-2.1-11.2-2.1-17.1-0.2c-5.3,1.5-10.8,2.3-16.5,2.1
		c-5.7-0.4-11.2,0.8-16.7,2.3c-3,0.6-5.7,2.5-7.8,4.9c-1.1,1.5-1.9,2.5-3,4c-5.1,6.1-9.7,12.7-17.1,16.3c-1.7,1.3-3,2.5-3.4,4.4
		c-0.6,2.3-1.5,4.9-1.7,7c-0.6,4.4,0,8.7-2.1,12.7c0,5.7-1.1,11.4,3.2,16.7c0.8,0.8,0.8,2.1,1.1,3c0,2.5,1.1,4.4,2.7,6.3
		c5.1,5.7,10.1,11,15.4,16.1c2.1,2.3,5.3,3.2,7.4,4.9c4,3.8,8.7,4.9,13.5,6.3c2.5,1.1,5.3,1.7,7.8,1.9c2.5,0.4,4.6,0.4,7.2,0.4
		c1.5,0,2.7-1.1,4-0.8c4.4,1.3,9.5,0,14.2,0.6c2.5,0,5.3-0.2,7.8-0.8c5.7-0.6,11-1.9,16.7-2.5c12.5-1.3,19.9-3,29.6-8.2
		c3.8-2.1,8-4,11.4-7.4c6.5-5.5,12-11.8,17.5-18.2c0.8-1.1,1.1-2.1,1.3-3c1.7-6.3,3.2-12.5,4.2-18.6c0.8-4.6,2.3-8.9,1.3-13.5
		c2.1-7,1.3-13.7,2.1-20.9C712,306.4,711.2,302.8,708.6,299.4z"/>
	<path class="st0" d="M279.7,272.2c-0.8,0.2-1.7,0-2.3-0.4C279.9,293.7,280.5,295.4,279.7,272.2z"/>
	<path class="st0" d="M283.3,270.3c-1.1,1.1-2.3,1.9-3.4,1.9C282.2,300.9,283.1,301.7,283.3,270.3z"/>
	<path class="st0" d="M265.5,273.2c-0.4,0.2-1.5-1.1-3-4c1.1,8,0.6,11.8-2.7,8.4C272.9,306.8,273.6,304.3,265.5,273.2z"/>
	<path class="st0" d="M667.5,231h22.4V168h34.4c20.5,0,28.5,7,28.5,28.1V231h22.4v-39.1c0-19.2-9.7-31.5-24.7-34
		c13.5-4,27.7-16.7,27.7-35.9c0-25.3-18.8-38.9-46.9-38.9h-63.8V231z M689.9,101.9h36.5c18.6,0,28.7,8,28.7,23.4S745,149,726.4,149
		h-36.5V101.9z"/>
	<path class="st0" d="M518.6,259.4l0.2-0.4C518.8,259,518.3,259.4,518.6,259.4z"/>
	<path class="st0" d="M518.3,265.7v-0.4c0-0.4,0-0.6,0.2-0.8c0,0-0.2-0.2,0-0.4c0.2-0.4,0-0.8-0.2-1.1c-0.2,0.2-0.2,0.4-0.2,1.3v0.2
		c0,0-0.2,0.4-0.2,0.6l0.2,0.4c0.2,0,0,0.4,0,0.4c0,0.2,0.2,0,0,0.4C518.6,266.2,518.6,266.2,518.3,265.7z"/>
	<path class="st0" d="M146.4,170.6c0.2,2.3,0.4,4.6,0.6,7c0.8,5.9,2.3,11.4,4.2,17.1c1.7,4.6,4.4,8.9,9.7,10.8l0.4,0.2
		c0.4,1.1,0.8,2.3,1.3,3.4c3.2,6.1,7.6,11.6,11.6,16.1c3.2,3.4,6.8,6.5,10.6,9.1c1.3,1.1,2.3,2.5,3,4.6c1.3,3.4,3.8,5.9,6.5,7.4
		c7.2,3.6,14.8,5.5,22.8,6.1c4.6,0.6,9.3,0,13.5-1.1c2.5-0.8,4.9-1.5,7.2-2.3c0.8-0.4,1.9-0.6,3-1.1c4.2-1.5,6.8-5.1,8-9.3
		c0.4-0.8,0.6-1.1,1.1-1.3c5.7-3.8,11.2-8.2,16.1-13.9c3.6-4,7-8.2,9.9-12.9c0.4-0.4,0.6-0.6,1.3-0.6c4-0.8,7.2-3.2,8.9-6.8
		c3.2-4.9,5.5-10.1,7.8-15.6c2.1-6.5,3.8-13.1,4.6-19.6c1.1-4.4-0.6-8-2.3-11c-0.4-0.8-0.6-1.5-0.6-2.3c0-0.8,0.2-1.9,0.2-2.7
		c0.2-1.5,0.4-3,0.4-4.6V134c-0.2-4.4-0.2-8.7-0.2-13.1v-0.2l-0.2-0.6c-0.2-0.4,0-0.4,0.6-1.3c1.5-2.5,3.2-5.3,3.2-8.7
		c0-4-0.8-8.7-1.5-12.5l-1.3-7.6c-0.4-2.3-0.8-4.9-1.3-7.4c-0.2-1.5-0.6-3-1.1-4.2l-0.6-3c-2.3-6.8-7.6-10.3-13.5-11
		c-6.1-1.1-12,0.8-16.7,5.7c-3.6,3.8-4.9,7.8-4.2,13.1c0.2,2.5,0.8,5.3,1.3,7.8c0.4,1.7,0.8,3.4,1.1,5.3l1.3,7.6
		c0.4,2.1,0.8,4,1.1,6.1c0.8,4.4,2.5,9.1,6.8,11.6v0.2c0.2,3.4,0.4,6.3,0.4,9.7c0,6.3-0.2,12.9-0.4,19.2c0,1.3-0.2,2.1-1.5,3
		c-1.9,1.5-4,3.6-4.9,6.3c-0.6,1.3-0.8,2.7-1.3,4.2c0,0.4-0.2,0.8-0.2,1.3c-1.7,6.1-3.6,11.8-5.9,17.5c-0.8,1.5-1.3,3-1.7,4.2
		c-1.3,2.7-1.1,5.7,0.2,8.2c0,0.6,0,0.8-0.2,1.3c-2.3,3-4.6,6.5-7.8,9.3c-1.7,2.1-3.2,3.6-5.3,5.3c-1.9,1.7-4,3.4-6.1,5.1
		c-0.2,0.2,0,0.2-0.8,0c-2.5-1.3-5.7-1.7-9.1-0.6c-2.3,0.6-4.4,1.1-6.3,0.8c-3.4,0-6.5-0.6-9.5-1.9c-2.3-0.8-5.5-1.3-8.2,0
		c-1.5,0.6-1.7,0.6-2.5-0.6c-1.3-1.1-2.3-1.9-3.4-3c-1.5-1.3-3-2.3-4.2-3.8c-3.2-3.6-5.7-7.4-7.8-11.4c-0.6-1.1-0.6-1.7,0-2.7
		c1.5-2.3,1.7-5.1,1.3-7.6c-1.3-4.2-2.1-8.4-3-12.5c-0.2-0.6-0.2-1.5-0.4-2.1c-0.4-2.5-0.6-5.1-0.8-7.6c-0.2-1.5-0.4-3-0.4-4.2
		c-0.4-3.4-1.7-6.3-4.2-8.9c-0.6-0.4-0.8-0.6-0.8-1.1c0-2.5,0.4-5.3,0.6-8c0-1.7,0.2-3,0.4-4.4c0.2-3,0.6-5.9,1.1-9.3l0.6-4.2
		c0.2-1.5,0.4-3,0.6-4.2c0.2-1.5,0.4-2.5,1.9-3.2c0.4-0.2,0.8-0.6,1.1-1.1c0.2,0,0.2-0.2,0.4-0.4c2.3-2.7,3.4-6.3,3.6-9.5
		c0.2-1.7,0.2-3.4,0.4-4.9c0.2-1.5,0.4-3,0.4-4.4c0.2-2.7,0.4-5.1,0.4-7.4c0.2-1.7,0.2-3.4,0.4-5.1l-0.2-2.1v-2.3
		c-0.2-1.3-0.2-2.3-0.4-3.4c0-1.1,0-2.3-0.2-3.4c-0.4-5.1-3.6-8.4-7.4-11c-4.2-2.5-8.4-2.5-13.1-1.5c-4.9,1.1-8.9,4-11.6,8
		c-1.5,1.7-2.3,3.6-2.5,5.5c-0.2,2.5-0.2,5.1-0.2,7.4c-0.2,1.7-0.2,3.2-0.2,4.6c-0.4,1.9-0.4,3.6-0.6,5.5v2.5
		c-0.2,1.9-0.2,3.8-0.2,5.7c-0.2,1.9-0.2,3.8-0.4,5.7c-0.2,3.2,1.1,5.9,3.2,8.4c0.8,0.8,0.8,1.3,0.8,2.5c0,1.5-0.2,2.7-0.6,4
		c-0.2,1.1-0.4,2.3-0.4,3.6c-0.4,3.4-1.1,7.2-1.3,10.8c-0.2,1.9-0.4,3.6-0.4,5.1c-0.4,3-0.8,5.9-0.8,8.7c-0.2,1.1-0.4,1.3-0.8,1.9
		c-2.7,2.7-4.2,6.3-3.8,10.3v3.6h0.6l-1.3,0.2L146.4,170.6z M154.3,157.9H154l0.2-0.2V157.9z M162.5,100.1
		C162.4,100.3,162.4,100.3,162.5,100.1L162.5,100.1z M160.2,162.7c3.4,1.1,7,0,9.5-1.9c0.2,1.3,0.4,2.5,0.6,3.8
		c0,1.3,0.2,2.5,0.4,3.8c0,0.4,0.2,0.6,0.2,1.1c0.2,1.9,0.4,4,0.8,5.7c0.6,4.2,1.5,8.2,2.3,12c-4.6-1.3-9.3,0-12,3.8
		c-1.5-4.9-2.7-9.3-3.6-14.1c-1.1-5.1-1.3-9.9-1.3-15.4L160.2,162.7z M189.3,220.6c0.2,0.2,0.6,0.6,1.1,0.6c0.8,0.6,0.8,0.6,0,1.5
		l-0.4,0.6l-0.2,0.2l-0.2,0.2l-0.2-0.2c-2.5-2.5-5.7-5.5-8.2-8c-3.4-3.4-5.3-6.8-7.4-10.6l-0.2-0.2l0.6-0.2c0.2,0,0.2-0.2,0.4-0.4
		c0.6-0.4,1.1-0.6,1.2-0.6c0.2,0.1,0.4,0.3,0.5,1l0.8,1.3C180,211.1,184.7,216,189.3,220.6z M206.8,225.3c3.6,1.5,7.6,2.1,11,2.7
		c2.1,0.2,4,0,5.7-0.4c1.5,0,3-0.4,4.4-0.8c0.6-0.2,1.3-0.2,1.9-0.2c-0.4,1.9-0.2,3.4,0,4.9c0.8,3.4,2.3,5.5,4.6,7.2
		c-3.4,1.5-7,2.3-10.6,2.3c-1.1,0-1.9,0.2-2.5,0.4c-0.4,0-0.6,0.2-0.8,0.2c-6.1-0.4-11.6-1.3-16.7-3.4c-0.6-0.4-1.3-0.8-2.3-1.1
		c0.8-0.4,1.7-0.8,2.1-1.3C206.4,233.1,207.7,229.1,206.8,225.3z M260.1,209l2.1-2.7l0.2-0.2c0.4,0.4,1.3,1.1,2.1,1.5v0.1l-0.2-0.1
		c-1.1,1.9-2.3,3.4-3.8,5.3c-2.5,3-4.9,5.5-7.8,8.2c-0.8,0.8-1.9,1.7-3,2.3c-0.8,0.6-1.7,1.5-2.5,2.3v0.2c0-0.6-0.4-1.1-0.6-1.3
		s-0.2-0.4-0.2-0.4l-0.6-0.6l0.6-0.4c3.8-3.2,7.6-6.5,11.2-10.8C258.4,211.1,259.2,210.3,260.1,209z M265.8,207.5l-0.4,0.6l-0.4-0.2
		L265.8,207.5z M167.6,123l-0.6,4.2c-0.4,1.5-0.6,3-0.8,4.4c-0.2,1.3-0.4,3-0.4,4.4c-0.2,2.3-0.4,4.6-0.4,7.4c0,1.3,0,1.3-1.7,1.3
		h-0.8v-1.3c0-0.6,0.2-1.5,0.2-2.1c0-1.1,0.2-2.1,0.2-3c0-1.1,0-2.1,0.2-3l0.6-5.5c0.2-1.7,0.4-3.6,0.8-5.3v-2.5
		c0-0.6,0.2-1.3,0.2-1.9h1.1c0.4,0.2,1.1,0.2,1.7,0.4C167.8,121.3,167.8,122,167.6,123z M243,233.1c0.2,0,0.2,0.2,0.2,0.2L243,233.1
		z M273.6,191.7c-2.1-1.1-4.6-2.1-7.6-1.5c4-8.2,6.8-16.9,8.9-25.6c2.7,2.7,6.5,4.2,10.1,3.4c0.8-0.2,1.9-0.4,2.5-0.8
		c-0.8,5.1-2.1,9.5-3.8,14.6c-0.6,1.7-1.5,3.6-2.1,5.7c-0.8,1.7-1.5,3.6-2.3,5.5c-0.4,0.6-1.1,1.5-1.5,2.3c0,0.2-0.2,0.4-0.2,0.4
		C276.8,194.2,275.5,192.5,273.6,191.7z M282.7,135.9v-8.2V127v-1.7c0.2,0,0.6,0,1.1-0.2h0.8c0.4,4,0.6,7.8,1.1,11.8l-0.4,0.4v4.6
		v2.7c-0.2,1.7-0.2,3.4-0.6,5.1h-0.6c-0.6,0-1.1-0.2-1.7-0.2C282.9,145,282.9,140.6,282.7,135.9z M276.8,196.7
		c0-0.2,0.2-0.2,0.2-0.2L276.8,196.7z M275.3,75.5l2.1-0.6c2.3,0.2,3.8,0.6,4.9,2.1c0.4,0.6,0.6,1.5,0.8,2.5
		c0.2,0.4,0.2,0.8,0.4,1.1c0.2,1.5,0.6,2.7,0.8,4.2c1.1,4,1.9,8.2,2.5,12.5c0.2,1.5,0.4,2.7,0.4,4.2l0.6,4.2v1.9v0.4
		c-1.3-0.4-2.7-0.8-4-1.1c-1.7-0.4-3.4,0.2-5.1,0.6c-1.3,0.6-2.5,1.3-3.4,2.1c-0.6-2.3-1.1-5.1-1.7-8.2l-1.3-8.2
		c-0.4-2.1-0.6-4-0.8-5.9l-0.6-3.8c0-0.2-0.2-0.6-0.2-1.1c0-0.4-0.2-0.8-0.2-1.3c-0.4-2.7,0.6-3.8,2.5-4.9
		C273.8,75.9,274.4,75.7,275.3,75.5z M175.8,118.9C175.8,118.7,175.8,118.8,175.8,118.9L175.8,118.9z M165.4,71.3
		c2.3-1.3,4.4-1.9,6.8-1.1c3.2,1.1,3.6,1.7,4.2,5.3v5.7v2.5v5.9c-0.2,4.2-0.8,8.7-1.5,12.7c-0.2,0.6-0.2,1.7-0.4,2.5
		c-1.7-1.5-3.8-2.5-5.9-3c-2.3-0.2-4.2,0.4-5.9,0.8c-0.2,0-0.4,0.2-0.6,0.4c0.2-0.4,0.2-0.6,0.2-1.1c0-0.6,0.2-1.3,0.2-2.1l0.2-0.2
		v-5.3c0-1.7,0.2-3.4,0.2-5.3c0.2-4.9,0.4-9.9,0.4-14.8C163.3,73,164.4,72.1,165.4,71.3z"/>
	<path class="st0" d="M136.3,225.9l29.8-4.4L82,150.3l53.2-73.7l-27.9,4l-43.5,61c-3,4-5.5,7.6-7.6,11.2L47,89.5l-22,3.2L46.5,239
		l21.8-3.4l-8-55.3l9.1-12.7L136.3,225.9z"/>
	<polygon class="st0" points="511.8,265.3 512.2,265.5 512.2,265.1 	"/>
	<path class="st0" d="M500,265.5l1.1,0.2l0.8,0.4c0.4,0,0.4,0,0.4-0.2l0.8-0.2c0.2,0,0.2,0,0.2,0.4c0.2,0.4,0.4,0.6,0.2,1.1
		c0.2,0.2,0.2,0.8,0.4,1.1c0.4,0.8,0.4,1.3,1.3,1.7l0.6,0.4h0.4h0.6l0.6,0.4c0.6,0,0.6-0.4,1.1-0.4c0,0,0.2,0,0.6-0.2
		c0.4-0.6,0.6-0.6,1.1-0.2l-0.2-0.4l0.6,0.4l0.6,1.7c0,0,0.8,0,1.1,0.2v0.4h0.2c0.2-0.2,0.6-0.2,1.1,0h0.4c0.4,0,0.8,0.4,0.8-0.4
		c0.6,0,0.6,0.2,1.3,0l0.2-0.6c0.6,0.4,0.6-0.6,1.5-0.8c-0.2,0,0.2-0.4,0.2-0.2l0.2-0.8c0.4-0.6,0.6-0.6,0.8-1.1v-1.1l0.4-1.1
		l0.4-1.7c0.2-0.2,0.2-0.2,0-0.4c0-0.2,0.2-0.4,0-0.4c0.2-0.6,0-1.1,0-1.1v-0.8c0.1-0.1-0.1-0.2-0.2-0.3c0,0,0.1,0,0.2,0.1
		c-0.4-0.4-0.2-0.6-0.4-1.1c0.2-0.4,0-0.6-0.2-1.1c-0.4-0.2-0.2-0.6-0.2-0.6c-0.2-0.6-0.2-0.6-0.6-1.3v0.4l-0.2,0.6h0.4
		c-0.4,0.2-0.4,0.2-0.4,0v0.2l0.4,0.2c0,0.4,0.2,0.8,0.2,0.8c0.2,0.2,0.8,0.8,0.4,0.8h-0.2c0.2,0.8,0.4,1.7,0.2,2.5
		c0.4,0,0.4,0,0.2,0.2l-0.2,0.4v0.6c0.2,0.2,0,0.6,0,0.6v0.2c-0.2,0-0.2,0.6-0.4,1.1v1.1l-0.2,0.2l-0.2,0.2c0,0.4-0.2,0.8-0.2,0.8
		c0.2-0.4-0.2-1.1,0.2-1.3c0-0.6-0.4-0.6-0.2-0.8l-0.2-0.2v0.2c0,0.2,0,0.4-0.2,0.8c0,0.4-0.2,0.8,0,1.1l-0.8,1.7h-0.2l-0.2,0.4
		c0,0-0.2,0.2-0.4,0.2c-0.2-0.6-0.2-1.5-0.4-1.7l0.2-0.2l0.2-0.4l0.2-0.8c0.2,0,1.1-6.1,0.6-9.7c0.2,0.2,0.2-0.2,0.6,0l0.2-0.2
		c0.4,0.2,0.6,0,0.6,0.2l-0.2-0.6h0.4l-0.2,0.2c0.6,0.2,0.4,0.6,0.6,0.6c0.4,0.6,0.6,1.1,1.3,1.7c0,0.2,0,0.4,0.2,0.8v0.4
		c-0.2,0.4-0.2,0.4,0.2,0.4l-0.2,0.6l0.2,0.4c-0.4-0.2-0.2,0.2-0.2,0.2c0.4,0,0.2,0.2,0.2,0.6l-0.2,0.2c-0.2,0.2,0,0.4,0.4,0.4
		c-0.6,0.2-0.2,0.8-0.2,1.1v0.2l-0.2,0.8v0.4c0,0.2,0,0.6-0.2,0.8c0.2-0.2,0.2,0.6,0.2,1.3c0.2,0.2,0.2,0.6,0.2,0.6l-0.2,0.4
		l0.2,0.2c-0.4,0.6,0,0.6-0.2,0.8l0.2,0.4l-0.4,0.8c0.6,0.4,0.6,0.4,0.2,0.8c0.4,0.4,0.4,0.4,0.2,0.4l0.2,0.8h0.2
		c0.4-0.4,0.6-0.6,0.8-0.6h0.2c0-0.8-0.8-0.8-0.8-1.3c0.4-0.4,0.4-0.6,0.4-0.8c-0.4-0.2-0.4-0.2,0-0.6l-0.2-0.6c0,0,0.2-0.2-0.2-0.8
		v-0.4c0.2,0,0.2,0-0.2-0.6l0.2-0.4l0.2-0.8c-0.2-0.4-0.2-0.6,0-1.3v-0.6l0.2-0.6v-0.4l-0.2-0.4c0.2,0,0.2,0-0.2-0.6v-0.4l0.2-0.6
		c0-0.2,0-0.4-0.4-0.8l0.2-0.6l-0.4-0.6c0.2-0.6,0-0.6-0.2-0.8c-0.4-0.6-0.4-1.3-1.1-1.9c0-0.2-0.4-0.4-0.4-0.4l-0.4-0.2V256
		l0.2-0.2l0.6,0.2l0.8,0.2c0.2,0,0.6-0.6,0.6-0.4c0.6-0.2,0.6,0,0.8-0.2c1.1-0.4,1.7-1.3,2.3-1.3h0.4c-0.2-0.4,0-0.4,0.2-1.1
		c0,0,0.4-0.2,0.6,0c0-0.2,0.6-0.6,0.6-1.1c0.2,0,0.4-0.2,0.4-0.2c0-0.4,0.6-0.4,0.8-0.8c0.6-0.4,0.8-0.2,1.7-0.6c0,0.2,0.6,0,0.6,0
		c0.4,0.2,0.4,0.2,0.4,0l0.2-0.6c0,0,0.2-0.6-0.2-0.4c0,0.2-0.8-0.2-1.1,0.2c0.2-0.4-0.4,0-0.4,0c0,0.2-0.6-0.2-0.8,0.2
		c-0.4,0.2-0.8,0.6-1.1,1.1c-0.4,0-0.8,0.4-1.3,0.6l-0.6,0.6c-0.4,0-0.2,0.4-0.4,0.6c-0.6,0-0.8,0.2-0.6,0.2
		c-0.4,0.8-0.8,0.8-1.3,1.3l-0.2-0.2l-0.8,0.6c0,0-0.4,0-0.6,0.2c-0.2-0.4-0.6-0.4-0.8-0.2l-0.8-0.4c0,0-0.2-0.2-0.2-0.4
		c0.4,0,0-0.4-0.2-0.6l0.2,0.2c0,0,0.6-0.4,0.6,0c0-0.4,0-0.4,0.4-0.4c0-0.2,0.6-0.6,0.6-0.6c1.1-0.2,1.7-0.6,2.5-1.3l0.2-0.4
		c0.2,0.2,0.4-0.2,0.8-0.2c-0.2-0.2-0.2-0.2,0.2-0.4l0.2-1.5c0.2-0.2,0.2-0.2,0.2-1.1c0.2,0,0.2-0.4,0.2-0.4c-0.4,0,0-0.2-0.4-0.4
		l0.2-0.6c0.2-0.2,0.2-0.2,0-0.4l-0.2-0.4c0.2-0.4,0.2-0.6,0.4-0.6c-0.2-0.4-0.2-0.6-0.2-0.6c0.4-0.2,0.6-0.4,0.4-0.4l0.2-0.2
		c0,0,0-0.4,0.6-0.4c0.2,0-0.2-0.2-0.4-0.4c0-0.4,0-0.6-0.4-0.2l-0.2,0.2c-0.2,0-0.2,0.2-0.6,0.6v0.6l-0.4,1.1l-0.2,1.1
		c0,0.2,0,0.6,0.2,0.8c-0.2,0.2,0,0.6,0,0.6l-0.2,1.1l-0.2,0.8l-0.2,0.2c-0.4,0.4-0.2,0.6-0.6,0.8c-1.3,0.6-2.3,0.8-3,1.7
		c-0.6,0-0.6,0.2-1.1,0.4l0.2-0.4c-0.4-0.4-0.4-0.4-0.6-0.4c0.2,0,0-0.2,0-0.6l-0.4-0.2h0.4c0.2,0.2,0.2,0.2,0.4,0.2
		c0.4,0,0.6,0,1.1-0.2c0.2,0,0.4-0.2,0.8,0c0.4-0.2,0.4-0.6,1.1-1.1c0.2,0.2,0.2,0.2,0.4-0.4h0.2c-0.2,0,0.2-0.2,0-0.4
		c0.4-0.8,0-0.8-0.4-1.3c0.4,0,0.2-0.6,0.2-0.6v-0.6c0-0.4-0.2-0.4-0.2-0.4c-0.4,0-0.4-0.2-0.4-0.2c0-0.2-0.4,0-0.4,0
		c-0.4-0.4-1.1-0.8-1.1-0.8c-0.2-0.2,0-0.8-0.4-0.8l-0.6-0.2l-0.2-0.2l-0.6,0.6c0-0.2-0.2-0.6-1.1-0.8l0.2-0.2c-0.2,0.2-0.4,0-0.4,0
		c-0.8,0-1.1-0.2-1.3,0.2c-0.4,0.4-0.8,0.6-1.5,0.6l-0.2,0.8c-0.2,0.2-0.4,0.4-0.2,0.6l-0.2,1.1v0.6c0.4,0.4,0.8,1.1,1.3,1.3
		l-0.2,0.6l-0.2,0.2l-0.8-0.4c-0.2,0.2-0.4,0.4-0.8-0.2c0.2,0,0.4-0.6,0.2-0.4c0,0,0-0.6-0.4-0.8c0,0,0.2-0.6,0-0.4v-0.6
		c0.2-0.4,0.2-0.8,0.2-0.8v-0.2c-0.2-0.4,0-0.6,0-1.1v-0.4c0.2,0,0.2-0.6,0.6-0.6c0,0,0.2-0.6,0.4-0.8c0.8,0,1.1-0.2,1.5-0.2
		l0.2-0.6c0.4-0.4,1.1,0,1.3-1.1c0-0.2,0.4-0.2,0.8-0.4l0.2-0.8c0,0,0-0.6,0.2-0.8c0-0.2,0.2-0.4,0-0.8c-0.6,0.6-0.6-0.2-0.8,0.4
		c-0.4,0.2-0.4,1.1-0.6,1.3c0.2,0.4-0.2,0.8-0.2,0.8l-2.1,1.1l-0.6,0.4c-0.2,0.4-0.6,0.6-1.3,1.1l-0.2,0.4c0,0,0,0.6-0.2,0.4
		c0,0.4-0.2,1.1,0,0.8l-0.4,1.3v0.4l0.4,0.2l-0.2,0.6c0,0,0,0.4,0.4,0.6l-0.2,0.4c0,0.6-0.2,0.6,0.2,0.8c-0.2,0.2-0.2,0.6-0.2,0.6
		v0.4l-0.4,0.4c0-0.2,0-0.2-0.6-0.2l-0.2-0.6c-0.2,0.2-0.4,0-0.6-0.6h-0.4V248c0-0.2-0.4-0.8-0.4-0.8l0.2-0.2v-0.6
		c0-0.2,0.2-0.8,0.6-1.7v-0.4l0.2-0.8c0-0.2,0-0.2,0.2-0.6c-0.2-0.2,0-0.6,0-1.1v-1.5c0,0,0.2-0.4,0-0.4c-0.2-0.6-0.4-1.1-0.6-1.1
		c-0.2-0.4-0.4-0.4-0.6-0.6l-0.2,0.2l-0.2-0.2c-0.4,0-0.4,0.4-0.4,0.4c0.2,0.4,0.6,0.4,0.6,0.4l0.2,1.1v0.8c0.4,0.6,0,1.1,0,1.3
		l-0.2,0.6v1.5c0,0.2-0.4,0.2-0.4,0.4c0,0.6,0.2,0.6,0.2,1.5v0.6c-0.4,0-0.4,0.2-0.2,0.4v0.8c0,0.2,0.2,0.2,0.2,0.8v0.2
		c0,0,0.4,0.2,0.4,0.4l1.1,1.1l-0.2,0.2h0.4l-0.2,0.2c0,0.4-0.4,0.6-0.6,0.4c0.2,0.2-0.4,0-0.8-0.2c0,0-0.4-0.4-0.4,0h-1.5
		c-0.4,0-0.6-0.2-1.1,0c-0.6,0.2-0.6,0-1.1,0.8c-0.6,0-1.1,0-1.3,0.2c-0.6,0.2-0.8,0.2-1.3,1.1c-0.8,0.2-1.5,0.8-2.3,1.3l-3.2,2.1
		c-0.6,0-1.1,0-1.3,0.2c-0.4,0.6-0.6,0.4-1.3,0.4v0.2c0.2,0-0.2,0.2-0.2,0.6l0.2,0.2h0.8c0.2,0,0.4-0.2,0.6,0l0.8-0.6
		c1.3-0.8,2.7-1.5,4.2-2.3c0.6-0.8,1.5-1.3,2.1-1.7c0.4,0,0.8-0.2,1.1-0.4c0.6-0.2,1.1-0.4,1.7-1.1c0,0,0.2,0,0.6,0.4l0.4-0.6
		l0.8,0.2c0.2-0.2,0.6-0.2,0.6-0.2l0.8,0.4h-0.2c0,0-0.6,0.2-0.8-0.2c0.2,0.2,0,0.8,0,0.8c-0.2-0.6-0.4,0-0.4,0l-0.2-0.4
		c-0.6,0-0.6,0-0.8,0.4c-0.4-0.4-0.8,0-1.1,0.2c-0.8,0.6-1.7,0.8-2.7,1.3c-0.4,0.4-0.4,0.8-0.6,1.1c-0.2-0.2-0.8,0.6-0.8,0.6
		l-0.8,0.6c0,0-0.2,0.4-0.2,0.6c-0.2,0.2-0.2,0.4-0.8,0.6v0.2l-0.2,0.8l-0.2,0.4v0.2v0.4c-0.2,0.2,0,0.4-0.4,0.4
		c-0.2,0.6,0.6,0.6,0.2,0.6h-0.2v0.2l0.2,0.2c0,0-0.4,0.8,0,0.8v1.3l0.4,0.2l0.2,0.6l0.4,0.4v0.4H500z M518.3,268.9l-0.2,0.6
		C518.1,269.3,518.1,269.1,518.3,268.9z M514.5,271.7c-0.2-0.4-0.6-0.2-0.8,0v0.2l-0.4,0.2h-0.4l0.2-0.4c0.6-0.2,0.6-1.1,1.3-1.7
		h0.2c0-0.2,0-0.4,0.4-0.6l0.4-0.6v0.6c0,0,0.4,1.1,0.4,1.9C515.2,271.2,515,271.7,514.5,271.7z M516.2,267.4v0.6
		c0,0-1.3,0.6-1.9,0.8c-0.2,0.2-0.2,0.6-0.2,1.1v0.2c-0.6,0.6-0.6,0.8-1.3,0.8l0.2-2.3l0.4-0.6l-0.2-0.8l-0.6-0.2
		c0.4,0,1.1-0.6,1.5-1.3c1.3-1.3,2.1-2.5,2.7-3.2C516.7,264.9,516.2,267.2,516.2,267.4z M511,267.9h0.2c0-0.2-0.2-0.4-0.2-0.8
		c0-0.4,0.2-1.1,0.2-1.3l0.2-0.4v-0.8l0.4-0.6v-0.2c0-1.3,0.8-2.5,1.9-3.6l0.6-0.6c0.2-0.2,0.8,0,1.1-0.4c0.6,0.2,0.8-0.4,1.3-0.6
		c0.4,0.2,0.2,0.6,0,0.8v0.2c0,0.4-0.4,0.6-0.8,0.8c-0.4,0.4-0.2,0-0.8,0.4l-0.2,0.4h-0.4h-0.4l-0.2,0.2v0.2c0.4,0,0.4-0.2,0.4-0.2
		c0.6,0.2,0.6,0.2,0.8,0c0.2-0.2,0.2-0.2,0.6,0l-0.2-0.2l0.4-0.4c0.4-0.2,0.6-0.2,0.8-0.6c0,0,0.2,0.4,0.2,0.6v0.2
		c0,0.4-0.2,1.1-0.6,1.5c-0.2,0-0.6,0.4-0.8,0.4l-0.2,0.2c-0.6,0.6-1.1,1.1-1.7,1.7c-0.4,0.2-1.1,0.4-1.3,0.8c0.2,0,1.3-0.2,1.5-0.6
		c0.6-0.6,1.1-1.1,1.7-1.5c-1.3,1.9-3.2,3.8-3.2,3.8l-0.2,0.2l0.6,0.2l0.2,0.4l-0.2,0.4c0,0-0.2,1.9-0.2,3c-0.2,0-0.4-0.2-0.8-0.8
		c0.2,0,0,0-0.2-0.2c0.2-0.2,0.4-0.4,0.2-0.6c-0.2-0.2-0.6-0.4-0.6-0.6l0.2-0.2C511.6,268.5,511.2,268.3,511,267.9z M509.7,257.3
		c0,0.2,0,0.2-0.2,0.4c0.2,0.2-0.2,0.2-0.2,0.2c0.4,0.4,0.4,0.4,0.2,0.4c0,0,0,0.2-0.2,0.6l-0.2,0.6c0,0-0.4,0,0,0.4l-0.6-0.2
		c0.2,0.6-0.6,1.3-1.1,1.7c0,0.2,0.2,0,0,0.2l-0.4,0.4l-0.2,0.4c-0.8,0.6-0.6,1.1-1.3,1.1c-0.2,0.6-0.6,1.1-0.8,0.6
		c-0.2,0.4-0.6,0.4-0.6,0.8l-0.6-0.2h-0.2c-0.2,0.2-0.8,0.4-0.8,0.4c-0.8,0.4-1.1-0.2-1.9-0.2c0,0,0-0.2-0.2-0.2
		c1.3-0.6,2.3-1.7,2.7-1.9l0.6-0.2l0.6,0.4h0.2c0-0.2,0.4-2.7,1.3-5.1c0,0.6,0,1.7-0.2,2.1c-0.2,0.6-0.2,1.7,0.2,1.9l0.2-0.2
		c0-0.4-0.2-1.3,0-1.7c0.2-0.4,0.2-1.5,0.4-1.9l-0.2-0.2c0.2-0.4,0.2-0.6,0.2-1.1l1.1-1.3v-0.2c0.4-0.2,0.6-0.2,0.6-0.2
		c-0.2,0.2-0.2,0.6-0.2,1.3c0,0,0,0.2,0.4,0.4l-0.4,0.2l-0.2,0.4c0.2,0,0.2,0.2,0.6,0.6l-0.2,0.2l0.2,0.2h0.4c0-0.4-0.2-0.4-0.2-0.6
		c-0.2-0.2-0.2-0.4-0.2-0.6v-0.2h0.2v-1.1c-0.2-0.2,0-0.8,0-0.8v-0.2c0.2-0.4,0.4-0.2,0.4-0.2l0.2,0.2v0.6h0.2v0.4l0.2,0.2v0.2
		l0.2,0.2V257.3z M501.5,260.2v-0.4h0.4l4.2-3.2c-0.6,0.8-1.3,1.9-1.5,3.6c-0.4,0.6-0.4,1.9-0.6,2.3h-0.2l-0.6-0.2l-0.8,0.4
		c0,0-1.1,1.3-1.9,1.5c0-0.2,0-1.1,0.4-1.3c0.2-0.2,0.2-0.2,0.2-0.4c0,0,0.2-0.2,0.4-0.8C501.7,261.5,501.5,260.2,501.5,260.2z
		 M501.2,257.1c0.6-0.6,0.8-0.8,1.5-1.5h0.2v-0.4h0.2l0.2-0.2c0.2,0,0.4,0,0.4-0.2c0.8-0.4,1.5-1.1,2.5-1.5c0.4,0.4,0.4,0.4,0.6,0
		h0.2l0.2-0.2l0.4,0.2c0-0.2,0-0.2,0.2,0c0-0.2,0.2-0.2,0.4-0.2h0.2l0.8,0.2l-4.6,2.1c-0.4-0.2-1.1,0.2-1.3,0.4l-0.2,0.4
		c-0.2,0-0.2,0.2-0.4,0.4l-0.2-0.2c-0.2,0.2-0.2,0.2-0.4,0.2c-0.4,0-0.4,0.2-0.6,0.4h0.2l-1.1,0.6c0,0.2-0.4,0.2-0.2,0.2h-0.2
		L501.2,257.1z M500,259c-0.2-0.2,0,0,0.2-0.2c0.6-0.4,0.6-0.4,0.6-0.6c0.6-0.2,0.8-0.2,0.8-0.6c0.2-0.2,0.6-0.2,0.8-0.2l0.2-0.2
		l0.2-0.2c0.4,0,0.6-0.4,0.8-0.4v-0.2c0.2-0.2,0.8-0.4,1.1-0.6l4.4-1.9v0.4h-0.2c-3.2,1.7-7.6,5.1-7.6,5.1L501,260v0.6l-0.4,0.2
		c-0.4-0.2-0.8,0.2-1.3,0.4C499.3,260.5,499.5,259.8,500,259z M499.3,261.7c0.4-0.2,1.3-0.4,1.3-0.4v-0.2l0.6-0.2
		c-0.4,0.2-0.2,0.6-0.2,0.8c-0.2,0.4,0,0.6-0.4,0.6l-0.2,0.2c-0.6,0.6-0.4,1.5-0.6,1.5v-0.2C499.3,263.2,499.1,262.4,499.3,261.7z"
		/>
	<path class="st0" d="M716.3,205.6C716.3,205.6,716.3,205.7,716.3,205.6L716.3,205.6z"/>
	<polygon class="st0" points="721.3,202.2 721.5,202 721.1,201.8 	"/>
	<polygon class="st0" points="407.1,212 331,212 331,83.1 308.6,83.1 308.6,231 407.1,231 	"/>
	<path class="st0" d="M643.3,47.9h0.2l0.6-0.2c0.2,0,0.4-0.4,0.6-0.4l0.8-0.8c0.8-1.1,1.9-2.5,3.2-3.8c0-0.8,0.8-1.7,1.1-2.1
		l1.1-1.1c0.6-0.2,0.6-0.6,1.1-1.3h0.6l0.4-0.6l0.8-0.2c0-0.2,0.4-0.2,0.4-0.2h1.1c-0.2,0.2-0.4,0-0.4,0.2c0,0-0.2,0.2-0.6,0V38
		c-0.4-0.4-0.4,0-0.4,0h-0.2c-0.6,0.2-0.6,0.2-0.8,0.6c-0.2,0-0.8,0.2-0.6,0.4c-0.6,1.1-1.5,1.7-2.1,2.5c-0.2,0.2-0.2,0.8-0.4,1.1
		c-0.2,0-0.2,0.8-0.2,0.8c-0.4,0.2-0.6,0.6-0.6,0.8v0.6c-0.2,0.4-0.2,0.8-0.6,1.1v0.2l0.2,0.8v0.2c-0.2,0,0,0.2-0.2,0.4l0.2,0.4
		c0,0.4,0.2,0.4,0,0.6c0,0.4,0,0.4,0.2,0.6h-0.2l0.4,0.4c0,0,0,0.6,0.4,0.4v0.4c0.2,0.2,0.2,0.2,0.2,0.6l0.6,0.4l0.4,0.4
		c0,0,0.4,0.2,0.6,0.2v0.2h1.3l0.8-0.2c0.4,0,0.4,0,0.4-0.2c0.6,0,0.6-0.4,0.6-0.4c0.4-0.2,0.4-0.2,0.4,0.2c0.4,0.4,0.6,0.6,0.8,1.1
		c0.2,0,0.2,0.8,0.6,0.8c0.4,0.4,0.8,0.8,1.7,1.3c0.2,0,0.4-0.2,0.8-0.2h0.8l0.8-0.2c0.6,0,0.4-0.4,0.8-0.4c0-0.2,0.2-0.2,0.4-0.6
		c0.2-0.6,0.6-0.6,0.8-0.6v-0.4l0.6,0.4l1.3,1.3c0,0,0.6,0,0.8-0.2l0.2,0.2c0.2,0,0.2,0,0.2,0.2c0-0.4,0.6-0.4,0.8-0.4
		c0.2,0,0.6-0.2,0.6-0.2c0.4,0,0.6,0,0.6-0.6c0.4,0,0.6,0,0.8-0.6l0.2-0.4c0.6,0,0.4-0.8,1.1-1.3c0-0.2,0-0.4,0.2-0.4l-0.2-0.6
		c0.2-1.1,0.4-1.1,0.4-1.5l-0.2-1.1l-0.4-2.5c0-0.4,0-0.4-0.2-0.6c0-0.2,0.2-0.4,0-0.4c0-0.4-0.4-0.8-0.4-0.8c0-0.2-0.2-0.4-0.2-0.8
		c0-0.2-0.4-0.4,0-0.4c-0.6-0.2-0.6-0.4-0.8-0.6c0-0.6-0.2-0.6-0.6-1.1c-0.2,0-0.4-0.4-0.4-0.4c-0.4-0.6-0.4-0.6-0.8-1.1v0.4v0.6
		h0.4c-0.4,0.2-0.4,0.2-0.4,0v0.2l0.4,0.2c0,0,0,0.2,0.2,0.2v-0.2l0.4,0.6c0.2,0.2,0.2,0.8,0.6,0.6l-0.2,0.2
		c0.6,0.4,0.8,1.3,1.3,2.1c0.2,0,0.2,0,0.2,0.2v0.4v0.6l0.4,0.4v0.2v1.3c0.2,0.4,0.2,0.6,0.2,1.1v0.2c0,0.2,0,0.2-0.2,0.4
		c0.2,0.4,0.2,0.6,0.2,0.6c0-0.2-0.4-0.8-0.4-1.1c0-0.4-0.2-0.6-0.2-0.8v-0.2l-0.4-0.6v-0.4v-0.2c-0.2-0.2-0.2-0.4-0.2-0.6
		c0,0-0.2-0.2-0.2-0.4c0-0.4-0.2-0.6-0.4-0.8l-2.3-4.6c0.2,0,0.4,0,0.6-0.2l-0.4-0.2l0.4-0.4v0.2c0.4,0,0.4,0.4,0.6,0.4
		c0.4,0.6,1.1,0.6,1.9,1.3c0,0.2,0,0.4,0.2,0.8l0.2,0.2c0,0.2,0,0.2,0.4,0.4V42l0.2,0.2c-0.2,0.2,0,0.2,0,0.2c0.2,0.2,0,0.2,0.2,0.6
		l0.2,0.4c0,0.2,0,0.4,0.4,0.4c-0.4,0.2,0,0.6,0,0.8l0.4,0.2v1.5c0.2,0,0.4,0.4,0.2,0.6c0.2,0,0.6,0.4,0.6,0.8
		c0,0.2,0.4,0.6,0.4,0.6v0.8h0.2c0.2,0.6,0.4,0.6,0.2,0.8l0.2,0.2v0.8c0.4,0.4,0.4,0.4,0.6,0.8c0.4,0,0.4,0.2,0.4,0.4l0.2,0.4h0.2
		c0.4-0.4,0.6-0.6,0.8-0.6v-0.2c-0.4-0.6-1.1-0.6-1.1-1.1s0-0.8-0.2-0.8c-0.2,0-0.2,0-0.4-0.2v-0.6c0,0,0-0.4-0.4-0.8l-0.2-0.4
		c0-0.2,0-0.2-0.4-0.4v-0.8l-0.2-0.6c-0.2-0.4-0.2-0.6-0.2-1.1c-0.2,0-0.4-0.6-0.4-0.8v-0.6h-0.2c0-0.2,0-0.2-0.4-0.4
		c0.2-0.2,0.2-0.2-0.2-0.6c-0.2,0,0-0.2-0.2-0.4v-0.6l-0.8-0.8v-0.4c0-0.2-0.2-0.2-0.6-0.6c0-0.4-0.2-0.4-0.4-0.6
		c-0.6-0.4-0.8-1.1-1.9-1.5c0-0.2-0.2-0.2-0.4-0.2h-0.4v-0.8h1.5c0.2,0,0.2-0.6,0.6-0.6c0.2-0.2,0.6-0.2,0.6-0.4
		c0.8-0.8,1.1-1.7,1.7-2.1h0.2c-0.2-0.2,0-0.4,0-0.8c0-0.2,0-0.4,0.4-0.6c0-0.2,0.4-0.6,0.4-1.1c0-0.2,0.2-0.2,0.2-0.4
		c0-0.4,0.4-0.6,0.6-0.8c0.2-0.8,0.6-0.8,1.3-1.5c0.2,0.2,0.6-0.2,0.6-0.2c0.2,0,0.4,0,0.4-0.2l-0.2-0.6c0,0,0.2-0.4-0.2-0.2
		c-0.2,0.2-0.8,0.2-0.8,0.4c-0.2-0.2-0.4,0-0.4,0c0,0.2-0.6,0.4-0.8,0.8c-0.2,0.2-0.6,0.8-0.6,1.3c-0.2,0.2-0.6,0.6-1.1,1.5V31
		c-0.2,0.4-0.2,0.8-0.4,1.1c-0.4,0-0.6,0.2-0.6,0.4c0,0.6-0.4,1.1-0.6,1.5h-0.2l-0.4,0.8c0,0-0.6,0.2-0.6,0.4c-0.2-0.2-0.6,0-0.8,0
		l-0.8,0.2c0-0.2-0.4-0.2-0.4-0.4c0.4-0.2-0.2-0.6-0.4-0.6h0.2c0,0,0.4-0.4,0.4,0c0-0.4,0-0.4,0.4-0.6c0-0.2,0.4-0.8,0.4-0.8
		c0.8-0.4,1.3-1.3,1.7-2.1l0.2-0.4c0.2,0,0.2-0.2,0.6-0.4l0.2-0.8l-0.2-1.3c0-0.2,0-0.2-0.4-0.8c0.2,0,0-0.4,0-0.4
		c-0.4,0,0-0.2-0.4-0.4l-0.2-0.6c0-0.2,0-0.2-0.2-0.4v-0.4c0-0.4-0.2-0.4,0-0.6c-0.4-0.2-0.2-0.6-0.4-0.6c0.2-0.2,0.4-0.4,0.2-0.4
		l0.2-0.2c0,0,0-0.4,0.2-0.6c0.2,0,0-0.2-0.4-0.4c-0.2-0.2-0.2-0.2-0.4,0l-0.2,0.2c-0.2,0.4,0,0.6-0.2,1.1v0.6l0.2,1.3v0.8
		c0.4,0,0.4,0.4,0.6,0.6c0,0.2,0.2,0.6,0.2,0.6l0.2,1.1v0.8l0.2,0.4c-0.2,0.4-0.2,0.6-0.6,1.1c-0.6,0.8-1.7,1.5-2.1,2.5
		c-0.2,0.2-0.4,0.2-0.6,0.6v-0.4c-0.4,0-0.4,0-0.6-0.2c-0.2-0.2-0.4,0-0.6-0.2l-0.4-0.4h0.4c0.4-0.2,0.4-0.2,0.6-0.2
		c0.4,0,0.6,0,0.8-0.4c0.4,0,0.4-0.2,0.8-0.4c0.2-0.2,0.2-0.6,0.4-1.1c0.4-0.2,0.4-0.2,0.4-0.6h0.2c-0.2,0-0.2-0.4-0.2-0.6
		c0-0.6-0.2-0.8-0.6-1.3c0.4,0-0.2-0.4-0.2-0.4c-0.2,0-0.2-0.4-0.2-0.6c-0.2-0.2-0.4,0-0.4,0c-0.4,0-0.4-0.4-0.4-0.4
		c0-0.2-0.4,0-0.4,0h-1.1c-0.4-0.2-0.4-0.8-1.1-0.8h-0.4l-0.4,0.2l-0.4,0.4c-0.2,0-0.4-0.4-1.1-0.2v-0.2c0,0.2-0.6,0.2-0.6,0.2
		c-0.6,0-0.8,0-1.1,0.4c0,0.6-0.4,0.8-0.8,1.3c0,0.4-0.2,0.4,0,0.8c0,0.4-0.2,0.4,0,0.6l0.2,1.1c0,0.2,0.2,0.6,0.2,0.6
		c0.4,0.4,1.1,0.6,1.5,0.8l0.2,0.4V32l-1.1,0.2c0,0.2-0.4,0.6-0.6,0c0-0.2,0-0.6-0.2-0.6c0,0-0.2-0.4-0.6-0.6c0,0,0-0.4-0.2-0.2
		v-0.6l-0.4-0.6v-0.6c-0.2,0-0.2-0.4-0.4-0.8v-0.4c0.2,0,0-0.4,0.2-0.6c0-0.2,0-0.8,0.2-0.8c0.6-0.6,0.8-0.8,1.3-1.1v-0.4
		c0.2-0.4,0.8-0.6,0.8-1.5c0-0.2,0.4-0.4,0.4-0.6v-0.8c0-0.2-0.2-0.8,0-0.8c-0.2-0.2,0-0.8-0.4-0.8c-0.4,0.4-0.6,0.2-0.6,0.6
		c-0.2,0.4,0,1.1,0,1.3c0.2,0.2,0,1.1,0,1.1l-1.7,1.7l-0.2,0.6c-0.2,0.4-0.6,0.6-0.8,1.3V27c0,0,0,0.6-0.2,0.6
		c0,0.4,0.2,0.8,0.4,0.8v1.1l0.2,0.6l0.4,0.2v0.4c0,0,0,0.4,0.4,0.6v0.2l0.2,0.2c0.2,0.4,0,0.6,0.2,0.6c0.2,0,0.2,0.4,0.2,0.4
		l0.2,0.6l-0.4,0.6c0-0.2,0-0.2-0.4,0l-0.4-0.4c-0.2,0-0.4,0-1.1-0.4h-0.4v-0.6l-0.6-0.6v-0.2l-0.2-0.4c0-0.4,0-1.1-0.2-1.7v-0.6
		v-0.8c-0.2-0.4-0.2-0.4-0.2-0.8c0-0.2,0-0.6-0.6-0.8v-1.3c-0.2,0-0.4-0.4-0.6-0.4c0-0.6-0.4-0.8-0.6-1.1c-0.2,0-0.4,0-0.8-0.2v0.2
		h-0.4c-0.2,0.2-0.2,0.4-0.2,0.4c0.2,0.2,0.6,0.2,0.6,0.2c0,0.4,0.6,0.8,0.8,1.1l0.2,0.6c0.2,0.4,0.4,0.8,0.4,1.3V28
		c0,0.2,0.2,0.4,0.6,1.3c-0.4,0-0.4,0.4-0.4,0.6c0.2,0.6,0.6,0.6,0.6,1.3c0,0,0,0.4,0.2,0.6c0,0.2,0,0.4,0.2,0.8
		c0.2,0.2,0,0.2,0.2,0.4c0,0.2,0.4,0.2,0.6,0.6v0.2l0.6,0.4c0,0,0.8,0.2,0.8,0.4l0.2,0.2h0.2l0.2,0.4c0,0.4-0.2,0.6-0.4,0.4
		c0,0.2-0.4,0.2-0.8,0.2c-0.2,0-0.6-0.4-0.6,0l-1.5,0.6c-0.2,0-0.4,0-0.8,0.2c-0.2,0.6-0.4,0.6-0.6,1.1c-0.6,0.4-1.1,0.6-1.1,0.8
		c-0.4,0.4-0.6,0.6-1.1,1.5c-0.4,0.8-0.8,1.5-1.5,1.9c-0.8,1.5-1.5,2.3-2.3,3.4c-0.6,0-0.8,0.2-1.1,0.6c0,0.4-0.4,0.4-0.8,0.8
		l-0.2,0.2C643.3,47.2,643.1,47.5,643.3,47.9z M665.5,53.2l-0.6-2.3l-0.2-0.6l-0.4-0.6h-0.4c0.4-0.4,0.6-1.1,1.1-2.1
		c0.6-1.5,0.8-2.7,1.3-3.6c0.6,2.3,1.1,4.4,1.3,4.9v0.4c0,0-1.1,1.1-1.3,1.7v0.8v0.2C666.1,52.5,665.9,52.9,665.5,53.2z M667.2,52.9
		c-0.4,0.2-0.6,0.4-0.8,0.4V54h-0.4l-0.2-0.2c0.4-0.6,0.6-1.3,0.6-1.9l0.2-0.2c0-0.2,0-0.4,0.2-1.1c0,0,0-0.4,0.2-0.6l0.4,0.6
		c0,0,0.4,0.8,1.1,1.7C667.8,52.5,667.6,52.9,667.2,52.9z M665.1,39.2l0.2-0.2l2.3,4.6c0,0.4,0.2,0.6,0.2,1.3l0.2,0.2V46
		c0,0,0.2-0.2,0.2,0c0.2,0,0.2,0.2,0.2,0.4c0,0.2,0.2,0.2,0.4,0.4V47v0.8c0,0.4,0.2,0.8,0.2,1.1c0,0.8,0.2,1.5-0.2,1.9v0.4
		c-0.2,0-0.2,0.2-0.4,0.4l-0.8-1.3l-0.2-0.4l0.4-0.4v-0.8c-0.2-0.2-1.5-6.1-3.2-9.3C664.9,39.4,664.9,39.2,665.1,39.2z M662.3,42.6
		c0-0.2,0.2-0.4,0.4-0.8c0-0.2,0.4-0.2,0.6-0.6c0.6-0.2,0.8-0.6,1.1-1.3c0.4,0.2,0.4,0.6,0.4,0.8v0.2c0,0.4-0.4,0.6-0.6,1.3
		c0,0.2-0.2,0.2-0.4,0.6c-0.2,0.2-0.2,0.2-0.2,0.4h-0.4c-0.2,0-0.4,0-0.4,0.2v0.4l0.2,0.2v-0.2c0.2,0,0.4-0.2,0.4-0.2
		c0.4,0,0.2-0.2,0.4-0.2c0.2-0.2,0.2-0.2,0.4-0.2V43c0-0.2,0.2-0.6,0.4-0.8c0.2-0.2,0.4-0.4,0.4-0.6c0,0,0.4,0.2,0.4,0.4v0.2
		c0.2,0.4,0.2,1.3,0,1.7l-0.6,0.6l-0.2,0.2c-0.2,0.8-0.6,1.7-0.8,2.3l-1.1,1.1l-0.2-0.2v0.4h0.2c0.4-0.2,1.3-0.8,1.5-1.1
		c0-0.8,0.4-1.5,0.8-2.1c0-0.2,0-0.2,0.2-0.2c-0.4,2.3-1.9,4.6-1.9,4.6l-0.2,0.4h0.8l0.4,0.4l0.2,0.4c0,0,0.2,1.9,0.6,2.7h-0.2
		c-0.2,0.2-0.4,0-0.8-0.2c0-0.2-0.2-0.2-0.2-0.4s0-0.4-0.2-0.6c-0.4-0.2-0.6-0.2-0.8-0.2v-0.4c0-0.2,0-0.4-0.4-0.6l0.2-0.2
		c-0.4-0.2-0.4-0.4-0.4-0.8c-0.2-0.4-0.2-1.1-0.4-1.3v-1.3l-0.2-0.6v-0.2C661.5,45.3,661.7,43.9,662.3,42.6z M650.9,48.7
		c0,0.2,0,0.4-0.2,0.6l0.2,0.2c-0.2,0.8-0.2,1.5,0,1.9l-0.4-0.2c-0.4-0.6-0.8-1.3-1.3-2.1c0.6-0.2,1.3-0.6,1.3-0.6v-0.2l0.4-0.4
		C650.9,48.1,651.1,48.5,650.9,48.7z M650.9,47v-0.2l0.2-0.4c0.2-0.2,1.3-2.1,2.7-4.2c-0.2,1.1-0.2,2.3,0,3.8
		c-0.2,1.1,0.2,2.1,0.2,2.5h-0.8l-0.6,0.6c0,0-0.6,1.5-1.3,2.1c-0.2-0.4-0.2-1.1,0-1.5v-0.4c0,0,0.2-0.2,0.2-0.6
		C651.6,48.1,650.9,47,650.9,47z M656.2,39.6l0.2,0.4v0.2h0.2c0.2,0.2,0.2,0.4,0.4,0.4v0.2l0.2,0.2l0.2-0.2v0.8
		c0,0.2,0.2,0.4,0.2,0.4c0.2,0.2,0.2,0.2,0.2,0.4c0,0,0,0.2-0.2,0.4v0.6c0,0-0.2,0.4,0.2,0.4l-0.4,0.2c0,0.6-0.2,1.3-0.4,1.9
		c0,0.2-0.2,0.2-0.2,0.2s0,0.2,0.2,0.2l-0.2,0.4l-0.2,0.2c0,0-0.2,0,0,0.2c-0.4,0.6-0.4,1.1-0.8,1.7c0,0.4,0,0.6-0.4,0.8
		c0,0.2-0.4,0.4-0.4,0.6h-0.4l-0.4,0.4l-0.4,0.6c-0.6,0.4-1.3,0.2-1.9,0.2h-0.4c0.8-0.8,1.7-2.5,1.9-2.7v-0.2l0.6-0.2l0.6,0.2v-0.2
		c0-0.2-0.6-3-0.4-5.5v0.2v0.2c0.4,0.6,0.4,1.5,0.4,2.1c0.2,0.6,0.6,1.7,0.8,1.7h0.2l0.2-0.2h-0.2c-0.2-0.2-0.4-1.1-0.6-1.5
		c0.2-0.6,0-1.5-0.2-2.3h-0.2v-1.1c-0.2-0.4,0.2-1.3,0.4-1.5v-0.2c0-0.2,0.2-0.4,0.2-0.4c0.2,0.4,0.2,0.8,0.4,1.1c0,0,0,0.4,0.2,0.4
		V42c0.2,0.2,0.2,0.2,0.2,0.4s0.2,0.4,0.4,0.6c0,0,0,0.2,0.2,0.2v0.2l0.6-0.2h-0.2c0-0.4-0.2-0.4-0.4-0.6c-0.2,0-0.2-0.2-0.2-0.4
		l-0.2-0.2v-0.2c0-0.2,0-0.4-0.2-0.8c0-0.2-0.4-0.8-0.4-1.1l0.2-0.2c0-0.2,0.2-0.2,0.2-0.2L656.2,39.6z M656,38.8
		c-2.3,2.7-5.3,7.4-5.3,7.4l-0.2,1.1v0.4l-0.2,0.4c-0.2,0-0.6,0.4-1.1,0.6c-0.2-0.6-0.2-1.5-0.2-2.1c0-0.2,0.2-0.2,0.2-0.4
		c0.2-0.4,0.4-0.6,0.4-0.8c0.4-0.4,0.6-0.4,0.6-0.8c0-0.2,0.2-0.6,0.4-0.6l0.2-0.2l0.2-0.2c0.4-0.2,0.4-0.4,0.6-0.6v-0.2
		c0-0.2,0.4-0.8,0.6-1.1l3.4-3.4v0.4L656,38.8z M655.8,37.7l-3.4,3.6c-0.4,0.2-0.8,0.6-1.1,1.1c0,0-0.2,0,0,0.2l-0.4,0.6h-0.2
		c-0.2,0-0.2,0.2-0.4,0.4c-0.2,0.2-0.2,0.4-0.4,0.4v0.2c0,0.2-0.2,0.6-0.2,0.6c-0.2,0.2-0.4,0.2-0.4,0.4c-0.2-0.2,0-0.2,0-0.2
		c0.2-0.2,0.4-0.6,0.2-1.1c0.4-0.4,0.6-0.8,0.8-1.7l0.2-0.2v-0.4h0.2v-0.2c0.2,0,0.4-0.2,0.4-0.4c0.4-0.6,1.1-1.5,1.9-2.1h0.2
		c0.2,0,0.2,0,0.2-0.2l0.2-0.2l0.2-0.2h0.4c0-0.2,0-0.2,0.2-0.2c0-0.2,0.2-0.2,0.4-0.2h0.2C655.6,37.7,655.8,37.7,655.8,37.7z"/>
	<path class="st0" d="M344.8,113.1l0.8,1.7l0.8,1.9l1.1,1.3l0.4,1.5l1.5,1.3l1.5,1.5l1.7,1.1l1.5,0.8l3.2,0.4l1.7,0.4l1.1,0.2
		l2.3,0.6l3,0.2l1.5-0.2l1.1-0.6l-0.2,1.1l0.2,1.1l0.4,2.3l0.8,3l1.5,1.5l1.7,2.5l1.1,0.8l1.5,1.5l0.8,1.1l2.1,0.2l0.8,1.1l2.1,0.2
		l1.5,0.6h1.1l3.8,0.4l1.7-0.2l1.1-0.4l1.7,0.4l1.9-1.1l1.9,0.2l0.8-0.8l1.7-0.6l1.5-0.6l1.7-1.1l1.7-0.6l2.5-2.1l1.1-1.1l1.3-0.8
		l0.6-2.1l0.4-1.5l1.1-2.3l0.6-2.1v-3.8l2.1-1.1l3.2-2.3h0.2l0.6-0.6l0.8-0.2v-0.8l3-3l0.2-1.9l1.5-3.4l0.4-1.7l0.2-2.3l-0.2-1.3
		l-0.2-2.1l-0.4-1.5l-0.4-2.5l0.2,0.2l2.3,1.5l1.7,0.6l1.1,1.3l1.7,1.5l2.1,1.7l1.5,0.8l1.3,1.1l0.8,1.5l1.9,0.8l0.4,1.1l1.5,1.3
		l1.3,1.7l2.1,3.2l1.3,0.8l1.3,2.1l1.1,1.1l0.4,1.7l2.3,4.6l0.8,1.5l1.3,1.1l0.4,1.9l1.1,1.7l0.8,2.3v1.9l-0.2,3.6l0.8,2.1l-0.6,1.3
		l-0.2,2.1l0.4,1.1l-0.6,3.8l-1.9,0.4l-1.3-0.6l-0.8-1.5l-3-1.3l-1.7-1.3l-2.5-1.3l-1.5-0.2l-1.5-1.1l-2.1-0.6h-3.4l-1.5-0.4
		l-1.9,0.2l-1.7,0.2l-1.9,1.1l-1.5,0.6l-1.5,0.8l-1.3,1.7l-2.1,2.3l-1.1,1.7l-1.3,1.9l-0.6,1.5l-0.8,1.9v1.1l0.2,1.9v1.7l0.2,1.5
		l0.2,1.3l2.1,3.6l0.2,1.3l1.7,1.1l0.6,1.5l0.8,1.1l1.9,1.1l0.8,1.1l1.9,0.6l1.1,0.8l3.2,1.7h1.1l2.3,1.3l1.7,0.4h1.1l2.1,0.6
		l1.1,0.8l5.1,0.6l1.7,0.6l3.4,1.5h1.3l1.9,0.6l-0.2,1.1v3.2l0.6,1.7l-0.4,1.7v3.6l0.4,1.7l0.2,1.5l-0.6,1.9l0.6,1.3l0.2,2.1
		l-0.6,1.5v1.7l0.6,1.9l-0.2,1.3l0.2,1.9v1.7l-0.4,1.9l0.4,1.3l-0.4,1.7l0.6,1.9l-0.2,1.7l-0.2,1.9l0.4,1.9v1.1l-0.4,1.7l0.2,2.1
		v1.5l0.2,2.1l-0.6,1.5l0.6,3.6l-0.4,1.5l0.4,1.5v2.1l-0.6,1.9v3.2l0.8,2.7l0.6,3l1.9,1.1l1.5,1.1h3.4l1.7-0.6l0.8-1.3l1.7-3.6v-3.4
		l0.4-1.9v-1.1l0.4-1.7l-0.2-1.7l0.6-1.9l0.4-1.7l-0.2-1.7l0.4-1.3v-3.6l-0.4-1.5l0.6-1.7l-0.4-1.7v-1.5l0.4-3.8l0.2-1.3l-0.6-1.3
		l0.2-1.9l0.4-1.9v-1.5l-0.6-1.9l0.6-1.7l-0.4-1.7v-3.2l0.2-1.5l-0.4-1.9l0.2-1.7l0.2-1.3l-0.2-1.7l0.4-1.9l0.2-1.3v-3.6l-0.6-2.1
		l0.4-1.1l-0.2-2.3l0.4-1.1v-2.1l-0.4-1.9v-3.2l0.2-1.7v-1.7l-0.2-1.1l0.6-3.4v-1.7l-0.4-1.9l0.2-3.2V160l-0.2-1.1l0.4-2.1l2.1-1.3
		l1.5-0.8l1.7-0.4l1.3-0.4l1.3-0.6l3.4-1.3l5.1-1.7l1.7-0.4l1.9-1.1l1.1-1.5l1.9-0.8l1.3-0.8l2.3-3.4l1.1-1.3l0.2-1.1l1.9-2.5
		l2.3-1.7l0.6-1.7l0.6-1.5l0.4-1.5l-0.2-1.7v-1.7l0.4-1.9l-0.8-3.2l-0.6-1.3v-1.7l-1.1-2.3l-1.1-1.1l-0.4-1.7l-1.3-1.1l-2.5-3
		l-0.8-0.6h-1.3l-3.8-0.6l-3,0.6l-1.5,0.2l-1.9,1.3l-1.1,0.2l-1.7,0.8l-1.9,1.1l-0.8,1.1l-1.5,1.1l-2.1,1.1l-1.7,1.7l-1.1,0.6
		l-0.6-1.1v-1.5l0.4-1.5l0.6-1.7l0.2-1.9l0.8-1.3l0.2-2.3l0.4-2.7l1.9-3.8l0.2-1.1l1.5-1.7l0.4-1.7l1.5-0.6l1.1-1.7l2.7-1.9l0.6-1.3
		l1.7-1.5l0.6-1.3l1.9-0.8l1.3-0.6l1.5-1.5l1.3-1.1l3-1.5l1.7,1.1v0.4l1.3,1.1l1.1,0.8l3.4,2.1l1.5,0.6l1.3,0.8l1.9,0.2l1.3-0.2v1.3
		l1.5,3.4l0.6,1.7l0.6,1.5l1.1,1.7l1.5,0.8l0.8,1.5l0.8,0.8l1.3,1.7l2.1,0.4l1.1,1.5l1.3,0.2l1.9,0.6l1.1,0.4l2.3,0.4l0.6,0.4
		l2.1,0.6v0l0.3-0.1v0.2l-0.1,0L527,109v64.7c0,40.1,21.3,60.6,57.2,60.6c35.7,0,57.4-20.5,57.4-60.6V83.1h-22.4v87.4
		c0,30.8-12.2,45-35.1,45c-22.8,0-34.8-14.4-34.8-45v-68.3l0,0v-0.1l0.9-0.7l1.7-1.3l0.4-1.7l2.3-3l0.2-1.5l0.4-3.4l0.2-1.9v-1.5
		l0.6-1.7l-0.4-1.5l-0.4-1.7V81l-0.6-1.3l0.8-0.2l3.2-0.4l1.3-0.6l1.3-0.8l2.1-0.2l1.1-1.1l1.5-0.4l1.5-1.1l1.5-1.5l1.1-1.3l0.6-1.5
		l0.8-0.8l1.5-1.3l1.5-2.7l0.6-2.1v-1.1l0.2-3.4l0.2-1.7l-0.4-1.9l-0.4-1.3l-0.2-1.7l-0.2-1.5l-0.6-1.9l-0.2-1.1l-1.1-1.5l-0.6-1.7
		l-1.9-3l-1.3-1.1l-1.9-1.7l-0.8-0.6l-2.1-1.1l-1.5-1.1l-3.2-0.8l-1.5-0.4l-2.5-0.6l-1.9-0.6l-1.9-0.2l-1.7,0.2l-1.3,0.6l-1.7-0.2
		l-1.5,0.8h-2.5l-2.3,0.4l-1.5,1.1l-1.9,0.4l-1.7,2.1l-1.5-1.5l-1.5-2.3l-1.3-1.3l-0.8-0.4l-1.1-1.3l-1.9-1.3l-2.1-1.9l-1.7-0.2
		l-1.5-1.1h-1.9l-3.2-0.8l-1.9,0.2l-1.5-0.2l-1.5,0.2l-1.9,0.2l-1.5,0.4l-1.7,0.8l-1.5,1.1l-1.5,0.2l-2.1,2.1l-1.5,1.3l-0.6,1.9
		l-1.1,0.8l-0.6,1.1L497,39l-1.1,1.9l-0.4,3.4l-0.2,2.1l0.2,4l0.6,1.7l0.4,0.4l0.6,1.5l-1.1,1.1l-1.7,1.3l-0.6,1.3l-1.1,1.3
		l-0.6,1.9l-1.3,1.3l-1.3,3.8l-2.7,2.5l-1.3,0.8l-1.5,0.6l-1.9,1.3l-1.3,1.1l-2.1,1.9l-1.3,0.8l-1.7,1.5l-0.8,1.3l-1.7,1.3l-1.3,1.3
		l-0.8,0.6l-1.3,1.1l-1.1,1.7l-1.7,1.3l-0.8,1.1l-2.3,2.1l-1.5,1.3l-1.1,1.7l-1.1,1.1l-0.4,1.7l-1.1,1.5l-0.6,1.3l-1.1,1.7l0.2,1.3
		l-1.3,3.6l-1.7,4l-0.4,1.3l-1.1-2.7l-1.3-1.3l-1.1-0.6l-1.1-1.9l-0.8-1.1l-1.3-0.8l-1.5-1.9l-1.1-0.6l-1.5-1.3l-1.3-1.5l-1.5-0.8
		l-0.8-1.1l-3-2.1l-0.8-1.5l-1.9-0.8l-0.8-0.6l-1.3-1.5l-1.3-0.8l-1.9-0.8l-0.8-0.4l-1.5-1.5l-1.9-0.6l-2.3-1.1l-1.5-0.6l-1.9-0.6
		l-1.3-0.6l-1.5-0.4l-1.9-0.4l-1.3-0.2l-1.5-0.8h-1.9l-1.3,0.4l-3-0.6l-1.3,0.4l-1.3,1.1l0.6-1.7l-0.6-1.7l-0.8-1.5l-0.8-2.1
		l-0.6-1.5l-1.5-1.1l-2.1-2.7l-0.4-1.7l-1.7-0.8l-1.1-0.6l-0.8-1.5l-3.2-1.5h-1.9l-1.9-0.6l-3.2-0.6l-3.4,0.8l-1.7,0.6l-1.3,0.8
		l-2.3,0.4l-0.8,0.8l-1.7,1.1l-1.1,1.1l-3,2.1l-1.1,1.7l-1.1,1.1l-0.6,1.5l-1.3,1.9l-0.6,1.3v1.3l-0.6,1.5l-0.2,1.9l0.2,1.3
		l-0.6,2.1v1.7l-2.1,0.6l-1.1,0.8h-1.3l-0.4,0.6l-1.9,1.1l-2.1,1.1l-0.8,1.3l-1.7,1.1l-1.7,2.1l-1.3,1.5l-0.8,1.1l-1.1,1.5l-0.8,1.7
		l-0.6,1.5l-0.2,1.7v3.2l-0.4,2.7v1.7l0.8,2.7L344.8,113.1z M444,166.3l-3.2,0.2l-1.7-0.4l-3.6,0.6l-2.3-0.8l-1.5-0.8l-1.9-1.1
		l-1.1-1.3l-0.4-1.9v-1.5l0.6-0.4l0.6-0.8l0.8-0.6h1.9l3.4,0.4l1.3,0.4l2.7,2.3l1.7,1.1l0.4,1.7l1.3,1.1l1.3,1.3L444,166.3z
		 M471.7,133.8l1.3-1.1l0.4-1.7l1.7-1.1l2.7-2.3l1.3-0.4l3.4-0.4h1.9l0.8,0.6l0.6,0.8l0.6,0.4v1.5l-0.4,1.9l-1.1,1.3l-1.9,1.1
		l-1.5,0.8l-2.3,0.8l-3.6-0.6l-1.7,0.4l-3.2-0.2l-0.4-0.6L471.7,133.8z M541,55.2h-0.2l1.7-1.5l1.5-1.7l1.3-0.8l1.7-1.3l1.1-0.2
		l3.4-0.6h1.9l1.7,0.2l1.3,0.6l1.3,1.3l1.9,2.1l1.1,1.7l-1.1,3.6l-0.6,1.5l-1.1,1.5l-3,2.1l-3.2,1.3l-1.1,0.2h-1.7l-1.3-0.4
		l-1.7,0.6l-3,0.2l-1.3,0.6l-0.2-0.2l-0.6-2.3l-1.1-3.6l-0.4-1.5v-0.8l0.4-0.4L541,55.2z M525.3,83.1l1.1-0.4l4.4-0.6l1.3-0.8
		l1.5-0.8l1.5-1.5l2.3,0.8l2.7,2.7l0.6,1.3l0.4,1.9l-0.2,1.5l-1.5,3.4l-1.5,1.1l-0.8,0.8l-3.4,0.8l-1.5,0.2h-3.8l-3-0.4l-1.3-0.8
		l-1.9-1.5v-3.2l0.4-1.1l0.8-1.7l0.6-1.9L525.3,83.1z M506.3,68.1l0.6-0.8l2.1-1.7l1.3-1.1l0.8-1.5l3-1.1l1.5-1.7l0.6-1.3v-1.9
		l-0.4-2.5l-1.5-0.6h0.4v-0.6l-0.6-1.5l-0.4-1.5l-1.3-3.4v-1.1l0.2-1.7l1.5-1.1l2.7-1.1l1.5,1.3l2.3,2.7l0.4,1.3l1.1,1.3l0.8,0.8
		l1.7,3.6l-0.8,1.3l-3,2.1l-1.9,0.8l-0.8,0.6l-1.1,1.1l-1.1,1.5l-2.3,2.7l-0.6,1.3l-0.4,1.1l-0.4,1.7l-0.8,2.1l0.6,2.3l-2.3,1.5
		h-3.6l0.6-3.6L506.3,68.1z M397.1,105.3l1.9-1.5l0.2-1.3v-2.1l0.2-1.9l-0.4-1.5l0.2,0.2l1.5-1.7h2.1l1.3,0.6l3.6,2.7l-1.1,2.7
		l-1.7,1.5l-2.1,1.7l-3.4,0.6l-0.6,0.4h-2.5L397.1,105.3z M390.8,113.3l1.1-0.4l-0.4,3l0.8,1.5l0.6,3.2l1.1,2.3v1.9l-3.8,1.7
		l-1.1,0.4l-2.1,0.4l-2.5,0.2l-1.9-3.4l0.2-1.7l-0.2-3.2l0.2-1.7l1.3-1.5l0.6-1.5l0.8,0.2l2.3-0.8L390.8,113.3z M379.4,78.3l0.8-1.1
		l0.8-1.3l2.1-0.6l1.9-0.6l1.5,1.3l0.8,2.1l-0.6,3.4v1.3l-1.1,1.9l-0.6,1.3l-1.1,0.6l-0.6,0.2h-1.7l-1.1,0.2l-0.4-1.9l-1.3-1.9
		l-0.2-1.3L379.4,78.3z M360.2,105.5l1.5-3.2l0.8-1.1l3.4-2.1l1.7-1.5h1.9l1.5-0.8l2.1-1.1l0.4,0.6l-0.6,3.2l-0.8,1.5l-0.2,3.6
		l-1.7,2.1l-1.5,1.3l-1.5,1.5l-1.9,0.8h-2.3l-1.7-0.4l-0.2-0.6l-0.8-0.8l-0.4-1.1L360.2,105.5z"/>
	<path class="st0" d="M733.2,196.3c-0.6-0.2-1.1,0.4-1.5,0.2c-0.2-0.4-0.4-0.6-0.6-0.6c-0.2,0.2-0.2,0.2-0.4-0.2l-0.6-0.2
		c0,0-0.2-0.2-0.8-0.2l-0.4-0.2c0-0.2,0-0.2-0.6,0L727,194c-0.4,0-0.6,0-1.1-0.4l-0.6-0.4l-0.4-0.4h-0.8c0-0.4,0-0.4-0.6-0.2
		c0,0.2,0-0.2-0.4-0.2l-0.4-0.4c-0.2,0-0.4-0.2-1.1,0l-0.4-0.4h-0.8c-0.4-0.4-0.4-0.2-0.8-0.2c-0.6,0.2-1.3,0-2.1,0.2
		c-0.2,0-0.6,0.2-0.6,0.2l-0.2,0.2l-0.4-0.2l-0.2-0.2l1.1-1.1c0-0.2-0.2-0.8,0-0.8c0-0.6,0.2-0.6,0.2-0.8c0-1.1-0.4-2.1-0.2-2.7
		l0.2-0.2c-0.4,0-0.4-0.2-0.8-0.6c0,0,0-0.4,0.2-0.6c-0.2-0.2-0.2-0.8-0.6-1.1V183c-0.4-0.2-0.2-0.8-0.4-1.1c0-0.8,0.2-1.1,0.2-1.9
		c0.2,0,0.2-0.6,0.2-0.6c0.4-0.2,0.4-0.2,0.2-0.4l-0.4-0.4c0,0-0.4-0.4-0.4,0c0,0.2-0.6,0.8-0.4,1.1c-0.2-0.2-0.2,0.4-0.2,0.4
		c0.2,0-0.4,0.4-0.2,0.8c0.2,0.4,0.2,1.1,0.6,1.5c-0.2,0.2,0,0.8,0,1.5l0.2,0.6c0,0.4,0.4,0.4,0.4,0.8c-0.2,0.4-0.2,0.6,0,0.6
		c0.4,0.6,0.2,1.1,0.4,1.7h-0.2l0.2,1.1c0,0-0.2,0.4,0,0.6c-0.4,0-0.6,0.4-0.6,0.6l-0.6,0.6c-0.2,0-0.4,0.2-0.6,0
		c0.2-0.4-0.4-0.2-0.6,0l0.2-0.2c0,0,0-0.6,0.4-0.4c-0.4-0.2-0.4-0.2-0.2-0.6c-0.2,0-0.4-0.8-0.4-0.8c0.4-1.1,0.2-1.9,0-3l-0.2-0.2
		c0.2-0.2,0-0.4,0.2-0.8c-0.2,0-0.2,0-0.4-0.4l-1.1-0.8c-0.2-0.4-0.2-0.4-1.1-0.6c0.2-0.2-0.2-0.4-0.2-0.4c-0.2,0.4-0.2,0-0.6,0.2
		l-0.4-0.4c0-0.2,0-0.2-0.4-0.2h-0.4c-0.2-0.4-0.4-0.4-0.4-0.6c-0.4,0-0.6-0.2-0.6-0.2c0-0.4,0-0.6-0.2-0.4v-0.4
		c0,0-0.4-0.2-0.2-0.6c0.2-0.2-0.2,0-0.4,0.2c-0.4-0.2-0.4-0.2-0.4,0.2v0.2c0,0.2,0.2,0.4,0.4,1.1l0.4,0.2l0.8,0.8l0.8,0.6l0.8,0.2
		c0.2,0.2,0.6,0.2,0.6,0.2l0.8,0.6l0.8,0.8c0.2,0.4,0.4,0.4,0.4,1.1c0,1.3-0.2,2.3,0.2,3.4c-0.2,0.4-0.2,0.6-0.2,1.1l-0.2-0.4
		l-0.6,0.4c0-0.2-0.2,0-0.6-0.2l-0.4,0.2l0.4-0.4c0.2,0,0.2,0,0.2-0.2c0.2-0.4,0.4-0.6,0.2-1.1c0.2-0.2,0-0.4,0.4-0.8
		c0-0.4-0.2-0.6-0.4-1.3c0.2-0.2,0.2-0.2-0.2-0.6v-0.2c0,0.2,0-0.2-0.2-0.2c-0.6-0.6-0.8-0.4-1.5-0.2c0.2-0.4-0.4-0.4-0.4-0.4
		s-0.4-0.2-0.6-0.2c-0.2-0.2-0.4,0-0.4,0c-0.2,0.4-0.4,0.2-0.4,0.2c-0.2,0-0.2,0.4-0.2,0.4l-1.1,0.6c-0.2,0-0.8-0.4-1.1,0l-0.6,0.6
		l0.2,0.6c-0.2,0-0.6,0-1.3,0.6v-0.2c0,0.2-0.2,0.4-0.2,0.4c-0.4,0.6-0.6,0.8-0.4,1.3c0.2,0.4,0.2,0.8,0,1.5l0.6,0.6
		c0.2,0.2,0.2,0.4,0.4,0.4l0.8,0.6l0.6,0.4l1.7-0.6l0.6,0.6l-0.8,0.6c0.2,0.2,0.2,0.6-0.4,0.6c0-0.2-0.4-0.6-0.4-0.4
		c0,0-0.4-0.2-0.8,0c0,0-0.4-0.4-0.4-0.2l-0.6-0.2c-0.2-0.4-0.6-0.4-0.6-0.4l-0.2-0.2c-0.4,0-0.6-0.2-0.8-0.4l-0.4-0.2
		c0-0.2-0.4-0.4-0.2-0.8c-0.2,0-0.6-0.4-0.6-0.6c0.2-0.8,0.2-1.1,0.4-1.5l-0.4-0.4c-0.2-0.6,0.4-1.1-0.4-1.7c-0.2,0,0-0.4,0-0.8
		l-0.6-0.6c0,0-0.6-0.4-0.6-0.6c-0.2,0-0.4-0.4-0.8-0.2c0.2,0.6-0.4,0.4,0,0.8c0,0.4,0.6,0.8,0.8,1.1c0.4,0,0.6,0.6,0.6,0.6v2.3
		l0.2,0.8c0.2,0.2,0.2,0.8,0.4,1.5l0.2,0.4c0,0,0.6,0.2,0.2,0.4c0.4,0.2,0.8,0.6,0.8,0.4l0.8,0.8l0.4,0.2l0.4-0.2l0.4,0.4
		c0,0,0.4,0.2,0.8-0.2l0.2,0.4c0.6,0.2,0.6,0.4,0.8,0.2l0.6,0.4l0.2,0.2l0.2,0.6c-0.2-0.2-0.2-0.2-0.4,0.4h-0.6
		c0,0.2-0.2,0.2-0.8,0.2c0,0-0.2,0.2-0.2,0.4l-0.6-0.4h-0.8l-0.2-0.2l-0.4-0.2l-1.3-1.3l-0.4-0.2l-0.6-0.6l-0.6-0.4
		c-0.2,0-0.4-0.4-0.8-0.4l-1.3-0.6c0,0-0.4-0.4-0.4-0.2c-0.6-0.2-1.1-0.2-1.3,0c-0.4,0-0.4,0.2-0.8,0.2l0.2,0.4h-0.4
		c0,0.4,0.2,0.6,0.2,0.6c0.4,0,0.6-0.4,0.6-0.4c0.2,0.2,0.8,0.2,1.1,0.2l0.8,0.4c0.6,0,0.8,0.4,1.1,0.6l0.6,0.4
		c0.2,0.2,0.2,0.2,1.3,0.6c-0.2,0,0,0.4,0.2,0.6c0.4,0.2,0.6,0,1.3,0.4c0,0,0.4,0.2,0.6,0.2c-0.2,0.4,0,0.4,0.4,0.4l0.6,0.4
		c0.2,0,0.4-0.2,0.8,0.2h0.2c0,0,0.4-0.2,0.6-0.2c0,0,1.1-0.4,1.3-0.4l0.2,0.2l0.2-0.2v0.2c0.4,0.2,0.4,0.6,0.2,0.6
		c0.2,0-0.2,0.4-0.6,0.6c0,0.2-0.6,0.2-0.2,0.4l-0.6,1.5c-0.2,0.2-0.4,0.4-0.4,0.8c0,0.6-0.2,0.6,0.2,1.3c-0.2,0.6-0.4,1.1-0.2,1.3
		c-0.2,0.6-0.2,0.8,0.2,1.7c0,0.8,0.2,1.7,0.2,2.5c0.2,1.5,0.4,2.5,0.4,3.8c-0.2,0.6-0.4,0.8-0.2,1.3c0.4,0.6,0,0.6-0.2,1.3l0.2,0.2
		c0-0.2,0,0.2,0.4,0.4l0.2-0.2l0.4-0.6c0-0.2,0-0.6,0.2-0.6v-1.1c0-1.5-0.2-3.2-0.4-4.9c-0.4-0.8-0.4-1.9-0.6-2.5
		c0.2-0.4,0.2-0.8,0.2-1.3c0-0.6,0-1.1-0.2-1.9l0.6-0.4L707,201l0.6-0.6c-0.2-0.2,0-0.6,0-0.6l0.8-0.6c0,0.2-0.2,0.2-0.2,0.2
		s0,0.6-0.4,0.6c0.2,0,0.6,0.4,0.6,0.4c-0.6,0-0.2,0.4-0.2,0.4h-0.4c-0.2,0.6-0.2,0.6,0,0.8c-0.4,0.2-0.4,0.8-0.2,1.1
		c0.2,1.1,0,1.9,0,3.2l0.6,1.1c-0.2,0,0.2,0.8,0.2,0.8c0,0.4,0,0.8,0.2,1.1c0,0,0.2,0.4,0.4,0.4c0,0.4,0.2,0.4,0.2,1.1l0.2,0.2
		l0.6,0.4l0.2,0.4c-0.2,0,0,0,0.2,0.2l0.4,0.2c0.2,0.2,0.4,0.2,0.2,0.4c0.4,0.4,0.4,0.4,0.6,0.2v0.2h0.4c0,0,0.6,0.6,0.8,0.2
		l0.2,0.2l0.8,0.4l0.4-0.2h0.6c0,0,0.4-0.2,0.6-0.2l0.2,0.2l0.2-0.2l0.6-0.8l0.6-0.6c0.2-0.4,0.2-0.4,0-0.4l0.2-0.8
		c0.2-0.2,0.2-0.2,0.4,0c0.6,0,0.8-0.2,1.3,0.2c0.2,0,0.6,0.2,1.1,0.2c0.8-0.2,1.3,0.2,2.1-0.4l0.6-0.4l0.2-0.4l0.2-0.4
		c0-0.2,0.6-0.4,0.6-0.4c0.2-0.6,0-0.8,0.2-1.3c-0.2,0,0-0.2,0-0.6c-0.4-0.6-0.2-0.8,0.2-1.1h-0.4l0.6-0.4l1.9,0.2
		c0,0,0.2-0.6,0.6-0.8l0.2,0.2l0.2-0.2c-0.2-0.2-0.2-0.2,0-0.4c0,0-0.2,0-0.2,0.2l-0.2-0.4c0-0.6-0.8-1.1-0.8-1.9v-0.2
		c-0.2,0-0.4-0.2-0.4-0.6l-0.4-0.6l0.6,0.2l1.9,0.4c-0.2,0.6,0,1.1-0.2,1.5c-0.4,0-0.4,0.4-0.4,0.6l0.2,0.2v0.4v0.2
		c0-0.2,0.2-0.4,0.4-0.4c0-0.2,0.2-0.4,0.2-0.4c0.2-0.4,0.6-0.6,0-1.1c0.2-0.4,0.4-0.4,0.4-1.1l-0.4-0.4c0.6-0.4-0.2-0.8,0-1.7
		c-0.2,0-0.4-0.4-0.2-0.4l-0.6-0.4c-0.4-0.6-0.2-0.8-0.6-1.3l-0.8-0.4l-0.8-0.8l-1.3-1.1c-0.2-0.4-0.2-0.4-0.4-0.2
		c-0.2-0.2-0.2-0.4-0.4-0.2c-0.4-0.4-0.8-0.4-0.8-0.4c-0.2-0.2-0.4-0.2-0.8-0.4c0-0.2-0.6,0.2-0.2-0.2c-0.4,0.2-0.6,0-1.1,0
		c-0.2-0.4-0.6-0.4-1.1-0.2c-0.4,0.2-0.6-0.2-0.6-0.2h-1.5l0.4,0.2l0.4,0.4l0.2-0.4c0,0.6,0,0.6-0.2,0.4l0.2,0.2l0.4-0.2
		c0,0,0.2,0.4,0.2,0.2l-0.2-0.4c0.4,0.2,0.8,0.2,0.8,0.2l0.8,0.2c0.8,0.2,1.7,0.4,2.3,0.8c0.2-0.2,0.2-0.2,0.2,0l0.4,0.4
		c0.2,0,0.4,0.2,0.6,0.2c0.2,0,0.4,0.2,0.4,0.2l0.2,0.2c0,0.2,0.4,0.4,0.8,0.8c0.4,0.2,0.6,0.2,0.8,0.4l0.2,0.2v0.4l0.4,0.4
		c0.2,0.2-0.6-0.2-0.8-0.6c-0.4-0.2-0.6,0-0.8-0.2h-0.2l0.2,0.2c0.2,0,0.4,0.2,0.6,0.4c0.4,0.4,0.6,0.6,0.8,0.6
		c0.6,0.6,1.1,1.1,1.3,1.5v0.2l0.2,0.2v0.6l-1.7-0.4l-0.2-0.2l-0.2-0.4l-0.6-0.6c0-0.2-5.1-3.6-8.4-4.6c0.2-0.2,0-0.4,0.2-0.6v-0.2
		l4.9,1.9c0.2,0.2,0.4,0,1.1,0.6l0.2,0.2l0.4,0.4h0.4c0.2-0.2,0.4,0,0.4,0c0.2,0.2,0.2,0,0.4,0.2c0-0.4,0-0.4-0.4-0.4
		c-0.2,0-0.4-0.2-0.4-0.2c-0.4-0.2-0.6-0.2-0.6-0.4c0,0-0.2,0-0.4-0.2c-0.2-0.4-0.6-0.4-1.1-0.4l-4.9-1.9c0.2-0.2,0.2-0.4,0.4-0.4
		h-0.6l0.2-0.4v0.2c0.4-0.4,0.8,0,0.8-0.2c0.8,0,1.3-0.2,2.1-0.4c0.2,0.2,0.4,0.2,0.8,0.2l0.4,0.2c0.2,0.2,0.2,0.2,0.4,0l0.4,0.4
		h0.4c-0.2,0.2,0.2,0.2,0.2,0.2c0.2-0.2,0.2-0.2,0.6,0.2l0.2,0.2c0,0.2,0.2,0.2,0.4-0.2c0,0.6,0.6,0.6,0.8,0.6h0.2l0.8,0.6l0.2,0.2
		c0.2,0.2,0.6,0.4,0.6,0.6c0-0.2,0.8,0,1.3,0.2c0.2,0,0.6,0.2,0.6,0.2l0.4,0.4l0.2-0.2c0.4,0.6,0.6,0.4,0.6,0.6h0.4l0.6,0.6
		c0.6-0.2,0.6-0.2,0.8,0.2c0.6-0.2,0.6-0.2,0.6,0l0.6,0.2l0.2-0.2c-0.2-0.6-0.2-0.8-0.2-1.1V196.3z M709.5,209.2
		c0-0.2-0.2-0.8-0.4-1.1c-0.2-0.6-0.2-1.1-0.6-1.9l0.2-0.2c0,0-0.2-0.2-0.4-0.2v-0.4c0-0.2,0.2-0.4,0-0.4c0-1.1-0.4-1.9-0.2-3
		c0.4-0.2,0.4-0.2,0.2-0.6l0.2-0.2l-0.2-0.2l0.4-0.4c-0.2,0-0.2,0,0-0.2c-0.2,0,0-0.2,0-0.4l0.2-0.2c0.4-0.4,0.4-0.6,0.4-0.6v5.1
		c-0.4,0.4-0.2,1.1-0.2,1.5l0.2,0.2c0,0.2,0.2,0.4,0.2,0.6l-0.2,0.2v0.4c-0.2,0.4,0,0.4,0,0.6h0.2v1.1c0.2,0.2,0,0.4,0.2,0.4
		C709.5,209.4,709.5,209.2,709.5,209.2z M712.2,210.5c-0.2,0.2-0.2,0.8-0.2,1.3c-0.6-0.4-1.1-0.8-1.7-1.5c-0.2,0,0-0.2-0.2-0.4
		c0-0.6,0-0.8-0.2-0.8c0-0.6,0.2-0.8-0.2-1.1c0-0.2,0-0.6,0.2-0.8l-0.2-0.2v-0.2c0.2-0.4,0-0.8,0-1.1l-0.2-0.2c0-0.2,0-0.8-0.2-1.1
		l0.4-4.9l0.2,0.2v0.2c0,3.6,1.3,9.1,1.3,9.1l0.6,0.6l0.4,0.2V210.5z M714.6,212.4c-0.8,0.2-1.5,0-2.1-0.4c0-0.6,0.2-1.3,0.2-1.3
		l-0.2-0.2l0.2-0.6c0,0.4,0.4,0.4,0.6,0.6c0.2,0.2,0.4,0.2,0.2,0.6l0.2,0.2c0.6,0.6,1.1,1.1,1.1,1.3L714.6,212.4z M715.2,212.2
		c-0.2-0.2-0.8-0.6-0.8-1.1l-0.4-0.4c0,0,0-0.2-0.4-0.6c-0.2-0.4-1.5-0.6-1.5-0.6l-0.2-0.2v-0.4l-0.8-5.1c0.4,0.8,1.1,1.9,2.5,2.7
		c0.4,0.8,1.5,1.3,1.7,1.7v0.2l-0.4,0.4v0.8C714.8,209.6,715.4,211.1,715.2,212.2z M725.1,199.3l0.4,0.2v2.1
		c0.2,0.2,0.4,0.4,0.8,0.6h0.2c0.2,0.8,0.4,1.1,0.2,1.7l-2.1-1.3l-0.4-0.6l-0.8-0.2l-0.4,0.4c0.2-0.4,0-1.3-0.4-1.9
		c-0.6-1.7-1.3-3-1.7-3.8C723,197.8,724.9,199.1,725.1,199.3z M717.1,196.3c0.4-0.4,0-1.1,0-1.5c0.4-0.2,0.6,0.2,0.6,0.4h0.2
		c0.4,0.2,0.4,0.6,0.4,1.3c0.2,0.4,0,0.2,0,0.8c0.2,0.4,0.2,0.4,0.4,0.4c0,0-0.2,0.2-0.2,0.4c-0.2,0.2-0.4,0.4-0.2,0.4v0.2l0.4,0.2
		l-0.2-0.2c0.2-0.2,0-0.4,0-0.4c0.4-0.4,0.4-0.4,0.4-0.6c0-0.4,0-0.4,0.2-0.6H719c-0.2-0.2-0.2-0.4-0.2-0.6c0-0.4,0-0.6-0.2-0.8
		c0,0,0.4-0.2,0.6,0h0.2c0.4,0.2,0.8,0.8,1.1,1.3v1.1l0.2,0.2c0,0.8,0.4,1.5,0.6,2.3c0,0.4,0,1.1,0.2,1.5c0.2-0.2,0.4-1.3,0.2-1.7
		c-0.4-0.8-0.6-1.5-0.6-2.1V198c1.1,2.1,1.9,4.6,1.9,4.6l0.2,0.4l0.4-0.6h0.4l0.4,0.4c0,0,1.5,1.1,2.5,1.5c-0.2,0.2-0.4,0.4-1.1,0.4
		c0-0.2-0.2,0-0.4,0c0-0.2-0.2-0.4-0.4-0.4c-0.4,0.2-0.6,0.4-0.8,0.4l-0.2-0.4c-0.2-0.2-0.4-0.2-0.8-0.2v-0.2c-0.2,0-0.4,0-0.8-0.2
		c-0.4-0.2-0.8-0.6-1.1-0.6l-0.4-0.4l-0.6-0.4l-0.4-0.6h-0.2c-1.1-0.8-1.9-1.9-2.3-3.4c-0.2-0.2-0.2-0.4-0.2-0.8
		C716.9,197.2,717.3,196.7,717.1,196.3z M716.9,207.3c0.4,0.4,0.6,0.8,0.2,1.1c0.2,0.2,0.2,0.6,0.4,0.8l-0.4,0.4v1.3
		c0,0.8-0.8,0.8-1.1,1.5c0,0-0.2,0-0.4,0.2c0.2-1.5-0.4-3-0.4-3.4v-0.6l0.8-0.4v-0.2c-0.1,0-2-1.7-3.3-2.8c0.5,0.3,0.9,0.5,1.2,0.7
		c0.4,0.4,1.5,0.8,1.7,0.6v-0.2c-0.4-0.2-1.3-0.4-1.5-0.8c-0.4-0.4-1.3-0.8-1.7-1.3l-0.2,0.2c-0.2-0.4-0.4-0.6-0.8-0.8
		c-0.2-0.4-0.6-1.1-0.6-1.5h-0.2v-0.6c0.2,0.2,0.6,0.4,1.1,0.6c0,0,0.2,0.2,0.6,0v0.4l0.2,0.2c0.2,0,0.4,0,0.8-0.2
		c0,0,0.2,0.4,0.2,0.2h0.2l0.4-0.6l-0.2,0.2c-0.4-0.2-0.4,0-0.6,0s-0.4,0-0.6-0.2h-0.2v-0.2c-0.2-0.2-0.4-0.2-0.8-0.4
		c-0.2,0-0.8-0.4-0.8-0.4l-0.2-0.2c-0.2-0.2,0-0.4,0-0.4h0.2l0.6,0.2l0.2-0.2c0.2,0.2,0.4,0.2,0.4,0.2h0.2h0.2h0.2l0.4,0.2
		c0.2,0,0.2,0,0.2,0.2c0.2,0,0.2,0.4,0.2,0.4c0.4-0.2,0.4-0.2,0.4,0c0,0,0.2,0,0.4,0.4l0.4,0.4c0,0-0.2,0.4,0.4,0.2l-0.4,0.4
		c0.6,0.2,0.8,1.1,1.1,1.7c0.2,0,0.2,0.2,0.2,0.2l0.2,0.4c0.1,0.3,0.1,0.4,0,0.4c0,0,0.1,0,0.2,0
		C716.7,206.7,717.1,206.7,716.9,207.3z"/>
	<path class="st0" d="M777,397.1c-0.3,0-0.6,0.3-0.6,0.3c-0.3-0.3-1-0.1-1.3-0.1l-0.6-0.3c-0.4-0.1-0.9-0.3-1.2-0.6l-0.4-0.4
		c-0.1-0.1-0.4-0.1-1.3-0.4c0.3-0.3,0-0.6-0.1-0.7c-0.6-0.3-0.9,0-1.3-0.4c0,0-0.3-0.3-0.6-0.3c-0.1-0.1-0.3-0.3-0.7-0.4
		c-0.3,0-0.1-0.1-0.4-0.1c-0.1-0.1-0.4,0.1-0.9,0l-0.1-0.1l-0.7,0.1c0,0-0.7,0.4-0.9,0.3h-0.3l-0.1,0.1l-0.4-0.1
		c-0.3-0.3-0.3-0.6,0-0.6c-0.1-0.1,0.1-0.4,0.4-0.7c0.1-0.1,0.7-0.1,0.4-0.4l0.6-1.5c0.2-0.1,0.3-0.3,0.4-0.7
		c-0.3-0.6-0.1-0.7-0.3-1.2c0.1-0.7,0.3-1.2,0.1-1.3c0-0.6,0-0.9-0.3-1.8c-0.3-0.9-0.4-1.6-0.3-2.4c-0.4-1.6-0.6-2.7-0.7-4
		c0.4-0.4,0.4-0.7,0.3-1.2c-0.3-0.3,0-0.6,0-1.2v-0.3c-0.2,0.1-0.2-0.1-0.6-0.3l-0.1,0.2l-0.3,0.6c-0.1,0.1,0,0.6-0.1,0.7v1.2
		c0.1,1.3,0.4,3.1,0.4,4.9c0.6,0.6,0.6,1.8,0.7,2.2v1.5c-0.3,0.6,0,0.9,0.1,1.6l-0.4,0.4l0.1,0.7l-0.4,0.7c0.2,0.1-0.1,0.4-0.1,0.4
		l-0.7,0.7c0-0.3,0.3-0.3,0.2-0.4c0,0,0-0.3,0.4-0.4l-0.4-0.4c0.6,0,0.3-0.3,0.3-0.3l0.2-0.1c0.3-0.6,0.3-0.6,0.1-1
		c0.1-0.2,0.4-0.7,0.1-0.7c-0.3-1.2-0.1-2.2-0.3-3.3c0-0.3-0.4-0.7-0.4-1c0.1-0.1-0.4-0.7-0.4-0.7c0.1-0.4,0-0.9-0.2-1l-0.4-0.4
		c-0.1-0.4-0.4-0.7-0.3-1.2l-0.2-0.1l-0.7-0.4l-0.2-0.2c0.2-0.1-0.1-0.1-0.1-0.4l-0.4-0.1c-0.3-0.3-0.4-0.1-0.4-0.4
		c-0.3-0.3-0.3-0.3-0.6-0.3l0.2-0.1h-0.6c0,0-0.4-0.4-0.6,0l-0.3-0.3c-0.3,0-0.3,0-0.6-0.3l-0.7,0.1h-0.6c0,0-0.4,0.1-0.6,0.3
		l-0.2-0.2l-0.9,0.9l-0.4,0.7c-0.3,0.3-0.3,0.3-0.1,0.4c-0.4,0.4-0.2,0.7-0.2,0.7c-0.1,0.4-0.1,0.4-0.4,0.1c-0.6,0-0.9,0-1.3-0.1
		c-0.1,0.1-0.7-0.4-1-0.1c-0.6,0-1.2,0-2.1,0.3c-0.1,0.1-0.1,0.4-0.4,0.7l-0.6,0.6l-0.4,0.7c-0.4,0.4,0,0.6-0.3,0.9
		c0.1,0.1,0,0.3,0.1,0.7c0.3,0.6,0,0.9-0.1,1l0.3,0.3l-0.7,0.1h-1.8c0,0-0.4,0.4-0.4,0.7h-0.3c-0.1,0.1-0.1,0.1-0.3,0
		c0.3,0.3-0.2,0.7-0.3,0.9c-0.1,0.1-0.3,0.6-0.3,0.6c-0.3,0.3-0.4,0.4,0,0.9c-0.3,0.3-0.4,0.4-0.1,1l0.1,0.4
		c-0.4,0.4,0.3,0.9,0.2,1.6c0.1,0.1,0.3,0.3,0.1,0.4l0.6,0.3c0.6,0.9,0.4,1,0.7,1.3l0.9,0.6l2.1,1.5c0.3,0.3,0.3,0.3,0.6,0.3
		c0.2,0.1,0.2,0.4,0.3,0.3c0.3,0.3,0.9,0.3,0.9,0.3c0.1,0.1,0.4,0.1,0.7,0.4c0.1,0.1,0.6,0,0.3,0.3c0.6-0.3,0.7-0.2,1-0.2
		c0.4,0.4,0.6,0.3,1.2,0.3c0.2-0.1,0.6,0,0.6,0c0.7,0.1,0.7,0.1,1.3,0.1l-0.3-0.3l-0.4-0.4l-0.3,0.3c0.2-0.4,0.2-0.4,0.3-0.3
		l-0.1-0.2L754,398c0,0-0.2-0.2-0.3,0l0.1,0.1l-0.7-0.1c-0.3,0-0.7-0.4-0.9,0v-0.3c-0.7,0.1-1.5-0.3-2.4-0.6c-0.1,0.1-0.1,0.1-0.3,0
		l-0.3-0.3l-0.4-0.4h-0.6l-0.2-0.1l-0.9-0.9c-0.4-0.1-0.6-0.3-0.9-0.6l-0.1-0.1c-0.2-0.1-0.2-0.1-0.2-0.4c-0.4-0.1-0.6-0.3-0.6-0.3
		c0.1,0.1,0.9,0.3,1,0.4c0.3,0.3,0.6,0.3,0.7,0.4l0.1,0.1l0.7,0.1l0.3,0.3l0.1,0.1c0.3,0,0.4,0.1,0.6,0.3c0,0,0.3,0,0.4,0.1
		c0.3,0.3,0.6,0.3,0.9,0.3l4.9,1.6c-0.2,0.2-0.3,0.3-0.3,0.6l0.4-0.2v0.6l-0.1-0.1c-0.3,0.3-0.6,0-0.7,0.1c-0.7-0.2-1.2,0.3-2.2,0.4
		c-0.1-0.1-0.3-0.3-0.7-0.4h-0.3c-0.2-0.2-0.2-0.2-0.6,0l-0.3-0.3h-0.3c0-0.3-0.1-0.1-0.1-0.1c-0.3,0-0.2-0.2-0.6-0.3l-0.4-0.1
		c-0.1-0.2-0.3-0.3-0.6,0c0.1-0.4-0.4-0.4-0.6-0.6l-0.4,0.2l-1-1c-0.1,0.2-0.6,0-0.6-0.3c-0.2,0.1-0.7,0.1-1-0.1
		c-0.1-0.1-0.7-0.1-0.7-0.1l-0.6-0.6l-0.1,0.1c-0.6-0.3-0.7-0.1-0.7-0.4h-0.3l-0.6-0.6c-0.6,0-0.6,0-1-0.1c-0.3,0.3-0.4,0.1-0.6,0
		l-0.4-0.1l-0.1,0.1c0,0.6,0,0.9-0.1,1l0.1,0.1c0.7,0.1,1.2-0.3,1.5,0c0.3,0.3,0.6,0.6,0.7,0.4c0.1-0.1,0.1-0.1,0.4-0.1l0.4,0.4
		c0,0,0.3,0.3,0.9,0.3l0.4,0.2c0.2,0.1,0.2,0.1,0.6,0l0.6,0.6l0.6,0.3c0.4,0.1,0.6,0.3,0.9,0.6c0.1-0.1,0.7,0.1,0.9,0.3l0.4,0.4
		l0.1-0.2c0.1,0.2,0.1,0.2,0.6,0c0,0.3,0,0.3,0.6,0.3c0.1-0.1,0.1,0.1,0.4,0.1l0.4,0.4l1.2,0l0.3,0.3c0.1,0.2,0.3,0,0.9,0
		c0.3,0.3,0.4,0.2,0.7,0.2c0.7-0.2,1.3,0.1,2.4-0.3c0.2,0.1,0.3,0,0.4-0.2l0.3-0.3l0.6,0.6l-1,1c-0.1,0.1,0.3,0.6,0,0.9
		c0,0.3-0.3,0.6-0.2,0.7c0,1.2,0.4,1.9,0.3,2.7l-0.1,0.2c0.3,0,0.3,0.3,0.6,0.6c0.2,0.1,0.3,0.3,0.2,0.7c0.1,0.1,0.1,0.7,0.4,1
		c0.1,0.2,0,0.3,0.1,0.4c0.3,0.3,0.1,0.7,0.1,1c0.4,0.7,0.2,1,0.2,1.9c-0.3,0-0.3,0.6-0.3,0.6c-0.1,0.1-0.3,0.3-0.1,0.4l0.6,0.3
		c0,0,0.1,0.4,0.3,0c0-0.3,0.4-0.7,0.3-0.9c0.3,0,0.3-0.3,0.3-0.3c-0.1-0.1,0.1-0.7,0-1.2c0-0.3-0.1-1-0.4-1.3c0-0.3,0-0.9-0.3-1.8
		l-0.1-0.2c-0.1-0.4-0.4-0.7-0.4-1c0.3-0.3,0.3-0.6,0.1-0.7c-0.4-0.4-0.4-1-0.6-1.5l0.1-0.2l-0.3-0.9c0,0,0.3-0.6,0.1-0.7
		c0.3,0,0.4-0.4,0.6-0.6l0.4-0.7c0.2,0.1,0.4-0.2,0.6,0c-0.2,0.4,0.6,0.3,0.7,0.1l-0.1,0.1c0,0,0,0.6-0.3,0.3
		c0.3,0.3,0.3,0.3,0.2,0.7c0.1,0.1,0.3,0.9,0.3,0.9c-0.3,0.9,0,1.8,0.3,2.7l0.1,0.4c-0.1,0.1,0,0.3-0.1,0.7l0.4,0.7l1,0.7
		c0.2,0.1,0.2,0.1,0.9,0.3c-0.1,0.1,0.3,0.3,0.3,0.3c0.3-0.3,0.2,0.2,0.6,0l0.6,0.3c0.1,0.1,0.1,0.1,0.4,0.1l0.3,0.3
		c0.3,0.3,0.4,0.1,0.4,0.4c0.4-0.1,0.6,0.3,0.7,0.1c0,0.3,0,0.6,0.2,0.4v0.3c0,0,0.3,0.3,0.3,0.6c-0.1,0.1,0.2,0.1,0.6,0
		c0.3,0,0.3,0,0.3-0.3l0-0.3c-0.1-0.4-0.4-0.4-0.6-0.9l-0.4-0.4l-1-0.7l-0.6-0.6c-0.3,0.3-0.6,0-0.9,0c-0.1-0.1-0.6-0.3-0.6-0.3
		l-0.9-0.6l-0.6-0.6l-0.4-0.2c-0.2-0.4-0.3-0.6-0.3-1.2c-0.2-1,0.1-2.2-0.3-3.3c0-0.3,0.1-0.4,0-0.9l0.3,0.3
		c0.3-0.3,0.3-0.3,0.6-0.3s0.3-0.3,0.6-0.3h0.6l-0.3,0.3c-0.1,0.4-0.1,0.4-0.3,0.6c-0.3,0.3-0.4,0.4-0.3,0.9
		c-0.3,0.3-0.2,0.4-0.3,0.9c0,0.3,0.3,0.6,0.4,1c-0.1,0.4-0.1,0.4,0.2,0.7l-0.2,0.2c0.2-0.2,0.4,0.1,0.6,0.3
		c0.4,0.4,0.7,0.4,1.3,0.4c-0.3,0.3,0.4,0.1,0.4,0.1c0.1-0.1,0.4,0.1,0.6,0.3c0.3,0,0.3-0.3,0.3-0.3c0.3-0.3,0.6,0,0.6,0
		c0.1,0.1,0.3-0.3,0.3-0.3l0.7-0.7c0.4-0.1,0.9,0.3,1.3-0.1l0.3-0.3l0.1-0.4l0-0.6c0.1-0.1,0.6,0,0.9-0.6l0.1,0.1
		c-0.1-0.1,0.3-0.6,0.3-0.6c0.4-0.4,0.6-0.6,0.4-1c-0.4-0.4-0.3-0.9-0.3-1.5c-0.3-0.3-0.1-0.4-0.6-0.6c-0.3-0.3-0.1-0.4-0.4-0.4
		l-0.9-0.6c-0.1-0.1-0.6-0.3-0.6-0.3c-0.6,0-1.2,0.3-1.6,0.4l-0.4-0.1l-0.1-0.1l0.6-0.9c-0.1-0.2-0.1-0.7,0.4-0.4
		c0.2,0.1,0.4,0.4,0.6,0.3c0,0,0.4,0.2,0.9,0c0,0,0.3,0.3,0.3,0l0.4,0.4l0.7,0.2l0.4,0.4c0.1-0.2,0.4,0.1,0.9,0.3l0.3,0.3
		c-0.1,0.1,0.3,0.3,0.3,0.6c0.1,0.2,0.6,0.6,0.4,0.7c0,0.9,0,1.2-0.1,1.6l0.3,0.3c0.1,0.4-0.1,1,0.4,1.6c0.1,0.2,0,0.6,0.1,0.7
		l0.6,0.6c0.1,0.2,0.7,0.4,0.6,0.6c0.3,0,0.6,0.6,0.9,0.3c0-0.6,0.3-0.6,0-0.9c-0.1-0.4-0.7-0.7-0.9-0.9c-0.3,0-0.7-0.7-0.7-0.7
		v-2.4l-0.3-0.6c-0.1-0.4,0-0.9-0.3-1.5l-0.3-0.3c0,0-0.4-0.4-0.3-0.6c-0.3-0.3-0.7-0.4-0.9-0.3l-0.7-0.7l-0.6-0.3l-0.4,0.2
		l-0.3-0.3c0,0-0.3-0.3-0.7-0.1l-0.1-0.2h-0.3c-0.4-0.1-0.4-0.4-0.6-0.3c-0.2,0.1-0.4-0.1-0.4-0.1l-0.6-0.3l-0.1-0.7
		c0.1,0.1,0.1,0.1,0.3-0.3h0.6c0.1-0.1,0.3-0.3,1-0.4l0.3-0.3l0.4,0.4h0.9l0.1,0.1l0.4,0.1c0.3,0.3,0.7,0.7,1.3,1l0.4,0.4l0.6,0.6
		c0.4,0.1,0.4,0.1,0.7,0.4c0.1,0.1,0.4,0.4,1,0.1l0.9,0.9c0.2-0.1,0.6,0,0.7-0.1c0.4,0.4,0.9,0.3,1.2,0.3c0.1-0.2,0.3-0.3,0.7-0.4
		l-0.1-0.2l0.3-0.3C777.2,397.2,777,397.1,777,397.1z M757.3,378.6c0.7,0.2,1.5,0.3,2.4,0.6c-0.3,0.6-0.4,1.3-0.4,1.3l0.1,0.1v0.6
		c-0.1-0.2-0.6-0.3-0.6-0.6c-0.2-0.1-0.3-0.3-0.3-0.6h-0.3c-0.4-0.7-0.9-1.2-1.3-1.3L757.3,378.6z M757.7,380.2l0.3,0.3
		c0,0,0,0.3,0.3,0.6c0.4,0.4,1.6,0.7,1.6,0.7l0.2,0.1l0.1,0.4c0,0.3,0.6,2.4,1,4.9c-0.6-0.9-1.5-1.8-2.7-2.7
		c-0.6-0.9-1.6-1.3-1.9-1.6l0.6-0.6v-0.9c0,0-0.6-1.5-0.6-2.4C757.1,379.3,757.6,379.7,757.7,380.2z M745.3,387.2
		c0-0.3,0.3-0.3,0.7-0.4c0.1,0.2,0.3,0,0.4,0.2c0.1,0.1,0.3,0.3,0.6,0.3c0.4-0.1,0.6-0.3,0.7-0.4l0.3,0.3c0.1,0.1,0.3,0.3,0.7,0.1
		v0.3c0.4-0.1,0.6,0,0.9,0.3c0.4,0.1,0.9,0.6,1.2,0.6l0.9,0.9l0.6,0.3l0.2,0.1c1,0.7,1.9,1.9,2.4,3.3c0.1,0.1,0.1,0.4,0.3,0.9
		c0.1,0.1-0.2,0.4,0,0.9c-0.3,0.6-0.2,1,0.1,1.6c-0.4,0.2-0.7-0.1-0.9-0.3l-0.1-0.1c-0.3-0.3-0.2-0.7-0.4-1.3
		c-0.2-0.1,0-0.3-0.2-0.7c0-0.3,0-0.3-0.1-0.4l0.3-0.3c0.1-0.1,0.3-0.3,0.1-0.4l-0.3-0.3h-0.3l0.1,0.1c-0.1,0.1-0.1,0.4-0.1,0.4
		c-0.3,0.3,0,0.3-0.1,0.4c0,0.3,0,0.3-0.2,0.4l0.1,0.1c0.2,0.1,0.3,0.6,0.3,0.9c0,0.3,0,0.6,0.1,0.7c0,0-0.4,0.1-0.6,0l-0.1-0.1
		c-0.4-0.1-1-0.7-1.2-1.2v-0.9v-0.3c-0.4-0.7-0.7-1.6-1-2.2v-1.5h0.3l-0.3-0.3l-0.2,0.1c-0.1,0.4-0.3,1.5-0.3,1.8
		c0.6,0.6,0.7,1.3,0.9,2.1c0.1,0.1,0.1,0.1,0,0.3c-1.3-1.9-1.9-4.6-1.9-4.6l-0.1-0.4l-0.6,0.6H748l-0.4-0.1c0,0-1.5-1.2-2.4-1.5
		L745.3,387.2z M751.5,394.8c-2.1-1.2-3.9-2.4-4.3-2.5l-0.3-0.3c0,0,0-1.5-0.3-2.1l-0.6-0.6l-0.1-0.1c-0.4-0.4-0.6-0.9-0.4-1.3
		l2.1,1.2l0.6,0.3l0.7,0.1l0.3-0.3c0,0.6,0.3,1.2,0.7,2.2C750.4,392.9,751.2,393.9,751.5,394.8z M743.9,390.5c0.3-0.6,0.1-1,0.4-1.3
		c0.1-0.4,0.1-0.7,0.3-0.9l-0.4-0.4l0.3-0.3h0.3c0.1,0.7,0.4,1.3,0.9,1.8v0.3c0.1,0.1,0.3,0.3,0.6,0.9c0,0,0.3,0.3,0.3,0.6l-0.7-0.1
		C745.8,390.9,744.9,390.6,743.9,390.5z M755.5,397.4v0.3l-4.9-1.6c-0.3-0.3-0.6-0.3-1-0.7h-0.3l-0.6-0.6c0,0,0,0.3-0.2,0.1
		c-0.1,0.1-0.3,0-0.4-0.1c-0.1-0.1-0.3,0-0.6,0l-0.1-0.1l-0.6-0.6c-0.3-0.3-0.7-0.4-0.9-0.6c-0.6-0.6-1.2-0.9-1.2-1.5l-0.3-0.3
		c0.1-0.1,0-0.3,0-0.6l1.5,0.3l0.4,0.1v0.6l0.6,0.6c0.3,0,5.4,3.3,8.8,4.3C755.5,397.1,755.7,397.2,755.5,397.4z M761.8,390.8h-0.3
		l-0.4-0.1l-0.2-0.1l-0.1,0.1c-0.3,0-0.4-0.1-0.6,0l-0.2-0.1h-0.3v0.3l-0.6-0.6c-0.1-0.1-0.4-0.1-0.4-0.1c-0.3,0-0.3,0-0.4-0.1
		c0,0-0.1-0.1-0.1-0.4l-0.4-0.4c0,0-0.1-0.4-0.4-0.1l0.1-0.4c-0.4-0.4-0.7-1-1-1.6c-0.2-0.1,0-0.3,0-0.3s-0.1-0.1-0.3,0l-0.1-0.4
		v-0.3c0,0,0.1-0.2-0.1-0.2c-0.2-0.7-0.4-1-0.6-1.8c-0.3-0.3-0.4-0.4-0.3-0.9c-0.2-0.1,0-0.6-0.2-0.7l0.3-0.3v-0.6l-0.2-0.7
		c0.2-0.7,0.7-1,1.2-1.5l0.3-0.3c0,1.2,0.6,3,0.6,3.3l0.2,0.2l-0.3,0.6l-0.6,0.3l0.1,0.1c0.1,0.1,2.5,1.6,4.2,3.6l-0.2-0.1l-0.1-0.2
		c-0.7-0.1-1.3-0.7-1.8-1.2c-0.6-0.3-1.6-0.7-1.8-0.6l-0.2,0.2v0.3l0.2-0.1c0.3,0,1,0.4,1.5,0.6c0.3,0.6,1,1,1.8,1.5l0.1-0.1
		l0.7,0.7c0.4,0.2,0.7,1,0.7,1.3l0.1,0.2c0.2,0.1,0.2,0.4,0.2,0.4c-0.4-0.2-0.7-0.4-1-0.4c0,0-0.3-0.3-0.4-0.2l-0.1-0.1
		c-0.3,0-0.3,0-0.4-0.1c-0.2-0.2-0.4-0.2-0.7-0.2c0,0-0.1-0.1-0.3,0l-0.1-0.1l-0.3,0.6l0.2-0.1c0.3,0.3,0.4,0.1,0.7,0.1
		c0.2-0.1,0.3,0,0.4,0.2h0.3l0.1,0.1c0.2,0.1,0.3,0.3,0.7,0.4c0.1,0.1,0.9,0.3,1,0.4v0.3C761.9,390.6,761.8,390.8,761.8,390.8z
		 M762.8,391.5l-0.3-0.3h-0.3c-0.3-3.6-1.5-9-1.5-9l-0.6-0.9l-0.3-0.3l-0.1-0.4c0.1-0.1,0.1-0.7,0.3-1.2c0.6,0.3,1.2,0.9,1.6,1.3
		c0.2,0.1,0,0.3,0.2,0.4c0.1,0.4,0.1,0.7,0.3,0.9c0,0.6-0.1,0.7,0.2,1c0.1,0.1,0.3,0.6,0.1,0.7v0.3v0.3c-0.1,0.4,0,0.6,0,0.9
		l0.1,0.1c0.2,0.2,0.3,0.9,0.3,1.2V391.5z M763.6,391.1l-0.2,0.1c-0.1,0.4-0.3,0.6-0.3,0.6l-0.2-4.9c0.2-0.4,0.2-1,0-1.5
		c0,0,0.2-0.1-0.1-0.1l-0.1-0.7l0.1-0.1c0.1-0.2,0-0.3,0-0.6c0-0.3-0.1-0.4,0-0.6l-0.1-0.1c-0.2-0.2-0.3-0.6-0.3-0.6
		c0-0.3,0.1-0.4,0-0.6c0.3,0,0.1,0.1,0.1,0.1c0,0.3,0.2,0.7,0.6,0.9c0,0.6,0.1,1,0.6,1.8v0.3l0.3,0.3l-0.2,0.1l0.2,0.1
		c-0.2,0.2-0.2,0.4,0,0.6c0.1,0.7,0.3,1.8,0.1,2.8l-0.1,0.2c-0.2,0.1-0.2,0.1,0,0.3v0.3v0.3l-0.3,0.3c0.1,0.1,0.1,0.1,0,0.3
		C763.9,390.8,763.7,390.9,763.6,391.1z"/>
	<polygon class="st0" points="755.4,398.7 755.4,398.7 755.4,398.7 	"/>
	<path class="st0" d="M679.8,527.9l-25.3-5.3c-15.6-3.8-22.6-8.2-22.6-18.6c0-11,10.8-17.7,27.7-17.7c21.1,0,31.3,10.6,30.6,27.2
		h30.8c0-32.3-23-53.9-60.6-53.9c-33.8,0-59.1,19-59.1,46.3c0,25.3,20.1,39.7,44.4,45l23.2,5.1c16.3,3.4,24.3,8.2,24.3,19.2
		c0,13.5-10.6,20.5-30.8,20.5c-22,0-35.9-11.6-35.5-33.4h-30.6c-0.8,36.3,24.7,59.8,65.5,59.8c39.1,0,62.1-21.3,62.1-49.2
		C723.7,547.4,704.7,533.4,679.8,527.9z M661.6,614.5c-34.2,0-54.9-16.7-57.7-44.6h15.6c2.7,21.1,20.1,33.4,42.7,33.4
		c23,0,38.4-10.1,38.4-28.1c0-15.6-12.2-22.8-30.6-26.8l-23.2-5.1c-21.8-4.6-38-16.3-38-37.4c0-23,20.9-38.7,51.5-38.7
		c31,0,49.4,14.8,52.4,38.7h-15.4c-2.5-16.3-16.3-27.2-37.8-27.2c-19.6,0-35.3,9.9-35.3,25.3c0,14.6,11,21.8,28.5,25.8l25.8,5.7
		c22.4,4.9,37.6,16.1,37.6,37.4C716.1,597,697.3,614.5,661.6,614.5z"/>
	<path class="st0" d="M235.9,440.1c-2.3-1.7-5.1-2.3-7.7-2.7h-9.1c-0.7,0-1.4,0.2-1.9,0.2c-2.6,0.4-4.9,0-6.5-1.7
		c-1.4-1.1-2.8-2.5-4.2-3.6c-1.2-1.1-2.6-1.7-4.2-1.7h-4.9h-1.2c-2.6-0.8-4.9-1.1-7-0.6c-3.3,0.2-6,2.1-5.8,5.3
		c0,1.7,1.6,3.8,3.3,4.2c0.5,0,0.7,0.2,0.9,0.2c-0.5,2.3,0,3,1.9,4.6c0.2,0.2,0.5,0.4,0.5,0.6c0,0.8,0.7,1.5,1.2,2.1
		c0,0.2,0.2,0.6,0.2,1.1c0,1.5,1.2,2.3,2.3,3c0.7,0,0.9,0,1.2,0.4c0.7,0.8,1.6,1.3,3,1.3c1.2,0.2,1.9-0.6,2.8-1.1
		c1.6-0.6,2.1-1.3,4.6,0.2c1.2,0.8,2.1,2.1,3,3c1.2,1.3,1.4,2.3,0.9,3.6c-1.2,2.7-1.4,5.3-1.6,7.8c0,0.8-0.2,2.1-0.5,3
		c-1.9,0.2-3.9,0.6-5.8,0.8c-1.2,0.2-1.4,0.4-1.4,1.3c0,1.1,0.5,2.1,0.5,3.4c0.2,2.3,0.5,4.9,0.5,7.2c0,0.4,0.2,0.8,0.2,1.3
		c0.2,2.1,0.5,3.8,0.5,5.9c0.2,2.3,0.2,4.2,0.5,6.5c0.2,1.5,0.2,3.2,0.2,4.6c0.2,1.9,0.5,3.8,0.5,5.5c0.2,2.5,0.5,5.3,0.7,7.6
		c0.2,2.7,0.5,5.3,0.7,8c0,2.1,0.2,4.6,0.5,6.8c0,2.3,0.2,4.4,0.2,6.8v0.8c0.2,1.7,0.7,3.8,0.7,5.7c0.2,2.1,0.2,4.4,0.2,6.8
		c0,1.1,0,2.1,0.2,3.2c0.2,2.3,0.7,4.9,0.9,7.2v7.2c0,1.5,0.5,2.3,0.2,3.6c-0.2,1.7-0.2,3.2,0,4.6c0.5,2.5,0.5,4.9,0.5,7.4
		c0,0.6-0.2,1.5-0.2,2.5c0.2,2.5,0.5,5.1,0.5,7.6v1.1c0,1.9-0.5,4-0.5,6.1c0,1.3,0.2,2.7,0.2,4.2c-0.5,3.4-0.7,6.8-1.2,10.3
		c-0.2,2.3-1.2,4.9-2.6,7.2c-0.9,1.3-1.4,1.5-2.8,0.8c-0.2-0.2-0.5-0.4-0.7-0.4c-3.3-1.9-4.6-4.4-5.8-7.4c-0.5-1.3-0.9-2.7-1.2-4.2
		c-0.9-2.3-1.6-5.1-2.1-7.6c-0.2-3-0.7-6.1-1.2-9.3c-0.5-3.6-0.9-7.2-1.2-10.6c-0.2-1.5-0.2-3-0.5-4.2c-0.2-2.3-0.5-4.9-0.7-7.2
		c-0.2-1.9-0.2-3.6-0.5-5.3c-0.2-2.5-0.5-5.3-0.7-7.8c0-1.3-0.2-2.1-0.2-3.2c-0.2-2.5-0.7-5.5-0.9-8v-4.2c-0.2-3.4-0.7-6.5-0.9-9.7
		c-0.2-2.3-0.5-4.6-0.7-6.5c-0.2-2.5-0.7-4.9-0.9-7.4c0-3-0.2-5.9-0.9-8.4c-0.2-1.5-0.5-2.7-0.5-3.8c-0.2-3-0.7-5.5-1.4-8.2
		c0-0.8-0.2-1.5-0.2-2.5c-0.5-1.7-0.7-3.6-1.4-5.1c-0.9-3.8-2.3-7.6-4.2-11.2c-1.9-3.2-4.2-6.5-6.5-9.5c-3-3.2-6-5.9-10.2-8.2
		c-5.1-3-10.7-4.9-16.7-4.9c-4.2-0.2-8.4,0-12.1,1.3c-2.6,0.8-4.6,1.5-7,2.3c-1.6,0.6-3,1.3-4.4,1.9c-4.2,2.1-7.7,4.9-10.7,8.2
		c-4.2,3.6-7.2,8.2-9.5,13.3c-0.9,2.3-1.6,4.4-2.3,6.8c-0.5,1.1-0.9,2.3-1.4,3.6c-0.7,2.3-0.7,4.2-1.2,6.5c-0.2,2.1-0.7,4-0.9,6.1
		c-0.5,3.6,0,7.2-0.5,10.6c-0.2,2.1,0.2,3.8,0.2,5.5c0,2.3,0.2,4.6-0.2,6.8c-0.2,1.9,0.2,3.4,0.2,5.3c0.2,10.3,0,20.7,0,31
		c0,4.9,0,9.9,0.2,14.8v2.1c0,0.8,0.5,1.3,1.4,1.5c0.2,0.2,0.5,0.2,0.9,0.2c0,2.3-0.9,3.8-2.3,5.3c-0.9,1.3-2.1,2.1-3.5,3
		c-0.9,1.1-2.3,1.9-3,3c-1.6,1.5-2.3,3.4-3,5.5c-0.7,1.7-1.2,3.4-0.7,5.5c0.9,2.7,2.3,5.1,5.1,6.8c3.5,1.3,6.7,2.3,10.7,2.3
		c2.3-0.2,4.9-0.2,7.2,0c2.6,0,4.6,0.6,6.3,2.7c0.7,0.6,1.2,1.3,1.9,2.1c1.2,1.1,2.3,2.3,4.2,2.7c0.9,0,2.1,0,2.8,0.2h2.6
		c0.5,0,1.4,0,2.1,0.2c2.6,0.6,5.3,1.3,7.9,0.6c2.1-0.4,3.5-1.1,4.2-3c0.5-0.6,0.9-1.7,0.7-2.7c-0.5-1.7-1.4-3-3.5-3.6v-1.5
		c0-0.8-0.5-1.9-1.4-2.5c-0.9-0.6-1.2-1.5-1.4-2.3c0-0.6-0.7-1.1-0.7-2.1c0-1.3-0.9-2.3-2.3-2.7c-0.5,0-0.9-0.4-1.4-0.6
		c-0.9-1.7-2.1-1.9-3.9-1.7c-0.5,0.2-0.9,0.4-1.6,0.8c-1.2,0.6-1.9,0.8-3.3,0.4c-0.5-0.2-0.7-0.4-1.2-0.8c-0.9-0.6-1.6-1.7-2.3-2.5
		c-1.2-1.3-2.3-2.7-0.7-4.9V594c0.7-3,1.4-6.1,2.6-9.7h1.2c1.6-0.2,3-0.4,4.6-0.6c0.7,0,0.9-0.2,1.2-0.8c0.2-0.4,0.2-0.8,0.2-1.3
		c0-3-0.2-5.9-0.2-8.9v-25.3c0-3,0.2-5.5-0.2-8.2c-0.2-1.9,0.2-4,0.2-5.9c0-2.3-0.2-5.1-0.2-7.4s0.2-4.4,0.2-7c0-1.1-0.2-1.9-0.2-3
		c0-1.5,0.2-3,0.2-4c0.2-2.5,0.5-5.1,0.7-7.4c0-0.4,0.2-1.1,0.2-1.7c0.7-1.1,1.2-2.7,1.4-4.2c0.9-2.1,2.6-4,4.6-5.7
		c2.8-1.9,5.8-3.4,9.8-2.5c1.6,0.2,3,0.6,4.2,1.3c2.1,1.3,3,3.4,4,5.1c1.2,1.5,1.6,3.4,1.9,5.3c0.5,2.3,1.2,4.6,1.4,6.8
		c0.5,3,0.7,5.5,0.9,8.2c0.2,2.1,0.5,4.6,0.5,6.8c0.2,0.8,0.2,1.9,0.5,2.7c0.2,2.1,0.5,4.4,0.7,6.5c0.2,1.5,0.2,3.2,0.2,4.4
		c0.2,2.1,0.5,4,0.7,5.9c0.2,2.7,0.5,5.3,0.7,8c0.2,2.5,0.7,5.1,0.7,7.6c0,2.5,0.5,4.9,0.7,7.4c0.2,3,0.5,5.9,0.7,8.4
		c0.2,2.5,0.5,5.1,0.7,7.6v0.2c0.2,1.9,0.5,4.2,0.7,6.1c0.2,1.7,0.2,3.4,0.5,5.1c0.2,1.5,0.5,3.2,0.7,4.9c0.5,2.5,0.9,5.3,1.4,8
		c0,0.8,0.5,1.5,0.7,2.3c0.2,1.9,0.5,4,0.9,5.7c0.7,2.1,1.2,4.2,1.9,6.5c1.4,3.8,3.5,7.4,5.3,11c2.3,2.7,4.6,5.7,7.4,7.8
		c1.6,1.5,3,2.7,4.9,3.6c3.5,2.3,7.4,4.2,11.6,5.1c3,0.6,6.3,1.3,9.5,1.1c3-0.2,5.8-0.4,8.8-1.1c2.6-0.8,5.6-1.7,7.9-3.4
		c1.4-0.8,2.8-1.9,4.4-3.2c3.3-2.5,5.3-5.5,7.2-8.9c0.9-1.5,1.6-3.2,2.3-4.9c2.1-4.4,3-9.5,3.9-14.4c0.5-2.7,0.7-5.7,0.9-8.7v-11.6
		c0.2-2.7,0-5.5,0-8c0-3.4,0-6.5-0.2-9.7c0-1.5-0.2-2.5-0.2-3.6c0-5.1-0.2-10.1-0.7-15c-0.2-3.6-0.5-6.8-0.7-10.1
		c-0.2-3-0.2-5.9-0.5-8.9v-0.8c-0.2-1.9-0.5-4-0.5-6.1c-0.2-2.3-0.2-4.4-0.2-6.8c-0.2-2.1-0.7-4.2-0.7-6.3c0-3.2-0.2-6.5-0.7-9.5
		c-0.2-2.5-0.2-5.3-0.5-7.6v-0.8c-0.5-2.1-0.5-3.8-0.7-5.9c-0.2-2.3-0.2-4.4-0.5-6.8c0-1.5-0.2-3-0.5-4.6c-0.2-2.3-0.2-4.9-0.5-7.2
		c-0.2-2.1-0.5-4.2-0.7-5.9c0-1.3-0.5-1.7-1.6-1.9c-0.2,0-0.2-0.2-0.5-0.2c-0.2-2.5,0.7-4.4,2.3-6.3c1.4-0.8,2.6-2.1,4-3.2
		c0.7-1.3,1.9-2.3,2.8-3.6c0.9-2.1,1.6-4,1.9-6.3C240.5,444.9,238.9,442.2,235.9,440.1z M177.8,497.5h-0.2c-0.5-0.8-0.5-2.3-0.5-3.4
		C177.3,495.2,177.6,496.5,177.8,497.5z M170.4,477.4c0.9,0.6,1.2,1.1,1.6,2.1h-1.6V477.4z M168,473.6c-0.7,0-1.4-0.2-2.1-0.2h-2.1
		c-0.2-1.7-0.2-3-0.5-4.9C165.5,470.1,167.6,472.2,168,473.6z M162.5,467.5c-1.9,0.4-3.5-0.2-5.1-0.2c-0.2-1.1-0.2-2.5-0.5-4
		C159.2,464.6,160.8,465.8,162.5,467.5z M152.5,461.2c-1.6,0.2-1.6,0.2-1.9-0.6C151.5,460.8,151.8,461.2,152.5,461.2z M143.2,458.9
		c0.2,0,0.5,0.2,0.5,0.6c0.2,0.6,0.2,1.3,0.5,1.7c2.1,0.2,3.9,0.2,6,0.4c0.2,2.1,0.5,3.8,0.7,5.5c1.9,0.2,3.7,0.4,5.8,0.6
		c0.2,1.9,0.5,3.6,0.7,5.7c1.9,0,4.2,0.2,6,0.4c0.2,2.1,0.5,3.6,0.7,5.5c1.9,0.2,3.9,0.4,5.8,0.6c0.2,1.7,0.5,3.4,0.7,5.7h3.9
		c0.7,2.1,1.4,4,1.9,6.3c-1.9-0.2-3.7-0.4-6-0.4c0-1.7-0.2-3.6-0.5-5.5c-1.9-0.2-3.7-0.4-6-0.4c-0.2-2.1-0.5-3.8-0.5-5.7
		c-2.1-0.2-4.2-0.2-6-0.4c-0.2-1.9-0.5-3.6-0.7-5.7c-2.1-0.2-3.9-0.4-6-0.4c0-1.5-0.2-2.5-0.2-4c-0.2-1.7-0.2-1.7-2.1-1.7
		c-1.6-0.2-2.8-0.4-4.4-0.4c-0.2-1.7-0.5-3.4-0.5-5.7c-2.1-0.2-3.9-0.2-6-0.4c-0.2-0.6-0.2-1.7-0.5-2.5
		C139.2,458.4,141.1,458.4,143.2,458.9z M125.1,461.2c1.9-0.4,3.5-1.1,5.1-1.7c0.2,0.6,0.2,1.3,0.5,1.7c2.1,0.2,4.2,0.2,6,0.4
		c0.2,2.1,0.5,3.8,0.7,5.5c2.1,0.2,3.9,0.4,6,0.6c0.2,1.9,0.2,3.6,0.5,5.7c2.3,0,4.2,0.2,6.3,0.4c0.2,1.9,0.5,3.6,0.7,5.5
		c1.6,0.2,3.7,0.4,5.8,0.6c0.2,1.7,0.5,3.4,0.7,5.7c1.9,0,4.2,0,6,0.2c0.2,1.9,0.5,3.8,0.5,5.7c2.1,0,4.2,0.2,6,0.4
		c0.2,1.7,0.5,3.6,0.7,5.5c2.1,0,4.2,0.2,6.3,0.4c0.2,2.1,0.2,3.8,0.5,5.5c0.5,0.2,0.5,0.2,0.7,0.2c0.2,0,0.5,0.2,0.9,0.2
		c0.2,1.9,0.7,3.8,1.2,5.9h-2.8c-0.2-1.5-0.2-2.7-0.5-4.2c0-1.3-0.2-1.5-1.6-1.5c-0.7,0-1.6,0-2.6-0.2c-0.5,0-1.4-0.2-2.3-0.2
		c0-1.9-0.2-3.6-0.5-5.5c-1.9-0.2-3.7-0.4-6-0.6c0-1.1-0.2-2.5-0.5-4c0-1.5,0-1.5-1.4-1.7c-1.9,0-3.3-0.2-4.6-0.2
		c-0.2-1.7-0.5-3.6-0.7-5.5c-2.1-0.2-3.9-0.4-6-0.4c0-2.1-0.2-3.8-0.5-5.5c-2.1-0.4-3.9-0.6-6.3-0.8c-0.2-1.7-0.5-3.4-0.5-5.5
		c-2.3-0.2-3.9-0.4-6.3-0.4c0-1.5-0.2-2.7-0.2-4.2c-0.2-1.3-0.2-1.5-1.6-1.5c-1.6-0.2-3-0.4-4.9-0.4c-0.2-1.7-0.2-3.6-0.2-5.7
		c-1.6-0.2-3.3-0.2-5.1-0.2V461.2z M97,491.6c2.1,0,4.2,0.2,6.5,0.4c0.2,0.8,0.2,1.9,0.2,2.7c0,0.8,0,1.9,0.2,2.7
		c2.3,0,4.2,0.2,6.3,0.4c0.2,2.1,0.2,3.8,0.5,5.7c2.1,0.2,3.9,0.4,6.3,0.6c0,1.1,0,2.5,0.2,3.6v0.4c0,1.5,0.2,1.5,1.6,1.5
		c0.5,0,0.7,0.2,1.4,0.2c0,1.9-0.2,4-0.2,6.1c-0.9,0-1.6-0.2-2.8-0.2c-0.2-1.9-0.2-3.8-0.2-5.7c-2.3-0.2-4.2-0.2-6.3-0.4
		c-0.2-1.9-0.5-3.6-0.7-5.5c-2.1-0.2-3.7-0.4-6-0.6c-0.2-1.9-0.2-3.6-0.5-5.5c-2.1-0.2-4.2-0.4-6.3-0.6
		C97,495.6,96.7,493.5,97,491.6z M95.8,497.9h0.9c0.2,2.1,0.5,3.8,0.5,5.7c2.1,0.2,4.2,0.4,6.3,0.4c0.2,1.9,0.2,3.6,0.5,5.7
		c2.3,0.2,3.9,0,6.3,0.4c0.2,1.7,0.2,3.6,0.5,5.7c2.3,0.2,3.9,0.2,6,0.4c0.7,1.7,0.2,3.6,0.7,5.5c0.9,0,1.6,0.2,2.6,0.2v6.1
		c-0.9,0-1.6-0.2-2.8-0.2c-0.2-1.7-0.2-3.8-0.2-5.7c-2.3-0.2-4.2-0.2-6.3-0.2c-0.2-1.9-0.5-3.8-0.7-5.5c-2.1-0.2-3.7-0.4-6.3-0.6
		c0-1.9,0-3.8-0.2-5.7c-2.1,0-3.9-0.2-6.3-0.4c0-1.3-0.2-2.5-0.5-3.6c0-1.9,0-1.9-1.9-2.3C94.9,501.9,95.1,500,95.8,497.9z
		 M94.4,510c0.9,0,1.6,0.2,2.3,0.2c0.2,1.7,0.5,3.6,0.7,5.7c1.9,0,3.9,0.2,6,0.4c0.2,1.7,0.2,3.6,0.5,5.5c2.3,0.2,3.9,0.2,6.3,0.4
		c0.2,1.9,0.2,3.8,0.5,5.5c2.1,0.2,3.9,0.4,6.3,0.6c0,1.9,0.2,3.6,0.5,5.5c0.9,0,1.6,0.2,2.6,0.4v6.1c-0.9-0.2-1.6-0.2-2.8-0.2
		c-0.2-1.9-0.2-3.8-0.2-5.7c-2.3-0.2-4.2-0.4-6.3-0.6c-0.2-1.7-0.5-3.4-0.7-5.3c-2.1-0.2-3.7-0.4-6.3-0.6c0-1.7,0-3.6-0.2-5.7
		c-2.1-0.2-3.9-0.2-6.3-0.4c0-1.1-0.2-2.5-0.5-3.8c0-1.5,0-1.7-1.9-1.7c-0.2,0-0.5,0-0.9-0.2C93.9,514,93.7,511.9,94.4,510z
		 M111.1,592.8c0,0.4-0.5,0.8-0.7,1.3c-1.4,2.3-0.7,4,0.9,5.9c0.9,1.3,1.9,2.3,3,3.4c2.6,1.9,5.1,2.1,7.7,0.6
		c0.2-0.2,0.7-0.4,1.2-0.4c0.5-0.2,0.9-0.2,1.2,0.2c-0.2,0.8-0.9,0.8-1.6,1.1c-0.5,0.2-0.5,0-0.9,0.2c-0.7,0.2-1.2,0.8-1.2,1.3
		c0.2,0.6,0.7,1.3,1.6,1.1c1.4,0,2.3-0.4,3.3-1.3c0.7-0.2,0.7-0.2,1.9,0c-0.5,0-0.5,0.2-0.7,0.4c-0.5,0.2-0.9,0.4-1.4,0.6
		c-0.9,0.6-1.9,1.3-3.3,1.3c-0.7-0.2-1.4,0.4-1.4,1.1c0,0.6,0.7,1.1,1.6,1.3c1.4,0,2.6,0,3.9-1.3c0.2-0.2,0.7-0.4,1.2-0.6
		c0.2-0.2,0.5-0.2,0.7,0c0.2,0.2,0.2,0.8,0,0.8c-0.9,1.1-2.1,1.7-3.3,2.3c-0.5,0.2-0.7,0-1.2,0c-0.9-0.2-1.4-0.2-1.6,0.4
		c-0.5,0.6-0.2,1.1,0.5,1.5c1.4,0.6,2.3,0.6,3.5,0.2c0.9-0.4,1.6-0.8,2.1-0.8c0.5-0.4,0.9-0.6,1.6-0.8c0.2,0,0.7,0.2,0.7,0.4
		c0.2,0.4,0.2,0.6-0.2,1.1c-0.5,1.1-1.9,1.5-3.3,1.9c-0.9,0.2-2.1,0.6-3,0c-0.5-0.2-1.2-0.2-1.6,0.4c-0.7,0.8-0.2,1.9,0.9,1.9
		c1.9,0.4,4.2,0.2,6-0.6c0.9-0.6,2.3-0.8,3.7-0.2c0.7,0.4,1.2,0.8,1.2,1.1c0.7,1.5-0.2,3-1.4,3.4c-1.4,0.6-2.8,0.4-3.9,0.2
		c-1.4,0-2.8-0.6-4.2-0.8c-0.5-0.2-1.4-0.4-2.1-0.2c-3.3,0.6-5.8-0.4-8.4-2.5c-0.9-0.6-1.9-1.7-2.6-2.7c-1.6-1.9-3.7-2.3-5.6-2.3
		c-3-0.2-5.8,0-8.8,0c-3.5-0.2-7-0.8-10.2-3c-2.1-1.9-3.5-4.2-2.8-6.8c0.2-0.8,0.5-1.7,0.7-2.5c0.5-3.2,3-5.5,5.6-7.4
		c3.5-2.1,5.6-5.1,6-8.9v-0.2h16c0.2,0.2,0.2,0.4,0.2,0.4C112.3,587.7,112.1,590.2,111.1,592.8z M94.4,576.7v-6.1
		c0.9,0,1.6,0.2,2.3,0.2c0.2,1.9,0.5,3.6,0.7,5.7c1.9,0.2,3.9,0.2,6,0.4c0.2,1.7,0.2,3.4,0.5,5.5c-2.1-0.2-4.4-0.2-6.7-0.4
		c-0.2-1.7-0.5-3.4-0.5-4.9C96,576.9,95.3,576.9,94.4,576.7z M116.9,582h-6.3c-0.2-1.3-0.2-2.5-0.5-3.8c0-1.1-0.2-1.3-1.6-1.3
		c-1.4-0.2-2.8-0.2-4.6-0.4c-0.2-1.9-0.2-3.8-0.5-5.7c-2.1-0.2-4.2-0.2-6.3-0.4c0-1.5-0.2-2.7-0.5-4c0-1.5,0-1.5-1.4-1.7h-0.9
		c-0.5-2.1-0.7-4.2,0-6.3c0.9,0.2,1.6,0.2,2.3,0.2c0.2,1.9,0.5,3.8,0.7,5.7c1.9,0.2,3.9,0.4,6,0.6c0.2,1.7,0.2,3.4,0.5,5.3
		c2.3,0.2,4.2,0.4,6.3,0.6c0.2,1.9,0.2,3.6,0.5,5.7c2.1,0.2,3.9,0.2,6.3,0.4C116.9,578.6,117.4,580.1,116.9,582z M120.2,576.7
		c-0.9,0-1.9-0.2-3-0.2c-0.2-1.9-0.2-3.8-0.2-5.7c-2.3-0.2-4.2-0.2-6.3-0.4c-0.2-1.3-0.2-2.7-0.5-3.8v-0.6c0-0.8-0.5-1.1-1.2-1.3
		c-1.4-0.2-2.8-0.2-4.4-0.2c-0.2-0.2-0.5-0.2-0.7-0.2c-0.2-1.7-0.2-3.6-0.5-5.5c-2.1-0.2-3.9-0.4-6.3-0.6c-0.2-1.7-0.5-3.4-0.5-5.3
		c-0.7-0.2-1.4-0.4-2.1-0.4c-0.9-1.7-0.9-4.9-0.2-6.1c0.9,0.2,1.6,0.2,2.3,0.2c0.2,1.7,0.5,3.8,0.7,5.7c2.1,0.2,3.9,0.2,6,0.4
		c0.2,1.7,0.2,3.6,0.5,5.3c2.3,0.2,4.2,0.4,6.3,0.6c0.2,1.9,0.2,4,0.5,5.7c2.1,0.2,3.9,0.4,6.3,0.6c0,1.7,0.2,3.4,0.5,5.3
		c1.2,0.2,1.9,0.2,2.8,0.4V576.7z M120.2,564.7c-0.9-0.2-1.9-0.2-3-0.4c-0.2-1.7-0.2-3.6-0.2-5.5c-2.3-0.2-4.2-0.4-6.3-0.6
		c-0.2-1.7-0.5-3.6-0.7-5.5c-2.1-0.2-3.7-0.2-6.3-0.4c0-1.9,0-3.8-0.2-5.5c-2.1-0.2-4.2-0.4-6.3-0.6c-0.2-1.5-0.2-2.7-0.5-4
		c0-1.5-0.2-1.5-1.4-1.7h-1.4v-6.3c1.2,0.2,1.9,0.2,2.8,0.4c0.2,1.9,0.5,3.6,0.7,5.5c1.9,0.2,3.9,0.4,6,0.6c0.2,1.7,0.2,3.4,0.5,5.5
		c2.3,0.2,4.2,0.2,6.3,0.4c0.2,1.7,0.2,3.8,0.5,5.7c2.1,0.2,3.9,0.2,6.3,0.4c0,1.7,0.2,3.6,0.5,5.3c0.7,0.2,1.4,0.2,1.9,0.2
		c0.5,0,0.9,0.4,0.9,1.1V564.7z M120,552.4c-0.9,0-1.6,0-2.8-0.2c-0.2-1.9-0.2-3.8-0.2-5.5c-2.3-0.2-4.2-0.4-6.3-0.6
		c-0.2-1.5-0.2-2.7-0.5-4c0-1.3-0.2-1.5-1.6-1.5c-1.4-0.2-3-0.4-4.6-0.4c-0.2-1.9-0.2-3.8-0.5-5.7c-2.1-0.2-4.2-0.4-6.3-0.6
		c-0.2-1.7-0.5-3.4-0.7-5.3c-0.7-0.2-1.4-0.2-2.3-0.4V522c0.9,0,1.6,0,2.6,0.2c0.2,1.9,0.5,3.8,0.5,5.5c2.1,0.2,4.2,0.4,6.3,0.6
		c0.2,1.9,0.2,3.6,0.5,5.5c2.3,0.2,4.2,0.4,6.3,0.6c0.2,1.7,0.2,3.6,0.5,5.5c2.1,0.2,3.9,0.4,6.3,0.6c0,1.7,0.2,3.4,0.5,5.3
		c0.9,0.2,1.6,0.4,2.6,0.4C120.2,548.2,120.4,550.5,120,552.4z M120.9,504.1c-1.4-0.2-2.3-0.2-3.7-0.4c-0.2-1.9-0.2-3.6-0.2-5.5
		c-2.3-0.2-4.2-0.4-6.3-0.6c-0.2-1.7-0.5-3.4-0.7-5.5c-2.1-0.2-3.7-0.4-6.3-0.4c0-1.7,0-3.6-0.2-5.5c-1.4-0.2-2.6-0.2-4.2-0.4
		c0.7-2.1,1.9-3.8,2.8-5.3c0-0.6,0.7-0.6,1.4-0.4c0.2,1.7,0.2,3.4,0.5,5.7c2.3,0,4.2,0.2,6.3,0.2c0.2,1.9,0.2,3.8,0.5,5.7
		c2.1,0,3.9,0.2,6.3,0.4c0,1.7,0.2,3.6,0.5,5.5c1.6,0,3.3,0.2,5.1,0.4C122,500,121.3,501.9,120.9,504.1z M123.9,495.6
		c-0.2-1.3-0.2-2.5-0.5-3.6c-2.1-0.2-4.2-0.4-6.3-0.4c-0.2-1.7-0.2-3.6-0.2-5.5c-2.3-0.2-4.2-0.4-6.3-0.4c-0.2-2.1-0.5-3.8-0.7-5.7
		c-2.1-0.2-3.7-0.4-6-0.4c-0.2-1.3-0.2-2.3,0.7-3.2c0.5-0.6,1.2-1.3,1.6-2.1c0.5-0.6,1.2-0.8,1.9-0.8c0.7,0.2,1.2,0.2,2.1,0.4
		c0.2,1.9,0.2,3.6,0.5,5.5c2.1,0.2,3.9,0.4,6.3,0.6c0,1.7,0.2,3.4,0.5,5.7c2.1,0,4.2,0,6,0.2c0.2,1.9,0.5,3.8,0.7,5.7
		c0.7,0,1.9,0,3,0.2C125.8,493.1,124.8,494.3,123.9,495.6z M130.2,489.5c0-1.3,0-2.3-0.2-3.4c-1.9-0.2-3.9-0.4-5.8-0.4
		c-0.2-1.9-0.5-3.8-0.7-5.7c-2.1,0-3.9-0.2-6.3-0.4c-0.2-1.9-0.2-3.6-0.2-5.7c-2.3-0.2-4.2-0.4-6.3-0.4v-1.3c-0.2-0.8-0.5-1.5,0-1.9
		c0.7-1.1,1.6-1.7,2.6-2.5c0.2-0.2,0.7-0.2,0.9-0.2c0.7,0,1.6,0.2,2.8,0.2c0,1.9,0.2,3.6,0.5,5.7c2.1,0,4.2,0.2,6.3,0.4
		c0,1.9,0.2,3.6,0.5,5.5c1.9,0.2,3.7,0.4,6,0.6c0,1.7,0.2,3.4,0.5,5.5c2.1,0.2,4.2,0.2,6,0.6c0.2,0.4,0.2,0.8,0.2,1.5
		C134.8,488,132.7,488.6,130.2,489.5z M151.3,497.5c-1.4-1.5-0.7-3.4-1.4-5.3c-0.2-0.2-0.7-0.4-1.2-0.4c-1.2,0.2-1.9-0.4-2.6-1.1
		c-0.2-0.2-0.9-0.8-1.6-1.3c-0.9-0.4-1.2-1.1-1.2-1.7v-1.7c-2.3-0.2-3.9-0.4-6-0.4c-0.2-2.1-0.5-3.8-0.7-5.7
		c-1.9-0.2-3.9-0.2-6.3-0.4c-0.2-1.9-0.2-3.6-0.2-5.7c-2.3-0.2-4.2-0.4-6-0.4c-0.2-2.1-0.5-3.6-0.7-5.5c-2.1-0.2-3.9-0.4-6.3-0.6
		c0-0.8,0-1.3-0.2-2.1c2.1-1.3,4.2-2.5,6.5-3.6c0.2,2.3,0.5,4,0.7,5.5c1.9,0.2,3.9,0.4,6,0.6c0,1.9,0.2,3.6,0.5,5.7
		c2.1,0,4.2,0.2,6,0.4c0.2,1.9,0.5,3.6,0.7,5.5c2.1,0.2,3.7,0.4,6,0.6c0.2,1.7,0.2,3.4,0.7,5.7c2.1,0,3.9,0,6,0.2
		c0.2,1.9,0.5,3.8,0.7,5.7c1.9,0,3.7,0.2,5.8,0.4c0.2,1.9,0.5,3.6,0.7,5.5c1.9,0,4.2,0.2,6,0.4c0.2,2.1,0.5,3.8,0.7,5.7
		c1.9,0.2,3.9,0.4,5.8,0.6c0.2,1.7,0.5,3.4,0.7,5.5c1.2,0,2.1,0,3.3,0.2c0.9,0,1.6,0.2,3,0.2c0.2,1.7,0.2,3.6,0.5,5.5
		c1.2,0.2,2.1,0.4,3,0.4c0.2,1.9,0.5,3.8,0.7,5.9c-1.2,0.2-2.3-0.2-3.7,0c-0.2-1.5-0.2-2.7-0.5-4.2c0-1.3-0.2-1.3-1.9-1.5
		c-1.4-0.2-2.8-0.2-4.4-0.4c-0.2-1.9-0.5-3.8-0.7-5.7c-1.9-0.2-4-0.2-6-0.4c0-1.5-0.2-3-0.5-4.4c0-1.1,0-1.1-1.4-1.3
		c-1.6-0.2-3-0.2-4.6-0.4c-0.2-1.7-0.5-3.6-0.7-5.5C154.8,497.9,152.9,497.7,151.3,497.5z M152.5,503.8c1.6,0,2.8,0.2,4.2,0.2
		c0.2,1.9,0.5,3.6,0.7,5.7c1.9,0,4.2,0.2,6,0.4c0.2,1.7,0.5,3.6,0.5,5.7c2.1,0,4.2,0.2,6,0.4c0.2,1.7,0.5,3.6,0.7,5.5
		c2.1,0.2,4.2,0.2,6.3,0.4c0.2,1.9,0.2,3.8,0.5,5.5c1.4,0.2,2.8,0.4,4.2,0.6c0.2,1.9,0.5,3.8,0.9,5.9c-2.1,0-3.5-0.2-5.1-0.2
		c-0.2-1.9-0.5-3.6-0.7-5.5c-2.1-0.2-4-0.4-6.3-0.6c0-1.7-0.2-3.8-0.5-5.7c-1.9-0.2-4-0.2-6-0.2c-0.2-1.9-0.5-3.8-0.5-5.5
		c-1.9-0.2-4.2-0.4-6-0.6c-0.2-1.9-0.5-3.8-0.7-5.7c-0.9,0-2.1-0.2-3-0.2C152.9,507.9,152.9,506,152.5,503.8z M154.1,516.3h2.6
		c0.2,1.7,0.5,3.6,0.7,5.5c1.9,0.2,4.2,0.2,6,0.4c0.2,1.9,0.5,3.8,0.5,5.5c2.1,0.2,4.2,0.4,6,0.6c0.2,1.9,0.5,3.6,0.7,5.5
		c2.1,0.2,4.2,0.4,6.3,0.6c0.2,1.7,0.2,3.6,0.5,5.5c1.9,0.2,3.3,0.4,5.3,0.6c0.5,1.7,0.5,3.8,0.5,5.9c-2.1,0-3.7-0.2-5.8-0.4
		c-0.2-1.5-0.5-2.7-0.5-4.2c-0.2-1.3-0.2-1.3-1.6-1.3c-1.4-0.2-2.8-0.4-4.6-0.4c-0.2-1.9-0.5-3.8-0.7-5.7c-2.1-0.2-4-0.4-6-0.6
		c-0.2-1.7-0.5-3.4-0.5-5.3c-1.9-0.6-4.2-0.2-6-0.8c-0.2-1.5-0.5-3.6-0.7-5.5c-0.5,0-0.9-0.2-1.6-0.2
		C154.8,520.1,154.3,518.2,154.1,516.3z M156.9,537.2c0-1.1-0.2-2.3-0.5-3.6c-0.7-1.5-0.7-3.4-0.9-5.3h1.2c0.2,1.9,0.5,3.6,0.7,5.5
		c1.9,0.2,4.2,0.4,6,0.6c0.2,1.7,0.5,3.6,0.7,5.5c2.1,0.2,3.9,0.4,5.8,0.6c0.2,1.7,0.5,3.4,0.7,5.5c2.1,0.2,4.2,0.4,6.3,0.6
		c0.2,1.5,0.2,3.6,0.5,5.5c2.1,0.2,3.9,0.2,6,0.4c0.2,1.3,0.2,2.7,0.5,4c0,0.6,0.5,1.1,0.5,1.7c0.2,0,0.2,0.2,0.5,0.4
		c0,1.9,0,3.8,0.2,5.5c-0.7,0.2-1.2,0-1.2-0.6c-0.2-1.1-0.2-2.3-0.5-3.6v-1.3c-2.1-0.2-3.9-0.4-6-0.6c-0.2-1.3-0.2-2.7-0.5-4
		c0-1.5-0.2-1.5-1.6-1.7h-4.9c-0.2-2.1-0.2-4-0.5-5.7c-1.9-0.2-4-0.4-6-0.6c0-1.3-0.2-2.7-0.5-4c0-1.3,0-1.5-1.4-1.7
		c-1.9,0-3.3-0.2-4.6-0.2C157.1,538.9,157.1,538.1,156.9,537.2z M157.1,546.1c2.1,0.2,4.2,0.2,6.3,0.4c0.2,1.7,0.5,3.8,0.7,5.7
		c2.1,0.2,3.9,0.2,5.8,0.4c0.2,1.7,0.5,3.6,0.7,5.3c2.1,0.2,4.2,0.4,6.3,0.6c0.2,1.9,0.2,3.8,0.5,5.7c2.1,0.2,3.9,0.4,6,0.6
		c0.2,1.7,0.5,3.4,0.7,5.3c0.5,0,0.9,0.2,1.4,0.4c0.2,1.9,0.2,3.8,0.2,5.9h-1.9c-0.2-1.9-0.2-3.8-0.5-5.7c-2.1-0.2-3.9-0.2-6-0.4
		c-0.2-1.3-0.2-2.7-0.5-4c0-1.5-0.2-1.7-1.6-1.7c-1.6,0-3-0.2-4.6-0.4c-0.2-1.7-0.5-3.6-0.7-5.5c-1.9-0.2-4-0.4-6-0.6
		c-0.2-1.7-0.5-3.4-0.5-5.5c-1.6-0.2-3.7-0.2-5.6-0.4C157.6,550.3,157.4,548.2,157.1,546.1z M158.3,558.1c1.6,0.2,3.5,0.2,5.1,0.4
		c0.2,1.9,0.5,4,0.7,5.7c1.9,0.2,3.9,0.4,5.8,0.6c0.2,1.7,0.5,3.4,0.7,5.3c2.1,0.2,4.2,0.4,6.3,0.6c0.2,1.9,0.2,3.8,0.5,5.7
		c2.1,0.2,3.9,0.2,6,0.4c0.2,1.7,0.5,3.4,0.7,5.3c0.2,0,0.2,0.2,0.2,0.2c2.3,0.4,2.3,0.4,2.6,2.3c0.2,1.5,0.2,2.7,0.5,4
		c-1.4,0-2.1-0.2-3.5-0.2c-0.2-1.7-0.2-3.8-0.5-5.7c-2.1,0-3.9-0.2-6-0.4c-0.2-1.7-0.5-3.6-0.7-5.3c-2.1-0.2-4-0.4-6.3-0.6
		c0-1.9-0.2-3.8-0.5-5.7c-1.9-0.2-4-0.2-6-0.4c0-1.5-0.2-2.7-0.5-4c0-1.5,0-1.5-1.4-1.7c-0.9,0-2.1-0.2-3-0.2
		C158.5,562.6,158.1,560.5,158.3,558.1z M159.9,576.5c-0.7-1.9-0.7-3.8-0.5-6.1c1.4,0.2,2.6,0.2,4,0.4c0.2,1.9,0.5,3.6,0.5,5.7
		c2.1,0,4.2,0.2,6,0.4c0.2,1.7,0.5,3.6,0.7,5.5c2.1,0.2,4.2,0.4,6.3,0.4c0.2,1.9,0.2,3.8,0.5,5.5c2.1,0.2,3.9,0.4,6,0.6
		c0.2,1.9,0.5,3.8,0.7,5.5c1.2,0,1.9,0.2,2.8,0.2s1.4,0.4,1.4,1.3c0.2,1.7,0.5,3,0.7,5.1c-1.9,0.4-3.3-0.4-5.1-0.2
		c-0.2-2.1-0.2-3.8-0.5-5.7c-2.1-0.2-3.9-0.4-6-0.6c-0.2-1.7-0.5-3.4-0.7-5.3c-2.1-0.2-4-0.4-6.3-0.6c0-1.7-0.2-3.6-0.5-5.7
		c-1.9,0-4-0.2-6-0.4c0-1.3-0.2-2.7-0.5-4.2c0-1.1,0-1.3-1.4-1.3c-0.7,0-1.2,0-1.9-0.2C160.1,576.7,159.9,576.7,159.9,576.5z
		 M161.1,588.8c-0.2-1.9-0.5-4-0.7-5.9h3c0.2,1.9,0.5,3.8,0.5,5.5c2.3,0.2,4.2,0.4,6,0.6c0.2,1.9,0.5,3.6,0.7,5.5
		c2.1,0.2,3.9,0.4,6.3,0.6c0.2,1.7,0.5,3.6,0.5,5.5c1.9,0.2,3,0.4,4.9,0.4c1.2,0.2,1.2,0.2,1.4,1.3c0,1.3,0.2,2.7,0.5,4.4
		c1.9,0.2,4.2,0.2,6.3,0.4c0,1.7,0.2,3.8,0.5,5.5c0.5,0.2,0.5,0.4,0.7,0.4c1.2,1.9,2.3,4,3.3,5.9c-1.4,0-2.8-0.2-4-0.2
		c-0.2-1.3-0.5-2.7-0.5-4c0-1.5-0.2-1.5-1.9-1.5c-1.6,0-2.8-0.2-4.6-0.4c-0.2-1.9-0.2-3.8-0.5-5.5c-2.1-0.2-3.9-0.4-6-0.6
		c-0.2-1.9-0.5-3.6-0.7-5.5c-2.1,0-4-0.2-6-0.6c-0.2-1.9-0.5-3.6-0.7-5.5c-1.9-0.2-4-0.4-6-0.6c0-1.3-0.2-2.5-0.5-3.8
		c0-1.5,0-1.7-1.6-1.7C161.5,589,161.5,588.8,161.1,588.8z M169.2,625.3c0.7,0,0.7,0,0.7,1.9C169.7,626.6,169.4,625.9,169.2,625.3z
		 M172.7,631c1.4,0.2,2.6,0.2,4.2,0.4c0.2,1.7,0.2,3.4,0.5,5.1C175.7,635.8,173.4,633.1,172.7,631z M177.8,637.1
		c2.1,0.2,3.7,0.2,5.6,0.2c0.2,1.5,0.2,3,0.5,4.6C180.4,640.1,178.5,638.6,177.8,637.1z M190.3,645.1c-1.6-0.6-2.6-1.1-4.2-1.5
		c1.6-0.6,2.6,0,4.2-0.2V645.1z M196.9,647c0-1.3,0-2.3-0.2-3.4c-1.9-0.2-3.9-0.4-5.8-0.6c-0.2-1.3-0.5-2.7-0.5-4
		c0-1.5,0-1.5-1.9-1.7c-1.4,0-2.8,0-4.6-0.2c-0.2-2.1-0.2-3.6-0.5-5.7c-2.1,0-3.9-0.2-6-0.4c-0.2-1.9-0.5-3.6-0.7-5.7
		c-2.1,0-4-0.2-6.3-0.4c0-1.9-0.2-3.6-0.5-5.5c-0.7-0.2-1.4-0.2-2.3-0.2c-0.5-0.2-0.9-0.2-1.2-0.8c-0.5-1.5-0.9-3-1.4-4.6V613
		c1.9,0,3.5,0.2,4.9,0.2c0.2,1.1,0.2,2.3,0.5,3.8v0.8c0.2,0.6,0.5,0.8,1.6,0.8c1.6,0.2,3,0.2,4.9,0.4c0.2,1.9,0.2,3.8,0.5,5.7
		c2.1,0.2,3.9,0.4,6,0.4c0.2,1.9,0.5,3.6,0.7,5.5c1.9,0.2,4.2,0.4,6.3,0.6c0,1.9,0.2,3.4,0.5,5.7c1.9,0.2,4,0.2,6,0.2
		c0,1.9,0.2,3.8,0.5,5.7c2.1,0.2,4.2,0.4,6,0.6c0.2,1.1,0.2,2.3,0.5,3.8C201.7,647.7,199.2,647.7,196.9,647z M216.1,644.5
		c-1.6,0.8-3.5,1.9-5.8,2.1c-0.2-1.1-0.2-2.1-0.5-3c-1.9-0.2-3.7-0.4-5.8-0.6c-0.2-1.5-0.5-3-0.7-4.4c0-1.1-0.2-1.3-1.2-1.3
		c-1.6,0-3.3,0-5.1-0.2c-0.2-2.1-0.2-3.6-0.5-5.5c-2.1-0.2-3.9-0.4-5.8-0.6c-0.2-1.9-0.5-3.6-0.7-5.7c-2.1,0-4.4-0.2-6.3-0.4
		c-0.2-1.9-0.2-3.6-0.5-5.5c-2.1-0.2-3.9-0.4-6-0.6c-0.2-1.7-0.5-3.6-0.7-5.5c-2.1,0-4-0.2-6-0.4c-0.2-1.9-0.5-3.8-0.7-5.5
		c-1.9-0.2-4-0.4-6-0.6c-0.2-1.3-0.2-2.7-0.5-4c0-0.6,0.2-1.3-0.5-1.5c-0.2-0.2-0.2-0.4-0.2-0.6c-0.5-1.9-0.7-3.6-0.7-5.5
		c0.5,0,0.9-0.2,1.4-0.2c0.2,1.9,0.5,3.8,0.7,5.7c1.9,0.2,3.9,0.4,5.8,0.6c0.2,1.7,0.5,3.4,0.7,5.5c2.1,0.2,3.9,0.2,6.3,0.4
		c0.2,1.7,0.2,3.8,0.5,5.7c2.1,0.2,3.9,0.4,6,0.4c0.2,1.7,0.5,3.6,0.7,5.3c1.9,0.2,4,0.4,6.3,0.6c0,1.9,0.2,3.8,0.5,5.7
		c1.9,0.2,3.7,0.4,6,0.4c0,1.9,0.2,3.6,0.5,5.5c2.1,0.2,4.2,0.4,6,0.6c0.2,1.9,0.5,3.4,0.7,5.7c2.1,0,3.9,0.2,6,0.2
		c0,1.9,0.2,3.8,0.5,5.7c2.3,0.2,4.2,0.4,6.7,0.6C216.8,643.9,216.6,644.5,216.1,644.5z M221.9,641.3c-0.7,0.4-1.4,0.8-1.9,1.1
		c-0.9,0.6-1.6,1.1-2.8,0.6c0-1.7-0.2-3.6-0.5-5.5c-2.1-0.4-4.2-0.2-6.3-0.6c-0.2-1.9-0.5-3.4-0.7-5.3c-1.9-0.2-3.7-0.4-6-0.6
		c0-1.9-0.2-3.6-0.5-5.7c-1.9,0-4.2-0.2-6.3-0.4c0-1.3-0.2-1.9-0.2-3.4c2.3,1.5,4.4,2.5,7,2.3c0,0.8,0.5,1.1,1.6,1.1
		c1.6,0.2,2.8,0.4,4.6,0.4c0.2,1.9,0.2,3.6,0.5,5.5c2.1,0.2,4.2,0.4,6.3,0.6c0.2,1.9,0.5,3.4,0.7,5.7c1.9,0,3.7,0.2,5.6,0.2
		C224.5,639.2,223.1,640.3,221.9,641.3z M226.1,636.9c-0.5,0.4-1.4,0.2-2.1,0.4c-0.2-2.3-0.5-3.8-0.7-5.9c-2.1-0.2-4.2-0.2-6-0.4
		c0-1.9-0.2-3.6-0.5-5.7c-2.3,0-4.2-0.2-6.3-0.4c-0.2-1.9-0.5-3.6-0.7-5.5c-0.7-0.2-1.4-0.2-2.3-0.4c0.2-0.6,0.5-0.8,0.5-1.3
		c0.2-1.3,0.7-2.5,0.9-4c0.2-0.4,0.5-0.6,1.2-0.4c0.2,1.7,0.2,3.6,0.5,5.3c2.1,0.2,4.2,0.4,6.3,0.6c0.2,1.9,0.5,3.8,0.7,5.7
		c1.9,0.2,3.7,0.4,5.8,0.4c0.2,1.9,0.5,3.6,0.7,5.5c1.9,0.2,3.9,0.4,5.8,0.6C229.1,633.5,228,635,226.1,636.9z M209.6,568.5v-3.6
		c0.9,1.7,0.5,3.4,1.2,5.3c2.1,0.2,3.9,0.4,6,0.6c0.2,1.9,0.5,3.6,0.7,5.7c1.9,0.2,3.7,0.2,5.8,0.4c0.2,1.7,0.5,3.6,0.7,5.5
		c1.9,0.2,4.2,0.4,6.3,0.4c0,1.9,0.2,3.8,0.5,5.5c1.9,0.2,3.7,0.4,5.3,0.6v6.1c-1.6-0.2-3.5-0.4-5.6-0.6c-0.2-1.7-0.2-3.4-0.5-5.3
		c-2.1-0.2-4.2-0.4-6-0.6c-0.2-1.7-0.5-3.8-0.7-5.7c-2.1,0-4.2-0.2-6-0.4c0-1.7-0.2-3.6-0.5-5.3c-2.1-0.2-4.2-0.4-6.3-0.6
		c0-0.6,0-1.1-0.2-1.5C210.1,572.7,209.9,570.8,209.6,568.5z M230.5,629.7c-0.2-1.3-0.2-2.7-0.5-4.4c-2.1,0-4.2-0.2-6-0.4
		c-0.2-1.9-0.5-3.6-0.7-5.5c-2.1-0.2-3.9-0.4-6-0.6c0-1.3-0.2-3-0.5-4.4c0-1.1,0-1.1-1.4-1.1c-1.6,0-3-0.2-4.9-0.4
		c-0.2-3.2-0.9-5.9-0.2-9.1c0,1.1,0.2,1.9,0.5,3c1.9,0.2,3.9,0.2,6,0.4c0.2,1.7,0.5,3.8,0.7,5.7c1.9,0.2,3.7,0.4,5.8,0.4
		c0.2,1.7,0.5,3.6,0.7,5.3c1.9,0.2,4.2,0.4,6.3,0.6c0,1.9,0.2,3.8,0.5,5.7c0.5,0,1.2,0.2,1.9,0.2
		C232.4,626.8,231.5,628.2,230.5,629.7z M234.5,619c-1.2,0-2.6,0-4-0.2c0-1.3-0.2-2.7-0.2-4c0-1.5-0.2-1.5-1.9-1.5
		c-1.4,0-3-0.2-4.4-0.4c-0.2-1.9-0.5-3.8-0.7-5.5c-2.1-0.2-3.9-0.4-6-0.6c0-1.9-0.2-3.6-0.5-5.5c-2.1-0.2-4.2-0.2-6.5-0.6v-6.1
		c2.3,0.2,4.4,0.4,6.5,0.6c0.2,1.7,0.5,3.6,0.7,5.5c1.9,0.2,3.7,0.4,5.8,0.6c0.2,1.9,0.5,3.6,0.7,5.5c1.9,0.2,4.2,0.2,6.3,0.4
		c0,1.7,0.2,3.8,0.5,5.7c1.6,0.2,3,0.4,4.9,0.4C235.4,615.2,235,617.3,234.5,619z M236.1,607.1c-1.9-0.2-3.7-0.2-5.6-0.4
		c0-1.3-0.2-2.7-0.2-4c0-1.5-0.2-1.5-1.9-1.7c-1.4,0-3-0.2-4.4-0.2c-0.2-2.1-0.5-3.8-0.7-5.7c-2.1-0.2-4.2-0.4-6-0.6
		c0-1.7-0.2-3.4-0.5-5.3c-2.1-0.2-4.2-0.4-6.3-0.6c-0.5-2.7-0.5-5.5-0.2-8.2c0,0.8,0.2,1.5,0.5,2.1c1.9,0.2,3.9,0.4,6,0.4
		c0.2,1.9,0.5,3.8,0.7,5.5c1.9,0.2,3.7,0.4,5.8,0.6c0.2,1.9,0.5,3.6,0.7,5.5c1.9,0.2,4.2,0.4,6.3,0.6c0,1.7,0.2,3.6,0.2,5.5
		c2.1,0.2,4,0.4,5.8,0.6C236.1,603.1,236.1,605,236.1,607.1z M236.1,576.9c0,1.9,0,3.8,0.2,5.9c-1.9,0-3.7-0.2-5.8-0.2
		c-0.2-1.9-0.2-3.8-0.5-5.5c-2.1-0.2-4.2-0.4-6-0.6c-0.2-1.9-0.5-3.8-0.7-5.7c-2.1-0.2-3.9-0.2-6-0.4c0-1.3-0.2-2.7-0.2-4
		c-0.2-1.5-0.2-1.7-2.1-1.7c-1.4,0-2.8-0.2-4.4-0.4c-0.2-1.7-0.2-3-0.5-4.4c0-0.4,0-1.1-0.5-1.3c-0.2,0-0.5-0.2-0.5-0.4
		c0-1.7-0.5-3.6,0-5.5c0.5-0.2,0.9-0.2,0.9,0.4c0.2,1.3,0.2,2.5,0.5,4c0,0.4,0,0.6,0.2,0.8c1.9,0.2,3.9,0.4,6,0.6
		c0.2,1.9,0.5,3.8,0.7,5.7c1.6,0.2,3.7,0.4,5.8,0.6c0.2,1.7,0.5,3.4,0.7,5.3c1.9,0.2,4.2,0.4,6.3,0.6c0,1.9,0.2,3.6,0.2,5.7
		C232.4,576.5,234.3,576.7,236.1,576.9z M235.9,565.1v4.2v1.5c-1.9-0.2-3.5-0.4-5.3-0.4c0-1.5-0.2-2.7-0.2-4.4
		c0-1.1-0.2-1.1-1.6-1.3c-1.6,0-3.3-0.2-4.6-0.4c-0.2-1.7-0.5-3.6-0.7-5.5c-2.1-0.2-3.9-0.4-6-0.6c0-1.1-0.2-2.5-0.2-3.8
		c-0.2-1.7-0.2-1.7-2.3-1.9c-1.2,0-2.6,0-4.2-0.2c-0.2-1.9-0.5-3.8-0.7-5.5c-1.4,0-1.6-0.8-1.6-2.1c0-1.3-0.2-2.1-0.2-3.2v-0.8h2.1
		c0,1.7,0.2,3.4,0.5,5.5c2.1,0.2,4.2,0.2,6.3,0.4c0.2,1.7,0.5,3.8,0.7,5.7c1.9,0.2,3.7,0.2,5.8,0.4c0.2,1.7,0.5,3.6,0.7,5.3
		c1.9,0.2,4.2,0.4,6.3,0.6c0,1.9,0.2,4,0.2,5.7c1.6,0.2,3.3,0.2,4.9,0.4C235.6,564.9,235.6,565.1,235.9,565.1z M235,552.4
		c0,2.1,0.7,4,0.5,6.1c-1.9-0.2-3.3-0.2-4.9-0.4c-0.2-1.7-0.2-3.6-0.2-5.5c-2.3-0.2-4.4-0.2-6.3-0.4c-0.2-1.7-0.5-3.8-0.7-5.5
		c-2.1-0.2-4.2-0.4-6-0.6c-0.2-1.9-0.2-3.8-0.5-5.3c-2.1-0.2-4.2-0.4-6.3-0.6c-0.2-1.9-0.5-3.8-0.7-5.7c-0.5,0-1.4-0.2-2.1-0.2
		c-0.5-2.1-0.2-3.8-0.2-5.9h2.6c0.2,1.9,0.5,3.6,0.7,5.3c1.9,0.6,3.9,0.2,6,0.8c0.2,1.7,0.5,3.6,0.7,5.5c1.9,0.2,3.7,0.4,5.8,0.6
		c0.2,1.7,0.5,3.4,0.7,5.5c1.9,0.2,4.2,0.2,6.3,0.4c0,1.7,0.2,3.8,0.5,5.7C232.2,552.4,233.6,552.4,235,552.4z M234.5,540.4v6.1
		c-1.2-0.2-2.6-0.2-4-0.4c0-1.5-0.2-2.7-0.2-4c0-1.5,0-1.5-1.9-1.5c-0.7-0.2-1.4-0.2-2.3-0.2c-0.7,0-1.4-0.2-2.1-0.4
		c-0.2-1.7-0.5-3.6-0.7-5.5c-2.1-0.2-4.2-0.4-6-0.6c-0.2-1.7-0.2-3.4-0.5-5.3c-2.3-0.2-4.2-0.4-6.3-0.6c-0.2-1.7-0.5-3.8-0.7-5.7
		c-0.9,0-1.9-0.2-2.8-0.2c-0.2-1.9-0.5-3.8-0.7-5.7c1.2-0.2,2.3,0,3.7,0c0.2,1.7,0.2,3.6,0.5,5.5c2.1,0.2,4.2,0.2,6.3,0.4
		c0.2,1.9,0.5,3.8,0.7,5.5c1.6,0.2,3.7,0.4,5.8,0.6c0.2,1.9,0.5,3.6,0.7,5.5c1.9,0.2,4.2,0.4,6.3,0.6c0,1.7,0.2,3.6,0.2,5.5
		C231.7,540.2,233.1,540.2,234.5,540.4z M233.6,528.1c0,2.1,0,4,0.2,5.9c-0.9,0-2.1,0-3.3-0.2c0-1.3-0.2-2.5-0.2-4
		c0-1.3-0.2-1.5-1.9-1.5c-1.4-0.2-3-0.4-4.4-0.4c-0.2-1.7-0.5-3.8-0.7-5.7c-2.1-0.2-3.9-0.2-6-0.2c0-1.5-0.2-3-0.5-4.6
		c0-0.8,0-1.1-1.4-1.1c-1.6-0.2-3-0.2-4.9-0.4c-0.2-1.9-0.5-4-0.7-5.5c-1.2-0.2-2.6-0.4-3.7-0.6c-0.5-1.9-0.9-3.8-0.7-5.9
		c1.6,0,3,0.2,4.6,0.2c0.2,1.9,0.5,3.6,0.5,5.7c2.3,0,4.2,0.2,6.3,0.4c0.2,1.7,0.5,3.6,0.7,5.7c1.9,0.2,3.7,0.2,5.8,0.4
		c0.2,1.7,0.5,3.6,0.7,5.5c1.9,0.2,4.2,0.2,6.3,0.4c0,1.9,0.2,3.8,0.5,5.5C231.5,527.9,232.4,527.9,233.6,528.1z M232.6,517.6
		c0.2,1.5,0.2,3,0.5,4.4h-2.6c-0.2-1.9-0.2-3.8-0.5-5.5c-1.9-0.2-4.2-0.4-6-0.6c-0.2-1.9-0.5-3.8-0.7-5.7c-2.1-0.2-3.9-0.2-6-0.4
		c-0.2-1.9-0.2-3.4-0.5-5.5c-2.1-0.2-4.2-0.4-6.3-0.6c-0.2-1.9-0.5-3.6-0.7-5.5c-1.6-0.2-3-0.4-4.9-0.6c-0.2-1.9-0.5-3.8-0.7-5.9
		c2.1,0,3.7,0.2,5.8,0.4c0.2,1.9,0.2,3.6,0.5,5.5c2.1,0,4.2,0.2,6.3,0.4c0.2,2.1,0.5,3.8,0.7,5.7c1.9,0.2,3.7,0.4,5.8,0.4
		c0.2,1.9,0.5,3.6,0.7,5.7c1.9,0,4.2,0.2,6.3,0.4c0,1.7,0.2,3.6,0.2,5.3c0.2,0.2,0.2,0.2,0.2,0.4
		C232.6,516.1,232.6,516.1,232.6,517.6z M231,503.6c0.2,0.2,0.5,0.4,0.5,0.8c0.2,1.7,0.2,3.4,0.5,5.3h-1.4c-0.2-1.5-0.2-2.7-0.2-4.2
		c0-1.3-0.2-1.5-1.9-1.5c-0.7,0-1.6,0-2.6-0.2c-0.5,0-1.2-0.2-1.9-0.2c-0.2-1.9-0.5-3.6-0.7-5.5c-2.1-0.2-3.9-0.4-6-0.6
		c-0.2-1.7-0.2-3.6-0.5-5.5c-1.4,0-2.1-0.2-3.3-0.2c-0.9-0.2-1.9-0.2-3-0.2c-0.2-1.7-0.5-3.6-0.7-5.5c-1.9-0.2-3.7-0.4-5.8-0.4
		c-0.5-4-0.9-7.8-0.9-11.8h0.2c0.2,2.1,0.5,3.6,0.7,5.5c1.9,0.2,3.5,0.4,5.1,0.4c0.9,0.2,0.9,0.2,0.9,1.3c0.2,1.3,0.5,2.7,0.5,4.6
		c2.3,0,4.2,0,6.3,0.2c0.2,1.9,0.5,3.8,0.7,5.7c1.9,0,3.7,0.2,5.8,0.4c0.2,1.9,0.5,3.6,0.7,5.5c1.9,0,4.2,0.2,6.3,0.4v2.1
		c0,0.8,0,1.7,0.2,2.5C230.5,503,230.5,503.6,231,503.6z M229.1,473.6c0.2,2.3,0.5,4,0.7,6.1h-6.3c0,1.7,0.2,3.6,0.5,5.9
		c1.9,0,4.2,0.2,6.3,0.2c0.2,2.5,0.5,10.1,0.2,11.6c-0.2-1.7-0.2-3.4-0.2-5.3c-2.1-0.6-4.4-0.2-6.3-0.6c-0.2-1.7-0.5-3.6-0.7-5.5
		c-2.1-0.2-4.2-0.4-6-0.4c0-1.7-0.2-3-0.2-4.2c-0.2-1.3-0.5-1.5-2.1-1.7c-1.4,0-2.6-0.2-4.4-0.2c-0.2-1.9-0.5-3.6-0.7-5.7
		c-1.9-0.2-3.7-0.4-5.8-0.4c0-0.4-0.2-0.8-0.2-1.5c2.3-0.2,4.2-0.6,6.5-0.8c0,0.6,0.2,1.5,0.5,2.3h3c0.9,0.2,1.9,0.2,3,0.4
		c0.2,1.9,0.5,3.6,0.7,5.5c1.9,0.2,3.9,0.8,6.3,0c0.2-1.7-0.5-3.4-0.5-5.5c-2.1-0.2-3.9-0.4-5.8-0.4c-0.2-0.8-0.2-1.9-0.5-2.5
		c2.1-0.2,4.2-0.4,6.5-0.6c0.2,1.1,0.5,1.9,0.5,3.2C225.7,473.4,227.3,473.4,229.1,473.6z M232.2,458c-1.2,0.8-1.9,1.7-3,2.7
		c-1.9,1.7-2.3,4-2.8,6.3v0.6c-0.5,0-0.9,0-1.2,0.2c-2.8,0-5.8,0.2-8.6,0.4c-1.6,0-3.3,0.2-4.9,0.4h-1.6c0-1.7,0.2-3,0.5-4.4
		c0.2-2.1,0.7-3.8,1.6-5.5c0.7-2.3,0-4-1.6-5.5c-0.9-0.8-1.4-1.7-2.3-2.3c-1.2-1.3-2.6-1.9-4.4-2.1c-1.4-0.2-2.6,0-3.9,0.6
		c-0.5,0.4-0.9,0.8-1.4,1.1c-0.5,0-0.7,0-1.2-0.2c0.2-0.2,0.2-0.6,0.5-0.8c0.5,0,0.9-0.2,1.4-0.4s0.9-0.4,1.2-0.8
		c0.7-0.8,0.2-1.7-0.9-1.7c-1.4-0.2-2.6,0.4-3.5,1.3c-0.5,0.4-0.9,0.8-1.9,0.2c1.2-0.8,2.3-1.5,3-2.1c0.5,0,1.2-0.2,1.6-0.2
		c0.9,0,1.6-0.4,1.9-1.3c-0.7-1.3-1.2-1.5-2.6-1.3c-1.4,0.2-2.3,1.1-3.5,1.7c-0.7,0.6-0.7,0.6-1.6,0.6c-0.5-0.6-0.2-1.1,0.5-1.7
		c0.5-0.4,1.2-0.8,1.9-1.5c0.7-0.4,1.4-0.6,2.1-0.2c0.9,0,1.6-0.2,1.9-0.8c0-0.6-0.2-1.3-1.4-1.5c-1.4-0.6-3-0.2-4.2,0.8
		c-0.7,0.2-1.4,0.8-1.9,1.3c-0.5,0.2-0.7,0.2-1.2-0.2c-0.7-0.4-0.5-0.8-0.2-1.3c0.2-0.2,0.2-0.4,0.5-0.4c1.4-0.8,3-2.1,5.3-2.1h0.7
		c0.9,0.2,1.6,0,1.9-0.6c0.2-0.8-0.2-1.5-1.2-1.5c-0.9-0.4-2.3-0.4-3.7,0c-1.2,0.2-2.3,0.8-3,1.3c-1.9,0.6-3.5,0.2-4.6-1.3
		c0.7,0,1.2,0.2,1.4,0.4c0.7-0.4,1.4-0.6,2.1-1.1c0.2,0.4,0.5,0.6,0.7,0.6c0.5,0.4,0.9,0.6,0.9,0.2c0.5-0.2,0.7-0.4,0.5-1.1
		c-0.5-1.5-1.4-1.9-3.3-1.5c-0.5,0.2-1.4,0.6-2.1,1.1c-0.2-0.4,0-0.8,0.2-1.3c0.9-0.8,1.9-1.3,3.3-1.3c1.9,0,3.9,0,6,0.6
		c0.7,0.2,1.2,0.2,1.9,0.2c4.4-1.1,7.4,0.6,10,3.4c1.6,2.1,3.9,3.6,6.7,3.6h3.9h7.2c3.3-0.2,6,0.6,8.6,2.1c1.9,1.1,2.8,2.7,3,4.4
		C237.5,451,235.9,455.1,232.2,458z"/>
	<path class="st0" d="M132,618.3c-0.7,0.4-1.2,0.6-1.9,0v-0.2c-0.7-0.2-1.4,0-1.4,0.4c-0.2,1.3,0.9,2.3,1.9,2.1
		c0.7,0,1.6-0.2,2.1-0.4c0.9-0.4,1.4-1.1,1.4-1.9C133.4,618.1,132.7,618.1,132,618.3z"/>
	<path class="st0" d="M596.5,466h-8l-1.3,0.2V466h-8l-62.7,5.3l59.6,4h-6.1l-57,4.9V466h-8l-1.3,0.2V466h-8l-1.3,0.2V466h-8
		l-62.7,5.3l59.6,4H477l-57,4.9V466h-8l-1.3,0.2V466h-8l-1.3,0.2V466h-8l-39.3,3.3v-2.3h-98.6v147.8h101.4v-19h-79v-47.3h73.1v-12.1
		l61,4.1h6.8l-60.2,5.1l61.2,4.2l-61.2,5.1l61.2,4.2l-61.2,5.1l61.2,4.2l-61.2,5.1l62.7,4.2h6.8l-60.2,5.1l61.2,4.2l-61.2,5.1
		l61.2,4.2l-61.2,5.1l61.2,4.2l-61.2,5.1l62.7,4.2h8h1.3h8h1.3h8h1.3h8v-13.1l57,3.8h6.8l-60.2,5.1l62.7,4.2h8h1.3h8h1.3h8v-18.6
		h1.3h8v-37.2h1.3h8v-27.9h1.3h8v-37.2h1.3h8V466z M393.4,475.5h6.8l-46,3.9v-6.5L393.4,475.5z M410.5,531.3l-59.6,4.9v-6.6h-73.1
		v-43.7h76.2v-4.3l47.1,3.2l-61.2,5.1l61.2,4.2l-61.2,5.1l61.2,4.2l-61.2,5.1l62.7,4.2h6.8l-60.2,5.1l61.2,4.2l-61.2,5.1
		L410.5,531.3z M494.3,494.1h1.3h6.8l-8,0.6V494.1z M494.3,502.8l9.1,0.6l-9.1,0.6V502.8z M494.3,512.1l9.1,0.6l-9.1,0.6V512.1z
		 M485,522h1.3h8v-0.6l9.1,0.6l-18.4,1.5V522z M485,530l19.9,1.3h6.8l-26.6,2.3V530z M485,538.7l27.7,1.9l-27.7,2.3V538.7z
		 M475.7,549.9h1.3h8V548l27.7,1.9l-37,3V549.9z M475.7,556.6l37,2.5l-37,3V556.6z M475.7,565.9l38.4,2.5h6.8l-45.2,3.8V565.9z
		 M420,481l55.5,3.8l-55.5,4.6V481z M421.2,493.9l-1.3,0.2v-3.8l55.5,3.8l-46.3,3.8v-4H421.2z M475.5,503.4l-46.3,3.8v-7
		L475.5,503.4z M449.1,577.6l-1.3,0.2v-0.6l7.4,0.4H449.1z M447.9,569.1v-1.3l9.1,0.6L447.9,569.1z M447.9,559.8V559h-8l-1.3,0.2
		v-1.3l18.4,1.3L447.9,559.8z M458.4,549.7l-19.9,1.7V548l26,1.7H458.4z M438.6,542.9v-4.2l27.7,1.9L438.6,542.9z M438.6,533.6v-2.5
		h-8l-1.3,0.2v-2.5l37,2.5L438.6,533.6z M429.3,525v-5.5l37,2.5L429.3,525z M429.3,515.7v-6.1l44.6,3h-6.1L429.3,515.7z M466.4,601
		v-8.4l55.5,3.8L466.4,601z M466.4,591.7v-4.6h1.3h8v-3.2l46.3,3.2L466.4,591.7z M475.7,581.6v-7l46.3,3.2L475.7,581.6z
		 M542.1,586.9l-1.3,0.2v-0.6l7.4,0.4H542.1z M540.8,578.4v-1.3l9.1,0.6L540.8,578.4z M540.8,569.1v-1.3l9.1,0.6L540.8,569.1z
		 M540.8,559.8V559h-8l-1.3,0.2v-1.3l18.4,1.3L540.8,559.8z M551.3,549.7l-19.9,1.7V548l26,1.7H551.3z M531.5,542.9v-4.2l27.7,1.9
		L531.5,542.9z M531.5,533.6v-4.2l27.7,1.9L531.5,533.6z M531.5,524.3v-2.5h-8l-1.3,0.2v-2.5l37,2.5L531.5,524.3z M560.6,512.5
		l-38.4,3.2v-6.1l44.6,3H560.6z M522.2,507.2v-7l46.3,3.2L522.2,507.2z M522.2,497.9v-7l46.3,3.2L522.2,497.9z M522.2,488.6v-4h-8
		l-1.3,0.2V481l55.5,3.8L522.2,488.6z"/>
</g>
</svg>
