<?xml version="1.0" encoding="utf-8"?>
<!-- Generator: Adobe Illustrator 27.2.0, SVG Export Plug-In . SVG Version: 6.00 Build 0)  -->
<svg version="1.1" id="Ebene_1" xmlns="http://www.w3.org/2000/svg" xmlns:xlink="http://www.w3.org/1999/xlink" x="0px" y="0px"
	 viewBox="0 0 1600 1200" style="enable-background:new 0 0 1600 1200;" xml:space="preserve">
<style type="text/css">
	.st0{enable-background:new    ;}
	.st1{fill:#FF1E00;}
</style>
<g id="Ebene_2_00000162313825346068291950000004207530456690346627_">
	<g>
		<g>
			<g>
				<g>
					<g class="st0">
						<path class="st1" d="M549,602.3c-0.2-4.2,0-8.1,0-12.1V581c0-3.3,0-6.6,0.7-9.9c0.2-2.6,1.5-5.1,3.3-6.6c1.3-1.3,1.8-2.4,2-4
							c0-10.3,0-20.2,0.2-30.4c0-1.5-0.2-2.6-1.3-3.7c-2.6-2.2-4-5.5-4-9.2c0-2.6-0.2-5.3-0.2-8.1c0-2.6,0.2-5.3,0.2-8.1
							c0.2-3.1,0-6.6,0-9.7c0.2-2.2,0.2-4.4,0.4-6.4c0.9-2.6,2.2-5.1,4.4-6.8c0.4-0.4,0.7-1.1,0.9-1.8V476
							c0.4-10.6,0.4-21.1,0.7-31.7c0-1.3-0.7-2.4-1.3-3.1c-2.6-2.6-3.7-5.9-4-9.9c-0.7-6.8-0.7-13.6-0.7-20.5
							c0-3.5,0.4-7.3,0.7-10.8c0.4-4,2.9-6.6,5.9-9c6.4-4.6,16.7-4.8,23.1,0c3.7,2.9,6.4,6.4,5.9,11.7c-0.2,1.5-0.2,3.3,0,5.3
							c0,2,0.7,4.2,0.4,5.9c0,5.9,0,11.9-0.4,17.8c-0.2,3.5-1.3,7-4.4,9.5c-1.1,0.7-1.3,1.8-1.3,2.9v15.4c0,2-0.2,4.4-0.4,6.6
							c0,0.4,0.2,0.9,0.2,1.5c0.4-0.2,1.1-0.2,1.5-0.7c1.8-1.5,3.5-2.9,5.3-4.2c5.7-4,11.9-6.6,18.5-8.6c1.3-0.4,2.6-0.9,4-1.3
							c2.4-0.9,4.8-0.7,7,0.2c0.4,0,0.9,0,1.1,0.2c2,1.1,3.5,0.4,5.3-0.2c5.1-2.6,10.1-4.8,15.2-7.5l14.1-8.1
							c0.4-0.4,1.1-1.1,1.1-1.5c0.2-5.1,3.5-8.1,7.3-11.2c3.1-2,5.9-4.4,8.8-7c4-3.1,7.7-6.4,11.7-9.5l3.5-3.3
							c4.2-3.3,9-3.5,13.9-2.6c3.5,0.9,6.4,2.6,9,5.1c2.4,2.4,4,5.3,4.8,8.8c1.3,5.7-0.2,10.8-4.6,15c-3.1,3.3-6.2,6.4-9.7,9.2
							c-5.1,4.2-10.1,8.1-15.4,11.9c-2,2-4.6,3.3-7.3,4.6c-2.6,1.3-5.5,0.7-8.6,0.4c-0.4,0-0.9,0-1.5,0.2
							c-9.2,6.2-18.9,11.2-28.8,15.8c-1.8,0.9-3.3,2-5.5,2.4c-0.7,0.2-1.3,0.9-1.8,1.5c-2,5.1-6.2,7.7-10.8,9.5
							c-4.8,2-9.7,3.7-13.2,7.3c-2.2,1.8-4.4,3.3-6.6,4.6c-0.9,0.7-1.1,1.3-0.9,2.4c1.3,4,3.5,7.7,6.2,10.8
							c3.1,3.7,6.8,6.4,10.1,9.9c0.9,0.4,1.8,0.4,2.6,0.4c3.7-0.2,7.3,0.2,10.3,2.6c3.3,2.6,6.6,4.8,9.9,7.5
							c3.3,2.4,6.6,5.3,9.9,7.9c3.3,2.4,6.4,4.6,9.2,7.3c2,1.8,3.3,4,4,6.6c0,0.7,0.2,0.9,0.2,1.1c-0.2,2.4,1.3,3.3,2.6,4.2
							c9,6.4,18,12.8,27.1,18.9c1.5,1.3,2.9,1.5,5.1,0.9c2.6-0.4,5.3-0.2,7.9,1.1l16.3,9.2c4.2,2.2,8.4,4.6,13,6.6
							c5.9,2.6,8.4,7.7,9.2,14.1c0.2,4.2-0.2,8.1-2.4,11.7c-2.9,4.8-7.5,7.9-13.2,8.1c-3.5,0.2-6.4-1.1-9.5-2.4
							c-8.8-4-17.4-8.4-25.7-13.6c-2.6-2-5.5-3.3-7.9-5.7c-1.5-1.8-2.6-3.5-3.1-5.9c-0.2-1.3-1.1-2.6-2.4-3.5
							c-5.7-4-11.7-7.7-17.4-11.9c-4-2.6-8.1-5.7-12.1-8.6c-1.1-1.1-2.2-1.3-3.3-1.1c-4.6,0.7-8.6-1.1-12.3-4
							c-3.7-2.9-7.7-5.5-11.7-8.6c-2.6-1.8-5.1-4-7.3-5.9c-3.3-2.6-6.2-5.3-9-7.9c-2-1.5-3.3-4-3.3-6.2c-0.2-3.1-2.2-4.6-4.4-6.6
							c-3.5-2.9-7.5-5.7-10.3-9.7c-0.4-0.9-1.1-1.1-1.5-2c-1.3-1.5-1.3-1.3-2.9,0c-1.5,1.3-2.2,2.6-2.2,4.8c0.2,7,0.2,14.3,0,21.3
							c0,2.9-0.2,5.9-0.2,8.6c-0.2,1.3,0.2,2,1.1,2.9c3.3,2.9,4.4,6.8,4.4,11.2c0,7.3,0.2,14.3,0,21.6c0,2.9,0,5.9-0.4,8.8
							c-0.2,3.3-2.2,6.2-4.8,7.9c-5.3,4-11.7,5.1-17.8,3.5c-4.6-1.1-8.4-3.7-10.6-7.7C549.4,607.4,549,604.7,549,602.3z
							 M554.7,590.4h-0.4l0.9,14.7c0,1.8,2.9,5.5,5.1,6.4h0.2c0-0.2,0.2-0.7,0-0.9l-0.9-0.7c-2.6-2.2-3.5-5.3-3.3-8.8
							c0-9.5,0.2-18.7,0.4-28.2c0-0.9,0.2-1.8,0.7-2.4c0-0.2-0.4-0.9-0.4-1.3L556,570c-0.4,1.1-0.9,2-0.9,3.1
							c-0.2,3.3-0.4,7-0.4,10.6C554.7,585.8,554.7,588.2,554.7,590.4z M555.6,517c0,1.1,0.7,2.4,0.9,3.7c0.2,0.2,0.4,0.4,1.1,0.9
							c0-0.7,0.2-1.1,0.2-1.3c-1.1-1.8-0.9-3.5-0.9-5.1v-19.6c0-3.7,0-7.5,1.3-11c0-0.4-0.2-0.7-0.4-0.9c-0.2,0.2-0.9,0.2-0.9,0.4
							c-0.2,0.9-0.7,2-0.9,3.1c0,3.5-0.4,7.5-0.4,11.2c-0.2,2.4,0,4.6,0,6.8C555.6,509,555.4,513,555.6,517z M556.5,416.4v14.7
							c0,1.3,0.4,2.4,0.9,3.5c0,0.2,0.7,0.7,0.9,0.7c0.9,0,0.7-0.7,0.4-1.3c-0.4-0.2-0.7-0.7-0.7-1.3c-0.2-3.3-0.4-6.6-0.4-9.7
							c0-6.6,0.4-13.2,0.4-19.8c0-3.7,0.9-6.6,4.2-8.8c0,0,0.4-0.2,0.4-0.4h-0.9c-3.1,1.5-5.3,4.2-5.3,7.9
							C556.5,406.7,556.5,411.6,556.5,416.4z M558.2,584.3v14.5c0.4,2.2,0.4,4.2,0.7,6.2c0,0.4,0.4,1.1,0.7,1.3
							c3.1,3.3,7.5,4.2,11.7,2c1.5-0.7,3.3-1.8,3.5-4c0.2-3.3,0.2-7,0.4-10.6c0-2.2,0-4.6,0-7.3v-10.6c0-0.9-0.2-1.5-0.4-2.4
							c0-1.1-0.2-1.3-1.3-0.4c-2,1.3-4,1.8-6.4,1.8c-2.6,0-5.1-0.9-7-2.2c-0.9-0.7-1.1-0.4-1.1,0.7
							C558.9,577,558.7,580.5,558.2,584.3z M559.1,566.9v0.2c0.2,2,3.1,4.8,4.8,4.8c0.2,0,0.4-0.2,0.7-0.2v-0.7
							c-1.8-1.3-3.3-2.9-5.1-4.2C559.5,566.7,559.3,566.9,559.1,566.9z M559.3,504.4V517c0,0.7,0.2,1.1,0.2,1.5l1.3-0.4
							c3.3-1.8,6.4-2.6,10.1-1.3l3.1,1.5c1.3,0.7,1.8,0.7,1.3-0.7c0-2.6,0.7-5.7-0.7-8.4c-0.7-1.8-0.7-3.5-1.1-5.5
							c-0.2-0.7-0.4-1.8-1.1-2.6c-1.5-2-2.9-4-3.1-6.6c-0.2-1.3-0.2-2.6-0.7-4c0-0.4-0.4-1.3-0.7-1.3c-2.6-0.2-5.1-0.7-7.5-2.4
							c-0.2-0.2-0.7-0.4-0.7,0.4c-0.4,2.2-0.7,4.4-0.7,6.6C559.3,497.2,559.3,500.9,559.3,504.4z M559.3,524.2c0.2,0,0.9,0,0.9-0.4
							c1.5-0.9,2.9-2.2,4.2-3.5l1.1-1.1c-0.7,0-1.1-0.2-1.1-0.2c-2.4,0.9-4,2.6-4.8,4.6C559.3,523.8,559.5,524.2,559.3,524.2z
							 M560,415.3c0,5.5,0.2,11.2,0.4,16.7v1.1c0.2-0.4,0.9-0.4,1.1-0.7c3.7-2.9,8.6-2.6,12.3-0.7c2.4,1.5,2.4,1.5,2.6-1.3v-1.8
							c0-4.2,0-8.4,0-12.5v-14.1c0-1.8-0.7-3.3-2.4-4.4c-2.9-2-5.7-2.2-8.6-1.3c-2.9,0.4-5.1,2.9-5.1,5.3
							C560.2,406.1,560,410.9,560,415.3z M560,481.1v0.2c0.9,2.2,2.6,4,4.6,5.1c0.2,0,0.7-0.2,1.1-0.4c-0.4-0.7-0.4-0.9-1.1-1.1
							c-1.1-1.1-2-2-3.3-2.9l-0.9-0.9C560.4,481.1,560.2,480.9,560,481.1z M560.4,437.5v0.4h0.9c1.3-1.3,2.6-2.2,4-3.5l0.9-1.1
							c-0.4,0-0.9-0.2-1.3,0C563.1,434,561.5,435.8,560.4,437.5z M560.6,542.7v20c0,1.1,0.7,2,0.9,2.9c0,0.2,0.4,0.4,0.7,0.9
							c0.4-0.7,0.7-0.9,0.7-1.1c-0.2-1.3-0.7-2.9-0.7-4.6c0.4-4.6,0.7-9.5,0.7-14.1V533c0-2.9-0.7-5.9,1.3-8.6v-0.7
							c0,0-0.2-0.2-0.7-0.2c-0.2,0-0.4,0.2-0.4,0.2c-0.9,1.3-1.8,2.6-1.8,4.4C561.3,532.8,560.9,537.9,560.6,542.7z M561.7,464.2
							v13.2c0,1.1,0.4,2.2,0.9,2.9h0.7c0-0.4,0.2-0.9,0.2-1.3c0-0.9-0.2-1.8-0.2-2.9c0-6.6,0.2-13.4,0.7-20.2v-9.5
							c0-2.6-0.7-5.7,0.9-7.9c0.4,0,0-0.7,0-0.7c-0.2,0-0.2,0-0.4,0.2c-1.3,1.1-2.2,2.2-2.2,4c-0.2,4.4-0.4,8.4-0.4,12.5
							C561.7,457.6,561.7,461.1,561.7,464.2z M564.6,545.6v11.7c0,2,0,2,2,1.8c0.4,0,0.9,0.2,1.3,0.2c0.9,0.2,1.5,0,1.5-1.3
							c0.2-5.3,0.2-10.3,0.4-15.6v-6.8c0-4,0.7-3.3-3.3-3.3c-2,0-2,0-2,1.8C564.6,537.9,564.6,541.8,564.6,545.6z M565.5,459.5v10.6
							c0.2,3.3-0.9,3.1,3.3,3.1c1.3,0,1.8-0.2,1.8-1.3c0-7.9,0.2-15.6,0.4-23.5c0-0.7-0.2-1.5-0.4-2c-0.7,0-1.1,0.2-1.8,0.2
							c-0.4,0-0.7,0-1.3-0.2c-2-0.4-2-0.4-2,1.8C565.5,451.8,565.5,455.8,565.5,459.5z M568.6,615.5c0.7,0.2,0.9,0.2,1.1,0.2
							c3.1-0.4,6.2-1.8,8.8-4c1.8-1.5,3.1-3.5,3.3-6.2c0.2-3.3,0.7-7,0.7-10.6v-16.7c0-2.4-0.4-5.1-0.7-7.5
							c-0.2-0.9-0.4-1.5-1.1-2.4c-1.8-3.3-5.3-5.1-8.8-6.4c-0.4-0.2-0.9,0-1.3,0s-0.4,0.4-0.7,0.7c0,0,0.2,0.2,0.7,0.2
							c0.7,0.4,1.5,0.9,2.2,1.1c3.1,1.1,5.3,3.1,7,5.7c0.4,1.5,0.7,3.5,0.9,5.3v12.1h0.4l-0.9,16.5c0,3.3-1.3,5.9-4,7.9
							c-2.2,1.5-4.4,2.6-6.8,3.7C569.2,615.3,568.8,615.5,568.6,615.5z M570.5,528.6c0,0.2,0.2,0.4,0.4,0.4c0.2,0.4,0.9,0.4,1.1,0
							c2.9-0.9,5.9-2.2,8.1-4.6c0.4-0.7,0.9-1.1,1.1-1.5c-0.2-0.7-0.7-0.9-0.9-1.1l-0.7,0.4c-2.2,2.6-4.6,4.6-7.7,5.3
							c-0.7,0.2-0.9,0.2-1.1,0.7C570.8,528.2,570.5,528.4,570.5,528.6z M570.8,389.8c0,0.2,0.2,0.4,0.4,0.4c2.2,1.1,4,1.5,5.9,2.6
							c3.1,2.4,5.3,5.3,5.3,9.9c-0.4,6.8,0,13.4-0.4,20.2c0,3.5-0.2,6.8-0.4,10.3c0,2-1.3,4-2.9,5.3c-1.5,1.5-3.5,2.6-5.5,3.1
							c-0.9,0.2-1.3,0.9-2,1.1c0.9,0.2,1.5,0.2,2.2,0.4c0.2,0,0.4-0.2,0.7-0.2c1.8-1.1,3.5-1.5,5.1-2.9c2.2-1.3,3.7-3.5,4-6.2
							c0.2-3.5,0.7-7.3,0.7-11c0-2.6,0-5.3,0-8.1v-13c0-2.9-0.9-5.5-3.3-7.9c-2.6-2.4-5.5-3.7-9-4.4
							C571.2,389.6,571,389.8,570.8,389.8z M574.9,489.2v1.1c0.2,0.2,0.2,0.9,0.4,1.1l1.1-0.9c0-0.4,0-1.1,0-1.5l0.7-2.9
							c2-7.3,6.8-12.5,12.8-16.7c4-3.1,8.8-5.3,13.6-6.8c2.9-1.3,5.7-3.1,9.2-2.6c0.2,0,0.4,0,0.7-0.2l0.7-0.9
							c-0.4-0.2-0.7-0.4-0.9-0.4c-1.1,0-2.2,0-2.9,0.2c-4,1.3-7.9,2.9-11.7,4.2c-8.8,3.5-15.6,9-20.7,16.9
							C576.5,482.6,574.9,485.9,574.9,489.2z M575.4,558.8v1.5c0.4,0.4,0.9,0.9,1.1,1.1c0.2-0.2,0.7-0.9,0.7-1.1c0-4.8,0-9.5,0-14.3
							v-2c0.2-4.6,0.2-9,0.4-13.2c0-0.7-0.4-0.9-0.4-1.1c-0.7,0.2-0.9,0.4-1.1,0.7c-0.2,1.3-0.7,2.4-0.7,3.7v12.5
							C575.4,550.6,575.4,554.8,575.4,558.8z M576.5,458.2v12.1c0,0.4,0.2,0.7,0.2,1.3c0.4-0.7,0.9-0.9,1.1-1.1
							c0.2-0.9,0.2-1.3,0.2-2.2c0-4.4-0.2-9.2,0-13.9c0-3.3,0.4-6.4,0.4-9.2c0-0.7-0.4-0.9-0.4-1.3c-0.4,0.2-0.9,0.4-1.5,1.1
							c-0.2,0.2,0,0.9,0,1.5C576.5,450.5,576.5,454.3,576.5,458.2z M577.6,495.8c0.2-0.2,0.4-0.2,0.4-0.4c1.3-2,3.1-3.3,5.1-4.2
							c0.2-0.4,0.7-0.9,1.1-1.3c-0.4-0.4-1.1-0.7-1.3-0.4c-2.6,1.1-4.4,3.1-5.3,5.7C577.4,495.2,577.6,495.6,577.6,495.8z
							 M579.3,503.1c1.1,5.7,3.3,11,6.4,15.8c4,5.7,9,10.6,14.1,15l5.5,4c0.4,0.2,1.5,0.2,2.4,0.2c-0.7-0.4-0.9-1.3-1.3-1.5
							c-4.8-3.1-8.8-6.8-12.8-10.8c-4.4-4.6-8.4-9.5-10.6-15.8c-0.7-2.6-1.5-5.3-2-8.1c-0.7-2,0.2-4,0.9-5.7c0-0.2,0-0.4,0-0.7
							l-0.2-0.2c-0.2,0.2-0.2,0.4-0.4,0.4C579.1,497.8,578.9,500.5,579.3,503.1z M581.8,486.6l1.1-0.7l-0.9-2.6
							c-0.2-0.4-0.7-0.4-0.9-0.7c-0.4,0.7-0.7,1.1-0.7,1.3c0,0.7,0.7,1.3,0.9,2C581.3,486.2,581.5,486.4,581.8,486.6z M583.1,480.7
							c1.1,1.5,2,3.1,2,4.8c0,0.7,0.4,1.3,0.9,1.3c3.1,1.1,5.3,2.6,7,5.3c0,0.4,0.4,0.4,0.7,0.7c0.2-0.2,0.7-0.7,0.7-0.9
							c0.9-2.4,2.6-4,4.4-5.5c3.7-2.6,7.7-4.8,11.9-6.6c2.2-0.9,4.2-1.8,6.2-2.6c0.9-0.4,0.7-0.9,0-1.3c-1.1-1.1-2.4-1.8-3.5-3.1
							c-2.2-3.1-2.6-6.4-1.3-9.7c0.4-1.5-0.2-0.9-1.1-0.9c-5.3,1.8-10.8,4-15.8,6.8c-4.4,2.4-8.6,5.7-11.9,9.9
							C582.9,479.6,582.6,479.8,583.1,480.7z M585.5,506.2v2.4c-0.2,1.3,0.2,2.9,1.1,4.4c3.1,6.4,8.1,11.2,13.2,15.8
							c0.7,0.9,1.8,2.2,2.6,2c0.7,0,1.3-1.3,2-2.2c1.3-1.3,1.3-1.3,0-2.6c-3.1-2.9-6.2-6.2-9.2-9.2c-2.6-2.9-4.4-6.6-5.7-10.3
							c-0.9-2-0.9-1.8-2.9-1.5C585.7,505.1,585.5,505.3,585.5,506.2z M589.2,499.8l-0.9,1.1c0.7,0,0.9,0.2,1.3,0.2h0.7
							c4-2.4,8.6-3.3,11.4-7.9l1.1-1.1c3.3-2.2,6.6-4.2,10.3-5.7c2.4-0.9,5.1-1.8,7.5-3.1c4.6-2.4,6.6-7,6.8-11.9
							c0-1.1-0.2-2-0.2-3.1c0-0.2-0.7-0.2-0.9-0.2c-0.2,0-0.4,0.2-0.4,0.7v2c-0.4,5.9-3.3,10.1-8.6,12.5c-4.4,1.8-8.6,4-13,5.9
							c-2,1.1-4,2.6-4.8,4.8c-0.4,0.4-0.7,1.1-1.1,1.3l-5.9,3.1C591.7,499.1,590.3,499.4,589.2,499.8z M594.3,502.2
							c0.4,2.9,2,5.7,3.5,8.1c2.6,4.2,6.4,7.5,9.9,10.8l2.6,2.4c0.7,0.7,1.3,0,1.5-0.2c0.2,0,0-0.9-0.2-1.1
							c-0.2-0.4-0.9-0.7-1.3-1.1c-3.5-2.6-6.6-5.7-9.2-9.2c-1.3-1.5-2.4-3.3-3.5-5.3c-0.7-1.3-1.1-2.9-1.5-4.4l-1.1-1.8
							C594.7,501.1,594.3,501.8,594.3,502.2z M606.4,540.9c0.4,0.4,1.1,0.7,1.5,0.7c0.4,0.2,1.1,0,1.5,0v0.2
							c1.3-0.2,2.4-0.2,3.5-0.9c0.4,0,0.4-0.4,0.7-0.7c-0.2,0-0.7-0.7-0.9-0.2c-1.8,0-3.3,0.2-4.8,0.4
							C607.5,540.7,606.8,540.7,606.4,540.9z M606.8,544v1.3c0.9,2.2,2.6,3.5,4.6,4.8l9.5,7.9c4.2,3.3,8.4,6.4,13,9.7
							c1.8,1.3,3.5,3.1,5.9,3.3h1.1c0-0.2-0.2-0.7-0.4-1.1c-0.9-0.4-2-0.7-3.1-1.3l-7.5-5.5c-2.4-1.5-4.6-3.1-6.6-4.6
							c-3.5-2.6-6.6-5.3-9.9-8.4c-1.5-1.8-4.2-2.9-5.1-5.3C608.2,544.7,607.7,544.5,606.8,544z M609,528.4c-0.2,0.2,0,0.7,0.2,1.1
							h0.9c0.9-0.7,1.8-1.3,2.9-1.8c4.2-2,8.1-2,11.9,0.7l6.4,4.6c4,3.1,7.5,5.9,11.2,9c2.9,2.2,5.5,4.6,8.6,6.6
							c3.1,2.4,4.6,5.3,4.6,9.2c0,2.2,0,4.2-0.7,6.4c0,0.2,0,0.4,0.2,1.1c0.2-0.2,0.7-0.2,1.1-0.7c0.2-0.2,0.4-0.7,0.4-1.3
							c0.9-2.2,1.1-4.8,0.4-7.5c-0.2-2.2-0.7-4.4-2.6-5.7c-4-3.5-8.1-7-12.3-10.6c-4.8-4-10.1-7.5-15-11.2c-2.6-2.2-5.3-4-9-3.5
							c-2.4-0.4-4.8,0.9-6.8,1.5C610.6,526.9,609.7,527.7,609,528.4z M610.8,544.7c1.3,1.3,2.4,2.4,3.7,3.5c0.2,0,0.2,0.2,0.4,0.4
							l11.2,8.8c4,3.1,8.1,5.9,12.1,9c0.4,0.2,1.1,0.4,1.5,0.7v-1.5c0-0.4,0.2-0.9,0.2-1.3c0.4-4.2,3.5-7.7,7.7-8.8
							c0.7-0.2,0.9-0.4,1.3-0.7l-0.7-1.1c-2-1.5-3.5-2.9-5.3-4.2l-15-11.7c-2.2-1.5-4.6-3.5-6.8-5.1c-0.2-0.2-0.4-0.2-1.1-0.4
							c0,0.2-0.2,0.2-0.2,0.4v2.2c-0.2,3.3-1.8,6.4-4.6,7.9C613.7,543.6,612.3,544.2,610.8,544.7z M614.1,465.7
							c0,0.4,0.2,0.9,0.4,1.1l0.9-0.7c0.7-2,1.3-3.7,2-5.3V460c-0.2,0-0.4,0-0.7,0.2C615.4,461.7,614.3,463.7,614.1,465.7z
							 M619.6,461.7l-0.7,0.9c0.7,0,0.9,0,1.1,0l8.6-4c7.9-3.5,15.4-7.7,22.9-12.1c2.9-1.5,5.5-4,9-4.6l1.3-0.4
							c-0.2-0.2-0.9-0.4-1.3-0.4c-0.2-0.4-0.7-0.4-0.9-0.4v-0.2c-1.5,0.7-2.9,1.1-4.2,2l-15.8,8.8c-5.1,2.6-10.1,4.8-14.7,7.3
							C622.9,459.5,620.9,460,619.6,461.7z M627.5,461.5c0.2,0.7,0.7,1.1,1.1,2c0.2,0.2,0.2,0.7,0.2,0.9c0.4,1.8,0.7,1.8,2,1.1
							c0.7-0.2,1.1-0.4,1.3-0.7c5.7-2.6,11.2-5.7,16.5-8.6c2.6-1.3,5.1-2.9,7.3-4.2c0.7-0.2,0.9-0.4,1.1-0.9
							c-0.2-0.2-0.4-0.4-0.4-0.7c-0.9-0.9-1.3-1.5-2-2.6c-0.2-0.7-0.4-0.9-0.9-0.2c-3.5,2-6.6,4-10.1,5.7l-14.1,6.8
							C629.1,460.9,628.2,461.1,627.5,461.5z M630.4,473.2c0.2,0.9,0.9,0.4,1.3,0.2c2.2-1.1,4.2-1.8,6.2-2.9
							c5.7-2.9,11.9-6.2,17.6-9.2c2.4-1.3,4.8-2.9,7-4.4l0.9-0.7c-0.2,0-0.2-0.2-0.4-0.2c-0.9-0.9-1.3-0.2-2.4,0.2l-18.3,10.3
							c-3.5,1.8-7.5,3.5-11,5.1C630.4,472.1,629.9,472.3,630.4,473.2z M642.5,565.1l1.5,5.3c0,0.2,0.7,0.2,0.9,0.4V570
							c-0.2-1.8-0.4-4-0.9-5.9l-0.7-0.9c-0.2,0.2-0.7,0.7-0.7,0.9C642.5,564.3,642.5,564.5,642.5,565.1z M646.7,567.8
							c0.4,2,1.3,3.5,3.1,4.6c1.8,1.5,4,2.9,5.7,4.2c8.4,6.2,16.9,11.9,25.5,18c1.1,0.9,2.6,1.3,3.7,1.8c0.7-0.2,1.1-0.2,1.3-0.4
							c-0.2-0.2-0.2-0.4-0.7-0.9c-0.9-0.7-2.2-1.3-3.3-1.8c-9.2-6.4-18.5-12.8-27.5-19.4c-2.6-1.8-5.7-3.3-7-6.6
							c0-0.2-0.2-0.2-0.4-0.4C647.1,567.1,646.7,567.4,646.7,567.8z M655.5,571.1c-0.4,0.7-0.2,1.1,0.2,1.3
							c7.5,5.3,14.7,10.6,22.2,15.6c0.9,0.4,1.5,1.5,2.2,1.3c0.7,0,1.3-1.3,1.5-2.2c0.4-0.4,0.7-0.9,1.3-1.8c-0.2,0-0.7-0.2-0.9-0.4
							c-7.7-5.7-15-11-22.7-16.3c-1.3-0.9-1.3-0.9-2.4,0.4C656.6,569.8,655.9,570.6,655.5,571.1z M659,438c0.2,0.4,0.4,0.7,0.7,0.7
							c1.5,0.2,2.9,0.4,4.2,0.4c0.7,0.2,1.1,0.2,1.8,0.2c0.2,0,0.4-0.2,0.7-0.2c-0.2-0.2-0.4-0.7-0.7-0.7c-1.3-0.4-2.6-0.9-4.4-1.1
							v0.2h-1.5C659.4,437.5,659.2,437.8,659,438z M659.9,433.6v1.1c0.7,0,0.9-0.2,1.3-0.7c0.9-0.7,2-2,3.1-2.9
							c3.5-3.1,7.3-5.7,11-9c4-3.1,7.7-6.8,11.7-10.1c1.1-0.9,1.8-1.8,2.9-2.2c2.2-1.3,4.4-1.8,6.8-1.3c0.2,0,0.7,0,1.1-0.2
							c-0.2-0.2-0.4-0.7-0.9-0.7c-0.9-0.2-2-0.4-3.3-0.4h-0.9c-3.1,0.4-5.1,2.4-7,4.2c-2.9,2.6-5.9,5.3-8.8,7.7
							c-4.6,3.7-9.5,7.5-13.9,11.4C661.8,431.2,661,432.5,659.9,433.6z M660.3,561.2c0.2,0.4,0.4,1.5,1.3,2c1.8,1.3,4,2.6,5.7,4.2
							c4.2,3.1,8.1,5.9,12.1,8.8c2.6,1.5,5.1,3.1,7.5,4.8c0.7,0.4,1.5,0.4,2,0c0-0.4-0.4-0.9-0.9-1.3c0-0.4-0.4-0.4-0.7-0.7
							l-25.3-17.6c-0.4-0.7-1.1-0.9-1.8-1.1C660.3,560.5,659.9,560.7,660.3,561.2z M660.5,450.5c-0.2,0,0,0.4,0.2,0.7
							c1.3,1.8,3.5,2.4,5.5,3.3c2.6,0.7,5.5,1.3,8.1,0.2c1.3-0.4,2.6-1.5,4-2.4c3.5-2.6,7.3-5.1,10.6-7.7c2.6-2,5.7-4.4,8.4-6.8
							c3.5-3.3,6.8-6.8,10.1-10.3c0.9-0.7,1.3-1.8,1.8-2.9c2-4.6,0.9-9.5-2-13.6l-0.7-0.7c0,0.4-0.4,0.9,0,1.1c1.5,2.4,2,5.1,2,8.1
							c0.2,3.5-1.1,6.2-3.7,8.6c-0.7,0.7-1.5,1.8-2.6,2.6c-2.2,2.4-4.4,4.6-6.8,6.8c-4.2,3.7-8.4,6.8-13,10.1
							c-2,1.8-4.2,3.3-6.6,4.4c-1.5,1.1-3.5,1.5-5.7,1.5c-2.4-0.2-5.1-1.1-7-2.6c-0.7-0.4-1.1-0.7-1.8-1.1
							C661,449.9,660.7,450.3,660.5,450.5z M663.4,434.9c0.2,0,0.4,0.2,0.9,0.2c1.5,0.9,3.3,1.3,4.6,2.6c2.6,2,3.7,4.8,3.5,8.1
							c0,1.8,0.2,1.8,1.5,0.9c1.5-1.1,2.9-1.8,4.4-3.1c5.1-3.7,9.9-7.7,15-11.7c2.6-2.4,4.6-5.1,7.3-7.5c1.3-1.3,2.2-2.9,2-4.6
							c0.4-3.7-1.8-5.9-4.4-7.5c-2.2-1.5-5.3-2.2-7.5-0.2c-2.6,1.8-4.8,4-7.3,5.7l-7,6.4c-4.2,3.5-8.1,6.6-12.5,9.7
							C663.8,434.5,663.6,434.7,663.4,434.9z M684.7,598.8c0.7,0.2,1.3,0.7,2,0.9h1.3c0.7-0.2,2.2-0.7,4-1.1
							c0.2-0.2,0.2-0.4,0.4-1.1l-1.1-0.2c-1.8,0.2-3.3,0.9-5.1,1.3C685.8,598.6,685.4,598.8,684.7,598.8z M686,602.6v0.9
							c1.1,0.7,1.5,2,2.9,2.9l19.1,11.2c4.2,2.4,8.6,4.4,13,6.2c1.3,0.4,2.6,0.4,4,0.9c2,0,4.2-0.9,5.7-2.2c0.2,0,0.4-0.4,0.4-0.9
							c-0.2,0.4-0.4,0-0.9,0.4c-3.1,1.3-6.2,1.5-9,0.2c-3.3-1.1-6.4-2.6-9.5-4.2c-4.8-2.4-9.7-5.1-14.1-7.7
							c-3.5-2.4-7.5-4.2-10.3-7.5c0-0.2-0.2-0.2-0.4-0.2C686.7,602.3,686.3,602.3,686,602.6z M686.3,585.8c0,0.4,0,0.9,0.4,1.3
							c0,0,0.7,0,0.9-0.2c0.9-0.4,1.8-1.3,2.4-1.5c4-2.4,7.9-2.9,12.1-0.9l15.6,8.8c4.8,2.6,9.5,4.8,14.3,7.5
							c1.1,0.4,2.4,1.8,3.1,2.9c2,2.6,3.1,5.7,3.1,9.2v2c0,0.4,0,0.4,0.2,0.7c0.2,0,0.4-0.2,0.4-0.7c0.2-0.9,0.2-2,0.2-3.1
							c0-1.3-0.2-2.9-0.4-4.2c-1.1-4-2.9-6.8-6.6-8.6c-4-1.8-7.9-4.2-11.7-5.9c-2-1.1-4-2.2-5.7-3.3l-13.2-7
							c-1.5-1.1-3.3-1.5-5.1-1.3c-3.7,0.4-6.6,1.8-9.5,4C686.7,585.4,686.3,585.6,686.3,585.8z M690.7,601.7l-0.9,0.7
							c0.2,0,0.4,0.2,0.4,0.2c0.7,0.2,0.9,0.4,1.1,0.9l13.9,8.1c5.5,3.3,11.4,6.4,17.6,8.6c0.9,0.4,2.2,0.4,2.9,0
							c3.5-0.7,6.8-4.4,6.4-8.4c0-3.5-1.3-5.5-4.2-7c-4.2-2-8.6-4.4-12.5-6.4c-2-1.1-4-2.2-5.7-3.3c-3.5-1.8-6.8-3.5-10.3-5.7
							c-0.7-0.4-1.1,0-1.1,0.9c-0.2,1.5,0,2.9-0.4,4.2C696.8,598.4,694.2,600.8,690.7,601.7z"/>
					</g>
				</g>
			</g>
			<g>
				<g>
					<g class="st0">
						<path class="st1" d="M716.6,428.5h102.7v19.6h-79.4v45.5h76.1v19.8h-76.1v49.3h82.3v19.8H716.6V428.5z"/>
					</g>
				</g>
			</g>
			<g>
				<g>
					<g class="st0">
						<path class="st1" d="M872.8,582.5h-23.3v-154h23.3V582.5z"/>
					</g>
				</g>
			</g>
			<g>
				<g>
					<g>
						<g>
							<g class="st0">
								<path class="st1" d="M898.3,428.5H1040v11.9H898.3V428.5z M898.3,452.3H1040v11.9H898.3V452.3z M898.3,475.8H1040v11.9
									H898.3V475.8z M898.3,499.6H1040v11.9H898.3V499.6z M898.3,523.3H1040v11.9H898.3V523.3z M898.3,546.9H1040v11.9H898.3
									V546.9z M898.3,570.6H1040v11.9H898.3V570.6z M970.1,586c38.5,0,60.7-20.7,60.7-47.3c0-24.2-18-37.6-42.5-42.9l-26.6-5.7
									c-17.2-4-26.6-10.3-26.6-23.1c0-13.4,14.1-22.4,32.8-22.4c22,0,34.8,11.7,35.9,28.4h24c-1.8-29-23.5-48.2-59-48.2
									c-33.2,0-57.6,18.5-57.6,44.2c0,24,19.1,37.8,42.9,42.9l24.2,5.3c17.8,3.7,28.6,10.3,28.6,24c0,16.1-13.9,25.3-36.1,25.3
									c-22.9,0-39.6-12.8-40.9-34.8h-24C906.9,564.9,931.3,586,970.1,586z"/>
							</g>
						</g>
					</g>
				</g>
			</g>
			<g>
				<g>
					<g class="st0">
						<path class="st1" d="M265.2,633.5h102.7v19.6h-79.4v45.5h76.1v19.8h-76.1v49.3h82.3v19.8H265.2V633.5z"/>
					</g>
				</g>
			</g>
			<g>
				<g>
					<g class="st0">
						<path class="st1" d="M477.7,780.3c-2-0.4-2-0.4-2.6-2c-2.4-6.4-4.6-12.8-7-18.9c-2.2-6.2-4.6-12.3-7-18.5
							c-2-5.3-4.2-10.3-6.2-15.4c0-0.2-0.2-0.2-0.4-0.4c-2.4,0.9-4.6,1.3-7,1.8c-6.2,1.1-12.1,0-17.8-1.8c-4-1.1-7.7-2.9-11.2-5.1
							c-0.4-0.2-0.9-0.4-1.3-0.7c-0.2,0-0.2,0-0.4,0.2c-0.4,0.2-0.4,0.7-0.4,1.1c0,2.2,0.2,4.4,0.2,6.6c0,5.9,0,11.9,0,17.6
							s0,11.4,0,16.9c0,0.9,0.2,1.8,0.2,2.4c0,1.5,0.2,3.1,0,4.6c-0.2,2-0.2,4.2,0,6.2c0,0.4,0.2,0.7,0.2,0.9c0,5.1,0,10.1,0,15.2
							c0,1.8-0.4,2.2-2.2,2.2c-1.3,0.2-2.9,0.2-4.6,0.2c-0.2,0.7-0.4,1.3-0.4,2c-0.4,3.3-1.1,6.6-2.2,10.1c-0.4,0.9-0.4,2,0.2,3.1
							c0.9,1.3,1.8,2.6,2.9,3.5c1.5,1.5,2.6,1.8,4.4,0.7c0.2-0.2,0.7-0.4,0.9-0.4c2-0.9,3.1-0.7,4.2,0.7c0.4,0.4,0.4,0.9,0.9,0.9
							c1.5,0.9,2.6,2.2,2.6,4c1.1,1.3,1.1,3.5,2.6,4.4c1.1,1.1,0.9,2.6,0.9,4.2c0.7,0.2,1.1,0.7,1.8,0.9c1.8,1.5,2.2,4,0.9,6.2
							c-1.3,2.6-3.7,3.5-6.4,3.3c-1.3,0-2.9-0.4-4-0.9c-1.1-0.4-2.4-0.7-3.7-0.2c-2.9,0.4-5.3-0.4-7-2.4c-1.3-1.1-2.6-2.4-4-4
							c-1.3-1.5-3.1-2-5.1-2c-1.1,0-2,0-3.1,0c-3.7,0.2-7.7,0-11.2-1.3c-3.5-1.3-5.9-4-7.3-7.3c-0.7-1.8-0.4-3.5,0-5.5
							c0.2-1.3,0.7-2.2,1.1-3.5c0.9-2.6,2.4-4.8,4.4-6.6c1.1-0.9,2.2-2,3.3-2.6c1.5-2,2.6-4,2.6-6.6c-0.7-0.2-1.3-0.7-2-1.1
							c0-2.2,0-4.2,0-6.4c-0.2-2.4-0.2-4.8,0-7.3c0-4-0.2-7.7-0.2-11.4c0.2-3.3-0.2-6.4-0.2-9.5c0-3.3,0-6.2,0-9.5
							c0-0.4-0.2-0.9-0.2-1.5c0-9.2,0-18.3,0-27.3c0-2.2,0-4.4,0-6.6c0-1.1-0.2-2.2-0.2-3.1s-0.2-2,0-2.9c0.4-2.4,0.4-5.1,0-7.5
							c-0.2-0.7-0.2-1.5-0.2-2.2c0-4,0-7.7,0-11.9c-0.2-7.3,0-14.5-0.4-22c-0.2-5.5,0.7-10.8,1.1-16.1c0.2-2.9,0.7-5.3,1.3-7.9
							c2.2-7.5,5.5-14.3,10.3-20.2c3.5-4,7.3-7.5,11.4-10.3c4.2-2.9,9-4.6,13.9-6.2c4-1.3,7.9-1.8,12.1-1.8
							c5.7-0.2,11.2,0.7,16.9,1.8c3.1,0.7,6.4,1.8,9.2,2.9c5.7,2.2,11,4.8,15.6,8.8c3.5,2.6,6.4,6.2,8.6,9.9c1.3,2.4,2.6,4.8,4,7.3
							c2.4,5.3,3.7,10.8,4.6,16.5c1.1,7.9,0.7,15.6-0.9,23.5c-1.1,4.8-2.4,9.5-4.4,13.9c-2.4,5.7-5.9,11-9.9,15.6
							c-0.4,0.7-1.1,1.3-1.8,2.2c0.7,2.2,1.5,4.4,2.6,6.8c3.3,7.5,6.2,15.4,9.2,22.9c1.8,4.6,3.3,9.2,5.1,13.9
							c2.9,6.6,5.3,13.6,7.9,20.7c0,0.2,0.2,0.4,0.2,0.9c0.4,1.1,0.2,1.5-1.1,2.4c-1.5,0.7-3.1,1.5-4.4,2.4c0.2,1.5,0.4,3.3,0.7,5.1
							c0.2,2.2,0.7,4.6,0.4,7c0,1.3,0.4,2.4,1.8,3.1c1.3,0.9,2.6,1.5,3.7,2.2c1.5,0.7,3.1,0.4,4.2-0.7c0.4-0.4,0.4-1.1,0.9-1.3
							c1.3-0.9,2.6-1.1,4-0.2c0.9,0.7,1.5,1.1,2.6,1.3c0.7,0,1.5,0.4,1.8,0.9c0.4,1.8,2,2.4,2.4,4.2c0.2,0.2,0.4,0.4,0.7,0.4
							c2.2,0.4,3.1,2.2,3.3,4.4c0.4,0,0.7,0.2,1.1,0.2c3.3,0.9,5.3,4.8,2.6,8.8c-1.1,1.8-3.1,2.4-4.8,2.6c-0.7,0-1.5,0-2.2,0
							c-1.8-0.2-4,0.2-5.9,0.9c-2.2,0.9-4.6,0.7-6.6-0.7c-1.1-0.4-2-0.9-2.9-1.8c-2.4-2.2-5.3-2.4-8.1-1.3c-2.6,0.9-5.1,1.5-7.7,2.2
							c-3.1,0.9-6.4,0.7-9.5-0.2c-2.9-1.1-5.1-3.1-6.2-6.2c-1.3-4.2-1.3-8.6,0.9-12.5c0.7-1.5,1.5-2.6,2.2-4
							C478.4,785.8,478.8,783.3,477.7,780.3z M406.9,794.1h-15c0,0.2-0.2,0.4-0.2,0.7c-0.7,3.7-2.4,6.8-5.7,9.2c0,0-0.2,0.2-0.4,0.2
							c-3.5,2.9-5.3,6.8-5.5,11.4c0,2.2,0.7,4.2,2.4,5.9c1.1,0.9,2.4,1.5,4,2.2c2.9,1.1,5.9,1.1,8.8,1.1c1.8,0,3.3-0.2,5.1,0
							c2.6,0,4.8,1.1,6.6,3.1c0.4,0.7,1.1,1.3,1.5,2c1.8,2.6,4.4,3.7,7.5,3.3c1.5-0.2,3.1,0,4.4,0.4c1.3,0.2,2.6,0.4,4,0.7
							c0.9,0,2-0.4,2.9-1.1c0.2-0.4,0.7-0.7,0-1.1c-0.2,0.2-0.7,0.2-0.9,0.4c-0.4,0-0.9,0-1.5,0.2c-0.9,0-2-0.4-2-1.8
							c-0.2-0.4,0-0.7,0.2-0.9c0.2-0.2,0.7-0.2,1.1,0c0.2,0.2,0.4,0.4,0.9,0.9c0.4-0.2,0.7-0.4,1.1-0.7c0.4-0.2,0.9-0.4,1.5-0.7
							c-0.7-0.4-1.1-0.9-1.5-0.9c-0.9-0.2-1.8,0-2.4,0.2c-0.9,0.2-1.8,0.7-2.6,1.1c-1.3,0.4-2.6,0.4-4,0c-0.4-0.2-0.9-0.9-0.7-1.5
							c0-0.4,0.4-0.9,1.1-0.9c0.2,0,0.7,0,0.9,0c2,0.4,3.7-0.4,5.5-1.5c0.2-0.2,0.2-0.2,0.4-0.4c0-0.4,0-1.1,0-1.5
							c-0.2-0.7-0.9-0.7-1.5-0.2c-0.7,0.4-1.3,1.1-2,1.5c-1.3,0.9-2.4,0.9-3.7,0.2c-0.7-0.2-1.1-0.7-1.1-1.3c0-0.4,0.7-0.9,1.3-0.9
							c0.4,0,0.9,0,1.1,0c0.4,0,0.7,0,0.9-0.2c0.9-0.7,1.8-1.3,2.6-1.8c0.4-0.4,0.4-1.1-0.4-1.8c-0.7,0.7-1.5,1.1-2.2,1.5
							c-1.1,0.7-2.2,0.9-3.5,0.7c-0.2-0.2-0.7-0.7-0.7-1.1c-0.2-0.4,0.2-0.7,0.4-1.1c0.2,0,0.4-0.2,0.9-0.2c2,0,2.9-1.5,4.2-2.6
							c-0.4,0-0.7,0-1.1,0c-0.7,0.4-1.3,1.1-2.2,1.3c-1.1,0.4-2,0.2-2.2-0.7c-0.2-0.7,0.2-1.1,1.1-1.5c0.4-0.2,0.7-0.2,1.1-0.4
							c0.2,0,0.4-0.2,0.7-0.4c0.2-0.2,0.2-0.4,0-0.7c0,0-0.2-0.2-0.4-0.2c-0.4,0.2-0.9,0.4-1.3,0.7c-2.6,1.5-5.5,1.1-7.7-1.1
							c-0.9-1.1-1.8-2.4-2.6-3.5c-1.5-2-1.8-4.2-0.9-6.4c0.9-1.8,1.3-3.3,1.8-5.1c0.2-0.9,0.2-1.8,0.2-2.6
							C406.9,795.7,407.5,795,406.9,794.1z M400.5,662.6c-2.2-0.9-4,0-5.7-1.1c-0.7-2,0-3.7-0.9-5.5c-1.5-0.2-3.5-0.4-5.3-0.4
							c-0.4,2.2-0.7,4-0.2,6.2c2,0.2,3.7,0.4,5.3,0.7c0.7,1.3,0.4,2.4,0.7,3.5c0.2,0.9-0.2,1.8,0.7,2.2c1.8,0.7,3.5,0,5.3,0.9
							c0.7,1.8,0.2,3.7,0.7,5.3c0.9,0.2,1.3,0,1.8-0.4c0.4-1.1,1.1-2.4,1.8-3.7c0.2-0.4,0.4-1.1,0.4-1.3c-1.3-0.7-2.6,0-4-1.1
							c0-0.7-0.2-1.5-0.2-2.4S400.5,663.4,400.5,662.6z M388.4,668.1v6.2c2,0.4,4,0.2,5.7,0.9c0.2,2,0.2,3.7,0.4,5.3
							c2,0.4,3.5,0.9,5.3,0.4c1.1-1.8,0.9-3.7,0.7-5.9c-2-0.2-3.7-0.4-5.7-0.7c-0.7-1.8,0-4-0.9-5.5
							C392.3,668.3,390.4,668.3,388.4,668.1z M400.3,706.3c0.7,2.2,0,4.2,0.9,5.9c0.9,0,1.8,0,2.4,0.2c1.1,0,2,0.2,3.1,0.2
							c0.2,2.2,0.4,3.7,0.7,5.9c1.3,0,2.9,0.2,4.2,0.2c0.7,0,1.1,0.2,1.3,0.7c0.4,0,0.4,0.7,0.7,1.1c0.4-2.2,0-3.7-1.5-4.8
							c-3.1-2.4-5.5-5.1-7.5-8.4c-0.7-1.1-1.3-1.5-2.4-1.5c-0.2,0-0.4,0-0.9-0.2c-0.7-1.8-0.2-3.7-0.9-5.3c-2-0.7-3.7-0.4-5.5-0.9
							c-0.7-2,0-4.2-1.1-5.7c-1.5-0.2-3.1-0.4-5.1-0.2c0.2,2,0,4,0.4,6.2c0.9,0,1.8,0.2,2.6,0.2c0.9,0.2,1.5,0,2.4,0.7
							c0.2,1.5,0.2,3.5,0.4,5.3c1.1,0,2,0.2,2.9,0.2C398.1,706.3,398.9,706.3,400.3,706.3z M394.5,686.5c0-1.8-0.2-3.3-0.4-5.3
							c-1.8-0.2-3.3-0.4-5.1-0.7c-0.7,2.2-0.4,4.2-0.2,6.4c0.9,0,1.8,0.2,2.6,0.2c0.9,0.2,1.5,0.2,2.2,0.4c0.9,2,0.4,3.7,1.1,5.5
							c2.6,0.7,2.6,0.7,4.4,0c0.2-2-0.2-3.7-0.2-5.5C397.6,687,395.9,687.4,394.5,686.5z M413,725.5c-1.3-0.2-2.9-0.4-4.2-0.4
							c-0.4-0.2-0.9-0.2-1.3-0.4c-0.4-2-0.7-3.5-0.9-5.5c-1.8-0.7-3.7,0-5.5-0.9c-0.2-1.8-0.7-3.5-0.9-5.3c-2-0.9-3.7,0-5.5-1.3
							c-0.2-1.5-0.4-3.3-0.7-5.1c-1.8-0.4-3.3-0.7-5.3-0.7c-0.2,2.2-0.2,4.2,0,5.9c0.9,0.7,1.8,0.4,2.6,0.7c0.9,0,1.5,0.2,2.4,0.2
							c0.7,2,0.2,3.7,0.7,5.7c2,0.7,4,0,5.7,0.9c0.7,2,0,3.7,0.9,5.5c1.1,0.2,1.8,0.2,2.4,0.2c1.1,0.2,2,0.4,3.1,0.7
							c0.2,1.5,0.4,3.5,0.7,5.5c1.5,0.2,3.1,0.4,4.6,0.4c0.9,0,1.1,0.7,1.8,1.5C413.7,730.3,413.5,727.9,413,725.5z M407.3,756.1
							c1.5,1.1,3.7,0.4,5.7,1.1c0.4,1.5,0.2,3.5,0.7,5.5c0.4-3.3,0-9.2-0.9-12.1c-1.8-0.2-3.5-0.4-5.3-0.7c-0.2-1.8-0.7-3.5-0.9-5.7
							c-1.8-0.2-3.5-0.2-5.3-0.4c-1.1-1.8-0.2-4-1.1-5.7c-2-0.4-3.7,0-5.5-0.9c-0.7-1.8-0.2-3.7-0.9-5.5c-1.3,0-2.6-0.2-4.2-0.2
							c0,0-0.2,0.2-0.7,0.4c-0.2,1.8-0.2,3.7,0.4,5.7c1.5,0,3.1,0.2,4.2,0.4c0.9,1.1,0.4,2.4,0.7,3.5c0.2,0.7,0,1.5,0.7,2.2
							c1.8,0.4,3.7,0,5.3,0.9c0.7,2,0,3.7,0.9,5.5c2,0.2,3.7,0,5.5,0.9C406.9,752.8,407.1,754.3,407.3,756.1z M406.6,738
							c0.4,2.2,0,4.2,0.9,5.7c1.8,0.4,3.5,0,5.5,0.7c0.2,1.5,0.4,3.1,0.7,4.8c0.2-4-0.2-9.2-0.9-11.2c-1.8-0.4-3.7-0.2-5.3-0.7
							c-0.4-2-0.7-3.7-0.9-5.5c-2-0.7-3.7-0.2-5.7-1.1c-0.2-1.8-0.4-3.5-0.4-5.3c-1.8-0.2-3.1-0.4-4.6-0.7c-0.7,0-1.3-0.4-1.3-1.3
							c-0.2-0.9,0-1.8-0.2-2.6c0-0.7-0.2-1.1-0.4-1.8c-1.5-0.4-3.1-0.4-4.6-0.2c-0.4,2-0.4,3.7,0,5.9c1.5,0.2,3.1,0.4,4.6,0.9
							c0.2,1.8,0.4,3.5,0.7,5.5c1.5,0.2,3.1,0.2,4.2,0.4c0.7,0.2,1.1,0.2,1.5,0.4c0.7,1.8,0.2,3.7,0.9,5.5
							C402.9,737.6,404.7,737.8,406.6,738z M394.1,643.4c-1.5-0.4-2.6-0.7-4-0.2c-0.7,2-1.1,4-0.9,5.9c1.5,0.2,3.3,0.4,4.8,0.7
							c0.2,2,0.2,3.5,0.4,5.5c1.5,0.2,3.1,0.4,4.2,0.7c0.7,0,1.1,0.2,1.8,0.4c0,0.9,0,1.8,0.2,2.4c0,0.9-0.2,2,0.4,2.9
							c1.8,0.9,3.7,0,5.5,0.9c0.2,0.7,0.2,1.3,0.2,2c0.2,0.2,0.4,0.4,0.7,1.1c0.9-1.3,2-2,2.4-3.3c-0.9-0.4-1.5-0.7-2.4-0.9
							c-0.7-1.8-0.2-3.7-0.9-5.5c-2-0.2-3.5-0.4-5.3-0.7c-1.1-2-0.2-3.7-1.1-5.5c-2-0.9-3.7-0.2-5.7-1.1
							C394.5,647.2,394.3,645.4,394.1,643.4z M406.6,763.5c0.4,1.8,0.2,3.7,0.9,5.5c1.8,0.4,3.7,0,5.5,0.7c0.4,2,0.2,3.7,0.7,5.3
							c0.9-2.9,0-5.7-0.2-8.4c0-1.3,0-2.4-0.7-3.3c-1.8-0.2-3.5-0.4-5.3-0.7c-0.4-2-0.7-4-0.9-5.5c-2-0.4-3.7-0.4-5.7-1.1
							c-0.2-1.8-0.4-3.5-0.4-5.5c-2.2-0.2-3.7-0.4-5.5-0.7c-1.1-1.8-0.2-3.7-1.1-5.5c-1.3-0.4-2.9-0.7-4.6-0.4
							c0,2.2-0.2,4.2,0.2,6.2c1.5,0.2,3.1,0.4,4.2,0.7c1.1,2,0.2,3.7,1.1,5.7c1.5,0,2.9,0.2,4,0.4c0.4,0,1.1,0.2,1.5,0.2
							c0.7,1.8,0.2,3.7,0.7,5.5C402.9,763.5,404.9,762.7,406.6,763.5z M413.2,775.9c-2.2-0.2-4-0.4-5.7-0.7
							c-0.4-1.8-0.7-3.7-0.9-5.7c-0.9-0.2-1.8-0.2-2.6-0.2c-0.9,0-1.8,0-2.6-0.4c-1.1-1.8-0.4-3.7-1.1-5.5c-1.8-0.4-3.7,0-5.5-0.9
							c-0.7-1.8,0-3.7-0.9-5.5c-1.3-0.2-2.9-0.2-4.4-0.4c-0.2,2.2-0.4,4.2,0,6.4c1.5,0.2,3.1,0.4,4.2,0.4c1.1,1.8,0.4,3.7,1.1,5.7
							c2,0.4,4,0,5.5,0.9c0.7,2,0,3.7,0.9,5.3c2,0.4,3.7,0.2,5.5,1.1c0.2,0.9,0.2,1.8,0.2,2.6c0.2,0.9,0.4,1.5,0.4,2.6
							c1.8,0.2,3.7,0.4,5.5,0.7c0.7,2,0.4,3.7,1.1,5.9c0.2-2.6,0.7-4.4,0-6.4c-0.2-1.1-0.2-2-0.4-2.9
							C413.5,778.1,413.2,777,413.2,775.9z M389.5,775.2c1.5,0.2,3.1,0.7,4.4,0.9c0.2,0.9,0.4,1.8,0.4,2.6s0.2,1.8,0.2,2.6
							c2,0.9,4,0.2,5.9,1.1c0,1.1,0,2,0.2,2.6c0,0.9,0.2,1.8,0.2,2.6c2,0.9,4,0.2,5.7,1.1c0.2,0.9,0.4,1.5,0.7,2.2
							c2,0.2,4,0.2,5.9-0.7c0-0.4-0.2-1.1-0.2-1.8c-2-0.7-4,0-5.5-0.9c-0.7-2-0.2-3.7-0.9-5.5c-2-0.4-3.7-0.2-5.3-0.9
							c-1.1-1.5-0.2-3.7-1.1-5.5c-1.5-0.2-2.6-0.2-4-0.4c-0.4-0.2-1.1-0.2-1.5-0.4c-0.2-1.8-0.4-3.5-0.7-5.3
							c-1.5-0.4-3.1-0.4-4.6-0.4C389.3,771.5,389.3,773.4,389.5,775.2z M400.5,791v-2.4c-2.2-0.7-4,0-5.9-1.1c0-0.9,0-1.8-0.2-2.4
							c0-0.9,0-2-0.4-2.9c-1.3-0.2-2.6-0.7-4.2-0.4c-0.2,2.2-0.4,4.2,0.2,6.4c1.3,0,2.6,0.2,3.7,0.4c0.4,0.9,0.7,1.8,0.9,2.6
							C396.5,791.5,398.5,791.9,400.5,791z M407.5,648.9c-0.2-1.8-0.7-3.7-0.9-5.7c-2-0.2-3.5-0.4-5.3-0.7c-1.1-1.5-0.4-3.7-1.1-5.3
							c-1.8-0.7-3.7,0-5.5-1.1c-0.2-0.7-0.2-1.3-0.4-2c0-0.7,0.2-1.3-0.4-2.2c-1.3,1.5-1.5,3.1-1.8,4.6c0.4,0.2,1.1,0.4,1.8,0.7
							c0.7,1.8,0.2,3.7,0.9,5.3c2,0.7,3.7,0,5.5,1.1c0.7,1.8,0,3.7,0.9,5.3c1.8,0.7,3.7,0.2,5.5,0.9c0.4,2,0,3.7,0.9,5.5
							c1.8,0.4,3.5,0.7,5.5,0.4c0.7-2.2,0.7-4-0.2-6.2C411,649.4,409.1,649.1,407.5,648.9z M406.6,630.9c-2-0.4-3.7-0.7-5.7-0.9
							c0-2-0.2-3.5-0.4-5.3c-2-0.4-2.2-0.4-2.6,0.2c-1.1,1.5-2.2,2.9-2.9,5.1c1.3,0.7,2.6,0.4,3.7,0.7c0.7,0,1.1,0.2,1.8,0.4
							c0,0.9,0,1.8,0.2,2.6c0,0.9-0.2,2,0.7,2.9c1.8,0.7,3.5,0,5.3,0.7c0.2,2,0.4,3.7,0.7,5.3c1.8,0.7,3.7,0,5.7,1.1
							c0.2,1.8,0.4,3.3,0.7,5.7c0.9-2.4,1.3-4.2,1.8-6.2c-0.7-0.2-1.3-0.7-1.8-0.7c-0.4-2,0-4-0.9-5.5c-1.8-0.4-3.7,0-5.5-0.9
							C407.1,634.4,406.9,632.6,406.6,630.9z M419.6,637c0-2.4,0.2-4.4-0.7-6.2c-1.5-0.2-3.5-0.4-5.3-0.7c-0.4-2,0-4-0.9-5.7
							c-1.3-0.2-2.6-0.4-4-0.7c-0.4,0-0.9-0.2-1.3-0.2c-0.7-2-0.2-3.7-0.9-5.5c-2.4-0.9-3.5,0-4.8,1.5c-1.1,1.5-1.5,2.4-0.7,4.2
							c2,0.4,3.7,0.2,5.5,0.9c0.2,2,0.4,3.5,0.7,5.5c2,0.2,3.7,0.4,5.7,0.7c0,1.1,0.2,2,0.4,2.9c0,0.9-0.2,2,0.4,2.9
							c1.3,0.2,2.6,0.2,4,0.4C418.5,637,419,637,419.6,637z M420.1,699.5c-0.7-2-0.2-4-0.9-5.5c-1.8-0.9-3.7-0.2-5.5-0.9
							c-0.4-2,0-3.7-0.9-5.7c-1.8-0.4-3.7,0.2-5.3-0.7c-0.2-2-0.7-3.7-0.9-5.7c-1.3,0-2.6,0-3.7-0.2c-0.7,2.2-1.3,4-0.9,6.2
							c1.5,0.2,2.9,0.4,4.6,0.7c0.2,2,0.4,3.7,0.7,5.5c1.8,0.7,4,0.2,5.7,1.1c0.2,1.5,0.4,3.5,0.7,5.3c1.8,0.7,3.7,0.2,5.5,1.1
							c0.2,1.5,0.4,3.3,0.7,5.3c1.5,0,2.9,0.2,4.4,0.4c0.2,0,0.9,0.2,1.3,0.4c0.2,0.9,0.2,1.8,0.2,2.6c0.2,0.9,0,1.8,0.7,2.6
							c1.8,0.9,3.5,0,5.3,0.9c0.7,2,0.2,3.7,1.1,5.5c1.8,0.4,3.5,0,5.3,0.9c0.7,1.8,0.2,3.5,1.1,5.3c1.8,0.2,3.7,0.4,5.7-0.2
							c0-2,0.2-3.5-0.4-5.5c-1.3,0-2.6,0-3.7-0.2c-0.7,0-1.1-0.2-1.8-0.4c-0.4-1.8,0-3.7-0.9-5.5c-2-0.4-3.7,0-5.3-0.9
							c-0.9-1.5-0.2-3.7-1.1-5.5c-2-0.2-3.5-0.4-5.3-0.4c-0.9-2-0.2-4-1.1-5.7C423.8,700,421.8,699.7,420.1,699.5z M413,706.6
							c0.2,2,0.4,3.7,0.7,5.7c1.8,0,3.7,0.2,5.3,0.4c0.9,1.8,0.2,3.7,0.9,5.5c1.8,1.1,4,0.2,5.5,1.1c0.9,2.2,0.9,2.2,3.1,2.9
							c0.9,0.2,1.5,0.7,2.4,0.9c0.4,0,0.9,0,1.3,0c0-1.3,0-2.6-0.4-4c-1.8-0.2-3.3-0.4-5.1-0.7c-1.3-2-0.2-4-1.3-5.7
							c-1.8-0.7-3.7,0.2-5.3-0.9c-0.9-1.8,0-3.7-0.9-5.5c-1.8-0.2-3.7-0.2-5.5-0.7c-0.2-2-0.4-3.7-0.7-5.5c-2-0.2-4-0.4-5.5-0.7
							c-0.7-2-0.2-4.2-1.1-5.7c-0.7,0-1.3-0.2-2-0.2c-0.9,0-1.3,0-2.2,0c-0.2,2.2,0.7,4.2,1.1,6.2c1.1,0.2,2.2,0.4,3.3,0.7
							c0.4,1.8,0,3.7,0.9,5.5C409.1,706.1,410.8,706.1,413,706.6z M413,681.3c0.2,1.8,0.2,3.1,0.4,4.2c0.2,0.4,0.2,1.1,0.2,1.5
							c2,0.7,4,0,5.3,0.9c0.9,1.8,0.2,3.7,1.1,5.5c1.8,0.4,4-0.2,5.5,0.9c0.2,0.9,0.2,1.5,0.2,2.4c0.2,0.9,0.2,2,0.4,2.9
							c2,0.7,3.7,0.4,5.7,1.1c0.2,1.5,0.4,3.3,0.7,5.3c2,0,3.7,0.4,5.5,0.7c0.7,2,0.4,4,0.9,5.5c1.8,0.7,3.7,0.2,5.5,0.9
							c0.2,2,0.7,3.5,0.9,5.5c1.8,0.7,3.7,0,5.3,1.1c0.2,1.1,0.4,2.2,0.7,3.3c0.9,0.4,1.5,0.2,2.2-0.7c-1.5-3.1-2.9-6.2-4-9.5
							c-1.5-0.7-3.3,0-4.2-1.1c-0.7-1.5,0-3.5-0.9-5.3c-2-0.4-4-0.2-5.5-0.7c-0.2-2-0.4-3.7-0.7-5.3c-1.8-0.7-3.5-0.4-4.8-0.7
							c-0.2,0-0.4-0.2-0.9-0.4c0-0.9-0.2-1.5-0.4-2.4c-2-1.5-3.7-2.6-5.9-4.2c-0.7-1.5,0-3.5-0.9-5.1c-1.5-0.9-3.7,0-5.5-1.1
							c-0.7-1.8,0-3.5-0.9-5.3c-1.5-0.7-3.5-0.2-5.3-0.9c-0.2-1.8-0.4-3.5-0.7-5.5c-1.8-0.2-3.3-0.4-4.8-0.7c-0.2,0-0.4,0-0.7,0
							c-0.2-0.4-0.2-0.9-0.2-1.3c-0.2-0.2-0.4-0.7-0.7-1.1c-1.3,1.8-1.5,2.2-1.3,2.6c0.4,0.2,0.9,0.4,1.3,0.9
							c0.4,1.8,0.2,3.7,0.9,5.3C409.1,680.8,411,681,413,681.3z M413.7,617.5c-0.4-2,0-4-0.9-5.9c-0.4,0-0.7,0-1.1,0
							c-1.8,0.4-3.1,1.8-4.2,3.1c-0.2,0.2-0.4,0.7-0.4,1.1c0,0.4,0.2,1.1,0.4,1.8c1.5,0.7,3.7,0,5.3,0.9c0.9,2,0.4,3.7,0.9,5.5
							c2,0.2,3.7,0.2,5.5,0.9c0.2,1.8,0.4,3.5,0.7,5.3c0.9,0.2,1.8,0.4,2.6,0.4c1.3,0.2,2.4,0.2,3.7,0.7c0.2,0.2,0.7-0.2,0.9-0.4
							c-2.2-1.8-0.4-4.2-1.8-6.2c-1.5-0.2-3.5-0.7-5.3-0.9c-0.9-2,0-3.7-1.1-5.7C417.4,617.9,415.4,617.7,413.7,617.5z M419.2,674.9
							c0.2,2.2,0.4,4,0.7,5.7c1.3,0.2,2.6,0.2,4.2,0.4c0.2,0,0.9,0.2,1.5,0.4c0.4,1.8,0,3.3,0.9,5.3c0.7-1.3,1.1-2,1.5-2.9
							c0.7-0.9,1.5-1.5,1.5-2.9c-1.1-0.2-2-0.4-3.3-0.7c-0.2-1.8-0.4-3.5-0.7-5.3c-1.8-0.9-3.7-0.4-5.5-0.9c-0.9-2,0-4-1.1-5.7
							c-1.5,0-3.5-0.2-5.3-0.4c0-1.5-0.2-2.9-0.4-4.4c-2.2,1.1-3.3,2.6-4.2,4.4c1.3,0.7,2.9,0,4,0.9c0.2,1.8,0.4,3.5,0.7,5.3
							C415.4,674.4,417.2,674.7,419.2,674.9z M419.4,607.3c-2.2,0.4-4,1.5-5.7,2.9c0,0,0,0.4,0,0.7c0,0,0.2,0.4,0.4,0.4
							c1.1,0,2,0.2,3.1,0.2c0.7,0,1.3,0.2,1.8,0.2c0.9,2,0.2,4.2,0.9,5.7c2,0.7,4.2-0.2,5.7,1.1c0,0.7,0.2,1.5,0.2,2.4
							c0.2,0.9,0.2,1.8,0.4,2.9c2,0.2,3.5,0.4,5.5,0.7c0.2,1.5,0.4,2.6,0.7,4.2c2.2-0.2,4.2,0,6.4-0.7c-0.2-1.3-0.4-2.2-0.4-3.5
							c-2-0.7-4-0.2-5.7-0.9c-0.2-2-0.4-3.5-0.7-5.3c-2-1.1-3.7-0.2-5.5-1.1c-0.9-1.5-0.2-3.7-1.1-5.5c-1.5-0.7-3.7,0.2-5.5-0.9
							C419.6,609.8,419.6,608.7,419.4,607.3z M457.9,699.5c-0.4-2-0.7-4-0.9-5.7c-1.8-0.2-3.5-0.4-5.3-0.4c-1.1-2-0.2-4-1.1-5.7
							c-1.5-0.7-3.7,0-5.3-1.1c-0.7-1.8,0-3.5-0.9-5.3c-2-0.2-3.7-0.4-5.3-0.9c-0.9-1.8-0.2-3.7-1.1-5.5c-2-0.2-3.5-0.4-5.5-0.7
							c-0.2-2-0.4-3.7-0.7-5.5c-1.1-0.2-2-0.2-2.6-0.4c-0.9,0-2,0.2-2.9-0.4c-0.9-1.8-0.4-3.7-0.9-5.5c-1.8-0.7-3.7,0-5.5-0.9
							c-0.7-0.9-0.2-2-0.9-2.6c-2.4,1.1-2.6,1.1-4,3.1c1.1,0,1.8,0.2,2.6,0.2c1.1,0.2,1.3,0.4,1.5,1.8c0.2,1.3,0,2.9,0.4,4.2
							c2,0.7,4.2,0,5.7,0.9c0.2,1.8,0.4,3.5,0.7,5.3c2,0.4,3.7,0.2,5.5,0.9c0.7,1.3,0,2.9,0.7,4c1.3,0.4,2.2,0.9,3.1,1.3
							c0.9,0.2,1.8,0.7,2.9,1.3c0,2.2,0.9,3.7,2,5.3c1.5,0.2,2.9,0.4,4.2,0.7c0.9,2,0.2,3.7,0.9,5.5c1.8,0.9,3.7,0,5.5,1.1
							c0,0.9,0,1.5,0.2,2.4c0,0.9,0.2,2,0.2,2.9c2.2,0.4,4,0.7,5.7,0.9c0.4,1.8,0.2,3.7,0.9,5.5c2,0.2,3.5,0.4,5.5,0.7
							c0.2,2,0.4,4,0.9,5.7c1.8,0.2,3.5,0.2,5.3,0.4c0.9,2,0.4,3.7,0.9,5.7c1.8,0.7,3.7,0,5.7,0.9c0.7,2,0,3.7,0.9,5.5
							c0.7,0.2,1.5,0.2,2.4,0.2c0.9,0.2,2,0.4,2.9,0.7c0.4,1.5,0,3.7,0.9,5.5c0.9,0,1.8,0.7,2.9,0c0-0.2,0-0.7,0-0.9
							c-0.7-1.8-1.1-3.3-2.2-4.8c-1.3-1.5-0.9-3.7-1.8-5.1c-0.2-0.2-0.2-0.4-0.2-0.7c-0.4-0.7-0.9-0.9-1.5-1.1
							c-1.3,0-2.4,0.2-3.5-0.4c-0.2-1.8-0.4-3.5-0.7-5.5c-2-0.7-4,0-5.7-1.1c0-0.4-0.2-1.3-0.2-2.2c-0.2-1.1,0-2-0.4-2.9
							c-2-0.7-3.7-0.2-5.5-0.9c-0.7-1.8-0.2-4-1.1-5.5c-0.9,0-1.8-0.2-2.4-0.2C459.9,699.7,459,699.7,457.9,699.5z M463,672
							c0.9-0.9,1.1-1.8,1.3-2.6c1.8-6.4,2.2-13,0.9-19.8c-0.9-2.9-2-5.9-3.5-8.6c-0.4-1.3-1.5-2.6-2.9-3.7c-2.4-1.3-4.6-2.9-7.3-3.7
							c-2.4-0.7-5.1-1.5-7.5-1.8c-3.7-0.9-7.3-1.1-10.8-0.4c-2.6,0.4-5.1,1.1-7.3,2.9c-0.9,0.9-1.8,1.5-2.6,2.4
							c-4,3.7-6.2,8.1-7,13.4c-0.2,2-0.7,3.7-0.9,5.9c0,0.4,0,1.1,0,2.2c0.9-0.4,1.3-0.9,2-1.1c6.6-4.2,13.6-5.7,21.3-4.2
							c1.1,0.2,2,0.2,2.9,0.4c6.4,2,11.4,5.7,15.6,10.6c2,2.4,3.5,4.8,5.1,7C462.5,671.4,462.7,671.6,463,672z M438.3,612
							c-2-0.9-3.7-0.2-5.7-1.1c-0.2-1.1-0.2-2.4-0.4-3.7c0-0.4-0.2-1.1-0.4-1.5c-2.2,0-4-0.9-6.2-0.4c0.2,2.2,0,4.2,0.9,5.9
							c2,0.2,3.5,0.4,5.3,0.7c0.7,2.2,0.2,4.2,1.1,5.7c1.8,0.7,3.5,0,5.3,0.9c0.2,1.8,0.7,3.5,0.9,5.3c1.8,0.7,3.7,0.4,5.7,1.1
							c0,1.5,0.2,2.9,0.4,4.6c4.4,0.7,8.1,2.4,11.9,4c0.2-0.4,0.2-0.7,0.2-0.9c0-0.4,0-0.9-0.2-1.5c-1.8-0.7-3.7-0.2-5.7-1.1
							c-0.2-1.8-0.2-3.3-0.4-5.3c-1.8-0.2-3.7-0.7-5.5-0.9c-0.7-1.8,0-3.7-0.9-5.7c-1.3,0-2.6-0.2-3.7-0.2c-0.7-0.2-1.1-0.2-1.8-0.4
							C438.8,615.5,438.5,613.7,438.3,612z M464.3,693.4c-0.7-2.2-0.2-4-1.1-5.7c-1.8-0.7-3.7,0-5.5-1.1c-0.2-1.8-0.4-3.5-0.7-5.3
							c-1.1-0.2-1.5-0.2-2.4-0.4c-1.1,0-2-0.2-2.9-0.4c-1.1-1.5-0.2-3.7-1.1-5.3c-1.5-0.9-3.7-0.4-5.3-0.9c-0.7-2,0-4-1.1-5.7
							c-0.9,0-1.8,0-2.6-0.2c-0.9,0-1.5,0.2-2.6-0.7c-0.2-1.8-0.4-3.5-0.7-5.3c-2-0.4-4,0-5.7-0.9c-0.2-2-0.4-3.5-0.7-5.5
							c-1.8-0.2-3.1-0.4-4.6-0.4c-0.4,0-0.9,0.2-1.5,0.4c0,2,0,3.7,0.4,5.7c2,0.7,3.7,0,5.5,0.9c0.7,1.8,0.2,3.7,1.1,5.7
							c0.9,0,1.8,0,2.4,0.2c0.9,0,2-0.2,2.9,0.4c0.4,1.8,0.7,3.5,0.9,5.3c1.8,0.2,3.5,0.4,5.3,0.7c1.1,2,0.4,4,1.1,5.5
							c1.8,0.9,3.7,0.2,5.5,1.1c0,1.3,0,2.6,0.2,3.5c0,0.7,0.2,1.3,0.4,2c2,0.2,3.7,0.4,5.5,0.7c0.2,2,0.4,3.7,0.7,5.7
							c1.1,0,2,0.2,2.9,0.2c0.7,0,1.8,0.2,2.6,0.4c0.7,1.8,0.7,3.7,0.9,5.5c2,0.7,3.7,0.2,5.7,1.1c0.2,1.5,0.4,3.3,0.7,5.3
							c1.1,0,2,0.2,3.1,0.2c0.7,0,1.5,0,2.2,0c0.4-1.3-0.7-2.4-1.1-3.7c-1.1-2.4-1.1-2.2-3.5-2.9c-0.2,0-0.4-0.2-0.7-0.4
							c-0.4-1.5,0-3.5-0.7-5.3C467.8,693.6,466.3,693.4,464.3,693.4z M442.1,696.4c0-0.4,0-0.7-0.2-0.7c-1.3-2.6-2.6-5.5-4.2-8.1
							c-0.9-1.8-2-3.1-2.9-4.6c-0.9-1.1-1.8-1.1-2.9-0.2c-2.2,1.8-2.9,3.7-3.1,6.6c0,0.9,0.4,2,1.1,2.9c0.7,0.7,1.3,1.3,2,1.8
							c2,1.1,4,2,6.2,2.4C439.4,696.9,440.5,697.3,442.1,696.4z M445.4,617.5c1.8,0.7,4-0.2,5.3,1.1c0.7,1.8,0,3.5,0.9,5.3
							c2,0.2,4,0.2,5.5,0.9c0.2,0.9,0.2,1.8,0.4,2.4c0,1.1,0.2,2,0.2,3.1c2.2,0.2,3.7,0.4,5.7,0.7c0.2,1.1,0.2,2,0.4,2.9
							c0.2,0.9,0,2,0.4,2.6c2,0.9,3.5,0.2,5.5,0.9c0.7,1.8,0,3.7,0.7,5.3c1.8,0.7,4,0,5.7,1.1c0.2,1.8,0.4,3.7,0.7,5.3
							c1.8,0.2,3.7,0.7,5.5,0.9c0.4,2,0,3.7,0.9,5.5c1.8,0.4,3.7,0.7,5.3,0.9c0.4,2,0.7,3.5,0.9,5.5c1.3,0.2,2.4,0.7,3.5,0.2
							c0.2-2.2,0.4-4-0.2-5.9c-1.1-0.2-2.2-0.7-3.3-0.9c-0.4-2,0-3.7-0.9-5.5c-1.8-0.2-3.5-0.4-5.5-0.7c-0.2-1.8-0.4-3.7-0.7-5.5
							c-1.8-0.7-3.7-0.2-5.3-0.9c-0.9-1.8-0.2-3.7-0.9-5.3c-2-0.7-4,0-5.7-1.1c-0.2-1.8-0.4-3.7-0.7-5.3c-2-0.2-3.5-0.7-5.5-0.9
							c-0.7-2-0.2-3.7-1.1-5.5c-1.8-0.2-3.5-0.7-5.3-0.9c-0.2-2-0.7-3.7-0.9-5.5c-1.8-0.7-3.7-0.2-5.3-0.9c-1.1-1.5-0.2-3.7-1.1-5.5
							c-1.8-0.7-3.7,0-5.3-0.9c-0.2-1.8-0.4-3.5-0.7-5.3c-0.4,0-0.4,0-0.7,0c-2.2-0.4-4.2,0-5.9-1.8c0,0-0.2,0-0.4,0
							c-1.5,0-2.9,0-4.2,0.2c-0.2,0-0.7,0.2-1.1,0.4c2,1.1,3.7,0.7,5.7,1.1c0.2,1.8,0.7,3.7,0.9,5.5c0.9,0.2,1.5,0.2,2.4,0.4
							c0.9,0,2,0,2.9,0.2C445.4,613.5,444.7,615.7,445.4,617.5z M467.4,687.2c-0.4-3.3-2.6-5.7-3.7-8.6c-0.7-1.5-1.3-2.9-2.4-4
							c-0.9-0.2-2-0.4-3.3-0.4c-0.2-2-0.7-3.7-0.9-5.5c-1.8-0.2-3.5-0.4-5.3-0.7c-1.1-2-0.2-4.2-1.1-5.7c-1.8-0.4-4,0-5.5-1.1
							c0-1.3-0.2-2.6-0.4-4c-3.5-1.8-7.3-2.6-11-2.6c-0.4,0-0.9-0.2-0.7,0.7c1.5,0.7,3.3,0.2,5.1,0.9c0.4,2,0.7,3.5,0.9,5.5
							c1.8,0.2,3.5,0.4,5.3,0.7c1.1,1.8,0.2,4,1.1,5.7c1.8,0.7,4,0,5.5,0.9c0,0.9,0,1.8,0.2,2.6c0,0.9,0,2,0.4,2.6
							c2,0.4,4,0.2,5.5,0.9c0.2,1.1,0.2,1.8,0.2,2.6c0.2,1.1,0.4,1.8,0.4,2.9c2.2,0.2,3.7,0.4,5.7,0.7c0.4,2.2,0.2,4,0.9,5.7
							C465.4,687.2,466.5,687.2,467.4,687.2z M439.6,699.5l-0.2-0.2c0,0-0.2,0-0.2,0.2c0,0,0,0,0.2,0H439.6z M441.6,699.5v0.2
							c0.4,0,0.9,0.2,1.3,0.2c0,0,0.2-0.2,0.2-0.4c-0.2-0.7-0.7-0.2-1.1-0.2C441.8,699.3,441.8,699.3,441.6,699.5z M444.5,695.1
							c0.2,0,0.2,0,0.4,0c-0.2-0.4-0.2-0.7-0.4-1.1h-0.2c0,0-0.2,0.2-0.2,0.4C444,694.7,444.5,694.9,444.5,695.1z M448.9,605.4
							c-1.1,0.2-2.2-1.3-4-0.4C446.7,605.1,447.8,605.1,448.9,605.4z M445.1,703.7c-0.2,0.7-0.2,1.5,0.2,2.2h0.2
							c0.2,0,0.4-0.2,0.4-0.4C446,704.8,445.6,704.1,445.1,703.7z M483,743.5c2,0.7,4,0.2,5.5,1.1c0.7,1.8,0.2,3.5,1.1,5.5
							c1.3,0,2.4,0.4,3.5,0c-0.2-2-0.9-4-1.8-5.9c-0.9-0.2-1.3-0.7-2-0.9c-0.4-1.5,0-3.5-0.9-5.3c-1.5-0.4-3.7,0-5.5-0.9
							c-0.2-1.8-0.4-3.5-0.7-5.3c-1.8-0.4-3.7-0.2-5.5-0.9c-0.2-2-0.4-3.7-0.7-5.5c-2-0.2-3.7-0.4-5.5-0.7c-0.9-2,0-4-0.9-5.5
							c-2-1.1-3.7-0.2-5.5-1.1c-0.7-1.8,0-3.7-1.1-5.5c-1.8-0.4-3.5,0-5.3-0.9c-0.7-1.5-0.2-3.7-0.9-5.5c-1.8-0.4-3.7-0.2-5.5-0.7
							c-0.2-1.8-0.4-3.5-0.7-5.3c-1.3-0.4-2.6-0.7-4.2-0.4c0,0.4,0,0.7,0.2,0.7c0.4,1.3,0.9,2.4,1.5,3.5c0.9,1.8,0.9,1.8,2.4,2.9
							c0,0.9,0,2,0.2,3.1c0.4,2.2,1.3,2.4,2.9,2.4c0.7,0,1.1,0,1.8,0c0.2,0.2,0.9,0.4,1.3,0.4c0.2,2,0.4,3.5,0.7,5.5
							c2,0.7,4,0,5.7,0.9c0.4,2,0.2,3.7,0.9,5.5c2,0.2,3.5,0.4,5.5,0.7c0.2,1.1,0.2,1.8,0.2,2.6c0.2,0.9,0.2,2,0.4,2.9
							c1.8,1.1,4,0,5.7,1.1c0.4,1.8,0,3.7,0.7,5.3c1.8,0.7,4,0,5.5,0.9C482.5,740,482.8,742,483,743.5z M491.3,643.2
							c-0.7-0.2-1.3-0.4-2-0.7c-0.4-1.8,0-3.7-0.9-5.5c-0.9,0-1.5-0.2-2.4-0.2c-0.9-0.2-2,0-3.1-0.7c-0.2-1.8-0.4-3.7-0.7-5.3
							c-1.8-0.2-3.7-0.7-5.3-0.9c-0.9-1.8-0.2-3.7-0.9-5.5c-2-0.7-4-0.2-5.7-0.9c-0.2-1.3-0.2-2.4-0.2-3.7c-0.2-0.7-0.4-1.3-0.4-1.8
							c-2-0.7-3.7,0-5.5-0.9c-0.2-1.8-0.7-3.5-0.9-5.5c-2-0.7-3.7,0-5.5-0.9c-0.2-1.3-0.4-2.6-0.7-4.2c-2-0.2-4-1.1-6.2-1.1
							c-0.2,2-0.2,3.7,0.4,5.5c1.8,0.7,4,0,5.5,0.9c0.4,2,0.2,4,0.9,5.5c2,0.4,3.7,0,5.5,0.9c0.2,2,0.4,3.5,0.9,5.5
							c2,0.2,3.5,0.4,5.3,0.7c0.9,2,0.2,3.7,1.1,5.7c1.5,0.2,3.3,0.4,5.3,0.7c0.9,1.5,0.2,3.7,0.9,5.5c1.8,0.9,3.7,0.2,5.5,0.9
							c0.4,1.8,0,3.7,0.9,5.5c1.8,0.4,3.7,0,5.3,0.7c0.2,1.1,0.4,2,0.4,2.9c0.2,1.1,0.2,1.8,0.4,2.6c0.7,0.2,1.1,0.2,1.5,0.2
							s0.9,0,1.5,0C492.4,647.2,492,645.2,491.3,643.2z M457.9,724.8c-0.4-2.2-0.7-3.7-0.9-5.7h-2c0.2,1.3,0.9,2.4,1.1,3.5
							c0.9,2.4,2,4.6,2.9,7c0.7,1.3,1.3,2,2.6,2c0.4,0,1.1,0.2,1.8,0.2c0.2,2,0.4,3.7,0.7,5.7c2,0.2,3.7,0,5.5,0.4
							c0.9,2,0.2,4,0.9,5.5c1.8,0.7,3.7,0,5.7,1.1c0,0.9,0.2,1.8,0.2,2.6c0.2,0.9,0.2,1.5,0.4,2.6c1.8,0.4,3.7,0.7,5.5,0.9
							c0.4,2,0,3.7,0.9,5.7c1.8,0.2,3.7,0.4,5.5,0.7c0.2,1.8,0.4,3.7,0.7,5.5c1.8,0.7,3.7,0.2,5.5,0.9c0.9,1.8,0.2,3.7,0.9,5.5
							c1.5,0.2,2.9,0.4,4.6,0.2c-0.4-2.2-1.3-4.2-2.2-5.9c-0.7-0.2-1.5-0.7-2.4-0.9c-0.7-2,0-3.7-0.9-5.3c-2-0.7-3.7-0.2-5.5-1.1
							c-0.2-2-0.4-3.5-0.7-5.3c-1.8-0.9-3.7-0.2-5.5-0.9c-0.9-1.8-0.4-3.7-0.9-5.7c-0.9,0-1.8-0.2-2.6-0.2c-0.9-0.2-2,0-2.6-0.7
							c-0.9-1.5-0.2-3.5-0.9-5.3c-2-0.4-4.2,0-5.7-0.9c-0.2-1.8-0.4-3.7-0.7-5.3c-2-0.4-3.7-0.2-5.7-0.9c-0.2-2-0.2-3.7-0.4-5.5
							C461.6,725.3,459.9,725,457.9,724.8z M463.4,639.2c0.2-2.2,0.2-2.2-1.3-2C462.5,637.7,462.7,638.1,463.4,639.2z M463.4,738
							c-0.7,0.7-0.7,1.3,0.4,2C463.6,739.1,463.4,738.5,463.4,738z M467.6,611.5c-1.8-1.3-1.8-1.3-3.5-1.5c-0.2,0.7-0.2,1.1,0.7,1.3
							C465.4,611.3,466.3,611.3,467.6,611.5z M476.2,674.9c-2-0.2-4-0.4-5.5-0.7c-0.9-1.8,0-4-1.1-5.7h-2.6c-0.4,2-1.1,3.7-1.8,5.7
							c1.5,0.2,3.1,0.4,4.6,0.9c0.2,1.8,0.4,3.7,0.7,5.5c1.8,0.2,3.5,0.4,5.5,0.7c0.9,2,0.2,3.7,0.9,5.5c1.8,0.9,4,0.2,5.5,1.1
							c0.4,1.5,0,2.9,0.9,4.4c1.3-1.5,2.2-2.9,2.6-4.8c-1.1-0.2-2-0.4-2.9-0.9c-0.2-1.8-0.4-3.5-0.7-5.3c-1.8-0.4-3.7-0.2-5.5-1.1
							C476.6,678.6,476.4,676.9,476.2,674.9z M489.1,773.9c2-0.7,3.5-1.1,4.8-1.8c0.7-0.4,1.3-0.7,1.3-1.8c-0.2-0.7-0.7-1.1-1.8-1.1
							c-0.7,0-1.5,0-2.4,0c-0.7,0-1.1-0.2-1.8-0.4c-0.4-2,0-4-0.9-5.5c-1.5-0.4-3.5,0-5.5-0.9c-0.2-1.8-0.4-3.7-0.7-5.3
							c-1.8-0.7-3.7-0.2-5.5-1.1c-0.2-2-0.4-3.5-0.7-5.3c-2-0.7-4-0.2-5.7-0.9c0-1.1-0.2-2-0.2-2.9c-0.2-0.9,0-2-0.7-2.9
							c-0.9,0-1.5-0.2-2.2-0.2c-0.9,0-1.3,0-2.2,0c0,0.4,0,0.7,0,0.9c0.4,0.9,0.7,1.8,1.1,2.6c0.9,2.6,0.9,2.6,3.5,3.5
							c0.2,1.8,0.4,3.5,0.7,5.3c1.8,0.4,3.7,0.7,5.5,0.9c0.9,1.8,0.2,3.7,1.1,5.7c1.1,0,2.2,0.2,3.5,0.2c0.7,0.2,1.3,0.4,1.8,0.4
							c0.2,1.8,0.2,3.7,0.9,5.5c2,0.4,3.7,0,5.3,0.7C488.7,771,488.9,772.3,489.1,773.9z M489.4,667.8c-0.2-2-0.4-3.7-0.7-5.5
							c-1.8-0.7-3.7,0-5.7-0.9c-0.4-2,0-3.7-0.7-5.5c-2-0.4-3.7-0.2-5.5-0.9c-0.2-1.8-0.4-3.5-0.7-5.5c-2-0.2-3.7-0.4-5.5-0.7
							c-0.9-1.8,0-3.7-1.1-5.7c-1.3-0.2-2.6-0.4-4,0c0.7,2.2,1.1,4.2,1.8,5.9c0.9,0.4,1.8,0.7,2.4,0.9c0.2,0.9,0.2,1.8,0.4,2.6
							c0,0.7-0.2,1.8,0.4,2.6c1.5,0.7,3.5,0.2,5.5,0.9c0.2,1.3,0.2,2.4,0.4,3.7c0,0.7,0.2,1.1,0.4,2c0.7,0,1.5,0,2.4,0.2
							c0.9,0,2-0.2,2.9,0.7c0.2,1.5,0.4,3.3,0.7,5.3c2,0.7,4,0,5.7,0.9c0.2,1.8,0.4,3.5,0.7,5.3c0.4,0,0.7,0,0.9,0
							c0.2,0,0.4,0,0.7,0c0-0.2,0.2-0.4,0.4-0.7c0.4-1.8,0.9-3.3,0.7-5.1C491.1,668.3,490.5,668.1,489.4,667.8z M469.8,681.3H468
							c0.9,2.4,0.9,2.4,2.2,3.7C470.2,683.7,470.2,682.4,469.8,681.3z M477,668.1c-1.1-2-0.2-4.2-1.1-5.7c-1.1-0.2-2-0.2-2.9-0.2
							c-1.1-0.2-1.8,0-2.6-1.1c-0.2-1.1-0.2-2.2-0.4-3.3c0-0.4,0-0.9-0.2-1.3c0-0.2-0.4-0.4-0.7-0.4c-0.2,0-0.7,0.2-0.7,0.4
							c0,1.1-0.2,2.2-0.2,3.3s-0.2,2.2,1.3,2.9c0.2,0.2,0.4,1.1,0.4,1.3c0.2,1.3,0.2,2.9,0.4,4.2c1.8,0.7,4,0,5.9,0.9
							c0,0.9,0,1.8,0,2.6c0.2,1.1,0,2,0.7,2.6c0.7,0.2,1.5,0.2,2.4,0.2c0.9,0.2,2,0.4,2.9,0.4c0.2,2,0.4,4,0.7,5.7
							c2,0.4,4,0.7,5.7,0.4c0.9-2,0.2-4.2-0.2-6.2c-1.5-0.2-3.5-0.4-5.3-0.7c-0.4-2-0.7-3.7-0.9-5.7
							C480.6,668.5,479,668.3,477,668.1z M486.3,630.2c-0.4-2-2.4-5.3-5.1-8.8c-3.1-3.5-7.9-7.3-10.8-8.6c-0.4,2.4-0.4,2.9,0.2,4.6
							c1.5,0.7,3.7,0,5.5,1.1c0.2,0.7,0.2,1.5,0.2,2.4c0.2,0.9,0.2,1.8,0.4,2.9c1.8,0.2,3.5,0.4,5.5,0.7c0.2,2,0,3.7,0.9,5.7
							C484.3,630.2,485.2,630.9,486.3,630.2z M476.6,699.3c0.9,0.7,1.3,0.4,2-0.2c1.1-1.3,2-2.6,3.1-3.7c0.2-0.4,0.4-0.9,0.7-1.5
							c-2-0.2-3.7-0.4-5.3-0.4c-1.1-2,0-4-1.1-5.9c-1.8,0-3.3-0.7-5.1,0c0.9,2.2,1.3,4.2,2.6,5.9c1.1,0.4,1.8,0.7,2.6,0.9
							C476.4,695.8,476.6,697.8,476.6,699.3z M477,769c-0.9-2-0.2-4.2-1.1-5.7c-1.3-0.2-2.4-0.4-3.7,0c0.2,1.8,0.9,3.5,2,5.3
							c0.2,0.7,1.3,0.9,2,1.5c0.2,1.8,0.4,3.5,0.7,5.1c2,0.2,4.2,0.7,6.4,0.7c-0.4-2-0.7-4.2-0.9-6.4
							C480.6,769.3,478.8,769.3,477,769z M525.4,803.8v0.2c0-0.4-0.2-0.9-0.4-1.1c-1.1-0.4-2.6-0.4-3.7,0.7c-0.7,0.7-1.3,1.3-2,1.8
							c-1.1,0.9-2.6,1.1-4.2,0.9c-0.4,0-0.7-0.4-0.7-0.7c0-0.4,0.2-0.9,0.4-1.3c0-0.2,0.4-0.2,0.9-0.2c2.2-0.2,3.5-1.8,4.8-3.3
							c0.9-1.1,0.7-1.8-0.9-2.6c-0.9,0.7-1.3,1.8-2,2.6c-1.1,1.3-2.9,2-4.2,1.1c-0.2-0.2-0.7-0.7-0.7-0.9c0-0.2,0.4-0.9,0.7-0.9
							c0.7-0.4,1.3-0.4,2-0.7c0.9-1.1,1.5-2,2-3.1c0.4-0.7,0.2-0.7-1.1-1.1c-0.4,0.4-0.9,0.9-1.1,1.3c-0.7,1.3-1.5,1.8-2.9,2.2
							c-0.7,0.2-1.3,0-1.8-0.7c-0.2-0.4-0.2-1.3,0.7-1.5c1.8-0.7,2.4-2,3.3-3.3c0.2-0.2,0.4-0.7-0.2-0.9c-0.4,0.4-0.7,1.1-1.3,1.5
							c-0.4,0.4-1.1,0.9-1.5,1.3c-0.9,0.4-1.1,0.2-2-1.1c0.2-1.1,1.5-1.3,2-2.2c0.2-0.2,0.2-0.7,0.2-1.1c-0.2-0.4-0.9-0.2-1.1,0
							c-0.7,0.7-1.1,1.3-1.8,2c-0.7,0.9-2,1.3-3.3,1.3c-1.1-0.2-2.2-0.4-3.1-0.9c-1.5-1.1-3.3-2.2-4.4-3.3c-1.5-1.1-2.2-2.4-2.2-4.2
							c0-0.7,0-1.3,0-2c0.2-2.9-0.2-5.3-0.9-8.1c0-0.4-0.2-0.7-0.4-1.1c-4.8,1.8-9.5,3.3-13.9,5.1c-0.2,0.2-0.2,0.2-0.2,0.2
							c0,0.2-0.2,0.7,0,0.9c0.7,3.3-0.2,6.4-2,9.2c-0.4,0.4-0.9,1.3-1.3,2c-1.8,3.5-2.4,6.8-1.5,10.6c0.9,4.2,3.5,6.4,7.7,6.6
							c4,0.2,7.5-0.7,11-2c1.3-0.4,2.6-0.9,3.7-1.1c2.6-0.7,4.8,0,6.8,1.3c1.1,0.7,2.4,1.5,3.5,2.2c2,1.3,4.4,1.8,6.6,0.7
							c1.5-0.7,3.1-0.7,4.6-0.7c0.9,0,1.8-0.2,2.6-0.2c0.7-0.2,1.3-0.4,2.2-0.7c0.9-0.4,1.5-1.3,1.8-2.4c0.2-0.7-0.2-1.3-1.1-1.8
							C525.2,804.2,525.2,804,525.4,803.8z M476.4,707.2c0,2,0.2,3.1,0.2,4.2c0.2,0.9,0.4,1.1,1.8,0.4
							C477.9,710.5,477.5,709,476.4,707.2z M525.4,803.8c0.4,0.4,0.4,0.9,0.2,1.3c-0.4,1.1-1.1,1.5-2.2,2c-1.1,0.4-2.4-0.7-2.6-1.5
							c0-0.4,0.7-0.9,1.1-0.9c0.4,0.2,0.9,0.4,1.3,0.4c0.9-0.2,1.3-1.3,2.2-1.1V803.8z"/>
					</g>
				</g>
			</g>
			<g>
				<g>
					<g class="st0">
						<path class="st1" d="M506.5,711c0-50.8,33.2-81.2,75.7-81.2c35.6,0,60.9,20.7,64.2,49.5H622c-2.9-17.4-18.3-29.7-39.6-29.7
							c-29.9,0-51.7,21.8-51.7,61.4c0,35.9,20.7,60.5,50.8,60.5c26.2,0,44.2-15.4,44.2-43.1v-2.2h-46v-19.8h67.3v81.2h-20.2v-6.2
							c0-4.6,0.2-9.7,0.7-14.7c-8.1,13.9-25.5,24.4-48.2,24.4C534.9,791,506.5,757.6,506.5,711z"/>
					</g>
				</g>
			</g>
			<g>
				<g>
					<g class="st0">
						<path class="st1" d="M734.4,605.4c0.9,0.9,1.3,1.5,1.5,2.9l0.2,1.8c2,1.3,3.3,2.4,4.8,4l2.9,2.6c2.2,1.8,3.5,2.9,3.7,4.4
							l0.4,2.2c2.4,1.3,4,2.2,4.4,2.9l0.7,1.1v0.2c0,0.7-0.7,1.8-1.5,2.9c-3.1,4.4-5.3,5.3-6.8,6.4l-2.2,1.5l-1.1,1.8
							c-2,2.4-3.3,3.3-4.4,3.5l-1.8,0.4c-0.7,2.2-1.3,3.1-2.6,3.5l-1.8,0.4c-2.2,2.2-3.5,2.9-4.4,3.5l-1.3,0.9
							c-0.4,1.5-1.3,2.2-3.3,2.9L719,656c-0.2,2-1.1,3.1-2.4,3.7l-2,0.9l-2.2,1.5c-1.3,2.2-2.2,3.3-3.3,3.7l-1.8,0.7
							c-0.7,1.5-1.3,2-3.1,2.6l-2.4,0.9c-2.6,2.6-4.2,4-5.1,4.6l-1.3,0.9l-2.6,0.7l1.3,5.3c2.4,2.4,3.3,3.5,3.1,4.8l-0.4,1.8l4.4,2
							h3.5l3.7-2.6l2.2-1.8l0.9-2l0.2-0.2c1.1-1.1,6.2-4.2,7.3-4.6l1.5-0.4l2.2-2c2.2-2,3.5-2.6,4.4-3.1l1.1-0.4l4.2-4
							c-0.2-0.9,0.4-1.5,1.3-2.4c0.9-0.9,2.2-1.5,4-2l2.6-0.7l1.1-1.3c1.8-1.8,3.1-2.9,5.7-4.4l2.2-1.8c1.5-2.6,3.1-4,4.4-4.2l2-0.2
							l-0.2-1.8c2.6-2.4,4.6-3.1,5.7-2.4l1.8,1.1c2.2,0.7,3.5,1.3,3.7,2.2l0.4,1.3l2,3.1c3.1,1.1,4.4,2.4,4.2,3.7l-0.4,2.2
							c2.9,0.7,4.6,1.5,5.9,3.3c2,2,2.9,3.3,2.9,4.4v1.5c2.6,2.4,4,3.5,4.2,4.2l0.4,1.1c0,0,2.4,6.2,2.4,7.9c0,1.5-0.4,2.4-1.5,2.6
							l-1.8,0.2l-2.2,1.8l-2.4,2.2l-3.1,3.3c-0.9,1.8-1.8,2.6-2.9,3.1l-1.8,0.7l-0.7,1.1c-1.8,2.6-2.9,3.7-3.7,3.7l-1.3,0.2
							c-2.2,2-3.7,2.6-5.3,3.3L760,707l-2.2,2.6c-0.2,1.5-1.5,2.6-4.6,4l-4,2c0.2,0.9-0.2,1.8-1.5,2.9c-1.3,1.1-2.4,1.8-3.3,2.2
							l-1.3,0.7c-2.4,2.4-3.7,3.5-4.8,4l-1.8,0.7l-0.9,2.9l0.2,4.2l0.2,3.3l3.1,3.3l2.4,2.4l2.4,1.5l4,1.1l1.3-2.2
							c2.2-1.8,3.3-2.4,4.2-2.9l1.1-0.4c2.4-2.4,4-3.3,5.1-4l1.5-0.9l1.3-1.1l5.1-3.7c-0.2-0.9,0.7-2,2.4-2.4l2.9-0.7l0.9-2l2.2-2.6
							c1.3-1.3,2.6-2.2,4.2-2.6l2.2-0.7l1.3-2.6l5.9-4.2c2.6-2,4.2-2.6,4.8-2.9l0.9-0.2l3.5-2.9c0.4-1.1,1.8-2.4,4.4-4.4l3.3-2.4
							c0-0.4,1.1-0.9,3.1-1.1c0,0,4.2,3.1,4.6,4.4l0.7,2l2.4,1.8c3.1,1.5,4.4,2.4,5.1,3.3l0.9,1.5l-0.7,2.4c3.1,2.4,4.4,3.3,4.8,3.7
							l0.7,0.9l1.1,2.4c2.4,2.9,3.5,4.4,3.5,5.5v1.3l2.4,1.8c2,0.9,3.1,2,3.5,4.2c0.2,2.2-0.2,3.3-1.8,3.7l-2.4,0.9l-3.1,1.8l-1.8,2
							c-1.3,2.4-2,3.3-2.6,4l-1.1,0.9c-3.5,2-5.3,2.9-6.2,3.1l-1.5,0.2l-2.6,2c-1.3,2.2-2.4,3.1-3.3,3.3l-1.3,0.2l-2.2,3.7
							c-0.9,1.3-1.8,2-3.1,2.9c-1.3,0.7-2.4,1.1-3.3,1.3l-1.3,0.2c0,0-4.6,5.3-6.2,5.9l-2.4,1.1c-0.7,2-1.3,2.9-2.2,3.3l-1.1,0.4
							c-1.3,2.2-2.4,3.1-3.5,3.5l-1.8,0.9c0,0-4.6,4.6-6.6,5.7l-2.6,1.3c-1.3,1.3-2.9,2.4-5.1,3.5l-2.9,1.3l-1.1,2.4
							c-1.1,1.8-2.2,2.4-3.5,2.9l-2,0.4c-0.4,2.2-1.1,3.7-2.2,3.7H756l-2.9,2.2l-3.1,2.2c-0.7,2.4-1.5,3.7-2.6,4.4l-1.5,0.7
							l-4.6,0.9c-0.7,2.2-1.5,3.7-2.9,4.6c-1.3,0.9-2.6,1.1-4.2,0.2c-1.5-0.9-2.4-1.5-2.6-2.2l-2.6-2.6c-2.2-2.2-3.3-3.7-3.5-4.8
							l-0.2-1.8l-1.3-2.6c-2-0.7-3.3-1.3-3.7-3.1l-0.7-2.4c-0.2,0-0.4-0.2-0.7-0.2c-4.8-1.8-4.8-4.8-5.1-5.9l-0.4-1.5l-2.2-2.6
							c-2.6-0.2-4.2-1.1-5.1-2.2c-1.1-1.1-1.5-2-1.3-2.9l0.2-0.9l-3.1-4.2c-2.2-0.7-3.5-1.5-4.2-2.4l-1.1-1.3l-0.2-2.2
							c-2.4-2.4-3.3-4.2-3.5-5.3l-0.2-1.8c0,0-4.6-4.8-4.8-6.2l-0.4-1.5c-2.9-1.1-4.2-2-4.2-3.3L683,749l-2-0.7
							c-3.5-3.3-4.8-5.1-5.1-5.9l-0.4-1.1c-2.6-1.5-3.5-2.4-3.7-3.3l-0.4-1.1c-2.2-1.8-3.1-3.3-2.4-4.2l-2.4-2.6
							c-3.1-1.5-4.4-2.9-4.4-3.7V725l-0.7-0.4c-4.2-3.3-4.8-5.9-5.3-7.3l-0.7-2l-1.5-1.5l-2.4-2.2l-2.9-2.4
							c-1.5-1.5-2.4-2.9-2.4-4.6l0.2-2.2l-2.9-0.4l-2.4-2.2c-0.9-0.9-1.3-1.5-2-2.4c-1.1-1.1-1.5-2-1.3-2.6l0.4-1.1
							c-2-1.5-2.9-3.1-2.6-4.8c0.2-1.8,0.9-3.1,1.8-5.1c1.1-2.2,2.6-3.5,4.2-3.7l2.4-0.2l2.2-2.9l0.2-1.1c2-2.6,3.1-4.2,3.7-4.8
							l1.1-1.1c2-1.1,3.3-1.8,5.1-2.4l2.4-0.9c0,0,2.6-4.6,4-5.7c1.5-1.1,2.2-1.3,3.5-1.8l1.8-0.4c1.1-2.2,2.4-3.3,3.7-3.7l2-0.7
							c0,0,4-4.8,5.5-5.7l2-0.9c1.1-2.4,2.4-3.7,4.8-5.9c1.3-1.5,2.4-2.4,3.5-2.6l1.5-0.2l-0.7-2c1.8-2.4,3.5-3.7,5.1-4.2l2.4-0.4
							l1.3-2.4c1.1-2.2,2.2-3.3,2.9-3.5l1.1-0.2c2.9-2.4,4.4-3.5,5.1-4l1.1-0.7c0.4-1.5,1.5-2.6,3.1-3.5l2.4-1.3l2.2-2l1.8-2.6
							c0.9-1.1,1.5-1.8,2.6-2.6l1.3-0.9c2-2.6,3.5-3.7,4.6-4.2l1.5-0.7l2.2,0.2C732.5,604,733.6,604.5,734.4,605.4z M677,683.9
							c-0.4-1.5-0.2-2.2,0.2-3.1l0.7-1.1l-0.9-3.5l-1.8-2.4c-2-2-3.3-4-4.4-7.3c-0.9-2.9-1.3-4.6-1.1-6.6l-0.2-3.7l-0.2-2.9
							c-1.8-2.2-2.4-4-2.4-6.4c-0.2-2.4,0.4-3.7,1.8-3.7h2.2l1.3-1.1l3.5-1.1c2.9-2.2,4.6-3.1,5.7-2.9l1.5,0.4l2.9-1.5l3.7-1.5
							l4-1.3l4.2-1.8c2.2-0.9,4-1.3,6.6-1.8l4.4-1.1l2.4-1.1c1.5-1.8,2.9-2.6,4.6-3.1c2.6-1.1,4.8-1.8,7.7-2.4l1.8-0.4l4.8-1.8
							c1.5-1.1,2.6-1.8,3.7-1.8h1.5c1.3-1.3,2.6-2.2,3.7-2.4l1.5-0.2h3.7l4.6-1.5c1.1-2,2.2-2.9,3.1-3.1l1.3-0.2h2.4l5.5-1.5
							c0.7-1.1,1.8-2,3.3-2.2l2.4-0.2l2-1.1c1.8-1.1,3.1-1.5,4.8-2.2l2.4-0.7l2.6-1.5c0.7-0.4,1.3-0.7,3.1-1.1
							c1.8-0.4,3.1-0.2,4.6,0.4s2.4,1.3,2.4,2.9v2c2.4,2,3.5,3.1,3.3,4l-0.4,1.1c1.5,2,2.6,3.5,3.5,5.9c0.9,2.9,1.3,4,1.5,5.1
							l0.2,1.3l-0.7,3.7l2,4.2c1.3,1.3,2,2.6,1.8,3.7L800,637l-5.9,2.4l-1.5,0.7l-3.3,1.3l-3.3,0.9l-3.1,1.8l-3.1,1.8
							c-1.1,1.5-2.4,2.2-3.5,2l-1.8-0.2c-2,1.8-3.7,2.6-5.7,3.1l-5.3,1.1l-1.1,1.1l-3.3,2c-1.1,1.1-2.4,1.5-4.4,1.8l-3.1,0.4
							c-1.3,1.8-2.6,2.4-3.7,2.9l-1.8,0.7l-1.5,1.1c-2.2,1.1-3.3,1.3-4.8,1.8l-2,0.4c-2,1.8-3.5,2.4-4.8,2.4l-2.2,0.2
							c0,0-4.6,2.9-6.4,3.1l-2.4,0.4l-2.4,1.3c0,0-5.7,3.3-7.7,3.5l-2.6,0.2c-0.7,2-1.8,3.1-3.3,3.3l-2.4,0.4l-2.2,0.9
							c-1.8,1.8-2.6,2.4-3.5,2.9l-1.5,0.7h-5.3l-1.3,1.8l-3.5,1.1c-0.9,1.5-2.6,2-5.1,1.1C678.6,686.3,677.5,685.2,677,683.9z"/>
					</g>
				</g>
			</g>
			<g>
				<g>
					<g class="st0">
						<path class="st1" d="M822.2,633.5h62c29,0,50.2,11.7,50.2,38.7c0,17.6-12.8,29.5-27.3,33.9c18.9,5.1,31.5,18,31.5,37.6
							c0,33.9-28.6,43.8-59.2,43.8h-57.2V633.5z M910.4,674.7c0-13-7.9-21.6-28.4-21.6h-36.7v44.2h35.9
							C900.5,697.3,910.4,689,910.4,674.7z M914.6,742.4c0-15.8-8.6-25.5-33.2-25.5h-36.1v50.8h36.7
							C904.5,767.7,914.6,759.1,914.6,742.4z"/>
					</g>
				</g>
			</g>
			<g>
				<g>
					<g class="st0">
						<path class="st1" d="M982.6,814.1l-1.5,0.4h-0.9l-1.1,0.9l-0.9-0.4l-1.5,0.4l-0.9-0.2l-0.7-0.7l-1.5-0.4l-1.8-1.1l-0.9-0.7
							h-1.5l-0.7-0.9l-0.7-1.1l-1.1-0.9l-0.4-0.4l-0.2-1.3l-0.7-0.4l-0.4-1.5l-0.2-0.7V804l-0.7-1.3v-1.3l-0.2-0.7l0.2-2.4l0.4-1.1
							v-0.9l-0.7-1.3l0.9-1.5l-0.2-0.9v-1.1l-0.2-0.9l0.2-2.2l-0.2-1.1l0.2-1.1l-0.4-1.8l0.2-0.4l0.4-1.1l0.2-0.9l-0.2-1.5v-0.9
							l-0.2-1.3l0.4-0.9l-0.4-1.5l0.9-0.9v-0.9v-0.9l0.2-1.1v-1.3l-0.4-0.9l0.9-2.4v-1.3l0.2-0.4v-1.1l-0.2-1.5l0.2-0.7l-0.2-1.3
							V760l0.2-0.7l0.4-1.8l0.2-0.7l-0.2-1.3l0.2-0.7l-0.2-1.5l0.2-0.7l-0.7-1.1l0.2-1.5V749l0.2-1.8l-0.4-1.5l-0.4-1.3V744l0.2-1.1
							v-1.3l0.4-1.3v-0.7v-1.8l-0.2-0.4l0.2-1.5l-0.7-0.7l0.9-1.1l-0.7-1.3l0.4-0.9l0.2-1.5l-0.2-0.4l0.2-1.3v-2l-0.2-1.8v-1.1
							l0.2-0.9l-0.7-0.9l0.2-1.8v-0.4l0.4-1.1l-0.2-1.8l-0.2-1.1l0.4-0.9l-0.2-2l-0.2-1.5v-0.9l0.4-1.1l-0.2-0.7v-1.1l0.7-1.3
							l-0.4-1.1l0.2-1.3v-1.5L967,700l0.2-1.5l-0.4-0.9l0.2-1.1l0.2-0.9l-0.2-1.3l-0.4-1.1l-0.2-2.6l0.2-0.9l0.4-1.1l-0.4-0.9
							l-0.2-1.8l0.4-0.4l-0.4-1.3l0.2-1.1l0.2-1.5l-0.2-0.4v-1.3v-0.9l-0.2-1.3l0.4-1.1l-0.7-0.9l0.2-0.9v-1.5l-0.4-0.7v-1.1
							l0.7-1.3v-1.5l-0.2-0.9l-0.2-0.9l-0.2-1.3l0.2-2.2v-1.1l-0.2-1.1l-0.2-1.8l-0.9-0.4l-1.8-0.7l-1.5,0.2l-1.1,0.2l-1.5-0.2
							l-1.1-0.2l-0.9,0.4h-1.5l-0.4,0.2l-2.9,0.7h-1.1l-0.2,0.2h-1.3l-0.9-0.2l-1.3,0.2l-1.3,0.4l-0.9,1.1l-0.9,0.2l-0.7,0.9
							l-1.8,0.7l-0.7,0.7l-2,0.4l-0.9,0.9h-1.3l-1.3-0.7l-0.7,0.4l-0.9-0.9l-1.1-0.4l-0.9-0.2l-0.7-0.2l-1.5-2l-0.9-1.3l-0.2-1.8
							l0.4-1.5l-0.7-1.3V654v-0.9l0.4-1.3v-2.6l-0.4-0.7l0.2-1.1l-0.2-1.3v-1.3l0.4-0.9l-0.4-0.7v-1.3l-0.2-1.3l0.2-1.1l-0.2-1.3
							l0.2-1.5l0.2-1.1l0.2-1.1v-1.5l0.4-0.7l0.9-1.3V630l0.9-0.7l0.9-0.7l1.1,0.2h2.9h0.4l1.3,0.2l1.1,0.7l1.1,0.7l1.3,0.2l0.7,0.4
							l2.2,0.2l0.2,1.3h1.3l0.9,0.9l1.3,0.7l2,0.9h0.9l1.1,0.9l1.1,0.2l0.7,0.7l1.1-0.4l2.4,1.1l0.7,0.4l1.1,0.2l0.9-0.2l2,0.7
							l1.3-0.4l2.4,0.7l0.9,0.4l0.7-1.3l-0.9-0.4v-1.1l-0.9-1.3l0.4-2.4v-0.4v-1.8v-1.1l-0.7-1.1l-0.2-0.9l0.4-2.4l-0.7-0.7V623
							l-0.4-1.3l-0.7-1.5v-0.7l-0.9-2.4l-0.4-1.3v-0.2l-0.2-1.8l-0.9-1.1l-0.7-0.7l0.2-1.1l-0.7-2.4l0.2-1.1l-0.2-0.7l0.4-1.3
							l0.7-1.5v-0.4l0.7-1.1l0.4-1.3l1.1-0.7l1.5-0.9l1.3-0.4l1.1-0.7h1.3l1.1-0.4l0.2,0.2l1.1,0.4l2.4-0.2l1.5,0.2h0.9h1.1l1.1-0.2
							h0.9h1.1h1.1h0.7l1.8,0.4l0.4-0.2h1.5l1.3,0.7l0.9-0.4l2.4,0.2h1.1l2.4,1.1l1.1-0.2l1.1,0.9l0.9,0.4l0.9-0.2l1.1,1.1l1.3,0.7
							l-0.2,1.3l0.2,1.1v1.3l1.1,2l-0.9,0.2l-2,1.8l-0.7,0.7l-0.4,1.1l-0.9,2.4l-0.4,0.7l-0.4,0.7l-1.1,0.9l-0.2,0.9l-0.2,1.3
							l-0.4,1.3l-0.9,0.7l-0.2,1.3l-0.4,1.1l0.2,0.9l-0.2,0.9l-0.4,0.7l-0.2,1.1L991,628v2.9v1.1l-0.7,2.4v0.4l0.4,1.3v1.5l0.4,1.1
							h0.9l1.3-0.9h1.3l0.7-0.4l0.9-0.2h1.5l0.9-0.2l1.8-0.7l1.1-0.4l0.4-0.7l0.9-0.7l1.5-0.7l0.9-0.9l0.7-0.4l0.9-2l0.7-0.7
							l1.1-0.9l0.2-1.1h0.9l0.7-0.9l2-1.8l0.9-1.3l0.4-0.4l0.9-0.2l1.1-0.4l1.5-0.7h1.1h1.1l0.4-0.2l1.3,0.9l1.1,0.2l0.4,0.9
							l1.1,0.4l-0.4,0.7l0.4,0.9l0.7,2l0.4,1.1l0.4,0.7l0.7,1.3l-0.2,1.1l0.4,0.9v1.5l-0.2,0.7v1.3l0.2,1.3v1.3l-0.4,1.1l0.4,0.9
							l0.4,1.3l-0.4,1.5l0.4,1.8v0.9v1.1l-0.7,0.4l0.7,1.8l-0.4,0.4l-0.4,1.1l0.4,1.1l-0.4,1.5l0.4,0.9l-0.7,2v1.3l-0.2,0.7l0.2,1.1
							l-1.1,0.9l-0.4,1.1l-0.4,0.9l-0.4,1.3l-1.1-0.2l-1.3,0.7h-2l-1.5-0.9h-0.7l-1.3-0.4l-0.9-1.1l-1.1-0.7l-0.9,0.2l-2.2-0.2
							l-0.2-0.4h-1.1l-2.4-0.9l-0.9-0.9l-1.1-0.2l-0.7-0.4l-1.1,0.7l-0.9-0.4l-1.1,0.4l-0.9,0.4l-2.4-0.4l-0.9,0.7l-1.5-0.2
							l-0.2,0.2l-1.1,0.9l-0.2,1.3l-0.4,0.9l0.7,1.1l-0.4,1.5v1.1l0.2,1.3v0.4l0.4,1.5l-0.2,0.9v1.5l-0.4,0.7v1.5l0.4,0.7v1.3v0.9
							l0.2,1.3l-0.4,0.4l0.2,1.1v1.5l-0.2,1.1l0.7,1.1l-0.7,0.7l0.7,1.1l-0.7,1.3v1.5l0.2,0.7v2l0.2,1.8l0.2,0.9v0.9l-0.7,1.1
							l0.2,1.1v1.3l-0.2,1.5l0.2,1.1l-0.4,0.9l-0.2,1.3l0.4,1.8l-0.2,0.9l-0.2,1.5l-0.2,1.3v0.9l-0.2,1.3l0.2,1.1v0.9l-0.7,1.5
							l0.2,0.9v1.1v0.9l0.2,1.5l-0.4,0.7v1.1l0.4,1.5l-0.4,0.9l-0.4,0.9l0.7,1.3l-0.7,1.1l0.2,1.3v1.3v0.7l0.4,1.3l-0.7,0.9l0.7,0.9
							l-0.2,2.6l0.2,1.3l-0.7,0.9l0.4,1.3l-0.2,0.4l-0.7,1.5l0.2,1.3l-0.7,1.5l0.7,1.3l-0.2,1.5v0.4v1.8l-0.4,0.7l0.2,1.5l-0.7,0.7
							l0.4,1.1l0.2,1.3l-0.4,0.9l-0.2,1.1l0.2,1.1v0.7v1.5l-0.7,1.3l0.7,1.1l-0.7,1.1l0.4,0.4v1.8v0.4l-0.2,1.3l-0.7,1.3l1.3-0.2
							h0.9l0.2-1.3l1.3-0.2l1.1-2l0.4-0.9l0.9-1.3l0.9-0.7l0.9-0.9l0.4-0.2l1.3-1.1l0.2-0.7l0.4-1.1l1.3-1.1l0.7-0.4l0.9-0.9
							l0.4-1.1l0.9-1.3l0.7-0.2l0.4-1.3l1.8-2l0.4-0.2l0.4-1.3l0.9-0.4l0.2-0.9l1.3-0.9v-1.1l1.3-1.1l0.2-0.9l0.9-0.7l0.7-0.4
							l0.9-0.7l0.4-1.3l0.9-0.7l0.7-1.1l0.4-0.7l1.1-0.9l0.7-0.9v-1.1l1.1-0.4l0.4-1.1l0.4-0.4l1.5-0.9l0.4-0.9l0.4-1.3l1.1-0.2
							l1.3-2.4v-0.4l1.3-1.1l0.4-0.4l0.7-0.9l0.9-0.7l0.2-0.9l1.1-1.3l0.4-0.7l1.1-0.9l0.2-0.4l1.1-0.9l1.1-0.9v-1.3l0.9-0.7
							l1.1-0.9l0.4-0.7l0.7-1.1l0.4-0.7l1.3-0.4v-1.1l1.3-0.7l0.4-1.3l0.4-1.1h0.9l1.1-1.3l0.4-0.4l0.4-0.9l0.9-1.1l1.3-0.9l0.7-0.4
							l1.3-1.8l0.4-0.9l0.7-0.9l0.2-1.1l1.3-0.9l0.4-0.7l0.4-1.1l1.5-1.3l0.4-1.1l0.7-0.7l1.3-1.1l0.7-0.4l0.4-1.3l0.7-0.7l0.2-1.1
							l1.1-0.9l0.7-0.9l0.2-0.4l1.3-1.5v-0.7l0.9-0.4l0.9-1.1l0.4-1.3l0.9-0.2l0.9-1.5l0.9-0.4l0.4-0.9l0.2-1.1l0.9-1.1l0.7-0.2
							l0.7-1.3l1.1-0.9l0.2-1.1l1.3-0.7l0.7-1.1l0.9-0.7l0.2-0.4l0.7-0.7l1.1-1.1l1.5-1.5l0.7-1.1l0.4-0.9l0.7-0.9l1.1-0.4v-1.3
							l0.7-0.9l1.1-0.7l0.4-0.7l0.7-1.1l0.7-1.1l1.3-0.2l0.2-1.3l1.1-0.4l0.4-1.1l0.9-0.7l0.4-1.1l0.7-0.4l1.3-1.1l0.2-1.3h1.1
							l0.4-1.5l0.7-0.2l0.7-0.9l0.7-0.9l0.9-1.3l0.7-0.7l0.7-0.9l1.1-1.1h1.1l0.2-1.5l0.9-0.4l0.7-1.3l0.7-0.2l0.4-1.3l1.5-0.4
							l0.4-1.1l0.2-0.2l0.9-0.9l1.3-0.9l0.7-1.3l0.4-0.7l1.1-1.5l1.5-0.4l0.7-1.5l0.2-0.7l0.7-0.9l1.1-0.4l0.2-1.1l1.5-0.4l0.7-1.3
							l0.4-0.9l0.4-0.4l0.9-1.3l0.9-0.4l0.7-0.7l0.9-0.9l0.9-0.9l0.4-0.7l0.7-0.9l1.1-0.7l0.2-0.9l0.7-1.1l1.3-0.9l0.4-0.9l1.1-0.4
							l0.7-0.9l0.9-2l1.3-0.9h0.4l1.3-0.4l1.1-1.3h0.2l1.8-0.2l0.9-0.2l0.4-0.2h1.1l2.6-0.4h1.3l1.5,0.2h0.9l0.9,1.1l0.9-0.2
							l1.1,1.3l0.7,0.2l0.4,1.1l1.3,0.9l0.2,0.7l0.4,1.5v1.8l0.4,1.1v1.3l0.2,0.9l0.7,1.1l-0.7,1.1l0.7,0.9l0.2,1.1l-0.4,1.5
							l0.7,0.4l-0.4,1.5l0.2,1.3l0.2,0.7l-0.7,0.9l0.7,1.1l-0.4,1.8v0.2l-0.4,1.1l0.7,1.1l-0.4,1.8l0.2,1.1l-0.2,2l-0.4,0.9
							l-0.2,1.3v0.4l0.4,2.4l-0.4,0.9l0.4,2.2l-0.2,1.1l0.2,1.8v0.7l-0.7,1.3l0.4,1.3l-0.2,0.7v1.5l-0.2,0.9v0.9l0.7,0.9l-0.7,0.9
							l0.2,1.3v1.5l0.4,0.7l-0.4,1.1l-0.2,0.9l0.2,1.1l0.2,1.3l0.2,0.9v1.5l-0.4,0.9l-0.2,1.5v1.5l0.7,1.3l-0.2,1.3v1.1l-0.4,0.7
							l0.2,1.1l-0.2,1.1l0.4,1.8l-0.2,0.7v1.1v1.1l-0.4,1.3v0.9l0.4,0.7l0.2,1.3v1.1l-0.7,0.9l0.7,1.3l-0.9,1.1l0.4,0.9v1.5
							l-0.4,1.3l0.7,0.7l-0.4,1.5l0.2,0.4l-0.2,1.8l-0.4,2l0.7,1.1v0.9l-0.2,1.5l-0.2,1.1l0.2,0.9l-0.2,1.1l-0.7,1.3v0.4l0.2,1.3
							v1.5l-0.2,1.1v2.2v0.9l0.7,0.9l-0.2,1.3v0.9v0.9l0.4,1.1l-0.2,2.6l0.4,1.3l-0.4,0.4l-0.2,1.1l0.2,1.3l-0.4,1.5l0.4,0.9
							l0.2,1.1l-0.2,1.3l-0.4,0.7v0.9l-0.2,1.5l0.4,2l-0.2,1.1l0.2,1.1l-0.2,1.3l0.2,0.9v1.5l-0.4,0.4v0.9l0.2,1.5v0.7v1.3l0.2,1.5
							l-0.4,1.1l0.4,1.1v0.4l0.2,1.1l2.2-0.9l1.1,0.2l1.5-0.2l1.1-0.9l1.1-0.9l1.5-1.3l0.7,0.2l1.3-1.1l0.2-0.2l1.3-0.9l0.9-0.9
							l0.2-1.1l1.5-1.3l3.1-1.8l1.5-0.7l0.4-0.4l1.1-0.4l1.5-0.7h0.7l1.3,0.2l0.9,0.4l0.9,1.1l0.9,0.9l0.9,0.4v1.5l1.3,2.2l-0.2,1.1
							l0.2,1.1l0.2,0.7l0.9,1.5l0.2,0.7l-0.2,1.1l-0.2,2.4v1.3l0.2,0.4v1.5l-0.4,0.4l0.7,2.4l-0.2,1.3l-0.4,0.9l-0.4,1.5l0.7,0.7
							l-0.7,1.1l0.7,1.5l-0.4,0.7l-0.2,1.5l0.4,0.7l0.2,2.4l0.7,0.4l-0.4,1.5l-0.2,0.7l-0.2,2.6v0.4l-0.2,1.5l-0.9,0.7l-0.9,0.9
							l-0.2,1.1l-0.7,0.7l-0.9,0.9l-1.3,0.2h-0.9h-1.3l-1.8-0.4l-1.1-0.7l-1.3,0.2l-0.9-0.4l-1.1-0.4l-2-1.5l-0.2-0.7h-0.9l-1.3-1.3
							l-0.4-0.2l-1.3-0.4l-0.2-0.7l-1.3-1.5l-1.3-0.7l-0.4-0.9l-1.3-0.7l-1.1-0.4l-0.9-0.2l-1.1,0.2l-2.6-0.7l-0.9,1.1l0.2,1.5
							l0.7,0.9l0.4,0.7l-0.2,2.4l0.4,0.7l0.2,1.8l0.7,0.2l-0.2,1.5l0.2,0.9l0.4,1.5l0.2,0.7l0.4,1.3v0.4l0.7,1.8l0.2,1.1l0.2,0.4
							l0.2,1.3l0.2,1.3l0.7,1.3l-0.2,0.9l0.4,0.7l0.4,1.5l0.2,2l0.2,1.3l0.4,0.9l-0.4,0.7l-0.4,1.5l-0.2,1.1l-0.7,0.4l-0.2,0.9
							l-1.1,1.3l-1.3,0.7l-0.7,0.4h-0.9l-2.4,0.4h-1.5l-0.4,0.4l-1.8-0.4h-1.1l-1.1,0.4l-0.7-0.2l-1.5,0.4l-0.2-0.2h-1.8l-1.1,0.2
							l-1.1-0.2l-0.7,0.2h-2.4l-0.7,0.4l-1.5-0.2l-1.1-0.2h-1.3l-0.4-0.2l-0.7-0.9l-0.9-0.7l-1.1-1.1l-0.7-0.2l-0.4-1.3l-0.4-1.1
							l-0.2-2l-0.2-1.3l-0.2-0.9l0.2-0.9v-1.5l0.2-0.7l0.4-1.5l0.7-0.4l-0.4-1.3l1.1-1.3l-0.2-0.2l1.1-2.9l0.2-0.9l0.2-0.9l0.2-0.4
							v-1.8l0.7-0.4l0.2-1.1l0.2-1.1l0.4-1.5l0.2-0.4l-0.4-1.8l0.2-0.9l0.7-0.4l-0.2-1.1l-0.2-2.6v-0.9v-0.7h-2h-0.7l-1.5,0.4
							l-0.4,0.4l-1.1-0.2l-1.3,0.2l-0.9,0.7l-1.8,0.2l-0.4,0.4l-1.5,0.4l-0.7,0.4l-0.4-0.2l-1.1,1.3l-2.2,1.1v0.4l-0.9,0.9h-1.3
							l-0.9,0.4l-2,0.9l-1.5-0.2l-1.3-0.4l-1.5-0.4l-0.4-0.9h-0.7l-1.8-2l-0.4-1.1l-0.7-0.9l0.2-0.9v-1.1l-0.2-2.9l-0.7-0.4v-1.3
							l-0.2-1.1l0.2-1.5l-0.2-0.7l-0.4-1.5v-1.1l0.2-0.4l-0.4-1.5l-0.2-1.5l0.4-1.3l-0.7-0.9l0.2-1.8v-1.1v-0.9l-0.7-1.3l0.7-0.9
							l-0.9-0.7l0.2-2.9l0.4-1.1l-0.4-1.1v-0.7l0.7-0.7l0.2-1.1l0.7-1.5l0.4-0.2l1.5-0.7l0.4-0.4l1.1-0.7l1.3,0.2l0.7,1.1l2.2,0.9
							h1.3l0.2,1.1l1.3,0.4l1.3,0.7l1.8,1.3l0.7,0.9h0.9l0.9,1.1l0.4,0.4l1.5,0.2l0.2,1.1l1.3,0.2l1.1,0.4h1.1l0.9,0.7l1.3,0.7
							l0.4,0.2l1.3-0.2l1.8,1.1l0.2-1.3v-1.3v-2l-0.2-1.1l0.2-1.3l0.4-0.4v-1.5v-1.3v-1.1l-0.4-0.7l0.2-1.1l-0.4-1.5l0.7-0.4
							l-0.7-1.8l0.7-0.4l-0.4-1.8l0.2-1.1v-1.1l-0.4-2l0.7-0.7l-0.7-1.8l0.7-0.4l-0.9-1.1l0.4-1.3l0.2-1.1l-0.4-1.1l-0.2-1.3
							l0.7-0.9l-0.7-1.5l0.7-0.7l-0.9-0.9l0.2-1.3l0.4-0.9l-0.2-1.3l-0.4-0.9v-1.5l-0.2-0.4l0.4-1.3V709l-0.4-0.7l0.2-1.3l0.2-0.9
							l-0.7-1.3v-1.3l0.2-0.7l0.4-1.3l-0.2-0.9v-1.8l-0.4-0.9l-0.2-1.3l0.4-1.5l-0.2-1.5l0.4-0.9v-1.1l0.2-0.7v-0.9v-2.9l-0.4-0.4
							v-1.1v-1.5l0.4-0.9l-0.2-1.5v-0.4l-0.2-1.5l-0.2-0.9l0.2-1.1l0.2-0.9l-0.7-1.8l0.4-1.1l-0.2-0.7v-0.7v-1.5l0.2-1.3l-0.2-1.1
							l0.2-0.4v-1.5l-0.4-1.1l0.2-1.3l-0.4-0.4l0.4-1.1l-0.2-1.1l-0.4-1.8v-0.4v-1.5l-0.2-2.4l0.4-1.3v-0.4l-1.3,0.7l-0.2,0.9
							l-1.1,1.5l-0.9,0.7v0.4l-0.9,1.3l-0.9,0.4l-0.7,1.3l-1.1,1.1l-0.2,0.7l-0.4,0.7l-0.9,0.9l-1.1,0.9l-0.7,0.7l-0.7,0.9v0.9
							l-0.9,1.5l-1.1,0.4l-0.7,1.1l-0.7,0.4l-0.2,1.5l-1.8,1.5l-0.7,0.9l-0.4,1.1l-0.7,0.4l-1.1,0.4l-0.2,1.5l-0.7,0.2l-0.7,1.3
							l-0.7,1.1l-1.1,0.9l-0.9,0.4l-0.4,0.9l-0.9,1.1l-0.7,0.7v1.1l-1.3,0.4v1.3h-0.9l-0.7,1.1l-1.1,0.9l-0.4,1.1l-1.1,1.1l-0.2,0.4
							l-0.4,0.7l-0.7,0.9l-1.3,1.3l-0.4,0.9l-1.5,1.8l-0.4,0.2l-0.9,1.1l-0.4,0.7l-0.7,1.3l-0.9,0.9l-0.7,1.1l-1.1,0.7l-0.7,0.7
							l-0.2,1.1l-0.9,0.4l-0.4,0.7l-0.9,0.9l-0.7,0.9l-0.7,1.3l-0.9,0.7l-0.7,0.7l-0.7,0.9l-1.5,0.7l-0.7,1.3l-0.7,0.4l-0.7,1.3
							l-0.9,0.9l-0.9,1.8l-0.9,0.4l-0.4,0.7l-1.1,0.7l-1.1,0.9l-1.3,2l-0.4,1.1l-0.4,0.9l-0.4,1.1l-0.9,0.2l-0.4,1.1l-1.1,0.9
							l-0.4,1.3l-0.4,0.9l-1.1,0.9l-0.4,0.4l-0.4,0.7l-0.9,0.9l-0.7,0.7l-0.4,1.1l-1.1,0.7l-0.2,0.9l-1.1,1.3l-0.7,0.2l-1.1,1.3
							l-0.7,1.1v0.2l-1.3,1.3l-0.4,0.4l-0.9,1.1l-0.4,0.7l-0.9,1.3l-1.1,0.7l-0.7,0.2l-0.4,0.9l-0.9,1.5h-0.7l-0.2,1.5l-0.7,0.7
							l-1.5,0.4l-1.3,2.2l-0.2,0.2l-0.7,1.1l-1.1,0.4l-0.4,1.5l-1.3,0.7l-0.7,0.4l-0.9,0.9l-0.2,1.3l-0.4,0.2l-0.9,0.9l-1.3,1.3
							l-0.7,0.9l-0.9,0.7l-0.4,0.4l-0.9,1.1l-0.9,0.4l-0.7,1.5l-0.9,0.2l-0.7,0.7l-0.4,1.5l-0.7,0.4l-1.1,0.7l-0.4,1.3l-1.1,0.9
							l-0.2,0.2l-0.4,0.9l-0.9,0.9l-1.3,0.9l-0.4,0.7l-0.9,1.1l-0.2,0.9l-1.5,0.9l-0.2,1.1l-0.7,0.2l-0.9,1.1l-0.7,0.7l-0.7,0.9
							l-1.3,1.3l-0.2,0.4l-1.1,1.1l-0.9,0.2l-0.2,1.5l-0.9,0.9l-0.9,0.2l-0.4,0.7l-0.9,1.5l-0.4,0.2l-0.9,1.3l-0.9,0.7l-0.4,1.1
							l-0.7,0.9l-1.3,0.2l-0.4,1.1l-0.9,1.1l-1.1,0.4l-0.4,1.1l-0.2,0.2l-0.9,1.5l-0.7,0.4l-0.9,0.9l-1.1,0.4l-1.5,2.2l-0.2,0.7
							l-2.2,1.8l-0.4,1.1l-1.3,0.2l-0.9,1.1l-0.2,0.2l-1.3,1.3l-1.5,0.9L982.6,814.1z M938.8,641.2l0.2,1.5l0.2,1.1v0.7v1.3v1.5
							l-0.2,0.4v1.3l0.7,1.1l-0.4,2h1.1l2.9-1.5l1.5-1.1l1.5,0.2l0.7-0.4h1.1l1.3-0.9l0.9,0.4l0.9-0.4l1.1-0.2l1.8-0.4l0.4,0.2
							l1.5-0.4h-0.2l-0.7-0.2l-0.7-0.2l-2.2-0.2l-0.7-0.9l-1.8-0.2l-0.9-0.7h-2l-2-0.9l-0.7-1.1l-0.4-0.4l-2-1.8l-0.9-0.4l-1.5-0.7
							l-0.4,0.7L938.8,641.2z M967,648.9l1.5-0.4l2.4,1.1l0.9,1.1l0.7,0.2l1.1,1.3l0.4,0.2l1.1,1.5l-0.2,0.4l0.4,0.9l0.7,1.1
							l0.2,1.3l0.7,2.6l-0.7,1.1l0.7,0.7v1.5l-0.2,0.7l0.2,0.9l0.7,1.5l0.2,0.9v0.7l-0.2,1.3l-0.4,0.9l0.4,1.8l-0.2,0.9l-0.7,2
							l0.7,1.1l-0.7,1.1l0.2,1.3l-0.2,1.3l0.9,0.9l-0.4,0.7l0.4,1.8l-0.2,0.4l0.2,1.3l-0.2,1.5l0.4,1.3l-0.2,1.8l0.4,1.1l-0.4,1.5
							l0.4,0.4l-0.4,1.3v1.3v1.3l-0.2,1.1v0.9v0.7l0.7,1.3l-0.4,0.9l0.4,1.3l0.2,1.3v1.1v0.9l-0.4,1.5v1.3v0.4v1.5l-0.2,1.1v1.3v2.2
							v0.9v0.9l0.2,1.5v0.7l-0.2,1.3l0.7,1.5l-0.2,1.1l-0.2,0.7l-0.4,0.9l0.4,1.5v0.9l-0.2,1.8v1.1l-0.2,2.2l0.7,0.4l-0.7,1.3v0.9
							v1.5l0.7,0.7l-0.2,1.5l-0.2,1.3l0.2,0.9l0.2,0.9l-0.2,1.1l-0.2,1.8l0.4,0.7l0.2,1.3l-0.7,1.3l0.2,0.7l0.2,1.3v1.3l0.2,1.5
							l-0.4,1.5l-0.2,0.7l-0.2,1.3l0.4,1.5l0.2,1.1l-0.2,0.9v1.3l-0.2,0.7v1.1l-0.2,1.5l0.2,1.3v0.7l-0.4,2.6l-0.9,0.9l0.2,2.6
							l-0.4,1.3l0.4,0.7l-0.4,1.5l-0.2,0.7l0.4,0.9l-0.2,1.3v0.9l-0.9,1.8l0.4,1.1v0.9l-0.2,0.9l0.2,1.1l-0.9,1.5l0.2,0.7l-0.2,1.5
							v1.1l-0.2,1.1l0.2,1.1l0.2,0.7l-0.9,0.9l0.4,1.1l0.2,1.1l-0.4,1.1l-0.2,1.1l0.2,1.8l-0.2,1.1l0.4,1.8l0.9,0.9l0.2,1.1l2.2,0.4
							l1.3-0.7l0.2-0.9l0.7-1.5l1.3-1.3h0.7l1.5-2.4l0.9-0.9l0.4-0.4l0.9-0.7l1.1-0.9l0.7-0.7l1.1-0.9l0.4-1.1l0.4-0.4l1.3-0.9v-0.9
							l0.9-1.1l1.1-0.7l1.1-0.7l0.7-1.1l0.2-0.7l1.3-1.3l1.5-1.5l1.3-1.1l0.7-0.9l0.9-1.5l0.2-0.9l0.7-0.2l0.7-0.9l0.4-1.1l0.7-1.3
							l1.1-0.7l0.9-0.2l0.4-1.3l0.9-1.1l1.1-0.2l0.9-1.8l1.3-0.7l0.4-1.5l0.4-0.2l1.1-1.3l0.7-0.9h0.9l0.2-0.9l0.7-1.3l0.9-0.4
							l0.7-0.7l1.3-1.5v-0.7l0.9-0.2l1.3-1.3v-0.7l1.3-0.9l0.7-1.1l0.4-0.7l0.9-0.7l0.4-0.9l0.7-0.7l1.5-0.4l0.2-1.3l0.7-0.2
							l0.7-1.3l1.1-0.7l0.7-1.1l0.4-0.7l0.7-0.9l0.7-0.7l0.7-0.9l1.1-1.1l0.7-0.2l0.7-1.5l0.7-0.9l0.9-0.9l0.9-0.4l0.2-1.1l1.5-1.5
							l0.4-1.1l1.3-0.9l0.2-0.2l0.7-0.9l1.1-1.5h0.4l1.1-0.9l0.4-0.9l0.9-1.3l0.7-1.1l0.2-0.7l0.9-1.1l0.7-0.9l0.9-0.4l0.9-1.1
							l0.4-1.1l0.9-0.2l1.8-2.2l0.4-0.9l0.7-0.4l0.4-0.9l1.1-0.9l0.7-0.7l0.2-1.3l1.1-1.1l0.7-0.7l0.9-0.7l0.4-1.1l0.7-0.7l0.4-0.7
							l0.9-1.1l0.4-0.9l0.7-1.1l0.7-0.7l1.3-0.4l0.4-0.7l0.9-1.1l0.7-1.5l0.7-1.3l1.1-0.9l1.1-0.7l0.7-1.1V700l0.9-0.9l1.1-0.9
							l0.4-1.5l0.9-0.7l0.9-0.9l0.7-1.1l0.4-0.7l0.4-0.7l0.9-0.9l0.4-0.7l1.8-2.2l0.4-0.4l1.3-1.3l0.7-0.9h0.2l0.9-1.1l0.4-0.9
							l1.1-1.3l0.9-0.9v-0.2l1.1-1.1l0.4-0.7l0.7-0.7l1.1-1.5l0.9-0.4l0.2-0.7l0.9-1.5l0.9-0.7l0.4-0.9l0.9-0.9l0.2-0.4l1.1-1.3
							l0.2-0.7l1.1-1.1l0.4-0.4l0.7-0.7l1.3-1.3v-0.9l1.3-0.4v-1.3l0.9-0.2l0.7-1.5l0.7-0.2l1.3-2l1.1-1.1l0.7-0.7l0.9-0.7v-1.3
							l0.9-0.7l0.7-0.9l0.7-1.1l0.9-0.7l0.7-0.9l0.2-0.4l1.1-1.3l0.2-0.4l1.1-0.9l0.9-1.1l0.7-0.9v-0.9l1.3-0.2l0.2-1.5l0.7-0.4
							l1.3-1.8l0.7-0.9l0.7-0.9l0.7-0.7l1.5-0.2l0.9-1.1l1.1-0.2l0.7,0.4l1.1-0.4l2.4,0.4h0.7h1.3l2.6,2.4l-0.2,0.2l0.9,0.9l0.4,1.1
							l0.4,1.5v2l0.2,1.3l-0.4,0.4l0.4,2.2v1.1l-0.2,1.5l0.2,1.1l-0.4,0.9l0.7,1.1l-0.2,0.7l-0.2,1.3l0.2,1.5l-0.2,1.1v0.9l0.4,1.3
							l-0.2,0.7l0.4,1.1l-0.7,1.5l0.7,0.9l-0.4,1.1l0.2,1.1l-0.4,1.5l0.4,0.9v1.1l0.4,1.1l-0.4,0.9l-0.2,0.9v1.8l0.7,0.4l-0.7,1.5
							l0.7,0.9v1.5l-0.4,1.8l-0.2,1.3l0.4,1.1v1.5l0.2,0.4l-0.2,1.5l-0.2,1.3l0.4,0.4l0.2,1.5l-0.7,1.1l0.7,0.9l-0.2,1.3l0.2,1.3
							l-0.2,1.8l-0.4,1.3l0.4,1.1v1.1l0.4,0.4l-0.4,1.1v1.5v0.9l0.4,1.1l-0.4,0.9v1.3l0.7,1.1l-0.4,0.7l0.4,2.2l0.2,1.8l-0.2,0.7
							l0.4,1.1l-0.2,1.3v0.7l0.2,0.9v1.1l-0.4,0.9v2.4l0.4,1.1v1.3l0.2,0.7l-0.7,1.5l0.2,0.7v1.8l0.2,1.1v2l0.2,1.1l-0.7,0.7v1.1
							l0.4,1.3l0.2,1.8l-0.7,0.7l0.7,1.1l-0.2,0.9v1.5l0.2,1.3l-0.2,1.1v3.1l-0.2,1.1l-0.2,0.7l0.7,2.4l-1.1,1.5l-0.7,1.3l-0.4,0.9
							l-0.2,0.9l-1.3,0.9l-0.4,0.4l-0.9,0.7l-0.9,0.4l-1.1,0.4l-2.2,0.7l-1.1,0.7l-1.3-0.2l-1.1-0.4l-1.1,0.4l-0.4-0.7h-1.3
							l-2.4-0.4l-0.7-0.9l-1.3-0.4l-0.2,0.2l-2.6-1.1l-1.1-0.7l-0.9-0.7l-0.9,0.2l-1.1-0.7l-0.9-0.7l-0.7-0.7l-0.4,0.2l-0.4,1.5
							l0.2,1.1l0.2,0.9l0.2,1.1v1.3l-0.4,1.1v0.7l0.2,1.3l0.4,1.3l0.2,1.1v0.4l0.2,0.4l0.7-0.2l1.3-0.4l0.7-0.9l1.8-0.4l1.5-0.4
							l1.1-0.4l1.1,0.2l0.4-0.4l0.9,0.2l1.5-1.1l1.1,0.4l0.7-0.2l1.1-0.9l1.1,0.4l2.4-0.4l0.4-0.4l1.1,0.7h1.8h0.9l0.7,0.7h1.1
							l0.9,0.9h1.3l0.9,1.1l0.2,1.1l1.3,0.7l0.7,1.3v0.9l0.4,1.1l0.2,0.7l0.7,1.1l-0.2,0.9l0.2,2.6v0.7l-0.4,1.8l0.4,0.4l-0.2,1.5
							l-0.2,0.9v1.3l-0.4,1.3l0.2,1.1v0.7l-0.2,0.7l-0.2,1.3l-0.2,0.9l-0.7,1.5l-0.4,0.9l0.2,1.1l-0.2,0.9l-0.9,0.9l-0.7,2.4
							l-0.7,1.5l-0.2,0.9l-0.4,1.3l1.1,0.4l0.9-0.4l1.5,0.2l0.7,0.2l1.8-0.2l0.7-0.2l0.9-0.2l1.8-0.4h1.3l0.4,0.4l1.1-1.1l-0.4-1.1
							l-0.7-0.9l-0.2-1.1V797l-0.7-0.9v-2l-0.4-1.1l-0.7-1.8v-1.1l-0.4-0.9v-1.1l-0.9-0.7l0.4-1.8l-0.9-2l-0.2-1.3l-0.7-1.1l0.4-1.1
							l-0.4-1.1l-0.2-0.7v-1.8l0.2-1.8l0.4-1.1l-0.2-1.8l0.4-0.9l0.2-0.4l0.9-1.3l0.7-1.1l0.9-0.7l0.7-0.9l2.6-0.2l1.1-0.4l0.4-0.9
							l1.3-0.4l1.3,0.4h0.7l1.3-0.2l1.5-0.2l0.7,0.7l1.3,0.4l1.3,0.4l0.9,0.2l2,0.4l0.9,0.9l0.7,0.7l1.1,0.2l0.9,1.1l0.9,0.7
							l0.9,0.7l1.1,0.4l1.5,0.7l1.5,1.5h0.2l0.4-1.5l-0.4-0.9v-0.9l0.2-1.8l-0.4-0.7v-1.1v-1.3l0.7-1.3l-0.7-0.7l0.7-0.9l-0.7-1.8
							l0.4-1.1l0.2-1.1l0.2-2.2l-0.4-0.2l-0.2-1.5h-1.1l-0.7,0.9l-0.7,0.4l-1.3,0.9l-0.7,0.2l-0.4,0.9l-1.1,0.4l-1.3,0.7l-1.1,0.7
							l-0.7,0.7l-1.3,0.2l-0.4,0.2l-1.3,0.4l-0.9,0.2l-1.8,0.4h-0.7l-1.3,1.1l-0.4-0.2l-2.6,0.2l-0.7,0.2l-2.2-0.4h-1.5l-0.9-0.4
							l-0.9-0.4l-0.9-1.1h-1.3l-0.2-1.3l-0.4-0.4l-0.9-1.1l-0.7-2.2l0.4-1.1l-0.7-2v-1.8l0.4-1.1v-1.5l-0.7-0.9l0.7-0.9v-0.9
							l-0.2-1.5v-1.3l-0.4-0.4l0.7-2.4l-0.2-1.5l0.2-1.1l-0.4-0.9l0.4-1.1l-0.2-1.1l-0.2-1.3v-0.9l0.2-1.1v-1.3l-0.2-0.7l-0.4-2.2
							l0.4-1.5l-0.2-0.9l0.2-1.1l-0.7-1.5l0.4-1.1l0.2-0.7l-0.7-1.5v-1.1l0.2-0.4l0.2-1.3l-0.2-1.1l-0.2-1.5l0.7-1.3l-0.7-0.9
							l0.2-1.3l-0.2-1.1l0.4-1.8l-0.4-1.3l0.2-1.3l-0.2-1.1l0.2-1.1l0.4-0.4v-1.8v-0.2l0.2-1.1l-0.7-1.1l0.7-1.5l0.2-1.1l-0.7-1.3
							l0.7-0.4l-0.4-1.1v-1.5l0.2-1.1l0.4-0.9l-0.2-1.1l-0.2-0.9V685v-1.1v-1.1l-0.2-1.1V681l0.7-1.5l-0.7-0.7l-0.2-2.6l0.7-0.9
							l0.2-2.2l-0.2-1.8l0.4-0.7l-0.2-1.8l-0.2-1.1l0.4-0.7l-0.2-1.3l0.2-1.3l0.2-1.1v-0.7v-1.3v-2l0.4-1.3v-1.1l-0.4-0.9l0.4-1.1
							l-0.7-1.8l0.2-0.9l0.4-1.3l-0.4-0.7v-2.9l0.2-1.3l0.2-0.9l-0.7-1.3l0.2-0.9v-1.1l0.4-1.8l-0.4-1.1l-0.2-0.9l0.2-0.9l0.4-0.9
							l-0.2-1.1l-0.4-1.3l0.2-1.3v-0.7l0.2-1.1l-0.2-1.1l-0.2-1.1v-1.5l0.4-0.4l-0.4-1.3l0.4-1.3l0.2-0.9l-0.4-0.9l0.2-1.8V619
							l0.2-1.3l-0.7-0.9l0.2-1.1l0.7-1.3l0.2-0.9l-0.9-0.7l-1.5,0.4l-1.5,0.7l-1.1,0.9v1.3l-0.9,0.2l-1.1,1.1l-0.4,1.1l-0.9,0.2
							l-0.4,1.5l-0.9,0.7l-1.1,0.2l-0.2,0.9l-0.7,1.5l-0.7,0.9l-1.3,0.7l-0.4,0.7l-0.4,0.7l-0.7,1.3l-0.9,0.9l-0.4,0.7l-1.5,0.4
							l-0.2,1.3l-0.9,0.4l-0.4,1.1l-1.1,0.4l-0.7,0.7l-0.9,1.5l-1.5,1.1v0.9l-0.9,0.9l-0.4,1.3h-1.1l-1.8,1.8l-0.7,0.9v1.1l-1.5,0.7
							l-0.2,0.7l-1.5,1.8l-0.7,1.3l-0.4,0.9l-1.1,0.4l-0.7,0.9l-1.1,0.9v0.7l-0.9,0.7l-0.9,1.5l-0.4,0.2l-0.7,1.1l-1.5,1.1l-0.2,0.7
							l-1.1,1.1l-0.2,0.7l-1.3,0.9l-0.2,0.9l-0.7,1.1l-1.1,0.4l-0.4,0.4l-0.4,0.9l-1.1,1.3l-1.3,1.3l-0.7,0.9l-0.4,1.5l-0.9,0.7
							l-0.4,0.4l-1.1,1.3l-0.4,0.7l-1.1,0.4l-0.2,1.3l-0.9,1.1l-1.1,0.7l-0.2,0.4l-1.1,1.5l-0.4,0.4l-1.1,1.1l-0.2,0.4l-0.4,1.1
							l-0.9,0.4l-0.7,1.3l-1.3,0.7l-0.2,1.1l-0.9,0.7l-0.9,1.1l-0.2,0.9l-1.1,0.4l-0.2,0.7l-0.9,0.9l-0.7,1.3l-0.9,1.1l-1.1,1.8
							l-0.7,0.2l-0.4,1.1l-1.3,0.9l-0.7,1.3l-0.9,0.7l-0.7,0.7l-0.2,1.1l-0.7,0.9l-0.4,0.7l-0.7,0.7l-1.1,1.3l-0.7,0.9l-0.4,0.7
							l-0.9,1.1l-0.7,0.7l-1.8,1.5l-0.7,1.5h-0.7l-0.9,1.5l-0.7,0.2l-0.2,0.9l-0.9,0.9l-0.9,1.3l-0.4,0.2l-0.9,1.1l-0.4,0.9
							l-0.9,0.7l-0.4,1.3l-0.9,0.7l-0.9,0.4l-0.7,1.3l-0.4,0.9l-0.9,0.9l-0.7,0.4l-0.7,1.1l-1.3,0.9l-0.4,0.4l-0.7,0.9l-0.9,0.9
							l-0.2,1.3l-1.3,0.2l-0.2,0.9l-1.3,1.3l-0.2,1.1l-0.9,0.4l-0.4,1.1l-0.9,0.9l-1.3,1.3l-1.1,0.9v1.3l-1.3,0.7l-0.7,0.4l-0.9,1.1
							l-0.7,0.7v0.7l-0.9,0.9l-0.9,0.9l-0.4,1.1l-1.3,1.1v0.9l-1.1,0.9l-0.4,0.9l-1.8,1.1l-0.4,1.1l-0.7,0.7l-1.3,1.5v0.2l-1.3,0.9
							l-0.2,1.3l-1.3,0.7l-0.7,1.1l-0.2,0.9l-0.9,0.7l-0.9,0.4l-0.4,0.9l-1.1,0.9l-0.4,0.9l-1.1,1.3l-0.2,0.7l-1.8,2.2l-1.1,1.5
							l-1.3,0.4l-0.7,0.7l-0.4,0.9l-0.7,1.3l-0.7,0.2l-1.1,1.3l-0.4,0.2l-0.4,1.1l-1.1,0.4l-0.2,1.5l-0.9,0.9l-0.4,0.7l-0.9,0.4
							l-1.1,0.9l-0.7,0.7l-1.3,1.5l-0.7,1.1l-1.1,0.9l-0.7,0.2l-0.7,1.1l-1.1-0.2l-1.5,0.7l-1.1,0.2l-2.4,0.2l-0.7-0.2l-1.5-0.7H983
							l-1.1-0.9l-0.7-0.7l-0.9-1.3l-0.4-1.3l-0.4-0.9v-1.8l0.2-1.5l-0.7-1.8l0.2-1.8l-0.2-1.1l0.4-1.5l0.2-0.4l-0.7-1.3v-1.3
							l0.9-1.3l-0.7-0.9v-1.1l0.4-0.7l0.2-1.1l-0.4-0.9l0.2-1.8l-0.2-1.1l0.2-0.9l-0.2-1.3l0.9-0.9l-0.7-0.9l0.7-0.9l-0.4-1.3
							l0.7-1.1l-0.2-1.3v-0.7l-0.4-1.8l0.4-0.9v-1.1l0.2-0.7l0.2-1.1l-0.2-1.5v-0.4l-0.2-1.5l0.4-1.3l-0.2-1.1l0.4-0.9V733l0.2-1.1
							l-0.7-2.2v-1.3l0.4-1.1v-0.9l0.4-0.9l-0.4-1.5l0.7-1.3l-0.4-0.9l-0.2-1.3v-1.1l0.4-0.7l0.4-0.9l-0.7-1.8l0.7-0.7v-0.9v-1.8
							v-0.7V711l0.4-1.8l-0.7-0.9v-0.7l0.2-1.8l0.4-0.4l0.2-1.5l-0.4-2.4v-0.4v-1.5v-1.3l0.9-0.7l-0.4-1.8v-0.7l0.7-1.1l-0.2-1.5
							l0.2-0.4l-0.2-1.8l0.4-0.9l-0.4-0.9l-0.4-1.8l0.2-2v-1.3l-0.4-1.1v-1.1l0.4-0.4l-0.2-1.3v-1.3l-0.2-0.7V676l0.2-1.3l-0.2-0.4
							l0.2-1.5l-0.7-1.1l0.7-0.7l-0.2-1.5l-0.4-0.9l0.7-2.2v-1.5l0.7-1.5l-0.2-1.1l0.7-1.3v-1.3l0.9-0.4l0.4-1.8l0.4-0.7l0.2-0.9
							l1.1-0.7l0.9-1.5l0.7-0.2l0.9-0.9l0.7-0.2l1.5-0.9l0.9-0.9h0.9l1.1-0.7l0.9-0.4h0.9h1.5l2-0.7l2.2,0.4l1.1,0.2h2l1.5,0.4h0.7
							l1.1,0.4l1.3-0.2l0.7,0.2l1.5,0.7l0.4-0.2l1.5,1.1l0.4,0.4l1.5-0.4l-0.4-1.1l0.4-1.3v-2l-0.4-1.1l0.4-0.9l-0.9-1.8l0.4-1.1
							l-0.2-1.1l0.2-0.2l-0.2-1.5l0.4-1.3l-1.5,0.4l-1.3,1.1l-0.2,0.7l-1.3,0.9l-0.9,1.1l-0.9,0.4l-1.1,0.4l-0.4,0.4l-0.7,0.7
							l-1.8,1.1l-0.4,0.2l-1.5,0.2l-0.2,0.2l-1.3,0.4l-0.9,0.7l-1.3,0.7l-1.3,0.2l-0.7-0.4l-2.6,0.7l-0.2,0.4l-1.5-0.4l-0.7,0.2
							l-1.8,0.2l-0.7-0.2l-0.9-0.2h-1.3L987,648l-1.3,0.2l-1.3-1.1l-1.3-0.7l-1.1-0.9l-0.4-0.9l-0.2-0.4l-0.7-1.3l-0.4-0.7l-0.9-1.1
							l0.4-0.9V639l-0.7-2.4l0.2-1.1l-0.2-1.1l0.4-1.1l0.2-0.4l-0.4-1.5l0.2-0.4l0.2-2.9v-1.1l0.7-0.4l0.4-1.5l-0.2-1.1l0.7-1.1
							l-0.4-1.3l0.2-0.4l0.7-1.1l0.7-1.3l-0.2-1.1l0.7-0.9l0.2-0.9l0.7-1.3l0.2-0.9l1.3-1.3v-0.4l0.7-1.5l-0.4-1.1l-0.7,0.4
							l-1.3-0.2l-1.1-0.2l-1.1,0.7l-1.8-0.7l-2.2-0.2l-1.1,0.7l-1.5-0.2l-1.8-0.7h-1.1l-0.9,1.3l0.9,0.9v0.9v1.3l1.1,0.2l0.9,2.6
							l-0.2,0.7l0.2,0.7l0.9,1.1l0.4,1.5l0.2,1.1v1.1l0.4,1.1v1.1v0.9l0.2,0.7v2.9l0.2,0.4v1.5l0.4,0.9l-0.7,1.5l0.2,2.4v2l-0.4,1.1
							v1.5l0.2,0.7l-0.9,1.1l-0.4,1.3l-0.4,1.1l-1.3,0.2l-0.2,1.1l-1.3,0.4l-0.9,0.7l-1.1,0.4l-2,0.2l-2,0.2l0.2,0.4L967,648.9z"/>
					</g>
				</g>
			</g>
			<g>
				<g>
					<g class="st0">
						<path class="st1" d="M1195.1,787.5h-23.3v-154h23.3V787.5z"/>
					</g>
				</g>
			</g>
			<g>
				<g>
					<g class="st0">
						<path class="st1" d="M1194.9,805.8c0-5.5,4.6-9.9,9.9-9.9c5.5,0,9.9,4.4,9.9,9.9s-4.4,9.9-9.9,9.9
							C1199.5,815.7,1194.9,811.3,1194.9,805.8z M1201.1,666.7c0-5.5,4.6-9.9,9.9-9.9c5.5,0,9.9,4.4,9.9,9.9s-4.4,9.9-9.9,9.9
							C1205.7,676.6,1201.1,672.2,1201.1,666.7z M1202.8,715.6c0-5.5,4.6-9.9,9.9-9.9c5.5,0,9.9,4.4,9.9,9.9s-4.4,9.9-9.9,9.9
							C1207.4,725.5,1202.8,721.1,1202.8,715.6z M1214.7,773c0-5.5,4.6-9.9,9.9-9.9c5.5,0,9.9,4.4,9.9,9.9s-4.4,9.9-9.9,9.9
							C1219.3,782.9,1214.7,778.5,1214.7,773z M1219.3,736.7h24c1.3,22,18,34.8,40.9,34.8c22.2,0,36.1-9.2,36.1-25.3
							c0-13.6-10.8-20-28.6-24l-24.2-5.3c-23.8-5.3-42.9-18.9-42.9-42.9c0-25.7,24.4-44.2,57.6-44.2c35.4,0,57.2,19.1,59,48.2h-24
							c-1.1-16.7-13.9-28.4-35.9-28.4c-18.7,0-32.8,9-32.8,22.4c0,12.8,9.5,19.4,26.6,23.1l26.6,5.7c24.4,5.3,42.5,18.7,42.5,42.9
							c0,26.6-22.2,47.3-60.7,47.3C1244.8,791,1220.4,769.9,1219.3,736.7z M1228.3,602.9c0-5.5,4.4-9.9,9.9-9.9
							c5.5,0,9.9,4.4,9.9,9.9s-4.4,9.9-9.9,9.9C1232.7,612.8,1228.3,608.4,1228.3,602.9z M1231,641.9c0-5.5,4.6-9.9,9.9-9.9
							c5.5,0,9.9,4.4,9.9,9.9s-4.4,9.9-9.9,9.9C1235.6,651.8,1231,647.4,1231,641.9z M1241.5,740.7c0-5.5,4.6-9.9,9.9-9.9
							c5.5,0,9.9,4.4,9.9,9.9s-4.4,9.9-9.9,9.9C1246.2,750.6,1241.5,746.2,1241.5,740.7z M1260.7,768.6c0-5.5,4.6-9.9,9.9-9.9
							c5.5,0,9.9,4.4,9.9,9.9s-4.4,9.9-9.9,9.9C1265.3,778.5,1260.7,774.1,1260.7,768.6z M1263.5,675.3c0-5.5,4.6-9.9,9.9-9.9
							c5.5,0,9.9,4.4,9.9,9.9s-4.4,9.9-9.9,9.9C1268.2,685.2,1263.5,680.8,1263.5,675.3z M1275,708.8c0-5.5,4.4-9.9,9.9-9.9
							s9.9,4.4,9.9,9.9s-4.4,9.9-9.9,9.9S1275,714.3,1275,708.8z M1282,619c0-5.5,4.6-9.9,9.9-9.9c5.5,0,9.9,4.4,9.9,9.9
							s-4.4,9.9-9.9,9.9C1286.6,628.9,1282,624.5,1282,619z M1291.3,823.2c0-5.5,4.4-9.9,9.9-9.9s9.9,4.4,9.9,9.9s-4.4,9.9-9.9,9.9
							S1291.3,828.7,1291.3,823.2z M1303.4,680.6c0-5.5,4.6-9.9,9.9-9.9c5.5,0,9.9,4.4,9.9,9.9s-4.4,9.9-9.9,9.9
							C1308,690.5,1303.4,686.1,1303.4,680.6z M1308.2,773.2c0-5.5,4.6-9.9,9.9-9.9c5.5,0,9.9,4.4,9.9,9.9s-4.4,9.9-9.9,9.9
							C1312.8,783.1,1308.2,778.7,1308.2,773.2z M1320.7,608.9c0-5.5,4.4-9.9,9.9-9.9s9.9,4.4,9.9,9.9s-4.4,9.9-9.9,9.9
							S1320.7,614.4,1320.7,608.9z M1324.3,708.8c0-5.5,4.4-9.9,9.9-9.9c5.3,0,9.7,4.4,9.7,9.9s-4.4,9.9-9.7,9.9
							C1328.7,718.7,1324.3,714.3,1324.3,708.8z M1330.9,641.2c0-5.5,4.4-9.9,9.9-9.9s9.9,4.4,9.9,9.9c0,5.3-4.4,9.7-9.9,9.7
							S1330.9,646.5,1330.9,641.2z M1344.7,752.5c0-5.5,4.4-9.9,9.9-9.9s9.9,4.4,9.9,9.9c0,5.3-4.4,9.7-9.9,9.7
							S1344.7,757.8,1344.7,752.5z M1362.1,703.5c0-5.5,4.4-9.9,9.9-9.9c5.5,0,9.9,4.4,9.9,9.9s-4.4,9.9-9.9,9.9
							C1366.5,713.4,1362.1,709,1362.1,703.5z M1365.6,803.4c0-5.5,4.4-9.9,9.9-9.9c5.3,0,9.7,4.4,9.7,9.9s-4.4,9.9-9.7,9.9
							C1370,813.3,1365.6,808.9,1365.6,803.4z M1372.9,654.6c0-5.5,4.6-9.9,9.9-9.9c5.5,0,9.9,4.4,9.9,9.9s-4.4,9.9-9.9,9.9
							C1377.5,664.5,1372.9,660.1,1372.9,654.6z"/>
					</g>
				</g>
			</g>
		</g>
	</g>
</g>
</svg>
