<?xml version="1.0" encoding="utf-8"?>
<!-- Generator: Adobe Illustrator 26.0.3, SVG Export Plug-In . SVG Version: 6.00 Build 0)  -->
<svg version="1.1" id="Ebene_1" xmlns="http://www.w3.org/2000/svg" x="0px"
     y="0px"
     viewBox="0 0 350 350" style="enable-background:new 0 0 350 350;"
     xml:space="preserve">
<style type="text/css">
	.st0{fill:#00BE1C;}
</style>
<g>
	<path class="st0" d="M199.142,219.073c-0.956-8.959-1.813-16.981-2.746-25.723c6.338-3.276,10.721-9.624,8.576-17.846
		c-2.332-8.939-9.329-13.77-18.147-15.962c-16.889-4.198-33.947,6.503-39.21,24.491c-7.178,24.536,10.381,51.045,37.153,56.091
		c33.876,6.384,66.148-19.715,68.231-55.178c1.957-33.341-19.093-62.995-51.372-72.369c-35.89-10.422-74.475,6.583-93.283,38.849
		c-18.208,31.238-17.339,85.938,26.192,118.446c41.844,31.248,99.2,26.182,135.511-10.748
		c48.57-49.398,42.057-130.685-14.725-173.682C204.429,46.905,132.278,52.54,87.625,98.255
		c-30.805,31.538-42.571,69.523-39.41,112.822c0.118,1.618,0.346,3.229,0.427,4.848c0.025,0.511-0.26,1.037-0.472,1.805
		c-8.12,1.16-16.34,2.333-25.68,3.667c-0.684-5.431-1.922-11.202-2.06-16.999c-1.122-47.079,12.677-88.849,46.149-122.717
		c42.497-43,94.011-58.658,152.5-43.378c87.505,22.86,131.673,114.985,100.66,193.329c-28.567,72.163-108.92,105.48-179.023,73.777
		c-51.484-23.283-91.17-90.011-60.014-158.79c22.867-50.481,81.523-76.606,132.185-58.747
		c45.502,16.041,73.05,59.481,66.662,105.119c-7.173,51.242-57.587,85.868-105.582,72.517
		c-41.705-11.601-64.776-53.999-50.814-93.384c11.546-32.572,47.736-49.298,78.389-36.23c24.332,10.374,35.889,37.599,26.126,61.328
		C222.576,209.598,213.206,216.304,199.142,219.073"/>
</g>
</svg>
