<?xml version="1.0" encoding="utf-8"?>
<!-- Generator: Adobe Illustrator 26.0.1, SVG Export Plug-In . SVG Version: 6.00 Build 0)  -->
<svg version="1.1" id="Ebene_1" xmlns="http://www.w3.org/2000/svg" xmlns:xlink="http://www.w3.org/1999/xlink" x="0px" y="0px"
	 viewBox="0 0 52.73 36.55" style="enable-background:new 0 0 52.73 36.55;" xml:space="preserve">
<style type="text/css">
	.st0{fill:#0000FF;}
	.st1{fill:#0023F4;}
	.st2{fill:#8E96B5;}
	.st3{fill:#FDFDFD;}
</style>
<path class="st0" d="M24.23,31.78c0.62,0.54,1.55-0.19,2.16,0.45c-0.38,0.72-0.65,0.89-1.38,0.82c-1.07-0.11-1.36,0.23-1.78,1.24
	c-0.42,1.02-1.05,1.76-2.03,2.25c-0.37-0.3-0.4-0.6-0.11-0.96c0.3-0.36,0.58-0.73,0.82-1.12c-1.78,0.57-3.48,1.25-5.32,0.61
	c-0.02-0.08-0.04-0.15-0.06-0.23c0.22-0.11,0.42-0.26,0.65-0.32c0.85-0.2,1.7-0.39,2.56-0.55c0.37-0.07,0.69-0.15,0.7-0.44
	c-0.42-0.45-0.75-0.81-1.08-1.16c0.04-0.08,0.08-0.15,0.12-0.23c0.27,0.02,0.55,0.02,0.82,0.08c0.31,0.07,0.6,0.22,0.9,0.28
	c0.63,0.14,1.04-0.06,1.31-0.63c0.26-0.55,0.62-1.1,0.71-1.68c0.09-0.55-0.09-1.15-0.21-1.71c-0.02-0.09-0.35-0.15-0.54-0.16
	c-0.93-0.02-1.87,0.05-2.8-0.04c-0.82-0.08-1.65-0.28-2.43-0.55c-0.58-0.21-1.01-0.06-1.5,0.18c-0.73,0.35-1.5,0.62-2.24,0.95
	c-0.37,0.17-0.72,0.39-1.11,0.61c0.63,0.94,1.92,0.75,2.36,1.74c-0.44,0.47-1.04,0.45-1.65,0.09c-0.76-0.46-1.56-0.87-2.5-0.8
	c-0.25,0.02-0.5,0.13-0.75,0.19c-0.39,0.1-0.78,0.26-1.17,0.28C8.05,31,7.92,30.82,7.99,30.17c0.02-0.18,0.02-0.36,0.03-0.49
	c-0.98-0.26-1.93-0.45-2.83-0.76c-0.45-0.16-0.82-0.53-1.23-0.81c0.41-0.53,0.99-0.58,1.66-0.3c0.49,0.2,1.01,0.34,1.53,0.46
	c0.46,0.11,0.74-0.04,0.64-0.59c-0.02-0.08,0.02-0.18,0.04-0.36c0.33,0.14,0.62,0.24,0.88,0.39c0.43,0.25,0.82,0.56,1.25,0.81
	c0.14,0.08,0.39,0.14,0.53,0.07c1.08-0.52,2.15-1.06,3.21-1.62c0.16-0.09,0.25-0.31,0.41-0.52c-0.46-0.22-0.88-0.43-1.3-0.64
	c-0.71-0.36-1.48-0.63-2.11-1.09c-1.05-0.75-2.11-1.53-2.99-2.47c-1.14-1.2-2.17-2.53-3.14-3.88c-1.41-1.97-2.06-4.2-1.82-6.62
	c0.12-1.23,0.43-2.44,0.68-3.66C3.51,7.68,3.4,7.53,2.96,7.56C2.26,7.61,1.72,7.99,1.2,8.41C1.01,8.56,0.77,8.75,0.58,8.73
	C0.36,8.71-0.01,8.44,0,8.33c0.06-0.48,0.22-0.95,0.39-1.41c0.15-0.39,0.34-0.78,0.58-1.13c0.48-0.7,0.72-1.43,0.85-2.29
	c0.21-1.39,1.03-2.41,2.4-3.03C5.25,0,6.26-0.08,7.32,0.07c0.97,0.13,1.8,0.65,2.55,1.27c1.08,0.9,1.83,2.07,2.49,3.29
	c0.22,0.41,0.44,0.82,0.6,1.25C13.2,6.51,13.7,6.74,14.3,6.9c1.09,0.29,2.18,0.61,3.27,0.91c0.2,0.05,0.4,0.08,0.6,0.11
	c1.43,0.23,2.88,0.4,4.29,0.71c0.8,0.17,1.55,0.58,2.34,0.83c0.89,0.27,1.8,0.51,2.72,0.71c1.42,0.31,2.84,0.57,4.26,0.85
	c0.31,0.06,0.62,0.13,0.93,0.18c1.45,0.22,2.94,0.29,4.34,0.69c1.36,0.39,2.74,0.24,4.08,0.54c0.65,0.15,1.3,0.33,1.96,0.39
	c0.68,0.07,1.39-0.06,2.06,0.04c0.85,0.13,1.69,0.4,2.53,0.62c0.34,0.09,0.75,0.12,1,0.33c0.78,0.67,1.77,0.88,2.63,1.34
	c0.79,0.42,1.12,1.25,1.42,2.06c0.11,0.29-0.46,2.41-0.73,2.52c-0.47,0.19-0.97,0.39-1.47,0.42c-2.48,0.13-4.96,0.18-7.43,0.33
	c-0.47,0.03-0.94,0.31-1.38,0.55c-0.78,0.42-1.51,0.94-2.31,1.32c-0.93,0.45-1.91,0.81-2.87,1.18c-0.31,0.12-0.5,0.27-0.66,0.59
	c-0.42,0.83-1.16,1.36-2.03,1.62c-0.99,0.3-2.03,0.45-3.04,0.71c-1.36,0.35-2.71,0.76-4.07,1.13c-0.54,0.15-0.94,0.38-0.98,1.03
	c-0.02,0.27-0.24,0.53-0.37,0.8C25,30.18,24.62,30.96,24.23,31.78z"/>
</svg>
