<?xml version="1.0" encoding="utf-8"?>
<!-- Generator: Adobe Illustrator 26.0.1, SVG Export Plug-In . SVG Version: 6.00 Build 0)  -->
<svg version="1.1" id="Ebene_1" xmlns="http://www.w3.org/2000/svg" xmlns:xlink="http://www.w3.org/1999/xlink" x="0px" y="0px"
	 viewBox="0 0 27.61 45.11" style="enable-background:new 0 0 27.61 45.11;" xml:space="preserve">
<style type="text/css">
	.st0{fill:#0000FF;}
	.st1{fill:#0023F4;}
	.st2{fill:#8E96B5;}
	.st3{fill:#FDFDFD;}
</style>
<g>
	<path class="st0" d="M25.74,29.71c-0.04-0.04-0.09-0.09-0.13-0.13c-0.05-0.42-0.09-0.84-0.14-1.27c0.39-1.05,0.65-2.13,0.55-3.26
		c0.42-2.65,0.14-5.25-1.01-7.65c-0.54-1.15-0.97-2.55-2.38-3.09c-0.24-0.38-0.48-0.76-0.73-1.14c-0.37-1.24-0.75-2.48-1.12-3.72
		c0.02-0.63-0.01-1.26-0.06-1.9c0.66-0.02,1.28-0.17,0.82-0.69c-0.25-0.28-0.58-0.56-0.92-0.82c-0.02-0.35-0.03-0.69-0.02-1.04
		c0.08-2.42-0.66-4.13-2.68-4.74c-2.57-0.78-5.03,0.17-5.96,2.38c-0.62,1.48-1.1,3.01-1.64,4.53C9.33,8.55,8.33,9.93,7.32,11.3
		c-0.48,0.42-0.95,0.84-1.43,1.25c-0.07,0.08-0.15,0.16-0.22,0.23c-0.09,0.07-0.15,0.17-0.18,0.28c0,0,0,0,0,0
		c-0.12,0.01-0.23,0.05-0.33,0.11c-4.36,1.18-6.01,8.64-4.75,12.31c-0.28,1.43,0.2,2.71,0.74,3.98c0.11,1,0.33,1.95,1.07,2.7
		c0.65,1.02,1.15,2.21,2.63,2.29c2.37,0.88,3.42,2.72,3.68,5.12c-1.17,1.03-2.74,1.64-3.7,3.17c0.82,0.17,1.09-0.26,1.47-0.42
		c1.83-0.79,2-0.68,2.19,1.37c0.05,0.56-0.18,1.48,0.7,1.41c0.7-0.06,0.38-0.93,0.39-1.42c0.02-1.49,0.57-2.02,2.04-1.41
		c0.58,0.24,1.18,0.6,2.08,0.44c-0.64-0.99-1.65-1.08-2.39-1.56c-0.64-0.42-1.57-0.51-1.62-1.54c0.82-2.17,2.2-3.37,4.69-2.9
		c0.64,0.12,1.33-0.05,1.99-0.09c-0.02,0.66-1.19,1.12-0.62,1.72c0.56,0.58,1.03-0.33,1.48-0.65c0.87-0.62,1,0.07,1.28,0.61
		c0.2,0.39-0.05,1.21,0.66,1.1c0.71-0.12,0.54-0.89,0.46-1.4c-0.17-1.13,0.15-1.49,1.25-1c0.43,0.19,0.92,0.26,1.38,0.38
		c-0.63-0.74-1.27-1.49-1.9-2.23c0.34-0.37,0.76-0.57,1.25-0.62c1.26-0.03,1.35-2,2.99-1.66c0.96,0.2,2.55,0.58,2.94-0.61
		C27.89,31.21,26.49,30.49,25.74,29.71z M2.52,28.1L2.52,28.1c0.22-0.05,0.38-0.12,0.49-0.21C2.9,27.97,2.74,28.05,2.52,28.1z
		 M4.08,32.97c-0.17-0.51-0.22-1.06-0.28-1.6C3.86,31.91,3.91,32.45,4.08,32.97C4.08,32.97,4.08,32.97,4.08,32.97z M5.9,14.41
		c0.21,0.11,0.31,0.27,0.36,0.45C6.21,14.68,6.11,14.52,5.9,14.41z M15.6,7.77c0-0.09,0-0.17,0.01-0.25
		C15.6,7.6,15.6,7.68,15.6,7.77c0.32,0.45,0.62,0.91,0.95,1.35C16.22,8.67,15.91,8.22,15.6,7.77z M22.45,16.24
		c0.06-0.28,0.12-0.55,0.17-0.83c-0.22-0.14-0.31-0.29-0.27-0.44c-0.04,0.16,0.05,0.3,0.27,0.44C22.56,15.69,22.5,15.97,22.45,16.24
		z M23.06,28.57L23.06,28.57c-0.04-1.39,0.02-2.79-0.06-4.18C23.08,25.78,23.02,27.18,23.06,28.57z M23.11,29.12
		c-0.13,0.08-0.25,0.17-0.35,0.26C22.86,29.29,22.98,29.2,23.11,29.12L23.11,29.12z"/>
	<path class="st0" d="M22.32,37.42c0,0-0.04-0.05-0.04-0.05l0,0c0,0-0.01,0-0.01,0c0,0,0,0,0.01,0.01L22.32,37.42z"/>
</g>
</svg>
