<?xml version="1.0" encoding="utf-8"?>
<!-- Generator: Adobe Illustrator 26.0.1, SVG Export Plug-In . SVG Version: 6.00 Build 0)  -->
<svg version="1.1" id="Ebene_1" xmlns="http://www.w3.org/2000/svg" xmlns:xlink="http://www.w3.org/1999/xlink" x="0px" y="0px"
	 viewBox="0 0 53.25 45.31" style="enable-background:new 0 0 53.25 45.31;" xml:space="preserve">
<style type="text/css">
	.st0{fill:#0000FF;}
	.st1{fill:#0023F4;}
	.st2{fill:#8E96B5;}
	.st3{fill:#FDFDFD;}
</style>
<path class="st0" d="M50.72,34.84c-0.41-0.95-0.83-1.9-1.24-2.85c-0.04-0.46-0.08-0.92-0.12-1.38c0.37-1.98-0.04-3.9-0.39-5.83
	c-0.37-2-1.47-3.47-3.05-4.7c-3.56-2.77-7.67-4.49-11.76-6.25c-1.82-1.02-3.83-1.55-5.75-2.33c-1.37-1.04-2.94-1.65-4.6-2.03
	c-1.78-0.96-3.7-1.59-5.6-2.24c-1.09-0.37-1.95-0.92-2.72-1.77c-1.15-1.29-2.42-2.46-3.73-3.61c-0.77-0.68-1.9-0.14-2.55-1.07
	C8.8,0.19,8.14-0.34,7.36,0.27C6.68,0.81,6.3,1.48,6.63,2.41c0.11,0.32,0.45,0.64,0.14,1.14C5.85,3.43,4.89,3.51,3.95,3.67
	c-1.06,0.18-1.7,0.67-1.33,1.88c0.1,0.32,0.08,0.68,0.21,0.98C3.17,7.4,3.03,7.85,1.97,7.91C0.93,7.98,0.28,8.58,0.38,9.73
	c0.04,0.5-0.15,0.94-0.28,1.4c-0.29,1.06,0.03,1.9,1,2.45c1.05,0.59,2.16,1.06,3.35,1.28c2.05,0.92,4.15,1.74,6.14,2.78
	c2.15,1.12,4.19,2.43,6.28,3.66c0.47,0.6,1.18,1.19,1.04,1.97c-0.29,1.57,0.68,2.39,1.63,3.25c0.49,0.45,0.98,0.89,1.35,1.45
	c0.29-0.44,0.4-0.93,0.45-1.42c0.02-0.25,0.03-0.49,0.04-0.74c-0.01,0.25-0.01,0.5-0.04,0.74c-0.05,0.49-0.16,0.97-0.45,1.42
	c0.08,0.47,0.16,0.94,0.25,1.4c-1.46,0.72-1.47,0.77-0.31,1.86c0.42,0.39,0.87,0.73,1.31,1.1c1.84,1.57,3.89,2.92,5.12,5.1
	c-0.65-0.09-1.04-0.89-2.03-0.66c1.77,1.62,3.18,3.29,1.65,5.71c-0.13,0.2-0.06,0.51,0.23,0.59c0.31,0.08,0.37-0.2,0.47-0.42
	c0.3-0.7,0.68-1.35,1.3-1.95c0.43,1.09,0.81,2.08,1.29,3.29c0.65-1.21-0.05-2.21,0.05-3.17c0.74,0.02,0.83,0.94,1.55,0.97
	c0-0.91-0.73-1.32-1-1.97c0.52-0.35,1.11-0.28,1.68-0.22c2.51,0.26,5.02,0.55,7.53,0.83c0-1.34,0-2.68,0.01-4.02
	c-0.01,1.34-0.01,2.68-0.01,4.02c0.35,0.31,0.77,0.22,1.18,0.22c1.05,0.29,2.1,0.58,3.15,0.88c1.45,0.98,2.94,1.85,4.79,1.76
	c0.23,0.66,0.36,1.37,0.99,2.03c0.36-0.7,0.47-1.33,0.5-1.99c0.91-0.72,2.04-1.16,2.44-2.48C53.8,38.2,52.56,36.42,50.72,34.84z
	 M45.36,24.58c0.34,0.4,0.66,0.83,0.97,1.26c0.77,1.09,1.43,2.29,2.02,3.56c0.19,0.1,0.3,0.26,0.4,0.44
	c-0.09-0.18-0.21-0.34-0.4-0.44c-0.59-1.27-1.25-2.47-2.02-3.56C46.02,25.4,45.7,24.98,45.36,24.58c-0.51-0.61-1.06-1.17-1.66-1.69
	C44.29,23.41,44.85,23.97,45.36,24.58z M26.11,33.74c-0.14-0.4-0.27-0.8-0.4-1.21c-0.13-0.4-0.24-0.81-0.35-1.21
	c-0.21-0.81-0.39-1.63-0.51-2.45c0.12,0.82,0.29,1.64,0.51,2.45c0.11,0.41,0.22,0.81,0.35,1.21C25.84,32.93,25.97,33.34,26.11,33.74
	L26.11,33.74z M24.78,17.36c0.03,0.02,0.05,0.05,0.07,0.07C24.83,17.41,24.81,17.38,24.78,17.36z M26.26,13.91
	c-0.03,0.04-0.07,0.07-0.1,0.11C26.19,13.99,26.23,13.95,26.26,13.91L26.26,13.91z M24.78,15.47c-0.63-0.65-1.25-1.3-1.87-1.95
	c-0.13-0.05-0.27-0.09-0.39-0.15c0.12,0.06,0.26,0.09,0.39,0.14C23.53,14.18,24.15,14.83,24.78,15.47z M22.92,19.86
	c0.03-0.36,0.19-0.63,0.39-0.86C23.1,19.23,22.95,19.5,22.92,19.86c-0.32,0.61-0.59,1.24-0.81,1.88
	C22.33,21.1,22.6,20.47,22.92,19.86z M30.44,16.44c0.1,0.05,0.2,0.09,0.3,0.13C30.64,16.53,30.54,16.48,30.44,16.44z M29.67,15.94
	c-0.06-0.06-0.12-0.12-0.17-0.19v0C29.55,15.81,29.61,15.88,29.67,15.94z M26.29,34.32c0.05,0,0.11-0.01,0.19-0.02c0,0,0,0,0,0
	C26.4,34.31,26.34,34.32,26.29,34.32z"/>
</svg>
