<?xml version="1.0" encoding="utf-8"?>
<!-- Generator: Adobe Illustrator 26.0.1, SVG Export Plug-In . SVG Version: 6.00 Build 0)  -->
<svg version="1.1" id="Ebene_1" xmlns="http://www.w3.org/2000/svg" xmlns:xlink="http://www.w3.org/1999/xlink" x="0px" y="0px"
	 viewBox="0 0 160.29 23.29" style="enable-background:new 0 0 160.29 23.29;" xml:space="preserve">
<style type="text/css">
	.st0{fill:#0000FF;}
	.st1{fill:#0023F4;}
	.st2{fill:#8E96B5;}
	.st3{fill:#FDFDFD;}
</style>
<circle class="st1" cx="82.97" cy="9.32" r="1.65"/>
<circle class="st1" cx="86.65" cy="5.65" r="1.65"/>
<circle class="st1" cx="96.65" cy="5.65" r="1.65"/>
<circle class="st1" cx="96.65" cy="9.65" r="1.65"/>
<circle class="st1" cx="92.65" cy="9.65" r="1.65"/>
<circle class="st1" cx="92.65" cy="11.65" r="1.65"/>
<circle class="st1" cx="85.65" cy="16.65" r="1.65"/>
<circle class="st1" cx="95.65" cy="19.65" r="1.65"/>
<circle class="st1" cx="93.65" cy="21.65" r="1.65"/>
<circle class="st1" cx="103.65" cy="4.65" r="1.65"/>
<circle class="st1" cx="107.65" cy="8.65" r="1.65"/>
<circle class="st1" cx="116.65" cy="14.65" r="1.65"/>
<circle class="st1" cx="124.65" cy="16.65" r="1.65"/>
<circle class="st1" cx="138.65" cy="16.65" r="1.65"/>
<circle class="st1" cx="148.84" cy="11.65" r="1.65"/>
<circle class="st1" cx="155.84" cy="13.65" r="1.65"/>
<circle class="st1" cx="158.65" cy="14.65" r="1.65"/>
<circle class="st1" cx="94.65" cy="4.65" r="1.65"/>
<circle class="st1" cx="79.65" cy="11.65" r="1.65"/>
<circle class="st1" cx="79.65" cy="1.65" r="1.65"/>
<circle class="st1" cx="80.65" cy="9.65" r="1.65"/>
<circle class="st1" cx="70.65" cy="8.65" r="1.65"/>
<circle class="st1" cx="65.65" cy="8.65" r="1.65"/>
<circle class="st1" cx="61.65" cy="6.65" r="1.65"/>
<circle class="st1" cx="72.65" cy="9.65" r="1.65"/>
<circle class="st1" cx="62.65" cy="14.65" r="1.65"/>
<circle class="st1" cx="32.65" cy="12.65" r="1.65"/>
<circle class="st1" cx="41.65" cy="14.65" r="1.65"/>
<circle class="st1" cx="31.65" cy="14.65" r="1.65"/>
<circle class="st1" cx="1.65" cy="14.65" r="1.65"/>
</svg>
