<?xml version="1.0" encoding="utf-8"?>
<!-- Generator: Adobe Illustrator 26.0.1, SVG Export Plug-In . SVG Version: 6.00 Build 0)  -->
<svg version="1.1" id="Ebene_1" xmlns="http://www.w3.org/2000/svg" xmlns:xlink="http://www.w3.org/1999/xlink" x="0px" y="0px"
	 viewBox="0 0 155.35 21.12" style="enable-background:new 0 0 155.35 21.12;" xml:space="preserve">
<style type="text/css">
	.st0{fill:#0000FF;}
	.st1{fill:#0023F4;}
	.st2{fill:#8E96B5;}
	.st3{fill:#FDFDFD;}
</style>
<circle class="st1" cx="86.53" cy="8.47" r="1.65"/>
<circle class="st1" cx="64.05" cy="19.47" r="1.65"/>
<circle class="st1" cx="25.69" cy="15.83" r="1.65"/>
<circle class="st1" cx="35.69" cy="5.42" r="1.65"/>
<circle class="st1" cx="1.65" cy="15.83" r="1.65"/>
<circle class="st1" cx="116.53" cy="8.47" r="1.65"/>
<circle class="st1" cx="116.53" cy="18.47" r="1.65"/>
<circle class="st1" cx="106.53" cy="18.47" r="1.65"/>
<circle class="st1" cx="73.91" cy="19.47" r="1.65"/>
<circle class="st1" cx="118.53" cy="17.47" r="1.65"/>
<circle class="st1" cx="127.53" cy="19.47" r="1.65"/>
<circle class="st1" cx="28.74" cy="16.24" r="1.65"/>
<circle class="st1" cx="106.2" cy="14.9" r="1.65"/>
<circle class="st1" cx="105.23" cy="15.14" r="1.65"/>
<circle class="st1" cx="40.47" cy="8.47" r="1.65"/>
<circle class="st1" cx="62.7" cy="14.7" r="1.65"/>
<circle class="st1" cx="42.11" cy="15.83" r="1.65"/>
<circle class="st1" cx="153.7" cy="11.46" r="1.65"/>
<circle class="st1" cx="102.27" cy="7.65" r="1.65"/>
<circle class="st1" cx="124.27" cy="1.65" r="1.65"/>
<circle class="st1" cx="126.88" cy="14.9" r="1.65"/>
<circle class="st1" cx="61.3" cy="13.11" r="1.65"/>
</svg>
