<?xml version="1.0" encoding="utf-8"?>
<!-- Generator: Adobe Illustrator 26.0.1, SVG Export Plug-In . SVG Version: 6.00 Build 0)  -->
<svg version="1.1" id="Ebene_1" xmlns="http://www.w3.org/2000/svg" xmlns:xlink="http://www.w3.org/1999/xlink" x="0px" y="0px"
	 viewBox="0 0 57.96 40.98" style="enable-background:new 0 0 57.96 40.98;" xml:space="preserve">
<style type="text/css">
	.st0{fill:#0000FF;}
	.st1{fill:#0023F4;}
	.st2{fill:#8E96B5;}
	.st3{fill:#FDFDFD;}
</style>
<path class="st0" d="M15.1,39.88c-0.48,0.13-0.82,0.53-0.79,0.96c0,0.05,0.16,0.15,0.21,0.14c0.75-0.28,1.49-0.01,2.24,0
	c0.56,0.01,1.13-0.05,1.69-0.09c0.7-0.05,1.39-0.14,2.09-0.15c0.9-0.01,1.66-0.3,2.38-0.74c0.07-0.04,0.15-0.1,0.22-0.1
	c0.67-0.01,0.93-0.19,1.1-0.76c0.01-0.04,0.02-0.07,0.04-0.14c0.28,0.2,0.51,0.43,0.9,0.36c0.07-0.01,0.18,0.14,0.3,0.23
	c0.09-0.44,0-0.84-0.37-1.1c-0.5-0.35-0.58-0.78-0.56-1.29c0.06-1.13,0.05-1.59,0.47-2.68c0.04-0.09,0.07-0.18,0.11-0.28
	c0.25-0.61,0.31-0.62,1.02-0.66c1.77-0.09,3.54-0.21,5.31-0.33c0.54-0.03,1.07-0.1,1.61-0.11c1.03-0.02,1.89-0.44,2.77-0.84
	c0.62-0.28,1.22-0.62,1.82-0.93c0.59-0.31,1.25-0.4,1.9-0.51c1.19-0.21,12.01-1.94,12.63-1.97c-0.19-0.29,2.24-0.66,3.63-0.84
	c-0.22-0.09-0.43-0.18-0.7-0.29c0.62-0.14,1.19-0.28,1.84-0.43c-0.37-0.19-0.66-0.35-0.96-0.5c0-0.02,1.25-0.15,1.95-0.21
	c-0.28-0.3-0.54-0.56-0.84-0.87h0.71c0.01-0.03,0.02-0.06,0.03-0.09c-0.34-0.17-11.21-6.09-11.76-6.51c-1.17-0.87-2.52-1.45-3.89-2
	c-1.26-0.5-2.55-0.94-3.83-1.4c-0.28-0.1-0.58-0.19-0.87-0.28c-0.93-0.28-1.66-0.87-2.48-1.3c-3.09-1.61-6.38-2.71-9.92-3.17
	c-1.68-0.22-3.38-0.31-5.11-0.15c-0.12-0.56-0.16-1.11,0.05-1.65c0.69-1.77,0.41-3.48-0.4-5.15c-0.71-1.47-1.83-2.63-3.42-3.41
	c-1.36-0.66-2.8-0.81-4.3-0.48C9.7,0.66,8.24,1.96,7.55,3.86c-0.37,1.01-1.14,1.62-1.92,2.3C4.52,7.12,3.2,7.77,1.82,8.36
	c-0.48,0.21-0.96,0.43-1.4,0.7c-0.46,0.28-0.55,0.7-0.26,1.01c0.09,0.1,0.28,0.19,0.41,0.17c1.07-0.14,2.15-0.27,3.21-0.46
	c1.35-0.24,2.61-0.73,3.84-1.27C8,8.35,8.35,8.3,8.75,8.36c0.6,0.09,1.22,0.13,1.83,0.17c0.51,0.03,0.85,0.27,1.03,0.66
	c0.06,0.12-0.01,0.36-0.12,0.46c-0.23,0.22-0.5,0.41-0.79,0.56c-0.93,0.5-1.88,0.97-2.81,1.45c-1.91,0.99-3.28,2.41-4.09,4.25
	c-0.68,1.54-1.03,3.14-1.08,4.79c-0.04,1.34,0.36,2.59,1.07,3.76c0.74,1.22,1.65,2.35,2.94,3.14c0.8,0.49,1.68,0.88,2.55,1.27
	c1.86,0.83,3.71,1.68,5.6,2.44c2.25,0.91,4.62,1.51,7.06,1.9c0.32,0.05,0.74,0.04,0.92,0.21c0.17,0.17,0.08,0.54,0.11,0.82
	c0.12,1.29-0.19,1.84-0.6,3.07c-0.1,0.32-0.2,0.64-0.28,0.91c-0.9-0.23-1.77-0.47-2.65-0.69c-0.3-0.08-0.61-0.15-0.92-0.18
	c-0.15-0.02-0.32-0.07-0.34,0.24c-0.02,0.21-0.38,0.48-0.66,0.57c-0.58,0.19-1.2,0.3-1.81,0.41c-0.51,0.09-1.04,0.12-1.56,0.19
	c-0.3,0.04-0.58,0.1-0.71,0.39c-0.08,0.18-0.02,0.26,0.19,0.25c0.22-0.01,0.44-0.05,0.65-0.06C14.66,39.34,14.98,39.54,15.1,39.88"
	/>
</svg>
