<?xml version="1.0" encoding="utf-8"?>
<!-- Generator: Adobe Illustrator 26.0.1, SVG Export Plug-In . SVG Version: 6.00 Build 0)  -->
<svg version="1.1" id="Ebene_1" xmlns="http://www.w3.org/2000/svg" xmlns:xlink="http://www.w3.org/1999/xlink" x="0px" y="0px"
	 viewBox="0 0 53.28 43.87" style="enable-background:new 0 0 53.28 43.87;" xml:space="preserve">
<style type="text/css">
	.st0{fill:#0000FF;}
	.st1{fill:#0023F4;}
	.st2{fill:#8E96B5;}
	.st3{fill:#FDFDFD;}
</style>
<path class="st0" d="M15.19,39.39c-0.31,0.07-0.6,0.14-0.9,0.2c-1.13,0.22-2.26,0.48-3.41,0.16c-0.19-0.05-0.46-0.25-0.48-0.41
	c-0.05-0.35,0.2-0.6,0.55-0.65c0.52-0.07,1.05-0.05,1.56-0.14c0.67-0.11,1.32-0.3,1.98-0.45c-0.05-0.18-0.05-0.22-0.07-0.24
	c-0.24-0.18-0.61-0.28-0.47-0.71c0.16-0.49,0.51-0.21,0.79-0.18c0.32,0.03,0.64,0.04,0.94,0.14c0.96,0.33,1.49-0.19,1.98-0.89
	c0.35-0.5,0.77-0.95,1.12-1.45c0.4-0.57,0.29-0.92-0.36-1.2c-1.36-0.6-2.75-1.16-4.1-1.79c-0.84-0.39-1.63-0.88-2.45-1.3
	c-0.84-0.43-1.68-0.86-2.54-1.25c-0.96-0.44-1.68-1.14-2.31-1.95c-1.02-1.3-1.55-2.84-1.95-4.4c-0.27-1.05-0.18-2.19-0.34-3.27
	C4.23,15.97,4.52,12.34,4.8,8.71c0.06-0.76-0.39-1.59-1.12-1.72C3.02,6.88,2.29,7.01,1.61,7.11C1.29,7.15,1.01,7.4,0.7,7.52
	C0.55,7.58,0.28,7.64,0.21,7.56c-0.13-0.15-0.26-0.42-0.2-0.58c0.15-0.41,0.34-0.82,0.6-1.17c0.7-0.92,1.3-1.87,1.52-3.04
	c0.26-1.36,1.09-2.14,2.43-2.53c1.27-0.38,2.49-0.33,3.65,0.21c1.07,0.5,2.02,1.25,2.62,2.26c0.81,1.36,1.47,2.82,2.2,4.23
	c0.61,1.2,1.32,2.22,2.78,2.6c1.1,0.28,2.12,0.87,3.19,1.28c0.61,0.23,1.25,0.37,1.87,0.57c1.27,0.42,2.58,0.76,3.78,1.31
	c1.21,0.56,2.36,1.3,3.47,2.06c0.67,0.47,1.19,1.15,1.81,1.71c0.18,0.16,0.45,0.27,0.69,0.3c0.64,0.08,1.15,0.37,1.63,0.78
	c0.29,0.25,0.68,0.37,1,0.59c0.69,0.5,1.36,1.01,2.02,1.55c1.02,0.83,2.02,1.68,3,2.55c0.26,0.23,0.51,0.51,0.66,0.82
	c0.4,0.84,1.16,1.27,1.92,1.61c0.98,0.44,2.01,0.75,3.04,1.09c1.28,0.42,2.6,0.75,3.86,1.23c0.69,0.26,1.3,0.75,1.94,1.15
	c0.42,0.26,0.85,0.51,1.24,0.82c0.25,0.2,0.48,0.45,0.65,0.72c0.07,0.11,0.01,0.33-0.04,0.49c-0.07,0.25-0.18,0.49-0.29,0.78
	c0.3,0.1,0.51,0.17,0.71,0.24c0.14,0.05,0.35,0.09,0.39,0.19c0.2,0.45,0.51,0.77,0.86,1.11c0.28,0.28-0.24,1-0.71,0.93
	c-1.27-0.16-2.55-0.34-3.8-0.61c-1.32-0.28-2.59-0.82-3.92-0.95c-1.33-0.12-2.71,0.04-4.05,0.24c-1.91,0.29-3.79,0.24-5.69,0.01
	c-0.34-0.04-0.72,0.04-1.04,0.17c-1.23,0.51-2.44,1.06-3.65,1.62C30.18,34,30,34.18,29.96,34.34c-0.17,0.68-0.65,1-1.27,1.08
	c-0.71,0.09-1.44,0.07-2.15,0.13c-0.2,0.02-0.44,0.12-0.58,0.26c-0.33,0.32-0.62,0.68-0.92,1.04c-0.11,0.13-0.22,0.26-0.28,0.41
	c-0.32,0.75-0.63,1.52-0.97,2.35c0.26,0,0.53-0.01,0.8,0c0.43,0.02,0.57,0.3,0.36,0.67c-0.23,0.41-0.48,0.71-1.02,0.72
	c-0.42,0-0.66,0.49-0.54,0.89c0.1,0.36,0.24,0.73,0.23,1.09c-0.01,0.29-0.22,0.57-0.33,0.86c-0.3-0.18-0.65-0.31-0.88-0.56
	c-0.16-0.16-0.11-0.51-0.23-0.73c-0.16-0.3-0.33-0.55-0.76-0.19c-0.49,0.41-1.06,0.66-1.75,0.75c-0.79,0.11-1.55,0.48-2.32,0.74
	c-0.29,0.1-1.3-0.13-1.48-0.36c-0.25-0.33,0.02-0.49,0.26-0.59c0.53-0.22,1.08-0.4,1.62-0.59c0.13-0.05,0.27-0.08,0.44-0.13
	c-0.55-0.35-1.05-0.68-1.59-1.02c0.35-0.48,0.78-0.48,1.2-0.49c0.91-0.03,1.82-0.04,2.72-0.12c0.66-0.06,1.21-0.36,1.41-1.08
	c0.08-0.3,0.6-0.48,0.38-0.77c-0.65,0.04-1.21,0.16-1.76,0.1c-1.47-0.16-2.7,0.23-3.74,1.29c-0.27,0.28-0.67,0.46-1.04,0.61
	c-0.45,0.18-0.69,0.01-0.71-0.47C15.02,39.99,15.12,39.75,15.19,39.39z M22.87,37.1c-0.02-0.08-0.02-0.26-0.1-0.36
	c-0.45-0.54-0.9-1.09-1.41-1.56c-0.13-0.12-0.59-0.1-0.73,0.03c-0.45,0.43-0.86,0.92-1.2,1.44c-0.37,0.56-0.14,0.91,0.51,0.94
	c0.79,0.05,1.59,0.1,2.37,0.19C22.83,37.84,22.82,37.5,22.87,37.1z"/>
</svg>
