<?xml version="1.0" encoding="utf-8"?>
<!-- Generator: Adobe Illustrator 26.0.1, SVG Export Plug-In . SVG Version: 6.00 Build 0)  -->
<svg version="1.1" id="Ebene_1" xmlns="http://www.w3.org/2000/svg" xmlns:xlink="http://www.w3.org/1999/xlink" x="0px" y="0px"
	 viewBox="0 0 28.12 47.57" style="enable-background:new 0 0 28.12 47.57;" xml:space="preserve">
<style type="text/css">
	.st0{fill:#0000FF;}
	.st1{fill:#0023F4;}
	.st2{fill:#8E96B5;}
	.st3{fill:#FDFDFD;}
</style>
<path class="st0" d="M23.42,45.68c-0.43,0.07-0.86,0.24-1.27,0.19c-0.94-0.11-1.86-0.3-2.79-0.49c-0.82-0.17-0.88-0.14-0.97,0.67
	c-0.06,0.48,0.02,1.04-0.51,1.35c-0.15,0.09-0.42,0.21-0.48,0.15c-0.14-0.13-0.26-0.36-0.27-0.56c-0.03-0.37,0.04-0.75,0.02-1.12
	c-0.01-0.21-0.06-0.52-0.19-0.58c-0.15-0.07-0.48,0.02-0.6,0.15c-0.38,0.41-0.84,0.4-1.33,0.45c-0.36,0.04-0.71,0.22-1.07,0.29
	c-0.3,0.05-0.61,0.01-0.92,0.01c-0.05-0.59,0.19-0.84,0.63-1.01c0.7-0.27,1.38-0.6,2.07-0.91c0.36-0.17,0.37-0.41,0.23-0.77
	c-0.36-0.89-0.33-0.94,0.63-0.97c0.4-0.01,0.56-0.19,0.51-0.54c-0.14-1.05-0.28-2.1-0.48-3.14c-0.03-0.18-0.33-0.36-0.54-0.45
	c-0.17-0.07-0.41-0.04-0.61-0.01c-1.1,0.15-2.07-0.4-3.11-0.58c-0.35-0.06-0.73-0.04-1.07,0.05c-0.55,0.14-1.06,0.08-1.85-0.4
	c-0.39,0.54-0.79,1.08-1.17,1.64c-0.47,0.71-0.95,1.42-1.35,2.17c-0.15,0.27-0.2,0.68-0.11,0.97c0.04,0.14,0.51,0.14,0.78,0.22
	c0.29,0.08,0.58,0.18,0.86,0.36c-0.48,0.41-0.73,1.1-1.54,0.78c-0.29-0.11-0.44,0.25-0.29,0.53c0.24,0.46,0.53,0.88,0.81,1.32
	c0.07,0.11,0.19,0.2,0.22,0.32c0.04,0.16,0.09,0.4,0.01,0.49c-0.09,0.1-0.38,0.16-0.48,0.09c-0.68-0.48-1.66-0.7-1.69-1.8
	c0-0.05-0.04-0.1-0.07-0.15c-0.04-0.06-0.1-0.11-0.21-0.25c-0.22,0.23-0.46,0.41-0.59,0.65c-0.5,0.94-1.36,1.49-2.19,2.08
	c-0.13,0.09-0.46,0.12-0.55,0.03c-0.13-0.13-0.21-0.43-0.14-0.59c0.14-0.35,0.35-0.69,0.59-0.98c0.19-0.24,0.47-0.41,0.69-0.63
	c0.1-0.1,0.15-0.25,0.22-0.38c-0.15-0.03-0.31-0.12-0.45-0.09c-0.36,0.08-0.71,0.22-1.06,0.32c-0.3,0.08-0.6,0.18-0.91,0.21
	c-0.33,0.03-0.74,0.06-0.8-0.38c-0.07-0.42,0.3-0.55,0.63-0.65c0.64-0.2,1.27-0.4,1.91-0.59c1.37-0.41,2.24-1.4,2.94-2.57
	c0.24-0.4,0.42-0.82,0.65-1.22c0.49-0.84,0.42-1.76,0.36-2.67c-0.02-0.27-0.05-0.53-0.07-0.83c-0.11,0.05-0.17,0.06-0.2,0.09
	c-0.42,0.47-0.55,0.45-0.73-0.16c-0.1-0.36-0.26-0.59-0.65-0.66c-0.13-0.02-0.24-0.16-0.34-0.26c-0.4-0.4-0.78-0.84-1.21-1.21
	c-0.53-0.47-0.89-0.98-0.86-1.73c0.02-0.42-0.11-0.86-0.07-1.28c0.04-0.47,0.2-0.93,0.3-1.39c0.04-0.18,0.09-0.37,0.09-0.55
	c-0.02-1.43,0.15-2.83,0.56-4.2c0.09-0.29,0.17-0.64-0.21-0.93c-0.17,0.31-0.31,0.58-0.47,0.87c-0.42-0.21-0.38-0.54-0.32-0.83
	c0.11-0.58,0.08-1.08-0.37-1.55c-0.34-0.36-0.27-0.81,0.04-1.17c0.45-0.54,0.5-1.11,0.21-1.71c-0.21-0.44-0.21-0.78,0.13-1.17
	c0.81-0.93,1.59-1.88,2.38-2.83c0.32-0.38,0.59-0.81,0.97-1.11c0.4-0.31,0.9-0.49,1.34-0.75c0.64-0.37,1.27-0.74,1.9-1.13
	c0.1-0.06,0.17-0.2,0.21-0.31c0.51-1.47,1.03-2.94,1.52-4.42c0.08-0.23,0.05-0.5,0.07-0.75c-0.05-0.03-0.09-0.07-0.14-0.1
	c-0.28,0.19-0.54,0.42-0.84,0.57C9.48,7.31,9.17,7.33,8.88,7.39c0-0.28-0.08-0.59,0-0.84C9.3,5.32,9.78,4.14,9.81,2.79
	c0.03-1.4,1.14-2.75,2.73-2.77c0.69-0.01,1.39-0.06,2.07,0.03c0.9,0.11,1.62,0.6,2.16,1.34c1.11,1.53,1.42,3.31,1.67,5.13
	c0.24,1.77,0.52,3.53,0.87,5.28c0.23,1.15,0.96,1.96,2.01,2.53c0.52,0.28,0.92,0.76,1.41,1.11c0.53,0.38,1.1,0.68,1.63,1.05
	c0.36,0.25,0.69,0.55,1.01,0.86c0.33,0.31,0.65,0.64,0.95,0.98c0.72,0.81,1.36,1.64,1.45,2.79c0.11,1.47,0.32,2.93,0.37,4.4
	c0.02,0.52-0.3,1.05-0.47,1.58c-0.09,0.28-0.19,0.55-0.27,0.83c-0.31,1.22-0.6,2.45-0.93,3.67c-0.17,0.62-0.37,1.24-0.58,1.85
	c-0.49,1.39-1.53,2.23-2.78,2.9c-0.39,0.21-0.72,0.57-1.01,0.92c-0.33,0.4-0.65,0.71-1.21,0.81c-0.57,0.1-1.12,0.38-1.65,0.62
	c-0.14,0.06-0.26,0.27-0.3,0.44c-0.17,0.65-0.33,1.3-0.45,1.96c-0.15,0.83-0.03,1.64,0.4,2.37c0.13,0.22,0.31,0.47,0.53,0.55
	c0.68,0.27,1.39,0.61,2.1,0.66c0.77,0.06,1.33,0.38,1.9,0.8C23.41,45.55,23.42,45.62,23.42,45.68z"/>
</svg>
