<?xml version="1.0" encoding="utf-8"?>
<!-- Generator: Adobe Illustrator 26.0.1, SVG Export Plug-In . SVG Version: 6.00 Build 0)  -->
<svg version="1.1" id="Ebene_1" xmlns="http://www.w3.org/2000/svg" xmlns:xlink="http://www.w3.org/1999/xlink" x="0px" y="0px"
	 viewBox="0 0 32.88 45.45" style="enable-background:new 0 0 32.88 45.45;" xml:space="preserve">
<style type="text/css">
	.st0{fill:#0000FF;}
	.st1{fill:#0023F4;}
	.st2{fill:#8E96B5;}
	.st3{fill:#FDFDFD;}
</style>
<path class="st0" d="M18.65,41.62c0.26-0.51,0.67-0.63,1.13-0.68c0.46-0.05,0.93-0.11,1.38-0.21c0.57-0.12,0.72-0.38,0.44-0.87
	c-0.41-0.74-0.91-1.43-1.35-2.15c-0.36-0.58-0.71-1.17-1.01-1.79c-0.15-0.32-0.36-0.5-0.68-0.46c-0.33,0.04-0.63,0.12-0.74,0.55
	c-0.17,0.65-0.62,1.04-1.29,1.23c-0.37,0.11-0.71,0.36-1.05,0.56c-0.13,0.07-0.22,0.24-0.34,0.28c-0.93,0.24-1.14,0.97-1.15,1.76
	c-0.01,0.95-0.2,1.95,0.74,2.66c0.59,0.44,1.25,0.47,1.92,0.44c0.62-0.03,1.13,0.17,1.63,0.48c0.11,0.07,0.28,0.24,0.25,0.32
	c-0.04,0.14-0.19,0.3-0.32,0.33c-0.3,0.07-0.62,0.06-0.93,0.08c-0.19,0.01-0.38,0-0.57,0c0.2,0.31,0.4,0.55,0.5,0.82
	c0.17,0.43-0.09,0.55-0.46,0.45c-0.3-0.08-0.59-0.22-0.88-0.35c-0.91-0.4-1.81-0.81-2.77-1.24c-1.08,0.29-2.18,1.06-3.46,0.55
	c-0.03-0.08-0.06-0.17-0.09-0.25c0.4-0.23,0.78-0.57,1.21-0.68c1.37-0.34,2.13-1.31,1.95-2.71c-0.2-1.64-1-2.99-2.06-4.21
	c-0.21-0.24-0.41-0.56-0.44-0.86c-0.1-0.95-0.63-1.7-1.1-2.48c-0.08-0.13-0.35-0.24-0.52-0.22c-0.63,0.06-1.24,0.22-1.87,0.27
	c-1.15,0.1-2.31,0.18-3.46,0.22c-0.95,0.03-0.99-0.03-1.2-0.94c-0.69-0.15-1.37,0.5-2.06,0.09c-0.06-0.74,0.56-0.99,0.92-1.41
	c0.35-0.41,0.99-0.57,1.06-1.23c0-0.02,0-0.04,0-0.09c-0.1-0.08-0.22-0.16-0.33-0.25c-0.44-0.35-0.53-0.75-0.21-1.22
	c0.83-1.23,1.75-2.35,3-3.23c0.86-0.61,1.48-1.54,2.27-2.26c1.09-0.98,2.18-1.96,3.37-2.81c0.87-0.62,1.53-1.39,2.2-2.18
	c0.81-0.96,1.83-1.66,2.96-2.12c1.45-0.58,2.3-1.66,3.03-2.96c0.37-0.67,0.48-1.34,0.54-2.07c0.03-0.4,0.28-0.78,0.33-1.17
	c0.1-0.75,0.1-1.52,0.21-2.28c0.13-0.94,0.23-1.9,0.5-2.8c0.43-1.45,0.8-2.98,2.22-3.86c0.93-0.58,1.97-0.78,3.05-0.63
	c0.95,0.13,1.95,0.25,2.46,1.19c0.34,0.62,0.52,1.33,0.7,2.02c0.2,0.74,0.29,1.52,0.47,2.26c0.11,0.45,0.34,0.87,0.45,1.32
	c0.06,0.23-0.04,0.49-0.07,0.74c-0.25-0.03-0.52-0.02-0.74-0.11c-0.21-0.09-0.37-0.32-0.57-0.44c-0.11-0.07-0.27-0.07-0.4-0.1
	c-0.03,0.13-0.11,0.28-0.08,0.4c0.23,0.8,0.48,1.6,0.74,2.39c0.28,0.84,0.62,1.66,0.87,2.51c0.36,1.17,0.7,2.33,1.38,3.38
	c0.6,0.93,1.22,1.87,1.65,2.88c0.74,1.73,0.99,3.55,0.82,5.45c-0.17,2.01-1.22,3.48-2.56,4.83c-1.16,1.16-2.3,2.34-3.5,3.46
	c-0.88,0.81-1.86,1.52-2.77,2.3c-0.51,0.44-1.04,0.89-1.44,1.42c-0.69,0.91-0.34,1.85,0.14,2.73c0.29,0.53,0.68,1.02,1.02,1.52
	c0.57,0.84,1.51,1.13,2.52,0.8c0.31-0.1,0.64-0.19,0.97-0.21c0.38-0.02,0.65,0.11,0.54,0.61c-0.03,0.12,0.19,0.35,0.35,0.45
	c0.32,0.21,0.74,0.31,1.01,0.57c0.2,0.18,0.28,0.54,0.3,0.82c0,0.07-0.42,0.27-0.64,0.25c-0.41-0.04-0.8-0.23-1.21-0.29
	c-0.7-0.11-1.4-0.18-2.1-0.23c-0.1-0.01-0.23,0.2-0.31,0.34c-0.19,0.33-0.32,0.69-0.54,1c-0.21,0.3-0.61,0.2-0.58-0.15
	c0.11-0.99-0.73-1.22-1.23-1.75c-0.64-0.68-1.37-0.74-2.12-0.33C19.85,42.54,19.3,42.07,18.65,41.62z"/>
</svg>
