<?xml version="1.0" encoding="utf-8"?>
<!-- Generator: Adobe Illustrator 26.0.1, SVG Export Plug-In . SVG Version: 6.00 Build 0)  -->
<svg version="1.1" id="Ebene_1" xmlns="http://www.w3.org/2000/svg" xmlns:xlink="http://www.w3.org/1999/xlink" x="0px" y="0px"
	 viewBox="0 0 45.69 50.84" style="enable-background:new 0 0 45.69 50.84;" xml:space="preserve">
<style type="text/css">
	.st0{fill:#0000FF;}
	.st1{fill:#0023F4;}
	.st2{fill:#8E96B5;}
	.st3{fill:#FDFDFD;}
</style>
<path class="st0" d="M31.7,15.91c-0.03,0.67-0.53,1.13-0.74,1.72c-0.56,0.08-0.86,0.49-1.14,0.92c-3,2.14-5.77,4.55-8.14,7.38l0,0
	c-0.67,0.26-1.04,0.83-1.48,1.34c-0.73,0.54-1.35,1.18-1.72,2.03c-0.45,0.55-1.19,0.91-1.19,1.77c-1.14,0.64-1.71,1.75-2.34,2.82
	c-1.27,0.66-2.69,0.71-4.05,0.97c-3.18,0.6-6.42,0.72-9.62,1.11c-0.52,0.06-1.2,0.08-1.27,0.71c-0.07,0.58,0.54,0.86,0.99,1.13
	c0.86,0.52,1.86,0.47,2.88,0.51c-0.29,0.61-1.13,0.46-1.02,1.1c0.1,0.64,0.77,0.7,1.25,0.82c1.18,0.3,2.38,0.51,3.54,0.76
	c-0.23,1.11-1.81,1.05-1.66,2.31c0.16,0.41,0.69,0.11,0.9,0.45c-0.43,0.52-1.24,0.57-1.48,1.27c-1.07,0.36-1.97,1.01-2.87,1.66
	c-0.61,0.44-1.17,0.98-0.71,1.81c0.44,0.78,1.19,0.71,1.92,0.48c0.5-0.16,1.04-0.29,1.48-0.56c0.67-0.41,1.12-0.39,1.53,0.35
	c0.38,0.68,1.21,1.29,1.78,0.93c1.53-0.98,2.44,0.02,3.78,0.46c3.75,1.24,5.95,0.99,7.69-2.47c0.25-0.4,0.44-0.86,0.76-1.2
	c1.12-1.2,0.56-3.55,3.1-3.93c0.95-0.14,1.86-1.16,3.19-1.36c2.06-0.31,3.77-0.05,5.37,1.21c0.02,0.93-0.48,1.38-1.35,1.6
	c-0.7,0.18-1.37,0.5-2.06,0.75c0,0.17,0.01,0.34,0.01,0.51c2.62-0.98,4.81,0.54,7.57,1.11c-0.9-0.77-1.47-1.25-2.08-1.78
	c1.18-0.66,2.4-0.67,3.95-0.68c-1.2-0.97-2.28-0.59-3.29-0.67c-0.28-0.02-1.09,0.18-0.73-0.37c0.75-1.13-0.67-0.59-0.66-1.06
	c0.82-1.07,1.72-2.04,2.99-2.6c1.05,0.4,2.09,0.81,3.25,1.26c-0.06-1.17-1.27-1.14-1.57-1.99c0.9-0.28,1.7-0.52,2.58-0.49
	c0.22,0.01,0.53,0.04,0.54-0.3c0.01-0.27-0.22-0.45-0.45-0.49c-0.57-0.09-1.14-0.13-1.71-0.18c0.88-0.83,1.82-1.62,2.36-2.75
	c1.3-1.66,2.02-3.58,2.57-5.57c0.72-2.05,1.35-4.12,1.31-6.33c0.12-1.44-0.13-2.81-0.76-4.12c-1.21-3.37-2.92-6.48-4.69-9.57
	c-0.5-1.2-1.4-2.23-1.48-3.6c0.53-1.02,1.66-0.15,2.37-0.68c-0.29-0.63-0.84-0.79-1.34-1.03c-0.05-2.17-0.85-3.18-2.86-3.36
	c-1.83-0.17-3.42,0.42-4.49,2.02c-1.17,1.75-1.51,3.7-1.41,5.77C30.76,10.55,31.75,13.18,31.7,15.91 M33.32,38.63
	c0.21-0.04,0.41-0.08,0.62-0.13C33.73,38.55,33.52,38.59,33.32,38.63z M35.93,37.6c0.22-0.2,0.43-0.44,0.61-0.74c0,0,0,0,0,0
	C36.36,37.16,36.16,37.4,35.93,37.6z"/>
</svg>
