<?xml version="1.0" standalone="no"?>
<!DOCTYPE svg PUBLIC "-//W3C//DTD SVG 20010904//EN"
 "http://www.w3.org/TR/2001/REC-SVG-20010904/DTD/svg10.dtd">
<svg version="1.0" xmlns="http://www.w3.org/2000/svg"
 width="1250.000000pt" height="1250.000000pt" viewBox="0 0 1250.000000 1250.000000"
 preserveAspectRatio="xMidYMid meet">
<metadata>
Created by potrace 1.14, written by Peter Selinger 2001-2017
</metadata>
<g transform="translate(0.000000,1250.000000) scale(0.100000,-0.100000)"
fill="#000000" stroke="none">
<path d="M9405 11094 c-233 -36 -466 -135 -670 -284 -84 -61 -247 -222 -311
-307 -142 -188 -257 -445 -310 -693 -14 -64 -18 -125 -18 -250 1 -151 4 -174
31 -275 17 -60 51 -169 77 -242 126 -359 182 -724 142 -922 -30 -145 -79 -217
-186 -271 -166 -84 -268 -94 -535 -54 -172 26 -215 29 -450 29 -220 -1 -284
-4 -415 -24 -408 -60 -736 -155 -1155 -333 -223 -95 -646 -306 -825 -413 -194
-116 -266 -150 -417 -199 -159 -51 -592 -204 -825 -292 -423 -159 -690 -288
-929 -447 -191 -126 -1023 -589 -2152 -1197 -240 -129 -435 -239 -433 -245 1
-5 35 -12 75 -15 l72 -5 -56 -55 c-31 -30 -69 -71 -85 -91 l-29 -36 187 -17
c103 -10 193 -22 201 -26 8 -4 -19 -23 -80 -55 -62 -32 -87 -50 -78 -55 8 -4
88 -24 179 -45 91 -20 169 -41 173 -45 5 -4 -19 -17 -52 -30 -34 -12 -61 -25
-61 -29 0 -3 78 -17 173 -30 320 -44 576 -104 596 -138 6 -12 52 -22 172 -39
284 -39 679 -100 1179 -179 85 -14 425 -68 755 -121 692 -110 839 -136 915
-162 65 -23 81 -30 310 -149 223 -116 461 -217 582 -247 53 -14 141 -27 203
-31 61 -3 164 -10 230 -15 66 -5 156 -12 200 -15 44 -2 179 -11 300 -19 121
-8 265 -17 320 -21 502 -28 563 -34 595 -50 36 -19 66 -78 124 -244 48 -136
65 -240 73 -436 7 -175 1 -211 -45 -275 -14 -20 -45 -51 -69 -69 -68 -52 -91
-111 -85 -214 l2 -29 31 26 c22 18 42 26 70 26 41 0 85 18 128 52 28 21 34 17
51 -35 16 -51 63 -103 103 -116 18 -6 56 -13 84 -16 37 -4 84 -22 155 -59 187
-99 237 -108 713 -141 127 -9 244 -18 260 -20 131 -17 304 -16 455 1 134 15
173 16 229 6 37 -6 75 -14 84 -17 9 -4 24 2 35 13 48 48 -25 175 -121 211 -34
13 -34 22 3 65 44 49 85 60 201 52 54 -3 104 -3 113 0 42 16 -15 102 -81 122
-21 6 -105 18 -188 27 -280 30 -565 92 -657 142 -53 29 -88 69 -88 101 0 20
-24 52 -38 52 -33 0 -203 -35 -312 -63 -354 -93 -492 -128 -494 -125 -16 27
-171 526 -182 588 -19 103 -11 391 11 426 14 22 74 44 121 44 69 0 514 85 739
141 529 132 858 257 1894 720 601 269 711 327 886 464 243 190 508 554 618
850 63 170 88 304 88 484 -1 402 -104 829 -287 1181 -74 143 -169 274 -289
398 -167 174 -318 285 -583 425 -78 42 -163 90 -188 107 -116 81 -301 281
-357 387 -87 167 -163 460 -201 777 -15 127 -8 167 34 211 56 58 88 67 305 87
427 40 388 43 631 -57 182 -76 383 -145 519 -180 101 -25 383 -76 530 -94 44
-6 132 -17 195 -26 139 -19 191 -20 220 -5 31 17 60 70 60 110 0 86 -80 142
-421 294 -388 173 -595 294 -807 472 -226 189 -341 327 -397 475 -154 407
-451 672 -883 785 -199 52 -409 66 -587 38z"/>
</g>
</svg>
