<?xml version="1.0" encoding="utf-8"?>
<!-- Generator: Adobe Illustrator 26.4.1, SVG Export Plug-In . SVG Version: 6.00 Build 0)  -->
<svg version="1.1" id="Ebene_1" xmlns="http://www.w3.org/2000/svg" xmlns:xlink="http://www.w3.org/1999/xlink" x="0px" y="0px"
	 viewBox="0 0 1920 1080" style="enable-background:new 0 0 1920 1080;" xml:space="preserve">
<style type="text/css">
	.st0{fill:#0000FF;}
</style>
<g>
	<path class="st0" d="M420.57,471.03h62.04c29.04,0,50.16,11.66,50.16,38.72c0,17.6-12.76,29.48-27.28,33.88
		c18.92,5.06,31.46,18.04,31.46,37.62c0,33.88-28.6,43.78-59.18,43.78h-57.2V471.03z M479.53,534.83c19.36,0,29.26-8.36,29.26-22.66
		c0-12.98-7.92-21.56-28.38-21.56h-36.74v44.22H479.53z M480.41,605.23c22.44,0,32.56-8.58,32.56-25.3
		c0-15.84-8.58-25.52-33.22-25.52h-36.08v50.82H480.41z"/>
</g>
<g>
	<path class="st0" d="M544.43,592.25c-1.54-10.34-0.44-20.68,2.42-30.8c3.52-11.22,8.8-21.34,16.28-30.58
		c1.1-1.32,1.1-2.42,0.66-4.18c-2.64-6.38-3.96-12.76-4.4-19.58c-0.88-15.18,2.64-29.04,10.56-41.8
		c5.72-8.8,13.42-15.62,22.66-20.68c9.24-5.06,19.36-8.14,29.92-9.02c3.96-0.44,7.92-0.66,11.88-0.66c3.3,0,6.82,0.22,10.34,0.66
		c8.36,1.32,14.52,8.36,14.74,16.94c0,0.44,0.22,1.1,0.22,1.76c3.96-1.98,7.7-4.18,12.1-6.38l-3.96,20.68
		c-3.08-3.74-5.94-6.82-8.8-10.34c-1.1,2.2-1.76,4.18-2.86,5.72c-4.4,6.38-10.12,9.46-18.04,8.8c-7.04-0.44-14.3,0-21.34,2.42
		c-6.16,1.98-11.66,5.06-15.18,10.78c-2.86,4.62-4.4,9.46-4.4,14.96c0,0.44,0,0.88,0,1.54l5.72-2.42c4.18-1.98,8.58-3.96,13.2-4.62
		c7.26-1.1,13.86,0.44,18.7,6.82c1.1,1.54,1.76,3.52,2.86,5.5c3.74-3.08,7.48-6.16,12.1-8.8c-0.44,7.04-0.66,13.86-0.88,20.9
		c-3.74-2.86-7.04-5.72-10.78-7.92l-0.66,2.86c-0.66,5.28-2.86,9.68-6.6,13.42c-1.98,1.76-3.96,3.08-6.6,3.96
		c-1.54,0.44-3.3,1.32-5.5,2.2c1.1,0.44,1.76,0.88,2.42,1.32c4.84,2.2,9.9,3.3,15.4,3.96c5.28,0.66,10.78,0.44,16.28-0.66
		c5.06-0.88,9.24,0.66,13.42,3.3c2.86,2.2,5.28,4.84,7.26,8.14c2.42-3.52,3.74-7.48,5.5-11.44l9.68,18.48
		c-4.84-0.44-9.02-1.76-13.2-2.86c0,0.66-0.22,1.32,0,1.76c1.32,7.26-2.86,14.08-9.24,17.6c-3.08,1.76-6.38,2.2-9.68,2.64
		c-6.82,1.1-13.42,1.54-20.24,0.88c-16.72-1.1-31.9-6.16-45.54-15.84c-0.66-0.66-1.32-1.1-2.2-1.54c-1.76,2.42-2.86,5.06-3.96,7.92
		c-2.2,5.28-3.52,11-3.08,16.72c0.44,7.48,3.52,13.42,9.02,18.04c8.36,7.26,18.04,10.78,29.04,11.66c10.56,0.88,20.68-0.66,30.8-3.3
		c6.6-1.54,12.76-0.66,18.26,3.52c1.98,1.54,3.74,3.52,5.06,5.72c0,0.44,0.22,0.66,0.66,1.32c2.64-3.74,5.28-7.48,7.92-11.44
		c2.42,6.82,4.62,12.98,6.82,19.8c-4.62-1.54-8.8-2.86-13.2-4.18c0,1.76,0,3.52-0.22,5.06c-0.66,7.7-5.06,12.76-11.88,15.62
		c-3.96,1.54-8.14,2.2-12.1,3.08c-6.6,1.54-13.42,2.42-20.24,2.86c-11.66,0.44-23.32-0.44-34.54-3.96
		c-11.44-3.52-22-9.02-31.02-16.94C554.11,621.07,546.63,608.09,544.43,592.25z M569.07,581.69c0,7.04,1.32,12.98,3.52,17.82
		c4.62,9.24,11.88,15.62,20.68,20.24c11.88,6.38,24.42,8.36,37.84,7.26c7.48-0.44,14.74-1.76,22-3.52c3.08-0.88,6.82,0.44,7.92,3.74
		c0.22,0.66,0.88,1.32,1.54,1.54c0.66,0,1.54-0.22,2.2-0.66c0.88-0.66,0.88-1.54,0.44-2.42c-1.32-3.96-4.18-6.16-8.36-6.82
		c-1.76-0.22-3.74,0.22-5.5,0.66c-10.78,2.42-21.56,4.18-32.78,3.08c-9.02-0.88-17.82-3.3-25.74-8.14
		c-5.94-3.52-11.22-8.14-14.74-14.08c-5.5-9.24-5.72-18.92-3.08-29.04c2.86-10.78,8.58-19.8,16.28-27.72
		c8.36-8.58,18.04-14.74,29.26-18.7c4.4-1.54,8.14-5.72,7.48-11.88c-0.22-1.54-1.1-2.42-2.2-2.42c-1.54,0-2.2,1.1-2.2,2.64v2.2
		c0,1.98-1.1,3.52-2.64,4.4l-2.42,1.1c-17.82,6.82-32.12,17.82-41.8,34.54C571.93,563.87,569.07,572.89,569.07,581.69z
		 M584.91,508.21c0,0.44,0.22,0.88,0.44,1.54c0.88-0.44,1.54-0.88,2.2-1.1c1.32-0.66,1.76-1.76,1.54-3.3
		c-0.44-3.3-0.22-6.82,0.44-10.34c1.54-7.04,4.4-13.42,9.68-18.7c5.5-5.5,12.32-8.36,19.8-10.12c6.6-1.76,13.42-1.76,20.24-1.32
		c4.84,0.22,9.9-3.52,10.56-8.8c0.22-1.32-0.22-2.2-1.32-2.64c-1.1-0.22-2.2,0.22-2.64,1.54c-0.22,0.44-0.22,0.88-0.44,1.32
		c-0.88,2.86-3.08,4.18-5.94,4.18c-2.42-0.22-4.84-0.22-7.48-0.22c-5.94,0-11.88,0.88-17.6,2.42c-8.8,2.86-16.5,7.26-22,14.74
		C585.79,486.65,583.81,497.21,584.91,508.21z M606.25,541.43l1.32,0.88c9.46,6.38,20.02,9.46,31.46,10.12
		c5.28,0.22,10.78,0,16.06-1.1c1.32-0.22,2.42,0.22,3.74,0.88s1.98,1.98,2.42,3.52c0.66,1.54,1.54,2.2,2.86,1.76
		c1.1-0.44,1.76-1.76,1.1-3.3c-0.44-1.1-1.1-2.2-1.76-3.3c-2.42-2.86-5.5-4.4-9.46-3.74c-5.72,0.88-11.44,1.1-17.38,0.66
		c-7.7-0.66-14.96-2.64-21.78-6.38c-1.54-0.66-3.08-1.54-4.84-2.42C608.89,539.67,607.79,540.55,606.25,541.43z M620.77,506.45
		c0,1.1,1.1,2.2,2.42,2.2c1.1-0.22,2.42-1.32,2.42-2.42s-1.1-1.98-2.42-1.98C621.65,504.25,620.77,505.13,620.77,506.45z
		 M647.83,450.57c1.1,0,2.2-1.1,2.2-2.2c-0.22-1.1-1.1-1.98-2.2-1.98c-1.32,0-2.2,0.66-2.2,1.98
		C645.63,449.69,646.29,450.57,647.83,450.57z"/>
</g>
<g>
	<path class="st0" d="M680.17,471.03h25.08l27.5,107.8c1.98,6.82,3.52,13.42,5.28,21.34c1.54-7.48,3.74-14.74,5.28-21.34
		l28.38-107.8h31.24l27.5,107.8c1.98,6.82,3.74,14.08,5.28,21.56c1.76-7.92,3.3-14.52,5.06-21.56l28.38-107.8h23.54l-41.36,154
		h-30.14l-28.82-113.08c-1.54-6.16-3.3-12.98-5.06-20.9c-1.76,7.92-3.52,14.74-5.06,20.9l-30.36,113.08h-30.36L680.17,471.03z"/>
</g>
<g>
	<path class="st0" d="M963.75,625.03v-1.98l0.22-0.88l0.44-0.88l1.1-0.88l0.66-0.44l1.32-0.66l-0.44-0.88l1.54-0.44l-0.66,0.22
		v-0.88l0.66-1.1l0.66-0.44l0.44-1.76v-1.1l2.2,0.44l0.44-2.2l0.44-0.22v-1.32l1.32-1.32l-0.66-0.66h-0.22l1.1-0.44l0.22-1.76
		l1.76-0.88l-0.66,0.88v-2.2l2.2-0.22l-1.1-0.44l1.32-0.22v-1.76v-0.66l2.2-0.22l0.44-0.22l-0.22-2.64l1.1,0.44h-0.88l0.66-1.32
		v-1.1l2.2-0.66l-0.88-0.44l0.22-1.98l1.32-0.88l0.66-0.44l-0.88-0.44l1.98,0.44l0.66-0.88v-0.88l0.22-1.1l1.32-1.1l-0.66-0.66
		l1.54-1.76l-0.66,1.1l0.88-1.32l-0.44-1.98v0.22l-0.88-0.44l-1.1,0.44l0.22,0.66l-0.44-1.32l-1.98,0.88l-0.44-0.88l-0.66-0.44
		l-1.76,1.1l-0.66,0.66v-0.44l-0.88-0.66l-1.76-0.44l-0.88,0.66l-2.2-0.66l-0.44-0.22l-0.22,1.32l-1.76-0.44l-0.44-0.44l-0.44,0.44
		l-1.76-0.44l-0.22,0.44l-0.22-0.44l-1.98,0.88l-0.66-1.1l-1.1,1.54l-0.22-1.1l-1.32-0.66l-1.1,0.66l-0.88,0.66l-1.1,0.22h-1.1
		l-0.66-0.22l-1.32,0.44h-0.44l-1.1-0.66v-0.44l-1.1,0.44h-1.32l-1.54,0.44l-1.32-0.66l-0.22,0.44l-1.32-0.44h-0.44l-0.88,0.44
		l-2.2-0.22v0.22l-0.44-1.1l-2.64-0.22l-0.44,0.44v0.44l-0.88,0.66l-2.2-1.32l-0.88,0.88l-0.44,0.22l-1.32-1.1v1.1l-0.66-1.32
		l-0.88,1.76l-1.98-1.54l0.88-0.22l-1.98,0.66l-1.54-0.44l0.88,0.88l-2.2-0.88l0.22,0.88l-2.42-0.88l-0.88,0.66l-0.66,0.88
		l-0.66-0.22l-1.32,0.44v0.22h-1.32l-1.32,1.76l-0.66-1.32l0.22,1.32l-0.66,1.32l-1.54,0.44l-0.88,0.22l-0.88-0.22v0.88l0.22,0.66
		l-1.76,1.32l0.22-1.32l-2.2,2.2l0.44,0.44l-1.76-0.88l0.44,0.44l-0.22,1.1l-1.76,0.44l-1.32,1.76l-0.44-0.22l-1.1,0.44v0.66
		l-0.66-0.66l-0.22,0.88l-1.76,1.1v1.1l-1.54,0.66l0.88-0.66l-1.76,1.32l-1.1-0.66l-0.88,1.54l-0.22,0.44l-0.22-0.44l-1.76,1.76
		l0.44-0.66l-1.54,0.66l-0.66,1.32l-0.66-0.44v0.44l-1.32,0.66l-0.66,1.54l-0.22-0.44l-0.66,0.44l-1.1,1.98l0.44-1.1l-1.98,2.2h0.44
		l-0.66,0.66l-1.1-0.66l-0.88,1.54l-0.88,0.88h-1.54l-0.22,0.44l-0.88,0.66l-0.66,0.66l-1.54,0.66l0.22,0.66l-1.32-0.22v0.88
		l-2.2,0.44l0.22,1.54l-0.66,0.44l-1.1-0.44l0.22,0.88l-1.76,0.66l-1.1,0.44h0.44l-1.76,1.76l0.88-0.22l-1.76,0.88h0.22l-2.2,0.22
		l-0.88,1.1l0.22-0.66l-1.54,1.32l0.66-0.22l-0.44,0.88l-2.2,1.98l-0.22,0.44l-0.88-0.44l-1.32,0.66l0.88,1.1l-2.64,0.44l-1.1-1.54
		l-0.44,0.88l-0.88-0.88l-0.44,0.22l-0.22,1.32l-1.1-1.1l-0.88,0.22l-1.98,0.44l0.22,0.66l-1.32-1.76h-0.22l-1.32,1.76l-0.44-0.44
		l-2.42-1.32h-1.1l0.22,0.22l-1.54,0.66l-0.88-0.66l0.44,1.1l-1.98,0.22l0.22-0.88l-1.54,0.22l-0.44,0.88l-1.54-0.66l-1.32,0.44
		l-0.88-0.88l-0.88-0.66l-1.1-0.44l1.32,0.66l-0.22-2.2l1.1-0.88v0.88l1.76-0.66l0.66-1.1l-0.66-0.88l0.66,0.22l1.98-1.98l0.66,0.88
		l-0.22-1.98l1.76-0.44v0.66l1.32-1.32l0.88,0.44l0.22-1.54l0.88,0.22l0.22-1.32v-0.22l0.66,0.44l0.66-1.32l1.76,0.66v-1.32
		l0.88,0.22l1.98-0.66l-1.1-2.2l1.76,1.32l0.66-1.32h1.32l0.44-0.44l-0.44-1.54l0.88,0.66l1.76-0.88l0.44-0.66v-1.32l0.44,0.22
		l1.98-1.1l-0.22-0.22l0.88-0.22l0.22-0.66l1.54-1.32l0.66-0.44l1.54,0.44l0.66-0.88l-0.88,0.44l1.76-1.54l0.44,0.44l1.32-2.2
		l-0.44,1.1l1.98-0.88l0.44-1.54l0.22-0.22l0.88-0.22l0.44,0.44l1.76-1.32v-0.44v-0.22h1.98l0.66-1.98l0.66,0.66l-0.22-0.44
		l1.1-1.98v0.22l1.32-0.44l1.76-0.44l-0.22-0.22l0.44-0.22l1.1-1.32v0.66l0.44-0.88l1.76-1.76h0.88l0.44-0.22l0.44-0.88l0.44-0.44
		l1.54-1.1l0.66,0.44l1.98-1.54l-0.44,0.22l0.44-1.54l2.2-0.88v0.44l0.22-0.22l1.32-0.88l-0.22-0.22h1.32l0.22-0.22l1.54-2.42
		l1.32,0.22l0.88-0.22v-1.32l0.22,0.22h1.1v-1.98l0.66,0.66l1.32-1.54h0.44l1.98,0.44l-0.44-1.76l0.44-0.44l0.88,0.66l1.54-1.54
		l-0.66-0.88l1.98,0.44h1.32l-0.44-1.54l1.32-1.1h0.22l2.42-0.22l0.22-1.1l1.98-1.1v-0.22h0.44l1.1-1.76l0.88,0.22l-0.44-0.66
		l1.32-1.32l1.1,1.32l1.32-1.54l-0.88-1.32h2.2l0.22,0.66l0.66-1.54l1.1-0.44l0.22,0.22l-0.22-1.32l0.66-0.66l2.2-0.88l-0.22,0.66
		l0.88-0.66l0.22-1.32l0.66,0.22l1.1-1.54l0.88,1.32l0.44-1.1l0.66-0.44l1.32-0.44l1.32-0.44l-0.88-1.1l1.1-0.44l1.1-1.32v0.44
		l2.2,0.22l0.88-1.32l-0.66-0.88l1.54,0.22l-0.44-0.88l1.54-0.44l1.76-0.44l0.66-0.44h0.44l0.44-0.88v-0.66l0.66-0.66l1.98,0.22
		l-0.88-0.66l1.76-1.76l-0.22-0.66l1.32,0.88l-0.22-1.76l1.76,0.88l1.54-1.32l0.22-1.32v0.44l1.76-1.54l-0.22-0.22l1.1-0.44
		l1.32-0.22v-0.22l1.54-1.1l0.44-0.22l0.88-1.1v-0.66h1.32l-0.22-1.32h2.42l0.44-0.88l0.44-0.44l0.88-0.44l1.1,0.44v-0.22l-0.22-2.2
		l1.32,1.1l1.32-0.66l-0.44-1.76l0.66,0.88l1.76-0.44l0.66-0.44l1.1-1.54l-0.66-1.1l0.88,0.66h1.1l0.88-0.88l1.76-1.1l-0.88-0.66
		l0.66-1.1h1.98l0.22,0.44l0.66-1.32l1.54-0.44l0.88,0.44l0.22-0.88l0.66-1.76h0.66l1.1-0.22l0.88-1.54l0.88,1.32l-0.44-0.44
		l0.88-2.2l1.1,0.88l0.22-1.1l2.42-0.66h-0.88l1.98-1.32l0.22-1.1l1.54,0.66l-0.22-1.1l1.54-1.54l0.22-0.66l2.2-0.88l0.44,0.66
		l-0.44-0.44l1.98-1.76h0.44h-0.44l0.88,0.22l1.32-1.98l1.98-0.66h0.44v-1.32l1.32,0.88l0.88-0.88l-0.66-1.54l1.32,0.88l0.44-1.98
		l1.76-0.44l0.22-0.66l0.88-0.22l0.22-0.88h1.1l1.1-1.1l1.1,1.1l0.88-1.54l-0.66,0.44l0.66-1.98l1.54,1.1l0.22-0.44l0.66-1.98
		l1.76,0.22l-0.44-1.32h1.32v0.22l1.1-1.32l0.88-1.1l1.54,0.66l-0.44-0.88l0.88,0.22l0.88-1.32l1.54,0.44v-0.66l1.32-0.44l0.88-2.2
		l0.44-0.44l0.22,0.22l1.1-0.44l1.54-1.76l-0.22,0.44l0.44-0.44h0.44l1.1-0.22l1.54-2.42l0.88,0.66l0.66-0.22l0.22-0.22l0.66-1.54
		v0.66l2.42-1.1v-1.32l1.32,0.44l0.22-1.1l1.1,0.22v-1.1l0.44-0.66l0.44,0.22l0.88-0.66l0.66-1.98h1.54l-0.44-0.88l1.54,0.88
		l1.32-0.88l-0.22-0.22l1.98-0.88l0.22-1.1l0.88,0.66l1.76-0.44l0.44-0.22l-0.22-0.88l1.32,0.66h1.54l1.32-1.1l1.1,0.88l0.44-0.44
		l1.1-0.66v0.88h1.98l0.88-0.44l-0.22-0.22l1.54-0.22h0.66l1.54,0.44l1.1,1.1l0.22-0.44l2.42-0.22l0.22-0.66l0.44-0.22l0.44,0.44
		l2.64,1.1l0.88-0.22h0.88l0.88-1.1l0.22-0.22l1.1,1.54l-0.44,0.22l1.54-1.54h1.1v-0.22l1.32,0.88l-1.1,1.54l0.66,1.54l-1.98-0.44
		l-0.44,1.98l-0.22,0.88l0.44-0.66l-0.88,1.54l-0.44,1.32l-0.22,0.88l-1.1-0.88l0.44,0.88l-0.44,1.54v0.66l-0.88,0.44v0.44
		l-0.88,0.88l-1.1,0.44l0.88,1.1l-1.98,1.98l-0.44,1.54l-0.88-0.22l0.66,0.66l-0.22,0.22l-1.76,1.32h-0.44l0.22,2.42l-1.32,0.66
		l-0.66-0.66l0.44,0.66l-0.22,2.2l0.22-0.66l-0.66,1.98h-1.1l-1.32,1.76l0.66,0.44l-0.22,0.88l-1.1,1.32l-0.88-0.22l-0.66,2.2
		l-0.88,0.22v-0.22l0.22,1.98l-0.88-0.44l-0.66,1.32l-0.88,1.32l0.88,0.44l-0.66,0.44l-1.1,0.88l-0.44,1.1l0.66,0.88l-1.98,0.22
		l-0.66,1.98l1.1-0.66l-1.76,1.76l-0.44-0.22l-0.44,0.22l0.88,1.32l-0.88,1.32l-0.66,1.32v-0.88l-1.98,1.32l0.44,1.54l-1.1,0.88
		l0.22,0.66l-0.44-0.44l0.22,0.66l-1.32,1.1l-0.22,2.2l-1.32,0.44l0.44,0.66l-1.1,0.22l-0.44,1.54l-0.44-0.66l0.44,0.66l-1.32,0.66
		l-0.22,1.32l-0.44,0.66l-0.88,1.76h-0.44l-0.22,0.66l0.44,0.22l-1.54,0.66l-0.66,1.98l0.88,0.44h-1.54l0.44,1.1v1.1l-1.54,0.88
		l0.88,1.1l-0.88,1.1h-0.88v0.88l-1.1,0.22v1.32l-1.32,1.1l0.44,0.66l-1.32,0.22h0.44l-1.1,1.54l-0.66,1.54l-0.66-0.88l0.22,1.98
		l0.22,0.22l-0.44,1.76h-0.44l-0.66,0.44l-1.76,0.44v1.1v1.98l-1.1,0.44h0.66l-0.44,0.66l-1.76,1.54l-0.88,1.1l0.66,1.54l-0.22-0.22
		l-1.76,1.1l0.66,0.66l-0.22,0.66l-0.66,1.32l-0.66,0.22l-1.54-0.22l0.66,2.2l-1.1-0.66l0.44,2.42l-1.32-0.22l0.44,1.1l-0.66,0.66
		l-1.54,0.66h0.22l-0.22,1.98l0.44,0.44l-0.44,0.44l-1.98,0.88l0.44,1.1l-0.44,0.22l-0.44,0.66l-1.32,1.76l-0.22-0.22l-0.88,0.88
		l1.1,0.66l-2.2,0.66l0.44,1.54l-1.1-0.22l0.44,0.44l-0.44,1.98l-0.22,1.32l-0.44-0.22l-1.76,0.66l-0.44,0.88v1.32l0.44,0.44
		l-0.66,1.1h-0.22l-1.1,2.2l-0.66-0.22l-0.66,1.76l-0.22-0.44l-0.66,2.2l0.44-0.44l-1.54,1.98l0.22,0.66h-0.22l-1.54,1.76l0.22-0.44
		l-0.66,1.32l-1.1,1.1l1.1,1.1l-1.54-0.88l0.44,1.98h-0.88l-1.32,2.2v-0.66l-0.88,1.54v0.44l-0.88,1.98l-0.66-0.22v1.54l-0.66,0.88
		h-0.66l-0.22,1.1l0.44,0.22l-0.44,0.66l-1.1,1.98l-1.54,0.44l0.44,0.44l0.44-0.22l-0.66,2.42l-0.22-1.1l-1.1,1.76l0.22,1.1
		l-1.54,1.1l-1.1,0.22l1.32,1.32l-1.76,0.88l0.44-1.1l-0.66,0.88l-0.88,0.66l-0.66,1.1l0.44,1.98l-1.32,0.66l-1.76-1.1l-0.66,0.88
		h-0.44l-0.88-1.32l-0.22,1.1l-1.98-0.88l-0.22,1.1h-2.2l-0.22,0.44l-1.1-0.88l0.22-0.88l-0.66,1.76l-1.98-0.44l-0.22,0.44
		l-0.44-0.44l-1.54-0.88l-0.22,0.88l-1.32-0.22l-2.2,0.44l-0.44,0.22l-0.66-1.54l-0.66,1.32v-1.1l-0.88-0.22l-0.88,0.44l-2.64,0.22
		l0.88-0.22l-1.54-0.66l-1.32,1.54l-2.2-1.54L963.75,625.03z M953.85,559.03l1.54,0.88l-0.22,0.44l0.88-0.88l2.42,0.22l-0.22,0.22
		l0.44-0.88l1.98-0.22l1.54,0.66l0.22,0.66l0.44-0.88l1.98,0.66l-0.44,0.22l1.54-1.1l1.32,1.1l0.44-0.66l0.88,0.66v0.44l0.66-1.1
		h1.54l1.32,1.1l0.66-0.66l1.54-0.22l0.44,0.44l2.2-0.44v0.66l1.54-0.22l-0.22,0.44h2.2l-0.44-1.1h1.1l0.66-0.66l1.32,0.88
		l0.44,0.44l1.98,0.44l0.22-0.22l0.88-1.54h1.32l0.66,1.76h0.44l1.54-1.54v0.88l1.1-0.88l1.76,0.22l0.22,0.66l1.1,0.22l1.1-1.1
		l0.44,1.1l0.88-0.44l1.54,0.88l1.1-1.76v0.44h1.1l1.1-0.44l0.66,0.22l1.32,1.54l0.22-2.2h0.88v-2.2l1.98-0.66l-0.44-0.44l1.32-0.44
		l0.66-1.32l-1.1-0.88l1.54,0.88v-1.76l-0.22-0.88l1.54-1.1l-0.22-1.1v-0.22h1.98l-0.66-0.66l0.88-2.42l0.88-0.66h1.1l0.66-1.98v1.1
		v-2.42l1.54-0.66v0.44l-0.44-1.76l1.32,0.44l0.88-2.2l0.44,0.88l-1.32-2.2l0.88-0.44l1.1-1.1l-0.22-0.88l1.98-0.88v-0.44
		l-0.22-0.88l1.54,0.88l-1.1-2.64l0.88,0.66l1.54-0.66l-0.88-1.54l1.1-0.66l1.32-1.1l0.44,0.44l0.22-1.32l-0.88-0.88l1.32-1.1
		l1.1-0.66l-0.88-0.66l0.88,0.22l-0.22-1.98l0.22-0.44l2.2-0.88v-1.32l-0.66-0.22l1.1-0.44l1.1-0.88l0.88-0.22l-0.22-1.54v-0.66
		h1.54l0.22-1.54l-0.22,0.22l-0.22-1.98l0.88-0.66l1.1-0.88h-0.66l1.1-0.44l1.54-0.44l-0.22-0.88l0.88-1.54h0.44l0.44-0.66
		l0.22-1.98l1.32-0.22v-2.2l0.22-0.44v0.88l1.54-1.98l-0.66,0.22l0.44-1.98h0.88l0.44-0.22l0.88-0.44l0.22-1.54l-0.44-0.88
		l1.54-1.32l-0.22-0.22l1.54-0.88l0.88-0.44v-1.54h1.1l0.44,0.66v2.64h-1.32l-0.22-0.66l-1.32,1.76v0.44l-0.22,0.88l-0.88,0.22
		l-1.54-0.66v1.32l-0.44-0.44l-0.44,1.1l-2.42,1.76l-0.22,0.22l-0.22-0.88l-0.88,0.66l-1.54,1.54l0.66-0.44l-0.66,1.98l-0.44,0.22
		l-1.32,0.22l-1.1,0.66l-1.1,0.88l-0.88,0.22l0.66,0.44l-2.42,0.44l0.66,0.88l-1.54-0.44l-0.44,1.76l-1.1-0.66l-0.22,1.32
		l-1.54-0.44v0.44l-1.54,0.66l-0.44,0.44l-0.22,1.1l-1.76-0.22l0.66,1.32l-1.98,1.54l-0.44,0.44v0.66h-1.54h-0.88l0.22-0.22
		l-1.76,0.88l0.66,1.76l-0.66-0.88l-1.1,0.44l-1.54,1.54l-1.32-0.44l0.44,0.44l-1.76,1.54v0.66v0.88l-1.32,0.22l-0.22,0.66h-1.76
		h0.66l-1.1,0.66l-0.44,0.22l-2.2,1.32l-0.44,0.66l-0.22-0.88l-1.32,2.42l-0.44-0.88l0.22,1.76l-2.2-0.44l0.22-0.22l-0.22,1.98
		l-1.1-0.22l-1.54,1.32l-0.22,0.66l-1.32-0.66l-0.88,1.32l0.88,0.22l-1.54,0.44l0.22,0.66l-0.88,0.88l-0.66,0.88l-0.44-0.22
		l-0.66-0.22l-2.42,1.76l-0.22,0.88v-1.1l-0.66,0.66l-0.44,0.88l-2.2,0.88l0.88,0.88l-1.32-0.66l-1.76,1.1h0.88l-1.32,1.98
		l-0.44,0.44l-1.32-0.22l-0.22,1.32l-0.88,0.44l-1.76,0.44h-0.88l0.22,1.32l-1.32,0.22l-0.22,1.1l-1.1-0.44l-0.66,0.66l-0.22-0.44
		l-1.76,1.76l-0.66,0.88v0.22h-0.22l-1.54,0.44l-1.32,0.22l0.22,1.54l-1.54,0.22l0.44,0.66l-1.98,1.1l-0.88-0.66l0.22,1.76
		l-0.66-0.66l-0.88,1.32l-0.66,0.22l-1.54,1.54l-0.66,0.66l-1.54-0.22l0.22,0.66l-1.76,0.88l-0.22-0.88l0.22,1.1l-1.1,0.66
		l-1.1,1.32l-0.22,0.66l-1.54-0.88l-0.44,0.22l0.44,0.88l-1.32,1.32l-1.54,0.22l0.66-1.1l-0.88-1.32L953.85,559.03z M1104.55,428.57
		l-0.44-1.1l-2.2,0.66l-0.66,1.76h1.1l-0.88,0.66l-1.54,1.1l0.66-0.22l-2.42,0.88l-0.22,1.54l-0.44,0.88l0.22,0.44l-1.32,1.32
		l-0.44-0.88l-1.32,1.1l-1.32,0.44l-0.44,1.1l0.44,0.66l-1.76,0.88v-0.22l-0.44,1.98v-0.88l-1.32,2.2l0.22,0.22l-1.76,0.66
		l-0.44,0.44v-0.44l-1.32,2.2l-0.22,0.44l-0.88,0.88l0.22-1.32l-2.2,0.88v2.2l-1.32,0.66l-0.22,0.22l-0.66-0.44l-0.44,0.88
		l-0.88,0.66l-0.66,1.32l0.88-0.66l-1.1,0.88l-1.76,1.54l-0.88-0.66l-0.44,0.22l-1.32-0.88h-1.54l-0.44,0.22l-1.54-0.22l-0.88,1.54
		l-0.88-0.44l0.22-0.44l-0.66-0.44l-0.88,1.54l-1.76-0.44l-0.66-0.22l-0.88-0.66l-0.88,0.88l-2.2-1.1l-0.88-0.22l0.66,0.44
		l-2.42,1.1l-0.66-0.22l-1.1-1.1l0.66,0.66h-2.64v-0.22l-0.66,0.44l-2.64-0.88l0.88,1.1l-1.76-0.22h-0.88l0.44-0.66l0.88-1.32
		l2.2-1.32h-1.1l0.88-0.22l0.22-1.32l1.54-0.88v0.22l1.76-1.1l0.66,0.22l-0.22-0.44l1.76-2.2l0.66-0.44l-0.66-0.88h0.88l-0.22-1.1
		l2.2,0.66l0.66-1.54v-0.44l0.44-0.66l0.66-0.22l1.1-1.54l0.44-0.66l-0.44,0.88l2.2-1.98l-0.22-1.1l1.54,0.88l0.66-1.32l0.88-0.88
		l0.88-1.1l0.22-0.22l0.66-0.88l0.44-0.22l1.54-1.32l-0.22-0.66l0.22-1.1l1.54,0.88l0.22-1.1l1.76-0.66l-0.88-1.1l2.2-1.32
		l-0.22,1.1l1.32-0.44l2.2,0.44l-0.66-0.22l2.2,0.66l-0.44-0.88l1.54-0.88l0.44,1.76l1.54-0.22v-0.66l2.42-0.88l-0.22,1.1l0.66-1.1
		l0.44,1.1l2.64-1.1l-0.66,1.54l1.98-1.32l-0.22,1.32l1.32-1.32l0.22,0.22l1.1,1.1l1.76-0.44h0.44l1.76,0.66l0.44-1.76l0.66,1.76
		h0.44l0.22-0.44l1.54-0.66l1.32,0.88h-0.44L1104.55,428.57z M1148.11,427.25l-1.54,0.44l0.44,1.76l-0.88,1.1l-0.44-0.66l-2.42,1.54
		l0.88,0.66l-0.88,0.88l-1.32,0.88l0.22-0.66l-2.2,2.2l-0.66,1.32l-0.44-0.22l-1.1,1.32l0.22,0.66l-0.66,1.32l-1.98-1.1l0.88,2.2
		l-0.44-0.22l-2.42,0.22l-0.44,0.66l0.22,0.22l-1.1,0.88l-0.66,1.1l-0.88-0.22l-0.66,2.42l-0.88-0.88l0.44,1.32l-0.66,0.88v0.66
		l-1.98,0.88l-0.66-0.66l-0.22,0.44l-0.44,2.2l-1.32,1.1l-0.44-0.22l-0.44,1.1h-1.32l-0.44,0.88l-2.42,0.22v-0.88h-1.76l0.44,0.88
		l-1.98-0.44l-0.66,1.1v-0.66l-1.32-1.1l-0.44,1.54l-2.2-0.44l0.22,0.44l-1.98-1.54l-0.66,1.76l-1.1-0.44v0.22v-0.22h-1.1
		l-1.76,0.22l-1.32-0.88l-0.44-0.66l-0.88,1.76l0.22-0.88l-2.2-0.44l-1.1,1.1l0.66-1.1l-2.42,0.66l-1.1-0.88l-0.88-0.22h0.66
		l-1.54,1.32l0.88-1.1l0.22-0.22l2.2-1.54l-0.66-0.66l1.1-0.22l-0.22-0.22l0.88-1.98l1.32-0.88l0.44-0.44l0.88,0.88l-0.22-0.66
		l1.76-1.32h-0.66l2.2-0.66l0.66-1.76h-0.66v-1.54l1.1-0.22l0.44-0.88l0.88,0.22l1.98-1.32l-0.88,0.22l1.1-0.88l0.66-1.32h1.1
		l0.22-0.44l1.1-1.98l0.66-0.44l0.44-0.44l0.88-1.32l1.1-0.22h0.66v-1.54l1.1,0.44l0.66-0.22l1.1-1.32l-0.88-0.66h0.44l0.66-0.88
		l1.98-1.54l1.76-1.32l0.44,1.54l0.44-1.1l1.1-0.44l2.2,1.32l-0.88,0.22l1.76-1.1l1.76,0.44l-0.44,0.22l1.32-0.22l0.88-1.1h0.66
		l1.1,0.66h1.54l-0.22,0.66l1.32,0.22l1.76,0.22l-0.22-1.32l1.98,1.32l-0.66-0.66l1.76-0.44h1.54l-0.66,0.66l0.66-0.66h2.86
		l0.44-0.66l1.98,0.22l-0.22,0.66l1.54-0.88l0.22,2.2L1148.11,427.25z"/>
</g>
<g>
	<path class="st0" d="M1097.51,471.03h66.44c29.26,0,48.84,14.08,48.84,40.48c0,20.02-14.74,33.22-28.82,37.4
		c15.62,2.64,25.74,15.4,25.74,35.42v40.7h-23.32v-36.3c0-22-8.36-29.26-29.7-29.26h-35.86v65.56h-23.32V471.03z M1158.89,539.67
		c19.36,0,29.92-8.58,29.92-24.64s-10.56-24.42-29.92-24.42h-38.06v49.06H1158.89z"/>
</g>
<g>
	<path class="st0" d="M1221.59,485.77c9.9,0.22,7.7-2.42-4.4-8.36c11.44,2.2,15.18,1.76,10.78-1.98c1.1,0,1.54-0.44,1.1-1.1
		c-0.66-1.32-4.84-4.4-11.66-8.58c14.74,5.06,18.48,5.28,8.36-2.42c9.9,4.62,5.94,1.54-6.38-6.38c12.32,7.92,17.38,10.56,9.02,3.3
		c11.88,6.6,10.78,3.52-1.1-8.36c12.76,8.8,18.26,11.88,12.98,4.84c10.34,7.04,9.68,3.74-0.22-9.24
		c15.18,13.64,18.48,14.52,9.68-0.88c11,11.22,9.9,6.16,0.88-12.1c9.24,13.86,13.2,18.92,10.12,10.34c7.7,12.1,8.36,10.34,2.86-5.28
		c8.58,16.5,11,19.14,7.92,5.72c5.5,10.78,5.28,5.72,1.32-13.2c6.16,19.14,8.8,24.64,8.14,12.98c4.18,14.52,5.28,11.66,5.06-7.48
		c2.86,18.48,4.18,20.46,5.72,5.28c1.1,11,2.42,4.84,4.62-14.74c-0.22,14.52,0.22,21.12,1.76,17.16c0,9.02,1.32,7.48,4.4-4.4
		c-1.32,13.42-1.1,16.5,1.76,8.8c-0.22,5.28,1.98,0,6.6-14.08c-5.28,22.66-5.06,24.64,2.64,5.28c-4.84,15.62-2.42,9.68,5.5-11.44
		c-6.16,21.12-6.6,27.06,3.08,13.42c-6.82,18.26-3.52,17.16,10.78,0.22c-5.94,10.34-8.36,15.84-7.04,16.5
		c-8.36,10.56-12.1,14.96-11,12.76c-6.38,7.7-6.6,6.82-1.54-2.64c-7.92,10.56-10.34,12.32-9.02,5.5c-3.52,3.3-2.86-1.98,0.66-17.6
		c-6.38,16.94-9.24,22.44-11.66,18.48c-3.3,5.94-5.94,2.42-11.22-12.1c1.98,16.28,0.22,17.6-8.58,4.62c2.42,8.8-2.2,3.52-16.72-15.4
		c12.1,18.92,14.74,24.2,6.16,16.72c8.14,11.88,5.5,11.22-9.9-0.88c13.2,13.42,13.86,15.4,0.66,7.7c7.92,7.04,2.2,4.4-16.94-6.38
		c12.98,8.36,17.6,11.66,12.54,9.9c6.38,4.18,3.3,3.3-9.46-2.64c10.12,5.5,10.56,5.94,1.76,2.2c1.54,0.88,0,0.22-3.74-1.54
		c6.16,3.08,7.04,3.74,0.88,1.54c14.08,6.6,12.54,6.82-4.4,1.32c17.38,7.7,19.58,9.68,5.06,7.04c10.34,4.4,3.96,4.18-16.06,1.54
		c14.3,3.3,20.68,5.28,16.72,5.72c8.8,2.2,7.26,3.08-4.62,3.3c13.2,1.98,16.06,3.3,8.36,4.62c5.06,1.32-0.22,2.64-15.18,4.84
		c14.52-0.22,19.58,0.22,14.08,2.42c7.48,0.22,4.4,1.98-8.58,6.16c11-1.54,12.32-0.88,3.96,2.86c3.3,0-2.2,2.64-13.64,7.7
		c-2.64,0-5.94,0.44-10.34,1.32c15.4-7.48,19.58-11.22,6.16-11.44c13.64-5.72,9.9-7.92-7.7-9.02c16.94-3.52,19.8-5.94,5.72-9.24
		c12.32-1.98,7.7-4.4-7.92-8.8C1223.35,490.39,1228.41,489.51,1221.59,485.77z M1237.65,581.69c1.98-7.7,2.2-12.98-2.86-12.1
		c2.64-8.36-0.22-10.56-9.02-7.48c7.04-8.8,9.68-13.64,3.96-12.1c5.5-7.04,2.2-7.7-8.58-3.52c12.1-10.34,14.74-14.3,2.42-11.66
		c7.26-5.5,7.48-7.7,1.54-7.7c20.02-5.94,24.64-6.16,10.78,2.42c18.92-6.82,17.38-3.96-1.54,9.9c20.02-11,22.44-10.78,7.48,3.08
		c13.64-9.02,9.68-4.18-6.38,11.88c11.66-9.46,16.94-13.42,14.3-9.24c5.94-4.62,3.74-1.1-5.5,10.12c9.02-9.24,11-10.78,5.94-4.4
		c2.42-2.2-1.54,2.64-9.46,12.1c12.76-14.96,16.5-18.92,8.36-6.6c12.76-14.3,12.1-10.78,1.1,9.24
		c10.78-14.74,14.74-18.92,10.56-8.58c8.14-11.66,8.14-8.58,1.98,8.36c8.36-15.18,10.56-16.28,7.04-2.2
		c4.4-8.14,4.18-3.52,1.1,11.44l-0.88,1.76c1.32-13.2-1.1-12.54-7.7-0.88c0.66,1.98-0.22,7.92-1.98,16.06
		c4.18,0.88,4.18,13.64,4.18,13.64s9.24,0,18.26,0.88c9.24-0.88,18.48-0.88,18.48,0c11.22-0.88,19.36-3.08,25.08-6.38
		c5.06-5.06,7.48-11.44,11.22-12.98l-3.08-11.66c-5.28-7.7-7.48-9.9-4.4-1.98c-7.26-10.12-7.48-7.04-2.64,7.7
		c-5.94-10.34-9.24-15.4-9.24-11.44c-3.3-4.84-3.52-0.88-1.1,11c-3.3-7.48-5.5-11.44-6.6-11.22c-3.08-14.52-2.42-16.94,3.74-4.18
		c-5.5-19.58-3.08-18.04,8.14,1.98c-8.8-21.56-8.58-24.42,3.08-7.92c-7.48-15.18-3.3-11,10.56,6.6c-10.34-16.28-13.2-22-5.06-14.3
		c-6.82-10.34-3.74-8.8,8.58,2.42c-0.66,1.32,1.98,6.16,7.26,13.64c-4.18-6.6-6.16-10.78-5.94-12.32l0.66,0.66l-0.66-0.88
		c0.22-1.54,3.52,0.22,9.9,5.5c-6.16-7.92-1.32-3.74,7.7,5.28c-3.74-2.42-0.66,5.72-0.44,15.84c-0.22,5.5-1.1,10.34-2.42,14.74
		c-7.48,22-31.46,28.82-56.98,28.82h-57.2v-23.98C1241.39,593.79,1241.39,585.43,1237.65,581.69z M1229.07,474.33l-4.84-2.2
		C1225.99,473.01,1227.53,473.67,1229.07,474.33z M1225.11,527.13v0.22h-0.66L1225.11,527.13z M1261.19,574.87
		c2.2-8.8,1.98-11.22-1.32-6.6c0,1.1-1.54,5.94-4.18,13.42C1258.33,577.29,1260.09,575.09,1261.19,574.87z M1258.11,567.39
		c0.44,0,0,1.32-1.1,3.96l1.76-2.64C1259.21,566.73,1258.99,566.51,1258.11,567.39z M1278.79,564.31c4.62-14.74,6.16-13.2,5.94,4.84
		c3.52-19.58,5.28-22.66,7.26-7.92c1.54-11.66,3.08-7.26,5.72,10.34c-0.44,2.86-0.66,7.26-0.88,13.42
		c-1.98-12.32-3.3-17.6-4.62-12.98c-1.54-6.16-3.08-2.64-5.06,9.24c-0.66-10.56-1.98-12.98-4.18-6.6c-1.1-3.3-3.08,2.2-6.16,12.98
		c0.66-15.4-0.22-21.56-4.62-14.96l-0.22,0.22l-1.1,1.76l-0.66,3.52l1.98-5.5C1276.81,559.47,1279.23,555.51,1278.79,564.31z
		 M1297.93,570.03c-0.44-16.28,0.22-20.24,3.08-9.24c-1.1-14.3,0.44-11.22,5.5,7.48c-3.3-17.16-3.08-18.7,1.32-4.18
		c-1.76-7.7-0.88-5.06,2.2,5.28c-0.44,0.88-0.44,2.86-0.22,6.16c-3.74-7.26-4.18-1.76-3.3,12.1c-3.08-17.6-4.62-23.1-3.96-9.68
		C1300.13,568.27,1298.81,565.85,1297.93,570.03l-0.22,1.54l0.44,3.08C1298.15,573.11,1297.93,571.57,1297.93,570.03z
		 M1310.47,569.15c-0.22,0-0.44,0-0.44,0.22l2.42,9.02C1311.57,574.87,1310.91,571.79,1310.47,569.15z M1326.31,459.59
		c1.32,0.22,4.84-2.42,10.56-7.7c-8.36,12.54-3.08,9.68,12.54-2.86c-10.78,12.1-13.64,16.72-4.62,11.88
		c-7.48,8.36-3.08,7.48,11-0.22c-10.78,9.02-11.88,11.44-1.54,7.7c-5.72,4.84,0,3.52,12.54-1.1c-14.74,9.68-16.94,13.42-1.32,11.44
		c-13.42,7.7-9.24,9.46,7.92,9.24c-14.74,5.5-16.72,9.02-2.42,11.88c-4.18,1.32-6.6,2.64-7.26,3.96c-15.18-1.1-21.78-1.98-16.94-3.3
		c-7.26-0.88-3.52-2.2,10.78-4.62c-13.64,0.44-16.72,0-9.24-2.2c-4.18-0.22,2.42-2.2,16.72-5.72c-18.26,3.08-25.52,3.96-16.72,0.88
		c-15.4,2.86-14.74,1.76,1.54-4.4c-18.7,5.06-22,5.06-9.02-1.32c-11.22,3.3-6.16,0.22,11.88-9.24c-20.02,8.8-27.06,11.22-19.14,5.28
		c-14.74,6.82-14.52,5.06-0.44-7.04c-16.94,10.78-19.8,11.22-10.78-0.22C1314.21,477.85,1315.97,474.11,1326.31,459.59z
		 M1329.83,454.75l-3.96,4.84h0.44C1327.41,458.27,1328.51,456.51,1329.83,454.75z M1345.01,548.69c-3.96-1.32-3.74,0.88,1.32,7.7
		c-3.74-2.42-5.94-3.3-6.6-2.86c-9.9-11.66-10.34-14.08-0.44-6.16C1334.23,541.43,1336.87,542.53,1345.01,548.69z M1350.29,542.97
		c-3.74,0-1.32,3.74,5.72,11.44c-3.3-1.98-6.16-3.52-8.36-4.62c-6.16-6.16-8.58-9.02-5.72-7.92
		C1336.65,536.37,1339.51,537.03,1350.29,542.97z M1340.83,555.07v-0.22c-0.44-0.44-0.88-0.88-1.1-1.32c-0.22,0-0.22,0.22-0.22,0.22
		L1340.83,555.07z M1358.21,537.47c-12.32-7.48-17.16-11-12.1-10.34c-5.72-3.96-1.76-3.74,11.44,0c-11.22-5.28-13.42-7.26-6.16-6.38
		c-2.64-1.76,1.54-1.76,10.56-0.22c-0.66,1.54,2.64,3.96,9.02,7.48c-11.44-1.32-15.18-0.22-9.02,4.84
		c-6.82-0.22-3.96,3.52,5.28,10.34c-11.66-3.96-17.16-4.84-12.76,0.66c-1.76-0.66-3.3-0.88-4.18-0.88
		c-10.78-8.58-13.64-11.66-7.04-9.46C1339.51,529.99,1345.23,531.75,1358.21,537.47z M1363.71,503.81
		c-1.32,2.64,3.52,5.06,12.76,8.36c-11,1.1-15.4,2.64-9.9,6.38c-2.2,0.22-3.52,0.66-4.18,1.32c-9.24-3.08-13.64-4.84-10.56-5.28
		c-7.26-2.42-4.62-3.3,7.7-2.64c-14.08-2.86-18.26-4.4-11.22-5.06C1343.03,505.13,1348.97,504.47,1363.71,503.81z M1347.65,549.79
		l-2.64-1.1l7.48,5.72C1350.73,552.65,1349.19,551.11,1347.65,549.79z M1362.39,519.87c-0.22,0.22-0.44,0.44-0.44,0.66l5.5,0.88
		C1365.69,520.75,1363.93,520.31,1362.39,519.87z"/>
</g>
<g>
	<path class="st0" d="M1387.03,531.75c0,0.22-0.22,0.22-0.22,0.22h-0.22h-0.22h-2.64c-0.22-0.22-0.44-0.22-0.66-0.22l-0.66-0.44
		c-1.1-0.44-1.98-1.1-3.08-1.32l-2.64-1.32c-0.22-0.22-0.66-0.22-0.88-0.44h-0.44c-0.44,0.22-0.88,0.66-1.1,1.32l-0.44,0.66
		c1.32,0.22,2.42,0.88,3.3,1.54c0.66,0.22,0.88,0.66,1.1,1.32c0.44,0.66,0.44,1.54,0.66,2.42c0,0.44,0,0.66-0.44,0.88
		c-0.22,0-0.44,0-0.44,0.22c-0.22,0-0.44,0-0.66,0.22c-0.88,0-1.54,0.22-2.42,0.22h-0.44v0.22c0.44,0.66,1.1,1.32,1.54,1.98
		l0.22,0.22c0.22,0.22,0.22,0.44,0.44,0.66l1.98,1.54c0.22,0.22,0.44,0.44,0.66,0.66l0.22,0.22c0.22,0,0.22,0.22,0.22,0.22h-0.22
		v0.22h-0.22c-0.22-0.22-0.22-0.22-0.44-0.22l-0.66-0.66c-0.44-0.44-1.1-0.88-1.54-1.54c-1.1-0.88-1.98-1.98-3.08-3.08
		c-0.22-0.22-0.44-0.66-0.88-0.88l-0.44-0.66c-0.22-0.88-0.88-1.54-1.32-2.2c-0.22,0-0.44-0.22-0.44-0.22v0.22
		c0.22,0.22,0.22,0.22,0.22,0.44c0,0.22,0,0.44-0.22,0.44c0,0.22-0.22,0.22-0.44,0.22c-0.22-0.22-0.22-0.22-0.44-0.44l-0.66-0.66
		c0,0,0-0.22-0.22-0.22c0-0.22,0-0.22,0-0.22c0,0.22-0.22,0.44-0.22,0.44c-0.22,0.22-0.22,0.44-0.22,0.66
		c0,0.22-0.22,0.22-0.44,0.44c-0.22,0-0.44,0.22-0.44,0.22h-0.22c0,0-0.22,0.22,0,0.22c0.22,1.54,0.44,3.08,0.44,4.84v0.22v0.22
		c0.22,1.1,0.22,1.98,0,3.3v0.22l-0.44-0.22c0,0,0,0,0-0.44c0.22-1.1,0-2.2-0.22-3.3c0-0.22,0-0.44,0-0.66v-0.66
		c-0.22-0.22-0.22-0.44-0.22-0.66c-0.22-0.88-0.22-1.76-0.22-2.64c0-0.22-0.22-0.66-0.22-1.1s0.22-0.66,0.66-0.88c0,0,0.22,0,0.44,0
		v-0.22c0,0,0,0,0-0.44s-0.22-0.66-0.44-1.1h-0.22v0.22c-0.22,0-0.22,0.22-0.22,0.22c-0.66,0.66-1.32,0.66-1.98,0.44
		c-0.66-0.22-1.1-0.44-1.54-0.88c-0.22-0.22-0.22-0.22-0.44,0c-0.22,0.22-0.66,0.22-1.1,0c-0.22,0-0.22-0.22-0.22-0.22l-0.22-0.22
		h0.22c0,0,0,0,0.22,0s0.22,0,0.22,0h0.44c0.22,0,0.22-0.22,0.22-0.22v-0.22c-0.66-0.44-0.66-0.44-1.1-0.22
		c0,0.22-0.22,0.22-0.22,0.22c-0.22,0.22-0.66,0.44-1.1,0.22h-0.22h-0.22l-1.54-0.22l0.88-0.22c0,0,0,0,0.22,0h0.44
		c0.44,0,0.44,0,0.66-0.22l0.88-0.66c0,0,0.22,0,0.22-0.22c0.44-0.22,0.88-0.22,1.32,0.22l0.66,0.66c0.22,0,0.22,0,0.44,0.22h0.22
		c0.22-0.22,0.22-0.44,0-0.66c-0.44-0.44-0.66-0.88-0.66-1.32v-0.22h-0.22c-0.44,0.44-0.88,0.66-1.54,0.22
		c-0.66-0.22-1.1-0.66-1.54-1.32c0-0.44-0.22-1.1,0.22-1.76l-0.22-0.22c-0.44-0.22-0.88-0.44-1.54-0.44h-0.88
		c-0.88,0-1.76,0-2.42-0.44c-0.22,0-0.44,0-0.66-0.22c-0.44-0.22-0.88-0.22-1.32-0.66c-0.44-0.22-0.66-0.44-1.1-0.44
		c-0.44,0-0.66,0-1.1-0.22c-0.44,0-0.88,0-1.32-0.22c-0.44,0-0.66,0-1.1-0.22c0,0-0.22-0.22-0.22-0.44c0,0,0.22-0.22,0.44-0.22h0.22
		c0.44,0,0.66,0,0.88,0.22c0.44,0,0.66,0,0.88,0l2.2,0.66c0.22,0.22,0.44,0.22,0.44,0.22c0.22,0,0.44,0.22,0.66,0.44
		c0.22,0,0.44,0.22,0.66,0.22s0.22,0.22,0.44,0.22c0.44,0.22,0.88,0.44,1.32,0.44c1.1,0,2.2,0,3.52,0.44c0.44,0.22,0.66,0.44,0.88,0
		c0-0.22,0.22-0.22,0.22-0.22c0.22,0,0.22-0.22,0.22-0.44v-0.22c0,0,0-0.22-0.22-0.44c0-0.66-0.22-1.32,0-1.98
		c0-0.44,0-0.88-0.22-1.32c-0.22-0.22-0.44-0.66,0-0.88h-0.22c-0.44-1.1-0.88-1.98-1.1-3.08c-0.22,0-0.22-0.22-0.22-0.44
		c-0.44-0.88-0.66-1.98-0.66-3.3c0-0.22,0-0.22,0.22-0.44h0.22c0.22,0,0.44,0.22,0.44,0.44s0,0.44,0,0.66v0.44
		c0.22,1.76,0.88,3.3,1.76,5.06c0.22,0.44,0.22,0.88,0.44,1.32c0,0.66,0,1.1,0,1.76v2.2v0.22c0.22,0.22,0.22,0.22,0.44,0.22
		c0.66,0,1.32,0.22,1.76,0.22s0.66,0.22,0.88,0.66c0.22,0.66,0.44,1.1,0.22,1.76v0.22h0.22l0.22-0.22c0.22-0.22,0.44-0.44,0.44-0.66
		h0.22c0.22-0.44,0.44-0.66,0.66-0.66c0.22,0.22,0.44,0.44,0.66,0.88l0.66,2.2l0.22,0.66v0.22c-0.22,0.22,0,0.44,0.22,0.44
		s0.44,0.22,0.44,0.22c0.22,0,0.22,0.22,0.22,0.22h0.22c0-0.44,0-0.88,0.22-1.32c0-0.66,0.22-1.54,0.22-2.42
		c0-0.22,0.44-0.66,0.66-0.88c0.44,0,0.88,0,1.1,0.22c0.22,0,0.22,0,0.44,0.22c0,0.22,0.22,0.22,0.22,0.22c0.22,0.22,0.44,0,0.44,0
		h0.66c0.22,0,0.22,0,0.44-0.22c0.44-0.44,0.66-1.1,0.88-1.98c0,0,0,0,0-0.22l0.22-0.22l0.22,0.44v0.22
		c-0.22,0.88-0.44,1.54-0.88,1.98c-0.44,0.44-0.88,0.66-1.32,0.66c0,0.22-0.22,0.22-0.22,0.22c-0.44,0-0.88-0.22-1.1-0.44
		c-0.44-0.22-0.66-0.22-0.88-0.22l-0.22,0.88c0,0,0,0.22,0,0.44v1.54c-0.22,0.22-0.22,0.66-0.22,1.1v0.22c0,0,0,0,0.22,0.22v-0.22
		c0.44-0.22,0.88-0.44,1.32-0.44c0.22,0,0.44-0.22,0.44-0.44l1.98-2.2c0.22-0.22,0.44-0.44,0.66-0.44s0.44,0.22,0.44,0.22h0.22
		c0.66,0,1.1,0.22,1.54,0.44c0,0,0,0.22,0.22,0.22l1.1,0.44c1.54,1.1,3.3,1.98,5.06,2.86h0.22c0.66,0,1.1,0,1.76,0h0.88
		c0.22,0,0.22,0,0.44,0L1387.03,531.75z M1365.03,531.53l-0.66-0.66c0,0,0,0.22-0.22,0.22
		C1364.59,531.31,1364.81,531.53,1365.03,531.53z M1475.03,580.59h-67.76l-16.72,44.44h-24.86l62.26-154h27.5l62.48,154h-25.96
		L1475.03,580.59z M1411.45,607.87l-0.22,0.22c-0.22,0-0.44,0.22-0.44,0.22h-1.32c-1.1,0.44-1.98,0.88-3.08,1.1
		c-0.88,0.22-1.54,0.44-1.98,0.66c-0.44,0.22-0.44,0-0.66-0.22c-0.22-0.44-0.66-0.88-1.1-1.32c0-0.22,0-0.44-0.22-0.44
		c-0.22,0-0.22,0.22-0.22,0.22c0,0.44-0.22,0.44-0.22,0.44c-0.22,1.1-1.1,1.76-1.76,1.54l-0.66-0.22c0.22,1.1,0,1.76-0.44,2.64v0.22
		c0.22-0.22,0.22-0.22,0.22-0.22c0.22-0.44,0.66-0.66,1.32-0.44c0.44,0,0.88-0.22,1.54-0.44c0.88,0,1.76,0.22,2.2,0
		c1.1,0,1.54,0.44,2.64,0.44c0.88,0,1.54,0.22,2.2,0.66c0.44,0,0.66,0.22,0.66,0.44c-0.22,0.22-0.22,0.44-0.66,0.22
		c-1.1-0.66-2.2-0.44-3.3-0.88c-1.32,0.22-2.2,0-2.86,0c-1.1-0.22-1.54,0-2.2,0.44c-0.44,0.44-1.32,0.44-1.76,0.88
		c-0.22,0.22-0.66,0-0.88,0c-0.44,0-0.66-0.22-1.1,0.22c0,0.22,0.22,0.66,0.66,0.88c0.22,0.22,0.66,0.66,1.1,0.88l1.32,1.32
		c0.22,0.22-0.22,0.66-0.22,0.88c0,1.32-0.22,2.86,0,3.96c0.22,1.32,0.22,2.42,1.1,3.08v0.44c0.22,0.22,0,0.44,0,0.44l-0.22-0.22
		l-0.22-0.22c-0.66-0.66-0.88-1.54-1.1-2.42c-0.22-0.44-0.44-0.88-0.22-1.32c0-0.44-0.44-0.88-0.22-1.1c0-0.22-0.22-0.66,0-0.88
		c0.22-0.88,0-1.54,0-2.2c0-0.22-0.22-0.44-0.44-0.44c-0.66-0.22-1.1-0.44-1.54-0.88c0-0.22-0.44-0.66-0.44-0.44
		c-0.44,0.22-0.22,0.44-0.22,0.66v1.1c0.44,1.32,0.44,2.64,0,3.96c0,0.66,0,0.66-0.44,1.1c-1.32,0.66-2.42,1.54-3.52,2.42
		c-0.22,0-0.88,0.44-0.88,0.88c0,0.44,0,0.66-0.22,0.88l-0.66,1.32c-0.22,0.44-0.22,0.88-0.22,1.54c0.22,0,0.22,0.22,0,0.44
		c0,0.22-0.22,0.22-0.44,0.22l-0.44-0.66c0.22,0,0.22-0.22,0.44-0.44c0-1.32,0.44-2.64,1.1-3.74c0.22,0,0.44-0.44,0.44-0.66
		c-0.22-0.44,0.66-0.44,0.66-1.1c0.66,0.22,1.1-0.22,1.32-0.66l1.1-0.66c0.44-0.22,0.66-0.22,0.66-0.22
		c-0.22-0.44,0.22-0.88,0.66-1.32c-0.22-0.22-0.22-0.44-0.22-0.88c0-0.44,0-0.66-0.22-1.1v-0.22c0,0.22-0.44,0.22-0.44,0.22
		c0.22,0.88-0.22,1.54-0.66,2.2c-0.22,0.66-1.1,1.32-1.98,1.54c-0.22,0.22-0.22,0.44-0.44,0.22c-0.44,0.22-0.88,0.22-1.32,0.22
		c-0.66,0-1.1-0.22-1.1-0.66c-0.22-0.66-0.44-1.54-0.44-1.98c-0.22-1.1,0-2.2,0.66-2.64c0.66-0.88,1.1-1.76,2.2-1.98
		c0.22-0.22,0.44-0.22,0.88,0c0.44,0.22,0.22,0,0-0.22c0.22,0,0-0.22,0.22-0.44c0,0,0-0.22,0.22,0c-0.22-0.22-0.44-0.22-0.44-0.44
		c0,0-0.22,0.22-0.44,0.22c-1.1,0.22-2.42,0.22-3.74,0.44c-1.1,0-1.54,1.32-2.2,1.76c0,0-0.22,0.22,0,0.66s0.22,0.88,0,1.32
		c-0.22,0.88-0.88,1.54-1.76,1.76c-0.44,0-0.44-0.22-0.22-0.44c-0.22-0.44,0-0.22,0.22-0.44c0.88-0.22,1.32-0.88,1.1-1.76
		c-0.22-0.88,0-1.76,0.66-2.2c0.88-0.66,1.54-1.54,2.64-1.76c0.22-0.22,0.44-0.22,0.66-0.22c0.22,0,0.66-0.22,1.32-0.22
		c0.88,0.22,1.76,0,2.64,0h0.22c-0.22,0-0.22-0.22-0.22-0.22c-0.22-0.22-0.44,0-0.66-0.22c-1.1-0.44-2.42-0.22-3.3-1.1
		c-0.22-0.22-0.66-0.22-0.88,0c-0.66,0.88-1.54,0.66-2.2,1.32c-0.22,0-0.66,0.22-1.1,0.22c-1.1,0-1.98-0.22-3.3,0v-0.22
		c0,0-0.22-0.22,0-0.44c0-0.22,0.44-0.44,0.88-0.22c0.22,0.22,0.44,0.22,0.66,0.22c0.88,0,1.98,0.22,2.86-0.44
		c0.22-0.44,0.88-0.44,1.54-0.88c0.22-0.22,0.88,0,0.66-0.66c0.66-0.44,0.88,0.22,1.32,0.22c0,0,0.22,0.22,0.44,0.22
		c0.88,0,1.54,0.44,2.2,0.88c0.66,0.22,1.32,0,1.76,0c0.22,0.22,0.44,0,0.44,0c-0.22-0.44,0.22-0.88,0-1.54c0-1.1,0.22-1.98,0-2.86
		c-0.22-0.66,0-1.32-0.22-1.76c-0.44-0.44-0.22-1.1-0.22-1.76c0,0,0.44-0.22,0.66-0.22v0.44c-0.44,0.66-0.22,1.1,0.22,1.76
		c0.22,0,0.22,0.44,0.22,0.66c0,1.1,0.66,1.98,0,3.08v0.22c0,0,0.22,0,0.44-0.22c0.22-0.88,0.88-1.32,1.76-1.32
		c0.66-0.22,0.44-0.44,0-0.66c-0.22-0.44-0.22-0.88-0.22-1.32c0.66-0.66,1.1-1.1,1.76-1.1c0,0,0.22,0,0.44-0.22h-0.66
		c-0.22,0-0.66,0-1.1,0c-0.44-0.22-1.1-0.44-1.54-0.88c-0.44-0.22-0.22-0.44-0.22-0.44c-0.22-0.22,0-0.44,0-0.66
		c0.66-1.54,0.88-2.86,1.1-3.96c0.22-0.44,0.22-0.66,0.22-0.88c0-0.88,0.22-1.54,0-2.2v-0.22c0.22-0.22,0.22-0.22,0.22-0.22
		l0.44,0.44c0,0.44,0.22,1.1,0,1.76l-0.66,2.64c0.22,0.44,0,1.1-0.44,1.76c-0.22,0.44-0.22,0.88-0.44,1.1c0,0.22,0,0.44,0.22,0.44
		c0.44,0.22,1.32,0.66,1.98,0.88c0.22-0.22,0.66,0,1.1,0.22c0.22,0.44,0.66,0.22,0.88,0.22c0.44,0,0.88,0,0.88,0.66
		c0.22,0.44,0.22,0.88,0.88,1.1c0,0.22,0.44,0.66,0.66,0.88c0.22,0.44,0.44,1.1,0.66,0.88c0.22,0.22,0.88,0,1.1-0.22
		c0.22-0.22,0.66-0.22,1.1-0.44c0.22,0,0.66-0.22,0.88-0.44c1.1-0.44,2.42-0.66,3.52-0.88c0.22,0.22,0.44,0.22,0.44,0.22
		L1411.45,607.87z M1430.15,685.97c0,0.44-0.22,0.22-0.44,0.22c-0.88,0.22-1.54,0.22-1.98,0.22c-0.88,0-1.76,0-2.64-0.22
		c-0.44-0.66-1.1-0.66-1.54-0.22c-0.44,0.44-1.54,0.88-2.2,1.76c-0.22,0-0.44,0.22-0.44,0.22c0,0.22-0.22,0.88,0,0.88
		c0.22,0.22,0.22,0,0.44-0.22c0.22,0,0.22-0.22,0.88-0.22c1.54-0.66,3.08-0.22,4.62,0.88c0.66,0.44,0.88,1.54,1.32,2.64l0.22,0.22
		c-0.22,0.22-0.44,0.88-0.44,1.1s-0.22,0.44-0.22,0.44c-0.66,0.22-1.32,0.66-2.2,0.88c-0.44,0-1.1,0-1.76-0.22
		c-0.66-0.22-1.32-0.22-1.54-0.88c-0.22-0.22-0.44-0.44-0.44-0.66c-0.66,0-0.66-0.22-0.88-0.66c-0.44-0.44-0.66-1.1-0.88-1.54h-0.44
		c0.22,0.22-0.22,0.66,0.22,0.66c0.66,0.66,0.66,1.1,1.1,1.98c0.66,1.32,1.32,2.2,2.2,2.64c2.2,1.54,2.2,1.54,3.96,3.74
		c0.22,0.66,0.66,1.1,1.1,1.76c0.44,0.22,1.32,0.66,0.66,1.1c-0.22,0,0.44,0.44,0,0.44c-0.22,0.22-0.44,0-0.44-0.22l-0.22-0.22
		c-0.44-1.1-1.1-1.54-1.76-1.98c0,0,0-0.22-0.22-0.44c-0.66-1.1-1.32-1.98-1.98-2.64c-0.44-0.22-0.66-0.22-0.88-0.88
		c-0.44,0-0.88-0.22-1.1-0.66c0-0.22-0.44-0.22-0.88-0.22c0,0,0-0.22-0.22-0.44c-0.66-1.1-1.32-1.98-1.98-3.3l-0.66-1.32
		c-0.22,0.44-0.44,0.66-0.66,1.1c-0.44,0.44-0.88,0.88-0.88,1.32c-0.44,0.22-0.22,0.44-0.22,0.66c0.44,0.88,0.88,1.32,1.1,1.76
		c0.44,1.1,0.22,1.76,0.66,2.64v1.32c0.22,0.88-0.44,1.32,0,1.76c0.22,0.22,0,0-0.44,0.22c-0.22,0.22-0.66-0.22-0.44-0.44
		c0-0.44,0.66-0.66,0.44-0.88c-0.22-1.1,0-1.76-0.22-2.42c-0.66-1.1-1.1-2.86-1.98-4.18c0-0.44-0.22-0.88,0.22-1.1
		c0-0.22,0.22-0.22,0.44-0.66c0-0.22,0.66-0.66,0.88-1.1c0.22,0,0.22,0,0.22-0.44c0.22-0.22,0-0.22-0.44-0.44
		c-0.22,0-0.44,0.22-0.66,0.44c-1.1,0.44-2.2,0.88-3.3,0.66c-0.66-0.22-1.1-0.22-1.76,0.22c-0.44,0.44-1.54,0.66-1.76,1.1
		c-0.44,0.22-0.66,0-0.66-0.22c-0.22-0.22,0-0.22,0.22-0.44h0.22c0.44-0.22,1.32-0.66,1.54-0.66c0.88-1.1,1.98-0.88,3.3-1.32
		c0,0.22,0.22,0.22,0.22,0.22v-0.22c-0.44-0.22-0.88-0.66-1.1-0.88c-0.44-0.22-0.44-0.22-0.66,0c-0.66,0.44-1.32,0-1.76-0.22
		c-0.44,0.22-0.44,0-0.44-0.22c-0.44-0.44-0.66-0.22-0.88,0c-0.66,0.44-1.32,0.66-1.32,0.88l-1.32,1.1
		c0.22,0.22-0.44,0.66-0.88,0.22c-0.66,0-1.32,0-2.2,0.22c-1.32,0-2.2,0-2.86,0.44c-0.22,0-0.22,0-0.22-0.22v-0.22
		c0.44-0.22,0.88-0.66,1.32-0.66c0.88,0,2.2-0.22,3.08,0c0.44,0,1.1,0,1.54-0.44c0.88-0.66,1.54-1.32,2.86-1.98l0.22-0.44
		c0,0-0.22-0.22-0.22-0.44c-0.22-0.22-0.22-0.44,0.22-0.66c0.66-0.22,0.44-0.66,0.22-1.32c-0.22-0.44-0.44-0.44-0.22-0.88
		c-0.22-0.66-0.22-1.1-0.44-1.98l-0.22-0.88c-0.66-0.22-0.88-0.66-1.32-1.1c-0.88-0.88-1.1-1.32-1.76-1.76l-0.66-0.88
		c0-0.22,0-0.22,0.22-0.44c0.44,0.66,0.88,0.88,1.1,1.1c0.44,0.44,0.66,0.44,1.1,0.88c0.44,0.88,0.88,1.32,1.32,1.54
		c0.22,0,0.88,1.1,1.1,1.32c0,0.88-0.22,1.98,0,2.42c0.22,0.44,0.22,0.66,0.22,0.88l0.22,0.22c0.66-0.44,1.1-0.44,1.54-0.22
		c0.22,0.22,0.88,0.44,0.88,1.1c0.22,0.44,0.22,0.22,0.44,0c0.44,0.22,0.88-0.44,0.88-0.22c0.88-0.22,1.54,0,2.2,0.66
		c0,0,0.22-0.22-0.22-0.44c-0.22-0.22-0.66-1.1-1.1-1.76c-0.22-0.44-0.66-1.32-1.32-1.98c-0.88,0-1.32-0.44-1.76-0.66
		c-0.44-0.44-0.66-0.66-0.66-0.88l-0.22-0.22c0.22,0,0.22,0,0.22,0c0.44-0.22,0.66,0,0.66,0c0.44,0.88,1.32,1.32,1.98,1.32
		c0.22,0,0.22,0.22,0.44,0.44c0.44,0.66,0.88,1.54,1.32,1.76c0.44,0,0.66,0.44,0.66,0.66c0.22,0.66,0.88,1.32,0.66,2.2v0.22
		c0.44-0.22,0.66,0.44,0.88,0.22c0.22-0.44,1.32-0.22,1.1-1.32c0.22-0.44,0.44-0.66,0.66-1.54l1.32-1.32
		c0.22-0.22,0.44-0.44,0.88-0.22c0.88-0.22,1.76-0.22,2.42,0.22c0.66,0.44,1.54,0.22,1.98-0.44c0.44,0,0.88-0.44,1.32-0.88
		l0.22-0.22c0.22,0.44,0.22,0.66,0,0.88c-0.44,0-0.88,0.44-1.1,1.1c-1.32,0.88-2.42,0.66-3.74,0.22c-0.44-0.44-1.1-0.66-1.1,0.22
		c-0.88,0.88-1.98,1.76-1.98,3.08c-0.22,0-0.22,0-0.22,0.22h0.22c0.66-0.22,1.32-0.88,1.98-1.32c0.44-0.44,0.44-0.88,0.88-0.66
		l0.22-0.22c0-0.44,0-0.44,0.44-0.22l0.22,0.22c0.66,0,1.32,0,1.76,0.22c0.66,0.44,0.88,0.88,1.76,0.66c0.88,0,1.76-0.22,2.2-0.44
		c0.22-0.22,0.44-0.22,0.66,0C1430.37,685.75,1430.15,685.75,1430.15,685.97z M1431.91,452.33h-24.2v-24.64h24.2V452.33z
		 M1467.77,561.01l-21.56-56.54c-1.76-4.84-3.3-9.24-4.84-13.86c-1.54,4.62-3.3,9.24-5.28,13.86l-21.34,56.54H1467.77z
		 M1445.77,468.39c0,0-0.22,0-0.44,0.22c0-0.22-0.22,0-0.22,0c-0.66,0-1.1-0.22-1.32-0.22c-1.1,0-2.2,0.22-3.3,0.22
		c-0.88,0-1.54,0-2.2,0.22c-0.44,0-0.44-0.22-0.44-0.44c0-0.66-0.44-1.1-0.88-1.76c0.22,0,0.22-0.22,0-0.44
		c-0.22,0.22-0.44,0.22-0.44,0.22v0.44c-0.66,1.1-1.76,1.32-2.42,0.88l-0.44-0.22c0,1.1-0.22,1.54-1.1,2.42v0.22
		c0.22,0,0.22,0,0.22,0c0.44-0.44,0.88-0.66,1.54-0.22h1.54c0.66,0.22,1.54,0.66,1.98,0.44c1.1,0.22,1.54,0.66,2.42,1.1
		c0.88,0.44,1.54,0.66,2.2,1.32c0.22,0,0.44,0.22,0.44,0.44c-0.22,0.22-0.44,0.44-0.66,0c-1.1-0.66-2.2-0.88-3.08-1.54
		c-1.32-0.22-1.98-0.66-2.86-0.88c-0.88-0.22-1.54-0.44-1.98,0c-0.66,0.22-1.54,0-2.2,0.22c0,0.22-0.66,0-0.66,0
		c-0.44-0.22-0.66-0.44-1.1,0c-0.22,0.22,0,0.66,0.22,0.88c0.22,0.44,0.66,0.66,0.88,1.1c0.22,0.66,0.66,1.1,1.1,1.76
		c0,0.22-0.44,0.66-0.66,0.66c-0.22,1.54-0.88,2.64-0.88,3.96c0,1.1-0.22,2.2,0.44,3.3v0.22c-0.22,0.22-0.22,0.44-0.22,0.44
		s-0.22-0.22-0.44-0.22v-0.22c-0.44-0.88-0.44-1.76-0.44-2.64c-0.22-0.44-0.22-0.88,0-1.32c0.22-0.44-0.22-0.88,0.22-1.1v-0.88
		c0.66-0.66,0.66-1.32,0.88-2.2c-0.22,0-0.22-0.44-0.44-0.44c-0.66-0.22-0.88-0.66-1.32-1.32c0-0.22-0.22-0.66-0.44-0.44
		c-0.22,0-0.22,0.22-0.22,0.66c-0.22,0.44-0.22,0.66-0.22,1.1c0,1.32-0.22,2.64-0.88,3.74c-0.22,0.44-0.44,0.66-0.88,0.88
		c-1.54,0.22-2.64,0.88-3.96,1.54c-0.44-0.22-0.88,0.22-1.1,0.44c0,0.44-0.22,0.66-0.66,0.88c0,0.44-0.44,0.88-0.66,1.1
		c-0.44,0.22-0.66,0.66-0.66,1.32c0.22,0.22,0,0.44-0.22,0.44c0,0.22-0.22,0.44-0.44,0.22c0-0.22-0.22-0.22-0.22-0.66
		c0.22-0.22,0.44-0.22,0.44-0.44c0.44-1.1,1.1-2.42,1.98-3.3c0.44,0,0.66-0.22,0.66-0.66s0.66-0.22,0.88-0.66
		c0.66,0.22,1.1-0.22,1.54-0.22l1.32-0.66c0.22,0,0.66,0,0.66,0c-0.22-0.44,0.44-0.66,0.88-0.88v-1.1c0.22-0.44,0.22-0.66,0-1.1
		l0.22-0.22c-0.22,0.22-0.44,0.22-0.44,0.22c-0.22,0.88-0.66,1.32-1.32,1.98c-0.44,0.44-1.32,0.88-2.42,0.88
		c0,0.22-0.22,0.22-0.44,0.22c-0.44,0-0.88-0.22-1.32-0.22c-0.66-0.22-0.88-0.44-0.88-1.1c0-0.66-0.22-1.32,0-1.76
		c0.22-1.32,0.88-2.2,1.32-2.42c0.88-0.88,1.76-1.54,2.86-1.32c0-0.22,0.44-0.22,0.66,0.22c0.44,0.22,0.44,0,0.22-0.22
		c0.22-0.22,0-0.22,0.22-0.44c0,0,0-0.22,0.22,0l-0.44-0.44h-0.22c-1.32-0.22-2.64-0.44-3.74-0.44c-1.1-0.22-1.98,0.66-2.64,1.1
		c0,0-0.22,0.22-0.22,0.44c0,0.66,0,1.1-0.22,1.54c-0.66,0.66-1.32,1.1-2.2,1.1c-0.44,0-0.44-0.22-0.22-0.44
		c0-0.44,0.22-0.22,0.22-0.22c1.1,0,1.76-0.66,1.76-1.54s0.44-1.54,0.88-1.98c1.1-0.22,1.98-1.1,3.3-1.1c0.22,0,0.44,0,0.66,0.22
		c0.22,0,0.66-0.22,1.1,0c0.88,0.22,1.98,0.44,2.64,0.44l0.22,0.22c-0.22-0.22,0-0.22,0-0.22l-0.66-0.44
		c-1.1-0.66-2.2-0.88-3.08-1.98c0-0.22-0.44-0.22-0.66-0.22c-0.88,0.88-1.54,0.22-2.42,0.66c-0.22,0-0.66,0.22-1.1,0
		c-1.1-0.22-1.98-0.66-3.08-0.66l-0.22-0.22c0.22-0.22,0-0.22,0.22-0.44c0-0.22,0.66-0.22,0.88,0l0.66,0.44
		c0.66,0,1.76,0.66,2.86,0.22c0.44-0.22,0.88-0.22,1.54-0.66c0.44,0,0.88,0.44,1.1-0.22c0.44-0.22,0.44,0.44,0.88,0.44
		c0,0,0.22,0.22,0.44,0.22c1.1,0.44,1.54,0.88,1.98,1.54c0.66,0.44,1.32,0.44,1.76,0.44l0.22,0.22c0-0.66,0.66-0.88,0.66-1.54
		l0.66-2.86c0-0.66,0.22-1.32,0.22-1.76c-0.44-0.66,0-1.1,0.22-1.76h0.66c0,0.22,0,0.22-0.22,0.44c-0.44,0.44-0.44,1.1-0.22,1.76
		c0.22,0.22,0.22,0.44,0.22,0.66c-0.44,1.1,0,2.2-0.88,3.08c0.22,0,0.22,0,0,0.22c0.22-0.22,0.22,0,0.44-0.22
		c0.44-0.66,1.1-0.88,1.98-0.88c0.66,0,0.44-0.22,0.22-0.44c0-0.44,0-0.88,0.22-1.54c0.66-0.44,1.1-0.66,1.98-0.44
		c0,0,0-0.22,0.44-0.22c-0.22,0-0.44,0-0.66-0.22c-0.22,0-0.66,0-1.1-0.22c-0.22-0.44-0.88-0.66-1.32-1.1l-0.22-0.44
		c0.22-0.44,0.22-0.66,0.44-0.66c0.88-1.32,1.54-2.64,1.98-3.74c0.44-0.22,0.44-0.66,0.44-0.88c0.22-0.66,0.66-1.32,0.44-1.98
		l0.22-0.22c0.22,0,0.22,0,0.44-0.22c-0.22,0.22,0,0.44,0.22,0.66c-0.22,0.44-0.22,1.1-0.66,1.54c-0.44,0.88-0.88,1.76-1.1,2.42
		c0,0.66-0.44,1.1-0.88,1.54c-0.22,0.44-0.44,0.88-0.88,1.1c0,0.22,0,0.44,0.22,0.44c0.22,0.44,1.1,0.88,1.54,1.32
		c0.44,0,0.88,0.22,1.1,0.44c0,0.66,0.44,0.44,0.88,0.44c0.44,0.22,0.88,0.44,0.66,0.88c0,0.66,0,0.88,0.44,1.32
		c0.22,0.22,0.22,0.66,0.66,1.1c0,0.44,0,1.1,0.44,1.1c0,0.22,0.66,0.22,1.1-0.22h0.88c0.44,0,0.66,0,1.1-0.22h3.74
		c0,0.22,0.22,0.44,0.22,0.44L1445.77,468.39z M1475.69,452.33h-23.98v-24.64h23.98V452.33z M1516.39,534.39
		c-0.22,0.22-0.44,0-0.66,0c-0.88-0.22-1.32-0.44-1.76-0.66c-0.88-0.44-1.76-0.66-2.42-1.32c-0.22-0.66-0.66-0.88-1.32-0.66
		c-0.66,0.22-1.76,0.22-2.64,0.66h-0.44c-0.22,0.22-0.66,0.66-0.44,0.88c0.22,0.22,0.22,0,0.44,0s0.44-0.22,0.88,0
		c1.76,0.22,2.86,1.1,3.96,2.64c0.44,0.88,0.22,1.98,0.22,3.08v0.22c-0.22,0.22-0.66,0.66-0.88,0.88c0,0.22-0.22,0.22-0.22,0.22
		c-0.66,0-1.54,0.22-2.42,0c-0.44-0.22-1.1-0.44-1.54-0.88c-0.44-0.44-1.1-0.66-1.1-1.54c0-0.22-0.22-0.44-0.22-0.66
		c-0.44-0.22-0.44-0.44-0.44-0.88c-0.22-0.66-0.22-1.32-0.22-1.76c0,0-0.22-0.22-0.44-0.22c0.22,0.22-0.44,0.44,0,0.66
		c0.22,0.88,0.22,1.32,0.22,2.2c0,1.54,0.22,2.64,1.1,3.3c1.32,2.42,1.32,2.42,1.98,5.06c0,0.66,0.22,1.32,0.44,1.98
		c0.22,0.44,0.88,1.1,0,1.32c-0.22,0,0.22,0.66-0.22,0.44c-0.22,0-0.22-0.22-0.22-0.44v-0.22c0-1.1-0.44-1.76-0.88-2.42v-0.66
		c-0.22-1.32-0.44-2.2-0.88-3.08c-0.22-0.44-0.44-0.66-0.44-1.32c-0.44-0.22-0.66-0.44-0.66-0.88c0-0.22-0.44-0.44-0.66-0.66
		c0,0,0-0.22-0.22-0.44c0-1.32-0.22-2.42-0.44-3.74v-1.54c-0.44,0.22-0.88,0.44-1.1,0.66c-0.66,0.22-1.1,0.44-1.32,0.88
		c-0.44,0-0.44,0.22-0.44,0.66c0,0.88,0.22,1.32,0.22,1.98c0,1.1-0.44,1.76-0.44,2.64c-0.22,0.44-0.44,1.1-0.44,1.32
		c-0.22,0.88-0.88,0.88-0.66,1.54c0,0.22-0.22,0-0.66,0c-0.22,0-0.44-0.44-0.22-0.66c0.22-0.22,0.88-0.22,0.88-0.44
		c0.22-1.1,0.66-1.76,0.66-2.42c0-1.32,0.22-3.08,0-4.62c0-0.44,0-0.88,0.44-0.88l0.66-0.44c0.22-0.22,0.88-0.44,1.32-0.66
		c0.22,0,0.22,0,0.44-0.22c0.22-0.22,0-0.44-0.22-0.66c-0.22-0.22-0.66,0-0.88,0c-1.1,0-2.2,0-3.3-0.66
		c-0.44-0.44-0.88-0.66-1.54-0.44c-0.66,0.22-1.76,0-2.2,0.22c-0.44,0-0.44-0.22-0.44-0.44c-0.22-0.22,0-0.22,0.22-0.22h0.44
		c0.44,0,1.32,0,1.54,0c1.32-0.66,2.2,0,3.52,0.22c0,0.22,0.22,0.22,0.22,0.22v-0.22c-0.22-0.44-0.44-0.88-0.66-1.32
		c-0.22-0.22-0.22-0.22-0.44-0.22c-0.88,0.22-1.32-0.44-1.76-0.88c-0.44,0-0.22-0.22-0.22-0.44c-0.22-0.44-0.44-0.44-0.88-0.22
		c-0.66,0-1.32,0-1.54,0.22c-0.44,0.22-1.1,0.22-1.54,0.44c0,0.44-0.66,0.44-0.88,0c-0.66-0.22-1.32-0.66-2.2-0.88
		c-1.1-0.44-1.98-0.66-2.86-0.66c-0.22,0-0.22,0,0-0.22v-0.22c0.44,0,1.1-0.22,1.54,0c0.88,0.22,1.98,0.66,2.86,1.1
		c0.44,0.22,0.88,0.44,1.54,0.22c1.1-0.22,1.98-0.66,3.52-0.66l0.22-0.22c0-0.22,0-0.44,0-0.66c0-0.22,0-0.44,0.44-0.44
		c0.66,0,0.66-0.44,0.66-1.1c0-0.44,0-0.66,0.22-0.88c0-0.66,0.22-1.1,0.44-1.98v-0.88c-0.44-0.44-0.44-1.1-0.66-1.54
		c-0.44-1.1-0.44-1.76-0.88-2.42c-0.22-0.22-0.22-0.66-0.22-1.1c0-0.22,0-0.22,0.22-0.22c0.22,0.66,0.66,1.1,0.66,1.54l0.66,1.1
		c0,1.1,0.22,1.54,0.66,1.98c0.22,0.22,0.44,1.32,0.44,1.54c-0.44,0.88-0.88,1.76-0.88,2.42c0,0.44-0.22,0.66-0.22,0.88v0.22h0.22
		c0.66-0.22,1.1,0,1.32,0.44c0.22,0.22,0.66,0.66,0.44,1.32c0,0.44,0.22,0.22,0.44,0.22c0.22,0.22,0.88-0.22,0.88,0.22
		c0.88,0,1.32,0.44,1.76,1.32c0,0,0.22,0,0-0.44s-0.22-1.32-0.44-1.98c0-0.66,0-1.54-0.44-2.42c-0.66-0.44-0.88-0.88-1.32-1.32
		c-0.22-0.66-0.22-0.88-0.22-1.1v-0.22c0.22,0,0.22,0,0.22,0c0.44,0,0.44,0.22,0.44,0.22c0,1.1,0.66,1.76,1.32,2.2
		c0.22,0,0.22,0.22,0.22,0.44c0.22,0.88,0.22,1.76,0.66,2.2c0.22,0.22,0.22,0.66,0.22,0.88c0,0.66,0.22,1.54-0.22,2.2v0.22
		c0.44,0,0.22,0.66,0.66,0.66c0.44-0.44,1.32,0.22,1.54-0.88c0.22-0.22,0.66-0.44,1.1-1.1l1.76-0.66c0.22-0.22,0.66-0.22,0.88,0
		c0.88,0.22,1.76,0.66,2.2,1.32c0.44,0.66,1.32,0.66,1.98,0.44c0.44,0,1.1-0.22,1.54-0.44h0.22c0,0.44,0,0.66-0.22,0.66
		c-0.44,0-1.1,0.22-1.54,0.66c-1.54,0.22-2.42-0.44-3.52-1.32c-0.22-0.66-0.66-0.88-1.1-0.22c-1.1,0.44-2.42,0.88-3.08,1.98
		c-0.22,0-0.22,0-0.22,0.22h0.22c0.66,0,1.54-0.22,2.42-0.44c0.44-0.22,0.66-0.66,0.88-0.22h0.44c0.22-0.44,0.22-0.44,0.44,0
		c0,0.22,0.22,0.22,0.22,0.22c0.44,0.22,1.1,0.44,1.32,0.88c0.44,0.66,0.66,1.1,1.54,1.32c0.66,0.22,1.54,0.44,2.2,0.44
		c0.22,0,0.44,0,0.44,0.22C1516.61,534.17,1516.39,534.17,1516.39,534.39z M1551.37,622.39c-1.32,0.22-2.2,0.88-3.3,1.1
		c-0.88,0.88-1.76,1.1-2.42,1.54c-0.88,0.44-1.32,0.88-1.54,1.54c-0.22,0.66-0.88,1.1-1.1,1.76c0,0.22-0.44,0.44-0.66,0.44
		c-0.44,0.22-0.66,0.22-0.66,0.88c0,0.22,0.44,0.44,0.88,0.44h1.32c0.66,0.22,1.32,0.22,1.98,0.44c0.22,0,0.22,0.66,0.22,0.88
		c0.88,1.1,1.32,2.42,2.2,3.3c0.88,0.88,1.54,1.76,2.64,1.98l0.22,0.22c0.22,0.22,0.22,0.44,0.22,0.44h-0.44h-0.22
		c-0.88-0.22-1.54-0.88-2.2-1.54c-0.44-0.22-0.88-0.44-0.88-0.88c-0.22-0.44-0.88-0.44-0.88-0.88c0-0.22-0.44-0.44-0.44-0.66
		c-0.22-0.88-0.66-1.32-1.1-1.98c-0.22,0-0.44-0.22-0.66,0c-0.66,0.22-1.1,0.22-1.76,0c-0.22-0.22-0.66-0.22-0.66,0
		c-0.22,0.22,0,0.44,0.22,0.66c0.22,0.44,0.44,0.66,0.66,0.88c1.1,0.88,1.76,1.98,2.2,3.3c0.22,0.44,0.22,0.66,0,1.1
		c-0.66,1.32-1.1,2.64-1.54,3.96c-0.22,0.22-0.44,0.88-0.22,1.1c0.22,0.44,0.22,0.66,0.22,1.1c0.22,0.44,0.22,0.88,0.22,1.32
		c0,0.44,0.22,0.88,0.66,1.32c0.22,0,0.22,0.22,0.22,0.44c0,0.22,0,0.44-0.22,0.44s-0.44,0-0.66-0.22v-0.66
		c-0.66-1.1-1.1-2.42-1.1-3.74c0.22-0.22,0.22-0.66,0-0.88c-0.44-0.22,0.22-0.66,0-1.1c0.66-0.22,0.66-0.88,0.88-1.32
		s0.22-0.88,0.44-1.32l0.44-0.44c-0.44-0.22-0.22-0.88-0.22-1.32l-0.66-0.66c-0.22-0.44-0.44-0.66-0.88-0.88v-0.22
		c0,0.22-0.22,0.44-0.22,0.44c0.66,0.66,0.66,1.32,0.66,2.2c0,0.66-0.22,1.76-0.88,2.42c0,0.22,0,0.44-0.22,0.44
		c-0.22,0.44-0.66,0.66-1.1,0.88c-0.44,0.44-0.88,0.44-1.32,0c-0.44-0.44-1.1-0.88-1.32-1.32c-0.88-0.88-1.1-1.98-0.88-2.64
		c0-1.1,0-2.2,0.88-2.86c0-0.22,0.22-0.44,0.66-0.44c0.44,0,0.22-0.22,0-0.22c0-0.22-0.22-0.22-0.22-0.44c0,0,0-0.22,0.22-0.22
		h-0.66c0,0,0,0.22-0.22,0.22c-0.88,0.88-1.98,1.54-2.86,2.42c-0.88,0.66-0.66,1.98-0.88,2.64c0,0.22,0,0.44,0.22,0.66
		c0.44,0.22,0.66,0.66,0.88,1.1c0.22,0.88,0,1.76-0.66,2.42c-0.22,0.22-0.44,0-0.44-0.22c-0.22-0.22,0-0.22,0-0.44
		c0.66-0.66,0.66-1.54,0-2.2s-0.88-1.32-0.66-1.98c0.44-1.1,0.44-2.2,1.32-3.08c0-0.22,0.22-0.44,0.44-0.44
		c0.22-0.22,0.44-0.66,0.88-0.88c0.88-0.44,1.54-1.1,2.2-1.54h0.22c-0.22,0-0.22-0.22-0.22-0.22c-0.22,0-0.44,0.22-0.66,0.22
		c-1.32,0.22-2.2,1.1-3.52,0.88c-0.22,0-0.66,0.22-0.66,0.44c0,1.1-0.88,1.32-1.1,2.2c-0.22,0.22-0.44,0.66-0.88,0.88
		c-0.88,0.66-1.76,0.88-2.64,1.76h-0.22c0-0.22-0.22-0.22-0.22-0.44s0.22-0.66,0.66-0.66c0.22,0,0.44,0,0.66-0.22
		c0.66-0.44,1.76-0.88,2.2-1.98c0-0.44,0.44-0.88,0.66-1.54c0.22-0.22,0.88-0.44,0.44-0.88c0.22-0.66,0.66-0.22,1.1-0.44
		c0,0,0.22,0,0.44-0.22c0.88-0.44,1.54-0.44,2.42-0.44c0.66-0.22,1.1-0.66,1.54-0.88c0.22,0,0.22-0.22,0.22-0.22
		c-0.44-0.22-0.22-0.88-0.66-1.32c-0.66-0.88-1.1-1.76-1.76-2.42c-0.44-0.44-0.66-1.1-1.1-1.32c-0.66-0.22-0.88-0.88-1.1-1.32
		c0-0.22,0.22-0.44,0.44-0.66c0,0.22,0.22,0.22,0.22,0.44c0,0.66,0.44,1.1,1.1,1.32c0.22,0,0.44,0.22,0.66,0.44
		c0.44,0.88,1.54,1.32,1.54,2.64c0.22,0,0.22,0,0.22,0.22c0-0.22,0.22-0.22,0.22-0.44c-0.22-0.88,0-1.54,0.66-2.2
		c0.44-0.44,0.22-0.44-0.22-0.44c-0.44-0.22-0.66-0.66-0.88-1.1c0-0.88,0.22-1.32,0.88-1.76c0,0,0-0.22,0.22-0.44
		c-0.22,0-0.44,0.22-0.66,0.22c-0.22,0.22-0.44,0.44-0.88,0.66c-0.44,0-1.1,0.22-1.76,0.22c-0.44,0-0.44-0.22-0.44-0.22
		c-0.22-0.22-0.22-0.44-0.22-0.66c-0.44-1.54-0.88-2.86-1.32-3.96c0-0.44-0.22-0.66-0.44-0.88c-0.22-0.66-0.44-1.32-1.1-1.76v-0.22
		c0-0.22,0-0.22,0-0.44c0.22,0.22,0.44,0.22,0.66,0.22c0.22,0.44,0.66,0.88,0.88,1.54c0.22,0.88,0.66,1.76,0.88,2.42
		c0.44,0.44,0.66,1.1,0.66,1.76c0,0.44,0.22,0.88,0.22,1.32c0,0.22,0.22,0.22,0.44,0.22c0.44,0,1.32-0.22,1.98-0.44
		c0.22-0.22,0.66-0.44,1.1-0.44c0.44,0.44,0.66,0,0.88-0.22c0.44-0.22,0.88-0.44,1.1,0c0.44,0.44,0.66,0.66,1.32,0.66
		c0.22,0,0.66,0.22,1.1,0.22c0.44,0.22,0.88,0.66,1.1,0.44c0.22,0,0.66-0.44,0.66-0.88c0-0.22,0.44-0.44,0.66-0.88
		c0.22-0.22,0.44-0.44,0.66-0.88c0.66-0.88,1.54-1.76,2.42-2.64h0.44h0.22v0.44c-0.22,0-0.22,0.22-0.22,0.22
		c-0.44,0.44-0.88,0.66-1.1,0.88c-0.66,0.88-1.32,1.76-1.98,2.42s-1.1,1.32-1.32,1.76c-0.22,0.44-0.44,0.22-0.66,0.22
		c-0.44-0.44-1.1-0.44-1.76-0.66c0-0.22-0.22-0.22-0.44-0.22v0.44c0.22,0.22,0.22,0.44,0.22,0.44c0.22,1.1-0.22,1.98-0.88,2.2
		l-0.44,0.22c0.66,0.66,0.88,1.32,0.88,2.42l0.22,0.22c0-0.22,0-0.22,0-0.22c0-0.66,0.22-1.1,0.88-1.32c0.44-0.22,0.66-0.66,1.1-1.1
		c0.66-0.44,1.54-0.66,1.76-1.1c0.88-0.66,1.54-0.66,2.42-1.1c0.88-0.44,1.54-0.66,2.42-0.66c0.22-0.22,0.44-0.22,0.66,0
		C1551.81,622.17,1551.81,622.39,1551.37,622.39z"/>
</g>
</svg>
