<?xml version="1.0" encoding="utf-8"?>
<!-- Generator: Adobe Illustrator 26.4.1, SVG Export Plug-In . SVG Version: 6.00 Build 0)  -->
<svg version="1.1" id="Ebene_1" xmlns="http://www.w3.org/2000/svg" xmlns:xlink="http://www.w3.org/1999/xlink" x="0px" y="0px"
	 viewBox="0 0 1920 1080" style="enable-background:new 0 0 1920 1080;" xml:space="preserve">
<style type="text/css">
	.st0{fill:#0000FF;}
</style>
<g>
	<rect x="322.34" y="427.69" class="st0" width="23.98" height="24.64"/>
	<rect x="278.34" y="427.69" class="st0" width="24.2" height="24.64"/>
	<path class="st0" d="M298.58,471.03l-62.26,154h24.86l16.72-44.44h67.76l16.94,44.44h25.96l-62.48-154H298.58z M285.38,561.01
		l21.34-56.54c1.98-4.62,3.74-9.24,5.28-13.86c1.54,4.62,3.08,9.02,4.84,13.86l21.56,56.54H285.38z"/>
	<path class="st0" d="M495.7,718.97l-0.22-0.22c-0.44,0.22-0.66,0.66-1.32,0.22c-0.22-0.22-0.66,0-1.32,0.22l-3.74-0.88
		c-1.1,0-1.98-0.44-2.86-0.44c-0.66-0.66-0.88-0.44-1.54-0.44c-0.44-0.22-0.66,0-1.32,0.22c-0.88-0.66-0.66-0.44-1.32-0.44
		s-0.66,0.22-1.1,0.44l-1.54,0.66c0-0.44-0.22,0-0.22,0c-0.44,0.44-0.88,0.88-0.88,0.66c0,0.22-0.66,0.22-0.66-0.22l-0.44-0.22h0.44
		l-0.22-0.22l0.66-1.32c-0.22-0.22,0.22-0.66,0.22-0.66v-0.22c-0.44-0.66-0.22-0.66-0.22-0.88l-0.22-0.88c0-0.22,0-0.44-0.44-0.22
		l-0.22-0.66c-0.44-0.88-0.22-0.88-0.44-1.54c0-0.22-0.44,0-0.44-0.22l-0.66-1.32l-0.44-0.66c0-0.22-0.66-0.44-0.44-1.32l-0.44-0.66
		v-1.1c0,0,0.22-0.22,0.44-0.66c0,0-0.22-0.44-0.66-0.22l-0.22,0.22l-0.22-0.22c0,0.44-0.22,0.44-0.44,0.88
		c0,0.22-0.22,0.66-0.22,1.32l0.22,0.44l0.66,1.32c0,0.44,0.44,0.88,0.44,1.1c0.22,0.44,0.22,0.44,0.44,0.44l0.44,0.88l0.22,0.44
		c0.66,0.66,1.1,1.1,1.1,1.32l0.22,0.66h0.44c0,0-0.22,0.88-0.22,1.1l0.22,0.66H477c0,0.88-0.22,1.1-0.44,0.88v0.66
		c-0.37,0.25-0.53,0.35-0.56,0.4l-0.54-0.18l-0.22-0.44c0,0,0-0.22-0.44-0.44c0.44-0.44,0.22-0.22,0-0.88l-0.44-0.44
		c0.44-0.22,0.22-0.66,0.22-0.66l-0.44-0.44l0.22-0.44v-0.44l-0.88-1.1c0.22,0.22-0.22-0.44-0.44-0.88c0,0.44-0.44-0.22-0.44-0.22
		l-0.22-0.44c-0.88,0-1.32-0.22-1.76-0.44l-0.66-0.22l-2.42-0.22c0,0-0.66-0.22-0.66-0.66c-0.22-0.22-0.44-1.1-1.1-1.1
		c-0.44-0.44,0,0.44-0.88,0c0,0.44,0.22,0.66,0.22,0.88c0.44,0,0.66,0.66,0.66,0.66l0.44,0.66c0.44,0.22,0.88,0,1.1,0.22
		c0.44,0.88,0.88,0.22,1.54,0.44l0.44,0.66c0.44-0.22,0.66-0.22,1.54-0.44c0.22,0.22,0.66,0.66,0.66,0.66
		c0.44-0.22,0.66,0.44,0.88,0.44l0.22,0.44c0.22,0.22,0.44,0.44,0.44,0.88v0.22c0,0,0.22,0.44,0.44,0.88l0.44,0.44
		c-0.44,0,0,0.44,0,0.44c-0.22,0.44,0,1.1,0,1.1c-0.22-0.22,0.22,0.44,0.22,0.22c0,0.88-0.44,0.66-0.66,0.66l-0.66,0.66l-0.22-0.22
		l-0.44-0.44c0.22-0.44,0.44-1.1,0.66-1.76l-0.22-0.66l-0.66-0.88c0.22-0.22,0-0.44-0.44-0.44l-0.44-0.88
		c-0.66,0.22-1.1,0.22-1.76,0c-0.22-0.44-0.44,0-1.32,0.22c0,0,0,0.22-0.22,0.22h0.22c-0.88,0.66-0.88,1.1-0.66,1.32l-0.88-0.44
		l-0.22,0.44l-0.44,0.44c-0.44,0,0,0.66-0.22,0.88c0,0-0.44,0.66-0.66,1.32c0,0-0.44-0.22-0.44,0c0,0,0.22,0.22-0.22,0.44
		c0,0-0.22,0,0,0.44l0.22,0.66c0,0,0,0.66,0.44,0.44c-0.22,0.66-0.66,0.88,0,1.54c-0.22,0.22,0.44,0.22,0.22,0.44l0.22-0.22
		c0.44,0.66,0.44,0.66,0.44,0.22c0.88,0.22,1.1,0.66,1.54,0.66c0.22-0.22,0.66-0.22,0.66-0.22c0.66,0,0.88,0,1.1-0.22
		c0.22,0,0.22,0,0.44-0.44h0.44l-0.44,0.22c0.22,0.44,0.22,0.66,0.22,0.66s0,0-0.44,0.66l0.44,0.22c-0.44,0-0.66-0.22-1.1,0
		c-1.1-0.44-2.2-0.22-3.52-0.44c-0.66,0-0.44-0.22-1.1-0.66h-0.22l-0.44-0.88l-0.66-0.88c0,0,0-0.44-0.22-0.66
		c0-0.22,0-0.66-0.22-0.88l-0.44-0.88l-0.88-0.88l-0.22-0.66c-0.66-0.22-0.66-0.44-0.88-0.22l-0.22-0.22
		c-0.66-0.22-0.66,0-0.44,0.44c0,0.22-0.44,0.66-0.22,0.44c0.66-0.22,0.88,0.22,0.88,0.22l0.22,0.22c-0.22,0,0,0.22,0.44,0.22
		c0,0,0.22,0.22,0.22,0.66c0.22,0,0.22,0,0.66,0.44l-0.22,0.44c0,0.22,0,0.22,0.22,0.44l0.44,0.44c-0.22,0.44,0.22,0.44-0.22,0.66
		c0,0,0.22,0.44,0.44,0.44c0.22,0.66,0.22,0.66,0.44,0.88l0.88,1.32c0.44,0,0.44,0,0.44,0.44c0.22-0.22,0.66,0,0.88-0.22l0.22,0.44
		c1.1,0.22,1.98,0.44,3.08,0.22c0,0,0.66,0.22,0.88,0.22c0.22,0,0.22,0,0.44,0.44c-0.2-0.4,0.51-0.44,0.63-0.44
		c-0.04,0.27-0.09,0.61,0.25,0.44c0,0.22-0.22,0.66-0.22,0.66l-0.66,0.66c-0.22-0.22-0.66,0-0.66,0.44c-0.22,0-0.66,0-0.66,0
		l-1.1-0.22v0.22c-0.66-0.22-1.1,0-1.76-0.66c0.22,0-0.22-0.22-0.66,0c-0.44,0-0.22-0.66-0.66-0.44l-0.88-0.44
		c-0.44,0-1.1-0.22-1.54,0c-0.44-0.44-0.88-0.66-1.32-0.66c-0.44-0.44-0.88,0.22-0.88,0c0,0-0.88,0-0.44,0.22
		c-0.44-0.22-1.1,0.44-1.1,0.22c-0.66,0-0.22,0.44-0.22,0.44l0.44,0.66c0.22,0.22,0.22,0.22,0.44-0.22c0,0,0.66,0,0.66-0.22
		c1.1,0,1.1-0.22,1.98,0c0.22,0.22,0.88,0,1.1,0.44c0,0,0.22,0.22,0.44,0c0.22,0.44,0.88,0.66,1.1,0.88c0-0.22,0.44-0.22,0.44-0.22
		c0.44,0.44,0.66,0.44,0.66,0.88l0.44-0.22c0.66-0.22,1.54,0.44,2.86,0.44c0.22,0,0,0,0.88-0.22c-0.22-0.22,0.44,0.44,0.66,0.22
		l0.66-0.44l0.66-0.44h0.22l0.22,0.44l-0.44,0.44c0,0-0.22,0.22-0.22,0.44c-0.22,0.88,0,1.54-0.22,2.42c-0.22,0.22-0.44,0.22,0,0.88
		v0.66l0.44,0.66c-0.22,0.44-0.22,0.66-0.22,0.88l0.44,0.66l0.22,0.22c-0.22,0.88-0.22,0.88,0,0.88v0.44l0.22,0.44l0.44,0.44
		l0.22,0.66c0.44,0.44,0.44,0.66,0.44,1.1l0.44,0.88l0.44,0.22c-0.22,0.88-0.22,0.88,0,0.66l0.22,0.44c-0.22,0.88,0,0.88,0,0.88
		l0.22,0.88c0.44,0.22,0.44,0.22,0.22,0.44c0,0.22,0,0.44,0.66,0.66c0.22,0.44-0.66,0.88-0.22,1.54c0.22,0,0.66,0,1.1,0.22h0.22
		v-0.88c-0.22,0-0.22,0,0-0.44c-0.66-0.22-0.66-0.22-0.22-0.88l-0.66-0.66v-0.66c-0.22,0,0.22-0.22-0.44-0.66v-0.22l-0.22-0.44
		c0,0-0.22-0.44,0-0.66c-0.44-0.66-0.66-1.32-0.44-1.32c-0.22,0-0.44-0.44-0.44-0.66l-0.22-0.44l-0.44-0.66l-0.22-0.22
		c0-0.22,0.22-1.1-0.44-1.1c0.44,0,0.44-0.44,0.22-0.44l-0.22-0.22c-0.22-0.44-0.44-0.44-0.22-0.66c0,0,0.22-0.44-0.22-0.22v-0.44
		l-0.44-0.44c0.44-0.22,0.44-0.22,0-0.44v-0.44c0-0.66,0-0.66-0.22-0.88c0.44-0.88,0.44-1.54,0.66-2.2c0.22,0-0.22-0.44,0.44-0.88
		h-0.44l0.44-0.22v0.22c-0.22,0.88-0.22,0.88-0.22,1.54c0,0,0.44,0.22,0,0.66c0,0.44-0.22,0.66,0.22,1.1c0,0.44,0.22,0.66,0,1.1
		c0.44-0.44-0.22,0.22,0,0.22l0.44,0.88c0,0,0,0.44,0.44,1.1c-0.22,0,0,0.22,0,0.44s0,0.22,0.22,0.22l1.1,1.54l0.88,0.88l0.22,1.1
		c0.44,0.22,0.66,0.22,1.32,0.66l0.44,0.66c0-0.22,0.66,0,0.44,0.22c0.88-0.22,1.32,0.88,1.76,0.22l0.44,0.44
		c0.66,0,0.44-0.22,1.1-0.44c0.44,0.88,0.66,0.22,1.1,0.22l0.44-0.22c0.22-0.44,0.66-0.44,0.88-0.44h0.22l-0.22-0.44
		c0.22-0.22,1.1-0.66,1.1-0.66v-1.76l0.44-0.66l-0.22,0.44c0.44-0.66,0.44-0.66,1.1-0.22c0.66,0,0.88,0,0.88,0
		c0.22-0.22,0.44,0.22,1.1,0l0.44-0.66l0.66-0.22l0.44-0.22l0.44-0.66c0.66-0.66,0.44-1.1,0.44-1.98c0.22-0.44,0-1.1,0-1.32
		c-0.22-0.22-0.22-0.66,0-1.1c-0.22-0.44-0.22-0.44,0-0.44l0.88-0.22c0,0.22,0,0.22,0.44,0.22l0.66-0.88l0.88-0.66h0.22v-0.44
		l0.22-0.44v-0.66l0.22-0.44l-0.44-1.32c0.44,0-0.44-0.66-0.44-0.66l0.22-0.44v-0.22l-0.22,0.22c-0.44,0,0.44-0.22,0-0.66
		c-0.44,0-0.44-0.22-0.66-0.44l-0.22-0.22v-0.22l-0.44-0.44l-0.44-0.66l-0.22-0.22c-0.66,0-0.66-0.22-0.88-0.44
		c-0.22,0-0.44-0.44-0.44-0.44l-1.1-0.22c0,0-0.88-0.66-1.1-0.44c-0.22,0-0.44-0.44-1.1-0.66c-1.1,0-1.98,0-3.08-0.22
		c-0.22-0.22-0.88-0.44-1.1,0.22c-0.44-0.44-0.44-0.44-0.88-0.22l-0.22,0.66c0,0-0.44-0.66-0.22,0c0,0-0.44-0.44-0.44-0.66
		c0,0.44-0.66,0.44-0.66,0.44h-0.22l0.66-0.66c0,0,0.44-0.22,0.66,0l0.66-0.44l0.66,0.44c0.22-0.66,0.44-0.66,0.44-0.66
		c0.88,0.22,1.32,0.44,2.2,0.22c0.22,0.22,0.66,0.22,1.1,0c0.88,0.22,1.76,0.44,2.64,0.88c1.76,0.22,3.52,0.44,5.06,0.66l1.1,0.44
		c0-0.44,0.44-0.22,0.44-0.44l0.88-0.22l0.22-0.22C495.92,719.19,495.48,719.19,495.7,718.97z M476.56,739.21
		c0.22,0.22,0.44,0.44,0.44,0.44L476.56,739.21z M478.98,740.31l-0.44-0.44h-0.22l-1.54-1.32c0.22-0.22-0.22-0.44-0.22-0.88
		c-0.44-0.44-0.66-0.66-0.66-0.88v-0.22l-0.22,0.44c0.22,0,0,0.22,0.22,0.88c0.44,0,0.22,0.88,0.66,1.1c0,0-0.44-0.22-0.66-0.66
		l-0.22-0.22h-0.22l-0.44-1.1c-0.44-0.44-0.66-0.88-0.88-0.88v-0.22c0,0-0.44-0.22-0.22-0.66l-0.22-0.66l-0.44-0.22
		c-0.22-0.22-0.22-0.22,0.22-0.22c-0.66-0.88-0.66-1.76-0.88-2.64l-0.22,0.22c-0.44,0,0-0.88,0.22-1.1c0,0,0-0.44-0.22-0.88
		l0.44-0.44l-0.22-0.22c0.22,0.22,0.22,0.22-0.22,0.22l0.22-0.22l-0.44-0.44c0-0.22,0.22,0,0.66-0.44h0.22
		c0.44-0.22,0.44,0.22,0.66-0.22c0.88,3.74,3.96,9.46,4.18,9.24l0.66,0.88l0.22,0.22l0.44,0.22c-0.22,0.22,0.22,1.1,0.22,1.76
		C479.2,740.31,478.98,740.31,478.98,740.31z M481.62,737.01l1.1,2.2c-0.66,0.22-0.66,0-1.54-0.44v-0.22
		c-0.22-0.22-0.44-0.66-0.66-0.88c-0.66,0-2.2,0-2.2,0l-0.22-0.66c0-0.22-1.32-2.42-2.42-4.4c0.88,0.22,2.2,1.1,3.74,1.98
		c0.66,0.44,1.54,0.88,1.98,0.66l-0.44,0.44v0.88L481.62,737.01z M482.72,740.31h-0.44l-0.22-0.22c-0.22,0-0.66-0.22-0.66,0.44
		c-0.44,0-0.88-0.22-1.54,0c-0.22-0.88-0.22-1.98-0.22-1.98l-0.22-0.66l0.66,0.44c0.44,0,0.44,0.22,0.66,0.44h0.22
		c0.88,0.22,1.1,1.1,1.76,1.1l0.44,0.44H482.72z M483.82,738.11c0,0.22-0.22,0.22,0,0.22c-0.22,0.66-0.22,1.1-0.44,1.1
		c-0.44-1.1-1.32-2.86-1.32-2.86l-0.44-0.22v-0.44l0.66-0.44l-0.44-0.22c0,0-2.42-1.1-4.4-2.42c0.66,0,1.32,0.44,2.2,0.66
		c0.22,0.44,1.32,0.22,1.54,0.22c-0.22-0.44-0.88-0.44-1.54-0.44c-0.88-0.44-1.32-0.66-2.2-1.1h-0.22c-0.22,0-0.88-0.22-1.1,0
		c-0.44-0.44-0.88-0.88-1.1-1.32v-0.22c-0.22-0.22-0.22-0.66-0.22-0.66c0.44,0.22,0.66,0.22,1.1,0.22l0.66,0.22l-0.22,0.44
		c0.44-0.44,0.44-0.44,0.66-0.22c0.22,0,0.22,0,0.88-0.44c0,0,0,0.22,0.44,0v-0.22h-0.44l-0.44,0.22h-0.22l-0.44-0.22
		c-0.88-0.22-0.44,0.22-1.1-0.22c-0.44,0-0.88,0-1.1-0.44v-0.22c-0.22,0-0.66-0.44-0.44-0.66c0.66,0,1.1,0.44,1.54,0
		c0.44,0.44,0.88,0,1.32,0l0.66,0.44c1.54,0.66,2.86,1.54,3.3,2.64v0.22l0.66,0.44l0.44,0.88l0.22,0.44
		c0.22,0.22,0.66,0.66,0.88,1.1c0,0.44,0,0.66,0,0.88h0.22c0,0.44-0.44,0.88,0.22,1.1h0.22c0.22,0.22-0.22,0.66-0.44,0.88
		C483.38,737.67,483.6,737.89,483.82,738.11z M492.62,728.65c-0.88,0.44-0.88,1.1-1.76,1.1c0,0-0.66,0-1.1-0.22l-0.22,0.22
		l-0.44,0.44c-0.22-0.44-0.66-0.44-0.88-0.66c0,0.44-0.66,0.22-1.1-0.22c-0.66,0.22-0.66-0.44-1.54-0.66l-0.44-0.22l-0.66-0.44
		c-0.66-0.44-1.76-0.66-1.76-1.32l-0.44,0.44c0.22-0.66-0.22-0.44-0.22-0.44l-0.44-0.44c-0.44-0.44-0.44-0.66-0.44-0.66
		c-0.22,0.22-0.22,0.22,0-0.44c0,0-0.44,0.22-0.22-0.22c-0.22,0-0.22,0-0.44-0.22v-0.44v-0.22v-0.22v-0.44v-0.22l0.22-0.22
		l-0.22-0.66v-0.22c0,0,0.22-0.22,0.44,0l0.22,0.22c0,0,0.44,0.66,0.22,0.88l0.44,1.1l0.22-0.22v0.22c0.22,0.22,0.22,0.44,0,0.66
		c0.22,0.22,0,0.44,0.22,0.88l0.22-0.22l0.22-0.22l-0.22-0.22c0.22-0.66,0-0.88,0.22-0.88l-0.22-0.22l-0.44-0.22
		c0.22-0.22,0.22-0.44,0.22-0.44c-0.22-0.66-0.44-1.1-0.66-1.1c0,0,0-0.22,0.66-0.22v0.22l1.54,0.88c0.22,0.44,0.22,0.66,0.66,0.88
		l-0.22,0.44c0.44,0.22,0.88,1.32,1.1,1.54c0.44,0.44,0.44,1.32,0.66,1.76h0.22c0.44-0.22,0-1.32-0.44-1.76
		c-0.44-0.44-0.66-1.54-0.88-1.98c1.54,1.76,2.86,4.18,3.08,4.4h0.22l0.44-0.66l0.66-0.22c0.44,0.22,1.98,0.66,3.3,0.88
		C492.4,728.43,492.62,728.65,492.62,728.65z M483.82,722.71l5.28,1.54l0.44-0.22l0.22,0.44c0,0,0.22,1.32,0.44,1.32
		c0.44,0.66,0.88,0.66,0.88,0.66c0,0.22,0,0.22,0.22,0.44c0.66,0,0.88,0.88,0.88,1.1c-0.88,0-2.42-0.88-2.42-0.88h-0.88l-0.44,0.44
		h-0.22c-0.44-0.22-0.88-1.54-1.54-1.98C485.8,724.03,484.7,723.37,483.82,722.71z M492.4,725.13c0.44,0.44,0.44,1.32,0.22,2.2
		l0.22,0.22c-0.22,0-0.44-0.88-1.32-1.32h-0.22c-0.44,0-0.22-0.22-0.66-0.44c0-0.22,0-0.88-0.44-0.88h0.66v0.22
		C490.86,725.13,491.74,724.91,492.4,725.13z M490.42,722.49c0.22,0.22,0.44-0.22,0.22,0.22c0.66,0.66,1.1,1.1,1.54,1.98
		c-0.44,0-1.1-0.44-1.32,0h-0.66l-0.22-0.66l-0.66-0.66c0,0-5.5-1.54-9.24-1.98h-0.22l-0.22-0.44l5.06,0.22
		c0.22,0.22,0.88,0,1.32,0.22v0.22c0.22,0,0.66,0.22,0.88,0l0.44,0.22l0.22,0.22c0.22-0.22,0.66-0.44,0.88-0.22
		c0.22,0.44,0.44,0.22,1.1,0.22C489.54,722.27,489.54,722.27,490.42,722.49z M480.08,720.07h0.22c0.22,0,0.44-0.22,0.44,0
		c0-0.22,0-0.22,0.22,0l0.22-0.44l0.44,0.22l0.22-0.22c0.22,0.44,0.22,0.44,0.44-0.22c1.32,0,2.2,0.44,3.08,0.66c0,0,0.22,0,0.44,0
		h0.44h0.22v0.44l0.22-0.22c0.88,0.44,1.1,0.66,1.98,0.88l1.1,0.66c0,0-0.22,0-0.44-0.22l-1.32-0.22h0.22
		c-0.22,0-0.22-0.22-0.66-0.22c-0.22,0.22-0.22,0.22-0.44,0l-0.22,0.22c-0.22,0-0.44-0.22-0.44-0.22l-0.44-0.22
		c-0.22-0.22-1.1-0.44-1.32,0l-5.5-0.22L480.08,720.07z"/>
	<path class="st0" d="M394.94,428.13h0.88l1.1-0.44v-0.22c0.22-0.22,0.44-0.44,0.44-0.44l0.22-0.66l0.66-0.66
		c-0.22-0.44-0.22-0.44-0.22-0.66v-0.44c0.44,0,0.22-0.44,0.22-0.44l0.22-0.66h-0.22c0.22-0.22,0.22-0.22,0-0.66
		c-0.22,0-0.22-0.22-0.22-0.66v-0.44c-0.22,0-0.22-0.44-0.44-0.22v-0.22l-0.22-0.88v-0.22c-0.44-0.22-0.66-0.44-1.1-0.88l-0.22-0.66
		c0-0.22-0.44-0.44-0.88-0.44c0,0-0.22-0.88-0.44-0.88c-0.44,0-0.66-0.66-0.88-0.88c-0.88-0.44-1.98-0.88-3.08-1.54
		c0.22-0.22-0.44-0.22-0.66-0.22c-0.44-0.22-0.44-0.22-1.1-0.22h-0.22c0,0-0.22-0.44-0.44,0.22l-0.22-0.66
		c-0.22,0.44-0.66,0.22-0.66,0.22c0-0.22-0.22,0.22-0.44,0l1.1-0.44c0,0,0.44-0.22,0.44,0h0.88l0.66,0.44l0.66-0.22
		c0.66,0.44,0.66,0.88,1.54,0.88l1.32,0.44c0.44,0.44,1.54,0.88,1.76,1.76c1.76,0.66,3.3,1.76,4.62,2.42l1.1,0.44
		c0.22,0,0.66,0.44,0.88,0.22h0.66h0.22c0-0.66-0.22-0.66,0-0.66l-0.44-0.22c-0.44-0.22-0.88,0-1.1-0.44
		c-0.44-0.44-0.66-0.44-1.32-0.22c-1.1-0.66-1.98-1.32-3.52-2.42c-0.66-0.22-1.32-0.66-2.2-1.32c-0.66-0.66-0.88-0.88-1.54-1.1
		c0-0.22-0.44-0.22-1.32-0.44c-0.44-0.22-0.44-0.22-0.88-0.66c-0.66,0-0.88,0-1.1,0h-1.54c-0.22-0.44-0.44,0.22-0.66,0.22
		c-0.44,0.22-0.88,0.44-0.88,0.22c-0.22,0.22-0.44,0-0.66-0.22l0.22-0.66l0.22-0.22c0-0.22,0.66-0.88,0.66-0.88l0.44-0.66v-0.22
		c0-0.44,0.44-0.44,0.22-0.66c0.22-0.44,0-0.22,0.22-0.66c0-0.44,0-0.66-0.22-0.88c0.22-0.22,0-0.66,0-0.66
		c-0.22-0.66,0.22-0.66,0.22-1.54c-0.22,0-0.22-0.44-0.66-0.44c0-0.88,0.22-1.1,0-1.32l-0.22-0.66c-0.22-0.44,0-0.88,0-1.32v-0.88
		c0-0.22,0.44-0.88,0.44-1.32c0,0,0.22,0,0.44-0.44c0,0,0-0.22-0.44-0.22l-0.22,0.22l-0.22-0.22c-0.22,0.22-0.44,0.44-0.66,0.44
		c-0.22,0.22-0.44,0.66-0.22,1.32c-0.22,0-0.22,0.44-0.44,0.66l0.44,1.1c-0.66,0.44-0.44,0.88-0.22,1.1c0,0.44,0,0.44,0,0.88
		l0.44,0.88l0.22,0.66c0,0.66,0.22,1.32,0.44,1.76l-0.22,0.44l0.22,0.22l-0.44,0.88l0.22,0.44l-0.44,0.22
		c-0.44,0.66-0.66,0.66-0.88,0.88l-0.22,0.44c-0.44,0-0.44,0-0.44,0.22l-0.66-0.44v-0.66v-0.44c0.22-0.22,0-0.22,0-0.88l0.22-0.22
		v-0.22c0.22-0.22,0-0.66,0-0.66v-0.44l0.22-0.44v-0.66l-0.44-1.1c0.22,0,0.22-0.44,0-0.88l-0.44-0.44v-0.44
		c-0.44-0.66-1.1-0.66-1.32-0.88l-0.44-0.66l-2.42-0.88c0,0-0.44-0.88-0.22-1.1c-0.22-0.22-0.22-0.88-0.66-1.32
		c0-0.44-0.22,0-0.66-0.22c-0.44,0,0,0.66-0.22,0.88c0.22,0,0.22,0.66,0.44,0.88l0.22,0.66c0,0.22,0.66,0.44,0.66,0.66
		c0.22,0.66,1.1,0.66,1.32,1.1l0.22,0.22c0.44,0.22,0.88,0.22,1.54,0.66c0.22,0,0.44,0.44,0.66,0.66c0.22,0.22,0.22,0.66,0.44,0.66
		l0.22,0.44c-0.22,0.44,0,0.88-0.22,0.88l0.22,0.66l-0.22,0.66l0.44,0.66c-0.44,0-0.22,0.22-0.22,0.22
		c-0.44,0.44-0.44,0.88-0.44,0.88c-0.22,0.22,0,0.66,0,0.88c0.22,0.66-0.44,0.44-0.44,0.22h-1.1h-0.22v-0.66
		c0.44-0.22,0.88-0.66,1.32-1.32c0,0,0-0.44-0.22-0.66l-0.22-1.1c0.22-0.22,0-0.22-0.22-0.66c0.22-0.44,0-0.44-0.22-0.88
		c-0.66-0.22-1.1-0.22-1.32-0.88c-0.44-0.22-0.66-0.22-1.1,0c0,0-0.66,0.22-0.88,0l0.22,0.22c-0.66,0-0.66,0.66-0.88,0.66
		l-0.66-0.22h-0.44h-0.44c-0.66,0.44-0.44,0.88-0.66,1.32l-1.1,0.44c0,0-0.44,0-0.44,0.22c0,0,0.22,0.22-0.22,0.44
		c0,0-0.22,0-0.44,0.22c0.22,0.22,0.22,0.66,0,0.66c0,0-0.44,0.66,0,0.44c-0.22,0.66-0.44,0.88,0,1.54c0,0.22,0.22,0.66,0,0.66h0.22
		c0,0.44,0,0.44,0.66,0.44c0.22,0.22,0.44,0.66,0.66,0.88c0.44,0,0.66,0.22,1.1,0c0.22,0.44,0.44,0.22,0.88,0c0.22,0,0.22,0,0.66,0
		h0.44l-0.22,0.44c-0.22,0.22-0.44,0.22-0.44,0.44c-0.22,0.44-0.22,0.44-0.66,0.44l0.22,0.44c-0.44-0.22-0.66-0.22-0.88-0.44
		c-0.88-0.88-1.98-0.88-3.08-1.54c-0.44-0.22-0.66-0.44-0.88-0.88v-0.44l-0.44-0.88v-1.1c0,0,0-0.44-0.22-0.66
		c0.22-0.22,0-0.66,0.44-0.88l-0.22-0.66l-0.44-1.32l-0.22-0.66c-0.22-0.44-0.22-0.66-0.44-0.88l-0.44-0.22
		c-0.22-0.22-0.22-0.22-0.44,0.22c-0.22,0.22-0.44,0.66-0.22,0.44c0.44,0.22,0.44,0.66,0.44,0.66h0.44c-0.22,0.22,0,0.22,0.22,0.44
		c-0.22,0,0.22,0.44-0.22,0.66c0.44,0.22,0.22,0.22,0.44,0.66v0.44c0,0.22,0,0.22,0,0.44v0.66c-0.22,0.44,0.22,0.44-0.22,0.66
		c0,0,0,0.44,0.22,0.44c-0.22,0.66-0.22,0.66-0.22,0.88l0.44,1.32l0.44,0.88c0.44,0,0.66,0.22,0.88,0l0.22,0.44
		c0.88,0.66,1.54,1.32,2.42,1.32c0,0,0.66,0.44,0.88,0.66c0.44,0,0.44,0,0.66,0.44c-0.22-0.44,0.22,0,0.22,0l0.22-0.22
		c-0.22,0.22-0.66,0.88,0,0.88c0,0.22-0.44,0.22-0.22,0.44l-1.1,0.22c-0.22,0-0.66,0-0.66,0.22c-0.22-0.22-0.88,0-0.88,0l-0.66-0.66
		h-0.22c-0.44-0.44-0.88-0.66-1.1-1.32c-0.22,0-0.44-0.22-0.88,0c-0.22-0.22-0.44-0.66-0.88-0.88v-0.22
		c-0.66-0.66-1.32-0.88-1.54-1.1c-0.22-0.44-0.88-0.88-1.1-0.88c-0.44-0.44-1.1-0.44-1.1-0.66c0,0-0.44,0-0.44,0.22
		c-0.22-0.22-0.66,0-1.1,0c-0.44-0.22,0,0.22,0,0.22v0.66c0,0.22,0.22,0.22,0.44,0c0,0,0.66,0.22,0.66,0
		c0.88,0.44,1.32,0.22,1.76,1.1c0.44,0,0.88,0,1.1,0.44c0,0.22,0.22,0.22,0.22,0.44c0.22,0.44,0.88,0.66,0.88,0.88
		c0.44,0,0.66,0.22,0.66,0.44c0.22,0.22,0.44,0.44,0.22,0.66h0.22c0.88,0.22,1.32,0.88,2.42,1.32c0.22,0.22,0.66,0.22,0.88,0.22
		c0.44-0.22,0.66,0.44,0.88,0.44l1.32-0.66l0.44,0.88l-0.44,0.22c-0.22,0-0.44,0.22-0.44,0.22c-0.66,0.88-0.66,1.54-1.1,2.2
		c-0.22,0.44-0.44,0.44-0.22,0.88c-0.22,0.44-0.44,0.66-0.44,0.88l0.22,0.44l-0.44,1.1l0.22,0.44c-0.22,0.44,0,0.44,0,0.66
		c-0.44,0.44-0.44,0.44,0,0.66c-0.44,0.44-0.44,0.44-0.22,0.44l-0.22,0.22l0.22,0.66c0,0.22,0,0.88-0.22,0.88
		c0.22,0.44,0.22,0.66,0.22,1.1v0.66l0.44,0.88c-0.44,0.44-0.44,0.44-0.22,0.66l-0.22,0.44c-0.22,0.44,0,0.88,0,0.88l0.22,0.66
		c0,0.22,0,0.22-0.22,0.44c-0.22,0-0.22,0.44,0,0.88c0.22,0.44-0.44,0.66-0.66,1.32l0.22,0.22c0.22,0,0.44,0,1.1,0.44v-0.22
		l0.22-0.44c-0.22-0.22-0.22-0.44,0.22-0.66c0-0.44,0-0.44,0.22-0.88l-0.22-0.88v-0.22c-0.22-0.22,0-0.22,0-1.1h0.22l-0.44-0.88
		c0,0,0.22-0.44,0.22-0.66c-0.22-0.44,0-1.1,0.22-1.1c-0.22-0.22-0.22-0.66,0-0.66l-0.44-1.54l0.22-0.22c0-0.22,0.22-0.88-0.22-0.88
		c0.22-0.22,0.22-0.44,0.22-0.66v-0.44c0-0.44-0.22-0.44,0-0.66c0,0,0.22,0-0.22-0.22l0.22-0.22l-0.22-0.44
		c0.44-0.44,0.44-0.44,0.22-0.66l0.22-0.22c0-0.44,0-0.66-0.22-0.88c0.66-0.88,1.32-1.1,1.54-1.98c0.2,0,0.05-0.35,0.32-0.58
		l-0.1-0.3l0.66,0.22l-0.44,0.44c0.44,0.22,0.66,0,0.88,0l-0.66,5.28c0,0.44-0.22,0.66,0,1.1c0,0.22,0,0.44,0,0.44
		c0,0.22,0,0.44,0,0.66v0.22l0.22,0.44l-0.22,0.66l0.22,0.22c0,0.22-0.22,0.66,0,0.88c0,0.11,0,0.39,0,0.66
		c-0.22-0.22-0.22-0.22-0.44-0.44v-0.22c-0.22-0.44-0.22-0.66-0.22-1.1l-0.44-1.1l-0.22-0.22l0.44-0.66l-0.22-0.66l-0.22-0.44
		c-0.22,0-0.22,0,0-0.22c0.22-0.88,0-1.76,0.44-2.42l-0.22-0.22c0.44,0,0.22-0.44,0.44-0.88v-0.66l0.22,0.22
		c0.22-0.22,0-0.44,0-0.44l0.44-0.22v-0.22c0,0.22,0,0.22-0.44,0h0.44l-0.44-0.66l-0.07-0.22c-0.15,0.45-0.17,0.52-0.37,1.1
		c0,0,0,0.44-0.22,0.66c-0.22,0.44-0.44,0.66-0.22,1.32c-0.22,0.22,0,0.44-0.66,0.88c0.44-0.22,0,0.22,0.22,0.44
		c0.22,0.44,0,0.66,0,0.88c0,0-0.22,0.44,0,0.88c-0.22,0.22,0,0.22,0.22,0.44c-0.22,0.22-0.22,0.22,0,0.66l0.44,2.64l0.22,1.1
		c0.22,0.44,0.44,0.44,1.1,1.32v0.66c0.22,0,0.22,0.22,0.22,0.44c0.88,0,0.88,0.88,1.54,0.66l0.44,0.44
		c0.44,0.44,0.66,0.44,1.1,0.22c0.22,0.66,0.44,0.66,0.88,0.44c0,0,0.44,0,0.66,0c0.09-0.09,0.25-0.17,0.41-0.22h-0.19l-0.22-0.44
		c-0.22,0-0.66-0.22-1.1-0.22c-0.44,0.22-0.66-0.22-1.54,0c0.44-1.1,0.44-2.2,0.44-2.2l0.22-0.66c0.22,0,0.44,0.44,0.44,0.44
		c0.44,0.66,0.44,0.88,0.66,0.88l0.22,0.22c0.22,0.66,0.66,1.1,1.32,1.54v0.41c0.13,0.01,0.22,0.09,0.22,0.25
		c0-0.22,0-0.22,0.22-0.22v-0.22c0.44,0,0.88-0.22,0.88-0.22l0.88-1.76l0.44-0.66l0.22,0.44c0.22,0,0.44-0.22,0.88,0.44
		c0.44,0.22,0.66,0.22,0.66,0.44c0.44-0.22,0.44,0.22,1.1,0l0.88-0.22l0.88-0.22c0.44-0.22,0.66,0,0.88-0.22
		c0.66-0.66,0.88-1.1,1.1-1.76c0.44-0.22,0-0.88,0.22-1.1c0.22-0.44,0.22-0.66,0.44-1.32c0-0.44,0-0.44,0.44-0.44
		c0,0,0.22,0.44,0.66,0.22C394.5,428.35,394.5,428.35,394.94,428.13z M380.2,431.87l-0.44,1.54c-0.22-0.22-0.22-0.44-0.44-0.22
		l-0.22-0.44c-0.44-0.22-0.66-1.1-0.88-1.76c0-0.22,0-0.66-0.22-1.1l-0.22-0.88l-0.22-0.22c0.22-0.22,0.44-0.44,0.22-0.66
		c0,0,0-0.22,0.22-0.44l-0.22-0.88l0.22-0.22c-0.44-0.66-0.22-0.88-0.44-1.32l0.66-5.5l0.22,0.22c0.22,0,0.22,0.22,0.44,0
		c-0.44,3.74,0.66,9.9,0.44,10.34l0.44,0.66l0.44,0.22V431.87z M382.18,432.75v-0.22l-0.44-0.88c-0.44-0.44-1.76-1.1-1.76-1.1
		l-0.22-0.44c0-0.44-0.44-2.64-0.66-5.28c0.88,0.66,1.54,1.98,2.64,3.08c0.88,0.88,1.32,1.32,1.76,1.54l-0.44,0.22v0.88v0.66
		l0.22,2.42C382.84,433.63,382.4,433.19,382.18,432.75z M385.26,430.55c-0.22,0.22-0.22,0.44,0,0.66v0.44
		c-0.22,0.22-0.44,0.22-0.66,0.66c-0.22,0.22,0,0.44,0,0.66c0.22,0.22,0,0.22,0,0.44c-0.44,0.44-0.44,0.66-0.66,0.44l-0.22,0.22
		c0-1.1-0.44-3.08-0.44-3.08v-0.44l0.22-0.44l0.88-0.44l-0.44-0.22c0,0-2.2-1.76-3.52-3.74c0.22-0.22,0.22-0.22,0.22,0
		c0.66,0.44,1.32,0.88,1.54,1.76c0.44,0,1.54,0.44,1.98,0.44h0.22l-0.22-0.44l-0.22,0.22l-1.32-0.66c-0.44-0.44-1.1-1.1-1.76-1.98
		h-0.22l-0.88-0.44c-0.44-0.22-0.66-1.1-0.66-1.54v-0.22c-0.22-0.22,0.22-0.66,0.22-0.66c0,0.22,0.44,0.44,0.66,0.44
		c0.22,0.22,0.66,0.44,0.66,0.66v0.22c0.22,0,0.22,0,0.66,0c0.22,0,0,0.22,0.44,0.22c0,0,0.22,0,0.44,0l0.22,0.22v-0.44l-0.22-0.22
		c0-0.22-0.22-0.22-0.44-0.22l-0.44,0.22c0-0.22,0-0.22-0.22-0.22c-0.44-0.44-0.66-0.22-0.66-0.44c-0.44-0.66-1.1-0.66-1.1-1.1
		l-0.22-0.22c0-0.22-0.22-0.66,0.22-0.88c0.44,0.44,0.66,0.88,1.54,0.66c0.22,0.44,0.66,0.22,0.66,0.44
		c0.44,0.44,0.66,0.44,0.88,0.66c1.1,1.1,1.76,2.42,1.98,3.74l0.22,0.22v0.66l0.44,1.1c0,0.44,0.22,1.1,0.22,1.54
		s0.22,0.66-0.22,0.88L385.26,430.55z M397.58,423.51c-0.22,1.1-0.22,1.76-0.44,2.64l-0.44,0.44c0.22-0.66-0.22-1.1-0.66-1.98
		l0.22-0.22c-0.44-0.22-0.44-0.44-0.44-0.44c-0.44-0.22-0.22-0.66-0.44-0.88l0.66,0.22v0.22
		C396.04,423.51,396.92,423.73,397.58,423.51z M395.16,424.17c0.22,0.22,0.44,0.44,0.44,0.44l0.22,0.44
		c0.22,0.22,0.44,0.88,0.44,1.32c-0.88-0.22-1.98-1.54-1.98-1.54l-0.88-0.22l-0.88,0.22c0-0.44,0-1.54-0.66-2.42
		c-0.44-1.54-0.88-2.86-1.54-3.74c2.2,1.54,3.96,2.86,4.4,3.08l0.22,0.22l0.22,0.22C395.16,422.19,394.94,423.51,395.16,424.17z
		 M396.48,420.65c0,0.22,0.22,0.22,0.22,0.44c0.22,0.66,0.66,1.32,0.66,2.2c-0.44-0.22-1.1-0.44-1.32-0.22l-0.22-0.44l-0.22-0.44
		l-0.66-0.88c0,0-4.62-3.3-7.92-5.28l0.22-0.22l-0.22-0.44l4.62,1.98c0.22,0.22,0.88,0.66,0.88,0.88l0.22,0.22
		c0.22,0,0.22,0.22,0.88,0.44h0.22l0.22,0.22c0.22-0.22,0.66,0.22,0.66,0.44c0.22,0.44,0.44,0.22,0.88,0.44
		C395.82,420.21,396.04,420.43,396.48,420.65z M387.46,414.93h0.22c0.22,0,0.44-0.22,0.66,0c0.22,0,0.22,0,0.22,0.22l0.44-0.22
		l0.22,0.22h0.22c0.22,0.22,0.22,0.22,0.44,0.22l0.22-0.22c0.88,0.44,1.98,0.88,2.64,1.32c0,0.22,0.22,0.44,0.44,0.44h0.22
		l0.22,0.44l0.44,0.22c0.44,0.66,0.88,0.88,1.32,1.1c0,0.66,0.44,0.88,0.66,1.1c0,0,0.22-0.22,0,0.22c0-0.22-0.22-0.22-0.44-0.22
		c0,0-0.44-0.44-0.44-0.66l-0.22-0.22c-0.22,0.22-0.22,0-0.44-0.22c-0.44,0-0.44-0.22-0.66-0.22h-0.22l-0.66-0.44
		c0.22-0.22,0-0.22,0-0.22c-0.44-0.22-0.88-0.44-1.54-0.66l-4.62-2.2C386.8,414.93,387.02,414.93,387.46,414.93z M393.62,427.25
		l-0.66-0.22l-0.44,0.22c0-0.22-0.44-0.22-0.66-0.44c-0.44,0-0.44-0.22-0.66-0.66c-0.66-0.44-0.88-0.88-1.54-1.32
		c0.22-0.44,0-0.22,0-0.22l-0.22-0.22l-0.44-0.22c0.22-0.22,0.22-0.44,0.22-0.44s-0.22,0.22-0.44,0c-0.44-0.66-0.88-1.1-1.1-1.76
		h-0.44c0.44-0.22,0-0.44,0-0.44l-0.22-0.66c-0.22-0.22-0.44-0.22-0.44-0.22c0-0.22,0-0.22,0.22-0.66c0,0,0-0.22,0-0.44l-0.44-0.88
		l0.44,0.22v-0.22v-0.22c0.22-0.22,0-0.44,0.22-0.66h0.22l-0.22-0.22l0.22-0.44v-0.44c0,0,0.22,0,0.44,0.22h0.22
		c0,0.22-0.22,1.1,0,1.32c0,0.44,0,0.66,0,0.88l0.22,0.22l-0.22,0.22c0.22,0.22,0.22,0.44,0,0.44c-0.22,0.44-0.44,0.44-0.22,0.88
		h0.44v-0.22c0.22,0,0.22-0.22,0.22-0.22c0-0.22,0.22-0.66,0-0.88c0-0.22,0-0.22,0.22-0.44l-0.22-0.22c0.22,0,0-0.44,0-0.44
		c0.22-0.22,0-0.66,0-1.1c0,0,0.44,0,0.44,0.22v0.22c0.44,0.22,1.1,0.88,1.1,1.32l0.44,0.88l-0.22,0.22c0,0.88,0.22,1.76,0.66,2.2
		c0,0.66,0,1.54,0,1.76h-0.22l0.22,0.22h0.22c0.22-0.22,0.22-1.32,0.22-1.98c-0.22-0.64-0.64-1.5-0.45-2.15
		c0.95,2.3,1.34,4.81,1.55,5.01v0.22l0.66-0.44l0.66-0.22v0.22c0.22,0.22,1.76,1.54,2.86,1.98l-0.44,0.22
		c-0.44,0.22-1.1,0.66-1.76,0.44L393.62,427.25z"/>
	<path class="st0" d="M377,419.63l0.05,0.14c0.02-0.06,0.05-0.14,0.07-0.22C377.07,419.57,377.03,419.6,377,419.63z"/>
	<polygon class="st0" points="550.92,561.45 550.7,561.67 550.92,561.89 	"/>
	<path class="st0" d="M572.26,542.75c-0.44,0-0.44-0.22-0.88,0c-0.22,0-0.66,0-1.32,0.44c0-0.22-0.22,0.44-0.22,0.44l-1.1,1.1
		c-0.22,0.22-0.44,0.66-0.66,0.66l-0.44,0.66l-0.22,0.88l-0.44,0.44l-0.66,1.76l-0.44,0.22v0.44l-0.88,0.22l-0.44,0.66
		c-0.22-0.22-0.44-0.44-0.44-0.44c-0.66,0.44-0.88,0.44-0.88,0.22l-0.66,0.22c-0.44-0.44-0.44-0.44-0.44-0.22v-0.66v-0.44l0.44-0.44
		c0.22,0,0.22-0.22,0.88-0.66v-0.44c0.44,0.22,0.88-0.22,0.88-0.22l0.22-0.44H565l0.44-0.44l0.44-1.1c0,0.22,0.22-0.22,0.66-0.66
		c-0.44,0,0-0.44,0-0.44v-0.66c0-0.66-0.22-1.32,0-1.54l-0.22-0.88l-0.88-2.2c0,0,0-0.66,0.44-0.88c0-0.22,0.66-0.88,0.44-1.32
		c0.22-0.66-0.44-0.22-0.44-0.88c-0.44,0-0.44,0.44-0.66,0.44c0,0.22-0.44,0.88-0.44,0.88l-0.22,0.88c0,0.44,0.44,0.88,0.22,0.88
		c-0.66,0.88,0.22,1.1,0.22,1.76l-0.22,0.66c0.44,0.22,0.44,0.44,0.88,1.32c0.22,0,0,0.66-0.22,0.66c0.22,0.44,0,0.88,0,1.1
		l-0.22,0.22c-0.22,0.22-0.22,0.66-0.66,0.66l-0.22,0.44c0,0-0.44,0.22-0.44,0.66l-0.44,0.44c-0.22-0.22-0.44,0.22-0.44,0.22
		c-0.44,0-0.88,0.44-0.88,0.44c0-0.22-0.22,0.44-0.22,0.44c-0.66,0.44-0.66,0-0.66-0.44l-1.1-0.22l0.44-0.88h1.98l0.44-0.66
		l0.44-0.88c0.22-0.22,0.22-0.22,0.44-0.66l0.22-0.88c-0.44-0.44-0.66-0.88-0.44-1.32c0-0.44-0.22-0.66-0.88-1.1l-0.44-0.22
		c-0.88-0.22-1.1-0.22-1.32,0v-0.66l-0.88-0.44c-0.44-0.44-0.88,0.22-1.1,0.44l-1.32-0.22l-0.22-0.44c0,0-0.22,0.44-0.66,0
		c0,0-0.22,0-0.44,0.22l-0.44,0.44c0,0-0.66,0.22-0.22,0.44c-0.66,0.22-1.1,0-1.32,0.88c-0.22,0,0,0.44-0.22,0.22l0.22,0.22
		c-0.44,0.66-0.44,0.66,0,0.66c0,0.66-0.22,1.1,0,1.54c0.66,0.22,0.44,0.44,0.66,0.66c0,0.44,0.22,0.44,0.66,0.88
		c0,0.22,0,0.22,0.22,0l0.66,0.44l-0.44-0.22c-0.44,0.44-0.66,0.44-0.66,0.44h-0.66v0.44c-0.22-0.44-0.22-0.66-0.66-0.88
		c0-1.32-0.66-2.2-1.1-3.52c-0.22-0.44,0-0.66,0-1.1l0.44-1.1l0.66-0.88c0,0,0.44-0.22,0.44-0.66l0.88-0.44l0.44-0.88l0.66-1.1
		l0.22-0.44c0-0.66,0.22-0.88,0-1.1v-0.22c-0.22-0.44-0.22-0.44-0.44-0.22c-0.27,0-0.54,0-0.66,0c0.44,0.44,0,0.66,0,0.66l0.22,0.44
		c-0.22,0-0.22,0.22,0,0.66c0,0-0.22,0.22-0.44,0.44c0,0-0.22,0.22-0.22,0.66l-0.44,0.22c-0.44,0.22-0.44,0.22-0.44,0.22l-0.22,0.66
		c-0.44,0-0.22,0.44-0.66,0c0,0-0.22,0.44,0,0.44c-0.66,0.66-0.66,0.66-0.88,1.1l-0.66,1.32c0,0.44,0,0.44-0.22,0.44
		c0.44,0.44,0.22,0.66,0.44,0.88v0.22c0.22,1.1,0.22,1.98,1.1,2.86v0.88c0.22,0.44,0.22,0.44,0,0.88c0.22-0.44,0.44,0.22,0.44,0.22
		h0.44c-0.44,0-1.1,0-0.66,0.22c-0.22,0.44-0.44,0.22-0.66,0.22l-0.88-0.22c0-0.22-0.44-0.66-0.88-0.44
		c0.22-0.22-0.22-0.66-0.22-0.66l-0.22-1.1l-0.22,0.22c0-0.88-0.22-1.1-0.22-1.98c0.22,0,0.22-0.22-0.22-0.44
		c-0.22-0.44,0.22-0.66,0.22-1.1l-0.22-0.66c-0.22-0.66-0.22-1.32-0.44-1.54c0.22-0.44,0-1.1,0-1.54s-0.66-0.66-0.44-0.88
		c0,0-0.22-0.44-0.44-0.22c0.22-0.22-0.66-0.66-0.88-0.88c0-0.44-0.22,0.22-0.22,0.22l-0.44,0.44c0,0.44,0,0.44,0.44,0.44
		c0,0,0.22,0.66,0.44,0.44c0.44,0.88,0.66,1.1,0.88,1.76c0,0.44,0.44,0.88,0,1.32l0.22,0.44c-0.44,0.22,0,0.88-0.22,1.1
		c0.22,0.22,0.44,0.66,0.44,0.66c-0.22,0.44-0.22,0.66-0.66,0.88l0.44,0.22c0.44,0.44,0.44,1.54,0.66,2.64
		c0.22,0.22,0.44,0.22,0.66,0.66c0.22,0,0.22,0.66,0.22,0.88l1.54,0.66l-0.22,0.22l-0.22,0.44l-0.44-0.22c0,0-0.44,0-0.66,0
		c-0.88,0.22-1.32,0.66-1.98,0.66c-0.44,0.22-0.66,0-0.88,0.66l-0.66,0.22l-0.44,0.66c-0.66,0-0.66,0.22-0.88,0.22l-0.22,0.66
		c-0.44,0.22-0.44,0.66-0.44,0.44c-0.66,0-0.66,0-0.44,0.44l-0.88,0.22l-0.22,0.66l-0.44,0.66c-0.22,0.44-0.44,0.66-0.88,0.66
		l-0.66,1.54c-0.66,0-0.66,0-0.66,0.22l-0.22,0.44c-0.66,0.22-0.88,0.44-0.88,0.44l-0.44,0.44c0,0.44,0,0.44-0.44,0.44
		c-0.22,0-0.22,0.22-0.22,0.88c-0.44,0.22-1.1-0.22-1.54,0.22v0.22c0.22,0.22,0.22,0.44,0.22,1.1l0.22,0.22l0.66-0.44
		c-0.22-0.22-0.22-0.22,0.66-0.22c0-0.66,0-0.66,0.66-0.66l0.44-0.88h0.22c0-0.22,0.22-0.22,0.44-0.88h0.22l0.44-0.44
		c0,0,0.22-0.44,0.44-0.44c0.44-0.44,1.1-0.88,1.1-0.66c0-0.22,0.22-0.66,0.44-0.88l0.22-0.44l0.44-0.88h0.22
		c0.22-0.22,0.88-0.44,0.66-0.88c0.22,0.22,0.44,0.22,0.44,0l0.22-0.44c0.22-0.44,0.22-0.44,0.44-0.44c0,0,0.44,0,0.22-0.22
		l0.22-0.22l0.44-0.44c0.22,0,0.22,0,0.22-0.22l0.44-0.44c0.44,0,0.66-0.22,0.66-0.44c0.88-0.22,1.54,0,2.2-0.44
		c0.22,0.22,0.44-0.22,0.88,0v-0.22l0.44,0.22l-0.66,0.22c0.22,0,0.22,0.22,0.44,0.44l-3.96,3.52c-0.44,0.22-0.66,0.44-0.88,0.88
		c0,0.22-0.22,0.44-0.22,0.44c0,0.22-0.22,0.22-0.44,0.66c0,0-0.22,0.22-0.44,0.22c-0.44,0.22-0.44,0.22-0.22,0.66
		c0.22-0.44,0.22-0.22,0.44-0.44c0,0,0-0.22,0.44-0.22h0.22l0.44-0.66v-0.22c0.44-0.88,0.66-0.88,0.88-1.1l3.96-3.74v0.22
		c0.44,0.22,0.22,0.44,0.44,0.66c-2.86,2.2-6.38,7.48-6.38,7.7l-0.44,0.88v0.44v0.22l-1.54,1.1l-0.22-0.66v-0.22v-0.22
		c0-0.44,0.22-1.1,0.66-1.98c0.22,0,0.22-0.22,0.66-0.88c0-0.22,0.22-0.66,0.44-0.66v-0.22h-0.22c0,0.22-0.44,0.22-0.66,0.66
		c0,0.44-0.66,1.1-0.66,0.88l0.22-0.66v-0.44v-0.22c0.22-0.22,0.44-0.44,0.66-0.66c0.22-0.66,0.66-1.1,0.66-1.1v-0.44
		c0,0,0.22-0.22,0.44-0.22c0.22-0.22,0.22-0.44,0.44-0.44l0.22-0.66c0-0.22,0-0.22,0.22,0c0.44-0.66,1.32-1.32,1.98-1.76l0.66-0.44
		c0,0,0.44-0.22,0.88-0.66l-0.22,0.44c0.22,0.22,0.22-0.22,0.22-0.22h0.44l0.22-0.22c-0.22,0.22-0.22,0.22-0.44-0.44l0.44,0.44
		l0.22-0.66l0.22-0.22l-1.32,0.44c0,0,0,0.44-0.66,0.44c-0.44,0-0.88,0.22-0.88,0.66c-0.44,0.22-0.44,0.44-1.1,0.44
		c0.66,0.22,0,0,0,0.22c-0.44,0.44-0.66,0.44-0.66,0.66c0,0-0.44,0.22-0.66,0.88c-0.22-0.22-0.22,0-0.44,0.22
		c-0.22,0-0.22,0-0.22,0.44l-0.88,1.54l-0.44,1.1l-0.66,0.66c-0.22,0.66,0,0.88-0.22,1.54l-0.44,0.66c0.22,0,0.22,0.44,0,0.44
		c0.44,0.88-0.22,1.54,0.66,1.76l-0.22,0.44c0.22,0.66,0.44,0.66,0.66,0.88c-0.44,0.66,0.22,0.66,0.44,1.1c0,0,0.44,0,0.44,0.22
		c0.22,0,0.44,0.22,0.66,0.44l-0.22-0.22l-0.22-0.44l0.22-0.44c0,0-0.22-0.44-0.66-0.44c-0.44-0.22-0.22-0.66-0.66-1.32l1.54-1.1
		l0.66-0.44l-0.22,0.88c0.22,0.22,0,0.66-0.22,0.66v0.22c0.44,0.88-0.22,1.54,0,2.2v0.44c-0.22-0.22-0.22,0-0.22,0
		c0.22,0,0.22,0,0,0.22l0.44,0.22v-0.22c0.44,0,0.88,0.44,0.88,0.44l1.76-0.88l0.88,0.22l-0.44,0.22c0.44,0,0.88,0,0.66,0.88
		c0.22,0.44,0.44,0.44,0.22,0.66c0.44,0.22,0.22,0.66,0.66,1.1c0,0,0.66,0,0.88,0.22l0.22,0.22l0.44,0.44h0.66
		c1.1,0.44,1.32-0.22,2.2-0.22c0.44-0.22,0.88-0.66,1.1-0.66c0.22-0.66,0.44-0.44,1.1-0.66c0-0.22,0-0.22,0.44-0.22l0.44,0.66
		c-0.22,0.22-0.22,0.22,0.22,0.44l0.88,0.44l0.88,0.66h0.22l0.22-0.22c0.22,0,0.66,0,0.66,0l0.66-0.22h0.44l0.66-0.66l0.22-0.44
		c0.22,0.44,0.66-0.44,0.66-0.44l0.44-0.22v-0.22c0.22,0.22,0.22,0.22,0.44-0.44c-0.22,0,0-0.22,0-0.44l0.44-0.44
		c0-0.22,0.22-0.22,0-0.22v-0.44l0.44-0.66l0.22-0.22c-0.22-0.66,0-0.88-0.22-1.1c0.22-0.22,0.22-0.66,0.22-0.66
		c0.22-0.22,0-0.66-0.22-1.1c0,0,0.22-1.1,0-0.88l0.22-1.32c-0.44-1.1-1.1-1.98-1.32-3.08c0.22-0.22,0-0.88-0.44-0.88
		c0-0.22,0-0.22-0.44-0.88l-0.44,0.22c0,0,0.22-0.66-0.22-0.44c0,0,0.22-0.44,0.44-0.66c-0.36,0.18-0.57-0.22-0.64-0.38l0.64,0.16
		c0,0,0.44,0.44,0.22,0.66l0.88,0.44v0.66l0.66,0.22c0.22,0.88,0.22,1.32,0.44,1.98c0.22,0.22,0.44,0.66,0.88,1.1
		c0,0.66,0.22,1.76,0.22,2.64c0.44,1.76,0.88,3.52,1.54,4.84l0.22,1.1c0.22,0,0.44,0.22,0.44,0.44l0.66,0.44l0.44,0.22
		c0.22-0.44,0-0.88,0.22-0.66v-0.22c-0.44-0.44-0.88-0.44-0.66-1.1c0-0.44-0.22-0.66-0.66-1.1c-0.44-1.32-0.66-2.42-1.1-3.96
		c-0.22-0.88-0.44-1.76-0.66-2.42c0-1.1,0-1.32-0.44-1.76c0.22-0.22-0.22-0.66-0.66-1.1c0.22-0.88,0-0.88-0.22-1.32
		c-0.22-0.44-0.44-0.66-0.88-0.66l-1.1-1.32c0.44-0.22-0.22,0-0.44-0.22c-0.44-0.22-0.88-0.44-0.88-0.44s-0.22-0.44,0-0.66v-0.22
		h0.22l0.22-0.22c0.22,0,1.32,0,1.32,0c0.22-0.22,0.66,0,0.66,0l0.22-0.22c0.22-0.44,0.66-0.44,0.88-0.44l0.44-0.66
		c0.44-0.22,0.44-0.22,0.22-0.66c0.22,0,0.44-0.44,0.44-0.44c0.44-0.66,0.88-0.44,1.1-0.88c0.22-0.22,0.22-0.66,0-0.66
		c0.88-0.88,0.88-0.88,0.88-1.1l0.44-0.66c0.22-0.22,0.22-0.66,0.88-0.88l0.66-0.88c0.22,0,0.88-0.22,0.88-0.44
		c0,0,0.44,0.22,0.88,0c0,0,0-0.22,0-0.66l-0.44,0.22V542.75z M546.08,563.87c0.22-0.44,0.44-0.66,0.44-1.1l-0.66-1.98l0.22-0.44
		c0.22-0.22,1.54-2.2,3.08-4.18c0,0.88-0.22,2.42-0.22,4.4c0,0.66,0,1.54,0.44,1.98l-0.66-0.22l-0.66,0.44l-0.22,0.88l-1.54,1.98
		c-0.44-0.66-0.44-0.88-0.44-1.76H546.08z M552.24,560.57v0.22l-0.22,0.66l-0.44,0.66l-0.22,0.66c-0.22,0-0.44,0.66-0.88,0.88
		c-0.22,0.44-0.44,0.44-0.66,0.66v0.22c-0.44,0-0.66,0.22-0.66,0.44l-0.22,0.44c0,0.22-0.44,0-0.88,0c-0.22,0-0.22,0.22-0.22,0.44
		c-0.22,0.22-0.44,0-0.44,0.22c-0.66,0.22-0.88,0.22-1.1,0c0.88-0.88,1.76-2.42,1.76-2.42l0.22-0.44l0.44-0.22l0.66,0.44v-0.44
		c0,0,0-2.86,0.22-5.28v0.22c0.22,0.66,0.22,1.32,0.22,2.2c0,0.44,0.66,1.54,0.88,1.54c0-0.44-0.22-1.1-0.44-1.54
		c0-0.88,0-1.54-0.22-2.42l0.22-0.22l-0.44-1.1c0-0.44,0.22-1.32,0.44-1.54l0.22-0.22c0.22-0.22,0.66-0.22,0.66-0.22
		c-0.22,0.44,0,0.66,0,0.88c0.22,0.22,0.22,0.44,0.22,0.88h-0.22c0.22,0,0.22,0,0.44,0.44c0,0.22,0,0.22,0.66,0.44
		c0,0-0.22,0.44,0,0.44v0.44l0.22-0.44v-0.22c0.22,0,0-0.22-0.44-0.44l-0.22-0.22c0.22,0,0.22,0,0.22-0.66
		c-0.22-0.44-0.44-0.22-0.44-0.66c-0.22-0.66-0.22-1.1,0-1.54h0.22c0-0.22,0-0.66,0.44-0.66c0.22,0.44,0,1.1,0.66,1.54
		c-0.22,0.44,0.44,0.66,0.22,0.88c0.22,0.44,0.22,0.66,0.22,0.88C553.56,558.15,553.12,559.47,552.24,560.57z M559.94,569.81
		c-0.44-0.66-1.32-0.22-1.54-1.1l-0.66-1.32l-0.44-0.22c0-0.22,0-0.66,0-0.88c-0.44-0.22-0.44-0.66-0.22-1.1
		c-0.44-0.66,0-0.88-0.22-1.98c0.44,0,0.22,0.22,0.22-0.44v-0.44c0,0-0.22-0.22,0-0.22c0-0.66,0-1.76,0.44-2.2l-0.44-0.22
		c0.66,0,0.22-0.22,0.22-0.22l0.22-0.66c0-0.44,0.22-0.66,0.22-0.66s0,0,0.44,0c0,0-0.22-0.44,0-0.66c0,0,0,0,0.22-0.22l0.22-0.22
		l0.22-0.22h0.22l0.22-0.22c0,0,0.22,0,0.44-0.22h0.22l0.44-0.44h0.22c0,0,0.44,0.22,0.22,0.44v0.22l-0.66,0.66
		c-0.44,0.44-0.66,0.44-0.66,0.88v0.22h-0.22c-0.22,0.22-0.44,0.44-0.44,0.44c-0.22,0-0.44,0-0.66,0.22h-0.44l0.66,0.44l0.22-0.22
		c0.22,0.22,0.22-0.22,0.22-0.22c0.44,0,0.66,0,0.88-0.22l0.22-0.22l-0.22-0.44c0.44,0.22,0.66-0.22,0.66-0.22
		c0.22-0.22,0.66-0.66,0.66-0.88l0.22,0.44l-0.22,0.22c0.22,0.44,0,1.1,0,1.54c-0.22,0.44-0.44,0.66-0.44,1.32l-0.22-0.22
		c-0.44,0.66-1.1,1.32-1.32,1.98c0,0.44-0.66,0.88-1.1,1.32l0.22,0.22c0.22,0,1.1-0.66,1.32-1.32c0.16-0.47,0.54-0.83,0.9-1.32
		c-0.85,1.64-2.09,4.18-2.22,4.18l0.22,0.22h0.88l0.22,0.66c0.22,0.44,0.22,2.2,0.88,3.52
		C560.16,569.59,559.94,569.81,559.94,569.81z M560.6,569.15c-0.66-0.88-0.44-2.64-0.44-2.64l-0.44-0.66l-0.44-0.44l-0.22-0.22
		c0.22-0.44,0.88-1.1,1.1-2.2c1.1-1.32,1.32-2.64,1.32-3.52l1.1,5.06l0.22,0.44l-0.22,0.44c0,0-1.1,0.66-1.1,1.1
		c-0.22,0.44-0.22,0.66-0.22,0.66l-0.22,0.66C561.26,568.27,560.82,568.93,560.6,569.15z M561.26,569.15v0.22
		c-0.22-0.22,0.22-0.66,0.44-1.54l0.22-0.22c-0.44-0.44-0.22-0.44,0-0.88c0-0.22,0.44-0.44,0.22-0.66l0.44,0.44v0.22
		c0,0,0.44,0.66,0.66,1.1C562.8,568.49,562.14,568.93,561.26,569.15z M562.53,554.01c-0.06,0.05-0.17,0.11-0.17-0.04L562.53,554.01z
		 M562.36,554.85c0,0.22,0.44,0.22,0.22,0.44c0.22,0,0.22,0,0,0.22l0.66,0.22l-0.22,0.22l0.22,0.22c0,0.44,0,0.44,0.44,0.44
		c0.66,0.88,0.66,1.98,1.1,2.86c-0.22,0.22,0,0.22,0,0.44l0.22,0.44c-0.22,0.22-0.22,0.44-0.22,0.44H565c-0.22,1.1,0,1.54,0,2.2
		c0,0.13,0,0.41,0,0.66c0,0.18,0,0.35,0,0.44c0,0,0.22,0.22-0.22,0.22c0.22-0.22,0-0.22,0.22-0.66l-0.44-0.88l0.22-0.22
		c-0.22-0.22,0-0.22-0.22-0.44l-0.22-0.44l-0.22-0.22c-0.22-0.22,0-0.44-0.22-0.66l0.22-0.22c-0.22-0.44-0.22-1.1-0.66-1.32
		c-0.22,0.44,0,1.1,0.22,1.32l-0.22,0.22c0.22,0.22,0,0.66,0.44,0.88v0.22v0.44c0.22,0,0.44,0.44,0.44,0.66
		c-0.22,0.44,0,0.44,0.22,1.1c-0.22,0,0,0.22,0.22,0.88c-0.22,0.22,0,0.44-0.22,0.44c-0.22,0.88-0.44,1.54-1.1,2.2
		c0-0.44-0.22-1.1-0.66-1.1l-0.22-0.66l0.44-0.44l0.22-0.88c0,0-0.66-5.72-2.2-9.24v-0.22l0.22-0.22l2.2,4.4l-1.95-5
		c0.05,0.08,0.19,0.23,0.64,0.38L562.36,554.85z"/>
	<path class="st0" d="M476.56,538.35l-26.62-5.72c-17.16-3.74-26.62-10.34-26.62-23.1c0-13.42,14.08-22.44,32.78-22.44
		c22,0,34.76,11.66,35.86,28.38h23.98c-1.76-29.04-23.54-48.18-58.96-48.18c-33.22,0-57.64,18.48-57.64,44.22
		c0,23.98,19.14,37.62,42.9,42.9l24.2,5.28c17.82,3.96,28.6,10.34,28.6,23.98c0,16.06-13.86,25.3-36.08,25.3
		c-22.88,0-39.6-12.76-40.92-34.76h-23.98c1.1,33.22,25.52,54.34,64.24,54.34c38.5,0,60.72-20.68,60.72-47.3
		C519.02,557.05,500.98,543.63,476.56,538.35z"/>
	<polygon class="st0" points="481.18,733.27 481.18,733.71 481.62,733.27 	"/>
	<path class="st0" d="M475.68,736.35c0,0-0.44-0.44-0.22-0.44l0.22-0.44c-0.22-0.22-0.66-0.66-0.66-0.66v-0.22
		c-0.22-0.88-0.44-0.88-0.66-1.1c-0.22,0.22-0.22,0.66,0.22,1.1c0.22,0.22,0.22,0.44,0.22,0.44c0.22,0,0.22,0.22,0.44,0.66
		l0.22,0.44c0,0.44,0,0.44,0.44,0.44C475.46,736.35,475.68,736.57,475.68,736.35z"/>
	<path class="st0" d="M472.38,729.75l0.44,0.22C473.04,729.97,472.38,729.75,472.38,729.75z"/>
	<path class="st0" d="M383.28,434.73v-0.03c-0.08-0.01-0.16,0.01-0.25,0.03H383.28z"/>
	<path class="st0" d="M740.78,531.09c-0.22-1.1-0.44-1.76-0.66-2.42c-2.42-8.36-10.56-14.08-19.14-14.52h-16.72
		c-3.52-0.22-7.04-0.22-10.34-0.44l-22.44-1.32c-2.86-0.22-5.72-0.44-8.8-0.66l-1.98-18.48c1.1,0,1.98,0,2.86,0
		c3.52,0.22,7.04,0.44,10.34,0.44c3.3,0,6.6-0.22,9.68-0.22c3.52-0.22,7.04-0.44,10.34-0.44c6.6-0.44,12.98-1.32,19.58-2.42
		c4.62-0.88,9.24-1.76,13.64-3.74c8.14-3.52,13.86-12.32,11-21.34c-0.22-0.22,0-0.66,0-1.1c4.84,0.66,9.24,1.54,14.52,0.88
		c-4.4-5.94-8.58-11.66-12.98-17.82c-1.1,4.62-1.98,8.58-3.96,12.1c-2.42-2.2-4.84-4.4-7.48-6.16c-4.4-3.08-9.46-4.4-15.18-3.08
		c-7.92,2.2-16.28,3.3-24.64,3.74c-1.54,0.22-2.86,0-4.4,0.22c-4.18,0-8.14,0.22-12.32,0.22c-5.28-0.22-10.56-0.66-15.84-0.88
		c-3.52-0.22-6.82-0.22-10.56-0.44c0.22-0.66,0.22-1.1,0.44-1.54c-0.66,0-1.1,0-1.32,0.22c-5.06,1.1-9.9,0.88-14.96,0.88
		c-3.3-0.22-6.6-0.22-9.68,0.44c-6.6,1.32-11.44,5.28-14.08,11.66c-0.66,1.98-0.88,3.96-1.32,6.16c-4.18-2.42-8.14-5.06-12.76-6.82
		c1.32,7.26,2.42,14.3,3.96,21.56c3.3-3.74,5.94-7.26,9.46-10.12c2.64,8.36,7.48,13.86,16.06,16.06c0.22,1.98,0.22,3.74,0.44,5.72
		l2.64,23.76c0.66,5.94,1.1,11.88,1.54,18.04l1.32,15.62c0.22,5.28,0.66,10.34,0.88,15.4c0.22,7.48,0.66,14.96,0.88,22.44
		c0.22,5.28,0,10.56,0.22,15.84c0,1.98,0.22,3.96,0.66,5.72c1.54,6.38,5.5,10.56,11.66,13.2c1.54,0.66,3.08,0.88,4.84,1.54
		l-8.36,9.9c4.4,0.88,19.8,1.1,21.56,0.44c-2.42-3.52-5.5-6.82-8.14-10.34c1.1-0.44,1.98-0.44,2.64-0.66
		c8.8-2.2,14.74-10.34,14.3-18.26c-0.22-7.26-0.22-14.74-0.44-22c0-4.62-0.22-9.24-0.44-14.08c0-1.54,0-3.08-0.22-4.62
		c-0.22-4.84-0.44-9.68-0.88-14.3c0-1.32-0.22-2.42-0.22-3.74c2.2,0.22,4.18,0.22,5.94,0.44c6.16,0.22,12.1,0.66,18.26,1.1
		c3.74,0.22,7.7,0.44,11.44,0.44c6.82,0,13.64,0.22,20.24,0c6.16-0.44,11.22-3.08,14.96-7.7c2.42-2.86,3.52-5.94,4.18-9.9
		l12.54,8.36c-0.44-7.7-0.88-14.74-1.32-22.22C748.26,524.93,744.74,528.01,740.78,531.09z M640.24,461.79l19.36,0.66
		c8.58,0.22,16.94,0.66,25.52,0.44c10.12-0.22,20.02-1.32,29.7-3.96c4.62-1.32,10.12,1.54,12.1,6.16c0.66,1.54,0.44,2.64-0.88,3.08
		c-1.1,0.66-1.98,0.22-2.64-1.1l-0.44-0.66c-1.54-2.86-3.96-4.18-7.26-3.3c-6.82,1.76-13.86,2.86-20.9,3.52
		c-4.18,0.22-8.58,0.44-12.76,0.44c-7.04,0-13.86,0-20.68-0.22c-3.52,0-6.82-0.22-10.12-0.44c-0.66,0-1.1,0-1.54-0.22
		c-1.76-0.66-3.3-1.32-5.06-1.76c-1.76-0.44-3.52-0.44-5.5-0.88C639.58,462.89,639.8,462.23,640.24,461.79z M618.02,480.71
		c-1.1,0-1.98-0.88-1.98-1.98c0.22-1.32,1.1-2.2,2.2-1.98c1.1,0,1.98,0.88,1.98,1.98C620,479.83,619.12,480.93,618.02,480.71z
		 M629.46,465.53c-1.32,0.22-2.86,0-4.18,0c-3.52,0-5.72,1.98-6.16,5.5c-0.22,1.32-0.44,2.2-1.76,2.42
		c-1.32,0.44-2.2-0.22-2.42-1.76c-0.22-3.08,0.88-5.72,3.08-7.7c1.76-1.54,3.96-2.64,6.6-2.64c1.32,0,2.64,0.22,3.96,0
		c1.98-0.22,3.52,0.44,4.84,1.98l0.88,0.88c0,0.22,0,0.44,0,0.66L629.46,465.53z M632.32,479.39c-1.1,0-1.98-0.88-1.98-1.76
		c0-1.1,1.1-2.2,1.98-2.2c1.1,0,2.2,0.88,2.2,1.98C634.52,478.51,633.42,479.39,632.32,479.39z M656.3,616.67
		c-1.98,1.76-4.18,2.42-6.6,2.42c-1.32,0-1.98-0.66-2.2-1.54c-0.22-1.1,0.66-1.98,1.76-2.2l1.76-0.44c2.86-0.66,4.4-2.86,4.4-5.72
		c0-6.16,0-12.1-0.22-18.04c-0.22-7.26-0.66-14.52-1.1-22c-0.22-7.48-0.66-14.96-1.32-22.44c-0.88-10.78-1.76-21.78-2.86-32.56
		c-0.88-10.34-2.2-20.68-3.52-31.02c-0.44-3.52-2.42-5.5-6.16-5.5h-0.44c-1.32-0.22-2.42-0.88-2.42-1.98
		c-0.22-0.88,0.88-1.76,2.2-2.2c4.4-0.66,9.46,2.42,10.56,6.82c0.66,2.64,0.88,5.5,1.32,8.14c1.1,9.9,2.2,19.8,3.08,29.48
		c0.66,6.6,1.1,13.2,1.76,19.8c0.44,5.72,0.88,11.22,1.1,16.94c0.44,7.04,0.88,13.86,1.1,20.68c0.44,7.26,0.66,14.52,1.1,22h-0.22
		c0,3.3,0.22,6.6,0.44,10.12C659.82,610.95,659.16,614.25,656.3,616.67z M728.02,535.05c-1.32,0.22-2.2-0.66-2.42-2.2
		c-0.88-3.96-2.86-5.72-7.26-5.72c-4.4-0.22-9.02,0-13.64-0.22c-5.5,0-11-0.44-16.5-0.66l-12.54-0.66
		c-3.96-0.22-7.7-0.66-11.66-0.88c-0.22-1.32-0.22-2.64-0.44-3.96c1.54,0,3.08-0.22,4.62,0c3.96,0.22,7.92,0.66,11.88,0.88
		c7.48,0.44,14.74,0.66,22.22,0.88c5.5,0.22,11,0.22,16.5,0.44c4.18,0,7.48,1.54,9.68,5.06c0.88,1.1,1.1,2.64,1.54,3.96
		C730.22,533.73,729.34,534.83,728.02,535.05z"/>
	<polygon class="st0" points="782.14,555.95 858.26,555.95 858.26,536.15 782.14,536.15 782.14,490.61 861.56,490.61 861.56,471.03 
		758.82,471.03 758.82,625.03 864.42,625.03 864.42,605.23 782.14,605.23 	"/>
	<path class="st0" d="M961.88,421.75c-5.28,19.8-9.02,30.14-12.1,31.24c1.1,21.12,3.96,21.12,11.44,1.1
		C959.9,450.57,960.12,440.01,961.88,421.75z"/>
	<path class="st0" d="M961.22,454.09c0.66,1.32,1.54,1.54,2.86,0.66c1.54-6.82,3.74-16.72,7.04-29.7
		C967.16,437.15,963.86,446.83,961.22,454.09z"/>
	<path class="st0" d="M920.3,423.95c3.3,14.52,4.84,23.76,4.84,28.6c8.58,16.94,11,16.72,9.9,0.66
		C932.18,451.89,927.56,442.21,920.3,423.95z"/>
	<path class="st0" d="M946.7,450.35c0.88,2.2,1.98,3.08,3.08,2.64c-0.44-8.14-0.66-19.14-0.66-33.22
		C948.24,432.97,947.58,443.09,946.7,450.35z"/>
	<path class="st0" d="M937.9,450.79c4.4,17.6,6.6,18.26,8.8-0.44c-2.2-4.4-4.18-14.96-6.6-30.8
		C939.88,435.83,939.44,446.17,937.9,450.79z"/>
	<path class="st0" d="M935.04,453.21c1.32,0.44,2.2-0.44,2.86-2.42c-1.76-7.26-3.74-17.38-6.38-30.14
		C933.28,434.95,934.6,445.73,935.04,453.21z"/>
	<path class="st0" d="M1005,465.75c0.66-0.44,1.32-0.88,2.2-1.32l1.98-1.76C1007.64,463.77,1006.32,464.65,1005,465.75z"/>
	<path class="st0" d="M1013.36,474.11c-21.34,8.14-24.64,7.26-3.96-11c-0.88,0.44-1.54,0.88-2.2,1.32
		c-27.94,23.76-31.9,29.26-6.16,19.36C1002.58,481.81,1006.76,478.51,1013.36,474.11z"/>
	<path class="st0" d="M964.08,454.75c-3.74,18.48-1.1,16.94,8.8-1.32c0.88-5.06,3.08-12.98,6.82-23.98
		C972.22,443.97,967.16,452.77,964.08,454.75z"/>
	<path class="st0" d="M1002.8,451.45c-5.72,4.62-10.12,8.36-13.42,10.78c-18.92,25.96-13.2,23.54,15.62,3.52
		C984.76,476.97,984.98,472.79,1002.8,451.45z"/>
	<path class="st0" d="M972.88,453.43c-0.66,3.08-0.66,4.84,0,5.72c2.42-6.82,6.16-15.84,11-27.06L972.88,453.43z"/>
	<path class="st0" d="M983,465.31c1.1,0.22,3.08-0.88,6.38-3.08c2.86-4.18,6.6-9.02,10.78-14.52
		C993.12,455.19,987.4,460.91,983,465.31z"/>
	<path class="st0" d="M993.34,440.01c-12.32,14.96-18.7,21.34-20.46,19.14c-6.38,17.82-4.18,19.8,10.12,6.16
		C980.14,464.87,983.66,457.17,993.34,440.01z"/>
	<path class="st0" d="M874.98,475.21c9.9,5.72,14.3,9.02,12.98,10.34c18.04,5.72,20.46,4.62,4.62-7.7
		C893.24,480.49,887.08,478.95,874.98,475.21z"/>
	<path class="st0" d="M894.56,553.97l2.39-1.8c-0.23,0.14-0.54,0.26-0.85,0.26C895.66,552.87,895.22,553.53,894.56,553.97z"/>
	<path class="st0" d="M897.2,551.99c8.58-3.3,8.58,0,2.2,9.9c5.5-3.96,9.24-6.38,11.44-6.16
		C926.02,533.73,922.5,534.17,897.2,551.99z"/>
	<path class="st0" d="M891.26,545.17c7.48-1.76,8.8,0.44,1.76,8.8c1.1-0.66,2.2-1.1,3.08-1.54
		C917.88,532.85,914.58,533.07,891.26,545.17z"/>
	<path class="st0" d="M911.94,556.39c-0.22-0.44-0.66-0.66-1.1-0.66l-5.94,8.14L911.94,556.39z"/>
	<path class="st0" d="M938.73,577c-0.03,0.1-0.08,0.19-0.18,0.29v0.66C938.56,577.63,938.67,577.32,938.73,577z"/>
	<path class="st0" d="M922.94,456.29c1.54,0.44,2.2-0.66,2.2-3.74c-3.08-6.16-7.26-14.74-12.1-25.52
		C917.44,439.35,920.74,449.03,922.94,456.29z"/>
	<path class="st0" d="M926.02,562.99c-0.66,0.44-1.54,1.76-2.64,3.96c-0.88,1.98-1.54,3.96-2.42,6.38
		C922.72,569.37,924.48,566.07,926.02,562.99z"/>
	<path class="st0" d="M925.36,576.85c9.02-18.26,11.66-14.96,12.1,3.96c0.44-1.32,0.66-2.42,1.1-3.52
		c2.2-36.3,0.44-40.48-12.54-14.3C927.56,561.67,927.34,565.85,925.36,576.85z"/>
	<path class="st0" d="M919.2,575.53c1.54-3.52,3.08-6.6,4.18-8.58c8.8-24.42,7.7-24.64-2.86-5.94
		C921.84,562.55,921.18,567.61,919.2,575.53z"/>
	<path class="st0" d="M908.86,568.71c5.94-6.16,9.46-8.8,11.22-8.14c8.14-18.04,6.82-19.58-8.14-4.18
		C912.82,557.93,911.94,561.67,908.86,568.71z"/>
	<path class="st0" d="M920.52,561.01c0-0.22-0.22-0.22-0.44-0.44c-1.54,3.08-3.08,6.82-5.06,10.78
		C917.22,567.39,918.98,564.09,920.52,561.01z"/>
	<path class="st0" d="M891.03,545.33c-0.16,0.08-0.36,0.13-0.65,0.28l-1.76,1.1C889.42,546.31,890.22,545.9,891.03,545.33z"/>
	<path class="st0" d="M881.8,508.43c0.44-0.44,0.44-0.88,0-1.32c-2.64,0-5.72,0.22-9.02,0.22
		C876.08,507.77,879.16,507.99,881.8,508.43z"/>
	<path class="st0" d="M872.34,503.37c5.5,1.32,8.58,2.42,9.46,3.74c20.24-1.1,21.56-3.08-1.76-9.9
		C885.54,500.07,883.12,501.83,872.34,503.37z"/>
	<path class="st0" d="M880.04,497.21c-1.1-0.44-2.42-1.1-4.18-1.76c-1.1,0-2.42-0.22-3.74-0.44
		C874.98,495.89,877.62,496.55,880.04,497.21z"/>
	<path class="st0" d="M872.12,494.13l3.74,1.32c28.38,3.52,30.36,1.32,9.24-9.02c-2.64,0-6.6-0.44-12.1-1.32
		C889.94,492.37,888.18,494.35,872.12,494.13z"/>
	<path class="st0" d="M884.22,537.69c0.22-0.22,0.44-0.44,0.44-0.44l-1.32,0.66L884.22,537.69z"/>
	<path class="st0" d="M873.66,512.17c7.48,1.54,10.12,3.3,8.36,5.72c21.56-4.4,20.24-6.82-0.22-9.46
		C880.92,509.53,878.28,510.85,873.66,512.17z"/>
	<path class="st0" d="M879.16,530.43c9.02,0,11.22,1.76,5.5,6.82c25.52-12.76,22.88-14.08-1.32-10.12
		C882.46,528.23,881.14,529.11,879.16,530.43z"/>
	<path class="st0" d="M883.34,527.13c0.22-0.22,0.44-0.44,0.66-0.88c-1.76,0.66-3.52,1.1-5.5,1.76
		C880.26,527.79,881.8,527.35,883.34,527.13z"/>
	<path class="st0" d="M884,526.25c20.24-6.16,21.56-8.14-2.86-7.26c-1.1,0.88-2.86,1.98-5.06,3.08
		C882.9,522.73,885.32,524.05,884,526.25z"/>
	<path class="st0" d="M881.14,518.99c0.22-0.44,0.66-0.66,0.88-1.1l-6.6,1.32C877.4,519.21,879.38,518.99,881.14,518.99z"/>
	<path class="st0" d="M887.08,546.49c1.32-0.44,2.42-0.66,3.3-0.88c23.1-15.62,23.76-18.04-6.16-7.92c-0.22,0.22-0.66,0.44-1.1,0.88
		C893.46,537.03,894.12,539.45,887.08,546.49z"/>
	<path class="st0" d="M1016.44,491.71c-4.84,1.1-9.02,1.98-12.54,2.86c0.44,0.22,1.32,0.44,2.42,0.66L1016.44,491.71z"/>
	<path class="st0" d="M1014.02,518.33c-3.74-0.44-6.82-0.66-9.24-1.1C985.2,515.69,986.96,515.91,1014.02,518.33z"/>
	<path class="st0" d="M885.1,486.43c1.54-0.22,2.42-0.44,2.86-0.88c-3.96-1.1-8.8-2.64-14.3-4.62
		C878.06,482.91,881.8,484.67,885.1,486.43z"/>
	<path class="st0" d="M892.58,477.85c-0.22-1.1-1.98-2.86-5.28-5.72l-9.68-5.28C883.78,471.25,888.84,474.99,892.58,477.85z"/>
	<path class="st0" d="M1016,506.23c-29.92,4.62-31.24,6.82-12.76,10.12l11.22,0.66c-18.04-1.54-12.1-1.54,0.66-0.88
		c-10.78-3.52-12.32-6.38,1.1-9.9c-14.3-2.2-13.86-5.06,0.44-10.78c-4.62,0.22-8.14,0.22-10.34-0.22
		C982.56,504.03,984.1,506.45,1016,506.23z"/>
	<path class="st0" d="M1004.78,517.23c2.64,0.22,5.72,0.66,9.24,0.88c-4.18-0.66-7.7-1.1-10.78-1.76
		C993.34,515.91,992.24,515.91,1004.78,517.23z"/>
	<path class="st0" d="M878.5,464.87c3.74,2.86,6.6,5.28,8.8,7.26c25.74,13.42,28.6,11.66,12.32-7.48
		c-3.52-1.98-8.8-5.72-15.62-10.56C904.46,474.77,903.14,477.19,878.5,464.87z"/>
	<path class="st0" d="M904.24,432.31c9.46,20.68,12.54,29.92,7.7,27.94c14.3,16.94,17.16,16.28,11-3.96
		C919.86,455.19,913.92,446.83,904.24,432.31z"/>
	<path class="st0" d="M906.44,456.51c2.42,1.98,4.18,3.3,5.5,3.74c-4.4-5.06-9.9-11.88-16.5-20.46
		C899.84,446.39,903.58,451.89,906.44,456.51z"/>
	<path class="st0" d="M904.68,466.41c13.42,11.66,14.3,9.68,1.76-9.9c-3.52-2.86-8.14-7.48-14.08-13.42
		C903.36,458.49,907.32,465.75,904.68,466.41z"/>
	<path class="st0" d="M899.62,464.65c2.64,1.32,4.18,1.98,5.06,1.76c-4.4-3.96-10.34-9.46-17.82-16.5
		C891.92,455.63,896.32,460.47,899.62,464.65z"/>
	<path class="st0" d="M955.28,578.83v-1.1c-0.88-5.06-1.54-8.36-2.2-9.46C953.74,571.35,954.62,574.87,955.28,578.83z"/>
	<path class="st0" d="M955.28,577.73c0.22,0.88,0.22,1.98,0.44,3.3c0.88-15.62,3.3-17.38,10.12-2.86
		c-1.54-14.08,1.54-11.88,7.48-1.32c-1.1-5.28-1.1-7.48,0.44-6.38C956.82,540.99,953.96,543.85,955.28,577.73z"/>
	<path class="st0" d="M938.78,576.63c4.84-13.64,7.92-13.86,11.22,3.96c1.1-10.78,1.98-14.52,3.08-12.32
		C948.02,544.51,945.16,545.17,938.78,576.63z"/>
	<path class="st0" d="M1002.14,565.19c-0.88-2.42-2.2-4.62-2.42-5.5c-2.2-2.86-3.3-4.18-0.66-2.2c-6.38-5.5-9.02-7.7-1.76-0.66
		c-10.56-8.8-11.22-8.58-1.32,1.76c-14.96-12.54-19.58-15.4-5.5,3.52c-19.36-19.36-20.46-16.94-7.7,6.6
		c-15.4-23.98-19.36-27.72-8.58,2.2c0.88,0.66,1.76,2.2,3.08,4.18c-1.54-5.5,0-3.52,2.64,0.88c-0.44-1.32,0.22,0,1.1,2.2
		c0.22,1.1,0.44,3.3,0.44,5.5c0,16.06-13.86,25.3-36.08,25.3c-20.02,0-35.42-9.68-39.82-27.06c-0.66-2.42-0.88-4.84-1.32-7.48
		c0.22-0.22-1.32-0.22-3.52-0.22h-20.24c1.1,33.22,25.52,54.34,64.24,54.34c38.5,0,60.72-20.68,60.72-47.3
		c0-3.08-0.22-5.94-0.88-8.58C1004.12,570.03,1003.24,567.39,1002.14,565.19z"/>
	<path class="st0" d="M973.76,570.47l0.88,1.54c-0.22-0.44-0.22-0.88-0.44-1.1C973.98,570.69,973.98,570.47,973.76,570.47z"/>
	<path class="st0" d="M1014.24,478.6c-4.97,2.15-9.51,3.88-13.2,5.19c-0.88,1.32-1.1,2.2-0.44,2.64l13.64-7.79v7
		c-7.65,1.5-12.19,1.82-13.64,0.79c-18.48,11-16.06,12.1,3.3,8.14c-1.66-1.46,1.6-3.9,10.34-8.44v4.48h52.58v134.42h23.32V490.61
		h52.36v-19.58h-128.26V478.6z"/>
	<rect x="1161.42" y="471.03" class="st0" width="23.32" height="154"/>
	<path class="st0" d="M1389.78,551.33c-8.8-2.86-17.82-3.08-27.06-2.2c-22.88,2.2-46.86,2.64-69.3,8.14c-3.08,0.88-6.6,1.1-9.46,0
		c-16.5-5.06-32.56-11-47.74-20.02c-1.32-0.66-2.2-1.98-3.52-3.3c-1.32-1.1-1.54-4.62-0.44-6.6c1.1-1.76,2.2-3.96,3.74-5.06
		c4.18-2.64,8.36-5.06,12.54-7.04c3.08-1.1,6.16-1.54,9.46-0.66c7.26,1.98,14.74,3.3,21.78,4.84c18.48,3.52,36.96,5.94,55.66,7.48
		c15.62,1.54,31.68,2.42,50.82,2.64h11c12.76,0.22,25.52-0.88,38.28-3.52c3.74-0.88,7.26-2.2,10.56-3.96
		c0.88-0.22,1.54-2.64,1.54-4.18c0.22-1.76-0.22-3.52-1.32-5.06c-3.74-6.82-9.46-12.54-16.28-15.4
		c-13.86-5.94-27.94-10.78-43.12-11.22c-31.02-1.32-61.82-0.44-92.18,3.3c-2.86,0.44-5.28,1.1-7.92,1.76
		c-10.78,2.2-21.78,5.06-32.78,7.48c-5.94,1.54-11.66,1.32-17.16-1.76c-5.72-2.86-11.88-5.5-17.16-8.8c-3.52-1.76-6.6-3.74-8.8-7.26
		c-1.1-1.54-1.1-5.06,0.44-6.38c1.76-1.98,3.96-4.4,5.94-5.28c5.06-2.2,10.34-4.18,15.18-5.28c37.18-10.12,75.02-15.18,113.08-20.9
		c9.24-0.88,17.82-2.42,26.62-4.18c1.76-0.22,3.08-1.32,4.62-1.98c0.44,0,0.66-1.1,0.66-1.32c0.22-0.44,0-1.32-0.22-1.54
		c-1.98-1.32-3.52-2.86-5.5-3.08c-7.92-1.98-15.84-0.88-24.2,0c-11.88,1.76-23.98,4.18-36.08,5.06c-22.44,2.86-44,7.7-66.22,11.88
		c-8.58,1.76-17.38,4.4-26.4,6.38c-6.38,1.32-11.88,3.96-17.6,8.14c-3.96,2.64-5.28,8.36-3.74,13.64c1.76,4.84,3.96,9.02,8.14,12.32
		c4.84,4.62,9.9,8.58,15.84,11.44c1.76,0.88,3.52,2.2,5.06,3.74c0.88,0.66,1.1,2.86,0.88,3.08c-2.64,3.08-5.72,5.5-8.14,8.58
		c-3.08,3.96-3.3,9.9-1.1,14.3c3.52,7.48,8.36,13.42,15.18,17.16c5.06,3.08,10.56,5.72,16.06,8.36c4.18,2.2,8.58,3.96,12.98,6.16
		c1.98,0.66,2.42,3.52,0.44,5.5c-0.88,1.32-2.42,2.42-3.52,3.3c-4.62,4.62-5.06,9.9-3.3,15.62c1.32,5.06,3.52,9.68,6.82,13.2
		c4.62,4.62,9.02,8.36,14.74,11.22c3.96,1.98,8.36,4.4,12.54,7.04c1.32,0.66,1.54,3.3,0.22,4.18l-3.96,5.72
		c-3.74,4.4-8.14,9.02-11.44,13.86c-3.08,3.52-2.2,7.26,1.54,10.34c0.22,0.22,1.1,0.44,1.54,0.88c3.08,2.42,6.38,2.2,8.36-0.44
		l16.72-16.06c11-11.44,13.64-11.44,28.38-9.46c10.78,1.32,21.12,1.98,31.9,2.64c4.18,0.22,8.58-1.1,12.76-1.76
		c3.96-0.88,5.06-5.72,3.52-9.68c-2.42-7.04-7.48-11.44-13.86-13.42c-6.6-1.98-13.42-3.3-20.24-2.64
		c-11.44,1.32-23.54,2.42-34.32,7.04c-3.74,1.1-7.7,1.76-11.22,0.22c-3.3-1.32-6.82-2.64-10.34-4.18
		c-6.6-2.42-12.76-5.94-18.04-10.78c-1.98-1.98-2.86-7.04-0.44-9.68c1.54-1.98,3.52-4.18,5.5-5.5c8.36-4.84,16.5-7.04,26.18-4.84
		c25.74,6.16,52.58,5.72,79.2,4.62c5.72-0.44,11.66-1.32,17.16-3.3c3.74-1.54,5.5-5.72,3.96-9.9
		C1400.78,558.15,1396.38,553.31,1389.78,551.33z M1284.4,505.79c2.86-1.1,5.94-2.42,9.24-3.08c12.54-1.32,24.86-3.96,37.4-4.18
		c18.92-0.88,37.4-0.44,56.1-0.44c13.42,0.22,25.96,3.74,38.72,8.8c1.32,0.22,1.76,2.42,2.2,3.96c0.22,0.66-0.88,1.76-2.2,1.98
		c-1.32,0.88-2.64,1.76-4.62,2.2c-3.3,0.44-6.82,1.54-10.78,1.54c-14.3,0.66-28.6,1.1-40.04,1.76c-20.9-1.54-38.94-1.1-56.76-4.62
		c-4.62-0.88-9.24-0.22-14.08-1.1c-5.72-0.88-10.56-2.42-15.62-3.74c-0.66,0-1.1-0.66-1.1-1.1
		C1283.08,507.11,1283.74,506.01,1284.4,505.79z M1373.94,564.09c-8.58,2.2-17.38,3.52-29.92,2.86c1.54,0.44-0.44,0-2.64,0
		c-0.66-0.22-1.1-0.22-1.54-0.44c0.44-0.66,0.88-1.32,1.98-1.54c5.72-0.88,12.32-1.98,18.26-2.64c4.18-0.66,8.36-0.66,12.54-0.66
		c1.1,0,1.76,0.88,2.64,1.54C1375.04,563.43,1374.38,564.09,1373.94,564.09z"/>
	<path class="st0" d="M1578.98,508.87c0.22,1.1,0.22,2.42,0.44,3.52c0.22,1.76,0.66,3.52,1.54,4.84c1.32,0.88,2.2,1.76,3.74,2.42
		c0.88,0.44,1.76,0.88,2.86,0.88c1.76-0.22,3.3-0.88,4.4-2.64c0.66-1.1,0.44-1.32-0.22-2.2c-1.1-1.1-1.76-1.98-2.42-2.86
		c-0.66-0.88-1.1-1.32-1.54-1.76c-0.88-1.1-2.2-1.98-3.08-2.86c-1.76-2.86-3.52-5.28-5.06-8.14c-0.88-2.42-1.76-4.84-1.54-7.7
		c0-0.66,0-1.1,0-1.76c0-0.22-0.22-0.22-0.22-0.44c-0.88-0.88-1.76-1.32-2.42-1.98c-0.44-0.66-0.44-0.66-0.66,0
		c-0.66,1.98-0.44,3.74-0.22,5.5c0.22,1.98,1.1,3.3,2.2,4.4c0.44,0.22,0.66,0.44,1.1,0.66c0.66,0.88,0.88,1.54,0.66,2.64
		c0,0.22-0.22,0.44-0.22,0.66c0.22,1.32,0.44,2.86,0.44,4.4C1578.76,507.11,1578.98,507.77,1578.98,508.87z"/>
	<path class="st0" d="M1703.06,592.25c-0.88-2.2-2.86-2.64-5.06-2.86c-2.86-0.44-6.16,0-9.02,0.88c-1.98,0.44-3.74,1.1-5.5,2.2
		c-0.22,0.22-0.44,0.44-0.44,0.66c0.22,0.22,0.44,0.44,1.1,0.44c2.64,0,5.06,0,7.7,0.44c0.44,0,0.66-0.44,1.1,0
		c1.54,0.44,3.08,0,4.62-0.44c1.1,0,2.42,0,3.52,0.66c0,0,0,0,0.22,0.22c-0.22,0-0.22,0.22-0.22,0.22c-0.66,0-1.32,0.22-1.98,0
		c-0.88-0.66-1.76-0.44-2.86,0c-0.88,0.44-1.76,0.44-2.42,0.44s-1.54-0.22-2.2-0.22c-2.42,0-4.62-0.22-7.04-0.22
		c-0.44,0-1.32-0.22-1.98-0.22c-0.22,0-0.44-0.22-0.66-0.44c0,0,0-0.44,0-0.66c0.44-0.44,0-0.44-0.22-0.66
		c-2.2-1.54-4.18-2.42-6.6-3.08c-2.2-0.88-4.4-1.54-6.82-1.54c-3.08-0.22-6.16,0-9.02,0.66c-1.98,0.66-3.96,1.1-5.72,2.2
		c-1.98,1.32-1.98,1.1-3.96-0.22c-1.54-0.88-3.3-2.2-5.5-2.2c-0.66,0-1.54-0.22-1.98-0.22c-1.98-0.22-3.74-0.44-5.28-0.66
		c-1.76-0.22-3.52-0.22-5.28-0.44c-1.76-0.44-3.74-0.44-5.72-0.66c-2.42-0.22-4.84-0.22-7.26-0.44c-1.76,0-3.52-0.22-5.28-0.22
		c-0.44,0-0.88-0.22-1.1-0.66c-0.44-1.32-1.1-2.42-1.98-3.52c-1.54-1.1-0.88-2.2-0.22-3.3c0.88-2.2,1.76-4.18,1.32-6.6
		c-0.22-1.54-0.22-3.08-0.22-4.4c0-1.98-0.22-3.96-0.22-5.94c0-2.2-0.22-4.18-0.22-6.38c0,0,0,0,0-0.22
		c-0.22-1.32-0.44-2.86-0.44-4.4c-0.22-1.32-0.22-2.86-0.22-4.4c0-0.88-0.22-1.54-0.22-2.64c-0.22-1.98-0.44-3.96-0.88-5.72
		c-0.22-1.76-0.22-3.52-0.44-5.28c-0.22-1.32-0.44-3.08-0.66-4.62c-0.22-2.2-0.44-4.18-0.66-6.38c-1.1-3.74-2.64-7.7-5.5-10.78
		c-0.22-0.66-0.22-0.88,0-1.32c0.44-0.88,0.66-1.98,1.32-2.86c0.88-3.08,1.32-5.72,1.32-8.8c0-2.86-0.22-5.94-1.1-8.8
		c-1.1-2.86-2.2-5.94-4.4-8.58c-0.44-0.66-0.66-1.1-0.22-1.98c1.98-3.74,2.64-7.7,2.64-12.1c0-1.54-0.44-2.64-1.76-3.74
		c-1.98-1.98-5.06-0.66-5.5,1.54c-0.22,0.88-0.22,1.98-0.44,2.86c-0.88,3.08-2.2,5.72-3.96,8.14c-0.22,0.22-0.44,0.44-1.1,0.44
		c-0.44,0-1.1,0-1.98,0c-0.66,0-1.1,0.44-1.32,1.32c-0.44,0.66-0.22,1.1,0.22,1.54c0.22,0.66,0.66,0.88,0.88,1.1
		c1.32,0.88,2.42,2.2,3.74,3.08c2.42,2.42,4.62,4.84,6.6,7.7c0,0.22,0.22,0.22,0.22,0.44c0,0,0,0.22,0,0.44
		c-0.22-0.22-0.22-0.22-0.44-0.22c-0.22-0.44-0.44-1.1-1.1-1.32c0-0.22-0.22-0.22-0.22-0.22v0.22c2.2,2.2,2.2,4.84,1.76,7.92
		c-0.66,2.86-1.98,5.28-3.74,7.7c-0.66,1.1-0.66,1.1-1.76,0.88c-0.44,0-0.88,0-1.1,0c-0.66,0.22-1.54,0.44-1.98,1.1
		c-0.22,0.66,0,1.76,0.88,2.42c0.44,0.22,0.66,0.22,0.88,0.44c1.98,1.98,3.96,3.74,5.94,5.72c1.32,1.54,2.64,3.08,3.96,4.84
		c0.44,0.44,0.44,0.66,0.44,1.32v0.22c-0.44,0-0.44,0-0.44-0.22c-0.44-0.66-0.66-1.1-1.1-1.54c0-0.22-0.22-0.22-0.22-0.22v0.22
		c0.22,0.66,0.66,1.54,0.88,1.98c1.1,4.18,1.54,8.14,1.98,12.1c0.22,2.2,0.44,4.18,0.44,6.38c0.22,1.98,0.22,3.96,0.22,5.5
		c0,4.18,0,8.14,0,12.32c0,2.86-0.22,6.16-0.22,9.02c0,0.22,0,0.22,0,0.44c-0.22,1.54-0.22,2.86-0.44,4.62c0,0.66,0,1.32-0.22,1.98
		c-0.22,1.32-0.88,1.76-2.42,1.76c-0.22,0-0.66,0-1.1,0c-0.66,0-1.32,0.44-1.54,1.1c-0.66,0.66,0,1.1,0.22,1.54
		c0.22,0.22,0.44,0.44,0.66,0.66c1.76,1.76,3.52,3.52,5.28,5.28c0,0,0,0.22,0.44,0.44c-0.44,0-0.44,0-0.66,0c-0.66,0-1.1,0-1.76,0
		c-1.32,0.22-1.98-0.44-2.86-1.54c-0.22-0.44-0.66-0.88-0.88-1.54c-0.22-0.44-0.66-0.66-1.1-0.88c-1.54-1.1-2.64-2.64-3.74-4.18
		c-0.44-0.66-1.1-1.32-1.32-2.2c-0.44-2.2-0.88-4.18-1.32-6.38c-0.88-2.86-1.32-5.72-1.98-8.58c-0.66-2.64-1.1-5.28-1.54-7.92
		c-0.44-1.76-0.66-3.74-0.88-5.28c-0.66-2.42-1.1-4.62-1.32-6.82c-0.22-1.98-0.44-3.74-0.66-5.5c-0.22-1.54-0.44-3.52-0.88-5.28
		c-0.22-1.32-0.44-2.42-0.44-3.52c0-1.32-0.44-2.64,0-3.74c0-0.66,0-1.32-0.22-1.32c-0.88-0.66-1.98-1.54-2.42-2.2
		c-0.22-0.22-0.44,0-0.66,0c0,0.66-0.22,1.54-0.22,1.98c0,1.76,0.22,3.52,0.22,5.06c0.22,1.98,0.44,4.18,0.66,6.16
		c0.66,3.08,1.54,6.16,2.2,9.02c0.66,2.64,1.76,5.28,2.64,8.36c0.44,1.54,1.1,3.52,1.1,5.5c0,3.74,0.22,7.04,0.66,10.78
		c0.22,2.2,0.44,4.4,0.66,6.6c0.22,2.2,0.44,4.4,0.88,6.82c0.22,2.2,0.22,4.62,0.88,7.04c0,0.22,0,0.44-0.44,0.44
		c-1.1,0.22-1.98,0.88-2.86,1.1c-0.66,0.22-0.66,0-0.44-0.22c0-0.66,0.44-1.1,0-1.32c-0.22-0.88-0.66-1.76-0.88-2.42
		c0-0.22,0-0.44,0-0.44c-0.22,0-0.22,0.22-0.44,0.22c-1.1,1.76-1.76,3.3-1.98,5.28c0,0.88-0.22,0.88-1.1,0.44
		c-1.76-1.1-3.74-1.54-5.94-1.76c-2.42-0.44-4.84,0-7.26,0.44c-3.74,0.88-7.26,2.64-9.9,5.06c-1.82,1.65-3.38,3.55-4.61,5.79
		l-51.71-127.45h-27.5l-62.26,154h24.86l16.72-44.44h67.76l16.94,44.44h18.1c0.4,0.44,0.82,0.88,1.25,1.32
		c2.64,2.42,5.94,3.96,9.46,4.4c0.88,0,1.54,0.22,2.2,0.88c1.76,1.76,3.74,3.08,5.94,3.96c3.3,1.54,7.26,2.2,11.22,2.42
		c3.08,0,6.6,0,9.9-0.66c2.86-0.88,5.94-1.76,8.36-3.52c1.76-1.1,3.3-2.64,4.84-4.4c1.76-2.42,2.86-4.84,3.3-7.7
		c0-0.66,0.44-1.32,0.88-1.98c0.22-0.22,0-0.22,0.22,0c0.22,0.22,0.66,0.44,0.88,0.44c3.96-0.22,7.7,0,11.44-0.22
		c3.74-0.22,7.48-0.22,11-0.22c1.54,0,3.08-0.22,4.4-0.22c2.42,0,4.62-0.22,7.04-1.32c1.76-0.66,3.52-1.54,5.28-2.64
		c0.22-0.22,0.22-0.22,0.22-0.44c0,0,0,0-0.22,0c-1.1,0.44-2.2,0-3.52,0c-2.2-0.22-4.4-0.22-6.6-0.22c-1.98,0-4.18-0.22-5.94-0.22
		c-3.74,0-7.26-0.22-10.78-0.22c-0.22,0-0.88,0-1.1,0c-1.32,0-2.86-0.22-4.18-0.22c-1.76,0-3.74,0.22-5.5,0.44
		c-1.76,0.22-3.74,0.22-5.28,0.44c-1.54,0.22-3.3,0.44-4.62,0.66c-1.98,0.22-3.96,0.44-5.94,0.44c-2.64,0-5.28,0.44-7.7,0.44
		c-1.98,0-3.96-0.66-5.94-1.1c-1.32-0.66-2.64-1.1-4.18-0.44c-0.22,0-0.44,0-0.66,0c-0.22,0.22-0.44,0.22-0.88-0.22
		c0-0.22,0.44-0.44,0.44-0.66c0.66-0.66,1.1-0.88,1.54-1.32c0.66-0.22,0.88-0.44,0.88-0.88c0-0.66,0.22-0.88,0.66-0.88
		c0.66-0.22,1.54-0.44,1.98-0.88c0.66-0.44,1.32-1.54,2.2-1.98c0.22-0.22,0.44-0.44,0.66-0.44c0.44,0.66,0.44,0,0.44-0.22
		c0-0.88,0.22-1.54,0.66-2.2c0-0.22,0.22-0.66,0.22-1.1c0-1.76-0.66-3.3-1.76-4.62c-0.66-0.44-1.32-0.66-2.2-0.22
		c-0.88,0.66-2.2,1.54-3.52,2.2c-0.88,0.44-1.76,0.66-2.42,1.76c-0.22,0.44-0.66,0.66-0.88,0.88c-1.54,1.54-3.52,2.64-4.4,4.62
		c-0.66,0.88-0.88,1.54-0.22,2.2c0.22,0.44,0,0.44-0.22,0.44c-1.54,0.44-3.08,0.88-4.18,1.1c-2.42,0.44-3.96,2.2-3.96,4.4
		c0,0.88,0.22,1.32,1.32,1.76c1.32,0.22,2.86,0.44,4.4,0.66c1.1,0.22,2.42-0.22,3.52-1.1c1.32-0.44,1.54-0.66,3.3-0.44
		c0.88,0,1.54-0.44,2.42-1.1c0.22-0.22,0.66-0.22,1.1,0c1.54,0.88,3.08,1.54,4.62,1.98c2.42,0.66,5.06,0.88,7.48,1.1
		c2.64,0.22,5.5,0,8.14,0.22c1.1,0,1.32,0.22,1.1,1.32c-0.66,1.76-1.1,3.08-1.98,4.62c-0.44,0.66-1.32,1.32-1.98,2.2
		c0,0.22-0.22,0-0.44,0c0,0,0-0.22,0.22-0.22c0.22-0.66,0.44-0.88,0.44-1.1c0.22-0.22,0.22-0.22,0.22-0.22c-0.22,0-0.22,0-0.22,0
		c-0.22,0.22-0.44,0.44-0.66,0.66c-1.76,1.76-3.74,2.64-5.94,2.86c-3.52,0.22-7.04,0-10.12-1.54c-1.76-0.66-3.74-1.76-5.06-2.86
		c-0.66-0.88-0.66-0.88-0.22-1.76c0.22-0.44,0.22-0.66,0.66-1.32c0.22-0.88-0.66-2.2-1.54-2.42c-0.44,0-0.88,0-1.54,0.22
		c-2.64,1.32-5.28,1.76-8.14,1.32c-1.76-0.22-3.08-0.66-4.4-1.32c-0.64-0.35-1.25-0.75-1.83-1.19l-4.39-10.82
		c0.03-0.69,0.12-1.39,0.28-2.07c1.1-4.18,3.52-7.04,6.82-9.02c1.98-0.88,4.18-1.32,6.6-1.1c1.54,0,2.86,0.44,4.4,1.1
		c0.44,0.22,0.66,0.66,0.66,1.32c0,0.44,0,0.88,0,1.1c0.22,1.98,1.76,2.64,3.3,1.76c0.22-0.22,0.66-0.44,0.88-0.66
		c1.76-1.32,3.3-3.08,4.84-4.18c2.2-1.54,4.4-3.3,6.82-4.18c0.22-0.22,0.88-0.44,1.1-0.44c0.22-0.22,0.66,0,0.88,0
		c0,0.44-0.44,0.22-0.66,0.22c-0.44,0.22-0.66,0.44-1.32,0.66c0,0.22,0,0.22,0,0.22h0.22c1.54-0.88,3.08-0.66,4.4-0.66
		c3.96,0,7.92,0,11.88,0.22c0.44,0,0.66,0.22,0.66,0.66c0,1.1,0.22,1.98,0.22,3.08c-0.22,2.64-1.54,5.06-2.2,7.7
		c-0.44,1.1-1.32,1.98-1.76,3.3c-0.22,0.22-0.66,0.44-1.1,0.22c-0.66-0.22-1.1-0.22-1.54-0.66c-0.66-0.22-1.54,0-1.98,0.88
		c-0.44,0.44-0.22,0.88,0,1.32c0.22,0.66,0.44,1.1,1.1,1.54l-0.22,0.44c-0.66,0.22-1.76,0-2.2-0.44c-0.66-0.66-0.88-1.1-1.32-1.76
		c-0.88-1.1-1.98-2.64-2.86-3.52c-1.76-1.98-2.64-4.18-3.74-6.38c-0.44-1.1-0.66-2.2-0.88-3.08c-0.22-1.54-0.22-1.54-1.32-0.88
		c-0.66,0.44-0.66,0.44-0.22,1.32c0.66,0.88,0.88,2.2,1.54,3.3c0.22,1.1,0.44,1.76,0.22,2.64c0,1.1,0.22,1.76,0.22,2.86
		s0.44,2.2,0,3.3c0,0.22,0,1.1,0,1.32c0.22,0.66,0.22,0.88-0.44,0.66c-0.22-0.22-0.66,0-0.88,0c-0.66,0.88-1.32,1.76-2.64,2.2
		c-0.22,0.22,0,0.44,0.22,0.44c1.54,0.88,3.08,1.1,4.4,1.32c2.64,0,5.72,0.22,8.58,0.22c1.32,0,2.42-0.22,3.74-0.22
		c1.54-0.22,3.3-0.44,4.84-0.88c2.2-0.22,4.18-0.44,5.94-0.66c1.32-0.22,2.86-0.44,3.96-0.44c1.98-0.22,3.96-0.22,5.72-0.22
		c1.54,0,3.08,0.44,4.84,0.66c1.76,0,3.3,0,5.06,0.22c2.2,0,4.4,0.22,6.38,0.22c3.74,0,7.26,0,11,0.22c0.22,0,0.44,0,0.88,0
		c1.76,0.66,3.3-0.22,4.62-1.1c1.32-1.1,2.2-1.98,3.08-3.3c1.32-2.42,0.88-4.18-0.66-6.38c-0.66-1.32-1.32-1.32-2.64-0.66
		c-0.88,0.88-2.2,1.32-3.3,1.98c-0.88,0.44-1.54,1.1-2.2,1.54c-2.42,2.2-5.5,4.18-9.02,3.96c-1.32,0-2.2,0.22-3.52,0.22
		c-1.32,0.22-2.86,0.44-4.4,0.44c-2.2,0-4.4,0.22-6.6,0.22c-0.22,0-0.22,0-0.22,0c-2.2,0.22-4.4,0.22-6.6,0.44
		c-1.54,0-3.3,0.22-4.84,0.22c-0.22,0-0.44-0.22-0.44-0.22c0-0.22,0-0.44,0-0.66c0.22-1.76,0.44-3.3,0.66-4.84
		c0-2.2,0.22-4.62,0.22-7.04c0-1.54-0.22-3.08-0.44-4.4c0-0.22,0-0.66,0.44-0.66c1.54,0,3.08,0.44,4.4,0.66
		c1.98,0.22,4.18,0.44,6.16,0.88c2.64,0.22,5.06,0.66,7.7,1.32c3.08,0.44,5.94,1.1,8.8,1.76c0.88,0,1.32,0.44,1.98,0.66
		c1.54,0.44,1.76,1.1,1.54,2.64c0,0.22,0,0.44,0,0.66c-0.44,1.1,0.22,1.76,0.66,2.2c0.44,0.44,1.76,0.22,2.42-0.22
		c1.32-1.1,2.42-2.2,3.96-3.3c2.42-1.98,5.06-3.96,8.36-5.5c0.22-0.22,0.66-0.66,1.32-0.44c-0.44,0.22-0.66,0.66-1.1,0.88
		l-0.22,0.44c0.22,0,0.22,0,0.44,0c1.76-1.32,3.52-1.32,5.28-0.88c3.74,1.1,6.82,2.86,9.24,5.72c0.66,0.22,0.66,0.66,0.66,1.1
		c0,0.88-0.44,1.32-0.44,1.98c0,1.54,1.76,1.98,2.86,1.54c0.44-0.44,0.88-0.88,1.32-1.32c2.2-2.2,4.84-3.96,7.7-5.72
		c1.32-0.88,2.86-1.76,3.96-2.42c0.44,0,0.66,0,0.88,0c0,0.22-0.22,0.22-0.22,0.44c-0.22,0.22-0.66,0.22-0.88,0.44
		c-0.22,0-0.22,0.22-0.22,0.22h0.22c1.32-0.44,2.42-1.1,3.96-0.88c1.1,0,1.76,0.44,2.64,0.44c1.54,0.44,3.08,0,3.96-1.32
		C1703.5,594.67,1703.5,593.35,1703.06,592.25z M1459.52,561.01l21.34-56.54c1.98-4.62,3.74-9.24,5.28-13.86
		c1.54,4.62,3.08,9.02,4.84,13.86l21.56,56.54H1459.52z M1577.44,612.93c-0.44,0-0.66,0-0.88,0c-0.88-0.22,0.22-0.22,0-0.44
		c-0.44-0.22-0.88-0.22-1.76-0.22c0.66-0.22,1.1-0.66,1.54-0.88c0.22,0,0.44,0,0.66,0s0.44,0,1.1,0c-0.22,0.66-0.66,0.88-1.1,0.88
		c-0.22,0-0.22,0.22-0.44,0.22c0.88,0,1.98-0.22,2.64-1.1c0.22-0.22,0.44-0.22,0.88-0.22c0.44,0,0.66,0.22,0.44,0.44
		c-0.22,0.66-0.88,1.1-1.32,1.1C1578.76,612.71,1578.1,612.93,1577.44,612.93z M1572.82,629.21c0.66-0.22,1.1-0.66,1.76-0.88
		c0-0.22,0.22,0,0.44,0c2.42,2.42,5.72,3.3,8.8,4.18c2.2,0.44,4.4,0.44,6.6,0.44c1.98,0,3.96-0.44,5.5-1.98
		c0.66-0.44,1.54-0.88,2.64-1.32c2.2-0.66,3.74-1.76,5.5-3.3c2.2-1.54,3.52-3.52,4.62-5.72c0.22-0.22,0.22-0.44,0.66-0.44
		c0.22,0,0.44,0,0.66,0c-0.22,0.22,0,0.44-0.22,0.44c-0.88,1.54-1.54,3.08-2.42,3.96c-2.42,2.64-5.28,4.84-8.58,6.16
		c-2.64,0.88-5.28,2.2-8.14,3.08c-0.88,0.22-2.2,0.44-2.64,0.44c-4.62-0.22-8.8-0.66-12.32-2.64c-1.1-0.44-1.76-0.88-2.86-1.54
		C1572.38,629.65,1572.6,629.43,1572.82,629.21z M1560.78,625.03c0.27,0.3,0.54,0.61,0.82,0.88c1.54,1.1,3.08,2.2,4.4,3.08
		c0.66,0.22,0.88,0.66,1.32,1.1c0,0.22,0,0.44-0.22,0.44c-0.44,0-1.1,0-1.54-0.22c-1.98-1.76-4.18-3.08-5.72-5.06
		c-0.07-0.07-0.13-0.15-0.2-0.22H1560.78z M1576.78,592.91c-0.44,0.44-0.66,1.32-0.88,1.54c-0.44,0.22-1.32-0.22-1.76-0.44
		c-3.52-1.54-6.82-1.32-10.34,0.22c-3.08,1.1-5.28,3.3-7.26,6.16c-0.88,1.32-1.32,3.08-1.76,4.4c-0.02,0.2-0.03,0.39-0.05,0.59
		l-0.34-0.83c0.84-3.06,2.23-5.91,4.13-8.34c0.66-1.32,1.98-1.98,3.08-2.86c1.76-1.1,3.74-1.98,5.94-2.2
		c2.86-0.44,6.16-0.22,8.8,1.1C1576.78,592.25,1577.22,592.47,1576.78,592.91z M1608.02,581.03c0-0.22,0.22-0.44,0.22-0.66
		c0.22,0.22,0.66,0.44,0.66,0.66c-0.22,1.32,0,2.64,0.44,3.96c0,0.22,0,0.66-0.66,0.66c-0.22,0-0.44,0-0.44-0.44
		c0-1.1-0.22-1.98-0.22-3.08C1608.02,581.69,1607.8,581.25,1608.02,581.03z M1595.92,474.55c-0.44,0.44-0.66,1.1-0.88,1.54
		c-0.22,0.66-0.44,1.1-0.88,0.66c-0.44-0.44-1.1-0.66-1.76-0.66c0.44-0.44,0.66-0.88,1.1-1.32c1.1-1.98,1.98-4.18,2.42-6.6
		c0-1.1,0.44-1.98,0-3.3l0.22-0.22c0,0,0.22,0,0.22,0.22c0.66,0.88,1.1,1.54,1.1,2.42C1597.24,469.93,1596.8,472.13,1595.92,474.55z
		 M1599.22,505.13c-0.22,0.44-0.66,1.32-0.88,1.98c-0.22,0.44-0.22,0.44-0.88,0.22c-0.44-0.22-0.88-0.44-1.54-0.66
		c0.44-0.44,0.66-1.1,0.88-1.54c0.88-1.76,1.98-3.52,2.2-5.5c0.22-1.32,0.22-2.42,0.44-3.74c0-0.66-0.22-1.54-0.66-2.2
		c-0.66-0.88-0.66-2.42-1.1-3.52c-0.22-1.54-0.22-3.08-0.44-4.4c0-1.32-0.22-2.2-0.22-3.52c0-0.44-0.22-1.1-0.22-1.76
		c0-0.44,0.22-0.66,0.22-0.88c0-0.22,0.22-0.22,0.22,0c0.22,0.22,0.88,0.22,0.44,0.88c0,1.1,0.44,2.2,0.44,3.52
		c0.22,0.88,0.44,1.98,0.44,2.86c0.22,1.32,0.22,2.42,0.22,3.74c0.22,1.98,0.66,3.74,1.54,5.5c0.22,0.88,0.44,1.54,0.44,1.98
		C1600.76,500.73,1599.88,502.93,1599.22,505.13z M1601.86,526.91c-0.22-1.76-0.44-3.52-0.66-5.5c-0.22-0.88-0.22-2.2-0.22-3.08
		c-0.22-1.1-0.22-2.42-0.44-3.74c0-1.1-0.22-2.42-0.22-3.52c0-0.22,0-0.44,0-0.88c0.22,0,0.22-0.22,0.44-0.22l0.22,0.22
		c0.22,0.44,0.22,0.66,0.22,0.88c0,1.1,0.22,2.42,0.22,3.52c0.22,1.98,0.44,3.74,0.66,5.72c0.22,0.88,0.22,2.2,0.22,3.08
		c0.44,1.76,0.66,3.52,0.88,5.28c0.22,1.32,0.22,2.64,0.44,3.96c0.22,1.76,0.44,3.74,0.66,5.5c0.66,1.98,1.1,4.18,1.32,6.16
		c0.22,1.54,0.66,3.52,0.88,5.28c0.22,0.88,0.22,1.98,0.22,2.64c0.44,2.42,0.44,4.62,0.44,7.04c0.22,3.08,0.22,5.94,0.22,8.58
		c0,1.54,0,2.86,0,4.4c0,1.98-0.66,3.74-1.32,5.06c-0.22,0.44-0.44,0.44-0.88,0.22c-0.66-0.22-1.32-0.22-1.54-0.66
		c0-0.22,0.44-0.88,0.66-1.54c0.66-1.32,1.1-2.86,1.1-4.4c0-5.06,0-10.12,0-15.18c0-1.98-0.22-3.96-0.22-5.94
		c0-1.32-0.22-2.42-0.22-3.74c-0.44-2.2-0.44-4.4-0.66-6.6c-0.44-2.64-1.1-5.06-1.54-7.48
		C1602.3,530.21,1602.08,528.67,1601.86,526.91z M1611.32,601.71c-0.22,1.98-0.22,4.18-0.66,6.16c-0.22,0.88-0.66,2.2-0.88,3.08
		c-0.22,0.44-0.88,0.66-1.32,0.22c-0.22,0-0.22,0-0.22-0.22c-0.44-0.22-0.88-0.44-1.1-0.88c0-0.22,0.44-0.88,0.66-1.32
		c1.1-2.2,1.76-4.62,1.98-7.04c0-0.88,0.22-1.98,0.44-3.08c0-0.66,0.22-1.1,0.22-1.76c0-1.1,0-1.76-0.66-2.42
		c-0.22,0-0.22-0.22-0.22-0.44c0-0.44-0.22-0.66-0.22-0.88c0,0,0.22,0,0.44,0c0,0,0.44,0.22,0.44,0.44
		c0.22,0.66,0.22,1.32,0.44,1.76c0,0.22,0,0.22,0.22,0.44C1611.98,597.75,1611.98,599.51,1611.32,601.71z M1648.28,595.33
		c0,0.22,0,0.22,0,0.44c-0.22,0.44-0.44,0.88-0.88,1.32c-0.44-0.44-0.66-0.66-1.1-0.88c-1.76-1.1-3.52-1.76-5.72-1.98
		c-1.54-0.22-3.3-0.88-5.28-1.1c-1.54-0.22-2.86-0.22-4.4-0.44c-1.76-0.22-3.08-0.44-4.84-0.66c-0.66,0-1.54-0.22-2.42-0.22
		c-1.32,0-2.42-0.44-3.74-0.44c-1.32-0.22-2.86-0.22-4.4-0.44c0,0,0,0-0.22,0c-2.86,0-5.94-0.22-9.24-0.22
		c-2.64,0-5.5,0.44-8.36,0.66c0-0.22-0.22-0.22-0.22-0.22c-0.88,0-2.2,0-3.3,0c-1.98,0-3.96-0.22-5.94-0.22
		c-1.32,0-2.64-0.22-4.18-0.22c-0.88,0-1.76-0.22-2.86-0.22c-0.22,0-0.44-0.22-0.66-0.44c0.22-0.22,0.44-0.44,0.66-0.44
		s0.22,0,0.44,0c1.1,0,2.2,0.22,3.52,0.22c2.2,0,4.62,0,6.82,0.22c2.42,0.22,4.62,0,7.04,0.22c1.98,0,3.96,0.22,5.5,0.22
		c3.74,0,7.48-0.22,10.78-0.22c1.98,0,3.74-0.22,5.72-0.22c1.32,0,3.08,0.22,4.62,0.44c0.88,0,2.2,0,3.08,0.22
		c1.98,0.22,4.18,0.44,6.16,0.66c1.76,0,3.08,0.44,4.62,0.66c2.2,0.22,4.4,0.44,6.6,1.32c0.66,0.22,1.1,0.88,1.98,1.1
		C1648.5,594.67,1648.5,595.11,1648.28,595.33z M1679.3,596.65c-0.44,0.44-0.88,0.88-1.1,1.32c-0.44-0.44-0.88-0.66-1.54-0.88
		c-2.2-1.98-4.62-3.08-7.26-3.74c-0.66-0.22-1.32-0.44-2.42-0.44c-0.22,0-0.88,0.22-1.54,0.44c-1.1,0.66-2.42,0.88-3.52,0.22
		c0,0-0.22,0-0.44,0c-2.2,0-4.62-0.22-6.82-0.22c-1.1,0-1.76-0.22-2.42-0.22c-0.44,0-0.66-0.22-0.88-0.44
		c0.22-0.22,0.44-0.44,0.88-0.44c3.08,0.44,5.94,0.44,9.02,0.44c0.88,0,1.76,0.22,2.64,0.22c1.32-0.22,2.86-0.22,4.18-0.66
		c1.54-0.44,2.86-0.22,4.4,0.22c2.42,0.66,4.62,1.98,6.82,3.3C1679.52,596.21,1679.52,596.21,1679.3,596.65z"/>
	<path class="st0" d="M1567.1,468.39c0.22,0,0.44,0,0.22,0.22c-0.22,0.22-0.22,0.44,0,0.66c0.66,2.2,1.76,4.62,2.64,6.82
		c1.32,2.86,2.64,5.28,4.62,7.48c0,0,0.22,0.22,0.44,0.22c0-0.22,0-0.44,0-0.44c-0.22-1.54-0.44-3.08-0.44-4.4
		c-0.22-2.2-0.44-4.4-0.66-6.38s-0.44-3.74-1.98-4.84c-0.22-0.44-0.44-0.88-0.44-1.1s0-0.44,0.44-0.44c0.22,0,0.44,0,0.66,0.22
		c0.88,0.66,1.54,1.32,1.98,2.2c0.44,0.44,1.1,0.88,0.44,1.98c0,0.22,0,0.66,0,1.1c0,0.88,0.44,1.76,0.44,2.64
		c0.22,1.1,0.22,1.98,0.22,3.3c0.22,1.76,0.44,3.52,0.66,5.28c0,1.32,0.44,2.42,1.54,3.52c1.32,1.76,3.08,2.42,5.28,3.08
		c1.76,0.88,4.84-0.66,5.5-2.42c0.44-0.44,0.44-0.88-0.22-1.32c-0.88-1.32-1.54-2.42-2.64-3.74c-0.44-0.44-0.66-0.88-1.32-1.54
		c-0.66-0.44-1.32-0.88-1.76-1.54c-2.2-2.86-4.18-5.5-5.72-8.58c-0.66-1.32-1.1-2.42-1.98-3.74c-0.66-1.76-2.2-3.08-5.06-2.64
		c-1.98,0.22-2.86,1.54-3.3,3.3C1566.66,467.95,1566.66,468.39,1567.1,468.39z"/>
	<path class="st0" d="M1580.52,544.95c0-0.22,0-0.44,0-0.44c-1.1-4.62-2.2-9.02-3.52-13.42c-0.44-2.2-0.88-4.62-1.1-6.82
		c-0.22-2.42-0.22-5.28,0.44-7.7c0.22-0.44,0.22-0.88,0-1.1c-0.22-0.88-0.44-1.54-0.66-1.98c0-0.22-0.22-0.44-0.22-0.66
		c-0.44,0.22-0.66,0.44-0.66,0.44c-0.88,2.2-1.98,4.18-1.98,6.38c0,0.22,0,0.44,0,0.66c0,1.76-0.22,3.3-0.22,5.06
		c0.22,1.32,0.66,2.42,0.66,3.74c0.22,0.88,0.22,1.98,0.22,3.08c0.22,1.54,0.44,3.3,0.66,4.62c0.22,2.2,0.44,4.18,0.66,6.16
		c0,0.66,0.22,1.32,0.22,1.76c0,0.44,0.44,0.66,0.88,0.66c0,0.22-0.44,0.44-0.44,0.66c0,0.66,0.22,0.88,0.22,1.1
		c0.22,1.76,0.44,3.52,0.66,5.28c0.44,2.2,0.88,4.4,1.1,6.6c0.66,2.2,0.88,4.18,1.1,6.16c0.44,2.42,0.88,4.84,1.54,7.04
		c0.44,2.64,0.88,5.5,2.64,7.7c0.44,0.88,0.66,1.54,1.1,2.2c0.66,0.88,1.1,1.32,1.76,1.98c0,0.22,0.22,0.22,0.44,0.22
		c0-0.22,0-0.22,0-0.44c0-0.44-0.22-1.1-0.22-1.98c-0.22-0.66-0.22-1.54-0.22-2.64c-0.22-1.98-0.44-3.74-0.66-5.5
		c-0.22-1.76-0.22-3.74-0.44-5.72c-0.44-2.42-0.88-4.84-1.1-7.48c-0.22-1.98-0.44-4.18-0.66-6.38c-0.44-2.64-1.32-5.72-1.76-8.36
		c0-0.22-0.22-0.44-0.44-0.66c-0.22,0-0.44,0-0.44,0C1580.08,544.95,1580.3,544.95,1580.52,544.95z"/>
	<path class="st0" d="M1578.54,514.37c0-0.22,0-0.22,0-0.44c-0.22-0.88-0.44-1.98-0.44-2.86c-0.22-1.1-0.22-2.2-0.22-3.3
		c-0.44-1.54-0.88-3.52-0.88-5.5c0-0.88-0.44-1.98-0.66-2.64c-0.22-0.88-0.44-1.1-1.32-1.1c-0.44,0-0.44-0.22,0-0.22
		c0,0,0-0.22,0-0.44c-0.22-0.22-0.44-0.44-0.66-0.66c-0.66-1.54-1.76-2.86-1.98-4.18c-0.22-2.42-0.22-4.62,0.88-7.04
		c0-0.22,0-0.66,0-0.88c0,0,0-0.22-0.44-0.44c-0.22-0.66-0.22-1.1-0.44-1.76c-0.22-0.44-0.22-0.66-0.22-0.88
		c-0.22,0.22-0.44,0.44-0.66,0.66c-1.76,2.64-1.98,5.72-2.2,8.58c0,2.2,0.22,4.4,0.66,6.6c0,0.44,0.22,0.88,0.66,0.88
		c0,0,0,0,0,0.44c-0.88,0.22-0.22,0.66,0,1.1c0.88,2.2,1.54,4.4,2.86,6.6c1.1,2.42,2.64,5.06,4.62,7.26
		C1578.32,514.15,1578.32,514.37,1578.54,514.37z"/>
	<path class="st0" d="M1683.26,616.23c-0.22,0-0.44,0-0.66,0c-2.86,0-5.94-0.22-8.8-0.22c-1.1,0-2.42,0-3.52,0
		c-0.88,0-1.32,0.22-1.98,0.22c-0.66,0.44-1.1,0.66-1.1,1.32c0,0,0,0-0.22,0c-0.44,0-0.88,0.22-1.1,0.22
		c-1.54,0.66-3.08,1.54-4.62,1.54c-2.64,0-4.84-0.88-6.82-1.76c-0.44,0-0.66-0.22-0.88-0.22c-0.88,0.22-1.98,0.44-2.86,0.66
		c-0.22,0-0.22,0-0.22,0.22c0.88,0.88,1.98,1.54,3.08,2.2c1.32,0.88,2.64,1.1,4.18,1.32c2.2,0.66,4.4,0.88,6.6,0.88
		c0.88,0,1.76-0.22,2.42-0.66h0.22c0,0.22,0.22,0.22,0.22,0.22c0.88,0,1.32,0,1.76-0.22c1.76-0.44,3.52-0.66,5.06-1.32
		c3.3-0.88,5.94-1.76,8.58-3.52C1682.82,616.89,1683.04,616.67,1683.26,616.23z"/>
	<path class="st0" d="M1700.42,615.35c-0.66-0.44-1.76-0.44-2.64-0.44c-1.1,0-1.76,0.22-2.42,0.22c-1.54,0-3.3,0-4.62-0.44
		c-0.44,0-0.66,0-0.88,0c-0.88,0.66-1.54,1.32-2.64,2.2c0,0.22,0,0.44,0.22,0.44c0.22,0.22,0.44,0.22,1.1,0.44
		c1.54,0.44,3.3,0.66,5.28,0.66c0.88,0,1.98-0.44,2.64-0.88c0.88-0.44,1.32-0.66,1.76-0.88c0.22-0.44,0.44,0,0.66-0.44
		c0,0.66,0,0.88-0.22,1.1c0,0.22-0.22,0.44-0.44,0.44c-2.42,1.76-4.84,3.52-8.14,2.42c-1.32-0.44-3.08-0.44-4.4-1.1
		c-1.32-0.88-2.86,0-3.96,0.22c-0.66,0-0.22,0.22-0.22,0.44c0.22,0,0.22,0.22,0.44,0.22c2.2,1.76,4.62,2.64,7.04,3.3
		c1.76,0.22,3.08,0.44,4.84,0.66c0.44,0,0.88,0,1.76,0c0.22,0,0.66-0.22,1.1-0.22c0.22,0,0.66,0,0.88-0.44
		c0.22-0.66,0.22,0.66,0.66,0.44h0.22c2.2-0.88,4.18-2.64,3.96-4.84C1702.4,617.33,1701.96,616.01,1700.42,615.35z"/>
	<path class="st0" d="M1656.86,615.57c0,0-0.44,0.22-0.66,0.22c0.22,0.22,0.66,0.22,0.88,0.44c1.98,0.88,3.74,1.1,5.72,1.1
		c1.32,0,2.2-0.44,3.08-1.1c0.66-0.44,1.32-0.88,2.2-1.32c0.66-0.66,1.32-0.66,2.2-0.44c0.44,0.22,0.88,0.44,1.32,0.44
		c2.86,0,6.16,0,9.02,0.22c1.1,0,1.98,0,2.86,0c1.1,0,1.98-0.22,3.08-0.88c1.76-1.32,2.64-2.86,3.52-4.4c1.1-1.98,0.66-4.4-1.1-5.94
		c-0.66-0.88-1.32-0.88-2.2-0.22c-1.1,0.44-1.98,0.88-2.86,1.54c-1.32,0.66-2.42,1.32-3.52,2.42c0,0.22-0.44,0.44-0.66,0.44
		c-2.42,1.98-5.5,3.08-8.36,4.4c-1.98,0.44-3.96,1.1-5.94,1.32c-1.54,0.44-3.3,0.44-5.06-0.44c-0.44,0-0.88-0.22-1.1,0.22
		c-0.66,0.88-1.1,0.66-1.54,0c-0.22-0.22-0.22-0.22-0.44-0.22c-0.44-0.22-0.88-0.44-1.1,0c-0.66,0.44-0.66,0.44,0,1.1
		c0.22,0.22,0.22,0.44,0.66,0.44C1657.52,615.13,1657.3,615.35,1656.86,615.57z"/>
</g>
</svg>
