<?xml version="1.0" encoding="utf-8"?>
<!-- Generator: Adobe Illustrator 26.4.1, SVG Export Plug-In . SVG Version: 6.00 Build 0)  -->
<svg version="1.1" id="Ebene_1" xmlns="http://www.w3.org/2000/svg" xmlns:xlink="http://www.w3.org/1999/xlink" x="0px" y="0px"
	 viewBox="0 0 1920 1080" style="enable-background:new 0 0 1920 1080;" xml:space="preserve">
<style type="text/css">
	.st0{fill:#0000FF;}
</style>
<g>
	<path class="st0" d="M446.42,438.47c0.88-5.94,4.18-9.46,10.34-10.34c-6.16-0.44-9.68-4.18-10.56-10.12
		c-0.66,5.94-3.96,9.46-10.12,10.12C442.24,428.79,445.76,432.53,446.42,438.47z"/>
	<path class="st0" d="M339.72,561.89c-0.66,5.94-3.96,9.46-10.12,10.12c6.16,0.66,9.68,4.4,10.34,10.34
		c0.88-5.94,4.18-9.46,10.34-10.34C344.12,571.57,340.6,567.83,339.72,561.89z"/>
	<path class="st0" d="M403.52,718.53c-0.66,5.94-3.96,9.46-10.12,10.12c6.16,0.66,9.68,4.4,10.34,10.34
		c0.88-5.94,4.18-9.46,10.34-10.34C407.92,728.21,404.4,724.47,403.52,718.53z"/>
	<path class="st0" d="M406.82,647.91c-6.16-0.44-9.68-4.18-10.56-10.12c-0.66,5.94-3.96,9.46-10.12,10.12
		c6.16,0.66,9.68,4.4,10.34,10.34C397.36,652.31,400.66,648.79,406.82,647.91z"/>
	<path class="st0" d="M357.1,743.61c-0.66,5.94-3.96,9.46-10.12,10.12c6.16,0.66,9.68,4.4,10.34,10.34
		c0.88-5.94,4.18-9.46,10.34-10.34C361.5,753.29,357.98,749.55,357.1,743.61z"/>
	<path class="st0" d="M331.8,684.65c-0.66,5.94-3.96,9.46-10.12,10.12c6.16,0.66,9.68,4.4,10.34,10.34
		c0.88-5.94,4.18-9.46,10.34-10.34C336.2,694.33,332.68,690.59,331.8,684.65z"/>
	<path class="st0" d="M327.18,616.45c0.88-5.94,4.18-9.46,10.34-10.34c-6.16-0.44-9.68-4.18-10.56-10.12
		c-0.66,5.94-3.96,9.46-10.12,10.12C323,606.77,326.52,610.51,327.18,616.45z"/>
	<path class="st0" d="M254.36,621.29c-0.66,5.94-3.96,9.46-10.12,10.12c6.16,0.66,9.68,4.4,10.34,10.34
		c0.88-5.94,4.18-9.46,10.34-10.34C258.76,630.97,255.24,627.23,254.36,621.29z"/>
	<path class="st0" d="M387.46,447.93c0.88-5.94,4.18-9.46,10.34-10.34c-6.16-0.44-9.68-4.18-10.56-10.12
		c-0.66,5.94-3.96,9.46-10.12,10.12C383.28,438.25,386.8,441.99,387.46,447.93z"/>
	<path class="st0" d="M348.96,513.71c0.88-5.94,4.18-9.46,10.34-10.34c-6.16-0.44-9.68-4.18-10.56-10.12
		c-0.66,5.94-3.96,9.46-10.12,10.12C344.78,504.03,348.3,507.77,348.96,513.71z"/>
	<path class="st0" d="M436.74,772.43c-0.66,5.94-3.96,9.46-10.12,10.12c6.16,0.66,9.68,4.4,10.34,10.34
		c0.88-5.94,4.18-9.46,10.34-10.34C441.14,782.11,437.62,778.37,436.74,772.43z"/>
	<path class="st0" d="M257.66,454.09c-0.66,5.94-3.96,9.46-10.12,10.12c6.16,0.66,9.68,4.4,10.34,10.34
		c0.88-5.94,4.18-9.46,10.34-10.34C262.06,463.77,258.54,460.03,257.66,454.09z"/>
	<path class="st0" d="M544.54,658.69c-0.66,5.94-3.96,9.46-10.12,10.12c6.16,0.66,9.68,4.4,10.34,10.34
		c0.88-5.94,4.18-9.46,10.34-10.34C548.94,668.37,545.42,664.63,544.54,658.69z"/>
	<path class="st0" d="M438.06,590.71c-0.66,5.94-3.96,9.46-10.12,10.12c6.16,0.66,9.68,4.4,10.34,10.34
		c0.88-5.94,4.18-9.46,10.34-10.34C442.46,600.39,438.94,596.65,438.06,590.71z"/>
	<path class="st0" d="M487.12,648.57c-0.66,5.94-3.96,9.46-10.12,10.12c6.16,0.66,9.68,4.4,10.34,10.34
		c0.88-5.94,4.18-9.46,10.34-10.34C491.52,658.25,488,654.51,487.12,648.57z"/>
	<path class="st0" d="M484.92,731.51c-0.88,5.94-4.18,9.46-10.34,10.12c6.16,0.66,9.68,4.4,10.56,10.34
		c0.66-5.94,3.96-9.46,10.12-10.34C489.1,741.19,485.58,737.45,484.92,731.51z"/>
	<path class="st0" d="M398.46,535.93c-0.03,0.3-0.08,0.59-0.13,0.88h-3.61v-46.2h65.16c0.18,0.7,0.32,1.43,0.4,2.2
		c0.11-0.78,0.27-1.51,0.47-2.2h13.39v-19.58H371.4v154h23.32v-68.64h58.18c-0.88,5.41-4.15,8.61-9.99,9.24
		c6.16,0.66,9.68,4.4,10.34,10.34c0.88-5.94,4.18-9.46,10.34-10.34c-5.85-0.42-9.31-3.81-10.4-9.24h17v-19.58h-71.56
		C398.56,536.52,398.5,536.23,398.46,535.93z"/>
	<path class="st0" d="M533.54,471.03l-23.1,57.14c-3.06-1.65-4.9-4.68-5.5-8.74c-0.66,5.94-3.96,9.46-10.12,10.12
		c6.16,0.66,9.68,4.4,10.34,10.34c0.47-3.15,1.62-5.62,3.52-7.37l-37.4,92.51h24.86l16.72-44.44h67.76l16.94,44.44h25.96l-62.48-154
		H533.54z M520.34,561.01l21.34-56.54c1.98-4.62,3.74-9.24,5.28-13.86c1.54,4.62,3.08,9.02,4.84,13.86l21.56,56.54H520.34z"/>
	<path class="st0" d="M696.78,467.29c-38.28,0-63.8,21.56-67.76,55.44h23.76c3.74-21.34,19.58-35.86,44-35.86
		c29.26,0,49.94,23.98,49.94,61.82c0,37.4-20.46,60.06-50.16,60.06c-24.2,0-38.72-13.64-42.24-35.2h-25.08
		c3.3,32.34,29.48,55,66.88,55c42.68,0,75.02-31.24,75.02-79.86C771.14,497.65,741.44,467.29,696.78,467.29z"/>
	<path class="st0" d="M916.56,529.11c-5.5-12.54-15.84-17.82-29.7-18.7l-5.94,1.32c-0.22,0-0.22,0.22-0.44,0.44h0.44
		c0.88,0.22,1.76,0.44,2.64,0.88c6.38,1.32,11.88,3.96,16.94,7.48c1.98,1.76,3.96,2.64,5.5,4.4c1.98,1.32,3.74,2.86,5.28,4.4
		c1.98,2.2,3.52,4.4,3.74,7.48c1.1,6.6,0.66,13.2-3.96,18.7c-1.54,1.98-2.64,4.4-3.74,6.82c-0.22,0.22-0.22,0.44,0,0.88
		c0,0,0.66,0.22,0.88,0c1.54-1.32,3.52-2.42,4.84-4.4C920.08,549.57,921.4,539.67,916.56,529.11z"/>
	<path class="st0" d="M887.08,624.37c2.42,0.22,4.4,1.1,5.28,3.74c0.88,1.54,2.86,1.54,3.74,0c0.66-1.54,1.32-3.3,1.76-4.84
		c1.1-3.3,2.2-7.04,3.52-10.56c0.44-1.32,1.32-2.64,2.42-3.74c1.76-1.98,3.96-3.3,5.94-4.84c1.98-1.1,2.64-3.3,1.98-4.84
		c-0.66-1.76-2.64-2.86-4.84-2.64c-1.54,0.22-2.86,0.88-4.18,1.76c-4.84,3.52-8.14,7.7-10.56,12.98c-0.22,0.66,0,0.88,0.22,1.32
		c0.22,0,0.44,0,0.88-0.22c3.3-2.42,6.6-5.06,9.9-7.48c0.22-0.22,0.66-0.66,1.1-0.88h0.88c0,0.22,0,0.66,0,0.88
		c0,0.44,0,0.44-0.44,0.66c-3.52,3.3-7.48,6.38-12.1,8.58c-0.44,0.44-1.1,0.44-1.32,0.44c-2.64-1.98-5.06-0.66-7.7-0.66
		c-7.48,0.22-13.86,3.52-19.8,7.92l-0.88,0.88c0,0.22,0,0.44,0,0.44l0.44,0.66c1.32,0,2.86,0,4.18-0.44l5.94-0.88
		c0.22,0,0.44,0.22,0.66,0.22c0,0.22-0.22,0.44-0.44,0.66c-2.42,1.32-5.28,1.32-7.92,1.76c-2.42,0.22-4.18,0.22-5.5-1.98
		c-0.44-0.66-1.1-1.1-1.98-1.54c-7.26-5.5-15.62-7.48-24.86-6.6c0,0-0.22,0-0.22,0.22c-0.22,0-0.22,0-0.22,0.22v0.88
		c0.88,0.22,1.32,0.88,2.2,1.1c2.86,1.32,5.72,2.64,8.8,3.74l0.88,0.66c-0.44,0.22-1.1,0.66-1.32,0.22c-1.1,0-1.76-0.22-2.64-0.44
		l-5.5-2.42c-2.64-1.1-5.06-2.42-5.06-5.72c0.22-0.66-0.22-0.88-0.44-1.32c-2.64-7.26-7.26-12.98-14.08-16.72l-1.32-0.66
		c-0.22,1.98,0.44,3.96,1.54,5.72c0.88,1.1,1.32,2.2,1.98,3.52l-0.66,0.44h-0.22c-0.44-0.44-1.1-0.88-1.32-1.32
		c-1.1-2.42-2.2-4.84-2.86-7.04c-0.66-1.1,0.22-1.76,1.32-1.76c0.22-0.22,0.22-0.66,0.44-1.32c3.74-4.18,6.16-8.8,7.48-14.52
		c0.22-1.76,1.1-1.98,2.86-1.32c6.82,3.3,14.08,4.62,21.34,3.96c3.3-0.22,6.38-0.44,9.02-1.76c0.22,0,0.44-0.22,0.88-0.44
		c-0.66-0.44-0.88-0.66-1.1-0.66c-5.06-0.66-9.9-1.54-14.3-3.08c-3.52-1.1-6.6-1.54-10.12-1.54c-1.54,0-3.3,0-4.84-0.66
		c-2.42-1.1-3.96-0.22-5.72,1.54c-1.54,2.2-2.86,4.62-4.4,6.6c-0.22,0.66-0.88,1.32-1.32,0.66c-0.22-0.22-0.22-1.1,0-1.54l5.06-6.38
		c0.66-1.32,1.54-2.86,3.08-2.86c1.98,0,3.74,0.22,5.5,0.44c1.1,0,2.2,0.44,3.3,0.44c3.3-0.88,6.6-0.44,9.68,1.1
		c0.88,0.66,1.98,0.88,2.86,1.1c4.62,0.88,8.8,1.76,13.2,2.42c4.84,0.44,9.02-2.64,10.56-6.6c1.1-2.64,0.88-4.84-1.32-6.6
		c-0.88-1.1-1.98-1.32-3.3-0.66c-2.42,1.32-5.06,2.42-7.48,3.96c-6.82,4.4-14.3,4.84-22.22,2.64c-0.44-0.22-0.66-0.66-1.32-0.88
		c0.66-0.66,0.88-1.1,1.32-1.32c4.84-3.3,9.02-7.48,12.32-12.54l0.66-1.1c0.66,0,1.1,0,1.32,0.44c1.98,2.2,4.84,4.4,3.3,8.14
		c-0.88,1.32,0.88,2.86,2.2,2.42c1.1-0.44,2.2-1.1,3.08-1.76c3.08-2.2,6.6-4.84,9.68-7.48c3.08-2.42,6.38-3.52,10.34-3.3l5.06,0.88
		c2.64,0.22,4.84,0.66,6.16,3.74c0.88,1.32,2.64,0.66,3.52-0.88c0.22-0.88,0.44-1.54,0.44-2.2c-0.44-3.3-0.22-7.26-3.08-9.9
		c-1.76-1.54-2.64-3.96-3.08-6.38c-0.44-1.1-0.66-2.2-1.1-2.86c-0.66-1.54-0.66-2.86,0.44-4.62c0.88-0.88,0.66-1.98-0.44-2.86
		c-0.88-0.66-1.98-0.44-2.86,0l-4.4,2.64c-1.98,1.54-4.18,3.3-5.94,5.06c-2.86,2.64-6.38,3.74-10.34,3.74
		c-2.86,0-6.16-0.88-9.02-1.32c-1.76-0.66-3.08-1.1-3.74-3.3c-0.22-0.88-0.66-1.76-1.98-1.76c-1.32,0.22-1.98,1.1-2.42,2.2
		c-0.22,0.44-0.22,0.88-0.44,1.76l-3.52,11.44c-1.1,4.4-3.96,7.04-7.48,9.46c-0.44,0.22-0.88,0.44-1.32,0.44
		c-0.22,0-0.66-0.22-0.88-0.44c-0.44-0.66,0-1.1,0-1.54c0-4.4-0.88-4.62-4.62-4.84c-2.86-0.44-5.94-0.88-9.02-1.1
		c-1.98-0.22-2.64-1.32-1.98-3.08c1.32-2.64,2.42-5.28,4.4-7.7c0.22,0,0.88-0.22,0.88,0c0.22,0,0.44,0.44,0.44,0.44
		c0,0.88-0.22,1.76-0.44,2.2c-0.66,0.88-1.32,1.1-1.54,1.54c-1.1,1.1-0.66,2.86,0.66,3.52c0.66,0.22,1.1,0.22,1.98,0.22h16.5
		c0,0,0.22-0.22,0.66-0.44l-0.66-0.88c-1.54-0.88-3.08-1.76-4.62-2.86c0,0,0-0.22-0.44-0.66c0.44-0.22,0.88-0.22,1.1-0.22
		s0.66,0,0.88,0.22c2.64,0.44,2.64,0,3.74-2.2c0.88-1.98,2.2-3.74,2.86-5.94c1.1-3.74,2.86-6.6,5.5-9.46
		c5.28-5.28,11.44-9.46,19.36-9.24c2.2,0.22,3.08-1.54,4.4-2.64c0.44-0.22,0.22-1.1-0.44-1.32c-5.28-0.44-10.34-0.44-14.08,3.96
		c-1.1,1.54-2.64,2.64-4.4,3.08c-5.94,1.1-10.56,3.96-15.62,7.04c-2.64,1.54-5.06,3.3-5.94,6.6c-0.22,0.44-0.44,0.88-0.66,0.88
		c-0.88,0.44-1.98,0.44-2.64,0.44c-0.22,0-0.66-0.88-0.66-1.32c0-0.88,1.32-2.2-0.22-2.64c-0.44-0.44-1.76,0.44-2.64,0.88
		c-3.74,2.42-6.38,5.06-6.82,9.68c0,1.54-1.32,2.86-2.42,4.18c-4.18,3.96-8.14,8.36-11.88,12.98c-2.64,3.08-1.98,7.04-0.22,10.78
		c1.1,2.64,3.08,3.3,5.72,3.08c1.76-0.22,2.42-0.44,2.64-1.98c0.66-3.52,1.76-6.6,1.32-10.12c0-1.32,0.44-2.42,0.66-3.74
		c0-1.1,1.1-1.54,1.76-0.66c1.1,0.66,1.98,1.54,2.64,2.2c0.22,0.44,0,1.1,0,1.32c-2.42,1.1-2.42,3.08-2.42,5.06v12.54
		c0,4.18-1.32,7.92-4.4,10.78c-1.1,0.66-2.2,1.76-3.08,2.86c-1.76,1.54-3.3,2.86-5.94,2.64c-1.32-0.22-1.98,1.32-1.54,2.42
		s1.32,1.76,2.2,2.42c2.86,2.64,6.6,4.4,10.12,5.94c3.52,1.98,6.16,4.62,7.7,8.14c0.88,2.2,1.1,4.4,1.98,6.16
		c0.44,2.42,0.66,4.4-1.32,6.38c-1.1,0.66-0.88,2.64,0.44,3.08c0.88,0.22,1.76,0.66,2.64,0.22l12.76-2.2c5.28-1.1,9.9,0,14.08,3.3
		c1.98,1.54,3.52,3.52,5.28,5.28c0.66,0.66,1.1,1.32,0.88,2.42c-0.22,0.44-0.22,1.1-0.22,1.76c0,1.76,1.32,2.42,2.86,2.2
		c0.44-0.22,1.1-0.44,1.54-1.1c2.86-2.64,5.94-5.28,8.58-8.14c3.3-3.74,7.26-5.72,12.1-5.72
		C882.68,623.93,884.88,624.15,887.08,624.37z M869.7,551.33c-1.1,0.22-2.42,0.22-3.52,0.22h-1.76v0.22c-1.98,0-3.52-0.22-5.06-0.22
		c-1.32-0.22-1.54-1.32-1.54-2.2c0-1.32,0.66-1.54,1.54-1.76c0.44,0,1.1,0.44,1.1,0.66c-1.1,1.98,0.22,1.98,1.54,1.98
		c2.64,0,5.28-0.22,7.92-0.22l1.1,0.22C870.8,550.45,870.14,551.33,869.7,551.33z M880.7,536.37c0.22,0,1.1,0,1.1,0.44
		c0.88,1.76,1.32,3.52,1.76,5.5c0,0.22-0.22,0.66-0.44,0.66c-0.22,0.44-0.44,0-0.88-0.22c-0.66-1.54-1.54-3.3-2.64-5.06
		C880.26,537.25,880.48,536.81,880.7,536.37z M878.72,546.93c1.32,0.44,2.64,0.44,3.96,0.66c0.22,0,0.66,0.66,0.66,1.32
		c0,0.22-0.44,0.66-0.66,0.66l-8.8-0.66c0,0-0.22-0.22-0.22-0.66c0-0.22,0-0.44,0.22-0.44c0.22-0.22,0.88-0.44,1.1-0.44h3.74V546.93
		z M865.74,539.45c3.3-0.44,6.82-0.44,10.34-0.44c0.66,0,1.32,1.76,1.32,3.52c-0.44,0-0.66,0.44-0.88,0.44c-0.44,0-1.54,0-1.32-0.88
		c0.88-1.76-0.22-1.98-1.32-1.98c-2.64,0.22-5.28,0.22-7.92,0.66c-0.22,0-0.88-0.44-1.1-0.66
		C865.08,539.89,865.52,539.45,865.74,539.45z M850.12,540.99c0-0.22,0.44-0.66,1.1-0.66c1.54,0.44,3.08,0.44,5.06,0.88
		c1.76,0.44,3.3,0.44,5.28,0c0.22,0,0.44,0.22,0.66,0.44c0,0.44-0.22,0.66-0.22,0.66c-0.88,0.44-1.32,0.66-2.2,1.1
		c-0.66,0.22-1.76,0.44-2.2,0.44l-6.38-0.88c-0.22,0-0.88-0.44-0.88-0.66C850.12,542.09,849.9,541.21,850.12,540.99z M837.14,554.85
		c2.64-3.3,6.16-5.72,10.12-7.92c0.44-0.22,1.54-0.22,1.76,0.44c1.98,1.54,3.52,3.3,5.28,4.84c0.22,0.44,0.22,0.88,0.22,1.32
		c-0.22,0.44-0.22,0.88-0.44,0.88c-0.22,0-1.1,0.22-1.32,0c-1.1-1.32-2.42-2.64-3.74-3.96c-1.54-2.2-1.54-2.2-3.74-0.44
		c-2.64,1.76-4.84,3.96-7.48,5.94c0,0-0.66,0-0.88,0.22C836.92,555.73,836.92,555.29,837.14,554.85z M823.72,563.43
		c3.74-0.88,6.82-2.42,10.34-4.18c0.22,0,0.44,0.22,1.1,0.22c-0.44,0.44-0.44,1.1-0.66,1.32c-2.86,2.86-6.38,4.4-10.34,5.5
		c-0.44,0-0.88-0.22-1.32-0.44c-0.22-0.44-0.22-1.1-0.22-1.76C822.62,563.87,823.5,563.65,823.72,563.43z M823.5,536.15
		c0.22-1.32,0.66-2.64,1.54-2.42c1.1,0.66,1.32,1.32,1.32,2.42c0,0.66,0,1.32-0.44,1.54c-0.44,0.66-0.88,0.66-1.32,0.66
		c-0.44,0.22-0.88-0.66-0.88-0.88c-0.22-0.22-0.22-0.44-0.22-0.66V536.15z M810.52,592.25c-0.22,0.22-0.88,0.44-1.1,0.44
		c-0.44,0-0.66-0.44-1.1-0.88c-0.22,0-0.22-0.44,0-0.66c1.76-2.2,3.52-3.96,5.28-6.16h0.88c0.22,0.22,0.44,0.66,0.44,0.88
		s0,0.66-0.22,0.66C813.38,588.51,812.06,590.27,810.52,592.25z M826.36,616.45c-0.22,0.22-0.88,0.88-1.32,1.1
		c0,0-0.88-0.66-0.88-0.88c-1.32-2.64-2.2-5.5-3.3-8.36c-0.22-0.66-1.1-1.32,0-1.98c0.44,0,1.54,0.44,1.54,0.88
		c1.54,2.64,2.64,5.28,3.96,8.14C826.58,615.57,826.36,616.01,826.36,616.45z M857.82,628.33c-0.22,0.44-1.32,0.88-1.54,0.44
		l-8.36-6.16v-0.88c0,0,0.44,0,0.66-0.22h1.32c2.86,1.32,5.5,3.08,7.7,5.28C857.82,627.01,858.04,628.11,857.82,628.33z
		 M877.62,620.41c0-0.22,0.22-0.44,0.22-0.88c0.22-0.22,0.22-0.22,0.44-0.22c3.52-1.32,7.26-1.32,11-0.66
		c0.22,0,0.66,0.88,0.66,1.32c0,0.44-0.66,0.88-1.1,1.32l-1.76-0.44c-1.76-0.22-3.52-0.22-5.06-0.44v0.44c-1.32,0-2.64,0-3.74-0.22
		C878.06,620.63,877.84,620.41,877.62,620.41z"/>
	<path class="st0" d="M888.84,573.11c-2.86,1.54-5.5,3.3-8.14,5.28c-4.18,3.74-9.02,5.06-14.52,3.74l-4.4-0.88
		c-1.54-0.22-3.3,0-4.62,0c-0.22,0-0.66,0.44-0.66,0.66s0,0.44,0.22,0.66l1.1,0.88c3.96,1.76,8.14,2.64,12.54,2.42
		c1.32,0,2.64,0.22,3.96,0c11.22-1.54,20.24-6.82,26.84-15.84c1.54-2.42,3.08-5.06,3.52-7.92v-1.1c-0.22,0-0.44,0.22-0.66,0.44
		C900.06,566.51,894.78,570.47,888.84,573.11z"/>
	<path class="st0" d="M910.62,623.49c-0.88-2.64-3.52-4.18-6.16-3.96c-0.44,0.44-1.32,0.88-1.54,1.32c-1.32,2.2-2.64,4.62-3.08,6.6
		c-1.98,5.94-5.28,10.56-9.9,14.3c-3.96,3.52-8.14,6.16-13.64,6.16c-0.66,0-1.32,0.22-1.98,0.66l-1.98,2.42
		c-0.22,0.66,0,1.32,0.66,1.32c0.44,0,0.66,0,1.1,0.22c4.84-0.44,9.46-1.32,12.76-5.94c1.1-1.54,2.42-3.3,4.62-3.3
		c0.88,0,1.76-0.44,2.2-0.66c4.18-2.42,8.8-4.84,12.76-7.48C910.62,632.51,911.94,628.33,910.62,623.49z"/>
	<path class="st0" d="M879.38,507.33c-4.18-2.2-9.02-3.08-13.64-3.08c-1.98,0.22-3.74,0.22-5.5,0.44
		c-7.92,1.32-14.52,5.06-20.46,10.12c-1.98,1.76-3.96,4.18-5.94,6.6l-0.88,1.76c0.88,0,1.32-0.22,2.2-0.44
		c3.96-2.2,8.14-4.18,12.32-6.16c2.86-1.32,5.72-2.64,8.14-4.62c3.96-3.52,8.58-4.84,13.86-3.96c1.76,0.44,3.52,1.1,5.5,1.1
		c1.32,0.22,2.86,0.22,4.4,0.22c0.22,0,0.88-0.22,1.1-0.66C880.26,508.21,880.04,507.77,879.38,507.33z"/>
	<path class="st0" d="M905.34,548.25c-0.66-1.54-1.32-2.86-2.86-3.96c-2.2-1.32-5.94-0.88-7.48,1.1c-0.44,0.22-0.88,0.88-0.44,1.1
		c0.66,2.64-0.44,5.28-0.44,7.92c0,6.16-2.86,10.56-7.04,14.3c-4.84,4.4-10.34,7.04-16.94,6.82c-1.1,0-4.4,2.64-4.18,3.08
		c0.88,1.76,2.42,1.1,3.74,1.1h0.44c5.28,0,7.48-0.66,11.22-4.4c1.32-1.32,2.64-2.64,4.4-3.3c7.7-2.2,13.2-7.26,18.04-13.42
		C906,555.51,906,551.99,905.34,548.25z"/>
	<path class="st0" d="M788.52,602.81c1.1,3.96,5.72,7.92,11.22,7.04c1.98,0,4.62-2.86,4.62-5.28c0-0.44-0.44-1.1-0.66-1.54
		c-2.2-1.98-4.18-3.52-6.16-5.5c-1.54-1.32-3.08-2.64-4.18-4.4c-5.06-8.36-4.4-20.02,1.1-26.4c1.76-1.98,1.32-3.96,1.32-5.94
		l-1.1-0.22c-0.88,0.66-1.76,1.54-2.42,2.2c-2.64,3.52-4.62,7.04-3.96,11.66c0.66,2.2,0.88,4.18,0,6.38
		c-1.1,2.86-1.54,6.16-1.32,9.02C786.76,594.23,787.64,598.41,788.52,602.81z"/>
	<path class="st0" d="M898.96,454.53c7.04,1.1,14.08,3.96,21.12,5.72c0.44,0.22,1.1,0.22,1.32,0.44c0.44,0.22,0.88,0.88,1.1,1.32
		c-0.22,0.22-0.88,0.44-1.1,0.44c-3.52-0.66-7.04-0.44-10.34-2.64c-0.66-0.44-1.76-0.66-2.86-0.88l-13.42-3.3
		c-0.66,0-0.88,0-1.32-0.22c-3.96,0.44-7.26,2.42-9.02,5.5c-1.32,2.2-1.32,4.62,0.22,6.6c0.88,1.1,1.54,1.32,3.3,0.88
		c2.86-1.1,5.72-1.98,8.36-3.3c7.04-3.08,14.52-4.18,22-0.88c1.76,0.44,3.52,1.32,5.5,1.76c3.08,0.88,5.5-1.76,4.62-4.84
		c-0.66-3.08-2.86-5.28-5.5-6.6c-7.7-3.52-15.84-4.18-23.98-1.98c-0.88,0-1.32,0.22-1.76,0.66c0,0-0.44,0.44-0.44,0.66l0.44,0.22
		C897.64,454.31,898.08,454.53,898.96,454.53z"/>
	<path class="st0" d="M826.14,645.49c4.18,3.08,8.58,4.84,13.64,2.86c1.98-0.44,3.52-0.22,5.5,0c5.06,1.1,10.12,1.98,14.96,2.42
		l5.5-0.88c3.96-0.44,7.7-5.5,7.7-9.24c0-1.76-2.2-4.62-3.96-5.28c-0.66,0-1.32,0-1.98,0.66c-1.76,1.32-4.18,2.42-5.72,3.96
		c-3.74,3.74-8.14,5.06-12.98,5.94c-5.72,1.1-11.66,1.1-16.94-1.76c-1.98-1.1-3.74-0.88-5.28-0.22c-0.44,0-1.1,0.22-1.1,0.66
		C825.48,644.61,825.92,645.49,826.14,645.49z"/>
	<path class="st0" d="M798.64,624.15c1.76,0.66,3.74,1.1,5.06,2.86c4.4,5.06,9.9,8.36,15.62,11.88c1.32,0.88,2.86,1.1,4.4,1.54
		c2.86-0.44,5.5-1.32,7.7-3.3c1.98-1.98,2.42-3.96,1.32-6.38c-0.66-1.1-1.1-1.98-2.42-1.98c-2.64,0.44-5.28-0.22-7.7,0.66
		c-3.3,0.66-6.6,0.22-9.46-0.66c-7.7-1.98-14.52-5.5-18.04-13.2c-0.88-1.76-2.2-2.86-4.18-3.52c-0.44-0.44-0.66,0-1.32,0
		c0,0-0.22,0.44,0,0.66C790.94,617.77,793.14,622.17,798.64,624.15z"/>
	<path class="st0" d="M928.88,620.41c-1.98-0.88-3.52-0.22-4.84,0.88c-0.44,0.22-0.88,0.44-1.1,0.66c-2.42,2.2-4.4,4.84-7.26,6.16
		c-1.1,0.44-2.2,4.18-1.76,4.4c1.1,0.88,2.42,0,3.3-0.44c3.08-1.98,5.94-3.96,6.82-7.92c0-0.22,0.22-0.66,0.22-0.88
		c0.22-0.22,0.88-0.22,0.88-0.22c0.22,0.22,0.66,0.88,0.66,1.1c-0.66,3.74-2.2,7.26-5.94,9.24c-2.2,1.32-4.18,2.42-6.6,3.08
		c-1.54,0.88-2.86,1.54-3.96,2.86c-0.22,0.44-0.66,0.88-0.22,1.1c0,0,0.22,0.22,0.44,0.22c1.32-0.22,2.64-0.22,3.74-0.44
		c6.82-1.76,12.32-5.72,16.94-10.78c0.88-1.1,1.32-2.64,1.54-3.3C931.74,623.05,930.64,621.51,928.88,620.41z"/>
	<path class="st0" d="M909.96,549.13c0,0.22,0.44,0.44,0.66,1.1c0.22-0.22,0.44-0.66,0.44-0.88c2.42-4.4,2.42-9.46,1.1-14.3
		c-1.32-4.4-4.18-6.82-8.14-8.8c-1.32-0.88-2.64-1.76-3.74-2.64c-3.74-3.96-8.36-6.16-13.42-7.7c-3.3-1.1-6.6-1.98-10.12-1.54
		c-4.4,0.22-8.58,4.18-9.24,8.58c-0.22,1.54,2.64,5.06,3.96,5.06h1.1c2.42-1.32,5.06-2.42,7.48-3.74c2.64-1.54,5.5-2.42,8.36-1.98
		c5.06,0,7.04,0.22,10.56,2.2c6.16,3.52,9.68,8.58,9.68,15.62C908.64,543.41,909.3,546.27,909.96,549.13z"/>
	<path class="st0" d="M891.48,645.71c-1.54,1.1-3.08,2.2-4.4,3.74c-3.08,3.52-7.04,5.5-11.66,5.5c-2.42,0-4.4-0.22-6.6-0.22
		c-1.54,0-3.08,0.22-5.06,0.44c-0.22,0-0.44,0.66-0.66,0.88c0,0,0.44,0.44,0.66,0.44c3.08,1.76,6.38,1.98,10.12,1.76
		c5.06,0.44,9.68-0.66,14.52-3.08c5.72-2.64,10.78-6.6,14.96-11.44c1.32-1.32,2.2-3.08,3.3-4.4c0.22-0.44,0.22-0.88,0.22-1.32h-1.1
		C901.16,640.65,896.32,643.07,891.48,645.71z"/>
	<path class="st0" d="M794.9,552.65c-3.3,1.76-5.94,4.4-8.14,7.26c-9.02,12.1-9.68,25.08-3.52,38.94c0.44,0.88,1.32,1.76,2.2,2.86
		c0,0,0.44,0,0.88,0.22v-1.1c0-0.44-0.44-1.1-0.66-1.54c-0.22-3.52-1.1-6.82-0.66-10.12c0.44-5.94,1.54-11.88,1.32-17.82
		c0-4.62,1.54-8.14,4.62-11.22l2.42-2.2c2.42-1.98,4.4-3.74,5.72-6.38c0-0.66,0.88-0.88,1.1-0.66c0.22,0,0.22,0.66,0.66,1.1
		c0,0.22,0.22,0.88,0.22,1.32c0.44-0.22,0.66-0.44,1.1-0.66c2.86-3.3,5.72-6.16,8.36-9.24c1.76-1.98,3.08-3.96,3.96-6.6
		c1.1-5.06,4.4-8.58,9.02-10.56l3.74-1.76c0.88-0.44,1.76-0.66,2.2-1.32l2.2-2.2c-1.1-1.32-1.76,0-2.86,0
		c-0.88-0.44-1.54,0.22-2.42,0.22c-0.44,0-1.32,0-1.54-0.66c-1.54-1.98-3.96-3.3-6.16-4.62c-0.66-0.22-0.44-1.1,0-1.54
		c1.98-1.1,3.52-2.2,4.62-3.74c3.96-5.06,5.72-10.78,6.6-17.16c0.22-1.32,0.44-2.64-1.32-3.52c0,0-0.44-0.44,0-0.66
		c0,0,0.22-0.66,0.44-0.66c0.44,0,0.88,0.22,1.32,0.22c9.46,0.66,16.94-3.3,23.76-9.24c0.22-0.22,0.22-0.44,0.22-0.66
		c0-0.22-0.44-0.66-0.66-0.66l-2.64,0.44c-2.64,0.66-5.28,1.54-7.92,1.98c-0.44,0-0.88,0-0.88-0.22c0-0.22,0-1.1,0.22-1.1
		c3.3-0.66,6.38-1.54,9.46-1.98c1.98-0.66,3.74-0.44,5.28,1.54c1.1,1.32,3.3,1.98,5.06,2.86c7.48,3.08,15.18,3.74,22.66,1.76
		c1.32-0.22,2.64-0.44,3.96-0.88c0.44,0,0.66-0.44,0.44-0.66c0-0.22-0.44-0.44-0.66-0.44c-5.28-1.32-10.78-2.86-16.28-2.42
		c-4.62,0.44-7.92-1.32-11.66-3.08c-0.44-0.44-1.1-0.88-1.32-1.32c-0.22-0.44,0-1.1,0.22-1.76c0-0.22,0.88-0.22,1.1-0.22l4.18,2.64
		c3.52,1.54,6.6,3.74,10.56,2.42c0.66-0.22,1.54,0,2.2,0c3.96,0.88,7.92,1.32,11.88,2.2c0.66,0.22,1.54,0.66,1.76,1.32
		c1.32,2.86,3.96,4.18,6.38,5.72c3.74,2.86,3.96,2.64,6.82-0.88c1.54-1.76,1.98-2.86,0.66-4.84s-2.64-3.74-4.4-5.72
		c-0.66-1.32-1.54-2.64-0.66-4.18c0.44-1.1,0.44-2.42-0.66-2.86c-0.66-0.22-1.98-0.22-3.08,0c-0.44,0-1.32,0.44-2.2,1.1
		c-3.3,1.54-7.04,3.74-10.56,5.28c-4.18,1.76-8.58,1.54-12.76,0c-2.64-1.1-4.84-2.64-7.26-4.62c-1.76-1.32-3.08-2.64-2.42-5.28
		c0.44-0.66-0.22-1.54-0.88-1.76c-0.88-0.44-1.76-0.44-2.42,0c-0.88,0.44-1.54,1.32-2.2,1.76c-2.86,3.3-5.72,6.16-8.36,9.24
		c-2.86,3.08-6.16,4.62-10.12,4.84h-4.62c-3.08,0-5.94,0-7.7-2.86c-0.88-1.32-2.86-0.88-3.52,0.44c-0.22,1.1-0.44,1.98-0.44,2.86
		v6.16c0.44,4.4,0.44,7.92-0.66,11.66c-0.44,1.76-1.32,3.74-2.64,5.28c-1.76,1.98-4.18,3.96-6.6,5.5c-1.76,1.1-3.52,2.2-5.94,0.88
		c-0.66-0.44-1.54,0-2.2,0.44c-0.22,0.44-0.44,1.54-0.22,2.2c0.22,0.88,1.1,1.76,1.76,2.64c2.2,2.2,4.62,4.4,7.48,5.94
		c2.2,0.88,3.52,2.2,4.4,3.96c0.88,1.1,1.1,1.54-0.22,2.64c-4.62,3.74-8.36,8.58-11,14.08c-0.22,0.22-0.22,0.44-0.66,0.44
		c-0.44,1.1-1.32,1.32-2.2,0.66c-0.88-0.66-1.76-1.32-2.42-2.2c-2.2-2.42-3.96-5.06-4.84-8.14c-0.44-2.64-2.64-3.3-4.18-4.62
		c0,0-0.88,0.66-0.88,0.88c0.44,1.32,0.66,2.86,1.1,4.4c1.1,3.96,3.3,7.26,7.48,8.8c0.66,0.22,1.76,0.88,2.42,1.32
		c0.66,0.88,1.32,1.76,1.54,2.64c0.22,0.22,0,1.1-0.22,1.32c0,0-0.88,0-1.1-0.22c-1.98-1.98-3.96-3.3-6.16-4.84
		c-3.3-1.76-5.5-4.62-6.6-8.36c-1.1-3.3-1.76-6.6-1.76-10.12c0-1.54-0.22-3.3-0.88-5.28c0-0.44,0.22-1.76-0.66-1.54
		c-0.44,0-0.88,0.88-0.88,1.32c-0.44,2.64-1.1,5.28-0.88,7.92c0.66,8.8,3.74,16.28,9.9,22.66c0.66,0.66,1.32,1.32,1.98,1.98
		C796.22,551.33,796.22,551.77,794.9,552.65z M896.32,478.73c0-0.66,0.44-0.88,0.44-1.1c0.88,0.22,1.1,0.22,1.32,0.44l5.72,5.94
		c0,0.22,0.22,0.88,0,1.32c-0.44,0.22-1.1,0.22-1.1,0.22l-6.38-5.28C896.1,480.05,896.1,479.17,896.32,478.73z M829.22,483.57
		c0.66-1.54,1.98-0.88,3.3-0.88c1.98-0.44,4.4-0.66,6.6-0.66c0.22,0,0.44,0.22,0.44,0.66c0.22,0.22,0,0.44-0.22,0.66
		c-1.1,0.66-2.42,1.1-3.74,1.32c-1.1,0.22-2.2,0-3.08,0C830.1,484.89,829,484.45,829.22,483.57z M821.52,499.19
		c1.1-2.86,2.64-5.5,5.06-7.92h0.22c0.44,0.22,0.44,0.22,0.66,0.66c-0.22,0.22-0.22,0.66-0.66,0.88l-3.96,7.04
		c-0.22,0.22-0.66,0.22-0.88,0.22C821.52,499.85,821.3,499.41,821.52,499.19z M814.26,512.61c-0.22,0.44-0.66,0-0.88,0
		c-0.22,0-0.66-0.22-0.66-0.22c-0.44-0.44-0.44-1.1,0-1.32c2.86-1.76,5.5-4.18,7.48-6.82c0.44-0.22,0.88-0.44,0.88-0.22
		c0.22,0.22,0.44,0.66,0.44,1.1C820.2,508.65,817.34,511.07,814.26,512.61z M816.9,521.41c-0.66-1.54-1.32-3.08-0.88-4.84
		c0-0.22,0.22-0.44,0.22-0.66c0.44,0,0.66,0.22,0.88,0.44c0.22,1.54,0.88,3.3,1.32,4.84c0.22,0.66,1.32,1.54,0.22,2.86
		C818.22,522.95,817.34,522.51,816.9,521.41z"/>
	<path class="st0" d="M816.9,640.43c-0.22-0.22-0.22-0.66-0.66-1.1c-4.62-2.64-8.8-5.94-12.76-9.46c-2.2-1.76-4.4-3.08-6.6-4.18
		c-4.62-1.76-7.48-5.06-9.02-9.24c-1.1-2.42-1.98-4.84-2.2-7.04c-0.22-2.2-1.1-3.96-1.76-5.72c-0.22-0.22-0.66-0.44-1.1-0.66
		c0,0.22-0.22,0.66-0.44,1.1c0,0.88-0.44,1.98-0.44,2.86c0,1.1,0,1.54,0.44,2.42c0,0.44,0,0.88,0.22,1.54
		c1.76,8.36,5.72,15.62,12.54,20.9c3.3,2.64,6.38,4.62,10.12,6.16c3.52,1.32,6.82,2.64,10.78,2.64
		C816.24,640.65,816.68,640.43,816.9,640.43z"/>
	<path class="st0" d="M861.56,652.31h-1.98c-4.62,0-9.46-0.44-14.3-1.54c-2.2-0.22-4.4-0.44-6.82,0.22c-5.28,1.32-10.34,0-14.52-3.3
		c-1.1-0.66-1.76-1.32-2.64-2.2c-1.32-1.32-3.08-1.76-4.62-2.42c-0.44,0-0.88,0-0.88,0.22c-0.22,0.44,0,0.66,0,0.88
		c1.54,2.42,3.08,4.18,5.28,5.72c6.82,5.06,14.52,7.48,24.86,7.48c3.08-0.22,8.14-0.88,12.98-2.42c0.88-0.44,1.98-1.1,2.86-1.32
		c0.22-0.22,0.44-0.44,0.22-0.66C862,652.53,861.78,652.31,861.56,652.31z"/>
	<path class="st0" d="M801.72,484.45c1.76-1.54,1.1-3.08,1.1-5.06c0-0.44-0.44-0.66-0.66-1.1c-0.44,0-0.88,0-0.88,0.44
		c-3.08,3.3-6.16,7.04-5.28,12.1c0.44,2.64,0,4.62-1.32,7.04c-2.64,5.28-3.96,11.22-3.96,16.94v2.42c0.22,4.4,2.64,7.7,6.6,9.02
		c4.84,1.76,6.82,0.22,8.14-3.3c0.66-0.66,0.22-1.76-0.22-2.64c-1.76-1.98-3.52-4.18-5.06-6.6c-1.32-1.54-1.98-3.74-2.42-5.72
		c-0.66-5.5-0.88-11.22,0.66-16.5C799.08,488.85,799.96,486.21,801.72,484.45z"/>
	<path class="st0" d="M887.96,451.45c-4.4-1.76-8.58-2.86-12.76-0.22c-1.76,1.1-3.74,1.32-5.72,0.66c-3.08-0.44-5.94-0.44-8.8-0.44
		c-3.08,0.22-6.6,0.44-10.12,1.1c-3.96,0.44-6.16,3.08-7.48,6.82c-1.1,3.74-0.66,5.28,2.2,7.04c1.32,0.88,2.42,1.1,3.52,0
		c1.76-1.32,3.96-2.86,5.72-4.4c2.42-2.86,5.72-4.84,9.02-6.16c6.16-1.98,12.54-3.96,19.14-1.76c1.98,0.88,3.52,0,5.28-1.32
		C888.4,452.55,888.62,451.67,887.96,451.45z"/>
	<path class="st0" d="M810.3,468.83c3.96-4.18,8.36-7.26,13.42-10.56c1.54-0.66,3.08-2.42,4.4-3.74c4.62-5.94,10.56-7.26,17.6-6.82
		c1.98,0.22,3.96,0,5.72-0.44c0.22-0.22,0.44-0.66,0.44-0.88c0.44,0-0.22-0.44-0.44-0.44c-2.86-1.32-5.72-1.98-9.02-1.54
		c-1.32,0-2.64,0-3.96,0.22c-13.64,2.42-23.54,9.9-29.7,22.44c-0.44,0.66-0.44,1.54-0.66,2.64l0.66,0.22
		C809.2,469.71,809.64,469.05,810.3,468.83z"/>
	<path class="st0" d="M815.36,487.53c0.88-0.22,1.54-0.88,1.76-1.98c0.22-2.42,0.88-4.84,0.88-7.26c0.22-4.18,1.54-8.14,3.96-11.44
		c3.96-5.94,9.24-10.56,16.28-11.66c2.64-0.22,3.74-1.54,5.06-3.52c0-0.22-0.22-0.66-0.66-1.1h-0.88c-4.84,0.44-9.9,1.32-12.76,6.38
		c-1.32,1.98-2.86,2.86-5.06,3.74c-6.38,3.08-11,7.92-15.18,13.2c-3.3,3.52-2.2,8.8,0.22,11.88
		C810.52,487.97,812.94,488.63,815.36,487.53z"/>
	<path class="st0" d="M788.08,515.03c0-0.22,0.22-0.44,0.22-0.66c0.22-0.88,0.66-1.76,0.66-2.64c0.22-4.84,1.76-9.02,3.3-13.2
		c1.32-3.08,1.98-5.72,1.54-8.8c-0.44-4.84,1.32-8.8,4.62-12.1c1.1-1.1,2.42-2.42,3.74-3.52c1.54-1.32,2.64-2.86,3.3-4.62
		c0.22-0.44,0-0.66,0-0.88c-0.22,0-0.66-0.22-0.66,0c-0.66,0-1.1,0.22-1.32,0.44c-5.28,3.08-9.02,7.48-12.32,12.54
		c-3.96,7.04-4.84,14.96-5.5,23.1c0.66,3.3,0,6.6,1.98,9.9C787.64,514.81,787.86,515.03,788.08,515.03z"/>
	<path class="st0" d="M865.74,449.69c3.96,0.44,7.7,0.22,11.66-1.76c3.08-1.32,6.16-1.32,9.68,0c1.54,0.88,3.52,1.32,5.06,2.42
		c1.32,0.66,2.64,0.88,3.96,0.66c0.22,0,0.44-1.1,0.44-1.1c-0.66-0.88-1.54-1.54-2.42-2.2c-5.28-3.3-11.22-4.4-17.6-5.28
		c-1.32,0.22-2.86,0.66-4.18,0.66c-5.5,0.22-10.56,1.76-15.62,3.96c-1.32,0.44-2.42,0.88-3.74,1.76c-0.22,0.22-0.22,0.44-0.22,0.88
		c0.22,0.22,0.88,0.44,1.1,0.44C857.82,449.03,861.78,449.25,865.74,449.69z"/>
	<path class="st0" d="M1028.32,543.63c14.52-4.4,27.28-16.28,27.28-33.88c0-27.06-21.12-38.72-50.16-38.72H943.4v154h57.2
		c30.58,0,59.18-9.9,59.18-43.78C1059.78,561.67,1047.24,548.69,1028.32,543.63z M966.5,490.61h36.74
		c20.46,0,28.38,8.58,28.38,21.56c0,14.3-9.9,22.66-29.26,22.66H966.5V490.61z M1003.24,605.23H966.5v-50.82h36.08
		c24.64,0,33.22,9.68,33.22,25.52C1035.8,596.65,1025.68,605.23,1003.24,605.23z"/>
	<path class="st0" d="M1146.68,467.29c-42.24,0-73.92,31.9-73.92,80.74c0,49.72,31.9,80.52,73.92,80.52s74.14-31.02,74.14-80.52
		C1220.82,499.41,1188.92,467.29,1146.68,467.29z M1146.68,608.97c-29.7,0-49.72-22.88-49.72-60.94c0-37.84,20.24-60.94,49.72-60.94
		s49.72,23.32,49.72,60.94C1196.4,586.31,1176.38,608.97,1146.68,608.97z"/>
	<path class="st0" d="M1144.7,547.81c-0.66-0.22-1.1,0.44-1.54,0.22c-0.22-0.44-0.44-0.66-0.66-0.66c-0.22,0.22-0.22,0.22-0.44-0.22
		l-0.66-0.22c0,0-0.22-0.22-0.88-0.22l-0.44-0.22c0-0.22,0-0.22-0.66,0l-1.1-1.1c-0.44,0-0.66,0-1.1-0.44l-0.66-0.44l-0.44-0.44
		h-0.88c0-0.44,0-0.44-0.66-0.22c0,0.22,0-0.22-0.44-0.22l-0.44-0.44c-0.22,0-0.44-0.22-1.1,0l-0.44-0.44h-0.88
		c-0.44-0.44-0.44-0.22-0.88-0.22c-0.66,0.22-1.32,0-2.2,0.22c-0.22,0-0.66,0.22-0.66,0.22l-0.22,0.22l-0.44-0.22l-0.22-0.22
		l1.1-1.1c0-0.22-0.22-0.88,0-0.88c0-0.66,0.22-0.66,0.22-0.88c0-1.1-0.44-2.2-0.22-2.86l0.22-0.22c-0.44,0-0.44-0.22-0.88-0.66
		c0,0,0-0.44,0.22-0.66c-0.22-0.22-0.22-0.88-0.66-1.1v-0.44c-0.44-0.22-0.22-0.88-0.44-1.1c0-0.88,0.22-1.1,0.22-1.98
		c0.22,0,0.22-0.66,0.22-0.66c0.44-0.22,0.44-0.22,0.22-0.44l-0.44-0.44c0,0-0.44-0.44-0.44,0c0,0.22-0.66,0.88-0.44,1.1
		c-0.22-0.22-0.22,0.44-0.22,0.44c0.22,0-0.44,0.44-0.22,0.88c0.22,0.44,0.22,1.1,0.66,1.54c-0.22,0.22,0,0.88,0,1.54l0.22,0.66
		c0,0.44,0.44,0.44,0.44,0.88c-0.22,0.44-0.22,0.66,0,0.66c0.44,0.66,0.22,1.1,0.44,1.76h-0.22l0.22,1.1c0,0-0.22,0.44,0,0.66
		c-0.44,0-0.66,0.44-0.66,0.66l-0.66,0.66c-0.22,0-0.44,0.22-0.66,0c0.22-0.44-0.44-0.22-0.66,0l0.22-0.22c0,0,0-0.66,0.44-0.44
		c-0.44-0.22-0.44-0.22-0.22-0.66c-0.22,0-0.44-0.88-0.44-0.88c0.44-1.1,0.22-1.98,0-3.08l-0.22-0.22c0.22-0.22,0-0.44,0.22-0.88
		c-0.22,0-0.22,0-0.44-0.44l-1.1-0.88c-0.22-0.44-0.22-0.44-1.1-0.66c0.22-0.22-0.22-0.44-0.22-0.44c-0.22,0.44-0.22,0-0.66,0.22
		l-0.44-0.44c0-0.22,0-0.22-0.44-0.22h-0.44c-0.22-0.44-0.44-0.44-0.44-0.66c-0.44,0-0.66-0.22-0.66-0.22c0-0.44,0-0.66-0.22-0.44
		v-0.44c0,0-0.44-0.22-0.22-0.66c0.22-0.22-0.22,0-0.44,0.22c-0.44-0.22-0.44-0.22-0.44,0.22v0.22c0,0.22,0.22,0.44,0.44,1.1
		l0.44,0.22l0.88,0.88l0.88,0.66l0.88,0.22c0.22,0.22,0.66,0.22,0.66,0.22l0.88,0.66l0.88,0.88c0.22,0.44,0.44,0.44,0.44,1.1
		c0,1.32-0.22,2.42,0.22,3.52c-0.22,0.44-0.22,0.66-0.22,1.1l-0.22-0.44l-0.66,0.44c0-0.22-0.22,0-0.66-0.22l-0.44,0.22l0.44-0.44
		c0.22,0,0.22,0,0.22-0.22c0.22-0.44,0.44-0.66,0.22-1.1c0.22-0.22,0-0.44,0.44-0.88c0-0.44-0.22-0.66-0.44-1.32
		c0.22-0.22,0.22-0.22-0.22-0.66v-0.22c0,0.22,0-0.22-0.22-0.22c-0.66-0.66-0.88-0.44-1.54-0.22c0.22-0.44-0.44-0.44-0.44-0.44
		s-0.44-0.22-0.66-0.22c-0.22-0.22-0.44,0-0.44,0c-0.22,0.44-0.44,0.22-0.44,0.22c-0.22,0-0.22,0.44-0.22,0.44l-1.1,0.66
		c-0.22,0-0.88-0.44-1.1,0l-0.66,0.66l0.22,0.66c-0.22,0-0.66,0-1.32,0.66v-0.22c0,0.22-0.22,0.44-0.22,0.44
		c-0.44,0.66-0.66,0.88-0.44,1.32c0.22,0.44,0.22,0.88,0,1.54l0.66,0.66c0.22,0.22,0.22,0.44,0.44,0.44l0.88,0.66l0.66,0.44
		l1.76-0.66l0.66,0.66l-0.88,0.66c0.22,0.22,0.22,0.66-0.44,0.66c0-0.22-0.44-0.66-0.44-0.44c0,0-0.44-0.22-0.88,0
		c0,0-0.44-0.44-0.44-0.22l-0.66-0.22c-0.22-0.44-0.66-0.44-0.66-0.44l-0.22-0.22c-0.44,0-0.66-0.22-0.88-0.44l-0.44-0.22
		c0-0.22-0.44-0.44-0.22-0.88c-0.22,0-0.66-0.44-0.66-0.66c0.22-0.88,0.22-1.1,0.44-1.54l-0.44-0.44c-0.22-0.66,0.44-1.1-0.44-1.76
		c-0.22,0,0-0.44,0-0.88l-0.66-0.66c0,0-0.66-0.44-0.66-0.66c-0.22,0-0.44-0.44-0.88-0.22c0.22,0.66-0.44,0.44,0,0.88
		c0,0.44,0.66,0.88,0.88,1.1c0.44,0,0.66,0.66,0.66,0.66v2.42l0.22,0.88c0.22,0.22,0.22,0.88,0.44,1.54l0.22,0.44
		c0,0,0.66,0.22,0.22,0.44c0.44,0.22,0.88,0.66,0.88,0.44l0.88,0.88l0.44,0.22l0.44-0.22l0.44,0.44c0,0,0.44,0.22,0.88-0.22
		l0.22,0.44c0.66,0.22,0.66,0.44,0.88,0.22l0.66,0.44l0.22,0.22l0.22,0.66c-0.22-0.22-0.22-0.22-0.44,0.44h-0.66
		c0,0.22-0.22,0.22-0.88,0.22c0,0-0.22,0.22-0.22,0.44l-0.66-0.44h-0.88l-0.22-0.22l-0.44-0.22l-1.32-1.32l-0.44-0.22l-0.66-0.66
		l-0.66-0.44c-0.22,0-0.44-0.44-0.88-0.44l-1.32-0.66c0,0-0.44-0.44-0.44-0.22c-0.66-0.22-1.1-0.22-1.32,0
		c-0.44,0-0.44,0.22-0.88,0.22l0.22,0.44h-0.44c0,0.44,0.22,0.66,0.22,0.66c0.44,0,0.66-0.44,0.66-0.44
		c0.22,0.22,0.88,0.22,1.1,0.22l0.88,0.44c0.66,0,0.88,0.44,1.1,0.66l0.66,0.44c0.22,0.22,0.22,0.22,1.32,0.66
		c-0.22,0,0,0.44,0.22,0.66c0.44,0.22,0.66,0,1.32,0.44c0,0,0.44,0.22,0.66,0.22c-0.22,0.44,0,0.44,0.44,0.44l0.66,0.44
		c0.22,0,0.44-0.22,0.88,0.22h0.22c0,0,0.44-0.22,0.66-0.22c0,0,1.1-0.44,1.32-0.44l0.22,0.22l0.22-0.22v0.22
		c0.44,0.22,0.44,0.66,0.22,0.66c0.22,0-0.22,0.44-0.66,0.66c0,0.22-0.66,0.22-0.22,0.44l-0.66,1.54c-0.22,0.22-0.44,0.44-0.44,0.88
		c0,0.66-0.22,0.66,0.22,1.32c-0.22,0.66-0.44,1.1-0.22,1.32c-0.22,0.66-0.22,0.88,0.22,1.76c0,0.88,0.22,1.76,0.22,2.64
		c0.22,1.54,0.44,2.64,0.44,3.96c-0.22,0.66-0.44,0.88-0.22,1.32c0.44,0.66,0,0.66-0.22,1.32l0.22,0.22c0-0.22,0,0.22,0.44,0.44
		l0.22-0.22l0.44-0.66c0-0.22,0-0.66,0.22-0.66v-1.1c0-1.54-0.22-3.3-0.44-5.06c-0.44-0.88-0.44-1.98-0.66-2.64
		c0.22-0.44,0.22-0.88,0.22-1.32c0-0.66,0-1.1-0.22-1.98l0.66-0.44l-0.44-0.66l0.66-0.66c-0.22-0.22,0-0.66,0-0.66l0.88-0.66
		c0,0.22-0.22,0.22-0.22,0.22s0,0.66-0.44,0.66c0.22,0,0.66,0.44,0.66,0.44c-0.66,0-0.22,0.44-0.22,0.44h-0.44
		c-0.22,0.66-0.22,0.66,0,0.88c-0.44,0.22-0.44,0.88-0.22,1.1c0.22,1.1,0,1.98,0,3.3l0.66,1.1c-0.22,0,0.22,0.88,0.22,0.88
		c0,0.44,0,0.88,0.22,1.1c0,0,0.22,0.44,0.44,0.44c0,0.44,0.22,0.44,0.22,1.1l0.22,0.22l0.66,0.44l0.22,0.44c-0.22,0,0,0,0.22,0.22
		l0.44,0.22c0.22,0.22,0.44,0.22,0.22,0.44c0.44,0.44,0.44,0.44,0.66,0.22v0.22h0.44c0,0,0.66,0.66,0.88,0.22l0.22,0.22l0.88,0.44
		l0.44-0.22h0.66c0,0,0.44-0.22,0.66-0.22l0.22,0.22l0.22-0.22l0.66-0.88l0.66-0.66c0.22-0.44,0.22-0.44,0-0.44l0.22-0.88
		c0.22-0.22,0.22-0.22,0.44,0c0.66,0,0.88-0.22,1.32,0.22c0.22,0,0.66,0.22,1.1,0.22c0.88-0.22,1.32,0.22,2.2-0.44l0.66-0.44
		l0.22-0.44l0.22-0.44c0-0.22,0.66-0.44,0.66-0.44c0.22-0.66,0-0.88,0.22-1.32c-0.22,0,0-0.22,0-0.66c-0.44-0.66-0.22-0.88,0.22-1.1
		h-0.44l0.66-0.44l1.98,0.22c0,0,0.22-0.66,0.66-0.88l0.22,0.22l0.22-0.22c-0.22-0.22-0.22-0.22,0-0.44c0,0-0.22,0-0.22,0.22
		l-0.22-0.44c0-0.66-0.88-1.1-0.88-1.98v-0.22c-0.22,0-0.44-0.22-0.44-0.66l-0.44-0.66l0.66,0.22l1.98,0.44
		c-0.22,0.66,0,1.1-0.22,1.54c-0.44,0-0.44,0.44-0.44,0.66l0.22,0.22v0.44v0.22c0-0.22,0.22-0.44,0.44-0.44
		c0-0.22,0.22-0.44,0.22-0.44c0.22-0.44,0.66-0.66,0-1.1c0.22-0.44,0.44-0.44,0.44-1.1l-0.44-0.44c0.66-0.44-0.22-0.88,0-1.76
		c-0.22,0-0.44-0.44-0.22-0.44l-0.66-0.44c-0.44-0.66-0.22-0.88-0.66-1.32l-0.88-0.44l-0.88-0.88l-1.32-1.1
		c-0.22-0.44-0.22-0.44-0.44-0.22c-0.22-0.22-0.22-0.44-0.44-0.22c-0.44-0.44-0.88-0.44-0.88-0.44c-0.22-0.22-0.44-0.22-0.88-0.44
		c0-0.22-0.66,0.22-0.22-0.22c-0.44,0.22-0.66,0-1.1,0c-0.22-0.44-0.66-0.44-1.1-0.22c-0.44,0.22-0.66-0.22-0.66-0.22h-1.54
		l0.44,0.22l0.44,0.44l0.22-0.44c0,0.66,0,0.66-0.22,0.44l0.22,0.22l0.44-0.22c0,0,0.22,0.44,0.22,0.22l-0.22-0.44
		c0.44,0.22,0.88,0.22,0.88,0.22l0.88,0.22c0.88,0.22,1.76,0.44,2.42,0.88c0.22-0.22,0.22-0.22,0.22,0l0.44,0.44
		c0.22,0,0.44,0.22,0.66,0.22s0.44,0.22,0.44,0.22l0.22,0.22c0,0.22,0.44,0.44,0.88,0.88c0.44,0.22,0.66,0.22,0.88,0.44l0.22,0.22
		v0.44l0.44,0.44c0.22,0.22-0.66-0.22-0.88-0.66c-0.44-0.22-0.66,0-0.88-0.22h-0.22l0.22,0.22c0.22,0,0.44,0.22,0.66,0.44
		c0.44,0.44,0.66,0.66,0.88,0.66c0.66,0.66,1.1,1.1,1.32,1.54v0.22l0.22,0.22v0.66l-1.76-0.44l-0.22-0.22l-0.22-0.44l-0.66-0.66
		c0-0.22-5.28-3.74-8.8-4.84c0.22-0.22,0-0.44,0.22-0.66v-0.22l5.06,1.98c0.22,0.22,0.44,0,1.1,0.66l0.22,0.22l0.44,0.44h0.44
		c0.22-0.22,0.44,0,0.44,0c0.22,0.22,0.22,0,0.44,0.22c0-0.44,0-0.44-0.44-0.44c-0.22,0-0.44-0.22-0.44-0.22
		c-0.44-0.22-0.66-0.22-0.66-0.44c0,0-0.22,0-0.44-0.22c-0.22-0.44-0.66-0.44-1.1-0.44l-5.06-1.98c0.22-0.22,0.22-0.44,0.44-0.44
		h-0.66l0.22-0.44v0.22c0.44-0.44,0.88,0,0.88-0.22c0.88,0,1.32-0.22,2.2-0.44c0.22,0.22,0.44,0.22,0.88,0.22l0.44,0.22
		c0.22,0.22,0.22,0.22,0.44,0l0.44,0.44h0.44c-0.22,0.22,0.22,0.22,0.22,0.22c0.22-0.22,0.22-0.22,0.66,0.22l0.22,0.22
		c0,0.22,0.22,0.22,0.44-0.22c0,0.66,0.66,0.66,0.88,0.66h0.22l0.88,0.66l0.22,0.22c0.22,0.22,0.66,0.44,0.66,0.66
		c0-0.22,0.88,0,1.32,0.22c0.22,0,0.66,0.22,0.66,0.22l0.44,0.44l0.22-0.22c0.44,0.66,0.66,0.44,0.66,0.66h0.44l0.66,0.66
		c0.66-0.22,0.66-0.22,0.88,0.22c0.66-0.22,0.66-0.22,0.66,0l0.66,0.22l0.22-0.22c-0.22-0.66-0.22-0.88-0.22-1.1V547.81z
		 M1120.06,561.23c0-0.22-0.22-0.88-0.44-1.1c-0.22-0.66-0.22-1.1-0.66-1.98l0.22-0.22c0,0-0.22-0.22-0.44-0.22v-0.44
		c0-0.22,0.22-0.44,0-0.44c0-1.1-0.44-1.98-0.22-3.08c0.44-0.22,0.44-0.22,0.22-0.66l0.22-0.22l-0.22-0.22l0.44-0.44
		c-0.22,0-0.22,0,0-0.22c-0.22,0,0-0.22,0-0.44l0.22-0.22c0.44-0.44,0.44-0.66,0.44-0.66v5.28c-0.44,0.44-0.22,1.1-0.22,1.54
		l0.22,0.22c0,0.22,0.22,0.44,0.22,0.66l-0.22,0.22v0.44c-0.22,0.44,0,0.44,0,0.66h0.22v1.1c0.22,0.22,0,0.44,0.22,0.44
		C1120.06,561.45,1120.06,561.23,1120.06,561.23z M1122.92,562.55c-0.22,0.22-0.22,0.88-0.22,1.32c-0.66-0.44-1.1-0.88-1.76-1.54
		c-0.22,0,0-0.22-0.22-0.44c0-0.66,0-0.88-0.22-0.88c0-0.66,0.22-0.88-0.22-1.1c0-0.22,0-0.66,0.22-0.88l-0.22-0.22v-0.22
		c0.22-0.44,0-0.88,0-1.1l-0.22-0.22c0-0.22,0-0.88-0.22-1.1l0.44-5.06l0.22,0.22v0.22c0,3.74,1.32,9.46,1.32,9.46l0.66,0.66
		l0.44,0.22V562.55z M1125.34,564.53c-0.88,0.22-1.54,0-2.2-0.44c0-0.66,0.22-1.32,0.22-1.32l-0.22-0.22l0.22-0.66
		c0,0.44,0.44,0.44,0.66,0.66s0.44,0.22,0.22,0.66l0.22,0.22c0.66,0.66,1.1,1.1,1.1,1.32L1125.34,564.53z M1126,564.31
		c-0.22-0.22-0.88-0.66-0.88-1.1l-0.44-0.44c0,0,0-0.22-0.44-0.66c-0.22-0.44-1.54-0.66-1.54-0.66l-0.22-0.22v-0.44l-0.88-5.28
		c0.44,0.88,1.1,1.98,2.64,2.86c0.44,0.88,1.54,1.32,1.76,1.76v0.22l-0.44,0.44v0.88C1125.56,561.67,1126.22,563.21,1126,564.31z
		 M1136.34,550.89l0.44,0.22v2.2c0.22,0.22,0.44,0.44,0.88,0.66h0.22c0.22,0.88,0.44,1.1,0.22,1.76l-2.2-1.32l-0.44-0.66l-0.88-0.22
		l-0.44,0.44c0.22-0.44,0-1.32-0.44-1.98c-0.66-1.76-1.32-3.08-1.76-3.96C1134.14,549.35,1136.12,550.67,1136.34,550.89z
		 M1127.98,547.81c0.44-0.44,0-1.1,0-1.54c0.44-0.22,0.66,0.22,0.66,0.44h0.22c0.44,0.22,0.44,0.66,0.44,1.32
		c0.22,0.44,0,0.22,0,0.88c0.22,0.44,0.22,0.44,0.44,0.44c0,0-0.22,0.22-0.22,0.44c-0.22,0.22-0.44,0.44-0.22,0.44v0.22l0.44,0.22
		l-0.22-0.22c0.22-0.22,0-0.44,0-0.44c0.44-0.44,0.44-0.44,0.44-0.66c0-0.44,0-0.44,0.22-0.66h-0.22c-0.22-0.22-0.22-0.44-0.22-0.66
		c0-0.44,0-0.66-0.22-0.88c0,0,0.44-0.22,0.66,0h0.22c0.44,0.22,0.88,0.88,1.1,1.32v1.1l0.22,0.22c0,0.88,0.44,1.54,0.66,2.42
		c0,0.44,0,1.1,0.22,1.54c0.22-0.22,0.44-1.32,0.22-1.76c-0.44-0.88-0.66-1.54-0.66-2.2v-0.22c1.1,2.2,1.98,4.84,1.98,4.84
		l0.22,0.44l0.44-0.66h0.44l0.44,0.44c0,0,1.54,1.1,2.64,1.54c-0.22,0.22-0.44,0.44-1.1,0.44c0-0.22-0.22,0-0.44,0
		c0-0.22-0.22-0.44-0.44-0.44c-0.44,0.22-0.66,0.44-0.88,0.44l-0.22-0.44c-0.22-0.22-0.44-0.22-0.88-0.22v-0.22
		c-0.22,0-0.44,0-0.88-0.22s-0.88-0.66-1.1-0.66l-0.44-0.44l-0.66-0.44l-0.44-0.66h-0.22c-1.1-0.88-1.98-1.98-2.42-3.52
		c-0.22-0.22-0.22-0.44-0.22-0.88C1127.76,548.69,1128.2,548.25,1127.98,547.81z M1127.76,559.25c0.44,0.44,0.66,0.88,0.22,1.1
		c0.22,0.22,0.22,0.66,0.44,0.88l-0.44,0.44v1.32c0,0.88-0.88,0.88-1.1,1.54c0,0-0.22,0-0.44,0.22c0.22-1.54-0.44-3.08-0.44-3.52
		v-0.66l0.88-0.44v-0.22c-0.12,0-2.08-1.76-3.43-2.97c0.48,0.28,0.95,0.48,1.23,0.77c0.44,0.44,1.54,0.88,1.76,0.66v-0.22
		c-0.44-0.22-1.32-0.44-1.54-0.88c-0.44-0.44-1.32-0.88-1.76-1.32l-0.22,0.22c-0.22-0.44-0.44-0.66-0.88-0.88
		c-0.22-0.44-0.66-1.1-0.66-1.54h-0.22v-0.66c0.22,0.22,0.66,0.44,1.1,0.66c0,0,0.22,0.22,0.66,0v0.44l0.22,0.22
		c0.22,0,0.44,0,0.88-0.22c0,0,0.22,0.44,0.22,0.22h0.22l0.44-0.66l-0.22,0.22c-0.44-0.22-0.44,0-0.66,0s-0.44,0-0.66-0.22h-0.22
		v-0.22c-0.22-0.22-0.44-0.22-0.88-0.44c-0.22,0-0.88-0.44-0.88-0.44l-0.22-0.22c-0.22-0.22,0-0.44,0-0.44h0.22l0.66,0.22l0.22-0.22
		c0.22,0.22,0.44,0.22,0.44,0.22h0.22h0.22h0.22l0.44,0.22c0.22,0,0.22,0,0.22,0.22c0.22,0,0.22,0.44,0.22,0.44
		c0.44-0.22,0.44-0.22,0.44,0c0,0,0.22,0,0.44,0.44l0.44,0.44c0,0-0.22,0.44,0.44,0.22l-0.44,0.44c0.66,0.22,0.88,1.1,1.1,1.76
		c0.22,0,0.22,0.22,0.22,0.22l0.22,0.44c0.11,0.33,0.06,0.44,0.03,0.47c0.02-0.01,0.07-0.03,0.19-0.03
		C1127.54,558.59,1127.98,558.59,1127.76,559.25z"/>
	<polygon class="st0" points="1259.32,688.39 1259.76,688.61 1259.76,688.17 	"/>
	<path class="st0" d="M1266.14,688.83v-0.44c0-0.44,0-0.66,0.22-0.88c0,0-0.22-0.22,0-0.44c0.22-0.44,0-0.88-0.22-1.1
		c-0.22,0.22-0.22,0.44-0.22,1.32v0.22c0,0-0.22,0.44-0.22,0.66l0.22,0.44c0.22,0,0,0.44,0,0.44c0,0.22,0.22,0,0,0.44
		C1266.36,689.27,1266.36,689.27,1266.14,688.83z"/>
	<path class="st0" d="M1266.36,682.23l0.22-0.44C1266.58,681.79,1266.14,682.23,1266.36,682.23z"/>
	<path class="st0" d="M1278.68,671.89c0,0.22-0.88-0.22-1.1,0.22c0.22-0.44-0.44,0-0.44,0c0,0.22-0.66-0.22-0.88,0.22
		c-0.44,0.22-0.88,0.66-1.1,1.1c-0.44,0-0.88,0.44-1.32,0.66l-0.66,0.66c-0.44,0-0.22,0.44-0.44,0.66c-0.66,0-0.88,0.22-0.66,0.22
		c-0.44,0.88-0.88,0.88-1.32,1.32l-0.22-0.22l-0.88,0.66c0,0-0.44,0-0.66,0.22c-0.22-0.44-0.66-0.44-0.88-0.22l-0.88-0.44
		c0,0-0.22-0.22-0.22-0.44c0.44,0,0-0.44-0.22-0.66l0.22,0.22c0,0,0.66-0.44,0.66,0c0-0.44,0-0.44,0.44-0.44
		c0-0.22,0.66-0.66,0.66-0.66c1.1-0.22,1.76-0.66,2.64-1.32l0.22-0.44c0.22,0.22,0.44-0.22,0.88-0.22
		c-0.22-0.22-0.22-0.22,0.22-0.44l0.22-1.54c0.22-0.22,0.22-0.22,0.22-1.1c0.22,0,0.22-0.44,0.22-0.44c-0.44,0,0-0.22-0.44-0.44
		l0.22-0.66c0.22-0.22,0.22-0.22,0-0.44l-0.22-0.44c0.22-0.44,0.22-0.66,0.44-0.66c-0.22-0.44-0.22-0.66-0.22-0.66
		c0.44-0.22,0.66-0.44,0.44-0.44l0.22-0.22c0,0,0-0.44,0.66-0.44c0.22,0-0.22-0.22-0.44-0.44c0-0.44,0-0.66-0.44-0.22l-0.22,0.22
		c-0.22,0-0.22,0.22-0.66,0.66v0.66l-0.44,1.1l-0.22,1.1c0,0.22,0,0.66,0.22,0.88c-0.22,0.22,0,0.66,0,0.66l-0.22,1.1l-0.22,0.88
		l-0.22,0.22c-0.44,0.44-0.22,0.66-0.66,0.88c-1.32,0.66-2.42,0.88-3.08,1.76c-0.66,0-0.66,0.22-1.1,0.44l0.22-0.44
		c-0.44-0.44-0.44-0.44-0.66-0.44c0.22,0,0-0.22,0-0.66l-0.44-0.22h0.44c0.22,0.22,0.22,0.22,0.44,0.22c0.44,0,0.66,0,1.1-0.22
		c0.22,0,0.44-0.22,0.88,0c0.44-0.22,0.44-0.66,1.1-1.1c0.22,0.22,0.22,0.22,0.44-0.44h0.22c-0.22,0,0.22-0.22,0-0.44
		c0.44-0.88,0-0.88-0.44-1.32c0.44,0,0.22-0.66,0.22-0.66v-0.66c0-0.44-0.22-0.44-0.22-0.44c-0.44,0-0.44-0.22-0.44-0.22
		c0-0.22-0.44,0-0.44,0c-0.44-0.44-1.1-0.88-1.1-0.88c-0.22-0.22,0-0.88-0.44-0.88l-0.66-0.22l-0.22-0.22l-0.66,0.66
		c0-0.22-0.22-0.66-1.1-0.88l0.22-0.22c-0.22,0.22-0.44,0-0.44,0c-0.88,0-1.1-0.22-1.32,0.22c-0.44,0.44-0.88,0.66-1.54,0.66
		l-0.22,0.88c-0.22,0.22-0.44,0.44-0.22,0.66l-0.22,1.1v0.66c0.44,0.44,0.88,1.1,1.32,1.32l-0.22,0.66l-0.22,0.22l-0.88-0.44
		c-0.22,0.22-0.44,0.44-0.88-0.22c0.22,0,0.44-0.66,0.22-0.44c0,0,0-0.66-0.44-0.88c0,0,0.22-0.66,0-0.44v-0.66
		c0.22-0.44,0.22-0.88,0.22-0.88v-0.22c-0.22-0.44,0-0.66,0-1.1v-0.44c0.22,0,0.22-0.66,0.66-0.66c0,0,0.22-0.66,0.44-0.88
		c0.88,0,1.1-0.22,1.54-0.22l0.22-0.66c0.44-0.44,1.1,0,1.32-1.1c0-0.22,0.44-0.22,0.88-0.44l0.22-0.88c0,0,0-0.66,0.22-0.88
		c0-0.22,0.22-0.44,0-0.88c-0.66,0.66-0.66-0.22-0.88,0.44c-0.44,0.22-0.44,1.1-0.66,1.32c0.22,0.44-0.22,0.88-0.22,0.88l-2.2,1.1
		l-0.66,0.44c-0.22,0.44-0.66,0.66-1.32,1.1l-0.22,0.44c0,0,0,0.66-0.22,0.44c0,0.44-0.22,1.1,0,0.88l-0.44,1.32v0.44l0.44,0.22
		l-0.22,0.66c0,0,0,0.44,0.44,0.66l-0.22,0.44c0,0.66-0.22,0.66,0.22,0.88c-0.22,0.22-0.22,0.66-0.22,0.66v0.44l-0.44,0.44
		c0-0.22,0-0.22-0.66-0.22l-0.22-0.66c-0.22,0.22-0.44,0-0.66-0.66h-0.44v-0.66c0-0.22-0.44-0.88-0.44-0.88l0.22-0.22v-0.66
		c0-0.22,0.22-0.88,0.66-1.76v-0.44l0.22-0.88c0-0.22,0-0.22,0.22-0.66c-0.22-0.22,0-0.66,0-1.1v-1.54c0,0,0.22-0.44,0-0.44
		c-0.22-0.66-0.44-1.1-0.66-1.1c-0.22-0.44-0.44-0.44-0.66-0.66l-0.22,0.22l-0.22-0.22c-0.44,0-0.44,0.44-0.44,0.44
		c0.22,0.44,0.66,0.44,0.66,0.44l0.22,1.1v0.88c0.44,0.66,0,1.1,0,1.32l-0.22,0.66v1.54c0,0.22-0.44,0.22-0.44,0.44
		c0,0.66,0.22,0.66,0.22,1.54v0.66c-0.44,0-0.44,0.22-0.22,0.44v0.88c0,0.22,0.22,0.22,0.22,0.88v0.22c0,0,0.44,0.22,0.44,0.44
		l1.1,1.1l-0.22,0.22h0.44l-0.22,0.22c0,0.44-0.44,0.66-0.66,0.44c0.22,0.22-0.44,0-0.88-0.22c0,0-0.44-0.44-0.44,0h-1.54
		c-0.44,0-0.66-0.22-1.1,0c-0.66,0.22-0.66,0-1.1,0.88c-0.66,0-1.1,0-1.32,0.22c-0.66,0.22-0.88,0.22-1.32,1.1
		c-0.88,0.22-1.54,0.88-2.42,1.32l-3.3,2.2c-0.66,0-1.1,0-1.32,0.22c-0.44,0.66-0.66,0.44-1.32,0.44v0.22
		c0.22,0-0.22,0.22-0.22,0.66l0.22,0.22h0.88c0.22,0,0.44-0.22,0.66,0l0.88-0.66c1.32-0.88,2.86-1.54,4.4-2.42
		c0.66-0.88,1.54-1.32,2.2-1.76c0.44,0,0.88-0.22,1.1-0.44c0.66-0.22,1.1-0.44,1.76-1.1c0,0,0.22,0,0.66,0.44l0.44-0.66l0.88,0.22
		c0.22-0.22,0.66-0.22,0.66-0.22l0.88,0.44h-0.22c0,0-0.66,0.22-0.88-0.22c0.22,0.22,0,0.88,0,0.88c-0.22-0.66-0.44,0-0.44,0
		l-0.22-0.44c-0.66,0-0.66,0-0.88,0.44c-0.44-0.44-0.88,0-1.1,0.22c-0.88,0.66-1.76,0.88-2.86,1.32c-0.44,0.44-0.44,0.88-0.66,1.1
		c-0.22-0.22-0.88,0.66-0.88,0.66l-0.88,0.66c0,0-0.22,0.44-0.22,0.66c-0.22,0.22-0.22,0.44-0.88,0.66v0.22l-0.22,0.88l-0.22,0.44
		v0.22v0.44c-0.22,0.22,0,0.44-0.44,0.44c-0.22,0.66,0.66,0.66,0.22,0.66h-0.22v0.22l0.22,0.22c0,0-0.44,0.88,0,0.88v1.32l0.44,0.22
		l0.22,0.66l0.44,0.44v0.44h0.22l1.1,0.22l0.88,0.44c0.44,0,0.44,0,0.44-0.22l0.88-0.22c0.22,0,0.22,0,0.22,0.44
		c0.22,0.44,0.44,0.66,0.22,1.1c0.22,0.22,0.22,0.88,0.44,1.1c0.44,0.88,0.44,1.32,1.32,1.76l0.66,0.44h0.44h0.66l0.66,0.44
		c0.66,0,0.66-0.44,1.1-0.44c0,0,0.22,0,0.66-0.22c0.44-0.66,0.66-0.66,1.1-0.22l-0.22-0.44l0.66,0.44l0.66,1.76
		c0,0,0.88,0,1.1,0.22v0.44h0.22c0.22-0.22,0.66-0.22,1.1,0h0.44c0.44,0,0.88,0.44,0.88-0.44c0.66,0,0.66,0.22,1.32,0l0.22-0.66
		c0.66,0.44,0.66-0.66,1.54-0.88c-0.22,0,0.22-0.44,0.22-0.22l0.22-0.88c0.44-0.66,0.66-0.66,0.88-1.1v-1.1l0.44-1.1l0.44-1.76
		c0.22-0.22,0.22-0.22,0-0.44c0-0.22,0.22-0.44,0-0.44c0.22-0.66,0-1.1,0-1.1v-0.88c0.12-0.12-0.09-0.24-0.2-0.29
		c0.04,0.01,0.09,0.04,0.2,0.07c-0.44-0.44-0.22-0.66-0.44-1.1c0.22-0.44,0-0.66-0.22-1.1c-0.44-0.22-0.22-0.66-0.22-0.66
		c-0.22-0.66-0.22-0.66-0.66-1.32v0.44l-0.22,0.66h0.44c-0.44,0.22-0.44,0.22-0.44,0v0.22l0.44,0.22c0,0.44,0.22,0.88,0.22,0.88
		c0.22,0.22,0.88,0.88,0.44,0.88h-0.22c0.22,0.88,0.44,1.76,0.22,2.64c0.44,0,0.44,0,0.22,0.22l-0.22,0.44v0.66
		c0.22,0.22,0,0.66,0,0.66v0.22c-0.22,0-0.22,0.66-0.44,1.1v1.1l-0.22,0.22l-0.22,0.22c0,0.44-0.22,0.88-0.22,0.88
		c0.22-0.44-0.22-1.1,0.22-1.32c0-0.66-0.44-0.66-0.22-0.88l-0.22-0.22v0.22c0,0.22,0,0.44-0.22,0.88c0,0.44-0.22,0.88,0,1.1
		l-0.88,1.76h-0.22l-0.22,0.44c0,0-0.22,0.22-0.44,0.22c-0.22-0.66-0.22-1.54-0.44-1.76l0.22-0.22l0.22-0.44l0.22-0.88
		c0.22,0,1.1-6.38,0.66-10.12c0.22,0.22,0.22-0.22,0.66,0l0.22-0.22c0.44,0.22,0.66,0,0.66,0.22l-0.22-0.66h0.44l-0.22,0.22
		c0.66,0.22,0.44,0.66,0.66,0.66c0.44,0.66,0.66,1.1,1.32,1.76c0,0.22,0,0.44,0.22,0.88v0.44c-0.22,0.44-0.22,0.44,0.22,0.44
		l-0.22,0.66l0.22,0.44c-0.44-0.22-0.22,0.22-0.22,0.22c0.44,0,0.22,0.22,0.22,0.66l-0.22,0.22c-0.22,0.22,0,0.44,0.44,0.44
		c-0.66,0.22-0.22,0.88-0.22,1.1v0.22l-0.22,0.88v0.44c0,0.22,0,0.66-0.22,0.88c0.22-0.22,0.22,0.66,0.22,1.32
		c0.22,0.22,0.22,0.66,0.22,0.66l-0.22,0.44l0.22,0.22c-0.44,0.66,0,0.66-0.22,0.88l0.22,0.44l-0.44,0.88
		c0.66,0.44,0.66,0.44,0.22,0.88c0.44,0.44,0.44,0.44,0.22,0.44l0.22,0.88h0.22c0.44-0.44,0.66-0.66,0.88-0.66h0.22
		c0-0.88-0.88-0.88-0.88-1.32c0.44-0.44,0.44-0.66,0.44-0.88c-0.44-0.22-0.44-0.22,0-0.66l-0.22-0.66c0,0,0.22-0.22-0.22-0.88v-0.44
		c0.22,0,0.22,0-0.22-0.66l0.22-0.44l0.22-0.88c-0.22-0.44-0.22-0.66,0-1.32v-0.66l0.22-0.66v-0.44l-0.22-0.44
		c0.22,0,0.22,0-0.22-0.66v-0.44l0.22-0.66c0-0.22,0-0.44-0.44-0.88l0.22-0.66l-0.44-0.66c0.22-0.66,0-0.66-0.22-0.88
		c-0.44-0.66-0.44-1.32-1.1-1.98c0-0.22-0.44-0.44-0.44-0.44l-0.44-0.22v-0.44l0.22-0.22l0.66,0.22l0.88,0.22
		c0.22,0,0.66-0.66,0.66-0.44c0.66-0.22,0.66,0,0.88-0.22c1.1-0.44,1.76-1.32,2.42-1.32h0.44c-0.22-0.44,0-0.44,0.22-1.1
		c0,0,0.44-0.22,0.66,0c0-0.22,0.66-0.66,0.66-1.1c0.22,0,0.44-0.22,0.44-0.22c0-0.44,0.66-0.44,0.88-0.88
		c0.66-0.44,0.88-0.22,1.76-0.66c0,0.22,0.66,0,0.66,0c0.44,0.22,0.44,0.22,0.44,0l0.22-0.66
		C1278.9,672.33,1279.12,671.67,1278.68,671.89z M1248.32,679.81c0.66-0.66,0.88-0.88,1.54-1.54h0.22v-0.44h0.22l0.22-0.22
		c0.22,0,0.44,0,0.44-0.22c0.88-0.44,1.54-1.1,2.64-1.54c0.44,0.44,0.44,0.44,0.66,0h0.22l0.22-0.22l0.44,0.22c0-0.22,0-0.22,0.22,0
		c0-0.22,0.22-0.22,0.44-0.22h0.22l0.88,0.22l-4.84,2.2c-0.44-0.22-1.1,0.22-1.32,0.44l-0.22,0.44c-0.22,0-0.22,0.22-0.44,0.44
		l-0.22-0.22c-0.22,0.22-0.22,0.22-0.44,0.22c-0.44,0-0.44,0.22-0.66,0.44h0.22l-1.1,0.66c0,0.22-0.44,0.22-0.22,0.22h-0.22
		L1248.32,679.81z M1247,681.79c-0.22-0.22,0,0,0.22-0.22c0.66-0.44,0.66-0.44,0.66-0.66c0.66-0.22,0.88-0.22,0.88-0.66
		c0.22-0.22,0.66-0.22,0.88-0.22l0.22-0.22l0.22-0.22c0.44,0,0.66-0.44,0.88-0.44v-0.22c0.22-0.22,0.88-0.44,1.1-0.66l4.62-1.98
		v0.44h-0.22c-3.3,1.76-7.92,5.28-7.92,5.28l-0.44,0.88v0.66l-0.44,0.22c-0.44-0.22-0.88,0.22-1.32,0.44
		C1246.34,683.33,1246.56,682.67,1247,681.79z M1248.54,683.11v-0.44h0.44l4.4-3.3c-0.66,0.88-1.32,1.98-1.54,3.74
		c-0.44,0.66-0.44,1.98-0.66,2.42h-0.22l-0.66-0.22l-0.88,0.44c0,0-1.1,1.32-1.98,1.54c0-0.22,0-1.1,0.44-1.32
		c0.22-0.22,0.22-0.22,0.22-0.44c0,0,0.22-0.22,0.44-0.88C1248.76,684.43,1248.54,683.11,1248.54,683.11z M1246.78,687.07v-0.22
		c-0.44-0.66-0.66-1.54-0.44-2.2c0.44-0.22,1.32-0.44,1.32-0.44v-0.22l0.66-0.22c-0.44,0.22-0.22,0.66-0.22,0.88
		c-0.22,0.44,0,0.66-0.44,0.66l-0.22,0.22C1246.78,686.19,1247,687.07,1246.78,687.07z M1257.12,680.03c0,0.22,0,0.22-0.22,0.44
		c0.22,0.22-0.22,0.22-0.22,0.22c0.44,0.44,0.44,0.44,0.22,0.44c0,0,0,0.22-0.22,0.66l-0.22,0.66c0,0-0.44,0,0,0.44l-0.66-0.22
		c0.22,0.66-0.66,1.32-1.1,1.76c0,0.22,0.22,0,0,0.22l-0.44,0.44l-0.22,0.44c-0.88,0.66-0.66,1.1-1.32,1.1
		c-0.22,0.66-0.66,1.1-0.88,0.66c-0.22,0.44-0.66,0.44-0.66,0.88l-0.66-0.22h-0.22c-0.22,0.22-0.88,0.44-0.88,0.44
		c-0.88,0.44-1.1-0.22-1.98-0.22c0,0,0-0.22-0.22-0.22c1.32-0.66,2.42-1.76,2.86-1.98l0.66-0.22l0.66,0.44h0.22
		c0-0.22,0.44-2.86,1.32-5.28c0,0.66,0,1.76-0.22,2.2c-0.22,0.66-0.22,1.76,0.22,1.98l0.22-0.22c0-0.44-0.22-1.32,0-1.76
		c0.22-0.44,0.22-1.54,0.44-1.98l-0.22-0.22c0.22-0.44,0.22-0.66,0.22-1.1l1.1-1.32v-0.22c0.44-0.22,0.66-0.22,0.66-0.22
		c-0.22,0.22-0.22,0.66-0.22,1.32c0,0,0,0.22,0.44,0.44l-0.44,0.22l-0.22,0.44c0.22,0,0.22,0.22,0.66,0.66l-0.22,0.22l0.22,0.22
		h0.44c0-0.44-0.22-0.44-0.22-0.66c-0.22-0.22-0.22-0.44-0.22-0.66v-0.22h0.22v-1.1c-0.22-0.22,0-0.88,0-0.88v-0.22
		c0.22-0.44,0.44-0.22,0.44-0.22l0.22,0.22v0.66h0.22v0.44l0.22,0.22v0.22l0.22,0.22V680.03z M1266.14,692.13l-0.22,0.66
		C1265.92,692.57,1265.92,692.35,1266.14,692.13z M1262.18,694.99c-0.22-0.44-0.66-0.22-0.88,0v0.22l-0.44,0.22h-0.44l0.22-0.44
		c0.66-0.22,0.66-1.1,1.32-1.76h0.22c0-0.22,0-0.44,0.44-0.66l0.44-0.66v0.66c0,0,0.44,1.1,0.44,1.98
		C1262.84,694.55,1262.62,694.99,1262.18,694.99z M1263.94,690.59v0.66c0,0-1.32,0.66-1.98,0.88c-0.22,0.22-0.22,0.66-0.22,1.1v0.22
		c-0.66,0.66-0.66,0.88-1.32,0.88l0.22-2.42l0.44-0.66l-0.22-0.88l-0.66-0.22c0.44,0,1.1-0.66,1.54-1.32
		c1.32-1.32,2.2-2.64,2.86-3.3C1264.38,687.95,1263.94,690.37,1263.94,690.59z M1261.74,684.21c0.66,0.22,0.66,0.22,0.88,0
		c0.22-0.22,0.22-0.22,0.66,0l-0.22-0.22l0.44-0.44c0.44-0.22,0.66-0.22,0.88-0.66c0,0,0.22,0.44,0.22,0.66v0.22
		c0,0.44-0.22,1.1-0.66,1.54c-0.22,0-0.66,0.44-0.88,0.44l-0.22,0.22c-0.66,0.66-1.1,1.1-1.76,1.76c-0.44,0.22-1.1,0.44-1.32,0.88
		c0.22,0,1.32-0.22,1.54-0.66c0.66-0.66,1.1-1.1,1.76-1.54c-1.32,1.98-3.3,3.96-3.3,3.96l-0.22,0.22l0.66,0.22l0.22,0.44l-0.22,0.44
		c0,0-0.22,1.98-0.22,3.08c-0.22,0-0.44-0.22-0.88-0.88c0.22,0,0,0-0.22-0.22c0.22-0.22,0.44-0.44,0.22-0.66
		c-0.22-0.22-0.66-0.44-0.66-0.66l0.22-0.22c0.44-0.44,0-0.66-0.22-1.1h0.22c0-0.22-0.22-0.44-0.22-0.88c0-0.44,0.22-1.1,0.22-1.32
		l0.22-0.44v-0.88l0.44-0.66v-0.22c0-1.32,0.88-2.64,1.98-3.74l0.66-0.66c0.22-0.22,0.88,0,1.1-0.44c0.66,0.22,0.88-0.44,1.32-0.66
		c0.44,0.22,0.22,0.66,0,0.88v0.22c0,0.44-0.44,0.66-0.88,0.88c-0.44,0.44-0.22,0-0.88,0.44l-0.22,0.44h-0.44h-0.44l-0.22,0.22v0.22
		C1261.74,684.43,1261.74,684.21,1261.74,684.21z"/>
	<path class="st0" d="M1127.13,557.51C1127.11,557.52,1127.11,557.53,1127.13,557.51L1127.13,557.51z"/>
	<path class="st0" d="M1228.3,444.56v-0.44l0.66,0.44l1.32,1.32c0,0,0.66,0,0.88-0.22l0.22,0.22c0.22,0,0.22,0,0.22,0.22
		c0-0.44,0.66-0.44,0.88-0.44s0.66-0.22,0.66-0.22c0.44,0,0.66,0,0.66-0.66c0.44,0,0.66,0,0.88-0.66l0.22-0.44
		c0.66,0,0.44-0.88,1.1-1.32c0-0.22,0-0.44,0.22-0.44l-0.22-0.66c0.22-1.1,0.44-1.1,0.44-1.54l-0.22-1.1l-0.44-2.64
		c0-0.44,0-0.44-0.22-0.66c0-0.22,0.22-0.44,0-0.44c0-0.44-0.44-0.88-0.44-0.88c0-0.22-0.22-0.44-0.22-0.88c0-0.22-0.44-0.44,0-0.44
		c-0.66-0.22-0.66-0.44-0.88-0.66c0-0.66-0.22-0.66-0.66-1.1c-0.22,0-0.44-0.44-0.44-0.44c-0.44-0.66-0.44-0.66-0.88-1.1v0.44v0.66
		h0.44c-0.44,0.22-0.44,0.22-0.44,0v0.22l0.44,0.22c0,0,0,0.22,0.22,0.22v-0.22l0.44,0.66c0.22,0.22,0.22,0.88,0.66,0.66l-0.22,0.22
		c0.66,0.44,0.88,1.32,1.32,2.2c0.22,0,0.22,0,0.22,0.22v0.44v0.66l0.44,0.44v0.22v1.32c0.22,0.44,0.22,0.66,0.22,1.1v0.22
		c0,0.22,0,0.22-0.22,0.44c0.22,0.44,0.22,0.66,0.22,0.66c0-0.22-0.44-0.88-0.44-1.1c0-0.44-0.22-0.66-0.22-0.88v-0.22l-0.44-0.66
		v-0.44v-0.22c-0.22-0.22-0.22-0.44-0.22-0.66c0,0-0.22-0.22-0.22-0.44c0-0.44-0.22-0.66-0.44-0.88l-2.42-4.84
		c0.22,0,0.44,0,0.66-0.22l-0.44-0.22l0.44-0.44v0.22c0.44,0,0.44,0.44,0.66,0.44c0.44,0.66,1.1,0.66,1.98,1.32
		c0,0.22,0,0.44,0.22,0.88l0.22,0.22c0,0.22,0,0.22,0.44,0.44v0.44l0.22,0.22c-0.22,0.22,0,0.22,0,0.22c0.22,0.22,0,0.22,0.22,0.66
		l0.22,0.44c0,0.22,0,0.44,0.44,0.44c-0.44,0.22,0,0.66,0,0.88l0.44,0.22v1.54c0.22,0,0.44,0.44,0.22,0.66
		c0.22,0,0.66,0.44,0.66,0.88c0,0.22,0.44,0.66,0.44,0.66v0.88h0.22c0.22,0.66,0.44,0.66,0.22,0.88l0.22,0.22v0.88
		c0.44,0.44,0.44,0.44,0.66,0.88c0.44,0,0.44,0.22,0.44,0.44l0.22,0.44h0.22c0.44-0.44,0.66-0.66,0.88-0.66v-0.22
		c-0.44-0.66-1.1-0.66-1.1-1.1c0-0.44,0-0.88-0.22-0.88s-0.22,0-0.44-0.22v-0.66c0,0,0-0.44-0.44-0.88l-0.22-0.44
		c0-0.22,0-0.22-0.44-0.44v-0.88l-0.22-0.66c-0.22-0.44-0.22-0.66-0.22-1.1c-0.22,0-0.44-0.66-0.44-0.88v-0.66h-0.22
		c0-0.22,0-0.22-0.44-0.44c0.22-0.22,0.22-0.22-0.22-0.66c-0.22,0,0-0.22-0.22-0.44v-0.66l-0.88-0.88v-0.44
		c0-0.22-0.22-0.22-0.66-0.66c0-0.44-0.22-0.44-0.44-0.66c-0.66-0.44-0.88-1.1-1.98-1.54c0-0.22-0.22-0.22-0.44-0.22h-0.44v-0.88
		h1.54c0.22,0,0.22-0.66,0.66-0.66c0.22-0.22,0.66-0.22,0.66-0.44c0.88-0.88,1.1-1.76,1.76-2.2h0.22c-0.22-0.22,0-0.44,0-0.88
		c0-0.22,0-0.44,0.44-0.66c0-0.22,0.44-0.66,0.44-1.1c0-0.22,0.22-0.22,0.22-0.44c0-0.44,0.44-0.66,0.66-0.88
		c0.22-0.88,0.66-0.88,1.32-1.54c0.22,0.22,0.66-0.22,0.66-0.22c0.22,0,0.44,0,0.44-0.22l-0.22-0.66c0,0,0.22-0.44-0.22-0.22
		c-0.22,0.22-0.88,0.22-0.88,0.44c-0.22-0.22-0.44,0-0.44,0c0,0.22-0.66,0.44-0.88,0.88c-0.22,0.22-0.66,0.88-0.66,1.32
		c-0.22,0.22-0.66,0.66-1.1,1.54v0.22c-0.22,0.44-0.22,0.88-0.44,1.1c-0.44,0-0.66,0.22-0.66,0.44c0,0.66-0.44,1.1-0.66,1.54h-0.22
		l-0.44,0.88c0,0-0.66,0.22-0.66,0.44c-0.22-0.22-0.66,0-0.88,0l-0.88,0.22c0-0.22-0.44-0.22-0.44-0.44
		c0.44-0.22-0.22-0.66-0.44-0.66h0.22c0,0,0.44-0.44,0.44,0c0-0.44,0-0.44,0.44-0.66c0-0.22,0.44-0.88,0.44-0.88
		c0.88-0.44,1.32-1.32,1.76-2.2l0.22-0.44c0.22,0,0.22-0.22,0.66-0.44l0.22-0.88l-0.22-1.32c0-0.22,0-0.22-0.44-0.88
		c0.22,0,0-0.44,0-0.44c-0.44,0,0-0.22-0.44-0.44l-0.22-0.66c0-0.22,0-0.22-0.22-0.44v-0.44c0-0.44-0.22-0.44,0-0.66
		c-0.44-0.22-0.22-0.66-0.44-0.66c0.22-0.22,0.44-0.44,0.22-0.44l0.22-0.22c0,0,0-0.44,0.22-0.66c0.22,0,0-0.22-0.44-0.44
		c-0.22-0.22-0.22-0.22-0.44,0l-0.22,0.22c-0.22,0.44,0,0.66-0.22,1.1v0.66l0.22,1.32v0.88c0.44,0,0.44,0.44,0.66,0.66
		c0,0.22,0.22,0.66,0.22,0.66l0.22,1.1v0.88l0.22,0.44c-0.22,0.44-0.22,0.66-0.66,1.1c-0.66,0.88-1.76,1.54-2.2,2.64
		c-0.22,0.22-0.44,0.22-0.66,0.66v-0.44c-0.44,0-0.44,0-0.66-0.22c-0.22-0.22-0.44,0-0.66-0.22l-0.44-0.44h0.44
		c0.44-0.22,0.44-0.22,0.66-0.22c0.44,0,0.66,0,0.88-0.44c0.44,0,0.44-0.22,0.88-0.44c0.22-0.22,0.22-0.66,0.44-1.1
		c0.44-0.22,0.44-0.22,0.44-0.66h0.22c-0.22,0-0.22-0.44-0.22-0.66c0-0.66-0.22-0.88-0.66-1.32c0.44,0-0.22-0.44-0.22-0.44
		c-0.22,0-0.22-0.44-0.22-0.66c-0.22-0.22-0.44,0-0.44,0c-0.44,0-0.44-0.44-0.44-0.44c0-0.22-0.44,0-0.44,0h-1.1
		c-0.44-0.22-0.44-0.88-1.1-0.88h-0.44l-0.44,0.22l-0.44,0.44c-0.22,0-0.44-0.44-1.1-0.22v-0.22c0,0.22-0.66,0.22-0.66,0.22
		c-0.66,0-0.88,0-1.1,0.44c0,0.66-0.44,0.88-0.88,1.32c0,0.44-0.22,0.44,0,0.88c0,0.44-0.22,0.44,0,0.66l0.22,1.1
		c0,0.22,0.22,0.66,0.22,0.66c0.44,0.44,1.1,0.66,1.54,0.88l0.22,0.44v0.22l-1.1,0.22c0,0.22-0.44,0.66-0.66,0
		c0-0.22,0-0.66-0.22-0.66c0,0-0.22-0.44-0.66-0.66c0,0,0-0.44-0.22-0.22v-0.66l-0.44-0.66v-0.66c-0.22,0-0.22-0.44-0.44-0.88v-0.44
		c0.22,0,0-0.44,0.22-0.66c0-0.22,0-0.88,0.22-0.88c0.66-0.66,0.88-0.88,1.32-1.1v-0.44c0.22-0.44,0.88-0.66,0.88-1.54
		c0-0.22,0.44-0.44,0.44-0.66V412c0-0.22-0.22-0.88,0-0.88c-0.22-0.22,0-0.88-0.44-0.88c-0.44,0.44-0.66,0.22-0.66,0.66
		c-0.22,0.44,0,1.1,0,1.32c0.22,0.22,0,1.1,0,1.1l-1.76,1.76l-0.22,0.66c-0.22,0.44-0.66,0.66-0.88,1.32v0.44c0,0,0,0.66-0.22,0.66
		c0,0.44,0.22,0.88,0.44,0.88v1.1l0.22,0.66l0.44,0.22v0.44c0,0,0,0.44,0.44,0.66v0.22l0.22,0.22c0.22,0.44,0,0.66,0.22,0.66
		s0.22,0.44,0.22,0.44l0.22,0.66l-0.44,0.66c0-0.22,0-0.22-0.44,0l-0.44-0.44c-0.22,0-0.44,0-1.1-0.44h-0.44v-0.66l-0.66-0.66v-0.22
		l-0.22-0.44c0-0.44,0-1.1-0.22-1.76v-0.66v-0.88c-0.22-0.44-0.22-0.44-0.22-0.88c0-0.22,0-0.66-0.66-0.88v-1.32
		c-0.22,0-0.44-0.44-0.66-0.44c0-0.66-0.44-0.88-0.66-1.1c-0.22,0-0.44,0-0.88-0.22v0.22h-0.44c-0.22,0.22-0.22,0.44-0.22,0.44
		c0.22,0.22,0.66,0.22,0.66,0.22c0,0.44,0.66,0.88,0.88,1.1l0.22,0.66c0.22,0.44,0.44,0.88,0.44,1.32v0.66
		c0,0.22,0.22,0.44,0.66,1.32c-0.44,0-0.44,0.44-0.44,0.66c0.22,0.66,0.66,0.66,0.66,1.32c0,0,0,0.44,0.22,0.66
		c0,0.22,0,0.44,0.22,0.88c0.22,0.22,0,0.22,0.22,0.44c0,0.22,0.44,0.22,0.66,0.66v0.22l0.66,0.44c0,0,0.88,0.22,0.88,0.44
		l0.22,0.22h0.22l0.22,0.44c0,0.44-0.22,0.66-0.44,0.44c0,0.22-0.44,0.22-0.88,0.22c-0.22,0-0.66-0.44-0.66,0l-1.54,0.66
		c-0.22,0-0.44,0-0.88,0.22c-0.22,0.66-0.44,0.66-0.66,1.1c-0.66,0.44-1.1,0.66-1.1,0.88c-0.44,0.44-0.66,0.66-1.1,1.54
		c-0.44,0.88-0.88,1.54-1.54,1.98c-0.88,1.54-1.54,2.42-2.42,3.52c-0.66,0-0.88,0.22-1.1,0.66c0,0.44-0.44,0.44-0.88,0.88
		l-0.22,0.22c0.22,0,0,0.22,0.22,0.66h0.22l0.66-0.22c0.22,0,0.44-0.44,0.66-0.44l0.88-0.88c0.88-1.1,1.98-2.64,3.3-3.96
		c0-0.88,0.88-1.76,1.1-2.2l1.1-1.1c0.66-0.22,0.66-0.66,1.1-1.32h0.66l0.44-0.66l0.88-0.22c0-0.22,0.44-0.22,0.44-0.22h1.1
		c-0.22,0.22-0.44,0-0.44,0.22c0,0-0.22,0.22-0.66,0v0.66c-0.44-0.44-0.44,0-0.44,0h-0.22c-0.66,0.22-0.66,0.22-0.88,0.66
		c-0.22,0-0.88,0.22-0.66,0.44c-0.66,1.1-1.54,1.76-2.2,2.64c-0.22,0.22-0.22,0.88-0.44,1.1c-0.22,0-0.22,0.88-0.22,0.88
		c-0.44,0.22-0.66,0.66-0.66,0.88v0.66c-0.22,0.44-0.22,0.88-0.66,1.1v0.22l0.22,0.88v0.22c-0.22,0,0,0.22-0.22,0.44l0.22,0.44
		c0,0.44,0.22,0.44,0,0.66c0,0.44,0,0.44,0.22,0.66h-0.22l0.44,0.44c0,0,0,0.66,0.44,0.44v0.44c0.22,0.22,0.22,0.22,0.22,0.66
		l0.66,0.44l0.44,0.44c0,0,0.44,0.22,0.66,0.22v0.22h1.32l0.88-0.22c0.44,0,0.44,0,0.44-0.22c0.66,0,0.66-0.44,0.66-0.44
		c0.44-0.22,0.44-0.22,0.44,0.22c0.44,0.44,0.66,0.66,0.88,1.1c0.22,0,0.22,0.88,0.66,0.88c0.44,0.44,0.88,0.88,1.76,1.32
		c0.22,0,0.44-0.22,0.88-0.22h0.88l0.88-0.22c0.66,0,0.44-0.44,0.88-0.44c0-0.22,0.22-0.22,0.44-0.66
		C1227.64,444.56,1228.08,444.56,1228.3,444.56z M1214.44,436.42c0.22-0.22,0.44-0.66,0.22-1.1c0.44-0.44,0.66-0.88,0.88-1.76
		l0.22-0.22v-0.44h0.22v-0.22c0.22,0,0.44-0.22,0.44-0.44c0.44-0.66,1.1-1.54,1.98-2.2h0.22c0.22,0,0.22,0,0.22-0.22l0.22-0.22
		l0.22-0.22h0.44c0-0.22,0-0.22,0.22-0.22c0-0.22,0.22-0.22,0.44-0.22h0.22c0.44-0.22,0.66-0.22,0.66-0.22l-3.52,3.74
		c-0.44,0.22-0.88,0.66-1.1,1.1c0,0-0.22,0,0,0.22l-0.44,0.66h-0.22c-0.22,0-0.22,0.22-0.44,0.44c-0.22,0.22-0.22,0.44-0.44,0.44
		v0.22c0,0.22-0.22,0.66-0.22,0.66c-0.22,0.22-0.44,0.22-0.44,0.44C1214.22,436.42,1214.44,436.42,1214.44,436.42z M1214.22,437.96
		c0-0.22,0.22-0.22,0.22-0.44c0.22-0.44,0.44-0.66,0.44-0.88c0.44-0.44,0.66-0.44,0.66-0.88c0-0.22,0.22-0.66,0.44-0.66l0.22-0.22
		l0.22-0.22c0.44-0.22,0.44-0.44,0.66-0.66v-0.22c0-0.22,0.44-0.88,0.66-1.1l3.52-3.52v0.44l0.22,0.22c-2.42,2.86-5.5,7.7-5.5,7.7
		l-0.22,1.1v0.44l-0.22,0.44c-0.22,0-0.66,0.44-1.1,0.66C1214.22,439.5,1214.22,438.62,1214.22,437.96z M1216.2,440.16
		c0,0.22,0,0.44-0.22,0.66l0.22,0.22c-0.22,0.88-0.22,1.54,0,1.98l-0.44-0.22c-0.44-0.66-0.88-1.32-1.32-2.2
		c0.66-0.22,1.32-0.66,1.32-0.66v-0.22l0.44-0.44C1216.2,439.5,1216.42,439.94,1216.2,440.16z M1216.2,438.4v-0.22l0.22-0.44
		c0.22-0.22,1.32-2.2,2.86-4.4c-0.22,1.1-0.22,2.42,0,3.96c-0.22,1.1,0.22,2.2,0.22,2.64h-0.88l-0.66,0.66c0,0-0.66,1.54-1.32,2.2
		c-0.22-0.44-0.22-1.1,0-1.54v-0.44c0,0,0.22-0.22,0.22-0.66C1216.86,439.5,1216.2,438.4,1216.2,438.4z M1223.46,435.32l-0.44,0.22
		c0,0.66-0.22,1.32-0.44,1.98c0,0.22-0.22,0.22-0.22,0.22s0,0.22,0.22,0.22l-0.22,0.44l-0.22,0.22c0,0-0.22,0,0,0.22
		c-0.44,0.66-0.44,1.1-0.88,1.76c0,0.44,0,0.66-0.44,0.88c0,0.22-0.44,0.44-0.44,0.66h-0.44l-0.44,0.44l-0.44,0.66
		c-0.66,0.44-1.32,0.22-1.98,0.22h-0.44c0.88-0.88,1.76-2.64,1.98-2.86v-0.22l0.66-0.22l0.66,0.22v-0.22c0-0.22-0.66-3.08-0.44-5.72
		v0.22v0.22c0.44,0.66,0.44,1.54,0.44,2.2c0.22,0.66,0.66,1.76,0.88,1.76h0.22l0.22-0.22h-0.22c-0.22-0.22-0.44-1.1-0.66-1.54
		c0.22-0.66,0-1.54-0.22-2.42h-0.22v-1.1c-0.22-0.44,0.22-1.32,0.44-1.54v-0.22c0-0.22,0.22-0.44,0.22-0.44
		c0.22,0.44,0.22,0.88,0.44,1.1c0,0,0,0.44,0.22,0.44v0.22c0.22,0.22,0.22,0.22,0.22,0.44c0,0.22,0.22,0.44,0.44,0.66
		c0,0,0,0.22,0.22,0.22v0.22l0.66-0.22h-0.22c0-0.44-0.22-0.44-0.44-0.66c-0.22,0-0.22-0.22-0.22-0.44l-0.22-0.22v-0.22
		c0-0.22,0-0.44-0.22-0.88c0-0.22-0.44-0.88-0.44-1.1l0.22-0.22c0-0.22,0.22-0.22,0.22-0.22l0.22,0.22l0.22,0.44v0.22h0.22
		c0.22,0.22,0.22,0.44,0.44,0.44v0.22l0.22,0.22l0.22-0.22v0.88c0,0.22,0.22,0.44,0.22,0.44c0.22,0.22,0.22,0.22,0.22,0.44
		c0,0,0,0.22-0.22,0.44v0.66C1223.24,434.88,1223.02,435.32,1223.46,435.32z M1231.38,444.78l-0.66-2.42l-0.22-0.66l-0.44-0.66
		h-0.44c0.44-0.44,0.66-1.1,1.1-2.2c0.66-1.54,0.88-2.86,1.32-3.74c0.66,2.42,1.1,4.62,1.32,5.06v0.44c0,0-1.1,1.1-1.32,1.76v0.88
		v0.22C1232.04,444.12,1231.82,444.56,1231.38,444.78z M1233.14,444.56c-0.44,0.22-0.66,0.44-0.88,0.44v0.66h-0.44l-0.22-0.22
		c0.44-0.66,0.66-1.32,0.66-1.98l0.22-0.22c0-0.22,0-0.44,0.22-1.1c0,0,0-0.44,0.22-0.66l0.44,0.66c0,0,0.44,0.88,1.1,1.76
		C1233.8,444.12,1233.58,444.56,1233.14,444.56z M1230.94,430.26l0.22-0.22l2.42,4.84c0,0.44,0.22,0.66,0.22,1.32l0.22,0.22v0.88
		c0,0,0.22-0.22,0.22,0c0.22,0,0.22,0.22,0.22,0.44s0.22,0.22,0.44,0.44v0.22v0.88c0,0.44,0.22,0.88,0.22,1.1
		c0,0.88,0.22,1.54-0.22,1.98v0.44c-0.22,0-0.22,0.22-0.44,0.44l-0.88-1.32l-0.22-0.44l0.44-0.44v-0.88
		c-0.22-0.22-1.54-6.38-3.3-9.68C1230.72,430.48,1230.72,430.26,1230.94,430.26z M1228.08,433.78c0-0.22,0.22-0.44,0.44-0.88
		c0-0.22,0.44-0.22,0.66-0.66c0.66-0.22,0.88-0.66,1.1-1.32c0.44,0.22,0.44,0.66,0.44,0.88v0.22c0,0.44-0.44,0.66-0.66,1.32
		c0,0.22-0.22,0.22-0.44,0.66c-0.22,0.22-0.22,0.22-0.22,0.44h-0.44c-0.22,0-0.44,0-0.44,0.22v0.44l0.22,0.22v-0.22
		c0.22,0,0.44-0.22,0.44-0.22c0.44,0,0.22-0.22,0.44-0.22c0.22-0.22,0.22-0.22,0.44-0.22v-0.22c0-0.22,0.22-0.66,0.44-0.88
		c0.22-0.22,0.44-0.44,0.44-0.66c0,0,0.44,0.22,0.44,0.44v0.22c0.22,0.44,0.22,1.32,0,1.76l-0.66,0.66l-0.22,0.22
		c-0.22,0.88-0.66,1.76-0.88,2.42l-1.1,1.1l-0.22-0.22v0.44h0.22c0.44-0.22,1.32-0.88,1.54-1.1c0-0.88,0.44-1.54,0.88-2.2
		c0-0.22,0-0.22,0.22-0.22c-0.44,2.42-1.98,4.84-1.98,4.84l-0.22,0.44h0.88l0.44,0.44l0.22,0.44c0,0,0.22,1.98,0.66,2.86h-0.22
		c-0.22,0.22-0.44,0-0.88-0.22c0-0.22-0.22-0.22-0.22-0.44c0-0.22,0-0.44-0.22-0.66c-0.44-0.22-0.66-0.22-0.88-0.22v-0.44
		c0-0.22,0-0.44-0.44-0.66l0.22-0.22c-0.44-0.22-0.44-0.44-0.44-0.88c-0.22-0.44-0.22-1.1-0.44-1.32v-1.32l-0.22-0.66v-0.22
		C1227.2,436.64,1227.42,435.1,1228.08,433.78z"/>
	<polygon class="st0" points="1132.38,553.97 1132.6,553.75 1132.16,553.53 	"/>
	<path class="st0" d="M1577.66,659.57l-0.44-1.76l-0.66-1.98l-1.1-1.32l-2.42-2.2l-1.76-1.32l-1.32-1.98l-1.54-0.88l-19.14-17.38
		l-1.32-0.66l-0.66-1.1l-1.76-1.32l-1.54-1.76l-1.32-1.32l-2.64-2.42l-1.32-1.54l-0.44-1.1l-1.76-1.1l-2.2-2.86l-1.1-1.54
		l-0.66-0.88l-0.44-3.96l0.22-1.54l0.44-1.54l-0.22-2.42l1.1-3.3l0.88-1.32l0.22-2.64l1.32-1.1l1.54-3.08l1.1-2.42l0.44-1.1
		l1.32-1.76l0.88-2.2l0.66-1.32l0.66-1.98l-0.22-3.3l0.44-1.98l-1.32-3.3v-1.1l0.22-1.98l-0.88-1.98l-0.44-2.86l-0.22-1.32
		l-1.1-1.98l-1.1-0.66l-1.76-0.88l-1.54-0.88l-1.98-0.44l-2.64-1.1l-1.76-1.1l-1.76-0.88h-1.32l-4.18-0.44h-1.76l-3.96,0.44
		l-1.54,0.88l-1.32,1.54l-1.1,1.32l-1.98,3.3v2.2l-0.88,1.76l-0.88,1.54l-0.88,3.52l-0.44,1.98v5.06l0.22,2.64l0.22,0.88l-0.44,1.76
		l0.66,1.98l-0.44,1.76l-0.22,1.98l-0.88,0.22l-1.98-3.3l-3.08-2.64l-1.1-1.1l-1.1-1.76l-0.88-1.1l-0.88-1.76l-1.54-0.66l-1.1-1.98
		l-1.1-0.88l-1.76-2.2l-2.86-1.54l-0.88-1.54l-1.76-0.88l-3.08-1.98l-1.32-1.76l-1.76-0.66l-1.76-1.54l-1.32-0.88l-1.1-1.98
		l-1.1-0.88l-1.32-1.1l-2.64-2.64l-1.32-1.1l-0.88-1.32l-1.32-1.54l-0.88-0.88l-1.1-1.76l-1.98-1.32l-1.1-1.32l-0.22-0.88l1.76-1.76
		l1.54-1.32l1.98-0.88l2.42-2.42l1.76-0.66l3.3-2.64l1.54-0.88l1.1-1.32l1.54-1.54l1.76-0.88l0.88-1.54l1.76-0.66l1.54-0.88
		l1.54-0.66l3.3-1.32l1.98-1.32l3.74-2.2l1.54-0.88l1.32-1.1l1.1-0.88l2.82-0.88l0.92,1.1l0.66,1.76l0.88,3.96l1.54,1.54l0.88,1.76
		l1.1,1.32l1.1,1.54l0.88,1.1l1.98,1.54l1.32,1.1l0.88,0.88l4.18,1.98h0.88l2.64,1.1l3.74,0.44l1.32,0.22l1.98-0.22l1.54-0.22
		l2.2-0.44l1.1-0.88l1.98-0.88l1.32-0.22l2.2-1.54l2.42-1.76l1.54-1.54l1.1-1.32l0.66-1.76l1.1-1.32l1.54-2.2v-1.76l0.88-1.76
		l0.44-1.54l0.44-2.2l0.88-3.08l-0.22-1.98l-0.66-1.54l-0.22-2.2l-0.22-1.54l-0.66-1.54l-0.22-1.98v-2.2l0.66-1.98l2.64-0.44
		l3.52-1.1l1.32-1.54l2.86-1.76l2.86-1.98l1.54-0.88l0.88-1.54l2.86-2.42l0.44-1.76l0.66-1.98l1.1-3.52l1.1-1.98v-3.3l0.22-1.54
		l0.44-1.76l-0.22-1.98l-0.88-3.52l-0.88-1.76l-0.88-3.08l-3.3-3.08l-0.44-0.88l-1.76-1.54l-1.54-3.3l-1.76-0.66l-1.1-1.54
		l-3.52-1.32l-1.1-0.88l-2.2-0.44l-1.32-0.22l-1.54-0.66l-1.54-0.88l-1.32-0.22l-3.52-0.88l-1.98-0.22h-2.2l-1.76-1.76l-1.1-1.54
		l-0.88-0.88l-1.1-1.54l-1.32-0.66l-4.84-3.3l-2.2-0.44l-1.76-0.66l-1.54-0.22l-3.52-1.1h-2.42l-1.1,0.44l-4.18,0.22l-1.54,1.1
		l-1.32,0.44l-2.42,0.88h-1.1l-3.3,2.42l-1.98,0.88l-1.32,0.88l-1.54,1.98l-3.52,1.98l-1.54,1.76l-1.32,2.86l-0.66,2.42l-0.44,1.1
		l-1.32,2.42l-0.22,1.1l-0.44,1.76l-0.22,2.2l0.44,1.98l-0.44,1.54l0.66,0.66l-1.32-0.22l-2.2-0.22l-1.76-0.22l-1.1,0.88h-1.76
		l-1.32,0.66l-3.52,1.32l-1.32,0.66l-0.88,1.76l-2.64,2.86l-0.66,1.54l-2.42,4.84l-0.66,4.18l0.22,3.3l-0.88,2.42l-0.22,1.98
		l0.66,3.08v1.98l1.1,2.2l0.22,1.98l0.22,1.54l1.1,1.32l0.88,1.32l2.2,3.08l1.1,1.32l1.32,1.76l0.22,1.76l-3.08,2.2l-1.76,0.44
		l-0.88,0.88l-3.3,2.2l-1.76,0.66l-0.88,1.54l-1.54,0.66l-2.42,0.66l-1.1,1.32l-3.74,1.1l-0.88,1.54l-2.2,2.2l-1.54-0.44v-2.2
		l-0.22-3.74l-0.44-1.54l-0.44-1.32v-3.74l-0.44-1.32l-0.22-3.3l-0.44-1.54l-0.22-2.2l-0.22-1.98l0.44-1.54l-0.22-1.32l-0.44-1.76
		v-1.98l-0.88-3.3v-1.98l0.22-0.88l-0.66-2.42l0.22-3.08l0.22-1.54l-0.88-1.76v-4.62l0.44-1.32l-0.66-1.76l0.88-2.42l-0.66-1.54
		l0.44-1.54l-1.1-4.4l-0.22-1.98v-1.54l0.66-2.2l0.88-2.42l-0.22-1.76l0.44-2.64l0.88-1.32l-1.32-5.94l-0.44-1.76l-1.1-1.54
		l-0.66-1.54l-1.32-1.1l-3.3-2.2l-1.32-0.44h-3.52l-1.76,1.1l-3.74,1.54l-0.88,1.32l0.22,1.76l-0.88,2.2l0.44,4.18l-0.22,3.52
		l0.22,1.76l-1.1,1.76l0.22,1.98l-0.22,1.54l-0.44,3.96v1.98l0.66,1.98l0.22,1.32l-0.66,2.2l0.44,2.2l0.44,1.54l-0.22,1.54
		l0.44,3.52l-0.22,2.42l-0.22,1.54v3.96l0.44,1.98v1.98l0.22,3.52l-0.44,1.32l0.66,2.2l0.22,1.32l-0.22,1.76l0.22,1.98l0.44,2.64
		l0.22,1.1l-0.22,1.98v1.98l0.44,1.76l-0.22,1.54l1.1,3.08v2.42l-0.44-0.66l-1.98-0.66l-1.54-0.22l-2.86-0.44l-1.76-0.44l-1.76,0.22
		l-1.98-0.22l-1.54-0.44l-3.74,1.1l-3.52,0.22l-1.54,0.88l-1.98,0.22l-1.98-0.22l-0.88,1.1l-2.2,0.44l-3.3,1.54l-1.32,0.88
		l-1.76,0.88l-1.32,1.32l-1.98,1.1l-2.42,2.86l-0.66,1.76l-0.47,0.39c-6.47-39.1-35.62-63.97-72.79-63.97
		c-42.24,0-73.92,31.9-73.92,80.74c0,49.72,31.9,80.52,73.92,80.52c35.91,0,64.57-22.66,72.15-60.14l2.21,1.62l1.1,0.66l1.98,1.32
		l1.54,0.44l1.54,1.32l1.54,1.1l-0.66,0.88l1.1,0.88l1.54,0.88l2.64,1.32l3.52,1.1l1.54,0.44l1.54,0.88l2.2-0.44l1.98-0.44
		l1.54-0.66l1.54-0.22l1.32-0.44l1.98-0.44l1.54-0.88l2.2-0.88l1.1-1.1l3.08-1.76l3.52-1.54l1.54-1.54l1.76-0.66l1.54-1.54
		l0.76-0.88l0.34,1.54l0.44,1.76l0.22,2.86v3.74l0.66,1.54l0.22,1.54l-0.44,2.2l0.22,1.54l0.66,1.32l-0.44,4.18l0.66,1.98
		l-0.22,1.76v1.32l0.44,1.76l-0.22,3.96l0.22,1.54l-0.44,1.98l-0.22,0.88v2.64l-0.44,1.32l0.44,1.76l-0.22,2.2l-0.44,2.2l-0.44,1.98
		l0.22,1.32l0.22,2.2v1.98l-0.22,1.32v6.38l0.22,3.3l-0.44,1.32l0.66,1.76l-0.44,3.08l-0.22,4.18l-0.44,3.52l0.66,1.98l-0.22,1.54
		l0.66,2.42l1.32,0.88l1.1,1.54l1.54,1.76l1.1,1.32l1.54,0.44l5.5,0.66l2.86-2.42l1.76-0.88l1.54-3.52l0.88-1.54l0.22-2.2l0.22-1.54
		l0.44-2.2l0.44-1.54v-3.3l0.44-3.08l-0.66-3.3l0.44-2.2l-0.22-1.1l0.22-2.42l0.44-1.76l0.22-1.76l-0.22-1.98l0.44-1.98l-0.22-1.54
		l-0.22-2.2l0.44-1.76l-0.22-1.1l0.22-1.98v-1.98l-0.66-1.54l0.44-1.98l0.44-2.42v-3.74l-0.66-1.98v-4.84l-0.44-2.2l0.22-1.54v-1.76
		l-0.22-3.52l-0.44-2.2l-0.22-1.54l-0.44-2.2v-2.2l-0.22-2.86l-0.22-1.76v-1.98l-0.22-1.32l-0.44-3.3v-1.2l1.54,1.42l1.32,1.1
		l1.54,1.32l1.54,1.1l2.42,3.08l4.62,3.96l0.88,1.1l1.1,0.44l1.32,1.76l1.54,0.66l1.54,1.98l1.32,1.1l2.64,1.98l2.2,3.08l1.54,2.64
		l2.64,3.08l1.54,0.66l1.76,1.54l0.44-0.66l0.22,0.66l-2.64,0.44h-1.1l-1.54,1.32l-2.2,0.66l-1.76,1.1l-1.32,1.1l-1.1,2.64
		l-0.44,2.42l-0.22,1.76l0.44,1.32l-0.22,1.76l0.88,5.28l1.1,1.76l0.66,1.76l0.44,1.76l2.64,2.64l1.54,0.88l1.1,0.88l1.98,1.32
		l0.88,0.66l2.42,1.32l1.1,0.44l2.2,0.66l2.42,0.44l1.98-0.44l2.42,0.66l1.32-0.22l2.42-1.32l1.32-0.44l1.76-0.44l2.42-0.22
		l2.86-0.44l2.64-0.66l1.98-1.1h2.86l1.76,1.54l0.88,1.76l2.2,2.2l1.76,0.88l0.66,1.76l1.54,1.32l1.32,1.1l1.32,0.66l1.1,1.1
		l1.1,1.54l1.54,0.88l1.32,1.32l1.54,0.88l21.78,20.68l1.1,1.32l1.32,1.32l2.2,0.44l1.54,1.54h1.32l3.08,1.76l1.76,0.22l1.32-0.66
		l2.42,0.22l1.98-2.86l0.88-1.1l1.32-1.76l0.44-1.54L1577.66,659.57z M1534.76,473.45l0.44-0.66l1.32-1.1l1.54-1.98l0.88-0.66
		l1.32-1.54l2.2-1.76l2.86,0.44l1.54,1.1l1.76,1.1l1.76,1.76l0.88,3.96l-1.32,3.52l-1.76,0.88l-1.1,1.76l-1.32,0.88l-1.98,0.66
		l-1.1,0.88l-0.22,0.44l-1.32-0.22l-2.2,0.44l-1.76,0.44l-1.98-0.22l-1.98-0.88l0.22,0.44h-0.22l-0.88-3.96l-0.44-2.64
		L1534.76,473.45z M1521.78,507.55l-0.22-1.76l0.44-2.42l0.88-1.98l1.98-0.66l1.76,1.76l1.32,1.98l0.66,1.32l1.1,1.1l1.54,3.52v1.54
		l-2.2,3.74l-0.44,1.54l-2.2,2.64l-1.76,1.32l-1.98-0.44l-1.98-2.86v-1.32l-1.32-1.54l-0.88-0.88l-0.44-3.08l1.54-1.1l1.32-1.1
		L1521.78,507.55z M1503.3,462.23l0.88-1.32l1.76-2.2l3.08-1.32l0.88-1.1l1.98-1.1l1.1-1.1l3.74-1.54l1.1,0.22l1.54,0.88l1.32,0.22
		l-0.88,2.42l-0.44,1.76l-0.22,1.54l-1.76,3.3l-0.88,1.32l-0.66,2.64l-2.64,1.76h-1.1l-1.98-0.44l-2.42,0.66h-1.1l-2.86-0.88v-1.76
		l-0.44-1.98V462.23z M1482.84,486.21l1.54-3.08l3.96-0.44l1.76-0.66l1.54,0.22h2.42l-0.22,2.42l1.1,1.76l-0.22,3.08l0.44,1.98
		l0.88,2.2l0.22,1.54l1.32,2.42l-0.88,1.54l-1.32,0.66l-2.2,0.66h-3.52l-3.52-2.2l-1.1-1.54l-1.1-1.1l-0.88-4.18l-0.88-2.42
		L1482.84,486.21z M1311.9,608.97c-29.7,0-49.72-22.88-49.72-60.94c0-37.84,20.24-60.94,49.72-60.94s49.72,23.32,49.72,60.94
		C1361.62,586.31,1341.6,608.97,1311.9,608.97z M1429.6,544.73l-2.64,2.2l-1.1,1.76l-2.42,2.42l-1.54,1.1l-5.28,2.64l-1.1,1.76
		l-1.98,0.88l-1.1,1.32l-1.32,0.44l-1.98,1.1l-3.3,1.54h-1.76l-2.86-1.98l-1.98-1.54l-2.42-1.98l0.22-3.96l-0.66-4.62l0.44-2.42
		l1.54-1.32l0.66-1.54l3.08-2.2l1.1-0.44l2.2-1.1l1.54-0.44l1.76-0.44l2.42-0.88l1.32-0.22l2.42,0.22l1.32-0.66l4.18-0.44l1.1,0.22
		l3.74,1.76l2.86,2.42l1.54,1.32l0.88,1.76L1429.6,544.73z M1503.96,612.93l-1.32,1.1l-2.42,2.64l-1.32,0.66l-3.3,0.44l-1.1-1.32
		l-1.54-1.32l-0.88-1.76v-2.64l0.44-1.1l3.74-0.22l1.98,0.44l1.32,0.44h2.42l1.1,0.44l2.64,0.88l0.44-0.22L1503.96,612.93z
		 M1527.72,579.05l-0.44,2.64l-0.66,1.1l-1.32,1.54l-0.22,2.2l-1.32,0.88l-0.88,2.2l-1.32,3.08h-0.88l-0.44-3.08l-0.66-1.98
		l0.66-1.54l-0.22-1.76l-0.88-3.3l-0.44-2.64l0.22-1.98l1.1-3.52l1.1-0.88l1.76-0.88l1.54,0.44l1.98,0.22l1.76,1.1l0.88,1.54
		l0.22,1.54L1527.72,579.05z"/>
</g>
</svg>
