<?xml version="1.0" encoding="utf-8"?>
<!-- Generator: Adobe Illustrator 26.4.1, SVG Export Plug-In . SVG Version: 6.00 Build 0)  -->
<svg version="1.1" id="Ebene_1" xmlns="http://www.w3.org/2000/svg" xmlns:xlink="http://www.w3.org/1999/xlink" x="0px" y="0px"
	 viewBox="0 0 1920 1080" style="enable-background:new 0 0 1920 1080;" xml:space="preserve">
<style type="text/css">
	.st0{fill:#0000FF;}
</style>
<g>
	<polygon class="st0" points="507.8,625.03 531.12,625.03 531.12,556.39 606.58,556.39 606.58,536.81 531.12,536.81 531.12,490.61 
		610.54,490.61 610.54,471.03 507.8,471.03 	"/>
	<path class="st0" d="M746.06,436.27c-3.08,8.58-5.94,15.84-8.14,22c0,2.64,0,4.84,0.22,6.6
		C739.9,457.61,742.76,447.93,746.06,436.27z"/>
	<path class="st0" d="M762.78,477.41c5.28-7.26,12.32-16.28,20.9-27.28c-11.88,13.2-20.9,23.32-27.5,29.92
		C756.4,482.25,758.6,481.37,762.78,477.41z"/>
	<path class="st0" d="M789.18,475.21l10.34-10.12c-44.22,35.42-45.76,33-13.86-13.64c-10.56,12.54-18.04,21.34-22.88,25.96
		C741.22,506.67,748.48,504.25,789.18,475.21z"/>
	<path class="st0" d="M703.38,444.41c0.22,1.54,0.22,3.08,0.44,4.62l0.66,1.32C704.04,448.59,703.82,446.61,703.38,444.41z"/>
	<path class="st0" d="M621.1,523.61c0.22,0,0.22,0,0.44,0.22v-0.22C621.32,523.61,621.32,523.61,621.1,523.61z"/>
	<path class="st0" d="M729.78,436.49l-3.08,15.4c0.22,1.76,0.44,3.3,0.88,4.84C728.02,451.01,728.9,444.19,729.78,436.49z"/>
	<path class="st0" d="M786.98,580.59c-4.18-2.64-7.92-4.84-11.22-7.04l3.08,3.3C781.26,577.95,784.12,579.27,786.98,580.59z"/>
	<path class="st0" d="M692.82,451.23c0.22,0.66,0.44,1.32,0.88,1.98c-0.22-0.44-0.22-0.88-0.22-1.1L692.82,451.23z"/>
	<path class="st0" d="M762.34,595.99l-3.08-3.74c-0.22,0.22-0.22,0.44-0.22,0.88C760.14,594.01,761.24,594.89,762.34,595.99z"/>
	<path class="st0" d="M693.26,450.79c0,0.44,0.22,0.88,0.22,1.32c0,0,0.22,0.22,0.22,0.44C693.7,451.89,693.48,451.45,693.26,450.79
		z"/>
	<path class="st0" d="M715.26,439.57c-0.22,3.08-0.44,5.94-0.44,8.58c0.22,1.1,0.44,1.98,0.88,2.86
		C715.48,447.49,715.48,443.75,715.26,439.57z"/>
	<path class="st0" d="M712.4,440.67c0.88,6.6,1.54,11.66,1.76,15.18l0.66-7.7C713.94,445.95,713.28,443.31,712.4,440.67z"/>
	<path class="st0" d="M701.84,445.29l2.2,8.14c-0.22-1.32-0.22-2.86-0.22-4.4C703.16,447.93,702.5,446.61,701.84,445.29z"/>
	<path class="st0" d="M800.84,466.85c-4.18,3.08-7.92,5.72-11.66,8.36l-7.04,7.26C787.64,477.85,793.8,472.57,800.84,466.85z"/>
	<path class="st0" d="M759.26,592.25c0.66-2.2,2.86-1.98,7.26,1.76c-2.42-5.94-3.3-9.46-1.76-10.12
		C744.74,571.13,744.08,573.99,759.26,592.25z"/>
	<path class="st0" d="M752.44,600.17c-14.96-16.06-16.72-14.52-8.58,2.86c-11-13.42-11.88-11.22-7.7,1.76
		c-7.26-9.46-9.02-8.14-7.04,1.32c-5.5-6.6-7.04-5.06-6.6,1.54c-4.18-4.18-6.16-3.52-6.6,1.98c-3.74-3.74-5.72-2.64-6.82,1.98
		c-3.3-3.3-5.72-3.08-7.26,1.1c-3.08-3.52-5.5-3.08-7.7,0.88c-2.64-3.96-5.06-4.4-7.7-0.22c-2.2-4.84-4.62-4.84-7.48-0.66
		c-1.32-5.5-3.52-6.6-7.04-1.76c-0.66-6.6-2.64-7.04-6.82-1.98c0.44-7.48-1.1-9.24-6.6-3.3c1.76-8.8-0.22-9.68-6.6-3.52
		c3.52-9.46,2.64-12.32-6.16-5.06c5.72-11,3.52-12.1-6.6-5.28c8.14-11.22,8.36-14.74-5.72-7.48c11.66-12.32,9.24-13.86-6.16-8.58
		c14.3-10.78,15.84-14.52-4.4-11.44c18.92-9.68,16.28-12.54-3.74-12.98c20.02-5.72,22.66-9.24,0.22-14.3
		c22.88-1.76,20.9-5.28,2.2-13.2c-0.66,1.32-1.76,2.42-3.74,3.52c2.86,3.74,2.64,7.04-1.1,10.34c3.08,3.52,2.86,6.82-0.44,10.56
		c3.3,3.3,3.52,6.82,1.76,10.78c2.64,2.64,3.08,5.94,2.2,9.68c1.98,2.64,2.86,5.72,3.3,8.8c1.54,2.64,2.42,5.5,3.74,8.36
		c1.1,2.64,2.42,5.28,3.96,7.7c12.76,22.22,35.64,34.98,62.7,34.98c20.9,0,39.38-7.7,52.8-21.78c1.76-1.98,3.74-3.96,5.72-5.06
		c1.32-3.52,2.86-5.72,6.82-3.74c-0.22-1.98-0.44-3.74-0.22-4.84C739.9,577.07,740.12,580.59,752.44,600.17z"/>
	<path class="st0" d="M764.76,583.89c2.64,1.54,5.5,3.52,8.8,5.72l-5.72-5.06C766.3,583.89,765.42,583.67,764.76,583.89z"/>
	<path class="st0" d="M625.94,512.39c20.68,6.38,19.8,2.64,5.28-10.12c16.5,8.36,19.58,7.48,6.82-7.92
		c15.84,11.22,16.06,7.7,6.82-7.04c12.1,11.22,14.96,11.22,7.7-5.06c11,13.2,12.1,10.34,7.48-4.62c8.36,12.54,11,12.98,8.14-3.08
		c7.26,14.3,9.02,12.1,6.38-4.18c6.6,14.3,9.24,15.84,5.06-2.42c-1.1,0.44-2.42,0.44-3.96,0.44c-1.98,1.32-4.62,2.2-7.48,2.64
		c-2.42,1.32-5.06,2.42-7.7,3.08c-2.2,1.76-4.62,3.3-7.26,3.96c-1.98,2.2-4.18,3.74-7.04,4.62c-1.32,2.64-3.3,4.62-6.16,5.5
		c-0.88,3.08-2.86,5.06-5.94,6.16c-0.22,3.52-1.76,5.94-5.28,7.04c0.66,3.96-0.88,6.38-4.62,7.7c1.54,4.18,0.66,7.04-3.52,8.8
		c1.1,2.2,1.54,4.18,0.88,5.72C641.34,526.25,644.2,524.27,625.94,512.39z"/>
	<path class="st0" d="M680.06,467.51l-1.32-2.86c0.22,1.1,0.66,2.2,0.88,3.3C679.84,467.95,680.06,467.73,680.06,467.51z"/>
	<path class="st0" d="M686.88,465.97c-1.32,0-3.74-0.88-6.82-2.64c0.88,2.2,0.88,3.52,0,4.18
		C688.2,483.57,690.62,483.57,686.88,465.97z"/>
	<path class="st0" d="M776.86,559.47c6.38,1.32,14.74,3.3,24.86,5.72c-9.9-3.52-18.04-6.6-24.42-9.24
		C775.54,556.39,775.32,557.49,776.86,559.47z"/>
	<path class="st0" d="M767.84,584.55c1.76,0.66,3.96,2.2,7.04,4.4c-10.12-14.74-9.46-17.82,9.46-6.38c-2.2-2.2-3.96-3.96-5.5-5.72
		C746.94,562.55,746.5,565.19,767.84,584.55z"/>
	<path class="st0" d="M756.18,480.05c-0.44-3.74,4.62-16.28,13.86-37.84c-13.2,23.76-20.02,34.54-22,32.34
		C739.68,493.25,741.44,495.01,756.18,480.05z"/>
	<path class="st0" d="M775.76,573.55c-7.7-9.24-2.86-9.46,18.92,0c-9.46-6.6-15.62-11.22-17.82-14.08
		C751.12,554.19,752,557.93,775.76,573.55z"/>
	<path class="st0" d="M688.2,464.65c-0.88-2.2-1.98-4.4-3.08-7.04c0.66,3.08,1.32,5.94,1.76,8.36
		C687.76,465.75,688.2,465.31,688.2,464.65z"/>
	<path class="st0" d="M737.92,458.27c0-5.72,0.22-13.2,0.66-22.44c-5.28,32.78-7.92,38.94-11,20.9
		C724.28,487.09,726.04,488.63,737.92,458.27z"/>
	<path class="st0" d="M726.7,451.89c-0.66-3.96-1.32-9.02-1.98-14.74c-0.22,32.12-1.98,35.2-9.02,13.86
		C717.02,486.43,719.44,487.31,726.7,451.89z"/>
	<path class="st0" d="M714.16,455.85c-0.22,2.86-0.44,5.28-0.44,7.48C714.38,462.45,714.6,460.03,714.16,455.85z"/>
	<path class="st0" d="M747.6,469.05c0.66-6.16,2.86-16.5,6.38-31.68c-10.56,30.58-14.96,39.38-15.84,27.5
		C731.76,489.29,734.18,490.39,747.6,469.05z"/>
	<path class="st0" d="M748.04,474.55c3.74-8.14,9.24-19.58,16.72-34.32c-7.04,12.1-12.54,21.56-17.16,28.82
		C747.38,472.13,747.6,473.89,748.04,474.55z"/>
	<path class="st0" d="M696.34,460.91l-1.32-4.4c-0.44-0.88-0.88-2.2-1.32-3.3c0.66,4.18,1.1,7.92,1.54,11
		C696.56,464.43,696.78,463.33,696.34,460.91z"/>
	<path class="st0" d="M695.24,464.21c-1.76-0.22-5.06-2.64-9.68-6.82c1.98,3.74,2.86,5.94,2.64,7.26
		C695.46,481.15,697.66,482.69,695.24,464.21z"/>
	<path class="st0" d="M696.34,460.91c6.38,20.02,8.8,21.34,8.14,2.42c-1.54,0.44-5.06-3.3-10.78-10.78l1.32,3.96
		C695.68,458.27,696.12,459.81,696.34,460.91z"/>
	<path class="st0" d="M713.72,463.33c-1.32,1.32-4.4-3.3-9.24-12.98C709.54,479.61,711.52,485.33,713.72,463.33z"/>
	<path class="st0" d="M704.04,453.43c0.22,3.74,0.44,7.04,0.44,9.9C705.58,463.11,705.58,459.81,704.04,453.43z"/>
	<path class="st0" d="M919.42,511.51c0-26.4-19.58-40.48-48.84-40.48h-66.44v14.5c-36.76,18.16-43.16,18.73-22-3.06
		c-32.12,27.06-34.1,32.34-1.54,20.24c4.9-3.95,12.7-9.36,23.54-16.36v7.09c-9.21,3.74-17.1,6.9-23.54,9.27
		c-4.18,3.3-5.94,5.5-5.5,6.6c7.02-3.96,16.71-8.96,29.04-15.11v11.21c-18.66,4.65-28.3,6.3-29.04,3.89
		c-19.58,11-18.26,14.08,2.86,12.1c-1.68-2.23,7.05-6.83,26.18-14.46v11.43c-10.71,1.48-19.44,2.55-26.18,3.03
		c0.88,1.1,3.96,1.76,9.24,1.98c4.89-1.22,10.54-2.53,16.94-3.97v4.11c-7.1,0.15-12.78,0.15-16.94-0.14
		c-37.83,9.56-32.05,13.04,16.94,18.58v0.72c-8.73-0.22-15.19-0.23-19.36,0.27c5.41-0.16,11.88-0.2,19.36-0.13v16.83
		c-25.29-10.67-32.8-15.39-19.36-16.7c-29.48,0.44-30.58,3.52-7.48,12.98c3.22-0.86,11.91,0.59,26.84,3.93v65.15h23.32v-65.56h35.86
		c21.34,0,29.7,7.26,29.7,29.26v36.3h23.32v-40.7c0-20.02-10.12-32.78-25.74-35.42C904.68,544.73,919.42,531.53,919.42,511.51z
		 M804.14,541.28c-33.11-6.44-34.06-9.83,0-15.97V541.28z M865.52,539.67h-38.06v-49.06h38.06c19.36,0,29.92,8.36,29.92,24.42
		S884.88,539.67,865.52,539.67z"/>
	<path class="st0" d="M1157.02,511.51c0-1.1,0-2.2,0-3.52c0.22-4.18-1.54-7.48-4.62-9.9c-0.44-0.22-0.66-0.88-0.66-1.32
		c-0.44-2.2-0.66-5.06-1.32-7.26c-0.88-3.08-1.98-6.6-3.3-10.12c-1.54-3.96-4.62-7.26-7.92-10.56c-3.52-2.64-6.82-4.84-10.34-7.26
		c-0.66-0.22-0.88-0.66-1.32-1.32c-1.98-3.52-4.62-6.16-8.36-7.26c-3.74-1.54-8.14-2.2-12.54-2.2c-5.28-0.22-10.56,0.44-15.62,2.2
		c-5.72,1.54-10.34,4.18-15.4,7.7c-3.74,2.42-5.94,5.94-6.82,10.56c-0.44,0.88-0.44,1.98-1.1,2.86c-3.08,3.08-5.28,6.6-6.82,10.56
		c-1.98,5.06-3.3,10.56-4.62,15.84c-0.44,3.08-0.66,6.16-1.1,9.24c-0.22,1.76-1.1,3.08-2.42,4.4c-1.98,1.76-3.08,4.18-3.52,6.6
		c-0.44,3.08-0.66,6.16-0.88,9.46c-0.22,3.08-0.44,5.72-0.22,8.8c0,5.94-0.44,11.66,0.22,17.6c0.22,2.64,1.32,5.06,3.3,6.82
		c0.66,1.1,0.88,1.98,0.88,3.3c0,5.06-0.22,10.78-0.66,16.06l-1.98,13.86c0,0.66-0.44,1.32-1.1,1.76c-2.42,1.54-5.06,3.3-6.38,6.16
		c-0.22,0.66-0.66,0.88-1.76,0.88c-2.2-0.44-4.18-0.44-5.94-0.66c-2.2,0-4.18,0.44-5.94,1.32c-0.66,0.44-1.32,0.88-1.54,0.66
		c-0.88-0.66-1.54-1.1-1.98-1.76c-2.64-2.86-3.96-6.6-4.62-10.34l-1.32-6.6c-0.44-2.64-0.22-5.06,2.2-6.82
		c1.76-1.32,2.42-3.3,2.42-5.72c0.22-1.98,0.22-3.74,0.44-5.5c0.44-2.64,0.88-5.72,1.1-8.58c0.44-3.08,0.66-5.94,0.88-9.02
		c0.22-1.54,0.44-2.86,0.44-4.4c0.22-1.76,0.44-3.52,0.44-5.5c0-2.64-0.88-5.06-2.2-7.04c-0.66-0.66-0.88-1.32-0.66-2.2
		c0.44-2.2,0.66-4.4,0.88-6.6c0.22-3.08,0.44-6.38,0.88-9.24c0.44-4.18,0.66-7.7,0.66-11.66v-7.26c0-0.66,0.22-1.54,0.66-2.2
		c2.64-3.52,3.3-7.48,2.42-11.66c-0.66-2.86-1.76-5.94-2.86-8.58c-1.32-3.96-3.74-7.26-7.04-9.68c-3.74-2.64-7.92-4.18-12.54-5.5
		c-5.5-1.32-11.44-1.76-17.16-2.64h-1.32c-3.08,0.88-5.94,1.76-8.36,3.52c-0.22,0.44-0.66,0.66-1.1,0.66
		c-1.32,0.22-2.86,0.44-4.18,0.44c-5.06,0.22-8.8,2.2-12.32,5.28c-3.96,3.74-5.94,8.14-7.7,12.54c-2.2,4.62-3.3,9.46-4.18,14.52
		c-0.44,1.54-1.1,2.64-2.42,3.52c-2.64,1.32-3.74,3.74-4.4,6.38c-0.88,3.74-1.1,7.92-1.76,12.1c-0.22,1.32-0.22,2.64-0.44,4.18
		c-0.66,3.96-0.88,8.58-0.88,12.76v1.54c-1.1,5.28,0,9.9,3.52,13.86c0.44,0.66,0.88,1.32,0.66,2.2c0,1.76-0.44,3.3-0.44,4.84v25.74
		c0,1.98,0.22,3.96-1.54,5.28c-0.22,0.22-0.22,0.44-0.44,0.44c-2.64,3.3-2.86,7.04-2.86,10.78c0,4.84-0.22,9.68,0.22,14.74
		c0.44,4.4,0.44,8.8,0.44,13.2c0.22,5.06,2.42,9.46,6.38,12.1c3.08,1.98,5.94,2.64,9.24,2.86c1.54,0,3.3-0.66,5.5-1.32
		c5.5-1.54,10.12-7.26,9.9-13.64c-0.22-7.04,0.44-13.86-0.22-20.9c-0.66-3.3-0.66-6.6-0.66-10.12c0-3.08-1.1-5.5-2.86-7.92
		c-1.32-1.54-1.76-3.08-1.54-5.06c0.22-9.9-0.44-19.8,0.22-29.7c0.22-1.76,0.44-2.64,1.54-3.74c1.98-2.42,3.52-4.84,3.52-8.36
		c0-1.98,0.22-4.18,0.44-6.16c0.22-2.42,0.88-4.84,0.88-7.26c0.22-2.42,0.44-4.62,0.44-6.6c0.22-2.2,0.66-4.4,0.88-6.6
		c0.22-1.54,0.44-3.3,0.22-5.06c-0.22-2.42-0.88-4.84-2.64-7.04c-0.22-0.44-0.88-1.1-0.44-1.76c0.88-4.18,1.98-8.36,3.74-12.54
		c0.44-0.88,0.88-1.98,1.54-2.86c0.88-0.44,1.76-0.88,2.64-1.1c0.22,0,0.66,0.66,0.88,1.1c2.2,2.42,5.06,3.96,8.36,4.18
		c3.3,0.44,6.6,1.32,9.9,1.76c0.88,0.22,1.54,0.66,1.98,1.76c0.66,1.76,1.76,3.08,3.3,4.18c1.1,0.44,1.54,1.54,1.54,2.86
		c-0.22,4.4-0.44,8.8-0.44,13.2c-0.22,1.98-0.22,4.18-0.44,6.16c-0.44,3.08-0.66,5.94-1.32,9.02c-0.22,1.54,0.22,3.08-1.32,4.18
		c-1.76,0.88-2.86,2.42-3.74,3.96c-1.1,1.98-1.32,3.74-1.54,5.94c-0.88,3.96-1.54,8.14-1.98,12.32c-0.22,1.54-0.66,3.08-0.66,4.4
		c-0.22,2.64-0.66,5.28-0.88,7.7c0,2.2,0.22,4.18,0,6.6c-0.22,1.32,0,3.08,0.44,4.62c0.44,2.42,1.98,4.4,3.74,6.38
		c0.44,0.44,0.66,0.88,0.66,1.32c0.22,1.98,0.22,3.96,0.44,5.5c0.44,2.64,0.66,5.5,1.32,8.36c1.1,5.06,2.86,10.12,5.72,14.74
		c2.2,2.86,4.4,5.94,7.48,8.36c1.54,1.32,2.64,2.42,3.3,4.4c1.1,2.42,3.08,4.18,5.28,5.5c2.42,1.54,4.84,2.64,7.48,3.08
		c3.08,0.66,6.38,0.88,9.24,1.32c3.08,0.44,5.94,0.22,9.02-0.22c3.52-0.44,7.48-1.98,10.78-4.18c2.86-1.76,5.5-4.18,7.48-6.82
		c2.42-2.86,3.96-5.94,5.5-9.02c0.66-1.76,1.32-3.74,1.54-5.72c0.44-2.64-0.44-4.84-1.32-6.82c-0.44-1.1-0.66-1.76-0.44-2.86
		c0.66-2.42,1.1-4.84,1.32-7.26l1.32-12.32c0.22-3.3,0.22-7.04,0.44-10.56c0-1.1,0-2.2-0.22-3.08c0-1.54,0.44-2.86,1.76-3.96
		c0.66-0.88,1.1-1.76,1.76-2.42c2.2-2.86,1.98-6.16,2.2-9.24c0.22-5.94,0.22-11.88,0.44-17.82v-11.44c0-1.32-0.22-3.08-1.1-4.18
		l-2.2-3.52c-0.22-0.88-0.66-1.32-0.44-1.98c0-1.76,0.44-3.52,0.66-5.5c0.44-4.4,1.54-8.58,3.08-12.76l2.64-5.72
		c0.44-0.66,0.88-1.76,2.2-1.32c3.08,0.88,5.72-0.44,8.36-1.54c2.42-1.32,5.06-2.86,7.7-3.74c2.42-0.66,4.84-1.32,6.82-1.1
		c2.86,0.44,5.5,0.66,8.14-0.44c0.66-0.44,1.32-0.66,1.76-1.1c0.44-0.22,0.88-0.22,1.1,0c3.3,1.98,6.16,4.18,8.8,7.04
		c0.44,0.66,0.66,1.32,0.88,1.98l1.98,8.8c0.22,1.32,0.22,2.2-0.88,3.52c-1.98,2.42-2.86,5.5-3.08,8.8c0,1.76-0.22,3.74-0.66,5.72
		c-0.44,3.52-1.32,7.04-1.76,10.56c-0.44,3.52-0.66,6.82-1.32,9.9c-0.66,3.96,0,7.04,2.2,9.9c0.44,0.88,0.66,1.54,0.22,2.86
		c-0.66,1.32-0.66,2.86-1.1,4.18c-1.32,5.94-2.42,12.1-3.96,18.04c-0.66,2.86-1.32,5.5-1.76,8.36c-0.22,1.32-0.66,2.2-1.98,3.08
		c-2.64,1.76-4.4,4.4-5.28,7.48c-1.98,8.58-3.96,17.16-5.06,25.96c-0.22,3.08-0.66,6.38-0.66,9.68c0,4.84,3.96,10.34,8.58,11.88
		c3.52,1.32,7.04,1.54,10.56,0.44c7.48-1.98,10.78-6.38,11.66-13.42c0.44-2.86,1.1-5.5,1.76-8.36c0.44-2.64,0.88-5.28,1.54-7.92
		c0.44-2.86,0.66-5.72,1.32-8.58c0.88-4.4,1.1-8.8-1.54-12.76c-0.22-0.66-0.44-1.54-0.22-1.98l2.64-11.88
		c0.88-4.18,1.76-8.14,2.64-12.1c0.66-2.64,1.1-5.06,1.54-7.7c0.44-0.88,0.66-1.98,1.76-2.64c3.3-2.2,4.84-4.84,5.5-8.36
		c0.22-1.54,0.66-3.08,0.88-4.4c1.1-5.5,2.2-11.22,2.86-16.72c0.44-3.3,0.44-6.6,0.66-10.12H1157.02z M1128.64,464.21
		c0.44-0.66,1.1,0,1.54,0.22c2.86,1.76,5.06,3.52,7.92,5.72c2.42,2.2,4.18,4.4,6.16,7.04c1.76,2.64,2.42,5.94,3.3,8.8
		c0.88,2.64,1.54,5.28,2.2,8.14v0.88c0,0-0.22,0.44-0.22,0.66c-0.44-0.22-1.1-0.22-1.1-0.66c-0.44-1.1-0.88-2.42-1.1-3.96
		c-0.66-3.74-1.76-7.7-3.3-11.44c-1.32-1.98-2.64-3.74-4.18-5.5c-2.86-3.08-6.38-5.94-9.9-8.14c-0.22,0-0.44,0-0.44-0.22
		C1128.86,465.31,1128.2,464.87,1128.64,464.21z M1130.4,472.57c3.3,2.86,7.04,5.5,9.02,9.9c1.54,3.3,2.42,7.26,3.08,11.88
		l-0.22,0.22c-0.66,0.22-1.32,0.22-1.98,0.44c-1.98,0.22-1.98,0.22-2.42-1.98c-0.44-3.08-1.32-5.72-2.86-8.58
		c-0.44-1.1-1.32-2.2-1.98-3.3c-2.2-2.42-4.4-4.4-6.82-5.94c-1.1-0.66-0.88-1.1-0.66-1.76
		C1127.54,470.59,1127.54,470.59,1130.4,472.57z M1149.1,512.61c-0.22,3.3-0.88,6.6-1.1,9.9c-0.66,5.94-1.98,12.1-3.08,18.26
		c0,0.22-0.22,0.44-0.44,0.88c0,0.88-0.22,0.44-0.66,0c-1.98-2.42-4.4-4.18-7.48-3.74c-1.76,0-3.08,0.66-4.62,1.1
		c-0.44,0.22-0.66,0.22-1.1,0.22c0-0.22,0-0.44,0.22-0.66c0.22-2.64,0.44-5.06,1.1-7.7c0.22-2.42,0.88-5.06,1.1-7.26
		c0.22-2.64,0.66-5.5,0.88-8.36c0.22-2.2,0.44-4.4,0.88-6.82c0-0.66,0.22-0.44,0.66-0.22l1.32,1.1c3.52,1.98,7.04,2.42,10.34,0
		c0.22-0.44,0.44-0.66,1.1-0.66l0.66,0.22c0,1.54,0,2.64,0,3.74H1149.1z M1136.34,553.97c0.22,0.22,0.44,0.66,0.66,1.1
		c-0.66,2.64-1.32,4.84-1.76,7.26c-1.32,5.72-2.42,11.22-3.52,16.94c-0.44,0.44-0.66,1.1-0.88,1.54c-0.22,0.22-0.88-0.22-1.54-0.22
		h-0.44c-1.98-0.44-1.98-0.44-1.54-2.42c1.54-7.92,3.08-15.84,5.06-23.54c0-0.44,0.22-0.88,0.44-1.1c0.44-0.22,0.88,0,1.32,0
		C1134.8,553.75,1135.46,553.75,1136.34,553.97z M1130.18,544.73c0,0-0.22,0-0.22,0.22c0-0.22-0.22-0.44-0.22-0.66
		c1.1-2.2,3.08-3.08,4.84-4.18c0.22,0,0.44,0.44,0.66,0.66c0.22,0,0,0.44,0,0.44C1133.7,542.31,1131.94,543.63,1130.18,544.73z
		 M1134.8,504.03v-0.88c0.44,0.44,0.44,0.44,0.44,0.44l4.18,3.08c0.22,0.22,0.22,0.66,0.44,1.1c-0.44,0-0.88,0.22-1.1,0
		L1134.8,504.03z M1071,483.57c0.44-0.88,1.1-0.88,1.76-0.44c0.22,0,0.22,0.22,0.44,0.22c0.44,0.44,1.76,0.88,1.76,1.54
		c0.22,0.44-0.44,1.54-1.1,2.2c-1.98,4.4-3.52,9.46-4.4,14.52c-0.44,2.42-0.66,5.06-1.32,7.7l-0.44,0.66
		c-1.32-0.22-2.64-0.22-3.74-0.22c-0.22-0.22-0.44-0.88-0.44-1.1c0.88-5.94,1.54-11.44,3.74-16.94
		C1068.14,488.85,1069.46,485.99,1071,483.57z M1058.02,500.73c0.88-4.18,1.76-8.14,3.08-12.1c1.54-4.18,3.52-8.36,6.16-11.66
		l0.66-0.66c0.22,0,0.44,0.22,0.44,0.22c0,0.66-0.22,1.32-0.44,1.98c-2.86,4.18-4.84,8.58-6.16,12.98
		c-1.32,4.62-2.42,8.8-2.86,13.42c-0.22,1.76-0.66,3.3-0.66,5.28c-0.22,0.66-0.44,0.88-1.32,0.88l-0.22-0.88c0-0.22,0-0.44,0-0.44
		h-0.22C1056.92,506.67,1057.58,503.81,1058.02,500.73z M1050.54,557.93c-0.22-0.44-0.22-1.1-0.22-1.54
		c-0.22-3.3-0.44-6.38-0.44-9.68c0-1.1,0.22-2.2,0.22-3.52c0.22-0.44,0.22-0.88,0.22-1.32c0-5.28,0.22-10.56,0.44-15.84
		c0-1.54,0-3.3,0.44-5.06c1.32-4.18,4.18-6.82,8.14-8.14c0.66-0.22,1.32-0.66,2.2-0.88l0.88,0.66c0,0.22-0.44,0.66-0.66,0.88
		c-1.1,0.44-2.42,0.88-3.52,1.54c-2.86,1.32-4.84,3.52-5.5,6.38l-0.66,3.08c0,2.64-0.22,5.28-0.22,7.92
		c-0.22,5.94-0.66,12.1-0.66,18.04c0,2.2,0,4.18,0.66,6.38c0.22,1.76,1.32,3.3,2.86,4.84c1.32,0.88,2.86,1.54,3.96,2.64
		c0.44,0.22,0.88,0.22,1.1,0.44c0.22,0.44,0.66,0.88,0.66,1.1c-0.22,0.88-0.88,0.66-1.32,0.22c-1.1-0.66-2.64-1.1-3.74-1.98
		C1053.18,562.33,1051.2,560.79,1050.54,557.93z M1032.06,614.03c-0.22-0.66,0-1.1,0.66-0.66c2.64,0.22,4.84,0.66,7.04,0.66
		c3.96,0.44,7.26-1.1,9.24-4.62c0.66-0.66,0.88-1.54,1.32-2.2c0.22-0.44,0.44-0.66,0.88,0l1.54,1.76c2.86,3.52,6.16,4.84,10.34,3.52
		c0.22-0.22,0.44,0,0.66-0.22c0,0.22-0.22,0.44-0.22,0.66c-2.42,5.5-5.72,10.12-11.22,13.42c-2.2,1.1-4.62,1.76-7.26,1.98
		c-4.84,0.66-9.9,0-14.96-1.1h-0.22c-0.44-0.22-1.1-0.66-1.76-0.88c0.66-0.22,1.1-0.66,1.54-0.88c1.98-1.32,2.86-3.74,3.08-5.94
		C1032.94,617.55,1032.72,615.79,1032.06,614.03z M1060.66,610.07c-0.22,0.44-0.44,0.44-0.66,0.44c-0.22-0.44-0.44-0.66-0.44-0.88
		c-0.22,0,0-0.44,0.22-0.44l1.54-0.66c1.1-0.66,2.42-1.32,3.3-1.98c0.22,0,0.44,0,0.88-0.44c0,0.66-0.22,0.88-0.22,1.1
		C1064.18,608.53,1062.42,609.41,1060.66,610.07z M1060.88,596.43c-2.2-0.22-2.2-0.44-1.76-2.86c0.22-1.32,0.44-2.86,0.44-4.62
		c0.22-2.2,0.66-4.18,0.88-6.38v-0.66c0.22-3.3,0.22-7.26,0.44-11c0-1.76,0-1.76,1.54-1.76h0.88c0.44,0,0.88,0,1.32,0
		c0.44,0,0.88,0.22,0.88,0.88c0,1.1-0.22,2.42-0.22,3.52l-0.22,1.54c0,3.52-0.22,6.6-0.44,9.9c-0.22,3.52-0.66,7.04-1.1,10.56
		c-0.22,1.1-0.44,1.1-1.98,1.1C1061.32,596.43,1061.1,596.65,1060.88,596.43z M1053.4,584.33c0.22-5.28,0.66-10.56,0.66-15.62v-0.44
		c0.22-0.44,0.88-0.88,1.32-1.32l0.66,1.32c-0.44,4.18-0.66,7.7-0.88,11.22v1.54c0,3.52-0.44,7.26-1.32,10.78
		c-0.22,1.32-0.22,2.42-0.44,3.96c-0.22,0.44-0.44,0.88-0.66,1.1s-0.66,0.22-0.88,0.22l-0.22-0.88
		C1052.52,592.25,1052.96,588.29,1053.4,584.33z M1030.52,607.43c0.88-0.22,1.54-0.44,1.98-0.44l5.94,0.66
		c1.1,0.22,2.2,0.22,3.3,0.22c0.22,0,0.66-0.22,0.66-0.44c1.1-0.88,1.98-1.98,2.42-3.08c1.1-1.98,2.86-3.08,4.62-3.96
		c1.76-0.88,3.74-1.32,5.72-1.98h1.54c0.22,0.44,0.66,0.88,0.88,1.1c-0.22,0.22-0.66,0.22-0.88,0.44c-1.76,0.44-3.96,0.88-5.94,1.54
		c-2.2,0.66-3.96,1.98-5.28,4.18c-0.66,1.76-1.98,2.86-3.96,3.3h-1.32c-2.42-0.22-4.4-0.44-6.6-0.66c-1.98-0.22-3.96,0.44-5.72,1.54
		c-1.32,1.1-2.64,2.42-4.18,3.3c-0.22,0.22-0.44,0-0.66,0c0-0.22-0.44-0.66,0-0.88c0-0.44,0.22-0.44,0.44-0.66
		C1025.68,610.07,1028.1,608.75,1030.52,607.43z M1019.3,596.87c1.1,3.96,2.64,7.04,5.5,9.9c0.44,0.44,1.32,0.66,0.66,1.32
		c-0.66,0.88-1.32,0.22-1.76-0.22c-3.3-3.08-4.84-6.82-5.94-11c-1.1-3.52-1.54-6.82-1.76-10.56c0-0.44,0.66-0.66,1.54-1.54
		c0,0.66,0.22,1.1,0.22,1.32C1017.54,590.05,1018.42,593.35,1019.3,596.87z M1019.08,612.49c-0.22,0.44-0.66,0.88-1.1,1.1
		c-0.22,0.44-0.66,0.88-1.1,1.32l-1.54-1.32c-2.64-3.52-4.84-7.04-6.16-11.22c-1.1-3.52-1.98-7.04-2.42-10.78
		c-0.44-2.64,0.22-3.52,3.08-3.52c0.66,0,0.88,0.22,1.1,0.88c0.88,3.96,1.32,7.7,2.42,11.44c1.32,3.96,3.08,7.48,5.94,10.56
		C1019.96,611.39,1019.96,611.83,1019.08,612.49z M1025.46,543.85c-0.44,2.2-0.66,4.4-0.88,6.82c-0.22,1.54-0.44,2.86-0.44,4.4
		c-0.22,2.86-0.44,5.94-0.88,9.02c-0.22,3.08-0.88,5.94-1.32,9.02c-0.22,1.1,0,1.98-0.22,3.3c-0.66,3.3-3.08,5.28-5.94,7.26
		c-0.88,0.44-1.98,1.1-2.86,1.32c-0.44,0.22-1.32,0-1.32-0.22c-0.66-0.66,0.22-0.66,0.88-0.88c1.54-1.1,3.08-1.98,4.4-3.08
		c1.98-1.32,3.52-3.52,3.74-6.16c0.22-3.3,0.88-6.38,1.1-9.9c0.44-2.86,0.66-5.72,0.88-8.58c0.66-3.08,1.1-6.16,1.32-9.24
		c0.44-5.06-0.22-9.02-5.94-12.54c-0.22-0.22-0.66-0.22-1.1-0.44c-0.22-0.44-0.44-0.88-0.44-1.1c0.44-0.22,1.1-0.44,1.32-0.22
		c1.54,0.88,3.3,1.76,4.4,3.08C1024.14,537.91,1025.46,539.23,1025.46,543.85z M990.04,467.95c0-0.22-0.22-0.44-0.22-0.66
		c0.22-0.22,0.44-0.22,0.66-0.22h1.76c0-0.22,0-0.22,0-0.22c3.52,0.44,7.26,0.88,10.78,1.54c2.42,0.44,5.28,1.54,7.48,2.64
		c4.62,1.54,7.7,4.62,9.46,8.8c0.66,1.98,1.32,4.18,1.76,5.94c0.22,0.22,0,0.88,0,1.1c-0.22,0-0.66,0-0.66-0.22
		c-4.4-2.42-7.48-1.32-10.78,1.54c-0.66,0.66-1.32,1.1-1.98,1.54c-0.22-0.66-0.66-1.32-1.1-1.98c-0.88-2.42-2.86-3.74-5.28-4.18
		c-4.18-0.66-8.8-1.76-12.76-2.64h-0.88c0.44-0.22,0.44-0.66,0.66-0.88c1.32-1.54,2.42-3.3,2.64-5.72
		C991.8,472.13,991.36,469.93,990.04,467.95z M1013.14,489.73c-1.1,1.32-2.42,3.08-3.52,4.62h-0.22c0,0-0.22-0.22-0.22-0.44
		c0.66-1.76,1.32-3.74,3.08-4.62c0.22,0,0.66-0.22,0.66,0C1013.14,489.29,1013.14,489.73,1013.14,489.73z M1009.84,530.21
		c-0.22,1.54-0.44,3.3-0.44,4.84c0,0.22-0.22,0.44-0.22,0.66c-0.22-0.22-0.66-0.22-0.66-0.44l-0.44-1.54
		c0.22-1.54,0.22-3.08,0.44-4.18c0.44-3.52,0.88-6.6,1.1-9.9c0.44-3.08,0.44-6.16,0.88-9.02c0.66-3.96,0.22-8.36,0.22-12.32
		c0.22-1.54,0.44-2.86,1.76-4.18c0,0,0.22,0,0.44-0.22c0.22,0.22,0.22,0.44,0.22,0.66c-1.54,4.4-0.44,9.02-0.88,13.42l-0.66,8.36
		c-0.44,1.54-0.44,3.08-0.66,4.62C1010.5,523.83,1010.06,527.13,1009.84,530.21z M1010.06,541.21v0.22c0,0.22-0.44,0.22-0.44,0.22
		c-0.66-0.44-1.32-0.66-1.98-1.54c-0.66-1.1-1.1-2.64-1.76-3.96c0,0,0.22-0.22,0.22-0.44h0.22
		C1007.64,537.47,1008.96,539.23,1010.06,541.21z M1012.04,527.79c0.22-3.08,0.66-6.16,1.1-9.24l0.66-6.6c0-0.66,0-1.1,0-1.76
		c0.22-2.64,0.22-5.28,0.44-7.92c0-0.66,0.44-1.1,0.88-0.88c1.1,0.66,2.86-1.1,3.3,0.88c0.22,1.32,0,2.64,0,3.96h0.22
		c-0.22,3.52-0.66,6.82-0.88,10.12c-0.22,3.08-0.88,6.16-1.1,9.02c0,1.32-0.22,2.2-0.44,3.08c0,0.66-0.66,0.88-0.88,0.88
		c-0.88,0-1.76-0.22-2.64-0.22C1011.82,528.89,1011.82,528.23,1012.04,527.79z M1025.24,504.47c0,3.52-0.22,6.82-0.44,9.9
		c-0.22,4.18-0.66,7.92-1.1,11.44c-0.22,2.2-0.44,4.18-1.1,5.94c0,0.44-0.22,0.66-0.44,0.88c-0.22-0.22-0.66-0.44-0.66-0.88
		c-0.22-0.66-0.22-1.54,0-2.42c0.22-3.3,0.66-6.16,1.1-9.46c0.66-3.96,1.1-7.92,1.32-11.88c0.22-2.2,0-4.4,0-6.82
		c0-0.44,0-0.88,0.22-1.32c0-0.22,0.44-0.44,0.66-0.44c0.22,0,0.44,0.44,0.44,0.66V504.47z M979.7,466.41
		c1.76-2.42,3.96-4.84,7.26-5.28c2.42-0.44,4.62-0.22,6.82-0.22c1.98,0,3.74,0.44,5.28,0.66c3.52,0.22,7.04,1.1,10.56,2.42
		c2.86,0.66,5.28,1.76,7.92,3.3c3.96,2.42,6.6,6.16,8.14,10.34c0.88,2.42,1.76,5.5,2.2,8.14c1.1,3.74-0.66,8.58-3.96,10.78
		c-0.88,0.66-2.2,1.32-3.08,1.98c-0.22,0-0.66,0.22-0.66,0.22l-1.32-0.66c0.22-0.22,0.44-0.66,0.88-0.88
		c3.52-1.54,5.94-3.96,6.82-8.14c0.44-2.2,0-4.62-0.66-6.6c-0.88-3.3-1.98-5.94-3.74-8.58c-1.98-3.3-5.5-5.94-8.8-7.48
		c-3.96-1.54-8.36-2.42-12.1-3.52c-3.3-0.44-6.6-0.66-9.9-0.88c-3.52-0.44-6.38,0.88-9.02,3.74c-1.1,1.1-1.76,2.42-2.42,3.96
		c-0.22,1.1-0.88,1.1-1.32,0.88c-0.22,0-0.44-1.1-0.44-1.32C978.6,468.17,979.26,467.07,979.7,466.41z M952.64,495.01
		c0.88-5.28,2.64-10.12,4.4-14.96c1.76-3.96,4.4-7.92,7.7-11.22c3.08-2.42,6.16-4.18,10.78-4.18c0.22,0,1.1,0.22,1.1,0.44
		c0,0.66-0.66,0.66-1.32,0.88c-6.6,0.66-11,4.62-14.3,10.12c-3.52,5.5-5.28,11.88-6.6,18.48c0,0.44-0.44,0.88-0.66,1.1
		c-0.22,0.22-0.66,0.22-1.1,0.22V495.01z M957.7,594.23l0.22-0.22c1.1-1.1,2.64-2.42,3.96-3.52l0.66-0.44c0,0.44,0,0.66-0.22,0.88
		c-0.44,1.76-2.2,2.64-3.52,4.18c-0.22,0.22-0.44,0.22-0.66,0.22c-0.22,0-0.44-0.22-0.66-0.22
		C957.48,594.67,957.48,594.45,957.7,594.23z M956.38,581.91c-0.66-0.22-1.32-0.22-1.76,0c-1.32,0.44-1.32,0-1.32-0.88v-11.88
		c0-3.52,0-7.04,0-10.78v-1.32c0.22-2.42,0.44-2.64,2.2-2.64c2.86,0,2.42-0.22,2.42,2.64v16.5c-0.22,2.42-0.22,4.84-0.44,7.04
		C957.48,581.47,957.48,582.13,956.38,581.91z M959.46,580.15v-20.46c0-3.74,0.22-7.92,0.66-11.88c0-0.22,0-0.44,0.22-0.66
		c0,0.22,0.22,0.22,0.22,0.44c0.44,0.66,0.88,1.76,0.88,2.64c0.22,1.1,0.22,2.42,0.22,3.52c-1.1,10.56-0.66,20.9-0.66,31.46
		c0,1.98-0.44,3.74-1.98,5.06c-0.22,0.22-0.44,0.22-0.66,0.22v-0.44C959.68,586.53,959.46,583.23,959.46,580.15z M958.36,542.31
		v-0.66c0,0,0.22,0,0.44-0.22c0.44,0.44,1.32,0.66,1.54,0.88c1.1,1.54,1.98,2.64,2.64,3.96v0.44c-0.22,0-0.44,0-0.44-0.22
		C961,545.17,959.68,543.85,958.36,542.31z M961,539.89c-3.52-1.76-6.6-1.76-9.9,0c-0.44,0.22-0.66,0.66-1.1,0.88
		c0,0-0.66,0.22-0.88,0v-0.66c0.22-1.98,0.22-3.96,0.66-5.94l0.66-11.88c0.44-3.74,0.88-7.92,1.32-11.44c0-1.1,0.44-2.2,0.66-3.3
		c0.66,0.66,1.54,1.1,2.42,1.98c2.64,2.2,5.72,1.98,9.02,1.1c2.42-0.66,2.2-0.88,2.2,1.98c-0.22,1.54-0.66,4.18-0.88,6.6
		c-0.22,1.98-0.22,3.74-0.44,5.28c-0.22,2.64-0.22,5.06-0.44,7.7l-0.66,6.6c-0.22,0.88-0.22,1.98-0.44,2.86
		C962.54,541.21,961.88,540.55,961,539.89z M962.32,508.65c0,0-0.44-0.22-0.88-0.22c0.22-0.22,0.22-0.66,0.44-0.88
		c1.54-0.88,2.86-1.98,4.62-3.3h0.22l0.22,0.22c-0.22,0.22-0.22,0.44-0.22,0.44C965.84,506.89,964.08,507.77,962.32,508.65z
		 M962.54,495.67c-3.08-0.88-3.08-0.88-2.2-4.18c1.54-4.84,3.08-9.9,6.16-14.3c1.76-2.86,3.96-4.84,7.7-5.72
		c0.66-0.22,0.88-0.22,1.1,0.66c0.22,1.1,0.44,1.98,0.88,3.3l-0.88,0.66c-2.2,0.44-3.74,1.76-5.06,3.3
		c-2.42,3.52-3.74,7.48-5.06,11.22c-0.44,1.1-0.44,2.64-0.88,3.96C964.08,495.45,963.86,495.89,962.54,495.67z M943.62,544.07
		c-0.22-0.88-0.22-1.54-0.22-2.2v-5.94h-0.22c0.22-3.52,0.22-7.48,0.66-11.22c0.66-6.16,1.54-12.54,2.42-18.7
		c0.22-2.2,1.32-4.18,3.52-5.5c1.76-1.32,3.74-2.42,6.38-3.08c0.44-0.22,0.88-0.22,1.32,0c0.44,0,0.44,0.66,0.88,0.88
		c-0.22,0.22-0.44,0.44-0.88,0.44c-0.88,0.22-1.98,0.44-2.86,0.88c-4.18,1.32-7.04,4.4-7.7,9.02c-0.44,3.3-0.88,6.82-1.54,10.12
		c-0.22,1.54-0.22,3.08-0.44,4.4c0,3.52-0.22,7.26-0.22,10.78c-0.22,1.54-0.44,3.08-0.44,4.84c0,4.4,1.76,7.92,6.16,10.12
		c0.66,0.66,1.54,1.1,2.42,1.54c0.22,0,0.44,0.44,0.22,0.44c0,0.22-0.22,0.66-0.44,0.44c-0.44,0-1.1,0-1.54-0.22
		C947.58,549.79,944.94,547.37,943.62,544.07z M948.24,553.09c-0.22,3.52-0.22,6.82-0.44,10.12v1.76c0,5.72,0,11.44,0,16.94
		c0,0.66,0,1.1-0.22,1.76c0,0.22-0.44,0.44-0.66,0.66c-0.22-0.22-0.44-0.44-0.44-1.1v-3.3c0-2.86,0-5.94,0-9.02v-7.92
		c0.22-3.3,0.22-6.6,0.44-10.12c0-0.22,0.22-0.44,0.44-0.66l0.66,0.66C948.24,552.87,948.24,553.09,948.24,553.09z M953.3,639.55
		c-1.54-0.66-3.3-1.1-5.06-1.98c-2.2-1.1-3.52-3.3-4.4-5.72c-0.44-1.54-0.88-3.52-0.88-5.28c-0.44-10.12-0.44-20.02-0.66-30.14
		c0-4.62,2.2-7.92,5.94-10.12c1.1-0.66,2.42-1.1,3.52-1.32c0.22-0.22,0.66,0.22,1.1,0.22c-0.22,0.44-0.44,0.88-0.66,0.88
		c-2.2,1.1-4.4,1.98-5.94,3.96c-1.54,1.76-2.42,3.74-2.42,6.38c0,3.96-0.44,7.7-0.44,11.66c0,4.62,0.22,9.02,0.44,13.42
		c0.22,3.08,0.44,5.5,0.88,8.36c0.22,3.08,2.64,5.5,5.5,7.26l3.3,1.76c0.22,0,0.88,0.22,1.1,0.22
		C953.96,639.11,953.74,639.33,953.3,639.55z M950.66,630.75c-0.88-0.88-1.54-2.42-1.54-3.74c-0.22-5.5-0.22-11-0.44-16.5
		c0-2.2-0.66-4.4-0.66-6.6c0.22-2.2,0.22-4.84,0.66-7.48c0-0.88,0.44-0.88,1.32-0.22c1.76,1.32,3.74,1.98,6.16,1.76
		c1.98,0,3.96-0.88,5.72-1.98c0.22-0.22,0.44-0.44,0.66-0.44c0.22,0.22,0.22,0.44,0.22,0.66c0.22,3.96,0.22,7.92,0.44,11.66
		c0.22,3.74,0.44,7.48,0.44,11.22c0,2.42-0.22,5.06,0,7.48c0.22,2.86-1.54,4.4-3.96,5.5C956.82,634.05,953.3,633.39,950.66,630.75z
		 M966.72,607.21c0,6.38,0.22,13.2,0.22,20.46c0,3.08-1.98,5.06-4.18,7.04c-0.22,0.44-0.66,0.44-1.1,0.44
		c0.22-0.44,0.44-0.88,0.66-1.1c1.32-1.32,2.42-2.64,2.86-4.4c0-0.88,0.22-1.54,0.22-2.2v-16.06c0-3.96-0.22-8.14-0.44-12.1
		c0-1.98-0.66-3.74-0.88-5.72c0-0.44,0.22-0.66,0.22-1.1l0.88,0.66c0.22,0.66,0.88,1.54,0.88,2.64L966.72,607.21z M968.48,518.55
		c0,1.76-0.22,3.52-0.44,5.28c0,2.64-0.22,5.28-0.44,7.7c0,2.2-0.44,4.18-0.66,6.38c-0.22,1.32-0.22,2.86-0.44,4.4
		c0,0.44-0.44,1.32-0.66,1.98c0,0.22-0.44,0.22-0.66,0.44c0-0.22-0.44-0.44-0.44-0.66c0-0.22,0.22-0.88,0.22-1.32
		c0.22-0.88,0.44-1.76,0.44-3.08c0.66-3.74,1.1-7.48,1.32-11.44c0.22-1.76,0.44-3.74,0.44-5.5c0.44-4.62,0.66-9.46,0.88-14.3
		c0-0.44,0.44-0.88,0.66-1.32c0.22,0.44,0.44,0.88,0.44,1.32c0.22,0.88,0.22,1.76,0.22,2.64
		C969.14,513.27,968.7,515.91,968.48,518.55z M981.68,478.29c-1.1,0.22-1.98,0.66-3.08,0.44c-2.86,0-4.62,1.32-6.38,3.74
		c-2.2,2.86-3.08,6.38-4.18,9.9c-0.66,2.64-1.1,5.5-1.98,8.14c-0.22,1.1-1.32,1.98-1.98,3.3c-0.22,0.22-0.44,0.22-0.66,0.22
		c0-0.22-0.22-0.88,0-1.1c0.44-1.76,1.54-3.52,1.76-5.5c1.1-3.96,2.2-7.92,3.74-11.66c0.88-2.2,1.76-4.62,3.74-6.38
		c1.32-1.1,2.64-1.76,4.18-1.98c1.76,0,3.52-0.22,5.06-0.22c0.22,0,0.44,0.22,1.1,0.44C982.34,478.07,982.12,478.29,981.68,478.29z
		 M983.22,480.05c0-0.22,0-0.44,0.22-0.44c1.54-1.1,3.08-1.76,4.18-3.52h0.66l0.44,0.22v0.22c-1.54,1.54-2.64,3.08-5.06,3.52H983.22
		z M1004.56,490.17c-0.88-2.2-1.98-3.3-4.4-3.74c-3.74-0.44-7.7-1.32-11.22-1.98c-1.1-0.22-1.98-0.66-2.64-1.1
		c-0.22,0-0.44-0.44-0.44-0.66c0.22-0.22,0.66-0.44,0.88-0.22l6.6,1.32c2.42,0.66,4.84,0.88,7.04,1.32
		c2.86,0.44,4.84,1.76,5.72,4.84c0.22,0.66,0.66,1.1,1.1,1.76c-0.22,0.44-0.22,0.66-0.44,0.66c-0.22,0.22-0.44,0.22-0.66,0
		L1004.56,490.17z M1000.6,557.71c-0.22,1.98-0.22,4.18-0.44,6.38c-0.44,3.08-0.44,5.94-0.66,9.02c0,0.88,0.66,1.98,0.66,3.08
		c0,0.44-0.44,0.66-0.44,1.1c-0.22,0.22-0.22,0.66-0.44,0.66c0,0,0-0.44-0.22-0.66c-0.88-1.76-0.88-4.18-0.88-6.38
		c0.22-3.3,0.66-6.82,0.88-10.56c0.22-2.64,0.44-5.28,1.1-8.14c0.44-3.3,1.1-5.94,1.32-9.02c0.22-1.54,0.44-3.52,1.76-4.84
		c0-0.22,0.22-0.22,0.44-0.44c0,0.22,0.22,0.44,0.22,0.44c0,0.44,0,0.88-0.22,1.32c-1.1,2.2-1.1,4.62-1.54,6.6
		c-0.44,2.2-0.66,4.84-1.1,7.26C1000.82,555.07,1000.82,556.39,1000.6,557.71z M1002.8,556.61c0.44-3.52,0.88-6.82,1.32-10.12
		l0.66-4.62c0.22-0.66,0.44-0.66,1.1-0.22c0.88,0.66,1.54,1.54,2.64,2.2c3.08,1.54,5.72,1.76,8.8,0.22c0.44-0.22,0.66-0.44,1.1-0.44
		l0.44,0.22c0,0.44,0,1.1,0,1.54c-0.44,2.86-0.88,6.16-1.1,9.24c-0.44,3.08-0.44,6.16-1.1,9.24c-0.44,3.52-0.66,7.04-1.1,10.78
		c0,0.22-0.22,0.44-0.22,0.44c-0.22,0-0.44,0-0.66-0.22c-1.76-1.98-4.4-2.64-7.26-2.64c-1.98,0-3.52,0.66-4.84,1.76
		c-0.66,0.44-0.88,0.66-0.88-0.22v-3.74h-0.22L1002.8,556.61z M1001.7,579.93v-0.66c0.66-1.76,2.2-2.86,3.52-4.18
		c0-0.22,0.88,0,1.32,0.44l-0.66,0.66c-1.32,1.1-2.42,2.42-3.52,3.52C1002.36,579.93,1001.92,579.93,1001.7,579.93z M1017.32,619.53
		c-3.96-2.86-6.6-6.6-8.8-10.78c-1.98-3.52-3.3-7.04-3.96-11.22c-0.66-3.96-1.32-7.92-1.54-12.1c0-1.76,0.22-3.74,1.32-5.06
		c0.22-0.22,0.66-0.22,0.88-0.44c0,0.22,0.22,0.66,0,0.88c-1.1,3.3-0.66,6.82-0.22,10.34c0.22,4.18,1.54,8.58,3.08,12.76
		c1.98,5.94,5.5,11.22,10.78,14.96c1.1,0.66,2.2,1.1,3.08,1.76c0.22,0.22,0.44,0.22,1.1,0.66c-0.88,0-1.32,0.22-1.54,0.22
		C1019.96,621.29,1018.42,620.41,1017.32,619.53z M1022.16,624.15c0.22-0.22,0.88-0.44,1.1-0.88c1.32-0.44,2.64-0.66,4.18-1.1v-0.44
		c0.44,0,0.88,0,1.54,0c-0.22,0.66-0.66,1.1-0.88,1.32c-1.1,0.66-1.98,1.1-3.08,1.32c-0.22,0.22-0.66,0-0.88,0h-0.66
		C1023.04,624.37,1022.38,624.15,1022.16,624.15z M1065.94,615.13c-1.32,3.74-3.74,7.04-6.38,9.9c-3.3,3.08-7.48,5.72-12.32,6.38
		c-1.98,0.22-3.96,0.44-6.16,0.44c-4.62,0-9.02-0.66-13.64-1.98c-1.1-0.44-1.98-1.54-3.08-1.98c0-0.22,0-0.44-0.22-0.66
		c0.22,0,0.44-0.22,0.66,0c0.44,0,0.88,0,1.1,0.22c2.42,1.54,5.72,2.2,8.58,2.64c2.2,0.44,4.4,0.66,6.82,0.66
		c2.42,0,4.84-0.22,6.82-0.88c6.82-1.76,11.44-5.94,14.96-11.66c1.32-2.42,2.42-4.84,2.86-7.7c0-0.44,0.66-0.66,0.88-1.1
		c0.22,0.44,0.44,0.66,0.44,1.32C1067.04,612.27,1066.6,613.81,1065.94,615.13z M1069.02,567.61c0,2.2-0.22,4.84-0.22,7.26
		c-0.44,3.52-0.88,6.38-1.1,9.68c-0.22,1.76-0.22,3.52-0.44,5.28c-0.44,3.52-0.88,7.26-1.76,11.22c-0.44,1.76-1.32,3.3-3.08,4.4
		c-0.22,0.22-0.66,0-0.88,0.22c0-0.44,0.22-0.66,0.22-0.88c1.98-1.76,2.42-3.96,2.86-6.6c0.66-3.74,1.1-7.48,1.76-11.44
		c0.22-2.42,0.22-5.06,0.44-7.48c0.22-3.3,0.44-6.82,0.44-10.12v-0.22c0-1.98,0-4.18,0-6.38c0-0.44,0.22-0.66,0.44-0.88
		c0,0.22,0.44,0.44,0.44,0.66C1069.02,564.09,1069.24,565.63,1069.02,567.61z M1070.56,561.45c-0.22,0-0.44,0-0.44-0.22
		c-0.44-0.22-0.66-0.44-0.88-0.88l-3.52-3.08c0-0.22-0.22-0.44-0.22-0.66c0-0.22,0.22-0.22,0.88-0.44c0.66,0.22,1.32,0.66,1.76,1.1
		c1.1,1.1,1.76,2.2,2.42,3.74V561.45z M1071.44,525.15v6.6c0,1.76,0,3.3,0,4.84c0,5.06-0.22,9.68-0.44,14.52
		c0,1.76-0.22,3.08-0.44,4.84c-1.32-0.22-2.2-1.76-3.52-2.2c-2.86-0.88-5.72-0.66-8.36,0.66c-0.44,0.66-1.1,0.88-1.76,1.32
		c-0.22-0.66-0.22-1.54-0.22-2.2c-0.66-4.18-0.44-8.36-0.22-12.76c0-3.3,0-6.16,0.22-9.46l0.88-7.92c0.22-0.66,0.22-0.66,0.88-0.22
		c1.32,1.1,2.86,1.76,5.06,2.2c2.2,0.66,4.18-0.44,6.38-1.1l1.54-0.66C1071.44,524.05,1071.44,524.71,1071.44,525.15z
		 M1071.66,518.77c-1.1,1.32-2.42,2.86-3.96,4.18c-0.22,0-0.66,0-0.66-0.22c-0.22-0.22-0.22-0.66,0-0.88
		c1.32-1.1,2.86-2.42,4.4-3.52c0-0.22,0.22-0.22,0.22-0.22c0,0.22,0.22,0.22,0.22,0.44L1071.66,518.77z M1074.74,529.77
		c0,6.38,0,12.76-0.22,18.92l-1.1,8.36c0,0.66-0.66,1.32-1.1,1.76c-0.66-0.66,0-1.32,0-2.2c0.22-1.98,0.66-3.74,0.66-5.72
		c0.22-6.38,0.22-13.42,0.44-20.02v-6.16c0-0.88-0.44-1.98-0.44-2.86c0-0.44,0.22-0.66,0.44-1.1c0.22,0.22,0.66,0.44,0.66,0.88
		c0.44,0.88,0.66,1.76,0.66,2.86c0.22,1.54,0.22,3.52,0.22,5.28H1074.74z M1081.34,482.47c-0.44,0.88-0.88,1.76-1.76,2.42
		c-2.2,2.2-3.3,4.62-4.18,7.26c-1.76,4.4-3.08,8.8-3.52,13.64c-0.44,2.64-0.66,5.5-1.32,8.14c-0.22,1.32-0.88,2.64-1.54,3.96
		c-0.22,0.22-0.66,0.44-1.1,0.66c-0.22-0.22-0.22-0.44-0.22-0.66c0-0.22,0.22-0.44,0.22-0.66c1.54-1.98,1.54-4.4,1.76-6.6
		c0.88-6.6,1.76-13.2,4.18-19.36c1.54-3.52,3.52-7.04,6.82-9.68c0.22-0.22,0.44-0.22,0.88-0.44
		C1081.56,481.59,1081.56,482.25,1081.34,482.47z M1079.58,469.27c0,0-0.22-0.44-0.44-0.44l0.44-0.66c1.98-1.1,3.52-2.42,5.28-3.52
		c3.96-2.42,8.36-3.96,12.98-4.84c2.42-0.44,5.28-0.44,7.7-0.88c3.3,0.22,6.16,0.44,9.68,1.54c0.22,0,0.44,0,0.66,0.22
		c0,0.22-0.22,0.44-0.44,0.44c-3.74,1.76-5.06,6.82-3.52,11c0.22,0.66,0.22,1.32,0.44,1.76h-1.76c-1.32-0.22-2.64-0.44-3.96-0.44
		c-4.4,0.44-8.8,1.1-12.98,3.3c-1.76,0.88-3.96,1.98-5.94,2.86c-0.22,0.22-0.88,0.66-0.66-0.44c0-1.1,0-2.42-0.22-3.3
		C1085.52,472.35,1083.54,469.71,1079.58,469.27z M1083.76,482.69c0,0.22-0.22,0.22-0.44,0.44c0-0.22-0.22-0.44-0.22-0.66
		c0.22-1.76,0.22-3.52,0.44-5.06c0-0.22,0.22-0.66,0.44-0.88c0.22,0.22,0.66,0.44,0.88,0.88v0.88c0,0,0,0,0.22,0L1083.76,482.69z
		 M1113.46,476.97c-0.88,0.22-1.32,0.22-1.98,0.44c-1.1-0.22-1.98-0.44-3.08-0.44c-3.74-0.22-7.92,0.22-11.66,1.76
		c-2.42,1.1-4.62,2.64-7.04,3.96l-2.64,0.66c0,0-0.22,0-0.44-0.22v-0.66c0.22,0,0.22,0,0.44-0.22c3.52-1.98,7.04-3.74,10.56-5.06
		c2.64-1.1,5.72-1.32,8.58-1.54c2.2-0.22,4.62,0.22,7.26,0.44c0.22,0,0.44,0.22,0.66,0.44
		C1113.9,476.75,1113.68,476.97,1113.46,476.97z M1116.76,474.99c-0.22,0.22-0.44,0.22-0.66,0c-0.88-1.54-1.98-2.86-2.42-4.84
		l0.44-0.66c0.44,0,0.66,0.22,0.66,0.44l1.98,4.4C1116.76,474.55,1116.76,474.99,1116.76,474.99z M1105.76,454.09
		c-7.04-0.22-13.2,1.32-19.36,4.18c-3.74,1.98-7.48,3.96-10.56,6.82c-3.3,3.08-3.96,7.92-2.42,11.88c0,0.22,0.22,0.44,0.22,0.66
		c0,0.44,0,1.1-0.22,1.32c-0.66,0.44-1.1,0-1.32-0.66c-1.1-3.08-1.54-6.38-0.22-10.12c1.1-3.08,3.74-4.62,6.38-6.6
		c5.06-3.74,10.78-6.16,16.94-7.7c4.62-1.1,9.46-1.32,14.3-0.88c2.64,0.22,5.94,0.66,8.58,1.54c3.96,1.32,6.6,3.96,7.48,8.14
		c0.66,1.76,1.1,3.3,0,4.84c0,0.22-0.44,0.44-0.66,0.66c-0.22-0.22-0.66-0.44-0.66-0.88c-0.22-1.76,0-3.52-0.66-5.28
		c-1.32-2.86-3.08-5.28-6.16-6.16C1113.68,454.53,1109.5,453.87,1105.76,454.09z M1120.28,475.21c-1.54-0.88-1.98-1.98-2.64-3.08
		c0-0.22,0-0.44,0.22-0.66c0,0.22,0.22,0.22,0.22,0.22c2.64,2.42,5.94,3.74,8.8,5.94c1.98,1.76,3.96,3.96,5.94,6.16
		c1.76,1.98,2.2,5.06,2.64,7.48c1.1,3.74,1.54,7.26,2.42,10.56c0.22,0.22,0,0.44,0,0.66l-0.88-0.22c-0.44-1.1-1.32-1.98-1.54-3.08
		c-0.44-3.96-1.1-8.14-2.42-11.66c-0.44-1.76-1.32-3.08-2.42-4.18C1127.76,479.83,1123.8,477.41,1120.28,475.21z M1128.64,530.21
		c0.44-2.42,0.66-5.06,1.1-7.26c0.44-3.08,0.88-5.72,1.1-9.02c0.22-1.54,0.22-3.3,0.44-5.28c0.44-0.66,0.66-1.54,1.1-2.42
		c0,0,0.44-0.22,0.66-0.22c0,0.22,0.44,0.44,0.22,0.66c-1.1,3.3-0.88,6.38-1.32,9.68c-0.22,2.42-0.88,4.62-1.1,6.82
		c-0.44,3.74-0.88,7.48-1.54,11.22c0,1.32-0.44,2.64-0.66,3.96c0,0.44,0,0.88,0.22,1.32c0,0.22,0.22,0.88,0.22,1.32
		c-0.22,0.22-0.44,0.44-0.66,0.88c-0.22-0.22-0.66-0.44-0.66-0.88v-2.42c0,0,0,0-0.22,0L1128.64,530.21z M1122.48,584.55
		c0.22-0.88,0.22-2.2,0.44-3.08c1.76-6.6,3.3-12.76,4.84-19.36l2.42-12.32c0.22-1.54,1.1-2.64,1.76-3.74
		c0.22-0.44,0.44-0.66,0.66-0.66c0.44-0.22,0.88-0.22,1.1-0.44c0,0.44,0,0.66-0.22,1.1c-0.66,1.1-1.32,2.2-1.76,3.74
		c-0.66,1.1-0.88,2.86-1.1,4.18c-1.1,4.62-1.98,9.46-3.08,14.52c-1.1,5.5-2.42,11.44-3.74,16.94c0,0.44-0.44,1.1-0.66,1.76
		c-0.22-0.88-0.44-1.32-0.66-1.76V584.55z M1120.72,586.75c0.22,0.44,0.22,0.66,0.44,0.66c0.88,1.32,1.76,2.86,2.64,4.4
		c0.22,0.22,0.22,0.44,0.22,0.88c-0.44,0-0.66,0-0.88-0.22c-1.54-1.1-2.42-2.64-2.64-4.84
		C1120.5,587.41,1120.72,587.41,1120.72,586.75z M1113.68,632.29c-2.42-1.98-3.96-4.4-3.74-7.48c0.22-2.42,0.44-4.84,0.88-6.82
		c0.22-2.2,0.44-4.18,0.88-6.38c0.66-4.18,1.54-8.14,2.2-12.1c0.66-2.2,1.1-4.4,1.76-6.6c0.22-1.1,0.88-1.98,1.32-2.86l0.88-1.32
		c0,0.66,0.44,1.32,0,1.76c-1.32,2.42-1.54,5.28-2.2,7.92l-2.64,12.32c-0.66,3.52-1.32,7.26-1.54,10.56
		c-0.22,2.64-0.22,4.84,0.22,6.82c0.44,1.54,1.76,2.64,2.42,3.74c0.44,0.22,0.44,0.44,0.44,0.66
		C1114.12,632.29,1113.9,632.29,1113.68,632.29z M1114.78,628.11c-1.32-1.32-1.32-1.1-1.32-5.28c0.22-1.98,0.66-4.84,1.32-8.14
		c0.44-3.52,0.88-7.04,1.54-10.34c0.88-3.96,1.76-7.7,2.42-11.44c0.22-0.88,0.66-0.66,1.1-0.22c0.44,0.22,0.88,0.66,1.32,1.1
		c2.64,3.08,6.6,3.08,9.9,1.76c0.22,0,0.88-0.22,1.1-0.44c0.66-0.44,0.66,0.22,0.66,0.66c-0.22,0.88-0.22,1.98-0.44,3.3
		c-1.32,5.5-2.2,11-3.3,16.72c-0.66,3.52-1.32,6.82-1.54,10.12c-0.22,2.2-1.54,3.08-3.52,4.18
		C1120.5,631.85,1116.98,630.75,1114.78,628.11z M1138.76,592.03l0.66,2.42c-0.44,2.64-0.88,5.06-1.1,7.48
		c-0.66,3.52-1.54,7.26-2.42,11c-0.22,2.2-0.66,4.18-1.1,6.6c-0.44,2.86-1.1,5.72-1.54,8.14c-0.22,3.3-2.42,5.28-4.62,7.04
		c-1.98,1.76-4.62,1.98-6.6,2.64c-0.22,0-0.44,0-0.88-0.22c0.22-0.22,0.44-0.44,0.66-0.44l3.74-1.32c4.18-2.42,6.6-5.5,7.26-10.34
		c0.44-4.62,1.32-8.8,2.2-13.2c0.44-2.64,0.88-5.28,1.54-7.92c0.22-1.76,0.44-3.96,1.1-5.94c0.88-3.96-0.22-7.04-3.08-9.68
		c-1.1-1.1-2.2-2.2-3.52-3.08l-0.44-0.66c0.22,0,0.44-0.22,0.66-0.22c0.66,0,1.32,0,1.54,0.22
		C1135.46,586.31,1137.88,588.73,1138.76,592.03z M1143.82,554.63l-4.62,21.12c-0.44,2.64-1.1,5.06-1.54,7.48
		c-0.22,0.66-0.66,1.1-0.88,1.32c-0.22-0.22-0.88-0.66-0.88-0.88c0.44-1.32,0.44-2.2,0.66-3.08c1.1-3.74,1.98-7.48,2.64-11.44
		c1.1-4.62,1.98-9.68,3.08-14.08v-0.66c0.22-0.66,1.32-1.32,1.54-1.1C1144.04,553.53,1144.04,554.19,1143.82,554.63z
		 M1154.16,522.07c-0.44,7.04-1.98,13.42-3.3,20.24c-1.1,5.72-5.28,7.92-9.9,9.24h-1.1c-0.44-0.22-1.32-0.44-1.32-0.66
		c0-1.1,0.66-0.66,1.32-0.66c4.4-0.88,9.02-3.3,9.9-8.58c0.66-4.4,1.54-8.14,2.2-12.32c0.66-3.74,1.32-7.26,1.32-10.78
		s0.22-6.82,0.22-10.12c0.22-3.96-1.76-6.6-4.62-8.36c-1.54-0.66-2.86-0.88-3.96-1.32c-0.44-0.22-0.88-0.66-1.1-0.88
		c0.44-0.44,0.88-0.88,1.32-0.88c1.98,0.88,4.4,1.54,6.16,2.86c2.64,2.42,4.18,5.72,3.74,9.46v1.98c0.22,0,0.22,0,0.22,0
		C1155.04,515.03,1154.6,518.55,1154.16,522.07z"/>
	<polygon class="st0" points="1309.26,573.55 1308.82,573.77 1309.04,573.99 	"/>
	<path class="st0" d="M1335.88,563.87c-0.44,0-0.44-0.22-0.88-0.22c-0.22-0.22-0.66-0.22-1.32,0c0-0.22-0.44,0.22-0.44,0.22
		l-1.32,0.66c-0.44,0-0.66,0.44-0.88,0.44l-0.66,0.44l-0.66,0.66l-0.44,0.22l-1.32,1.32l-0.44,0.22l-0.22,0.22h-0.88l-0.66,0.44
		c0-0.22-0.22-0.44-0.22-0.44c-0.66,0-0.88,0-0.88-0.22H1324c-0.22-0.66-0.22-0.66-0.44-0.44l0.22-0.66l0.22-0.22l0.66-0.44
		c0.22,0.22,0.22,0,0.88-0.22l0.22-0.44c0.44,0.44,0.88,0.22,0.88,0.22l0.44-0.44l0.44,0.22l0.44-0.22l0.88-0.88
		c0,0.22,0.44-0.22,0.88-0.44c-0.44-0.22,0.22-0.44,0.22-0.44l0.22-0.44c0.22-0.66,0.22-1.32,0.44-1.54l0.22-0.88v-2.42
		c0,0,0.22-0.66,0.66-0.66c0.22-0.22,0.88-0.66,0.88-1.1c0.44-0.44-0.22-0.22,0-0.88c-0.44-0.22-0.66,0.22-0.88,0.22
		c0,0.22-0.66,0.66-0.66,0.66l-0.66,0.66c0,0.44,0.22,0.88,0,0.88c-0.88,0.66-0.22,1.1-0.44,1.76l-0.44,0.44
		c0.22,0.44,0.22,0.66,0.44,1.54c0,0.22-0.44,0.66-0.66,0.66c0.22,0.44-0.22,0.66-0.22,0.88l-0.44,0.22
		c-0.22,0.22-0.44,0.44-0.88,0.44l-0.22,0.22c0,0-0.44,0-0.66,0.44l-0.66,0.22c0-0.22-0.44,0.22-0.44,0.22c-0.44-0.22-0.88,0-0.88,0
		c0-0.22-0.44,0.22-0.44,0.44c-0.66,0-0.66-0.44-0.44-0.66l-0.88-0.66l0.66-0.66l1.76,0.66l0.66-0.44l0.88-0.66
		c0.22,0,0.22-0.22,0.44-0.44l0.66-0.66c-0.22-0.66-0.22-1.1,0-1.54c0.22-0.44,0-0.66-0.44-1.32c0,0-0.22-0.22-0.22-0.44v0.22
		c-0.66-0.66-1.1-0.66-1.32-0.66l0.22-0.66l-0.66-0.66c-0.22-0.44-0.88,0-1.1,0l-1.1-0.66c0,0,0-0.44-0.22-0.44
		c0,0-0.22,0.22-0.44-0.22c0,0-0.22-0.22-0.44,0c-0.22,0-0.66,0.22-0.66,0.22s-0.66,0-0.44,0.44c-0.66-0.22-0.88-0.44-1.54,0.22
		c-0.22,0-0.22,0.44-0.22,0.22v0.22c-0.44,0.44-0.44,0.44-0.22,0.66c-0.22,0.66-0.44,0.88-0.44,1.32c0.44,0.44,0.22,0.66,0.44,0.88
		c-0.22,0.44,0,0.66,0.22,1.1c0,0.22,0,0.22,0.22,0.22l0.44,0.44l-0.44-0.22c-0.44,0.22-0.66,0-0.66,0.22l-0.66-0.44l-0.22,0.44
		c0-0.44,0-0.66-0.22-1.1c0.44-1.1,0.22-2.2,0.22-3.52c0-0.66,0.22-0.66,0.44-1.1l0.88-0.88l0.88-0.66c0,0,0.44,0,0.66-0.22
		l0.88-0.22l0.88-0.66l0.88-0.88l0.44-0.22c0.22-0.66,0.44-0.88,0.44-1.1v-0.22c0-0.44,0-0.44-0.44-0.22
		c-0.22-0.22-0.66-0.44-0.44-0.22c0.22,0.44-0.22,0.66-0.22,0.66v0.44c-0.22-0.22-0.22,0-0.22,0.44c0,0-0.22,0.22-0.66,0.22
		c0,0.22-0.22,0.22-0.44,0.66h-0.44c-0.44,0-0.44,0-0.44,0.22l-0.44,0.44c-0.44-0.22-0.44,0.22-0.66-0.22c0,0-0.44,0.22-0.22,0.44
		c-0.88,0.22-0.88,0.22-1.1,0.66l-1.1,0.88c-0.22,0.44-0.22,0.44-0.44,0.44c0.22,0.44,0,0.66,0.22,0.88l-0.22,0.22
		c-0.22,1.1-0.44,1.98,0,3.08c0,0-0.22,0.88-0.44,0.88c0.22,0.44,0.22,0.44-0.22,0.66c0.44-0.22,0.44,0.44,0.44,0.44l0.22,0.22
		c-0.22-0.22-0.88-0.44-0.66,0c-0.22,0.22-0.44,0-0.66,0l-0.66-0.66c0-0.22-0.22-0.66-0.66-0.66c0.22-0.22,0-0.66,0-0.66l0.22-1.1
		h-0.22c0.22-0.66,0-1.1,0.44-1.76c0.22,0,0.22-0.22,0-0.66c0-0.44,0.44-0.44,0.44-0.88l0.22-0.66c0-0.66,0.22-1.32,0-1.54
		c0.44-0.44,0.44-1.1,0.66-1.54c0.22-0.44-0.44-0.88-0.22-0.88c0,0,0-0.66-0.22-0.44c0.22-0.22-0.44-0.88-0.44-1.1
		c0-0.44-0.44,0-0.44,0l-0.44,0.44c-0.22,0.22-0.22,0.22,0.22,0.44c0,0,0,0.66,0.22,0.66c0,0.88,0.22,1.1,0.22,1.98
		c-0.22,0.22,0,0.88-0.44,1.1v0.44c-0.44,0.22-0.44,0.88-0.66,1.1c0.22,0.22,0.22,0.66,0.22,0.66c-0.44,0.44-0.44,0.66-0.88,0.66
		l0.22,0.22c0.22,0.66-0.22,1.76-0.22,2.86c0,0.22,0.22,0.22,0.22,0.88c0.22,0,0,0.66,0,0.88l1.1,1.1l-0.22,0.22l-0.44,0.22
		l-0.22-0.22c0,0-0.44-0.22-0.66-0.22c-0.88-0.22-1.54,0-2.2-0.22c-0.44,0-0.44-0.22-0.88,0.22h-0.88l-0.44,0.44
		c-0.66-0.22-0.88,0-1.1,0l-0.44,0.44c-0.44,0-0.44,0.44-0.44,0.22c-0.66-0.22-0.66-0.22-0.66,0.22h-0.88l-0.44,0.44l-0.66,0.44
		c-0.44,0.44-0.66,0.44-1.1,0.44l-1.1,1.1c-0.66-0.22-0.66-0.22-0.66,0l-0.44,0.22c-0.66,0-0.88,0.22-0.88,0.22l-0.66,0.22
		c-0.22,0.44-0.22,0.44-0.44,0.22c-0.22,0-0.44,0.22-0.66,0.66c-0.44,0.22-0.88-0.44-1.54-0.22v0.22c0,0.22,0,0.44-0.22,1.1
		l0.22,0.22l0.66-0.22c0-0.22,0-0.22,0.66,0c0.22-0.44,0.22-0.44,0.88-0.22l0.66-0.66h0.44c0-0.22,0.22,0,0.66-0.66l0.22,0.22
		l0.44-0.44c0,0,0.44-0.22,0.66-0.22c0.44-0.22,1.32-0.44,1.32-0.22c0-0.22,0.44-0.44,0.66-0.66l0.22-0.22l0.88-0.66h0.22
		c0.22,0,0.88,0,0.88-0.66c0.22,0.44,0.44,0.44,0.44,0.22l0.22-0.22c0.44-0.44,0.44-0.44,0.66-0.22c0,0,0.44,0,0.22-0.22h0.44
		l0.44-0.44c0.22,0.22,0.22,0.22,0.44,0l0.44-0.22c0.44,0,0.66,0,0.88-0.22c0.88,0.22,1.32,0.44,2.2,0.44
		c0,0.22,0.44-0.22,0.88,0.22v-0.22l0.22,0.44H1313c0.22,0,0.22,0.22,0.44,0.44l-5.06,1.98c-0.44,0-0.88,0-1.1,0.44
		c-0.22,0.22-0.44,0.22-0.44,0.22c0,0.22-0.22,0.22-0.66,0.44c0,0-0.22,0.22-0.44,0.22c-0.44,0-0.44,0-0.44,0.44
		c0.22-0.22,0.22,0,0.44-0.22c0,0,0.22-0.22,0.44,0h0.44l0.44-0.44l0.22-0.22c0.66-0.66,0.88-0.44,1.1-0.66l5.06-1.98v0.22
		c0.22,0.22,0,0.44,0.22,0.66c-3.52,1.1-8.8,4.62-8.8,4.84l-0.66,0.66l-0.22,0.44l-0.22,0.22l-1.76,0.44v-0.66l0.22-0.22v-0.22
		c0.22-0.44,0.66-0.88,1.32-1.54c0.22,0,0.44-0.22,0.88-0.66c0.22-0.22,0.44-0.44,0.66-0.44l0.22-0.22h-0.22
		c-0.22,0.22-0.44,0-0.88,0.22c-0.22,0.44-1.1,0.88-0.88,0.66l0.44-0.44v-0.44l0.22-0.22c0.22-0.22,0.44-0.22,0.88-0.44
		c0.44-0.44,0.88-0.66,0.88-0.88l0.22-0.22c0,0,0.22-0.22,0.44-0.22s0.44-0.22,0.66-0.22l0.44-0.44c0-0.22,0-0.22,0.22,0
		c0.66-0.44,1.54-0.66,2.42-0.88l0.88-0.22c0,0,0.44,0,0.88-0.22l-0.22,0.44c0,0.22,0.22-0.22,0.22-0.22l0.44,0.22l0.22-0.22
		c-0.22,0.22-0.22,0.22-0.22-0.44l0.22,0.44l0.44-0.44l0.44-0.22h-1.54c0,0-0.22,0.44-0.66,0.22c-0.44-0.22-0.88-0.22-1.1,0.22
		c-0.44,0-0.66,0.22-1.1,0c0.44,0.44-0.22,0-0.22,0.22c-0.44,0.22-0.66,0.22-0.88,0.44c0,0-0.44,0-0.88,0.44
		c-0.22-0.22-0.22,0-0.44,0.22c-0.22-0.22-0.22-0.22-0.44,0.22l-1.32,1.1l-0.88,0.88l-0.88,0.44c-0.44,0.44-0.22,0.66-0.66,1.32
		l-0.66,0.44c0.22,0,0,0.44-0.22,0.44c0.22,0.88-0.66,1.32,0,1.76l-0.44,0.44c0,0.66,0.22,0.66,0.44,1.1c-0.66,0.44-0.22,0.66,0,1.1
		c0,0,0.22,0.22,0.22,0.44c0.22,0,0.44,0.22,0.44,0.44v-0.22v-0.44l0.22-0.22c0-0.22,0-0.66-0.44-0.66c-0.22-0.44,0-0.88-0.22-1.54
		l1.98-0.44l0.66-0.22l-0.44,0.66c0,0.44-0.22,0.66-0.44,0.66v0.22c0,0.88-0.88,1.32-0.88,1.98l-0.22,0.44
		c0-0.22-0.22-0.22-0.22-0.22c0.22,0.22,0.22,0.22,0,0.44l0.22,0.22l0.22-0.22c0.44,0.22,0.66,0.88,0.66,0.88l1.98-0.22l0.66,0.44
		h-0.44c0.44,0.22,0.66,0.44,0.22,1.1c0,0.44,0.22,0.66,0,0.66c0.22,0.44,0,0.66,0.22,1.32c0,0,0.66,0.22,0.66,0.44l0.22,0.44
		l0.22,0.44l0.66,0.44c0.88,0.66,1.32,0.22,2.2,0.44c0.44,0,0.88-0.22,1.1-0.22c0.44-0.44,0.66-0.22,1.32-0.22
		c0.22-0.22,0.22-0.22,0.44,0l0.22,0.88c-0.22,0-0.22,0,0,0.44l0.66,0.66l0.66,0.88l0.22,0.22l0.22-0.22c0.22,0,0.66,0.22,0.66,0.22
		h0.66l0.44,0.22l0.88-0.44l0.22-0.22c0.22,0.44,0.88-0.22,0.88-0.22h0.44v-0.22c0.22,0.22,0.22,0.22,0.66-0.22
		c-0.22-0.22,0-0.22,0.22-0.44l0.44-0.22c0.22-0.22,0.44-0.22,0.22-0.22l0.22-0.44l0.66-0.44l0.22-0.22c0-0.66,0.22-0.66,0.22-1.1
		c0.22,0,0.44-0.44,0.44-0.44c0.22-0.22,0.22-0.66,0.22-1.1c0,0,0.44-0.88,0.22-0.88l0.66-1.1c0-1.32-0.22-2.2,0-3.3
		c0.22-0.22,0.22-0.88-0.22-1.1c0.22-0.22,0.22-0.22,0-0.88h-0.44c0,0,0.44-0.44-0.22-0.44c0,0,0.44-0.44,0.66-0.44
		c-0.44,0-0.44-0.66-0.44-0.66s-0.22,0-0.22-0.22l0.88,0.66c0,0,0.22,0.44,0,0.66l0.66,0.66l-0.44,0.66l0.66,0.44
		c-0.22,0.88-0.22,1.32-0.22,1.98c0,0.44,0,0.88,0.22,1.32c-0.22,0.66-0.22,1.76-0.66,2.64c-0.22,1.76-0.44,3.52-0.44,5.06v1.1
		c0.22,0,0.22,0.44,0.22,0.66l0.44,0.66l0.22,0.22c0.44-0.22,0.44-0.66,0.44-0.44l0.22-0.22c-0.22-0.66-0.66-0.66-0.22-1.32
		c0.22-0.44,0-0.66-0.22-1.32c0-1.32,0.22-2.42,0.44-3.96c0-0.88,0.22-1.76,0.22-2.64c0.44-0.88,0.44-1.1,0.22-1.76
		c0.22-0.22,0-0.66-0.22-1.32c0.44-0.66,0.22-0.66,0.22-1.32c0-0.44-0.22-0.66-0.44-0.88l-0.66-1.54c0.44-0.22-0.22-0.22-0.22-0.44
		c-0.44-0.22-0.88-0.66-0.66-0.66c-0.22,0-0.22-0.44,0.22-0.66v-0.22l0.22,0.22l0.22-0.22c0.22,0,1.32,0.44,1.32,0.44
		c0.22,0,0.66,0.22,0.66,0.22h0.22c0.44-0.44,0.66-0.22,0.88-0.22l0.66-0.44c0.44,0,0.66,0,0.44-0.44c0.22,0,0.66-0.22,0.66-0.22
		c0.66-0.44,0.88-0.22,1.32-0.44c0.22-0.22,0.44-0.66,0.22-0.66c1.1-0.44,1.1-0.44,1.32-0.66l0.66-0.44
		c0.22-0.22,0.44-0.66,1.1-0.66l0.88-0.44c0.22,0,0.88,0,1.1-0.22c0,0,0.22,0.44,0.66,0.44c0,0,0.22-0.22,0.22-0.66h-0.44
		L1335.88,563.87z M1303.54,573.99h0.22c0.44-0.22,0.66-0.44,0.88-0.66v-2.2l0.44-0.22c0.22-0.22,2.2-1.54,4.4-2.86
		c-0.44,0.88-1.1,2.2-1.76,3.96c-0.44,0.66-0.66,1.54-0.44,1.98l-0.44-0.44l-0.88,0.22l-0.44,0.66l-2.2,1.32
		C1303.1,575.09,1303.32,574.87,1303.54,573.99z M1310.8,573.33h-0.22l-0.44,0.66l-0.66,0.44l-0.44,0.44c-0.22,0-0.66,0.44-1.1,0.66
		c-0.44,0.22-0.66,0.22-0.88,0.22v0.22c-0.44,0-0.66,0-0.88,0.22l-0.22,0.44c-0.22,0-0.44-0.22-0.88-0.44
		c-0.22,0-0.44,0.22-0.44,0.44c-0.22,0-0.44-0.22-0.44,0c-0.66,0-0.88-0.22-1.1-0.44c1.1-0.44,2.64-1.54,2.64-1.54l0.44-0.44h0.44
		l0.44,0.66l0.22-0.44c0,0,0.88-2.64,1.98-4.84v0.22c0,0.66-0.22,1.32-0.66,2.2c-0.22,0.44,0,1.54,0.22,1.76
		c0.22-0.44,0.22-1.1,0.22-1.54c0.22-0.88,0.66-1.54,0.66-2.42l0.22-0.22v-1.1c0.22-0.44,0.66-1.1,1.1-1.32h0.22
		c0.22-0.22,0.66,0,0.66,0c-0.22,0.22-0.22,0.44-0.22,0.88c0,0.22,0,0.44-0.22,0.66h-0.22c0.22,0.22,0.22,0.22,0.22,0.66
		c0,0.22,0,0.22,0.44,0.66c0,0-0.22,0.22,0,0.44l-0.22,0.22l0.44-0.22v-0.22c0.22,0,0-0.22-0.22-0.44c0-0.22-0.22-0.44-0.22-0.44
		c0.22,0,0.22,0,0.44-0.44c0-0.66-0.22-0.44,0-0.88c0-0.66,0-1.1,0.44-1.32h0.22c0-0.22,0.22-0.66,0.66-0.44c0,0.44-0.44,1.1,0,1.54
		c-0.22,0.44,0.22,0.88,0,1.1c0,0.44,0,0.66-0.22,0.88C1312.78,571.35,1311.9,572.45,1310.8,573.33z M1314.54,584.55
		c-0.22-0.66-1.1-0.66-1.1-1.54v-1.32l-0.44-0.44c0.22-0.22,0.22-0.66,0.44-0.88c-0.44-0.22-0.22-0.66,0.22-1.1
		c-0.22-0.66,0.22-0.66,0.44-1.76c0.12,0,0.17,0.02,0.19,0.03c-0.03-0.03-0.08-0.14,0.03-0.47l0.22-0.44c0,0,0-0.22,0.22-0.22
		c0.22-0.66,0.44-1.54,1.1-1.76l-0.44-0.44c0.66,0.22,0.44-0.22,0.44-0.22l0.44-0.44c0.22-0.44,0.44-0.44,0.44-0.44
		c0-0.22,0-0.22,0.44,0c0,0,0-0.44,0.22-0.44c0-0.22,0-0.22,0.22-0.22l0.44-0.22h0.22h0.22h0.22c0,0,0.22,0,0.44-0.22l0.22,0.22
		l0.66-0.22h0.22c0,0,0.22,0.22,0,0.44l-0.22,0.22c0,0-0.66,0.44-0.88,0.44c-0.44,0.22-0.66,0.22-0.88,0.44v0.22h-0.22
		c-0.22,0.22-0.44,0.22-0.66,0.22s-0.22-0.22-0.66,0l-0.22-0.22l0.44,0.66h0.22c0,0.22,0.22-0.22,0.22-0.22
		c0.44,0.22,0.66,0.22,0.88,0.22l0.22-0.22v-0.44c0.44,0.22,0.66,0,0.66,0c0.44-0.22,0.88-0.44,1.1-0.66v0.66h-0.22
		c0,0.44-0.44,1.1-0.66,1.54c-0.44,0.22-0.66,0.44-0.88,0.88l-0.22-0.22c-0.44,0.44-1.32,0.88-1.76,1.32
		c-0.22,0.44-1.1,0.66-1.54,0.88v0.22c0.22,0.22,1.32-0.22,1.76-0.66c0.29-0.29,0.76-0.49,1.23-0.77c-1.36,1.21-3.31,2.97-3.43,2.97
		v0.22l0.88,0.44v0.66c0,0.44-0.66,1.98-0.44,3.52C1314.76,584.55,1314.54,584.55,1314.54,584.55z M1318.28,584.11
		c-0.66,0.44-1.32,0.66-2.2,0.44l-0.22,0.22c0-0.22,0.44-0.66,1.1-1.32l0.22-0.22c-0.22-0.44,0-0.44,0.22-0.66
		c0.22-0.22,0.66-0.22,0.66-0.66l0.22,0.66l-0.22,0.22C1318.06,582.79,1318.28,583.45,1318.28,584.11z M1317.18,582.13
		c-0.44,0.44-0.44,0.66-0.44,0.66l-0.44,0.44c0,0.44-0.66,0.88-0.88,1.1c-0.22-1.1,0.44-2.64,0.44-2.64v-0.88l-0.44-0.44v-0.22
		c0.22-0.44,1.32-0.88,1.76-1.76c1.54-0.88,2.2-1.98,2.64-2.86l-0.88,5.28v0.44l-0.22,0.22
		C1318.72,581.47,1317.4,581.69,1317.18,582.13z M1320.92,581.03c-0.22,0-0.22,0.22-0.22,0.88c-0.22,0.22,0,0.44-0.22,0.44
		c-0.66,0.66-1.1,1.1-1.76,1.54c0-0.44,0-1.1-0.22-1.32v-0.66l0.44-0.22l0.66-0.66c0,0,1.32-5.72,1.32-9.46v-0.22l0.22-0.22
		l0.44,5.06c-0.22,0.22-0.22,0.88-0.22,1.1l-0.22,0.22c0,0.22-0.22,0.66,0,1.1v0.22l-0.22,0.22c0.22,0.22,0.22,0.66,0.22,0.88
		C1320.7,580.15,1320.92,580.37,1320.92,581.03z M1322.68,572.67l-0.22,0.22l0.22,0.22c-0.22,0.44-0.22,0.44,0.22,0.66
		c0.22,1.1-0.22,1.98-0.22,3.08c-0.22,0,0,0.22,0,0.44v0.44c-0.22,0-0.44,0.22-0.44,0.22l0.22,0.22c-0.44,0.88-0.44,1.32-0.66,1.98
		c-0.22,0.22-0.44,0.88-0.44,1.1c0,0,0,0.22-0.22,0c0.22,0,0-0.22,0.22-0.44v-1.1h0.22c0-0.22,0.22-0.22,0-0.66v-0.44l-0.22-0.22
		c0-0.22,0.22-0.44,0.22-0.66l0.22-0.22c0-0.44,0.22-1.1-0.22-1.54v-5.28c0,0,0,0.22,0.44,0.66l0.22,0.22c0,0.22,0.22,0.44,0,0.44
		c0.22,0.22,0.22,0.22,0,0.22L1322.68,572.67z"/>
	<path class="st0" d="M1219.5,471.03l-62.26,154h24.86l16.72-44.44h67.76l16.94,44.44h25.96l-62.48-154H1219.5z M1206.3,561.01
		l21.34-56.54c1.76-4.62,3.74-9.24,5.28-13.86c1.54,4.62,3.08,9.02,4.84,13.86l21.56,56.54H1206.3z"/>
	<path class="st0" d="M1200.36,700.27v-0.22c-0.66,0-0.88,0.22-1.32-0.44c-0.22-0.22-0.66-0.22-1.32-0.22l-3.3-2.2
		c-0.88-0.44-1.54-1.1-2.42-1.32c-0.44-0.88-0.66-0.88-1.32-1.1c-0.22-0.22-0.66-0.22-1.32-0.22c-0.44-0.88-0.44-0.66-1.1-0.88
		c-0.44-0.22-0.66,0-1.1,0h-1.54c0-0.44-0.44,0-0.44,0c-0.44,0.22-1.1,0.44-0.88,0.22c-0.22,0.22-0.66,0-0.66-0.44l-0.22-0.22h0.44
		l-0.22-0.22l1.1-1.1c0-0.22,0.44-0.44,0.44-0.44v-0.22c0-0.66,0.22-0.66,0.22-0.88v-0.88c0.22-0.22,0.22-0.44-0.22-0.44v-0.66
		c0-0.88,0.22-0.88,0.22-1.54c0-0.22-0.44-0.22-0.44-0.44v-1.54l-0.22-0.66c0-0.22-0.44-0.66,0-1.32v-0.88l0.22-1.1
		c0,0,0.44,0,0.66-0.44c0,0,0-0.44-0.44-0.44l-0.22,0.22l-0.22-0.22c-0.22,0.22-0.44,0.22-0.66,0.66c-0.22,0-0.44,0.44-0.66,1.1
		c-0.22,0,0,0.44,0,0.44v1.54c0,0.44,0.22,0.88,0,1.1c0.22,0.44,0.22,0.44,0.22,0.66l0.22,0.88v0.44c0.44,0.88,0.66,1.54,0.66,1.76
		v0.66l0.22,0.22c0,0-0.44,0.66-0.44,0.88v0.66h-0.44c-0.22,0.66-0.44,0.88-0.66,0.66l-0.22,0.66c-0.66,0-0.66,0-0.66,0.22
		l-0.44-0.44v-0.44c0,0,0-0.44-0.22-0.66c0.44-0.22,0.22-0.22,0.22-0.88l-0.22-0.44c0.44-0.22,0.44-0.66,0.44-0.66l-0.22-0.66
		l0.44-0.22v-0.44l-0.44-1.32c0.22,0.22,0-0.44,0-0.88c-0.22,0.22-0.22-0.44-0.22-0.44l-0.22-0.44c-0.66-0.44-1.1-0.66-1.32-1.1
		l-0.66-0.44l-2.2-1.1c0,0-0.44-0.44-0.22-0.88c-0.22-0.22-0.22-1.1-0.66-1.32c-0.22-0.66-0.22,0.22-0.88-0.44
		c-0.22,0.44,0,0.66,0,0.88c0.22,0.22,0.22,0.88,0.22,0.88l0.22,0.88c0.44,0.22,0.88,0.22,0.88,0.44c0.22,1.1,0.88,0.66,1.32,1.1
		l0.22,0.66c0.44,0,0.66,0.22,1.54,0.22c0.22,0.22,0.44,0.88,0.44,0.88c0.44,0,0.44,0.66,0.66,0.66v0.44c0,0.44,0.22,0.66,0,1.1
		v0.22c0,0,0,0.44,0.22,0.88v0.66c-0.22-0.22,0,0.44,0,0.44c-0.44,0.22-0.44,0.88-0.44,0.88c-0.22-0.22,0,0.44,0.22,0.44
		c-0.44,0.66-0.66,0.44-0.88,0.22l-0.88,0.44l-0.22-0.22l-0.22-0.66c0.44-0.22,0.88-0.88,1.32-1.32v-0.66l-0.22-1.1
		c0.22-0.22,0-0.44-0.22-0.66l-0.22-0.88c-0.66,0-1.1-0.22-1.54-0.66c-0.22-0.44-0.44-0.22-1.32-0.22c0,0-0.22,0.22-0.44,0
		l0.22,0.22c-0.88,0.22-1.1,0.66-1.1,0.88l-0.66-0.66l-0.22,0.22l-0.66,0.22c-0.44,0-0.22,0.66-0.44,0.88c0,0-0.66,0.44-1.1,0.88
		c0,0-0.44-0.22-0.44,0c0,0,0,0.22-0.44,0.22c0,0-0.22,0-0.22,0.44v0.66c0,0-0.22,0.66,0.22,0.66c-0.44,0.44-0.88,0.44-0.44,1.32
		c-0.22,0.22,0.22,0.44,0,0.44h0.22c0.22,0.66,0.22,0.66,0.44,0.44c0.66,0.44,0.66,0.88,1.1,1.1c0.44-0.22,0.66,0,0.88,0
		c0.44,0.22,0.66,0.22,1.1,0.22c0.22,0,0.22,0,0.44-0.22h0.44l-0.44,0.22c0,0.44-0.22,0.66,0,0.66c-0.22,0-0.22,0-0.66,0.44
		l0.22,0.44c-0.44-0.22-0.44-0.44-1.1-0.44c-0.66-0.88-1.76-1.1-3.08-1.76c-0.44-0.22-0.22-0.44-0.66-0.88l-0.22-0.22l-0.22-0.88
		l-0.22-1.1c0,0,0.22-0.44,0-0.66c0.22-0.22,0.22-0.66,0.22-0.88l-0.22-1.1l-0.44-1.1v-0.66c-0.44-0.44-0.44-0.66-0.66-0.66
		l-0.22-0.22c-0.44-0.44-0.44-0.22-0.44,0.22c-0.22,0.22-0.66,0.44-0.44,0.44c0.66,0,0.66,0.44,0.66,0.44l0.22,0.22
		c-0.22,0,0,0.22,0.44,0.44c0,0,0,0.22-0.22,0.66c0.22,0,0.22,0.22,0.44,0.66l-0.22,0.44c-0.22,0.22-0.22,0.22,0,0.44l0.22,0.66
		c-0.44,0.22,0,0.44-0.44,0.44c0,0,0,0.44,0.22,0.44c0,0.88,0,0.88,0.22,1.1l0.22,1.54c0.44,0.22,0.44,0.22,0.22,0.44
		c0.44,0,0.66,0.44,0.88,0.22l0.22,0.44c0.88,0.66,1.54,1.1,2.64,1.32c0,0,0.66,0.44,0.66,0.66c0.44,0,0.44,0,0.44,0.44
		c0-0.44,0.66,0,0.66,0l0.22-0.22c-0.22,0.22-0.66,0.66-0.22,0.66c0,0.22-0.22,0.44-0.22,0.44l-0.88,0.44
		c-0.22-0.22-0.66-0.22-0.88,0.22c-0.22-0.22-0.66-0.22-0.66-0.22l-0.88-0.66l-0.22,0.22c-0.44-0.44-0.88-0.44-1.32-1.32
		c0.22,0,0-0.22-0.66-0.22c-0.22-0.22,0-0.66-0.44-0.66l-0.66-0.66c-0.44-0.22-0.88-0.66-1.32-0.66c-0.22-0.44-0.66-0.88-1.1-1.1
		c-0.22-0.44-0.88,0-0.88-0.22c0,0-0.66-0.44-0.44,0c-0.22-0.44-1.1,0-1.1-0.22c-0.44-0.22-0.22,0.44-0.22,0.44l0.22,0.66
		c0,0.22,0,0.22,0.44,0c0,0,0.66,0.22,0.66,0c0.88,0.44,1.1,0.22,1.76,0.66c0.22,0.44,0.88,0.44,0.88,0.88c0,0,0.22,0.22,0.44,0.22
		c0,0.44,0.66,0.88,0.66,1.1c0.22-0.22,0.66,0,0.66,0c0.22,0.66,0.44,0.66,0.22,1.1h0.44c0.66,0,1.32,0.88,2.42,1.32
		c0.22,0.22,0.22,0,0.88,0.22c0-0.22,0.44,0.44,0.66,0.44l0.88-0.22l0.66-0.22l0.22,0.22v0.44l-0.44,0.22c0,0-0.44,0.22-0.44,0.44
		c-0.66,0.66-0.66,1.32-1.1,1.98c-0.22,0.22-0.44,0.22-0.22,0.88l-0.44,0.66l0.22,0.66c-0.44,0.44-0.44,0.66-0.44,0.88l0.22,0.66
		v0.44c-0.44,0.66-0.44,0.66-0.22,0.66l-0.22,0.44v0.44l0.22,0.66v0.66c0.22,0.66,0.22,0.88,0,1.32l0.22,0.88l0.22,0.44
		c-0.44,0.66-0.44,0.66-0.22,0.66v0.44c-0.44,0.66-0.22,0.88-0.22,0.88l-0.22,0.66c0.44,0.44,0.44,0.44,0,0.66
		c0,0.22,0,0.44,0.44,0.88c0,0.44-0.88,0.44-0.88,1.32h0.22c0.22,0,0.44,0.22,0.88,0.66h0.22l0.22-0.88c-0.22,0-0.22,0,0.22-0.44
		c-0.44-0.44-0.44-0.44,0.22-0.88l-0.44-0.88l0.22-0.44c-0.22-0.22,0.22-0.22-0.22-0.88l0.22-0.22l-0.22-0.44c0,0,0-0.44,0.22-0.66
		c0-0.66,0-1.54,0.22-1.32c-0.22-0.22-0.22-0.66-0.22-0.88v-0.44l-0.22-0.88v-0.22c0-0.22,0.44-0.88-0.22-1.1
		c0.44,0,0.66-0.22,0.44-0.44l-0.22-0.22c0-0.44-0.22-0.66,0.22-0.66c0,0,0.22-0.44-0.22-0.22l0.22-0.44l-0.22-0.66
		c0.44,0,0.44,0,0.22-0.44v-0.44c0.22-0.44,0.22-0.66,0.22-0.88c0.66-0.66,0.88-1.1,1.32-1.76c0.22,0,0-0.44,0.66-0.66l-0.22-0.22
		h0.44l-0.22,0.66c0-0.22,0.22,0,0.66-0.22l0.22,0.22c0.44-0.22,0.44,0.22,0.66,0c-0.44,3.74,0.44,10.12,0.66,10.12l0.22,0.88
		l0.22,0.44l0.22,0.22c-0.22,0.22-0.22,1.1-0.44,1.76c-0.22,0-0.44-0.22-0.44-0.22l-0.22-0.44h-0.22l-0.88-1.76
		c0.22-0.22,0-0.66,0-1.1c-0.22-0.44-0.22-0.66-0.22-0.88v-0.22l-0.22,0.22c0.22,0.22-0.22,0.22-0.22,0.88
		c0.44,0.22,0,0.88,0.22,1.32c0,0-0.22-0.44-0.22-0.88l-0.22-0.22l-0.22-0.22v-1.1c-0.22-0.44-0.22-1.1-0.44-1.1v-0.22
		c0,0-0.22-0.44,0-0.66v-0.66l-0.22-0.44c-0.22-0.22-0.22-0.22,0.22-0.22c-0.22-0.88,0-1.76,0.22-2.64h-0.22
		c-0.44,0,0.22-0.66,0.44-0.88c0,0,0.22-0.44,0.22-0.88l0.44-0.22v-0.22c0,0.22,0,0.22-0.44,0h0.44l-0.22-0.66v-0.44
		c-0.44,0.66-0.44,0.66-0.66,1.32c0,0,0.22,0.44-0.22,0.66c-0.22,0.44-0.44,0.66-0.22,1.1c-0.22,0.44,0,0.66-0.44,1.1
		c0.1-0.03,0.16-0.05,0.19-0.07c-0.1,0.05-0.32,0.17-0.19,0.29v0.88c0,0-0.22,0.44,0,1.1c-0.22,0,0,0.22,0,0.44
		c-0.22,0.22-0.22,0.22,0,0.44l0.44,1.76l0.44,1.1v1.1c0.22,0.44,0.44,0.44,0.88,1.1l0.22,0.88c0-0.22,0.44,0.22,0.22,0.22
		c0.88,0.22,0.88,1.32,1.54,0.88l0.22,0.66c0.66,0.22,0.66,0,1.32,0c0,0.88,0.44,0.44,0.88,0.44h0.44c0.44-0.22,0.88-0.22,1.1,0
		h0.22v-0.44c0.22-0.22,1.1-0.22,1.1-0.22l0.66-1.76l0.66-0.44l-0.22,0.44c0.44-0.44,0.66-0.44,1.1,0.22
		c0.44,0.22,0.66,0.22,0.66,0.22c0.44,0,0.44,0.44,1.1,0.44l0.66-0.44h0.66h0.44l0.66-0.44c0.88-0.44,0.88-0.88,1.32-1.76
		c0.22-0.22,0.22-0.88,0.44-1.1c-0.22-0.44,0-0.66,0.22-1.1c0-0.44,0-0.44,0.22-0.44l0.88,0.22c0,0.22,0,0.22,0.44,0.22l0.88-0.44
		l1.1-0.22h0.22v-0.44l0.44-0.44l0.22-0.66l0.44-0.22v-1.32c0.44,0,0-0.88,0-0.88l0.22-0.22v-0.22h-0.22c-0.44,0,0.44,0,0.22-0.66
		c-0.44,0-0.22-0.22-0.44-0.44v-0.44v-0.22l-0.22-0.44l-0.22-0.88v-0.22c-0.66-0.22-0.66-0.44-0.88-0.66c0-0.22-0.22-0.66-0.22-0.66
		l-0.88-0.66c0,0-0.66-0.88-0.88-0.66c-0.22-0.22-0.22-0.66-0.66-1.1c-1.1-0.44-1.98-0.66-2.86-1.32c-0.22-0.22-0.66-0.66-1.1-0.22
		c-0.22-0.44-0.22-0.44-0.88-0.44l-0.22,0.44c0,0-0.22-0.66-0.44,0c0,0-0.22-0.66,0-0.88c-0.22,0.44-0.88,0.22-0.88,0.22h-0.22
		l0.88-0.44c0,0,0.44,0,0.66,0.22l0.88-0.22l0.44,0.66c0.44-0.44,0.66-0.44,0.66-0.44c0.66,0.66,1.1,0.88,1.76,1.1
		c0.22,0.22,0.66,0.44,1.1,0.44c0.66,0.44,1.54,0.88,2.2,1.76c1.54,0.88,3.08,1.54,4.4,2.42l0.88,0.66c0.22-0.22,0.44,0,0.66,0h0.88
		l0.22-0.22C1200.58,700.49,1200.14,700.27,1200.36,700.27z M1175.28,712.15c0.22,0.22,0.22,0.44,0.22,0.66L1175.28,712.15z
		 M1180.56,715.45l-0.44-0.22v-0.22c-0.22-0.22-0.66-0.44-0.88,0c-0.44,0-0.66-0.44-1.32-0.44c0-0.88,0.44-1.98,0.44-1.98v-0.66
		l0.44,0.66c0.44,0.22,0.44,0.44,0.44,0.66h0.22c0.66,0.66,0.66,1.54,1.32,1.76l0.22,0.44H1180.56z M1179.68,713.47v-0.22
		c0-0.44,0-0.88-0.22-1.1c-0.66-0.22-1.98-0.88-1.98-0.88v-0.66c0-0.22-0.44-2.64-0.66-5.06c0.66,0.66,1.54,1.98,2.86,3.3
		c0.44,0.66,1.1,1.32,1.54,1.32l-0.66,0.22l-0.22,0.88l0.44,0.66l0.22,2.42C1180.34,714.35,1180.34,714.13,1179.68,713.47z
		 M1182.98,711.05c-0.22,0.44-0.66,0.66-0.22,1.1l0.22,0.22c0,0.22-0.44,0.44-0.66,0.66c-0.22,0.22,0,0.44,0.22,0.66
		c-0.22,0.22-0.44,0.22-0.22,0.22c-0.44,0.66-0.66,0.88-0.88,0.88c0-1.1-0.22-3.08-0.22-3.08l-0.22-0.44l0.22-0.44l0.66-0.22
		l-0.22-0.22c0,0-1.98-1.98-3.3-3.96c0.66,0.44,1.1,0.88,1.76,1.54c0.22,0.44,1.32,0.66,1.54,0.66c-0.22-0.44-0.88-0.66-1.32-0.88
		c-0.66-0.66-1.1-1.1-1.76-1.76l-0.22-0.22c-0.22,0-0.66-0.44-0.88-0.44c-0.44-0.44-0.66-1.1-0.66-1.54v-0.22
		c0-0.22,0.22-0.66,0.22-0.66c0.22,0.44,0.44,0.44,0.88,0.66l0.44,0.44l-0.22,0.22c0.44-0.22,0.44-0.22,0.66,0
		c0.22,0.22,0.22,0.22,0.88,0c0,0,0,0.22,0.44,0.22v-0.22l-0.22-0.22h-0.44h-0.44l-0.22-0.44c-0.66-0.44-0.44,0-0.88-0.44
		c-0.44-0.22-0.88-0.44-0.88-0.88v-0.22c-0.22-0.22-0.44-0.66,0-0.88c0.44,0.22,0.66,0.88,1.32,0.66c0.22,0.44,0.88,0.22,1.1,0.44
		l0.66,0.66c1.1,1.1,1.98,2.42,1.98,3.74v0.22l0.44,0.66v0.88l0.22,0.44c0,0.22,0.22,0.88,0.22,1.32c0,0.44-0.22,0.66-0.22,0.88
		H1182.98z M1193.98,708.19c-0.88,0-1.1,0.66-1.98,0.22c0,0-0.66-0.22-0.88-0.44h-0.22l-0.66,0.22c0-0.44-0.44-0.44-0.66-0.88
		c-0.22,0.44-0.66,0-0.88-0.66c-0.66,0-0.44-0.44-1.32-1.1l-0.22-0.44l-0.44-0.44c-0.22-0.22,0,0,0-0.22
		c-0.44-0.44-1.32-1.1-1.1-1.76l-0.66,0.22c0.44-0.44,0-0.44,0-0.44l-0.22-0.66c-0.22-0.44-0.22-0.66-0.22-0.66
		c-0.22,0-0.22,0,0.22-0.44c0,0-0.44,0-0.22-0.22c-0.22-0.22-0.22-0.22-0.22-0.44v-0.44l0.22-0.22v-0.22l0.22-0.22v-0.44h0.22v-0.66
		l0.22-0.22c0,0,0.22-0.22,0.44,0.22v0.22c0,0,0.22,0.66,0,0.88v1.1h0.22v0.22c0,0.22,0,0.44-0.22,0.66c0,0.22-0.22,0.22-0.22,0.66
		h0.44l0.22-0.22l-0.22-0.22c0.44-0.44,0.44-0.66,0.66-0.66l-0.22-0.44l-0.44-0.22c0.44-0.22,0.44-0.44,0.44-0.44
		c0-0.66,0-1.1-0.22-1.32c0,0,0.22,0,0.66,0.22v0.22l1.1,1.32c0,0.44,0,0.66,0.22,1.1l-0.22,0.22c0.22,0.44,0.22,1.54,0.44,1.98
		c0.22,0.44,0,1.32,0,1.76l0.22,0.22c0.44-0.22,0.44-1.32,0.22-1.98c-0.22-0.44-0.22-1.54-0.22-2.2c0.88,2.42,1.32,5.06,1.32,5.28
		h0.22l0.66-0.44l0.66,0.22c0.44,0.22,1.54,1.32,2.86,1.98C1193.98,707.97,1193.98,708.19,1193.98,708.19z M1192.88,704.67
		c0.22,0.66,0.44,0.88,0.44,0.88c0,0.22,0,0.22,0.22,0.44c0.44,0.22,0.44,1.1,0.44,1.32c-0.88-0.22-1.98-1.54-1.98-1.54l-0.88-0.44
		l-0.66,0.22h-0.22c-0.22-0.44-0.22-1.76-0.66-2.42c-0.22-1.76-0.88-2.86-1.54-3.74l4.4,3.3h0.44v0.44
		C1192.88,703.13,1192.66,704.45,1192.88,704.67z M1194.64,706.87v0.22c-0.22,0,0-0.88-0.66-1.54l-0.22-0.22
		c-0.44,0-0.22-0.22-0.44-0.66c0-0.22,0.22-0.66-0.22-0.88l0.66,0.22v0.22c0,0,0.88,0.22,1.32,0.44
		C1195.3,705.33,1195.08,706.21,1194.64,706.87z M1194.2,701.59c0.22,0.22,0.44,0,0.22,0.22c0.44,0.88,0.66,1.54,0.66,2.42
		c-0.44-0.22-0.88-0.66-1.32-0.44l-0.44-0.22v-0.66l-0.44-0.88c0,0-4.62-3.52-7.92-5.28h-0.22v-0.44l4.62,1.98
		c0.22,0.22,0.88,0.44,1.1,0.66v0.22c0.22,0,0.44,0.44,0.88,0.44l0.22,0.22l0.22,0.22c0.22,0,0.66,0,0.88,0.22
		c0,0.44,0.22,0.44,0.88,0.66C1193.54,701.15,1193.54,701.15,1194.2,701.59z M1185.4,695.65h0.22c0.22,0,0.44,0,0.44,0.22
		c0.22-0.22,0.22-0.22,0.22,0l0.44-0.22l0.22,0.22h0.22c0.22,0.44,0.22,0.44,0.66,0c1.1,0.44,1.76,1.1,2.64,1.54
		c0,0.22,0.22,0.22,0.44,0.22l0.22,0.22h0.22v0.44h0.22c0.66,0.66,0.88,0.88,1.54,1.54l0.88,0.88h-0.22c0.22,0-0.22,0-0.22-0.22
		l-1.1-0.66h0.22c-0.22-0.22-0.22-0.44-0.66-0.44c-0.22,0-0.22,0-0.44-0.22l-0.22,0.22c-0.22-0.22-0.22-0.44-0.44-0.44l-0.22-0.44
		c-0.22-0.22-0.88-0.66-1.32-0.44l-4.84-2.2L1185.4,695.65z"/>
	<path class="st0" d="M1175.5,709.07c0,0-0.22-0.44,0-0.44l0.22-0.44c0-0.22-0.22-0.66-0.22-0.66v-0.22c0-0.88,0-1.1-0.22-1.32
		c-0.22,0.22-0.44,0.66-0.22,1.1c0.22,0.22,0,0.44,0,0.44c0.22,0.22,0.22,0.44,0.22,0.88v0.44c-0.22,0.44-0.22,0.44,0.22,0.66
		C1175.28,709.07,1175.5,709.29,1175.5,709.07z"/>
	<path class="st0" d="M1174.84,701.81l0.22,0.44C1175.28,702.25,1174.84,701.81,1174.84,701.81z"/>
	<polygon class="st0" points="1181.66,708.19 1181.66,708.63 1182.1,708.41 	"/>
	<path class="st0" d="M1187.9,437.37l0.22-0.44c0-0.22,0-0.44,0.44-0.44c0.22-0.44,0.22-0.44,0.66-0.88v-0.88l0.22-0.22
		c-0.22-0.22,0-0.22,0.22-0.88h0.22v-0.88c0,0,0.44-0.44,0.44-0.66c0-0.44,0.44-0.88,0.66-0.88c-0.22-0.22,0-0.66,0.22-0.66v-1.54
		l0.44-0.22c0-0.22,0.44-0.66,0-0.88c0.44,0,0.44-0.22,0.44-0.44l0.22-0.44c0.22-0.44,0-0.44,0.22-0.66c0,0,0.22,0,0-0.22l0.22-0.22
		v-0.44c0.44-0.22,0.44-0.22,0.44-0.44l0.22-0.22c0.22-0.44,0.22-0.66,0.22-0.88c0.88-0.66,1.54-0.66,1.98-1.32
		c0.22,0,0.22-0.44,0.66-0.44v-0.22l0.44,0.44l-0.44,0.22c0.22,0.22,0.44,0.22,0.66,0.22l-2.42,4.84c-0.22,0.22-0.44,0.44-0.44,0.88
		c0,0.22-0.22,0.44-0.22,0.44c0,0.22,0,0.44-0.22,0.66v0.22v0.44l-0.44,0.66v0.22c0,0.22-0.22,0.44-0.22,0.88
		c0,0.22-0.44,0.88-0.44,1.1c0,0,0-0.22,0.22-0.66c-0.22-0.22-0.22-0.22-0.22-0.44v-0.22c0-0.44,0-0.66,0.22-1.1v-1.32v-0.22
		l0.44-0.44v-0.66v-0.44c0-0.22,0-0.22,0.22-0.22c0.44-0.88,0.66-1.76,1.32-2.2l-0.22-0.22c0.44,0.22,0.44-0.44,0.66-0.66l0.44-0.66
		v0.22c0.22,0,0.22-0.22,0.22-0.22l0.44-0.22v-0.22c0,0.22,0,0.22-0.44,0h0.44v-0.66v-0.44c-0.44,0.44-0.44,0.44-0.88,1.1
		c0,0-0.22,0.44-0.44,0.44c-0.44,0.44-0.66,0.44-0.66,1.1c-0.22,0.22-0.22,0.44-0.88,0.66c0.44,0,0,0.22,0,0.44
		c0,0.44-0.22,0.66-0.22,0.88c0,0-0.44,0.44-0.44,0.88c-0.22,0,0,0.22,0,0.44c-0.22,0.22-0.22,0.22-0.22,0.66l-0.44,2.64l-0.22,1.1
		c0,0.44,0.22,0.44,0.44,1.54l-0.22,0.66c0.22,0,0.22,0.22,0.22,0.44c0.66,0.44,0.44,1.32,1.1,1.32l0.22,0.44
		c0.22,0.66,0.44,0.66,0.88,0.66c0,0.66,0.22,0.66,0.66,0.66c0,0,0.44,0.22,0.66,0.22s0.88,0,0.88,0.44c0-0.22,0-0.22,0.22-0.22
		l0.22-0.22c0.22,0.22,0.88,0.22,0.88,0.22l1.32-1.32l0.66-0.44v0.44c0.22,0,0.66,0,0.88,0.66c0.22,0.44,0.44,0.44,0.44,0.66
		c0.44,0,0.22,0.44,0.88,0.44l0.88,0.22h0.88c0.44,0,0.66,0.22,0.88,0.22c0.88-0.44,1.32-0.88,1.76-1.32c0.44,0,0.44-0.88,0.66-0.88
		c0.22-0.44,0.44-0.66,0.88-1.1c0-0.44,0-0.44,0.44-0.22c0,0,0,0.44,0.66,0.44c0,0.22,0,0.22,0.44,0.22l0.88,0.22h1.32v-0.22
		c0.22,0,0.66-0.22,0.66-0.22l0.44-0.44l0.66-0.44c0-0.44,0-0.44,0.22-0.66v-0.44c0.44,0.22,0.44-0.44,0.44-0.44l0.44-0.44h-0.22
		c0.22-0.22,0.22-0.22,0.22-0.66c-0.22-0.22,0-0.22,0-0.66l0.22-0.44c-0.22-0.22,0-0.44-0.22-0.44v-0.22l0.22-0.88v-0.22
		c-0.44-0.22-0.44-0.66-0.66-1.1v-0.66c0-0.22-0.22-0.66-0.66-0.88c0,0,0-0.88-0.22-0.88c-0.22-0.22-0.22-0.88-0.44-1.1
		c-0.66-0.88-1.54-1.54-2.2-2.64c0.22-0.22-0.44-0.44-0.66-0.44c-0.22-0.44-0.22-0.44-0.88-0.66h-0.22c0,0,0-0.44-0.44,0v-0.66
		c-0.44,0.22-0.66,0-0.66,0c0-0.22-0.22,0-0.44-0.22h1.1c0,0,0.44,0,0.44,0.22l0.88,0.22l0.44,0.66h0.66
		c0.44,0.66,0.44,1.1,1.1,1.32l1.1,1.1c0.22,0.44,1.1,1.32,1.1,2.2c1.32,1.32,2.42,2.86,3.3,3.96l0.88,0.88
		c0.22,0,0.44,0.44,0.66,0.44l0.66,0.22h0.22c0.22-0.44,0-0.66,0.22-0.66l-0.22-0.22c-0.44-0.44-0.88-0.44-0.88-0.88
		c-0.22-0.44-0.44-0.66-1.1-0.66c-0.88-1.1-1.54-1.98-2.42-3.52c-0.66-0.44-1.1-1.1-1.54-1.98c-0.44-0.88-0.66-1.1-1.1-1.54
		c0-0.22-0.44-0.44-1.1-0.88c-0.22-0.44-0.44-0.44-0.66-1.1c-0.44-0.22-0.66-0.22-0.88-0.22l-1.54-0.66c0-0.44-0.44,0-0.66,0
		c-0.44,0-0.88,0-0.88-0.22c-0.22,0.22-0.44,0-0.44-0.44l0.22-0.44h0.22l0.22-0.22c0-0.22,0.88-0.44,0.88-0.44l0.66-0.44v-0.22
		c0.22-0.44,0.66-0.44,0.66-0.66c0.22-0.22,0-0.22,0.22-0.44c0.22-0.44,0.22-0.66,0.22-0.88c0.22-0.22,0.22-0.66,0.22-0.66
		c0-0.66,0.44-0.66,0.66-1.32c0-0.22,0-0.66-0.44-0.66c0.44-0.88,0.66-1.1,0.66-1.32v-0.66c0-0.44,0.22-0.88,0.44-1.32l0.22-0.66
		c0.22-0.22,0.88-0.66,0.88-1.1c0,0,0.44,0,0.66-0.22c0,0,0-0.22-0.22-0.44h-0.44v-0.22c-0.44,0.22-0.66,0.22-0.88,0.22
		c-0.22,0.22-0.66,0.44-0.66,1.1c-0.22,0-0.44,0.44-0.66,0.44v1.32c-0.66,0.22-0.66,0.66-0.66,0.88c0,0.44,0,0.44-0.22,0.88v0.88
		v0.66c-0.22,0.66-0.22,1.32-0.22,1.76l-0.22,0.44v0.22l-0.66,0.66v0.66h-0.44c-0.66,0.44-0.88,0.44-1.1,0.44l-0.44,0.44
		c-0.44-0.22-0.44-0.22-0.44,0l-0.44-0.66l0.22-0.66c0,0,0-0.44,0.22-0.44s0-0.22,0.22-0.66l0.22-0.22v-0.22
		c0.44-0.22,0.44-0.66,0.44-0.66v-0.44l0.44-0.22l0.22-0.66v-1.1c0.22,0,0.44-0.44,0.44-0.88c-0.22,0-0.22-0.66-0.22-0.66v-0.44
		c-0.22-0.66-0.66-0.88-0.88-1.32l-0.22-0.66l-1.76-1.76c0,0-0.22-0.88,0-1.1c0-0.22,0.22-0.88,0-1.32c0-0.44-0.22-0.22-0.66-0.66
		c-0.44,0-0.22,0.66-0.44,0.88c0.22,0,0,0.66,0,0.88v0.88c0,0.22,0.44,0.44,0.44,0.66c0,0.88,0.66,1.1,0.88,1.54v0.44
		c0.44,0.22,0.66,0.44,1.32,1.1c0.22,0,0.22,0.66,0.22,0.88c0.22,0.22,0,0.66,0.22,0.66v0.44c-0.22,0.44-0.22,0.88-0.44,0.88v0.66
		l-0.44,0.66v0.66c-0.22-0.22-0.22,0.22-0.22,0.22c-0.44,0.22-0.66,0.66-0.66,0.66c-0.22,0-0.22,0.44-0.22,0.66
		c-0.22,0.66-0.66,0.22-0.66,0l-1.1-0.22v-0.22l0.22-0.44c0.44-0.22,1.1-0.44,1.54-0.88c0,0,0.22-0.44,0.22-0.66l0.22-1.1
		c0.22-0.22,0-0.22,0-0.66c0.22-0.44,0-0.44,0-0.88c-0.44-0.44-0.88-0.66-0.88-1.32c-0.22-0.44-0.44-0.44-1.1-0.44
		c0,0-0.66,0-0.66-0.22v0.22c-0.66-0.22-0.88,0.22-1.1,0.22l-0.44-0.44l-0.44-0.22h-0.44c-0.66,0-0.66,0.66-1.1,0.88h-1.1
		c0,0-0.44-0.22-0.44,0c0,0,0,0.44-0.44,0.44c0,0-0.22-0.22-0.44,0c0,0.22,0,0.66-0.22,0.66c0,0-0.66,0.44-0.22,0.44
		c-0.44,0.44-0.66,0.66-0.66,1.32c0,0.22,0,0.66-0.22,0.66h0.22c0,0.44,0,0.44,0.44,0.66c0.22,0.44,0.22,0.88,0.44,1.1
		c0.44,0.22,0.44,0.44,0.88,0.44c0.22,0.44,0.44,0.44,0.88,0.44c0.22,0,0.22,0,0.66,0.22h0.44l-0.44,0.44
		c-0.22,0.22-0.44,0-0.66,0.22c-0.22,0.22-0.22,0.22-0.66,0.22v0.44c-0.22-0.44-0.44-0.44-0.66-0.66c-0.44-1.1-1.54-1.76-2.2-2.64
		c-0.44-0.44-0.44-0.66-0.66-1.1l0.22-0.44v-0.88l0.22-1.1c0,0,0.22-0.44,0.22-0.66c0.22-0.22,0.22-0.66,0.66-0.66v-0.88l0.22-1.32
		v-0.66c-0.22-0.44,0-0.66-0.22-1.1l-0.22-0.22c-0.22-0.22-0.22-0.22-0.44,0c-0.44,0.22-0.66,0.44-0.44,0.44
		c0.22,0.22,0.22,0.66,0.22,0.66l0.22,0.22c-0.22,0,0,0.22,0.22,0.44c-0.22,0,0,0.44-0.44,0.66c0.22,0.22,0,0.22,0,0.66v0.44
		c-0.22,0.22-0.22,0.22-0.22,0.44l-0.22,0.66c-0.44,0.22,0,0.44-0.44,0.44c0,0-0.22,0.44,0,0.44c-0.44,0.66-0.44,0.66-0.44,0.88
		l-0.22,1.32l0.22,0.88c0.44,0.22,0.44,0.44,0.66,0.44l0.22,0.44c0.44,0.88,0.88,1.76,1.76,2.2c0,0,0.44,0.66,0.44,0.88
		c0.44,0.22,0.44,0.22,0.44,0.66c0-0.44,0.44,0,0.44,0h0.22c-0.22,0-0.88,0.44-0.44,0.66c0,0.22-0.44,0.22-0.44,0.44l-0.88-0.22
		c-0.22,0-0.66-0.22-0.88,0c0-0.22-0.66-0.44-0.66-0.44l-0.44-0.88h-0.22c-0.22-0.44-0.66-0.88-0.66-1.54
		c0-0.22-0.22-0.44-0.66-0.44c-0.22-0.22-0.22-0.66-0.44-1.1v-0.22c-0.44-0.88-0.88-1.32-1.1-1.54c0-0.44-0.44-1.1-0.66-1.32
		c-0.22-0.44-0.88-0.66-0.88-0.88c0,0-0.22-0.22-0.44,0c0-0.22-0.66-0.22-0.88-0.44c-0.44-0.22-0.22,0.22-0.22,0.22l-0.22,0.66
		c0,0.22,0.22,0.22,0.44,0.22c0,0,0.44,0.44,0.66,0.22c0.66,0.66,1.1,0.66,1.32,1.54c0.22,0.22,0.66,0.44,0.66,0.88
		c0,0.22,0.22,0.22,0.22,0.44c0,0.44,0.44,0.88,0.44,1.1c0.44,0.22,0.44,0.44,0.44,0.66c0,0.44,0.22,0.66,0,0.88h0.22
		c0.66,0.44,0.88,1.32,1.76,2.2c0,0.22,0.44,0.22,0.66,0.44c0.44,0,0.44,0.66,0.66,0.66h1.54v0.88h-0.44c-0.22,0-0.44,0-0.44,0.22
		c-1.1,0.44-1.32,1.1-1.98,1.54c-0.22,0.22-0.44,0.22-0.44,0.66c-0.44,0.44-0.66,0.44-0.66,0.66v0.44l-0.88,0.88v0.66
		c-0.22,0.22,0,0.44-0.22,0.44c-0.44,0.44-0.44,0.44-0.22,0.66c-0.44,0.22-0.44,0.22-0.44,0.44h-0.22v0.66
		c0,0.22-0.22,0.88-0.44,0.88c0,0.44,0,0.66-0.22,1.1l-0.22,0.66v0.88c-0.44,0.22-0.44,0.22-0.44,0.44l-0.22,0.44
		c-0.44,0.44-0.44,0.88-0.44,0.88v0.66c-0.22,0.22-0.22,0.22-0.44,0.22s-0.22,0.44-0.22,0.88s-0.66,0.44-1.1,1.1v0.22
		c0.22,0,0.44,0.22,0.88,0.66H1187.9z M1211.44,432.97c0,0.44,0.22,0.66,0.22,0.66v0.44c0.22,0.44,0.22,1.1,0,1.54
		c-0.66-0.66-1.32-2.2-1.32-2.2l-0.66-0.66h-0.88c0-0.44,0.44-1.54,0.22-2.64c0.22-1.54,0.22-2.86,0-3.96
		c1.54,2.2,2.64,4.18,2.86,4.4l0.22,0.44v0.22C1212.1,431.21,1211.44,432.31,1211.44,432.97z M1212.54,435.61l-0.44,0.22
		c0.22-0.44,0.22-1.1,0-1.98l0.22-0.22c-0.22-0.22-0.22-0.44-0.22-0.66c-0.22-0.22,0-0.66,0-0.88l0.44,0.44v0.22
		c0,0,0.66,0.44,1.32,0.66C1213.42,434.29,1212.98,434.95,1212.54,435.61z M1207.7,421.75h0.22c0.22,0,0.44,0,0.44,0.22
		c0.22,0,0.22,0,0.22,0.22h0.44l0.22,0.22l0.22,0.22c0,0.22,0,0.22,0.22,0.22h0.22c0.88,0.66,1.54,1.54,1.98,2.2
		c0,0.22,0.22,0.44,0.44,0.44v0.22h0.22v0.44l0.22,0.22c0.22,0.88,0.44,1.32,0.88,1.76c-0.22,0.44,0,0.88,0.22,1.1
		c0,0,0.22,0,0,0.22c0-0.22-0.22-0.22-0.44-0.44c0,0-0.22-0.44-0.22-0.66v-0.22c-0.22,0-0.22-0.22-0.44-0.44
		c-0.22-0.22-0.22-0.44-0.44-0.44h-0.22l-0.44-0.66c0.22-0.22,0-0.22,0-0.22c-0.22-0.44-0.66-0.88-1.1-1.1l-3.52-3.74
		C1207.04,421.53,1207.26,421.53,1207.7,421.75z M1207.04,422.41v-0.44l3.52,3.52c0.22,0.22,0.66,0.88,0.66,1.1v0.22
		c0.22,0.22,0.22,0.44,0.66,0.66l0.22,0.22l0.22,0.22c0.22,0,0.44,0.44,0.44,0.66c0,0.44,0.22,0.44,0.66,0.88
		c0,0.22,0.22,0.44,0.44,0.88c0,0.22,0.22,0.22,0.22,0.44c0,0.66,0,1.54-0.22,2.2c-0.44-0.22-0.88-0.66-1.1-0.66l-0.22-0.44v-0.44
		l-0.22-1.1c0,0-3.08-4.84-5.5-7.7L1207.04,422.41z M1205.06,427.69v-0.66c-0.22-0.22-0.22-0.44-0.22-0.44c0-0.22,0-0.22,0.22-0.44
		c0,0,0.22-0.22,0.22-0.44v-0.88l0.22,0.22l0.22-0.22v-0.22c0.22,0,0.22-0.22,0.44-0.44h0.22v-0.22l0.22-0.44l0.22-0.22
		c0,0,0.22,0,0.22,0.22l0.22,0.22c0,0.22-0.44,0.88-0.44,1.1c-0.22,0.44-0.22,0.66-0.22,0.88v0.22l-0.22,0.22
		c0,0.22,0,0.44-0.22,0.44c-0.22,0.22-0.44,0.22-0.44,0.66h-0.22l0.66,0.22v-0.22c0.22,0,0.22-0.22,0.22-0.22
		c0.22-0.22,0.44-0.44,0.44-0.66c0-0.22,0-0.22,0.22-0.44v-0.22c0.22,0,0.22-0.44,0.22-0.44c0.22-0.22,0.22-0.66,0.44-1.1
		c0,0,0.22,0.22,0.22,0.44v0.22c0.22,0.22,0.66,1.1,0.44,1.54v1.1h-0.22c-0.22,0.88-0.44,1.76-0.22,2.42
		c-0.22,0.44-0.44,1.32-0.66,1.54h-0.22l0.22,0.22h0.22c0.22,0,0.66-1.1,0.88-1.76c0-0.66,0-1.54,0.44-2.2v-0.22v-0.22
		c0.22,2.64-0.44,5.5-0.44,5.72v0.22l0.66-0.22l0.66,0.22v0.22c0.22,0.22,1.1,1.98,1.98,2.86h-0.44c-0.66,0-1.32,0.22-1.98-0.22
		l-0.44-0.66l-0.44-0.44h-0.44c0-0.22-0.44-0.44-0.44-0.66c-0.44-0.22-0.44-0.44-0.44-0.88c-0.44-0.66-0.44-1.1-0.88-1.76
		c0.22-0.22,0-0.22,0-0.22l-0.22-0.22l-0.22-0.44c0.22,0,0.22-0.22,0.22-0.22s-0.22,0-0.22-0.22c-0.22-0.66-0.44-1.32-0.44-1.98
		l-0.44-0.22C1205.28,428.13,1205.06,427.69,1205.06,427.69z M1196.48,438.47h-0.44v-0.66c-0.22,0-0.44-0.22-0.88-0.44
		c-0.44,0-0.66-0.44-1.32-0.66c0.66-0.88,1.1-1.76,1.1-1.76l0.44-0.66c0.22,0.22,0.22,0.66,0.22,0.66c0.22,0.66,0.22,0.88,0.22,1.1
		l0.22,0.22c0,0.66,0.22,1.32,0.66,1.98L1196.48,438.47z M1196.92,437.59c-0.44-0.22-0.66-0.66-0.66-1.32v-0.22v-0.88
		c-0.22-0.66-1.32-1.76-1.32-1.76v-0.44c0.22-0.44,0.66-2.64,1.32-5.06c0.44,0.88,0.66,2.2,1.32,3.74c0.44,1.1,0.66,1.76,1.1,2.2
		h-0.44l-0.44,0.66l-0.22,0.66L1196.92,437.59z M1198.02,423.73c0.22,0.66,0.44,1.1,1.1,1.32c0.22,0.44,0.66,0.44,0.66,0.66
		c0.22,0.44,0.44,0.66,0.44,0.88c0.66,1.32,0.88,2.86,0.66,4.18v0.22l-0.22,0.66v1.32c-0.22,0.22-0.22,0.88-0.44,1.32
		c0,0.44,0,0.66-0.44,0.88l0.22,0.22c-0.44,0.22-0.44,0.44-0.44,0.66v0.44c-0.22,0-0.44,0-0.88,0.22c-0.22,0.22-0.22,0.44-0.22,0.66
		c0,0.22-0.22,0.22-0.22,0.44c-0.44,0.22-0.66,0.44-0.88,0.22h-0.22c0.44-0.88,0.66-2.86,0.66-2.86l0.22-0.44l0.44-0.44h0.88
		l-0.22-0.44c0,0-1.54-2.42-1.98-4.84c0.22,0,0.22,0,0.22,0.22c0.44,0.66,0.88,1.32,0.88,2.2c0.22,0.22,1.1,0.88,1.54,1.1h0.22
		v-0.44l-0.22,0.22l-1.1-1.1c-0.22-0.66-0.66-1.54-0.88-2.42l-0.22-0.22l-0.66-0.66c-0.22-0.44-0.22-1.32,0-1.76v-0.22
		c0-0.22,0.44-0.44,0.44-0.44c0,0.22,0.22,0.44,0.44,0.66c0.22,0.22,0.44,0.66,0.44,0.88v0.22c0.22,0,0.22,0,0.44,0.22
		c0.22,0,0,0.22,0.44,0.22c0,0,0.22,0.22,0.44,0.22v0.22l0.22-0.22v-0.44c0-0.22-0.22-0.22-0.44-0.22h-0.44c0-0.22,0-0.22-0.22-0.44
		c-0.22-0.44-0.44-0.44-0.44-0.66c-0.22-0.66-0.66-0.88-0.66-1.32v-0.22C1197.58,424.39,1197.58,423.95,1198.02,423.73z
		 M1197.14,422.85l0.22,0.22c0.22,0,0.22,0.22,0.44,0.22c-1.76,3.3-3.08,9.46-3.3,9.68v0.88l0.44,0.44l-0.22,0.44l-0.88,1.32
		c-0.22-0.22-0.22-0.44-0.44-0.44v-0.44c-0.44-0.44-0.22-1.1-0.22-1.98c0-0.22,0.22-0.66,0.22-1.1v-0.88v-0.22
		c0.22-0.22,0.44-0.22,0.44-0.44c0-0.22,0-0.44,0.22-0.44c0-0.22,0.22,0,0.22,0v-0.88l0.22-0.22c0-0.66,0.22-0.88,0.22-1.32
		L1197.14,422.85z"/>
	<polygon class="st0" points="1300.46,471.03 1300.46,490.61 1353.04,490.61 1353.04,625.03 1376.36,625.03 1376.36,490.61 
		1428.72,490.61 1428.72,471.03 	"/>
</g>
</svg>
