<?xml version="1.0" encoding="utf-8"?>
<!-- Generator: Adobe Illustrator 27.2.0, SVG Export Plug-In . SVG Version: 6.00 Build 0)  -->
<svg version="1.1" id="Ebene_1" xmlns="http://www.w3.org/2000/svg" xmlns:xlink="http://www.w3.org/1999/xlink" x="0px" y="0px"
	 viewBox="0 0 1920 1080" style="enable-background:new 0 0 1920 1080;" xml:space="preserve">
<style type="text/css">
	.st0{enable-background:new    ;}
	.st1{fill:#0000FF;}
</style>
<g id="Ebene_2_00000106107711388512015850000004640279272051656089_">
	<g>
		<g>
			<g>
				<g>
					<g class="st0">
						<path class="st1" d="M592.4,471h102.7v19.6h-79.4v46.2h75.5v19.6h-75.5V625h-23.3V471z"/>
					</g>
				</g>
			</g>
			<g>
				<g>
					<g class="st0">
						<path class="st1" d="M731.9,509.5c0,5.3,0,10.1-0.2,14.5c0,0.7,0.2,1.1,1.1,1.8c1.5,1.5,3.1,3.3,3.7,6.2
							c0,0.2,0.2,0.7,0.2,0.9c0.2,1.8,0.4,4.6,0.4,6.6c0,5.5,0,11,0,16.1c0,3.3,0,6.6-0.4,9.9c-0.2,2.9-2,5.5-3.5,7.3
							c-1.3,0.9-1.5,1.1-1.5,2.6c0.2,9.5,0.2,18.9,0,28.2c0,0.9,0.2,1.5,1.1,2.2c2.9,2.4,4,5.7,4.2,9.9c0.4,6.4,0.4,13,0.4,19.4
							c-0.2,2.2-0.2,4.2-0.2,6.4c0,7.7-3.7,12.1-10.3,14.5c-2.2,0.9-4.6,2-7.5,1.8c-5.9-0.9-11.4-2.6-15.4-8.1
							c-0.4-1.1-1.1-2.9-1.3-4c-0.4-2.6-0.4-5.3-0.4-7c-0.2-5.1-0.2-10.1-0.2-15c0-2.4,0.2-4.8,0.2-7c-0.4-3.7,0.7-7,2.9-9.9
							c0,0,0,0,0.2-0.2c0.2-0.2,0.7-0.7,1.1-0.7c1.1-0.7,1.1-1.5,1.1-3.1c0-9.2,0-18.3,0-27.5c0-1.1-0.2-1.5-1.1-2.2
							c-3.1-2.9-4.2-7-4.2-10.8c0-8.1,0-16.1,0-24.2c0-1.8,0-3.7,0.4-5.5c0.2-1.8,1.1-3.7,2.6-5.3c2-1.5,2.4-2.4,2.2-4.6
							c0-9,0-18,0-26.8c0-1.3-0.2-1.8-1.3-2.9c-2.2-2.2-3.5-5.3-3.7-8.6c-0.7-6.8-0.4-13.6-0.4-20.2c0-2.9,0.2-5.5,0.2-8.1
							c0-4.2,1.8-8.1,5.3-10.6c3.3-2.4,7.3-3.3,10.8-3.7c0.2,0,0,1.3,0.2-0.2c4.2-3.5,8.8-4.8,13.9-5.5c6.2-0.4,12.1-0.2,18-0.2
							c2.4,0,5.1,0,7.5,0c1.8,0,3.7,0.4,5.5,0.7c1.1,0.2,2.2,0.2,3.3,0.4c0.9,0,1.8,0.2,2.9,0.2c0.9,0,1.8,0,2.9,0.2
							c2.9,0.2,5.9,1.1,8.6,2.9c0.4,0.4,0.9,0.9,1.3,1.3c0.4,0.4,0.9,0.9,1.5,1.3c0.7,0.4,1.3,0.7,2.4,0.7c0.2,0,0.9,0,1.1,0.2
							c2,0.2,4,0.4,5.9,0.7c2.2,0.4,4.2,0.7,6.4,0.9c5.3,1.3,10.8,2.2,16.1,4.8c4,1.3,7.9,3.1,11.9,5.9c0.4,0.2,0.9,0.4,1.3,0.9
							c0.2,0.2,0.7,0.4,1.1,0.9c0.7,0.7,1.5,1.1,2.9,1.5c0.2,0.2,0.7,0.2,0.9,0.4c5.1,2.2,8.6,6.6,10.6,11.4
							c1.8,4.8,2.9,9.2,3.5,13.4c0.2,1.5,0.4,3.3,0.4,4.8c0.2,0.9,0.2,1.8,0.2,2.6c0,0.7,0.2,1.3,0.2,2c0,0.7,0,1.1,0,1.8
							c0,0.2,0,0.4,0,0.7c0,2.4,0,4.8-0.4,7.7c-0.4,4.4-1.1,8.8-2.2,13c0,1.3-0.4,2.4-0.4,3.5c-0.2,0.9-0.4,1.5-0.4,2.2
							c-1.3,3.1-3.5,6.4-6.4,8.4c-0.4,0-0.7,0.4-0.9,0.4c-2,6.4-3.7,13-7.3,18.5c-1.3,3.3-3.3,6.4-5.5,9c-1.8,1.1-2.9,2.6-4.2,4.6
							c-0.7,0.7-1.5,1.3-2.4,2c-2.4,2-4.8,4-7.9,5.7c-1.1,0.4-1.5,1.1-2.4,2.2c0,0-0.2,0.2-0.2,0.4c-0.2,0.4-0.4,0.7-0.7,1.1
							c-0.2,0.2-0.2,0.7-0.2,0.4c0,0,0,0,0.4,0.4c0.2,0.2,0.7,0.4,0.9,0.7c1.8,1.8,3.5,3.7,5.1,5.5c0.9,1.1,1.8,2,2.6,3.1
							c0.7,0.9,1.3,1.5,2,2.4c2.6,3.3,5.5,6.6,8.1,9.5c0.2,0.4,0,0.4,0.7,0.7c4.6,0.4,8.4,3.1,11.7,7.3c5.7,7.7,10.8,16.1,15,25.1
							c1.3,2.6,2.2,5.5,2.4,8.6c0.4,3.3-0.7,7-2.6,9.9c-4.6,5.7-10.6,7.5-17.6,7c-4.2-0.2-7.7-2-10.8-5.3c-0.7-0.7-1.1-1.3-1.3-2
							c-3.7-7.3-7.9-13.6-12.3-20.7c-1.1-1.8-2-3.5-2.9-5.1c-0.4-0.7-0.7-1.3-1.1-2c-0.4-1.5-0.7-4-0.2-5.3c0.2-2.2-0.9-3.5-2.4-5.1
							c-3.1-4.2-6.6-8.1-9.9-12.3c-1.5-1.3-3.1-2.9-4.4-4.4c-1.5-1.5-3.1-3.1-4.6-4.6c-0.4-0.7-0.2-0.4-0.7-0.4
							c-0.9-0.4-2-0.2-2.6-0.2c-2.4-0.9-4.8-0.9-7.5-0.7c-0.9,0-2,0-2.9,0c-1.1,0-2.2,0.2-3.3,0.2c-1.8,0.2-3.3,0.2-5.1,0
							c-2,0-4.2-0.2-6.4-0.4c-0.9,0-2-0.2-3.1-0.2c-1.3,0-2.9-0.2-4.6-0.4c-3.3-0.4-6.6-2.2-8.8-4.2c-2.6-3.3-4.6-6.6-5.1-11
							c-0.4-4.2,0.4-7.9,2.9-11.2c2.4-3.1,5.7-5.9,9.9-7c1.1-0.2,1.1-0.2,1.1-0.9c-0.7-3.1,0.2-5.7,1.5-8.1c1.3-3.1,3.7-5.7,6.4-7.5
							c3.3-2.4,7-3.5,10.6-3.5c4,0,7.3,1.5,9.9,4.4c0.9,0.9,1.8,1.8,2.6,2.6c1.8,1.8,3.5,3.5,5.3,5.1c0.9,0.7,1.5,1.5,2,2.2
							c0,0.2,0.2,0.2,0.2,0.4c0.9,0.9,1.5,1.5,2.9,1.3c1.1,0,2.6,0.4,3.5,0.7c1.8,0.9,2.6,0.4,4.6-0.7c4.4-3.1,8.1-7,10.3-12.1
							c2-4,4-7.9,4.6-11.9c0-0.4,0-0.9,0-1.3c-2.4-4-2.6-8.6-2-13.2c0.7-1.8,0.7-4.2,0.7-6.4c0.2-1.8,0.2-3.3,0.2-4.8
							c0.2-1.8,0.2-3.5,0.2-5.1c0.4-4-0.2-7.9-1.5-11.4c-0.2-1.8-0.2-3.5,0.2-5.1c1.3-2.4,1.3-2.4-1.8-4c-3.5-2-7.5-2.9-11.7-3.7
							c-1.5-0.2-3.1-0.7-4.6-0.9c-2.9-0.4-5.7-1.1-8.8-1.3c0,0-0.4-0.2-0.7-0.2c-0.2,0-0.2,0-0.2,0c-2-0.2-3.5-0.4-4.8,0.4
							c-2,2-5.3,2.9-8.4,2.9c-1.3,0-2.4,0-3.5,0.2c-2.2,0-4.4,0-6.6-0.2c-4.6-0.4-9.2-0.4-13.9-0.4c-2.9,0-5.5,0.2-8.1,0
							c-0.2,0-0.7,0-1.3,0c-0.4,0-0.4,0-0.4,0.2c0,2.6,0,5.9,0,8.6c0,2.4,0,4.6-0.4,7c-0.4,2-1.3,4.6-3.3,5.7
							c-1.5,1.5-1.8,2.2-1.8,4C731.9,500.7,731.9,505.3,731.9,509.5z M709.9,466.6l-1.3,1.3h-0.4l1.3-1.3c0.4,5.5,0.7,11.7,0.9,17.6
							c0,0.4,0.4,1.1,0.7,1.5c0,0,0,0,0,0.2c0.2,0,0.4,0.2,0.4,0.2l-2,0.9c0-0.2,0-0.7,0.2-0.9c0-0.2,0-0.2,0,0v0.4
							c-0.2-0.7-0.4-1.3-0.4-2c-0.4-2.6-0.4-5.5-0.4-7.9c0-4.8,0-9.5,0-13.9c0-2.2,0-4.4,0-6.4c-0.2-2.4,0.4-4,1.5-5.7
							c0.4-0.7,1.3-1.5,2.2-2.2c0-0.2,0-0.4,0.2-0.7l1.1,1.8c-0.2,0-0.7,0-0.7,0c-0.2-0.2,0.9-0.4,0.7-0.2c-2.9,2-4,4-4,7
							C709.9,459.6,709.9,463.3,709.9,466.6z M709.9,550.4l-1.3,1.1h-0.4l1.3-1.3c0.4,4.6,0.7,9.2,0.9,13.9c0,0.4,0.2,1.1,0.4,2
							c0,0,0.2,0,0.2,0.2l-0.9-0.4c-0.4,0-0.7,0.4-0.7,0.7s0,0.2-0.2-0.2c0-0.2,0-0.9,0-1.1c-0.4-1.5-0.4-3.5-0.4-5.1
							c0-4.4,0-9,0-13.9c0-2.4,0-4.6,0-7c0-0.7,0-1.8,0.2-3.1c0.2-1.3,0.4-2.4,0.4-3.5c0,0,0,0-0.2,0l2-0.9c0,0.2,0,0.7-0.2,0.9
							c-0.2,0.4-0.2,0.9-0.4,1.1c-0.2,0.7-0.2,0.9-0.2,0.9c-0.2,4-0.4,7.5-0.4,11.2C709.9,547.1,709.9,548.7,709.9,550.4z
							 M709.9,627.2l-1.3,1.1h-0.4l1.3-1.3c0.4,5.3,0.7,10.1,0.7,15c0,2.9,0.7,4.6,2.4,5.9c0,0.2,0.2,0.2,0.4,0.2
							c0.4,0.2,1.3,0.4,2,0.9l-1.8,1.8c-0.4-0.7-0.7-1.1-1.3-1.5c-1.3-1.1-2.6-2.6-2.6-4.4c-0.4-3.3-0.4-5.9-0.4-9
							c-0.2-4.4-0.2-8.8,0-13.2c0-0.7,0-1.5,0-2.4c0-2.4-0.2-5.3,0.7-7.9l-0.2-0.2l2-0.9c0,0.4-0.2,1.1-0.7,1.5
							c0,0.2-0.2,0.7-0.2,1.1c-0.2,2.2-0.4,4.8-0.4,7C709.9,623,709.9,625,709.9,627.2z M712.9,467.9l-1.1,1.1c-0.2,0-0.2,0-0.2,0
							l1.1-1.1c0.2,4.8,0.4,10.1,0.7,15.4c0,0-1.3,0-0.4-0.4c2-1.3,4.2-2.2,6.6-2c2.6,0,5.1,0.7,7.3,2.4c0.2,0-0.9,0-0.9,0.2v0.4
							c0-1.5,0-2.6,0.2-3.7c0-0.4,0.2-0.9,0.2-1.3c0-0.7,0-1.5,0-2.4c-0.2-2-0.2-4.2,0-5.9c0-0.9-0.2-0.9-1.1-1.3
							c-5.5-2-9-6.4-10.8-11.4c-0.4-1.8-0.7-3.5-1.1-5.1c0-1.3,5.7-3.7,1.3,0.7c-1.5,0.4-1.8,1.3-1.8,3.1
							C712.9,460,712.9,464,712.9,467.9z M717.3,532.6l-1.1,1.8c0,0,0-0.2-0.2-0.4c0,0,0-0.2-0.2-0.2c-1.3-0.9-2.9-1.8-3.7-3.7
							l0.2,0.4c0.2,0,0.2,0,0.2,0l0.9-0.2v-0.4v-0.7c1.1,2,2,3.3,3.7,4l-0.4-0.2c-0.2,0-0.4,0.2-0.2,0
							C716.7,532.8,717.1,532.6,717.3,532.6z M726.4,548.5h1.1H726.4c-0.2-2-0.2-4.4-0.2-6.6c-0.2-2.4-0.2-4.6-0.2-6.8
							c0,0.7,0.9,0.4,0.7,0.7l0.4-0.2c-0.4,0.4-1.3,0.7-1.8,0.9c-0.2,0-0.2,0-0.2,0c-3.7,2.2-7.5,2.4-10.8,0.2
							c-0.4-0.4-0.7-0.7-1.3-0.9l-0.7-0.2c0.4,0.4,1.1-0.7,1.1-0.4c-0.2,1.3-0.4,2.6-0.4,3.7c0,7.5,0,15,0,22.4c0,0.7,0,1.5,0.2,1.5
							c0-0.4,0-0.4,0-0.4c0.4-0.2,0.7-0.2,1.1-0.4c0.9-0.4,2.2-1.1,4-1.3c2.9,0,5.9,0.9,8.4,2.2c1.1,0.7-0.7,2.4-0.7,0.7
							c0-3.5,0.2-6.8,0.4-10.8C726.4,551.3,726.4,549.8,726.4,548.5z M712.9,609.2c-0.4,0-0.4,0-0.7,0c0,0.4,0,0.4,0,0.7l0.7-1.1
							c1.5,1.3,2.6,2.2,4,3.7h0.2l-0.9,2c-0.2-0.2-0.4-0.7-0.7-1.1v-0.2c-0.9-0.9-1.5-1.3-2.4-2.2c-0.2-0.2-0.7-0.4-0.9-0.7
							L712.9,609.2z M716.7,484.2l0.4,2c-0.2,0-0.2,0-0.2,0c-0.4,0.4-0.9,0.9-1.1,1.3c-0.9,0.9-1.8,1.8-2.9,2.6l0.4-0.9
							c0,0.2-1.1-0.7-0.9-0.7c0,0,0,0,0.2,0c1.1-1.3,2.2-2.6,3.5-4c0,0,0,0,0.2,0C716.5,484.4,716.7,484.4,716.7,484.2z M715.8,565
							c0,0,0.4,0.4,0.9,0.7c-0.2,0.2-0.4,0.4-0.7,0.7c-0.9,0.7-1.8,1.5-2.2,2.4c0,0.2,0,0.4,0,0.7l-1.3-1.3c1.3-1.1,2.2-2,3.5-3.5
							C716,564.5,715.8,564.7,715.8,565z M726.4,631.2h1.1H726.4c-0.2-2.6-0.2-5.5-0.2-8.1c-0.2-2.4-0.2-5.1-0.2-7.9
							c0-0.2,0-0.4,0-0.7l1.1,1.1c-0.2,0-0.7-0.2-0.9-0.2c-0.2,0,0,0,0.2,0l0.4-0.2c-0.4,0.4-1.5,0.9-1.8,1.3
							c-4,1.5-8.1,1.3-11.7-0.4c-0.4-0.2-0.4-0.2-0.4-0.2c0,7.5,0,15.2,0,22.7c0,1.3,0.2,2.6,0.4,4.6c0,0.4,0,0.9,0,1.3
							c0,0,0,0,0.2,0l0.2,0.2c2.9,3.5,6.4,3.5,9.9,1.5c1.1-0.7,1.8-1.3,2-1.8c0.2-1.3,0.2-2.6,0.4-4c0-0.7,0-1.3,0.2-2
							C726.4,636,726.4,633.8,726.4,631.2z M714.9,589.6c0,4.8,0,9.5,0,14.1c0.2,1.3,0.4,2.6,0.7,3.7c0.2,0.7,0-0.2,0.2,0
							c0.2,0.2,0.4,0.9,0.4,1.1l-2.4-0.4c0.2-0.2,0.2-0.4,0.4-0.7c0,0,0,0,0,0.2c0-0.7,0-1.1,0-1.8c0-10.8,0-21.6,0-32.8
							c0-0.9,0.2-2,0.4-3.1c0.2-0.2,0.2-0.4,0.4-0.9c0.2-0.2,0.2-0.7,0.4-0.9l2,1.3c-0.2,0.2-0.7,0.7-0.9,0.7
							c-0.4,0.2-0.4,0.2-0.4,0.2c-0.2,0.4-0.4,0.7-0.4,1.1c-0.2,0.2-0.4,0.4-0.4,0.4c0,0.7-0.2,1.5-0.2,2.2s0,1.5-0.2,2.4
							C714.9,580.8,714.9,585.2,714.9,589.6z M715.4,509.5c0,5.7,0,10.8,0,15.8c0,0.7,0,1.3,0.4,1.3c-0.2,0.4-0.2,0.4,0.2,1.1
							c0,0,0.2,0.2,0.2,0.4l-2.2,0.7c0-0.2,0-0.9,0-1.1c0.2-0.2,0.2-0.4,0.2-0.7c0-10.1,0-20.2,0-30.6c0-2-0.2-4.8,1.1-7v-0.2
							l1.3,1.1h0.2c-0.2,0-0.2,0.2-0.2,0.2c-0.9,0.9-1.3,1.8-1.3,3.3C715.4,499,715.4,504.5,715.4,509.5z M718.2,589.2
							c0,3.1,0,6.6,0,9.5c0,0.7,0,2,0,2.6c0,0.2-0.9-0.9-0.7-0.9c1.3,0,2.4,0,4,0h-0.7c0.4-0.2-0.2,0.9-0.2,0.7
							c0-1.5,0.2-2.9,0.2-4.2s0.2-2.6,0.2-4.2c0-5.1,0-10.1,0-15.2c0-1.3,1.8-0.2,0,0.2c-0.9,0.2-1.5,0.2-2.6,0.2
							c-7.3-1.1-0.2-7-0.2-0.2C718.2,581.9,718.2,585.2,718.2,589.2z M718.2,451c0,0.4,0,0.9,0,0.9s0,0,0.2,0.2c0,0,0.2,0.7,0.2,0.9
							l-2.2-0.9c0.2-0.2,0.2-0.2,0.2-0.2l0.2-0.7c0.2-0.4,0.4-1.1,0.7-1.8c0.2-0.7,0.4-1.5,0.9-2.4c2.6-3.1,5.3-6.4,9.7-7
							c2.4-0.4,5.3-0.9,8.1-0.9c3.1,0,5.9,0,9,0c5.3-0.2,10.3-0.2,15.6,0.4c1.8,0.2,3.5,0.2,5.1,0.4c1.8,0,3.5,0.2,5.3,0.2
							c4.2,0.7,7.7,2.9,9.9,6.2c0.7,1.1,1.1,2.6,1.5,3.7c0,0.4,0,0.7,0.2,0.9c0.2,0.2,0.7,0.4,0.9,0.7l-1.5,0.4
							c0.2-0.4,0.7-1.3,0.9-1.5l-0.2,0.9c0-0.2,0.2,0.7,0.2,0.7c-0.2-0.2-0.4-0.9-0.4-1.1v0.2c-2-5.5-5.9-9.9-12.3-9.9
							c-0.9,0-2-0.2-2.9-0.2c-0.9,0-1.8,0-2.6,0c-3.3-0.7-6.4-1.1-9.5-1.1c-7.9,0-16.3,0.2-24.6,0.4c-4.2,0-7.3,1.8-10.3,5.3
							C719.1,447.3,718.4,449.2,718.2,451z M718.2,509.3c0,3.3,0,6.4,0,9.7c0,1.8,0,1.8,2,1.8c0.9,0,0.9,0,0.9-0.4
							c0-6.8,0-13.6,0-20.5c0-1.8,0-1.8-2.6-1.8c-0.2-0.2-0.2-0.2-0.2,0.2C718.2,502,718.2,506,718.2,509.3z M732.5,631
							c0-0.2,0-0.4,0-0.7c0-5.5,0-10.6-0.2-16.1c-0.2-1.5-0.4-2.9-1.1-3.7c-2-2.4-4-3.5-6.6-4.6c-2.9-1.5,0.9-0.7-0.7-0.2
							c0,0.2-0.7,0.2-0.9,0.2c0.2,0,0.4-0.2,0.4,0l0.4-0.9c0,0.2-1.3-0.9-1.1-0.9l0.7,0.2c0.4,0.2,0.9,0.4,1.3,0.7
							c1.3,0.4,2.4,1.1,4,1.8c1.8,1.5,4.2,3.5,4.6,7c0.2,3.1,0.4,6.8,0.4,10.3c0,2.4,0,4.8,0,7.5c0,4.4,0.2,9-0.4,13.4
							c-0.4,1.8-1.3,3.3-2.2,4.2c-2,2.9-5.1,4.8-8.4,5.7l-0.9-2c0.2,0,0.7,0,0.9,0c2-0.4,4.2-1.1,5.5-2.4c0.4-0.2,0.7-0.4,0.9-0.9
							c1.8-1.5,2.9-2.6,3.1-4.4c0.2-3.1,0.2-5.9,0.2-9C732.5,634.5,732.5,632.7,732.5,631z M767.9,463.8c1.1,0,2.6-0.2,4-0.4
							c0.2,0,0.4-0.2,0.7-0.4v1.8c0,0,0,0-0.2,0c-0.2-0.2-0.4-0.4-0.7-0.7c-0.2,0-0.2,0-0.2,0l0.7-0.2c-0.9,0.7-2.2,1.1-3.7,1.1
							c-1.3-0.2-2.6-0.2-4.2-0.4c-3.1-0.2-6.2-0.4-9.2-0.4c-6.6,0-13.4,0-20.2,0c-4.4,0-8.6-0.2-11.7-4l-0.4-0.9
							c0-0.2,1.3,1.1,1.1,1.1c0,0-0.4,0.2-0.7,0.2l0.9-2.2c0.2,0.2,0.4,0.7,0.7,0.9c1.3,2.4,3.3,3.5,5.7,3.7c2.6,0,5.3,0,7.9,0
							c2.6,0,5.3,0,8.1,0.2c3.1,0.2,6.4,0.2,9.9,0.2C760.2,463.3,764.2,463.3,767.9,463.8z M732.5,474.5h1.3H732.5
							c0-1.5,0-2.6,0-4.2c0,0.2,0,0.2,0,0.2h1.8c-0.2,0-0.4,0.2-0.4,0.2c-0.9,0.7,0.2-1.8,0,0.2c0,0.2,0,0.7,0,0.9
							c0,2.9,0,5.5,0,8.8c-0.2,0.7-0.2,1.5-0.2,2.4c0,0.7-0.2,1.5-0.2,2.6c-1.1,2.9-3.3,5.5-5.7,6.8c-0.9,0.4-1.8,0.7-2.4,1.1
							c-0.4,0.2-0.9,0.4-1.3,0.7c-0.2,0,0,0,0-0.2l-1.3-1.3c0.4,0,0.9,0.4,1.1,0.7c0.2,0-0.7-0.2-0.7-0.2c0.4,0,0.9,0,1.1,0
							c2.4-0.9,4.2-2.2,5.9-4c1.5-1.1,2-2.4,2.2-4C732.5,482,732.5,478.1,732.5,474.5z M732.5,548.7h1.3H732.5c0-4.6,0-9.9-0.2-14.7
							c0-0.4,0-0.7-0.2-1.3c-1.8-3.7-4.4-5.5-8.4-6.6c-0.2,0-0.2,0-0.2,0v-1.8c0.2,0.2,0.4,0.4,0.7,0.7c1.8,0.9,3.7,2.2,5.5,3.3
							c1.5,0.9,3.3,3.1,3.7,5.5c0,1.3,0.2,2.6,0.2,4.2c0,1.3,0,2.6,0.2,4c0,2.4,0,4.8,0,7c-0.2,2.6-0.2,5.3-0.2,7.7
							c0,2.6-0.2,5.1-0.2,7.7c0,0.2-0.2,0.9-0.2,1.1l-0.2,0.7c-1.5,2.6-3.1,5.1-5.9,6.6c-0.7,0.2-1.1,0.2-1.5,0.4
							c-0.7,0.2-1.3,0.7-2.2,0.7c-0.4,0.2,0.9-0.7,0.7-0.2c0,0-0.2,0.7-0.4,0.7l-0.9-2c0.2,0,0.9,0.2,0.9,0.2c0.2,0,0,0,0,0
							c2.9,0-1.8,2.9,0.2-0.2c2.6-0.2,4.4-1.3,6.2-3.1c1.5-1.1,2.2-2.4,2.4-4.4c0.2-3.3,0.2-6.4,0.2-10.1
							C732.5,552.9,732.5,550.9,732.5,548.7z M725.9,456.3c0.2-1.3,0-1.5-0.9-2.2c-1.5-2.4,1.5,0,0,0l1.3-1.1c0,0.2-0.2,0.4-0.2,0.7
							c0,0.9,0.2,1.5,0.9,2c0.2,0.2,0.7,1.1,0.9,1.5l-2.2,0.7c0-0.2,0-0.9,0-1.1C725.9,456.5,725.9,456.3,725.9,456.3z M727.5,589.2
							c0-1.5,0-3.1,0-4.6c0-2.6,0-6.2,0-8.8c0,0,0,0,0-0.2c-0.2,0-0.2-0.2-0.2-0.4h2.2c-0.2,0.4-0.9,1.1-1.1,1.3c-0.2,0-0.2,0-0.2,0
							l0.4-0.9c0,0.2,0,0.9,0,1.1c0,8.1,0,16.7,0,25.1c0,0.2,0,0.4,0.2,0.9l-0.4-0.4c0.2,0,0.2,0,0.2,0l-0.9,0.4
							c0,0-0.2,0.2-0.2,0.4c0-0.4,0-1.1,0-1.5C727.5,597.3,727.5,593.4,727.5,589.2z M727.7,509.5c0-4.2,0-8.6,0-13
							c0-2.4,3.3-0.2,1.1-0.2c0.2,0,0.2,0,0.2,0.2c0,0.4,0,0.9,0,1.1c0,7,0,13.6,0,20.9c0,1.1-0.2,1.8-0.4,2.6v0.2
							c0,0.7,0,1.1,0,1.3l0.2,0.4c0-0.4,0-0.4,0.2-0.2c0,0,0.2,0,0.2,0.2l-1.3,0.2c-0.2,0-0.2,0-0.2-0.2
							C727.7,518.8,727.7,513.9,727.7,509.5z M732.3,456.5c0.2-3.1-0.7-5.7-3.1-7.7c-3.1-3.5,0-0.7-0.4-0.7l-0.4,0.2l1.1-1.3
							c0,0.2,0,0.7,0,1.1l-0.2-0.9C729,447,729,447,729,447c0.4,0.2,0.9,0.7,1.1,1.3c2,2,3.5,4.6,3.3,7.7c0,0.9,0,2,0,2.6
							c0,0.2,0,0.2-0.2,0.2l0.4,0.7c0,0.4-0.4-0.7-0.4-0.7l-0.9,0.4c0-0.2,0-0.2,0,0C732.3,458.7,732.3,458,732.3,456.5z
							 M746.6,446.6l-1.1-1.3c0,0,0,0,0-0.2l1.3,1.3c-4.8,0.2-9.7,0.4-15,0.7c0,0,0,0-0.2,0c0,0.2-0.7,0.2-0.7,0.2l1.1-1.1
							c0-0.2,0-0.2,0.2-0.2c1.1,2.2-0.7-0.2,0.2,0.2c0.2,0.2,0.7,0.4,0.7,0.4c2.4,2.4,3.7,5.9,3.5,9.5c0,0.7,0,1.8,0,2.2
							c0.2,0.9,0.2,0.9,1.1,0.9c0.9,0,1.3,0,1.8,0c3.5,0,6.8,0.2,9.9,0.2c3.3,0,6.4,0,9.7,0l0.4,0.2c0,0,0,0,0.2,0
							c0.4,0,0.9,0,1.1,0c1.5,0,2.9,0.2,4.2,0.2c1.3,0,2.6,0.2,4,0.2c0.4,0,1.1-0.7-0.4,0.7c0-0.2,0-0.4,0-0.4l0.2,0.7
							c-2.4-2.9-3.5-6.6-2-10.1c0.9-1.3,2-3.1,2.9-3.7c5.3-5.5-7.9-0.7,0.4,0.7c-1.1,0-2.4-0.2-3.3-0.2c-1.1-0.2-1.8-0.4-2.6-0.4
							c-2.2,0-4.2-0.2-6.4-0.2c-2,0-4.2-0.2-6.2-0.2C749.9,446.6,748.4,446.6,746.6,446.6z M766.6,583c2.4,0,5.3,0,8.1,0
							c0,0,0,0,0.2,0c0.2,0,0.7-0.2,1.1-0.2l-0.7,2.4c-0.2-0.2-0.9-0.9-1.1-1.1c-0.2,0-0.2,0-0.4,0c-1.5,0.2-3.3,0.4-5.3,0.4
							c-4,0-8.1-0.2-12.8-0.4c-1.3,0-3.1,0-4.2-0.2c-0.2-0.2-0.7-0.2-1.1-0.4c-1.5-0.2-3.1-0.4-4.8-1.8c-3.3-2.9-5.9-5.5-6.8-10.1
							c0.2,0,0.2,0.2,0.2,0.2c-0.2-0.2-0.4-0.4-0.7-0.4l2.2-0.9c0,0.2-0.2,0.7-0.2,0.9c0,0.2,0,0.7,0,0.9c0.7,2,1.3,3.7,2.6,5.3
							c1.5,2.9,4,4.2,7,4.6c2.6,0.4,5.5,0.7,8.4,0.9c1.1,0,2,0,3.1,0c0.9,0.2,2,0.2,3.3,0.2C765.3,583.2,766,583,766.6,583z
							 M752.1,560.3c-1.8,0.2-3.5,0.9-5.7,3.5c-0.2,0-0.2,0-0.2-0.2l-1.1-1.1c-0.2,0-0.4,0-0.2,0l0.2-0.2c2.2-1.3,4.2-2.6,7.3-3.3
							l-0.2,0.2c0.4-0.4,0.2,1.5-0.2,0.9C752.1,560.3,752.3,560.3,752.1,560.3z M767.3,576.8c0.4-0.2,0.9-0.4,1.3-0.4l-0.2,2.2
							c-0.2-0.2-0.9-0.7-1.1-1.1c-0.2-0.4-0.4-0.7-0.7-0.9c-3.3-4-7-7.9-10.8-12.1c-0.2,0-0.4-0.2-0.4-0.2c-0.7-0.7-0.9-0.9-1.3-0.7
							c-0.9,0.2-2,0.7-3.1,1.1c-2,1.5-3.1,3.5-2.6,5.9c0.4,2.6,1.3,4.2,3.7,5.3c0.4,0,1.1,0,1.5,0c0.7,0.2,1.3,0.2,2,0.4
							C759.1,576.4,762.9,576.6,767.3,576.8z M756.3,551.3c0.2,2,0.9,3.3,2.2,4.8c3.5,3.7,7,7.9,10.3,12.1c1.8,1.5,3.5,3.3,5.3,4.8
							c1.8,1.8,3.5,3.3,5.3,5.1c0.4,0.4,0.7,0.7,1.3,1.1c0.4,0.2,0.7,0.7,1.1,0.9c0.2,0,0.4,0,0.9,0l-1.3,1.5c0-0.4-0.4-0.7-0.4-0.9
							c-3.1-2.2-5.7-5.1-8.6-7.9c-1.5-1.5-3.1-3.1-4.6-4.6s-2.9-3.1-4.2-4.6c-1.8-2.2-3.3-4.2-5.1-5.9c-1.5-2-3.3-4-3.1-7.3
							c0-1.3,0-2,0-3.3l2.4,0.4c-0.2,0.4-0.4,0.7-0.4,1.1c-0.4,0.7-0.7,1.3-0.7,2.2l-0.4,0.7C756.3,551.3,756.3,551.1,756.3,551.3z
							 M767.7,537.9c-2.4-0.4-4.4,0.7-6.8,2.2h-0.7c0,0,0,0-0.2,0.2l-0.4-2.4c0.2,0,0.7,0.2,0.7,0.2c0.4,0-2.9,2.4,0-0.2
							c0.2,0,0.4,0,0.9,0s1.1-0.2,1.5-0.2c1.5-0.4,3.3-0.9,4.8-0.9c3.1,0,6.4,0.9,8.6,3.3c1.1,1.5,2.4,2.9,3.7,4.2
							c0.9,0.9,1.8,1.8,2.6,2.9c2.9,2.9,5.7,5.9,8.6,9c2,2,3.7,4.2,5.7,6.2c2.4,2.4,3.5,6.4,2.2,10.1c0,1.1-0.7,2.4-0.9,3.5
							c-0.2,0.4-0.4,0.7-0.4,1.1c0,0,0,0.2,0,0.4l-1.3-1.1c0.2,0,0.9,0,1.3,0l-0.9,0.2c0-0.2,0.2-0.4,0.2-0.7
							c0.7-1.1,1.3-2.6,1.5-3.7c0.4-3.3,0.4-6.2-2-8.4c-1.1-1.5-2.4-2.9-3.5-4.2c-1.5-1.5-3.1-3.3-4.4-5.1c-4.4-4.6-8.8-9-13-13.9
							C773,539,771,537.5,767.7,537.9z M763.8,552.9c1.1,0,2.2-0.2,3.3-0.2c1.3,0,2.9,0,4.4,0c1.8,0,3.7-0.4,5.7-0.7h0.2
							c-0.2,0.2-0.2,0.4,0,0.7c-0.4-0.4-0.9-0.9-1.3-1.3c-0.4-0.7-1.1-1.1-1.5-1.8c-1.5-1.3-3.3-3.1-4.4-4.4c0,0-0.4-0.2-1.1-0.2
							c-5.1-1.1-8.4,1.5-8.8,6.8c0,1.1,0,1.1,1.5,1.1C762.2,552.9,762.7,552.9,763.8,552.9z M766.4,559.2c1.1-0.2,2.4-0.4,4.2-0.4
							c2.9,0.2,5.7-0.2,8.8-0.7c1.1-0.2,2.4-0.4,4-0.4c0,0,0,0,0-0.2l0.4,2c-0.4-0.2-0.7-0.4-0.9-0.4c0-0.2-0.2-0.2-0.4-0.2h0.7h0.2
							c-0.2,0.2-0.9,0.2-0.9,0.2c-0.9,0.2-1.8,0.2-2.9,0.4c-1.5,0.2-3.1,0.4-4.8,0.4c-2.9,0.2-6.2,0.4-9,0.4c0.2,0,0.2,0,0,0
							c-0.2,0-0.7,0.2-0.9,0.2l0.9-2.2c0.2,0.2,0.4,0.7,0.4,0.9c0.2,0.4-2-0.9,0-0.2C766.4,559.2,766.4,559.2,766.4,559.2z
							 M789.5,566.9v1.1c-0.2,0-0.2,0-0.4,0H788c0-1.5,0-3.1-0.2-4.4c0-1.1-1.5-2-2.6-2c-0.9,0-1.5,0.2-2.4,0.4c-0.2,0-0.4,0-0.7,0
							c-3.3,0.9-6.8,1.5-10.6,1.5c-0.7,0-1.3,0-1.8,0c-0.7,0-0.9,0.2-1.3,0.4l0.2-2c0.2,0,0.4,0.4,0.4,0.7c0.2,0.2,0.4,0.4,0.7,0.7
							c0.2,0.4,0.7,0.7,0.9,1.1c0.4,0.4,0.7,0.9,1.1,1.3c0.9,0.9,2,2,3.1,3.1c2,2,4.2,4,6.2,6.2c0.7,0.7,0.7,0.7,0.7,0.2
							c1.1-3.1,3.3-5.9,6.4-7.3C788.2,567.6,788.8,566.9,789.5,566.9z M771,457.6l0.7,0.2c-0.2,0,0-0.9,0.2-0.4l-0.2-0.4
							c0.4,0.4,0.9,0.9,1.3,1.1c0.9,0.9,1.8,1.8,2.9,2.4c0.2,0,0.4,0,0.7,0v1.1c0-0.4,0-0.4-0.2-0.7l-0.9,0.9
							c-1.5-1.5-2.9-2.9-4.2-4C770.6,455.8,771.7,457.8,771,457.6z M821.6,471.5l-0.9,2.2c-0.2-0.2-0.2-0.2-0.4-0.2
							c-0.2-0.2-0.7-0.7-0.7-1.1c-2-2.6-4.8-4.2-8.4-5.5c-7.7-3.1-16.1-4.6-24.4-5.7c-0.7,0-1.1-0.2-1.8-0.2
							c-2.6-0.4-5.3-0.7-7.9-1.8c-3.3-2.9,0.2-0.4,0-0.4c0,0.2-0.7,0.2-0.7,0.2l1.1-1.1c0,0.2-1.1-0.9-0.9-0.9l0.7,0.2
							c0.2,0.2,0.4,0.4,0.9,0.4c0.9,0.7,1.8,1.3,2.6,1.3c4.2,1.1,8.8,2,13,2.4c5.7,1.1,11,2.2,16.3,4.2c3.1,1.3,6.6,2.6,9,5.5
							c0,0,0.2,0.2,0.7,0.4c0.4,0,0.9,0.2,1.1,0.4h-0.7c0.2,0-0.2,0,0,0C820.5,471.7,821.2,471.5,821.6,471.5z M786.2,577.9
							c0.4,0.7,0.7,1.8,0.9,2.6l-1.1,0.2c0,0.7,0,0.7,0.2,0.9h-1.1c0-0.2,0-0.9,0.2-0.9c0-0.2,0,0,0,0c0-0.9,0-1.8,0-2.6
							s0.2-1.8,0.2-2.6c0,0.2,0,0.2,0,0.2c-0.2-0.2-0.2-0.9-0.2-1.1l1.1,1.1c0.2,0,0.2,0,0,0.2C786.4,576.6,786.4,577.3,786.2,577.9
							z M825.8,458.3c0,0,0,0,0.2,0c0.2,0,0.2,0,0,0l-0.2,0.9c0,0.2,0,0.4,0,0.2c-0.2-0.2-0.2-0.7-0.2-0.9l0.7,1.1
							c-0.9-0.2-1.5-0.7-1.8-0.9c-4.8-3.7-10.6-5.7-16.7-7c-4.4-1.5-9-2.2-13.2-3.1c-1.3-0.2-2.6-0.4-3.7-0.7
							c-1.5-0.4-3.3-0.4-4.6-0.4c0.2,0,0.2,0,0.2,0c-0.2,0.2-0.4,0.2-0.7,0.4l0.4-2c0,0,0,0.2,0.2,0.4c0.2,0,0.2,0,0.4,0
							c2.2,0.4,4.6,0.7,6.4,0.7c1.8,0.4,3.3,0.9,5.1,1.3c1.8,0.4,3.5,0.9,5.3,1.3c7.3,1.8,15,3.7,21.6,8.1
							C825.4,458,825.6,458.3,825.8,458.3z M788,457.8l-0.4-0.9c0,0,0.2,0,0.2,0.2c2.6,0.4,5.3,0.9,8.1,1.3c1.3,0.2,2.6,0.4,4.2,0.7
							c4.8,1.3,9.7,2.2,14.7,4.8c0.4,0,1.1,0.7,1.5,0.9c0.4,0.4,0.4,0.4,0.2,0.4c0.2,0,0.4-0.2,0.9-1.1c0.2-0.2,0.4-0.9,0.9-1.3
							c4.2-5.3,6.4,2.9,0,0.2c-4.2-2.9-9.2-4-14.7-5.5c-2.6-0.4-5.7-1.1-8.6-1.8c-1.5-0.4-3.1-0.7-4.4-1.1c-2.6-0.2-2.6-0.2-2.6,2
							C788,456.9,788,457.2,788,457.8z M787.7,578.2l2.2,0.2c0,0-0.4,0.4-0.4,0.7c0.4,1.8,0.9,3.1,2,4.2c1.8,2.2,3.7,4.2,5.9,6.4
							c0.9,0.7,1.5,1.3,2.4,2.2c1.3,2,2.6,3.3,4,4.8c3.3,4.2,6.6,8.1,10.1,12.1c0,0.2,0.2,0.4,0.7,0.7c0.2,0,0.4,0.2,0.7,0.4
							c0.2,0,0.2,0,0.4,0l-1.1,1.1v-0.2c-0.7-1.1-1.5-2.2-2.9-3.3c-2.4-3.1-5.1-6.2-7.5-8.8c-0.9-0.9-1.5-1.8-2.2-2.6
							c-3.5-4.2-7-8.1-10.8-11.9c-1.1-0.9-2.6-2.6-3.1-4.6c0-0.4,0-0.4,0-0.7C788,578.8,788,578.6,787.7,578.2z M815.7,600.4v1.8
							c-0.4-0.4-0.7-0.9-1.1-1.3c0-0.2-0.2-0.4-0.2-0.4c-0.9-1.1-1.8-2.2-2.9-3.3c-1.3-1.3-2.6-2.6-3.7-4.2
							c-3.1-3.5-5.9-6.6-8.8-9.7c-0.7-0.9-0.7-0.7-1.3,0c-0.2,0.2-0.4,0.4-0.7,0.4c-0.4,0.2,0.9-2,0,0c-0.2,0.4-0.2,0.4,0,0.9
							c0.7,0.7,1.3,1.3,2,2c1.3,1.5,2.6,2.9,4,4.6c1.3,1.3,2.6,2.9,4.2,4.4c2,2.4,4.2,4.6,6.2,7c0,0,0,0-0.2,0.2
							c0.7-0.7,1.3-1.3,2-1.8C815.2,600.6,815.5,600.6,815.7,600.4z M824.9,521.4v1.3c0,0-0.2,0-0.4,0c0,0.2-0.2,0.4-0.4,0.7
							c-0.7,0.9-1.3,1.5-1.5,2.2c-0.9,2.2-1.5,4.2-2.2,6.2c-0.7,1.8-1.3,3.5-2,5.3c-1.8,5.1-4.8,9.7-8.6,13.2
							c-3.1,3.3-6.4,5.5-9.7,7.9c-0.2,0.2-0.7,0.4-1.1,0.7c-0.2,0.2-0.2,0.2-0.4,0.4l-1.1-1.1c0,0,0.2,0,0.4,0
							c0.4-0.2,0.9-0.4,1.1-0.7c0.9-0.4,1.5-0.7,2.4-1.1c4-2.6,7.5-5.9,10.6-9.5c3.5-3.7,5.1-8.8,7-13.9c0.2-0.9,0.4-1.5,0.7-2.4
							c0.9-3.1,2-6.6,4.4-9.2l0.9,0.9C824.9,522.1,824.9,522.1,824.9,521.4z M800.9,575.1l2-0.9c0,0.2,0,0.7-0.2,0.9
							c0,0.7,0.2,0.7,0.4,1.1c2.9,2.9,5.5,5.7,8.1,8.8c1.8,1.3,3.5,3.3,5.1,5.1c0.4,0.9,1.1,1.5,1.8,2.4c1.3,1.8,2.9,3.7,4.4,5.3
							c0.2,0.2-0.4-0.2-0.2-0.2c0.2,0,0.7-0.2,0.9-0.2l-1.3,1.3c0-0.2,0,0,0,0c-0.7-0.7-1.1-1.3-1.8-2.2c-0.9-0.9-1.8-2-2.9-3.3
							c-1.5-2-3.1-3.7-4.8-5.7c-1.8-1.8-3.3-3.7-4.8-5.5c-0.2-0.2-0.4-0.4-0.7-0.4c-0.2-0.4-0.2-0.4-0.9-0.4
							c-0.7-1.3-1.5-2.2-2.4-3.3c-0.7-0.7-1.5-1.5-2-2.4c0,0.2,0,0.2,0,0.2C801.4,575.3,800.9,575.1,800.9,575.1z M804.7,567.2
							c0-0.9,0-1.5,0-2c0-0.2,0-0.2,0-0.2c0.9,0,0.4-1.5,0.7-0.4c0,0.2,0,0.4,0,0.7c0,2.4,0.2,5.1-1.3,7.3c0.2,0,0.2,0,0.2,0.2
							l-0.4-0.9l0.2,0.2c0.2,0.2,0.7,0.4,0.7,0.4h-1.5c0,0,0.2-0.2,0.4-0.4C804.2,570.5,804.9,568.7,804.7,567.2z M826.2,532.6
							l1.1,1.8c-0.2,0-0.7-0.2-1.1-0.4c-0.4-0.2-0.9-0.2-1.1-0.4c-0.4-0.2-0.7-0.2-0.7,0c-1.1-0.4-1.1-0.4-1.3,0
							c-1.1,3.3-2.4,6.4-3.7,9.9c-2.9,5.5-7,9.9-11.9,13.2c-0.7,0.7-0.7,0.9-0.7,1.1c0-0.7,0.2,0,0.2,0.2c0.2,0.2,0.9,1.1,1.1,1.5
							c2.9-2.4,6.2-5.3,8.8-8.6c4.4-5.1,6.8-11,8.8-17.2v0.4c0-0.4,0.2-0.9,0.4-1.1C826.2,532.8,826.2,532.8,826.2,532.6z
							 M833.3,532.8c0-0.2,0-0.4,0-0.7l1.1,1.1c-0.9,0,0.7-1.3,0.7-0.9l-0.2,0.7c-0.4,0.7-0.9,1.3-1.5,2c-2,6.8-4.6,13.4-9,19.4
							c-2.4,3.7-5.7,6.6-9,9.5c-2,1.3-3.7,2.4-4.8,3.7c0.4-0.4,0,0.2,0,0.4l-1.1-1.1c0,0,0.2,0,0.4,0c0.7-0.4,1.1-0.9,1.5-1.1
							c2-1.3,3.7-2.6,5.1-3.7c4.6-4.4,8.6-9,11.4-15c1.5-3.3,2.9-6.8,4.4-10.8C832.8,535,833.1,534.2,833.3,532.8z M836.1,648.6
							c0.2-0.2,0.2-0.2,0.4-0.2l0.9,2.2c-0.4,0-0.9,0-1.1,0l-0.9-0.4c0.2,0.2,0.2,0.2,0,0c-0.2,0-0.7-0.2-0.9-0.2
							c-0.2-0.2-0.7-0.4-1.1-0.7c-1.1-0.4-2.9-1.1-3.7-2.9c-1.8-3.5-3.7-7-5.7-10.6c-0.7-1.3-1.5-2.9-2.2-4.2
							c-1.1-1.8-2.2-3.5-3.3-5.3c-2-2.9-3.7-5.7-4.8-9.2c-0.2-1.3,0.7,0.4,0.2,0.4l1.1-1.3c0,0.2-0.2,0.9-0.2,1.1
							c0.2,0.7,0.4,1.1,0.7,1.8c0.2,0.4,0.2,0.7,0.4,0.9c0.4,1.1,1.1,2,1.8,2.9c0.7,1.3,1.5,2.6,2.4,4c3.3,6.2,6.6,12.1,10.3,18
							C831.5,647.2,833.7,648.1,836.1,648.6z M818.3,613.4c0.2,0,0.7,0,0.9,0c0.4,0.2,0.4,0.2,0.4,0.2l0.4-0.2c-0.2,0-0.2,0,0,0
							l0.9,2c-0.2,0-0.9-0.2-0.9-0.2c-0.2,0,0,0,0,0h-0.2c-1.8-0.4-3.7-0.7-5.3-1.1c0.2,0,0.9-1.1,0.9-0.9v-0.4
							C816.1,613.6,817,613.6,818.3,613.4z M837.9,645.3c2.6,0,4.6-0.9,5.7-3.3c0.9-0.9,1.3-1.5,1.3-2.6c0-1.3-0.7-2.4-1.3-3.5
							c-0.4-0.4-0.7-0.9-0.9-1.3c-2.4-6.2-5.5-11.7-9.2-17.2c-0.7-1.1-1.5-2.4-2.6-3.5c-0.9-1.3-1.8-2.4-2.4-3.5
							c-0.4-0.4,0.9,0.9,1.1-0.2c-0.7,2.4-2,4.8-4.8,6.6c-2,0.7-3.7,1.5-6.2,1.5c-5.3,0-2-4.8,0.2,0.4c0.2,0.2,0.4,0.7,0.7,0.9
							c0.9,1.3,2,2.9,2.9,4.4c3.7,5.7,7.3,11.9,10.3,18C834.2,644.4,835.3,645.3,837.9,645.3z M819.6,496.5c0.2-4.4,0-8.4-0.7-12.5
							c-0.4-1.3-0.7-2.6-0.9-4.4c-0.2,0-0.2,0-0.2-0.2c-0.2-0.2-0.4-0.4-0.4-0.7h2.2c-0.4,0.4-0.7,0.9-0.9,1.3l0.2-0.4
							c0-0.4-0.4-0.7,0.2,0c0,0.9,0.2,1.8,0.4,2.6c0.7,3.5,1.1,7,1.1,10.3c0,0.7,0,1.3,0.2,2c0.2,0.4,0.4,1.1,0.4,1.8
							c0,1.3-0.2,3.1-0.4,4.6c-0.2,0.7-0.2,1.3-0.2,1.8c-0.2,0.9-0.2,2-0.4,2.9c-0.2,1.8-0.4,3.3-0.4,4.8c0,0.7-0.2,1.3-0.2,2
							c-0.4,2-0.7,3.3,0.2,4.6v0.7c0,0,0,0.4,0,0.7l-2.2-0.4c0-0.2,0.4-0.7,0.4-0.9c0.2,0-0.4,1.5,0,0c0.2-0.4,0.4-0.7,0.4-0.7
							c0-1.1,0-2.4,0.2-3.7c0-1.1,0.2-2.2,0.2-3.1c0.2-2.4,0.4-5.1,0.7-7.7C819.6,500.1,819.6,498.3,819.6,496.5z M825.4,476.5
							l-0.2,2c-0.2-0.2-0.2-0.2-0.4-0.2c0,0-0.2-0.2-0.4-0.2c-1.1-0.4-2-0.9-2.9-1.3c-0.4-0.2-0.9-0.4-1.5-0.7c-0.2,0-0.4,0-0.7,0
							l0.9-2c0.2,0.2,0.4,0.7,0.4,0.9c1.1,0.9,2.4,1.1,3.7,1.5c0.4,0,0.9,0,1.1,0.2c1.5,0.9-1.1,0.4-0.2,0L825.4,476.5z
							 M825.6,602.6c-2,0.2-3.5,0.4-5.1,0.9h-0.4c0,0,0.2-0.4,0.2-0.2l-1.1-0.7c0.4,0,0.9-0.4,0.4,0l0.7-0.4c0,0-0.2,0.2,0,0
							c0,0,0.7-0.2,0.9-0.2l-0.4,0.2c5.3-1.3,10.3-0.9,14.5,4.2c0.9,1.8,2.4,3.7,3.7,5.5c1.3,2,2.4,3.7,3.5,5.7
							c0.9,1.3,1.8,2.6,2.4,4c2.9,5.1,5.5,10.3,7.3,15.6c0.7,1.3,0.9,2.4,0.7,3.3c-0.9,4-2.9,7.7-5.9,10.1l-0.9,0.2
							c0.4,0,0.2,0,0,0.2c-0.2,0.2-0.7,0.4-1.1,0.4V649c0.4,0,1.1,0.4,1.3,0.7c0.2,0.2-0.7-0.2-0.4-0.2c0.2,0-0.9,0.4-0.4,0.2
							c0.2-0.2,0.4-0.4,0.7-0.4c2-1.3,4-3.3,5.1-5.7c0.7-2,1.1-3.3,0.7-4.6c-2-6.4-5.1-12.1-8.1-17.6c-2.2-4.4-5.1-8.1-7.9-12.1
							c-0.4-0.4-0.9-1.1-1.3-1.8c-0.7-1.1-1.3-2-2.2-3.1C830,602.8,828.2,602.4,825.6,602.6z M837.5,496.1c0.7-4.6-0.4-9.7-1.5-14.3
							c-0.4-2-1.1-3.7-1.8-5.7c-0.4-1.5,0.2,0,0,0c-0.2-0.2-0.4-0.7-0.4-1.1l2,0.9c0,0-0.2,0.2-0.4,0.2c0,0.2,0.4-0.9,0.4-0.7v0.4
							c-0.4,0.9-0.7,1.5-0.9,2c-1.8,2-4.2,4.2-7,4.2c-2,0-3.5,0-5.7-0.9c0.4,0.2,0.4-1.8,0.7-0.4c1.1,5.1,1.5,10.3,1.5,15.6
							c0,1.3,0,2.6-0.2,4c0,3.3,0,6.8-0.7,9.9c-0.2,0.4-0.2,1.1-0.2,1.8c-0.2,0.7-0.2,1.5-0.4,2.2c0,6.6-6.4,3.1-0.4-0.4
							c4.2-2.2,7.9-2.4,11.7,0.4c0.7,0.4,1.1,1.1,1.5,1.8c0.2,0.2,0.4,0.4,0.7,0.7c-0.2,0-0.2,0,0,0c0,0,0.4,0.2,0.7,0.4H835
							c0,0.2,0,0.4,0,0c0-0.7,0-1.1,0.2-1.8c0-0.4,0-1.1,0.2-1.8c1.1-4.4,2-8.4,2-12.5C837.5,499.4,837.5,497.6,837.5,496.1z
							 M820.7,520.1h0.2l-0.9,0.2c0.4-0.4,1.1-0.7,1.5-0.9c1.1-0.9,2.4-1.8,3.7-2.9c0-0.4,0.2-0.9,0.4-1.1l0.9,2.2
							c0,0-0.7-0.2-0.9-0.2c0,0,0,0-0.2,0c-1.5,0.9-3.1,2.2-4.2,4l0.2-0.7C821.6,521,820.3,520.1,820.7,520.1z M844.1,496.3
							c-0.4-2.6-0.7-5.3-0.9-8.4c-0.2-5.1-1.1-9.7-2.9-14.5c-1.1-2.9-2.2-5.7-5.7-7.5c-3.3-2-5.7-2.9-9.5-1.3
							c-0.2,0.2-0.4,0.4-0.7,0.7l0.2-1.3c0,0.2,0,0.2-0.4,0.7c0.4-0.4,1.1-0.7,1.8-0.7s1.3,0,1.8,0c1.3,0,2.4,0,3.5,0
							c5.3,1.8,9,5.5,10.6,10.3c2.2,6.8,3.3,13.4,3.1,20.2c0,4.2,0,8.8-0.4,13.2c-0.4,3.5-0.9,7.9-2.2,11.4
							c-1.5,5.1-5.5,9.5-11.9,10.3c-0.2,0-0.2,0-0.2-0.2c-0.2,0.2,0,0.2-0.2-0.7c0.2,0.2,0.2,0.2,0.2,0.2l-0.9-0.4
							c0.4,0,0.7,0.2,0.9,0.2c0.7,0,0.9,0,1.3,0c5.1-1.5,8.4-4.2,9.7-9c1.1-4.2,1.5-8.4,2-12.3c0.2-1.8,0.4-3.7,0.4-5.5
							C843.8,500.1,843.8,498.3,844.1,496.3z"/>
					</g>
				</g>
			</g>
			<g>
				<g>
					<g class="st0">
						<path class="st1" d="M887.8,450.8c-2-3.7-3.7-7.3-6.2-11c7.5,0.2,14.3,1.8,21.8,2.6c-3.3,3.1-5.9,6.2-8.8,9.5
							c2,1.1,4,2,5.5,3.3c6.4,5.7,7.9,12.3,7.3,20c-0.2,0.4-0.2,0.9-0.2,1.3c-1.1,8.4-2.2,16.5-3.1,24.4c-0.9,6.2-1.5,12.3-2.4,18.7
							c-0.7,5.7-1.5,11.4-2.4,17.6c-0.7,5.9-1.3,12.3-2.2,18.5c-0.4,5.7-1.5,11.7-2.2,17.6c-0.7,6.2-1.3,12.1-2.2,18.5
							c-0.4,2.9-1.1,5.9-2,9c-2,6.6-6.2,11.4-13.4,13.9c-1.3,0.2-2.9,0.4-4.8,0.7c2.4,4.4,4.4,8.6,7,13.2c-7.3-1.3-14.3-2-21.6-2.9
							c3.1-4,6.8-7,9.7-10.8c-0.4-0.2-0.7-0.2-1.1-0.4c-6.8-2.6-10.8-7.9-12.5-15c-0.4-3.3-0.4-6.6,0-10.1c0.7-4.4,0.9-8.8,1.8-13.4
							c0.9-6.8,1.5-14.1,2.4-20.7c0.7-5.7,1.5-11.2,2.4-16.7c0.7-6.6,1.5-12.8,2.2-19.4c0.7-5.7,1.5-11.7,2.2-17.2
							c0.9-6.4,1.5-12.8,2.2-18.7c0.7-4.8,1.3-9.2,2.2-14.1c1.3-9,7.7-16.7,16.7-18C886.5,451.2,887,451.2,887.8,450.8z
							 M884.5,566.5c-1.3-0.4-1.5,0.4-2,1.3c-0.4,3.7-0.9,7-1.3,10.8c-0.4,4.4-0.9,9-1.5,13.4c0,1.3-0.4,2.6-0.9,4.2
							c-0.9,1.5-2,2.6-3.7,3.3c-1.5,0.4-2,1.8-1.1,3.1c0.4,1.3,1.1,1.5,2.4,1.1c0.9-0.2,2-0.7,2.6-1.1c3.1-2.4,4.4-5.9,4.8-9.5
							c0.7-5.3,1.3-10.6,2-16.1c0.7-6.8,1.8-14.1,2.6-20.9c0.7-5.1,1.3-9.9,1.8-15.2c0.9-6.8,2-13.9,2.9-20.9
							c0.7-4.8,1.3-9.9,2-15.2c0-0.7,0-1.5-0.2-2.4c-0.2-0.7-0.9-1.3-1.8-1.1c-0.9,0-1.8,0.4-2,1.3c-0.2,1.1-0.4,2.2-0.7,3.3
							c-0.7,5.7-1.5,11.4-2.2,17.2c-0.7,6.4-1.8,12.8-2.4,19.1c-0.4,4.8-0.9,9.2-1.5,14.1c0,0.4,0,0.9,0,1.3
							c-0.4,2.6-0.7,4.8-1.1,7.5C883.2,566.3,883.7,566.5,884.5,566.5z M885.6,474.3c0.2-2.6-1.5-5.5-4.4-6.2
							c-2.2-0.7-5.3,0.7-6.2,3.1c-0.9,1.8-0.7,3.1,0.2,3.5c1.1,0.7,2,0.2,3.1-1.5c0.4-0.4,1.1-1.1,1.5-1.1c0.9-0.2,1.3,0.4,1.5,1.3
							c0.2,0.4,0.2,0.9,0.2,1.1c0.2,0.9,0.9,1.3,2.2,1.3C884.8,476.1,885.4,475.2,885.6,474.3z M885.4,493.9
							c4.2,0.4,8.8-2.4,10.1-7.9c0.2-0.9-0.4-2-1.5-2.2c-0.9-0.2-1.8,0.2-2.4,1.3c-0.2,0.4-0.2,0.7-0.2,1.1c-0.9,2-2.2,3.3-4.4,3.7
							c-2,0.2-3.5-0.4-5.1-2.2c-0.9-1.3-1.1-2.4-1.1-4c0-1.3-0.9-2.2-1.8-2.2c-1.1,0-1.8,0.7-2,2.2
							C876.2,488.6,880.1,493.5,885.4,493.9z M901.3,475.9c0.4-3.3-2.9-6.2-6.2-5.7c-2.4,0.4-4.8,2.6-4.8,4.8c0,0.9,0.4,1.8,1.3,2
							c1.1,0.2,2-0.2,2.4-1.1c0.2-0.2,0.2-0.9,0.4-1.1c0.9-0.9,2.4-0.7,2.9,0.2c0.2,0.4,0,0.7,0.2,1.1c0.2,1.3,0.9,2.2,2,1.8
							C900.6,477.6,901.3,477,901.3,475.9z"/>
					</g>
				</g>
			</g>
			<g>
				<g>
					<g class="st0">
						<path class="st1" d="M881.2,526c0.9,0,1.5,0.2,2.4,0.7c0.9,0.4,1.5,0.4,2.4,1.1c0.2,0.4,1.1,0.7,1.8,1.1
							c0.4,0.4,0.7,0.9,1.1,1.1c0.7,0.2,0.9,0.7,0.9,1.3c0,0,0,0,0,0.2l0.2-0.2c0-1.1,0.2-1.8,0.9-2.4l-0.4-0.2
							c-0.7-0.2-1.1-1.1-0.9-2.2c0,0,0-0.2,0.2-0.4v-0.4c-0.2,0-0.4,0-0.4,0.2c-0.7,0.2-1.3,0.2-1.8,0.7c-0.2,0-0.4,0.2-0.7-0.2
							c-0.2-0.4-0.7-1.1-1.3-1.8c-0.7-0.7-1.3-1.5-2-2.4c-0.2-0.2-0.7-0.4-1.1-0.9c0,0,0-0.2-0.2-0.2v-0.4h0.2h0.4
							c0.9,0.9,1.8,1.8,2.4,2.6c0.2,0.4,0.4,0.7,0.7,0.9c0.2,0.4,0.7,0.7,0.7,0.9c0,0.4,0.4,0.9,0.7,0.9c0.2,0.2,0.7-0.2,1.1-0.4
							c0.4,0,0.9-0.2,1.1-0.2c0.7,0,0.9-0.2,1.3-0.7c0.2-0.4,0.7-0.2,1.1,0c0.2,0.2,0.4,0.7,0.9,0.2c0.4,0,0.9,0.2,1.1,0.4
							c0.7,0.2,1.5,0.4,2,0.4c0.2,0,0.4,0,0.4-0.2c0-0.4,0.2-0.9,0.2-1.3c0-0.7,0.2-1.3,0.7-1.8c0.2-0.7,0.7-1.5,0.9-2.4
							c0.2-0.7,0.7-1.1,0.9-1.5c0.2,0,0.4,0,0.7-0.2c0,0.2,0,0.2,0,0.4v0.2c-0.7,0.4-0.9,1.1-1.1,1.8c-0.2,0.2-0.4,0.4-0.4,0.9
							c-0.4,1.1-0.9,2.4-1.3,4c0,0.2,0,0.4-0.2,0.7c0,0,0,0.2-0.4,0.2c-0.7,0-1.3-0.2-1.8-0.2c-0.4-0.2-0.7-0.4-0.9-0.7
							c-0.2,0-0.4-0.2-0.7-0.2c0.2,0.2,0.2,0.4,0.2,0.4c0.7,0.4,0.9,0.9,0.9,1.8c-0.2,0.4-0.4,0.9-0.9,1.1c-0.4,0-0.7,0-0.2,0.4
							c0.7,0.7,0.9,1.3,0.7,2.2c0,0.2,0.2,0.2,0.2,0.4c0-0.2,0-0.2,0.2-0.2c0-1.3,1.1-1.8,1.5-2.6c0.2-0.2,0.4-0.4,0.7-0.4
							c0.7-0.2,1.1-0.7,1.1-1.3c0-0.2,0.2-0.2,0.2-0.4c0.2,0.2,0.4,0.4,0.4,0.7c-0.2,0.4-0.4,1.1-1.1,1.3c-0.4,0.2-0.7,0.9-1.1,1.3
							c-0.7,0.7-1.1,1.5-1.8,2.4c-0.4,0.4-0.2,1.1-0.7,1.3c0,0,0,0.2,0.2,0.2c0.4,0.2,0.9,0.7,1.5,0.9c0.9,0,1.5,0,2.4,0.4
							c0.2,0.2,0.4,0.2,0.4,0.2c0.4,0.2,0.9-0.2,1.1,0.4c-0.4,0.4,0.2,0.7,0.4,0.9c0.2,0.7,0.7,1.1,0.7,1.5c0.4,1.1,1.5,1.5,2.2,2
							c0.2,0.2,0.4,0.2,0.7,0.2c0.4,0,0.7,0.4,0.7,0.7c0,0.2-0.2,0.2-0.2,0.4h-0.2c-0.9-0.9-1.8-1.1-2.6-1.8
							c-0.4-0.2-0.7-0.7-0.9-0.9c-0.2-0.9-1.1-1.1-1.1-2.2c0-0.2-0.4-0.4-0.7-0.4c-1.3,0.2-2.2-0.7-3.5-0.9c-0.2,0-0.4-0.2-0.7-0.2
							c0,0,0,0.2-0.2,0.2h0.2c0.7,0.4,1.3,1.1,2.2,1.5c0.4,0.2,0.7,0.7,0.9,0.9c0.2,0,0.4,0.2,0.4,0.4c0.9,0.9,0.9,2,1.3,3.1
							c0.2,0.7,0,1.3-0.7,2c-0.7,0.7-0.7,1.5,0,2.2c0,0.2,0.2,0.2,0,0.4c0,0.2-0.2,0.4-0.4,0.2c-0.7-0.7-0.9-1.5-0.7-2.4
							c0.2-0.4,0.4-0.9,0.9-1.1c0.2-0.2,0.2-0.4,0.2-0.7c-0.2-0.7,0-2-0.9-2.6c-0.9-0.9-2-1.5-2.9-2.4c-0.2,0-0.2-0.2-0.2-0.2h-0.7
							c0.2,0,0.2,0.2,0.2,0.2c0,0.2-0.2,0.2-0.2,0.4c-0.2,0-0.4,0.2,0,0.2s0.7,0.2,0.7,0.4c0.9,0.7,0.9,1.8,0.9,2.9
							c0.2,0.7,0,1.8-0.9,2.6c-0.2,0.4-0.9,0.9-1.3,1.3c-0.4,0.4-0.9,0.4-1.3,0c-0.4-0.2-0.9-0.4-1.1-0.9c-0.2,0-0.2-0.2-0.2-0.4
							c-0.7-0.7-0.9-1.8-0.9-2.4c0-0.9,0-1.5,0.7-2.2c0,0-0.2-0.2-0.2-0.4v0.2c-0.4,0.2-0.7,0.4-0.9,0.9l-0.7,0.7
							c0,0.4,0.2,1.1-0.2,1.3l0.4,0.4c0.2,0.4,0.2,0.9,0.4,1.3c0.2,0.4,0.2,1.1,0.9,1.3c-0.2,0.4,0.4,0.9,0,1.1
							c-0.2,0.2-0.2,0.7,0,0.9c0,1.3-0.4,2.6-1.1,3.7v0.7c-0.2,0.2-0.4,0.2-0.7,0.2c-0.2,0-0.2-0.2-0.2-0.4s0-0.4,0.2-0.4
							c0.4-0.4,0.7-0.9,0.7-1.3c0-0.4,0-0.9,0.2-1.3c0-0.4,0-0.7,0.2-1.1c0.2-0.2,0-0.9-0.2-1.1c-0.4-1.3-0.9-2.6-1.5-4
							c-0.2-0.4-0.2-0.7,0-1.1c0.4-1.3,1.1-2.4,2.2-3.3c0.2-0.2,0.4-0.4,0.7-0.9c0.2-0.2,0.4-0.4,0.2-0.7c0-0.2-0.4-0.2-0.7,0
							c-0.7,0.2-1.1,0.2-1.8,0c-0.2-0.2-0.4,0-0.7,0c-0.4,0.7-0.9,1.1-1.1,2c0,0.2-0.4,0.4-0.4,0.7c0,0.4-0.7,0.4-0.9,0.9
							c0,0.4-0.4,0.7-0.9,0.9c-0.7,0.7-1.3,1.3-2.2,1.5h-0.2H881c0,0,0-0.2,0.2-0.4l0.2-0.2c1.1-0.2,1.8-1.1,2.6-2s1.3-2.2,2.2-3.3
							c0-0.2,0-0.9,0.2-0.9c0.7-0.2,1.3-0.2,2-0.4h1.3c0.4,0,0.9-0.2,0.9-0.4c0-0.7-0.2-0.7-0.7-0.9c-0.2,0-0.7-0.2-0.7-0.4
							c-0.2-0.7-0.9-1.1-1.1-1.8s-0.7-1.1-1.5-1.5c-0.7-0.4-1.5-0.7-2.4-1.5c-1.1-0.2-2-0.9-3.3-1.1c-0.4,0-0.4-0.2-0.4-0.4
							C880.8,525.8,881,525.8,881.2,526z M916.2,437.8c0.7,0,1.5-0.2,2.2-0.4c0.9-0.2,1.1-0.7,1.5-1.3c0.2-0.4,0.9-0.7,1.3-0.9
							c0,0,0.2,0,0.2-0.2c0.2-0.4,0.2-0.4,0.4,0h0.4c0.2-0.4,0.4,0,0.9,0.2c0.9,0.2,1.8,0.4,2.4,0.4h0.2c0-0.2,0-0.2-0.2-0.2
							c-0.7-1.1-2-1.5-3.1-2c-0.4-0.7-0.9-0.4-1.1,0.2c-1.1,0.9-2,1.5-3.5,1.3c-0.4-0.4-1.1-0.7-1.5-0.7c-0.2,0-0.2-0.2-0.2-0.7h0.2
							c0.4,0.2,1.1,0.4,1.5,0.4c0.7,0.2,1.5,0.2,2-0.4s1.3-1.1,2.2-1.3c0.2-0.2,0.7-0.2,0.9,0l1.8,0.7c0.4,0.7,0.9,0.9,1.1,1.1
							c0.2,1.1,1.1,0.4,1.5,0.9c0.4,0,0.2-0.7,0.7-0.7v-0.2c-0.4-0.7-0.2-1.5-0.2-2.2c0-0.2,0-0.7,0.2-0.9c0.4-0.4,0.4-1.3,0.7-2.2
							c0-0.2,0-0.4,0.2-0.4c0.7-0.4,1.3-1.1,1.3-2.2c0,0,0-0.2,0.4-0.2c0,0,0,0,0.2,0v0.2c0,0.2,0,0.4-0.2,1.1
							c-0.4,0.4-0.7,0.9-1.3,1.3c-0.4,0.9-0.4,1.8-0.4,2.4c-0.2,0.7-0.2,1.5-0.4,2c-0.2,0.4,0,0.4,0,0.4c0.4-0.9,0.9-1.3,1.8-1.3
							c0-0.4,0.7,0,0.9-0.2c0.2,0,0.4,0.2,0.4-0.2c-0.2-0.7,0.2-1.1,0.4-1.3c0.2-0.4,0.7-0.7,1.3-0.4h0.2v-0.2
							c0-0.2-0.2-0.4-0.2-0.9c0-0.7-0.4-1.5-0.9-2.4c0-0.2,0.2-1.3,0.4-1.5c0.4-0.4,0.7-0.9,0.7-2l0.7-1.1c0-0.4,0.4-0.9,0.7-1.5
							c0.2,0,0.2,0,0.2,0.2c0,0.4,0,0.9-0.2,1.1c-0.4,0.7-0.4,1.3-0.9,2.4c-0.2,0.4-0.2,1.1-0.7,1.5v0.9c0.2,0.9,0.4,1.3,0.4,2
							c0.2,0.2,0.2,0.4,0.2,0.9c0,0.7,0,1.1,0.7,1.1c0.4,0,0.4,0.2,0.4,0.4c0,0.2,0,0.4,0,0.7l0.2,0.2c1.5,0,2.4,0.4,3.5,0.7
							c0.7,0.2,1.1,0,1.5-0.2c0.9-0.4,2-0.9,2.9-1.1c0.4-0.2,1.1,0,1.5,0v0.2c0.2,0.2,0.2,0.2,0,0.2c-0.9,0-1.8,0.2-2.9,0.7
							c-0.9,0.2-1.5,0.7-2.2,0.9c-0.2,0.4-0.9,0.4-0.9,0c-0.4-0.2-1.1-0.2-1.5-0.4c-0.2-0.2-0.9-0.2-1.5-0.2
							c-0.4-0.2-0.7-0.2-0.9,0.2c0,0.2,0.2,0.4-0.2,0.4c-0.4,0.4-0.9,1.1-1.8,0.9c-0.2,0-0.2,0-0.4,0.2c-0.2,0.4-0.4,0.9-0.7,1.3
							v0.2c0,0,0.2,0,0.2-0.2c1.3-0.2,2.2-0.9,3.5-0.2c0.2,0,1.1,0,1.5,0h0.4c0.2,0,0.4,0,0.2,0.2c0,0.2,0,0.4-0.4,0.4
							c-0.4-0.2-1.5,0-2.2-0.2c-0.7-0.2-1.1,0-1.5,0.4c-1.1,0.7-2.2,0.7-3.3,0.7c-0.2,0-0.7-0.2-0.9,0c-0.2,0.2-0.4,0.4-0.2,0.7
							c0.2,0.2,0.2,0.2,0.4,0.2c0.4,0.2,1.1,0.4,1.3,0.7l0.7,0.4c0.4,0,0.4,0.4,0.4,0.9c-0.2,1.5,0,3.3,0,4.6c0,0.7,0.4,1.3,0.7,2.4
							c0,0.2,0.7,0.2,0.9,0.4c0.2,0.2,0,0.7-0.2,0.7c-0.4,0-0.7,0.2-0.7,0c0.2-0.7-0.4-0.7-0.7-1.5c0-0.2-0.2-0.9-0.4-1.3
							c0-0.9-0.4-1.5-0.4-2.6c0-0.7,0.2-1.1,0.2-2c0-0.4,0-0.7-0.4-0.7c-0.2-0.4-0.7-0.7-1.3-0.9c-0.2-0.2-0.7-0.4-1.1-0.7v1.5
							c-0.2,1.3-0.4,2.4-0.4,3.7c-0.2,0.2-0.2,0.4-0.2,0.4c-0.2,0.2-0.7,0.4-0.7,0.7c0,0.4-0.2,0.7-0.7,0.9c0,0.7-0.2,0.9-0.4,1.3
							c-0.4,0.9-0.7,1.8-0.9,3.1v0.7c-0.4,0.7-0.9,1.3-0.9,2.4v0.2c0,0.2,0,0.4-0.2,0.4c-0.4,0.2,0-0.4-0.2-0.4
							c-0.9-0.2-0.2-0.9,0-1.3c0.2-0.7,0.4-1.3,0.4-2c0.7-2.6,0.7-2.6,2-5.1c0.9-0.7,1.1-1.8,1.1-3.3c0-0.9,0-1.3,0.2-2.2
							c0.4-0.2-0.2-0.4,0-0.7c-0.2,0-0.4,0.2-0.4,0.2c0,0.4,0,1.1-0.2,1.8c0,0.4,0,0.7-0.4,0.9c0,0.2-0.2,0.4-0.2,0.7
							c0,0.9-0.7,1.1-1.1,1.5c-0.4,0.4-1.1,0.7-1.5,0.9c-0.9,0.2-1.8,0-2.4,0c0,0-0.2,0-0.2-0.2c-0.2-0.2-0.7-0.7-0.9-0.9v-0.2
							c0-1.1-0.2-2.2,0.2-3.1c1.1-1.5,2.2-2.4,4-2.6c0.4-0.2,0.7,0,0.9,0c0.2,0,0.2,0.2,0.4,0c0.2-0.2-0.2-0.7-0.4-0.9h-0.4
							c-0.9-0.4-2-0.4-2.6-0.7c-0.7-0.2-1.1,0-1.3,0.7c-0.7,0.7-1.5,0.9-2.4,1.3c-0.4,0.2-0.9,0.4-1.8,0.7c-0.2,0-0.4,0.2-0.7,0
							c0-0.2-0.2-0.2-0.2-0.4S916,437.8,916.2,437.8z M960.4,625h-23.3V471h23.3V625z M987.1,371.8h3.7c0.4,0.2,0.7,0.2,1.1,0.2h0.9
							c0.4,0.4,1.1,0.4,1.1,0.2c0.4,0,0.4-0.7,0.4-1.1c0.4-0.4,0.4-0.9,0.7-1.1c0.4-0.4,0.4-0.7,0.4-1.3c-0.2-0.4,0.2-0.7,0.7-0.9
							c0.4,0,0.9,0.2,0.9-0.4c0.2-0.2,0.7-0.4,1.1-0.4c0.4-0.4,1.3-0.9,1.5-1.3c0.2,0,0.2-0.2,0.2-0.4c-0.4-0.2-0.7-0.7-0.9-1.1
							c-0.4-0.4-0.9-0.9-0.9-1.5c-0.2-0.7-0.7-1.5-1.1-2.4c-0.4-0.4-0.4-1.1-0.7-1.5c0.2-0.2,0.4-0.4,0.2-0.7
							c0.2,0.2,0.2,0.2,0.4,0.2l0.2,0.2c-0.2,0.7,0.2,1.3,0.4,2c0,0.2,0,0.7,0.4,0.9c0.4,1.1,1.1,2.4,2,3.7c0.2,0,0.2,0.2,0.4,0.7
							l-0.2,0.4c-0.4,0.4-1.1,0.7-1.3,1.1c-0.4,0.2-0.9,0.2-1.1,0.2c-0.2,0.2-0.4,0.2-0.7,0.2c0.4,0,0.4,0.2,0.4,0.2
							c0.9-0.2,1.3,0,2,0.4c0.2,0.7,0.2,1.1,0.2,1.5c-0.2,0.2-0.4,0.4,0.2,0.4c0.9,0,1.5,0.2,2,0.9c0.2,0.2,0.2,0,0.4,0.2
							c-0.2-0.2-0.2-0.2,0-0.2c-0.9-0.9-0.4-2-0.9-3.1c0-0.2,0-0.4,0.2-0.7c0.2-0.7,0.2-1.3-0.2-1.8c-0.2-0.2-0.2-0.2-0.2-0.4h0.7
							c0.2,0.7,0.7,1.1,0.2,1.8c0,0.4,0.2,1.1,0.2,1.8l0.7,2.9c0,0.7,0.7,0.9,0.7,1.5l0.2-0.2c0.4,0,1.1,0,1.8-0.4
							c0.4-0.7,0.9-1.1,2-1.5c0.2,0,0.4-0.2,0.4-0.2c0.4,0,0.4-0.7,0.9-0.4c0.2,0.7,0.7,0.2,1.1,0.2c0.7,0.4,1.1,0.4,1.5,0.7
							c1.1,0.4,2.2-0.2,2.9-0.2l0.7-0.4c0.2-0.2,0.9-0.2,0.9,0c0.2,0.2,0,0.2,0.2,0.4l-0.2,0.2c-1.1,0-2,0.4-3.1,0.7
							c-0.4,0.2-0.9,0-1.1,0c-0.9-0.4-1.5,0.2-2.4-0.7c-0.2,0-0.7,0-0.7,0.2c-0.9,1.1-2,1.3-3.1,2l-0.7,0.4c0,0,0.2,0,0,0.2l0.2-0.2
							c0.7,0,1.8-0.2,2.6-0.4c0.4-0.2,0.9,0,1.1,0c0.2-0.2,0.4-0.2,0.7-0.2c1.3,0,2.2,0.9,3.3,1.1c0.4,0.4,0.9,1.1,0.9,2
							s0.7,1.5,1.8,1.5c0,0,0.2-0.2,0.2,0.2c0.2,0.2,0.2,0.4-0.2,0.4c-0.9,0-1.5-0.4-2.2-1.1c-0.2-0.4-0.2-0.9-0.2-1.5
							c0-0.2-0.2-0.4-0.2-0.4c-0.7-0.4-1.5-1.3-2.6-1.1c-1.1,0-2.4,0.2-3.7,0.4h-0.2l-0.4,0.4c0.2-0.2,0.2,0,0.2,0
							c0.2,0.2,0,0.2,0.2,0.4c-0.2,0.2-0.2,0.4,0.2,0.2c0.2-0.4,0.7-0.4,0.7-0.2c1.1-0.2,2,0.4,2.9,1.3c0.4,0.2,1.1,1.1,1.3,2.4
							c0.2,0.4,0,1.1,0,1.8s-0.2,0.9-0.9,1.1c-0.4,0-0.9,0.2-1.3,0.2c-0.2,0-0.4,0-0.4-0.2c-1.1,0-2-0.4-2.4-0.9
							c-0.7-0.7-1.1-1.1-1.3-2c0,0-0.2,0-0.4-0.2l0.2,0.2c-0.2,0.4-0.2,0.7,0,1.1v1.1c0.4,0.2,1.1,0.4,0.9,0.9c0,0,0.4,0,0.7,0
							l1.3,0.7c0.4,0,0.9,0.4,1.5,0.2c0.2,0.4,0.9,0.2,0.9,0.7c0,0.4,0.2,0.7,0.7,0.7c0.9,0.9,1.5,2.2,2,3.3c0,0.2,0.2,0.2,0.4,0.4
							c0,0.4-0.2,0.4-0.2,0.7c-0.2,0.2-0.4,0-0.4-0.2c-0.2,0-0.4-0.2-0.2-0.4c0-0.7-0.2-1.1-0.7-1.3c-0.2-0.2-0.7-0.7-0.7-1.1
							c-0.4-0.2-0.7-0.4-0.7-0.9c-0.2-0.2-0.7-0.7-1.1-0.4c-1.3-0.7-2.4-1.3-4-1.5c-0.4-0.2-0.7-0.4-0.9-0.9
							c-0.7-1.1-0.9-2.4-0.9-3.7c0-0.4,0-0.7-0.2-1.1c0-0.4,0-0.7-0.2-0.7c-0.2-0.2-0.4,0.2-0.4,0.4c-0.4,0.7-0.7,1.1-1.3,1.3
							c-0.2,0-0.2,0.4-0.4,0.4c0.2,0.9,0.2,1.5,0.9,2.2v0.9c0.4,0.2,0,0.7,0.2,1.1c0.2,0.4,0.2,0.9,0,1.3c0,0.9,0,1.8-0.4,2.6v0.2
							c-0.2,0-0.4,0.2-0.4,0.2s0-0.2-0.2-0.4v-0.2c0.7-1.1,0.4-2.2,0.4-3.3c0-1.3-0.7-2.4-0.9-4c-0.2,0-0.7-0.4-0.7-0.7
							c0.4-0.7,0.9-1.1,1.1-1.8c0.2-0.4,0.7-0.7,0.9-1.1c0.2-0.2,0.4-0.7,0.2-0.9c-0.4-0.4-0.7-0.2-1.1,0c0,0-0.7,0.2-0.7,0
							c-0.7-0.2-1.5,0-2.2-0.2c-0.4-0.4-1.1-0.2-2,0s-1.5,0.7-2.9,0.9c-0.9,0.7-2,0.9-3.1,1.5c-0.2,0.4-0.4,0.2-0.7,0
							c0-0.2,0.2-0.4,0.4-0.4c0.7-0.7,1.3-0.9,2.2-1.3s1.3-0.9,2.4-1.1c0.4,0.2,1.3-0.2,2-0.4h1.5c0.7-0.4,1.1-0.2,1.5,0.2
							c0,0,0,0,0.2,0V374c-0.9-0.9-1.1-1.3-1.1-2.4l-0.4,0.2c-0.7,0.4-1.8,0.2-2.4-0.9v-0.4c0,0-0.2,0-0.4-0.2
							c-0.2,0.2-0.2,0.4,0,0.4c-0.4,0.7-0.9,1.1-0.9,1.8c0,0.2,0,0.4-0.4,0.4c-0.7-0.2-1.3-0.2-2.2-0.2c-1.1,0-2.2-0.2-3.3-0.2
							c-0.2,0-0.7,0.2-1.3,0.2c0,0-0.2-0.2-0.2,0c-0.2-0.2-0.4-0.2-0.4-0.2l0.2-0.2C986.8,372.2,987.1,372,987.1,371.8z
							 M1002.7,589.6c0.4,0.2,1.3,0.4,2.2,0.4c0.9,0.2,1.1-0.2,1.8-0.7c0.4-0.2,1.1-0.2,1.8-0.2l0.2-0.2c0.4-0.2,0.4-0.2,0.4,0.2
							l0.2,0.2c0.4-0.2,0.4,0.2,0.9,0.7c0.7,0.4,1.3,1.1,2,1.3h0.2c0-0.2,0-0.2-0.2-0.2c0-1.3-1.1-2.2-2-3.1c0-0.9-0.7-0.7-1.1-0.2
							c-1.3,0.4-2.4,0.7-3.7-0.2c-0.2-0.7-0.7-1.1-1.1-1.1c-0.2-0.2-0.2-0.4,0-0.9l0.2,0.2c0.4,0.4,0.9,0.9,1.3,0.9
							c0.4,0.7,1.3,0.9,2,0.4c0.7-0.4,1.5-0.4,2.4-0.2c0.4-0.2,0.7,0,0.9,0.2l1.3,1.3c0.2,0.9,0.4,1.1,0.7,1.5
							c-0.2,1.1,0.9,0.9,1.1,1.3c0.2,0.2,0.4-0.4,0.9-0.2v-0.2c-0.2-0.9,0.4-1.5,0.7-2.2c0-0.2,0.2-0.7,0.7-0.7
							c0.4-0.2,0.9-1.1,1.3-1.8c0.2-0.2,0.2-0.4,0.4-0.4c0.7,0,1.5-0.4,2-1.3c0,0,0.2-0.2,0.7,0c0,0,0,0,0.2,0l-0.2,0.2
							c0,0.2-0.2,0.4-0.7,0.9c-0.4,0.2-0.9,0.7-1.8,0.7c-0.7,0.7-1.1,1.5-1.3,2c-0.4,0.7-0.9,1.5-1.1,1.8c-0.4,0.2-0.2,0.4-0.2,0.4
							c0.7-0.7,1.3-0.9,2.2-0.7c0-0.2,0.4,0.4,0.9,0.2c0.2,0.2,0.2,0.4,0.4,0c0-0.7,0.7-0.9,0.9-1.1c0.4-0.2,0.9-0.2,1.5,0.2
							l0.2-0.2c0-0.2,0-0.4,0.2-0.9c0.2-0.4,0-1.5,0-2.4c0.2-0.2,0.9-1.3,1.1-1.3c0.4-0.2,0.9-0.7,1.3-1.5c0.4-0.4,0.7-0.4,1.1-0.9
							c0.2-0.2,0.7-0.4,1.1-1.1c0.2,0.2,0.2,0.2,0.2,0.4l-0.7,0.9c-0.7,0.4-0.9,0.9-1.8,1.8c-0.4,0.4-0.7,0.9-1.3,1.1l-0.2,0.9
							c-0.2,0.9-0.2,1.3-0.4,2c0.2,0.4,0,0.4-0.2,0.9c-0.2,0.7-0.4,1.1,0.2,1.3c0.4,0.2,0.4,0.4,0.2,0.7c0,0.2-0.2,0.4-0.2,0.4
							l0.2,0.4c1.3,0.7,2,1.3,2.9,2c0.4,0.4,1.1,0.4,1.5,0.4c0.9-0.2,2.2,0,3.1,0c0.4,0,0.9,0.4,1.3,0.7v0.2c0,0.2,0,0.2-0.2,0.2
							c-0.7-0.4-1.5-0.4-2.9-0.4c-0.9-0.2-1.5-0.2-2.2-0.2c-0.4,0.4-1.1,0-0.9-0.2l-1.3-1.1c0-0.2-0.7-0.4-1.3-0.9
							c-0.2-0.2-0.4-0.4-0.9,0c0,0.2,0,0.4-0.4,0.2c-0.4,0.2-1.1,0.7-1.8,0.2c-0.2-0.2-0.2-0.2-0.7,0c-0.2,0.2-0.7,0.7-1.1,0.9v0.2
							c0,0,0.2,0,0.2-0.2c1.3,0.4,2.4,0.2,3.3,1.3c0.2,0,1.1,0.4,1.5,0.7h0.2c0.2,0.2,0.4,0.2,0.2,0.4c0,0.2-0.2,0.4-0.7,0.2
							c-0.2-0.4-1.3-0.7-1.8-1.1c-0.7-0.4-1.1-0.4-1.8-0.2c-1.1,0.2-2.2-0.2-3.3-0.7c-0.2-0.2-0.4-0.4-0.7-0.4
							c-0.4,0.2-0.7,0.2-0.4,0.4c0,0.4,0,0.4,0.2,0.4c0.2,0.4,0.9,0.9,0.9,1.1c0.2,0.4,0.4,0.4,0.4,0.7c0.4,0.2,0.2,0.7,0.2,1.1
							c-0.9,1.3-1.3,3.1-2,4.2c-0.2,0.7,0,1.3-0.2,2.4c-0.2,0.2,0.4,0.4,0.4,0.9c0.2,0.2-0.2,0.7-0.4,0.4c-0.4-0.2-0.7,0-0.4-0.2
							c0.4-0.4-0.2-0.9,0-1.8v-1.3c0.4-0.9,0.2-1.5,0.7-2.6c0.2-0.4,0.7-0.9,1.1-1.8c0-0.2,0.2-0.4-0.2-0.7c0-0.4-0.4-0.9-0.9-1.3
							c-0.2-0.4-0.4-0.7-0.7-1.1l-0.7,1.3c-0.7,1.3-1.3,2.2-2,3.3c-0.2,0.2-0.2,0.4-0.2,0.4c-0.4,0-0.9,0-0.9,0.2
							c-0.2,0.4-0.7,0.7-1.1,0.7c-0.2,0.7-0.4,0.7-0.9,0.9c-0.7,0.7-1.3,1.5-2,2.6c-0.2,0.2-0.2,0.4-0.2,0.4c-0.7,0.4-1.3,0.9-1.8,2
							l-0.2,0.2c0,0.2-0.2,0.4-0.4,0.2c-0.4,0,0.2-0.4,0-0.4c-0.7-0.4,0.2-0.9,0.7-1.1c0.4-0.7,0.9-1.1,1.1-1.8
							c1.8-2.2,1.8-2.2,4-3.7c0.9-0.4,1.5-1.3,2.2-2.6c0.4-0.9,0.4-1.3,1.1-2c0.4,0,0-0.4,0.2-0.7h-0.4c-0.2,0.4-0.4,1.1-0.9,1.5
							c-0.2,0.4-0.2,0.7-0.9,0.7c0,0.2-0.2,0.4-0.4,0.7c-0.2,0.7-0.9,0.7-1.5,0.9s-1.3,0.2-1.8,0.2c-0.9-0.2-1.5-0.7-2.2-0.9
							c0,0-0.2-0.2-0.2-0.4c0-0.2-0.2-0.9-0.4-1.1l0.2-0.2c0.4-1.1,0.7-2.2,1.3-2.6c1.5-1.1,3.1-1.5,4.6-0.9c0.7,0,0.7,0.2,0.9,0.2
							c0.2,0.2,0.2,0.4,0.4,0.2c0.2,0,0-0.7,0-0.9c0,0-0.2-0.2-0.4-0.2c-0.7-0.9-1.8-1.3-2.2-1.8c-0.4-0.4-1.1-0.4-1.5,0.2
							c-0.9,0.2-1.8,0.2-2.6,0.2c-0.4,0-1.1,0-2-0.2c-0.2,0-0.4,0.2-0.4-0.2c0-0.2-0.2-0.2-0.2-0.4
							C1002.2,589.4,1002.5,589.4,1002.7,589.6z M1021.6,511.5c1.1,0.2,2.4,0.4,3.5,0.9c0.2,0.2,0.7,0.4,0.9,0.4
							c0.4,0.2,0.9,0.2,1.1,0.4c0.2,0.2,0.9,0.4,1.1,0.2c0.2,0.2,0.4-0.4,0.7-0.9c0.2-0.2,0.7-0.7,0.7-0.9c0.7-0.2,0.7-0.7,0.9-1.1
							c0-0.7,0.4-0.7,0.9-0.7c0.2,0,0.7,0.2,0.9-0.2c0.4-0.2,0.9-0.4,1.1-0.2c0.7-0.2,1.5-0.7,2-0.9c0.2,0,0.2-0.2,0.2-0.4
							c-0.2-0.2-0.2-0.7-0.4-1.1c-0.4-0.7-0.7-1.3-0.4-1.8l-0.7-2.6c-0.2-0.7,0-1.3,0-1.8l0.4-0.4c0,0,0,0,0.2,0.2v0.2
							c-0.2,0.7,0,1.3,0,2.2c0,0.2,0,0.4,0.2,0.9c0.2,1.1,0.4,2.4,1.1,4c0,0.2,0.2,0.4,0,0.7c0,0,0.2,0.2-0.2,0.4
							c-0.4,0.4-1.1,0.7-1.5,0.9c-0.4,0-0.9,0-1.1,0h-0.7c0.2,0.2,0.4,0.2,0.4,0.2c0.7,0,1.1,0.4,1.8,1.1c0,0.4,0,0.9-0.2,1.3
							c-0.4,0.2-0.7,0.4,0,0.7c0.9,0,1.5,0.4,1.8,1.3c0.2,0.2,0.4,0.2,0.4,0.2v-0.2c-0.7-1.1,0-2,0-3.1c0-0.2,0-0.7,0.2-0.7
							c0.4-0.7,0.7-1.1,0.2-1.8v-0.4c0.2,0,0.7,0.2,0.7,0.2c0,0.7,0.2,1.3-0.2,1.8c-0.2,0.4,0,1.1-0.2,1.8c-0.2,0.9,0,1.8,0,2.9
							c-0.2,0.7,0.2,1.1,0,1.5c0,0,0.2,0.2,0.4,0c0.4,0,1.1,0.2,1.8,0c0.7-0.4,1.3-0.9,2.2-0.9c0.2,0,0.4-0.2,0.4-0.2
							c0.4,0,0.7-0.7,1.3-0.2c-0.2,0.7,0.4,0.4,0.7,0.7c0.7,0.4,1.3,0.4,1.5,0.9c0.9,0.7,2,0.4,2.9,0.4c0.2,0,0.4,0,0.7-0.2
							c0.4-0.2,0.9,0,0.9,0.2c0.2,0.2,0,0.4,0,0.4v0.2c-1.3-0.2-2.2,0-3.3,0c-0.4,0-0.9-0.2-1.1-0.2c-0.7-0.7-1.5-0.4-2.2-1.3
							c-0.2-0.2-0.7-0.2-0.9,0c-0.9,0.9-2.2,0.7-3.3,1.1c-0.2,0.2-0.4,0-0.7,0.2c0,0,0,0.2-0.2,0.2h0.2c0.9,0,1.8,0.2,2.6,0
							c0.7,0,1.1,0.2,1.3,0.2c0.2,0,0.4,0,0.7,0.2c1.1,0.2,1.8,1.1,2.6,1.8c0.7,0.4,0.9,1.3,0.7,2.2c-0.2,0.9,0.2,1.5,1.1,1.8
							c0.2,0.2,0.4,0,0.2,0.4c0.2,0.2,0.2,0.4-0.2,0.4c-0.9-0.2-1.5-0.9-1.8-1.8c-0.2-0.4-0.2-0.9,0-1.3c0.2-0.4,0-0.7,0-0.7
							c-0.7-0.4-1.1-1.8-2.2-1.8c-1.3-0.2-2.6-0.2-3.7-0.4c-0.2,0-0.4-0.2-0.4-0.2c0,0.2-0.2,0.2-0.4,0.4c0.2-0.2,0.2,0,0.2,0
							c0.2,0.2,0,0.4,0.2,0.4c-0.2,0.2-0.4,0.4,0,0.2c0.4-0.2,0.7-0.2,0.9,0c1.1,0.2,1.5,1.1,2.2,2c0.7,0.4,0.9,1.5,0.7,2.6
							c0,0.4-0.2,1.3-0.4,2c0,0.4-0.4,0.7-1.1,0.7c-0.4,0-0.9,0-1.3-0.2c-0.2,0.2-0.2,0-0.4-0.2c-0.9-0.2-1.8-0.9-2-1.5
							c-0.4-0.7-0.9-1.3-0.7-2.2c0,0-0.4,0-0.4-0.2v0.2c-0.2,0.4-0.2,0.7-0.2,1.1c0,0.4,0,0.7-0.2,0.9c0.4,0.4,0.9,0.9,0.7,1.3
							c0,0,0.2,0,0.7,0.2l1.1,0.7c0.2,0.4,0.7,0.9,1.3,0.7c0,0.7,0.9,0.7,0.7,1.1c0,0.2,0.2,0.7,0.4,0.7c0.7,1.1,1.1,2.4,1.1,3.7
							c0.2,0.2,0.2,0.4,0.4,0.4l-0.4,0.7c-0.2,0-0.4,0-0.4-0.2c-0.2-0.2-0.2-0.4,0-0.4c0-0.7,0-1.1-0.2-1.5l-0.7-1.3
							c-0.2-0.2-0.2-0.4-0.2-0.9c0-0.4-0.7-0.9-0.9-0.9c-1.1-0.9-2.2-1.8-3.5-2.4c-0.4-0.4-0.4-0.4-0.4-1.1c-0.4-1.3-0.4-2.6,0-4
							v-1.1c0-0.2,0.2-0.4-0.2-0.7c0-0.2-0.4,0.2-0.4,0.4c-0.4,0.4-0.9,0.7-1.5,0.9c-0.2,0-0.4,0.2-0.4,0.4c0,0.7-0.2,1.3,0,2.2
							c0.2,0.2,0,0.7,0,0.9c0.2,0.2-0.2,0.7-0.2,1.1c0.2,0.4,0,0.9-0.2,1.3c-0.2,0.9-0.4,1.8-1.1,2.4l-0.2,0.2l-0.2,0.2
							c0,0-0.2-0.2,0-0.4v-0.4c0.9-0.7,0.9-1.8,1.1-3.1c0.2-1.1,0-2.6,0-4c0-0.2-0.4-0.7-0.2-0.9l1.3-1.3c0.4-0.2,0.9-0.7,1.1-0.9
							c0.4-0.2,0.7-0.7,0.7-0.9c-0.4-0.4-0.7-0.2-1.1-0.2c-0.2,0-0.7,0.2-0.9,0c-0.4-0.4-1.3-0.4-1.8-0.9c-0.7-0.4-1.1-0.7-2.2-0.4
							c-0.7,0-1.5,0.2-2.9,0c-1.1,0.4-2.2,0.2-3.3,0.9c-0.4,0.2-0.4,0-0.7-0.2c0-0.2,0.2-0.4,0.7-0.4c0.7-0.4,1.3-0.7,2.2-0.7
							c1.1,0,1.5-0.4,2.6-0.4c0.4,0.2,1.3,0,2.2,0c0.7,0.2,1.1,0.4,1.5,0.4c0.7-0.2,1.1,0,1.3,0.4c0,0,0,0,0.2,0.2v-0.2
							c-0.4-0.9-0.7-1.5-0.4-2.6l-0.7,0.2c-0.7,0.2-1.5-0.4-1.8-1.5c0,0-0.2,0-0.2-0.4c0,0,0-0.2-0.2-0.2c-0.2,0-0.2,0.2-0.2,0.4
							c-0.4,0.4-0.9,0.9-1.1,1.3c-0.2,0.2-0.2,0.4-0.7,0.2c-0.4-0.2-1.1-0.4-2-0.7c-1.1-0.2-2-0.7-3.1-1.1h-1.3c0,0-0.2-0.2-0.4-0.2
							l-0.2-0.2l0.2-0.2C1021.2,511.7,1021.4,511.7,1021.6,511.5z M1046,435.6h0.9c0.7,0,1.1,0,1.8,0h0.2c1.8-0.9,3.5-1.8,5.1-2.9
							l1.1-0.4c0.2,0,0.2-0.2,0.2-0.2c0.4-0.2,0.9-0.4,1.5-0.4h0.2c0,0,0.2-0.2,0.4-0.2c0.2,0,0.4,0.2,0.7,0.4l2,2.2
							c0,0.2,0.2,0.4,0.4,0.4c0.4,0,0.9,0.2,1.3,0.4v0.2c0.2-0.2,0.2-0.2,0.2-0.2v-0.2c0-0.4,0-0.9-0.2-1.1v-1.5c0-0.2,0-0.4,0-0.4
							l-0.2-0.9c-0.2,0-0.4,0-0.9,0.2c-0.2,0.2-0.7,0.4-1.1,0.4c0,0-0.2,0-0.2-0.2c-0.4,0-0.9-0.2-1.3-0.7c-0.4-0.4-0.7-1.1-0.9-2
							v-0.2l0.2-0.4l0.2,0.2c0,0.2,0,0.2,0,0.2c0.2,0.9,0.4,1.5,0.9,2c0.2,0.2,0.2,0.2,0.4,0.2h0.7c0,0,0.2,0.2,0.4,0
							c0,0,0.2,0,0.2-0.2c0.2-0.2,0.2-0.2,0.4-0.2c0.2-0.2,0.7-0.2,1.1-0.2c0.2,0.2,0.7,0.7,0.7,0.9c0,0.9,0.2,1.8,0.2,2.4
							c0.2,0.4,0.2,0.9,0.2,1.3h0.2c0,0,0-0.2,0.2-0.2c0,0,0.2-0.2,0.4-0.2c0.2,0,0.4-0.2,0.2-0.4v-0.2l0.2-0.7l0.7-2.2
							c0.2-0.4,0.4-0.7,0.7-0.9c0.2,0,0.4,0.2,0.7,0.7h0.2c0,0.2,0.2,0.4,0.4,0.7l0.2,0.2h0.2V431c-0.2-0.7,0-1.1,0.2-1.8
							c0.2-0.4,0.4-0.7,0.9-0.7c0.4,0,1.1-0.2,1.8-0.2c0.2,0,0.2,0,0.4-0.2v-0.2v-2.2c0-0.7,0-1.1,0-1.8c0.2-0.4,0.2-0.9,0.4-1.3
							c0.9-1.8,1.5-3.3,1.8-5.1v-0.4c0-0.2,0-0.4,0-0.7c0-0.2,0.2-0.4,0.4-0.4h0.2c0.2,0.2,0.2,0.2,0.2,0.4c0,1.3-0.2,2.4-0.7,3.3
							c0,0.2,0,0.4-0.2,0.4c-0.2,1.1-0.7,2-1.1,3.1h-0.2c0.4,0.2,0.2,0.7,0,0.9c-0.2,0.4-0.2,0.9-0.2,1.3c0.2,0.7,0,1.3,0,2
							c-0.2,0.2-0.2,0.4-0.2,0.4v0.2c0,0.2,0,0.4,0.2,0.4c0,0,0.2,0,0.2,0.2c0.2,0.4,0.4,0.2,0.9,0c1.3-0.4,2.4-0.4,3.5-0.4
							c0.4,0,0.9-0.2,1.3-0.4c0.2,0,0.2-0.2,0.4-0.2c0.2,0,0.4-0.2,0.7-0.2c0.2-0.2,0.4-0.4,0.7-0.4c0,0,0.2,0,0.4-0.2l2.2-0.7
							c0.2,0,0.4,0,0.9,0c0.2-0.2,0.4-0.2,0.9-0.2h0.2c0.2,0,0.4,0.2,0.4,0.2c0,0.2-0.2,0.4-0.2,0.4c-0.4,0.2-0.7,0.2-1.1,0.2
							c-0.4,0.2-0.9,0.2-1.3,0.2c-0.4,0.2-0.7,0.2-1.1,0.2c-0.4,0-0.7,0.2-1.1,0.4c-0.4,0.4-0.9,0.4-1.3,0.7
							c-0.2,0.2-0.4,0.2-0.7,0.2c-0.7,0.4-1.5,0.4-2.4,0.4h-0.9c-0.7,0-1.1,0.2-1.5,0.4l-0.2,0.2c0.4,0.7,0.2,1.3,0.2,1.8
							c-0.4,0.7-0.9,1.1-1.5,1.3c-0.7,0.4-1.1,0.2-1.5-0.2h-0.2v0.2c0,0.4-0.2,0.9-0.7,1.3c-0.2,0.2-0.2,0.4,0,0.7h0.2
							c0.2-0.2,0.2-0.2,0.4-0.2l0.7-0.7c0.4-0.4,0.9-0.4,1.3-0.2c0,0.2,0.2,0.2,0.2,0.2l0.9,0.7c0.2,0.2,0.2,0.2,0.7,0.2h0.4
							c0.2,0,0.2,0,0.2,0l0.9,0.2l-1.5,0.2h-0.2h-0.2c-0.4,0.2-0.9,0-1.1-0.2c0,0-0.2,0-0.2-0.2c-0.4-0.2-0.4-0.2-1.1,0.2v0.2
							c0,0,0,0.2,0.2,0.2h0.4c0,0,0,0,0.2,0c0.2,0,0.2,0,0.2,0h0.2l-0.2,0.2c0,0,0,0.2-0.2,0.2c-0.4,0.2-0.9,0.2-1.1,0
							c-0.2-0.2-0.2-0.2-0.4,0c-0.4,0.4-0.9,0.7-1.5,0.9c-0.7,0.2-1.3,0.2-2-0.4c0,0,0-0.2-0.2-0.2v-0.2h-0.2
							c-0.2,0.4-0.4,0.7-0.4,1.1c0,0.4,0,0.4,0,0.4v0.2c0.2,0,0.4,0,0.4,0c0.4,0.2,0.7,0.4,0.7,0.9c0,0.4-0.2,0.9-0.2,1.1
							c0,0.9,0,1.8-0.2,2.6c0,0.2,0,0.4-0.2,0.7v0.7c0,0.2,0,0.4,0,0.7c-0.2,1.1-0.4,2.2-0.2,3.3c0,0.4,0,0.4,0,0.4l-0.4,0.2v-0.2
							c-0.2-1.3-0.2-2.2,0-3.3v-0.2v-0.2c0-1.8,0.2-3.3,0.4-4.8c0.2,0,0-0.2,0-0.2h-0.2c0,0-0.2-0.2-0.4-0.2
							c-0.2-0.2-0.4-0.2-0.4-0.4c0-0.2,0-0.4-0.2-0.7c0,0-0.2-0.2-0.2-0.4c0,0,0,0,0,0.2c-0.2,0-0.2,0.2-0.2,0.2l-0.7,0.7
							c-0.2,0.2-0.2,0.2-0.4,0.4c-0.2,0-0.4,0-0.4-0.2c-0.2,0-0.2-0.2-0.2-0.4c0-0.2,0-0.2,0.2-0.4v-0.2c0,0-0.2,0.2-0.4,0.2
							c-0.4,0.7-1.1,1.3-1.3,2.2l-0.4,0.7c-0.4,0.2-0.7,0.7-0.9,0.9c-1.1,1.1-2,2.2-3.1,3.1c-0.4,0.7-1.1,1.1-1.5,1.5l-0.7,0.7
							c-0.2,0-0.2,0-0.4,0.2h-0.2v-0.2h-0.2c0,0,0-0.2,0.2-0.2l0.2-0.2c0.2-0.2,0.4-0.4,0.7-0.7l2-1.5c0.2-0.2,0.2-0.4,0.4-0.7
							l0.2-0.2c0.4-0.7,1.1-1.3,1.5-2v-0.2h-0.4c-0.9,0-1.5-0.2-2.4-0.2c-0.2-0.2-0.4-0.2-0.7-0.2c0-0.2-0.2-0.2-0.4-0.2
							c-0.4-0.2-0.4-0.4-0.4-0.9c0.2-0.9,0.2-1.8,0.7-2.4c0.2-0.7,0.4-1.1,1.1-1.3c0.9-0.7,2-1.3,3.3-1.5l-0.4-0.7
							c-0.2-0.7-0.7-1.1-1.1-1.3h-0.4c-0.2,0.2-0.7,0.2-0.9,0.4l-2.6,1.3c-1.1,0.2-2,0.9-3.1,1.3l-0.7,0.4c-0.2,0-0.4,0-0.7,0.2
							h-2.6h-0.2h-0.2c0,0-0.2,0-0.2-0.2l0.2-0.2C1045.8,435.6,1045.8,435.6,1046,435.6z M1068,434.9l-0.7,0.7
							c0.2,0,0.4-0.2,0.9-0.4C1068,435.2,1068,434.9,1068,434.9z"/>
					</g>
				</g>
			</g>
			<g>
				<g>
					<g class="st0">
						<path class="st1" d="M937.1,625.5l2-1.3l0.7-0.7l-0.4-1.8l3.1-0.4l0.4,2.2l-0.9,0.2l-0.7-2.2l0.7-0.2l1.3-0.7l1.3-1.3l0.7-1.1
							l0.4-0.7l0.7-2.2l0.4,0.2v-0.4l2.2-0.7l0.4-2.6l1.8,1.3l-0.9,1.1l-0.9-0.7l4.6-5.3v1.3l-0.2,0.2l0.7-3.1l1.1-0.7h0.9l2-0.9
							l0.9,1.8l-3.1,1.8l1.5-5.5h5.1l-2.4,2.6l-1.8-1.5l1.8-2l0.7-2l1.3,0.7l0.2-0.2v-0.2l1.3-1.5v-0.2l4.2-3.1v0.7l-0.7,0.4
							l0.2-0.2v-1.3l1.1-0.7l0.2-0.9l2.2-0.2l-0.4-0.7l0.9-0.4l0.2-0.2V592l0.7-2l2.2,0.9l-0.2,0.7l-2-1.1l2.2-3.7l0.2,0.7l0.2-0.2
							l0.7-0.7l1.5-0.4l0.7-0.9l0.2-0.2v-1.1h0.9l1.5-1.1l2.2-3.5l0.2,0.9l-0.4,0.7l0.9-4l1.1,2l-0.2,0.2l-1.1-2.6l4,0.4l0.4,2.2
							l-0.7,0.2l-1.3-1.8l0.9-1.3v-1.8l2.4,0.4v-0.7l0.9-1.3l1.3,1.3l-0.4,0.2l-0.4-2h-0.4l0.2,0.7l2-3.1l2,0.7l-1.3,1.8l-0.9-1.3
							l4.2-5.3v2.4h-0.4l0.7-0.7l-0.7-2.4l2,0.7v-0.7l1.3-1.5l1.3,1.8l-0.9,0.4l-1.3-1.5l1.3-2l0.7,0.2l3.1-2.6v3.1h-2.2v-1.8l4-2.6
							l0.7,2.6h-2.2l0.4-1.8l0.2-1.3l2.2,0.2v-1.5l0.7-0.4l1.8,1.3l-0.4,1.1l-2.2-0.4l-0.4-3.3h2.4l1.5-2.2l2,0.2l-0.2,2.2h-0.9
							l-1.3-2l2.6-2l0.7,2h-0.2l-0.4-2.2l0.9-0.2l0.7-2.4h2.2l-0.4,2l-0.9-0.4l0.4-2h0.7l0.2-0.2l1.1-0.4l0.9-1.1l-1.3-2.2h2.2
							l1.8-1.3l0.4,0.2l0.4-1.5l1.5-0.4l-0.7,0.2l-0.2-0.2l1.3-1.5l-0.2-0.2l2-1.1h-0.2l0.9-0.9h0.4V537l1.3-2l1.8-0.2l0.7-0.7
							l-0.2,1.8l1.3-0.9l-1.5-1.5l1.1-1.3h1.1v-0.7l2-0.4l-0.7-1.5l-0.2,0.7l0.4-1.3l1.1-0.4l0.7,0.4l1.5-1.5l-0.4-0.4l-0.2,1.1
							l1.8-2.6l1.8-1.8l0.2,0.4l-1.1,1.5h2.4h0.2l-1.3-2l2-0.9l0.2-0.2l-0.9-2.9l2.9,0.4l0.2-0.2l0.7-0.2l0.2-0.4l0.7-0.2l-0.4-1.5
							l1.1-0.4l1.5-1.5l0.7,0.2l0.7-0.4v-0.4l1.5-2.9l0.4,0.4l0.2-0.2l1.1-1.5v-0.2l0.7-0.9l2-0.4l-0.7-1.5l0.4-0.7l3.3-0.4v-1.5
							l-0.7,0.9l0.4-0.9h1.3l-0.7,0.2l-0.4-1.1l2.9-0.9l0.2-0.2l-0.2-0.7l2.2-0.2v0.7l-2-0.7l1.5-2.2l1.8,1.3l-0.4,0.7l-1.8-1.3
							l1.5-1.8h0.4l1.5-2.2l2,1.5l-1.8,1.3l-1.5-4.6l2.4,1.3l0.7-0.2l-0.2-1.1l1.8-0.7l1.1-0.9l1.5,1.8l-0.7,0.7l-1.5-1.8l1.8-1.5
							l0.4-0.7v1.5l-2.4,1.8v-4l2,0.7l-0.9,1.5l-2,0.2l-4.6,1.3l2-2.6l0.2,0.2l-0.9,0.2l-2,1.1l-2.6-1.5l1.5-1.8l1.5,1.8l-2.2,1.5
							l-3.7-0.9l2-2.4l1.3,1.8l-0.9,0.2l-1.3,1.3l-2.4,0.2l-2-1.3l-0.2-0.2h0.2l1.3-1.1h-2.9l-0.7,2h-0.2l-2,0.9l-0.4-1.5l-0.7-0.2
							l-1.3,0.7l-1.5,0.2l-1.8-0.9l-0.7,0.4l-0.7,0.2l-0.4-2h0.4l0.2,2.2l-4.6,1.1l1.3-3.7l2,1.3l-1.3,1.1h-2.4l0.9,1.1l-4.6-0.4
							l-0.9-0.4l-1.1-0.7l1.5-1.3l0.2,0.4l-1.8,1.3l-0.4-0.7l-1.5-0.2l-2,1.5l-0.9-1.1l-1.8,0.7l0.4-0.2l-0.4-0.7l-2,0.9l-0.2-0.7
							l-2-0.4l0.9-2l0.9,0.7l-0.9,2h0.2v-0.2l-2.2-0.2l-0.4-4.6l1.1,0.9v0.9l1.3-1.8v-2l0.9,0.7l0.4,1.1l0.7-1.3l1.3-0.7l-0.4-1.5
							l2.6-0.9l0.2,2.2h-0.4l-0.4-2.2l1.5-0.4l0.4-1.3l2,1.1l0.7-1.1h-2.2l1.3-1.1l0.2-0.9h0.2l0.7-2h1.3l0.9-1.1l1.8,1.5l-0.7,0.7
							l-2-1.1l0.4-3.1l1.1,0.7l1.1-1.5l2-0.2l-0.4-0.2l0.2-1.1l2.2,0.2v1.1l-2.2-0.4l0.9-2l1.8-0.4l0.9-0.2l-0.2-1.3h3.1l1.3-1.3
							l0.7,1.5l1.1,0.2l2.2,0.2v-0.7l0.4,0.2l0.2-1.1l3.3,0.7l0.7,0.9l0.4-0.2l2.2-0.9h0.9l2,0.2l0.2,0.2l1.3-0.4h0.4l1.1,0.2
							l1.1-0.2h0.4l0.4-1.8l2.2,2.9l-0.4-0.2l0.7-0.7l1.3,0.7l2.9-1.8v0.2l-0.7,0.7l1.3,0.7l-0.2-2.2l2.6,1.5l2.4-0.9l2,3.1
							l-1.5,0.7l-1.3-1.5l1.5-2.2l4,2l-1.3,1.5l-1.3-1.8l1.1-0.7l1.8-1.3l1.1,1.5l3.3-0.9l-0.2,1.1h-2.6l-0.4-0.4l5.5,0.4l0.9,0.2
							l-1.3,2l-0.9-1.1l2.2-2.6l0.9,1.3l0.7-0.7l1.1,0.4v0.2h2l1.8-1.1l0.4,0.2l0.4-0.2l3.1,0.4v0.2l0.9-0.7l1.1,2.4l-2.2,0.2
							l0.4-3.1l2.2,1.5l0.4,0.2v0.4l2-0.9l0.2,0.2l1.5-0.7l1.3,1.3l0.7-0.9h-0.7l0.7-0.4h0.7l1.3-0.7l1.3,1.3h-0.4v-0.2l4.2-1.1
							l0.9,2l-1.8-0.4l-0.2-0.2l4-1.1l0.2,0.7l1.3-0.2l1.1,0.7l-1.3,1.8l-0.2-0.2l1.5-1.8l0.7,0.4l1.5-1.3l1.1,1.5l3.3-2l0.2,2h0.2
							l1.3-0.7l1.1,2l-0.9,0.7l-1.3-1.8l2.6-2.2l2.4,2.2l-1.8,1.5l-0.9-1.3l1.5-1.5l0.9,0.7l0.4-1.1l2.6,0.7v0.2h3.3l0.2-0.2
							l0.9-0.9l2,0.9l1.1,0.7h-0.7l-0.7-1.5l3.7,0.4l2,1.3h-0.2h0.4l1.8-1.8l2.2,2h-0.7l1.3-2.2l1.1,0.7l2.4-0.4l-0.9,3.3l-1.8-1.1
							l1.1-0.9l0.9-1.3l1.1,0.4l0.2,1.1l2-0.9l0.2,0.4l3.3-0.9l-0.7,2.9l-2-0.9l1.1-1.3l3.3,0.4l-1.1,2l-0.2-0.2l1.5-1.8l0.7,0.7
							h-0.2v-2l4,0.4l0.4,1.1l1.1-0.4l0.4,0.7h-0.2l0.2-0.2l2.6-0.4l3.1,2.2l-1.3,0.7l-0.2-0.4l-1.1,2l-2.2-0.4h0.9v-0.2h-0.9v2.2
							h-1.5l-0.7,1.1l-1.3-1.3l0.4-0.2l0.7,2l-1.5,0.4v-2.2l2.9,0.7l-5.1,5.1V477h2.2v5.1l-1.5-1.5l-0.7,0.7l-1.8-1.1l0.2-0.4
							l1.8,1.1l-1.3,2l-1.8,1.3l-2-1.8l2-1.3l0.4,2l-1.3,0.2l0.9,1.3l-2.2,1.3l-2.2,0.2v-2.2l2.6,0.4l-1.5,4l-2,0.4l-0.2,0.4
							l-1.3,1.1l-1.8,0.4l0.4,0.4l-1.5-0.2v1.3v-0.2l-1.8,1.1l-0.7,0.4l-1.5-1.8l0.7-0.7l1.3,2l-2,0.4l-1.3-0.7l-2.2-0.4v-0.2h1.1
							l-0.7,1.1l-3.5,0.4l-0.4-0.2l-0.7,1.1l-0.7-0.9l-0.9,1.8l-0.9-2.4l-0.7,0.2l-1.1-0.4l-0.9,0.7l-3.3,1.5l0.7-1.5l-1.3-0.2h-2.6
							l0.2-0.4h-0.9l-0.2-0.2h-0.4l-2,2l-0.2-1.1l-2,0.9v-0.4l0.4-0.4l-2-0.2l-1.3,1.5l-0.7-1.3l-0.4,0.9l-3.7-2.2l-0.4,0.4h0.4
							l-2-1.1l0.2-0.2l1.1,2l-1.5,0.2l-0.9-0.7h-0.2v1.3l-4.2-1.3l-0.9-0.7l1.3-1.8l2.6,1.3l-4.4,1.8l-1.8-1.1v0.2v-0.2l-0.9,1.5
							h-2.6l-1.1-1.8l2-0.7v2l-2.6-0.4l-1.3-0.2l-0.2,0.2l-0.7,2.4l-0.9,0.7l-1.3-1.8l0.7-0.4l1.3,1.8l-2,1.5l-0.2,0.4l-1.8-1.3
							l0.2-0.4l1.5,1.3l-1.3,1.1l-1.1,1.3l-1.3-1.5l2.6-1.5l-0.4,4.4l-3.7,1.3l-1.3-1.8l2-0.9l0.4,1.8l-1.3,0.7l0.7,1.1l-1.1,2h-1.1
							l-0.2-0.7l-2.2,0.2v-0.4l2,0.7l-1.8,2.4v-0.4l-1.1,1.1v2.4l-2.4-0.9v-0.2h-1.1l0.4,2.2l-1.5,0.4l0.9,1.3l-2,1.1l-0.2-0.2
							l-0.7,0.7l-0.4,0.2l0.4,0.9l-2.9,1.3l-1.1,1.5l-0.2-0.2l-2.2-0.2v1.5l1.1-1.1l-0.7,2l-1.5,0.4l-0.7-2l0.4-0.2l0.7,2l-0.7,0.2
							v2.2h-0.2l-1.1-1.1l-0.9,2.2l-1.5,1.3l1.1-1.8l-1.8,0.4l1.1,1.8l-1.3,1.5l-1.1,0.7l-0.2,0.2l-1.8,0.7l-1.8-0.4l1.3-1.8
							l1.8,2.2l-2.2,1.8h-1.5l-0.4,0.2l-0.2,0.4v0.7l-0.7,1.5l-1.5,0.4v-0.7l1.1,5.1l-2.4-2l0.2-0.4l-0.9,2.4l-1.3-0.7l0.9-1.3
							l-2.4,0.7l0.9,2.2l-2,0.9l-0.9-2.2l0.7-0.2l0.7,2.2l-0.9,0.2l0.4,0.9l-2,0.7l-0.2,0.2l-0.2,0.2l0.4,3.5l-2.4-0.7l-1.3,0.9
							l0.4-0.2l0.2,0.2l-1.3,1.5h-0.4l-0.2,0.4l0.2,0.4l-1.1,2l-2-0.2l-0.2,1.5l-0.9-0.2l-0.2,1.1l-1.1,0.2l0.9,2.6l-3.5-1.3
							l1.5,1.5l-2.4,1.3l-0.2-0.2h-0.2l-0.7,1.3l-2,1.5l-1.3-0.9l1.5-1.8l1.1,1.3l-2.6,1.5l-0.2,0.9l-0.2,1.1l-2.2-0.7l0.2-0.7
							l1.8,1.3l-1.3,1.1h-1.5v0.2l0.2,0.4v2.4l-3.3,1.1l-0.4,0.2l-0.9-2l0.9-0.2l0.9,2l-2.6,2h0.7v3.1l-2.9-1.3l0.2-0.2l0.2,1.3v1.8
							h-1.3l-0.2-0.4l-1.3,1.8l-0.2-0.2l-1.3,0.2h1.8l-4,3.3h-0.2l0.9,2.9l-1.8-0.7h0.2l-3.1,1.5v0.2v-0.2l0.9,3.1l-2.4-1.3v0.2
							l-0.9,1.1l-1.1,1.1h-0.4v0.7l-0.7,0.2v0.7l-2.4,0.7l1.5-0.9l-0.4-0.2l-1.3,2l-1.1,1.5l-2.4,1.3l-0.9,0.9l0.9,1.1l-0.9,0.2
							l-0.9-0.7l-0.9,2h0.2l1.1,1.8l-3.5-0.7l-0.2,2.6l-1.5-0.9h0.2l-0.4,1.1l-0.7,0.4l0.2,0.7l-2,1.1l1.1,0.9v-1.8l-1.5,3.1
							l-0.9-0.7l-0.2,0.2l-1.3,2l-0.9-0.4l-0.2,0.7l-2.2-0.4v1.3l1.1-0.4l0.7,3.3l-2.6-1.3l0.4-0.4v1.3l-1.5,0.7l-1.8,1.8h1.1
							l0.4,1.3l-2.9,0.4l-0.4,0.2v0.4v0.9l-1.1,0.7l-1.1,0.9h-0.9l-1.1,0.9l-1.3-1.8l0.7-0.4l1.3,1.8l-1.3,0.9l-0.2,0.2l0.2,0.7
							l-2.2,2.4l-1.8-1.5l-1.1,1.5l1.8-0.4v0.7l-1.5,1.8l-2-1.1l0.2-0.7l2.2,0.4l-0.2,3.1l-2,0.4l-0.4-0.9l1.1,1.1l-4.4,2.9
							l-0.4-1.8h-0.2v0.2l-2,0.9l-1.5-1.8l2-0.9l0.4,3.7l-3.1-1.3l-0.4-0.4l-2.6,1.3l-1.1-0.9h-0.7l-0.4-2l0.4-0.2l0.2,2l-1.5-0.2
							l-0.2-0.7l-2.2,0.7v-0.4l0.2-0.2v1.8l-2.9-0.9l-1.1,1.1l-2.4-1.5l-1.1-0.2l0.9-2.2l3.3,1.1l-7.5,3.3l0.7-2.4l0.4,0.2l-2.6,0.4
							L938,625h-1.3L937.1,625.5z"/>
					</g>
				</g>
			</g>
			<g>
				<g>
					<g class="st0">
						<path class="st1" d="M1201.8,610.5l-20.5,11l-72.4-136l20.5-11L1201.8,610.5z"/>
					</g>
				</g>
			</g>
			<g>
				<g>
					<g class="st0">
						<path class="st1" d="M1239,656.1l-1.5-0.2c-4.4-1.3-6.6-2-7.9-2.9l-1.8-1.3c-2.2-0.4-3.7-1.1-5.3-2.4l-2.2-1.8
							c-3.5-0.2-5.5-0.9-5.7-2c-2-1.8-3.3-2.9-4-3.7l-1.1-1.5c-3.3-1.1-4.8-1.8-5.7-2.6c-1.1-1.1-1.3-1.5-1.8-2.4l-0.7-1.3
							c-3.1-1.5-4.2-2.4-4.4-2.9l-0.2-0.9l-3.3-2.9c-2.2-0.7-3.1-1.3-3.5-2.4l-0.7-1.3c-1.8-2.9-2.4-4.4-2.2-5.3l0.2-0.9
							c-1.8-2-2.6-3.1-3.5-4.8l-1.3-2.2c-1.8-1.3-2.4-2.6-2-3.7l0.7-1.8c-1.1-1.1-1.5-2.2-1.5-3.5v-1.8c-2-2.2-3.1-3.5-3.7-5.1
							c-0.7-1.1-0.7-2.4-0.2-3.7l0.9-2c-1.5-0.9-2.2-1.8-2.2-3.1l0.2-1.5l1.8-3.3l-0.4-4.6l-0.7-2.9c-1.1-2.4-1.5-4.2-1.1-5.1
							l0.9-1.1l0.7-2.4l0.9-4.4c-0.4-2.2-0.4-3.7,0-5.1l0.9-2c-0.9-2.4-1.1-3.7-0.7-4.2l0.7-0.9l2.6-4.6c-0.7-2-0.9-3.3-0.2-4
							l1.1-0.9c0-2,0.4-3.5,1.3-4.4l1.5-1.3l1.3-3.5c1.1-4,2.2-5.9,3.7-7.3l2-1.5c-0.4-2.9-0.2-4.2,0.9-4.8l1.3-0.7l3.5-4
							c-0.2-1.1,0.2-2.4,1.8-4c2.4-2.6,3.7-4,4.6-4.8l1.1-0.9l1.3-2.6c1.5-2.2,2.9-3.3,4-3.7l1.8-0.7c0,0,3.5-5.7,4.6-6.6
							c0.9-0.9,2.2-1.1,3.5-1.1h2c0.2-0.2,5.7-5.1,7-5.9c1.1-0.7,2.2-1.1,3.3-1.3l1.5-0.2l1.8-0.7c1.8-1.8,3.1-2.4,4.4-2.6
							c3.7-2,5.7-2.6,6.6-2.4l1.3,0.4c2.9-1.5,4.6-2.2,5.5-2.4l1.3-0.2l1.3,0.2c3.3-0.9,5.1-1.3,5.9-1.3h1.3l7.9,0.7
							c2.6,0,4.4,0.4,5.1,1.8c0.7,1.1,0.9,2.2,0.2,3.1l-0.9,1.3c0.7,2.4,0.9,4,0.2,5.1l-1.1,1.5c1.3,2.4,1.8,4,1.8,5.3
							s-0.4,2.4-1.3,3.7l-1.3,1.8c0.7,2.2,1.1,3.5,0.7,4.8l-0.7,1.8c0.7,1.3,0.9,2.4,0,3.7l-1.3,2.2l-0.7,2.6c1.1,2.9,1.5,4,1.1,5.3
							c-0.4,1.3-0.9,2.2-1.5,3.3c0,0-5.5,3.3-9,4.2c-2.2,0.4-3.3,0.7-4,0.4l-1.1-0.2l-1.8,1.8l-3.3,3.3c-2.2,1.8-3.1,2.2-4.2,2.6
							l-1.5,0.4c-0.4,1.8-1.1,2.6-2.6,4l-2.2,1.8l-1.3,1.8l-2.6,3.5l-3.5,4.6c0.2,4.8-0.4,7.5-1.8,8.1l-2,0.9c0.2,2.4,0.2,4-0.4,5.5
							l-0.9,2.2l-0.2,2.4c-0.2,2.9-0.4,4.4-1.3,5.5l-1.3,1.5v2.2l-0.4,3.3l1.5,5.1c0.4,1.1,0.4,1.8,0,3.5l-0.7,2.4l1.3,2.6l2.4,3.3
							c2,1.3,3.3,2.2,4.2,3.7l2.6,3.3l2.9,2.9l2.2,1.8c4,1.5,6.4,2.4,9,4.4c2.4,2,4,3.1,4.4,3.7l0.7,1.1l1.5,3.5
							c2.4,2.2,3.7,3.7,4.4,5.5c0.7,1.5,0.7,3.1,0.2,4.4l-0.9,2l0.4,3.5c0.7,2.6,0.9,3.7,0.4,4.4l-0.7,0.7l-0.7,0.9
							c-3.3,4.4-4.8,6.4-5.5,6.8l-1.1,0.7c-0.7,1.1-1.5,2.2-2.6,2.9l-1.5,0.9l-4,1.8l-2.6,1.1C1241.4,655.6,1240.1,656.1,1239,656.1
							z M1208.2,503.8l0.9-2.2c-0.7-2-0.4-3.3,0.7-4.2l1.5-1.3c-0.4-1.5,0.2-2.9,1.5-4l2-1.5c0.2-2.2,0.7-3.1,1.3-4.2l0.9-1.3
							c0,0,2.6-5.9,4-7l2-1.5l2.9-3.1c0.9-2,1.3-3.1,1.8-3.7l0.7-0.9c4-3.1,6.4-4.6,7.9-5.5l2.2-1.1c2-2.4,3.5-3.7,4.8-4.6
							c1.3-0.7,2.4-1.1,4-1.5l2-0.4c1.1-2,2.4-3.1,4-3.3l2.4-0.2v-1.3c2.2-1.5,4-2,5.5-2.2l2.2-0.2c1.3-1.1,2.4-1.8,4.2-2.2l2.4-0.4
							c1.1-1.3,2.6-2,4.2-2l2.2,0.2c1.8-0.4,3.1-0.7,4.6-0.4l2.2,0.2l2-0.7l5.3-0.2c0.7-0.7,1.5-0.9,2.4-0.7l1.3,0.4l4,0.2h4.2
							c3.3,0.2,5.3,0.7,5.7,1.5l0.7,1.1c2.9,0.4,4.6,0.9,6.4,1.8l3.7,1.1c1.3,0.2,2.6,0.7,4.4,2l2.4,1.8l0.7,0.2
							c2.6,1.1,4,2,4.4,3.3l0.4,2c0.2,0,0.7,0,0.9,0.2c5.1,1.1,6.4,4.2,7.9,6.4c1.1,1.3,1.8,2.2,2.2,3.3l0.4,1.3l2.2,2.6
							c2.4,2,3.3,3.7,3.1,5.5c-0.2,1.8-0.9,2.9-1.8,3.5c-1.1,0.7-2,1.1-3.3,1.1l-2,0.2l-2.2,2.4c-1.8,1.8-3.1,2.4-4.4,2.9l-2,0.9
							l-2,1.8c-0.7,1.1-1.5,2-3.3,2.6l-2.6,1.1c-0.7,2.2-1.3,3.3-2.2,4.2l-1.3,1.1l-4.4,1.3c-1.8,1.8-2.6,2.6-2.9,2.6l-0.7,0.2
							c-1.1,1.1-2.9,1.8-5.1,2c0,0-4.8-3.1-5.1-4l-0.4-0.9c-3.1-2.2-4.6-3.5-4.6-4.2l-0.2-1.1c-3.1-0.4-4.6-0.9-5.3-1.3l-0.9-0.7
							l-4.2-0.9h-2.4l-3.3,0.4l-3.3,0.9l-3.7,2.6l-3.5,2.2l-4.8,3.7l-2.6,1.8c-0.4,2-1.5,3.1-2.9,3.3l-2.2,0.4
							c0.7,2,0.7,3.3-0.2,5.1c-0.9,1.8-1.5,2.9-2.6,4.2l-1.5,1.8c-1.1,1.8-2.2,2.9-4.2,3.5l-2.9,1.1c0,1.1-0.7,1.8-1.8,2l-1.8,0.2
							l-4.6,2.2c-1.5,1.1-3.3,1.5-5.9,1.1c-2.4-0.2-3.7-0.7-4-0.9l-3.3-3.7c-2.2,0.2-4-0.7-5.5-2.4l-3.1-2.9l-2.4-1.8
							c-3.3-0.9-5.3-1.8-5.1-2.4l-1.3-2.6C1207.9,511.7,1207.5,505.3,1208.2,503.8z M1264.7,564.5c1.3,0.4,2.2,0.9,2.4,1.5l0.4,1.1
							l4,1.5c2.6,0.7,4.2,1.1,4.6,2.2l0.7,1.3l2.4,0.9l5.1,2c2.4-0.4,4.2-0.7,5.3,0l1.5,0.9l2.4,0.4l3.7-2.2l2.9-1.8
							c0.7-1.1,1.3-1.8,2-2.2l0.9-0.4l2.4-2.9c1.5-1.5,2.9-2,4-1.5l-3.1,0.9c0.4,1.3-0.2,2.4-2.2,2.6c-2.2,0.4-4,0.2-5.1-0.2
							c-1.1-0.4-2.2-1.3-2.9-2.4s-1.1-1.8-1.1-2.6l-3.7-2.4l-1.5-1.1c-3.3-1.3-5.1-2.2-6.4-3.3l-1.8-1.5c-2-1.1-2.9-1.8-3.3-2.9
							l-0.7-1.3l-2.2-1.3c-2.9-1.1-4.2-1.8-5.1-2.6c-0.9-0.9-1.1-2-1.1-4c0-1.8,0.2-2.9,0.4-3.3l0.4-0.7l3.3-3.7l0.7-1.8
							c1.8-2.2,3.3-3.3,4.4-4l1.5-0.7c-0.2-2.9,0.2-4.2,1.8-5.1l2-1.1l1.5-1.8c1.3-2.6,2.4-4,2.9-4.2l0.9-0.2
							c0.4-3.1,0.9-4.6,1.1-5.1l0.4-0.7l5.1-2.2c2-1.1,3.5-1.1,4-0.4l0.9,1.3c3.3,1.5,4.8,2,5.1,2.4l0.2,0.4l3.3,3.7
							c2.2,0.7,3.5,1.3,4.2,2.4l0.9,1.3l2.9,0.7c0,0,5.9,4.4,6.8,5.7l1.1,1.5l2.4,1.5l4,2.2c2,0.7,2.9,1.1,3.1,2.2l0.2,1.5
							c3.1,0.7,4.8,1.1,5.7,2l1.1,1.3l0.7,2.6c3.1,2,4.6,2.9,5.1,3.5l0.7,1.1c3.7,0.4,5.7,1.1,6.6,1.8l1.1,1.1v3.3l2.4,1.1l3.7,2.2
							l2.4,1.1c3.1,1.5,4.6,2.6,5.5,3.7c0.7,1.1,1.3,2.2,1.5,4c0.2,1.8-0.2,2.6-1.1,2.9l-1.3,0.4c-1.3,3.1-1.8,4.4-2.2,5.1l-2.6,3.1
							c-2.2,3.1-3.3,4.2-4,4.6l-1.1,0.7c-0.7,3.1-1.1,4.8-1.8,5.5l-0.9,1.1l-3.7,2.2l-2.2,1.8c-0.2,2.2-0.4,3.3-1.3,4.2l-1.3,1.3
							l-1.8,2.4c-2.2,2.6-3.3,3.5-4.4,4.4l-1.3,1.1l-2.4,2.6c-0.4,2.4-0.9,3.1-1.5,4l-0.9,1.1l-4,2.9l-1.5,2.9l-2.2,3.7
							c0.2,1.5,0.2,2.9-0.4,4c-0.7,1.1-1.8,2-3.3,2.6l-2.4,1.1l-1.1,2c-1.1,2.9-2,4.4-2.9,5.1l-1.3,0.9c0,1.8-0.4,3.1-1.5,4
							l-1.8,1.3c-0.4,2.2-1.3,3.7-2.4,4.6c-1.1,0.7-2.4,1.1-3.7,1.1c-1.5-0.2-2.6-0.7-3.3-1.3l-1.1-1.1l-2.6-0.4
							c-2.4-1.3-4.4-2.9-7.3-5.7l-2.4-1.8c-0.7-0.4-1.1-1.1-2-2.2l-1.3-1.8l-1.8-1.3c-2.4-0.7-3.7-1.1-4.4-2l-1.1-1.3l-4.8-3.3
							c-2.2-0.7-3.3-1.1-4-2l-0.9-0.9c-0.4-3.1,0.2-5.1,2.2-7c2.2-2.6,3.5-3.7,4.2-4.4l1.1-0.9c1.3-2.4,2.9-4.8,5.7-9
							c0.7-1.1,1.8-2.2,2.9-3.3l1.5-1.5c1.1-2.2,2.4-3.1,3.5-2.9l1.8,0.4c2.2,2.2,3.1,3.5,2.9,4.6l-0.2,1.5c3.5,2.6,5.1,3.7,5.3,4.6
							l0.2,1.3l2.2,2.6c1.5,1.5,2,3.1,1.3,4.4c-0.9,1.5-1.8,2-2.4,2.2l-1.1,0.2c-1.8,1.1-2.9,1.5-4.4,2l-2,0.4
							c-1.1,0.7-2.4,0.9-4.4,0.9h-2.9c-2.2,0.4-4,0.7-6.4,0.4l-4.4-0.7c-3.7,0.2-5.9-0.2-6.6-0.9l-1.1-1.1c-3.1,0.4-4.8,0.2-6.2-0.7
							l-2-1.1c-2,0-3.1-0.9-3.3-2.4l-2.6-0.4c-3.3-2-5.1-3.3-6.2-4.4c-1.1-1.1-0.9-2.4,0.2-4l1.8-2.2l0.9-2l0.2-4.2
							c-0.4-1.8-0.4-3.7,0-6.8c0.4-1.8,1.1-3.5,2.4-5.9l1.8-4.4c-0.4-1.1-0.2-2.2,0.7-4.4c0.9-3.5,1.5-5.3,2.2-5.9l0.9-0.9
							c-0.2-2.9,0.4-4.2,1.5-4.2C1262.1,563.9,1263.2,564.1,1264.7,564.5z"/>
					</g>
				</g>
			</g>
		</g>
	</g>
</g>
</svg>
