<?xml version="1.0" encoding="utf-8"?>
<!-- Generator: Adobe Illustrator 26.4.1, SVG Export Plug-In . SVG Version: 6.00 Build 0)  -->
<svg version="1.1" id="Ebene_1" xmlns="http://www.w3.org/2000/svg" xmlns:xlink="http://www.w3.org/1999/xlink" x="0px" y="0px"
	 viewBox="0 0 1920 1080" style="enable-background:new 0 0 1920 1080;" xml:space="preserve">
<style type="text/css">
	.st0{fill:#0000FF;}
</style>
<g>
	<path class="st0" d="M708.21,368.41c3.08,6.82,7.92,12.76,13.64,17.82c3.52,3.3,7.48,4.62,11.88,4.18c1.32-0.22,2.2,0,3.3,0.88
		c3.3,2.2,6.6,4.18,9.9,6.6c6.82,4.4,14.08,8.8,21.78,11.66c0.44,0.22,0.66,0.66,0.88,1.32c1.98,3.3,4.4,5.72,7.92,7.04
		c4.62,1.54,9.24,2.2,14.08,2.42c3.08,0,6.38-0.22,9.46-0.44l8.8-1.32c3.96-0.66,7.7-2.2,11.66-3.74c4.62-1.98,7.92-5.06,9.46-9.9
		c0.22-0.66,0.66-1.54,1.54-1.98c1.54-1.1,2.86-2.42,4.4-3.74c4.4-3.08,7.92-7.04,11.22-11.66c3.3-5.06,6.38-10.56,7.92-16.5
		c0.44-2.42,0.66-4.62,2.86-5.94c2.42-1.76,3.52-4.4,3.96-7.04c0.44-1.98,0.22-3.96,0.44-6.6c-0.22-2.2-0.22-5.06-0.66-7.92
		c-0.88-3.96-1.98-7.7-3.3-11.44c-3.08-8.14-7.92-15.18-14.08-21.12c-2.64-2.42-5.94-3.96-9.24-3.3c-2.64,0.22-4.62-0.66-6.38-1.98
		c0,0-0.22-0.22-0.66-0.22c-5.72-3.08-12.1-5.72-18.7-7.48l-12.1-2.64c-2.42-0.44-4.4-0.66-6.16-3.08c-1.32-2.2-3.3-3.74-5.94-4.18
		c-3.3-0.88-6.38-1.32-9.24-2.2c-6.16-1.32-11.88-2.64-17.82-5.06c-1.54-0.44-3.3-1.54-5.28-0.88c-1.32,0.22-2.64,0.44-3.52,0.88
		c-1.1,0.44-1.98,0.44-2.42-0.44c-1.98-1.76-3.74-3.74-5.06-5.72c-1.76-2.64-2.42-5.28-2.2-8.36c0.44-2.2,0.88-2.86,3.3-2.86
		c1.98,0,4.18-0.66,5.72-2.42c2.42-2.86,5.28-5.5,8.58-7.26c3.08-2.2,6.6-4.18,10.12-5.94c2.42-0.88,3.96-2.86,5.06-5.28l0.88-1.32
		c0.22-0.44,0.66-0.88,1.32-0.88c2.64-0.66,5.28-1.32,7.7-1.32c6.16-0.44,12.54-0.66,18.92,0.66c1.76,0.66,3.74,0.88,3.96,3.3
		c0,0.44,0.22,0.66,0.44,1.32c1.32,1.98,3.52,3.3,5.72,4.4c3.96,2.42,7.26,5.28,9.24,9.68c0.44,1.1,1.54,1.98,2.64,2.64
		c1.76,1.32,3.52,2.42,5.5,3.52c3.08,2.2,5.94,4.84,9.68,5.5c5.06,1.32,9.24,0.66,12.76-3.08c3.3-3.96,4.62-9.02,3.96-14.3
		c-1.1-5.72-2.86-11-6.16-16.06c-2.86-4.84-6.6-8.8-10.56-12.1c-3.96-3.52-8.36-5.72-13.2-7.92c-4.62-2.42-9.68-2.64-14.74,0
		c-0.22,0.22-1.1,0.22-1.54,0.22l-4.18-0.88c-3.96-0.66-7.92-1.32-12.32-1.32c-3.08,0-6.16-0.22-9.46,0
		c-3.3,0.22-6.82,0.88-9.9,1.32c-2.64,0.22-5.06,1.1-7.7-0.44c-2.86-1.54-6.38-1.54-9.9-0.66c-5.28,1.98-10.12,4.4-14.96,7.26
		c-4.84,2.64-9.02,5.94-12.98,9.68c-1.98,2.2-3.96,4.62-5.72,6.82c-3.74,4.4-5.06,8.8-3.96,14.3c0.22,1.1,0.22,1.98,0,3.3
		c-1.54,3.96-2.42,8.36-2.42,12.76c0.22,4.62,1.32,8.8,2.86,12.98c3.3,7.26,8.14,12.98,14.3,18.04c0.44,0.22,0.88,1.32,1.1,1.76
		c1.1,3.52,2.42,6.38,5.5,8.58c2.2,1.54,4.4,2.64,6.82,3.52c8.8,3.96,18.04,6.38,27.5,7.7l5.28,0.88c0.88,0,1.76,0,2.64-0.22
		c2.42-0.44,4.4-1.1,6.16-2.64c0.88-0.88,2.2-1.1,3.52-0.88c4.4,0.88,8.58,1.76,12.54,2.86c4.62,1.1,9.02,2.86,13.2,5.28
		c1.32,0.66,1.98,1.32,1.76,2.86c-0.22,3.3,1.1,5.94,2.86,8.36c3.3,4.18,5.06,8.8,5.72,14.08c0.44,3.3,0.88,6.38,3.96,8.58
		c1.32,1.1,1.32,1.98,0.66,3.3c-1.98,7.92-6.82,14.08-13.42,18.48c-0.88,0.88-1.54,0.88-2.42,0.44c-2.86-1.32-5.72-2.2-9.02-0.66
		c-0.44,0.22-0.88,0.66-1.76,0.66c-2.86,0.44-5.72,1.32-9.02,1.54c-2.64,0.22-5.5,0.66-8.36,0.22c-3.52-0.44-6.38,0-9.24,1.76
		c-0.88,0.66-1.98,0.88-2.64,0.66c-1.98-0.88-3.96-1.54-5.94-2.64c-6.82-3.96-13.64-8.14-20.24-12.98c-1.1-0.88-1.54-1.54-1.54-2.86
		c0.22-2.86-1.1-5.28-2.86-7.48l-3.52-3.96c-1.32-2.42-2.86-4.4-3.08-7.04c-0.44-2.64-0.66-2.64-2.64-4.84l-2.2-2.86l-5.06-9.02
		c-1.98-3.08-5.06-5.28-9.02-5.5c-4.4-0.44-8.36,1.54-11.44,5.06c-3.52,3.96-4.84,9.02-5.06,14.3c-0.22,2.86,0.22,5.94,0.44,8.8
		C704.91,360.49,706.23,364.67,708.21,368.41z M767.61,407.13c-0.66,0-1.1-0.22-1.54-0.44c-9.9-4.62-18.26-10.34-27.06-16.28
		c-0.44-0.22-0.44-0.88-0.66-1.54c0.44-0.22,0.88-0.44,1.76,0c3.52,2.42,6.82,5.06,10.34,7.26c5.28,3.08,10.56,6.6,16.28,8.8
		c0.88,0.44,1.1,0.88,2.2,1.76C768.05,406.91,767.83,407.13,767.61,407.13z M770.47,396.35c-0.88,1.1-1.1,1.98-1.54,3.08l-3.52-1.54
		c-7.04-3.74-13.64-7.92-20.24-12.32c-0.66-0.66-0.88-0.88-0.22-1.32l1.76-3.3c0.22-0.22,0.22-0.22,0.22-0.44l0.88,0.66
		c2.86,1.98,5.72,3.74,9.02,5.72c4.18,2.2,8.36,4.84,12.76,7.26C770.69,394.81,771.35,395.25,770.47,396.35z M829.87,393.05
		l-0.88-0.66c-0.44-0.22-0.66-1.1-0.88-1.32c-0.44-0.88-1.32-1.32-1.1-1.98c0.22-0.44,0.66-1.32,1.54-1.76
		c6.38-5.06,10.34-11.44,12.76-18.7c0.22-0.88,0.44-1.1,1.32-0.88c0.22,0.22,0.66,0.66,1.32,0.66c2.64,0.66,2.86,0.66,1.76,3.3
		c-1.76,5.28-4.4,10.12-8.14,14.08l-6.6,6.38C830.75,392.61,830.09,392.61,829.87,393.05z M838.23,358.73
		c1.32-1.32,2.42-2.86,4.4-3.52h0.88c-0.22,0.44-0.22,0.66-0.44,0.88c-1.32,1.1-2.64,1.98-4.18,3.08c0,0-0.22,0.22-0.66,0.22
		c0,0-0.22,0-0.22-0.22C838.01,359.17,838.01,358.73,838.23,358.73z M836.69,347.29c-1.54-6.16-4.18-11.66-8.14-16.72
		c-0.44-1.1-0.44-1.32,0.44-1.54c2.64-0.66,5.06-1.32,7.04-3.3c1.76-1.76,2.64-3.52,3.08-5.94c0-0.22,0-0.66,0.22-1.1l1.1,0.88
		c5.28,5.72,9.24,12.32,11.66,19.8l0.66,3.52c0.66,2.64,0.88,5.72,1.32,8.36h-0.22v0.44c0,1.1-0.22,1.76-0.22,2.86l-2.2-1.32
		c-3.96-1.98-7.92-1.32-11.44,0.66c-0.44,0.22-0.66,0.44-1.1,0.44c-0.22,0.22-0.88,0.44-0.88-0.22L836.69,347.29z M854.07,370.17
		c-1.98,6.82-4.84,13.42-9.68,19.36c-3.52,3.96-6.82,7.48-11.44,10.56c-0.22,0.22-0.88,0.22-1.54,0.44c-0.22-0.88,0-1.54,0.88-2.2
		c1.98-1.54,4.4-2.86,6.38-4.84c4.84-5.06,9.24-11,11.88-17.82c0.66-1.76,1.54-3.96,1.98-5.94c0.22-0.88,0.88-1.1,1.32-1.32
		c0.22-0.44,0.66,0,0.66,0C854.51,369.07,854.51,369.73,854.07,370.17z M841.53,311.21c1.54,1.1,3.08,2.2,4.18,3.52
		c6.82,7.48,11.66,15.84,13.64,25.52c0.88,3.96,1.32,7.92,1.98,12.32c0,2.86-0.66,5.72-2.2,8.14c-2.42,3.3-5.5,5.5-9.68,5.5
		c-0.66,0-1.54,0.22-1.32-0.88c0-0.22,0.66-0.44,1.32-0.44c3.74-0.88,6.6-2.42,8.36-5.5c0.88-1.32,1.32-2.86,1.54-4.18
		c0-3.08-0.22-5.94-0.44-8.8c-0.22-3.96-1.32-7.92-2.64-11.66c-2.2-6.38-5.5-12.1-10.12-17.16c-1.32-1.54-2.2-3.08-4.18-3.96
		c-4.18-2.42-8.14-1.98-12.1,0.22l-1.54,1.1h-0.88c-0.22-0.22-0.22-0.66,0-1.1c1.1-0.66,2.2-1.76,3.3-2.2
		C834.27,309.67,838.01,309.67,841.53,311.21z M795.99,297.13c8.8,1.54,17.6,3.3,25.74,7.04c2.86,1.1,5.28,2.64,7.92,3.96
		c0.22,0,0.44,0.22,0.66,0.22c-0.22,0.22-0.44,0.22-0.44,0.66c-0.88,0.66-1.54,0.22-2.42-0.44c-2.86-1.32-5.72-2.86-8.58-3.96
		c-4.84-1.98-9.9-3.52-15.18-4.4l-7.04-1.32c-0.66-0.22-1.1-0.44-1.32-1.1C795.11,297.57,795.33,296.69,795.99,297.13z
		 M823.49,314.51c-0.44,1.1-0.66,2.42-1.76,3.08c-1.1,0.88-1.98-0.66-2.86-1.32c-5.72-2.42-11.44-3.96-17.6-5.28
		c-1.54-0.44-3.3-0.66-4.84-1.32c-0.88,0-0.88-0.22-0.88-1.1c0.44-0.66,0.44-1.76,0.44-2.64c0.44-0.88,0.66-1.32,1.98-0.88
		c1.76,0.22,4.18,0.66,6.38,1.32c5.94,1.54,12.1,3.08,17.6,5.94l1.32,0.88C823.49,313.41,823.71,314.29,823.49,314.51z
		 M754.19,281.95c0.66,0.22,1.76,0.22,2.86,0.66c5.5,2.64,11.66,3.96,17.6,5.5l10.34,1.98c2.2,0.66,3.96,1.76,5.28,3.52
		c1.76,2.64,2.86,5.06,3.08,8.14c0.44,0.22,0.44,0.88,0,1.1c0,0.22-0.22,0.44-0.44,0.44l-0.44-0.44c-0.66-1.32-0.88-2.86-1.32-4.18
		c-1.32-4.18-4.4-6.6-8.8-7.48c-8.36-1.76-17.16-3.74-25.3-7.04c-3.74-1.32-6.82,0-9.9,1.76c-0.88,0.66-1.98,1.32-3.08,2.2h-0.88
		c0-0.22-0.22-0.66-0.22-1.1l0.22-0.22C745.17,284.81,751.55,281.95,754.19,281.95z M780.59,311.21c0.66,1.32,0.66,1.32-0.88,1.32
		h-0.44v0.44c-3.74-0.88-7.48-1.32-11-1.98c-5.28-1.1-10.12-2.64-15.18-4.62l-5.94-2.64c-0.88-0.66-0.88-0.88,0-1.32
		c3.52-1.76,5.28-4.4,5.94-7.7c0.22-1.54,0.44-3.3,0.22-4.84c-0.88-1.98,0.88-0.66,1.1-0.66c2.64,0.88,5.5,1.98,8.36,2.86
		c5.06,1.32,10.12,2.64,15.18,3.74c1.32,0.44,2.86,0.66,4.18,0.88l1.32,0.88c-0.22,0.22-0.66,0.44-0.88,0.88
		c-1.32,1.32-1.98,2.86-2.64,4.4C778.61,305.71,779.27,308.57,780.59,311.21z M743.63,279.09l2.2,2.2c0.44,0.44,0.88,0.66,0.44,1.32
		c-0.66,0.44-1.32,0.44-1.98,0c-0.22-0.66-0.66-1.1-1.32-1.32c-3.08-3.52-5.28-7.48-5.94-11.88c-0.44-0.44,0-0.88,0-1.1h-0.44
		l0.88-3.74c0-0.22,0.88-0.22,1.32-0.44l0.22,0.88C737.69,270.73,740.11,275.13,743.63,279.09z M760.79,233.99
		c0.88,1.54,2.2,2.86,3.96,4.18c0.66,0.88,0.44,1.1-0.44,1.32c-5.72,2.2-10.78,5.5-15.4,9.24c-2.42,1.76-4.62,4.18-6.6,6.38
		l-0.66,0.66c-0.44-0.44-0.66-0.88-0.66-1.32c-0.66-1.76-1.76-3.08-2.64-4.4c-1.76-2.64-4.4-3.52-7.26-3.96h-1.1
		c-0.66,0-0.88-0.44-0.44-1.1l10.12-10.34c3.52-3.3,8.14-5.72,12.76-7.92c1.98-0.88,3.96-1.54,5.94-2.2
		c1.32-0.44,1.54-0.44,1.32,0.88C758.81,228.49,758.81,231.35,760.79,233.99z M732.41,248.95l0.88,0.88
		c-0.22,0.22-0.66,0.44-0.88,0.44c-1.98,0-4.4,0.22-6.38,1.32h-0.44v-0.44C726.47,249.83,731.09,248.29,732.41,248.95z
		 M731.31,265.45c-0.22,0.44-0.22,1.32-0.22,1.76c-0.22,6.38,2.42,11.44,6.16,15.84c0.22,0.44,0.44,1.1,1.1,1.32
		c0.44,0.88,1.32,1.32,1.54,2.42c0.22,0.22-1.1,1.1-1.54,1.54c-1.32,2.2-1.98,2.2-3.52,0c-2.2-2.64-3.96-5.28-5.72-8.14
		c-1.32-2.42-2.42-5.06-2.64-7.7c-0.44-2.2-0.66-4.18-0.66-6.16c0-4.18,0.22-4.18,3.96-3.3
		C731.09,263.47,731.75,263.69,731.31,265.45z M775.31,226.07c0-0.88,0.44-1.1,0.88-1.1c4.62-0.22,9.02-0.88,13.2-1.1
		c4.84,0.22,9.02,0.88,13.64,1.1c0.88,0.22,1.54,0.44,0.88,1.76c-0.22,0.88,0,1.76-0.22,2.42c-0.22,0.88-0.44,1.32-1.54,1.1
		c-2.42-0.44-4.4-0.44-6.6-0.88c-1.32-0.22-2.86-0.22-4.18-0.44h-1.32c-4.18,0.22-8.58,0.44-12.54,1.1
		c-1.32,0.22-1.54-0.22-1.76-1.1C775.53,228.05,775.53,227.17,775.31,226.07z M803.47,238.17c-3.74-0.44-7.48-1.32-11.44-1.54
		c-1.98,0-4.18,0.22-6.16,0.44c-2.2,0-4.4,0.22-6.38,0.66c-0.88,0-1.98,0.22-2.86,0.22c-0.44,0-0.88-0.22-1.1-0.66
		c0.22-0.22,0.44-0.66,0.66-0.66c1.76-0.66,3.3-0.88,4.84-1.1l10.12-0.88c2.86,0.66,7.26,1.1,11.44,1.76
		c0.88,0.22,1.32,0.22,1.32,0.88c0.44,0.44,0.44,0.66,0.44,0.66C803.91,238.17,803.69,238.17,803.47,238.17z M841.31,260.83h-2.2
		c-2.64,0.22-4.84-0.66-6.82-2.42c-0.88-0.22-1.1-0.66-1.32-1.54c-2.42-7.26-7.7-12.54-14.3-16.28l-1.32-0.88
		c-1.32-0.44-1.1-0.66-0.22-1.76c2.64-2.2,5.28-4.18,5.5-7.92c0-1.32,0-2.42-0.22-3.52v-1.76c0.44,0,1.32,0,1.54,0.22
		c3.08,1.76,6.38,3.52,9.46,5.5c6.82,4.62,11.44,10.78,14.08,18.7c0.44,1.76,1.1,3.52,1.32,5.06
		C847.03,257.09,844.39,260.39,841.31,260.83z M851.87,263.03c-0.44,1.1-2.2,3.3-3.08,3.74c-0.22,0-0.44,0-0.44-0.44
		c-0.22-0.22-0.22-0.44-0.22-0.66l3.08-2.86C851.21,262.81,851.43,262.81,851.87,263.03z M818.43,220.79c1.1,0.22,2.2,0,3.3,0.44
		c3.96,1.1,7.7,3.3,11,5.5c2.86,2.2,5.5,4.62,8.14,7.26c3.3,3.3,5.72,7.26,7.26,11.88c1.32,2.86,1.98,5.94,2.42,9.46
		c-0.44,3.52-1.1,6.6-4.84,8.14c-0.22,0.22-0.44,0.22-1.1,0.22c0.22-0.22,0.22-0.66,0.66-0.66c3.52-2.86,4.18-6.6,3.3-10.78
		c-1.76-8.36-5.72-14.96-11.88-20.46c-4.18-3.96-9.24-6.6-14.3-9.02l-2.86-0.44l-1.32-0.88c-0.22,0-0.22-0.22-0.22-0.44
		C817.99,221.01,818.21,220.79,818.43,220.79z M814.47,222.77h0.66c1.1,0.66,3.08,4.4,3.08,5.94c-0.22,0-0.22,0.22-0.44,0.44
		c-0.22,0-0.66-0.22-0.88-0.44l-2.42-5.28C814.25,223.43,814.25,223.21,814.47,222.77z M823.05,253.57
		c0.66,1.32,1.54,2.64,1.98,3.96c0.66,1.98,1.98,3.08,3.52,4.18l7.04,4.18c0,0.22,0.44,0.44,0.66,0.88c-0.66,0-0.88,0-1.1-0.44
		l-9.68-5.72c-0.88-0.44-1.32-1.32-1.32-1.76c-1.98-5.72-5.94-9.68-11-11.88c-4.62-2.2-5.94-6.16-7.04-10.34
		c0-1.1-0.22-2.2-0.22-3.3c0-0.22-0.22-0.44,0-0.66c0.22-0.22,0.44-0.66,1.1-0.88c0,0.22,0.22,0.66,0.22,1.1l0.66,5.06
		c0.88,3.3,3.08,5.94,6.38,7.92C817.77,247.41,820.63,250.05,823.05,253.57z M768.71,223.43c1.76-0.88,3.52-1.32,5.72-1.54
		c3.52-0.66,6.82-0.88,10.34-1.1c1.54-0.22,3.3-0.66,4.4-0.66c6.82,0.66,13.42,0.88,19.58,2.42c1.76,0.66,3.52,1.54,4.4,3.3
		c0.44,0.22,0,0.44,0,0.88c-0.22-0.22-0.44-0.22-0.66-0.22c-2.42-2.42-5.5-2.64-8.8-3.08c-7.04-1.54-14.3-1.32-21.12-1.1
		c-4.62,0.22-9.24,1.32-13.64,2.42c-0.66,0.22-1.32,0.22-1.98,0.22C767.61,224.53,767.83,223.43,768.71,223.43z M772.01,235.97
		c0.22-0.88,0.22-2.2,0.66-3.52v-0.88c0.22,0,0.66,0.22,0.88,0.44c0.44,0.44,0.44,0.66,0.44,0.88c-0.66,3.52-1.1,6.6-3.08,9.68
		c-0.88,1.76-2.2,2.64-3.96,3.52c-5.5,2.2-10.12,5.28-14.74,9.24c-1.76,1.54-3.74,3.52-5.5,5.28c-0.44,0.44-1.54,0.88-2.42,1.1
		c-1.32,0.22-2.86,0.22-4.4,0.44c-1.98-0.22-3.74-0.22-5.5-0.44h-0.66c-0.22-0.22-0.44-0.88-0.66-1.1c0.44,0,0.66-0.22,0.88-0.22
		c2.42,0,5.06,0.22,7.48,0.22c1.76,0,3.74-0.88,5.06-2.2c5.5-5.5,11.88-10.12,18.92-13.42
		C769.37,243.23,770.91,239.93,772.01,235.97z M764.97,222.33h0.44c0.22,0,0.22,0.22,0.22,0.22c-0.22,0.22-0.22,0.66-0.22,0.88
		l-2.42,4.62c-0.22,0.44-0.66,0.66-0.88,0.88c-0.44-0.44-0.66-0.88-0.44-1.32C762.33,225.85,762.99,223.65,764.97,222.33z
		 M725.15,246.09c0.44-2.2,1.76-4.18,3.3-5.72c4.84-5.06,9.46-9.9,15.62-13.2c4.4-2.64,9.24-5.06,14.3-6.6
		c0.44-0.44,1.32-0.44,1.98-0.44c0.66,0.44,1.76,0.66,1.76,0.66c-0.44,1.1-1.1,1.1-1.98,1.1c-2.86,0-5.06,1.32-7.7,2.2
		c-5.5,2.42-10.56,5.72-14.96,9.68c-3.74,2.86-6.6,6.6-9.68,9.9c-0.88,0.88-0.88,1.98-1.32,2.86l-1.1,0.88
		C725.37,246.97,724.71,246.53,725.15,246.09z M736.59,294.93c-3.08-2.86-6.16-5.72-8.58-9.46c-2.64-3.96-4.62-8.14-5.28-12.98
		c-0.88-5.06-0.22-9.68,1.54-14.52c0.44-1.76,1.76-3.52,3.74-4.4c0.22-0.44,0.66-0.44,0.66-0.66l0.88,0.22c0,0.44,0,0.66-0.22,0.66
		c0,0.22-0.22,0.44-0.66,0.66c-3.3,3.08-4.18,7.26-4.62,11.44c0,3.08,0,6.6,1.1,9.68c1.54,4.4,3.3,8.36,6.16,11.66
		c2.42,2.86,5.06,5.5,7.92,7.7c0.88,0.22,1.76,0.44,2.2,1.1c0.22,0.22,0.44,0.66,0.44,1.1c-0.22,0.22-0.66,0.22-0.88,0.22
		C739.67,296.47,737.69,296.03,736.59,294.93z M742.97,299.11c1.32-0.22,2.42-0.66,3.74-1.1c0.44-0.22,1.1,0,1.54,0
		c-0.44,0.44-0.66,1.1-1.1,1.1c-1.32,0.66-2.86,1.1-3.96,1.32c-0.88-0.22-1.54-0.44-2.2-0.44L742.97,299.11z M783.23,315.83
		l-3.3,0.66c-3.74-0.44-7.7-0.66-11.22-1.54c-4.62-1.1-9.02-2.42-13.64-3.96c-3.52-1.32-7.48-2.64-10.78-5.06
		c-0.44-0.22-1.1-0.66-1.32-1.32c-0.22-0.22-0.22-0.66-0.44-0.88c0.44,0,1.1,0,1.54,0.22c1.54,1.1,3.08,2.42,4.84,3.08
		c5.94,2.64,12.1,4.84,18.48,5.94c3.08,0.44,6.16,1.32,9.46,1.76c1.32,0.22,2.86,0,4.4,0c0.66,0.22,1.32,0.22,1.98,0.22
		c0.22,0,0.22,0.22,0.44,0.66C783.45,315.61,783.45,315.83,783.23,315.83z M786.53,313.19c0,0.22-0.22,0.22-0.44,0.22
		c-1.32-0.22-4.18-4.18-3.96-5.5c0-0.22,0-0.66,0.22-0.66c0.22,0,0.44,0,0.44,0.44l3.74,5.28V313.19z M820.19,321.33
		c-3.74-2.2-7.7-3.74-11.88-5.06c-5.94-1.54-11.66-2.64-17.6-3.74c-1.32-0.44-2.64-1.54-3.96-2.64v-0.66l0.44-0.22l0.22,0.22
		c2.86,1.98,6.38,1.98,9.46,2.86c7.92,1.54,15.62,3.52,22.66,7.04l5.94,3.3c0.22,0.22,0.44,0.66,0.66,1.32
		c-0.44,0-1.1,0.22-1.32,0.22C823.05,323.09,821.51,322.43,820.19,321.33z M826.35,325.73c1.76-0.22,3.08-0.44,4.62-0.44
		c0.22,0,0.44,0,0.66,0.22c-0.22,0.22-0.44,0.88-0.66,0.88c-1.1,0.22-2.42,0.44-3.74,0.44h-0.88c-0.44-0.22-0.88-0.22-1.54-0.44
		C825.47,326.17,825.91,325.73,826.35,325.73z M825.69,332.77c-0.22-0.44-0.66-0.66-0.66-1.1c-0.22-0.66-0.22-1.98,0-1.98
		c0.88-0.22,0.88,0.66,1.32,1.32c1.1,1.98,2.42,3.52,3.52,5.28c2.64,3.96,3.96,8.36,5.06,12.76c0.44,2.42,0.66,5.06,1.32,7.7
		l-0.66,0.44c0,0-0.22-0.22-0.44-0.22c-0.22-1.1-0.88-1.76-0.88-2.64C833.39,346.19,830.75,338.93,825.69,332.77z M819.31,390.85
		c0.88-1.1,1.54-2.2,2.64-2.64c3.08-2.42,6.38-4.84,8.8-7.92c3.96-4.84,6.82-10.12,8.14-16.5c0.44-1.54,1.32-2.86,2.64-3.96
		c0-0.22,0.44-0.22,0.66,0v0.66c-2.2,3.52-2.2,8.36-4.4,12.1c-1.54,2.86-3.52,5.72-5.5,8.36c-2.86,3.96-7.26,6.6-11.22,9.46
		c-0.44,0.66-0.88,0.88-1.76,1.1V390.85z M817.99,404.27c0.44,0.22,0.88,0.66,1.1,1.1c-0.22,0.22-0.66,0.44-1.1,0.66
		c-3.52,1.1-6.6,2.64-10.12,3.3c-4.18,0.88-8.58,1.32-13.2,1.98c-3.96-0.44-8.14-1.32-12.32-1.76c-0.22,0-0.44-0.22-0.88-0.22
		l0.88-0.88c2.2-2.2,3.52-4.4,3.52-7.7c0-1.98,0-4.18-1.1-5.94c-0.66-1.1,0.22-1.1,0.66-1.1c1.1,0.22,2.2,0.44,3.3,0.44
		c7.7,0.22,14.96-0.44,22.44-2.86l1.1-0.22c0.66-0.22,0.66,0,0.66,0.66c0,2.42,0,4.84,0.66,7.26
		C814.03,401.41,815.79,403.17,817.99,404.27z M816.89,389.09c0-0.22,0.22-0.22,0.66-0.44c0,0.22,0.22,0.44,0.22,0.88l-1.54,5.5
		c0,0.22-0.44,0.44-0.44,0.66c-0.22-0.44-0.44-0.44-0.44-0.88c-0.22,0,0-0.44,0-0.66l-0.22-0.22
		C815.57,392.39,816.23,390.85,816.89,389.09z M783.45,390.41c0.66-0.22,1.76-0.44,2.64-0.44c1.98,0,3.96,0.22,5.72,0.44
		c6.6,0.44,12.98-0.88,19.36-2.86c0.66-0.22,1.54-0.44,2.42-0.44c0.22,0,0.66,0.44,0.66,0.66c0,0.44-0.22,0.66-0.44,0.88
		c-4.18,0.88-8.58,2.2-12.76,2.64c-2.86,0.44-5.5,0.44-8.58,0.88c-1.76-0.44-3.52-0.66-5.72-0.66c-0.66,0-1.76,0-2.86,0.22
		c-0.22,0-0.44-0.22-1.1-0.22C783.23,391.07,783.23,390.41,783.45,390.41z M780.15,393.05h0.66c1.54,1.32,1.98,3.3,2.86,5.06
		l-0.44,0.88c-0.44-0.22-0.66-0.22-0.88-0.66c-0.88-1.54-1.32-3.08-2.2-4.62V393.05z M781.25,415.05c4.84,1.1,9.46,1.54,14.52,1.54
		c7.26-0.22,14.3-1.54,20.9-4.18l5.5-2.42c3.74-1.98,5.5-8.14,4.84-11.88c-0.22-0.66,0-1.54,0-2.42c1.32,0.44,1.54,1.32,1.54,2.2
		c0.22,3.74,0.22,7.48-2.2,10.78c-1.76,2.2-3.96,3.3-6.16,3.96c-4.62,2.2-9.24,3.52-14.3,4.62c-1.54,0.22-3.52,0.22-5.28,0.44
		c-1.98,0-3.96,0.22-6.6,0.44c-4.62-0.44-9.46-0.88-14.52-1.98c-3.96-1.1-6.6-3.74-7.7-7.48c-0.44-1.76-0.44-3.74-0.88-5.5
		c0-0.22,0-0.88,0.44-1.1c0-0.22,0.44-0.44,0.66-0.66c0.22,0.44,0.66,0.66,0.66,0.88c-0.44,2.2,0.22,3.96,0.88,5.94
		C774.87,411.97,777.51,414.17,781.25,415.05z M759.91,384.69c4.4,2.64,9.02,5.28,13.64,7.48c2.2,0.66,4.4,1.54,5.28,3.96v0.66
		h-0.44c-3.74-3.08-8.14-4.18-12.1-6.6c-5.5-2.86-11.22-6.6-16.5-10.34c-2.2-1.32-4.62-2.86-6.82-4.4c-0.44-0.22-0.44-0.88-0.66-1.1
		c0.22,0,0.44,0,1.32-0.22c0.44,0.22,1.32,0.44,1.98,1.1L759.91,384.69z M743.19,371.93c-1.76,0.44-3.96,0.66-5.72,1.1
		c-0.22-0.22-0.44-0.22-0.88-0.22c0-0.22,0.44-0.88,0.66-0.88c1.76-0.66,3.96-0.44,5.94-0.44c0.44,0,0.44,0,0.66,0.22
		C743.63,371.71,743.63,371.93,743.19,371.93z M731.31,342.89c0.88,0.44,2.2,2.64,2.2,3.74c0.22,1.54,0.44,3.52,0.44,5.06
		c0.44,3.52,2.2,6.16,3.96,8.8l3.74,4.18c0.88,0.66,1.32,1.76,1.98,2.86l-0.44,1.1c-0.22,0-0.66-0.22-0.66-0.22
		c-2.2-3.96-6.16-6.38-7.92-10.56c-1.54-3.52-2.64-7.04-2.2-11c0-0.88-0.66-1.98-1.32-3.08
		C731.09,343.55,731.31,343.33,731.31,342.89z M729.77,347.51c0,5.72,1.98,11,5.5,15.62l3.74,4.18c1.32,1.1,1.32,1.1-0.44,1.76
		l-2.42,0.88c-3.96,1.76-5.72,5.06-6.38,9.24c0,0.22-0.22,0.44-0.44,0.66l-0.88-0.22c-6.82-6.38-12.32-13.2-14.3-22.66
		c-0.44-2.2-0.44-4.4-0.66-6.6c0.22-2.2,0.22-4.18,0.66-6.16c1.32-5.28,5.06-6.16,9.68-4.4c1.54,0.44,2.86,1.76,4.18,2.86
		C729.33,343.77,729.77,345.31,729.77,347.51z M708.43,338.71c2.2-5.5,6.82-9.02,13.2-8.14c1.54,0.22,2.86,1.32,4.4,2.2v0.44
		c0,0-0.22,0.22-0.44,0c-1.32-0.44-2.86-1.1-4.4-1.32c-4.84-0.22-11,3.52-12.32,9.68c-0.44,3.08-0.66,5.94-1.32,8.58
		c0.44,9.46,3.52,17.82,9.24,25.08c2.64,3.3,5.94,6.6,9.02,9.24c3.74,2.86,7.92,1.98,11.88,0.22l2.42-1.54
		c0.22-0.22,0.88-0.22,0.88,0c0.22,0.22,0.22,0.44,0.22,0.66c-0.22,0.66-0.88,1.1-1.1,1.32c-2.42,1.98-5.28,2.64-8.14,3.08
		c-3.3,0.22-5.94-1.1-8.14-3.52c-3.74-3.52-7.7-7.04-10.34-11.66c-2.86-4.62-5.28-9.46-6.16-14.96c-0.44-2.86-1.1-5.5-1.1-8.58
		C706.67,345.97,707.11,342.23,708.43,338.71z"/>
	<path class="st0" d="M906.43,350.59h67.76l16.94,44.44h25.96l-30.31-74.72c1.43-0.85,3.17-1.4,5.23-1.62
		c-3.04-0.33-5.43-1.4-7.16-3.12l-30.24-74.54h-27.5l-62.26,154h24.86L906.43,350.59z M921.23,311.63c1.73,1.73,2.81,4.13,3.24,7.06
		c0.66-5.94,3.96-9.46,10.12-10.12c-4.9-0.53-8.12-3.01-9.57-6.99l10.23-27.11c1.98-4.62,3.74-9.24,5.28-13.86
		c1.54,4.62,3.08,9.02,4.84,13.86l21.56,56.54h-53.02L921.23,311.63z"/>
	<path class="st0" d="M1118.73,405.37c6.16,0.44,9.68,4.18,10.56,10.12c0.66-5.94,3.96-9.46,10.12-10.12
		c-6.16-0.66-9.68-4.4-10.34-10.34C1128.19,400.97,1124.89,404.49,1118.73,405.37z"/>
	<path class="st0" d="M984.09,245.87c0.88-5.94,4.18-9.46,10.34-10.12c-6.16-0.66-9.68-4.4-10.56-10.34
		c-0.66,5.94-3.96,9.46-10.12,10.34C979.91,236.19,983.43,239.93,984.09,245.87z"/>
	<path class="st0" d="M1005.43,411.75c6.16,0.44,9.68,4.18,10.56,10.12c0.66-5.94,3.96-9.46,10.12-10.12
		c-6.16-0.66-9.68-4.4-10.34-10.34C1014.89,407.35,1011.59,410.87,1005.43,411.75z"/>
	<path class="st0" d="M1032.27,204.95c0.66-5.94,3.96-9.46,10.12-10.12c-6.16-0.66-9.68-4.4-10.34-10.34
		c-0.88,5.94-4.18,9.46-10.34,10.34C1027.87,195.27,1031.39,199.01,1032.27,204.95z"/>
	<path class="st0" d="M1030.95,386.67c0.45-4.03,2.11-6.94,5.06-8.61v16.97h93.06h9.46v-19.8h-79.2V249.79
		c3.46,1.56,5.52,4.72,6.16,9.06c0.66-5.94,3.96-9.46,10.12-10.12c-6.16-0.66-9.68-4.4-10.34-10.34c-0.64,4.32-2.57,7.35-5.94,9.03
		v-6.39h-23.32v133.99c-3.04-1.72-4.83-4.75-5.28-8.81c-0.88,5.94-4.18,9.46-10.34,10.34
		C1026.55,376.99,1030.07,380.73,1030.95,386.67z"/>
	<path class="st0" d="M1111.91,233.77c0.66-5.94,3.96-9.46,10.12-10.12c-6.16-0.66-9.68-4.4-10.34-10.34
		c-0.88,5.94-4.18,9.46-10.34,10.34C1107.51,224.09,1111.03,227.83,1111.91,233.77z"/>
	<path class="st0" d="M1082.3,532.75h37.53v-1.32h-37.93c-0.15-0.63-0.27-1.29-0.35-1.98c-0.1,0.69-0.24,1.35-0.41,1.98h-25.55v1.32
		h25.12c-1.27,3.35-3.68,5.57-7.37,6.6h-9.83v1.32h11.68c3.72,1.49,5.91,4.73,6.58,9.24c0.51-4.61,2.62-7.75,6.41-9.24h39.57v-1.32
		h-38.22C1085.93,538.37,1083.49,536.08,1082.3,532.75z"/>
	<path class="st0" d="M1211.35,523.29c0.66-5.94,3.96-9.46,10.12-10.12c-6.16-0.66-9.68-4.4-10.34-10.34
		c-0.88,5.94-4.18,9.46-10.34,10.34C1206.95,513.61,1210.47,517.35,1211.35,523.29z"/>
	<path class="st0" d="M1062.19,329.47c6.16,0.44,9.68,4.18,10.56,10.12c0.66-5.94,3.96-9.46,10.12-10.12
		c-6.16-0.66-9.68-4.4-10.34-10.34C1071.65,325.07,1068.35,328.59,1062.19,329.47z"/>
	<path class="st0" d="M1120.97,467.41h2.16v-1.32h-2.61c-0.21-0.76-0.37-1.56-0.47-2.42c-0.13,0.86-0.31,1.66-0.54,2.42h-63.92v1.32
		h63.44c-1.56,3.69-4.59,5.92-9.32,6.6h-46.21v1.32h51.15c3.13,1.64,5.01,4.69,5.62,8.8c0.47-4.19,2.26-7.18,5.43-8.8h5.35v-1.32
		h-0.67C1125.65,473.5,1122.48,471.16,1120.97,467.41z"/>
	<path class="st0" d="M1141.83,360.93c-0.88,5.94-4.18,9.46-10.34,10.34c6.16,0.44,9.68,4.18,10.56,10.12
		c0.66-5.94,3.96-9.46,10.12-10.12C1146.01,370.61,1142.49,366.87,1141.83,360.93z"/>
	<path class="st0" d="M1080.67,431.33c-6.16-0.66-9.68-4.4-10.34-10.34c-0.88,5.94-4.18,9.46-10.34,10.34
		c6.16,0.44,9.68,4.18,10.56,10.12C1071.21,435.51,1074.51,431.99,1080.67,431.33z"/>
	<path class="st0" d="M1008.73,484.57c-0.88,5.94-4.18,9.46-10.34,10.34c6.16,0.44,9.68,4.18,10.56,10.12
		c0.66-5.94,3.96-9.46,10.12-10.12C1012.91,494.25,1009.39,490.51,1008.73,484.57z"/>
	<path class="st0" d="M1137.21,292.73c0.66-5.94,3.96-9.46,10.12-10.12c-6.16-0.66-9.68-4.4-10.34-10.34
		c-0.88,5.94-4.18,9.46-10.34,10.34C1132.81,283.05,1136.33,286.79,1137.21,292.73z"/>
	<path class="st0" d="M1214.65,356.09c0.66-5.94,3.96-9.46,10.12-10.12c-6.16-0.66-9.68-4.4-10.34-10.34
		c-0.88,5.94-4.18,9.46-10.34,10.34C1210.25,346.41,1213.77,350.15,1214.65,356.09z"/>
	<path class="st0" d="M963.85,437.49c-0.88,5.94-4.18,9.46-10.34,10.34c6.16,0.44,9.68,4.18,10.56,10.12
		c0.66-5.94,3.96-9.46,10.12-10.12C968.03,447.17,964.51,443.43,963.85,437.49z"/>
	<rect x="1159.21" y="241.03" class="st0" width="23.32" height="154"/>
	<path class="st0" d="M676.09,559.15h-24.42c-2.86,17.38-18.26,29.7-39.6,29.7c-29.92,0-51.7-21.78-51.7-61.38
		c0-35.86,20.68-60.5,50.82-60.5c26.18,0,44.22,15.4,44.22,43.12v2.2h-45.98v19.8h67.32v-81.18h-20.24v6.16
		c0,4.62,0.22,9.68,0.66,14.74c-8.14-13.86-25.52-24.42-48.18-24.42c-44.44,0-72.82,33.44-72.82,80.08
		c0,50.82,33.22,81.18,75.68,81.18C647.49,608.65,672.79,587.97,676.09,559.15z"/>
	<path class="st0" d="M765.85,514.49l4.62-2.64c1.54-3.3,3.3-5.72,5.72-7.48c1.76-0.88,3.52-1.1,5.72-1.1l2.86-1.76l2.42-0.66
		c2.2-0.66,2.86-0.66,3.52-0.22l4.18-2.42l-1.1-5.5v-5.28c-1.32,0-2.64,0-3.74,0.22c-1.54,0.22-2.86,0.44-3.96,0.22
		c-6.6-0.66-11.22-4.4-13.2-11.22l-4.62,2.64c-1.54,2.64-2.86,4.62-4.62,6.16l-2.2,0.66l-3.74,2.2c0.88,2.64,1.32,4.84,1.32,6.6
		c0,3.52-1.1,6.16-2.64,9.24C761.23,506.79,764.09,508.77,765.85,514.49z M788.95,493.15l1.76-1.1v1.1l0.22,1.54l-1.54-0.66
		l-0.44,0.22V493.15z M767.39,510.09l-0.22-0.44l0.44,0.44H767.39z M772.23,484.79v-1.98c2.2,3.3,5.06,5.5,8.58,7.04l-0.44,0.44
		l-0.22,0.66c-3.52-0.88-6.38-2.86-8.8-5.72L772.23,484.79z M766.51,489.85l0.66-0.44c0.88-0.44,1.76-1.1,2.42-1.54
		c3.3,3.74,8.14,6.16,13.2,6.82c0.88,0.22,1.98,0,3.08,0v0.22l-3.08,1.54c-2.64,0.22-5.5,1.32-7.7,2.64l-2.86,1.54
		c-1.32,0.66-2.42,1.54-3.3,2.42c-1.1-1.1-2.2-1.98-3.3-2.64c0.88-1.98,1.32-4.4,1.32-7.04
		C766.95,492.27,766.73,490.95,766.51,489.85z M762.99,491.83l0.66-0.44l0.22,1.98c0,1.54-0.22,2.86-0.44,4.18l-0.22-0.44
		l-0.66-0.22l-0.66,0.44l0.22-2.42c0-1.32-0.22-2.86-0.66-4.18L762.99,491.83z M761.23,502.61h0.44l-0.44,0.22V502.61z
		 M762.55,502.83l0.44-0.66c1.54,1.1,2.86,2.2,4.18,3.52l-1.1,0.66c-0.22,0.66,0,1.32,0.22,1.76c-1.32-1.76-3.08-3.52-5.06-4.62
		L762.55,502.83z"/>
	<path class="st0" d="M698.53,589.73c0,11.44,9.68,21.78,21.56,21.78h1.54c3.52,6.82,10.78,11.66,19.14,11.66
		c3.96,0,7.92-0.88,11.22-2.86l2.64-1.54c6.16-3.74,10.56-10.78,10.56-18.7c0-1.54-0.22-3.3-0.66-5.06
		c6.16-3.74,10.12-10.56,10.12-18.26c0-1.76-0.22-3.52-0.66-5.28c0.88,0.88,1.98,1.54,3.08,2.2l1.32,0.66
		c-1.76,3.08-2.86,6.82-2.86,10.78v1.32c0.88,9.68,8.14,17.38,16.94,19.36c2.2,10.12,10.78,17.38,21.34,17.38
		c3.96,0,7.7-0.88,11-2.86l2.64-1.54c5.72-3.3,9.9-9.46,10.56-16.94l1.76-0.88h0.44l0.88-0.66l0.66-0.44l0.22-0.22
		c5.94-3.52,10.12-10.56,10.12-18.26c0-7.26-3.74-14.08-9.24-18.04c2.86-3.74,4.4-8.58,4.4-13.2s-1.54-9.9-4.84-13.86
		c-2.86-3.3-7.04-5.72-11.22-6.82c2.86-1.76,5.06-3.96,6.6-6.38c4.4-5.72,4.84-12.98,2.64-19.58l0.44-0.22l2.64-1.54
		c6.6-3.74,11-11,11-18.48c0-1.76-0.22-3.08-0.44-3.96c-1.76-9.46-9.24-16.5-18.48-17.82c0.22-1.1,0.22-2.2,0.22-3.08
		c0-8.14-4.18-15.84-11.66-19.58c-6.82-3.52-14.96-3.08-20.9,0.66l-2.42,1.1c-3.74-5.72-10.78-9.68-18.48-9.68
		c-3.96,0-7.7,0.88-11,2.86l-2.64,1.54c-1.1,0.66-1.98,1.32-2.86,1.98c-3.96-3.96-9.9-6.38-15.84-6.38c-3.74,0-7.92,0.88-11.22,2.86
		l-0.66,0.44l-0.22,0.22h-0.44l-0.88,0.66l-0.66,0.44l-0.22,0.22c-1.1,0.66-2.42,1.54-3.52,2.42c-2.64-1.1-5.94-1.76-9.02-1.76
		c-3.96,0-7.92,0.88-11.22,2.86l-2.64,1.54c-6.16,3.74-10.56,10.78-10.56,18.7c0,6.6,2.64,12.32,7.04,16.06
		c-4.4,3.96-7.26,9.9-7.26,16.28c0,6.38,2.86,12.32,7.26,16.28c-4.4,3.96-7.26,9.9-7.26,16.28c0,6.16,2.86,12.32,7.26,16.28
		c-4.4,3.96-7.26,9.68-7.26,16.28c0,6.6,2.86,12.32,7.26,16.28C701.39,577.19,698.53,583.13,698.53,589.73z M736.15,618.55
		l-0.22,0.66l0.22,0.22c-5.28-1.1-9.46-4.62-11.88-9.46h2.42l-0.66-1.32c2.2,4.4,5.94,7.92,10.78,9.68L736.15,618.55z
		 M761.45,605.13l-0.22-0.44l-0.66-0.22l-0.44,0.22c0.22-0.88,0.22-1.98,0.22-3.08c0-1.76-0.22-3.52-0.66-5.28l0.66,0.66h1.1
		l0.44-0.22c0.22,1.1,0.22,2.2,0.22,3.3C762.11,601.83,761.89,603.59,761.45,605.13z M770.91,582.03l-0.22-0.44l-0.66-0.22
		l-0.44,0.22c0.22-1.1,0.22-2.2,0.22-3.3c0-3.52-1.1-7.04-2.64-10.12l0.22,0.22l1.54,0.22l0.44-0.44c1.54,2.64,2.2,5.5,2.2,8.58
		C771.57,578.51,771.35,580.27,770.91,582.03z M772.67,565.75l1.76-0.88l-1.76-2.86c1.98,3.08,4.62,6.16,8.14,8.14l1.32,0.66
		l-0.88,1.54l-2.86-1.32C776.19,569.49,774.21,567.95,772.67,565.75z M792.25,601.61l-0.22,0.88c-7.26-1.98-12.76-8.14-13.42-16.06
		v-1.32c0-1.98,0.22-3.96,0.88-5.5l0.22,0.44l0.66,0.22l0.22-0.22c0,1.1-0.22,2.42-0.22,3.52v1.32c0.66,7.48,5.5,13.64,11.88,16.28
		V601.61z M808.97,618.55l-0.22,0.66l0.22,0.22c-7.04-1.76-12.1-7.48-13.64-14.96l1.98,0.44v-1.1c1.54,6.82,6.16,12.1,12.32,14.3
		L808.97,618.55z M834.27,605.13l-0.22-0.44l-0.66-0.22l-0.44,0.22v-0.66l1.76-1.1C834.71,603.59,834.49,604.47,834.27,605.13z
		 M849.01,581.37c0,1.76-0.22,3.52-0.66,5.06l-0.22-0.44l-0.66-0.22l-0.44,0.22c0.22-0.88,0.22-1.98,0.22-3.08
		c0-6.82-3.3-12.76-8.58-16.28l1.32-1.32C845.49,568.61,849.01,574.33,849.01,581.37z M840.21,538.47
		c2.86,3.08,3.96,7.48,3.96,11.66c0,1.76-0.22,3.52-0.66,5.06l-0.22-0.22l-0.66-0.22l-0.44,0.22c0.22-1.1,0.22-2.2,0.22-3.3
		c0-4.4-1.32-9.02-4.4-12.32c-2.42-2.86-5.5-4.84-8.8-6.16l0.44-0.22l0.22-0.66l-0.22-0.22
		C833.61,532.97,837.35,535.17,840.21,538.47z M838.01,515.81l-0.22-0.44l-0.66-0.22l-0.44,0.22c0.44-3.3,0-6.6-1.1-9.68l1.98-1.1
		C838.89,508.33,839.11,512.07,838.01,515.81z M837.35,465.87l0.22-0.66l-0.22-0.22c7.04,1.76,12.32,7.26,13.64,14.74
		c0.22,0.88,0.44,2.2,0.44,3.52c0,1.76-0.22,3.3-0.66,4.84l-0.22-0.44l-0.66-0.22l-0.44,0.22c0.22-0.88,0.22-1.76,0.22-2.86
		c0-1.54-0.22-2.86-0.44-3.52c-1.32-7.48-6.16-12.76-12.32-15.18L837.35,465.87z M818.65,439.91c1.54,0.44,2.86,0.88,4.18,1.54
		c6.6,3.3,9.9,9.68,9.9,16.94c0,1.54,0,2.86-0.44,4.4c-0.44-0.44-0.88-0.44-1.54-0.22l0.22-2.64c0-7.48-3.3-14.08-10.56-17.6
		c-0.66-0.44-1.32-0.66-1.98-0.88l0.44-0.22l0.22-0.66L818.65,439.91z M787.41,435.73l0.22-0.44l-0.22-0.66
		c4.62,1.1,8.58,3.96,11,7.92l-1.76,0.88l0.44,0.88c-2.42-3.74-5.72-6.82-10.12-8.36L787.41,435.73z M754.85,435.51l0.22-0.66
		l-0.22-0.22c3.52,0.88,6.82,2.64,9.24,5.28l-0.66,0.44l-0.44,1.32l0.44,1.1c-2.42-3.3-5.5-5.72-9.24-7.04L754.85,435.51z
		 M728.01,440.13c0.88,0,1.54,0.22,2.2,0.66l-1.54,0.88l-0.88-0.22l0.44-0.22l0.22-0.66L728.01,440.13z M713.27,444.75
		c2.2-0.88,4.62-1.54,7.26-1.54c4.18,0,7.92,1.1,10.78,3.96l3.96-2.42c1.32-2.42,2.86-4.18,4.62-5.5c2.2-0.88,4.84-1.54,7.48-1.54
		c7.26,0,12.98,3.74,15.62,10.56l4.62-2.64c1.32-3.08,2.86-5.06,5.28-6.6c1.76-0.88,4.18-1.32,6.82-1.32c8.8,0,14.96,5.5,16.72,13.2
		l4.62-2.86c1.1-1.32,2.2-2.42,3.3-3.3c4.84-2.2,9.9-2.2,14.74,0.22c6.16,3.08,8.8,8.36,8.8,14.96c0,2.42-0.22,4.62-2.42,8.58
		c10.78-1.98,18.92,3.3,20.68,13.2c0.22,1.1,0.44,1.98,0.44,3.08c0,5.5-2.42,9.9-6.82,12.98c-1.54,0.88-3.3,1.32-5.5,1.54l-4.4,2.64
		c4.84,6.38,5.5,13.42,0.88,19.58c-1.1,1.98-2.2,3.08-3.96,4.4l-0.44,0.22c-1.98,0.66-3.96,1.1-6.38,1.32l-4.18,2.42
		c0.66,0.88,0.44,1.32,0.44,2.42c-0.22,1.32-0.44,3.3,0.88,3.74c6.82-1.98,13.64-0.44,18.7,5.5c2.64,2.86,3.52,6.16,3.52,10.12
		c0,5.94-2.86,11.66-9.46,14.74c8.8,1.76,14.3,7.92,14.3,16.5c0,5.5-2.2,10.12-6.6,12.98c-1.1,0.66-2.2,0.88-3.96,1.54l-3.52,1.98
		v2.2c0,5.5-2.2,9.68-5.94,12.76l-1.54,1.1c-1.76,0.44-3.96,0.88-6.16,0.88c-9.46,0-16.28-6.82-16.5-16.94
		c-9.02,0-15.62-5.94-16.5-14.52v-1.32c0-4.62,1.76-8.36,4.18-11.22l0.44-1.1l-0.22-0.44l-0.66-0.88l-0.66-0.44l-4.4-1.98
		c-3.96-2.42-6.38-5.94-8.14-9.9l-4.4,2.64c-0.66,1.1-1.54,2.2-2.86,3.3h-0.22l-4.4,2.64c2.86,3.74,4.62,7.7,4.62,12.1
		c0,5.5-2.2,9.9-6.16,12.98l-0.44,0.44l-0.66,0.22l-3.96,2.2c1.32,2.64,1.76,4.84,1.76,7.48c0,5.72-2.42,10.34-6.82,13.2
		c-1.76,0.88-4.4,1.54-7.04,1.54c-8.36,0-14.52-5.5-16.28-13.64l-3.08,1.98h-1.32c-9.24,0-16.28-7.26-16.28-16.5
		c0-6.16,2.64-11,7.26-13.86l4.18-2.86c-7.04-2.86-11.44-8.36-11.44-16.06c0-5.5,2.2-9.68,5.94-12.76l0.44,0.22l0.22-0.88l1.76-1.32
		l1.32-0.44v-2.2c-5.94-2.42-9.68-8.58-9.68-15.18c0-5.72,2.64-10.56,6.82-13.64l1.98-0.88l-0.22-0.22l1.1-0.44v-2.2
		c-5.94-2.86-9.68-8.36-9.68-15.18c0-5.72,2.64-10.56,6.82-13.64l1.98-0.88l-0.22-0.22l1.1-0.44v-2.2
		c-5.94-2.86-9.46-7.7-9.46-14.96C706.67,452.23,709.09,447.61,713.27,444.75z M701.83,459.49c0-1.76,0.22-3.52,0.66-5.06l0.22,0.22
		l0.66,0.22l0.44-0.22c-0.22,1.1-0.22,2.2-0.22,3.3c0,6.16,2.42,11.22,6.6,14.74c-0.66,0.44-1.1,0.88-1.54,1.32
		C704.47,470.71,701.83,465.65,701.83,459.49z M701.61,491.83c0-1.76,0.22-3.52,0.66-5.06l0.22,0.22l0.66,0.22l0.44-0.22
		c-0.22,1.1-0.22,2.2-0.22,3.3c0,5.94,2.64,11.22,6.82,14.96l-1.54,1.32C704.25,503.05,701.61,497.77,701.61,491.83z M701.61,524.39
		c0-1.76,0.22-3.52,0.66-5.06l0.22,0.22l0.66,0.22l0.44-0.22c-0.22,1.1-0.22,2.2-0.22,3.3c0,5.5,2.64,11.22,6.6,14.96l-1.32,1.1
		C704.25,535.39,701.61,530.11,701.61,524.39z M701.61,556.95c0-1.76,0.22-3.52,0.66-5.28l0.22,0.44l0.66,0.22l0.44-0.22
		c-0.22,0.88-0.22,2.2-0.22,3.3c0,5.94,2.64,11,6.6,14.74l-1.54,1.32C704.25,567.95,701.61,563.11,701.61,556.95z M716.13,606.45
		l-0.66,0.44l-0.22,0.66l0.22,0.22c-8.14-1.98-13.86-9.46-13.86-18.04c0-1.98,0.22-3.74,0.88-5.5l0.22,0.44l0.66,0.22l0.22-0.22
		c-0.22,1.1-0.22,2.42-0.22,3.52C703.37,596.55,708.65,603.81,716.13,606.45z"/>
	<rect x="900.93" y="407.79" class="st0" width="23.98" height="24.64"/>
	<rect x="944.71" y="407.79" class="st0" width="23.98" height="24.64"/>
	<path class="st0" d="M875.19,451.13v94.38c0,41.8,22.22,63.14,59.62,63.14c37.18,0,59.84-21.34,59.84-63.14v-94.38h-23.32v91.08
		c0,32.12-12.76,46.86-36.52,46.86c-23.76,0-36.3-14.96-36.3-46.86v-91.08H875.19z"/>
	<rect x="1055.59" y="519.55" class="st0" width="64.24" height="1.32"/>
	<polygon class="st0" points="1055.59,467.41 1043.71,467.41 1043.71,519.55 1055.59,519.55 1055.59,511.63 1063.51,511.63 
		1063.51,475.33 1055.59,475.33 	"/>
	<polygon class="st0" points="1125.99,589.95 1125.99,600.51 1133.91,600.51 1133.91,608.43 1145.79,608.43 1145.79,582.03 
		1133.91,582.03 1133.91,589.95 	"/>
	<rect x="1063.51" y="511.63" class="st0" width="64.24" height="1.32"/>
	<polygon class="st0" points="1119.83,520.87 1119.83,531.43 1127.75,531.43 1127.75,539.35 1139.63,539.35 1139.63,512.95 
		1127.75,512.95 1127.75,520.87 	"/>
	<polygon class="st0" points="1055.59,532.75 1043.71,532.75 1043.71,588.63 1055.59,588.63 1055.59,580.71 1063.51,580.71 
		1063.51,540.67 1055.59,540.67 	"/>
	<rect x="1040.19" y="600.51" class="st0" width="85.8" height="1.32"/>
	<rect x="1032.27" y="608.43" class="st0" width="101.64" height="1.32"/>
	<rect x="1040.19" y="454.43" class="st0" width="82.94" height="1.32"/>
	<rect x="1032.27" y="446.51" class="st0" width="98.78" height="1.32"/>
	<rect x="1055.59" y="588.63" class="st0" width="70.4" height="1.32"/>
	<rect x="1063.51" y="580.71" class="st0" width="70.4" height="1.32"/>
	<polygon class="st0" points="1123.13,455.75 1123.13,466.09 1131.05,466.09 1131.05,474.01 1142.93,474.01 1142.93,447.83 
		1131.05,447.83 1131.05,455.75 	"/>
	<path class="st0" d="M1040.19,600.51V455.75h-7.92v-7.92h-11.88v96.96c-1.73,2.42-4.41,3.93-8.14,4.46
		c3.63,0.26,6.34,1.68,8.14,4.01v55.17h11.88v-7.92H1040.19z"/>
	<path class="st0" d="M1323.33,601.83c0.22-0.44,0.44-0.88,0.44-1.1c0-2.42,0-3.08-0.66-5.06c-0.22-0.22-0.22-0.44-0.44-0.44
		c-0.88-0.66-1.32-1.1-2.42-1.54c0-0.22-0.44,0-1.1-0.22c-1.32,0-1.76-0.22-2.64-0.66c-0.44-0.22-0.88-0.22-1.32-0.44
		c-1.32,0-2.64-0.66-4.18-1.32c-0.88-0.44-1.98-0.44-3.08-0.88h-0.44c-1.54,0.22-2.64-0.22-4.4-0.88h-1.54
		c-0.66,0-1.54-0.22-1.98-0.88c-0.44-0.22-0.66-0.22-0.88-0.44h-2.64c0,0-0.22,0.22-0.44,0.22v0.44c-0.88,0.66-1.54,1.32-2.86,1.76
		h-2.42c-0.44,0-1.1-0.22-1.32-0.22c-0.44-0.22-0.88-0.22-1.32-0.66c-0.22,0-0.88,0.44-1.54,0.44c-0.66-0.44-1.32-0.44-2.2,0.22
		c-0.22,0.22-0.44,0.22-0.88,0c-0.88-0.66-2.42-0.88-2.86-0.22c-0.66,0-0.88-0.44-1.32-0.44c-1.32-0.44-2.2-0.66-2.86-1.1
		c-4.62-1.32-3.08-1.1-8.8-1.1c-1.76-0.22-1.76-0.22-2.2,0.44c-0.88,0.22-0.88,0.22-1.32,0.44c-0.66,0.66-1.1,0.88-1.76,0.88
		c-1.54,0.22-1.98,0.44-2.42,0.88c-0.44,0.22-0.88,0.22-1.1,0.44c-1.32,0.22-2.2,0.22-3.08,0.88c-0.44,0.44-1.1,0.44-1.76,1.1
		c-0.66,0-1.1,0-1.54-0.22c0-0.44-0.44-0.44-0.88-0.66c-1.32-0.66-2.42-0.88-4.18-0.88c-1.76,0.66-4.18,0-5.94-1.32
		c0-0.22-0.44-0.66-0.44-0.66c-0.22-0.44-0.66-0.66-1.1-0.88c-1.76-0.22-2.86-0.88-3.08-1.54c-1.1-0.88-1.54-1.1-1.54-1.76
		c0-0.22,0-0.44,0-0.66v-1.32c0.44-0.44,1.54-1.1,1.54-1.76c0.88-1.54,1.32-2.86,1.32-4.4v-0.44c0-1.1,0-1.32,0.44-1.76
		c1.1-0.66,1.76-1.32,2.2-2.2c0.22-1.1,0.66-1.54,1.98-2.2c0.88-0.44,1.98-1.32,3.08-1.54c1.1-0.44,2.86-1.76,3.74-2.2
		c1.54-0.88,3.74-1.76,5.5-2.42h1.98c0.44,0,1.76-0.44,2.42-0.66c0.88-0.66,1.76-0.88,11.44-1.54c0.66-1.32,0.88-2.42,1.76-3.74
		c0.88-1.98,1.98-2.86,3.52-2.86c0.44,0,1.1-0.44,1.54-0.88c0.22-0.44,0.66-0.66,0.88-0.66c0.44-0.22,1.1-0.44,1.54-0.44
		c0.44-0.22,0.88-0.22,0.88-0.44c0.22-0.66,0.44-1.1,0.44-1.54c0.22-1.1,1.1-1.32,1.32-1.76c0.22,0,0.44-0.44,0.88-0.88
		c1.1-1.32,2.2-2.86,2.86-3.96c0.88-0.66,1.32-0.88,1.76-1.1c0.66-0.88,1.1-2.2,1.76-3.08c0.66-0.44,1.1-1.32,1.54-1.54
		c0.66-0.44,1.54-0.66,1.98-1.54c0.44-0.44,0.66-0.44,0.88-0.88c0.22-0.22,1.32-0.22,1.54-1.1c0.44-0.44,0.44-1.1,0.88-1.32
		c0.66-0.22,0.66-0.44,1.1-0.66c0.66-0.44,2.2-1.1,3.08-2.64c1.1-0.44,2.2-1.32,2.42-1.98c1.1-0.44,1.54-0.44,1.98-0.44
		c0.66,0.22,1.1-0.22,1.54-0.22h0.44c0.88-0.44,1.32-1.1,2.2-1.32c0.44,0,1.1,0,1.98,0.22c0.22-0.22,0.66-0.66,0.88-1.1
		c-0.22-0.44,0.22-0.66,0-1.1c0.22-0.22,0.22-0.66,0-1.1c-0.22-0.22-0.22-0.66-0.66-1.1v-1.1c0-0.44-0.22-1.32-0.22-1.98
		c0-0.44,0.22-0.88,0.22-1.1l0.88-0.88c0-0.22,0.22-0.88,0-1.1l-0.88-1.32c-0.44-1.1-0.66-1.76-0.66-3.08
		c-0.22-0.44-0.44-0.66-0.66-0.88c-0.66-0.22-1.1-0.88-1.1-1.32c-0.44-0.66-0.44-1.1-0.44-2.2c-0.44-1.32-0.44-2.42-0.44-3.96
		c0.22-0.66,0.22-0.88,0-1.32c0-0.22-0.22-0.66-0.44-0.88c0-0.66-0.22-0.88,0-1.32c-0.22-0.88-0.22-1.1-0.22-1.32v-1.54
		c-0.88-0.88-0.44-1.98-0.22-2.86c-0.22-0.44-0.22-0.66-0.22-1.32c0.22-0.22,0.22-0.88,0.22-1.1c-0.22-0.44-0.66-1.1-0.66-1.98
		v-2.86c0.44-0.88,0.66-2.2,0.66-2.86c0-1.32,0.22-1.98,0.88-3.52c0-0.44,0.22-0.66,0.22-0.88c0.22,0,0.22-0.22,0.22-0.44
		c0-1.54,0-3.3-0.44-5.06c0-0.22-0.22-0.22-0.22-0.44c-0.88-0.44-0.88-1.98-1.32-3.3c0-1.98,0.66-3.96,0.66-5.94
		c0.22-0.88,0.22-1.54,0.22-1.98c0.44-0.88,0.44-1.32,0.44-2.2c-0.22-1.1-0.22-2.2,0-3.3c0.22-0.66,0.44-1.98,0.88-3.3
		c0.22,0,0.44-0.44,0.44-0.66c0.22-0.44,0.22-0.66,0.66-0.66c0-0.22,0.22-0.44,0.22-0.88c0.22-1.1,0.88-2.64,0.88-3.96
		c0-1.1,0.22-1.54-0.44-1.98c-0.22-1.1-0.22-1.76-0.44-2.2c0.22-1.1,0.22-1.76,0.22-2.64c-0.44-1.54-0.44-2.64-0.44-3.96
		c0-0.66,0-1.54,0.22-1.76c0.22-1.32,0.22-1.98,0.22-3.3c0-1.1,0.44-1.98,0.88-2.42c0.22-0.44,0.88-1.32,1.32-1.98v-0.88
		c-0.66-0.66-1.32-1.32-2.2-1.32c-0.66,0-1.1-0.88-1.54-1.54c0,0-0.22-0.22-0.22-0.44c0-1.32,0-1.98-0.44-2.42
		c-0.22-0.66-0.22-1.1,0-1.54c0.22-1.54,0.44-3.08,0.88-4.62c0.22-0.66,0-1.32-0.44-1.54v-0.22c-0.44-0.22-1.1-0.44-1.98-0.66
		c-0.44,0-0.66,0.22-0.88,0.22c-0.88,0-1.98,0.22-2.86,0h-0.66c-3.3,0-2.86,0-6.6,1.32c-0.88,0.22-1.32,0.44-1.98,0.22
		c-0.44,0-1.1,0.22-1.54-0.22c-0.88-0.66-1.54-0.66-2.64-1.1h-0.88c-0.88,0.22-1.54,0.22-2.86,0.22c0,0.22-0.22,0.44-0.44,0.44
		c-1.1,0.44-1.54,0.66-1.98,0.66c-0.66,0.22-0.88,0.44-1.1,0.44c0-0.22-0.88-0.22-0.88-0.22c-1.54-0.44-2.64,0-4.4,0.66l-1.76,0.66
		c-0.44,0-1.1,0.66-1.1,0.88c-0.22,0.44-0.22,1.1-0.66,1.32c-0.66,0.44-1.1,0.88-1.76,0.66c-0.22-0.22-0.44-0.22-0.44-0.22
		c-0.88,0.22-1.76,0.22-2.42-1.1l-1.1-0.44c-0.22,0.22-0.66,0.22-1.1,0.22c-0.66,0.22-1.1,0-1.98,0c-0.66-0.22-1.54-0.22-2.2,0.22
		c-0.44,0.22-0.88,0.22-1.54,0.66c-0.44,0-1.54,0.44-1.76-0.22c-0.66,0-1.76,0-2.42,0h-0.88c-0.66,0.22-1.54,0.66-1.98,0.22
		c-1.76,0.66-2.42,0-3.52-0.44c-0.44-0.22-1.1,0-1.54,0.22h-0.22c-0.22,0.22-0.44,0.22-0.44,0.66c-1.1,0-1.32,0.22-1.76,0.66
		c-1.1,0.22-1.76,0.44-2.86,0.44c0,0-0.22-0.22-0.44-0.22c-0.66-0.22-1.1-0.44-1.32-0.44c-1.1,0-1.54,0-2.2,0.44
		c0,0.44-0.44,0.66-1.32,0.66c-0.44,0.66-1.1,0.88-1.32,1.32c0,0.44-0.44,0.44-0.44,0.44c-0.88,0-1.32,0-1.98,0.22
		c-1.32-0.22-2.86-0.66-4.4-1.32c-0.44-0.22-0.66-0.22-1.54-0.22c-0.66,0.22-1.32,0.44-1.98,0.44c-1.1,0.22-1.54,0.66-2.64,0.44
		c-0.66,0.44-1.54,0.66-1.98,0.66h-0.66c-0.22,0.22-0.66,0.66-1.1,0.66c-1.32,0.22-2.64,0.44-3.74,0.22c-1.1-0.22-1.32,0-1.54,0.22
		c-0.88,0.22-1.98,0.88-3.08,0.88c-0.66,0.22-1.32,0.66-1.76,1.1c-0.66,0.22-1.1,0.44-1.98,0.66c-0.22-0.22-0.44,0-0.44,0.22
		c-1.1,0.66-2.2,1.32-2.86,1.98c-0.22,0.44-0.66,0.44-1.32,0.44l-1.76-0.44c-1.32,0-2.42,0-3.96,0.88c0,0-0.88,0.44-1.32,0.44
		c-0.44,0.22-1.76,0.44-2.64,0c-0.44-0.22-0.88-0.22-1.32,0c-1.54-0.22-2.2-0.44-2.86-1.1c-0.22-0.22-0.66-0.22-0.88-0.22
		c-0.66,0.22-1.1,0-1.32-0.22c-0.22-0.22-0.22-0.22-0.66-0.22c-1.1,0.22-2.2,0.22-3.52,0.44c0,0-0.44-0.22-0.66,0
		c-0.88-0.44-2.2-0.44-3.3-1.1h-0.44c-1.1,0.88-2.42,0.22-3.08,0.22c-0.88-0.22-1.1-0.22-1.54,0c-1.1,0.44-1.98,0.22-2.86,0.22
		c-0.22,0.22-0.22,0.22-0.44,0.22c-0.66-0.22-1.32-0.44-1.76-0.22c-0.66,0.44-1.54,0.44-1.98,0.22c-1.1,0-1.54,0-2.64-0.22
		c-0.22-0.22-0.22-0.22-0.88,0l-0.22,0.44c-0.88,0.22-1.76,0.22-2.2,0.44c-0.22,0-0.44,0.66-0.66,1.54c-0.22,1.76,0,4.18,0,5.94
		c-0.22,1.98,0,4.4-0.22,6.16c0.22,0.88,0.22,1.98,0,2.42c0.22,2.2,0.44,4.18,0,6.38c0,0.22-0.22,0.44-0.22,0.66l1.54,14.74
		c0,0.88,0.88,1.98,1.32,2.42h0.22c1.32,1.32,2.42,0.88,3.74,0.66c0.88-0.44,1.32-0.88,1.76-1.1c0.44-0.22,1.32-0.66,1.54-0.66
		c1.1,0.44,2.42,0.44,3.08,0c0.88,0,2.2-0.22,2.64,0c0,0.88,0.66,0.66,0.66,0.88c1.32,0,2.42,0.22,3.52,0c0.88-0.22,2.2-0.44,3.3,0
		c0.44,0,0.88,0,1.54,0.22c0.44,0.22,1.1,0,1.98,0c0.88-0.22,1.76,0.22,2.86,0.44c0.66,0.22,0.88,0.44,1.54,1.1
		c1.32,1.32,2.86,1.54,4.4,1.98c0.44,0,0.44,0,1.32,0.22c0.88,0,2.2,0.22,3.52,0.88c0.44,0.22,1.1,0.44,1.76,0.44
		c0.44,0.22,1.98,0.66,2.42,1.1c0.88,0.22,2.2,0.66,3.3,0.88l1.1,0.22c0.66,0,1.1,1.1,1.54,0.66c0.88,0,1.54-0.22,1.76-0.88
		c0.88,0,1.54,0,2.64-0.22c1.32,0.88,2.64,0.44,4.18,1.54c0.44,0.44,1.54,0.88,2.42,1.1c0.66,0.44,1.1,0.66,1.98,0
		c0.44,0,0.44-0.22,0.44-0.22c0.44-0.22,1.1-0.44,1.98-0.44c1.32,0.22,2.2-0.44,3.74-0.44h0.88c0.66-0.44,1.32-1.1,1.98-1.98h1.32
		c0.66-0.22,1.32-0.22,2.42,0.22c1.32,0.44,2.42,0.44,3.3,0.44c0.66,0,1.1,0.22,1.54,0.22c1.1-0.44,2.2,0,3.74,0.44
		c1.76,1.1,3.52,1.54,5.28,2.86c0.44,0.22,1.54,0.44,2.42,0.22c0.88-0.22,1.32-0.44,1.98-0.44c1.1,0.22,1.98,0.22,2.64,0
		c0.88,0.22,1.76,0.44,2.64,1.32c0.22,0.22,0.66,0.44,0.66,0.88c0.66,1.76,0.88,3.52,0.88,4.62v1.76c-0.44,1.32-0.44,2.64-1.1,4.18
		l-1.32,4.62c-0.44,1.1-0.88,1.98-1.76,2.2c-0.66,0.44-0.88,1.1-1.54,1.98c0,0.22,0,0.88-0.22,1.1c-0.22,0.44-0.66,0.66-1.1,1.1
		c-0.44,0.22-0.66,0.22-1.54,0.44c-0.66,0.44-1.98,10.34-1.98,11c0,0,0,0.22,0.44,0.22c0.22,0.88,0.22,1.54,0.22,2.2
		c-0.22,1.1,0,1.76,0,3.3c0,0.22,0,0.66-0.22,0.88c-0.66,1.1-0.88,1.98-1.32,2.64c-0.44,0.66-0.44,1.1-0.44,1.54v0.66
		c0.44,0.44,0.44,0.88,0.22,1.1c-0.22,0.44-0.22,0.66-0.66,1.1c0,1.32-0.44,1.98-1.1,2.42c-0.88,0-1.1,0.22-1.32,0.88
		c0,0.44-0.44,1.1-0.88,1.76c-0.88,2.2-2.2,3.96-3.96,5.94c-0.22,0.44-0.66,0.66-1.1,1.54l-1.1,2.2c0,0.66-0.22,1.1-0.88,1.32
		c-0.44,0-0.66,0.22-0.66,0.88c-0.22,0.44-0.22,1.1-0.88,1.32c-0.44,0.66-0.88,1.32-1.76,1.98c-0.22,0.22-0.44,0.22-0.44,0.22
		c-0.66,0-1.54,0.66-1.98,0.88c-1.1,0.22-1.76,0.44-2.2,1.1c-0.44,0.66-1.32,1.1-1.54,1.54c-0.66,0.44-1.1,0.44-1.54,0.66
		c-0.66,1.54-1.1,1.98-2.42,2.64c-0.44,0.44-0.66,0.44-1.1,0.66c-0.44,0.44-1.1,0.66-1.54,0.66c-0.88,0.22-1.98,0.66-3.08,0.66h-1.1
		c-0.44,0.22-0.88,0.44-1.1,0.66c-2.2,0.22-2.2,0.44-4.18-1.32c-0.22-0.44-0.88-0.66-1.54-0.88c-1.32,0-1.98-1.32-3.52-1.76
		c-0.22,0-0.22-0.22-0.66-0.44c0-0.44-1.1-1.1-1.32-1.54c-0.88-0.44-1.32-1.32-1.76-1.54c-1.1-0.22-1.76-0.66-1.98-1.32
		c-0.66-0.88-1.32-1.1-1.76-1.1c-0.44-0.22-0.88-0.22-1.1-0.22c-0.44,0-1.1,0.22-1.54,0.44l-1.98,1.1
		c-0.66,0.66-1.76,0.66-2.86,0.66c-0.22-0.22-0.22,0-0.44,0c-1.32-0.22-2.42-0.22-3.08,0.22c-0.66,0.22-0.88,0.22-1.54,0.22
		c-0.22,0.22-0.66,0.88-1.1,1.1c-1.54-0.22-2.64,0.22-3.52,0c-1.32-0.44-2.64-0.22-3.52-1.1c-1.54-0.22-3.74-0.22-5.28-0.88
		c-1.1,0.22-1.76,0.22-2.42,0.22c-0.66,0.66-1.1,0.66-1.98,0.22c-1.1-0.22-2.42-0.22-3.08-0.44c-1.32-0.22-1.76-0.44-2.42-0.22
		h-0.88c-1.1,0.22-1.98,0.44-2.86,0.88v0.22c-0.44,0-0.66,0.22-0.66,1.1c0,0.66-0.22,1.76-0.22,2.64
		c-0.22,3.52-0.22,7.04-0.22,10.34v10.12c-0.22,3.3,0,7.26,0.22,11.22c-0.22,1.1-0.22,2.42,0,3.3c0,4.18-0.22,8.58-0.22,12.54
		c0,3.08,0,6.82-0.22,10.34c0,2.2,0.22,4.4,0,6.38c0,2.42,0.22,4.18,0.22,6.82l0.22,0.88c0.22,0.22,0.44,0.44,0.66,0.44
		c0.22,0,0.44,0.22,0.66,0.22c4.18-0.22,7.92,0.22,11.44,0.22c1.1-0.22,1.76-0.22,3.08-0.22h1.32c1.98,0,3.74,0.22,5.72,0.22h9.24
		c0.66-0.22,1.76,0,2.86-0.22c0.88,0.22,2.2,0.22,3.3,0c0.88,0.22,1.76,0,2.86,0.22c0.44,0,1.1,0,1.32-0.22
		c2.2,0.22,3.74,0.22,5.5,0c3.52,0,7.04,0.66,10.56,0.44c0.66-0.22,0.88-0.22,1.54,0h3.96c0.66-0.22,1.32,0,2.64,0
		c2.64,0,5.28,0.22,8.36,0.22c3.3-0.22,6.6-0.22,9.9,0c2.86,0,5.5,0,8.36,0.22c0.44,0.22,1.1,0.22,1.76,0
		c1.1,0.22,1.76,0.22,2.2,0.22c1.76,0,3.52-0.22,4.84,0c3.74-0.22,7.48,0,11,0c0.88-0.22,1.98-0.22,2.86,0l0.22-0.22
		c3.74,0,7.04,0,10.78-0.22c0.22,0.22,0.44,0,0.66,0.22c2.86,0,5.28,0.22,8.14,0.22c0,0,0.44,0,1.1,0h6.16c2.86,0,5.72,0,8.58,0
		h5.72c1.54,0,2.64-0.22,4.62-0.22c0.44,0,0.88,0,0.88-0.22c0.22,0,0.22-0.44,0.44-0.66c0.22-0.88,0-2.64-0.44-3.74
		c-0.22-0.44-0.22-1.1-0.22-1.54c0-2.2,0-4.18-0.22-6.16c0-1.1,0-2.2,0-3.3v-1.98c-0.66-1.32-0.44-3.52-0.66-5.06
		c0-0.44,0.22-0.66,0.66-1.32C1322.67,602.27,1322.89,602.05,1323.33,601.83z"/>
	<rect x="1351.27" y="451.13" class="st0" width="23.32" height="154"/>
	<path class="st0" d="M739.45,722.61c1.76-9.9-2.2-16.72-10.34-21.56c0-0.66,0-1.1,0.22-1.76c2.2-9.24,4.62-18.48,7.7-27.72
		c2.2-6.82,1.1-13.2-3.74-18.7c-1.76-1.98-3.96-3.74-6.16-5.72c3.74-1.76,7.7-3.96,12.1-6.16c-6.82-2.86-13.42-5.72-20.46-8.8
		c1.32,4.84,2.64,9.24,3.96,13.64h-1.32c-10.12-2.2-19.14,4.4-21.34,12.54c-2.42,7.92-4.62,15.84-6.82,23.76
		c-1.1,3.3-1.76,6.82-2.64,10.34h-1.76c-9.24-1.1-18.48-1.76-27.94-1.76h-15.4h-2.42c-0.22-0.66-0.22-0.88-0.44-1.32
		c-1.54-7.92-3.08-15.84-5.06-23.76c-1.76-7.48-8.14-13.42-15.84-14.3c-1.76,0-3.74,0-5.72-0.22l5.5-13.2
		c-7.26,2.2-14.08,4.4-21.34,6.6c4.18,2.86,7.92,5.28,11.66,7.92l-2.86,1.54c-6.6,3.74-11.66,12.54-9.24,21.34
		c1.54,6.6,2.86,13.2,4.18,19.8c0.66,3.96,1.76,7.7-0.44,11.44c-0.22,0.22-0.22,0.66-0.22,1.1c-0.22,0.88-0.22,1.98-0.44,2.86
		c-4.4-2.42-7.92-5.28-12.32-7.48c0.44,7.26,1.1,14.3,1.76,22c3.96-3.52,7.26-6.6,11-10.12c1.1,3.96,2.64,7.04,5.06,9.68
		c0.66,0.66,0.88,1.32,1.1,2.2c1.32,8.8,2.64,17.6,3.74,26.62c0.88,5.72,1.32,11.66,1.98,17.6c0.66,5.28,1.1,10.56,1.76,15.84
		c0.44,4.84,0.44,9.46,1.1,14.08c0.22,1.98,0.66,3.96,1.32,5.72c3.08,6.38,7.92,9.9,14.74,11.22l1.76,0.66
		c-1.54,1.76-2.86,3.52-4.18,5.06c-1.32,1.76-2.64,3.3-4.18,5.06c3.96,0.66,20.24,0.44,21.56-0.22l-8.36-10.34
		c0.88-0.22,1.32-0.22,1.76-0.44c9.24-2.2,15.18-10.12,14.52-20.24c-0.22-5.5-0.66-10.78-1.32-16.06c-0.66-7.26-1.32-14.3-2.2-21.56
		l-2.64-21.12c-0.44-2.86-0.66-5.94-1.1-9.02c11.66,0.22,23.1,0.22,34.76,1.76c-0.22,3.52-0.66,6.82-0.88,10.12
		c-0.44,6.16-0.88,12.1-0.88,18.26c-0.22,7.26,0.22,14.74,0.22,22c0,1.54,0,3.08,0.22,4.4c0.44,6.38,0.88,12.76,1.76,19.14
		c1.1,8.58,2.2,17.16,3.74,25.96c1.54,8.58,9.68,14.96,18.04,14.74h2.64c-1.76,4.4-3.74,8.36-5.72,12.76
		c7.48-1.98,14.3-3.96,21.56-6.16c-3.96-2.64-7.48-4.84-10.78-7.7c1.76-0.88,3.3-1.76,4.62-2.86c5.94-4.4,9.24-10.34,8.14-17.82
		c-1.32-8.58-2.64-17.16-3.74-25.52c-0.88-8.8-1.32-17.38-1.54-25.96c-0.22-9.24,0.22-18.48,0.88-27.72c0-2.42,0.44-5.06,0.66-7.48
		c6.16-1.54,10.78-5.06,14.3-10.56c2.2,4.4,3.96,8.36,6.16,12.54c3.52-6.6,6.6-12.98,10.12-19.8
		C748.91,720.85,744.29,721.73,739.45,722.61z M617.79,661.23c6.38-0.88,10.56,2.64,11.66,7.26l4.84,22.44
		c-1.76,0-2.86,0.22-4.4,0.22l-1.32-7.26c-1.1-4.62-1.98-9.02-3.08-13.64c-0.88-3.74-3.08-5.28-7.04-5.06
		c-1.54,0.22-2.64-0.44-2.86-1.76C615.59,662.55,616.47,661.45,617.79,661.23z M610.97,667.83c-1.32-0.22-1.98-0.88-1.98-1.98
		c0-1.1,0.88-1.98,1.98-1.98c1.32,0,2.2,0.88,2.2,1.98C612.95,666.95,612.07,667.83,610.97,667.83z M616.91,720.19
		c-1.1,0-1.98-1.1-1.98-2.2c0.22-1.32,0.88-1.98,2.2-1.98c1.1,0,1.98,0.88,1.98,1.98S618.01,720.19,616.91,720.19z M639.13,808.19
		c-1.54,0-2.42-0.66-2.64-1.54c-0.22-1.1,0.66-1.98,2.2-2.2c3.52-0.88,5.94-3.3,5.5-8.14c-0.66-5.06-0.88-10.34-1.54-15.62
		c-0.88-9.02-1.98-18.26-3.08-27.5c-0.66-7.04-1.76-14.3-2.64-21.34c-0.22-0.44,0-0.88,0-1.54h3.96c0.22,1.76,0.66,3.96,0.88,5.94
		c1.1,9.24,2.42,18.48,3.3,27.72c0.88,8.14,1.76,16.06,2.42,24.2c0.22,3.52,0.66,7.04,0.66,10.78
		C648.15,803.79,643.75,808.19,639.13,808.19z M687.97,705.23l-8.36-0.66c-4.4-0.44-8.58-0.66-12.98-0.88
		c-5.5-0.22-11-0.44-16.5-0.44c-6.16,0.22-12.1,0.66-18.26,0.88c-2.86,0-5.94,0.22-8.8,0.44c-3.08,0.22-5.06,2.2-5.28,5.28
		c-0.22,2.2-1.1,3.3-2.64,3.08c-1.32,0-1.98-1.32-1.76-3.52c0.44-4.62,4.18-8.36,8.8-9.02c1.76-0.22,3.52-0.44,5.28-0.44
		c4.84-0.22,9.68-0.44,14.52-0.44c4.84-0.22,9.68-0.44,14.74-0.22c10.34,0,20.9,0.66,31.46,1.76c0.22,0,0.44,0.22,0.66,0.22
		C688.63,702.59,688.41,703.91,687.97,705.23z M712.61,656.39c0-1.1,1.1-1.98,1.98-1.98c1.1,0.22,1.98,1.1,1.98,2.2
		c0,1.1-1.1,1.98-2.2,1.76C713.27,658.37,712.39,657.49,712.61,656.39z M716.79,718.87c-1.1,7.48-1.76,15.18-2.42,22.66
		c-0.44,6.6-0.66,13.2-0.88,19.8c-0.22,2.86-0.44,5.94-0.44,8.8c0.44,9.24,0.66,18.26,1.54,27.5c1.1,9.02,2.2,17.82,3.74,26.62
		c1.1,5.06-1.98,9.9-6.82,11.44c-0.66,0-1.1,0.22-1.76,0.22c-0.88,0-1.54-0.22-1.76-1.32c-0.22-0.88,0-1.76,1.1-2.2
		c0.22-0.22,0.66-0.44,1.1-0.66c3.08-1.1,4.62-3.52,4.18-6.6c-1.1-6.16-1.98-12.1-2.86-18.26c-0.66-4.18-1.1-8.14-1.32-12.32
		c-0.44-6.38-0.66-12.98-0.88-19.36c-0.22-4.4-0.44-8.8-0.44-13.2c0.44-11.44,1.1-23.1,2.64-34.54c1.76-14.3,4.4-28.38,8.14-42.24
		c1.32-5.72,3.08-11.44,4.84-16.94c1.32-3.96,0.44-6.38-3.3-8.36c-0.44-0.22-1.1-0.44-1.1-0.88c-0.22-0.66-0.44-1.54-0.22-1.98
		c0.22-0.44,1.1-0.88,1.54-0.88c0.66-0.22,1.32,0.22,1.76,0.44c3.52,1.32,6.16,5.28,6.38,9.02c-0.44,1.32-0.66,2.64-1.1,3.96
		C723.17,685.87,719.43,702.15,716.79,718.87z M729.11,720.41c-0.44,1.32-1.1,1.54-3.52,1.1c0-3.52,0.88-6.82,1.54-10.12
		C729.77,714.03,729.99,717.11,729.11,720.41z"/>
	<path class="st0" d="M809.19,661.23l-62.26,154h24.86l16.72-44.44h67.76l16.94,44.44h25.96l-62.48-154H809.19z M795.99,751.21
		l21.34-56.54c1.98-4.62,3.74-9.24,5.28-13.86c1.54,4.62,3.08,9.02,4.84,13.86l21.56,56.54H795.99z"/>
	<path class="st0" d="M1077.81,661.23h-23.32v125.61c-7.98-5.1-18.19-5.45-24.86-0.87c-3.74,2.42-6.6,7.92-10.34,9.9
		c-3.96,2.2-7.7,2.2-9.9-1.98c-1.98-3.52-4.18-14.74-13.86-10.34c-10.34,4.84,1.98,20.24-7.48,20.68c-5.06,0.22-5.5-5.28-5.5-9.68
		c-0.22-3.96-1.54-9.02-4.62-9.9c-2.64-0.66-5.06,2.64-5.72,5.72c-0.66,3.52-0.44,7.04-0.66,10.56c-0.44,3.52-2.42,7.04-5.06,7.26
		c-2.86,0-5.28-3.52-5.72-7.04c-0.66-3.74,0-7.26-0.66-10.78c-0.22-3.74-2.42-7.48-5.28-7.7c-2.2-0.22-3.96,2.2-5.5,4.18l-1.1,2.42
		c-0.22-0.44-0.22-0.88-0.22-1.32c-1.1-7.04,0.22-13.42,5.06-16.72c3.96-2.86,15.62-4.84,14.3-22.22
		c-1.54-18.7-20.46-0.22-18.04-16.94c1.32-8.58,7.04-8.58,11.22-7.92c3.96,0.44,9.24-0.88,11-5.94c1.54-4.62-1.1-9.46-3.96-11.22
		c-3.08-1.76-6.82-1.76-10.12-3.08c-3.3-1.1-6.16-5.28-5.5-9.9c0.88-5.28,5.06-8.58,8.58-8.8c3.96-0.44,7.26,1.54,10.78,0.88
		c3.96,0,8.14-3.08,9.24-7.92c0.88-3.96-0.88-7.48-2.42-10.34c-1.76-2.42-4.18-4.4-5.28-7.92c-1.1-3.08-1.98-5.72,1.54-10.78
		c5.06-7.48,4.84-24.2-3.08-27.28c-3.52-1.54-8.14,1.54-9.9,6.16c-3.08,8.36,1.98,18.92-2.64,25.74c-2.64,4.18-7.48,3.96-10.56,1.32
		c-3.08-2.86-4.84-7.04-7.48-10.56c-2.2-4.18-5.28-7.48-9.24-7.04c-3.08,0.66-6.16,3.96-7.48,8.14c-1.1,3.96-0.44,8.8,1.76,11.44
		c1.98,2.64,4.84,3.08,7.48,4.18c2.86,0.88,5.5,2.86,5.72,6.82c0.44,3.74-2.2,8.8-4.84,10.56c-4.4,2.64-6.6,2.2-11.66,1.32
		c-6.16-1.1-11.44,7.92-12.54,15.62c-1.32,7.92-0.88,20.9,5.72,22.88c11,3.52,12.1-2.86,14.3,5.72c2.2,7.04-2.64,15.84-7.92,19.36
		c-5.28,3.74-9.46,3.74-15.18,6.38c-4.62,2.64-9.24,7.04-12.1,13.2c-2.64,6.16-3.3,14.08-0.44,19.58c2.64,4.84,8.8,6.6,12.98,1.98
		c3.3-3.52,5.72-10.78,11.22-13.64c3.96-1.76,8.36,2.42,8.36,8.14c0.66,5.94-1.76,12.1-5.28,16.06c-3.3,4.84-7.04,7.48-10.56,11.44
		c-3.74,3.74-7.26,8.58-8.58,13.2c-1.1,5.5,1.98,11.88,7.26,13.86c5.28,1.76,11.88-0.66,14.3-5.72c1.76-3.08,1.98-6.6,3.3-11.44
		c0.66-2.2,1.98-4.4,3.3-5.94c1.98,0,3.74-1.1,5.72-1.76c2.64,1.54,3.3,7.04,2.2,11.88c-1.1,4.18-3.96,6.82-5.5,10.12
		c-2.64,3.96-3.52,10.12,0.44,12.76c2.2,1.54,5.5,1.32,8.58,0.44h0.22c2.42,0.44,5.06-1.1,6.16-3.74l0.66-1.76
		c2.86-3.52,4.62-8.36,5.72-13.64c1.76,0,3.74,1.54,4.84,3.52c1.98,3.74,1.98,5.94,1.98,11.22c0,6.16,5.5,9.9,9.9,9.68
		c4.62-0.22,11.66-2.64,12.1-9.46c0.88-11.44-2.86-11.66,1.76-15.18c3.74-3.3,9.02,0,11.66,4.4c2.64,4.62,2.86,8.8,5.06,13.86
		c1.98,4.18,4.84,7.92,8.58,9.68c3.52,1.54,8.14,0.66,10.78-3.08c2.64-3.3,2.86-9.68,0-12.98c-2.42-2.64-6.6-3.74-8.8-8.8
		c-1.32-3.52,0.66-8.58,3.74-9.68c3.3-1.54,6.82-0.22,9.46,2.42c2.86,2.42,4.84,5.72,7.26,8.36c2.64,3.08,5.5,5.72,9.46,6.16
		c5.5,0.22,11.22-3.96,12.32-9.46c0.88-5.5-2.64-11.66-8.14-13.2c-3.3-1.1-6.82-0.66-9.68-1.1c-2.42-0.66-5.28-3.3-5.28-6.6
		c0.22-3.52,3.52-5.72,6.6-5.28c3.08,0.44,6.16,2.64,9.68,3.74c1.95,0.78,4.25,1.21,6.38,1.07v11.03h102.52v-19.8h-79.2V661.23z"/>
	<path class="st0" d="M1292.09,681.25c8.58,14.96,13.64,34.32,13.64,56.98c0,22.88-5.06,42.02-13.42,56.76
		c15.62-13.64,24.42-33.44,24.42-56.76C1316.73,715.13,1307.93,695.11,1292.09,681.25z"/>
	<path class="st0" d="M1199.69,699.07c-12.32,7.7-17.82,21.34-17.82,39.16c0,18.04,5.5,31.46,17.82,39.16
		c-4.18-9.9-6.82-23.1-6.82-39.16C1192.87,722.17,1195.51,709.19,1199.69,699.07z"/>
	<path class="st0" d="M1191.55,691.81c-13.86,10.12-20.68,26.4-20.68,46.42c0,20.02,6.82,36.3,20.46,46.42
		c-5.94-12.1-9.46-27.72-9.46-46.42C1181.87,719.53,1185.39,703.91,1191.55,691.81z"/>
	<path class="st0" d="M1281.31,738.23c0-18.04-5.5-31.46-17.82-39.16c4.18,10.12,6.82,23.1,6.82,39.16
		c0,16.28-2.64,29.48-6.82,39.38C1275.81,770.13,1281.31,756.71,1281.31,738.23z"/>
	<path class="st0" d="M1179.89,687.41c-14.52,11.88-22.22,29.48-22.22,50.82c0,21.34,7.7,38.72,21.78,50.38
		c-6.82-12.98-10.78-29.92-10.78-50.38C1168.67,717.77,1172.85,700.61,1179.89,687.41z"/>
	<path class="st0" d="M1179.89,687.41c6.38-5.06,14.08-9.02,22.88-11.66c-4.18,4.18-8.14,9.68-11.22,16.06
		c5.06-3.74,11.44-6.82,18.7-8.58c-4.18,3.96-7.7,9.24-10.56,15.84c7.92-4.84,18.26-7.48,31.9-7.48c13.42,0,23.98,2.64,31.9,7.48
		c-2.86-6.6-6.6-11.88-10.56-15.84c7.26,1.76,13.42,4.84,18.7,8.8c-3.08-6.38-7.04-11.88-11.22-16.28
		c9.02,2.86,16.72,7.04,23.32,12.32c-4.84-9.02-11-16.28-17.82-21.78c10.12,3.52,18.92,8.58,26.18,14.96
		c-13.86-24.42-36.52-38.06-60.5-38.06s-46.64,13.64-60.28,38.06c7.26-6.38,15.84-11.44,25.96-14.96
		C1190.45,671.57,1184.51,678.61,1179.89,687.41z"/>
	<path class="st0" d="M1171.31,681.25c-15.84,13.64-24.64,33.66-24.64,56.98c0,23.54,8.8,43.34,24.42,56.98
		c-8.36-14.96-13.42-34.1-13.42-56.98C1157.67,715.57,1162.73,696.21,1171.31,681.25z"/>
	<path class="st0" d="M1283.95,788.39c-6.38,5.28-14.08,9.24-22.88,12.1c4.18-4.4,7.7-9.68,10.78-15.84
		c-5.28,3.74-11.44,6.82-18.7,8.58c3.96-3.74,7.48-9.02,10.34-15.62c-7.7,4.84-18.26,7.26-31.9,7.26c-13.64,0-24.2-2.64-31.9-7.48
		c2.86,6.6,6.38,11.88,10.34,15.84c-7.26-1.76-13.42-4.84-18.7-8.58c3.08,6.16,6.82,11.44,11,15.84c-8.8-2.64-16.5-6.82-22.88-11.88
		c4.62,8.8,10.56,16.06,17.16,21.34c-9.9-3.52-18.48-8.36-25.52-14.74c13.64,24.64,36.3,37.84,60.5,37.84s46.86-13.42,60.72-38.06
		c-7.26,6.38-15.84,11.44-25.74,14.96C1273.39,804.45,1279.11,797.41,1283.95,788.39z"/>
	<path class="st0" d="M1292.31,738.23c0-19.8-6.82-36.08-20.68-46.2c5.94,11.88,9.68,27.5,9.68,46.2c0,18.92-3.52,34.54-9.46,46.42
		C1285.49,774.53,1292.31,758.47,1292.31,738.23z"/>
	<path class="st0" d="M1283.73,688.07c6.82,12.98,11,29.92,11,50.16c0,20.46-3.96,37.18-10.78,50.16
		c14.08-11.44,21.78-28.82,21.78-50.16C1305.73,717.33,1298.03,699.73,1283.73,688.07z"/>
</g>
</svg>
