<?xml version="1.0" encoding="utf-8"?>
<!-- Generator: Adobe Illustrator 26.4.1, SVG Export Plug-In . SVG Version: 6.00 Build 0)  -->
<svg version="1.1" id="Ebene_1" xmlns="http://www.w3.org/2000/svg" xmlns:xlink="http://www.w3.org/1999/xlink" x="0px" y="0px"
	 viewBox="0 0 1920 1080" style="enable-background:new 0 0 1920 1080;" xml:space="preserve">
<style type="text/css">
	.st0{fill:#0000FF;}
</style>
<g>
	<polygon class="st0" points="410.79,515.31 410.67,515.21 410.67,515.43 	"/>
	<polygon class="st0" points="444.99,406.31 444.99,406.34 445.65,405.87 446.53,405.65 446.97,404.77 	"/>
	<polygon class="st0" points="367.77,446.13 367.99,446.13 368.65,445.47 	"/>
	<polygon class="st0" points="324.65,326.23 324.43,325.57 323.33,326.01 	"/>
	<path class="st0" d="M496.03,371.55v-2.64l-0.66-1.98l-1.1-3.08l-0.88-2.86l-0.88-1.54l-0.22-1.54l-1.1-1.54l-0.88-2.42l-0.66-1.98
		l-1.98-1.54l-1.32-1.54l-2.64-1.54l-3.08-2.64l-1.54-0.22l-2.42-0.88h-1.32l-1.76-0.44l-2.2-1.1l-3.08-0.22h-3.74l-1.76,1.1
		l-1.76-0.22l-2.2,0.44l-1.76,0.22l-2.42,0.44h-2.2l-2.42,1.76l-1.1,1.1l-2.42,1.1l-0.88,1.76l-1.98,2.2l-3.08,4.62l-1.32,2.86
		l-1.32,2.42l-0.66,1.98l-0.66,1.54l-0.44,1.54l-1.1,1.32l-1.32,2.2v2.42l-1.1,0.88l-0.44,1.98l-1.1,1.98l-0.66,2.64l-0.66,2.2
		l-0.88,2.2l-0.22,1.32l-1.1,1.1l-0.22,3.08l-0.22,1.54l-0.66,1.98l-0.22,1.1l-0.22,2.2l-0.88,2.64l0.44,1.32l-0.66,0.88l-0.22,2.86
		l0.44,3.3l-0.22,1.76l-0.66,2.2l-0.22,1.54l-0.44,2.64l0.22,1.98l-1.76,1.76l-2.2,0.88l-0.88,0.88l-1.54,0.88l-1.54,0.44
		l-1.54,1.32l-1.98,0.66l-2.2,1.1l-2.42,1.32l-1.32,0.88l-1.76,0.88l-1.76,0.22l-1.54,0.44l-2.42,1.1l-1.98,1.98l-1.98,0.88
		l-1.98,1.1h-1.32l-0.88,0.44l-0.88-0.22l-0.22-1.32l-0.66-3.08v-2.42l-1.1-1.32l0.44-1.32l-0.44-2.2l-0.22-1.76l-0.88-1.76
		l-0.44-2.42l0.22-3.3l-0.66-2.42l-1.1-0.88v-1.98l-0.44-1.54l-0.66-1.76l0.22-1.32l-0.66-2.2l0.22-2.42l-0.66-1.98l-0.88-1.54
		l-0.22-2.42l-1.32-3.08l-0.66-1.32l-0.44-2.42l-1.32-1.54l0.22-1.54l-0.88-2.2l-1.76-2.2v-1.32l-1.54-1.98l-0.22-2.2l-0.88-2.42
		l-0.88-1.98v-0.22l0.66-0.44l1.54-1.54l1.32-0.88l3.08-1.76l1.76-0.88l1.54-1.1l0.88-0.88l1.32-0.44l2.86-1.98l0.66-1.98l0.88-0.44
		l1.54-2.42l2.42-3.74l1.1-3.52l0.44-2.64v-2.86l-0.22-1.98l-0.66-2.86l-1.98-3.08l-1.98-2.2l-1.1-0.88l-1.1-1.32l-1.98-2.64
		l-1.76-1.1l-2.42-1.98l-2.42-1.1l0.22,0.22h-0.44v-2.2l1.76-2.2l1.98-3.74l0.44-3.3l0.66-2.64l-0.22-1.54l0.88-2.2v-6.16
		l-0.22-2.86l-0.66-3.08l-0.66-1.32l-0.44-2.64l-0.88-2.2l-0.44-1.98l-1.76-1.54l-1.1-1.98l-2.42-1.76l-1.1-1.1l-5.72-2.86
		l-3.08-0.88l-2.64,0.44l-1.98,0.22l-1.54,0.66l-1.76,0.22l-2.2,0.44l-1.32,0.66l-3.3,0.88l-2.64,0.66l-1.32,1.1h-1.1l-2.64,1.32
		l-1.54,1.1l-1.54,0.22l-1.1,1.54l-2.42,1.54l-1.54,2.42l-1.54,1.1l-2.64,2.64l-0.66,1.1l-2.64-0.22l-1.1-0.22l-2.2-1.1l-2.64-1.1
		l-1.54,0.22l-1.76-0.88l-2.64-0.44l-1.98,0.22l-0.88-0.88l-3.52,0.22l-2.2,0.22l-2.2-0.22l-3.74,1.1l-2.2,2.42l-2.86,1.54
		l-1.76,1.54l-0.66,1.76l-1.54,1.32l-2.2,2.42l-0.88,1.32l-1.32,2.42l-1.32,1.76l-1.32,2.2l-0.44,3.96v2.64l-0.66,1.76v2.64
		l-0.22,1.32v2.42l0.66,1.98l-0.44,1.76l0.44,2.2v0.22l-0.44,0.88l-1.54,1.32l-3.08,1.1l-1.76,1.54l-1.76,0.66l-2.2,2.2l-2.2,3.3
		l-0.88,2.42l-1.32,3.74v2.86l-0.22,2.64l1.1,1.98l0.44,1.1l0.22,1.98l1.1,2.42l0.66,1.54l0.88,1.76l1.54,1.54l2.42,3.08l1.54,2.2
		l1.54,1.54l2.2,1.32l1.76,0.66l1.1,0.88l2.2,1.98l1.32,0.66l3.08,0.88l3.08,1.76l3.08,0.66h1.76l0.44,0.88l0.44,1.32l0.66,2.64
		l0.88,1.1l-0.44,1.32l1.32,3.74l0.66,2.42l1.1,2.42l1.32,2.42l1.32,1.76l1.76,1.32l3.08,1.76l2.42,0.44l2.2,1.1l2.86,0.66l4.4,0.22
		l2.64-0.44l2.64,0.66l1.76-0.66l3.08-0.22l1.98-0.44l1.98-1.1l1.76-0.88l1.32-1.32l3.96-1.98l1.76-1.76l3.08-1.98l0.66-1.98
		l0.88-0.44l1.32-1.98l1.54-1.98l0.22-1.98l1.54-1.76l0.22-2.64v-1.32l0.22,0.44l0.22,1.1l1.1,1.76l1.1,1.54l0.44,1.32l-0.44,0.44
		l1.32,2.64l0.22,2.42l1.32,1.54l0.44,1.54l0.22,1.98l1.1,1.76v2.64l0.88,1.76l-0.22,1.98l1.32,1.98l0.22,0.88l0.44,2.2l0.44,1.98
		v1.98l0.66,2.64l1.1,1.54v3.52l0.44,1.54l0.44,1.76l-0.44,1.98l0.22,2.2l0.66,0.88v1.32l0.22,2.2l-0.22,1.32l0.88,2.86v2.42
		l-0.66,1.76l-0.66,3.08h-1.54l-1.54,1.54l-1.1,0.22l-1.76,1.54l-1.76,0.88l-1.1,0.88l-1.76,1.1l-1.32,1.1l-1.54,0.66l-1.98,0.66
		l-3.3,2.2l-1.1,1.1l-1.1,1.32l-1.32,1.1l-3.3,3.3l-0.88,1.1l-1.54,0.66l-1.54,2.2l-1.1,1.32l-1.54,3.08l-1.54,1.32l-1.32,1.76
		l-0.22,2.42l-0.22,1.32l-1.54,0.88l-0.66,2.86l-0.44,0.88l-0.66,1.76l-0.44,1.98l-1.32,2.42v1.98l-0.22,2.64l0.22,1.54l0.22,2.2
		l0.44,2.2v2.42l0.44,1.54l1.54,2.42l0.44,2.42l1.98,3.08l1.32,1.32l1.32,2.2l1.98,1.76l1.32,0.44l1.98,1.98l1.32,1.1l2.64,0.22
		l1.76,0.88l1.98,0.66l1.54-0.22l2.42,1.54l3.74,0.44l3.74-0.88l3.3-0.66l3.08-2.2l2.64-1.98l0.88-1.54l1.76-0.66l1.32-1.98
		l1.54-0.88l1.32-2.42l0.44-0.88l1.76-2.2l0.66-1.1l1.76-3.08l1.54-2.42l0.44-2.42l0.22-1.32l1.32-2.64l0.44-1.54l-0.44-1.98
		l0.66-1.1l1.32-3.08v-0.88l-0.44-2.64l0.88-1.32l0.44-1.98l-0.44-1.32l0.66-1.98v-1.54l0.66-1.98l0.22-2.2l1.32-2.64l0.22-3.52
		l-0.44-1.54v-1.54l-0.22-1.98l0.44-1.32l1.54-1.76l0.22-1.54l0.88-0.88l2.86-0.88l0.88-1.1h1.32l2.2-1.54l0.66-0.66l0.88-0.66
		l4.18-1.98l1.1-0.66l0.88,0.22l2.42-1.54l1.32-1.1l1.32,0.22l2.2-0.88l0.88-1.1l1.32-0.66l2.42-0.66l1.54-0.66l1.32-0.22v-0.44
		l0.66,1.76l0.44,1.32l0.44,1.98l-0.88,1.76l0.22,1.76v1.76l-0.44,2.42l0.66,1.32l-0.44,1.98l0.44,1.98l0.22,0.88l-0.66,1.76
		l0.22,2.2l0.22,0.88l-0.22,2.2l0.22,2.64l-0.22,2.86l0.44,0.66l-0.44,1.76l-0.66,1.98v2.2l0.22,1.54v1.32l0.22,1.76v2.2l-0.22,0.88
		l-0.66,1.54v2.42l0.22,1.98l-0.44,1.54l0.22,1.98l-0.22,2.42v1.76l-0.88,2.64l-1.76-1.32l-1.54-1.54l-2.64-0.88l-3.52-1.76
		l-2.2-0.22l-2.42-0.66h-2.42l-1.76,0.66h-1.54l-3.3,1.1l-2.64,1.32l-1.32,2.42l-1.54,2.2l-0.66,1.98l-0.88,1.98v5.94l0.88,3.3
		l0.66,1.1l0.22,1.76l0.66,2.42v1.32l0.88,1.32l0.22,1.76l1.32,1.32l0.22,1.98l0.44,1.98l0.88,2.64l1.32,2.42l1.32,1.98l2.42,2.2
		l1.98,1.98l1.76,0.66l2.2,1.98l1.76,0.66l1.54,1.76l2.86,1.76l3.08,1.54l0.88,0.88l2.2,1.54l0.44,1.1l0.44,1.76l0.22,1.1l0.22,1.76
		l0.22,1.98l0.22,2.42l0.44,2.2l-0.66,1.76v1.98l0.44,2.42l0.66,1.76l-0.22,0.88l-0.22,2.42l0.22,1.1v1.76l0.88,1.76l-0.44,2.2v1.54
		l0.88,2.42l0.88,3.52l1.98,2.42l1.54,2.2l2.42,1.76l3.74-0.22l2.42,0.44l3.52-2.2l2.2-3.08v-2.2l0.88-2.64l-0.22-2.42l-0.22-1.32
		v-1.98l-0.22-2.86l-0.44-1.54l0.22-3.3l-0.44-1.54l-0.44-1.76l0.22-1.98l0.22-1.32l0.44-1.76l1.32-1.1l1.76-1.76l1.98-1.76
		l1.32-0.88l1.1-0.88l1.54-1.54l1.54-1.1l1.32-0.66l0.66-0.88l1.32-0.88l2.2-1.54l0.88-0.88l2.2-1.32l1.98-1.54l1.54-1.54l1.32-1.54
		l1.76-0.66l1.32-2.2l0.88-1.1l1.98-1.1l0.88-1.54l1.54-0.88l1.54-1.98l0.88-0.88l0.66-0.44l2.2-1.76l0.66-1.98l2.2-2.86l0.66-2.86
		l1.76-2.2l0.22-1.32l0.44-2.86l0.66-1.54l0.22-1.32l0.66-2.64l-0.22-1.98l0.66-1.54v-1.98l-0.22-2.64l-0.44-1.98l0.66-2.42
		l-1.76-2.64l-0.44-1.76l-0.88-2.2l-2.64-1.1l-0.66-0.88l-2.64-2.86l-2.2-0.44l-2.42-1.32l-3.74-0.66l-1.98,0.44l-2.86-0.44
		l-5.72,2.2l-1.54,0.66l-1.76,0.22l-2.86,1.32l-1.98,1.76l-2.42,1.32l-2.2,0.88l-1.32,1.54l-1.54,1.32l-1.54,1.76l-1.32,2.64
		l-0.44,0.66v-0.66l-0.22-2.42l-0.44-0.88v-1.54l0.44-1.98l-0.44-1.54l-0.22-1.76l0.44-1.98l-0.22-1.98l0.22-1.32l0.22-1.98
		l-0.22-1.98l0.22-1.76v-2.64l0.44-2.86l-0.22-1.54l0.22-1.76l-0.44-1.54l0.22-1.54v-1.98l1.1-2.64v-1.54l0.22-2.64l-0.22-1.76
		l0.22-1.54v-4.84l0.22-2.2v-1.54l0.44-1.54l-0.44-3.08l-0.66-1.1v-1.1l0.44-1.76l-0.44-2.86l0.66-3.96l-0.22-2.86l0.22-0.66
		l0.66-0.66l0.44-1.54l1.54-0.88l2.2-1.54l1.76-0.88l0.88-1.1l1.98-0.44l1.54-0.88l0.66-1.54l1.1-0.22l1.98-1.32l1.54-1.1l1.1-0.22
		l1.54-1.32l1.32-0.22l1.76-1.54l2.42-1.76l2.2-1.1l1.32-0.44l1.98-1.32l1.54-1.1l1.54-1.54l0.88-1.1l1.32-0.88l1.1-1.1l1.76-1.32
		l1.1-1.76l1.32-0.88l1.54-0.88l1.98-2.86l0.22-1.32l0.88-1.1l1.32-1.32l0.66-1.32l1.32-1.1l1.32-3.3l1.32-2.64l1.1-2.42l0.44-2.2
		l-0.22-2.2l0.44-1.76l-0.44-1.32l0.44-1.98L496.03,371.55z M315.41,358.13l-3.08-0.44l-2.2,1.32h-1.1l-1.98,1.1l-2.42,0.22h-1.98
		l-2.2,0.22h-0.44l-1.76-0.88l-2.42-0.88l-1.1-0.66l-0.66-1.54l-1.76-0.66v-0.22l-1.1-1.98l-1.32-1.98l-1.1-1.1l-0.22-0.66l0.44-1.1
		v-0.44l0.44-0.44l0.66-0.44l1.98-0.22l1.76-0.44h2.42l2.64,0.22l1.76,0.22l1.98,0.66l3.08,0.22l1.98,0.22l1.98,0.44h3.3l0.88,0.66
		l0.66,1.32l0.88,2.2l1.54,2.86l1.54,1.76L315.41,358.13z M318.93,329.75l-1.32,1.54l-0.66,0.88h-0.44l-1.54-0.22l-2.2-1.1l-1.1-1.1
		l-1.54-0.66l-2.42-1.54l-1.54-0.88l-0.66-0.88l-0.66-1.76l-1.1-0.88l-0.22-0.88l-0.44-1.54v-1.54l-0.44-0.66l0.44-1.76l-0.22-1.32
		l1.1-1.98l0.66-0.88l0.66-2.42l1.1-1.32l1.76-0.88l1.98-0.66l1.1-0.66h0.88l0.88,0.22l0.88,0.66l1.98,1.1l1.76,0.88v0.66l1.76,1.98
		l0.88,2.2l0.22,2.2l1.32,0.66l0.22,1.1l0.88,2.42l0.66,2.42l0.88,2.42l0.88-0.44l-0.66,1.1l-0.88,1.1l-0.66,0.66l-1.32,0.22
		L318.93,329.75z M337.63,378.81l-0.66,1.32l-1.32,1.32l-0.66,1.54l-0.66,0.88l-0.88,0.88l-0.66,0.44l-1.76,0.66l-0.88,0.44h-2.42
		l-1.32,0.44l-1.1-0.66l-2.64-1.32l-0.88-0.66l-0.44-1.1v-1.1l0.22-1.54l0.44-2.2l1.1-1.1l1.1-1.76l0.22-1.32l0.88-1.76l0.88-3.3
		v-1.54l-0.41-3.51l1.73,0.87l1.76,0.44l3.08,0.22l0.88,0.88l1.54,1.1l0.66,0.66l0.44,2.42l0.88,1.1l0.88,1.32l0.22,0.88l-0.44,2.64
		L337.63,378.81z M355.01,316.11l-1.1,0.22l-1.76,0.66l-1.1,0.44l-1.76,0.88l-2.2,0.88l-1.1,0.66l-2.42-0.66h-0.44l-0.44-1.1v-4.18
		l0.44-1.76l0.88-1.76l0.44-1.54l0.66-1.54l0.44-1.98l0.22-1.32l1.76-1.76l1.76-2.2v-0.66l0.66-0.44l1.76-1.76l2.2-1.54l5.94-1.98
		l1.98-0.22l0.88,0.22l0.88,0.66l1.32,1.76v0.22l0.66,1.54v1.54l-0.88,3.96l0.22,1.76l-0.66,0.66v1.1l-0.66,1.32l-1.1,1.32
		l-0.88,0.66l-4.18,4.18l-0.88,0.66L355.01,316.11z M368.87,349.11l-0.66-0.22l-5.72,1.32l-1.32-0.44l-2.2-1.32l-0.22-0.44
		l-1.32-1.54l-0.66-0.44l0.22-1.54l-0.44-1.76l0.44-1.54l0.44-1.76l1.1-1.54l0.88-0.88l1.1-0.88l0.22-0.22l1.1,0.22h2.2l1.1,1.32
		h1.98l1.54,0.88h0.44l2.2,1.98l0.88,0.66l1.1,1.54l0.44,1.1l-0.44,0.66l-0.44,1.54l-1.98,1.32L368.87,349.11z M371.07,468.79
		l-0.88,1.76l0.22,1.98l-0.88,1.54l-0.44,2.42l0.22,1.76l-0.44,1.32l-0.44,1.76v1.54l-0.66,3.08l-0.44,1.98v2.2l-1.1,1.98l-0.88,2.2
		l-1.76,2.2l-0.44,1.76l-1.32,1.32l-1.1,1.76v0.22l-1.76,0.66l-1.76,1.32l-0.66,0.66l-0.88,0.44l-1.1-0.44l-1.98,0.22l-1.32-1.32
		l-1.1-1.32l-0.66-1.1l-0.66-0.88l0.22-0.66l-0.22-1.98l0.22-1.98l0.22-1.32l0.66-1.32l0.44-2.42l-0.22-1.76l0.88-0.66l0.66-1.98
		l0.44-0.88l0.88-1.1l0.88-2.2l1.1-1.76l1.98-1.76l1.32-1.32l0.66-1.32l1.1-0.66l1.76-1.54l1.32-1.1l0.88-1.1l0.88-0.66l1.54-1.32
		l1.32-1.1l2.42-1.1l0.66-0.44l0.44,0.66L371.07,468.79z M424.97,528.85l-0.44,1.98l-0.66,1.54l-2.42-0.44h-0.44l-0.44-1.1
		l-1.98-1.54l-1.76-1.54l-1.54-1.1l-0.44-1.76l-1.1-0.88l-0.66-0.66l-0.66-1.76l-0.88-1.54l-0.44-1.32l-0.66-1.54l-0.44-0.66v-0.44
		l0.44-0.66l0.22-0.22l0.66-0.44l-0.54,0.54l1.42,1.22l1.32,0.66l2.42,1.54l1.1-0.22l0.44,1.32l2.64,1.76l0.66,0.88l0.88,1.32
		l1.54,1.32l0.66,1.1l0.66,0.88l0.66,1.1L424.97,528.85z M452.47,532.59l0.66-1.54l0.66-2.42v-1.1l1.1-1.1l0.44-2.86l0.44-1.32
		l1.32-2.2l0.66-2.2l0.44-1.1l1.32-1.98l0.66-0.88l0.66-1.32l1.54-0.66l1.1-0.88l1.54-0.88l1.1-0.22l1.98-0.44h0.44l0.22,0.66
		l0.66,0.22v1.98l-0.22,1.54l-0.88,1.76l-0.66,1.76l-0.88,1.54l-0.22,1.32l-1.76,2.64l-0.66,0.88l-0.88,1.32l-2.2,2.42l-0.88,1.54
		l-1.32,0.66l-1.32,1.98l-0.44,0.44l-1.76,0.88l-1.32,0.88l-0.88,0.88l-1.18,0.53l-0.14-1.63L452.47,532.59z M477.55,378.59
		l-0.66,0.88l-0.44,1.98l-0.88,1.54l-1.1,1.1l-1.1,1.54l-1.1,1.98l-1.1,1.76l-0.88,0.66l-1.1,1.32l-1.98,0.88l-1.1,1.32l-0.88,0.66
		l-1.54,1.54l-0.88,0.22l-2.86,1.54l-3.52,2.86l-1.32,0.22l-1.76,1.32l-2.2,1.54l-1.1,0.88h-0.66l-2.42,1.1l-0.44,0.22l-1.32,2.64
		l-0.22-1.95l-0.88,0.63l0.88-0.66l-0.22-1.32l-0.66-1.32l0.44-1.1v-1.76l-0.44-1.76l0.44-1.1l0.88-1.76l1.1-2.64l0.22-1.98
		l-0.22-1.54l1.32-1.54v-1.54l0.22-2.2l0.66-1.54l0.22-0.88l0.88-0.66l1.32-2.42l0.22-1.54l1.32-1.54l0.88-1.76l-0.22-1.32
		l0.88-1.32l0.88-2.2l1.76-2.2l0.44-1.98l0.66-2.2l1.76-1.98l0.66-0.44l1.1-1.32l0.88-0.22l1.32-0.22l1.32-0.44h1.54l1.32-0.44
		l1.76,0.44l2.42,1.32l1.54,0.88l1.1,0.66l0.44,1.54l0.88,1.54l0.66,1.76l0.66,1.32l0.44,1.76v2.64l0.22,1.1l-0.66,2.2
		L477.55,378.59z"/>
	<rect x="514.51" y="366.05" class="st0" width="23.32" height="154"/>
	<path class="st0" d="M682.15,394.43c-0.22,6.6-0.44,13.86-0.44,20.9v104.72h23.54v-154h-31.68l-77.22,131.34
		c0.22-7.26,0.22-13.42,0.22-19.8V366.05h-23.32v154h35.2L682.15,394.43z"/>
	<path class="st0" d="M813.05,452.51c0,5.5-2.42,9.9-6.6,13.2c4.62,1.76,5.94,3.74,8.8,7.26l4.62-2.42
		c1.32-3.96,3.08-6.38,5.94-8.36c2.2-0.88,4.62-1.1,7.26-1.32l4.18-2.42c-1.1-2.42-1.98-5.06-1.98-8.36v-1.1
		c0.44-5.06,2.64-8.8,6.6-11.88l-0.22-0.66l1.1-0.66h-1.32l-0.22-0.66c-3.96-0.66-6.38-2.42-9.24-5.5
		c-2.2-3.08-3.52-5.94-3.52-10.34l-4.84,2.86l-0.44-0.22l-0.22,0.66l-0.88,0.66c-1.76,0.88-3.74,1.1-6.6,1.1l-3.3,1.98
		c-2.42,5.28-5.94,8.14-10.78,10.56C808.65,439.53,813.05,444.59,813.05,452.51z M813.49,466.37v-0.22l0.88,1.1L813.49,466.37z
		 M813.71,465.93l1.1-1.32l0.44,0.66L813.71,465.93z M831.53,454.49l-0.66,0.44c-0.22-1.1-0.44-2.2-0.44-3.3l0.22-1.76
		c0-1.32,0.22-2.42,0.66-3.52l0.22,0.44l0.66,0.22l0.44-0.22c-0.22,0.66-0.22,1.1-0.22,1.76c-0.22,0.44-0.22,1.1-0.22,1.54
		c0,1.98,0.22,3.74,0.66,5.5L831.53,454.49z M826.69,426.55v-0.44c0.66,1.98,1.76,3.74,3.08,5.28c1.54,1.98,3.3,3.74,5.5,4.84
		l-0.44,0.22l-0.88,1.1c-2.42-1.1-4.4-3.08-6.16-5.06c-1.1-1.54-2.2-3.08-2.86-4.84C825.59,427.43,826.25,426.99,826.69,426.55z
		 M817.45,430.73c1.76-0.22,3.3-0.66,4.84-1.32l2.86,4.84c1.76,1.98,3.74,3.96,5.94,5.28c-1.98,2.86-3.3,6.38-3.52,9.9l-0.22,2.2
		c0,1.1,0.22,2.42,0.44,3.74l-1.98,0.66l-1.1,0.66l-2.86,1.54c-0.88,0.66-1.98,1.32-3.08,2.2c1.32-2.86,2.2-6.16,2.2-9.46
		c0-6.38-2.86-12.1-7.04-15.84C815.25,433.81,816.35,432.27,817.45,430.73z M810.19,437.55l0.88-0.88c4.18,3.3,6.82,8.36,6.82,14.3
		c0,1.76-0.22,3.52-0.66,5.06l-0.22-0.44l-0.66-0.22l-0.44,0.22c0.22-0.88,0.22-1.98,0.22-3.08c0-6.16-2.64-11.44-7.04-14.96H810.19
		z"/>
	<path class="st0" d="M816.13,539.41c3.74,0,7.26-1.1,9.9-2.64l3.08-1.54c1.98-1.32,4.18-3.08,5.94-5.28
		c6.16,3.96,14.74,4.62,22.22,0.44l0.44-0.22c0.22-0.22,0.44-0.22,0.88-0.44l1.32-0.88c5.5-3.3,9.46-8.8,10.56-14.96
		c3.96,0.22,8.36-1.1,11.66-3.08l0.66-0.44c0.44,0,0.66,0,0.88-0.22l0.22-0.22l1.1-0.66c2.42-1.1,4.62-3.08,6.38-5.28l0.66-0.88
		l0.44-0.88c4.84-6.38,4.84-14.52,1.76-21.12l0.44-0.22l2.64-1.54c5.5-3.08,9.68-8.36,10.78-15.18c0.22-1.1,0.22-2.2,0.22-3.52
		c0-6.16-2.64-11.88-7.04-15.62c4.62-4.18,7.48-9.9,7.48-16.28c0-0.66,0-2.2-0.22-3.08c-1.1-7.7-6.38-14.08-12.98-16.94
		c1.32-2.86,2.2-6.6,2.2-9.68c0-4.18-1.32-8.36-3.74-12.32c-4.62-7.04-12.98-10.34-20.9-9.02c-0.44-7.92-5.06-15.18-12.54-18.48
		c-6.16-2.86-13.86-2.2-19.58,1.1l-1.32,0.88c-3.3-5.94-9.9-10.34-17.16-11.22c-4.62-0.22-9.02,0.66-12.54,2.86l-2.64,1.54
		c-0.88,0.66-1.98,1.32-2.86,2.2c-3.96-4.18-9.68-6.82-15.62-6.82c-3.74,0-7.7,0.88-11,2.86l-2.42,1.54
		c-1.98,1.1-3.52,2.42-4.84,3.74c-1.98-0.66-4.4-1.1-6.82-1.1c-3.74,0-7.48,1.1-10.56,2.86l-0.44,0.44l-0.66,0.22
		c-0.44,0.22-0.66,0.44-0.88,0.66l-0.44,0.22c-6.38,3.52-11,10.78-11,18.7c0,6.38,2.86,12.1,7.26,16.06
		c-4.4,3.96-7.26,9.9-7.26,16.06c0,6.38,2.86,12.1,7.04,16.06c-4.18,3.74-7.04,9.68-7.04,16.06c0,6.16,2.86,11.88,7.26,15.84
		c-4.4,3.96-7.26,9.9-7.26,16.28s2.86,12.1,7.04,16.06c-4.18,3.74-7.04,9.46-7.04,15.84c0,11.44,9.68,21.56,21.34,21.56
		c1.1,0,2.64,0,3.96-0.22c3.74,5.72,10.34,10.12,18.04,10.12c3.96,0,7.92-0.88,11.22-2.86l2.64-1.54c1.1-0.66,1.98-1.32,3.08-2.2
		C804.03,537.21,809.97,539.85,816.13,539.41z M842.31,528.63l-0.22,0.66l0.22,0.44c-2.2-0.44-4.4-1.54-6.16-2.86l1.54-1.1
		c1.54,1.1,3.3,1.98,5.06,2.64L842.31,528.63z M866.95,515.21l-0.22-0.44l-0.66-0.22l-0.44,0.22l0.22-1.1l1.76-0.88L866.95,515.21z
		 M892.69,494.97l-0.22-0.44l-0.66-0.22l-0.44,0.44c0.66-4.84-0.66-9.9-3.52-14.3c0.44,0.44,0.66,0.66,0.88,1.1l0.44,0.66l1.54,0.44
		l0.66-0.44C893.35,486.17,894.01,490.79,892.69,494.97z M905.23,460.65c0,1.32,0,1.98-0.22,3.08l-0.22,1.32l-0.22-0.22l-0.66-0.22
		l-0.66,0.44c0.22-0.88,0.22-1.76,0.22-2.86c0-5.94-2.42-10.78-6.6-14.3c0.66-0.44,1.1-0.88,1.54-1.32
		C902.81,449.87,905.23,454.93,905.23,460.65z M905.45,426.11c0.22,0.88,0.22,1.98,0.22,2.64c0,1.76-0.22,3.3-0.66,4.84l-0.22-0.44
		l-0.66-0.22l-0.44,0.22c0.22-0.88,0.22-1.76,0.22-2.86c0-0.66,0-1.98-0.22-2.86c-1.1-7.26-6.16-12.98-12.32-15.4h0.44l0.66-1.1
		C899.07,412.91,904.35,418.63,905.45,426.11z M880.59,381.89l0.22-0.66l-0.22-0.44c4.4,1.1,8.14,3.74,10.78,7.7
		c2.42,3.52,3.3,6.82,3.3,10.56c0,1.54-0.22,3.3-0.66,5.06l-0.22-0.44l-0.66-0.22l-0.44,0.22c0.22-0.88,0.22-1.98,0.22-3.08
		c0-3.74-1.1-7.48-3.52-11c-2.42-3.52-5.5-6.16-9.24-7.48L880.59,381.89z M856.83,362.09l0.22-0.66l-0.22-0.44l2.42,0.88
		c7.04,3.08,10.78,9.68,10.78,17.16v0.22l-1.76,0.44c-0.22-7.48-4.18-13.86-11.22-16.94l-0.66-0.44L856.83,362.09z M825.37,353.73
		c5.06,1.32,9.24,4.84,11.66,9.24l-1.54,1.1l0.44,1.76c-1.98-4.84-5.94-8.8-11-10.78L825.37,353.73z M793.25,354.39l0.22-0.66
		l-0.22-0.44c3.74,0.88,6.82,2.86,9.24,5.72l-1.76,0.88l0.88,1.54c-2.2-3.08-5.28-5.5-8.8-6.82L793.25,354.39z M768.39,360.33
		c0,0.22,0.22,0.22,0.22,0.22h-0.22V360.33z M742.87,379.91c0-1.76,0.22-3.52,0.66-5.06l0.22,0.44l0.66,0.22l0.44-0.22
		c-0.22,0.88-0.22,1.98-0.22,3.08c0,5.94,2.64,11,6.6,14.74l-1.54,1.1C745.51,390.69,742.87,385.85,742.87,379.91z M742.87,412.03
		c0-1.76,0.22-3.3,0.66-5.06l0.22,0.44l0.66,0.22l0.44-0.22c-0.22,0.88-0.22,1.98-0.22,3.08c0,5.94,2.64,11,6.6,14.52l-1.54,1.32
		C745.51,422.81,742.87,417.97,742.87,412.03z M742.87,444.15c0-1.98,0.22-3.74,0.66-5.5l0.44,0.66l0.66,0.22l0.22-0.22
		c-0.22,1.1-0.22,2.2-0.22,3.3c0,5.72,2.64,10.78,6.82,14.52l-1.54,1.1C745.51,454.71,742.87,449.87,742.87,444.15z M742.87,476.27
		c0-1.76,0.22-3.52,0.66-5.06l0.22,0.22l0.66,0.22l0.44-0.22c-0.22,1.1-0.22,2.2-0.22,3.3c0,5.72,2.64,10.78,6.6,14.52l-1.76,1.32
		C745.51,487.05,742.87,482.21,742.87,476.27z M756.51,525.11l-0.22,0.66l0.22,0.22c-7.92-1.98-13.64-9.24-13.64-17.82
		c0-1.76,0.22-3.52,0.66-5.06l0.22,0.22l0.66,0.22l0.44-0.44c-0.22,1.1-0.22,2.42-0.22,3.52c0,8.36,5.06,15.4,12.32,18.04
		L756.51,525.11z M778.73,535.01l-0.22,0.66l0.22,0.44c-4.62-1.32-8.36-4.18-11-8.14c0.66-0.22,1.32-0.22,2.2-0.44l-0.44-0.66
		c2.42,3.52,5.72,6.38,9.68,7.92L778.73,535.01z M798.31,524.67c-1.32,2.64-2.86,4.84-4.84,6.38l-1.1,0.66
		c-1.98,0.88-4.18,1.1-6.6,1.1c-7.26,0-12.76-4.4-15.4-11.22c-2.2,1.1-3.96,1.32-6.6,1.32c-9.24,0-16.06-7.04-16.06-16.28
		c0-5.5,2.42-9.9,6.38-12.76l0.22-0.22l5.28-3.08c-7.26-2.86-11.88-8.36-11.88-15.84c0-5.72,2.64-10.56,6.82-13.64l2.2-0.88
		l0.66-0.66v-2.2c-5.94-2.86-9.68-8.14-9.68-14.74c0-5.5,2.42-10.12,6.38-12.98l0.22-0.22l5.5-3.08c-7.04-2.2-12.1-7.92-12.1-15.84
		c0-5.28,2.42-9.9,6.16-12.76c0.22,0,0.44-0.22,0.66-0.44l1.76-1.1l2.86-1.54c-7.04-3.3-11.44-8.8-11.44-16.28
		c0-5.72,2.64-10.34,6.82-13.42c1.98-0.88,4.18-1.32,6.6-1.32c3.52,0,6.16,0.88,9.24,2.86l4.18-2.2c0.88-2.42,2.42-4.4,4.4-5.94
		l0.88-0.66c1.98-0.88,4.18-1.1,6.38-1.1c7.26,0,12.98,4.4,14.96,10.78l4.62-2.64c1.54-2.64,3.3-4.84,5.5-6.6
		c2.64-0.88,5.28-1.54,7.92-1.32c8.36,0.88,14.08,6.6,15.18,14.96l4.84-2.86c0.88-1.1,1.76-1.98,2.86-3.08l0.88-0.44
		c4.18-1.54,8.8-1.54,12.76,0c6.38,2.86,9.46,8.36,9.46,15.18v5.94c8.36-4.4,16.94-2.64,21.56,4.84c2.42,3.08,3.08,5.94,3.08,9.24
		c0,4.4-1.76,8.58-4.62,11.22l0.22,0.66l-0.88,0.66h1.1l0.22,0.88c7.48,0.66,13.86,6.16,14.74,14.3c0.22,0.44,0.22,1.32,0.22,1.98
		c0,5.94-2.64,10.12-7.26,13.64l-2.2,1.1h0.22l-0.88,0.44v2.2c6.38,2.86,9.68,7.7,9.68,14.52c0,1.32,0,1.76-0.22,2.64
		c-0.88,4.62-3.08,8.36-6.38,10.56c-1.98,0.88-3.74,1.32-5.72,1.54l-4.84,2.64c6.16,6.38,7.48,14.96,1.54,21.78l-0.22,0.88v-0.22
		c-0.88,1.32-1.98,2.42-3.08,3.3l-1.32,0.66c-4.18,1.76-9.02,1.54-13.42-0.88l-3.96,2.2c-0.44,1.54-0.22,2.86,0,3.74v0.66
		c0,5.28-2.42,10.12-6.82,13.42c-7.48,3.3-15.84,0.88-20.46-5.94l-4.4,2.64c-0.88,4.18-2.86,7.26-6.16,9.46
		c-1.76,0.88-3.74,1.32-6.16,1.32c-7.7,0.44-12.98-3.52-16.06-10.56L798.31,524.67z M810.63,534.79l-0.22,0.66l0.22,0.44
		c-3.3-0.88-6.38-2.86-8.8-5.5l1.76-1.1l-0.44-0.66c2.2,2.64,4.84,4.62,7.92,5.94L810.63,534.79z"/>
	<polygon class="st0" points="1036.79,500.25 954.51,500.25 954.51,450.97 1030.63,450.97 1030.63,431.17 954.51,431.17 
		954.51,385.63 1033.93,385.63 1033.93,366.05 931.19,366.05 931.19,520.05 1036.79,520.05 	"/>
	<path class="st0" d="M1041.63,443.93c0.44,0.22,0.66,0.88,0.88,1.54c0,0.66,0.22,1.76,0.66,2.42c1.54,4.84,3.74,9.9,6.82,14.08
		c4.4,6.82,11.22,10.78,18.92,13.2c2.2,0.44,4.4,1.54,6.82,2.2c0.66,0,0.66,0.22,0.66,0.88c0.22,4.62,0.22,9.02,0.44,13.64
		c0,2.2-0.22,4.4-0.44,6.6c-0.22,2.42-0.44,4.84,0,7.48c0.22,0,0.22,1.1,0.22,1.76l-0.66,9.9h-0.22c0.22,3.08,0.44,6.16,0.44,9.68
		c0,0.88,0.22,1.54,0,1.98c-0.44,2.42,0.44,5.06,0.66,7.04c0,0.66,0.66,1.76,1.76,2.64c0.88,1.1,2.42,1.98,4.18,1.98l2.86,0.44
		c4.62,1.32,9.02,1.32,13.42,2.64c0.44,0.44,0.88,0.44,1.54,0.44c0.22,0,1.1-0.22,0.88-0.22c2.64-1.1,4.18-3.74,3.3-6.38
		c-0.44-1.1-0.66-2.42-0.88-3.96c-0.22-2.86-0.44-5.94-0.44-9.02c-0.22-2.86-0.22-5.5-0.22-8.36c0-2.42,0.44-4.84,0.22-7.26
		c0-1.98,0.22-3.3,0.88-4.84c0.44-1.32,0.66-2.64,0.44-4.18c-0.88-1.98-0.66-4.4-0.66-7.04c0.22-3.74,0.66-7.26,0-10.78v-0.88
		c0-0.44,0.22-0.44,0.44-0.44h1.76c2.42,0,4.62,0,6.82,0c2.64,0,5.28,0.22,8.14-0.44c11-1.98,21.56-6.16,31.02-12.1
		c0.66-0.88,1.76-1.1,2.86-1.76c1.54-0.66,2.64-1.54,3.3-2.42c0.88-0.88,1.76-1.76,2.86-2.64c0-0.22,0-0.22,0-0.22
		c0.66,1.1,1.1,2.2,1.54,3.52c1.98,3.52,3.52,7.04,5.06,10.78c1.32,2.42,2.42,5.28,3.3,8.14c1.54,4.62,2.42,9.24,1.76,13.86
		c-0.22,1.98-0.22,4.18,0.44,5.94c0.88,2.42,1.54,5.06,1.54,7.7c0,0.88,0,2.42,0.22,3.3c0.44,4.18,1.1,8.14,0.66,12.54
		c0,1.54,0.22,3.08,0.44,4.62c0.22,2.2,0.44,3.96,0.22,6.16c0,1.1,0.22,1.76,0,2.42c-0.22,3.08,1.54,4.84,2.64,6.82
		c0.88,0.88,0.88,0.22,1.98,0.88h1.76c2.42-0.66,4.62-0.22,7.26,1.1c1.54,0.44,3.08,1.1,4.84,1.54c1.54,0.44,3.08,0.22,4.4-0.66
		c1.32-1.1,2.2-2.86,2.2-4.62c-0.66-5.72-0.44-11.44,0-17.6c0.22-3.08,0-6.6-0.88-9.46c-1.32-5.5-1.98-11-1.98-16.5
		c0-3.96-0.66-8.14-1.1-12.1c-0.88-5.72-1.54-12.1-3.3-17.82c-0.22-3.74-1.32-7.26-1.98-10.78c-0.66-2.86-1.76-5.94-3.08-8.8
		c-0.22-0.88-0.88-1.98-1.32-2.86c-0.22-0.88-0.22-1.1,0.44-1.54c1.76-1.32,3.74-2.64,5.5-4.62c3.96-4.62,7.7-9.68,10.56-15.18
		c-0.22-0.44,0.22-0.88,0.66-1.54l4.18-11.44c1.98-5.5,3.74-11,4.4-16.5c1.32-8.58,1.54-16.94-1.32-25.3
		c-1.54-4.18-3.3-8.58-6.38-11.66c-1.32-1.54-2.42-3.3-3.52-4.84c-1.1-1.76-2.64-3.52-4.4-5.06c-5.72-5.28-12.54-9.24-19.8-12.54
		c-2.42-1.1-5.28-1.76-7.92-2.2c-3.52-0.66-6.82-1.1-10.34-1.54c-6.82-1.1-13.86-1.54-20.9-0.66c-5.06,0.88-9.9,1.32-14.74,2.2
		c-4.4,0.66-9.02,1.98-13.2,4.62c-1.54,0.88-3.3,1.76-5.28,2.86c-3.3,1.98-6.82,4.18-9.68,7.04c-1.98,1.98-3.96,3.74-6.38,5.94
		c-1.76,1.76-3.74,3.96-5.06,5.94l-5.28,7.92c-1.1,1.1-1.98,2.42-2.64,3.96c-1.1,1.98-2.2,4.18-1.76,7.04
		c0.22,1.98,0.44,4.4,0.44,6.6c-0.22,1.32,0,2.42-1.1,2.42c0.44,0.44-0.22,0.44-1.54,0.66c-0.88,0.22-1.98,0.44-2.64,1.1
		c-1.1,0.66-2.86,1.1-4.18,1.98l-1.98,1.1c-3.74,1.98-6.82,4.4-9.9,6.6c-3.52,2.42-6.38,5.28-7.92,9.24l-3.74,7.7
		c-0.66,1.76-1.1,3.96-1.54,5.72c-1.1,4.84-0.88,9.24-1.54,13.64C1039.21,441.07,1040.09,442.83,1041.63,443.93z M1096.19,493.43
		c-0.22,2.42-0.44,4.4-1.32,6.38c-0.88,1.98-1.32,4.4-0.44,7.04c0.44,0.66,0.44,1.32,0.44,2.2c0,1.76,0,3.52,0.44,5.06
		c0.44,1.32,0.44,2.2,0.44,3.52c0.22,3.74,0.44,7.48,0.44,11.44v5.28c-0.88,0-1.54,0.22-1.98,0c-2.64-0.22-5.06-0.66-7.7-1.32
		c-0.88,0-1.1-0.22-1.1-1.1c-1.1-3.74-1.76-7.48-1.76-11.44v-3.52h0.22c0-2.64-0.22-4.18,0-5.72c0-1.32,0-2.86-0.44-4.18
		c-0.22-0.88-0.22-1.32,0.22-1.98c0.88-3.96,0.88-8.14,0.66-11.88c0-2.64-0.22-5.5,0.44-8.14c0.22-1.76,0.22-3.3,0.44-4.84
		c0-0.44,0-0.44,0.22-0.44c3.3,0.44,6.38,0.66,9.68,0.88c0.22,0.22,0.66,0.44,1.32,0.44
		C1096.63,485.29,1097.07,489.47,1096.19,493.43z M1189.03,488.37c0.88,6.16,1.76,12.1,1.54,18.26c0,1.54,0.22,3.3,0.44,4.4
		c0,0.88,0.22,1.54,0.22,1.98c-0.44,3.3,0.44,6.6,1.54,9.68c0.66,1.76,0.88,3.74,0.44,5.72c-0.22,3.52-0.44,7.04-0.44,10.56v1.76
		c0,1.32,0,1.32-1.32,0.66c-1.98-0.88-4.18-1.54-6.6-1.54c-0.66,0-0.88,0-0.66-0.88c0-0.66,0.22-1.32,0.22-2.2
		c0.44-1.76,0.88-3.52,1.1-5.28c0.44-1.98,0.22-3.96-0.22-5.72c-1.1-3.52-1.32-7.04-1.76-10.78c-0.44-4.18-0.88-8.58-0.22-12.54
		c0.22-2.64,0-4.84-0.66-7.04c-0.88-1.76-1.32-3.3-1.32-4.84c-0.44-2.42-1.1-4.62-1.98-6.6c-2.64-6.6-5.72-12.76-8.58-18.92
		c-3.52-6.6-7.04-12.98-10.56-19.36c-1.76-3.3-3.74-6.38-5.94-9.46c-1.32-1.76-2.64-3.74-3.74-5.5c-0.66-0.88-1.1-1.76-1.32-2.86
		c-1.1-2.64-2.64-4.4-4.84-6.16c-0.44-0.44-1.1-0.88-1.76-1.1c-2.86-1.98-6.38-3.74-9.24-5.5c-1.32-0.88-2.42-1.1-3.08-1.76
		c-2.2-1.54-4.84-2.64-7.26-3.08c-4.18-0.88-8.8-1.54-12.98-1.32c-0.44,0-0.44,0-0.44-0.22c-0.22-3.3-0.22-6.16-0.44-9.24
		c0-0.22,0-0.22,0.66-0.22c1.32-0.22,2.86-0.22,3.74-0.44c4.4,0.22,7.92,0.88,11.66,1.32c1.1,0.22,2.2,0.66,3.3,0.66
		c5.5,0.22,10.56,2.2,15.62,4.4c4.18,2.2,7.92,5.28,11.88,8.36c2.42,1.98,4.62,4.62,6.82,7.48c1.76,2.42,3.74,4.84,5.06,7.26
		c1.76,2.86,3.08,6.38,4.62,9.68c0.88,1.76,1.54,4.4,3.3,6.16c2.42,5.5,5.5,10.56,7.26,16.06c1.32,4.62,2.42,9.02,3.52,13.86
		C1187.49,478.69,1188.15,483.53,1189.03,488.37z M1110.71,429.19c-0.22-0.44-0.44-0.88-0.44-1.54c0-3.52,0-7.04,0.22-10.56
		c0-0.66,0-0.66,0.44-0.66c4.4,0,8.58,0.22,12.54,1.98c3.3,1.54,6.82,2.86,9.9,4.84c1.76,1.32,3.3,2.64,4.62,4.4
		c0.88,1.1,1.76,2.42,2.86,3.52c0.44,0.88,1.1,1.54,1.98,1.98c1.32,0.66,1.98,1.76,3.3,3.08c0.66,1.32,1.54,2.42,2.64,3.74
		l-0.22,0.44c-1.98,1.76-3.96,3.3-5.94,4.62c-2.64,1.32-5.28,2.64-8.14,3.52l-3.74,2.2c-3.08,1.76-6.16,3.08-9.46,3.08h-1.32
		c-1.98,0.88-3.74,1.1-6.16,0.66h-3.52c-0.66-0.22-0.66-0.22-0.66-0.88c0,0,0-0.22,0.22-0.44c0.66-3.74,1.1-7.7,1.32-11.66
		c0-1.32,0.44-2.86,0.66-4.4c0.22-1.1,0.44-2.64,0.44-3.74C1112.25,432.05,1112.25,430.51,1110.71,429.19z M1185.29,401.69
		c-1.1,3.3-2.64,6.6-3.96,9.68c-0.44,0.88-0.66,1.98-1.32,2.64c-1.76,2.2-3.3,4.62-4.84,6.82c-0.22,0.22-0.66,0.66-0.88,0.88h-0.22
		c-0.22-0.22-0.22-0.44-0.44-0.44c-2.2-3.08-4.4-5.94-6.6-8.8c-1.32-1.76-2.64-3.3-4.4-4.4c-0.88-0.66-1.98-1.54-2.86-2.42
		c-6.6-5.28-13.86-9.46-22.44-11.66c-3.52-0.88-7.26-1.54-11-1.98c-4.84-0.66-9.9-1.54-14.74-1.54h-1.54
		c-0.44-0.22-0.66-0.22-0.66-0.66c-0.22-0.88-0.66-6.6-0.44-7.26c1.32-4.18,2.86-8.36,6.82-11c0.88-0.66,1.98-1.54,2.64-2.42
		c3.74-3.3,7.92-5.72,12.32-8.14c2.86-1.32,5.94-2.42,9.24-3.08c1.76-0.22,3.52-0.44,5.28-0.88s2.86-0.22,4.62,0.44
		c1.32,0.88,3.08,0.88,4.4,0c1.1-0.44,2.2-0.44,3.3-0.22c4.62,0.44,8.36,1.76,11.88,3.96c5.72,3.52,9.68,7.7,12.76,13.42
		c2.2,4.4,3.52,9.24,4.4,14.3c0.22,1.32,0,2.86,0,4.4C1186.83,396.19,1186.17,399.05,1185.29,401.69z M1082.99,390.47v-5.28
		c0.22-1.32,0.88-2.86,0.66-4.62c-0.22-1.32,0.22-2.64,1.1-3.74l1.98-3.08c1.1-1.76,2.64-3.52,3.74-5.28
		c1.1-2.42,2.86-4.18,5.06-6.16l6.16-6.16c1.32-1.54,3.08-2.42,4.84-3.74c1.32-0.88,2.86-1.54,4.62-2.64
		c3.52-2.2,7.26-3.52,11.44-4.62c1.76-0.44,3.74-0.66,5.72-1.1c5.28-0.66,10.78-1.54,16.28-2.2c2.42-0.44,4.84-0.22,7.48,0.22
		c5.5,0.66,11,1.54,16.28,2.64c3.3,0.22,6.38,1.32,9.24,2.42c3.3,1.76,5.94,3.52,9.02,5.28c4.4,2.86,7.26,6.38,10.56,10.56
		l3.96,5.06c3.52,4.62,5.72,11.44,5.5,17.16c0.22,0.44,0.44,0.22,0.22,0.44c0.44,8.14-1.1,15.62-3.74,23.32
		c-1.1,3.74-2.64,7.26-3.96,11c-0.22,0-0.22,0.22-0.44,0.66c-0.44,4.4-3.3,8.14-5.94,11.88c-2.42,3.3-5.06,6.38-7.48,9.24
		c0,0-0.44,0.22-0.66,0.44c0,0,0,0,0-0.22c-1.98-2.86-3.74-5.72-4.62-9.02c-0.88-1.76-1.1-2.64,0.44-3.52
		c1.1-1.98,2.42-3.96,3.52-5.94c0.88-1.1,1.1-2.2,1.54-2.64c4.84-6.38,7.26-13.64,9.24-20.68v-0.88c0-4.4,0.66-8.8-0.22-13.64
		c-0.22-0.22-0.44-0.88-0.44-1.54c-0.66-5.72-3.96-10.34-6.16-14.96c-2.42-3.08-4.84-6.6-8.36-9.46c-3.08-2.64-6.6-4.84-10.34-6.6
		c-3.52-1.54-6.6-1.76-10.12-2.42c-2.86-0.44-5.72-0.88-8.8-1.54c-2.64-0.22-4.84-0.44-7.7,0.22c-2.2,0.88-4.4,1.1-6.6,1.76
		c-3.52,0.88-6.6,2.64-9.9,4.4c-5.94,3.52-11.66,7.7-16.72,12.32c-2.64,2.42-4.62,4.84-6.6,7.26c-0.44,0.44-0.88,1.54-0.88,2.42
		c-0.22,3.96-0.44,7.92,0,12.1c0.22,1.54,0.22,3.3,0,5.06c-0.22,0.88-0.22,2.2-0.22,3.3c0.22,3.3,0.44,6.6,0.22,9.9
		c-0.22,3.3-0.22,6.38,0.66,9.68c0,1.1,0.22,1.32,0,0.88c0,3.96-0.44,7.26-0.88,11c0,1.1-0.22,2.42-0.44,3.08
		c0,1.98,0,3.74,0.66,5.72c0.66,1.32,0.66,2.64,0.44,4.18c-0.44,2.42-0.66,5.06-1.1,7.92c0,0.87-0.43,1.74-1.08,2.82
		c-2.78-0.64-5.36-1.08-7.72-1.94c-2.2-0.66-4.18-1.54-6.16-2.42c-0.44,0-0.44-0.22-0.44-0.44c-0.22-2.86-0.66-5.5-1.1-7.92
		c-0.44-2.64-0.44-5.72-0.44-8.58c0-1.1,0-2.42,0.22-4.4c-0.22-2.64-0.22-5.94-0.44-9.9c-0.88-5.28-0.88-11.22-1.1-16.94
		c0-2.64,0.44-5.72-0.22-8.8C1082.77,391.35,1082.77,390.91,1082.99,390.47z M1076.64,443.93c-2.2-1.51-4.36-2.59-5.97-4.4
		c-2.86-2.64-4.84-5.72-4.84-9.46v-1.1c-0.88-3.3,0.22-5.5,2.86-7.26c1.1-0.88,2.2-1.54,3.74-2.2c0.66-0.44,0.66-0.44,1.1-0.44
		c1.76-0.22,1.98,0,2.2,1.32v7.7c0,0.88,0,1.76,0,2.64v6.82C1075.73,439.6,1075.74,441.85,1076.64,443.93z M1047.79,435.57
		c0.22-2.42,0.66-5.06,0.66-7.7c0.44-2.2,1.1-3.96,2.2-5.72c1.1-1.76,1.76-3.52,2.42-5.28c2.2-4.4,5.06-7.7,9.46-10.34
		c2.64-1.32,4.62-2.64,7.26-3.08c1.98-0.99,3.94-2.32,5.76-3.38c0.17,3,0.16,5.85-0.04,8.88c0,0-0.22,0.22-0.88,0.66
		c-0.44,0.22-0.88,0.44-1.76,0.66c-5.06,1.32-9.02,4.18-12.54,8.14c-0.88,0.66-1.54,1.54-2.2,2.64c-2.42,2.86-3.3,6.82-3.3,10.56
		c0,0.88,0.22,1.76,0.44,2.64c1.1,1.98,1.98,3.08,2.42,4.84c3.08,6.38,8.14,10.78,14.3,14.3c0.88,0.22,1.76,0.44,3.08,1.1
		c0.88,0.44,1.76,1.1,2.86,1.32c1.98,0.22,3.52,0.66,5.06,1.32c4.62,1.32,8.58,2.64,12.98,4.18c0.66,0.22,1.32,0.66,1.98,0.66
		c1.76,0.44,3.52,0.44,5.06,0.66c3.08,0.66,5.72-0.22,7.92,0.88h7.92c0.66,0,1.32-0.22,1.76-0.44c3.52-0.88,6.6-1.98,9.9-3.3
		c3.74-1.98,7.48-3.3,11-5.5c3.08-1.1,5.72-2.86,8.14-4.84c1.1-0.66,2.2-1.76,3.3-2.64h0.22c1.54,2.42,3.08,5.06,4.4,7.7
		c0.66,1.32,0.66,1.32-0.88,1.76c-1.54,0.22-2.86,1.32-3.96,1.98c-0.66,0.66-1.54,0.88-2.42,1.76c-4.4,3.96-9.68,6.38-15.18,8.58
		c-3.3,1.32-6.16,2.2-9.46,3.08c-4.62,1.32-9.24,1.32-14.3,1.32c-1.32,0-2.64,0-3.96-0.22c-1.98,0-3.52-0.22-5.28-1.1
		c-1.54-0.44-3.3-0.44-4.84,0c-1.98,0.66-4.18,0.22-6.6,0c-6.38-0.88-12.54-2.2-18.48-4.18c-3.96-1.32-7.7-2.86-10.56-5.94
		l-3.3-3.08c-3.52-4.4-6.16-9.24-7.48-14.96c-0.44-0.88-0.88-1.54-1.1-2.86c-0.22-1.54-0.88-3.3-1.98-4.4
		C1047.79,436.01,1047.79,435.79,1047.79,435.57z"/>
	<path class="st0" d="M1427.07,443.05c0-53.02-31.68-77-82.5-77h-49.28v154h52.58C1399.79,520.05,1427.07,489.69,1427.07,443.05z
		 M1318.61,500.25V385.63h26.4c39.6,0,57.86,20.9,57.86,57.42c0,40.26-22,57.2-57.2,57.2H1318.61z"/>
	<path class="st0" d="M1524.97,520.05l62.48-154h-25.96l-16.94,44.44h-67.76l-16.72-44.44h-24.86l62.26,154H1524.97z
		 M1537.29,430.07l-21.56,56.54c-1.76,4.84-3.3,9.24-4.84,13.86c-1.54-4.62-3.3-9.24-5.28-13.86l-21.34-56.54H1537.29z"/>
	<rect x="1477.23" y="538.75" class="st0" width="24.2" height="24.64"/>
	<rect x="1521.23" y="538.75" class="st0" width="23.98" height="24.64"/>
	<path class="st0" d="M619.45,576.15h-29.26l-54.12,56.32c-3.52,3.74-6.82,7.04-9.46,10.34v-66.66h-23.1v154h23.1v-58.3l11.22-11.66
		l60.28,69.96h31.24l-75.9-86.02L619.45,576.15z"/>
	<path class="st0" d="M663.23,590.45v76.78c0,18.04,4.84,30.58,16.94,37.4c-3.74-9.46-5.94-21.78-5.94-37.4
		c0,16.72,3.08,25.74,14.52,29.92c-2.2-7.48-3.52-17.38-3.52-29.92v-87.78h-11v11H663.23z"/>
	<path class="st0" d="M668.51,709.91c-4.4-9.9-6.6-22.88-6.6-39.38v-80.08h-11v-11h-11v91.08c0,19.8,6.6,35.64,19.8,45.76
		c-5.5-11.66-8.8-26.84-8.8-45.76C650.91,688.79,655.97,701.99,668.51,709.91z"/>
	<polygon class="st0" points="758.05,590.45 759.37,590.45 759.37,579.45 770.37,579.45 770.37,561.85 747.05,561.85 747.05,579.45 
		758.05,579.45 	"/>
	<path class="st0" d="M770.37,590.45h-11v80.08c0,16.28-2.42,29.26-6.6,39.38c12.32-8.36,17.6-21.56,17.6-39.38
		c0,19.14-3.3,34.32-9.24,46.2c13.64-10.34,20.24-26.18,20.24-46.2v-91.08h-11V590.45z"/>
	<path class="st0" d="M747.05,667.23c0,15.62-2.2,27.94-5.94,37.4c12.1-6.82,16.94-19.36,16.94-37.4v-76.78h-11v-11h-11v87.78
		c0,12.54-1.1,22.44-3.3,29.7C744.19,692.97,747.05,683.73,747.05,667.23z"/>
	<polygon class="st0" points="661.91,590.45 663.23,590.45 663.23,579.45 674.23,579.45 674.23,561.85 650.91,561.85 650.91,579.45 
		661.91,579.45 	"/>
	<path class="st0" d="M752.77,709.91c-5.06,3.3-11.22,5.72-18.92,7.26c2.86-3.3,5.28-7.48,7.26-12.54
		c-3.96,2.2-8.58,3.74-14.08,4.84c2.2-3.08,4.18-7.26,5.72-12.54c-5.28,1.98-12.54,2.86-22.22,2.86c-9.46,0-16.5-0.88-21.78-2.64
		c1.54,5.28,3.52,9.24,5.94,12.32c-5.72-0.88-10.56-2.64-14.52-4.84c1.98,5.06,4.4,9.24,7.26,12.76c-7.7-1.54-13.86-3.96-18.92-7.48
		c2.64,6.82,6.38,12.32,11,16.28c-7.7-2.2-14.3-5.5-19.8-9.9c10.34,21.56,28.82,31.68,50.82,31.68c21.78,0,40.26-10.12,50.6-31.24
		c-5.5,4.18-12.1,7.48-19.8,9.68C745.95,722.23,749.91,716.73,752.77,709.91z"/>
	<path class="st0" d="M989.71,575.27v-0.22h-8.36l-65.34,5.5l63.8,4.4l-63.8,5.28l63.8,4.4l-63.8,5.28l63.8,4.4l-63.8,5.28l63.8,4.4
		l-63.8,5.28l63.8,4.4l-63.8,5.28l63.8,4.4l-63.8,5.28l63.8,4.4l-63.8,5.28l63.8,4.4l-63.8,5.28l63.8,4.4l-63.8,5.28l63.8,4.4
		l-63.8,5.28l63.8,4.4l-63.8,5.28l63.8,4.4l-63.8,5.28l63.8,4.4l-63.8,5.28l63.8,4.4l-62.48,5.17v-5.61h-79.2v-134.2h-23.32v154
		h102.52v-4.31l64.02,4.31h8.36h1.32h8.36v-155.1h-8.36L989.71,575.27z M917.33,725.64v-9.48l62.48,4.31L917.33,725.64z"/>
	<path class="st0" d="M1093.77,643.47l-26.62-5.72c-17.16-3.96-26.62-10.34-26.62-23.1c0-13.42,14.08-22.44,32.78-22.44
		c22,0,34.76,11.66,35.86,28.38h23.98c-1.76-29.04-23.54-48.18-58.96-48.18c-33.22,0-57.64,18.48-57.64,44.22
		c0,23.98,19.14,37.84,42.9,42.9l24.2,5.28c17.82,3.74,28.6,10.34,28.6,23.98c0,16.06-13.86,25.3-36.08,25.3
		c-9.6,0-18.1-2.25-24.85-6.48c0.03-0.37,0.23-0.58,0.43-0.78c0.22-0.66,0.44-1.32,1.1-1.76v-0.22c0-0.22,0-0.22,0-0.44
		c-0.22,0.22-0.44,0.22-0.66,0.22c-0.22,0.44-0.66,0.88-0.88,1.54c-0.1,0.4-0.25,0.8-0.4,1.18c-9.11-5.88-14.91-15.43-15.66-28.02
		h-23.98c0.67,20.37,10.13,36.18,26.27,45.38c-0.1,0.13-0.2,0.27-0.31,0.39c-0.88,0.88-1.54,1.76-2.64,1.98l-0.22,0.22
		c-0.22,0.22-0.22,0.44-0.22,0.44h0.44h0.22c0.88-0.22,1.54-0.88,2.2-1.54c0.44-0.22,0.88-0.44,0.88-0.88
		c0.06-0.11,0.14-0.2,0.24-0.27c0.76,0.42,1.54,0.83,2.33,1.22c-0.05,0.12-0.1,0.24-0.15,0.37c-0.22,0.44-0.22,0.66,0,1.1
		c0.66,1.32,1.1,2.64,1.54,3.96c0.22,0.22,0.44,0.88,0.22,1.1c-0.22,0.44-0.22,0.66-0.22,1.1c-0.22,0.44-0.22,0.88-0.22,1.32
		c0,0.44-0.22,0.88-0.66,1.32c-0.22,0-0.22,0.22-0.22,0.44c0,0.22,0,0.44,0.22,0.44c0.22,0,0.44,0,0.66-0.22v-0.66
		c0.66-1.1,1.1-2.42,1.1-3.74c-0.22-0.22-0.22-0.66,0-0.88c0.44-0.22-0.22-0.66,0-1.1c-0.66-0.22-0.66-0.88-0.88-1.32
		c-0.22-0.44-0.22-0.88-0.44-1.32l-0.44-0.44c0.37-0.18,0.27-0.68,0.23-1.09c0.36,0.17,0.72,0.33,1.09,0.49c0,0.05,0,0.11,0,0.16
		c0,0.66,0.22,1.76,0.88,2.42c0,0.22,0,0.44,0.22,0.44c0.22,0.44,0.66,0.66,1.1,0.88c0.44,0.44,0.88,0.44,1.32,0
		c0.44-0.44,1.1-0.88,1.32-1.32c0.15-0.15,0.28-0.31,0.39-0.47c0.81,0.29,1.62,0.56,2.45,0.82c-0.17,0.84,0.05,1.67,0.68,2.3
		c0.22,0.22,0.44,0,0.44-0.22c0.22-0.22,0-0.22,0-0.44c-0.43-0.43-0.57-0.94-0.45-1.44c7.42,2.23,15.74,3.42,24.87,3.42
		c38.5,0,60.72-20.68,60.72-47.3C1136.23,662.17,1118.19,648.75,1093.77,643.47z"/>
	<path class="st0" d="M1088.93,618.61c0.66,0,1.32,0,1.54,0.22c0.44,0.22,1.1,0.22,1.54,0.44c0,0.44,0.66,0.44,0.88,0
		c0.66-0.22,1.32-0.66,2.2-0.88c1.1-0.44,1.98-0.66,2.86-0.66c0.22,0,0.22,0,0-0.22v-0.22c-0.44,0-1.1-0.22-1.54,0
		c-0.88,0.22-1.98,0.66-2.86,1.1c-0.44,0.22-0.88,0.44-1.54,0.22c-1.1-0.22-1.98-0.66-3.52-0.66l-0.22-0.22c0-0.22,0-0.44,0-0.66
		c0-0.22,0-0.44-0.44-0.44c-0.66,0-0.66-0.44-0.66-1.1c0-0.44,0-0.66-0.22-0.88c0-0.66-0.22-1.1-0.44-1.98v-0.88
		c0.44-0.44,0.44-1.1,0.66-1.54c0.44-1.1,0.44-1.76,0.88-2.42c0.22-0.22,0.22-0.66,0.22-1.1c0-0.22,0-0.22-0.22-0.22
		c-0.22,0.66-0.66,1.1-0.66,1.54l-0.66,1.1c0,1.1-0.22,1.54-0.66,1.98c-0.22,0.22-0.44,1.32-0.44,1.54
		c0.44,0.88,0.88,1.76,0.88,2.42c0,0.44,0.22,0.66,0.22,0.88v0.22h-0.22c-0.66-0.22-1.1,0-1.32,0.44c-0.22,0.22-0.66,0.66-0.44,1.32
		c0,0.44-0.22,0.22-0.44,0.22c-0.22,0.22-0.88-0.22-0.88,0.22c-0.88,0-1.32,0.44-1.76,1.32c0,0-0.22,0,0-0.44
		c0.22-0.44,0.22-1.32,0.44-1.98c0-0.66,0-1.54,0.44-2.42c0.66-0.44,0.88-0.88,1.32-1.32c0.22-0.66,0.22-0.88,0.22-1.1v-0.22
		c-0.22,0-0.22,0-0.22,0c-0.44,0-0.44,0.22-0.44,0.22c0,1.1-0.66,1.76-1.32,2.2c-0.22,0-0.22,0.22-0.22,0.44
		c-0.22,0.88-0.22,1.76-0.66,2.2c-0.22,0.22-0.22,0.66-0.22,0.88c0,0.66-0.22,1.54,0.22,2.2v0.22c-0.44,0-0.22,0.66-0.66,0.66
		c-0.44-0.44-1.32,0.22-1.54-0.88c-0.22-0.22-0.66-0.44-1.1-1.1l-1.76-0.66c-0.22-0.22-0.66-0.22-0.88,0
		c-0.88,0.22-1.76,0.66-2.2,1.32c-0.44,0.66-1.32,0.66-1.98,0.44c-0.44,0-1.1-0.22-1.54-0.44h-0.22c0,0.44,0,0.66,0.22,0.66
		c0.44,0,1.1,0.22,1.54,0.66c1.54,0.22,2.42-0.44,3.52-1.32c0.22-0.66,0.66-0.88,1.1-0.22c1.1,0.44,2.42,0.88,3.08,1.98
		c0.22,0,0.22,0,0.22,0.22h-0.22c-0.66,0-1.54-0.22-2.42-0.44c-0.44-0.22-0.66-0.66-0.88-0.22h-0.44c-0.22-0.44-0.22-0.44-0.44,0
		c0,0.22-0.22,0.22-0.22,0.22c-0.44,0.22-1.1,0.44-1.32,0.88c-0.44,0.66-0.66,1.1-1.54,1.32c-0.66,0.22-1.54,0.44-2.2,0.44
		c-0.22,0-0.44,0-0.44,0.22c0,0.22,0.22,0.22,0.22,0.44c0.22,0.22,0.44,0,0.66,0c0.88-0.22,1.32-0.44,1.76-0.66
		c0.88-0.44,1.76-0.66,2.42-1.32c0.22-0.66,0.66-0.88,1.32-0.66s1.76,0.22,2.64,0.66h0.44c0.22,0.22,0.66,0.66,0.44,0.88
		c-0.22,0.22-0.22,0-0.44,0s-0.44-0.22-0.88,0c-1.76,0.22-2.86,1.1-3.96,2.64c-0.44,0.88-0.22,1.98-0.22,3.08v0.22
		c0.22,0.22,0.66,0.66,0.88,0.88c0,0.22,0.22,0.22,0.22,0.22c0.66,0,1.54,0.22,2.42,0c0.44-0.22,1.1-0.44,1.54-0.88
		c0.44-0.44,1.1-0.66,1.1-1.54c0-0.22,0.22-0.44,0.22-0.66c0.44-0.22,0.44-0.44,0.44-0.88c0.22-0.66,0.22-1.32,0.22-1.76
		c0,0,0.22-0.22,0.44-0.22c-0.22,0.22,0.44,0.44,0,0.66c-0.22,0.88-0.22,1.32-0.22,2.2c0,1.54-0.22,2.64-1.1,3.3
		c-1.32,2.42-1.32,2.42-1.98,5.06c0,0.66-0.22,1.32-0.44,1.98c-0.22,0.44-0.88,1.1,0,1.32c0.22,0-0.22,0.66,0.22,0.44
		c0.22,0,0.22-0.22,0.22-0.44v-0.22c0-1.1,0.44-1.76,0.88-2.42v-0.66c0.22-1.32,0.44-2.2,0.88-3.08c0.22-0.44,0.44-0.66,0.44-1.32
		c0.44-0.22,0.66-0.44,0.66-0.88c0-0.22,0.44-0.44,0.66-0.66c0,0,0-0.22,0.22-0.44c0-1.32,0.22-2.42,0.44-3.74v-1.54
		c0.44,0.22,0.88,0.44,1.1,0.66c0.66,0.22,1.1,0.44,1.32,0.88c0.44,0,0.44,0.22,0.44,0.66c0,0.88-0.22,1.32-0.22,1.98
		c0,1.1,0.44,1.76,0.44,2.64c0.22,0.44,0.44,1.1,0.44,1.32c0.22,0.88,0.88,0.88,0.66,1.54c0,0.22,0.22,0,0.66,0
		c0.22,0,0.44-0.44,0.22-0.66c-0.22-0.22-0.88-0.22-0.88-0.44c-0.22-1.1-0.66-1.76-0.66-2.42c0-1.32-0.22-3.08,0-4.62
		c0-0.44,0-0.88-0.44-0.88l-0.66-0.44c-0.22-0.22-0.88-0.44-1.32-0.66c-0.22,0-0.22,0-0.44-0.22s0-0.44,0.22-0.66
		c0.22-0.22,0.66,0,0.88,0c1.1,0,2.2,0,3.3-0.66c0.44-0.44,0.88-0.66,1.54-0.44c0.66,0.22,1.76,0,2.2,0.22
		c0.44,0,0.44-0.22,0.44-0.44c0.22-0.22,0-0.22-0.22-0.22h-0.44c-0.44,0-1.32,0-1.54,0c-1.32-0.66-2.2,0-3.52,0.22
		c0,0.22-0.22,0.22-0.22,0.22v-0.22c0.22-0.44,0.44-0.88,0.66-1.32c0.22-0.22,0.22-0.22,0.44-0.22c0.88,0.22,1.32-0.44,1.76-0.88
		c0.44,0,0.22-0.22,0.22-0.44C1088.27,618.39,1088.49,618.39,1088.93,618.61z"/>
	<path class="st0" d="M1227.09,615.31h0.88c0.88,0,1.76,0,2.42-0.44c0.22,0,0.44,0,0.66-0.22c0.44-0.22,0.88-0.22,1.32-0.66
		c0.44-0.22,0.66-0.44,1.1-0.44c0.44,0,0.66,0,1.1-0.22c0.44,0,0.88,0,1.32-0.22c0.44,0,0.66,0,1.1-0.22c0,0,0.22-0.22,0.22-0.44
		c0,0-0.22-0.22-0.44-0.22h-0.22c-0.44,0-0.66,0-0.88,0.22c-0.44,0-0.66,0-0.88,0l-2.2,0.66c-0.22,0.22-0.44,0.22-0.44,0.22
		c-0.22,0-0.44,0.22-0.66,0.44c-0.22,0-0.44,0.22-0.66,0.22s-0.22,0.22-0.44,0.22c-0.44,0.22-0.88,0.44-1.32,0.44
		c-1.1,0-2.2,0-3.52,0.44c-0.44,0.22-0.66,0.44-0.88,0c0-0.22-0.22-0.22-0.22-0.22c-0.22,0-0.22-0.22-0.22-0.44v-0.22
		c0,0,0-0.22,0.22-0.44c0-0.66,0.22-1.32,0-1.98c0-0.44,0-0.88,0.22-1.32c0.22-0.22,0.44-0.66,0-0.88h0.22
		c0.44-1.1,0.88-1.98,1.1-3.08c0.22,0,0.22-0.22,0.22-0.44c0.44-0.88,0.66-1.98,0.66-3.3c0-0.22,0-0.22-0.22-0.44h-0.22
		c-0.22,0-0.44,0.22-0.44,0.44s0,0.44,0,0.66v0.44c-0.22,1.76-0.88,3.3-1.76,5.06c-0.22,0.44-0.22,0.88-0.44,1.32
		c0,0.66,0,1.1,0,1.76v2.2v0.22c-0.22,0.22-0.22,0.22-0.44,0.22c-0.66,0-1.32,0.22-1.76,0.22c-0.44,0-0.66,0.22-0.88,0.66
		c-0.22,0.66-0.44,1.1-0.22,1.76v0.22h-0.22l-0.22-0.22c-0.22-0.22-0.44-0.44-0.44-0.66h-0.22c-0.22-0.44-0.44-0.66-0.66-0.66
		c-0.22,0.22-0.44,0.44-0.66,0.88l-0.66,2.2l-0.22,0.66v0.22c0.22,0.22,0,0.44-0.22,0.44s-0.44,0.22-0.44,0.22
		c-0.22,0-0.22,0.22-0.22,0.22h-0.22c0-0.44,0-0.88-0.22-1.32c0-0.66-0.22-1.54-0.22-2.42c0-0.22-0.44-0.66-0.66-0.88
		c-0.44,0-0.88,0-1.1,0.22c-0.22,0-0.22,0-0.44,0.22c0,0.22-0.22,0.22-0.22,0.22c-0.22,0.22-0.44,0-0.44,0h-0.66
		c-0.22,0-0.22,0-0.44-0.22c-0.44-0.44-0.66-1.1-0.88-1.98c0,0,0,0,0-0.22l-0.22-0.22l-0.22,0.44v0.22
		c0.22,0.88,0.44,1.54,0.88,1.98c0.44,0.44,0.88,0.66,1.32,0.66c0,0.22,0.22,0.22,0.22,0.22c0.44,0,0.88-0.22,1.1-0.44
		c0.44-0.22,0.66-0.22,0.88-0.22l0.22,0.88c0,0,0,0.22,0,0.44v1.54c0.22,0.22,0.22,0.66,0.22,1.1v0.22c0,0,0,0-0.22,0.22v-0.22
		c-0.44-0.22-0.88-0.44-1.32-0.44c-0.22,0-0.44-0.22-0.44-0.44l-1.98-2.2c-0.22-0.22-0.44-0.44-0.66-0.44s-0.44,0.22-0.44,0.22
		h-0.22c-0.66,0-1.1,0.22-1.54,0.44c0,0,0,0.22-0.22,0.22l-1.1,0.44c-1.54,1.1-3.3,1.98-5.06,2.86h-0.22c-0.66,0-1.1,0-1.76,0h-0.88
		c-0.22,0-0.22,0-0.44,0l-0.22,0.22c0,0.22,0.22,0.22,0.22,0.22h0.22h0.22h2.64c0.22-0.22,0.44-0.22,0.66-0.22l0.66-0.44
		c1.1-0.44,1.98-1.1,3.08-1.32l2.64-1.32c0.22-0.22,0.66-0.22,0.88-0.44h0.44c0.44,0.22,0.88,0.66,1.1,1.32l0.44,0.66
		c-1.32,0.22-2.42,0.88-3.3,1.54c-0.66,0.22-0.88,0.66-1.1,1.32c-0.44,0.66-0.44,1.54-0.66,2.42c0,0.44,0,0.66,0.44,0.88
		c0.22,0,0.44,0,0.44,0.22c0.22,0,0.44,0,0.66,0.22c0.88,0,1.54,0.22,2.42,0.22h0.44v0.22c-0.44,0.66-1.1,1.32-1.54,1.98l-0.22,0.22
		c-0.22,0.22-0.22,0.44-0.44,0.66l-1.98,1.54c-0.22,0.22-0.44,0.44-0.66,0.66l-0.22,0.22c-0.22,0-0.22,0.22-0.22,0.22h0.22v0.22
		h0.22c0.22-0.22,0.22-0.22,0.44-0.22l0.66-0.66c0.44-0.44,1.1-0.88,1.54-1.54c1.1-0.88,1.98-1.98,3.08-3.08
		c0.22-0.22,0.44-0.66,0.88-0.88l0.44-0.66c0.22-0.88,0.88-1.54,1.32-2.2c0.22,0,0.44-0.22,0.44-0.22v0.22
		c-0.22,0.22-0.22,0.22-0.22,0.44s0,0.44,0.22,0.44c0,0.22,0.22,0.22,0.44,0.22c0.22-0.22,0.22-0.22,0.44-0.44l0.66-0.66
		c0,0,0-0.22,0.22-0.22c0-0.22,0-0.22,0-0.22c0,0.22,0.22,0.44,0.22,0.44c0.22,0.22,0.22,0.44,0.22,0.66c0,0.22,0.22,0.22,0.44,0.44
		c0.22,0,0.44,0.22,0.44,0.22h0.22c0,0,0.22,0.22,0,0.22c-0.22,1.54-0.44,3.08-0.44,4.84v0.22v0.22c-0.22,1.1-0.22,1.98,0,3.3v0.22
		l0.44-0.22c0,0,0,0,0-0.44c-0.22-1.1,0-2.2,0.22-3.3c0-0.22,0-0.44,0-0.66v-0.66c0.22-0.22,0.22-0.44,0.22-0.66
		c0.22-0.88,0.22-1.76,0.22-2.64c0-0.22,0.22-0.66,0.22-1.1c0-0.44-0.22-0.66-0.66-0.88c0,0-0.22,0-0.44,0v-0.22c0,0,0,0,0-0.44
		c0-0.44,0.22-0.66,0.44-1.1h0.22v0.22c0.22,0,0.22,0.22,0.22,0.22c0.66,0.66,1.32,0.66,1.98,0.44s1.1-0.44,1.54-0.88
		c0.22-0.22,0.22-0.22,0.44,0s0.66,0.22,1.1,0c0.22,0,0.22-0.22,0.22-0.22l0.22-0.22h-0.22c0,0,0,0-0.22,0c-0.22,0-0.22,0-0.22,0
		h-0.44c-0.22,0-0.22-0.22-0.22-0.22v-0.22c0.66-0.44,0.66-0.44,1.1-0.22c0,0.22,0.22,0.22,0.22,0.22c0.22,0.22,0.66,0.44,1.1,0.22
		h0.22h0.22l1.54-0.22l-0.88-0.22c0,0,0,0-0.22,0h-0.44c-0.44,0-0.44,0-0.66-0.22l-0.88-0.66c0,0-0.22,0-0.22-0.22
		c-0.44-0.22-0.88-0.22-1.32,0.22l-0.66,0.66c-0.22,0-0.22,0-0.44,0.22h-0.22c-0.22-0.22-0.22-0.44,0-0.66
		c0.44-0.44,0.66-0.88,0.66-1.32v-0.22h0.22c0.44,0.44,0.88,0.66,1.54,0.22c0.66-0.22,1.1-0.66,1.54-1.32c0-0.44,0.22-1.1-0.22-1.76
		l0.22-0.22C1225.99,615.53,1226.43,615.31,1227.09,615.31z M1220.49,621.91l0.66-0.66c0,0,0,0.22,0.22,0.22
		C1220.93,621.69,1220.71,621.91,1220.49,621.91z"/>
	<path class="st0" d="M1180.23,780.31c-0.44,0-1.1,0-1.54-0.44c-0.88-0.66-1.54-1.32-2.86-1.98l-0.22-0.44c0,0,0.22-0.22,0.22-0.44
		c0.22-0.22,0.22-0.44-0.22-0.66c-0.66-0.22-0.44-0.66-0.22-1.32c0.22-0.44,0.44-0.44,0.22-0.88c0.22-0.66,0.22-1.1,0.44-1.98
		l0.22-0.88c0.66-0.22,0.88-0.66,1.32-1.1c0.88-0.88,1.1-1.32,1.76-1.76l0.66-0.88c0-0.22,0-0.22-0.22-0.44
		c-0.44,0.66-0.88,0.88-1.1,1.1c-0.44,0.44-0.66,0.44-1.1,0.88c-0.44,0.88-0.88,1.32-1.32,1.54c-0.22,0-0.88,1.1-1.1,1.32
		c0,0.88,0.22,1.98,0,2.42c-0.22,0.44-0.22,0.66-0.22,0.88l-0.22,0.22c-0.66-0.44-1.1-0.44-1.54-0.22c-0.22,0.22-0.88,0.44-0.88,1.1
		c-0.22,0.44-0.22,0.22-0.44,0c-0.44,0.22-0.88-0.44-0.88-0.22c-0.88-0.22-1.54,0-2.2,0.66c0,0-0.22-0.22,0.22-0.44
		c0.22-0.22,0.66-1.1,1.1-1.76c0.22-0.44,0.66-1.32,1.32-1.98c0.88,0,1.32-0.44,1.76-0.66c0.44-0.44,0.66-0.66,0.66-0.88l0.22-0.22
		c-0.22,0-0.22,0-0.22,0c-0.44-0.22-0.66,0-0.66,0c-0.44,0.88-1.32,1.32-1.98,1.32c-0.22,0-0.22,0.22-0.44,0.44
		c-0.44,0.66-0.88,1.54-1.32,1.76c-0.44,0-0.66,0.44-0.66,0.66c-0.22,0.66-0.88,1.32-0.66,2.2v0.22c-0.44-0.22-0.66,0.44-0.88,0.22
		c-0.22-0.44-1.32-0.22-1.1-1.32c-0.22-0.44-0.44-0.66-0.66-1.54l-1.32-1.32c-0.22-0.22-0.44-0.44-0.88-0.22
		c-0.88-0.22-1.76-0.22-2.42,0.22c-0.66,0.44-1.54,0.22-1.98-0.44c-0.44,0-0.88-0.44-1.32-0.88l-0.22-0.22
		c-0.22,0.44-0.22,0.66,0,0.88c0.44,0,0.88,0.44,1.1,1.1c1.32,0.88,2.42,0.66,3.74,0.22c0.44-0.44,1.1-0.66,1.1,0.22
		c0.88,0.88,1.98,1.76,1.98,3.08c0.22,0,0.22,0,0.22,0.22h-0.22c-0.66-0.22-1.32-0.88-1.98-1.32c-0.44-0.44-0.44-0.88-0.88-0.66
		l-0.22-0.22c0-0.44,0-0.44-0.44-0.22l-0.22,0.22c-0.66,0-1.32,0-1.76,0.22c-0.66,0.44-0.88,0.88-1.76,0.66
		c-0.88,0-1.76-0.22-2.2-0.44c-0.22-0.22-0.44-0.22-0.66,0c0,0.22,0.22,0.22,0.22,0.44c0,0.44,0.22,0.22,0.44,0.22
		c0.88,0.22,1.54,0.22,1.98,0.22c0.88,0,1.76,0,2.64-0.22c0.44-0.66,1.1-0.66,1.54-0.22c0.44,0.44,1.54,0.88,2.2,1.76
		c0.22,0,0.44,0.22,0.44,0.22c0,0.22,0.22,0.88,0,0.88c-0.22,0.22-0.22,0-0.44-0.22c-0.22,0-0.22-0.22-0.88-0.22
		c-1.54-0.66-3.08-0.22-4.62,0.88c-0.66,0.44-0.88,1.54-1.32,2.64l-0.22,0.22c0.22,0.22,0.44,0.88,0.44,1.1
		c0,0.22,0.22,0.44,0.22,0.44c0.66,0.22,1.32,0.66,2.2,0.88c0.44,0,1.1,0,1.76-0.22c0.66-0.22,1.32-0.22,1.54-0.88
		c0.22-0.22,0.44-0.44,0.44-0.66c0.66,0,0.66-0.22,0.88-0.66c0.44-0.44,0.66-1.1,0.88-1.54h0.44c-0.22,0.22,0.22,0.66-0.22,0.66
		c-0.66,0.66-0.66,1.1-1.1,1.98c-0.66,1.32-1.32,2.2-2.2,2.64c-2.2,1.54-2.2,1.54-3.96,3.74c-0.22,0.66-0.66,1.1-1.1,1.76
		c-0.44,0.22-1.32,0.66-0.66,1.1c0.22,0-0.44,0.44,0,0.44c0.22,0.22,0.44,0,0.44-0.22l0.22-0.22c0.44-1.1,1.1-1.54,1.76-1.98
		c0,0,0-0.22,0.22-0.44c0.66-1.1,1.32-1.98,1.98-2.64c0.44-0.22,0.66-0.22,0.88-0.88c0.44,0,0.88-0.22,1.1-0.66
		c0-0.22,0.44-0.22,0.88-0.22c0,0,0-0.22,0.22-0.44c0.66-1.1,1.32-1.98,1.98-3.3l0.66-1.32c0.22,0.44,0.44,0.66,0.66,1.1
		c0.44,0.44,0.88,0.88,0.88,1.32c0.44,0.22,0.22,0.44,0.22,0.66c-0.44,0.88-0.88,1.32-1.1,1.76c-0.44,1.1-0.22,1.76-0.66,2.64v1.32
		c-0.22,0.88,0.44,1.32,0,1.76c-0.22,0.22,0,0,0.44,0.22c0.22,0.22,0.66-0.22,0.44-0.44c0-0.44-0.66-0.66-0.44-0.88
		c0.22-1.1,0-1.76,0.22-2.42c0.66-1.1,1.1-2.86,1.98-4.18c0-0.44,0.22-0.88-0.22-1.1c0-0.22-0.22-0.22-0.44-0.66
		c0-0.22-0.66-0.66-0.88-1.1c-0.22,0-0.22,0-0.22-0.44c-0.22-0.22,0-0.22,0.44-0.44c0.22,0,0.44,0.22,0.66,0.44
		c1.1,0.44,2.2,0.88,3.3,0.66c0.66-0.22,1.1-0.22,1.76,0.22c0.44,0.44,1.54,0.66,1.76,1.1c0.44,0.22,0.66,0,0.66-0.22
		c0.22-0.22,0-0.22-0.22-0.44h-0.22c-0.44-0.22-1.32-0.66-1.54-0.66c-0.88-1.1-1.98-0.88-3.3-1.32c0,0.22-0.22,0.22-0.22,0.22v-0.22
		c0.44-0.22,0.88-0.66,1.1-0.88c0.44-0.22,0.44-0.22,0.66,0c0.66,0.44,1.32,0,1.76-0.22c0.44,0.22,0.44,0,0.44-0.22
		c0.44-0.44,0.66-0.22,0.88,0c0.66,0.44,1.32,0.66,1.32,0.88l1.32,1.1c-0.22,0.22,0.44,0.66,0.88,0.22c0.66,0,1.32,0,2.2,0.22
		c1.32,0,2.2,0,2.86,0.44c0.22,0,0.22,0,0.22-0.22v-0.22c-0.44-0.22-0.88-0.66-1.32-0.66
		C1182.43,780.31,1181.11,780.09,1180.23,780.31z"/>
	<path class="st0" d="M1153.39,561.41c0,0.22,0.66,0,0.66,0c0.44-0.22,0.66-0.44,1.1,0c0.22,0.22,0,0.66-0.22,0.88
		c-0.22,0.44-0.66,0.66-0.88,1.1c-0.22,0.66-0.66,1.1-1.1,1.76c0,0.22,0.44,0.66,0.66,0.66c0.22,1.54,0.88,2.64,0.88,3.96
		c0,1.1,0.22,2.2-0.44,3.3v0.22c0.22,0.22,0.22,0.44,0.22,0.44s0.22-0.22,0.44-0.22v-0.22c0.44-0.88,0.44-1.76,0.44-2.64
		c0.22-0.44,0.22-0.88,0-1.32c-0.22-0.44,0.22-0.88-0.22-1.1v-0.88c-0.66-0.66-0.66-1.32-0.88-2.2c0.22,0,0.22-0.44,0.44-0.44
		c0.66-0.22,0.88-0.66,1.32-1.32c0-0.22,0.22-0.66,0.44-0.44c0.22,0,0.22,0.22,0.22,0.66c0.22,0.44,0.22,0.66,0.22,1.1
		c0,1.32,0.22,2.64,0.88,3.74c0.22,0.44,0.44,0.66,0.88,0.88c1.54,0.22,2.64,0.88,3.96,1.54c0.44-0.22,0.88,0.22,1.1,0.44
		c0,0.44,0.22,0.66,0.66,0.88c0,0.44,0.44,0.88,0.66,1.1c0.44,0.22,0.66,0.66,0.66,1.32c-0.22,0.22,0,0.44,0.22,0.44
		c0,0.22,0.22,0.44,0.44,0.22c0-0.22,0.22-0.22,0.22-0.66c-0.22-0.22-0.44-0.22-0.44-0.44c-0.44-1.1-1.1-2.42-1.98-3.3
		c-0.44,0-0.66-0.22-0.66-0.66c0-0.44-0.66-0.22-0.88-0.66c-0.66,0.22-1.1-0.22-1.54-0.22l-1.32-0.66c-0.22,0-0.66,0-0.66,0
		c0.22-0.44-0.44-0.66-0.88-0.88v-1.1c-0.22-0.44-0.22-0.66,0-1.1l-0.22-0.22c0.22,0.22,0.44,0.22,0.44,0.22
		c0.22,0.88,0.66,1.32,1.32,1.98c0.44,0.44,1.32,0.88,2.42,0.88c0,0.22,0.22,0.22,0.44,0.22c0.44,0,0.88-0.22,1.32-0.22
		c0.66-0.22,0.88-0.44,0.88-1.1s0.22-1.32,0-1.76c-0.22-1.32-0.88-2.2-1.32-2.42c-0.88-0.88-1.76-1.54-2.86-1.32
		c0-0.22-0.44-0.22-0.66,0.22c-0.44,0.22-0.44,0-0.22-0.22c-0.22-0.22,0-0.22-0.22-0.44c0,0,0-0.22-0.22,0l0.44-0.44h0.22
		c1.32-0.22,2.64-0.44,3.74-0.44c1.1-0.22,1.98,0.66,2.64,1.1c0,0,0.22,0.22,0.22,0.44c0,0.66,0,1.1,0.22,1.54
		c0.66,0.66,1.32,1.1,2.2,1.1c0.44,0,0.44-0.22,0.22-0.44c0-0.44-0.22-0.22-0.22-0.22c-1.1,0-1.76-0.66-1.76-1.54
		s-0.44-1.54-0.88-1.98c-1.1-0.22-1.98-1.1-3.3-1.1c-0.22,0-0.44,0-0.66,0.22c-0.22,0-0.66-0.22-1.1,0
		c-0.88,0.22-1.98,0.44-2.64,0.44l-0.22,0.22c0.22-0.22,0-0.22,0-0.22l0.66-0.44c1.1-0.66,2.2-0.88,3.08-1.98
		c0-0.22,0.44-0.22,0.66-0.22c0.88,0.88,1.54,0.22,2.42,0.66c0.22,0,0.66,0.22,1.1,0c1.1-0.22,1.98-0.66,3.08-0.66l0.22-0.22
		c-0.22-0.22,0-0.22-0.22-0.44c0-0.22-0.66-0.22-0.88,0l-0.66,0.44c-0.66,0-1.76,0.66-2.86,0.22c-0.44-0.22-0.88-0.22-1.54-0.66
		c-0.44,0-0.88,0.44-1.1-0.22c-0.44-0.22-0.44,0.44-0.88,0.44c0,0-0.22,0.22-0.44,0.22c-1.1,0.44-1.54,0.88-1.98,1.54
		c-0.66,0.44-1.32,0.44-1.76,0.44l-0.22,0.22c0-0.66-0.66-0.88-0.66-1.54l-0.66-2.86c0-0.66-0.22-1.32-0.22-1.76
		c0.44-0.66,0-1.1-0.22-1.76h-0.66c0,0.22,0,0.22,0.22,0.44c0.44,0.44,0.44,1.1,0.22,1.76c-0.22,0.22-0.22,0.44-0.22,0.66
		c0.44,1.1,0,2.2,0.88,3.08c-0.22,0-0.22,0,0,0.22c-0.22-0.22-0.22,0-0.44-0.22c-0.44-0.66-1.1-0.88-1.98-0.88
		c-0.66,0-0.44-0.22-0.22-0.44c0-0.44,0-0.88-0.22-1.54c-0.66-0.44-1.1-0.66-1.98-0.44c0,0,0-0.22-0.44-0.22
		c0.22,0,0.44,0,0.66-0.22c0.22,0,0.66,0,1.1-0.22c0.22-0.44,0.88-0.66,1.32-1.1l0.22-0.44c-0.22-0.44-0.22-0.66-0.44-0.66
		c-0.88-1.32-1.54-2.64-1.98-3.74c-0.44-0.22-0.44-0.66-0.44-0.88c-0.22-0.66-0.66-1.32-0.44-1.98l-0.22-0.22
		c-0.22,0-0.22,0-0.44-0.22c0.22,0.22,0,0.44-0.22,0.66c0.22,0.44,0.22,1.1,0.66,1.54c0.44,0.88,0.88,1.76,1.1,2.42
		c0,0.66,0.44,1.1,0.88,1.54c0.22,0.44,0.44,0.88,0.88,1.1c0,0.22,0,0.44-0.22,0.44c-0.22,0.44-1.1,0.88-1.54,1.32
		c-0.44,0-0.88,0.22-1.1,0.44c0,0.66-0.44,0.44-0.88,0.44c-0.44,0.22-0.88,0.44-0.66,0.88c0,0.66,0,0.88-0.44,1.32
		c-0.22,0.22-0.22,0.66-0.66,1.1c0,0.44,0,1.1-0.44,1.1c0,0.22-0.66,0.22-1.1-0.22h-0.88c-0.44,0-0.66,0-1.1-0.22h-3.74
		c0,0.22-0.22,0.44-0.22,0.44l-0.22,0.22c0,0,0.22,0,0.44,0.22c0-0.22,0.22,0,0.22,0c0.66,0,1.1-0.22,1.32-0.22
		c1.1,0,2.2,0.22,3.3,0.22c0.88,0,1.54,0,2.2,0.22c0.44,0,0.44-0.22,0.44-0.44c0-0.66,0.44-1.1,0.88-1.76c-0.22,0-0.22-0.22,0-0.44
		c0.22,0.22,0.44,0.22,0.44,0.22v0.44c0.66,1.1,1.76,1.32,2.42,0.88l0.44-0.22c0,1.1,0.22,1.54,1.1,2.42v0.22c-0.22,0-0.22,0-0.22,0
		c-0.44-0.44-0.88-0.66-1.54-0.22h-1.54c-0.66,0.22-1.54,0.66-1.98,0.44c-1.1,0.22-1.54,0.66-2.42,1.1
		c-0.88,0.44-1.54,0.66-2.2,1.32c-0.22,0-0.44,0.22-0.44,0.44c0.22,0.22,0.44,0.44,0.66,0c1.1-0.66,2.2-0.88,3.08-1.54
		c1.32-0.22,1.98-0.66,2.86-0.88c0.88-0.22,1.54-0.44,1.98,0C1151.85,561.41,1152.73,561.19,1153.39,561.41z"/>
	<path class="st0" d="M1233.25,643.47l-26.62-5.72c-17.16-3.74-26.62-10.34-26.62-23.1c0-13.42,14.08-22.44,32.78-22.44
		c22,0,34.76,11.66,35.86,28.38h23.98c-1.76-29.04-23.54-48.18-58.96-48.18c-33.22,0-57.64,18.48-57.64,44.22
		c0,23.98,19.14,37.62,42.9,42.9l24.2,5.28c17.82,3.96,28.6,10.34,28.6,23.98c0,16.06-13.86,25.3-36.08,25.3
		c-7.12,0-13.64-1.24-19.29-3.6c0.07-0.91-0.17-1.75-0.73-2.12c-0.66-0.88-1.1-1.76-2.2-1.98c-0.22-0.22-0.44-0.22-0.88,0
		c-0.44,0.22-0.22,0,0-0.22c-0.22,0,0-0.22-0.22-0.44c0,0,0-0.22-0.22,0c0.22-0.22,0.44-0.22,0.44-0.44c0,0,0.22,0.22,0.44,0.22
		c1.1,0.22,2.42,0.22,3.74,0.44c1.1,0,1.54,1.32,2.2,1.76c0,0,0.22,0.22,0,0.66c-0.22,0.44-0.22,0.88,0,1.32
		c0.22,0.88,0.88,1.54,1.76,1.76c0.44,0,0.44-0.22,0.22-0.44c0.22-0.44,0-0.22-0.22-0.44c-0.88-0.22-1.32-0.88-1.1-1.76
		s0-1.76-0.66-2.2c-0.88-0.66-1.54-1.54-2.64-1.76c-0.22-0.22-0.44-0.22-0.66-0.22s-0.66-0.22-1.32-0.22c-0.88,0.22-1.76,0-2.64,0
		h-0.22c0.22,0,0.22-0.22,0.22-0.22c0.22-0.22,0.44,0,0.66-0.22c1.1-0.44,2.42-0.22,3.3-1.1c0.22-0.22,0.66-0.22,0.88,0
		c0.66,0.88,1.54,0.66,2.2,1.32c0.22,0,0.66,0.22,1.1,0.22c1.1,0,1.98-0.22,3.3,0v-0.22c0,0,0.22-0.22,0-0.44
		c0-0.22-0.44-0.44-0.88-0.22c-0.22,0.22-0.44,0.22-0.66,0.22c-0.88,0-1.98,0.22-2.86-0.44c-0.22-0.44-0.88-0.44-1.54-0.88
		c-0.22-0.22-0.88,0-0.66-0.66c-0.66-0.44-0.88,0.22-1.32,0.22c0,0-0.22,0.22-0.44,0.22c-0.88,0-1.54,0.44-2.2,0.88
		c-0.66,0.22-1.32,0-1.76,0c-0.22,0.22-0.44,0-0.44,0c0.22-0.44-0.22-0.88,0-1.54c0-1.1-0.22-1.98,0-2.86
		c0.22-0.66,0-1.32,0.22-1.76c0.44-0.44,0.22-1.1,0.22-1.76c0,0-0.44-0.22-0.66-0.22v0.44c0.44,0.66,0.22,1.1-0.22,1.76
		c-0.22,0-0.22,0.44-0.22,0.66c0,1.1-0.66,1.98,0,3.08v0.22c0,0-0.22,0-0.44-0.22c-0.22-0.88-0.88-1.32-1.76-1.32
		c-0.66-0.22-0.44-0.44,0-0.66c0.22-0.44,0.22-0.88,0.22-1.32c-0.66-0.66-1.1-1.1-1.76-1.1c0,0-0.22,0-0.44-0.22h0.66
		c0.22,0,0.66,0,1.1,0c0.44-0.22,1.1-0.44,1.54-0.88c0.44-0.22,0.22-0.44,0.22-0.44c0.22-0.22,0-0.44,0-0.66
		c-0.66-1.54-0.88-2.86-1.1-3.96c-0.22-0.44-0.22-0.66-0.22-0.88c0-0.88-0.22-1.54,0-2.2v-0.22c-0.22-0.22-0.22-0.22-0.22-0.22
		l-0.44,0.44c0,0.44-0.22,1.1,0,1.76l0.66,2.64c-0.22,0.44,0,1.1,0.44,1.76c0.22,0.44,0.22,0.88,0.44,1.1c0,0.22,0,0.44-0.22,0.44
		c-0.44,0.22-1.32,0.66-1.98,0.88c-0.22-0.22-0.66,0-1.1,0.22c-0.22,0.44-0.66,0.22-0.88,0.22c-0.44,0-0.88,0-0.88,0.66
		c-0.22,0.44-0.22,0.88-0.88,1.1c0,0.22-0.44,0.66-0.66,0.88c-0.07,0.15-0.15,0.32-0.22,0.48c-4.06-5.37-6.56-12.11-7.04-20.06
		h-23.98c1.1,33.22,25.52,54.34,64.24,54.34c38.5,0,60.72-20.68,60.72-47.3C1275.71,662.17,1257.67,648.75,1233.25,643.47z
		 M1186.39,703.31c-0.22-0.22-0.22-0.22-0.22-0.22c-0.22-0.44-0.66-0.66-1.32-0.44c-0.1,0-0.2-0.01-0.31-0.03
		c-0.88-0.89-1.7-1.84-2.48-2.83c0.23-0.29,0.51-0.58,0.8-0.87c0-0.22,0-0.44,0.22-0.44s0.22,0.22,0.22,0.22
		c0,0.44,0.22,0.44,0.22,0.44c0.22,1.1,1.1,1.76,1.76,1.54l0.66-0.22c-0.22,1.1,0,1.76,0.44,2.64V703.31z M1187.76,705.47
		c-0.41-0.32-0.81-0.65-1.2-0.98c0.23,0.04,0.53-0.08,0.7-0.08c0.44,0,0.66-0.22,1.1,0.22
		C1188.37,704.84,1188.16,705.24,1187.76,705.47z"/>
	<rect x="1324.99" y="532.81" class="st0" width="24.2" height="24.64"/>
	<rect x="1368.99" y="532.81" class="st0" width="23.98" height="24.64"/>
	<path class="st0" d="M1345.23,576.15l-62.26,154h24.86l16.72-44.44h67.76l16.94,44.44h25.96l-62.48-154H1345.23z M1332.03,666.13
		l21.34-56.54c1.98-4.62,3.74-9.24,5.28-13.86c1.54,4.62,3.08,9.02,4.84,13.86l21.56,56.54H1332.03z"/>
</g>
</svg>
