<?xml version="1.0" encoding="utf-8"?>
<!-- Generator: Adobe Illustrator 26.4.1, SVG Export Plug-In . SVG Version: 6.00 Build 0)  -->
<svg version="1.1" id="Ebene_1" xmlns="http://www.w3.org/2000/svg" xmlns:xlink="http://www.w3.org/1999/xlink" x="0px" y="0px"
	 viewBox="0 0 1920 1080" style="enable-background:new 0 0 1920 1080;" xml:space="preserve">
<style type="text/css">
	.st0{fill:#0000FF;}
</style>
<g>
	<rect x="304.52" y="471.03" class="st0" width="23.32" height="154"/>
	<path class="st0" d="M542.78,572.67c-0.22-3.96-1.98-7.04-4.84-9.68c-0.22-0.66-0.66-1.1-1.1-1.98c-0.22-1.32-0.22-2.64-0.44-3.96
		c0-3.08-0.22-6.16-0.22-9.24c-0.22-2.86-0.66-5.94-0.66-8.8c-0.22-4.84-0.22-9.68-0.44-14.52c0-1.1-0.22-2.2-0.44-3.3
		c0-1.1,0-1.98,0.88-3.08c2.42-2.86,3.96-6.16,3.74-9.9c-0.22-5.28,0.22-10.12-0.22-15.18c-0.44-3.74-0.44-7.26-0.44-10.56
		c-0.44-3.74-0.66-7.26-0.66-10.56c-0.22-1.54-0.22-3.3-0.44-4.84c-1.32-6.38-4.84-10.78-10.78-13.2
		c-7.26-2.64-13.64-1.32-19.14,3.96c-3.3,3.3-5.06,7.48-5.28,12.1c0,2.2,0.66,3.96,0.66,6.16c0,7.04,0.22,14.3,0.88,21.34
		l0.88,11.88c0.22,3.3,1.32,5.94,3.52,8.14c1.54,2.2,2.86,3.96,2.86,7.04c0,2.64,0.22,5.5,0.22,8.36c0.22,3.74,0.44,7.7,0.44,11.44
		c0.44,4.62,0.44,9.24,0.66,13.64c0,0.44,0.22,1.1,0.22,1.32c0.22,1.76,0.22,3.08-0.88,4.84c-2.2,3.08-3.96,6.82-3.52,11v10.78
		c0,3.74,0.22,7.48,0,11.22c-0.44,2.86-0.44,5.5-1.1,8.36c-0.88,2.86-0.66,5.72,0.44,8.8c0.22,0.44,0.66,1.32,0.22,1.54
		c-1.98,2.42-4.4,4.4-7.48,4.62c-4.84,0.66-9.24-0.22-13.2-2.64c-1.1-0.66-1.76-1.32-1.32-2.2c0.22-3.3-1.1-5.94-2.64-8.58
		c-1.98-2.64-3.3-5.5-4.4-8.36c-1.98-4.84-3.08-9.9-3.96-14.74c-0.66-4.84-2.2-9.02-6.16-12.32c-0.66-0.22-0.88-0.88-0.88-1.54
		c-0.22-2.42-0.44-5.06-0.44-7.26c-0.44-3.08-0.66-5.94-0.66-8.8l-0.44-6.16c-0.22-2.2-0.66-4.62-1.1-6.82
		c-0.22-3.3-0.88-6.82-1.32-9.9c0-1.98-0.22-3.52,0.88-5.06c1.98-3.52,2.64-7.48,1.76-11.44c-0.44-4.18-1.76-8.14-3.08-12.1
		c-2.2-7.7-5.28-14.96-9.68-21.56c-2.64-4.4-5.5-8.58-9.46-11.66c-2.86-2.42-6.38-3.96-10.34-3.96c-0.88,0-1.76-0.22-2.64-0.88
		c-3.08-1.76-6.16-3.74-9.46-5.06c-7.7-3.08-15.62-4.18-23.54-2.64c-6.82,1.1-13.2,3.74-18.92,7.48c-0.44,0.44-1.54,1.1-2.42,1.1
		c-4.62,0-8.36,1.76-11.66,5.28c-4.62,4.62-7.26,10.78-9.46,16.94c-2.64,7.48-3.3,15.4-3.74,23.32c0,3.3,0.44,6.16,0,9.24
		c0,4.4,1.76,7.92,4.62,11.44c0.44,0.44,0.66,1.32,0.66,2.2c0.44,13.2,0.44,26.4,0.66,39.6c0,1.54-0.22,2.64-1.32,3.96
		c-2.64,2.2-3.74,5.72-3.74,9.24c-0.22,5.72-0.44,11.44,0.22,17.38c0.66,3.96,0.22,7.92,0.66,11.66l0.66,11.44
		c0.66,4.62,2.64,8.36,6.38,11.22c2.86,2.64,6.38,3.96,10.34,4.18c4.4,0.22,8.58-1.54,12.1-4.4c3.74-3.3,6.16-7.48,5.72-12.76
		c0-6.38-0.22-12.32-0.22-18.48c-0.22-2.2,0-4.18-0.22-6.38c0-3.96-0.44-8.14-0.88-12.32c0-4.62-1.32-8.8-4.62-11.88
		c-0.66-0.66-0.88-1.32-0.88-2.2c-0.22-5.72-0.44-11.22-0.44-17.16c-0.22-2.86,0-5.72,0-8.58v-13.86c-0.22-1.1,0-1.76,0.66-2.64
		c3.52-3.3,5.06-7.7,4.84-12.32v-3.74c0.22-3.08,0.44-6.16,1.1-9.24c0.44-3.52,0.66-6.82,1.98-10.12c1.32-3.3,2.64-6.82,2.2-10.56
		c-0.22-0.88,0.22-1.54,1.1-1.98c3.3-1.98,7.04-3.3,11-3.52c4.62-0.22,8.58,1.32,12.1,3.52c1.1,0.66,1.32,1.1,1.32,2.42
		c0,2.64,0.44,5.5,2.2,7.92c2.42,3.3,4.4,6.82,6.16,10.78c2.2,5.5,4.18,11,5.72,16.5c0.88,3.52,2.64,6.6,5.5,8.58
		c1.32,0.66,2.42,1.98,2.42,3.74c0.22,2.2,0.88,4.62,1.1,6.82c0.44,5.06,1.1,9.68,1.32,14.52c0.44,5.28,0.66,10.78,1.1,16.06
		c0.22,1.32-0.44,2.42-1.1,3.74c-1.54,2.64-2.86,5.72-2.86,9.02c0.22,4.4,0.88,8.58,1.76,13.2c0.44,3.52,1.54,7.26,2.86,10.78
		c1.54,5.06,3.52,9.68,6.38,14.3c2.86,4.18,5.5,8.36,9.46,11.44c3.3,2.42,6.82,3.74,11.22,3.96c0.88,0,2.2,0.44,3.08,0.88
		c4.84,2.42,9.46,4.4,14.74,5.5c4.62,1.1,9.24,1.1,14.08,0.66c6.38-0.66,11.88-3.3,16.94-7.26c1.98-1.32,3.52-3.3,5.28-5.06
		c0.88-0.88,1.98-1.98,3.3-2.64c5.28-1.98,9.02-5.72,10.78-11c3.3-7.48,4.4-15.4,4.62-23.54c0-3.3-0.22-7.04-0.66-10.78
		L542.78,572.67z M527.16,460.47c2.86,2.64,4.84,5.5,4.84,9.46c0,3.52,0.44,6.6,0.66,9.9v0.66c0.22,4.84,0.22,9.68,0.66,14.3
		c0.22,3.3,0.44,6.16,0.44,9.02c0,2.42,0.22,4.84-1.1,7.04v0.66c-0.22-0.22-0.44-0.22-0.44-0.66c-0.22-0.44-0.66-0.88-0.22-1.54
		c0.44-4.62,0.44-9.24,0-13.86c-0.44-2.2,0-4.62-0.44-7.04l-0.66-11.44c-0.22-2.2-0.66-4.4-0.66-6.38c0.44-3.74-1.32-6.6-3.96-9.24
		c-0.44-0.22-0.44-0.88-0.88-1.32C525.84,460.25,526.72,460.25,527.16,460.47z M523.2,524.49c2.64,0,2.42-0.44,2.42,2.64
		c0.22,4.62,0.44,9.46,0.44,14.08c0.22,3.3,0.22,6.16,0.66,9.02c0,1.98,0.44,3.52,0.44,5.28c0,1.98,0,1.98-1.76,1.98h-1.76
		c-1.76,0.22-1.76,0.22-1.76-1.76c-0.22-4.62-0.22-9.68-0.44-14.74c-0.44-3.96-0.88-7.7-1.1-11.66v-1.98
		C520.34,524.05,520.12,524.49,523.2,524.49z M524.52,508.87c0.22-0.22,0.88-0.66,1.1-0.22c1.98,0.88,3.74,3.08,4.4,5.5
		c0,0,0.22,0,0.22,0.22c-0.22,0-0.22,0.22-0.22,0.22c-0.22-0.22-0.44-0.22-0.66-0.22c-0.66-0.88-1.1-1.76-1.98-2.42l-2.64-2.42
		C524.52,509.53,524.52,508.87,524.52,508.87z M526.94,515.91c0-0.22,0.22-0.22,0.44-0.44c0,0,0.22,0.22,0.22,0.44
		c1.1,1.54,1.1,3.74,1.32,5.5c0.44,5.06,0.44,9.9,0.66,14.96c0,3.08,0.22,5.94,0.44,9.24c0,2.86,0.22,5.94,0.22,8.8l0.88,5.72
		c0,2.2-0.22,4.4-1.54,6.6l-0.66,0.66c-0.22,0.22-0.44,0.22-0.66,0.22v-0.44c0.66-2.42,1.32-4.84,1.1-7.04l-0.88-11.88v-0.66
		c-0.22-4.62-0.22-9.46-0.44-14.3c-0.44-3.52-0.44-7.26-0.66-11.22C527.38,520.09,527.16,518.11,526.94,515.91z M528.04,572.45
		c0.88-1.32,1.98-2.64,3.3-3.96c0.22-0.44,0.88-1.1,1.32-1.54c-0.22,0.66-0.22,1.54-0.44,1.98c-0.88,1.32-1.54,2.42-2.64,3.74
		l-1.32,0.88c-0.22-0.22-0.22-0.22-0.22-0.66C527.6,572.67,527.6,572.45,528.04,572.45z M527.6,467.95c0,0.22,0.44,0.44,0.44,0.66
		c0.22,1.76,0.44,3.52,0.44,5.28c0.22,4.4,0.88,8.36,1.1,12.54v0.22c0,6.6,0.22,13.2,0.44,19.8c0,1.32-0.44,1.54-1.54,0.88
		c-1.54-1.1-3.52-2.2-5.5-2.2c-2.86,0-5.5,0.88-7.7,2.86c-0.88,0.88-1.1,0.88-1.1-0.44c-0.22-1.1-0.44-2.2-0.44-3.3l-0.88-10.12
		c-0.22-0.44-0.22-0.66-0.22-0.88c0-5.06-0.22-10.12-0.44-14.96h0.22c0-2.64-0.66-5.28-0.66-8.36c0-1.98,1.32-3.96,3.3-5.5
		C519.24,461.13,525.62,462.67,527.6,467.95z M508.46,514.15c-0.66-1.1-1.1-2.64-1.32-3.96c-0.22-2.42-0.22-4.84-0.66-7.26
		c-0.22-3.08-0.44-6.16-0.88-9.46v-0.44c0-8.8-0.44-17.38-0.44-25.96c0-1.76,0.88-3.74,1.98-5.06c1.98-3.3,5.06-5.72,9.02-6.6
		c0.22,0,0.22,0,0.44-0.22c0.22,0.22,0.22,0.22,0.44,0.22c-0.22,0.44-0.22,0.66-0.44,0.66c-0.44,0.44-1.1,0.66-1.76,1.1
		c-6.38,2.86-10.12,9.68-8.36,17.38c0.44,0.44,0,1.32,0,1.98c0.44,5.72,0.44,11.44,0.66,17.16c0.22,4.4,0.44,8.8,1.1,12.98
		c0.22,2.86,0.88,6.16,3.08,8.14c1.54,2.2,3.96,3.52,6.38,4.4c0.66,0.22,1.98,0.22,1.76,1.54c-0.44,1.1-1.54,0.22-2.42,0
		C513.52,519.65,510.44,517.45,508.46,514.15z M512.64,524.49c0-0.66,0-1.1,0.22-1.76c0-0.22,0.22-0.44,0.22-0.44
		c0.44,0,0.88,0.22,0.88,0.22c0.22,0.22,0.22,0.88,0.22,1.1c0.22,1.54,0.66,3.08,0.66,4.84c0.22,4.18,0.22,8.14,0.44,12.32
		c0,4.18,0.22,8.8,0.44,13.2c0,1.1,0.44,2.42,0.66,3.74l-0.88,2.86c0,0-0.44,0.22-0.66,0.22v-0.44c-0.44-3.3-0.66-6.16-0.66-9.24
		c-0.22-3.96-0.22-7.92-0.44-11.88c-0.22-2.42-0.22-5.06-0.66-7.7C513.08,529.11,512.86,526.69,512.64,524.49z M509.56,605.89
		c0.44-1.98,0.44-4.62,0.66-7.04c1.1-4.18,0.66-8.36,0.66-12.98c0-3.3-0.44-6.82-0.66-10.34c-0.22-5.5,2.42-9.68,6.82-12.54
		c1.1-0.88,2.42-1.32,3.52-2.2c0.44,0.66,1.1,0.66,1.1,1.1c0.22,0.22-0.22,0.44-0.66,0.88l-3.96,2.2c-2.64,1.76-3.96,4.4-4.62,7.04
		c-0.22,0.66-0.66,1.54-0.66,2.64v11.22c0,2.2,0.66,4.62,0.66,6.6c-0.66,5.06-0.66,10.12-1.98,15.18c-0.44,2.64,0.44,5.28,1.76,7.92
		c0.44,1.54,1.76,2.86,2.64,4.4c0.22,0.44,0,1.1,0,1.54c-0.44-0.22-1.1-0.22-1.32-0.44c-1.32-2.42-2.42-4.84-3.52-6.82
		C508.68,611.61,508.68,608.97,509.56,605.89z M486.68,619.75c1.98,0.66,3.52,1.54,5.28,1.98c4.62,1.76,9.02,1.32,13.64-1.32
		c0.66-0.44,1.54-1.54,2.64-1.98c0.22-0.22,0.66-0.22,1.32-0.66c0,0.66,0.44,1.1,0,1.76c-2.42,2.2-4.84,3.52-7.7,4.4
		c-1.32,0.22-2.86,0.22-4.18,0.44c-3.74,0-7.26-1.32-10.56-2.64l-1.1-0.66c-0.22-0.22-0.22-0.88-0.22-1.1
		C486.02,619.75,486.46,619.75,486.68,619.75z M484.7,627.45c0.66-0.44,1.98,0.66,3.3,0.88c3.08,1.1,6.16,2.2,9.24,1.98
		c4.84,0,9.68-1.1,13.64-4.18c0.22-0.44,0.66-0.88,1.32-1.1c0.44,0,0.88-0.22,0.88,0c1.1,0.66,1.98,1.76,2.64,2.64
		c0.44,0.22,0,1.1-0.22,1.32c-3.74,2.86-7.92,5.28-12.54,5.72l-5.28,0.88c-5.06,0-9.68-1.32-14.08-3.3
		c-0.88-0.22-1.32-0.66-0.88-1.76C483.6,629.43,483.82,627.67,484.7,627.45z M471.72,580.81c0.88,2.42,1.32,5.06,1.54,7.48
		c1.54,7.7,3.96,14.74,8.58,20.9c1.54,2.42,1.54,5.06,1.98,7.04c-0.22,2.64-0.44,5.06-1.1,7.48c0,0.44-0.44,0.66-0.88,1.1
		l-0.88-0.66c0.22-1.76,0.88-3.74,1.1-5.5c0.44-2.86,0.22-5.5-1.32-8.14c-2.2-3.3-4.18-6.82-5.5-10.56
		c-1.76-4.18-2.64-8.8-3.74-13.42c-0.88-2.64-1.1-5.28-2.42-7.7c-1.54-3.3-4.4-5.06-7.92-6.16c-0.44-0.22-1.1-0.44-1.54-0.44
		l-0.88-1.1c0.66-0.22,0.88-0.44,1.1-0.44c1.54,0.44,3.52,0.66,4.84,1.54C468.2,573.99,470.62,576.85,471.72,580.81z M464.24,549.79
		c0.44,1.98,0.44,4.18,0.66,5.94c0.22,3.3,0.22,6.16,0.44,9.02c0,1.1,0.22,2.42,0.66,3.74c-0.44,0.22-0.44,0.44-0.66,1.1l-1.1-0.88
		c-0.22-0.44-0.44-1.32-0.44-1.98c-0.22-3.74-0.44-7.7-1.1-11.66c0-2.64-0.22-5.5-0.44-8.14c0-2.2-0.66-4.62-0.88-6.6
		c-0.22-1.76-0.22-3.52-0.44-5.06l-0.22-2.64c0-0.88,0.22-1.54,0.44-2.42c0,0,0.22-0.22,0.44-0.22c0,0.22,0.44,0.22,0.44,0.44
		c0.22,2.64,0.66,5.28,0.88,7.92C463.58,542.09,463.8,546.05,464.24,549.79z M438.28,468.39c3.3,1.1,5.72,3.3,7.92,5.94
		c2.64,3.3,4.84,6.82,7.04,10.56c2.2,3.3,3.74,7.26,5.5,11c1.98,4.84,3.3,9.68,4.18,14.74c0.66,1.98,1.1,3.74,1.32,5.5
		c0.66,3.74-0.44,7.04-2.86,9.68c-1.32,1.54-2.86,2.64-4.4,3.96c-0.22,0.22-0.88,0.44-1.1,0.44c-0.44,0-0.88-0.22-1.1-0.44
		c0-0.44,0.22-0.88,0.22-0.88c1.1-1.1,2.42-1.54,3.3-2.64c4.18-3.74,5.28-8.14,3.96-13.42c-1.32-5.94-2.86-11.44-5.06-16.94
		c-2.42-6.16-5.5-11.66-9.24-16.94c-1.1-1.32-1.76-2.64-2.86-3.74c-2.86-3.08-6.38-5.28-10.56-5.28c-2.42-0.22-4.62,0.88-6.6,1.98
		c-0.22,0.22-1.32,0.22-1.54,0c-0.44-0.66-0.44-1.1,0.44-1.54C430.58,467.95,434.32,467.29,438.28,468.39z M447.52,529.77
		c0,1.98,0.22,4.18,0.66,6.16c0,1.76,0.22,3.08,0.66,4.62l0.66,12.32c0.66,4.84,1.1,9.46,1.54,14.3c0,2.86,0.44,5.72,0.88,8.8
		c0,0.22,0,0.66-0.22,0.66s-0.88,0-0.88-0.22c-0.44-1.54-1.1-3.08-1.32-5.06c-0.44-4.62-0.44-9.68-1.1-14.74
		c-0.22-5.06-0.66-10.12-1.32-14.96c-0.44-4.4-1.54-8.58-1.54-12.76c0-1.54,0.88-2.64,1.32-3.74c0-0.22,0.22-0.22,0.66-0.44
		c0.22,0.22,0.22,0.44,0.22,0.66C447.74,526.69,447.08,528.45,447.52,529.77z M448.84,577.95h0.22c1.76,1.32,3.3,2.86,5.28,4.18
		c0,0,0,0.44,0.22,0.88c-0.44,0.22-1.1,0.44-1.32,0.44c-1.76-1.32-3.74-2.86-4.4-4.84C448.4,578.17,448.84,578.17,448.84,577.95z
		 M453.02,567.39c-0.22-0.22,0-1.32,0-1.98c-0.66-3.96-0.88-8.36-1.1-12.32l-1.54-13.86c0-0.66-0.22-1.1-0.22-1.98
		c-0.44-2.2-0.44-2.64,2.2-2.86c0.88,0,1.98-0.44,2.2-0.22c0.44,0.44,0.88,1.54,0.88,2.42c0.22,3.74,0.44,7.04,0.88,10.78
		l1.32,13.42c0.44,1.98,0.44,3.96,0.44,5.94c0,0.22-0.44,0.44-0.66,0.66h-1.98C454.56,567.39,453.46,567.61,453.02,567.39z
		 M431.02,483.79c-0.22,0.22-0.44,0.66-0.66,0.66c-0.88,0.44-1.32,0-2.2,0v0.44l-3.96-0.88c-0.22,0-0.22-0.22-0.44-0.44
		c0.22,0,0.44-0.44,0.44-0.44c2.2,0.66,3.96,0.66,6.16,0C430.58,483.13,430.8,483.57,431.02,483.79z M382.4,464.43
		c4.4-2.42,8.58-4.18,12.98-5.06c3.52-0.66,6.82-0.88,8.8-1.54c9.46,0.22,16.5,2.64,23.54,6.38l0.88,0.88
		c0.66,0.22,0.44,0.44-0.22,0.66c-0.44,0.22-1.1,0.66-1.76,0c-4.84-3.08-10.12-5.06-15.62-5.72c-3.96-0.22-7.92-0.22-12.1,0.22
		c-4.18,0.88-8.58,2.2-12.54,3.96c-0.66,0.22-1.32,0.88-1.76,1.1c-0.22,0.22-0.88,0.44-1.1,0.44c-0.66,0-1.54-0.22-1.98-0.22
		C381.74,465.09,381.96,464.65,382.4,464.43z M421.78,471.25c-0.44,1.1-1.1,2.64-1.76,3.08c-1.1,0.22-2.2-0.88-3.52-1.32
		c-4.62-1.98-9.46-2.64-14.52-1.98c-3.74,0.22-7.26,1.32-10.56,3.3c-0.66,0.22-1.32,0.44-1.32-0.88c0-0.22-0.44-0.88-0.66-1.1
		c-0.44-0.66-1.1-1.54-1.1-1.98c0.44-0.66,1.32-1.1,1.98-1.32c3.74-1.76,7.48-2.64,11.44-3.08c1.32-0.22,2.64-0.44,3.52-0.44
		c5.72,0.22,11,1.32,16.06,3.96C422.44,469.71,422.66,470.37,421.78,471.25z M355.34,524.49c-0.88-2.42-0.66-5.06-0.88-7.7v-1.98
		c0-3.52,0-7.48,0.66-11.44c0.88-8.36,2.64-16.28,6.6-23.54c1.54-2.42,2.86-5.06,4.62-7.48c1.54-1.98,4.18-3.08,6.6-3.96
		c3.52-1.1,6.6-0.44,9.9,1.1c0,0.22,0.22,0.22,0.22,0.22c0.66,0.66,1.76,0.88,1.32,1.98c-0.88,1.32-1.54,0.22-2.42,0
		c-6.16-3.08-12.1-1.32-16.06,4.4c-4.62,6.38-7.26,13.42-8.58,21.12c-0.22,2.64-0.44,5.28-0.88,7.92c-0.88,4.4-0.44,8.8-0.44,12.98
		c-0.22,6.6,2.64,11,8.8,13.64c0.44,0,1.1,0,1.32,0.66c0.22,0.22,0,0.88-0.22,0.88c-0.66,0.44-1.1,0.44-1.98,0
		C359.74,531.75,356.66,528.89,355.34,524.49z M367,539.23c0-1.98,0-1.98,1.76-1.98c4.18,0,3.52-0.44,3.52,3.52v13.2v15.4
		c0,0.66,0,1.32-1.1,0.88c-0.88-0.22-1.98,0-2.64,0.44c-0.88,0.22-1.1,0-1.1-0.88v-0.44C367.22,559.25,367,549.13,367,539.23z
		 M372.28,522.07c0-0.22,0-0.66,0.22-0.88c0.22,0.22,0.44,0.22,0.44,0.22c2.2,1.32,3.74,3.3,4.62,5.72c0,0-0.44,0.22-0.44,0.44
		h-0.44c-1.32-1.54-2.64-3.08-3.96-4.84C372.5,522.51,372.28,522.29,372.28,522.07z M375.8,575.09c0,1.54-0.88,3.08-1.54,5.06
		c0,0.22-0.44,0.22-0.66,0.44c-0.44-0.22-0.44-0.66-0.44-1.1c1.1-1.98,1.32-4.18,1.32-6.16c-0.22-3.08,0-5.94-0.22-8.8
		c-0.66-11,0-22.44-0.22-33.88v-0.44c0-0.88,0.22-1.32,0.22-1.76c0.66,0.44,1.1,1.32,1.1,1.76c0.22,1.76,0.44,3.74,0.22,5.72
		c-0.22,3.96-0.22,7.92,0,11.88c0,5.06,0.22,10.12,0.66,15.4h-0.44C375.8,567.17,376.24,571.13,375.8,575.09z M372.94,584.77
		c1.98-0.88,2.86-3.08,4.18-4.62c0-0.22,0.44-0.22,0.66-0.22v0.22c0,0.22,0.22,0.22,0.22,0.22c-1.1,2.2-1.76,4.4-4.18,5.5
		c-0.22,0.22-0.88,0-1.1,0C372.72,585.65,372.72,584.77,372.94,584.77z M377.78,521.41c-0.22-0.22-0.88-0.22-1.1-0.44
		c-2.2-2.2-4.84-3.08-7.7-3.08c-2.42,0.22-3.96,1.32-5.72,2.2c-0.66,0.66-1.1,0.66-1.54,0.88v-1.32v-5.28
		c-0.44-6.6,0.44-13.2,1.76-19.58c1.32-5.5,3.52-10.78,6.82-15.62c0-0.22,0.22-0.44,0.66-0.44c0.22,0.22,0.22,0.22,0.22,0.44
		c0.66,4.84,5.28,7.92,9.68,7.7h0.88c2.64,0,2.42,0,1.32,2.42c-1.32,3.08-2.42,6.38-3.3,9.46c-0.88,4.62-1.54,9.02-1.54,13.42
		c0,2.64-0.22,5.72-0.22,8.36L377.78,521.41z M381.96,484.89v-0.44c-0.44,0-0.88,0.44-1.32,0c-0.22,0-0.88-0.22-0.88-0.44
		c0,0,0.44-0.44,0.66-0.44c1.98-0.44,4.18-0.44,6.38-0.44c0.22,0,0.22,0.44,0.22,0.44s-0.22,0.22-0.66,0.22
		C385.04,484.23,383.5,484.45,381.96,484.89z M361.28,537.03v16.94v16.28v1.32c0,0.88-0.22,1.76-0.88,1.76
		c-0.44,0.22-0.66-0.88-0.66-1.32c-0.22-11.88-0.22-23.54-0.44-35.42v-0.88c0-0.44,0.22-0.66,0.44-1.32c0.66,0.66,1.1,0.66,1.32,1.1
		C361.28,535.93,361.28,536.59,361.28,537.03z M367.88,639.55c-5.5-1.54-9.46-4.84-10.78-10.56c-0.44-1.98-0.44-3.74-0.66-5.5
		c-0.44-3.08-0.44-6.16-0.66-9.24c0-3.3-0.22-6.6-0.44-10.12h0.22c-0.22-5.28-0.44-10.56-0.44-15.84c0-7.04,3.3-11,9.9-14.3h1.32
		c0.66,0.22,0.66,1.1,0,1.32c-0.44,0.66-1.1,0.88-1.54,1.1c-5.72,2.64-8.36,7.04-8.14,13.2c0,2.2-0.22,4.18,0,6.16
		c0,5.28,0.22,10.56,0.44,15.84c0,4.4,0.66,8.58,0.88,12.76c0.22,1.76,0.22,3.3,0.66,4.84c1.76,4.84,5.06,7.48,9.68,9.24l2.2,1.32
		C369.86,639.77,368.76,639.77,367.88,639.55z M365.02,628.99c-1.32-1.54-1.32-3.52-1.54-5.28c-0.22-3.3-0.22-6.38-0.44-9.9
		c0-4.18,0-8.58-0.66-13.2c-0.44-4.18-0.22-8.36-0.22-12.54c0-0.66,0-1.1,0.22-1.54l1.1,0.66c3.96,3.52,9.24,3.52,13.2,0l0.88-0.66
		c0.22,0,0.44,0.22,0.66,0.44c0.22,0,0,0.22,0,0.22c0.22,3.74,0.66,7.48,0.66,11.22c0.22,4.4,0.22,8.8,0.44,13.42l0.88,8.14h-0.44
		c0,1.54-0.22,3.08,0,4.84c0.44,3.08-1.76,4.84-4.18,6.16C372.28,632.95,367.88,632.07,365.02,628.99z M382.18,588.07
		c0.22,2.64,0.22,5.06,0.66,7.7c0,5.28,0.22,10.56,0.22,16.06l0.66,10.34c-0.22,1.76-0.22,3.96-0.66,6.16
		c-0.66,2.42-1.98,4.4-4.18,5.72c0,0.22-0.66,0.22-0.88,0.22c0.22-0.22,0.22-0.66,0.22-0.88c1.54-1.32,2.64-2.64,3.3-4.4
		c0.22-1.1,0.44-2.2,0.44-2.86c0.22-3.96,0.22-7.92,0-11.88c0-3.96-0.22-7.92-0.22-11.88c-0.22-2.64,0-5.72-0.88-8.36
		c-0.44-3.08,0.66-6.6-1.1-9.46c-0.22-0.22-0.22-0.44,0-0.66c0-0.66,0.44-0.88,0.66-1.1c0,0.22,0.44,0.22,0.44,0.66
		C381.52,584.77,381.96,586.53,382.18,588.07z M386.8,490.17c-2.42,4.62-3.52,9.9-4.4,15.18c-0.22,4.84-0.66,9.24-0.66,14.08
		c0,1.54-0.22,3.3-1.32,5.06l-0.66,0.44c-0.22-0.22-0.44-0.44-0.44-0.88v-0.88c0.22-1.98,0.44-3.96,0.88-5.94
		c0.22-3.3,0.66-7.04,0.88-10.78c0-3.52,0.88-7.04,1.98-10.56c0.66-2.86,1.98-5.5,3.08-8.14c0.22-0.22,0.88-0.66,1.1-1.1l0.22,1.54
		C387.24,488.85,387.24,489.51,386.8,490.17z M420.02,478.95c-3.74-2.64-7.7-3.96-12.1-4.4c-6.6-0.66-12.76,1.32-18.48,5.06
		c-1.76,0.88-3.52,1.54-5.72,1.32c0,0-0.22-0.44-0.44-0.44c0.22,0,0.22-0.22,0.44-0.22c3.3-1.54,6.38-3.3,9.9-5.06
		c2.64-1.32,5.5-1.98,8.58-1.98c1.1,0,2.2-0.66,3.08-0.66c5.72,0.44,11,1.98,15.4,4.84c1.32,0.88,2.64,1.54,3.96,2.64
		c0.44,0,0.44,0.44,0.66,1.1c-0.66,0-1.1,0.22-1.32,0L420.02,478.95z M440.26,524.05c-0.22-0.22-0.44-0.44-0.66-0.44
		c-1.76-2.2-1.98-4.84-3.08-6.82c-1.32-3.96-2.2-8.14-4.18-11.88c-1.76-4.18-3.96-8.14-6.38-12.1c-0.66-1.76-1.76-3.3-2.2-4.84
		l0.22-1.1c0.22,0.22,0.66,0.22,1.1,0.66c2.2,4.4,4.84,8.58,7.26,13.42c2.86,5.72,5.06,12.32,6.82,18.7l0.88,2.2l0.88,1.54
		C440.48,523.61,440.26,523.83,440.26,524.05z M441.58,520.09c0-0.22,0-0.44-0.22-0.66c-0.88-2.42-1.32-4.84-2.42-7.26
		c-1.1-3.3-2.42-6.82-3.74-10.12c-1.76-4.84-4.4-9.24-7.26-13.64c-0.66-0.88-0.22-0.88,0.44-0.88c3.3,0,6.16-1.1,8.14-3.52
		c1.32-1.54,2.2-3.52,2.42-5.5c0.22-0.22,0.22-0.66,0.22-0.88c0.44,0.22,0.88,0.22,0.88,0.66c2.2,2.64,3.96,4.84,5.72,7.48
		c3.74,6.16,6.6,12.54,8.58,19.36c1.1,3.52,1.76,6.82,2.64,10.34c0.22,0.44,0.22,0.66,0.22,1.32c-0.44-0.22-0.88,0-1.1-0.22
		c-1.76-1.1-3.74-1.32-5.72-1.32c-2.2-0.44-3.96,0.66-5.5,1.98l-2.42,2.42C442.24,519.87,441.8,519.87,441.58,520.09z
		 M443.56,526.03c0,0.22,0,0.22-0.44,0.22l-0.22-0.22c-0.22-1.32,2.2-5.94,3.52-6.6h0.44c0.22,0.22,0.66,0.66,0.22,0.66
		C446.2,522.29,444.88,524.05,443.56,526.03z M464.68,629.21c-3.08-1.1-4.84-3.74-6.38-6.16c-3.96-5.5-6.82-11.44-9.02-18.04
		c-1.54-4.62-2.64-9.02-3.08-13.86l-0.88-5.94c0.22-1.1,0.22-2.42,0.44-3.52c0-0.22,0.66-0.22,0.88-0.44l0.44,0.44v0.88
		c-0.66,6.82,1.1,12.76,2.64,19.14c1.98,7.48,5.06,14.3,9.68,20.46c1.32,1.98,2.86,4.18,5.5,5.5c0,0.22,0.22,0.22,0.22,0.22
		c0.22,0.88,0.88,1.32,1.1,1.76C465.56,629.43,465.12,629.43,464.68,629.21z M470.18,629.65c0,0-0.66-0.22-0.66-0.44l-1.54-5.06
		c0-0.44,0.22-1.1,0.66-1.54c0-0.22,0.22-0.44,0.44-0.44c0.22,0.22,0.44,0.44,0.44,0.66l0.88,6.16
		C470.62,629.21,470.4,629.43,470.18,629.65z M468.86,617.33c-2.2,1.54-3.52,3.52-3.52,6.38c0,0.44-0.22,0.66-0.22,1.32l-1.32-0.88
		c-1.54-1.98-3.08-4.18-4.84-6.6c-3.96-5.94-6.16-12.54-7.92-19.58c-0.66-3.3-0.88-6.82-1.54-10.12c-0.22-0.88-0.22-1.98-0.44-2.64
		c0-0.44,0.22-0.66,0.44-0.88l0.88,0.44c5.06,3.52,9.68,1.98,13.64-1.98c0.66-0.22,0.66-1.1,0.88,0.22c0.44,1.76,1.1,3.74,1.32,5.72
		c1.76,8.8,4.4,16.94,9.46,24.42c0.22,0.22,0.22,0.44,0.22,0.66c0.66,0.66,0.88,0.88-0.22,1.1
		C473.26,615.13,470.84,615.79,468.86,617.33z M522.76,626.57c-3.74,5.06-8.8,8.8-14.96,10.56c-3.3,1.1-6.82,1.54-8.8,2.2
		c-9.24-0.66-16.5-2.64-23.1-7.04c-1.76-1.32-2.86-3.08-3.3-5.28c0-0.22,0.22-0.44,0.44-0.66c0,0.22,0.22,0.22,0.22,0.44
		c2.42,3.96,6.16,5.94,10.12,7.48c2.86,1.1,5.72,1.98,8.58,2.64c2.2,0.44,4.4,0.44,6.38,0.22c2.64,0,5.06-0.22,7.7-1.1
		c3.52-1.1,6.6-2.64,9.46-4.62c3.52-2.42,5.94-5.94,7.92-9.02c0.22-0.22,0.22-0.66,0.66-0.66c0,0.44,0.22,0.44,0.22,0.66
		C524.52,624.15,523.42,625.25,522.76,626.57z M527.16,622.61c-0.88-0.88-0.44-1.76-0.88-2.86c0-1.1-0.22-2.2-0.44-3.3l-0.88-1.32
		c0-0.44,0.44-0.66,0.66-1.32l0.66,0.88c0.66,1.54,1.32,3.52,1.98,4.84C527.6,620.85,527.38,621.73,527.16,622.61z M530.02,615.13
		l-0.66-1.32c-1.1-2.86-3.52-3.52-6.16-4.18c-2.42-0.44-4.4,0-6.6,0.66c-0.88,0.22-1.1,0.22-0.88-0.66
		c1.1-3.96,1.98-7.92,1.98-11.88c-0.22-3.74,0.22-7.04,0.22-10.78c0-3.74-0.22-7.48-0.44-11v-1.32c0.22-0.66,0.44-0.66,0.66-0.44
		l1.32,0.88c3.74,2.42,8.14,2.42,11.66-0.22c0.88-0.66,1.32-0.88,2.2-1.1c0,0.88,0.44,1.54,0.44,2.2c0.22,3.52,0.22,7.04,0.44,10.56
		c0,1.98,0.66,3.96,0.66,4.84c-0.66,8.58-1.1,16.28-3.96,23.54c0,0.22-0.22,0.66-0.22,0.66
		C530.24,615.57,530.02,615.13,530.02,615.13z M534.64,615.57c-0.66,1.54-1.76,3.08-2.64,4.62l-0.88,0.22
		c-0.22-0.22-0.22-0.44-0.22-0.66c0-0.66,0-0.88,0.22-1.1c2.64-2.64,3.08-6.38,3.96-9.68c0.88-3.3,1.32-6.6,1.32-10.34
		c0.22-2.64,0.44-5.06,0.44-7.7c0-3.96-0.44-7.7-0.66-11.66c-0.22-1.76-0.22-3.96-0.66-5.72l-0.66-2.64c0-0.22,0.22-0.66,0.44-1.1
		l0.88,0.44c1.32,2.2,1.32,4.62,1.32,6.6c0.22,4.4,0.44,8.58,0.44,12.76c0,0.88,0.22,1.76,0.66,2.64
		C538.16,600.17,537.72,608.09,534.64,615.57z"/>
	<path class="st0" d="M657.19,545.54c0.68-5.9,3.97-9.4,10.11-10.05c-6.16-0.66-9.68-4.4-10.34-10.34
		c-0.88,5.94-4.18,9.46-10.34,10.34c6.13,0.44,9.65,4.15,10.55,10.04c-5.93-3.2-12.78-5.57-20.23-7.18l-26.62-5.72
		c-17.16-3.96-26.62-10.34-26.62-23.1c0-13.42,14.08-22.44,32.78-22.44c22,0,34.76,11.66,35.86,28.38h23.98
		c-1.76-29.04-23.54-48.18-58.96-48.18c-33.22,0-57.64,18.48-57.64,44.22c0,23.98,19.14,37.84,42.9,42.9l24.2,5.28
		c17.82,3.74,28.6,10.34,28.6,23.98c0,16.06-13.86,25.3-36.08,25.3c-22.88,0-39.6-12.76-40.92-34.76h-23.98
		c1.1,33.22,25.52,54.34,64.24,54.34c38.5,0,60.72-20.68,60.72-47.3C679.4,564.44,670.69,552.83,657.19,545.54z"/>
	<path class="st0" d="M822.18,482.69c-0.88,5.94-4.18,9.46-10.34,10.34c6.16,0.44,9.68,4.18,10.56,10.12
		c0.66-5.94,3.96-9.46,10.12-10.12C826.36,492.37,822.84,488.63,822.18,482.69z"/>
	<path class="st0" d="M674.78,396.01c-0.88,5.94-4.18,9.46-10.34,10.34c6.16,0.44,9.68,4.18,10.56,10.12
		c0.66-5.94,3.96-9.46,10.12-10.12C678.96,405.69,675.44,401.95,674.78,396.01z"/>
	<path class="st0" d="M701.84,572.23c-0.88,5.94-4.18,9.46-10.34,10.34c6.16,0.44,9.68,4.18,10.56,10.12
		c0.66-5.94,3.96-9.46,10.12-10.12C706.02,581.91,702.5,578.17,701.84,572.23z"/>
	<path class="st0" d="M813.16,551.33c-0.88,5.94-4.18,9.46-10.34,10.34c6.16,0.44,9.68,4.18,10.56,10.12
		c0.66-5.94,3.96-9.46,10.12-10.12C817.34,561.01,813.82,557.27,813.16,551.33z"/>
	<path class="st0" d="M773.78,518.99c-5.02-0.54-8.29-3.12-9.68-7.28v-21.11h52.36v-19.58h-91.67c1.39-3.94,4.47-6.29,9.39-6.82
		c-6.16-0.66-9.68-4.4-10.34-10.34c-0.88,5.94-4.18,9.46-10.34,10.34c4.92,0.35,8.15,2.82,9.7,6.82H688.2v19.58h20.38
		c-1.2,5.01-4.43,8-10.04,8.8c6.16,0.44,9.68,4.18,10.56,10.12c0.66-5.94,3.96-9.46,10.12-10.12c-5.61-0.6-9.02-3.76-10.09-8.8
		h31.65v134.42h23.32v-98.27C765.31,522.24,768.48,519.56,773.78,518.99z"/>
	<path class="st0" d="M715.7,626.57c-0.88,5.94-4.18,9.46-10.34,10.34c6.16,0.44,9.68,4.18,10.56,10.12
		c0.66-5.94,3.96-9.46,10.12-10.12C719.88,636.25,716.36,632.51,715.7,626.57z"/>
	<path class="st0" d="M774.66,617.11c-0.88,5.94-4.18,9.46-10.34,10.34c6.16,0.44,9.68,4.18,10.56,10.12
		c0.66-5.94,3.96-9.46,10.12-10.12C778.84,626.79,775.32,623.05,774.66,617.11z"/>
	<path class="st0" d="M676.98,313.07c-0.66,5.94-3.96,9.46-10.12,10.34c6.16,0.44,9.68,4.18,10.34,10.12
		c0.88-5.94,4.18-9.46,10.34-10.12C681.38,322.75,677.86,319.01,676.98,313.07z"/>
	<path class="st0" d="M725.38,292.61c0.66-5.94,3.96-9.46,10.12-10.12c-6.16-0.66-9.68-4.4-10.34-10.34
		c-0.88,5.94-4.18,9.46-10.34,10.34C720.98,282.93,724.5,286.67,725.38,292.61z"/>
	<path class="st0" d="M805.02,321.43c0.66-5.94,3.96-9.46,10.12-10.12c-6.16-0.66-9.68-4.4-10.34-10.34
		c-0.88,5.94-4.18,9.46-10.34,10.34C800.62,311.75,804.14,315.49,805.02,321.43z"/>
	<path class="st0" d="M758.6,346.51c0.66-5.94,3.96-9.46,10.12-10.12c-6.16-0.66-9.68-4.4-10.34-10.34
		c-0.88,5.94-4.18,9.46-10.34,10.34C754.2,336.83,757.72,340.57,758.6,346.51z"/>
	<path class="st0" d="M617.58,406.35c0.66-5.94,3.96-9.46,10.12-10.12c-6.16-0.66-9.68-4.4-10.34-10.34
		c-0.88,5.94-4.18,9.46-10.34,10.34C613.18,396.67,616.7,400.41,617.58,406.35z"/>
	<path class="st0" d="M755.3,417.13c6.16,0.44,9.68,4.18,10.56,10.12c0.66-5.94,3.96-9.46,10.12-10.12
		c-6.16-0.66-9.68-4.4-10.34-10.34C764.76,412.73,761.46,416.25,755.3,417.13z"/>
	<path class="st0" d="M830.32,380.39c0.66-5.94,3.96-9.46,10.12-10.12c-6.16-0.66-9.68-4.4-10.34-10.34
		c-0.88,5.94-4.18,9.46-10.34,10.34C825.92,370.71,829.44,374.45,830.32,380.39z"/>
	<path class="st0" d="M907.76,443.75c0.66-5.94,3.96-9.46,10.12-10.12c-6.16-0.66-9.68-4.4-10.34-10.34
		c-0.88,5.94-4.18,9.46-10.34,10.34C903.36,434.07,906.88,437.81,907.76,443.75z"/>
	<path class="st0" d="M834.94,448.59c-0.88,5.94-4.18,9.46-10.34,10.34c6.16,0.44,9.68,4.18,10.56,10.12
		c0.66-5.94,3.96-9.46,10.12-10.12C839.12,458.27,835.6,454.53,834.94,448.59z"/>
	<path class="st0" d="M956.16,471.03l-16.94,44.44h-67.76l-16.72-44.44h-24.86l62.26,154h27.5l62.48-154H956.16z M910.4,591.59
		c-0.84,2.3-1.62,4.5-2.38,6.67c-2.13-1.79-3.41-4.43-3.78-7.77c-0.33,2.25-1.02,4.16-2.07,5.7c-0.61-1.53-1.23-3.07-1.89-4.6
		l-21.34-56.54h53.02L910.4,591.59z"/>
	<path class="st0" d="M1054.28,563.65h45.98v2.2c0,27.72-18.04,43.12-44.22,43.12c-30.14,0-50.82-24.64-50.82-60.5
		c0-39.6,21.78-61.38,51.7-61.38c21.34,0,36.74,12.32,39.6,29.7h24.42c-3.3-28.82-28.6-49.5-64.24-49.5
		c-42.46,0-75.68,30.36-75.68,81.18c0,46.64,28.38,80.08,72.82,80.08c22.66,0,40.04-10.56,48.18-24.42
		c-0.44,5.06-0.66,10.12-0.66,14.74v6.16h20.24v-81.18h-67.32V563.65z"/>
	<path class="st0" d="M1287.7,445.29l-3.96,3.08c-4.84,4.18-8.8,7.92-12.1,11C1276.26,455.19,1281.54,450.57,1287.7,445.29z"/>
	<path class="st0" d="M1159.22,462.67l6.16,4.84c0-0.22,0-0.44-0.22-0.88L1159.22,462.67z"/>
	<path class="st0" d="M1179.68,432.31c0.66,1.54,1.32,3.08,2.2,4.62l4.84,7.92C1184.52,441.11,1182.32,436.93,1179.68,432.31z"/>
	<path class="st0" d="M1149.1,494.57c0.22,0,0.22,0,0.44,0.22v-0.22C1149.32,494.57,1149.32,494.57,1149.1,494.57z"/>
	<path class="st0" d="M1299.8,496.99c-6.6,0.22-12.32,0.44-17.6,0.44c-2.86,0.66-4.84,1.32-5.94,1.98
		C1282.42,498.53,1290.12,497.87,1299.8,496.99z"/>
	<path class="st0" d="M1278.02,531.53c2.42,1.1,5.06,1.98,7.92,3.08c-4.62-2.42-8.58-4.4-12.1-6.38
		C1274.72,529.33,1276.26,530.43,1278.02,531.53z"/>
	<path class="st0" d="M1264.38,538.13c0.22-1.54,4.84,0.22,14.52,5.5c-15.84-13.86-13.64-15.18,5.94-7.26
		c-2.64-1.76-5.06-3.3-6.82-4.84C1252.72,522.29,1248.1,522.95,1264.38,538.13z"/>
	<path class="st0" d="M1291.88,524.93c-6.6-2.2-12.32-4.18-16.94-5.94c0.66,0.66,1.54,1.54,3.08,2.42
		C1281.98,522.51,1286.6,523.61,1291.88,524.93z"/>
	<path class="st0" d="M1264.38,538.13c-0.22,0.88,0.66,2.2,2.42,4.4l7.92,5.06C1270.54,544.07,1267.24,540.77,1264.38,538.13z"/>
	<path class="st0" d="M1258.88,549.35c1.76,1.1,4.4,3.08,7.48,5.72c-11.22-14.96-8.36-15.4,6.6-5.5c-2.64-2.86-4.62-5.06-6.16-7.04
		C1245.9,529.77,1245.9,532.85,1258.88,549.35z"/>
	<path class="st0" d="M1191.56,568.71c0.88-1.76,1.76-3.52,2.64-5.06c-0.44,0-1.1,0.22-1.54,0.44
		C1192.22,565.63,1192,567.17,1191.56,568.71z"/>
	<path class="st0" d="M1273.84,528.23c-5.5-4.62-0.88-4.62,16.28,0c-5.5-2.64-9.46-5.06-12.1-6.82
		C1253.16,515.69,1253.82,517.67,1273.84,528.23z"/>
	<path class="st0" d="M1254.92,547.59c2.64,2.2,5.72,5.06,9.46,8.58l-5.5-6.82C1256.9,548.03,1255.58,547.37,1254.92,547.59z"/>
	<path class="st0" d="M1203.44,571.57l1.32-4.84c-0.22-0.88-0.44-1.54-0.66-1.98L1203.44,571.57z"/>
	<path class="st0" d="M1219.94,573.11c0-2.64,0-5.06,0.22-7.26c-0.44,0.44-0.66,1.1-1.1,1.98
		C1219.28,569.59,1219.72,571.13,1219.94,573.11z"/>
	<path class="st0" d="M1204.76,566.73c0.22,1.54,0.22,3.74,0.22,6.6c3.74-12.32,4.62-10.78,3.3,1.32c0.44-1.1,0.66-1.98,1.1-2.86
		c0-0.12,0-0.29,0.03-0.46C1211.13,547.99,1210.66,544.44,1204.76,566.73z"/>
	<path class="st0" d="M1194.2,563.65c1.98-0.22,2.86,2.64,2.86,8.8c3.52-6.38,5.72-9.46,7.04-7.7
		C1205.42,545.39,1202.34,547.15,1194.2,563.65z"/>
	<path class="st0" d="M1249.42,555.95c-2.64-7.7,1.1-5.5,10.56,3.74c-4.62-7.48-6.38-11.66-5.06-12.1
		C1243.04,537.03,1241.06,538.57,1249.42,555.95z"/>
	<path class="st0" d="M1179.68,561.45c8.58-20.02,3.96-18.48-9.46-6.38c7.7-12.1,6.82-13.64-4.4-5.06c8.14-9.46,5.94-8.36-2.2-1.32
		c8.14-7.04,9.24-8.8-0.66-2.2c9.46-9.24,7.92-10.12-3.52-4.62c11.44-10.12,12.98-13.86-3.74-9.02c15.84-11,13.42-13.42-4.4-11.88
		c17.82-7.7,20.24-11.44-1.54-13.64c21.34-4.4,19.14-7.48-0.22-12.54c0,1.54-0.88,3.3-2.64,5.06c3.52,3.74,3.08,7.26,0,11.44
		c3.08,3.52,3.52,7.48,1.76,12.1c1.98,3.52,1.98,7.7,1.54,12.1c0.44,3.96,0.44,8.36,0.44,12.54v77h23.32v-55.22
		c0-3.08,0-5.72-0.66-6.6c0.22-1.54,0.44-2.42,0-2.42c1.98-1.1,5.06-0.22,6.6,4.62c5.28-4.84,8.58-5.28,8.14,3.08
		c1.76-2.2,3.3-3.74,4.62-4.4C1196.62,545.61,1193.98,544.07,1179.68,561.45z"/>
	<path class="st0" d="M1247.66,556.17c-13.86-17.16-13.42-11-6.16,12.76c-10.56-22-13.64-25.08-9.68-1.54
		c0.66,0.66,1.54,2.86,2.86,5.94c0.44-5.28,1.98-2.2,3.52,2.2c0.22,1.32,0.66,3.3,0.88,5.72c0.22,2.2,0.44,4.62,0.44,7.48v36.3
		h23.32v-40.7c0-5.06-0.66-9.46-1.76-13.64c-0.66-1.98-1.32-3.96-2.2-5.5c-0.88-1.76-1.76-3.3-1.1-2.42
		c-4.18-5.72-6.82-8.14-3.08,0.66c-1.54-2.2-3.08-3.96-4.18-5.28c0.88,1.54,1.76,3.3,2.64,5.06l-1.32-1.76
		c-0.66-1.32-1.32-2.64-1.76-3.96C1248.54,555.73,1247.66,555.07,1247.66,556.17z M1251.18,564.97c-5.28-7.7-7.92-10.56-8.14-8.8
		c-0.22-2.86,1.32-2.2,5.28,2.2C1248.76,559.91,1249.86,562.11,1251.18,564.97z"/>
	<path class="st0" d="M1150.64,486.65c21.12,3.96,18.7,2.42,0.44-3.52c18.26,5.94,21.56,6.6,0.66-1.32
		c23.76,7.48,23.32,6.16,1.1-4.62c24.86,9.9,29.7,11,2.2-4.62c32.12,15.4,36.3,16.06,10.34-5.06c-0.22,1.32-3.3,0.66-8.8-1.76
		c5.5,5.06,2.64,5.06-2.64,3.3c-0.66,1.98-3.3,1.98-3.52,1.98c0.22,0,0.22,1.98-0.66,4.84c0.66,1.98,0.88,4.18-0.88,5.94
		c1.54,2.86,1.32,5.5-1.54,7.92c1.32,1.76,2.2,3.3,2.2,4.84C1168.9,495.23,1171.1,493.69,1150.64,486.65z"/>
	<path class="st0" d="M1164.72,451.67c14.74,18.48,10.12,17.38-5.06,8.14c3.08,3.3,4.84,5.5,5.5,6.82
		C1194.2,485.77,1192.44,481.81,1164.72,451.67z"/>
	<path class="st0" d="M1181.88,436.93c-0.88-1.32-1.76-2.64-2.64-4.18c15.84,33.66,12.32,31.46-6.82,7.48
		c14.96,25.74,13.2,28.16-7.7,11.44C1199.26,484.67,1204.98,487.97,1181.88,436.93z"/>
	<path class="st0" d="M1209.38,571.79c-0.22,0.44-0.22,1.1-0.22,1.54l0.44-2.42c-0.1,0.1-0.16,0.26-0.19,0.42
		C1209.4,571.48,1209.39,571.63,1209.38,571.79z"/>
	<path class="st0" d="M1250.45,557.93c-0.23-0.77-0.63-1.38-1.03-1.98l0.66,1.54C1250.23,557.64,1250.37,557.78,1250.45,557.93z"/>
	<path class="st0" d="M1231.16,567.39l1.32,3.96c-0.22-1.32-0.44-2.64-0.66-3.96C1231.6,567.17,1231.38,567.17,1231.16,567.39z"/>
	<path class="st0" d="M1209.6,570.91c3.3-8.58,5.5-8.14,8.14,3.52c0.44-2.86,0.88-5.06,1.32-6.6
		C1215.54,547.15,1213.12,550.23,1209.6,570.91z"/>
	<path class="st0" d="M1220.16,565.85c1.32-1.76,3.08,1.54,5.28,8.8c0.44-10.56,1.76-11.22,5.5-1.32c-0.22-3.52-0.22-5.5,0.22-5.94
		C1223.24,544.07,1220.82,543.41,1220.16,565.85z"/>
	<path class="st0" d="M1220.16,447.49c-1.1-5.06-1.76-16.72-2.42-34.76c-0.22,51.26-1.1,54.78-5.72,1.32
		c1.54,53.46-0.66,49.94-12.32,4.4c3.74,20.9,5.28,32.34,4.4,34.1C1211.58,473.23,1215.32,472.79,1220.16,447.49z"/>
	<path class="st0" d="M1282.2,497.43c4.18-0.88,10.12-1.76,17.82-2.64c-33.66-0.22-36.3-1.98,0-12.1
		c-16.28,2.42-25.74,3.3-27.94,2.42C1247.44,496.11,1252.28,498.09,1282.2,497.43z"/>
	<path class="st0" d="M1272.08,485.11c6.6-3.08,15.62-6.82,26.84-11.22c-8.8,2.64-16.28,4.84-22.66,6.6
		C1271.86,482.91,1270.32,484.45,1272.08,485.11z"/>
	<path class="st0" d="M1276.26,480.49c4.4-2.42,11.66-5.72,22-10.12c-38.5,12.1-42.02,11.44-3.96-12.54
		c-33.66,16.5-40.04,17.6-22.66,1.54C1241.72,485.77,1241.72,490.17,1276.26,480.49z"/>
	<path class="st0" d="M1275.38,508.87c5.94,0,13.2,0.44,22.22,0.88l-18.04-2.42C1276.92,507.55,1275.6,508.21,1275.38,508.87z"/>
	<path class="st0" d="M1279.56,507.33c3.74-0.44,9.9-0.66,18.7-0.66c-18.48-3.08-25.74-5.28-22-7.26
		C1254.04,501.83,1254.7,503.59,1279.56,507.33z"/>
	<path class="st0" d="M1201.46,450.35c-2.2-3.96-5.94-12.76-11.44-26.4c11.22,38.5,11,43.56-3.3,20.9
		C1205.64,478.29,1208.94,480.49,1201.46,450.35z"/>
	<path class="st0" d="M1283.74,448.37c1.1-1.1,2.42-2.2,3.74-3.3c-38.5,27.94-42.68,28.82-10.34-12.98
		c-12.32,12.98-20.68,21.34-25.52,24.86C1234.02,485.33,1243.92,478.95,1283.74,448.37z"/>
	<path class="st0" d="M1251.62,456.95c4.62-7.48,11.22-17.38,19.58-29.92c-10.12,12.98-18.04,23.32-24.42,30.8
		C1246.78,459.59,1248.54,459.15,1251.62,456.95z"/>
	<path class="st0" d="M1204.1,452.55c-2.86-7.48-6.16-18.04-10.12-31.24c3.08,11.88,5.72,21.56,7.48,29.04
		C1202.78,452.55,1203.66,453.43,1204.1,452.55z"/>
	<path class="st0" d="M1274.94,518.99c-3.08-3.3,3.52-3.3,19.8-0.88c-13.42-4.62-20.46-7.48-19.36-9.24
		C1250.3,507.99,1250.96,510.41,1274.94,518.99z"/>
	<path class="st0" d="M1224.12,446.83c0.22-9.02,0.88-20.68,1.98-34.76c-2.2,14.96-4.18,26.84-5.94,35.42
		C1221.04,451.67,1222.36,451.45,1224.12,446.83z"/>
	<path class="st0" d="M1246.78,457.83c-0.44-3.74,5.06-15.84,15.4-36.96c-26.18,44-29.26,46.2-12.32-5.5
		c-22.44,53.46-24.64,53.02-17.38-3.3c-3.74,17.82-6.38,29.26-8.36,34.76C1223.24,476.53,1228.08,479.17,1246.78,457.83z"/>
	<polygon class="st0" points="1522.2,577.73 1539.58,577.73 1543.98,565.85 1517.69,565.85 	"/>
	<polygon class="st0" points="1579.4,530.21 1592.6,530.21 1592.6,518.33 1583.8,518.33 	"/>
	<polygon class="st0" points="1561.76,577.73 1592.6,577.73 1592.6,565.85 1566.2,565.85 	"/>
	<path class="st0" d="M1592.6,506.67c0-3.96,0-7.92,0.22-11.88h-0.44l-4.33,11.88H1592.6z"/>
	<polygon class="st0" points="1570.6,553.97 1592.6,553.97 1592.6,542.09 1575,542.09 	"/>
	<polygon class="st0" points="1467.42,493.69 1467.86,494.79 1490.67,494.79 1486.2,482.91 1444.98,482.91 1444.98,494.79 
		1467.42,494.79 	"/>
	<polygon class="st0" points="1495.14,506.67 1565.98,506.67 1570.38,494.79 1490.67,494.79 	"/>
	<polygon class="st0" points="1494.7,565.85 1467.64,565.85 1467.64,577.73 1499.32,577.73 	"/>
	<polygon class="st0" points="1485.68,542.09 1467.64,542.09 1467.64,553.97 1490.3,553.97 	"/>
	<polygon class="st0" points="1553,601.27 1592.6,601.27 1592.6,589.39 1557.4,589.39 	"/>
	<polygon class="st0" points="1467.64,513.93 1467.64,506.67 1444.98,506.67 1444.98,518.33 1467.64,518.33 	"/>
	<polygon class="st0" points="1476.66,518.33 1467.64,518.33 1467.64,530.21 1481.28,530.21 	"/>
	<polygon class="st0" points="1467.64,589.39 1467.64,601.27 1508.12,601.27 1503.72,589.39 	"/>
	<path class="st0" d="M1526.6,589.39c1.54,4.18,2.86,7.92,4.18,11.88h0.44c1.32-3.96,2.42-7.92,3.96-11.88H1526.6z"/>
	<rect x="1592.6" y="601.27" class="st0" width="22.88" height="11.88"/>
	<rect x="1592.6" y="577.73" class="st0" width="22.88" height="11.66"/>
	<rect x="1592.6" y="553.97" class="st0" width="22.88" height="11.88"/>
	<rect x="1444.98" y="530.21" class="st0" width="22.66" height="11.88"/>
	<rect x="1592.6" y="530.21" class="st0" width="22.88" height="11.88"/>
	<rect x="1615.48" y="471.03" class="st0" width="18.7" height="11.88"/>
	<polygon class="st0" points="1574.78,482.91 1570.38,494.79 1592.38,494.79 1592.82,493.69 1592.82,494.79 1615.48,494.79 
		1615.48,482.91 	"/>
	<polygon class="st0" points="1592.6,513.93 1592.6,518.33 1615.48,518.33 1615.48,506.67 1592.6,506.67 	"/>
	<path class="st0" d="M1467.86,494.79h-0.44c0.22,3.96,0.22,7.92,0.22,11.88h4.62L1467.86,494.79z"/>
	<rect x="1444.98" y="553.97" class="st0" width="22.66" height="11.88"/>
	<rect x="1444.98" y="577.73" class="st0" width="22.66" height="11.66"/>
	<path class="st0" d="M1531.22,601.27c-0.22,0.22-0.22,0.22-0.22,0.44c0-0.22,0-0.22-0.22-0.44h-22.66l4.62,11.88h35.86l4.4-11.88
		H1531.22z"/>
	<rect x="1444.98" y="601.27" class="st0" width="22.66" height="11.88"/>
	<rect x="1426.28" y="565.85" class="st0" width="18.7" height="11.88"/>
	<rect x="1426.28" y="589.39" class="st0" width="18.7" height="11.88"/>
	<path class="st0" d="M1426.28,620.1l-60.48-149.08h-27.5l-62.26,154h24.86l16.72-44.44h67.76l16.94,44.44h23.96h2h16.7v-11.88
		h-18.7V620.1z M1325.1,561.01l21.34-56.54c1.98-4.62,3.74-9.24,5.28-13.86c1.54,4.62,3.08,9.02,4.84,13.86l21.56,56.54H1325.1z"/>
	<polygon class="st0" points="1476.66,518.33 1499.61,518.33 1495.14,506.67 1472.26,506.67 	"/>
	<rect x="1615.48" y="494.79" class="st0" width="18.7" height="11.88"/>
	<rect x="1426.28" y="518.33" class="st0" width="18.7" height="11.88"/>
	<polygon class="st0" points="1544.2,625.03 1592.6,625.03 1592.6,613.15 1548.6,613.15 	"/>
	<rect x="1426.28" y="542.09" class="st0" width="18.7" height="11.88"/>
	<rect x="1615.48" y="518.33" class="st0" width="18.7" height="11.88"/>
	<rect x="1615.48" y="542.09" class="st0" width="18.7" height="11.88"/>
	<rect x="1615.48" y="613.15" class="st0" width="18.7" height="11.88"/>
	<rect x="1615.48" y="589.39" class="st0" width="18.7" height="11.88"/>
	<rect x="1615.48" y="565.85" class="st0" width="18.7" height="11.88"/>
	<polygon class="st0" points="1467.64,625.03 1517.14,625.03 1512.74,613.15 1467.64,613.15 	"/>
	<polygon class="st0" points="1536.5,586.09 1535.18,589.39 1557.4,589.39 1561.76,577.73 1539.58,577.73 	"/>
	<polygon class="st0" points="1543.98,565.85 1566.2,565.85 1570.6,553.97 1548.38,553.97 	"/>
	<polygon class="st0" points="1522.2,577.73 1499.32,577.73 1503.72,589.39 1526.6,589.39 1525.28,586.09 	"/>
	<polygon class="st0" points="1552.78,542.09 1575,542.09 1579.4,530.21 1557.18,530.21 	"/>
	<polygon class="st0" points="1513.18,553.97 1490.3,553.97 1494.7,565.85 1517.69,565.85 	"/>
	<polygon class="st0" points="1583.8,518.33 1588.05,506.67 1565.98,506.67 1561.58,518.33 	"/>
	<polygon class="st0" points="1579.18,471.03 1481.72,471.03 1486.2,482.91 1574.78,482.91 	"/>
	<polygon class="st0" points="1504.16,530.21 1481.28,530.21 1485.68,542.09 1508.67,542.09 	"/>
	<rect x="1426.28" y="471.03" class="st0" width="18.7" height="11.88"/>
	<rect x="1426.28" y="494.79" class="st0" width="18.7" height="11.88"/>
	<polygon class="st0" points="1557.18,530.21 1561.58,518.33 1499.61,518.33 1504.16,530.21 	"/>
	<polygon class="st0" points="1513.18,553.97 1548.38,553.97 1552.78,542.09 1508.67,542.09 	"/>
</g>
</svg>
