<?xml version="1.0" encoding="utf-8"?>
<!-- Generator: Adobe Illustrator 26.0.1, SVG Export Plug-In . SVG Version: 6.00 Build 0)  -->
<svg version="1.1" xmlns="http://www.w3.org/2000/svg" xmlns:xlink="http://www.w3.org/1999/xlink" x="0px" y="0px"
	 viewBox="0 0 1920 1080" style="enable-background:new 0 0 1920 1080;" xml:space="preserve">
<style type="text/css">
	.st0{fill:none;}
	.st1{fill:#FFFF00;}
	.st2{fill:#0000FF;}
	.st3{fill:#00BE1C;}
</style>
<g id="Ebene_1">
	<path class="st2" d="M1418.8,438.47c3.52,0,7.04,0.44,9.9,0.44h2.42h14.3c4.18,0,8.36,0,12.54,0.66h11.66c4.18,0,8.36,0,11.88,0.66
		h6.6h1.76h12.98h1.32c0.66,0.44,0.66,0.44,0.66,1.1v0.66v1.76v0.66v1.76c0.44,0.44,0.44,1.76,0.44,2.42v0.44
		c0,1.32,0.66,2.42,0.66,3.52v1.32c0,0.66,0,1.76,0.66,2.42c0.44,0.44,0.44,1.1,0,1.76v2.2v1.32c-0.66,0.66-0.66,0.66-0.66,1.76v1.1
		c-0.66,0.66-0.66,1.32-0.66,1.76v2.42c-0.44,0-0.44,0.66-0.44,1.32v2.86v1.76v0.66c0.44,1.1,0.44,1.76,0.44,2.86v0.66
		c-0.44,0.66-0.44,0.66-0.44,1.1c-0.66,0-0.66,0.66-1.32,0.66c0,0-0.66,0-0.66,0.66c-0.44,0.66-1.1,0.66-1.76,0.66
		c-0.44,0-1.1,0.44-1.76,1.1c0,0,0,0.66-0.44,0.66h-1.76h-0.66c-0.66-0.66-0.66-0.66-0.66-1.32h-0.66c0-1.1,0-2.42-0.44-2.86v-0.66
		l-0.66-0.66h-1.1h-3.08h-0.66h-1.1h-1.76c-0.66,0-0.66,0-1.1,0.66c-0.66,0-1.98,0.66-2.42,0.66c-0.66,0.44-0.66,0.44-1.32,0.44
		h-1.1c-0.66,0-0.66,0.66-1.1,0.66h-1.76h-1.98h-0.44l-0.66,0.66c-0.66,0.66-0.66,0.66-1.1,0.66h-0.66c-0.66,0-0.66,0-1.1,0.44
		c-0.66,0.66-1.32,0.66-1.98,0.66c0-0.66-0.44-0.66-0.44-0.66c-0.66,0-1.32,0.66-1.32,0.66h-1.76h-0.44
		c-0.66,0.66-1.98,0.66-2.42,0.66c-0.66,0.44-1.76,0.44-2.42,1.1h-1.76h-0.66c-0.44,0.66-0.44,0.66-1.1,0.66
		c0,0.44-0.66,0.44-1.32,1.1h-0.44h-1.32h-0.44c-0.66,0.66-1.32,0.66-1.32,0.66c-0.44,0-0.44,0.66-1.1,0
		c-0.66,0-1.76-0.66-2.42-0.66h-0.66c-0.44,0-1.1,0.66-1.1,1.32c-0.66,0.44-0.66,0.44-1.1,1.1v0.66c-0.66,0.44-1.32,1.76-1.76,2.2
		v0.66c-0.66,0.66-0.66,1.76-1.32,2.42c-0.66,0.66-1.1,1.1-1.1,2.42l-0.66,0.44v3.74v2.86v1.1c0,1.32,0,2.42,0.66,3.74v0.44
		c0.44,0.66,0.44,1.32,0.44,1.76c0,0.66,0.66,1.32,0.66,1.32v2.42c0.66,0.44,0.66,0.44,0.66,1.1v0.66v1.1
		c0.66,0,0.66,0.66,0.66,0.66v0.44c0,0.66,0,1.32,0.44,1.32c0.66,0.66,0.66,1.1,0.66,1.1v1.32v0.44c0,1.32,0.66,2.42,1.1,3.08
		c0,0.66,0,0.66,0.66,1.1c0,0.66,0.66,1.76,0,2.42c0,1.1,0.66,1.76,0.66,2.42v0.44c0.44,0.66,1.1,1.98,1.1,3.08
		c0,0.66,0,1.1,0.66,1.76v0.66v0.44c-0.66,0.66-0.66,1.32-0.66,1.98v1.76v0.44c0.66,1.32,0.66,1.76,0.66,3.08v0.66
		c0,0.44,0.44,1.1,0.44,1.1v0.66c0.66,0.44,0.66,0.44,0,1.1c0,0.66-0.44,0.66-0.44,1.1c0,0.66,0,1.32,0.44,1.76v1.98
		c0,0.44-0.44,1.1-1.1,1.76c0,0.44,0,0.44-0.66,1.1c0,1.1-0.44,1.76-0.44,3.08v0.44v1.76v1.32v0.44c0.44,0.66,0.44,1.32,0,1.76v1.32
		c0,0.66,0.44,1.1,0.44,1.76c0.66,0.66,0.66,1.1,0.66,2.42v1.76v1.1c-0.66,0.66-0.66,1.32-1.1,1.76c0,0.66,0,1.76,0.44,2.42v0.66
		v1.1c-0.44,1.76-0.44,3.52-0.44,5.28v2.42v0.66c0.44,1.1,0.44,1.76,0.44,2.42c0,1.1,0.66,1.76,0.66,2.86v0.66
		c-0.66,0.66,0,1.1,0,1.76c0.66,0.66,0.66,1.1,1.1,2.42c0,0.66,0.66,1.1,0.66,1.76v1.76c0,1.1,0.66,2.86,0.66,4.18v1.1v2.42
		c0.66,0.66,0.66,0.66,0.66,1.1v1.32c0,0-0.66,0.66-0.66,1.1v0.66c0,0.66-0.66,0.66-0.66,1.1v3.08c0,0.66,0,1.76,0.66,2.42
		c0.66,0.44,0.66,1.1,0.66,1.76v0.44c0.44,0.66,0.44,1.76,1.1,2.42v0.66c0,1.1,0.66,2.42,0.66,3.52v3.08c0,0.44,0.44,0.44,0.44,1.1
		v0.66c0,1.1,0.66,1.76,0.66,2.2c0,0.66,0,0.66,0.66,1.32v1.1c0,0.66,0,1.76,0.44,2.42c0,1.1,0.66,1.76,0.66,2.86
		c0.66,1.32,0.66,2.42,0.66,3.08v1.1v0.66c-0.66,0.66-0.66,1.76-1.32,2.42c0,0.66,0,0.66-0.44,1.1h-0.66h-5.28h-2.42h-1.1
		c-1.32,0.66-2.42,0.66-3.74,0.66h-2.2h-1.76c-1.32,0-2.42,0-3.74,0.66h-1.1h-8.36c-2.42,0.44-5.28,0-7.7,0.44h-4.62
		c-2.42,0.66-4.18,0-6.6,0c-0.66,0-0.66,0-0.66-0.44l0.66-0.66v-1.76v-2.42v-1.1c0-0.66-0.66-1.32-1.1-1.32v-0.44
		c-1.32-0.66-1.32-1.32-1.32-1.98v-1.1v-1.1c-0.66-0.66-0.66-1.32-0.66-1.76v-1.32v-1.76c0-0.66,0.66-1.1,0.66-1.76v-2.42
		c0.66-1.1,1.32-2.42,1.32-4.18c-0.66-0.44,0-1.1,0-1.76c-0.66,0-0.66-0.44,0-0.44v-1.32c0.44,0,0.44-0.66,0.44-0.66
		c0-0.44,0-0.44,0.66-1.1v-1.1c0-0.66,0-0.66-0.66-1.32v-0.44c0-1.32,0-1.76-0.44-2.42v-1.32l-0.66-0.44v-0.66
		c-1.32,0-1.76-1.1-1.76-1.76c-0.66-1.1-1.32-1.1-1.32-1.76c-0.44-0.66-1.1-1.32-1.1-2.42v-0.66v-1.1c0.66-0.66,0.66-1.1,0-1.76
		v-1.76v-1.76c0.66-1.32,0.66-1.76,0.66-3.08v-1.76c-0.66,0-0.66,0-0.66-0.66v-0.44h0.66c0-1.32,0.44-1.76,0.44-3.08v-0.44
		c0.66-0.66,0.66-1.32,0.66-1.98c0.66-0.44,0.66-0.44,0.66-1.1c0.44-0.66,0.44-1.1,0.44-1.76c0.66-0.66,0.66-1.76,0.66-3.08
		c0-0.44,0-1.1,0.66-1.76c0.66-0.44,0.66-0.44,0.66-1.1c-0.66-0.66-0.66-1.1-0.66-1.76v-1.76c-0.66-0.66-0.66-1.32-1.32-1.76v-2.42
		v-0.66c-0.44-0.44-0.44-1.76-0.44-2.42v-0.44v-1.32l-0.66-0.44v-0.66c0-0.66,0.66-1.1,0.66-1.76v-1.76v-0.66v-1.1
		c0,0,0-0.66,0.44-0.66v-1.76c0,0,0-0.66-0.44-1.1v-0.66c0.44-0.66,1.1-1.32,1.1-2.42c0,0,0.66-0.66,0-0.66v-0.44v-1.76v-4.18
		c-0.66-0.66-0.66-1.76-0.66-2.42v-1.76v-1.32c0-0.44,0-0.44,0.66-1.1c0-0.66,0.66-1.1,0.66-2.42v-1.1c0.66-0.66,0.66-1.32,0-1.76
		v-0.66v-0.66c0-0.44,0.66-0.44,0.66-0.44c0-1.32,0-1.76-0.66-2.42c0-0.66,0-1.32-0.66-1.76v-1.76v-0.66v-0.66l0.66-0.44
		c0-1.32,0-2.42-0.66-3.08v-1.76c0-0.66,0.66-1.1,0.66-1.1c0-1.32,0.66-3.08,0.66-4.18c0,0,0-0.66,0.44-1.32v-0.44
		c-0.44-0.66,0-1.76-0.44-2.42l-0.66-0.66v-1.1c0-0.66,0.66-1.32,0.66-1.76v-1.32v-0.44c0-0.66,0.44-0.66,0.44-1.32v-0.44
		c0-0.66-0.44-1.32-0.44-1.98v-1.1c0-0.66,0.44-1.1,0.44-1.76v-1.76c-0.44-0.66,0-1.32,0-1.76v-0.66c-0.44-1.1-0.44-2.42-1.1-2.86
		c-0.66-0.66-0.66-1.32-0.66-1.98l-0.66-0.44c-0.44,0-0.44-0.66-0.44-1.32c0-0.44-0.66-1.1-0.66-1.76c-0.66-0.44-0.66-0.44-0.66-1.1
		v-1.1v-1.98v-0.44c0-1.32-0.44-2.42-0.44-3.08c-0.66-0.44-0.66-1.76-0.66-2.42c0-0.44-0.66-0.44-0.66-1.1h-0.44h-1.32
		c-0.66-0.66-1.1-0.66-1.76-0.66h-0.66c-1.76-0.44-3.52-1.1-5.28-1.1c-1.1,0-2.42,0-3.52,0.66c-1.1,0.44-2.42,1.1-3.52,1.1
		c0,0.66,0,0-0.66,0c-0.66-0.66-0.66-0.66-1.1-0.66c-0.66-0.44-1.32-0.44-1.32-1.1c-0.44,0-1.1-0.66-2.42-0.66c0,0-0.44,0-0.44,0.66
		c-1.32,0-1.76,0-2.42-0.66c-0.66,0-1.1-0.44-1.1-0.44h-1.32c-0.44-0.66-1.1-0.66-1.1-0.66c-1.32,0-1.76-0.66-2.42-0.66h-1.1
		c-0.66-0.44-1.32-0.44-1.76-0.44h-2.42c-0.66,0.44-1.32,0.44-1.76,0.44h-1.32c0,0-0.44-0.44-1.1-0.44h-1.76
		c-0.66-0.66-1.32-0.66-1.76-0.66c-1.32,0-1.76-0.66-2.42,0h-1.1h-1.32c-0.66,0-1.76,0-2.42,0.66c-0.44,0-0.44,0.44-1.1,0h-1.76
		h-1.32c0-0.66-0.44-0.66-1.1-0.66h-1.1c-0.66,0-0.66-0.66-1.32-0.66h-2.42c0,0-0.44,0-0.44-0.66c-0.66-0.44-1.76-0.44-2.42-1.1
		c-0.66,0-1.1,0-1.1-0.66c-0.66,0-0.66-0.44-0.66-0.44l-0.66-0.66c-0.44-0.66-1.76-0.66-2.42-1.1c-0.44-1.32-1.1-1.98-1.76-3.08
		c0-1.1,0-1.76-0.44-2.86v-0.66c0.44-0.66,0.44-1.76,1.1-3.08c0-0.44,0-0.44,0.66-1.1c0-0.66,0.44-1.1,1.1-1.76v-0.66v-1.1
		c0.66,0,0.66-0.66,0.66-1.32c0-0.44,0-1.1,0.66-1.76v-1.1v-2.42c0.44-0.66,0-1.1,0-1.76v-2.42v-2.42c-0.66-0.44-0.66-1.1,0-1.76
		v-1.76l0.44-0.44h1.76c3.52,0,7.26,0.44,10.78,0.44h10.56h4.84c5.28,0,10.78,0,16.06,0.66h6.38h3.74h3.52
		c4.62,0,10.12,0.66,14.74,0.66H1418.8z M1330.8,625.03l-75.9-86.02l66-67.98h-29.26l-54.12,56.32c-3.52,3.74-6.82,7.04-9.46,10.34
		v-66.66h-23.1v154h23.1v-58.3l11.22-11.66l60.28,69.96H1330.8z M1082.86,535.05h53.02l-21.56,56.54c-1.76,4.84-3.3,9.24-4.84,13.86
		c-1.54-4.62-3.3-9.24-5.28-13.86L1082.86,535.05z M1160.08,471.03l-16.94,44.44h-67.76l-16.72-44.44h-24.86l62.26,154h27.5
		l62.48-154H1160.08z M923.81,467.29c-0.66-1.54-0.44-3.3,0.44-4.84c1.54-2.42,3.52-4.4,6.38-4.18c10.12,0.88,19.8-1.76,29.7-2.64
		c5.94-0.44,12.54-0.88,18.48-1.98c10.34-0.88,21.12-2.42,31.46-3.52c3.52-0.44,6.82-0.44,10.56-1.1c1.98-0.22,3.96,0.66,5.72,1.32
		c3.74,1.76,3.96,4.4,1.54,7.48c-7.48,7.7-14.74,15.4-21.78,22.88c-3.96,4.18-7.7,8.36-10.78,12.54
		c-3.52,5.5-7.92,10.56-12.32,15.18c-3.3,3.08-4.84,7.04-3.96,11.22c0.88,8.36-0.44,17.16-0.88,25.52v7.26
		c0.22,11.22,0,22.66,1.32,34.1c0.22,3.52,0,6.82,0,10.12c-0.22,7.92-0.44,15.84-0.88,23.76c0,1.98,0,4.18,0.44,6.16
		c0,5.72,1.1,6.6,8.58,6.6c1.32,0,4.62,0,7.92-0.66c4.4-0.88,8.14-0.22,12.32,0.44c2.64,0.44,4.62,2.86,4.62,5.94
		c0.22,0.44-0.44,1.54-1.1,1.76c-3.74,1.54-7.92,1.76-11.88,1.54c-7.48-0.22-15.18-0.44-22.88,0.22c-8.58,1.32-17.6,1.32-26.62,0.44
		c-4.4-0.22-8.58,0.44-12.98,0.88c-2.42,0-3.74-1.76-3.74-4.18c-0.44-3.3,1.1-5.28,4.4-5.28c2.42-0.22,5.06-0.22,7.26-0.22
		c5.28,0,11-1.32,16.28-2.2c3.3-0.44,4.84-2.42,5.72-5.06c0.44-2.86,1.1-5.5,1.1-8.14c0.66-10.78,1.1-21.12,0-31.68
		c-0.66-5.72-0.88-11.22-0.88-16.72c0-14.96,0-30.14-0.22-45.1c0.22-1.1,0.22-2.2,0.22-3.08c-0.22-2.86-1.1-5.72-3.3-7.26
		c-1.76-1.54-3.08-2.86-4.84-4.18c-5.72-4.18-10.78-9.46-15.4-14.96c-0.88-1.32-1.98-2.86-3.3-3.96c-3.52-3.3-6.38-7.26-8.36-11.44
		c-1.54-3.52-3.3-6.6-6.16-9.46C924.91,470.15,924.25,468.61,923.81,467.29 M1001.91,460.91c-2.2,0-5.06,0-7.7,0.22
		c-8.14,1.1-16.28,1.98-24.42,3.08c-7.48,0.88-15.18,1.76-22.66,2.86c-0.66,0-1.98,0.22-2.86,0.88c-0.44,0.66-1.32,1.54-1.76,2.2
		c-0.22,3.74,2.64,7.26,5.94,7.04c7.7-0.22,15.62-0.22,23.54-1.32c7.92-1.32,16.06-3.52,24.64-2.64c1.98,0.22,3.96-0.88,5.28-2.42
		c1.76-1.98,3.52-4.18,5.06-6.38c0.66-0.88,0.22-2.2-0.66-2.64C1004.99,461.35,1003.67,461.13,1001.91,460.91 M767.95,625.03h23.32
		V513.49c0-6.38,0-12.54-0.22-19.8l77.22,131.34h31.68v-154h-23.54v104.72c0,7.04,0.22,14.3,0.44,20.9l-73.7-125.62h-35.2V625.03z
		 M732.31,502.71c-2.2,4.18-1.98,8.14,1.54,11.88c3.52,3.74,6.6,7.92,9.9,12.1c0.66,0.66,1.54,1.1,2.42,1.54
		c0.22,0.22,0.88,0.22,1.32,0c0.22-0.22,0.66-0.88,0.66-1.32c-1.54-9.9-4.4-19.36-11.88-26.84c-0.88-0.88-1.76-0.88-2.42,0.22
		C733.41,501.17,732.75,501.83,732.31,502.71 M699.75,483.35c1.32,4.18,3.3,7.92,7.48,10.12c2.2,1.1,4.18,2.42,6.16,3.52
		c1.1,0.66,3.3-0.44,3.52-1.76c0.88-3.3,0.88-6.82-1.76-9.46c-3.3-3.52-8.14-4.84-12.98-5.28
		C700.85,480.49,699.53,482.03,699.75,483.35 M696.45,560.57c0.66,0.88,1.1,1.76,1.98,2.2c7.26,3.3,14.3,7.48,20.9,12.32
		c0.88,0.66,1.76,1.1,2.64,1.1c0.88,0.22,1.98,0.22,2.64-0.22c5.72-3.74,8.36-9.68,8.14-16.06c-0.22-8.36-3.74-15.84-11.22-20.68
		c-1.32-0.88-2.86-0.66-3.96,0.44c-1.1,0.88-2.2,1.98-2.86,3.08c-3.96,6.82-9.24,12.32-16.5,15.62c-0.22,0.22-0.66,0.66-0.88,1.1
		C697.11,559.91,696.67,560.35,696.45,560.57 M672.03,641.31c0,1.32,0.44,1.98,1.54,1.98c2.42,0.44,4.84,0.66,7.04,0.66
		c1.54,0,3.08,0,4.62,0.22c6.6,0.22,12.1-2.2,17.16-6.38c4.62-3.96,9.24-8.14,13.86-12.54c2.64-2.64,5.06-5.72,7.48-8.8
		c0.88-1.1,1.32-2.64,1.32-3.96c0-4.4-1.76-8.36-4.62-11.66c-0.44-0.66-1.98-0.88-2.64-0.44c-1.76,0.66-3.3,1.76-4.84,3.08
		l-34.54,30.36c-2.2,1.98-3.96,4.18-5.94,6.16C672.25,640.43,672.25,640.87,672.03,641.31 M662.13,494.13
		c-0.88,1.98,0,4.18,1.98,4.84l25.74,9.9c1.1,0.44,2.86-1.1,2.64-2.42c-0.66-5.06-2.64-9.46-7.26-11.88
		c-4.84-2.42-9.46-4.84-14.3-7.04c-0.88-0.44-1.76-0.44-2.86-0.66c-0.88,0.22-1.98,0.44-2.42,1.1
		C664.33,489.95,663.23,492.15,662.13,494.13 M651.35,527.79c1.1,6.16,2.2,12.32,3.74,18.48c0.44,2.42,2.64,3.74,5.28,4.18
		c3.74,0.44,7.7,0.66,10.12,0.88c2.2,0.22,3.3,0.44,4.18,0.44c12.1,0,20.02-6.16,23.32-17.82c1.32-4.62-0.22-8.8-4.62-10.78
		c-9.68-4.4-19.36-8.58-29.04-12.76c-1.32-0.66-2.86-0.66-4.18-1.1c-1.76-0.44-4.4,0.66-5.06,1.98
		C652.01,516.35,650.03,521.85,651.35,527.79 M643.87,592.91c-0.88,1.54,0.66,4.18,2.42,4.18c3.74,0,7.7,0,11.44-0.44
		c14.96-1.76,29.26-5.94,43.78-8.58c0.88-0.22,1.76-0.88,2.64-1.32c1.54-0.66,1.98-3.52,0.66-4.84c-1.54-1.1-2.86-2.64-4.62-3.52
		c-9.24-5.5-19.36-8.36-30.14-7.48c-3.3,0-6.82-0.22-10.12,0c-3.52,0.22-6.6,1.54-8.14,4.84
		C648.93,581.47,646.51,587.19,643.87,592.91 M643.21,660.45c0.22,0.44,0.88,0.88,1.32,0.88c7.26,0,13.86-2.42,20.46-5.06
		c0.44-0.22,0.88-0.44,1.32-0.88c0.22-0.44,0.44-0.88,0.44-1.32s-0.44-0.88-0.66-1.1l-3.52-1.1c-6.6-0.22-6.82-0.22-11.66,2.2
		c-2.42,1.1-4.84,2.64-7.26,4.18C643.21,658.69,643.21,659.79,643.21,660.45 M632.43,614.47c-7.04,10.56-9.46,10.34,4.18,17.82
		c3.3,1.98,6.82,3.52,10.34,5.06c4.84,2.2,9.46,1.54,13.42-1.98c11.66-10.12,23.54-20.02,35.2-30.14c0.66-0.66,1.1-1.54,1.54-2.42
		c0.22-0.22,0.22-0.88,0-1.32c0-0.44-0.44-0.66-0.88-1.1c-1.32,0-2.86-0.22-4.18,0c-18.04,2.42-36.08,6.16-53.9,9.9
		C635.73,610.95,633.75,612.49,632.43,614.47 M601.19,659.35c1.1,0.88,1.98,2.2,3.08,2.42c2.2,0.22,4.84,0.44,7.04-0.22
		c9.02-2.86,17.82-7.04,25.96-12.1c1.32-0.88,0.88-3.74-0.88-4.62c-5.94-3.3-11.66-6.38-17.82-9.46c-4.18-2.2-7.26-3.3-10.34,3.3
		C605.15,645.05,602.73,651.87,601.19,659.35 M594.15,599.07c1.32,1.98,3.3,3.52,4.84,5.06c1.1,0.88,3.08,0.66,3.74-0.44l2.2-4.18
		c0.66-1.76,0.88-2.64,1.32-3.52c0.66-3.08,4.18-6.38,1.54-9.24c-3.52-3.74-6.82,1.32-10.12,1.76c-0.44,0-0.88,0.44-1.32,0.66
		C591.07,591.81,590.41,594.67,594.15,599.07 M584.03,566.29c1.1,10.12,2.42,10.34,12.1,7.04c5.28-1.98,10.78-3.74,16.28-5.72
		c3.3-1.1,5.94-3.08,7.26-6.6c0.66-1.76-0.22-4.4-1.98-4.84c-7.04-1.76-14.3-2.64-21.56-2.42h-1.32
		C583.37,553.75,582.49,554.85,584.03,566.29 M581.61,538.13c0.44,4.18,2.2,6.38,6.16,6.38h15.84v0.66h17.38
		c2.64,0,4.62-1.32,5.72-3.74c5.5-11.66,7.26-23.98,5.28-36.52c-0.22-1.76-1.98-3.74-3.52-4.18c-6.82-1.54-13.42-1.76-20.24-0.44
		c-10.34,2.42-18.26,8.14-22.88,18.26C582.49,524.71,580.95,531.31,581.61,538.13 M576.33,608.53c-0.44,4.4,0.66,8.58,3.74,11.88
		c2.86,3.08,6.38,5.72,10.34,7.26c1.54,0.44,2.86,0,3.74-1.1c2.42-2.86,2.64-5.72,0.44-7.7c-4.4-4.18-9.02-8.58-13.42-12.54
		c-0.66-0.66-1.76-0.66-2.64-0.88C577.43,605.01,576.33,606.55,576.33,608.53 M554.77,608.75c0.88,10.78,5.28,20.46,9.02,30.36
		c3.3,8.58,9.68,14.08,18.04,17.6c1.54,0.66,3.96-0.22,4.62-1.98c1.1-3.3,2.2-6.38,2.42-7.48c0.88-5.06,0.44-6.38-2.42-8.14
		c-1.32-0.66-2.64-1.32-3.74-1.98c-9.68-5.5-16.28-13.42-20.68-23.32c-1.32-2.64-2.42-5.28-3.96-7.7c0-0.22-1.76,0-2.42,0.44
		C555.21,606.99,554.55,608.09,554.77,608.75 M549.93,545.17c0,1.32,1.54,3.3,2.64,3.08c2.86-0.22,5.72-0.66,8.58-1.1
		c1.76-0.44,3.3-2.42,3.52-4.18c0.22-2.42,0.44-4.84,0.44-7.26c0.22-14.3,6.6-25.74,16.72-35.42c2.86-2.86,6.16-4.62,9.9-5.94
		c9.24-3.3,18.7-5.06,28.16-4.18c4.18,0,7.92,0,11.88-0.22c1.1,0,2.64-1.1,3.52-2.2c1.76-2.2,3.3-4.84,3.3-7.7
		c0-0.88-0.66-1.98-1.32-2.42c-1.1-0.66-2.64-1.1-3.96-1.1c-20.68-1.54-38.72,6.16-56.1,16.28c-1.54,1.1-2.86,2.42-4.18,3.74
		c-12.98,12.76-20.24,28.16-23.1,45.76V545.17z M548.61,573.11l2.86,16.94c0.22,1.32,3.08,3.52,4.4,3.3
		c4.18-0.44,8.36-1.54,11.88-4.4c1.76-1.76,2.86-3.96,2.42-6.38c-0.66-5.28-1.98-10.34-2.42-15.62c-0.88-10.56-3.96-9.9-12.1-7.7
		c-0.88,0.22-1.76,0.66-2.64,1.1c-2.2,1.1-3.52,3.08-3.96,5.5C549.05,567.83,548.83,569.81,548.61,573.11 M529.91,550.23
		c0.22,0.22,0.66,0.66,0.88,1.1c0.44-0.44,1.54-0.88,1.54-1.32c0.44-1.76,0.44-3.74,0.44-5.72c1.54-14.74,6.6-28.16,14.3-40.7
		c5.72-9.24,13.2-16.94,22.88-21.78c10.78-5.72,22-10.12,33.88-12.76c6.6-1.54,13.2-3.08,20.02-3.08c7.7,0.22,15.4,0,22.88,2.42
		c5.5,1.76,10.56,1.32,15.18-2.42l2.2-1.98c3.74-2.86,7.7-3.52,12.32-3.08c4.4,0.22,8.8,0.88,12.54,3.3c3.3,2.42,7.04,2.64,11,3.52
		c2.2,0.44,4.62,1.1,6.82-0.66c1.1-1.1,0-5.28-2.42-7.7c-2.86-3.3-5.94-6.38-9.24-9.24c-7.26-5.72-15.4-9.9-23.76-13.64
		c-9.46-4.18-19.14-6.82-30.14-5.94c-13.42-1.32-26.18,2.64-38.94,7.92c-15.62,6.6-29.7,16.28-42.9,26.84
		c-9.24,7.26-16.06,16.94-20.24,27.94C532.33,511.51,529.03,530.43,529.91,550.23 M514.51,559.47c-0.44-4.84-0.88-9.68,0-14.52
		c0.22-1.98,0.44-3.96,0.44-5.72c-0.22-13.42,3.08-25.96,6.16-38.72c2.86-11.44,7.7-22,15.18-31.24c2.64-3.3,5.94-6.16,9.02-9.24
		c1.76-1.76,3.74-3.08,5.5-4.84c10.12-9.9,22-17.16,34.76-23.32c11.44-5.5,23.76-8.14,36.3-10.12c22.22-3.52,43.34,0.22,63.8,9.24
		c9.46,3.96,17.82,9.68,25.96,15.84c5.06,3.96,9.24,8.8,11.66,14.74c0.88,2.2,1.98,4.4,2.86,6.6c2.42,5.06,5.5,8.8,10.78,11.44
		c9.46,4.62,16.06,12.54,19.8,22.22c3.08,8.14,5.94,16.5,8.36,24.86c2.86,10.56,1.76,21.12-2.42,31.24
		c-1.76,4.18-4.18,7.92-5.94,11.66c-1.1,2.2-2.42,4.4-2.64,6.82c-0.88,10.78-5.06,20.68-9.9,30.14c-1.76,3.52-2.86,7.04-2.86,11.22
		c0.44,9.24-4.18,16.5-11.22,22.44c-5.28,4.4-11.22,7.48-18.04,9.24c-8.36,1.98-16.5,5.28-24.42,8.8
		c-14.74,6.82-29.92,11-45.98,13.2c-8.58,1.32-17.38,1.1-26.18,1.1h-5.72v-0.44c-4.4,0.22-8.8,0.66-13.2,0.66
		c-3.74,0-7.7,0-11.44-0.22c-9.46-0.22-16.72-4.62-22.88-11.44c-5.5-5.94-10.78-12.32-16.28-18.48
		c-8.8-10.56-15.84-22.22-20.02-35.2C520.89,591.59,516.05,575.97,514.51,559.47 M736.27,587.41c-1.1,0.66-2.2,0.88-2.64,1.54
		c-0.88,1.32-0.44,2.64,0.66,3.74c0.88,0.88,2.86,0,2.86-1.54C737.37,590.05,736.71,588.73,736.27,587.41 M538.93,625.03
		l-75.9-86.02l66-67.98h-29.26l-54.12,56.32c-3.52,3.74-6.82,7.04-9.46,10.34v-66.66h-23.1v154h23.1v-58.3l11.22-11.66l60.28,69.96
		H538.93z"/>
	<rect class="st0" width="1920" height="1080"/>
	<polygon class="st2" points="538.93,625.03 516.99,600.16 511.31,618.2 525.12,625.03 	"/>
</g>
<g id="Ebene_2">
</g>
<g id="Ebene_3">
</g>
</svg>
