<?xml version="1.0" encoding="utf-8"?>
<!-- Generator: Adobe Illustrator 26.4.1, SVG Export Plug-In . SVG Version: 6.00 Build 0)  -->
<svg version="1.1" id="Ebene_1" xmlns="http://www.w3.org/2000/svg" xmlns:xlink="http://www.w3.org/1999/xlink" x="0px" y="0px"
	 viewBox="0 0 1920 1080" style="enable-background:new 0 0 1920 1080;" xml:space="preserve">
<style type="text/css">
	.st0{fill:#0000FF;}
</style>
<g>
	<path class="st0" d="M392.63,437.81c0.88-5.94,4.18-9.46,10.34-10.34c-6.16-0.44-9.68-4.18-10.56-10.12
		c-0.66,5.94-3.96,9.46-10.12,10.12C388.45,428.13,391.97,431.87,392.63,437.81z"/>
	<path class="st0" d="M298.03,545.39c-0.66,5.94-3.96,9.46-10.12,10.12c6.16,0.66,9.68,4.4,10.34,10.34
		c0.88-5.94,4.18-9.46,10.34-10.34C302.43,555.07,298.91,551.33,298.03,545.39z"/>
	<path class="st0" d="M301.33,378.19c-0.66,5.94-3.96,9.46-10.12,10.12c6.16,0.66,9.68,4.4,10.34,10.34
		c0.88-5.94,4.18-9.46,10.34-10.34C305.73,387.87,302.21,384.13,301.33,378.19z"/>
	<path class="st0" d="M400.77,667.71c-0.66,5.94-3.96,9.46-10.12,10.12c6.16,0.66,9.68,4.4,10.34,10.34
		c0.88-5.94,4.18-9.46,10.34-10.34C405.17,677.39,401.65,673.65,400.77,667.71z"/>
	<path class="st0" d="M447.19,642.63c-0.66,5.94-3.96,9.46-10.12,10.12c6.16,0.66,9.68,4.4,10.34,10.34
		c0.88-5.94,4.18-9.46,10.34-10.34C451.59,652.31,448.07,648.57,447.19,642.63z"/>
	<path class="st0" d="M503.95,416.91c0.88-5.94,4.18-9.46,10.34-10.34c-6.16-0.44-9.68-4.18-10.56-10.12
		c-0.66,5.94-3.96,9.46-10.12,10.12C499.77,407.23,503.29,410.97,503.95,416.91z"/>
	<path class="st0" d="M480.41,696.53c-0.66,5.94-3.96,9.46-10.12,10.12c6.16,0.66,9.68,4.4,10.34,10.34
		c0.88-5.94,4.18-9.46,10.34-10.34C484.81,706.21,481.29,702.47,480.41,696.53z"/>
	<path class="st0" d="M431.13,372.03c0.88-5.94,4.18-9.46,10.34-10.34c-6.16-0.44-9.68-4.18-10.56-10.12
		c-0.66,5.94-3.96,9.46-10.12,10.12C426.95,362.35,430.47,366.09,431.13,372.03z"/>
	<path class="st0" d="M490.09,362.57c0.88-5.94,4.18-9.46,10.34-10.34c-6.16-0.44-9.68-4.18-10.56-10.12
		c-0.66,5.94-3.96,9.46-10.12,10.12C485.91,352.89,489.43,356.63,490.09,362.57z"/>
	<path class="st0" d="M432.01,470.15c6.16,0.66,9.68,4.4,10.34,10.34c0.88-5.94,4.18-9.46,10.34-10.34
		c-6.16-0.44-9.68-4.18-10.56-10.12C441.47,465.97,438.17,469.49,432.01,470.15z"/>
	<path class="st0" d="M444.54,570.09c-2.53-1.73-4.08-4.55-4.62-8.2c-0.66,5.94-3.96,9.46-10.12,10.12
		c6.06,0.65,9.55,4.28,10.3,10.04l-1.5,4.04c-1.98,5.5-3.74,10.34-5.5,15.62c-1.76-5.06-3.52-10.12-5.72-15.62l-34.03-89.88
		c0.2-0.03,0.39-0.07,0.59-0.1c-0.22-0.02-0.44-0.05-0.65-0.07l-9.47-25.01h-36.74v154h22.66v-4.96c3.44,1.65,5.46,4.81,5.94,9.14
		c0.88-5.94,4.18-9.46,10.34-10.34c-6.16-0.44-9.68-4.18-10.56-10.12c-0.48,4.32-2.36,7.35-5.72,8.94v-81.32
		c0.56,1.23,0.93,2.63,1.1,4.18c0.88-5.94,4.18-9.46,10.34-10.34c-6.16-0.44-9.68-4.18-10.56-10.12c-0.15,1.36-0.45,2.59-0.88,3.69
		v-9.85c0-6.82,0-13.64-0.22-20.24l49.72,131.34h27.06l34.67-93.65c0.49,1.16,0.81,2.46,0.97,3.89c0.88-5.94,4.18-9.46,10.34-10.34
		c-3.32-0.24-5.87-1.44-7.66-3.43l10.14-27.4c0.04,0.06,0.09,0.12,0.14,0.18c-0.2,6.4-0.2,12.82-0.2,19.65v111.1h22.88v-154h-36.3
		L444.54,570.09z M441.95,577.08l-1.66,4.48C440.62,579.84,441.17,578.35,441.95,577.08z"/>
	<path class="st0" d="M548.61,443.53c-0.66,5.94-3.96,9.46-10.12,10.12c6.16,0.66,9.68,4.4,10.34,10.34
		c0.88-5.94,4.18-9.46,10.34-10.34C553.01,453.21,549.49,449.47,548.61,443.53z"/>
	<path class="st0" d="M530.79,572.67c-0.66,5.94-3.96,9.46-10.12,10.12c6.16,0.66,9.68,4.4,10.34,10.34
		c0.88-5.94,4.18-9.46,10.34-10.34C535.19,582.35,531.67,578.61,530.79,572.67z"/>
	<path class="st0" d="M528.59,655.61c-0.88,5.94-4.18,9.46-10.34,10.12c6.16,0.66,9.68,4.4,10.56,10.34
		c0.66-5.94,3.96-9.46,10.12-10.34C532.77,665.29,529.25,661.55,528.59,655.61z"/>
	<path class="st0" d="M588.21,582.79c-0.66,5.94-3.96,9.46-10.12,10.12c6.16,0.66,9.68,4.4,10.34,10.34
		c0.88-5.94,4.18-9.46,10.34-10.34C592.61,592.47,589.09,588.73,588.21,582.79z"/>
	<path class="st0" d="M881.91,586.09c-2.2,5.5-3.74,10.34-5.5,15.62c-1.76-5.06-3.52-10.12-5.72-15.62l-43.56-115.06h-32.83
		l-0.16-0.66v-1.54l-0.66-1.32l0.88-0.22l3.3-0.44l1.32-0.66l1.32-0.88l2.2-0.22l1.1-1.1l1.54-0.44l1.54-1.1l1.54-1.54l1.1-1.32
		l0.66-1.54l0.88-0.88l1.54-1.32l1.54-2.86l0.66-2.2v-1.1l0.22-3.52l0.22-1.76l-0.44-1.98l-0.44-1.32l-0.22-1.76l-0.22-1.54
		l-0.66-1.98l-0.22-1.1l-1.1-1.54l-0.66-1.76l-1.98-3.08l-1.32-1.1l-1.98-1.76l-0.88-0.66l-2.2-1.1l-1.54-1.1l-3.3-0.88l-1.54-0.44
		l-2.64-0.66l-1.98-0.66l-1.98-0.22l-1.76,0.22l-1.32,0.66l-1.76-0.22l-1.54,0.88h-2.64l-2.42,0.44l-1.54,1.1l-1.98,0.44l-1.76,2.2
		l-1.54-1.54l-1.54-2.42l-1.32-1.32l-0.88-0.44l-1.1-1.32l-1.98-1.32l-2.2-1.98l-1.76-0.22l-1.54-1.1h-1.98l-3.3-0.88l-1.98,0.22
		l-1.54-0.22l-1.54,0.22l-1.98,0.22l-1.54,0.44l-1.76,0.88l-1.54,1.1l-1.54,0.22l-2.2,2.2l-1.54,1.32l-0.66,1.98l-1.1,0.88
		l-0.66,1.1l-0.88,1.54l-1.1,1.98l-0.44,3.52l-0.22,2.2l0.22,4.18l0.66,1.76l0.44,0.44l0.66,1.54l-1.1,1.1l-1.76,1.32l-0.66,1.32
		l-1.1,1.32l-0.66,1.98l-1.32,1.32l-1.32,3.96l-2.86,2.64l-1.32,0.88l-1.54,0.66l-1.98,1.32l-1.32,1.1l-2.2,1.98l-1.32,0.88
		l-1.76,1.54l-0.88,1.32l-1.76,1.32l-1.32,1.32l-0.88,0.66l-1.32,1.1l-1.1,1.76l-1.76,1.32l-0.88,1.1l-2.42,2.2l-1.54,1.32
		l-1.1,1.76l-1.1,1.1l-0.44,1.76l-1.1,1.54l-0.66,1.32l-1.1,1.76l0.22,1.32l-1.32,3.74l-1.76,4.18l-0.44,1.32l-1.1-2.86l-1.32-1.32
		l-1.1-0.66l-1.1-1.98l-0.88-1.1l-1.32-0.88l-1.54-1.98l-1.1-0.66l-1.54-1.32l-1.32-1.54l-1.54-0.88l-0.88-1.1l-3.08-2.2l-0.88-1.54
		l-1.98-0.88l-0.88-0.66l-1.32-1.54l-1.32-0.88l-1.98-0.88l-0.88-0.44l-1.54-1.54l-1.98-0.66l-2.42-1.1l-1.54-0.66l-1.98-0.66
		l-1.32-0.66l-1.54-0.44l-1.98-0.44l-1.32-0.22l-1.54-0.88h-1.98l-1.32,0.44l-3.08-0.66l-1.32,0.44l-1.32,1.1l0.66-1.76l-0.66-1.76
		l-0.88-1.54l-0.88-2.2l-0.66-1.54l-1.54-1.1l-2.2-2.86l-0.44-1.76l-1.76-0.88l-1.1-0.66l-0.88-1.54l-3.3-1.54h-1.98l-1.98-0.66
		l-3.3-0.66l-3.52,0.88l-1.76,0.66l-1.32,0.88l-2.42,0.44l-0.88,0.88l-1.76,1.1l-1.1,1.1l-3.08,2.2l-1.1,1.76l-1.1,1.1l-0.66,1.54
		l-1.32,1.98l-0.66,1.32v1.32l-0.66,1.54l-0.22,1.98l0.22,1.32l-0.66,2.2v1.76l-2.2,0.66l-1.1,0.88h-1.32l-0.44,0.66l-1.98,1.1
		l-2.2,1.1l-0.88,1.32l-1.76,1.1l-1.76,2.2l-1.32,1.54l-0.88,1.1l-0.22,0.31v-12.41h-23.32v154h23.32V506.01l1.1,1.32l0.44,1.54
		l1.54,1.32l1.54,1.54l1.76,1.1l1.54,0.88l3.3,0.44l1.76,0.44l1.1,0.22l2.42,0.66l3.08,0.22l1.54-0.22l1.1-0.66l-0.22,1.1l0.22,1.1
		l0.44,2.42l0.88,3.08l1.54,1.54l1.76,2.64l1.1,0.88l1.54,1.54l0.88,1.1l2.2,0.22l0.88,1.1l2.2,0.22l1.54,0.66h1.1l3.96,0.44
		l1.76-0.22l1.1-0.44l1.76,0.44l1.98-1.1l1.98,0.22l0.88-0.88l1.76-0.66l1.54-0.66l1.76-1.1l1.76-0.66l2.64-2.2l1.1-1.1l1.32-0.88
		l0.66-2.2l0.44-1.54l1.1-2.42l0.66-2.2v-3.96l2.2-1.1l3.3-2.42h0.22l0.66-0.66l0.88-0.22v-0.88l3.08-3.08l0.22-1.98l1.54-3.52
		l0.44-1.76l0.22-2.42l-0.22-1.32l-0.22-2.2l-0.44-1.54l-0.44-2.64l0.22,0.22l2.42,1.54l1.76,0.66l1.1,1.32l1.76,1.54l2.2,1.76
		l1.54,0.88l1.32,1.1l0.88,1.54l1.98,0.88l0.44,1.1l1.54,1.32l1.32,1.76l2.2,3.3l1.32,0.88l1.32,2.2l1.1,1.1l0.44,1.76l2.42,4.84
		l0.88,1.54l1.32,1.1l0.44,1.98l1.1,1.76l0.88,2.42v1.98l-0.22,3.74l0.88,2.2l-0.66,1.32l-0.22,2.2l0.44,1.1l-0.66,3.96l-1.98,0.44
		l-1.32-0.66l-0.88-1.54l-3.08-1.32l-1.76-1.32l-2.64-1.32l-1.54-0.22l-1.54-1.1l-2.2-0.66h-3.52l-1.54-0.44l-1.98,0.22l-1.76,0.22
		l-1.98,1.1l-1.54,0.66l-1.54,0.88l-1.32,1.76l-2.2,2.42l-1.1,1.76l-1.32,1.98l-0.66,1.54l-0.88,1.98v1.1l0.22,1.98v1.76l0.22,1.54
		l0.22,1.32l2.2,3.74l0.22,1.32l1.76,1.1l0.66,1.54l0.88,1.1l1.98,1.1l0.88,1.1l1.98,0.66l1.1,0.88l3.3,1.76h1.1l2.42,1.32
		l1.76,0.44h1.1l2.2,0.66l1.1,0.88l5.28,0.66l1.76,0.66l3.52,1.54h1.32l1.98,0.66l-0.22,1.1v3.3l0.66,1.76l-0.44,1.76v3.74
		l0.44,1.76l0.22,1.54l-0.66,1.98l0.66,1.32l0.22,2.2l-0.66,1.54v1.76l0.66,1.98l-0.22,1.32l0.22,1.98v1.76l-0.44,1.98l0.44,1.32
		l-0.44,1.76l0.66,1.98l-0.22,1.76l-0.22,1.98l0.44,1.98v1.1l-0.44,1.76l0.22,2.2v1.54l0.22,2.2l-0.66,1.54l0.66,3.74l-0.44,1.54
		l0.44,1.54v2.2l-0.66,1.98v3.3l0.88,2.86l0.66,3.08l1.98,1.1l1.54,1.1h3.52l1.76-0.66l0.88-1.32l1.76-3.74v-3.52l0.44-1.98v-1.1
		l0.44-1.76l-0.22-1.76l0.66-1.98l0.44-1.76l-0.22-1.76l0.44-1.32v-3.74l-0.44-1.54l0.66-1.76l-0.44-1.76v-1.54l0.44-3.96l0.22-1.32
		l-0.66-1.32l0.22-1.98l0.44-1.98v-1.54l-0.66-1.98l0.66-1.76l-0.44-1.76v-3.3l0.22-1.54l-0.44-1.98l0.22-1.76l0.22-1.32l-0.22-1.76
		l0.44-1.98l0.22-1.32v-3.74l-0.66-2.2l0.44-1.1l-0.22-2.42l0.44-1.1v-2.2l-0.44-1.98v-3.3l0.22-1.76v-1.76l-0.22-1.1l0.66-3.52
		v-1.76l-0.44-1.98l0.22-3.3v-2.2l-0.22-1.1l0.44-2.2l2.2-1.32l1.54-0.88l1.76-0.44l1.32-0.44l1.32-0.66l3.52-1.32l5.28-1.76
		l1.76-0.44l1.98-1.1l1.1-1.54l1.98-0.88l1.32-0.88l2.42-3.52l1.1-1.32l0.22-1.1l1.98-2.64l2.42-1.76l0.66-1.76l0.66-1.54l0.44-1.54
		l-0.22-1.76v-1.76l0.44-1.98l-0.88-3.3l-0.66-1.32v-1.76l-1.1-2.42l-1.1-1.1l-0.44-1.76l-1.32-1.1l-2.64-3.08l-0.88-0.66h-1.32
		l-3.96-0.66l-3.08,0.66l-1.54,0.22l-1.98,1.32l-1.1,0.22l-1.76,0.88l-1.98,1.1l-0.88,1.1l-1.54,1.1l-2.2,1.1l-1.76,1.76l-1.1,0.66
		l-0.66-1.1v-1.54l0.44-1.54l0.66-1.76l0.22-1.98l0.88-1.32l0.22-2.42l0.44-2.86l1.98-3.96l0.22-1.1l1.54-1.76l0.44-1.76l1.54-0.66
		l1.1-1.76l2.86-1.98l0.66-1.32l1.76-1.54l0.66-1.32l1.98-0.88l1.32-0.66l1.54-1.54l1.32-1.1l3.08-1.54l1.76,1.1v0.44l1.32,1.1
		l1.1,0.88l3.52,2.2l1.54,0.66l1.32,0.88l1.98,0.22l1.32-0.22v1.32l1.54,3.52l0.66,1.76l0.66,1.54l1.1,1.76l1.54,0.88l0.88,1.54
		l0.88,0.88l1.32,1.76l2.2,0.44l1.1,1.54l1.32,0.22l1.98,0.66l1.1,0.44l2.42,0.44l0.66,0.44l2.42,0.66l1.98,0.22h1.1l2.2-0.44
		l1.54-0.66l1.98-0.22l1.76,0.22l1.32-0.22l1.54-0.44l2.2-0.66l0.88-0.66l1.76-0.88l3.3-2.42l1.32-0.88l1.1-0.88l1.54-1.15v136.02
		h22.66v-111.1c0-6.82,0-13.64-0.22-20.24l49.72,131.34h27.06l48.62-131.34c-0.22,6.6-0.22,13.2-0.22,20.24v111.1h22.88v-154h-36.3
		L881.91,586.09z M604.05,488.19l-0.88,1.54l-0.22,3.74l-1.76,2.2l-1.54,1.32l-1.54,1.54l-1.98,0.88h-2.42l-1.76-0.44l-0.22-0.66
		l-0.88-0.88l-0.44-1.1l0.44-1.98l1.54-3.3l0.88-1.1l3.52-2.2l1.76-1.54h1.98l1.54-0.88l2.2-1.1l0.44,0.66L604.05,488.19z
		 M613.29,474.77l-1.1,0.22l-0.44-1.98l-1.32-1.98l-0.22-1.32l0.66-3.74l0.88-1.1l0.88-1.32l2.2-0.66l1.98-0.66l1.54,1.32l0.88,2.2
		l-0.66,3.52v1.32l-1.1,1.98l-0.66,1.32l-1.1,0.66l-0.66,0.22H613.29z M626.05,514.37l-3.96,1.76l-1.1,0.44l-2.2,0.44l-2.64,0.22
		l-1.98-3.52l0.22-1.76l-0.22-3.3l0.22-1.76l1.32-1.54l0.66-1.54l0.88,0.22l2.42-0.88l3.08-0.66l1.1-0.44l-0.44,3.08l0.88,1.54
		l0.66,3.3l1.1,2.42V514.37z M639.25,490.39l-1.76,1.54l-2.2,1.76l-3.52,0.66l-0.66,0.44h-2.64l0.88-0.66l1.98-1.54l0.22-1.32v-2.2
		l0.22-1.98l-0.44-1.54l0.22,0.22l1.54-1.76h2.2l1.32,0.66l3.74,2.86L639.25,490.39z M678.19,557.71l-3.3,0.22l-1.76-0.44
		l-3.74,0.66l-2.42-0.88l-1.54-0.88l-1.98-1.1l-1.1-1.32l-0.44-1.98v-1.54l0.66-0.44l0.66-0.88l0.88-0.66h1.98l3.52,0.44l1.32,0.44
		l2.86,2.42l1.76,1.1l0.44,1.76l1.32,1.1l1.32,1.32L678.19,557.71z M707.01,523.83l1.32-1.1l0.44-1.76l1.76-1.1l2.86-2.42l1.32-0.44
		l3.52-0.44h1.98l0.88,0.66l0.66,0.88l0.66,0.44v1.54l-0.44,1.98l-1.1,1.32l-1.98,1.1l-1.54,0.88l-2.42,0.88l-3.74-0.66l-1.76,0.44
		l-3.3-0.22l-0.44-0.66L707.01,523.83z M758.27,443.31l-1.98,0.88l-0.88,0.66l-1.1,1.1l-1.1,1.54l-2.42,2.86l-0.66,1.32l-0.44,1.1
		l-0.44,1.76l-0.88,2.2l0.66,2.42l-2.42,1.54h-3.74l0.66-3.74l-0.44-1.54l0.66-0.88l2.2-1.76l1.32-1.1l0.88-1.54l3.08-1.1l1.54-1.76
		l0.66-1.32v-1.98l-0.44-2.64l-1.54-0.66h0.44v-0.66l-0.66-1.54l-0.44-1.54l-1.32-3.52v-1.1l0.22-1.76l1.54-1.1l2.86-1.1l1.54,1.32
		l2.42,2.86l0.44,1.32l1.1,1.32l0.88,0.88l1.76,3.74l-0.88,1.32L758.27,443.31z M779.17,475.21l-1.54,3.52l-1.54,1.1l-0.88,0.88
		l-3.52,0.88l-1.54,0.22h-3.96l-3.08-0.44l-1.32-0.88l-1.98-1.54v-3.3l0.44-1.1l0.88-1.76l0.66-1.98l1.1,0.22l1.1-0.44l4.62-0.66
		l1.32-0.88l1.54-0.88l1.54-1.54l2.42,0.88l2.86,2.86l0.66,1.32l0.44,1.98L779.17,475.21z M789.07,452.33h-1.76l-1.32-0.44
		l-1.76,0.66l-3.08,0.22l-1.32,0.66l-0.22-0.22l-0.66-2.42l-1.1-3.74l-0.44-1.54v-0.88l0.44-0.44l1.32-2.2h-0.22l1.76-1.54
		l1.54-1.76l1.32-0.88l1.76-1.32l1.1-0.22l3.52-0.66h1.98l1.76,0.22l1.32,0.66l1.32,1.32l1.98,2.2l1.1,1.76l-1.1,3.74l-0.66,1.54
		l-1.1,1.54l-3.08,2.2l-3.3,1.32L789.07,452.33z"/>
	<path class="st0" d="M1133.37,570.69c0.44-0.66,0.44-18.04,0.44-18.04c-0.44-0.22-0.44-0.66-1.1-0.66v-0.44c0-0.22,0-0.22,0-0.66
		v-0.22c0-0.22-0.22-0.44-0.44-0.66l-0.88-0.88v-0.44v-0.66c-0.44-0.22-0.88-1.1-0.88-1.54c0-0.44,0-0.66-0.22-0.66
		c0-0.88,0.22-1.1,0.22-1.54c-0.22-0.44-0.22-1.32-0.22-1.98v-0.22c0-0.44,0-0.88-0.22-1.32c0-0.44-0.22-0.66-0.22-0.88
		c0-0.44-0.44-0.44-0.44-0.88v-0.22l-0.44-0.44c-0.44-0.22-0.66-0.88-0.88-1.1c-0.44-0.22-0.88-0.66-1.1-0.88
		c-0.22-0.44-0.88-1.1-0.88-1.1c-0.66,0-1.1-0.22-1.32-0.44c0-0.22-0.44-0.44-1.1-0.88c0,0,0-0.22-0.22-0.44
		c0-0.22-0.22-0.44-0.66-0.44c-0.44,0-0.88-0.22-1.1-0.88v-0.44c-0.22,0-0.22-0.22,0-0.44v-0.66c-0.22,0-0.22-0.66,0-1.1
		c0,0,0-0.22-0.22-0.44c-0.22,0-0.22-0.44-0.44-0.66c-0.22-0.22-0.22-0.22-0.22-0.44c0.22-0.22,0.22-0.66,0-1.1v-0.44
		c-0.22-0.44-0.22-0.66-0.44-0.66c-0.44,0-0.66,0-0.66-0.22c-0.22-0.44-0.44-0.88-0.22-0.88v-0.66c-0.66-0.44-0.88-1.1-1.98-1.54
		v-0.44v-1.76v-2.42v-2.2c0-0.22,0-0.44-0.22-0.66c-0.22,0-0.44-0.66-0.66-0.88c-0.22-0.22-0.44-0.22-0.66-0.66
		c-0.44,0-0.66-0.22-0.66-0.66v-1.32c-0.22,0-0.44-0.22-0.44-0.66c-0.22-0.22-0.22-0.44-0.22-0.66c0-0.22-0.44-0.88-1.1-1.54
		l-0.44-0.44c-0.22-0.22-0.22-0.44-0.22-0.66v-1.32c0,0,0-0.66-0.44-0.66c-0.22-0.44-0.44-1.1-0.44-1.32c0-0.22,0-0.66-0.22-1.1
		v-0.44c0-0.22-0.66-0.44-0.66-1.32c-0.22-0.44,0-1.1,0-2.2v-0.22c0.22-0.22,0-0.44-0.22-0.44v-0.66c-0.44-0.44-1.1-0.66-1.1-1.1
		c-0.22-0.22-0.66-0.44-0.66-0.66c-0.44-0.66-0.66-1.54-1.1-2.2c0-0.22-0.22-0.22-0.44-0.22c-1.1-0.44-1.32-0.88-1.54-1.32
		c0-0.44-0.22-0.88-0.66-0.88c-0.22-0.44-0.88-0.66-0.88-0.88c-0.22-0.22-0.22-0.44-0.22-0.66c0-0.66-0.22-0.88-0.22-1.1
		c0-0.22-0.22-0.44-0.44-0.44c-1.32-0.44-1.54-1.1-1.54-1.76v-1.1c0-0.22-0.22-0.44-0.66-0.66h-0.44c-0.44,0-0.66-0.22-0.88-0.88
		c0-0.44-0.22-0.88,0-0.88c0-0.44,0.22-1.1,0.22-1.32c0.22,0,0.22-0.22,0.22-0.22c-0.22-0.44-0.22-0.66,0-0.66
		c0.44-0.66,0.44-0.88,0-1.32c-0.22,0-0.44-0.66-0.66-0.88c-0.44-0.66-1.76-1.1-1.76-1.76v-0.88c0-0.22,0-0.22-0.22-0.44
		l-2.86-12.32l-1.54-2.86l-3.08-4.18c-1.1-2.64-0.66-0.88-1.1-1.54l-0.88-2.86c-1.1-2.42-0.88-0.44-1.98-1.76l-1.98-2.2l-3.3-2.2
		c-3.08-1.98-3.3-3.3-4.84-4.18c-1.54-1.1-0.66-0.88-1.32-1.32l-1.98-2.2c-1.32-1.98,0,0-4.84-2.64c-5.28-2.2-1.76-0.44-2.42-0.66
		l-4.4-0.88l-3.52-0.66l-21.34-0.22c-1.76,0.88-0.88,0.44-3.96,1.1l-3.52,3.96c-2.42,1.54-1.76,0.66-3.52,0.66
		c-1.98,0-1.76,0.88-3.74,1.54c-1.54,0.44-0.44,0.22-1.76,2.2c-1.1,1.76-0.66,0.66-1.76,1.1c-1.32,0.44-0.88,0.88-1.32,1.76
		c-0.66,0.88-0.44,0.44-1.76,1.54c-1.1,1.32-0.44,1.54-0.88,1.98l-3.52,2.2l-4.62,2.42c-2.42,0.88-0.22,3.52-1.32,5.72l-1.54,3.74
		h-0.22c-0.44,0-0.66,0-0.66,0.88v0.66v0.44c0,0,0,0.44,0.22,0.66c0,0.44,0,0.66-0.22,1.1c-0.44,1.1,0,2.42,0.66,3.52
		c0.22,0.22,0.22,0.22,0.22,0.44l0.44,1.1c0.22,0.66,0.22,1.54,0.22,1.98c-0.22,0.66,0,1.54,0,2.2v0.44c-0.22,0.66,0,1.1,0,1.32
		v0.66v1.32c0.44,0.88,0.44,1.76,0.44,3.3v0.22c0,0.44,0,0.44-0.44,0.66v1.54c0,0.22,0,0.66-0.22,0.88
		c-0.22,0.44-0.22,0.44-0.22,0.66c0,0.88-0.22,1.54-0.22,2.2v0.44c0,1.1,0,2.2-0.44,3.08c-0.22,0-0.22,0.22-0.22,0.22
		c-0.22,0.88-0.66,1.54-0.66,2.2c0,0.44-0.22,0.66-0.22,1.1c-0.44,0.44-0.66,1.1-0.88,1.98c-0.22,0.22-0.22,0.22-0.22,0.44v1.32v1.1
		v1.76c-0.44,0.44-0.44,1.1-0.88,1.32v0.22c0,0.44-0.22,0.88-0.44,1.32c-0.44,0.88-0.66,1.54-1.32,2.2c0,0,0,0.22-0.44,0.22v0.66
		v1.1c0.44,0.22,0.66,0.44,0.66,0.88c0,0.66,0.22,0.88,0.22,1.1c0.44,0.88,0.44,1.76,0.22,2.42c-0.22,0.44-0.44,1.1-1.1,1.32
		c-0.22,0.22-0.22,0.22-0.22,0.44v0.44c0.22,1.1,0.22,1.54,0.22,2.2c0,1.1,0,1.76,0.88,2.64c0,0.22,0.22,0.22,0.22,0.44
		c0,0.66,0,0.88,0.22,1.32v0.44l-0.22,1.54c-0.22,0.22-0.22,0.44-0.22,0.88c0.22,0,0.22,0.22,0.22,0.66c-0.22,0.88,0,1.54,0,1.76
		c0,0.66,0,1.32,0.22,1.54v0.88v0.44h-0.22c-0.22,0.22-0.22,0-0.22,0v0.66c0,0.22-0.22,0.44-0.44,0.88c-0.44,0-0.44,0.44-0.44,0.44
		c0,0.44,0,1.32,0.44,1.76c0.22,0.22,0.22,0.44,0.22,0.66c0.22,1.1,0.22,1.54,0,2.2c-0.22,0.88-0.22,1.1-0.22,1.32
		c0.22,0.22,0.22,0.88,0.22,1.1c0.22,0.44,0.22,1.32,0.22,1.98c0,0.22,0,0.22-0.22,0.66c-0.66,0.66-0.66,1.1-0.22,1.54
		c0.22,0.44,0.22,0.66,0,1.54c0,0,0.22,0.22,0.22,0.44c0,0.44,0.22,0.88,0.44,1.54l0.22,1.1l0.66,1.76
		c0.22,0.66,0.22,1.32,0.66,1.98c0,0.66,0,1.98,0,3.08v0.44c0.44,0.66,0,1.54,0.44,2.2c0,0.66-0.44,1.32-0.44,1.54
		c0,0.22-0.44,0.44-0.44,0.44c0,1.1-0.22,1.54-0.22,2.42l-0.66,1.1c-0.22,0-0.22,0.22-0.44,0.22c-0.22,0.66-0.22,0.88-0.22,1.1
		c-0.22,0.66-0.22,1.32,0,1.98l0.22,0.22c0,0.66,0,1.32-0.88,1.98c-0.22,0.66-0.22,0.66-0.22,1.54c-0.44,0.22,0,0.22,0.22,0.66v0.66
		c-0.66,0.66-0.66,1.1-0.66,1.32c-0.22,0.22-0.22,0.66-0.22,0.88c0,0.22,0,0.22-0.44,0.44v0.44c0,0.66,0,1.1,0.44,1.54
		c0,0.22,0,0.22,0.22,0.22c0.44,0.66,0.66,1.32,1.32,1.98c0.44,0.44,0.66,1.32,1.32,1.32h0.22v1.98c0,0.66-0.22,1.54,0,2.2
		c0,0.22,0,0.66-0.22,0.88c-0.22,0.22-0.22,0.88,0,1.1c0.22,0.22,0.22,0.66,0.22,1.1c0,0.88,0,1.32-0.22,2.2
		c0,0.22-0.22,0.44-0.44,0.66c-0.44,0.22-0.88,1.1-0.88,1.76c0,0.22-0.22,0.22-0.22,0.22c-0.44,0.22-0.44,0.44-0.44,0.88
		c0,0.44,0,0.66-0.66,0.88c-0.22,0.22-0.22,0.66-0.22,1.32c0,0.22,0,0.44,0.22,0.66c0.44,1.1,0.66,1.54,0.66,2.42v1.32
		c0.44,0.44,0.44,1.1,0.44,1.32c0.22,0.88,0.22,1.76,0,2.2c-0.44,0-0.44,0.22-0.44,0.66c0,0.22,0.44,0.22,0.44,0.22
		c0,0.88,0.22,1.54-0.44,2.42v0.22c0,0.44,0,0.66-0.66,0.88c-0.22,0-0.22,0.22-0.22,0.22v0.88c-0.66,0.44-1.1,1.1-1.1,1.98v0.66
		c0,1.76,0,1.54-1.1,2.42c-0.22,0.22-0.22,0.22-0.22,0.44c0,0.44-0.22,0.66,0,1.32c0.22,0.44,0.22,1.32-0.22,1.76v0.22
		c0,0.66-0.44,0.88-0.88,1.1v0.44c0,0.66,0,0.88-0.66,1.1c-0.22,0.22-0.66,0.44-0.66,0.66c-0.22,0.88-0.88,1.32-0.88,2.42
		c-0.66,1.1-1.1,1.76-1.1,2.86c0,0.22,0,0.66-0.22,0.66c-0.22,0.22-0.22,0.66-0.22,0.88c0,0.66,0,1.54-0.44,2.2v0.44v0.22
		c0,0.88,0,1.32-0.66,1.54c-0.22,0.22-0.22,0.66-0.44,0.66c-0.22,0.44-0.44,1.1-0.44,1.32c-0.22,0.22-0.88,0.44-1.1,0.66
		c0,0.22,0,0.66-0.22,0.66c-0.22,0.22-0.22,0.44-0.22,0.88v0.88c0,0.44,0,0.66-0.22,0.88c-0.22,0.22-0.22,0.44-0.22,0.44
		c0,0.66-0.22,1.1,0,1.54c0.22,0.44,0.22,1.1,0.22,1.76c0,0.22,0,0.44,0.22,0.66c0.22,0.44,0.44,0.88,0.66,1.1
		c0.66,0.44,1.1,1.32,1.54,1.98c0.22,0.44,0.88,0.88,1.54,1.54l0.66,0.44c0,0.22,0.22,0.44,0.22,0.66c0.22,0.66,0.44,1.32,1.32,1.32
		h0.44c0.22,0.44,0.88,0.44,0.88,0.22c0,0,0.44,0,0.66-0.22c1.1,0,2.42,0,3.52-0.88c0.22,0,0.66-0.22,1.1-0.22
		c1.32-0.44,2.64-0.88,3.96-1.76c0.22-0.22,0.44-0.22,0.66-0.44h0.88h0.44c0.66,0,1.76,0,2.86-0.22c0.22,0,0.66,0,1.1-0.22
		c1.1,0,2.42,0.22,3.74,0.22c0.44,0.22,1.32,0.22,1.98,0.22c0.88-0.22,1.76,0,2.42,0h0.22c0.22,0.22,0.66,0.22,1.32,0.22
		c0.88-0.22,1.98-0.22,2.64,0l1.76,0.66h1.54c0.44,0,1.1,0,1.54-0.22h0.22c0.66,0,1.54,0.22,2.64,0.22c0.66,0.22,0.88,0,1.1,0h1.32
		c0.88,0,1.76,0.22,2.2,0.66l1.98,1.1c1.1,0.66,1.76,0.66,2.86,0.66c0.88,0,1.1,0.22,1.1,0.44c0.22,0.44,0.66,0.66,0.88,0.66h1.32
		c0.44-0.22,0.44-0.66,0.44-0.88v-0.22c0-1.32,0.22-1.98,1.32-2.42c0.44,0,0.44-0.22,0.44-0.66c0-0.22,0-0.44,0.22-0.44
		c0.22-0.22,0.88-0.44,0.66-0.66v-1.32c-0.44-0.22-0.44-0.44-0.66-0.66v-0.44c0-0.44,0.22-1.1,0.88-1.76l0.22-1.1
		c0-0.22,0.44-0.66,0.66-0.88c0.44-0.22,0.88-0.66,0.88-1.1c0.44-0.44,0.88-0.66,0.88-1.1c0,0,0-0.44,0.22-0.66l0.22-0.88
		c0.44-1.1,0.66-1.98,0.66-2.86c0-0.44,0-0.66,0.44-0.88c0.22-0.66,0.22-1.32,1.1-1.32c0.22,0,0.22-0.22,0.22-0.22v-1.1
		c0.44-0.66,0.44-1.1,0.44-1.54c0-0.66,0-1.1,0.22-1.54c0.66-0.44,1.1-1.1,0-1.54c0-0.44,0-1.1,0-1.54v-1.1v-0.88v-1.32v-0.88
		c0-0.44,0-0.22,0-0.66v-0.66c0.66-0.22,0.66-0.66,0.66-0.88c0-0.88,0-1.54-0.66-1.98v-0.88c0-0.66,0.66-1.54,0.66-2.42
		c0.44-0.22,0.44-0.66,0.44-1.1c0.22-0.66,0.22-1.1,0.44-2.2c0.22,0,0.22-0.22,0-0.66c0-0.44,0-0.66,0.22-1.32
		c0.66-0.44,0.66-0.66,0.66-1.1c0-0.22,0.22-0.44,0.22-0.66c0.66,0,0.88-0.22,0.88-0.66c0.44-0.22,0.66-1.1,0.66-1.54v-1.32
		c0-0.22,0-0.44,0.66-0.66c0.22-0.44,0.22-0.88,0.22-1.54c0-0.44-0.22-0.88-0.88-1.1c0-0.66,0.66-1.32,0-1.54v-1.1
		c0.66,0,0.66-0.22,0.66-0.44c-0.66-0.66,0.22-1.1,0.44-1.76c0.44-0.22,0-0.88,0.44-1.76c0.22-0.44-0.44-0.88-0.44-1.32
		c-0.22-0.66-0.22-0.66,0.44-1.1c0-0.44,0.22-0.44,0.22-0.66c0.44-0.66,1.1-1.32,1.32-1.76v-0.66c0-0.44,0-0.66,0.22-1.1
		c0.44-0.22,0.44-0.44,0.22-1.32c-0.22-0.44-0.44-1.1-0.44-1.76v-1.1c0.22-0.66,0.22-0.88,0.22-1.32c0-0.66,0.22-1.76,0.44-2.64
		c0.44-0.88,0.66-1.76,0.44-2.64c0-0.66,0.22-1.54,0.44-2.42c0,0,0.22-0.22,0.22-0.66c0.66-0.88,1.1-1.76,1.98-2.42
		c1.1-0.66,1.32-0.66,1.54-1.32c0.44-0.22,1.1-0.22,1.76-0.22h0.22c0.22-0.22,0.66-0.22,0.88-0.44c0.22-0.44,1.1-0.66,1.32-0.88
		c0.44,0,1.32-0.22,1.98,0c0,0.22,0,0.22,0.22,0.22c0.66-0.22,1.1-0.22,1.76-0.22h0.44c0,0.44,0.44,0.66,0.44,1.32
		c0,0.22,0.22,0.66,0.88,0.88c0.22,0,0.66,0,0.66,0.22c0,0,0,0.44,0.22,0.44c0.66,0.66,0.88,1.32,0.88,2.42v0.44
		c0.88,0.22,0.88,0.88,0.88,1.54c0.22,0.44,0.22,1.1,0.22,1.32c0,0.66,0,1.1,0.22,1.76c0.22,0.66,0,1.1,0,1.54
		c-0.22,0.66-0.22,1.1,0,1.98v0.88v1.1v1.1c0.22,0,0.22,0.22,0.22,0.22c0.22,0.66,0.44,1.54,1.1,2.2c0.22,0.44,0.22,0.88,0.22,0.88
		c-0.22,0.22-0.22,0.88-0.22,0.88c0.22,0.22,0.22,0.66,0.22,1.1c-0.22,0.44-0.22,0.44,0,1.1c0.22,0.44,0.22,0.44,0.22,0.88
		c-0.22,0.66-0.22,1.32,0,1.98v0.44c-0.22,0.44,0,0.88,0,0.88c0,0.66,0,1.32,0.22,1.76c0.22,0.88,0.44,1.54,0.66,1.76
		c0.22,0.44,0.88,1.1,1.32,1.32v0.44c0,0.66,0,1.76,0.44,2.42v0.66c-0.22,0.44-0.22,1.1,0,1.54c0.22,0.66,0.22,0.88,0.44,0.88
		c0.22,0.44,0,0.88,0.22,1.54c0.22,0,0,0.22,0,0.44s0.22,0.22,0.66,0.44c0.44,0.44,0.66,1.1,1.1,1.54c1.1,0.66,1.54,1.54,2.2,1.98
		l1.1,1.76c0,0.22,0.22,0.44,0.22,1.1v1.32v0.44c0.22,0.44,0.22,0.88,0.22,1.1c-0.22,0.22-0.22,0.44-0.22,0.66
		c0,0.44,0,0.88-0.22,1.1c-0.66,0.66-0.44,1.32-0.66,1.76l0.22,0.66c0,0.22,0.44,0.44,0.44,0.66c0,0.22,0,0.66,0.22,0.88
		c0.22,0.44,0.44,1.32,1.54,2.2c0.44,0.44,0.66,1.1,0.66,1.54v2.42c0,0.66,0.22,1.32,0.22,1.76v0.22c0.22,0.22,0.22,0.66,0.44,1.1
		c0.22,0.44,0.44,0.44,0.66,0.66c0.44,0.44,0,1.1,0,1.32c0.44,0.22,0.44,0.44,0,0.66c-0.22,0.44-0.22,0.88-0.22,1.32
		c0.22,0.22,0.66,0.44,0.66,0.66v0.88v1.54v0.44v0.88c0,0.88,0.22,1.54,0.22,2.2v0.66l-0.22,2.2v1.54c0,0.22,0,0.88-0.44,1.1
		c-0.22,0.22-0.22,0.44-0.44,0.88l-0.22,0.66c0,0.66-0.22,1.32,0.44,1.54c0.66,0.44,0.88,1.32,1.1,1.76c0.22,0.66,0.88,0.88,2.2,1.1
		h0.22c0.44-0.22,1.32,0,1.98,0.44c0.22,0.22,0.88,0.22,1.1,0.22c0.88,0.22,1.32,0,1.76,0c0.88-0.22,1.54-0.66,1.76-1.1l0.66-0.88
		c0.44-0.66,0.88-1.1,1.54-1.1c0,0,0.44,0,1.1-0.44c0.22-0.44,0.66-0.66,1.1-0.66c0-0.22,0.22-0.22,0.22-0.44
		c0-0.22,0.22-0.22,0.66-0.44l1.1-0.44h0.66c1.1-0.44,1.54-0.66,1.98-0.44c0.66,0,0.88-0.22,1.54-0.44c0.44,0,0.88-0.22,1.32-0.44
		c0.22-0.22,0.44-0.44,0.44-0.66c-0.22-0.22,0-1.1,0.22-1.32c0.44-0.44,0.44-0.88,0.66-1.1c0.22-0.22,0.66-0.66,0.88-1.1
		c0.22-0.22,0.66-0.44,0.66-0.66c0.22-0.44,0.44-0.66,0.66-0.88l1.1-0.88c0.22-0.44,0.44-0.44,0.66-0.44c0-0.22,0-0.22,0.22-0.22
		c1.54-0.22,2.2-0.88,3.08-1.54c0.44-0.66,0.66-0.88,1.1-1.1c0.22-0.22,0.44-0.44,1.1-0.88c0.22-0.44,1.1-0.88,1.1-1.54
		c0.22-0.88,1.32-1.54,1.98-1.76c0.44-0.22,0.44-0.66,0.44-0.88c0.66-0.66,1.54-1.54,1.98-2.42l0.44-0.44c0-0.22,0.44-0.88,0.66-1.1
		c0.22-0.66,0.44-1.32,1.1-1.54c0.22-0.44,0.88-0.66,1.1-0.88c0.22-0.44,0.22-1.1,0.88-1.54c0-0.22,0-0.44-0.22-0.66
		c-0.66-0.22-0.66-0.44-0.66-1.1c0.22-0.44,0.22-1.1,0.88-1.76c0.44-0.44,0.44-0.88,0.66-1.1c0.44-0.66,0.66-0.88,0.88-1.1
		c-0.22-13.42-0.44-13.86-0.22-13.86c0-0.22,0-0.44-0.22-0.88v-1.32c0.22-0.22,0.44-0.66,0.44-5.72l-0.44-0.66
		c-0.66-0.22-0.66-0.66-0.66-0.88c0.22-0.44,0.66-0.66,0.66-1.32v-1.32c0.22-0.88,0.22-1.54,0.22-2.42c0,0,0-0.44,0.22-1.1v-13.2
		c0-0.22,0-0.44-0.22-1.1c0-0.22,0-0.88-0.22-1.54v-0.88V570.69z M1072.21,509.53v2.2c-0.44,1.1-0.88,1.76-1.76,2.42
		c-0.88,1.1-1.54,2.64-3.3,3.3c-0.22,0-0.88,0.44-1.54,1.1l-1.98,2.2c-0.22,0.22-0.22,0.66-0.66,0.66c-1.1,0.88-2.2,1.32-23.98,0
		c-0.22-0.66-0.44-1.54-1.1-2.64c-0.66-1.32-0.66-1.32-0.66-2.64c0.22-1.54,0-2.64-0.44-3.52l-1.32-3.52
		c-0.22-0.66-0.22-1.54-0.88-2.2v-0.44c0.66-0.22,0.66-0.44,0.88-0.88c0.66-0.66,0.66-1.32,0.66-1.76c-0.22-0.66-0.22-0.88-0.22-1.1
		c0-0.44-0.44-1.1-0.44-1.32c0-1.1,0-2.2,0.66-2.86c0.44,0,0.44-0.44,0.44-0.44l0.66-1.1c0-0.44,0-0.88,0.22-1.32
		c0,0,0-0.66,0.44-0.88c0.22-0.88,0.22-1.32,0.22-1.98c0-0.44,0-0.66,0.44-0.88c0.66-0.66,1.32-1.32,2.2-2.42c0,0,0.44-1.1,0.66-1.1
		h0.22c0.44,0,0.44,0,0.66-0.44v-0.22c0-0.66,0.44-1.98,1.1-2.2c0.66-0.44,1.32-0.88,2.86-1.54c0-0.22,0.66-0.44,0.66-0.44
		c0.22-0.88,0.66-1.1,1.1-1.54c0-0.22,0.44-0.66,0.44-0.66c1.32,0,2.2-0.22,3.08,0h1.76c0-0.22,0.22-0.22,0.66-0.22h0.88
		c0.44,0,1.1-0.66,1.1-0.66c1.1-0.44,1.76-0.44,2.64-0.44c0.44,0,0.44,0.22,0.88,0.22c0,0.88,0.22,1.1,0.66,1.1
		c0.66,0.66,0.66,1.32,0.66,1.54v2.42v1.1v1.32v0.66v1.98c0.22,0.22,0.22,0.66,0.66,0.66c1.54,0.22,1.54,0.66,1.98,1.1l0.44,0.66
		c0.66,0.22,1.1,0.66,1.1,1.54c0,1.54,0.22,2.64,1.32,3.74h0.66c1.32,1.1,1.76,1.76,1.98,3.08c0.22,0.22,0.22,0.22,0.22,0.44
		c0.44,0.66,0.88,1.54,2.2,1.98c0.44,0.22,0.44,0.44,0.44,0.66v0.66c0.44,1.1,0.44,1.98,0.44,2.86V509.53z"/>
	<path class="st0" d="M1223.79,608.97c-29.26,0-49.94-23.98-49.94-61.82c0-37.4,20.46-60.06,50.16-60.06
		c24.2,0,38.72,13.64,42.24,35.2h25.08c-3.3-32.34-29.48-55-66.88-55c-42.68,0-75.02,31.24-75.02,79.86
		c0,51.04,29.7,81.4,74.36,81.4c38.28,0,63.8-21.56,67.76-55.44h-23.76C1264.05,594.45,1248.21,608.97,1223.79,608.97z"/>
	<polygon class="st0" points="1416.95,535.05 1339.07,535.05 1339.07,471.03 1315.75,471.03 1315.75,625.03 1339.07,625.03 
		1339.07,554.85 1416.95,554.85 1416.95,625.03 1440.27,625.03 1440.27,471.03 1416.95,471.03 	"/>
	<polygon class="st0" points="1504.07,425.05 1482.73,412.73 1470.63,433.41 1491.97,445.73 	"/>
	<polygon class="st0" points="1460.73,450.57 1448.63,471.47 1469.97,483.79 1482.07,462.89 	"/>
	<path class="st0" d="M1503.85,468.39l-23.98,13.64l23.1,164.56l21.56-12.54l-7.7-46.86l58.74-33.88l36.74,30.14l22.66-12.98
		L1503.85,468.39z M1513.53,566.51l-9.68-59.62c-0.66-5.06-1.54-9.9-2.42-14.52c3.52,3.08,7.04,6.16,11,9.46l47.08,38.28
		L1513.53,566.51z"/>
</g>
</svg>
