<?xml version="1.0" encoding="utf-8"?>
<!-- Generator: Adobe Illustrator 27.2.0, SVG Export Plug-In . SVG Version: 6.00 Build 0)  -->
<svg version="1.1" id="Ebene_1" xmlns="http://www.w3.org/2000/svg" xmlns:xlink="http://www.w3.org/1999/xlink" x="0px" y="0px"
	 viewBox="0 0 1920 1080" style="enable-background:new 0 0 1920 1080;" xml:space="preserve">
<style type="text/css">
	.st0{enable-background:new    ;}
	.st1{fill:#0000FF;}
</style>
<g id="Ebene_2_00000158744813583049826730000004349158275072334780_">
	<g>
		<g>
			<g>
				<g>
					<g class="st0">
						<path class="st1" d="M632.2,423.1l0.7-2l0.2-0.7l-0.4-2l0.2-0.4l0.4-1.5v-0.9l0.2-1.5l-0.2-1.3l-0.2-0.9l0.7-0.9v-2.6l0.7-0.4
							v-1.1l0.4-1.3l0.9-2.2l0.7-1.1l0.2-0.9l1.1-0.7v-0.9l0.4-0.9l1.3-2.2l0.2-1.3l0.9-1.1l0.2-1.1l0.9-0.9l0.4-0.4l1.3-0.7
							l0.7-1.3l1.1-0.4l1.5-1.5l0.9-0.7l1.1-0.4l0.7-0.2l1.3-0.9l0.9-0.4l0.9-0.7l0.7-0.2l1.5-0.7l1.5-1.1l2-1.5l1.1,0.2l0.4-0.9
							l2-1.1l2.4-0.9l1.1-0.4l0.4-1.1l-0.2-1.5l-0.2-2l0.4-1.1l-0.2-0.7l-0.7-2.2l0.4-1.3v-0.9l0.4-1.5l0.2-0.9l1.5-2.4l0.4-0.9
							l0.7-0.7l1.3-1.8l0.9-0.9v-0.4l0.7-1.5l0.9-0.4l0.7-1.5l0.2-0.7l2-1.3l0.4-0.7l0.7-1.3l0.2-0.9l0.9-0.2l0.4-1.3l2.2-1.3
							l0.7-0.7l0.4-1.3l1.5-0.4l0.4-0.4l0.9-1.1l1.8-1.8l0.9-0.9l0.7-0.7l0.7-0.2l1.3-0.4l0.4-0.7l1.1-0.7l0.9-1.1h0.9l2-1.3
							l1.3-0.2l0.7-1.1h0.7l2-1.3l1.1-0.9l0.7-0.4l1.5-0.4h0.9h1.1l1.1-0.9l0.4,0.2l1.8-0.7l0.7,0.2l1.1-0.9l2.2,0.2l0.4-0.4
							l1.3-0.4l0.9,0.2l1.1-0.2l1.8-0.2l0.2-0.4l1.3-0.2h1.5l0.7,0.2h1.3l1.1-0.7l1.5-0.4l1.5,0.2l1.3,0.2l0.9-0.2l0.9-0.2l1.5,0.2
							l0.9-0.2l1.3,0.2h1.3l0.9,0.2l0.9-0.4l1.5,0.7l1.3,0.2l0.7-0.4l0.9,0.4h1.5l1.8,0.7l1.8-0.7l0.2,0.7l1.3,0.4l0.9-0.4l1.5,0.4
							l0.9,0.4h1.1l2.2,0.7l0.9-0.4l0.7,0.7l1.8-0.2l0.7,0.9h1.1l1.8,0.7l1.5,0.9l0.9,0.2l0.7,0.4l0.7,0.7l0.9,0.9h1.3l0.9,0.4
							l1.1,0.4l0.9,1.3h1.3l0.9,0.4l0.9,0.9l0.7,0.9l1.1,0.7l0.9,0.7l0.9,0.2l0.7,0.7l0.2,0.7l2,2l0.7,0.4l0.4,0.7l0.7,1.1l1.1,0.2
							l0.7,1.8l1.3,1.8l0.2,0.2l1.1,1.3l0.9,1.5l1.1,1.3l0.4,0.7l0.4,0.9l0.9,0.4v1.1l0.9,0.9v1.1l0.7,1.8l0.2,0.4l1.1,2v1.3
							l0.4,1.5l0.2,1.1l0.4,0.7l-0.2,1.3v0.7l0.4,1.3l-0.2,1.1l0.7,0.9l-0.4,1.8l0.4,0.4v1.3l-0.2,1.5l0.2,1.3l-0.2,0.9v0.7v1.3
							l-0.9,1.1l0.4,0.9l-0.9,2.2l-0.2,1.8l0.2,0.7l-0.2,1.1l-0.7,1.3v0.9l-0.2,0.9l-0.4,1.8v1.1l-0.7,0.9l-0.4,0.4v1.1v1.5
							l-1.3,1.8v0.9l-0.4,1.1l-0.4,1.1l-0.2,1.5l-0.9,0.9l-0.2,1.1v0.7l-0.4,1.5l-0.9,1.5l-1.1,2l-0.7,0.7l-0.2,1.1l-0.9,1.3
							l-0.9,0.9l-0.4,0.7l-0.2,1.1l-1.1,0.7l-0.9,1.3l-0.4,0.9l-0.9,0.4l-0.4,0.7l-0.2,1.5l-1.1,0.2l-1.5,2.2l-1.1,0.4l-0.4,0.9
							l-1.3,0.9l-0.4,0.4l-1.8,1.1l1.1,1.8l-0.2,1.1l1.5,1.5l0.4,0.9l0.2,1.8l0.7,0.4v1.3v0.9l0.4,1.3l0.4,1.8l0.2,1.3v1.3l0.7,1.1
							l-0.2,1.1l0.7,0.9l0.2,1.3l0.4,0.4l-0.2,2.4l0.4,1.3l0.2,0.7l0.2,1.3l0.2,1.3l0.4,0.4l0.2,1.1l0.4,1.1l-0.2,1.8l-0.2,0.7
							l0.2,1.1l0.9,1.3l-0.2,1.1l0.2,1.3l0.2,2l0.4,0.9l0.2,1.5l0.2,1.1v0.9l-0.2,1.1v0.7v1.1l0.7,1.1l-0.2,2.6l0.2,0.9v1.5
							l-0.4,0.7l0.2,1.1l0.4,0.9v1.8l-0.4,0.7l0.9,0.9v1.3l0.4,0.9l0.2,1.3l0.2,1.3l-0.2,1.5l0.9,1.1v1.5l-0.4,1.1l0.7,1.3l-0.4,0.4
							l0.2,1.3l-0.2,2.2v1.5v0.9v0.9l-0.4,1.3v1.1l0.4,0.4l-0.2,1.5l-0.2,1.1v0.7l0.2,1.3v1.1l-0.2,1.3l0.4,0.9l-0.4,2.4l-0.2,1.1
							l-0.2,0.9l-2,1.5l-0.7-0.2h-1.1l-2.6-0.2l-0.4-0.4l-1.5,0.2l-2.4-1.1l-0.7-0.2l-1.3-1.1l-0.7,0.2l-2-0.2l-1.3,0.4l-2.2-0.4
							l-1.1-0.9l-1.1-1.1v-1.1l-0.9-1.1v-1.3l-0.2-2v-2l0.7-1.5l-0.7-1.5l0.7-0.9l-1.1-1.8l0.2-1.5v-0.9v-2l-0.2-1.3l0.7-1.3
							l-0.2-1.3l-0.2-0.7l-0.2-1.3V495l-0.4-1.3l0.4-0.9l-0.7-2.4l0.2-1.1l-0.2-2.2l-0.2-0.7l0.2-1.3l-0.7-0.9l-0.2-1.1l0.2-0.7
							l-1.1-2.2l0.2-0.7l-0.4-1.3v-1.5l0.7-2.2l-0.4-0.4l0.2-1.1v-1.1l-0.2-1.1l0.2-0.9l-0.9-1.3l0.2-0.9l-0.7-1.8l0.2-0.7l-0.4-0.9
							l-0.7-2l-0.2-1.3l-0.9-1.1v-1.3l-1.1-0.9l-0.2-0.9l-0.7-2.6l-0.7-0.2l-0.7-1.1l-0.2-1.5l-0.7-0.9l-0.4-1.1v-0.4l-0.4-0.9
							l-0.9-1.3l-0.9-2.4l-0.4-0.4l-0.9-1.3l-0.4,0.9l-0.4,0.7l-2.2,1.8l-0.7,0.4l-0.9,0.9l-1.3,1.1l-1.3-0.2l-1.8,1.5l-0.9,0.9
							h-0.9l-0.9,0.4l-0.7,0.9l-1.5,0.9l-0.7,0.2l-1.1,0.2l-0.7,0.4l-1.3,0.7l-1.1,0.7l-0.4,0.4l-1.1,0.4l-1.1,0.2l-2.6,1.1
							l-0.7-0.2l-1.1,0.2l-1.1,0.4l-0.7,0.7l-1.8-0.2l-0.9,0.7l-1.1,0.2l-0.9,0.7l-1.1-0.2h-0.9l-0.9,0.4l-2.9,0.4h-0.7l-0.9,0.2
							l-1.5-0.2l-0.4,0.2l-1.5,0.4l-2-0.7l-0.9,0.4l-1.5-0.2l-1.1,0.2h-0.7l-2-0.2l-1.1,0.2l-0.2,1.1l0.2,0.9l0.4,1.5v1.3l-0.2,1.1
							l0.2,1.1l0.2,0.9v1.1l-0.7,1.1l-0.2,1.8l0.4,1.8v0.7l-0.2,0.9v1.3l0.7,2.4l0.2,1.1l-1.1,2l-0.4,1.1l-0.2,1.8l0.7,2.2l-0.4,0.9
							v1.5l0.2,1.1l-0.4,0.9v2.2l-0.2,0.7l0.2,1.3l0.2,0.9l-0.2,1.3v1.1l0.7,2v1.8v0.7l-0.4,1.1v1.8l0.2,1.1l0.7,1.8v1.3l0.4,0.4
							l0.4,2.6l-0.4,0.2l0.2,1.3l-0.9,1.1l-0.7,0.4l-0.4,0.9l-1.8,0.4l-1.1,0.4l-2-0.4l-1.1-0.4l-1.1-0.4h-1.1l-0.7-0.4l-1.1,0.2
							l-1.8-0.4l-1.1-0.4h-0.9H676l-2-1.1h-2.6l-1.1-0.2l-0.7-1.1l-2.2-0.7l-0.4-0.9l-0.4-2.2l-0.2-1.1v-1.1l-0.2-0.9l-0.4-1.1
							l0.4-2v-2.2l0.2-1.3v-0.7l-0.2-1.3l0.2-0.9l-0.2-1.3l-0.2-1.1l-0.2-1.3l0.4-0.9l0.4-1.8l-0.2-0.4l-0.2-1.1l0.2-1.3l-0.2-1.3
							l0.4-1.1V484l-0.2-1.3l-0.4-1.1v-2l0.4-1.1l0.4-0.4l-0.4-2.4l0.4-0.7l-0.4-1.1l0.4-1.8l0.4-0.9v-2.2v-0.4l-0.9-1.3l0.4-1.5
							l-0.2-1.3l-0.2-0.4l0.7-1.3l-0.7-1.5l-0.2-1.1l0.4-1.3l0.2-1.5l-2.2-0.2l-0.4-0.2l-1.5-0.2l-1.3-0.4l-0.9-1.1l-1.5-0.7
							l-0.9-0.2h-1.1l-1.5-0.4l-0.9-0.7h-1.1l-0.4-0.7l-1.5-0.9l-0.9-0.4l-0.7-0.7l-1.1-0.7h-1.1l-0.7-0.9l-0.9-0.4l-0.7-0.9
							l-0.2-0.7l-1.3-1.5v-0.9l-1.3-0.4l-1.3-1.8v-0.9l-0.7-1.1l-0.4-1.1l-0.9-1.1l-0.7-1.1l-0.2-0.4l-0.2-1.3l-0.7-1.1v-0.9
							l-1.1-0.7V431l-1.1-2l-0.2-2.2l-1.3-1.5l-1.1-0.7L632.2,423.1z M640.8,417.6l-0.9,1.3l0.9,1.1l0.2,1.3l0.9,1.1l0.4,2.2
							l0.4,0.7l0.7,2.2l-0.2,0.9l0.9,1.3l0.2,0.9v0.9l1.3,0.9l-0.2,1.1l0.7,1.1l1.1,0.7l-0.2,0.9l0.7,1.1l1.1,1.1l0.2,1.1l2,1.1
							l0.2,1.1l1.5,0.2l0.9,2l1.3,0.2l0.4,1.1l1.5,0.7l0.4,0.2l1.5,0.4l0.9,0.9h1.1h0.9l2.2,0.9l0.7,0.9h0.9l1.3,0.2l0.9,0.4
							l1.3,0.7l0.7-0.4l1.1,0.2l1.3,0.9l0.9,0.2h1.3l1.1,0.4h1.3l0.4-0.2h1.1l2.6,0.7l1.3-0.2l1.1,0.2l1.1-0.2l2-0.2l1.3-0.2
							l1.5,0.4l1.8,0.4h0.9l1.3,0.9l1.1-0.7l3.5,0.7l2.2,0.2l0.4-0.7l1.8,0.2l0.7,0.2l1.1,0.2l1.5-0.9h1.1l0.7,0.7l1.1-0.9l1.1-0.2
							h1.1l2.4-0.7h1.1l1.3-0.2l1.1-0.7l0.7-0.7l2.2-0.2l1.8-0.7l1.3-0.7l0.7-0.4l0.9-0.9h1.1l0.9-0.7l0.9-0.2l1.3-0.4l1.8-1.3
							l0.7-0.2l1.3-0.7l0.9-0.7l1.1-0.9l1.8-1.5l2-1.5l0.7-0.2l0.7-0.7l2.6-0.4l-1.3-2.9l-0.2-0.4l-0.9-1.3l-0.2-1.1l-1.1-0.9
							l-0.4-0.9l-1.5-0.2l-0.7,0.4l-0.7,0.2l-1.3,2l-1.5,0.4l-0.4,0.2l-1.3,0.7L729,435h-0.9l-1.1,0.4l-1.8,1.1l-0.7,0.4l-1.5,0.7
							l-1.1,0.7l-0.4,0.4h-1.1l-0.9,0.4l-1.3,1.3l-0.9,0.2l-2.2,0.4l-0.9,0.4l-0.9,0.4l-1.1,0.4h-1.1l-1.3,0.4l-0.9,0.4l-0.9,0.9
							h-2.2l-1.5,0.4h-3.3l-1.3-0.4h-0.4l-2.4-0.4h-0.7l-1.1,0.4h-1.3l-0.7-0.7l-1.5,0.2l-1.8-0.2l-1.8,0.2l-0.7-0.4l-2-0.2l-2-1.1
							h-1.3l-0.7-0.7h-1.3l-1.1-0.4l-0.7-0.4l-1.1-0.4l-1.8-0.2l-0.9-0.4l-1.1-0.7l-2.4-0.4l-0.9-0.7h-0.9l-2-0.2l-0.9-0.7l-2.2-0.9
							l-0.7-0.4l-2.2-1.1l-1.1-0.4l-0.4-0.4l-0.9-0.7l-1.5-0.7l-0.2-0.2l-0.9-0.7l-1.3-1.1l-0.2-0.7l-1.1-0.7l-1.1-1.1l-0.2-1.3
							l-0.7-0.4l-0.9-1.3l-0.4-0.2l-0.7-1.1l-0.7-2.6l-0.4-0.9l-1.1-1.3l-1.1-1.8v-2.9l0.2-0.7l0.4-1.5v-1.1v-0.7l1.1-1.1l0.2-1.1
							l0.2-0.9l1.8-2V404l1.8-1.8l0.9-0.4l0.7-0.9l1.3-0.9v-0.2l0.9-0.9l1.5-0.7l0.9-0.9l0.4,0.2l1.1-0.4l1.1-0.4l0.7-1.1l2.4,0.2
							l1.5-0.9l-0.2-2l0.4-1.1l-0.2-0.4l-0.2-1.5l0.2-1.3v-0.7l0.2-1.1v-1.1l-0.4,0.9l-1.1,0.4l-1.1,0.4l-0.7,0.7l-1.5,0.4l-1.8,0.9
							l-0.4,0.4l-1.1,0.4l-2.4,0.7l-0.9,1.1l-2,0.7l-0.2,0.7l-0.9,0.4l-1.1,0.9l-0.7,0.9l-0.7,1.1l-0.7,0.7l-0.7,0.4l-0.7,0.7
							l-0.9,1.5l-0.7,1.1l-0.9,1.8l-0.4,0.7l-0.2,1.1l-0.9,0.7l-0.9,2.4l-0.2,0.9l-0.4,1.1l-0.7,1.3l0.4,1.8l-0.7,1.3l0.2,1.3v1.1
							V417.6z M665.6,415.8l-0.2-2.4v-3.5l0.7-1.3l-0.2-1.3l0.2-1.3l-0.9-2.2l-0.7,0.2l-1.1-0.4l-1.5,1.3l-0.9,0.4l-1.1,0.7
							l-1.1,0.9l-0.9,0.4l-1.3,1.5l-0.4,0.9l0.2,1.3l0.2,0.9l-0.2,1.5l0.7,1.3l0.2,1.1v0.9l0.2,1.3l1.1,0.7v1.5l1.3,0.9l0.2,0.2
							l1.8,2.2l0.7,0.7l1.3,0.4l0.7,0.2l1.1,0.9l1.1,0.9l0.7,0.9l-0.7-0.7l-0.2-0.7l-0.9-1.5V424v-1.5l-0.2-0.9v-1.8l0.7-1.1v-1.1
							l-0.4-0.9V415.8z M672.2,378l0.2,2l0.2,0.9l-0.2,1.5l0.7,0.7l-0.4,1.3l0.2,1.1l-0.7,2.4l0.4,0.9l0.2,1.5l-0.4,0.7l0.2,0.9
							l-0.2,1.5l0.4,1.1l0.2,1.3l0.2,0.9v1.5l-0.2,0.9l0.4,0.7l-0.4,1.3l0.2,2l0.7,1.8l-0.4,0.7v1.8l0.2,0.4l-0.4,1.3l0.4,1.3
							l-0.2,2.2l-0.2,0.7l0.7,0.9l-0.7,2.2l0.4,1.1l0.2,1.8l-0.4,0.7l0.7,1.1l-0.7,1.5l0.9,1.5v0.9l0.7,1.3v1.3v1.1l0.4,0.4l-0.4,2
							l1.1,0.4l0.9,0.7l1.1,0.4l1.3-0.4l0.4,0.4l2.6,1.1l0.4-0.2l1.5,0.4l1.1,0.7l0.4,0.4l1.1,0.2l1.3,0.2v-1.1l0.2-0.7l0.4-2.4
							l0.2-0.7l0.7-1.1v-0.9l-0.2-1.3l0.7-0.9l-0.4-2.6l0.4-0.7l-0.2-1.1l-0.9-1.8l0.4-0.9l-0.4-0.9v-1.3v-2.4l0.4-0.7l-0.2-2.2
							l0.7-0.9l-0.4-1.5l0.4-0.9l0.2-1.3l0.2-1.1l-0.4-0.4l0.2-1.8v-0.9l-0.4-2l-0.2-0.9l0.4-1.5l-0.4-0.7l-0.4-1.3l0.2-1.1v-0.9
							l0.2-2.6l0.2-0.9v-0.9l0.2-1.5v-1.1l-0.4-0.9V385l-0.4-1.5l0.7-1.1l0.2-2v-1.5l-0.4-0.9l0.2-2.2l-0.2-1.1l0.2-1.5l-0.4-0.7
							l0.2-1.8l-0.2-0.4l0.4-1.1l-0.2-1.8l0.2-1.1l0.4-1.8l0.9-2.4l0.7-0.4l0.7-0.7l1.1-1.5l0.7-0.7l1.1-0.4l0.4-1.1l1.8-1.3
							l0.4-1.3l1.1-0.4l1.3-0.7l0.7-0.7l0.9-0.7l0.7-0.7l0.9-0.7l1.1-1.1l0.4-0.7l1.1-0.2l1.3-0.9l0.7-0.2l0.9-0.4l1.3-1.3h0.9
							l1.5-1.5l0.9-0.4l1.1-0.7l1.1,0.2l1.1-1.3l1.1-0.4l0.4-0.2l1.1-0.2l2.4-0.2l1.1-0.9l1.1,0.2l0.9-0.7l1.3-0.2l1.3-0.4h1.5
							l1.1,0.4l0.7-0.7h2.4l2.2,0.7l1.1,0.2l0.4-0.2l1.3,0.7l1.5-0.2l1.1,0.9l2.2,0.4h0.7l0.9,0.4h1.1l1.5-0.4l0.9,0.7l1.3,0.7
							l0.7-0.2l2.4,1.3h0.4l1.1,1.1l0.9,0.2l0.9,0.9l1.3,0.2l1.3,1.1l0.7,0.2l0.7,0.4l2.2,1.8v0.4l0.9,0.9l1.3,0.7v0.9l1.3,1.1v0.7
							l0.9,0.9l0.7,0.9l0.9,0.9l1.3,1.8l0.2,0.9l0.2,1.3l0.9,0.7l0.9,0.9l0.2,1.3v0.9l0.7,1.3l0.2,1.3l0.7,1.1l0.7,1.1l-0.2,0.4
							l0.7,2.2l0.2,2.2v1.1l0.2,1.1l0.2,0.9v0.9l0.2,1.8l-0.4,0.7l-0.4,0.9v2l0.2,0.7l0.2,1.3L775,387l-0.4,1.5v1.3l-0.9,0.4v1.1
							l-0.4,0.9l-0.2,1.1l-0.2,1.3l-0.7,1.1l-0.9,1.1l-0.2,0.9l-0.7,1.1l-0.4,1.1l-0.2,0.7L769,402l-0.9,0.9v0.4l-0.9,1.1l-0.9,1.5
							l-0.9,1.3l-0.9,1.1l-0.9,1.5l0.2,0.2l-1.1,1.3l-0.9,0.9l-0.9,1.5l0.2,1.3l0.7,2.6l0.4,0.7l0.2,0.9l0.2,0.7l0.7,1.5l0.7,0.7
							l0.7,0.9v1.1l1.1,0.7l0.4-0.4l1.1-0.9l0.4-0.4l1.1-1.3l0.4-0.7l0.4-0.7l0.4-0.7l0.9-1.5l0.9-0.9l0.4-0.9l1.5-1.8l0.2-0.2
							l0.7-1.5l0.9-0.7l0.9-0.7l0.7-1.3l0.4-1.1v-0.7l0.9-0.9l-0.4-1.3l0.7-1.5l0.7-1.8l0.4-0.9l0.2-0.4l0.4-1.5l0.7-0.7l0.4-1.3
							l-0.2-1.1l0.7-1.1l-0.2-0.4l1.5-2l-0.4-1.3l0.9-0.9l0.4-1.1l-0.2-0.9l0.4-0.9l0.2-1.1l0.7-1.8l0.2-0.7v-1.3l-0.2-1.3l0.7-0.4
							l-0.2-0.9l0.4-1.3v-0.9l-0.2-1.5l-0.4-1.1v-1.1l0.7-0.7l-0.7-1.5v-1.5v-0.9l0.4-0.9l-0.7-1.5l-0.2-0.7l-0.4-1.5l0.2-1.3
							l-0.4-0.9l-0.9-1.1l0.2-1.3l-0.7-0.4l-0.4-1.3l-1.1-0.9l-0.4-1.3l-0.9-1.1l-1.3-1.3V354l-1.5-1.1l-1.1-1.5l-1.1-1.3l-0.4-0.4
							l-0.7-0.9l-1.1-0.7v-0.9l-1.1-1.1l-1.3-0.4l-0.2-1.3l-1.1-0.9l-1.3-0.4l-1.1-1.3L766,341l-1.3-0.2l-0.9-0.4l-1.1-0.7l-0.4-0.2
							l-1.3-0.4l-0.9-1.3l-2-0.7l-0.4,0.2l-1.3-0.7l-1.1-0.4l-1.1-0.2l-1.3-0.7l-0.9,0.4l-2.2-0.2l-1.3-0.2l-0.2-0.4h-1.3l-0.9-0.7
							l-2.2,0.2l-1.5-0.2l-0.7-0.7h-1.1h-1.1h-0.9l-3.5-0.4l-0.9-0.9l-1.5,0.4h-0.9l-1.5-0.2l-2,0.9l-0.9-0.2h-1.3l-0.7,0.4
							l-1.3,0.2l-1.1-0.2l-0.9,0.7h-1.8l-0.9,0.2h-0.9l-1.3,0.2l-0.9,0.2l-0.7-0.2l-2.6,0.2l-0.7,0.2l-1.5,0.4l-0.7-0.2l-2,0.9
							l-1.5,0.2l-0.9,0.7l-1.1,0.4l-2.4,0.2l-0.4,0.7l-1.3,0.7h-0.9l-2.4,2l-0.4,0.7l-1.3,0.4l-2,1.1l-0.9,0.4l-0.9,0.9l-1.1,0.4
							l-1.5,1.5l-1.1,1.3l-0.2,0.4l-1.3,0.9l-1.1,0.7l-0.7,0.4L683,352l-0.9,1.3l-0.4,0.4l-0.9,1.1l-0.4,0.2l-0.9,0.9l-1.1,2
							l-0.4,0.9l-0.9,0.9l-0.7,1.3l-0.9,2l-0.7,0.9l-1.8,1.8l-0.4,1.8l0.2,2.4l0.4,0.7l-0.4,0.7l-0.2,2.9l-0.4,0.9v1.3V378z
							 M672.5,483.2l0.4,2v1.3l0.2,1.1v1.5l0.2,1.8l-0.4,0.9l0.4,1.1l-0.4,0.7l-0.2,1.3l0.4,0.4l0.2,2.6l-0.2,1.1v0.9l-0.2,1.3
							l0.9,0.9v0.7l0.4,1.3l-0.2,1.3l0.7,0.7v2.4l3.3,0.7h1.1l1.5,0.2h1.1h1.8l1.3-1.5l0.2-1.1l-0.2-1.3l-0.2-1.8v-1.5v-0.7l0.2-1.5
							l-0.4-0.7l-0.2-1.3l0.2-1.5v-1.1v-2.4v-0.7l-1.1-2.2l0.4-1.1v-1.3l-0.4-2.6l-0.7-2l0.2-0.9l-0.4-1.3l0.2-0.7v-1.5l1.5-1.8
							l-0.2-1.5l0.9-0.7l-0.4-1.3l0.9-2l-0.7-1.5l0.4-0.9l0.4-1.1l-0.2-1.8v-1.1v-1.1v-0.7l-0.4-1.5l-0.9-1.1h-1.8l-0.7-0.9
							l-1.3,0.2l-0.7,0.4h-1.1l-1.5-0.7l-1.3,0.2l-1.3-0.2l0.2,1.1v1.8v1.1l-0.2,2.2l-0.2,0.9l-0.4,1.1l0.4,0.9v0.7l-0.4,1.5l0.4,2
							v1.1l0.2,1.1l-0.2,1.5l-0.7,0.4l0.4,1.8l-0.2,0.9l0.2,0.4l-0.9,1.3L672.5,483.2z M696.7,369.4l-0.2,1.5l-0.4,1.1v1.1l0.2,1.1
							l0.7,1.5l-0.2,1.3h2.9l1.3,0.2l1.8,0.4h0.7h1.1l1.1,0.4h2.4l0.9,0.2l1.3,0.4l0.9-0.2l2.2,0.4l1.1-0.4l1.5,0.9l0.9-0.2l1.5,0.4
							l0.7,0.4h1.5l0.7,0.4l2.4,0.2l1.3,0.9h1.1l0.4,0.4l1.5,0.2l0.9,0.4h1.1l0.9,0.7l0.7,0.4l1.1,0.7l1.5,0.4l0.4,0.4l1.5,0.7
							l0.9,0.4l0.9,0.9l0.4,0.4l1.5,0.4l0.7,0.9l0.7,0.4l0.7,1.3l2,1.1l0.9,1.1l1.8,1.3l1.1,0.7l1.1,1.1v0.4l1.8,2l0.4,0.7l1.1,1.1
							l0.4,0.4l0.9,1.3l0.4,0.9l0.4,0.7l0.7,1.3l1.3,1.1l0.4,0.2l0.4-1.1l0.4-0.4l1.3-1.3v-1.1l0.9-0.7l0.4-0.9l0.9-1.1l1.3-1.5
							l0.4-0.4l0.4-2l0.4-1.3l0.9-0.7v-1.5l0.9-0.9l0.4-0.7l0.2-0.9l-0.2-1.3l0.9-1.5l0.7-1.8l0.2-0.4l-0.4-1.8l0.4-1.1l0.2-0.4
							l-0.2-2.4l-0.2-1.1l0.7-0.9l-0.9-2.2l0.4-0.9l-0.7-1.1l-0.4-0.7l0.4-1.1l-0.7-1.5v-1.1l-0.2-0.7l-0.7-1.1l-0.2-1.1l-0.7-1.1
							l-0.4-1.1l-1.1-1.5l-0.4-0.7l-0.9-0.9v-0.9l-0.7-1.1l-1.1-1.1l-0.2-0.7l-0.7-0.9l-1.1-0.2l-0.9-0.9l-0.4-0.9l-0.9-0.7
							l-0.9-0.7l-1.5-0.4l-0.9-0.7l-1.8-1.1l-1.1-0.7l-0.9-0.4l-1.1-1.1l-0.9-0.2l-1.3-0.2l-0.7-0.4l-1.8,0.2L742,347l-2.2-0.4
							l-1.1,0.4l-1.3,0.2l-1.3,0.4l-1.5-0.2l-1.3-0.2l-1.8-0.9l-0.9,0.7l-2.4-0.2l-1.3,0.4l-0.9,0.2l-2.6,0.4h-1.1l-1.1,0.9h-0.2
							l-1.1,0.7l-1.1-0.2l-1.3,0.4l-2,1.8h-1.1l-0.9,1.1h-0.9l-0.9,0.4l-1.1,0.7l-1.1,0.4l-1.3,0.9l-0.9,1.1l-0.2,0.7l-1.1,0.2
							l-1.8,2l-1.1,0.9l-1.3,1.3h-0.7l-0.7,1.3l-0.7,1.1l-0.7,0.4l-0.9,1.3l-0.9,1.5l-0.7,1.1V369.4z M696.9,385.7l-0.4,1.1l0.2,1.3
							l0.4,0.4l-0.7,1.8l0.2,1.1l-0.2,0.2l0.2,1.1l0.7,1.3l0.9,0.2l1.1-0.2l1.1,0.4l1.1,0.2h1.3l1.5,0.2h0.4l1.3,0.2l0.7-0.2
							l1.3,0.2l2.4,0.9l1.1-0.2l0.7,0.2l1.1,0.7l0.9,0.7l0.9,0.4l2,1.1l0.7,0.2l2.2,1.5l1.1,0.9l0.9-0.2l0.7,0.7l0.4,1.1l1.1,0.7
							l1.5,0.2l0.9,0.7l1.8,0.9l1.1,1.3l0.9,0.4l1.1,0.7v1.3l0.9,0.4l0.9,1.1l0.4,1.8v0.9l1.8,1.5v1.3l0.9,0.7l0.4,0.7l0.7,1.3
							l1.5,1.5l0.2,0.7l0.4,1.1l1.3,1.1l0.2,0.4l0.4,1.3l0.4,0.9l1.1,1.5l0.7,1.8l0.9,0.9l0.4,0.9l0.2,0.7l0.9,1.1l0.4,0.9l0.2,0.9
							l1.3,1.1l-0.2,1.3l0.9,1.3l0.9,0.9l0.2,0.9l0.2,0.7l0.4,1.3l0.9,0.9l0.4,0.9l0.9,0.9l1.1,2.4v0.4l0.2,1.1l0.9,1.3l0.9,1.1
							l-0.2,0.9l0.7,1.1l0.9,0.7l0.2,1.1l0.2,0.9l0.4,1.5l0.9,1.3l0.4,0.9l0.4,0.4l0.4,1.5l0.4,0.7l0.9,2v1.1l0.9,0.9l-0.4,1.3
							l0.2,1.3l0.2,2l0.7,1.3v0.4l1.3,2.6v0.4l0.2,1.5l-0.4,1.3l0.2,0.7l0.2,2v1.5l-0.4,0.9L764,484v1.8l0.4,1.1v0.7l-0.4,1.1
							l0.2,0.9l0.4,1.5l0.2,2v0.7l0.2,1.1v1.5l0.7,1.1l0.2,0.9l-0.2,0.9l0.2,1.3l0.4,2.4l0.2,1.1v0.4l-0.2,0.9l0.2,2.9l-0.4,0.9
							l0.2,1.8l-0.7,2.2l-0.4,1.8l2.2-0.4l0.9,0.7l1.1-0.4l0.4,0.2l1.1,0.7l2.2,0.9v-2l0.2-1.8l0.2-1.3l-0.2-1.1v-0.4l-0.2-0.9
							l0.4-1.8l-0.4-0.4l0.9-1.3l-0.7-2.6v-0.4l0.7-1.8l-0.2-0.2l-0.9-2.2V497l-0.7-1.1v-1.1l-0.4-1.5l-0.4-0.9l0.2-1.5l-0.4-2
							l0.2-1.8l-0.2-1.1l0.4-0.7l-0.7-2.6v-0.4l0.7-1.8l-0.2-1.1v-1.1v-1.1l-0.4-0.9v-1.1l-0.4-1.1l0.4-1.1l-0.7-1.3l-0.4-1.3
							l0.7-1.1l-0.9-0.7l-0.2-2.9l-0.2-0.7l0.2-1.1l-0.4-1.3l-0.4-0.7v-1.1v-0.9v-1.3l-0.4-1.1v-1.3l-0.2-1.1l-0.9-2.4l0.4-0.4
							l-0.9-1.5v-0.9l-0.2-1.3l-0.4-0.4l-0.4-1.1l-0.2-1.3l0.2-1.3l-0.4-0.4l-0.4-1.1l-1.1-2.2v-1.1l-0.4-0.9v-1.5l-0.7-1.1
							l-0.2-0.4l-0.4-0.9l-0.4-1.3l-1.3-1.5l-0.7-1.3l-0.7-1.3l0.2-0.9l-0.9-0.7l-0.7-2.2l-0.9-0.9l-0.2-0.9l-1.1-0.7l0.2-0.9
							l-1.5-2.2l0.2-1.3l-0.7-1.1l-0.9-0.4l-0.2-1.3V415l-0.7-0.4l-1.1-1.8l-0.4-1.1l-0.9-1.1l-0.9-1.3l-0.2-1.1L747,407l-0.2-0.7
							l-2-1.8l-0.2-0.4l-1.1-0.9l-0.7-1.1l-0.7-0.4l-0.7-0.9l-0.4-1.3l-1.1-0.2l-1.1-1.1l-1.5-1.3l-0.9-0.4l-0.2-0.7l-1.5-0.9
							l-0.7-0.4l-0.7-0.2l-1.3-1.1l-0.2-0.7l-1.1-0.9l-0.9-0.2l-2.2-0.7l-0.9-0.7l-1.1-0.4l-1.3-0.2l-0.7-0.2l-0.9-0.9l-0.9-0.2
							l-1.5-0.2l-1.1-0.2l-0.9-0.4l-0.7-0.2l-1.1-0.2l-1.3,0.2h-2.2l-1.1-0.2l-1.8-0.7h-1.5l-0.4-0.2l-1.3,0.2l-0.7-0.2l-1.8-0.2
							l-0.7-0.7l-1.5,0.2l-0.9,0.2l-1.8-0.4L696.9,385.7z M697.3,435.4l-0.4,0.9l1.8-0.2l0.7-0.2l2.9,0.4l0.9-0.2l1.5,0.4l0.7-0.4
							l1.5-0.4l1.8,0.2l1.3-0.9h1.5h0.9l1.3-0.4l0.4-0.4l0.9-0.9l2.4-0.9l0.9-0.4l0.2-0.9l2-0.9h1.3l1.3-0.2l0.9-0.4l1.1-1.1
							l0.9-0.7l2.2-1.1l1.3-0.4l0.7-0.4l1.1-0.9l0.7-1.1l1.1-0.9l-0.9-0.7l-0.9-0.7v-0.9l-1.3-2.2l-0.4-0.9l-0.9-0.2l-2.4-1.3
							l-1.3-2.2l-0.4-0.7l-0.9-0.7l-1.1-1.5l-0.7-0.9l-1.3-1.3l-0.9-0.2l-1.8-2l-0.9-0.2l-1.3-0.4l-0.7-0.7l-1.1-0.2l-1.3-0.4
							l-1.1-0.9l-0.2,0.2l-2.9-0.9l-0.4-0.9l-0.9,0.2l-1.1-0.4l-1.5-0.4l-0.9-0.2h-1.3h-0.7l-1.3,0.2l-1.3-0.4l-0.9,0.2l-0.7,1.8
							l0.4,1.1v1.3l-0.7,0.7v1.3l0.4,0.4l0.2,1.5v0.9v1.8l0.9,1.3l0.4,1.5l0.2,0.4l0.4,2.2l-0.9,1.3l-0.2,2l-0.2,1.5l-0.4,0.9
							l0.4,1.8l-0.4,1.1v1.5l0.2,1.3l-0.7,0.7v0.7v1.8l0.2,0.7v1.5L697.3,435.4z"/>
					</g>
				</g>
			</g>
			<g>
				<g>
					<g class="st0">
						<path class="st1" d="M801.8,462.9v-94.4h23.3v91.1c0,31.9,12.5,46.9,36.3,46.9c23.8,0,36.5-14.7,36.5-46.9v-91.1h23.3v94.4
							c0,41.8-22.7,63.1-59.8,63.1C824,526.1,801.8,504.7,801.8,462.9z"/>
					</g>
				</g>
			</g>
			<g>
				<g>
					<g class="st0">
						<path class="st1" d="M943.9,536.4l-1.8,16.7l-26-2.9l2-16.9l25.5,2.9l1.8-16.3L920,517l3.5-31.2l25.5,2.9l3.5-30.8L927,455
							l3.5-31l25.5,2.9l3.3-30.6l-25.3-2.9l3.3-31l25.5,2.9l3.5-31l25.5,2.9l-3.5,31.5l-25.1-2.9l-3.5,30.4l25.1,2.9l-3.5,31.2
							l-25.1-2.9l-3.3,30.4l25.1,2.9l-3.7,31.5l-24.9-2.9l-3.5,30.6l25.1,2.9l-2,16.7L943.9,536.4z M971.2,361.7l-9.2-13.9
							l21.8-14.3l9.2,14.1l-21.3,14.1l9,13.9l21.3-14.1l14.3,21.3L995,396.9l13.9,21.1l21.3-14.1l14.1,21.3l-21.6,14.1l13.9,20.9
							l21.6-14.1l13.9,21.3l-21.3,14.1l14.1,21.3l-21.3,14.1l-14.3-21.6l21.1-13.9l-13.6-20.7l-21.1,13.9l-14.3-21.6l21.1-13.9
							l-13.6-20.9l-21.1,13.9l-14.1-21.6l20.9-13.9l-13.9-21.1l-20.9,14.1l-9.5-14.1L971.2,361.7z M1085.4,354v-16.7h26v16.9h-25.5
							v16.5h25.5v27.9h-25.5V426h25.5v27.7h-25.7V481h25.7v27.7h-25.7v27.7h-25.5v-27.9h25.1v-27.1h-25.1v-28.2l25.3,0.2v-27.1
							h-25.3v-28.2h25.3V371h-25.3V354H1085.4z"/>
					</g>
				</g>
			</g>
			<g>
				<g>
					<g class="st0">
						<path class="st1" d="M1126.3,368.5h49.3c50.8,0,82.5,24,82.5,77c0,46.6-27.3,77-79.2,77h-52.6V368.5z M1233.9,445.5
							c0-36.5-18.3-57.4-57.9-57.4h-26.4v114.6h27.1C1211.9,502.7,1233.9,485.8,1233.9,445.5z"/>
					</g>
				</g>
			</g>
			<g>
				<g>
					<g class="st0">
					</g>
				</g>
			</g>
			<g>
				<g>
					<g class="st0">
						<path class="st1" d="M452.2,640.2l38.9-86l21.3,9.7l-37.6,82.9c-13.2,29-7.9,48,13.6,57.6c21.8,9.9,39.4,1.5,52.8-27.7
							l37.4-82.7l21.3,9.5l-38.9,86c-17.4,38.1-46.9,48.2-80.5,32.8C446.5,706.9,435.1,678.3,452.2,640.2z"/>
					</g>
				</g>
			</g>
			<g>
				<g>
					<g class="st0">
						<path class="st1" d="M824.7,609.2l1.3,1.3c0,1.3-0.2,2.4-0.2,3.7c0,2.4-0.2,5.1-0.4,7.5c-0.9,6.2-2,12.5-3.3,18.5
							c0,0.7-0.2,1.5-0.4,2.2c-0.2,0.9-0.4,1.8-0.4,2.6c-0.9,4.2-2.9,7.5-6.6,10.1c-0.7,0.4-0.9,0.9-1.3,1.5c0,0.2,0,0.4-0.2,0.7
							c-0.4,2.9-0.9,5.5-1.5,8.4c-1.1,4.4-2,8.8-3.1,13.4c-0.9,4.4-2,8.8-2.9,13.4c-0.2-0.2,0,0.2,0.2,1.1c3.1,4.6,2.6,9.9,1.8,14.7
							c-0.4,2.2-0.7,4.2-1.1,6.2c0,1.1-0.2,2.2-0.4,3.3c-0.7,2.9-1.1,5.7-1.5,8.8c-0.2,0.4-0.2,0.9-0.4,1.5
							c-0.7,2.6-1.1,5.1-1.5,7.5c-1.1,8.1-5.1,13.6-13.6,15.8c-4.2,1.3-8.4,1.1-12.5-0.4c-5.5-2-10.1-8.4-10.1-14.3
							c0-2.6,0.2-5.1,0.4-7.5c0-1.1,0.2-2.2,0.2-3.3c1.3-9.7,3.5-19.4,5.7-28.8c0.9-3.5,3.1-6.8,6.2-9c1.3-0.7,1.5-1.1,1.8-2.4
							c0.4-2.6,0.9-5.3,1.5-7.9c0.2-0.4,0.2-0.9,0.4-1.5c1.1-4.2,2-8.4,2.9-12.8c0.4-2.4,0.9-4.6,1.5-7c0-0.7,0.2-1.1,0.2-1.8
							c0.2-0.9,0.4-2,0.9-3.1c0.4-0.9,0.2-1.1,0-2c-2.6-3.3-3.5-7.3-2.6-11.9c0.4-2.2,0.7-4.6,1.1-7.3c0-1.1,0.2-2.2,0.2-3.5
							c0.4-2,0.7-4,1.1-5.9c0.4-1.8,0.7-3.7,0.9-5.7c0.4-2.2,0.7-4.2,0.7-6.2c0.4-3.7,1.5-7.5,3.7-10.3c0.9-1.1,0.9-1.5,0.7-2.9
							c-0.2-1.5-0.7-3.3-1.1-4.8c-0.2-1.8-0.7-3.3-0.9-4.8c-0.2-0.7-0.4-1.3-0.9-1.8c-2.9-3.1-5.7-5.3-9.5-7.5l0.4-0.2
							c-0.4,0.4-1.1,0.9-1.3,1.1c-0.4,0-0.7,0.2-0.9,0.4c-3.3,1.3-6.6,1.1-9.7,0.7c-2-0.2-4.4,0.4-7,1.1c-2.9,0.9-5.7,2.6-8.4,4
							c-2.9,1.3-6.2,2.9-10.1,1.8c-0.4,0-0.4,0.2-1.1,0.9c-0.9,2-1.8,4.2-2.6,6.2c-1.8,4.6-2.9,9-3.3,13.9c-0.2,0.9-0.2,1.5-0.4,2.4
							c-0.2,1.5-0.4,2.9-0.4,4.2c0,0,0.2,0,0.2,0.2c0,0.2,0.2,0.4,0.2,0.9c0.4,0.4,0.7,1.1,1.1,1.8s0.9,1.3,1.1,1.8
							c1.3,1.5,1.5,3.7,1.5,5.3c0,4.4,0,8.6,0,12.8c-0.2,3.3-0.2,6.4-0.2,9.7c0,3.3-0.2,6.6-0.2,9.9c0,0.7-0.2,1.1-0.2,1.5
							c0,3.1-0.2,6.4-2.6,9.5c-0.4,0.4-0.7,0.9-1.1,1.3c-0.2,0.4-0.4,0.9-0.9,1.3c-1.1,1.1-1.5,2-1.5,3.3c0.2,1.1,0.2,2.4,0.2,3.7
							c0,1.8-0.2,3.7-0.2,5.7c0,2,0,4-0.2,5.9c-0.2,2.2-0.4,4.4-0.7,6.8c-0.2,2.2-0.7,4.6-0.9,6.8c-0.2,2.6-0.7,5.5-1.3,8.1
							c-0.2,0.9-0.2,1.1,0.4,2.4c0.9,2.2,2,4.8,1.5,8.1c-0.4,2.2-1.1,4.6-2,6.6c-1.5,3.5-3.3,7-6.2,10.1c-2.2,3.1-5.3,5.9-8.6,7.9
							c-3.7,2.4-8.4,4.2-12.3,4.6c-3.3,0.7-6.8,0.9-10.3,0.4c-1.1-0.2-2.2-0.4-3.5-0.7c-2.2-0.2-4.4-0.4-6.6-0.9
							c-3.1-0.4-5.9-1.8-8.6-3.5c-2.6-1.5-5.1-3.7-6.4-6.8c-0.7-1.8-1.8-2.9-3.3-4.2c-3.5-2.9-5.9-6.4-8.6-9.5
							c-3.1-5.3-5.3-11-6.4-16.7c-0.4-2-0.7-4.2-1.1-6.2c0-1.1-0.2-2.2-0.4-3.1c0-1.1-0.2-2.2-0.2-3.3c0-0.9,0-2-0.2-2.9
							c0-0.4,0-0.4-0.4-0.9c-2-2.2-4-4.6-4.4-7.5c-0.4-1.8-0.7-4-0.4-5.5c0-1.8,0-3.1,0-4.8c0-0.7,0-1.5,0-2.4c0-1.3,0.2-2.6,0.4-4
							c0.2-1.5,0.4-3.1,0.4-4.4c0-1.1,0.2-2.2,0.4-3.3c0.2-0.7,0.2-1.1,0.2-1.8c0.7-4.6,1.3-9.2,2.2-13.6c0.2-2.2,0.7-4.4,2-6.8
							c0.9-1.8,2.4-3.7,4.4-4.8c0.9-0.4,0.9-1.1,0.9-2.4c0-0.4,0-0.9,0.2-1.3c0.4-2.4,0.7-4.6,0.9-6.8c0.2-1.1,0.2-2,0.4-3.1
							c0.2-1.1,0.2-2.2,0.2-3.3c0-1.3,0.2-2.4,0.2-3.5c0-4.8,0.2-9.7,0.4-14.5c0-1.1-0.2-1.8-0.9-2c-2-1.3-3.5-3.1-4.2-5.3
							c-0.4-0.9-0.7-0.9-1.3-1.1c-1.8-0.2-3.7-0.7-5.5-1.1c-1.8-0.2-3.5-0.7-5.3-0.9c-4-0.2-7.5-2.2-10.1-5.1
							c-0.2-0.4-0.2-0.4-0.2-0.7c-0.4,0.2-1.1,0.4-2,0.9c-0.2,0.7-0.7,1.3-0.9,2c-0.2,0.2-0.4,0.4-0.4,0.7c-2,4.6-3.1,9.2-4.2,14.1
							c0,0,0.2,0,0.2,0.2c0,0,0.2,0.2,0.2,0.4c2,2.4,2.9,5.5,3.1,8.1c0.2,2.2,0,4.2-0.2,5.9c-0.2,1.1-0.2,2.4-0.4,3.7
							c-0.2,1.1-0.4,2.2-0.4,3.5c0,2-0.2,4.6-0.7,7.3c0,1.5-0.2,3.3-0.4,4.8c-0.2,1.1-0.4,2.2-0.4,3.1c-0.2,2.2-0.4,4.6-0.4,6.8
							c0,4.2-2,7.3-4.2,9.9c-1.1,1.1-1.1,1.5-1.5,3.5c-0.2,6.4-0.2,13-0.2,19.4c0.2,4.4,0.2,8.8,0,13.2c-0.2,2,0.2,3.3,1.5,4.8
							c2,2.9,3.3,5.7,3.3,9.5c0,4,0,7.5,0.9,11c0.4,4.8,0.2,9.5,0.2,14.1c0,2.9-0.2,5.9,0,9c0.2,7.7-5.3,14.5-11.9,16.3
							c-0.4,0.2-0.9,0.2-1.3,0.4c-1.8,0.4-3.5,1.1-5.1,1.1c-3.7-0.2-7.3-1.1-10.8-3.3c-4.6-3.3-7.3-8.6-7.7-14.5
							c0-4.8,0-9.5-0.4-14.3c-0.2-4.4-0.2-8.4-0.2-12.5c0-1.3,0-2.6,0-4c0-4.2,0.2-8.8,3.5-12.8c2-0.7,0,0.2,0.2,0.2
							c0-0.2,0.2-0.4,0.4-0.7c1.3-1.1,1.1-2.6,1.1-4.8c0-9.5,0-18.9,0-28.4c0-0.9,0.2-1.8,0.2-2.6c0.2-1.1,0.4-2,0.4-2.9
							c0-0.7,0-0.9-0.7-1.5c-4-4.6-5.3-10.1-4-16.1c0-0.4,0-1.1,0-1.8c0-4.6,0.2-9.7,0.9-14.1c0.2-0.9,0.2-1.5,0.2-2.2
							c0-0.9,0.2-1.8,0.2-2.4c0.4-1.8,0.4-3.5,0.7-5.3c0.4-2.9,0.7-5.5,1.3-8.1c0.9-3.1,2.2-6.2,5.5-7.9c1.1-0.7,1.5-1.5,2-3.1
							c1.1-5.5,2.2-11,4.8-16.3c1.8-4.8,4.2-9.9,8.8-14.1c4-3.5,8.4-5.9,14.3-6.2c1.3,0,2.9-0.2,4.4-0.4c0.2,0,0.2,0,0.2-0.2
							l0.4-0.4c2.9-2,6.4-3.1,9.9-4c0.4,0,0.9,0,1.5,0c2.2,0.2,4.4,0.4,6.4,0.9c4.4,0.4,8.6,1.1,12.8,2c5.3,1.5,10.1,3.3,14.3,6.2
							c3.7,2.9,6.6,6.8,8.1,11.4c1.3,2.9,2.4,6.4,3.3,9.5c0.9,4.8,0.2,9.7-2.9,13.9c-0.4,0.4-0.7,1.1-0.7,1.8c0,2.4,0,4.8,0,7.9
							c0,4.4-0.2,8.4-0.7,13c-0.4,3.3-0.7,6.8-0.9,10.1c-0.2,2.4-0.7,5.1-1.1,7.5c-0.2,0.7,0,0.9,0.4,1.5c1.8,2.2,2.9,5.3,2.9,8.4
							c0,2.4-0.4,4.4-0.7,6.2c0,1.8-0.2,3.3-0.4,4.8c-0.2,3.5-0.4,6.6-0.9,10.1c-0.2,3.1-0.9,6.6-1.3,9.5c0,0.9-0.2,1.8-0.2,2.9
							c0,1.1,0,2-0.2,3.1c0,2.9-0.9,5.5-3.1,7.3c-2.2,1.5-2.4,3.5-2,6.2c0.4,2.4,0.9,4.8,1.3,7.3c0.9,4.2,2.2,7.9,4.8,11
							c0.4,0.7,1.1,0.9,2.2,1.8c0.2,0.2-0.7-0.4,0.2-0.9c2.2-1.1,4.6-1.5,7.3-1.5c0.7,0,1.3,0,2.2,0.2c1.3,0,2.9,0.2,4.4,0.4
							c0.7,0,0.7,0,0.7-0.2c1.5-3.5,4.8-5.7,7.5-7.3c0.4-0.4,0.7-0.7,0.7-1.1c0.2-1.8,0.4-3.5,0.7-5.1c0.7-3.3,1.1-6.8,1.5-10.3
							c0.4-5.7,0.7-11.9,0.7-17.4c0-1.3,0-2-0.7-3.1c-2.2-2-3.5-5.1-4-8.1c-0.4-4.6-0.4-9.2-0.2-13.9c0-1.8,0-3.7,0-5.5
							c-0.2-3.5,0-6.4,0.2-9.9c0.2-3.5,0.7-7,1.1-10.6c0.4-2.9,1.8-5.7,4.2-7.9c1.3-1.3,2.2-2.4,2.4-4.2c0.2-1.5,0.2-3.3,0.4-5.1
							c0.2-1.5,0.4-3.3,0.7-5.1c1.5-5.9,2.9-12.1,5.3-17.8c1.5-4.4,4.2-8.6,7.7-11.9c0.2-0.4,0.2-0.7,0.4-1.3
							c0.2-0.4,0.2-0.9,0.4-1.5c1.1-5.1,3.7-9.5,7.9-12.1c5.7-4,11-7,17.4-8.8c5.7-1.8,11.7-2.6,17.6-2.4c4.8,0,9.9,0.9,14.3,2.6
							c4.2,1.1,7.5,4.4,9.7,8.4c0.7,0.9,0.7,0.9,1.1,1.1c0.7,0.4,1.5,1.1,2.2,1.5c3.1,2.2,6.2,4.2,9.5,6.6c3.7,3.7,7.3,7.5,9,12.1
							c1.5,4,2.6,7.9,3.7,11.2c0.4,1.5,0.7,3.5,0.9,5.3c0.2,1.1,0.2,2,0.4,2.9c0,0.4,0,0.4,0,0.4c4,2.9,6.2,7,5.9,12.1
							c0,1.5,0,2.6,0,4l-1.3-1.3C824.7,609.2,824.7,609.2,824.7,609.2z M600.5,750.5h-1.1c0.2,0,0.2,0,0.2,0
							c0.4-0.2,1.1-0.4,1.8-0.4v2.4c0,0-0.7-0.2-0.9-0.2c-0.2,0-0.2,0-0.2,0l-0.7-0.2c-0.7-0.4-1.1-0.7-1.8-0.9
							c-0.7-0.4-1.3-0.7-2-1.1c-3.3-2-6.2-5.1-6.6-9c-0.4-3.1-0.7-5.7-0.9-9.2c-0.2-4.8-0.4-9.7-0.4-14.7c0-2.2,0-4.4,0.2-6.6
							c0-2,0.2-4.2,0.2-6.4c0-3.1,1.1-5.7,2.9-7.7c2-2.4,4.8-3.5,7.3-4.8c0.9-0.2-0.4,0.2,0-0.2l1.1,1.8c-0.4,0-0.9-0.2-1.1-0.4
							c-0.7-0.2,1.8-0.7,0,0c-1.1,0.2-2.4,0.7-3.5,1.3c-3.7,2.4-5.9,5.5-5.9,10.1c0.2,3.7,0.2,7.5,0.2,11c0,7.5,0.2,14.7,0.4,22.2
							c0,1.8,0.4,4,1.1,5.5c0.9,2.4,2,4.6,4.2,5.5c1.1,0.7,2.2,1.1,3.3,1.3C599,750,599.9,750.2,600.5,750.5z M590.2,637.6l-1.3-1.3
							h0.2l1.3,1.1c0,2.2,0,4.4,0,6.6c0,0.7,0,1.3,0,2c1.5,3.3,4,5.7,7.7,7c0.4,0.2,0.9,0.2,1.5,0.2c0.9,0.4,0.7,0.7,0.2,0.7
							c0,0.4-0.2,0.7-0.2,0.7H599c-0.9-0.4-2-1.1-2.9-1.8c-5.1-2.6-7.3-7-7.3-12.1c0-2.2,0.2-4,0.4-5.5c0-2,0.2-4,0.2-5.9
							c0-2,0-4,0-5.9c0.2-0.9,0.2-1.5,0.4-2.4c0-0.9,0-1.8,0.2-2.6c0.7-3.5,1.1-7.5,1.5-11c0.9-5.5,4.4-9.5,9.2-11
							c0.9-0.4,2-0.7,2.9-0.9c0.2,0,0.4,0,0.4,0l0.4-0.2l0.4,2c-0.4-0.2-0.9-0.7-1.1-1.1c-0.2-0.7,1.5,0.4,0,0c-0.2,0-0.2,0-0.4,0.2
							c-2.9,0.7-4.8,1.8-6.8,3.1c-2.2,1.3-3.1,3.1-3.3,5.3c-0.9,6.8-2,13.9-2.6,20.7c-0.4,2.6-0.4,5.3-0.7,7.9
							C590.2,634.7,590.2,636.1,590.2,637.6z M593.7,675.9c0,3.5,0,6.8,0,10.1c0,1.1,0,2.4,0,3.5c0,0.2,0,0.2,0.2,0.4h-1.8
							c0-0.2,0.2-0.2,0.4-0.4c0.2-0.4,0.2-0.7,0.2-1.3c0-6.2,0-12.5,0-18.7c0-0.7,0-1.1,0-2c0-2,0.2-3.7,0.2-5.7
							c0-1.8,0-3.5,0.2-5.5c0,0.2,2.2,1.8,0,0.7c-0.2-0.2-0.4-0.4-0.7-0.7h1.8c-0.2,0-0.2,0-0.2-0.2c0,2-0.2,3.7-0.2,5.7
							c0,1.8,0,3.7-0.2,5.5C593.7,670.4,593.7,673.2,593.7,675.9z M610.2,729.1h1.3H610.2c0-4.2-0.2-8.1-0.4-12.3
							c-0.2-2.2-0.2-4.4-0.2-6.4c-0.2-2.2-0.2-4.4-0.2-6.6c0-0.2,0,0,0,0.2l0.9,0.2c0.2,0,0.2,0,0,0.2c-2,1.3-4.6,2.6-7,2.6
							c-2.9,0.2-5.5-0.7-7.5-2.2c-1.5-1.3,0.4,0.4,0.4-0.7c-0.2,1.8-0.4,3.7-0.4,5.3c-0.2,1.1-0.2,2-0.2,2.9c0,1.1,0.2,2.2,0.2,3.3
							c0.2,1.3,0.4,2.6,0.4,4c0.2,2.9,0.2,5.9,0.2,9s0.2,6.2,0.2,9c0,1.3,0.7,2.6,1.3,3.3c2.6,2.6,5.7,3.3,8.6,1.3
							c2.6-1.1,4-2.4,3.7-4.8c-0.2-2,0-4,0-5.7C610.2,730.9,610.2,730,610.2,729.1z M612.8,611.6c0-1.1,0-1.1-0.9-0.9
							c-3.7,0.9-7.7,1.3-11-1.5c-0.4-0.4-1.1-0.9-1.5-1.1c-0.4-0.4-0.9-0.7-1.3-1.1l2.2-0.7c-0.2,0.4-0.2,0.9-0.4,1.3
							c-0.2,0.9-0.2,1.5-0.2,2.2c-0.4,2.4-0.7,5.1-0.9,7.5c-0.2,1.8-0.4,3.5-0.7,5.1c-0.2,2.9-0.4,5.7-0.4,8.8
							c-0.2,1.3-0.2,2.9-0.2,4.4c-0.4,1.5-0.4,2.9-0.7,4.4c0,0.7,0,1.3-0.2,2c0,0.4,0,0.7,0,0.7l-0.2-0.7c0,0-0.7-0.2-0.4-0.4
							c0,0,0,0,0.2-0.2c0.2,0,0.7-0.4,0.9-0.7c4-2,7.9-2,12.1,0c0.7,0.4,1.1,0.9,1.3,1.1c0.4,0.4,0.9,0.7,1.1,0.9l-1.8,0.9
							c0-0.4,0.2-0.9,0.2-1.5c0-0.4,0.2-1.1,0.2-1.5c0.2-2.6,0.4-5.1,0.7-7.3c0.2-1.3,0.2-2.9,0.2-4.2c0.2-1.3,0.2-2.9,0.4-4.4
							c0-0.9,0-1.8,0.2-2.9c0-0.9,0-1.8,0.2-2.9c0.2-2.2,0.4-4.4,0.7-5.9C612.8,612.3,612.8,611.9,612.8,611.6z M624.5,560.2
							c-4.8,0-7.7,1.8-11,4.2c-3.5,3.5-6.4,7.7-8.1,11.9c-2,5.3-4,10.6-4.8,16.3c0,0,0,0.7,0,0.9l-1.3-1.3c0.7,0,0.7,0,0.4,0.2
							c0.2-0.4,0.4-0.7,0.4-0.7c1.5-7.3,3.5-14.5,7.5-20.7c3.7-6.4,8.8-11,16.5-11.9c0,0,0.2,0,0.4,0c0,0,0,0,0,0.2
							C624.5,558.6,625.2,560.2,624.5,560.2z M601.2,674.1c0,4.2,0,8.6,0,13c0,1.1,0-0.2-0.2-0.2c0.7-0.2,1.8-0.2,2.9,0
							c-0.4,0-0.4,0-0.4-0.2c0.2-1.3,0.2-2.6,0.2-4c0.2-1.3,0.2-2.6,0.2-4c0-5.9,0-11.9,0-18c0-1.8,0-1.8-1.3-1.8
							c-1.1,0-1.1,0-1.3,1.8c0,0.4,0,0.9,0,1.5C601.2,666.2,601.2,670.2,601.2,674.1z M605.4,701.6c0.2,0,0,0-0.2,0.2
							c0.7-0.7,1.1-1.1,1.8-1.5c0.9-1.1,1.8-1.5,2-2.6l0.2-0.4c0,0,0,0,0-0.2l2,0.9c-0.2,0.2-0.7,0.4-0.7,0.4c0,0.2,0,0.2-0.2,0.2
							c-1.3,1.1-3.1,2.6-4.2,3.7l-0.2,0.2c0,0,0,0,0,0.2l-1.1-1.3c0,0,0.7,0.2,0.9,0.2C605.6,701.8,605.6,701.6,605.4,701.6z
							 M606,644.9c-0.2,0-0.2,0-0.4,0l1.3-1.1v0.2c1.3,1.5,2.4,2.9,4,4.2c1.5,2.2-0.4,0-0.2,0l-1.1,1.1c0,0,0,0,0-0.2
							c-0.7-0.9-1.1-1.8-2-2.9c-0.2-0.2-0.4-0.7-0.7-0.9c0,0,0,0-0.2,0C606.5,645.1,606.2,645.1,606,644.9z M608,657
							c0-1.1,0-2.4-0.2-3.7c0-0.9-0.4-1.8-0.9-2.4c-0.4-1.3,0.2,0.2,0.2,0c-0.2-0.2-0.4-0.7-0.4-1.1l2,0.9c0,0,0-0.2,0,0
							c-0.4,4.4-0.7,9-0.7,13c0,7.9,0,15.2,0,22.7c0,3.3,0.2,7-1.1,11c0,0.2,0,0.2,0,0.4l-1.3-1.3c0.2,0,0,0,0,0
							c1.3-1.1,1.8-2.6,1.8-4.6c0-2.6,0-5.1,0-7.7C607.1,675,607.1,666,608,657z M624.3,569.8l-0.2,1.3c-0.4-1.5-0.7-2.6-0.9-3.7
							c-0.2-0.9,0.9-0.2,0.2,0.2c-4,0.9-5.9,2.6-7.9,5.7c-3.3,4.6-4.8,10.1-6.6,15.4c-0.7,2.4-0.7,2.4,1.5,3.1c0.4,0,0.4,0,0.7-0.4
							c0.2-0.4,0.2-1.1,0.4-2c0-0.7,0.2-1.5,0.4-2.4c1.5-4,3.1-8.6,5.7-12.5c1.5-1.8,3.5-3.5,6.2-4.2l0.2-0.2
							C624.3,570.1,624.3,569.8,624.3,569.8z M614.2,602v1.8l-0.2-0.4l0.9,0.4h-0.2l0.7-0.2c-0.4,0.2-0.9,0.7-1.3,0.9
							c-1.3,1.1-2.4,2-3.7,2.6c0.2,0,0.2-0.2,0.2,0c-0.2,0.2-0.4,0.7-0.7,0.9l-0.7-2c0,0,0.4,0,0.7,0.2c1.8-0.9,3.1-1.8,4-3.3
							C613.7,602.4,613.9,602.2,614.2,602z M613.5,715.9c-0.2-4.6-0.4-8.6-0.7-12.5c0-0.7-0.2-1.1-0.4-1.8c-0.2,0-0.2-0.2-0.2-0.4
							c-0.2,0-0.2,0-0.2,0c-0.2-0.2-0.4-0.4-0.7-0.7l2-0.9c0,0.4,0,0.9,0,1.1c-0.2,0.2-0.2,0.2-0.2,0.2c0.2,0.7,0.2,1.5,0.4,2.4
							c0.2,1.1,0.7,2.4,0.7,3.7c0.2,4.4,0.4,9,0.4,13.4c0,5.9,0,11.9,0,17.8c0,0.4,0,0.9-0.2,1.1c0,0.4,0,0.9,0,1.3
							c-0.7,2.4-2,4.2-3.5,5.7c-0.2,0-0.2,0.4-0.4,0.9l-1.1-1.8c2.6-2.2,4.6-4.2,4.6-7c0-4.2-0.2-8.1-0.2-12.1
							C613.7,723,613.5,719.4,613.5,715.9z M632,572.3l0.4,2c-0.4,0-0.9-0.2-1.1-0.2c0-0.2,0-0.2,0.2-0.2c-0.9,0-1.5,0.2-2.4,0.2
							c-1.1,0-2.2,0.2-3.1,0.2c-1.3,0-2.6,0.7-4,1.8c-1.8,1.8-2.6,4.2-3.7,6.6c-1.5,4-2.9,8.4-4,12.5c-0.2,1.5-0.7,2.9-1.3,4
							c-0.2,0.9-0.7,1.8-0.7,2.4c-0.9,0.9-0.2-0.2,0,0.2c0,0.2,0,0.4,0,0.4l-1.3-1.1c0.4,0,0,0,0,0l-0.2,0.4
							c0.2-0.7,0.9-1.3,1.1-1.8c0.7-0.9,0.9-1.1,0.9-1.8c0.7-1.8,1.1-3.7,1.5-5.7c0.2-1.1,0.4-2.2,0.7-3.1c1.3-4,2.2-8.1,4.8-11.4
							c2.2-2.9,4.4-4.6,8.1-4.6c0.7,0.2,1.1,0,2-0.2c0.2,0,0.7-0.2,1.1-0.2c0.2,0,0.2,0,0.7-0.2C631.8,572.3,632,572.3,632,572.3z
							 M616.6,609.9c0-0.9,0-1.8-0.2-2.6c0-0.2-0.2-0.4-0.4-1.1h2.2c-0.2,0.2-0.2,0.4-0.4,0.7c-0.2,0.4-0.2,0.4-0.2,0.4
							c-0.2,5.3-0.4,10.6-0.9,15.6c0,2-0.2,4.2-0.7,6.2c-0.2,4.4-0.7,8.6-1.3,12.5c0,1.5-0.2,2.6-0.4,3.5c-0.2,0.4-0.2,0.9-0.2,1.1
							s0,0.2,0,0.2c0,0.2-0.4-0.9-0.2-0.4c0.4,0.2,0.7,0.7,0.7,1.1l-2.2-0.9c0.2,0,0.7-0.4,0.9-0.4c0.2,0-0.4,1.1-0.4,0.9v-0.4
							c0.2-0.2,0.2-0.4,0.4-0.9c0.2-0.4,0.2-0.7,0.2-0.9c0.2-0.9,0.2-1.8,0.2-2.4c0.2-0.9,0.2-1.8,0.4-2.6c0-0.7,0.2-1.5,0.2-2.4
							c0.2-1.5,0.4-2.9,0.4-4.4c0.2-2.6,0.4-5.5,0.4-8.6c0.2-2,0.4-3.7,0.4-5.7c0.2-1.8,0.4-3.5,0.7-5.1
							C616.4,612.1,616.4,611,616.6,609.9z M642.1,554.7c3.5,0.4,7.3,0.7,11,1.1c1.5,0.4,2.9,0.9,4.4,1.1c3.1,0.9,6.2,1.8,9.2,2.9
							c3.7,1.8,7.9,4.8,10.1,8.6c2,3.1,3.3,6.2,4.4,9.9c0.7,2.2,1.3,5.1,0.7,7.9c-1.1,4.8-4,7.9-8.1,9.7c0,0-0.2,0.2-0.2,0.4
							c-0.2,0-0.4,0.2-0.4,0.4l-0.2-2c0.2,0,0.7,0.2,0.9,0.4c0,0,0,0,0.2,0c0.4-0.4,1.1-0.7,1.5-1.1c0.7-0.2,1.1-0.7,1.5-1.1
							c3.3-2.2,5.1-6.8,4-10.6c-0.4-2.9-1.3-6.2-2.4-8.8c-1.5-4.4-4.2-8.1-8.4-10.8c-2.9-1.5-5.5-2.9-8.6-3.5
							c-3.7-1.5-7.5-2.4-11.4-2.6c-0.4,0-0.9-0.2-1.5-0.2c-1.3-0.2-2.6-0.4-4-0.4c-0.7,0-1.3,0-2,0c-1.8,0-3.5-0.2-5.5,0.2
							c-3.1,0.4-5.3,2.6-7,5.3c-0.7,0.7-1.3,1.8-1.8,2.9l0.2-0.4c0,0.4-4,0.2-0.9,0.2l0.7,0.2c0.2,0.2-0.4,0.9-0.2-0.2
							c0.7-1.8,1.5-3.5,2.9-4.8C634.2,556,637.9,554.2,642.1,554.7z M637.9,571.8l0.7,0.9h-0.2c-0.2,0-0.4,0-0.4,0l0.9-0.7
							c-0.9,1.8-2.4,2.6-3.7,3.5c-0.4,0.2-0.7,0.4-1.1,0.9l-0.7,0.2c-0.2,0,0.9-1.1,0.9-0.9l-1.1-1.1h0.2c1.8-0.4,2.9-1.3,4.2-2.9
							c0.2-0.2,0.4-0.4,0.7-0.7l-0.2,0.9C637.9,571.8,637.9,571.8,637.9,571.8z M658.4,588.1v1.3c0-0.2-0.2-0.4-0.4-0.7
							c-0.2-0.4-0.7-0.9-0.9-1.8c-0.9-2.9-2.4-4-5.3-4.4c-0.9-0.2-1.8-0.2-2.9-0.4c-1.5-0.2-3.3-0.4-5.1-1.1c-0.7,0-1.5-0.2-2.4-0.4
							c-1.5-0.2-3.1-0.7-5.1-0.9c-1.1-0.9,0.4-0.2,0.4-0.2l0.2-0.7c0-0.2-1.5-0.9-0.2-0.4c0.9,0.4,1.5,0.9,2.6,1.1
							c1.1,0.2,2,0.4,3.1,0.7c3.1,0.4,6.2,1.1,9.2,1.5c3.1,0.4,4.8,2,5.7,4.6c0.7,0.9,1.1,1.5,1.5,2.2c0,0-0.2,0-0.4-0.2
							c-0.2,0.2-0.4,0.4-0.4,0.2C658.2,588.5,658.2,588.3,658.4,588.1z M642.8,562.6l1.3-1.3v0.2l-1.1,1.3c-0.7,0-1.3,0-2,0
							c-0.2,0,0,0,0.2-0.2l0.2-0.9c0,0,0-0.2,0,0c0,0,0.2,0,0.2,0.2c1.5,2.4,2,5.3,1.8,7.7c-0.2,3.1-1.8,5.3-3.3,7
							c0,0.4-0.4,1.1-1.1,1.3l-0.4-2.4c0.7,0,0.9,0,1.1,0c0.9,0.2,1.5,0.4,2.4,0.7c3.7,0.9,7.9,1.8,11.7,2.2
							c3.1,0.7,5.5,2.4,6.8,5.3c0.2,0.4,0.4,0.7,0.4,1.1c0.4-0.2,0.7-0.7,0.9-0.9c4-3.3,8.1-4.8,13.6-1.8c1.3,2.4-1.3,0,0,0
							l-1.3,1.1c0,0,0-0.2,0-0.4c0,0,0,0,0.2,0c-0.7-2-1.3-4.6-2-6.8c-2-4.4-5.1-7.3-9.9-9c-2.4-1.1-5.5-2.4-7.9-2.9
							C650.7,563.5,646.7,563,642.8,562.6z M650.7,676.1c0,2.2,0,4.6,0.9,6.4c0.2,0.2,0.4,0.9,0.4,1.3l-1.3-1.3
							c0.2,0-0.9,0.9-0.9,0.4c0,0,0.2-0.2,0.2-0.4c0.2-0.2,0.2-0.7,0.4-0.7c0-0.2,0-0.2,0,0c0-0.4-0.2-0.9-0.4-1.5
							c0-0.4-0.2-1.3-0.2-2c0-1.1,0-2.2,0.2-3.3c0-2.2,0.2-4.4,0.4-6.6c0.2-1.3,0.2-2.4,0.2-3.5c0-1.3,0.2-2.4,0.2-3.5
							c0.2-0.9,0.2-1.5,0.2-2.4c0.2-0.7,0.2-1.5,0.2-2.4c0.4-1.1,0.4-2.4,0.7-3.7c0.2-1.3,0.4-2.9,0.7-4.2c0.2-0.7,0.2-1.3,0.4-2
							c0.2-1.8,0.4-3.7,1.3-5.7c0.2,0,0.2-0.2,0.2-0.4c-0.2-0.2-0.2-0.7-0.2-0.9l2,0.9c0,0-0.4,0.2-0.4,0.4c-0.2,0,0.7-1.8,0,0
							c-1.1,1.1-1.3,2.9-1.5,4.6c-0.2,2.2-0.7,4-0.9,5.9c-0.2,1.3-0.4,2.6-0.7,4.2c-0.7,3.1-0.9,5.9-1.3,8.8c0,2.2-0.2,4.4-0.4,6.6
							C650.9,672.8,650.9,674.3,650.7,676.1z M657.9,680.3v1.5c-0.2,0-0.2,0-0.2,0c-0.2,0.2-0.4,0.4-0.7,0.7c-1.1,0.9-2,1.8-2.4,2.9
							c0,0.2,0,0.4,0,0.7l-1.3-1.3c1.1,0-1.5,2.4,0,0c0.4-0.2,0.7-0.7,1.1-1.1c0.9-0.9,1.8-1.8,2.6-2.6
							C657.3,680.7,657.5,680.5,657.9,680.3z M654.4,675.2l-1.3-1.3h0.2l1.3,1.1c0,1.3,0,2.9,0,4.2s-2.2,0-1.1-0.9
							c1.5-1.1,3.7-2,6.2-2c3.3,0,6.6,0.7,8.8,3.3c0-0.2-0.4-0.2,0-0.2l-0.9,0.4c0-0.2-0.2,0-0.2,0.2c0.2-2,0.4-4,0.7-5.7
							c0.2-2.2,0.4-4.2,0.7-6.4c0.4-2,0.4-4,0.7-5.9c0.2-1.3,0.2-2.9,0.4-4.2c0.2-3.3,0.9-7,1.3-10.1c0-0.2,0-0.4,0-0.9
							c0.2,0.2,0.4,0.2,0.4,0.4c-0.2,0-0.2,0.2-0.4,0.2c-3.7,1.8-7.3,1.5-10.8-0.2c-0.9-0.7-1.5-1.1-2.2-1.8
							c-0.2-0.2-0.7-0.7-0.9-0.9c-0.7-0.4,0.4,0,0.7-0.4c-0.2,1.3-0.2,2.4-0.4,3.3c0,0.7-0.2,1.1-0.2,1.8c-0.4,3.5-1.1,7.3-1.5,11
							C655.3,665.1,654.9,669.9,654.4,675.2z M676.9,730.2l-0.7,2.2c-0.2-0.2-0.4-0.2-0.7-0.2c-0.2-0.2-0.7-0.4-0.7-0.4
							c-0.4-0.4-1.1-0.7-1.8-1.1c-0.4-0.2-0.9-0.4-1.5-0.9c-5.9-4.2-10.1-10.3-12.3-16.9c-1.8-4.6-3.3-9.7-3.5-14.5
							c-0.4-3.7-0.9-7.7,0.2-11.7c0.9-1.8,0.4,0.7,0.2-0.2L656,686l2.2,0.9c-0.2,0-0.7,0.4-1.1,0.4c0,0,0,0,0.2,0
							c-1.1,1.1-1.3,2.9-1.3,4.6c0.2,4.6,1.1,8.8,1.8,13.2c0.7,4.4,2,8.1,4.2,11.9c2.4,4.6,5.3,8.6,9.5,11.7c1.1,0.9,2.6,1.8,4,1.8
							c-0.2,0-0.2,0,0,0C675.5,730.4,676,730.2,676.9,730.2z M661.5,643.5c0-0.2,0-0.2,0-0.2v0.4c-1.1-2-2.4-4-4-5.9l0.9,0.7h-0.2
							l1.3-1.3c0,0.2,0,0.4-0.2,0.4c0.2,0.7,0.4,1.1,0.7,1.5c0.4,0.9,0.7,1.8,1.1,2.2c0.2,0.4,0.7,0.7,1.1,1.1
							c0.2,0,0.4,0.2,0.7,0.2l-0.7-0.2C662.3,642.4,661.5,643.8,661.5,643.5z M662.3,696.1c-2.6,0-2.6,0-2.2,2.4
							c0.4,4.2,1.3,7.9,2.6,11.7c1.3,4.6,3.7,8.1,6.6,12.1c0,0,0.2,0.2,0.7,0.4l0.2-0.2l0.4-0.7c0.4-0.2,0.7-0.4,0.9-0.9
							c0,0,0.2,0,0.2-0.2c-3.3-3.5-5.3-7.5-6.8-11.9c-0.7-2.6-1.1-5.3-1.8-7.9C663,699.4,662.8,697.7,662.3,696.1z M661.7,635.2
							c0-0.2,0.2,0.4,0.4,1.1v0.4c0,0.2-0.9-1.1-0.4-0.9c0.2,0,0.7,0.4,0.9,0.4l-2.2,0.9c0-0.2,0.2-0.7,0.2-0.9c0.2-0.2,0,0,0,0.2
							c0-1.8,0.2-3.7,0.7-5.5c0.2-3.3,0.7-7,1.1-10.3c0-0.4,0.2-0.9,0.2-1.5c0-1.1,0.2-2.2,0.4-3.5c0.2-1.5,0.2-3.1,0.4-4.4
							c0.2-1.5,0.2-3.1,0.4-4.6c0-1.8,0-3.5,0-5.3c0-3.3-0.2-6.6,0.9-9.9v0.4c0-0.2,0,0,0.2,0.2h1.5c-0.2,0-0.4,0.2-0.7,0.4
							c-0.9,1.1-1.1,2-1.3,3.5c0,1.1,0,2.4,0,3.7c0.2,3.3,0.2,6.8-0.2,9.9c-0.2,1.5-0.4,3.3-0.4,4.8c-0.2,1.8-0.4,3.5-0.7,5.1
							c-0.2,3.1-0.4,5.9-0.9,8.8c0,0.9-0.2,1.5-0.2,2.2c-0.2,0.7-0.2,1.3-0.2,2.2C661.7,633.4,661.7,634.3,661.7,635.2z
							 M662.8,590.7l-0.9-0.4c0.2,0,0.2,0,0.2,0L661,591c1.3-1.8,2.9-3.7,4-5.3l-0.2,0.9c0-0.2,0.4,0.2,0.9,0.4v0.2h-0.2
							c-1.3,0.7-2,2.4-2.6,4.4v-0.4C662.8,591,662.8,590.7,662.8,590.7z M678.4,646c0-4.4-1.1-5.5-3.3-7.9c-1.1-1.3-3.1-2.2-4.8-3.3
							c0.2,0.2,0.2,0.2,0,0.4l0.7-1.1c0-0.2,0,0,0,0.2c0,0,0,0,0.2,0c0.2,0,0.9,0.4,1.1,0.7l-0.2-0.2c6.8,4.2,7.5,9.2,7,15
							c-0.2,3.3-0.7,6.8-1.5,10.1c-0.2,3.1-0.4,6.4-0.9,9.5c-0.2,2-0.4,4-0.7,5.7c-0.2,1.8-0.4,3.5-0.7,5.3
							c-0.2,3.3-2.2,5.9-4.4,7.5c-1.1,0.9-2,1.5-3.1,2.2c-0.7,0.4-1.3,0.9-2,1.3c-0.2,0.2-0.7,0.2-0.9,0.2c-0.9,0.4-0.7-2.2,0.2-1.1
							h0.2c0.7-0.2,1.3-0.7,2.2-1.1c0.2,0,0.4-0.2,0.7-0.2c3.1-2.2,5.3-4,5.9-7.3c0.2-0.7,0.2-1.1,0.2-1.8c0-0.4,0-1.1,0-1.8
							c0.2-1.3,0.4-2.4,0.7-3.5c0.2-2.2,0.7-4.2,0.9-6.4c0.4-3.5,0.7-6.8,0.9-9.9c0-1.8,0.2-3.3,0.4-5.1
							C677.5,650.8,678,648.4,678.4,646z M670.9,604.6l1.1,1.3c0,0,0,0-0.2,0l-1.3-1.3c0-0.4,0.2-0.9,0.2-1.3c0-1.1,0-2,0-2.6
							c-0.2-0.2-0.2-0.2-0.7,0c-0.9,0.2-1.8,0.2-2.4-0.2c0.2,0.2,0.9-0.2,0.9,0c-0.2,1.5-0.2,2.9-0.4,4.4c0,1.3,0,2.9-0.2,4.2
							c0,0.9,0,1.3,0,2c0,1.5-0.2,3.3-0.4,4.8c0,0.9-0.2,1.8-0.2,2.6c-0.4,3.3-0.9,6.8-1.3,10.1c0,0,0,0,0,0.2c0.4,0,0.9,0,1.3,0
							c0.4,0,0.9,0.2,1.3,0.2c0,0-0.4,0-0.4,0.2l0.2-0.4c0.2-0.9,0.4-1.8,0.4-3.1c0-1.5,0.2-3.3,0.4-4.8c0.2-1.8,0.7-3.3,0.7-5.1
							c0.2-1.8,0.2-3.5,0.4-5.3C670.5,608.6,670.7,606.6,670.9,604.6z M669.6,691.3l2,0.9c-0.4,0.4-0.7,0.7-1.1,0.9
							c-0.2,0.2-0.2,0.2-0.2-0.2c0.2,4.2,0.9,7.7,2,11.4c1.1,4.6,2.9,8.4,6.2,11.7c0.2,0.2,0.2,0.2,0.2,0.2c-0.4,0.4,0.4,1.1,0,0.7
							c-0.2,0-0.4-0.2-0.7-0.4c-3.3-3.3-5.1-7-6.4-11.4c-0.9-4-2-7.7-1.8-12.3c0,0.2,0,0.2,0,0C669.8,692.4,669.6,691.9,669.6,691.3
							z M678.2,602.8h1.1H678.2c0-1.8,0-3.5,0-4.8c0,0,0.9,0.4,0.7,0.4c0,0,0.7-1.5,0.4-0.4c-0.2,0.4-0.2,0.7-0.2,1.1
							c0,0.9,0,1.8,0,2.6c0.2,1.8,0.2,3.3,0,5.1c-0.2,4.4-0.7,8.8-1.5,13.2c0,0.4,0,1.1-0.2,1.8c-0.4,2.9-0.7,5.5-0.9,8.6
							c-0.2,1.1-0.2,1.8,0,2.2c0,0,0,0,0,0.2c0.2,0,0.2,0.2,0.4,0.2h-1.8c0-0.2,0-0.2,0-0.2l0.2-0.4c0.7-1.8,0.9-3.7,1.1-6.2
							c0.4-4,0.9-7.9,1.1-12.5C678,610.1,678.2,606.6,678.2,602.8z M678.2,733.7h0.4c0.9,0.2-1.5,0.7,0.2,0c1.1-0.2,1.8-0.7,2.9-1.3
							c0.2-0.2,0.4-0.4,0.7-0.9l1.1,1.8c-0.7,0-1.3,0-1.8,0l1.3-1.3v0.4l-0.9,1.3c-0.9,0.2-1.5,0.2-2.2,0.4
							c-0.7,0.2-1.5,0.4-2.2,0.7c-0.2,0.2-0.7,0.4-0.9,0.7c-0.2,0-0.2,0,0,0l-0.9-2c0,0,0.4,0,0.7,0c0.4,0.2,0.7,0.2,0.7,0.2
							C677.5,733.7,678,733.7,678.2,733.7z M687.2,717c0,0-0.4,0-1.1,0.2c-0.2,0-0.2,0-0.4,0.2c-2.6,1.3-5.3,2.6-7.5,4.4H678
							c-0.2,0.2,0.2,0,0.2-0.2l-0.7,1.1c-0.9,0.2,0-1.5,0.4-1.1c0,0.2,0.2,0.7,0.2,0.9l-1.3-1.1h0.7c0.2,0-0.9,0.4-0.7,0.2l0.2-0.2
							c1.1-0.7,2.2-1.5,3.3-2.4c0.2-0.4,0.7-0.7,1.1-1.1c2.2-1.3,4.8-2.2,7.3-2c0.7,0.2,1.5,0.2,2.2,0.2c1.5,0.2,3.3,0.4,4.8,0.7
							c0.4,0,0.9,0,1.3,0c1.8-0.4,2.9-1.3,3.5-3.1c1.5-2.6,3.7-4.4,6.4-5.3c1.8-0.4,3.5-0.9,5.1-1.3c0.4,0,0.9-0.2,1.5-0.2
							c0.2-0.2,0.4-0.2,0.4-0.2c0.2-0.2,0.2-0.2,0,0v1.8c0-0.2-0.4-0.7-0.7-0.9c-0.4,0-0.7,0-0.9,0c-0.7,0.2-1.3,0.2-1.8,0.4
							c-1.5,0.4-2.9,0.9-4.2,1.5c-2,0.9-3.5,2-4.6,3.7c-0.4,1.3-1.5,2.6-2.9,3.7c-0.2,0.4-0.9,0.9-1.5,0.9c-1.3,0-2.6,0-4-0.2
							C691.8,717.5,689.6,717.2,687.2,717z M696.7,741.9c2.4,0,4.6-0.2,6.8-0.4c5.1-0.7,9.2-3.3,12.8-6.6c2.9-3.1,5.3-6.6,6.8-10.6
							c0.7-1.5,1.1-3.1,1.3-4.4c0-0.2,0-0.2-0.2-0.7V719h2c0,0.2-0.4,0.7-0.7,0.9c0,0,0,0,0-0.2c-0.7,3.5-2,6.4-3.5,9
							c-4,6.6-9.2,11.4-17.2,13.4c-2.2,0.9-5.1,1.1-7.7,1.1c-2.9,0-5.3-0.2-7.9-0.9c-3.1-0.4-7-1.3-9.9-3.1c0,0-0.2,0-0.7,0
							c-1.8-0.7,0.2-0.2,0,0h-0.4l0.9-2c0,0.2,0.2,0.4,0.4,0.7c0.4,0.2,0.9,0.7,1.3,0.9c0.4,0.4,0.9,0.9,1.3,1.1
							C687,741.2,691.8,741.9,696.7,741.9z M687.4,724.1l-0.4-0.2c0.4,0.2,0.9-1.1,0.9-0.7c0.9,2,1.1,4.2,0.9,6.6
							c-0.2,2.4-1.3,5.7-4,7.5c-0.2,0-0.2,0-0.4,0.2c-0.4,0.2-0.9,0.4-1.5,0.7v-2.2c0.7,0.2,1.3,0.4,1.8,0.9c0.2,0,0.2,0,0.4,0.2
							l-0.7-0.2c0.2,0,0.2,0,0.2,0h0.4c5.5,1.3,10.8,2,16.1,1.3c2.9-0.2,5.3-0.9,7.5-2.2c5.7-3.3,9.2-8.1,11.9-14.1
							c0-0.2,0-0.4,0.2-0.4c0-0.2-0.2,0-0.2,0.2l2.2,0.9c-0.2,0.2-0.9,0.4-1.3,0.4c0,0,1.3-0.7,0.2,0c-5.3,1.5-9.5,0-12.8-4.2
							c-0.2-0.2-0.4-0.7-0.7-0.9c-0.4-0.4-0.7-0.7-1.1-1.1c0.2,0.4,1.1-0.7,1.1-0.2c-0.2,0.2-0.4,0.4-0.4,0.9
							c-0.4,0.4-0.7,1.1-1.1,1.8c-2.4,4.2-6.6,5.9-11.2,5.5c-1.5,0-3.1-0.2-4.8-0.4C689.6,724.3,688.5,724.1,687.4,724.1z
							 M719.1,612.3c-0.2,0.2-0.4,0.2-0.9,0.4c-0.2,0-0.7,0.2-0.9,0.4c-4.2,1.3-6.8,3.7-8.4,8.1c-0.4,1.8-0.4,3.5-0.4,5.3
							c-0.2,5.7-0.4,11.7-0.4,17.4c0,0.4,0,1.1-0.2,1.8c0,0.7,0,1.3,0,2c-0.2,0.4-0.2,1.1-0.2,1.5c0,3.7,0.2,7,0.4,10.8
							c0,0.4,0,0.9,0.2,1.1c0.7,2.9,2.4,4.4,5.1,6.4c0.4,0.4,1.3,0.9,2.2,1.3c0.7,0.2,1.3,0.4,1.8,0.9c0.7,0.7-0.2-0.2-0.4,0.4v0.2
							c0-0.2,0,0.4-0.2,0.2c0-0.2,0-0.4-0.2-0.4c-0.2-0.2-0.7-0.2-0.9-0.4l-0.2-0.2c-0.7-0.7-1.5-1.1-2.6-1.8
							c-0.4-0.2-1.1-0.7-1.8-1.1c-1.8-1.8-3.3-3.7-3.5-5.9c-0.7-2.4-0.7-4.8-0.7-7.3c0-4.4,0.2-9,0.4-13.4c0-2.2,0.2-4.4,0.2-6.6
							c0-1.3,0-2.9,0.2-4.2c0-1.5,0-3.1,0-4.6c0.2-0.9,0.4-2.2,0.9-3.5c0.7-3.5,3.3-6.2,6.6-7.7c0.9-0.7,2.2-1.1,3.1-1.5
							c0.4,0,0.7-0.2,0.9-0.2l0.2,0.9C719.3,612.5,719.3,612.5,719.1,612.3z M712.1,673h2.4c0,2.2-2.2,2-2.4,0.4
							c-0.2-0.4-0.4-0.9-0.7-1.3l2,0.4c-0.2,0-0.4,0.2-0.7,0.4c-0.2,0.2-0.4,0.4-0.7,0.7l-0.9-0.7c0,0.2,0,0.2,0,0.4h1.1
							c0,3.7-0.2,7.7-0.4,11.4c0,2-0.2,4-0.2,5.9c-0.4,4.4-1.1,8.6-2,13c0,0,0,0,0,0.2c0,0,0.2,0.7,0.2,0.9l-1.3-1.3
							c0.4,0,0.4,0,0.2,0.2c0-0.2,0.2-0.4,0.4-0.9c0-0.7,0.2-1.3,0.2-1.8c0-0.9,0-1.5,0.2-2.4c0.9-3.7,1.5-7.9,1.5-11.7
							c0-0.7,0-1.1,0-1.8C711.4,681.4,711.6,677.6,712.1,673z M729,632.8c0-2.2,0-4.8,0-7.3c0-0.4,0-1.1,0-1.8l1.5,1.3
							c-0.7,0.2-0.9,0.4-1.5,0.7c-0.7,0.2-1.1,0.4-1.5,0.4c-2,0.7-4,1.5-6.2,0.9c-2.6-0.7-4.6-1.3-6.2-2.6c-2.6-1.8,2-3.7,1.1-0.7
							c-0.2,1.3-0.4,2.9-0.7,4.4c0,1.5-0.2,3.1-0.4,4.2c-0.2,3.7-0.2,6.8-0.2,10.6c-0.2,4.8-0.4,9.2,0.2,13.9c0,0.9,0,1.5,0.2,2.2
							l-1.8-0.7c0.2-0.2,0.4-0.4,0.7-0.4c0.7-0.4,0.9-0.4,1.1-0.9c3.1-1.8,6.8-2.2,10.3-1.1c0.9,0.4,1.8,1.1,2.2,1.5
							c0.7,0.4,1.1,0.9,1.5,0.9l-1.3,1.1c0-0.4,0-0.7,0-1.1c0.2-1.3,0.4-2.6,0.4-4.2c0.2-5.3,0.4-10.3,0.4-15.8
							C729,636.5,729,634.7,729,632.8z M714.9,608.8l-1.1-1.3h0.2l1.1,1.1c0,0.2,0,0.4,0,0.4s0.2,0.2,0.2,0.7l-1.1-0.9h0.2
							c0-1.5,0.2-2.6,0.4-4c0-0.4,0.2-1.1,0.2-1.8c0.7-5.1,1.8-9.9,3.3-15c1.3-4.8,3.7-9.9,6.8-14.5c0.2-0.7,0.4-1.1,0.4-1.5
							l0.2,0.9c0-0.2,0.2,0,0.4,0l0.9-0.4c-0.2,0.4-0.4,0.7-0.7,0.9c-2.9,3.3-4.8,7.7-6.6,12.3c-1.5,4.4-2.4,8.6-3.3,13.2
							c-0.2,1.5-0.7,3.3-0.9,4.8C715.6,605.5,715.1,607,714.9,608.8z M722.4,714.8l2.2,0.9c-0.4,0.4-1.1,0.7-1.3,0.7
							c-0.9,0.4-1.5,0.9-2.4,1.3c-0.4,0.4-0.9,0.7-1.1,0.9c-0.4,0-0.9,0.2-1.1,0.4c-0.2,0-0.4,0.2-0.7,0.2l-0.7,0.2
							c-0.2,0-0.4-2-0.2-2l1.3,1.1c0,0,0.2,0.2,0.2,0.4l-1.1-0.7c0.2,0-0.2,0-0.2,0.2l0.7-0.7c1.8-0.7,3.3-1.3,4.4-2.4
							c0-0.2,0-0.2,0-0.2C722.4,715,722.4,715,722.4,714.8z M721.3,675.2v-1.1V675.2c-0.2,0-0.9,0-1.1,0c-0.4,0-0.4,0-0.4,0.9
							c0,2-0.2,4-0.2,5.9c0,2.2,0,4.2-0.2,6.2c0,0.2,0,0.4,0,0.7c-0.2,1.3-0.2,2.4-0.4,3.7c-0.2,1.1-0.4,2.2-0.4,3.3
							c0,2-0.4,3.7-0.7,5.3c-0.2,1.8-0.2,1.5,1.1,1.8c1.3,0.7,0,0,0,0c0.2,0,0.4,0.2,0.7,0.2c0.7,0,0.7,0,0.7-0.2
							c0.7-3.7,1.1-7.7,1.3-11.4c0.2-3.7,0.4-7,0.4-11c0-0.2,0-0.7,0.2-1.1c0-0.2,0-0.4,0-0.4c0-0.7,0.2-1.5,0.2-2.2s0-1.1,0-1.8
							c0,0.2,0.4,0.2,0.2,0.2C722.2,675.2,721.7,675.2,721.3,675.2z M726.8,673.9v0.2c0,3.5-0.2,7.5-0.4,11.2
							c-0.2,1.3-0.2,2.6-0.2,4c0,1.5-0.2,2.9-0.2,4.2c-0.4,2.2-0.7,4.2-0.9,5.9c-0.4,2.4-0.7,4.6-1.1,6.8c-0.4,2.9-1.1,5.5-3.3,7.7
							v0.2c-0.2,0-0.2,0-0.2,0.2l-2-0.9c0.4-0.4,0.9-0.4,1.3-0.4s-0.4,0.2-0.4,0.2l0.2-0.2c1.8-1.1,2.4-2.4,2.9-4.2
							c1.1-4.2,1.5-8.4,2-12.1c0.2-1.1,0.2-2,0.2-2.9c0.2-1.1,0.2-2,0.2-3.1c0.2-2.6,0.7-5.3,0.9-7.9c0.2-0.9,0.2-1.8,0.4-2.6
							c0-1.3,0-2.9,0-4.2c0.2-1.3,0.2-2.6,0.2-3.7c0.2-2.2,0-3.5-0.9-5.3c-0.4-1.5,0.4,0.4,0,0c-0.2-0.4-0.7-0.9-0.7-1.3l2.2,0.9
							c-0.2,0.2-0.2,0.2-0.2,0.2C726.8,669.3,726.8,671.7,726.8,673.9z M725.5,607.7c0-0.2,0-0.2,0-0.2c0.4-1.5,0.7-3.3,0.9-5.1
							c0.2-1.1,0.2-2,0.4-3.1c1.1-5.7,2.9-11.4,5.1-16.5c0.7-0.7,1.1-1.3,1.1-1.1v-0.4c0,0,0,0-0.7-0.2c-0.2-0.2-0.4-0.4-0.7-0.4
							c-0.2-0.2-0.4-0.2-0.7-0.4c0,0,1.5,0.4,0,0.2c0-0.2,0-0.2-0.2,0c-1.5,2.6-3.1,5.5-4,8.8c-2.4,5.9-3.1,11.9-4.2,18.3l0.2,0.2
							l-0.9-0.2C723.1,607.5,724.2,607.5,725.5,607.7z M724.6,660.9c-1.1,0.4,0.2-1.3,0.2-0.7c0-0.2,0-0.4,0-0.2l0.2,0.2
							c0.7,0.4,1.1,1.1,1.5,1.5c0.7,0.4,1.3,1.1,2.2,1.8c0.2,0.7,0.2,0.4,0.7,0.7c1.3,2.4-0.4,0.2-0.2,0.2l-1.1,1.1v-0.2
							c-0.7-1.5-1.3-2.4-2.4-3.5C725.5,661.6,725,661.1,724.6,660.9z M729.9,617.4l-0.4,0.9c0,0,0.4,0.7,0.2,0.7
							c-0.2-0.2-0.4-0.7-0.4-1.1l1.3,1.1c0.2,0,1.5-2,0.4,0c-1.5,1.3-3.3,2.6-4.8,4c-0.2-0.4-0.7-0.9,0-0.9l-0.9,0.2
							c1.8-1.3,3.1-3.1,4.4-4.4c0-0.2,0-0.2,0-0.2C729.9,617.4,729.9,617.4,729.9,617.4z M727.2,617.4l-1.5-0.2
							c0.4-0.2,0.7-0.2,0.9-0.4c0.7-1.3,1.3-2.4,1.5-3.7c0.4-2,0.7-3.7,0.9-5.7c0.2-1.1,0.4-2.2,0.4-3.1c0.7-5.5,2-10.6,4-15.4
							c1.1-2.9,2.4-5.9,5.1-8.6c0.9-0.7,1.1-1.3,1.8-2.4c-0.2,0.2,0-0.2,0-0.7l1.8,1.1c-0.2,0-0.4,0.2-0.7,0.2
							c-3.5,2.9-5.7,6.4-7.3,10.3c-2.6,6.6-3.5,13.6-4.6,20.9c-0.2,2.4-0.2,5.3-2,7.7c0,0.2-0.2,0.2-0.2,0.4c0,0,0,0,0-0.2
							C727.2,617.8,727.2,617.6,727.2,617.4z M767.9,546.1c4.4-0.2,9.2,0.4,13.4,2c3.7,1.1,5.9,4.2,7.5,7.5c0.4,1.5,0.7,2.9,0.7,4.2
							c0,0.7,0,1.3,0.2,2c0-0.2,0-0.2,0,0l0.2,0.2h-1.8c0.2-0.2,0.4-0.2,0.4-0.4c0.9-0.4-0.2,1.8,0,0c1.1-1.3,0.9-2.4,0-4.4
							c-0.9-4.4-3.3-6.8-7.5-8.1c-2.6-1.1-6.2-1.5-9-1.8c-5.3-0.4-10.3-0.2-15.4,0.9c-6.8,1.8-12.8,4.4-18.3,8.4
							c-2.9,2.2-5.5,3.7-6.6,6.8c-1.3,3.7-0.9,7,0.2,10.3c0.2,0.7,0-0.2-0.4,0.2c-0.4,0.4-0.2,0-0.2-0.7c0,0.2,0,0.4,0,0.2
							c0,0,0-0.2-0.2-0.4c-1.8-4.6-1.1-10.8,3.1-14.5c3.5-3.3,7.7-5.5,11.9-7.7C753.2,547.6,760.2,545.9,767.9,546.1z M732.7,630.6
							l1.1-1.1h0.2l-1.1,1.1c0-1.8,0-4-0.2-5.7c0-1.1-0.2-1.8-0.7-2.6l-0.2-0.4c0,0.2,0,0.2,0,0l-0.2-0.2l1.8-0.2c0,0,0,0.2-0.2,0.2
							c0,0.4,0,0.4,0,0.4c0,0.2,0,0.7,0.2,1.3c0,0.4,0.2,1.1,0.2,1.8c0,2.4,0,4.6,0,6.8c-0.2,3.5-0.2,7.3-0.2,11
							c0,3.7-0.2,7.5-0.2,11c0,1.5-0.2,2.9-0.4,4.4c-0.2,0.7-0.2,1.3-0.4,2c0,0.2,0,0.9-0.2,1.3c0,0.2,0,0.2,0,0.2h-1.8
							c0.4-0.4,0.9-0.9,0.9-1.1c0.2-1.8,0.4-3.3,0.7-4.8c0.2-1.3,0.2-2.9,0.7-4.4C732.7,644.6,732.7,637.6,732.7,630.6z
							 M767.9,553.8c-1.3,0.2-2.9,0.4-4.2,0.4c-1.5,0.2-2.9,0.2-4.2,0.4c-5.1,1.1-9.7,2.6-13.9,5.3c-0.9,0.4-1.5,0.9-2.4,1.5
							c-1.1,0.7-2.2,1.5-3.5,2.4l0.2-0.2c0,0-0.2,0.4-0.4,0.7l-0.9-2c0.4,0,0.9,0.2,1.1,0.4c4.6,0.7,7,4,8.6,8.1
							c0.2,1.1,0.2,2.6,0.2,4c0.4-1.8-2,0.2-1.1-0.7c2.2-0.9,4.6-2.2,6.6-3.1c4.8-2.6,9.9-3.3,15-3.7c1.5,0,3.1,0.2,4.4,0.4
							c0.7,0,1.1,0,2,0l-1.1,1.8c-0.2-0.2-0.4-0.9-0.4-1.3c0-0.2,0-0.7-0.2-0.9c-1.8-5.1-0.2-11.2,4.6-13.4l0.4-0.2
							c-0.7,0-1.1,0.7-0.4,1.3c0,0.4,0.7,0.4,0,0.4C774.5,554.2,771.5,554,767.9,553.8z M744.2,573.6l1.1,1.5c-0.2,0-0.2,0-0.2,0
							l-1.3-1.3c0-0.2,0-0.2,0-0.4c0,0,0-0.2-0.2-0.2c0,0-0.2-0.2-0.4-0.2h1.8c-0.2,1.1-0.2,2-0.2,2.9c-0.2,0.9-0.2,2-0.4,2.9
							c0-0.2,0-0.4,0-0.2c0.2,0,0.4,0.7,0.4,0.9l-2.2-0.9c0.2-0.2,0.4-0.4,0.4-0.4c0.2,0-0.2,0.9-0.2,0.9v-0.4
							C743.1,576.7,743.5,574.9,744.2,573.6z M774.3,571.6c0.4,0,0.7,0,0.9-0.2c0.4,0,0.7,0,1.1-0.2v1.8c0-0.2,0-0.2,0.2-0.2
							c-0.9,0-1.8-0.2-2.4-0.2c-2-0.2-3.7-0.4-5.5-0.2c-3.1,0.2-6.4,0.4-9,1.5c-4,1.5-7.7,3.3-11.4,5.5l-0.7-1.1
							c-0.2,0.2-0.2,0.2-0.4,0.2h1.1c0,0.4,0,0.7,0,0.9l-0.2-0.9c-0.2,0-0.4-0.2-0.4-0.2H747c0.4,0,0.7,0,1.1-0.2
							c0.4,0,1.1-0.2,1.8-0.4c0.9-0.4,2-1.1,2.9-1.5c1.5-0.9,3.1-2,4.8-2.6c4.4-1.8,9.2-2.4,13.4-2.2
							C772.1,571.2,773.2,571.4,774.3,571.6z M773.9,735.5c-0.2,2.9,1.1,5.1,3.3,7c0.4,0,0.9,0,1.1,0.2l-1.8,1.1
							c0-0.2,0,0.2,0.2,0.4l-0.4-0.4c-0.2-0.4-0.7-0.9-0.9-1.3c-0.7-0.7-1.5-1.8-2-3.3c-0.4-2.2-0.4-4.8-0.2-7.9
							c0.2-3.5,0.9-7.7,1.5-11.7c1.1-4.4,2-9,3.1-13.6c0.2-0.9,0.2-1.8,0.4-2.6c0.4-2,0.9-4.4,2.2-6.6c-0.2,0-0.2,0-0.2-0.2
							c0-0.2,0-0.7,0-0.9l2,0.9c-0.2,0-0.4,0.7-0.7,1.1c-0.2,0.2-0.4,0.7-0.7,0.9c-0.2,0.7-0.7,1.3-0.9,2c-0.2,1.3-0.7,2.4-0.9,3.7
							c-0.2,1.1-0.7,2.4-0.9,3.5c-0.4,2-0.9,4-1.1,5.9c-0.4,2.4-1.1,4.8-1.3,7.3c-0.4,2.4-0.9,4.6-1.1,7
							C774.3,730.2,774.1,732.9,773.9,735.5z M778.1,565.2c0.4,1.1,0.9,2,1.8,3.1c0.2,0.4,0.4,0.9,0.7,1.3l-0.2-0.2
							c-0.2-0.2-0.7-0.2-0.9,0l-0.4,0.9c0-0.2,0-0.2,0-0.4c-0.7-1.5-1.3-3.1-2-4.6l-0.2-0.4c0,0.2,0.4,0.7,0.4,0.7l0.9-0.4
							C778.1,565.2,778.1,565.2,778.1,565.2z M777.8,733.3c0,3.7,0,3.7,1.1,4.8c2.2,2.6,5.3,3.7,8.6,2c2.2-1.1,3.1-1.8,3.3-3.5
							c0.2-3.7,1.1-7.5,1.8-11.4c0.4-1.8,0.7-3.5,1.1-5.3c0.7-4.4,1.5-8.8,2.4-13.2c0.2-0.4,0.2-1.1,0.2-1.5c0.2-0.7,0.2-1.5,0.4-2
							v0.2c0-1.1,1.5,0,1.1,0.2c-0.2,0.2-1.1,0.7-1.5,0.7c-4,1.5-9,1.5-12.1-2.2c-0.7-0.7-0.9-0.9-1.3-1.1c-0.9-0.7,0.4,0.2,0.7-0.4
							c-0.7,3.3-1.3,6.6-2.2,10.1c-0.2,0.9-0.2,1.8-0.4,2.4c-0.7,3.5-1.3,7.5-1.8,11.4C778.5,728,778.1,731.1,777.8,733.3z
							 M780.3,566.3l2,0.9c0.2,0,0.2-0.4,0.2,0l-0.2-0.7c0,0.2,0.2,0.4,0.2,0.4c0.7,1.1,1.1,1.8,2.2,2.4c4,2.4,8.4,5.3,11.7,9.2
							c1.3,1.3,2.4,3.1,2.9,5.1c1.5,4,2.4,8.8,2.9,13c0,0.4,0.2,0.9,0.7,1.5c0.2,0.4,0.4,0.7,0.7,1.1l-1.1,1.3c0-0.2,0-0.7,0-0.7
							c0.2-0.2,0.7,1.8,0,0.2c-0.4-1.8-0.7-3.3-1.1-5.1c-0.4-2.2-0.9-4.4-1.5-6.6c-0.4-2.9-0.9-5.9-2.6-7.7
							c-2.2-2.4-4.4-4.8-6.4-6.8c-1.3-0.9-2.6-1.8-4.2-2.6c-1.8-1.1-3.7-2.2-5.5-3.7C780.5,567.4,780.3,567,780.3,566.3z
							 M783.6,693.9l2.2-0.4c0,0.4-0.2,1.1-0.4,1.3l0.2-0.4c0.2,2.2,0.9,3.3,2.4,4.4c0,0,0,0,0.2,0l-1.3,1.3c0-0.2,0-0.2,0.2-0.2
							c-1.1-1.8-2-3.3-2.9-4.8c-0.4-0.2-0.4-0.4-0.7-0.7C783.6,694.1,783.6,694.1,783.6,693.9z M804,702.1c-0.4-0.9-0.4-1.8-0.7-2.4
							c-1.1-3.3-3.3-5.7-6.2-7.7c0.2,0.4-0.2,0-1.1,0c0.2,0,0.4,0,0.2,0c-0.2,0.2-0.7,0.2-0.9,0.2l0.9-2c0,0,0.4,0.4,0.4,0.7
							c1.3,0.9,2.6,2.2,4,3.5c3.3,3.1,4.6,7,3.7,11.7c-0.9,2.2-1.1,4.6-1.3,6.6c-0.7,2.9-1.1,5.7-1.5,8.6c-1.1,5.1-2,9.5-2.4,14.5
							c-0.9,5.7-4,9.7-8.8,12.3c-1.5,0.7-3.1,1.1-4.4,1.8l-0.4-2c0.2,0.2,0.2,0.2,0.2,0.2c0.7-0.2,1.1-0.4,1.8-0.4
							c1.8-0.4,3.5-0.9,5.1-2.2c2.4-2,4.4-3.7,4.6-7c0.2-1.1,0.4-2.2,0.7-3.3c0.2-1.8,0.7-3.7,1.1-5.7c0-0.7,0.2-1.3,0.2-1.8
							c0.4-2,0.7-3.5,0.9-5.5c1.1-4.2,2-8.4,2.6-12.1C802.9,707.3,803.4,704.7,804,702.1z M787.7,691.3l-1.3-0.2h1.3
							c0,0.2,0,0.4,0,0.7c0.2,0.4,0.4,1.1,0.7,2l-2.4-0.2c0.2-0.2,0.4-0.7,0.4-0.9c0.4-0.7,0.4-0.7,0.2-0.7
							c1.5-6.2,3.1-12.8,4.2-18.9c0.4-2.2,0.9-4.4,1.3-6.6c0.7-3.1,1.3-6.4,2.2-9.5c0.2-1.3,0.4-3.3,1.1-4.8
							c0.7-1.8,1.3-3.1,2.2-4.2c0-0.2,0-0.2,0-0.7l2,0.9c-0.2,0.2-0.7,0.4-1.1,0.7c-0.2,0-0.2,0-0.7,0.2c0.2,0,0.2,0,0,0.2
							c0,0.2-0.2,0.4-0.4,0.7c-0.7,1.1-1.1,1.8-1.3,3.1c-0.4,2.2-0.9,4.4-1.3,6.8c-0.4,2.2-0.9,4.4-1.3,6.8
							c-1.8,7.3-3.3,14.1-5.3,21.3c-0.2,0.2-0.2,0.9-0.2,1.5C788,690,787.7,690.8,787.7,691.3z M807.8,590.7l-0.4,1.1
							c-0.7-5.1-1.5-9.2-3.3-12.8c-1.8-4-4.8-6.4-7.9-9c-0.4-0.7-1.1-1.1-1.5-1.5c-2.2-1.3-2.2-1.3-3.5,0.7c-0.2,0,0,0.2,0.2,0.2
							c2.6,1.8,5.3,4.2,7.9,7c0.2,0.4,0.4,0.7,0.7,1.1c0.7,0.9,1.3,1.8,1.5,2.6c1.8,3.1,2.9,6.4,3.3,9.7c0.2,1.3,0.2,1.3,1.1,1.3
							c0.4-0.2,0.9-0.2,1.3-0.2C807.3,590.7,807.5,590.7,807.8,590.7z M793.2,640.5l-1.1-1.3h0.2l1.1,1.1c0,0.9,0,1.8,0,2.9
							c0-0.2,0-0.2,0.2-0.2l0.2,0.2l-2,0.4c0.2-0.4,0.4-0.7,0.7-0.9c-0.2-0.2-0.2-0.2-0.2-0.4V642c-0.2-0.7-0.2-1.3-0.2-2
							s0.2-1.1,0.2-1.5c0.2-1.1,0.4-2,0.4-2.9c0.7-4.2,1.1-8.4,1.8-12.3c0-1.3,0.2-2.4,0.4-3.7c0.2-1.3,0.7-2.4,0.7-3.7
							c0.2-1.3,0.2-2.4,0.4-3.5c0-2.4,0.2-4.8,1.1-7.5l0.2-0.4c0.2-0.2,0,1.3,0,1.1c-0.2-0.2-0.4-0.7-0.4-1.1l1.1,1.3c0,0,0,0-0.2,0
							l0.7-0.4c-0.2,0.4-0.4,0.7-0.4,1.1c-0.2,0.4-0.4,0.9-0.7,1.3c-0.2,0.9-0.2,1.8-0.2,2.6c0,1.1-0.2,2-0.2,3.1
							c-0.2,2.9-0.7,5.5-1.1,8.1c0,0.7-0.2,1.1-0.2,1.8c-0.2,1.3-0.4,2.6-0.7,4.2c-0.2,1.3-0.2,2.6-0.4,3.7
							c-0.4,1.5-0.4,3.1-0.7,4.6C793.7,637.4,793.5,638.9,793.2,640.5z M801.2,658.7c0-0.2,0-0.2,0-0.2c-0.4-0.2-0.7-0.2-0.9-0.2
							c-0.2,0-0.7-0.2-1.1-0.2c-0.2,0-0.4,0-0.4,0c-0.2,0-0.2,0-0.2,0v0.2c-2.2,8.6-3.7,17.2-5.5,26c-0.2,1.1-0.2,1.1,0.7,1.3
							l-0.2,1.1c0.2,0,0.2,0,0.4,0v-1.3c0.4,0,1.1,0.2,1.3,0.4c0.9,0.2-0.7,0.4-0.4,0.2l-0.2,0.4c0-0.2,0.2-0.2,0.2-0.4
							c0.2-0.2,0.4-0.9,0.7-1.3c1.3-6.2,2.4-12.1,4-18.5c0.2-1.8,0.9-3.7,1.3-5.5C800.9,660,800.9,659.4,801.2,658.7z M795.9,647.3
							h-2.4c0-0.7,0.4-1.1,1.1-1.3c1.3-0.9,2.9-2,4.2-2.9c0.4-0.2,0.7-0.7,1.1-0.9l-0.4,0.4c0.2-0.2,1.3,1.3,1.1,1.3l-0.9-0.4
							c0,0-0.2-0.2-0.2-0.4c-0.7-0.7,1.1,0.2,0.4,0.2l0.7-0.2c-0.4,0.2-0.7,0.4-1.1,0.4c-1.5,1.1-3.1,2-3.7,3.7v-0.7
							c0-0.2,0-0.2,0-0.2C795.7,646.6,795.9,647.3,795.9,647.3z M815.2,592.1c0-0.2,0-0.4,0-0.7c-0.7-3.1-1.3-5.7-2.2-8.6
							c-0.2-0.7-0.4-1.5-0.7-2.2c-0.7-2.6-1.5-5.1-2.9-7.3c-2.2-2.9-4-5.3-6.6-7.5c-3.1-2.4-5.5-4.4-8.6-6.2c0,0-0.2-0.2-0.4-0.2
							c-0.4-0.4,0,0,0.4-0.4c0.2-0.2,0.2-0.2,0.7,0c1.3,2.4-0.7,0-0.2,0l0.7,0.2c4,2.4,7.9,5.7,11,9.2c1.8,2,3.3,4,4.8,6.2
							c1.8,4.4,3.1,8.8,3.7,13.2c0.2,1.3,0.7,2.6,1.1,3.7c0.2,0.2,0.7,0.2,0.7,0.4l-1.8,1.1C815,592.9,815.2,592.5,815.2,592.1z
							 M814.6,611.6l1.3,1.3c-0.2,0-0.2,0-0.2,0l-1.3-1.3c0-0.9,0-2,0-3.1c0.2,0,0.2,0,0.4,0l-0.4,0.4c-4.2,3.1-8.8,2.4-13,0
							c-0.2-0.2-0.2-0.4-0.7-0.4c-0.2-0.2-0.4-0.4-0.9-0.9l0.4,0.2c-0.7-0.2,0.9-1.5,0.9-0.7c-0.4,2.6-0.7,5.1-0.9,7.5
							c-0.2,1.8-0.2,3.3-0.4,5.1c-0.2,1.3-0.4,2.9-0.4,4.2c-0.2,1.1-0.4,2.4-0.7,3.7c-0.2,1.5-0.4,2.9-0.7,4.4
							c-0.7,2.9-0.9,5.5-1.1,8.4l-0.4,0.7c0.2,0,0.2-0.2,0.2,0l-1.3-1.3c0.4,0,0.4,0,0.9,0c0.4-0.2,0.9-0.4,1.3-0.4
							c1.1-0.4,2.4-0.9,4-0.9c4-0.7,7,1.8,9.2,4.4c0.2,0,0.2,0.2,0.2,0.2c0.4,0.4-1.5,1.3-1.5,0.7l0.2-0.7c0-0.2,0.2-0.4,0.2-0.4
							c0.4-2,0.7-3.7,1.1-5.5c0.9-5.1,1.8-9.9,2.4-14.7c0-1.8,0.2-3.5,0.4-5.5C814.4,615.2,814.6,613.4,814.6,611.6z M799.2,602.2
							l2-0.9c0,0.2,0,0.4,0,0.4c0.7,0.4,1.3,1.1,2,1.8c0.7,0.7,1.5,1.3,2.2,2c0.2,0.4-1.5,0-0.4-0.2c0.2,0,0.7,0,0.7,0l-1.1,1.8
							c0-0.2-0.2-0.7-0.2-0.9c0-0.2,0-0.2,0,0c-1.1-0.9-2.6-2.2-4.4-3.5C799.6,602.6,799.6,602.4,799.2,602.2z M802.7,689.7
							c0.2,0.2,0.2,0.4,0.4,0.4h-1.8c0.2-0.2,0.4-0.7,0.7-0.9c0.2-1.1,0.4-2.4,0.7-3.5c0.4-1.5,0.7-3.1,1.1-4.6
							c1.5-7.9,3.3-15.6,5.1-23.5c0.2-0.2,0.2-0.4,0.2-0.2c-0.4-0.4,0.4,0.4,0.4,0.9v-0.4c0,0,0,0.4,0,0.9c-0.7,2.6-1.3,5.3-1.8,8.4
							c-0.7,2.4-1.1,4.8-1.8,7.3c-0.7,4.4-1.5,8.6-2.9,12.5c0,0.4,0,0.7-0.2,1.1C802.9,688.4,802.9,689.1,802.7,689.7z M821.4,610.1
							l1.1,1.3c0,0,0,0-0.2,0l-1.1-1.1c0-0.9,0-1.5,0-2.2c0.4-4-1.1-7-3.7-9.5c-1.1-0.9-2.6-1.5-4.4-2.2c-0.4-0.2-1.1-0.4-1.5-0.7
							c-0.2,0-0.4,0.2-0.7,0.4v-1.5c0.2,0.2,0.7,0.4,0.9,0.7c0.4,0.2,0.9,0.2,1.5,0.4c0.9,0.2,1.8,0.4,2.9,1.1
							c3.5,2,5.9,5.5,5.7,10.3c0,1.8,0,3.5,0,5.3c-0.2,2-0.2,3.7-0.2,5.7c0,4-0.7,7.9-1.5,12.1c-0.2,2.2-0.7,4.2-1.1,6.4
							s-0.9,4.6-1.3,7.3c-1.1,6.4-6.8,9.5-11.9,10.3c-0.2,0-0.7,0-0.9,0c-0.4,0,0.4,0,0.4-0.4c0,1.8-1.3-1.1,0.2-0.7
							c0,0,0.2,0.2,0.4,0.2c0.2,0,0.4,0,0.7,0c4.8-1.5,8.8-3.5,9.9-9.2c0.2-1.5,0.7-3.1,0.9-4.4c1.3-5.9,2.4-11.7,2.6-17.8
							C820.7,618,821.2,614.3,821.4,610.1z"/>
					</g>
				</g>
			</g>
			<g>
				<g>
					<g class="st0">
						<path class="st1" d="M821.2,573.6h49.3c50.8,0,82.5,24,82.5,77c0,46.6-27.3,77-79.2,77h-52.6V573.6z M928.8,650.6
							c0-36.5-18.3-57.4-57.9-57.4h-26.4v114.6h27.1C906.8,707.8,928.8,690.8,928.8,650.6z"/>
					</g>
					<g class="st0">
					</g>
				</g>
			</g>
			<g>
				<g>
					<g class="st0">
						<path class="st1" d="M1137.8,747.6c-1.3-0.2-2.9-0.7-3.7,0c-0.4,0.4-0.7,0.4-0.7,0.4c-2.6-0.4-4.6-0.7-7.3-0.7
							c-0.4,0-0.4,0-0.7,0c-2,0.2-3.5,0-5.1-0.4c-1.8-0.4-3.3-1.1-4.8-0.9c-0.4,0-1.3-0.2-2-0.2c-1.8-0.4-3.3-0.4-5.3-0.4
							c-1.8-0.7-3.7-0.9-5.7-0.9c-2,0-3.5,0-5.3,1.5c0,0.4-0.2,0.4-0.4,0.4c-2.4,0.4-4,0.9-5.9,0.4c-0.4-0.4-0.7-0.4-0.9-0.4
							c-1.1,0.9-1.8,0-2.6-0.4c-1.5-1.3-3.1-1.8-5.3-2c-0.9,0-2.2-1.3-3.5-1.3c-0.9-0.4-1.5-1.1-2.4-1.1c-0.7-0.7-1.3,0-2.4,0.4
							c-0.9,0.2-2.6,0.2-3.7,0.7c-2,0-3.1,0.2-4.6,0.7c-0.2,0-0.9,0-1.3,0c-1.3-0.7-3.3-0.7-4.8-0.7c-1.3,0-2.2-0.4-2.6-1.1
							c-0.9-0.9-1.5-1.1-2.6-1.1c-1.1,0-2.2-0.7-4-1.1c-1.5-0.9-3.7-1.5-5.9-1.8c-2.6-0.4-4-2-6.4-2.2c-0.2,0-0.4-0.4-1.3-0.9
							c-0.9-0.7-1.8-1.8-3.3-2c-2-0.9-2.9-2-3.7-3.7c-0.2-0.7-0.2-0.9-0.4-1.3c0-0.2-0.2-0.2-0.2-0.9c0-1.8-2-3.1-3.7-5.3
							c-0.2-0.4-0.7-1.5-0.7-2.2c0-1.5-0.2-3.1-0.7-4.2c-0.2-1.1,0-1.5-0.2-2.6c-0.7-1.1-0.7-2.2-1.1-3.7c-0.4-1.5-1.8-3.7-2.4-5.3
							c0-1.1-0.4-1.5-0.9-2.6c-0.2-0.9-0.9-2-1.8-3.3c-0.2-2.6,0-5.3-0.9-7.3c-0.2-1.1-0.2-1.8-0.2-2.6c0-0.4,0-0.7,0-1.1
							c1.1-1.1,0.9-3.5,2.2-4.8c0.4,0,0.4-0.4,0.4-0.9c0.2-0.4,0.2-1.3,0.7-2c0.7-1.1,1.1-2.2,1.1-3.7c0-1.8,0-3.7,1.5-5.7
							c0-0.7,0-0.9,0-1.1c0-1.3,0.2-2.4,0.2-3.5c0-0.9-0.2-1.8-0.4-2.6c-1.1-1.1-1.1-2.2-1.1-3.5c0-0.2,0-0.4,0-0.9
							c-0.7-1.5,0-2.6,1.1-3.5c0-0.4,0.2-0.7,0.2-0.9c-0.2-1.5,0-2.2,1.1-2.9c0,0,0,0,0-0.2c0.2-0.9,1.1-1.8,1.5-3.3
							c0-0.7-0.4-1.8-0.4-2.6c-0.2-1.1-0.7-2-0.9-2.6c0-0.2,0.2-1.1,0.2-1.3c1.1-1.1,1.1-2.6,0.7-3.5c0-0.9,0-1.3,0.4-1.8
							c1.3-0.9,0.9-1.5,1.3-2.2c0.7-1.1,1.1-2.2,1.3-3.5c0.2-0.7,0.4-2.2,0.2-4c1.3-0.9,1.3-1.8,1.3-2.6c0-1.5-0.2-2.6-0.2-3.5
							c0-0.2,0-0.9,0.2-0.9c0.2-0.7,0.2-1.8,0-2.2c-1.1-2.2,0-4,0.4-5.9c0-0.2,0-0.2,0-0.2c1.8-0.9,1.1-2.6,1.8-3.7
							c0.4-1.1,0.4-2.9,0.9-3.7c0-0.4,0.2-0.7,0.9-0.7c1.3-0.7,1.8-1.8,1.8-2.9c0.2-1.1,0.7-1.1,1.5-1.8c1.1,0,1.3-0.2,1.5-0.7
							c0-0.7,0.4-0.9,0.7-1.1c1.3-2.2,3.1-2.6,4.2-4.8c1.5-2.2,3.5-3.7,5.7-5.1c0.4,0,1.1-0.2,1.3-0.7c0.4-1.1,2.2-1.5,2.9-1.8
							c1.3-0.7,1.8-1.5,1.8-3.3c0.9-1.1-0.4-3.1-0.4-4.4c-0.2-1.1-0.2-1.5-0.9-2.9c-0.4-0.4-0.4-1.5-0.7-2.4c-0.4-1.3-0.9-2.9-2.2-4
							c0-0.4,1.3-1.3,1.3-2.4c-1.3-0.7-1.3-1.3,0.2-2.4c0-0.2,0-0.7,0-1.3c-0.2-1.3-0.2-2.6-0.2-4c0-0.2,0.2-1.3,0.2-1.5
							c-0.2-1.3-1.5-2.2-2-3.3c-0.2-1.5-1.1-2.9-1.5-3.7c-1.5-0.9-1.8-2.6-1.3-4.4c2-0.2,4.6-0.4,5.7-0.4c1.5-0.7,3.1-0.7,4.6-0.7
							c2.4-0.4,5.5-0.4,8.1-0.4c3.1-0.2,6.6-0.2,10.3-0.4c4.4-0.4,8.8-0.9,12.8-0.9c0.7,0,2,0,2.6,0c1.3-0.2,2,0,2.6,0
							c0.4,0,0.4,0,0.4,0.4c-0.9,2,1.5,2.6,2.2,4.6c-0.2,1.3-0.4,2.2-0.4,3.1c0,1.8,0.2,3.5,0.2,4.6c0.2,0.4,1.1,1.3,1.1,1.8
							c0,0.9,0.2,1.1-0.2,1.3v0.7c0.2,1.5-0.7,3.3-0.9,5.5c-0.2,0.4-0.2,1.3,0.9,2.4c0.2,0,0.4,1.1,0.4,1.3c0,1.1-0.2,2-4.6,3.1
							c0,0.9,0.4,1.8-0.2,2.9c0,0.4-1.1,1.3-1.3,1.3c-1.8,0.4-2.4,2-2.4,4.2c0,0.9-0.2,1.1-0.2,2c0,1.3-0.7,2.9-0.7,3.3
							c0.9,3.1,0,5.5,0,7.9c0,0.7-0.7,2-0.9,2.4c-1.5,1.8-1.8,2.9-2.6,5.1c-0.9,0,0,1.3,0,1.8c1.5,2.4,2.9,5.1,4.4,7.7
							c0,0.7,0,1.5,0.7,1.5c2,2,3.1,4,4.2,5.9v0.2c3.1,2.6,1.5,4.4,0,5.7c0,0.4,0,0.4,0,0.4c-2.2,2-2.4,4.2-2.4,7
							c0,0.7,0,1.3-0.4,1.5c-1.3,1.8-2,2.6-1.3,5.1c0,1.3-0.7,2.4-0.7,4.2c0,0,0,0-0.2,1.3c0,0-1.3,0-1.3,0.4c0.7,1.3,1.3,2,1.5,2.9
							c0,0.9,0.7,1.5,1.8,2c0.7,1.5,0.2,2.2,0,3.5c-1.1,2.2-2,4.2-2,6.4c0,0,0,0.4,0,0.7c0.9,2,0,3.7-1.3,4.6c-1.8,3.1-2,6.2-2.9,9
							c-0.9,0,0,0.7,0,1.3c0,1.8,0.9,3.5,0.9,5.9c0,0.9,0,1.8,0.7,2.6s0.7,2.4,0,3.1c0,0.7,0,1.1,0,1.8c0.7,2.6,1.1,4.4-0.4,6.8
							c0,0.7,0,0.9,0,0.9c0.4,2.2,1.1,3.3,1.8,4.8c0,0.7,1.3,1.5,1.3,2.4c0,0,0.2,1.1,0.9,1.1c4.2,0.7,7.7,0.4,11-2.9
							c2-0.9,4-2.4,6.6-3.1c0.9,0,2-1.1,2.9-1.3c0.4-0.9,0.4-1.1,0.9-1.3c1.8-1.3,2.6-3.3,4.6-4.8c0.7-0.7,1.5-1.1,0.7-1.5
							c0-1.1,0.9-2,1.1-2.9c0.2-0.4,0.7-0.7,0.7-0.9c0-2.2,0.9-3.1,1.3-4.6c0-0.9,2-2,1.5-4.2v-0.9c2-1.8,1.8-4.2,2-7.3
							c0.7-1.1,1.1-3.5,1.3-4.4c0.7-1.1,0.9-2.6,0.7-4.6v-0.4c1.5-3.3,0-5.9-0.9-9c0-1.3,0-2.9-0.4-4.2c0-1.1,0-1.8-0.7-3.3
							c-1.1-0.7-0.2-1.1,0-1.8c0.7-0.2,1.1-0.2,1.3-0.7c2-0.9,4-1.8,4.8-3.3c0.7-1.1,1.5-1.8,1.5-3.5c1.1-1.5,1.3-3.1,1.8-4.8
							c0-0.2,1.3-1.1,1.3-1.3c0.7-0.7,2-2.4,0.7-4c0,0,0-0.2,0-0.9c1.5-3.7,1.3-5.9,0.9-9.2c-0.9-1.5-0.9-3.1,0-3.3
							c0.7-1.8,0.7-4.8,0.7-6.4c0.2-0.9,0-2.9,0.2-4.2c0-0.2-0.2-1.1,0.9-2v-0.7c0.7-2,0.7-4,0.7-5.1c0-0.4,0-0.9,0-1.3
							c-1.5-2.4-0.7-4.6-1.5-7.5c0-0.9-0.2-1.8,0-2c1.5-3.7-0.2-6.6-7.7-8.8c-0.2-1.3-1.5-2.4-1.5-3.7c0.9-0.2,0.9-0.2,0-1.1
							c-0.4-1.5-0.4-4.4-1.1-6.4c-0.2-1.3-0.9-2.9-0.9-4.4c0-0.2,0-0.2-0.7-0.7c-0.2-0.9-0.2-2,0.7-2.6c0-0.2,0.7-0.7,0-1.3
							c-0.7-0.4-0.7-1.5-0.7-2.4c0-1.3,0-2.9-0.4-4.4c-0.7-0.4-1.1-1.5-1.5-2.6c1.5,0,1.8-0.4,2.6-0.4c2,0,4.8,0,6.8-0.2
							c3.5,0,6.6-0.2,9.9-0.2c2.2-0.2,4.2-0.2,6.2-0.2c1.5-1.1,3.7-1.1,5.7-1.1c3.1-0.2,5.9-0.2,9.2-0.4c2.6-0.2,4.4-0.7,6.4-0.7
							c0.9,0,1.5,0,1.8-0.2c-0.2,1.3,0.4,2.9,0.9,4c0,0.2,0.2,0.9,0.7,1.3c0.2,0.7,0.7,2,0.9,2.4c0.2,1.3,0.4,2.4,0.7,3.7
							c0,0.7,0.4,1.3,0.7,2.2c0.4,0.7,0.9,2.2,0.9,3.1c0.2,1.3,0.7,2.6,1.1,4c0.2,0.7,0.2,1.3,0.2,2s0.2,1.3,0.7,2
							c0.7,1.8,1.5,3.1,2,5.9v0.2c-0.2,1.5,0.4,1.8,0.7,2.6c0.7,0.2,1.1,0.9,1.5,1.3c-0.4,0.9-0.4,1.1-0.4,1.3c0,0.9,0,1.3,0,2.2
							c0,0.4,0,1.3-0.2,1.5c-0.2,0.2-0.2,0.9-0.9,1.5c-0.2,1.1-0.7,2-1.3,2.2c-0.2,0-0.2,0.2-0.2,0.2c-0.4,0.7-1.1,1.1-1.3,2
							c-0.7,1.3-1.1,2.9-1.3,4.4c-0.2,0.9-0.2,1.1,0,1.1c0.2,1.8,0,3.1,0,4.8c-0.2,0.4,0,1.5,0,2c0,1.1,0.2,2.4,0.2,3.3
							c-0.2,0.2,0,1.1,0,1.5c0.4,0.7,0.4,1.5,0,2.2c-0.2,0.2-0.2,1.1,0,1.3c0.4,0.7,0.4,1.3,0.4,1.8c0,2,0,2.9,0.4,3.7
							c0,0.4,0,0.7,0,1.3c0,0.4-0.2,0.9-0.2,1.3c0.2,0.9,0.2,2,0.7,2.6c0,0,0,0.9,0,1.3c0,0.7,0,1.3,0.7,2c0,0,0.4,0.2,0.4,0.4
							c-0.4,0.2-0.4,0.9-0.4,1.3c0,1.1,0,1.3,0,2c0,0.4,0,1.3,0,1.8c0.9,1.5,1.1,3.1,1.1,4.6c0.4,3.3,0.7,6.6,1.5,9.7
							c0.2,0.2,0.2,1.3,0.2,2s-0.2,1.3-0.4,1.8c-0.7,0.9-0.7,2.2-0.9,3.7c0,0.2-0.2,1.1-0.2,1.3c0,0.4,0,0.4,0,0.4
							c0,1.3-0.2,2.6-0.4,3.7c-0.2,1.3,0.2,1.5,0.7,2c-0.2,0.9-0.4,1.3-0.7,2.9c-0.4,1.3-0.9,2.9-1.8,4.6c-0.2,0.4-0.7,1.5-0.7,2
							c-0.4,0.9-0.7,1.1-0.4,2.6c0,0.7,0,1.8-0.2,2.4c-0.4,1.8-0.7,3.3-0.9,4.8c-0.4,1.3,0,2.2,0.2,2.9s0.4,2,0.4,2.6
							c0,1.1-0.2,2.2,0,2.9v0.4c0,1.8,0.4,2.4,0.9,2.9c0.4,0.4,0.4,1.3,0.7,1.3c0.2,1.1,0.2,1.3,0.2,1.5c0.7,2.4,1.1,4.4,2.4,5.9
							c0,0.2,0.2,0.4,0.2,0.4c-1.1,0.4-1.1,0.7-0.9,0.9c0.4,1.8-0.2,9-0.2,9.5c0,1.1,0,2.4-0.2,3.5c0,0.4-0.2,1.3-0.4,2.4
							c-0.2,0.7,0,1.3,0,1.8c0.2,1.3,0.4,2.6,0.4,3.5c0,1.3,0,2.4,0.2,4c0,0.4,0,1.1,0.7,1.3c0,0.4,0,1.5,0,2.4
							c0.9,0.4,0.9,1.3,0.9,1.8c0,0.9,0,2,0.2,2.6c0,0.9,0.2,1.1,0.2,1.3c0.2,0.9,0.4,1.5,0.7,2.2c-0.4-0.2-0.4,0.4-0.7,1.3
							c0.2,0,0.4,0,0.7,0c-0.2,1.1-0.4,1.3-0.9,1.3c-1.1,0.2-2,0.2-2.6,0.4c-0.2,0-0.2,0.4-0.2,0.4c-0.4,0.4-0.4,0.4-0.7,0.4
							c-0.2,0-0.7-0.4-0.7-0.4c-1.1,0.4-2.2,0-3.1,0c-0.9,0.4-2,0.7-2.4,2.2c0,0-0.2,0-0.4,0c-1.1,0.4-1.8,0.7-3.1,0.9
							c-0.7,0.9-1.5,1.1-2.2,1.1l-8.4,8.4c-0.7,0-0.7,0.7-1.1,0.7c-1.8,1.1-3.7,1.1-6.2,1.5c-1.1,0-2,0.4-2.6,0
							c-0.2-0.4,5.3,1.3,5.1,1.3c-0.7-0.2-1.3-0.2-1.8,0c-0.4,0.4-1.3,0.7-1.8,0.7c-2,0-2.9-0.2-4.4,0.2c0,0.4-0.4,0.4-0.4,0
							C1141.3,748,1139.7,748.5,1137.8,747.6z"/>
					</g>
				</g>
			</g>
			<g>
				<g>
					<g class="st0">
						<path class="st1" d="M1198.5,573.6h23.3v64h77.9v-64h23.3v154h-23.3v-70.2h-77.9v70.2h-23.3V573.6z"/>
					</g>
				</g>
			</g>
			<g>
				<g>
					<g class="st0">
						<path class="st1" d="M1346.8,638c0.4-4.4,0.4-8.6-1.5-12.1c1.8-4.6,1.3-8.6-1.8-12.1c3.1-4.2,3.5-7.7,0-11.4
							c1.8-1.8,2.6-3.5,2.6-5.1c19.4,5.1,21.6,8.1,0.2,12.5c21.8,2.2,19.4,5.9,1.5,13.6c17.8-1.5,20.2,0.9,4.4,11.9
							c16.7-4.8,15.2-1.1,3.7,9c11.4-5.5,13-4.6,3.5,4.6c9.9-6.6,8.8-4.8,0.7,2.2c8.1-7,10.3-8.1,2.2,1.3c11.2-8.6,12.1-7,4.4,5.1
							c13.4-12.1,18-13.6,9.5,6.4c14.3-17.4,16.9-15.8,13,2.6c-1.3,0.7-2.9,2.2-4.6,4.4c0.4-8.4-2.9-7.9-8.1-3.1
							c-1.5-4.8-4.6-5.7-6.6-4.6c0.4,0,0.2,0.9,0,2.4c0.7,0.9,0.7,3.5,0.7,6.6v55.2h-23.3v-77C1347.2,646.4,1347.2,642,1346.8,638z
							 M1345.4,584.4c1.8-1.8,1.5-4,0.9-5.9c0.9-2.9,0.9-4.8,0.7-4.8c0.2,0,2.9,0,3.5-2c5.3,1.8,8.1,1.8,2.6-3.3
							c5.5,2.4,8.6,3.1,8.8,1.8c26,21.1,21.8,20.5-10.3,5.1c27.5,15.6,22.7,14.5-2.2,4.6c22.2,10.8,22.7,12.1-1.1,4.6
							c20.9,7.9,17.6,7.3-0.7,1.3c18.3,5.9,20.7,7.5-0.4,3.5c20.5,7,18.3,8.6-1.1,7.9c0-1.5-0.9-3.1-2.2-4.8
							C1346.8,589.9,1347,587.2,1345.4,584.4z M1346.1,597.3v-0.2c-0.2,0-0.2,0-0.4,0C1345.9,597.1,1345.9,597.1,1346.1,597.3z
							 M1361.7,569.2c-0.7-1.3-2.4-3.5-5.5-6.8c15.2,9.2,19.8,10.3,5.1-8.1C1389,584.4,1390.8,588.3,1361.7,569.2l-5.9-4l6.2,4.8
							C1361.9,569.8,1361.9,569.6,1361.7,569.2z M1369,542.8c19.1,24,22.7,26.2,6.8-7.5c0.9,1.5,1.8,2.9,2.6,4.2
							c23.1,51,17.4,47.7-17.2,14.7C1382.2,570.9,1383.9,568.5,1369,542.8z M1369,664.2l0.2-0.2L1369,664.2z M1378.4,539.5l4.8,7.9
							c14.3,22.7,14.5,17.6,3.3-20.9c5.5,13.6,9.2,22.4,11.4,26.4c7.5,30.1,4.2,27.9-14.7-5.5c-2.2-3.7-4.4-7.9-7-12.5
							C1376.9,536.4,1377.6,537.9,1378.4,539.5z M1390.8,666.2c8.1-16.5,11.2-18.3,9.9,1.1c-1.3-1.8-3.5,1.3-7,7.7
							C1393.6,668.8,1392.7,666,1390.8,666.2c-0.4,0-1.1,0.2-1.5,0.4c-0.4,1.5-0.7,3.1-1.1,4.6
							C1389,669.5,1389.9,667.7,1390.8,666.2z M1398,552.9c1.3,2.2,2.2,3.1,2.6,2.2c0.9-1.8-0.7-13.2-4.4-34.1
							c11.7,45.5,13.9,49.1,12.3-4.4c4.6,53.5,5.5,49.9,5.7-1.3c0.7,18,1.3,29.7,2.4,34.8c-4.8,25.3-8.6,25.7-16.1,5.1
							c-2.9-7.5-6.2-18-10.1-31.2C1393.6,535.7,1396.3,545.4,1398,552.9z M1405.9,674.3c-0.4,0.9-0.7,1.8-1.1,2.9
							c1.3-12.1,0.4-13.6-3.3-1.3c0-2.9,0-5.1-0.2-6.6c-0.2-0.9-0.4-1.5-0.7-2l-0.7,6.8l1.3-4.8
							C1407.3,646.8,1407.7,650.6,1405.9,674.3z M1415.6,670.4c-0.4,1.5-0.9,3.7-1.3,6.6c-2.6-11.7-4.8-12.1-8.1-3.5
							c-0.2,0.2-0.2,0.7-0.2,0.9c-0.2,0.4-0.2,1.1-0.2,1.5l0.4-2.4C1409.7,652.8,1412.1,649.7,1415.6,670.4z M1416.5,675.7
							c0-2.6,0-5.1,0.2-7.3c0.7-22.4,3.1-21.8,11,1.5c-0.4,0.4-0.4,2.4-0.2,5.9c-3.7-9.9-5.1-9.2-5.5,1.3c-2.2-7.3-4-10.6-5.3-8.8
							c-0.4,0.4-0.7,1.1-1.1,2C1415.8,672.1,1416.3,673.7,1416.5,675.7z M1420.7,549.4c2-5.5,4.6-16.9,8.4-34.8
							c-7.3,56.3-5.1,56.8,17.4,3.3c-16.9,51.7-13.9,49.5,12.3,5.5c-10.3,21.1-15.8,33.2-15.4,37
							C1424.6,581.7,1419.8,579.1,1420.7,549.4c0.2-9,0.9-20.7,2-34.8c-2.2,15-4.2,26.8-5.9,35.4
							C1417.6,554.2,1418.9,554,1420.7,549.4z M1428.4,669.9c-4-23.5-0.9-20.5,9.7,1.5c-7.3-23.8-7.7-29.9,6.2-12.8
							c0-1.1,0.9-0.4,2.4,1.3c0.4,1.3,1.1,2.6,1.8,4l1.3,1.8c-0.9-1.8-1.8-3.5-2.6-5.1c1.1,1.3,2.6,3.1,4.2,5.3
							c-3.7-8.8-1.1-6.4,3.1-0.7c-0.7-0.9,0.2,0.7,1.1,2.4c0.9,1.5,1.5,3.5,2.2,5.5c1.1,4.2,1.8,8.6,1.8,13.6v40.7h-23.3v-36.3
							c0-2.9-0.2-5.3-0.4-7.5c-0.2-2.4-0.7-4.4-0.9-5.7c-1.5-4.4-3.1-7.5-3.5-2.2C1429.9,672.8,1429,670.6,1428.4,669.9
							c-0.2-0.2-0.4-0.2-0.7,0l1.3,4C1428.8,672.6,1428.6,671.3,1428.4,669.9z M1447.7,667.5c-1.3-2.9-2.4-5.1-2.9-6.6
							c-4-4.4-5.5-5.1-5.3-2.2C1439.8,657,1442.5,659.8,1447.7,667.5z M1448.2,559.5c4.8-3.5,13.2-11.9,25.5-24.9
							c-32.3,41.8-28.2,40.9,10.3,13c-1.3,1.1-2.6,2.2-3.7,3.3C1440.5,581.5,1430.6,587.9,1448.2,559.5c4.6-7.5,11.2-17.4,19.6-29.9
							c-10.1,13-18,23.3-24.4,30.8C1443.3,562.1,1445.1,561.7,1448.2,559.5z M1451.5,650.1c-1.3,0.4,0.4,4.6,5.1,12.1
							c-9.5-9.2-13.2-11.4-10.6-3.7C1437.6,641.1,1439.6,639.6,1451.5,650.1z M1447.1,660.7c-0.2-0.9-0.7-1.5-1.1-2.2l0.7,1.5
							C1446.9,660.3,1447.1,660.5,1447.1,660.7z M1490.9,560.4c-38.1,24-34.5,24.6,4,12.5c-10.3,4.4-17.6,7.7-22,10.1
							c-34.5,9.7-34.5,5.3-4.6-21.1C1450.8,578,1457.2,576.9,1490.9,560.4z M1460.9,658.7l-5.5-6.8c-13-16.5-13-19.6,7.9-6.8
							c1.5,2,3.5,4.2,6.2,7c-15-9.9-17.8-9.5-6.6,5.5c-3.1-2.6-5.7-4.6-7.5-5.7c-2-1.3-3.3-2-4-1.8
							C1454.1,652.3,1457.2,655.2,1460.9,658.7z M1474.6,634.1c1.8,1.5,4.2,3.1,6.8,4.8c-19.6-7.9-21.8-6.6-5.9,7.3
							c-9.7-5.3-14.3-7-14.5-5.5C1444.7,625.5,1449.3,624.8,1474.6,634.1z M1496.6,585.2c-36.3,10.1-33.7,11.9,0,12.1
							c-7.7,0.9-13.6,1.8-17.8,2.6c-29.9,0.7-34.8-1.3-10.1-12.3C1470.8,588.5,1480.3,587.7,1496.6,585.2z M1471.9,611.4
							c-1.1,1.8,5.9,4.6,19.4,9.2c-16.3-2.4-22.9-2.4-19.8,0.9C1447.5,613,1446.9,610.5,1471.9,611.4z M1474.6,624
							c2.6,1.8,6.6,4.2,12.1,6.8c-17.2-4.6-21.8-4.6-16.3,0C1450.4,620.2,1449.7,618.2,1474.6,624z M1494.2,612.3l-18-2.4
							c-24.9-3.7-25.5-5.5-3.3-7.9c-3.7,2,3.5,4.2,22,7.3c-8.8,0-15,0.2-18.7,0.7c-2.6,0.2-4,0.9-4.2,1.5
							C1477.9,611.4,1485.1,611.9,1494.2,612.3z M1463.4,645.1l7.9,5.1c-4.2-3.5-7.5-6.8-10.3-9.5
							C1460.7,641.6,1461.6,642.9,1463.4,645.1z M1495.5,576.4c-8.8,2.6-16.3,4.8-22.7,6.6c-4.4,2.4-5.9,4-4.2,4.6
							C1475.2,584.6,1484.3,580.8,1495.5,576.4z M1484.3,547.8l-4,3.1c-4.8,4.2-8.8,7.9-12.1,11
							C1472.8,557.7,1478.1,553.1,1484.3,547.8z M1474.6,634.1c2.4,1.1,5.1,2,7.9,3.1c-4.6-2.4-8.6-4.4-12.1-6.4
							C1471.3,631.9,1472.8,633,1474.6,634.1z M1474.6,624c4,1.1,8.6,2.2,13.9,3.5c-6.6-2.2-12.3-4.2-16.9-5.9
							C1472.2,622.2,1473,623.1,1474.6,624z M1496.4,599.5c-6.6,0.2-12.3,0.4-17.6,0.4c-2.9,0.7-4.8,1.3-5.9,2
							C1479,601.1,1486.7,600.4,1496.4,599.5z"/>
					</g>
				</g>
			</g>
		</g>
	</g>
</g>
</svg>
