<?xml version="1.0" encoding="utf-8"?>
<!-- Generator: Adobe Illustrator 27.2.0, SVG Export Plug-In . SVG Version: 6.00 Build 0)  -->
<svg version="1.1" id="Ebene_1" xmlns="http://www.w3.org/2000/svg" xmlns:xlink="http://www.w3.org/1999/xlink" x="0px" y="0px"
	 viewBox="0 0 1920 1080" style="enable-background:new 0 0 1920 1080;" xml:space="preserve">
<style type="text/css">
	.st0{enable-background:new    ;}
	.st1{fill:#0000FF;}
</style>
<g id="Ebene_2_00000025435877757432758410000007314394593413095358_">
	<g>
		<g>
			<g>
				<g>
					<g class="st0">
						<path class="st1" d="M478.5,601.9c26-6.4,27.5-5.5-1.3,8.1C488,604.1,488.7,601.7,478.5,601.9c-0.9,0.2-2,0.2-3.1,0.2
							l-6.8,0.7c20.5-7.5,18-9.2,0-9.7c3.1-0.9,5.7-1.5,7.7-2.4c28.4-1.1,26.6,1.8-0.9,11.4c-2.2,0.9-4.4,1.5-6.8,2.4
							C472.4,603.7,475.7,602.8,478.5,601.9z M476.3,590.7c1.5-0.4,2.6-1.1,3.5-1.5c4.2-2.4,1.1-4.4-9.5-6.6
							c7.3-1.1,10.6-2.4,10.8-4c24.2,3.3,24.6,5.5-1.3,10.6c-3.1,0.7-6.8,1.3-10.8,2C471.7,590.9,474.1,590.9,476.3,590.7z
							 M472.8,612.5c36.1-13.4,41.6-13.9,17.2,5.1c-3.5,0.7-9.5,2.9-17.6,6.4c24.2-15.6,21.1-16.5-2.6-9.9
							C470.8,613.4,471.9,612.9,472.8,612.5z M472.8,612.5l4.4-2.4c-2.2,1.1-4.8,2.2-7.5,3.5C470.8,613.1,471.9,612.7,472.8,612.5z
							 M481.2,578.6c0.2-0.2,0-0.7-0.4-1.1c-1.1-1.3-4-2.6-8.6-4.4c11.4,1.3,14.5,1.5,1.1-0.9c16.7,2.2,16.7,2.2,0-0.7
							c8.4,1.1,14.5,1.8,17.6,1.8c8.4,2.9,6.2,4-10.1,4.2h-8.6C475.5,577.9,478.5,578.4,481.2,578.6z M493.9,617.8
							c15.8-8.6,16.9-6.8,5.3,6.2c-1.5-0.9-9,3.3-22,11.7C488.9,625.5,494.6,619.5,493.9,617.8c-0.2-0.7-1.5-0.9-4-0.2l-15.6,11.7
							C482.5,624.4,488.9,620.6,493.9,617.8z M490.9,573.3c4,0.2,2.6-0.4-5.7-2.4c-2.4-0.7-5.9-1.3-9.9-2.2c26,4.8,28.2,5.3,9.9,2.2
							l-10.6-1.8C481.8,570.9,487.1,572.2,490.9,573.3z M504.9,630.1c-3.3,1.1-10.3,6.4-21.1,15.6c7.3-8.4,12.1-14.3,14.3-17.8
							c1.3-2.2,1.8-3.5,1.1-4c-4.2,4.8-10.1,11-17.6,18.9l16.5-15C513.5,614.5,515.9,614,504.9,630.1z M507.1,631
							c15.2-16.9,16.9-15,8.1,7.9c1.5-9-5.3-2-21.3,17.6C502.7,642.4,507.1,633.8,507.1,631c-0.2-1.1-0.9-1.3-2.2-0.9
							c-3.7,5.3-9,12.5-15.8,21.8C496.4,643.1,502.3,636.2,507.1,631z M549.8,467.7c35.4,0,57.2,19.1,59,48.2h-20.2h-3.7
							c-0.2-2-0.4-4-1.1-5.9c-3.3-13.4-15.6-22.4-34.8-22.4c-15.6,0-27.9,6.4-31.7,16.1c-0.9,2-1.1,4-1.3,6.2
							c0.2,4.6,1.3,8.1,1.3,6.2c2.4,4.8,4,7,3.5,2.2c3.3,6.2,4.6,5.5,4.4-1.8c2.4,5.5,4.4,8.6,5.7,8.4c3.3,24,1.5,20.2-4.2-3.1
							c4,23.5,2.9,26.2-9,3.7c8.4,24.6,6.2,24.4-8.8,3.5c9.2,17.4,5.7,14.5-5.9,0.7c8.6,13.4,8.4,14.7-3.1,3.1
							c7.3,9.7,4.4,7.3-2.9,0c-0.2-0.7-0.9-1.1-1.3-1.8c2,1.5,0.4-0.9-1.8-4.4c0-1.3-0.7-3.5-1.1-6.2c-0.4-2.4-0.7-5.3-0.7-8.4
							C492.2,486.2,516.6,467.7,549.8,467.7z M497,532.6c-0.2-0.4-0.4-0.7-0.9-1.1C499.7,535.5,499.7,535.5,497,532.6z M526.1,646.6
							c0.9-14.5-4.6-8.4-19.8,18.7c2-5.1,3.7-9.5,5.1-13.4c2-5.9,3.3-10.3,4-13c-2.6,6.6-6.2,15.2-10.6,25.5l6.6-12.5
							C527.8,621.1,531.1,619.7,526.1,646.6z M525,657.1c8.4-29.7,11.4-35.6,11.9-14.5c-2.6-4.8-6.6,5.5-14.1,29.5
							C523.6,666.4,524.5,661.6,525,657.1c0.7-4.2,1.1-7.7,1.1-10.6c-1.1,6.6-2.9,15-5.1,25.1C522.5,666.4,523.9,661.6,525,657.1z
							 M530.9,524.7l0.2-0.2c0.9-0.4,1.5-2.6,2-6.6c4.2,11.4,7,9.7,10.3-2v6.2c-3.5,30.1-5.7,30.4-12.3,2.4c-0.2-0.7-0.2-1.3-0.4-2
							C530.7,523.2,530.9,523.8,530.9,524.7z M553.3,651.4c-6.4-17.6-9.2-10.6-12.5,23.8c-0.7-10.3-1.1-18.5-2-24
							c-0.4-4.2-1.1-7-2-8.6c0.2,7.5,0,18-0.4,32.3l2.4-23.8C542.8,619.5,545.6,619.7,553.3,651.4z M543.7,523.8
							c0.4,4.8,2.2,3.7,5.3-5.5c0.9,9.5,3.1,11.9,7,8.4C547.8,547.8,545,548.9,543.7,523.8c-0.2-0.7-0.2-1.3-0.2-2v0.2
							C543.4,522.7,543.4,523.4,543.7,523.8z M558.6,673.9c-0.7-4.4-1.1-8.4-1.8-11.9c-1.3-4.2-2.4-7.7-3.5-10.6
							C554.9,657.6,556.6,665.1,558.6,673.9z M556.9,662c-4.6-34.5-3.7-39.8,5.5-20.9c-4.8-2.4-4.8,8.1-2,32.6
							C559.1,669.3,558,665.3,556.9,662z M557.1,525.6c1.5-1.5,3.1-3.7,5.1-6.6c-1.1,13,1.3,16.1,10.3,5.7c-1.8,5.9-2,8.6-0.9,8.8
							C554.9,554,552.9,550.4,557.1,525.6l0.7-3.5c-0.7,1.8-1.1,3.3-1.8,4.6C556.4,526.5,556.6,526,557.1,525.6z M574.7,669
							c-3.1-9.2-5.5-16.9-7.5-23.1c-7.7-25.7-4.2-26.2,15.8-2.4c-13.9-13-13.9-7.3-2.4,22.7c-5.7-9.2-10.1-16.1-13.4-20.2
							c-2-2.6-3.5-4.2-4.8-4.8C565.4,647.7,569.6,656.9,574.7,669z M573.1,532.6c1.3-1.1,3.1-3.3,5.5-6.6c-3.7,10.1-2,12.5,7.5,6.4
							c-4,9-0.2,9.2,8.6,5.5c-1.8,3.1-2.4,5.1-1.8,6.2c-25.3,14.7-25.1,11.2-8.1-9.9C565.4,554.4,560.8,557,573.1,532.6
							c0.4-0.9,0.9-2,1.5-3.1c-1.1,1.3-2.2,2.6-3.1,4C571.8,533.5,572.5,533.3,573.1,532.6z M589.4,649.9
							c-24.2-37.8-19.4-35.6,13.9-7l2,2.2c-26.4-19.1-28.8-17.4-9.9,11L589.4,649.9c-2.4-2.4-4.6-4.6-6.4-6.4l11,13.4
							C592.5,654.5,591,652.1,589.4,649.9z M599.5,544.5c-3.3,5.1-0.7,6.4,5.7,6.2c-2.4,3.7-1.3,5.9,3.3,6.8c-2,3.5-0.4,5.7,3.5,7.3
							c-0.7,0.9-0.9,2-1.1,2.9c-22.7,2.9-26,1.5-3.7-8.6c-25.5,7-24.2,4.8-4-6.4c-24.2,8.8-29.9,9.2-10.1-8.4
							c0.2-0.4,0.7-0.7,1.1-1.1c-0.4,0.2-0.9,0.4-1.3,0.9l0.2,0.2C594,545.2,596,545.2,599.5,544.5z M601.1,625.5
							c2.2,2.2,5.9,5.3,10.8,9c-20.9-10.6-26.2-11.4-14.1,2.4C576.2,614.5,576,611.4,601.1,625.5z M606.6,618.2
							c2,1.5,5.3,3.5,9.7,6.2c-12.1-3.7-18-5.1-17.8-2.9C581.5,608.7,585,609,606.6,618.2z M608.3,609c1.1,1.3,4.4,3.3,10.3,6.2
							c-10.6-1.8-15.6-2-15,0.2C587,605.7,587.9,603.9,608.3,609z M611.6,602.1c1.3,1.1,4,2.4,8.4,4c-6.6,0-10.6,0.2-11.7,1.3
							C589,599.5,591.6,598.9,611.6,602.1z M614.9,572.4c-0.7,0.7-1.1,1.3-1.5,2c-24,1.1-22.2-0.7-2.4-6.8
							C611,569.6,612.1,571.1,614.9,572.4z M612.7,593.1c0,1.5,2.2,2.9,7.3,4.4c-5.7,0.9-9,2-9,3.3
							C592.3,594.9,592.1,592.9,612.7,593.1z M617.6,581c-2.2,1.3-3.5,2.4-4,3.5c-20.9-2.2-22.2-4.6-0.4-9.7
							C612.1,577.3,613.4,579.3,617.6,581z M603.3,642.9c0.7,0.7,1.3,1.3,2.2,2c-2.9-2.9-5.5-5.5-7.7-7.9
							C599.3,638.7,601.1,640.6,603.3,642.9z M619.6,593.4c-2.2-0.4-4.4-0.7-6.4-1.1c-21.1-4-19.4-5.5,0.2-6.8
							c0,1.3,1.8,2.6,5.7,3.7c-3.1,1.1-5.1,2-5.9,3.1c-0.2,0.2-0.4,0.7-0.4,0.9C614.9,593.1,617.1,593.4,619.6,593.4z M601.1,625.5
							c3.5,2,7.5,4.2,11.9,6.8c-5.9-4.2-10.8-7.9-14.5-10.8C598.4,622.4,599.3,623.7,601.1,625.5z M606.6,618.2
							c3.1,1.3,6.6,2.6,10.3,4.4c-5.1-2.9-9.5-5.3-13.2-7.3C604.2,616,605,616.9,606.6,618.2z M608.3,609c3.3,0.7,6.8,1.8,11,2.9
							c-4.2-1.8-7.9-3.1-11-4.4C607.9,607.9,607.9,608.3,608.3,609z M612.1,567.4c-0.4,0-0.7,0-1.1,0.2
							C611.4,567.6,611.6,567.4,612.1,567.4z M611.6,602.1c2.6,0.2,5.3,0.9,8.4,1.3c-3.3-0.9-6.4-1.8-9-2.6
							C611,601.3,611.2,601.7,611.6,602.1z M615.2,574.4h-1.8c0,0.2-0.2,0.2-0.2,0.4C613.8,574.6,614.5,574.6,615.2,574.4z
							 M618.2,585c-1.5-0.2-3.1-0.2-4.6-0.4c0,0.2-0.2,0.4-0.2,0.9C614.9,585.2,616.5,585.2,618.2,585z"/>
					</g>
				</g>
			</g>
			<g>
				<g>
					<g class="st0">
						<path class="st1" d="M728.9,580.6h-67.8L644.4,625h-24.9l62.3-154h27.5l62.5,154h-26L728.9,580.6z M721.6,561l-21.6-56.5
							c-1.8-4.8-3.3-9.2-4.8-13.9c-1.5,4.6-3.3,9.2-5.3,13.9L668.6,561H721.6z"/>
					</g>
				</g>
			</g>
			<g>
				<g>
					<g class="st0">
						<path class="st1" d="M749.6,601.3c0-1.8,0-3.1,0.7-4.6c1.3-2.9,4.2-4,7.3-4.2c2.6-0.4,5.3-0.4,8.1-0.4
							c3.5,0.2,6.4,1.5,7.7,5.1c0.9,3.3,0.7,7,1.8,10.6c1.1,3.1,3.1,4.6,5.7,6.6c1.3,1.1,3.1,2.4,5.1,2.6c3.3,0.4,5.7-0.4,7.7-3.1
							c0.9-1.8,1.5-3.7,2-5.5c0.7-1.8,0.7-3.7,0.9-5.7c0.7-14.7,1.1-29.9,2-44.9c0.7-12.3,2-24.6,3.1-37.2c0-0.9,0-1.8,0-2.9
							c-0.7-11.2,1.8-22.4,4.4-33.2c0.7-2.6,2-5.3,3.1-7.7c3.7-6.6,9-11.9,14.7-16.7c2.4-2.2,5.3-3.3,8.1-4.6
							c9.5-3.1,18.7-5.3,29.3-2c3.1,0.9,5.1,2.2,7.7,4c2.9,2,5.9,4,8.6,6.8c2.6,3.5,4.2,7.9,4.2,7.9c1.8-2,6.8-10.1,8.4-12.3
							c6.8-8.8,16.1-13,26.8-13.2c6.4-0.2,13,0.7,18.7,4.4c5.5,3.7,10.1,8.6,12.5,15c2.6,5.9,4.2,12.3,5.1,18.9
							c2.2,12.8,1.1,25.5,1.3,38.3c0.2,1.8-0.4,3.7-0.4,5.5c-0.2,3.7-1.3,7.7-0.7,11.2c2.2,11.7,0.9,23.8,1.3,35.4
							c0,5.7,0.2,11.4,0.4,16.9c0.4,5.1,1.5,9,4.4,14.5c1.8,3.3,6.4,5.7,6.4,5.7c2.9,0.7,5.7,0.2,7.7-2.9c2-2.4,2.6-5.3,2.9-8.6
							c0-1.5-0.2-3.3-0.2-4.8c0.2-3.1,2.6-4.8,6.2-6.2c3.1-1.1,5.1-1.5,8.6-1.1c4,0.7,6.6,4.4,6.6,4.4c-1.1,8.8-1.1,17.8-3.5,26.8
							c-3.3,14.5-19.6,22.4-32.6,19.8c-11.4-2.4-19.8-9.7-24.2-20.2c-5.9-14.3-9.9-29.5-9.7-45.3c0.4-10.6,0.4-20.5,1.5-30.8
							c0.9-10.3,0-20.7,0.9-30.8c0.9-8.8-0.2-16.9-2-25.1c-1.8-9.5-8.8-13-18.3-9.7c-0.7,0.2-1.3,0.4-2.2,0.9
							c-1.5,0.7-3.1,1.8-4.8,4.4c-3.5,4.2-5.7,8.8-7,14.3c-1.5,6.6-2.9,13.4-3.1,20.2c-0.2,6.6,0.4,13.2-1.1,19.6
							c-0.4,1.3-0.4,3.1,0,4.6c2,10.6,1.1,21.1,0,31.7c-0.7,9-1.1,18.3,0.9,27.3c0.9,3.7,3.1,6.2,6.8,6.6c4.8,0.2,9.9-0.7,14.7-0.4
							c4,0,6.4,2.4,7,6.4c0.4,4.4,0.4,8.8,0,12.8c-0.7,3.7-2.6,6.4-6.4,5.7c-0.7,0-2-0.2-2.9-0.2c-5.5-1.3-7.9-1.3-12.8,0.2
							c-4,1.3-6.2,3.7-6.2,7.9c0.2,3.1,0.7,6.4,0.9,9.5c0.9,5.3,1.1,10.6,1.3,15.8c0,1.1-0.2,2-0.4,2.9c-0.4,1.8-2.4,3.5-6.2,4
							c-4,0.4-7.9,0-12.1-0.2c-3.7-0.4-5.7-1.5-6.8-3.5c-1.3-2-1.1-4.4-0.7-7.9c0.9-6.4-0.7-12.3-0.9-18.7c-0.4-9.2-5.9-7.5-5.9-7.5
							c-6.2,0-12.5,0.4-18.7,0.4c-0.9,0-2.2-0.2-3.3-0.2c-2.2-0.4-3.7-2.4-4.2-6.6c-0.4-3.7-0.7-7.5-0.4-11.2c0.7-3.5,2.2-6.4,5.9-7
							c3.1-0.7,6.4-0.4,9.5-0.7l8.4-0.7c8.4-0.9,6.8-4.8,6.8-4.8c0.2-23.8,0.4-47.3-0.2-71.1c0-10.1,0.4-20-1.8-29.9
							c-1.1-5.1-1.1-10.1-3.5-15.4c-1.3-3.1-6.4-5.9-6.4-5.9c-2.9-1.8-5.5-1.8-9-1.3c-0.2,0-0.7,0.2-0.9,0.2
							c-8.1,0.9-11.9,6.6-13.4,13.6c-2.4,12.8-4.6,25.1-3.7,38.1c0.9,15.2-1.5,29.9-2.4,44.9c-0.7,9.5-2,19.1-3.3,28.8
							c-1.3,8.6-4.2,16.9-8.8,24.4c-4.2,6.6-9.7,10.3-17.6,10.8c-1.8,0-4-0.4-5.7,0c-11.9,3.3-20.5-2.9-28.8-9.9
							C751.6,623,749.6,612.5,749.6,601.3z M881.1,665.7c3.3,0,6.2-2.4,6.6-5.7c0.9-4.8,0.2-9.5-0.4-13.9c-0.7-4.2-0.9-8.6-0.9-12.8
							c0.2-4,2.2-6.8,6.2-7.5c5.3-0.7,10.8,0.7,15.8,0c4.2-0.4,6.2-5.9,6.2-5.9l-0.4-2.9c-0.2-1.8-2.4-3.3-6.6-3.5
							c-4.6,0-9,0.7-13.6,0.4c-4-0.2-7-5.1-7-5.1c-0.4-3.7-0.4-7.7-0.4-11.2c0-13.4,0.2-26.8,0-40.3c0-12.3-0.4-24.6-0.2-36.7
							c0.2-11.2,0.7-22.4,5.9-32.8c1.3-2.6,3.1-5.5,4.8-7.9c1.8-3.1,3.5-4.6,6.6-6.2c0.9-0.4,1.8-0.9,2.6-1.3c2.9-1.3,5.5-2,8.8-2
							c1.3,0,2.6,0.2,4,0.4c1.3,0.2,2.6,0.4,3.7,0.9c2.9,0.9,5.1,1.8,7,4.2c2.4,3.5,3.7,7,4.2,11.2c1.1,7,2,14.3,1.8,21.3
							c0,7.3-0.7,14.3-1.1,21.6c-0.4,16.7-1.8,33.7-0.7,50.4c0.2,3.7,0.7,7.5,1.5,11.2c0.9,5.3,2.6,10.1,3.7,15.4
							c1.5,8.8,6.4,15.2,12.5,21.3c9.9,9.5,31.5,5.9,35.9-8.4c2.2-7,3.5-14.1,3.5-21.1c0-0.4-0.2-0.7-0.7-1.1c-0.2-0.4-4-1.3-4-1.3
							c-2.6,0.4-3.5,3.1-4.2,6.6c-1.1,5.5-2.2,10.6-7,14.1c-2.9,2.2-5.5,2.2-9,1.5c-0.9-0.4-1.8-0.7-2.6-0.9
							c-3.3-0.7-5.5-1.8-7.7-4.4c-3.1-3.5-4.8-7.5-5.5-11.7c-0.9-6.6-1.5-13.2-1.8-19.6c-0.2-20.2-0.2-40.3-0.2-60.1
							c0-13.2,1.3-26.6-2.2-39.8c-0.7-2.9-1.3-6.6-1.3-6.6c0-6.8-4.6-12.1-9.5-16.9c-3.5-3.1-7.5-5.3-12.8-5.1l-11.2,0.4
							c-3.3,0-5.9,0.9-8.6,2.9c-4,3.1-7.3,5.9-10.1,9.5c-3.5,4.2-6.4,8.8-8.1,13.6c-0.7,1.1-0.9,2.2-1.8,3.3
							c-1.3,2.4-5.1,1.8-5.9-1.8c-0.2-0.7-0.2-1.8-0.4-2.4c-1.5-7.5-5.5-13.2-11.9-17.2l-1.8-0.9c-8.4-4.8-16.3-2.9-23.5-1.5
							c-3.3,0.7-5.3,1.3-8.1,3.1c-5.7,3.5-9.9,8.4-14.1,13.2c-2.2,2.9-4.4,5.7-5.1,8.8c-2.4,11.7-5.5,23.3-5.3,35.2
							c0,5.7,0,11.4-0.9,16.9c-0.9,6.2-1.3,12.3-0.9,18.7c0.4,9.9-1.5,19.6-1.3,29.7c0.7,7.3-0.9,14.7-1.3,22.4
							c-0.2,3.7-1.5,7-3.5,10.3c-2,3.3-4.8,4.8-8.6,5.3c-9.5,1.1-20.2-6.2-22.4-15.6c-0.2-1.8-0.4-3.1-0.9-4.6
							c-0.7-3.1-6.6-4.2-6.6-4.2c-3.1,0.4-4.8,3.1-4.6,7c0.7,14.7,15,28.8,31,29.5c14.1,0.2,20.2-6.2,24.2-16.5
							c1.8-4.8,3.1-10.1,4.4-15.4c2.4-9.9,2.4-20.2,3.1-30.4c0.7-7,2-14.1,2.2-21.3c0.7-8.1,0.4-16.3,0-24.4
							c-0.2-10.3,1.3-20.5,3.5-30.6c0.7-4,1.5-7.9,3.1-11.7c2.2-6.4,7-10.1,13.6-11.4c1.1-0.2,2.2-0.4,3.5-0.7
							c2.6-0.4,4.6-0.4,7.9,0.4c4.4,1.1,8.1,3.1,11.4,6.4c2.2,2.6,2.9,4.8,3.7,8.1c0.7,3.7,1.8,7.7,2.6,11.9
							c0.7,3.1,0.9,5.3,0.7,8.4c0,1.8,0,3.5,0.2,5.1c1.5,4.6,1.3,9.2,1.3,13.9c0,13-0.7,26.2-0.4,39.4c0.2,13,0.4,25.7,0.9,38.7
							c0.2,3.7-0.4,7.7-4,8.6c-0.4,0-0.9,0.2-1.8,0.2H855c-2.6,0-5.1,0.2-7.5,0.9c-3.7,0.9-6.2,3.5-5.3,7.3l0.2,1.5
							c1.1,3.7,4.6,4.4,8.1,4.4c5.3,0,10.6,0,15.6,0.2c3.7,0,7,0.9,7.7,4.4c0.2,1.8,0,3.5,0,5.1c0.2,7.3,0.2,14.3,0.7,21.6
							C874.5,662.9,877.6,665.7,881.1,665.7z"/>
					</g>
				</g>
			</g>
			<g>
				<g>
					<g class="st0">
						<path class="st1" d="M958.6,643.3c0-5.5,4.6-9.9,9.9-9.9c5.5,0,9.9,4.4,9.9,9.9s-4.4,9.9-9.9,9.9
							C963.2,653.2,958.6,648.8,958.6,643.3z M964.7,504.2c0-5.5,4.6-9.9,9.9-9.9c5.5,0,9.9,4.4,9.9,9.9s-4.4,9.9-9.9,9.9
							C969.4,514.1,964.7,509.7,964.7,504.2z M966.5,553.1c0-5.5,4.6-9.9,9.9-9.9c5.5,0,9.9,4.4,9.9,9.9s-4.4,9.9-9.9,9.9
							C971.1,563,966.5,558.6,966.5,553.1z M978.4,610.5c0-5.5,4.6-9.9,9.9-9.9c5.5,0,9.9,4.4,9.9,9.9s-4.4,9.9-9.9,9.9
							C983,620.4,978.4,616,978.4,610.5z M983,574.2h24c1.3,22,18,34.8,40.9,34.8c22.2,0,36.1-9.2,36.1-25.3c0-13.6-10.8-20-28.6-24
							l-24.2-5.3c-23.8-5.3-42.9-18.9-42.9-42.9c0-25.7,24.4-44.2,57.6-44.2c35.4,0,57.2,19.1,59,48.2h-24
							c-1.1-16.7-13.9-28.4-35.9-28.4c-18.7,0-32.8,9-32.8,22.4c0,12.8,9.5,19.4,26.6,23.1l26.6,5.7c24.4,5.3,42.5,18.7,42.5,42.9
							c0,26.6-22.2,47.3-60.7,47.3C1008.5,628.5,984.1,607.4,983,574.2z M992,440.4c0-5.5,4.4-9.9,9.9-9.9s9.9,4.4,9.9,9.9
							s-4.4,9.9-9.9,9.9S992,445.9,992,440.4z M994.7,479.4c0-5.5,4.6-9.9,9.9-9.9c5.5,0,9.9,4.4,9.9,9.9s-4.4,9.9-9.9,9.9
							C999.3,489.3,994.7,484.9,994.7,479.4z M1005.2,578.2c0-5.5,4.6-9.9,9.9-9.9c5.5,0,9.9,4.4,9.9,9.9s-4.4,9.9-9.9,9.9
							C1009.8,588.1,1005.2,583.7,1005.2,578.2z M1024.4,606.1c0-5.5,4.6-9.9,9.9-9.9c5.5,0,9.9,4.4,9.9,9.9s-4.4,9.9-9.9,9.9
							C1029,616,1024.4,611.6,1024.4,606.1z M1027.2,512.8c0-5.5,4.6-9.9,9.9-9.9c5.5,0,9.9,4.4,9.9,9.9c0,5.5-4.4,9.9-9.9,9.9
							C1031.8,522.7,1027.2,518.3,1027.2,512.8z M1038.7,546.3c0-5.5,4.4-9.9,9.9-9.9s9.9,4.4,9.9,9.9s-4.4,9.9-9.9,9.9
							S1038.7,551.8,1038.7,546.3z M1045.7,456.5c0-5.5,4.6-9.9,9.9-9.9c5.5,0,9.9,4.4,9.9,9.9s-4.4,9.9-9.9,9.9
							C1050.3,466.4,1045.7,462,1045.7,456.5z M1054.9,660.7c0-5.5,4.4-9.9,9.9-9.9s9.9,4.4,9.9,9.9s-4.4,9.9-9.9,9.9
							S1054.9,666.2,1054.9,660.7z M1067,518.1c0-5.5,4.6-9.9,9.9-9.9c5.5,0,9.9,4.4,9.9,9.9s-4.4,9.9-9.9,9.9
							C1071.7,528,1067,523.6,1067,518.1z M1071.9,610.7c0-5.5,4.6-9.9,9.9-9.9c5.5,0,9.9,4.4,9.9,9.9s-4.4,9.9-9.9,9.9
							C1076.5,620.6,1071.9,616.2,1071.9,610.7z M1084.4,446.4c0-5.5,4.4-9.9,9.9-9.9s9.9,4.4,9.9,9.9s-4.4,9.9-9.9,9.9
							S1084.4,451.9,1084.4,446.4z M1087.9,546.3c0-5.5,4.4-9.9,9.9-9.9c5.3,0,9.7,4.4,9.7,9.9s-4.4,9.9-9.7,9.9
							C1092.3,556.2,1087.9,551.8,1087.9,546.3z M1094.5,478.7c0-5.5,4.4-9.9,9.9-9.9s9.9,4.4,9.9,9.9c0,5.3-4.4,9.7-9.9,9.7
							S1094.5,484,1094.5,478.7z M1108.4,590c0-5.5,4.4-9.9,9.9-9.9s9.9,4.4,9.9,9.9c0,5.3-4.4,9.7-9.9,9.7S1108.4,595.3,1108.4,590
							z M1125.8,541c0-5.5,4.4-9.9,9.9-9.9s9.9,4.4,9.9,9.9c0,5.5-4.4,9.9-9.9,9.9S1125.8,546.5,1125.8,541z M1129.3,640.9
							c0-5.5,4.4-9.9,9.9-9.9c5.3,0,9.7,4.4,9.7,9.9s-4.4,9.9-9.7,9.9C1133.7,650.8,1129.3,646.4,1129.3,640.9z M1136.6,492.1
							c0-5.5,4.6-9.9,9.9-9.9c5.5,0,9.9,4.4,9.9,9.9s-4.4,9.9-9.9,9.9C1141.2,502,1136.6,497.6,1136.6,492.1z"/>
					</g>
				</g>
			</g>
			<g>
				<g>
					<g class="st0">
						<path class="st1" d="M1164.9,490.6h-52.6V471h128.3v19.6h-52.4V625h-23.3V490.6z"/>
					</g>
				</g>
			</g>
			<g>
				<g>
					<g class="st0">
						<path class="st1" d="M1225.4,655.6c-0.2,0-0.2-0.2,0-0.4c0-0.4,0-0.7,0-1.5c0.2-0.2,0.2-1.1,0-1.3c0-0.2-0.4-0.4-0.4-0.7
							c-0.4-0.7-0.4-1.1,0-2c0.7-0.9,0.7-2,0.2-2.9c0-0.7-0.4-1.8,0-2.2c0-0.7-0.4-0.9-0.4-1.1c0-0.2,0.2-0.4,0.7-0.4
							c0.4-0.7,0.7-0.9,0.9-1.3c0.4-0.2,0.4-1.1,0.4-1.5c0-1.3,0-2.2,0.2-3.3c0-0.4,0-0.7-0.2-1.1c0-1.1-0.2-1.8-0.2-2.4
							c0,0,0,0,0-0.2c-0.2-0.2-0.4-0.4-0.4-0.9c0-0.4-0.4-0.4-0.7-1.5l-0.2-0.2c-0.2-0.2-0.2-1.1-0.2-1.8c0.2,0,0.2-0.2,0.2-0.4
							c0.2-1.1,0.7-1.3,0.2-1.8c0-0.9,0.2-1.8,0-2.2c0-1.1,0-1.3-0.2-1.5c0-0.7-0.2-0.7-0.2-0.7c-0.4-0.2-0.4-0.9-0.7-1.1
							c-0.4-1.1-0.7-1.3-1.1-1.8c-0.2-0.2-0.2-1.1-0.2-1.8c0-0.9-0.2-1.3-0.7-1.5c0-0.2,0-0.2,0-0.2c0.4-0.4-0.4-1.3-0.7-1.5
							c0-0.4,0-1.1,0.4-1.5c0.4,0,0.4-0.2,0-0.2c0-0.4-0.2-0.7-0.4-1.3c-0.2-0.7-0.2-1.1,0.2-2.2c0,0,0-0.2,0-0.4c0-0.9,0-1.5,0-2.6
							c0-0.4,0-0.4,0-0.7c0.2-0.7,0-1.1-0.2-2.2c0,0,0,0,0.2-0.2c0.2,0,0.4,0,0.4-0.4c0.4-0.2,0.9-0.7,1.3-0.7
							c0.7,0,1.3-0.2,1.5-0.7v-0.2c0.2-0.4,0.2-0.9,0-1.3c0-0.9,0-1.3,0.7-2c0,0,0.2-0.2,0.2-0.4c0-0.2,0-0.4,0-1.1
							c0.4-0.2,0.4-0.4,0.9-0.9c0.7,0,0.9-0.4,1.3-0.7c0,0,0,0,0-0.2c0.2-0.4,0.9-0.9,1.3-1.1c0.2-0.7,0.4-0.9,0.2-1.8
							c0-0.2,0-0.4,0-0.9c0-0.4,0-0.7-0.2-0.9c0,0-0.2-0.7,0-0.7c0-0.2,0.4-0.7,0.2-0.9c0-0.2,0-0.2,0-0.4c-0.4-0.9-1.1-2-1.5-3.3
							c0-0.2,0-0.2,0-0.7c0-0.4,0.2-0.7,0.2-0.9c0.2-0.2,0.2-0.4,0.2-0.7c0,0-0.2-0.7,0-0.7c0.9-0.7,0.9-1.1,0.2-1.8v-0.2
							c-0.2-0.7-0.4-1.1-0.4-2.2c0-0.2,0-0.4-0.2-0.4c0,0,0,0,0-0.2c0.2-0.7,0.2-0.7,0.2-0.9c-0.2-0.4-0.2-0.9-0.7-1.3
							c-0.4-1.1-0.4-1.3-0.7-1.8c0-0.4-0.2-0.9,0-1.3c0-0.7,0.2-2-0.2-2.2c-0.4-0.9-0.7-1.5-0.7-2.2c0-0.9-0.4-1.3,0-1.5
							c0.2-1.3,0.2-2.9-0.2-3.3c-0.2-0.2-0.2-1.1-0.2-1.5c0,0,0,0,0.2,0c0.7-0.2,0.7-0.2,0.7-0.4c0-1.1,0-1.3-0.7-1.5
							c-0.2-0.2,0-0.7,0-0.9c-0.4-1.3-0.7-2.6-1.5-3.3c-0.4,0-0.4-0.4-0.4-1.1c0,0,0-0.2,0-0.4c0.4-0.7,0.7-0.9,1.1-1.3
							c0.2,0,0.2-0.4,0.2-0.9c0-1.3,0-2.9-0.2-3.3c0-0.2,0-0.7,0-0.9c0.2-0.4,0.2-0.7,0.2-0.9c0-1.3-0.4-2.2-0.9-3.3
							c-0.2,0,0-0.2,0.4-0.2v0.2c0.4,0,0.7,0,0.7-0.2c0.4-1.3,0.9-2,1.3-3.3c0-0.4,0-1.1-0.2-1.5c-0.4-0.2-0.4-0.9-0.4-1.3
							c0-1.1,0.2-2,0.2-2.9c-0.2-0.2-0.2-0.9-0.4-1.3c0-0.7-0.2-1.5-0.2-1.8c-0.4-0.9-0.4-1.5-0.7-2.9c0-0.4,0-0.7,0.4-1.3
							c0.4-0.7,0.4-1.5,0.7-3.1c0,0,0,0,0-0.4c0.2-0.4,0.2-0.4,0-0.7c0-1.8,0-2.9,0-4.4c0.2-1.5,0.2-2-0.7-3.1
							c-0.2-0.7-0.4-2-0.9-2.4c-0.2-0.7-0.9-1.1-0.7-2c-0.2-1.3-0.2-1.8-0.4-3.1c0,0,0,0,0-0.2l0.2-0.2c0.9,0,1.3,0,1.8,0.2
							c0.2,0,0.7,0,0.7,0c0.7,0.2,0.9,0,0.9-0.2c0-1.1,0-1.3,0-1.5c-0.2-1.3-0.7-2.6-0.7-4c-0.4-1.3-0.4-2.9-0.2-3.5
							c0-0.2,0-0.4,0-0.7c-0.2-1.1-0.2-2.4-0.2-2.9c0-0.2,0-0.4,0-0.9c0-0.9,0.4-2,0.9-2.9c0.7-1.1,0.9-3.1,0.9-4.4
							c0.2-0.7,0.2-1.5,0-2.4c0,0,0,0,0-0.4c-0.2-0.7-0.2-0.9,0-0.9c0.2-0.7,0.4,0,0.9,0c0.7,0.2,0.9-0.7,1.3-1.1c0,0,0-0.2,0-0.4
							c-0.7-0.4-0.4-0.9-0.9-1.5c-0.2,0-0.2,0-0.2,0c0-0.7-0.4-1.3-0.7-2.2c-0.2-0.2-0.2-0.7-0.2-1.3V475c0.2-0.4,0.2-1.3,0.7-2
							c0-0.2,0-0.9-0.2-1.1c-0.4-0.9-0.4-2.4-1.3-3.1c0-0.9,0-1.1,0.7-1.5c0.4-1.3,0.4-1.8,0-2.6c0-0.2-0.4-0.4-0.4-0.9
							c0-0.4,0-1.1-0.2-1.5c-0.2-0.2-0.2-0.4-0.2-0.7c0-0.9,0-1.5-0.2-2.6c0-0.2,0-0.4,0.2-0.4c0.7-0.7,0.7-1.5,0.7-3.1
							c0.2-0.7,0.7-1.1,0.2-2c0-0.4-0.2-0.7-0.4-1.5c0-0.4,0-0.7,0-0.9c0-1.1,0.2-2.6-0.2-3.7c-0.9-0.9-0.9-1.8-1.1-3.1
							c0-0.2-0.2-0.4-0.2-0.7c-0.2-0.4,0.2-1.5,0.7-1.8c0.9,0,1.1-0.7,1.3-0.9c0.2-0.7,0.9-0.9,0.9-0.9c0.4-0.2,0.4-0.2,0.7-0.2
							c0.4,0,1.1-0.4,2.2-0.4c0.2,0,0.4-0.4,0.7-0.7c0.9-0.2,1.3-0.4,1.8-0.2c0.7,0,0.9,0,0.9,0c0.4,0,0.7,0,1.1-0.2
							c0,0,0.2-0.4,0.7-0.4c0.7,0,0.9-0.2,1.3-0.9c0,0,0.4,0,0.7,0c0.4,0.2,0.4,0.7,0.7,0.9c0,0,0.2,0.7,0.4,0.7
							c1.1-0.7,2,0,2.9-0.7h0.2c1.8,0.2,1.8,0.2,3.3-0.4c0.2,0,0.2,0,0.7-0.2c0.2,0,0.4,0,0.4,0.2c0.7,0.4,0.9,0.4,1.1,0.2
							c0.9-0.2,1.5,0,2.4-0.2h0.2c0,0.2,1.1,0,1.5,0c0.2,0,0.2,0.2,1.1,0.2c0.2,0,0.4,0,0.7,0.4c0.9,0.4,1.3,0.4,2,1.1
							c0.9,0,1.5,0,2-0.9c0.2-0.7,0.9-0.7,1.3-0.4h0.2c0.2-0.2,0.2-0.2,0.2-0.2c1.1-0.2,1.3-0.2,1.3,0.2c0.2,0,0.2,0,0.4,0
							c0.2,0,0.4-0.2,0.7-0.2c0,0.2,0.2,0.2,0.7,0c0.4-0.2,0.4-0.2,0.9,0c0,0.4,0,0.4,0.7,0.2c0.2,0,0.4,0,0.7,0
							c0.2-0.2,0.7-0.2,0.9-0.2c0.2,0,0.2,0.2,0.4,0.4c0.4,0.2,0.4,0.7,0.4,0.9c0.2,0.7,0.4,0.9,0.7,0.9c0.7,0,1.3,0.2,2,0.2
							c0-0.2,0.2,0,0.2,0c0,0.2,0.4,0,0.7,0c0.4,0,0.7,0,1.3-0.4h0.2c0-0.7,0,0,0.4,0c0,0.2,0,0.4,0.2,0.4c0,0,0,0,0.2-0.2
							c0,0,0,0,0.2,0c0,0,0.2,0,0.4,0.2c0.2,0.2,0.2,0.2,0.9-0.2c0,0,0.2,0,0.4,0.2c0.2,0.2,0.9,0.2,1.1,0.2s0.4,0,0.4-0.2
							c0.2,0,0.4,0,0.4,0.2c0.2,0.2,0.2,1.1,0.2,1.5c0.2,0,0.4,0,0.4,0s0.2,0,0.4,0c0,0,0.4,0,0.4,0.2c0,0.7,0.4,1.1,0.4,1.8v0.2
							c-0.2,0.9-0.2,1.3-0.2,1.8c0,0.4,0,0.9,0,1.8c0,0.2,0,0.4,0,1.3c-0.2,0-0.2,0.4-0.4,1.3c0,0.4,0,0.4,0,0.7
							c0,0.2,0,0.7-0.2,0.9c-0.4,0.7-0.4,1.1-0.4,1.5c0,1.1,0,1.5-0.2,2c-0.2,0.9-0.2,1.1,0,2c0,0.7,0,1.1,0.4,1.8c0,0,0,0.4,0,0.7
							c0.2,0.9,0.4,2.4,0.2,3.1c0.7,1.3,0.7,2.6,0.7,3.5c0,0.2,0,0.2,0.2,0.4c0,0.9,0,1.5-0.2,2.9c0.2,2.6,0,5.5-0.4,8.4
							c0,0.2,0,0.7,0,0.9c0,0.7,0,0.9,0,0.9c0.2,1.1,0.2,1.8,0.4,2.6c0.2,0.9,0.7,2,0.9,2.4c0.7,0.9,1.1,1.3,1.3,2.6
							c0.2,0.2,0.4,0.9,0.9,1.3c0.2,0.7,0.4,1.1,1.1,1.5c0.2,0.2,0.4,0.7,0.9,1.1c0,0.2,0,0.4,0.7,0.9l0.2,0.4
							c-0.2,0.4,0,0.7,0.4,0.7c0.4,0.2,0.4,0.9,0.4,1.3c0,0.4,0,1.1-0.2,1.3c0,0.2-0.2,0.4-0.4,1.1c0,0.2,0,0.2-0.2,0.2
							c-0.2,0.4-0.4,1.1-0.9,1.8c-0.4,0.2-0.9,0.9-1.1,2.2c-0.2,0.7-0.9,1.5-1.1,2c-0.7,0.2-1.1,1.5-1.1,2.4c0,0.4,0,0.9,0,1.1
							c0,3.5,0,6.4,0.4,9.7c-0.2,1.5-0.2,3.7-0.2,5.5c0,0.9,0,1.3,0,1.8c0,0.7,0.2,1.1,0.2,1.3c0,1.3,0,2.4,0,3.3
							c-0.2,2.6-0.2,5.5,0.2,7.7c0,2.6-0.2,5.3-0.2,7.9c0,1.3,0,2.4,0,4c0.2,5.1,0,10.1,0.2,15.2c0,1.3-0.2,2.4-0.2,3.5
							c0,2.4,0,4.8,0.2,7.5c0,2.6,0,4.6,0,7c0,1.3-0.2,2.9-0.2,4c0.2,2.9,0,5.7,0,9c-0.2,2.4,0,5.5,0,8.8c0,4,0,8.1,0,12.3
							c0.2,2.6,0.2,4.6,0,6.8c0.2,2.9,0,4.8,0,7c0,1.5-0.2,3.1,0,4.4c0,1.8,0,3.5,0.2,5.5c0,2.2,0.2,4.6,0,6.8c0,0.4,0,1.1,0,1.3
							c0,2.4-0.2,4.2,0,6.2c0,0.7,0,1.1,0,1.3c0,0.9,0,1.1-0.2,1.1c0,0.4,0,0.4-0.2,0.4c-0.7,0.4-0.9,0.4-1.1,0.4
							c-1.5,0-3.5,0-5.3-0.2c-0.7,0-1.3,0-2,0.2c-0.7,0-1.5,0-2.4,0c-1.8-0.2-4,0-5.7,0c-0.4,0-1.1,0-1.5,0c-0.9,0-1.8,0-2.6,0
							c-1.5,0-2.9,0-4.2-0.2c-2.2,0-4.4,0-7.3-0.2c-2.2,0.2-4.4,0-6.6,0c-1.5,0-2.9,0-3.7-0.2c-2.6,0-4.8,0-6.8,0
							c-0.9,0-1.8,0-2.6,0c-0.7,0-1.5,0-2,0.4C1226.1,656.1,1225.9,656.1,1225.4,655.6z"/>
					</g>
				</g>
			</g>
			<g>
				<g>
					<g class="st0">
						<path class="st1" d="M1340.9,581.5l0.9-0.2v0.4l0.4,0.2h0.2v0.4h0.2l0.2,0.7l-0.2,0.2l0.4,0.4h0.4l-0.2,0.4l0.7,0.2l0.4,0.4
							h0.4l-0.2,0.7l1.1,0.2l-0.7,0.4l0.4,0.2l0.7-0.2l-0.2,0.7l0.4,0.2l0.4,0.4l0.4,0.2l-0.2,0.2l0.2,0.4l0.7-0.2l-0.2,0.2l0.2,0.9
							l0.4,0.2l0.2-0.2v0.7l0.7,0.2l0.4,0.2l-0.2,0.4l0.2,0.4l0.7-0.4l0.2,0.2l-0.2,0.2l0.7,0.4l0.2,0.2l-0.2,0.7l0.7,0.2l-0.2,0.2
							l0.4,0.4l0.2-0.4l0.4,0.4l0.7,0.4h-0.4l0.7,0.2l0.2,0.7h0.2v0.9l0.7-0.2l-0.2,0.4h0.2v0.7l0.9-0.2l0.2,0.4v0.7l0.4,0.7
							l0.7-0.2l0.2,0.4l0.2,0.2v0.4l0.7,0.4h-0.2l0.4,0.4l0.7,0.4l0.2,0.4h0.4l-0.2,0.7h0.4v0.7h0.4l0.4-0.2l0.4,0.7l-0.4,0.4
							l0.7,0.4l0.4-0.2l-0.2,0.2l0.7,0.4l0.2,1.1l0.2-0.4l0.4,0.4l0.4,0.2l-0.4,0.2l0.4,0.7l0.4-0.4l0.2,0.4v0.9h0.2l0.7,0.2v0.4
							h0.7l-0.2,0.4l0.9,0.9l0.4,0.7h0.4h-0.2l0.9,0.2l-0.7,0.4l0.7,0.7l0.4-0.4l0.2,0.2v0.9h0.2l0.7,0.2v0.4h0.2l0.2,0.2l0.2,0.7
							h0.4l0.2,0.4v0.7l0.2,0.2l0.2-0.2l0.4,0.7l0.2,0.4l0.2-0.2l0.7,0.2l-0.2,0.7l0.7-0.2l-0.2,0.9l0.7,0.2l0.9,0.2h-0.2l0.2,1.1
							l0.4,1.1l-0.7,0.7l0.7,0.2l-0.7,0.7h-0.2l-0.4,0.4l-0.4,1.1l-0.2-0.7l-0.4,0.4l-0.4,0.4l-0.7-0.7h-0.4h-0.2l-0.9-0.9v0.2
							l-0.9-0.2l-0.4-0.7l0.2-0.4l-0.7,0.4l-0.4-0.4l-0.2-0.7l0.2-0.4l-1.1-0.2h0.2V618l-0.4-0.2v-0.4h-0.9l0.7-0.4l-1.1-0.4
							l0.2,0.2l-0.9-0.4l0.4-0.2l-0.4-0.7l-0.2-0.2h-0.7h0.2v-0.4l-0.4-0.4v0.2l-0.7-0.2l0.2-0.7l-0.2-0.4l-0.7,0.4l-0.2-0.9h-0.4
							l0.2-0.7l-0.4-0.2h-0.2l0.2-0.4l-0.4-0.4l-0.4,0.2l-0.7-0.4h0.2l-0.7-0.9v-0.4l-0.4-0.2l0.2-0.2l-0.7-0.4v-0.2l-0.7-0.7
							l-0.7,0.2l0.4-0.2l-0.4-0.4h-0.9l-0.2-0.4v-0.2v-0.2l-0.7-0.4l0.2,0.2l-0.4-0.2l-0.7-0.2l-0.2,0.4v-0.4l-0.9,0.2v-0.4
							l-0.7-0.2h-0.7l-0.7-0.2v0.2l-0.7,0.2V605l-0.7,0.2l-0.4,0.4h-0.4l-0.2-0.2l-0.7,0.4l-0.2-0.4l-0.4,0.2l-0.9,0.7h0.2h-0.4
							l-0.2,0.2l-0.9,0.4h0.2l-0.9,0.7l-0.4,0.2l-0.4,0.2l-0.2,0.7l-0.2,0.4l-0.2,0.2h-0.2l-0.2,0.4l-0.2,0.2l-0.2,0.4l-0.9,0.4h0.4
							l-0.4,0.9l0.4,0.2l-0.7,0.4l0.2,0.7l-0.4-0.2l-0.7,0.9l0.7,0.2l-0.2,0.7h0.2l-0.7,0.7l0.4,0.4l0.2-0.2l-0.2,0.9l0.4,0.7
							l-0.4,0.7v0.4l0.4,0.2l0.2,0.2l0.2,0.2v0.4l-0.2,0.2l0.9,0.4v0.4l0.4-0.2l-0.2,0.4l0.2,0.4h0.4v0.2l0.9,0.7v0.4l0.2,0.2h0.4
							v0.2l0.2,0.7l0.7,0.2l0.9,0.9l-0.4,0.7l0.2-0.2l0.2,0.2l0.7,0.2l-0.2,0.4h0.4l0.2,0.2l0.4,0.2l0.4,0.7l-0.2,0.4l0.2-0.2
							l0.2,0.4l0.4,0.2v0.4l0.7,0.7l0.2-0.2l0.2,0.7h0.2l-0.2,0.2l1.1,0.2l-0.2,0.2l0.7,0.7l-0.2,0.4V631l0.4,0.4l0.4,0.2l0.7,0.7
							v0.2l0.9,0.2l0.2,0.7l0.2,0.2l0.4,0.4l0.4,0.2v1.1v-0.4l0.2,0.4l0.4,0.9l-0.2-0.2l-0.4,1.1h0.4l-0.4,1.1l0.2-0.2l-0.4,0.9
							h-0.7l-0.4,0.2l-0.7,0.2l-0.7,0.2h-0.4l-0.2,0.2l-0.7-0.7l-0.2,0.2v-0.4h-0.9l-0.2-0.4V638l-0.7-0.4l-0.4-0.2l-0.2-0.2
							l-0.2-0.4h0.4l-0.9-0.2l0.4-0.4h-0.9v-0.9l-0.2,0.2l-0.2-0.2l-0.4-0.7h0.2l-0.9-0.2l0.2-0.7l-0.2-0.2l-0.4,0.4l-0.2-1.1
							l-0.9-0.2h-0.2l0.2-0.7l-0.4,0.4l-0.4-0.9l0.4-0.4h-0.7h-0.4l-0.4-0.4l0.2-0.7l-0.7-0.4V629l-0.7,0.2l0.2-0.4l-0.4-0.2
							l-0.4-0.4l0.2-0.4l-0.7,0.2V627h-0.4l-0.2-0.2l-0.2-0.4v-0.2h-0.7v-0.9l-0.7,0.4l-0.2-0.4v-0.4h-0.2v-0.4l-0.2-0.7l-0.7-0.2
							l-0.2,0.4l-1.1-1.1l0.2-0.7l-0.4,0.2l0.2-0.7l-0.7-0.2l-0.2,0.4l-0.4-0.7v-0.9l-0.2-0.4l-0.2,0.4l-0.2-0.2l-0.4-0.2l-0.2-1.1
							h-0.4v0.2l-0.7-0.4l0.2-0.2v-0.7l-0.4,0.2l-0.9-0.4l0.2-0.7l-0.4,0.4l-0.7-0.9l0.4-0.4l-0.2-0.2l-0.7,0.2l0.2-0.4l-0.4-0.9
							l-0.4,0.7l-0.2-0.9l-0.9-0.9h-0.4l-0.2-0.4l0.2-0.2l-0.4-0.9h-0.7h0.2l-0.7-0.2l-0.4-0.4l0.2-0.7h0.2l-0.7,0.2l-0.2-0.9h-0.7
							l-0.2-0.2l0.2-0.7l-0.7-0.4l-0.2-0.2l-0.2-0.4h-0.9l0.2-0.9l-0.9-0.2v-0.4h-0.7l0.2-0.4l-0.2,0.2l-0.4-0.4v-0.4h-0.2l-0.2-0.7
							l-0.7-0.7v-0.2l-0.4-0.2h0.2l-0.4-0.4l-0.7-0.2l-0.2,0.2v-0.9l-0.9-0.2v-0.9l-0.4-0.4l-1.1-0.2h0.2v-0.4l-0.7-0.4v-0.2
							l-0.7-0.7l0.2-0.2h-0.4l-0.2-0.4l-0.9-0.2l0.7-0.4l-0.9,0.2l-0.4-0.9l0.4-0.2h-0.7v-0.4l-0.4-0.4l-0.2,0.2l0.2-0.4l-1.1-0.2
							l0.4-0.4l-0.4-0.7h-0.7h0.2l-0.4-0.4l-0.7-0.2v-0.2l0.4-0.2l-0.4-0.4l-0.4,0.2v-0.7h-0.4l-0.2-0.2v-0.4l-0.2-0.4l-0.4,0.2
							l-0.2-0.4l-0.2-0.4l-0.7-0.2l0.2-0.4l-0.9-0.2h0.2l-0.4-0.4v-0.7h-0.2l-0.7-0.2l-0.2-0.2l-0.2-0.9l-0.4-0.2l-0.4,0.2l0.2-0.2
							l-0.2-0.7l-0.2,0.2l-0.7-0.9l0.2-0.2l-0.7-0.9h-0.2h-0.4v-0.2l-0.7-0.4h-0.2V583l-0.4-0.7l-0.4,0.2l-0.2,0.2v-0.7l-0.2-0.7
							h-0.9l-0.2-0.9h-0.7v-0.4l0.2-0.2l-0.4-0.2l-0.4-0.4h-0.2l-0.7-0.2l-0.7-0.9v-0.4l-0.4-0.9v0.2h-0.7l0.4-0.7l-0.4-0.4
							l-1.1-0.2l0.4-0.2l-0.9-0.4l0.4-0.4l-0.4,0.2l-0.2-0.9h-0.9l-0.2-0.4l-0.2-0.2v-0.7h-0.2l-0.2-0.4l-0.4,0.4l-0.2-0.7l-0.4-0.2
							l0.2-0.4l-0.7-0.9l-0.7,0.2v-0.9l-0.2,0.2l-0.9-0.9l0.2-0.2l-0.7-0.2l-0.7-0.2v-0.9h0.2l-0.7-0.4h0.2l-0.7-0.9l-0.7-0.4
							l-0.7,0.2v-0.7v0.2V565l-0.7,0.2l-0.4-0.9l-0.2-0.2v-0.4l-0.2-0.4l-0.7,0.2l-0.4-1.1l0.2,0.2l-0.4-0.9v0.4l-0.9-0.2l0.2-0.2
							l-0.2-0.9h-0.7l-0.4-0.4l-0.2-0.7v0.4l-0.7-0.7V559h-0.7h0.4l-0.7-0.4l-0.4-0.4l-0.4-0.4l0.2-0.4l-0.2-0.9v0.2l-0.9-0.4
							l0.4-0.9v-0.2h-0.2v-0.9v-0.4h0.4v-0.4l0.7-0.9l0.2-0.2h0.4l0.9,0.2l0.9-0.4v0.7l0.7-0.7l0.2,1.1l1.3,0.2l-0.2,0.2l0.4,0.9
							l0.2,0.2l0.4-0.4l0.7,0.7v0.2l0.2,0.2l0.4,0.2v0.7l0.7,0.7l-0.2,0.2l0.4-0.2l0.4,0.2l0.7,0.7v0.2h0.2l0.2,0.2l-0.2,0.4
							l0.4,0.9l0.2,0.2l0.9-0.2l-0.7,0.4l0.7,0.7l1.1,0.2l-0.2,0.4l0.9,0.4l0.2,0.4l0.2,0.4h0.4l-0.2,0.7l0.7-0.2v0.4l0.2,0.4v0.4
							l0.9-0.2l0.2,0.4v0.4l-0.2,0.2l0.7,0.7h0.4l0.2,0.9v-0.2l0.7,0.2l0.4,0.2v0.4l0.4,0.4l0.2-0.4l0.7,0.2l0.2,0.9h0.2l0.7-0.4
							l-0.2,0.4h0.2h0.4l1.1,0.4l-0.2,0.4l0.4-0.2l0.2-0.4l0.4,0.4h0.2l0.7-0.2v0.2l0.9-0.2l0.2,0.7h0.4l0.2-0.4h0.2l0.9-0.9
							l0.4,0.7l-0.2-0.4l0.9-0.4l0.7-0.4l0.4-0.4h0.2l0.4,0.4v-0.9l0.7,0.2l0.2-0.9l1.1-0.7h0.4l-0.2-0.7h-0.2l0.4-0.2l0.7-0.2
							l0.2-0.7l0.2-0.7l0.4-0.4h-0.2l0.7-0.9v-0.2l-0.4-0.4l0.2-0.2l0.2-0.2v-0.2l0.2-1.3v0.4v-1.1l0.2,0.2l-0.7-0.4v-0.4l0.2-0.4
							l-0.4-0.7l-0.2-0.2l0.4-0.7h-0.2l-0.2-0.7h-0.4v-0.2l-0.2-1.1v0.2l-0.9-0.4v-0.2l0.4-0.4l-0.2-0.2h-0.9l-0.4-1.1h0.4l-0.7-0.2
							l-0.2-0.7l-0.7,0.2v-0.7l-0.2,0.2l0.2-0.4h-0.7l-0.4-0.2l0.4-0.4l-0.9-0.4l-0.2-0.4l-0.2-0.2h-0.4l-0.2-0.7l0.2-0.4l-0.4,0.2
							l-0.7-0.7v-0.4l-0.4,0.4l-0.2-0.7l0.4-0.2l-1.1-0.2h0.2l-0.4-0.7h-0.4l-0.4-0.4l0.4-0.2l-0.4-0.9l-0.4-0.2l-0.4,0.4l0.2-0.7
							l-0.7-0.9l-0.2,0.2h-0.4v-0.7l-0.2-0.7l-0.4,0.7l-0.7-0.7l0.4-0.4l-0.4-0.7h-0.4h-0.2l-0.7-0.7l0.2-0.4v-0.9h0.4l-0.9-0.7
							l0.4,0.2v-0.7v-0.7l0.9-0.2l0.4-0.7l0.2-0.2h1.1h0.9l0.2-0.2l0.4,0.4h0.7l-0.2,0.4l0.7-0.2v0.7l0.9,0.2l-0.2,0.2l0.4,0.7h0.4
							v0.4l0.2,0.7h0.7l-0.2,0.2l0.4,0.7h0.9h-0.2v0.4l0.2,0.2l0.7,0.2v0.4l0.4,0.4l0.4,0.2V541v0.9l0.7,0.4v0.2l0.4,0.2l0.2,0.2
							v0.4l0.4-0.2v0.4l0.7,0.2l0.7,0.2l-0.2,0.4l-0.2,0.4l0.9-0.2l0.2,0.2l-0.2,0.4l0.4,0.4l0.7,0.2l-0.2,0.4l0.9,0.4l0.4,0.2h-0.2
							l0.4,0.2l0.2,0.9l0.4-0.2l0.4,0.9v0.7l0.2,0.2h0.2h0.4h0.2v0.9l0.4,0.7l0.2-0.2l-0.2,0.2l0.9,0.9l0.4-0.4l0.2,0.2v0.4h0.4
							l0.7,1.8l0.2-0.4l0.2,0.7v0.2h0.9l-0.2,0.4l0.2,0.4l0.7,0.9l0.9-0.2l-0.4,0.4l0.2,0.2h0.4l0.2,0.7l0.2,0.4l0.2-0.4v0.4
							l0.7,0.2l0.2,0.4l0.2,0.7V559h0.4v0.9l0.2,0.2l0.4,0.2h0.7l-0.2,0.7l0.7,0.9h0.2h0.2l0.4,0.2l0.2,0.9v-0.2h0.7v0.9l0.4,0.7
							l0.7-0.2l0.4,0.4v0.7h-0.2l0.4,0.7h0.4h0.7l0.2,0.4h-0.2l0.4,0.2l-0.2,0.7l0.2,0.4h0.9l0.2,0.2l0.2,0.2l0.9,1.1l0.7,0.2
							l0.2,0.4v0.2l0.4,0.2l-0.4,0.4h0.9v0.7l0.2-0.2l0.4,0.7h0.2l-0.2,0.7h0.2h0.4h0.2l0.7,1.1l0.2,0.2l-0.4,0.2l0.4,0.7h0.4
							l-0.2,0.9l-0.4,0.2l0.7,0.4l-0.7,0.2l0.2,0.4h-0.4l-0.4,0.9h-0.7v0.2l-0.4-0.2l-0.7,0.7l-0.2-0.2l-1.1,0.4v-0.7h-0.7v-0.4
							h-0.2l-0.7-0.2l-1.1-1.3h-0.2l-0.2-0.4h0.2v-0.4l-0.7-0.4l-0.2,0.2l-0.4-0.2l-0.2-0.9h-0.2v-0.7l-0.9-0.2l-0.2-0.2l-0.4-0.2
							l0.4-0.2h-0.4h-0.4l-0.4-0.4v-0.4h-0.7l0.2-0.4h-0.9l-0.7-0.2h-0.2l-0.2-0.2l-0.7-0.4l-0.9,0.4l0.2-0.4h-0.2h-0.7h-0.2
							l-0.9,0.4l-0.4-0.2l0.2,0.2l-0.9,0.7l-0.2-0.2h-0.9l0.4,0.2l-0.9,0.2v0.4h-0.7l-0.9,0.2l-0.4,0.4h-0.2l-0.4,0.9l-0.7,0.4v0.4
							l-0.9,0.2v0.7h-0.2h-0.2l-0.2,0.4l-0.4,0.7V576v0.9l-0.4,0.7l-0.2-0.2v0.7l-0.2,0.4l0.2,0.4l-0.2,0.2l-0.4,0.7l0.2-0.2
							l0.2,0.9l-0.7,0.2l0.4,0.2l-0.4,0.7v0.2l0.7,0.2l-0.2,1.1v0.4h0.7v0.7l-0.2,0.2l0.7,0.4l0.2,0.7l0.7,0.4h-0.4l0.2,0.9h1.1
							l-0.4,0.2l0.4,0.9l0.2-0.2l0.4,0.2l-0.2,0.4l0.7-0.2l0.2,0.4v0.9l0.2-0.2l0.2,0.7l0.7,0.2h0.2l0.2,0.4l0.4,0.7l0.4-0.2
							l0.4,0.4l-0.2,0.4l-0.2,0.2l0.7-0.2l0.2,0.7l-0.2,0.2l0.7,0.7l0.7-0.2l-0.4,0.4l0.7,0.9l0.2-0.2l0.4,0.2l0.2,0.7l0.2-0.4v0.9
							l0.4-0.2h0.4l-0.2,0.9l0.2,0.2l0.4,0.2l0.2,0.4h0.7v0.7l0.7,0.4l0.2,0.2v0.4l0.4-0.2l0.4,0.2l-0.2,0.2l0.4,0.7h0.4v0.9
							l0.7-0.2l-0.2,0.7l0.4-0.2l0.7,0.4v0.2l0.2,0.2v0.9l0.9-0.4v0.7l0.2-0.4l0.7,0.4l-0.2,0.2l0.7,0.7v-0.4h0.9h0.2l0.2,0.9v-0.2
							l0.7,0.2l0.4-0.4l0.2,0.2h0.7h0.2l0.9-0.2l-0.2,0.4l1.1-0.2l0.4-0.4l0.9,0.2v-0.4h0.4l0.9-0.4h0.4l-0.2-0.4l0.7-0.4l0.2,0.2
							l0.4-0.9l0.2,0.2l0.9-0.9l0.4-0.4h-0.2l0.9-0.4l-0.2-0.2l0.7-0.9h0.7v-0.2l0.4-0.7l-0.4-0.4v-0.2h0.4v-0.9l0.2-0.4h0.4v-0.7
							h-0.2l0.4-0.9l-0.4-0.2l0.7-0.4l-0.4-0.7v-0.2v0.2l-0.2-0.4v-0.7l-0.2-0.2l0.2-1.1l-0.4,0.2l0.2-0.4l-0.4-0.4l0.2-0.2
							l-0.4-0.4v-0.4l-0.2-0.4l-0.9-0.2l-0.4-0.2l-0.4-0.4l0.2-0.2v-0.4l-0.7-0.7v0.4l-0.4-0.4v-0.7l-0.4,0.2v-0.9l-0.7,0.2v-0.9
							l-0.4-0.2l-0.4,0.4l0.2-1.1l-0.4,0.4v-0.9v-0.4l-0.2-0.9h0.7v-1.1l-0.4,0.2l0.7-0.4h0.2l0.2-0.2l0.7-0.2l0.2-0.4l0.4,0.2
							l0.2-0.4h0.7l1.1,0.2V579v1.1l0.4-0.2h0.7v0.7l0.7,0.4L1340.9,581.5z M1332.4,523.4v0.9h-0.4v0.4l-0.2,0.2h-0.2v0.4h-0.7
							l-0.2-0.2l-0.4,0.4l0.2,0.7l-0.4-0.2l-0.4,0.7l-0.4,0.4l0.2,0.4l-0.7-0.2l-0.2,1.1l-0.4-0.4l-0.2,0.2l0.2,0.7l-0.7-0.2v0.4
							l-0.7,0.7v0.2h-0.2l-0.4,0.2l0.2,0.7l-0.2-0.2l-0.9,0.2l-0.2,0.4l0.2,0.2l-0.7,0.2v0.7l-0.2,0.2l-0.4-0.2l-0.4,0.4l0.4,0.7
							l-0.2,0.2l-0.2-0.2l-0.4,0.7l-0.2,0.4l-0.7-0.2v0.7l-0.4-0.4l-0.4,0.7l0.4,0.2l-0.2,0.2l-0.4,0.7v-0.2l-0.2,0.7l-0.4,0.2v0.2
							h-1.1l0.2,0.7l-0.2-0.2v0.2l-0.7,0.2l0.2,0.9h-0.4l-0.7,0.2l-0.7,0.4l0.2,0.7l-0.2,0.2l-0.4,0.2h-0.2l-0.4,0.7h-0.2l-0.2,0.2
							l-0.4,0.7l-0.2,0.4v0.2h-0.9l0.2,0.4l-0.7,0.2l-0.2,0.2l0.4,0.4l-0.4,0.4l-0.7-0.2l-0.4,0.7l0.2,0.4l-0.2-0.4l-0.4,0.7
							l0.2,0.2l-1.1,0.2l0.4,0.2l-0.4,0.4l-0.2,0.4l-0.2-0.2l-0.7,0.2l0.4,0.4l-0.4,0.2l-0.7,0.2h-0.2l-0.2,0.9h-0.2v0.7l-0.4-0.2
							l-0.7,0.9l-0.9,0.4v0.7v-0.4v0.9l-0.7-0.4l-0.4,0.7l0.4,0.4l-0.2,0.2h-0.9v0.2l-0.2,0.7h-0.4v0.4l-0.2,0.2h-0.7l0.2,0.4
							l-0.4,0.4h-0.7l-0.2,0.2l0.2,0.2l-0.4,0.7h-0.4l0.2,0.2l-0.2,0.7h-0.9l0.2-0.2l0.2,0.7h-0.9l-0.2,0.4l-0.2,1.1v-0.4l-1.1,0.7
							l-0.9,0.2l-0.9-0.4v0.4l-0.9-0.4V559l-0.4-0.2l-1.1-0.4l0.7-0.4l-0.7-0.2l-0.4-0.4l0.9-0.9v-0.2l-0.2-0.2v-0.2l0.9-0.7
							l-0.2-0.2l0.2-0.9l0.4-0.4l0.4,0.2l-0.4-0.4l0.4-0.7l0.7-0.2l0.4,0.2v-1.1l0.2,0.2h0.2l0.2-0.7h0.7l-0.2-0.7l0.4,0.4l0.4-1.1
							l-0.2,0.2l0.4-0.9v0.4l0.9-0.7l0.2-0.2v-0.4v0.2l0.4-0.2l0.2-0.2v-0.2v-0.7l0.7,0.2l0.4-0.2l-0.4-0.7l0.7-0.2l0.2-0.4h0.4
							l0.2-0.2v-0.2h0.7l0.2-0.4l-0.2-0.2l0.2-0.7h0.2l0.7-0.7h0.7l0.2-0.4h0.2l0.2-0.7h0.2l0.7-0.7l-0.2-0.7l0.2,0.4l0.4-0.4v-0.9
							l0.4-0.2h0.2l0.4-0.7h-0.2l0.2-0.2l0.2-0.9h-0.4l0.4-0.2l-0.4-0.9h0.7v-0.7v-0.7v0.2V535v0.2l-0.4-0.7h0.4v-0.7l-0.7-0.4v-0.4
							l0.2-0.2l-0.4-0.7l0.4-0.4l-0.4-0.2l-0.7-0.7l-0.2-0.4l-0.4-0.9h-0.2l-0.7-0.9l-0.2-0.2l-0.2-0.4l-0.7-0.2l-0.4-0.2h-0.2v-0.4
							h-0.4l-0.4-0.4l-0.4-0.2l-0.4-0.7v0.2l-0.9-0.2v0.4l-0.7-0.7l-0.7,0.2l0.2-0.2l-0.9-0.7l-0.2,0.7l-0.7-0.2v0.2l-0.7-0.4
							l-0.4,0.2l0.2,0.2h-0.9l-0.4,0.4l-0.9-0.4l-0.4,0.2l-0.2,0.2v0.4l-0.2,0.2h-0.7v-0.2l-0.7,0.9l-0.2-0.2l0.2,0.7l-0.4-0.2
							l-0.4,0.2v0.4h-0.2l-0.4,0.9l-0.7,0.2l-0.2,0.4v0.2h-0.7l-0.2,0.9l-0.7,0.9l-0.9-0.2h0.4l-0.4,0.2v0.9l-0.4-0.2l-0.2,0.4
							l-0.2,0.7l-0.7,0.4l-0.4-0.2l0.2,0.2l-0.2,0.2l-0.4,0.4h-0.4l-0.4,0.9h0.2l-0.7,0.2v0.4l-0.4-0.2v0.9h-0.2l-0.4,0.4h-0.7h0.4
							l-0.4,0.4l-0.2,0.7l-0.7,0.7l-0.2-0.2l-0.2,0.9l-0.7,0.4l-0.2,0.2l-0.2,0.4l-0.2,0.4h-1.1h0.4l-0.4,0.2l-0.9,0.4l-0.9-0.4v0.7
							l-1.1-0.4h0.2l-0.9-0.4l-0.2-0.4v-0.4l-0.2-0.7l-0.4-0.7l-0.2-0.4v-0.2l0.4-0.7v-0.2h0.4l-0.2-0.9l0.4-0.4h0.4l0.4-0.7
							l0.2-0.4v-0.2l0.7-0.2v0.4v-0.9l0.7,0.4l-0.2-0.9h1.1l-0.4-0.2l0.2-0.4l0.7-0.2V532l0.9,0.2l0.2-0.2l-0.4-0.4l0.9-0.4l0.2,0.2
							v-0.9v-0.2h0.7l-0.4-0.2l0.9-0.4l0.2,0.2v-0.7v-0.2l0.4-0.7h0.7l0.4-0.7l0.4,0.2l-0.2-0.7h0.4l0.2-0.2l0.2-0.4h0.4l-0.2-0.7
							h0.9v-0.2l0.2-0.4l0.4-0.2h0.2v-0.7l0.9-0.2l-0.7-0.4l0.4-0.4h0.7h-0.2l0.4-0.2l0.7-0.2l0.2-0.7l-0.4-0.2l1.1-1.1l0.7,0.2
							l-0.4-0.7l0.9,0.2l0.2-0.4l-0.4-0.2l0.4-0.4l0.9-0.2l0.4-0.4h-0.4l0.2-0.2v-0.4l1.1-0.2v-0.7l-0.2,0.2l0.4-0.7h0.2h0.7
							l-0.2-0.4l0.4-0.9l0.7,0.2l-0.4-0.4l0.7-0.7l0.4,0.4l0.4-0.2l-0.4-0.7h0.4l0.7-0.4l-0.4-0.4l0.9-0.2l0.9-0.9l-0.2-0.4l0.4-0.2
							h0.4l0.7-0.2v-0.7v0.2l0.2-0.9l0.2-0.4l0.9,0.2l-0.2,0.2v-0.7l0.7-0.2v-0.9h0.9l0.2-0.4l0.2-0.4l0.7-0.2l-0.2-0.7h0.9l0.2-0.9
							h0.4l-0.2-0.7l0.4,0.2v-0.2l0.4-0.4h0.2V504h0.9l0.4-0.9h0.2l0.2-0.4v0.2l0.4-0.4v-0.9h0.9v-1.1h1.1l0.2-0.4l0.2-1.1v0.2h0.4
							l0.2-0.7h0.4l0.4-0.7h0.2v-0.2l0.4-0.4l0.2-0.9l0.2,0.7l-0.2-0.7l0.9-0.7l0.2,0.4l0.2-0.9l0.2,0.2l0.4-0.7h-0.2h0.4l0.2-1.1
							l0.4,0.4l0.4-0.4V493l0.2,0.2l0.2-0.4l0.2-0.7h0.2l0.2,0.4l0.4-0.4l-0.4-0.7l0.9,0.2l-0.2-0.4l0.4-0.4h0.2l0.7-0.2l-0.2-0.4
							l0.2-0.2l0.4-0.2l0.2-0.7h0.2l0.2-0.7h0.2l0.4-0.4h0.7l-0.2-0.2l0.4-0.7l0.2-0.2l0.7-0.4l0.2-0.2l-0.2-0.4h0.2l0.4-0.2
							l0.7-0.9l0.4,0.2l0.7-0.7V484v-0.4h0.2l0.4-0.7v-0.2l0.9-0.2l0.4-0.4l-0.2-0.4v-0.2h0.4l0.7-0.2v-0.9l0.7-0.2v-0.7l0.4-0.2
							l0.4,0.4v-0.4l0.4-0.7l0.2-0.7l0.7-0.9h0.4l1.1-0.4l-0.2-0.2l-0.2-0.4l0.7,0.2l0.4-0.4l0.2-1.1l0.2,0.4l0.4-0.9l0.2,0.4v-0.4
							l0.7-0.2V473l0.4-0.2l0.2-0.2l0.7-0.2v-0.2l0.4-0.2l-0.4-0.4l0.4-0.2l0.4-0.2h0.4l0.7-0.7l-0.2-0.7h0.9l-0.4-0.4l0.9-0.9
							l0.4,0.4v-0.7l0.4-0.9h0.7v0.2l0.4-0.7v0.2l0.7-0.9l0.4-0.7l-0.2-0.4l0.7-0.2h-0.2h0.7l-0.2-0.7l0.7-0.4l0.2-0.2l0.4-0.2h0.4
							v-0.9l0.9-0.4l-0.2,0.2l0.9-0.4h-0.4l0.2-0.7h0.2l0.9-0.2v-0.7l0.4-0.4l0.4-0.2h-0.2l0.4-0.7h0.4v-0.7v0.2l0.4-0.7l0.2-0.4
							l0.4-0.4h0.4h0.9l-0.2-0.2l0.4-0.9l1.1,0.4v-0.2h0.9h0.4v0.2l0.4,0.2l0.9,0.4l0.2,0.2v0.4v0.9l0.7,0.7l-0.9,0.2l0.7,0.7
							l-0.9,0.2l-0.2,1.3h-0.4l-0.4,0.2l-0.4,0.4l0.7,0.4l-0.7,0.7l-0.2-0.2l-0.4,0.4l-0.2,0.4h-0.4l-0.7,0.7l-0.2-0.2l0.2,0.7
							l-0.2,0.4l-0.4,0.7l-0.4-0.2l0.2,0.2l-0.2,0.2h-0.7l-0.7,0.4l-0.2,0.4l0.2,0.7l-0.4-0.4l-0.7,0.4v1.1l-0.4-0.2l-0.4,1.1
							l-0.4,0.2l-0.4,0.4l0.2,0.2l-0.9-0.2l0.2,0.7l-0.2,0.2l-0.7,0.2h-0.2v0.7l-0.2,0.4h-0.4l-0.4-0.2l-0.4,0.7l0.2,0.4l-1.1,0.4
							l0.2-0.2v0.7l-0.2,0.7l-0.4-0.2l-0.4,0.7h0.4l-0.2,0.7l-0.7,0.2v0.4l0.4,0.4l-0.7-0.2l0.2,0.4v0.4l-0.2,1.1l-0.7-0.2l0.2,0.4
							l0.4,0.2l-0.4,0.4l0.2,0.2l0.2,0.7h-0.2l0.4,0.9l-0.7,0.2v0.4h0.4v0.4l0.9,0.7l-0.4,0.4h0.2l0.4,0.9l0.2-0.2l0.2,0.7l0.7,0.4
							v0.2l-0.4,0.4h0.9l-0.2,0.7l1.1,0.2l0.4,0.9l0.2,0.4l0.4-0.2h0.2l0.2,0.4l0.4,0.4h0.4l0.7,0.4v-0.2l0.4,0.7v-0.2l0.9,0.7
							l0.4-0.2l0.2-0.4l0.2,0.2l0.4,0.2l1.3,0.2l-0.4-0.2h1.3l-0.2,0.2l0.2-0.7l0.4-0.2l0.7,0.4l0.4-0.4l0.2-0.4l0.9,0.7l-0.2-0.4
							l0.7-0.2v-0.4h0.2l1.1-0.2h-0.4l0.4-0.9l0.2-0.2l0.4,0.7l0.4-0.4l-0.2-0.9l1.1-0.4v0.4l0.2-0.7l0.7-0.4l-0.2-0.7h0.4h-0.2
							l0.4,0.2v-0.7l0.2-0.4l0.7,0.2v-0.9l0.7-0.2l0.2-0.2v-0.4l0.7-0.2h0.2v-0.2l0.7-0.7l0.2-0.2l-0.4-0.4l0.7-0.2l0.2,0.4V480
							l0.2,0.2l0.4-0.4h0.2l-0.2-0.4l0.4-0.4l0.4,0.2l0.7-0.4l0.2-0.2l-0.4-0.4l0.7,0.2l0.9-0.9l-0.2-0.2l-0.2-0.4l0.9-0.2l0.4-0.2
							l-0.7-0.2l0.7-0.7l0.4,0.2l0.7-0.4V475v-0.2l0.4-0.7h0.7l0.7-0.2l0.2,0.7l0.4-0.9v0.2h0.7h0.7v0.9h0.2l0.7,0.4l0.2,0.2v1.1
							l0.2,0.9l-0.2,0.7v0.7l-0.4-0.2l0.2,0.4l-0.7,0.2v0.9l-0.4-0.2l-0.4,0.4v0.4l-0.4,0.2l-0.7,0.2v0.7l-0.2-0.2l-0.4,0.4v0.9
							l-0.2-0.2h-0.2l-0.2,0.2l-0.4,0.7l-0.2,0.2l-0.4,0.2v0.4v0.2h-0.9l-0.2,0.7h-0.4v0.4l-0.2,0.2l-0.4,0.2l0.2,0.4l-0.4-0.2
							l-0.2,0.9l-0.2,0.4l-0.4-0.2h-0.2l0.2,0.7l-0.2,0.4l-0.4-0.2l-0.7,0.4v0.7l-0.7-0.2l-0.2,0.9v0.4l-0.2-0.2v0.4l-0.9,0.2
							l0.2,0.4l-0.9,0.4v0.2h-0.7l-0.2,0.2v0.2v0.4v0.2h-0.9l-0.4,0.7v0.2v-0.2l-0.9,0.9l0.4,0.4l-0.2,0.2h-0.4v0.4l-1.5,0.7
							l0.2,0.4l-0.4,0.2h-0.2v0.9l-0.4-0.2l-0.4,0.2l-0.9,0.9l0.4,0.7l-0.4-0.4l-0.2,0.4v0.2l-0.7,0.4l-0.4,0.2h0.4l-0.4,0.2
							l-0.2,0.4l-0.4,0.4l-0.4,0.2h0.2v0.4h-0.9l-0.2,0.2l-0.2,0.7v0.7l-0.7-0.4l-0.9,0.9l0.2,0.2v0.2l-0.2,0.2l-0.9,0.4h0.2v0.7
							h-0.9l-0.7,0.7l0.4,0.7l-0.4,0.4h-0.7l-0.2-0.2l-0.4,0.4v0.4v0.7l-0.4,0.4v-0.4l-0.2,0.7l-0.7-0.2l-0.2,0.2v0.7l-0.2,0.4
							l-0.4,0.2l-0.9,0.9l-0.2,0.7l-0.2,0.2h-0.4v0.4l-0.4-0.4v0.9h-0.7l0.2,0.4l-0.7,0.4v0.2l-0.7-0.2l0.2,0.2l-0.2,0.4v0.2
							l-0.9,0.9l-0.2,0.2l-0.2-0.4l-0.7,0.4v0.4l-0.9-0.2l-0.2-0.4l-0.4,0.7l-0.2-0.7l-0.4,0.2l-0.2-0.2l-0.9-0.4v-0.7h-0.2l0.2-0.4
							l-0.7-0.4v-0.2l0.2-0.2l-0.7-0.9l0.9-0.2v-0.7h0.2v-0.2l0.2-0.7l1.1-1.1v-0.4l0.7-0.2v0.4l0.4-0.2l0.2-0.7l-0.2-0.2l0.2-0.4
							l0.9-0.2V508l0.7-0.2l0.2-0.7v-0.2l0.2-0.7l0.2,0.4v-0.4v-0.4l0.4-0.4h0.4v-0.7l0.2,0.2V504l0.2-0.7v-0.2l0.2-0.2l0.4-0.7
							l-0.7-0.9h0.7h-0.2v-0.7v-0.2l-0.4-0.9v-0.4v0.2l-0.7-0.9l0.2-0.2l-0.2-0.9l-0.2,0.4l-0.4-0.9h-0.2v-0.4l-0.4-0.9l-0.4-0.4
							V495l-0.9-0.4l-0.4-0.7l-0.4,0.2l-0.4-0.9h-0.4l-0.2-0.2v-0.2l-0.4-0.2l-0.7-0.4h0.2h-0.9l-0.9-0.2l0.4-0.4h-0.7l-0.4-0.2
							l-0.4,0.4l-0.2-0.2l-0.7-0.4l0.2,0.2l-0.9,0.2l-0.2-0.7l-0.2,0.7l-0.9-0.4l-0.2,0.7l-1.1-0.2l-0.4,0.2v0.4l-0.7,0.2l-0.2-0.2
							l-0.4,0.7h0.2l-0.7,0.2l-0.4,0.7v-0.4l-0.9,0.4v0.9l-0.2-0.4l-0.9,0.7h0.2l-0.2,0.7l-0.2-0.4l0.2,0.9l-0.4,0.2l-0.9,0.2
							l-0.4,0.4l-0.2,0.4v0.2l-0.4,0.4v-0.2l-0.4,0.7v0.4l-0.2,0.2h-0.4h-0.4l0.4,0.4l-0.9,0.2l-0.7,0.4l0.4,0.7l-0.7-0.2l-0.7,0.7
							v0.2l-0.2,0.4l-0.4,0.2l0.4,0.2h-0.9l0.2,0.4v0.4l-0.9-0.2l-0.2,0.4l-0.2,0.4l-0.4,0.2l0.2,0.7h-0.9l-0.2,0.7l-0.4,0.2h-0.2
							l0.2,0.4l-0.2,0.4l-0.2-0.2l-0.7,0.4l0.2,0.7l-0.9-0.2l0.2,0.9l-0.7-0.2l0.2,0.4l-0.4,0.7h-0.2v0.4l-0.9-0.2l0.2,0.9l-0.7,0.2
							h0.4l-0.2,0.7h-0.2l-0.7,0.7h0.4v0.9v0.2l-0.7,0.2h0.2l-0.4,0.7l0.7,0.4l-0.2,0.2v0.7h0.2v0.9h-0.2l0.2,1.1l0.4,0.4v0.7h0.2
							l0.2,0.7l0.4,0.7v0.4l0.4-0.2l0.4,0.7l-0.2,0.2l0.9,0.4l-0.2,0.2l1.1,0.7l0.4,0.4v-0.2l0.4,0.9l0.2-0.2l0.9,0.7l0.2,0.4h0.2
							l0.4,0.4l0.4-0.4h0.4l-0.2,0.4h1.1l0.4,0.2v0.4h0.7l-0.2-0.2l0.9,0.4l0.2-0.7l0.7,0.7l0.7-0.7l0.2,0.2l-0.2-0.2h0.2l0.9-0.2
							l0.2-0.2l1.1,0.2l-0.2-0.4l0.2,0.2l0.7-0.4l0.4-0.2l0.4-0.2l0.4-0.2l0.2-0.9v-0.2l0.4-0.7l0.2,0.2h0.7l0.4-0.9h-0.2l0.2-0.2
							h0.7l-0.2-0.4l0.9-0.2l-0.2-0.7h0.7l0.4-0.4l-0.4-0.4l0.9,0.2l-0.4-0.4h1.1h0.2l0.9-0.4v0.7l1.1-0.2l-0.2-0.4l0.7,0.7
							l-0.2,0.4l0.2,0.2l0.4,0.4l0.4,0.2l-0.2,0.4l0.4,0.2v0.7v1.1v0.2h-0.9l0.2,0.4v0.4l-0.7,0.2l-0.2,0.7L1332.4,523.4z
							 M1393.5,534.8l0.2-0.7l0.4,0.2l0.2-0.2l0.4,0.2v-0.2l0.4,0.4v0.2h0.4l0.2-0.4l0.2,0.4l0.4-0.2h0.4l0.2-0.4l0.2,0.7l0.7-0.7
							v0.7h0.2l0.2-0.7l0.2,0.7l0.2-0.2h0.7l0.2-0.2l0.2,0.2l0.2,0.2l0.2-0.7v0.2l0.7,0.4h0.2v-0.4l0.4,0.4l0.4-0.4h0.2l0.2,0.4h0.4
							v-0.7h0.2v0.2l0.7-0.2h0.2l0.2,0.7l0.4-0.4v0.4h0.4v-0.4h0.4l0.4-0.2l-0.2,0.2l0.4-0.2l0.4,0.2l0.2-0.2l0.4,0.7l0.2-0.7v0.4
							l0.2-0.2l0.4,0.4l0.2-0.7l0.4,0.2l0.4,0.2l0.4,0.2l0.2-0.7l0.2,0.2h0.4l0.2,0.2l0.4-0.2v0.2h0.4l0.4-0.2h0.4l0.2-0.2l0.2,0.7
							l0.2-0.4l0.4,0.4l0.2-0.2v-0.4h0.7v0.7l0.7-0.2v-0.4v0.4l0.7-0.2v-0.2l0.7,0.7v-0.4h0.4l0.2-0.2v0.4l0.4,0.2v-0.7l0.4,0.2
							l0.4,0.4l0.7-0.4v0.2l0.4-0.4l0.2,0.4h0.7l0.7,0.2l0.4-0.4l-0.2,0.2l0.4-0.4v0.7h0.7v-0.7h0.2l0.4,0.7l0.2-0.2l0.4-0.2
							l0.2,0.2l0.2-0.2h0.2l0.4,0.4v-0.4h0.4l0.4,0.4h0.2v-0.2h0.7l0.2,0.2v-0.2l0.4-0.4l0.2,0.7l0.2-0.7l0.4,0.7l0.4-0.2l0.7-0.4
							l-0.2,0.2l1.1,0.4l0.9,0.4l0.2,0.9l0.4-0.2l0.2,0.9l-0.2,0.2v0.4l0.4,1.1l-0.7-0.2l0.2,0.7v0.7h-1.1l-0.2,0.2v0.2h-0.2h-1.1
							v0.2l-0.4,0.4h-0.7v-0.4v0.7h-0.7l-0.4-0.2v-0.4l-0.7,0.7v-0.2l-0.2-0.2l-0.4,0.2l-0.2-0.4l-0.4,0.7v-0.7l-0.7,0.4h0.2
							l-0.7,0.2v-0.2l-0.7-0.2h-0.2v0.2l-0.4-0.2h-0.2v0.2l-0.4,0.2l-0.2-0.4l-0.4-0.2v0.7l-0.7-0.2l-0.2,0.2l-0.2-0.4h-0.2
							l-0.2,0.2l-0.2-0.4h-0.4v0.4l-0.4,0.2v-0.2h-0.9l-0.2-0.4l-0.4,0.2v-0.2l-0.4,0.2l-0.2-0.2h-0.7l-0.2,0.7v-0.4h-0.2l-0.7,0.7
							l-0.2-0.2h-0.2v-0.2l-0.7,0.2h0.2l-0.2,0.2l-0.7,0.2l0.2,0.4l-0.2-0.2l-0.2,0.9l-0.4-0.4l-0.2,0.4l-0.4,0.4l-0.4,0.4h0.2
							l-0.2,0.7l-0.2-0.2l-0.2,0.4v0.7l-0.2,0.4h-0.2l-0.2,0.7h-0.4v0.4v1.1v-0.2v0.4v0.2l-0.2,0.9v1.1v0.4l-0.2,0.4l0.2,0.7
							l0.2,0.4v0.2l-0.2,0.2l0.2,0.4v0.4v0.4v0.9v-0.2l0.4,0.9l0.2-0.2v0.9l0.4,0.2h-0.4l0.2,1.1l0.4-0.2l0.2,0.7l0.2-0.2v0.9h0.4
							v-0.2l0.4,0.7h0.4l0.2,0.9l0.2,0.2h0.2l0.2-0.2h0.4l0.2,0.4v0.2l0.7-0.2v0.2l0.4-0.4v0.4l0.2,0.2l0.4-0.4v0.2l0.7-0.2l0.4,0.2
							h0.2l0.2-0.2h0.2l0.2,0.4l0.7-0.4h0.7l0.4,0.7l-0.2-0.2h0.2l0.7-0.4v0.4l0.2-0.2h0.2l0.4-0.2l0.4,0.2l0.2,0.4v-0.4l0.2,0.2
							l0.4-0.2l0.2,0.4l0.7-0.2v-0.2l0.4,0.2v-0.2l0.2,0.4l0.4-0.7l0.2,0.2h0.7l0.2,0.4l-0.2-0.2h0.4l0.4-0.2h0.7v0.2l0.7-0.4
							l0.4,0.2h0.2h0.4l0.4-0.2l0.7,0.7l-0.2-0.2l0.4,0.2l0.9,0.2h-0.2l0.4,1.1l0.4-0.4l0.4,1.1v-0.2l0.2,0.9l-0.2,0.4l-0.2,0.4
							l-0.4,0.7l-0.2,0.7l-0.2,0.4v0.2h-0.9v0.2l-0.4-0.2l-0.4,0.7h-0.4l-0.2-0.4l-0.4,0.2l-0.4,0.2h-0.2l-0.4-0.2l0.2-0.2l-0.4,0.4
							v-0.7l-0.4,0.7l-0.7-0.7l0.2,0.4h-0.4l-0.4-0.2l-0.4,0.4l-0.2-0.7h-0.4v0.7l-0.7-0.4v-0.2l-0.4,0.7h-0.2l-0.2-0.4v0.4
							l-0.7-0.2v-0.4l-0.4,0.4v0.2h-0.7l-0.2-0.4l-0.4,0.2l-0.2-0.4l-0.2,0.4l-0.2-0.2h-0.2l-0.4,0.2l-0.2-0.4l-0.2,0.7l-0.4-0.7
							l-0.2,0.2l-0.2,0.2l-0.4-0.2l-0.2-0.2l-0.2,0.4l-0.4-0.4v0.7h-0.4l-0.2-0.4v0.2l-0.4-0.2l-0.4-0.2l-0.4,0.2l0.2,0.4h-1.3
							l-0.2-0.7v0.7l-0.4-0.7l-0.2,0.2v0.4h-0.4l-0.7-0.7h-0.2v0.4h-0.2l-0.2,0.2l-0.7-0.7l-0.2,0.4l-0.4,0.2v-0.2l-0.4-0.4
							l-0.2,0.4l-0.7,0.2l-0.2-0.7v0.7h-0.9v-0.7h-0.2v0.7l-0.4-0.4l-0.4-0.2v0.7l-0.4-0.4h-1.1l-0.2,0.4h-0.2l-0.2-0.4l-0.4-0.2
							l-0.4,0.4l0.2-0.2l-0.7,0.4h-0.2l-0.4-0.7h0.2l-0.2,0.4l-0.7-0.4l-0.4,0.7l-0.4-0.7l-0.4,0.2h-0.2l-0.4-0.2l-0.4,0.7l-0.2-0.7
							l-0.7,0.4l-0.2-0.2l-0.2,0.4l-0.2-0.4v0.2h-0.4l-0.2-0.2l-0.2,0.2l-0.4-0.4l-0.7,0.2v-0.2l-0.4,0.2v-0.2h-0.2l-0.7,0.4v0.2
							l-0.4-0.7l-0.7,0.7l-0.4-0.7h-0.4l-0.7,0.7l0.2-0.2l-0.4-0.2l-0.4,0.2l-0.2-0.2h-0.7v-0.2l-0.2,0.2h-0.4l-0.4,0.4l0.2-0.7
							l-0.4,0.7l-0.7-0.2v-0.4l-0.2,0.4l-0.2-0.2h-0.4v0.2l-0.2-0.4l-0.7,0.7v-0.7h-0.4l-0.4,0.4v-0.2h-0.4l-0.2,0.4l-0.4-0.2
							l0.2-0.4h-0.4v0.7l-0.4-0.7l-0.2,0.4h-0.4v-0.2l-0.4-0.2l-0.2,0.4h-0.2l-0.2-0.2l-0.4,0.2l-0.2-0.2l-0.4,0.4v-0.2h-0.4
							l-0.4-0.4v0.2l-0.4,0.2h-0.4l-0.4-0.2h-0.2l-0.2,0.4v-0.2l-0.4-0.2v0.2h-0.9v-0.4h-0.9v0.2l-0.2,0.2l-0.2-0.2l-0.4,0.2
							l-0.2,0.2l-0.4-0.7h-0.7v0.4v0.2l-0.4-0.4l-0.4-0.2l-0.4,0.7l-0.4-0.4l-0.2,0.4l-0.4-0.2v-0.4l-0.2,0.2h-0.7v0.2l-0.4,0.2
							h-0.9l-0.2-0.2l-0.7-0.4v0.2l-0.2,0.4l-0.2-0.7h-0.4l-0.7,0.7v-0.4l-0.7,0.2v-0.4v0.4l-0.7-0.4l-0.4,0.7l-0.2-0.2h-0.4
							l-0.2-0.4l-0.2,0.2l-0.2-0.2v0.7l-0.4-0.2h-0.4v-0.4h-0.9l-0.2,0.7l-0.4-0.7v0.4h-0.9v-0.4l-0.4,0.4l-0.7,0.2l-0.2-0.4v-0.2
							l-0.7,0.2l0.2-0.2h-0.9l-0.7,0.2v0.4l-0.4-0.2l-0.2-0.4l-0.4,0.7l-0.4-0.2h-0.2l-0.2-0.2l-0.4-0.2l-0.2,0.7l-0.7-0.4l-0.7-0.2
							l0.2,0.2l-0.4,0.4l-0.2-0.2l-0.4-0.4l-0.4,0.4h-0.4l-0.4-0.2l0.2,0.2h-0.7l-0.2-0.2l-0.2,0.4v-0.2l-0.4,0.2h-0.4h-0.4
							l-0.2-0.4l-0.7-0.4v0.2l-0.9,0.2l-0.4-0.9v-0.2l-0.2,0.2l-0.7-0.7l-0.2-0.2l0.2-0.2l-0.2-0.4l-0.2-1.1v-0.2l0.2-0.2l0.7-0.7
							l0.2-0.9l0.7,0.4v-0.9l0.9,0.4l0.9-0.9l0.2,0.4l0.4,0.2h0.2v-0.7h0.7l0.2,0.2h0.2l0.4-0.2l0.2,0.4h0.7v0.2l0.2-0.4l0.4-0.2
							h0.7v0.2v-0.2h0.4l0.2,0.4l0.7,0.2h0.2l0.2-0.7v0.7h0.7l0.7-0.7v0.4l0.9-0.4l0.4,0.2h0.2v-0.2l0.4,0.7l0.2-0.7l0.2,0.2
							l0.4,0.2v0.2l0.4-0.7h0.2l0.4,0.2v0.4h0.7l0.2-0.4l0.7,0.4h-0.2l0.4-0.4l0.4-0.2l0.2,0.4l0.4-0.2l-0.2-0.2l0.4-0.4l0.7,0.4
							v-0.2l0.2-0.7v0.4l0.2-0.2l0.2-0.4l0.7-0.4l0.2,0.4l0.2-0.4l-0.2-0.4h0.4v-0.2l0.2-0.7l0.2,0.2l0.2-0.9l0.7,0.2v-0.2v-0.4
							v-0.2v-1.1h0.7l-0.4-0.2l0.4-0.9h-0.2l0.2-0.7v-0.7v-0.2h0.4l-0.4-0.7l0.4-0.2l-0.4-0.9l0.2-1.1l0.2-0.4l-0.4-0.2v-0.4
							l0.2-0.7l-0.2-0.4l-0.2-0.7h-0.2l0.2-0.7l-0.2,0.2v-1.1l-0.2-0.2l-0.4,0.2v-0.4v-0.4h-0.2l-0.4-1.1v0.4l-0.7-0.9h0.4l-0.7,0.2
							l-0.2-0.2l-0.2-0.7h-0.4h-0.2l-0.2-0.9v0.2l-0.7-0.2v0.2h-0.2l-0.7-0.7l0.2,0.2l-0.7,0.2h-0.2v-0.7h-0.4l-0.4,0.7l-0.7-0.4
							l0.2-0.2l-0.4,0.2l-0.4-0.2l-0.4,0.7l-0.2-0.4v0.2v-0.4l-0.4,0.4l-0.2,0.2l-0.2-0.7l-0.4,0.4l-0.4-0.2h-0.2l-0.2,0.4l-0.4-0.4
							l-0.2-0.2l-0.2,0.2h-0.7l-0.2-0.2v0.7l-0.4-0.2l0.2-0.4l-0.7,0.7v-0.2h-0.4v-0.2l-0.4,0.4h-0.2v-0.4l-0.9-0.2h-0.2v0.7
							l-0.2-0.7h-0.9v0.2v0.4l-0.7-0.4l-0.2-0.2v0.7h-0.7v-0.4l-0.7-0.2v0.2l-0.2,0.2h-0.9l-0.2-0.4l-0.7-0.4l0.2-0.4l-0.9,0.2
							l0.2-0.2l-0.4-0.4l-0.4-0.4l0.4-0.7v-0.2l-0.2-0.7v-0.4l0.9-0.7l0.4-0.7V535l0.7-0.2l0.4-0.4l0.2,0.4l0.2-0.4l0.4,0.2l0.4-0.4
							v0.4h0.7l0.2-0.2l0.2,0.2l0.4,0.2l0.4-0.4v0.2l0.4,0.2l0.4-0.7v0.2v0.2h0.4l0.4-0.2l0.2,0.2h0.4l0.2-0.2v-0.2l0.4,0.7l0.7-0.2
							l0.2,0.2l0.2-0.2h0.2l0.2,0.2l0.2-0.4l0.2,0.4l0.4-0.4l0.4-0.2v0.4l0.2,0.2l0.2-0.7h0.2l0.2,0.4h0.4l0.4-0.4l0.2,0.7l0.7-0.4
							l0.2-0.2v0.2l0.2-0.2l0.7,0.4v-0.4l0.7,0.2h0.2l0.2,0.4h0.2l0.2-0.2l0.2-0.2l0.2-0.2l0.4,0.7h0.4l0.2-0.2v0.2h0.9v-0.7
							l0.4,0.4l0.2-0.4l1.1,0.7v-0.4l0.4,0.2l0.2,0.2l0.2-0.7l0.2,0.4l0.4,0.2h0.9l0.2-0.7v0.4h0.2l0.2-0.2l0.4,0.2l0.4,0.2
							l-0.2-0.4l0.2,0.2l0.4-0.2h0.4l0.4,0.2h-0.2l0.2-0.4l0.4,0.7h0.2l0.4-0.2l0.4-0.4l0.2,0.7h0.9v-0.2v-0.2h0.4l0.7,0.4l-0.2-0.2
							l0.2-0.4l0.7,0.7h0.7v-0.7h0.7l0.2,0.4v0.2h0.4l0.2-0.2l0.4-0.4h0.4l-0.2,0.2l0.4-0.2l0.2,0.7h0.2l0.4-0.4l0.2-0.2l0.2,0.2
							h1.1l0.4-0.2h0.2l0.2,0.2l0.4-0.2v0.7l0.2-0.7l0.4,0.4v-0.4l0.7,0.2l0.2-0.2v0.7l0.2-0.2l0.2-0.2l0.2-0.2l0.9,0.2h0.2v0.4
							l0.4,0.2l0.2-0.4l0.4,0.9l-0.2,0.4l0.7-0.2l-0.2,0.7l0.4,0.2l-0.2,0.2l0.2,0.9l-0.4,0.7h0.2l-0.4,0.2l0.2,0.9h-0.2l-0.4,1.1
							l-0.2-0.4l-0.4,0.4l-0.2-0.2v0.2l-0.7,0.2h-1.1l-0.2,0.2l-0.4-0.2l0.2-0.2l-0.2-0.2l-0.7,0.2v0.4h-0.4l-0.4-0.4l-0.2,0.2
							l-0.2-0.4l-0.7,0.4l-0.4,0.2v-0.4l-0.2,0.4l-0.2,0.2h-0.4l-0.2-0.2l-0.4,0.4V541l-0.4,0.7l-0.4,0.2l-0.2,0.2h-0.2h0.2
							l-0.7,0.2l-0.2,0.9l-0.2-0.4v0.2l-0.2,0.4l-0.2,0.2l-0.2,0.9l-0.2,0.2v1.1h-0.4l-0.2,0.7l0.2-0.2l-0.2,0.9l0.2,0.2l-0.2,0.4
							l-0.4,0.9v0.7l0.2,1.1l-0.2,0.7l0.4,0.2l-0.4,0.9l0.4,0.4v0.2l-0.2,0.2l0.2,0.4v0.7l0.2,0.4l0.4,0.9h-0.4l0.4,0.4v0.4h0.4v0.4
							l0.2,0.7v-0.2l0.4,0.4v0.7l0.2-0.2l0.2,0.9h0.2l0.2-0.2l0.7,0.9l0.2,0.2l0.2-0.4l0.4,0.4v0.2h0.4v-0.2l0.4,0.4l0.7-0.2
							l-0.2,0.2l0.7,0.4l0.4-0.7v0.4l0.7,0.2v-0.2l0.4-0.2v0.4l0.2-0.7h0.4l0.4,0.7v-0.2l0.4,0.2l0.4-0.2v-0.2h0.4v0.2h0.7v-0.4h0.4
							l0.2,0.4v0.2l0.2-0.7l0.4,0.4v0.2h0.7l0.2-0.7v0.7h0.9v-0.2l0.4-0.2l0.4,0.2l-0.2-0.4l0.4,0.7v-0.4l0.4-0.2l0.2,0.7h0.4
							l0.2-0.2l0.4,0.2l0.2-0.7l0.4,0.7l0.4-0.2h0.2l0.2,0.2l0.2-0.4l0.2-0.2v0.2l0.7,0.2l0.2-0.4l0.4,0.7l0.2-0.7l0.2,0.7l0.2-0.4
							l0.4-0.2l0.2,0.2l0.2-0.2l0.4,0.7l0.2-0.9l0.4,0.4l-0.2-0.4l0.7-0.2v0.2h0.7l-0.2-0.2l0.4-0.7v-0.2l0.7,0.4l-0.2-0.2l0.7-0.2
							v-0.7h0.2l0.2-0.4v-0.2l0.4-0.7l0.2,0.2l0.2-0.9v-0.7l0.7-0.4l-0.2-0.2l0.2-0.4v-0.9l0.4-0.2l-0.4-0.2v-0.9h0.4l-0.4-0.9h0.4
							l-0.2-1.3v-0.7l-0.2,0.2l0.4-0.9h-0.4v-1.1l0.2-0.4l-0.2-0.2v-0.7h-0.4l-0.2-0.2l0.4-0.2l-0.7-0.7v-0.4l0.2-0.4l-0.4-0.4v0.2
							l-0.2-0.9l-0.4,0.2v-0.9h-0.7v-0.2v0.2l-0.2-0.2l-0.4-0.4h-0.2l-0.4-0.9l-0.2,0.4V541h-0.4v-0.2h-0.4l-0.2-0.2l-0.4-0.2
							l-0.4,0.4l-0.4,0.2h-0.4v-0.2l-0.2-0.4l-0.7,0.2v0.2h-0.2l-0.4-0.4v0.4l-0.7-0.4l-0.2,0.4l-0.4-0.4h-0.4v0.7l-0.2-0.9v0.7
							l-0.7-0.7v-0.2l-0.7-0.4l0.2-0.4l-0.7-0.7v0.4v-0.9l0.2-0.2v-0.2l0.2-0.7l-0.2-0.4l0.2-0.2v-0.4l0.2-0.4l0.7-0.7v-0.2l0.7,0.7
							v-0.4l0.4-0.4l0.4,0.4l0.4-0.2L1393.5,534.8z M1381,504.5l-0.9,0.2v-0.4h-0.4l-0.2-0.4l-0.2,0.2v-0.7l0.2-0.2l-0.4-0.2
							l-0.4,0.2l0.2-0.4l-0.7-0.2l-0.2-0.2h-0.7l0.4-0.4h-1.1l0.4-0.4l-0.2-0.2l-0.4,0.2v-0.7h-0.2l-0.4-0.2l-0.4-0.2v-0.2v-0.2
							l-0.7,0.2l0.2-0.2l-0.2-0.7l-0.2-0.2l-0.4,0.4v-0.7h-0.7l-0.2-0.2l0.2-0.4l-0.2-0.2l-0.7,0.4l-0.2-0.2h0.2l-0.7-0.2l-0.2-0.2
							l0.2-0.7h-0.7l0.4-0.4l-0.4-0.2l-0.2,0.4l-0.4-0.2l-0.4-0.2l0.2-0.2h-0.4l-0.2-0.4h-0.2v-0.9l-0.7,0.4l0.2-0.4l-0.2,0.2v-0.7
							l-0.9,0.2v-0.4l-0.2-0.4l-0.2-0.4l-0.7,0.4v-0.4l-0.2-0.2l-0.2-0.2l-0.4-0.2v-0.2l-0.2-0.2l-0.7-0.2l-0.2-0.2h-0.2l0.2-0.7
							l-0.7,0.2v-0.7h-0.4l-0.2,0.2l-0.4-0.2l0.4-0.7l-0.7-0.2l-0.4,0.2l0.2-0.2l-0.4-0.2l-0.2,0.2v-1.1l-0.4,0.4l-0.2-0.2h-0.4
							l0.4-0.4l-0.4-0.4l-0.4,0.4l-0.2-0.4v-0.7h-0.7v-0.2h-0.7l0.2-0.4l-0.7-0.7l-0.4-0.4h-0.4h0.2h-0.7l0.2-0.4l-0.4-0.4l-0.4,0.4
							l-0.2-0.9h-0.2h-0.4v-0.4h-0.2l-0.2-0.2v-0.4l-0.4,0.2l-0.4-0.2v-0.7l-0.2-0.2v0.2l-0.7-0.4v-0.2h-0.2h-0.7l0.2-0.7l0.2,0.2
							l-0.7,0.2v-0.7l-0.4-0.2l-0.9-0.2h0.2l-0.4-0.9l-0.4-1.1l0.4-0.7l-0.4-0.2l0.2-0.9h0.4l0.2-0.2l0.4-1.1l0.2,0.4l0.4-0.7
							l0.2-0.4l0.9,0.7h0.4v-0.2l0.2,0.2l0.9,0.7l0.2-0.2h0.7l0.4,0.4l-0.2,0.4l0.4-0.4l0.4,0.2l0.2,0.4l-0.2,0.4h0.9v0.2v0.2h0.4
							l-0.2,0.7l0.9-0.2l-0.4,0.4h0.9h-0.2l0.7,0.2l-0.2,0.2l0.4,0.7h0.2h0.4h-0.2v0.4l0.4,0.2l0.2-0.2h0.4l-0.2,0.7l0.2,0.4
							l0.4-0.7l0.4,0.7h0.2v0.4l0.2,0.2h0.2v0.4l0.2,0.2l0.2-0.2l0.7,0.2h-0.2l0.7,0.7v0.4l0.4,0.2l0.4,0.2v0.2l0.7,0.4l0.4-0.2
							l-0.2,0.2l0.2,0.2h0.9v0.2l0.2,0.2v0.2l0.4,0.2v-0.2h0.2l0.7,0.2l0.2-0.4v0.4l0.9-0.7l-0.2,0.7h0.7l0.7-0.2h-0.2h0.9l-0.2-0.2
							l0.7-0.2v0.2l0.4-0.2l0.4-0.4l0.4-0.2l0.2,0.2l0.4-0.4l0.4,0.2l0.2-0.2l0.7-0.9l0.2-0.2h0.2l0.9-0.7h-0.2l0.9-0.9l0.2-0.2
							l0.4-0.2l0.2-0.7v-0.4l0.2-0.2l0.2-0.2l0.2-0.2l0.2-0.4l0.2-0.4l0.7-0.7l-0.2,0.2l0.2-0.9h-0.2l0.4-0.7v-0.4l0.2,0.2l0.4-1.1
							l-0.4-0.2l0.2-0.4h-0.2l0.4-0.7l-0.4-0.4v0.2v-0.7l-0.4-0.4l0.4-0.9v-0.2l-0.2-0.2h-0.4l-0.2-0.2l0.2-0.4v-0.2l-0.7-0.2v-0.2
							h-0.4l0.2-0.2l-0.2-0.4l-0.4,0.2v-0.4l-0.7-0.2l-0.2-0.4h-0.4v-0.2v-0.7h-0.9l-0.7-0.4l0.2-0.7v0.2l-0.2-0.2h-0.7l0.2-0.4
							h-0.4l-0.7-0.2l-0.2-0.4l0.2-0.4l-0.2,0.2l-0.2-0.2l-0.4-0.2v-0.4l-0.7-0.2v0.2l-0.2-0.4h-0.2v-0.4l-0.7,0.2v-0.2l-0.4-0.4
							v-0.4v0.2l-0.4-0.4h-0.4l-0.4-0.4v-0.2h-0.7l-0.4-0.7h-0.2l-0.2-0.4h-0.4l-0.2-0.9v0.2v-0.4l-0.7-0.7h0.2l0.4-1.1h-0.7
							l0.2-1.1v0.2l0.2-0.9l0.7-0.2h0.4l0.7-0.2l0.7-0.4l0.4-0.2v-0.2l0.7,0.7l0.2-0.2l0.2,0.4l0.7-0.2l0.4,0.2v0.7h0.4l0.4,0.2h0.2
							l0.2,0.4l-0.2,0.2l0.4-0.2l-0.2,0.7l0.7-0.2v0.9l0.2-0.4l0.4,0.2l0.2,0.4h0.7l-0.2,0.7l0.2,0.2l0.4-0.4l0.2,0.7l-0.2,0.2
							l0.9-0.2l0.2,0.2l-0.2,0.4l0.4-0.2l0.4,0.4l-0.4,0.4h0.7l0.2-0.2l0.4,0.4v0.4l0.4,0.2v0.7l0.4-0.4v0.4l0.2,0.2h0.4v0.4
							l0.4-0.2l0.2,0.9l0.2-0.2h0.2l0.2,0.4v0.2h0.4l0.2,0.7l0.4-0.4l0.2,0.2v0.4l0.2-0.2v0.4l0.2,0.4l0.7,0.2v-0.4l1.1,0.9
							l-0.2,0.7l0.4-0.4l-0.2,0.7h0.4l0.2-0.4l0.4,0.4v0.9l0.4,0.2l0.2-0.4l0.2,0.2h0.2l0.2,0.9h0.4l-0.2-0.2l0.7,0.2l-0.2,0.2
							l0.2,0.7l0.2-0.2l0.9,0.2l-0.2,0.7l0.4-0.4l0.4,0.4l-0.2,0.4l0.2,0.2l0.4-0.4v0.7l0.2,0.4l0.4-0.4l0.2,0.7l0.7,0.7l0.4-0.2
							l0.2,0.2v0.4l0.2,0.4h0.7h-0.2h0.7l0.2,0.2l-0.2,0.9v-0.2l0.4-0.2l0.2,0.9l0.7-0.2h0.2l-0.2,0.7l0.4,0.2l0.2,0.2l0.2,0.4
							l0.9-0.2l-0.2,0.7h0.7l0.2,0.4l0.4-0.2l-0.2,0.4l0.2-0.2l0.4,0.4v0.2h0.2l0.2,0.7l0.7,0.2v0.2l0.4,0.2h-0.2l0.2,0.2h0.7h0.2
							v0.7h0.9v0.9l0.2,0.2h1.1h-0.2v0.4l0.7,0.2v0.2l0.4,0.4l-0.2,0.2h0.4l0.2,0.2h0.9l-0.7,0.4l0.7-0.4l0.4,0.7l-0.2,0.4l0.7-0.2
							l-0.2,0.4l0.4,0.2l0.2-0.2l-0.2,0.4h1.1l-0.4,0.4l0.4,0.4l0.4-0.2l-0.2,0.2l0.4,0.2h0.7v0.4l-0.4,0.2l0.4,0.2l0.4-0.4v0.9
							l0.2-0.4l0.4,0.4v0.2l0.2,0.4l0.2-0.2h0.2l0.2,0.4l0.4,0.2v0.2h0.7v0.2l0.2,0.2v0.7l0.2-0.2l0.7,0.2l0.2,0.2l0.2,0.4l0.2,0.2
							l0.4-0.2v0.2v0.4l0.2-0.2l0.7,0.7l-0.2,0.2l0.7,0.7l0.2-0.2h0.2v0.4h0.7h0.2v0.9l0.4,0.4l0.2-0.4h0.4l-0.2,0.4l0.4,0.4
							l0.7-0.2l0.2,0.9l0.4-0.2l0.2,0.4l-0.2,0.2h0.2l0.4,0.4l0.2-0.2l0.4,0.2l0.7,0.7l0.2,0.2l0.2,0.9l0.2-0.2l0.4-0.2l-0.4,0.7
							l0.4,0.4l1.1-0.2l-0.4,0.2l0.7,0.4l-0.2,0.2l0.4-0.2v0.7l0.9-0.2l0.2,0.4l0.2,0.2v0.7l0.2-0.2v0.4l0.4-0.4l0.2,0.4l0.2,0.2
							v0.4l0.7,0.4l0.4-0.4v0.9l0.2-0.2l0.9,0.7l-0.2,0.2h0.4l0.7,0.2v0.4v0.2l0.4,0.2h-0.2l0.7,0.7l0.7,0.2l0.4-0.2l0.2,0.4h-0.2
							v0.4l0.7-0.2l0.4,0.4l0.2,0.2v0.4v0.2l0.9-0.2l0.2,0.9l-0.2-0.2l0.4,0.7v-0.2h0.7v0.2l0.2,0.7h0.4l0.4,0.2l0.2,0.4v-0.2
							l0.4,0.4v0.2l0.7-0.2l-0.2,0.2l0.7,0.2l0.2,0.2l0.4,0.4l-0.2,0.2l0.2,0.9l0.2-0.2l0.9,0.4l-0.2,0.9l-0.2,0.2h0.2l0.2,0.9v0.4
							h-0.2l-0.2,0.4l-0.4,0.9l-0.2,0.2h-0.2l-1.1,0.2l-0.7,0.4l-0.2-0.7l-0.7,0.7l-0.2-0.9h-1.3l0.2-0.4l-0.4-0.4l-0.2-0.2
							l-0.4,0.4l-0.4-0.4v-0.2l-0.2-0.2h-0.4v-0.7l-0.4-0.4h-0.4h-0.4l-0.4-0.4v-0.2l-0.2,0.2l-0.2-0.2l0.2-0.4l-0.4-0.7l-0.2-0.2
							l-0.7,0.4l0.4-0.7l-0.4-0.2h-0.9V510l-0.9-0.2l-0.2-0.4l-0.2-0.2l-0.2,0.2l0.2-0.9l-0.7,0.4v-0.4l-0.2-0.4v-0.2l-0.7,0.2h-0.2
							l-0.2-0.4l0.2-0.4l-0.4-0.4l-0.4,0.2l-0.2-0.7h-0.7h-0.4l0.2-0.4l-0.4-0.2l-0.2,0.2h-0.4l-0.2-0.7l-0.2,0.2l-0.7,0.4l0.2-0.4
							h-0.2l-0.4,0.2l-0.9-0.2v-0.4l-0.2,0.2l-0.2,0.4l-0.4-0.2v0.2l-0.7,0.2v-0.2l-0.9,0.4l-0.2-0.4h-0.2l-0.2,0.4h-0.2l-0.7,0.9
							l-0.4-0.2v0.2l-0.7,0.7l-0.4,0.4l-0.4,0.4l-0.2,0.2l-0.4-0.4v0.9l-0.4-0.2l-0.2,1.1l-0.9,0.7l-0.4,0.2l0.2,0.4l-0.4,0.2
							l-0.4,0.4v0.7l-0.4,0.4l0.2,0.2l-0.7,0.4l0.2-0.2l-0.4,1.1v0.2l0.4,0.2l-0.2,0.2l-0.2,0.4l-0.2,1.3l0.2-0.4v1.1l-0.2-0.2
							l0.4,0.2l0.2,0.2l-0.4,0.7l0.4,0.4l0.2,0.2l-0.4,0.7h0.2l0.4,0.4h0.2l0.2,1.1V521l0.7,0.4h0.2l-0.4,0.4l0.2,0.4l0.9-0.4
							l0.2,0.9h-0.2l0.4,0.2l0.2,0.4l0.7-0.2v0.4v-0.2v0.4h0.4h0.4l-0.2,0.7h0.7l0.2,0.4l0.2,0.2l0.2-0.2l0.2,0.7v0.2l0.2-0.2
							l0.7,0.4v0.4l0.4-0.4l0.2,0.4l-0.4,0.2h0.9l0.4,0.4l-0.2,0.2l0.4-0.2l0.4,0.2l-0.4,0.4l0.4,0.7h0.2l0.4-0.4l-0.2,0.7l0.7,0.7
							l0.2-0.2l0.4-0.2v0.7l0.2,0.4l0.4-0.7l0.4,0.4l-0.2,0.4l0.4,0.7l0.2-0.2h0.2l0.7,0.4l-0.2,0.7l0.4,0.7l-0.7,0.2l0.9,0.4h-0.2
							v0.7v0.4l-0.7,0.4h-0.2l-0.2,0.7l-0.2,0.4h-1.1l-0.9,0.2l-0.7-0.2l-0.7,0.2v-0.7l-0.4,0.2V535h-0.9l0.4-0.2l-0.4-0.4h-0.4
							v-0.4l-0.2-0.4l-0.7,0.2l0.2-0.2l-0.4-0.4l-0.7,0.2l0.2-0.2v-0.2l-0.2-0.2l-0.7-0.2V532l-0.4-0.2h-0.2l-0.2,0.2v-0.9h-0.4
							v-0.4h-0.4h-0.2v-0.4l-0.4,0.2l0.2-0.4h-0.9l-0.4-0.2l0.2-0.4v-0.2l-0.7,0.4l-0.2-0.2l0.2-0.4l-0.4-0.4h-0.7l0.4-0.4l-0.9-0.2
							h-0.4l0.2-0.2h-0.4v-0.7l-0.4,0.2l-0.4-0.4v-0.2V526l-0.2-0.2h-0.2h-0.4l-0.2,0.2v-0.9l-0.4-0.2h-0.2l0.2-0.2l-0.9-0.7
							l-0.2,0.7l-0.2-0.2V524l-0.4,0.2l-0.4-1.3l-0.4,0.2l-0.2-0.4l0.2-0.2l-0.9,0.2l0.2-0.4l-0.2-0.4l-0.7-0.4l-0.7,0.2l0.2-0.2
							l-0.2-0.2h-0.2l-0.2-0.4l-0.2-0.4l-0.2,0.4v-0.4h-0.4l-0.4-0.2v-0.4l-0.4,0.2V519l-0.2-0.2h-0.4h-0.7l0.4-0.7l-0.9-0.4
							l-0.2,0.2l-0.2-0.2l-0.4-0.9v0.4h-0.4v-0.9l-0.7-0.4l-0.4,0.4l-0.4-0.2v-0.7l0.2-0.2l-0.4-0.2h-0.2l-0.7,0.2l-0.2-0.4h0.2
							l-0.4-0.2l0.2-0.7h-0.2h-0.7h-0.4v-0.4l-0.9-0.7h-0.4l-0.2-0.2l-0.2-0.4h-0.2l0.4-0.4l-0.9,0.2v-0.7l-0.2,0.4l-0.2-0.7h-0.4
							l0.2-0.4h-0.2h-0.2h-0.4l-0.4-0.7l-0.2-0.2l0.2-0.2l-0.2-0.7l-0.4,0.2l0.2-0.9l0.4-0.2l-0.7-0.2l0.7-0.4l-0.2-0.4h0.2l0.4-0.9
							l0.7-0.2v-0.2l0.4,0.2l0.4-0.9v0.2h0.2l0.9-0.7v0.7h0.7v0.2l0.2-0.2l0.4,0.2l1.1,0.9h0.2l0.2,0.2l-0.2,0.2v0.2l0.7,0.2
							l0.2-0.2l0.2,0.2l0.2,0.7h0.2l0.2,0.7h0.7h0.4l-0.2,0.4l0.4-0.2h0.4l0.2,0.2v0.4l0.7-0.2l-0.2,0.4l0.9-0.2l0.4,0.2l0.2-0.2
							l0.2,0.2h-0.2l0.9,0.2l0.7-0.7l-0.2,0.7l0.2-0.2l0.4-0.2h0.2l0.9-0.4h0.4l-0.2-0.2l0.9-0.7l0.2,0.2l0.7-0.4h-0.4l0.7-0.4
							l0.2-0.2l0.4-0.2l0.7-0.4l0.4-0.7l0.2,0.2l0.4-1.1l0.4-0.4V504l0.9-0.4v-0.4v-0.2h0.4v-0.4l0.4-0.7v-0.4l0.4-0.9l0.2,0.2v-0.7
							l0.2-0.4l-0.4-0.2l0.2-0.4l0.4-0.4l-0.2,0.2v-0.9l0.4-0.4h-0.4l0.4-0.9h-0.2h-0.4l0.2-1.1l-0.2-0.4l-0.4,0.2v-0.7h0.2
							l-0.4-0.4l-0.2,0.2v-0.7l-0.7-0.2h0.2l-0.2-0.9l-0.9,0.2l0.4-0.2l-0.4-0.7v0.2l-0.7-0.2l0.4-0.2l-0.7,0.2l-0.4-0.2v-0.9v0.2
							l-0.2-0.4l-0.4-0.2l-0.4,0.2l-0.2-0.4h0.2l-0.4-0.4l-0.4,0.2l-0.4-0.2l0.2-0.4v-0.2l-0.4,0.4l-0.2-0.7l0.2-0.2l-0.7-0.4
							l-0.4,0.4l0.2-0.7l-0.7-0.4h-0.4l-0.2-0.4l-0.2,0.4v-0.9l-0.2,0.2h-0.4l0.2-0.7l-0.2-0.2h-0.4l-0.2-0.4l-0.7,0.4l0.2-0.9
							l-0.7-0.2l-0.2-0.2v-0.2l-0.4,0.2h-0.4l0.2-0.2l-0.2-0.4h-0.7l0.2-0.7l-0.7,0.2l0.2-0.7l-0.4,0.2h-0.7v-0.4h-0.2V482l-0.7,0.4
							v-0.7l-0.2,0.4l-0.7-0.2h0.2l-0.7-0.4v0.2l-0.7,0.2h-0.2l-0.2-0.7v0.2l-0.7-0.2l-0.4,0.7l-0.2-0.2l-0.4,0.2h-0.2l-0.7,0.2V482
							l-0.9,0.4l-0.4,0.4h-0.7v0.4l-0.4,0.2l-0.7,0.4h-0.4l0.2,0.4l-0.7,0.7l-0.2-0.2l-0.2,0.9l-0.2-0.2l-0.9,1.1l-0.4,0.7l0.4-0.2
							l-0.9,0.7h0.2l-0.7,1.1h-0.4v0.4l-0.4,0.4l0.4,0.2v0.4h-0.4v0.9v0.4h-0.7l0.2,0.7l-0.2,0.7l0.4,0.2l-0.7,0.4l0.4,0.4v0.2v-0.2
							l0.2,0.4v0.7h0.2l-0.2,1.1l0.4-0.2l-0.2,0.4l0.4,0.2l-0.2,0.2l0.2,0.2l0.2,0.4l0.2,0.4h0.7h0.4l0.4,0.4h-0.2v0.7l0.7,0.2v-0.2
							l0.2,0.2v0.4l0.4-0.2l0.2,0.7h0.4v0.4l0.4,0.4l0.2-0.7l-0.2,1.1l0.4-0.7v0.9v0.2l0.2,0.9l-0.4,0.2v0.9l0.4-0.2l-0.7,0.7h-0.2
							h-0.2l-0.4,0.4l-0.2,0.4h-0.4v0.4h-0.7l-1.1,0.2v0.2v-0.9l-0.4,0.2h-0.4v-0.4l-0.7-0.2L1381,504.5z M1405.4,617.1l0.2,0.7
							h-0.4v0.4h-0.4v0.2h-0.7v-0.2l-0.4,0.4l0.2,0.4l-0.4-0.2l-0.2,0.4l-0.4,0.2l0.2,0.7l-0.7-0.4v0.9l-0.4-0.4l-0.2,0.2l0.2,0.7
							l-0.7-0.4v0.4l-0.4,0.4l-0.2,0.2h-0.2h-0.2l0.2,0.7l-0.2-0.2h-0.7l-0.4,0.2l0.4,0.4h-0.7v0.4l-0.2,0.2l-0.4-0.2l-0.2,0.2
							l0.2,0.7l-0.2,0.2v-0.2l-0.4,0.4l-0.2,0.2l-0.7-0.2v0.7l-0.2-0.4l-0.4,0.4l0.4,0.2l-0.4,0.2l-0.2,0.4v-0.2l-0.2,0.4l-0.4,0.2
							v0.2l-0.9-0.2l0.2,0.7l-0.2-0.2v0.2h-0.4v0.7h-0.2l-0.7,0.2h-0.4l0.2,0.9h-0.4h-0.2h-0.2l-0.4,0.7v-0.2l-0.4,0.2l-0.2,0.7
							l-0.2,0.2v0.2l-0.7-0.2v0.4h-0.4l-0.2,0.2l0.4,0.4l-0.4,0.2l-0.7-0.2l-0.2,0.4l0.2,0.4l-0.2-0.4l-0.4,0.7h0.2h-0.9l0.2,0.4
							l-0.4,0.2v0.4l-0.2-0.4l-0.7,0.2l0.4,0.4l-0.4,0.2l-0.7-0.2v0.2l-0.2,0.7l-0.2-0.2v0.7l-0.4-0.2l-0.7,0.7l-0.7,0.2l0.2,0.4
							l-0.2,0.4l-0.4-0.4l-0.4,0.4l0.4,0.4l-0.2,0.2l-0.9-0.2v0.2v0.4h-0.4v0.2l-0.2,0.2h-0.4v0.4l-0.2,0.2h-0.7h-0.2l0.2,0.2
							l-0.4,0.4h-0.4l0.2,0.2l-0.2,0.7l-0.4-0.4l0.2,0.7l-0.7-0.2l-0.2,0.4l-0.2,0.9v-0.4l-1.1,0.4l-1.1,0.2l-0.7-0.4l-0.2,0.4
							l-0.7-0.7v-0.2l-0.4-0.4l-0.9-0.4l0.7-0.2l-0.7-0.4l-0.4-0.4l0.9-0.7v-0.4l-0.2-0.2h0.2l0.9-0.7l-0.2-0.2l0.2-0.7l0.4-0.4
							l0.2,0.2l-0.4-0.4l0.4-0.4h0.4l0.4,0.2l0.2-0.9l0.2,0.2l0.2-0.4h0.4v-0.7l0.4,0.4l0.2-0.7h-0.2l0.4-0.7v0.2l0.7-0.2l0.2-0.2
							v-0.4v0.2h0.4l0.2-0.2v-0.2v-0.4l0.7,0.2l0.4-0.2l-0.4-0.4l0.4-0.2l0.2-0.2h0.4h0.2v-0.4l0.4,0.2l0.2-0.2l-0.2-0.4l0.2-0.4
							l0.2,0.2l0.7-0.7l0.4,0.2l0.2-0.4v0.2l0.4-0.7l0.2,0.2l0.4-0.4l-0.2-0.7l0.2,0.4l0.2-0.4v-0.9h0.4h0.2h0.2l0.2-0.4h-0.2
							l0.2-0.2l0.2-0.7l-0.4-0.2h0.4l-0.4-0.9l0.4,0.2l0.2-0.7v-0.4h-0.2l0.2-0.7h-0.2l-0.2-0.4h0.2v-0.7l-0.4-0.4l-0.2-0.4l0.2-0.2
							l-0.2-0.7l0.2-0.2l-0.2-0.2l-0.7-0.9v0.2v-0.4l-0.2-0.2l-0.4-0.9v0.2l-0.7-1.1l-0.2-0.2l-0.2-0.4l-0.7-0.4l-0.4-0.2l-0.2-0.4
							l-0.2-0.2l-0.4-0.2l-0.2-0.2l-0.7-0.9l0.2,0.2l-0.9-0.4v0.4l-0.7-0.7h-0.4l0.2-0.2l-0.9-0.7l-0.2,0.4l-0.4-0.4v0.4l-0.7-0.7
							l-0.4,0.2l0.2,0.2l-0.7-0.2l-0.4,0.2l-0.7-0.4h-0.4l-0.2,0.2v0.2l-0.2,0.2l-0.4-0.2h-0.2l-0.4,0.4h-0.2v0.4l-0.2-0.2h-0.4v0.7
							l-0.2-0.2l-0.4,0.7l-0.4,0.2v0.4h-0.2h-0.7v0.7l-0.7,0.4l-0.7-0.2h0.2l-0.2,0.2v0.7l-0.4-0.2v0.4h-0.2l-0.2,0.4l-0.4,0.2
							l-0.4-0.2l0.2,0.2h-0.2l-0.4,0.4h-0.2l-0.4,0.4l0.2,0.2l-0.7,0.2l0.2,0.2l-0.4-0.2v0.9l-0.2-0.2l-0.4,0.4l-0.4-0.2h0.2
							l-0.4,0.4v0.4l-0.7,0.4l-0.2-0.2l-0.2,0.7l-0.4,0.2l-0.2,0.2l-0.4,0.2v0.4h-1.1h0.4l-0.4,0.2l-0.7,0.2l-1.1-0.7v0.7l-1.1-0.4
							h0.2l-0.9-0.4v-0.4l-0.2-0.4v-0.9l-0.2-0.7l-0.2-0.4l-0.2-0.2l0.7-0.4v-0.2l0.4-0.2v-0.7l0.2-0.2h0.4l0.4-0.4v-0.4l0.2-0.2
							h0.4v0.2v-0.7l0.7,0.4l-0.2-0.7h0.9l-0.4-0.2l0.4-0.2l0.4-0.2v0.2v-0.7l0.7,0.2l0.2-0.2l-0.4-0.4l0.9-0.2v0.2v-0.9h0.2
							l0.4,0.2l-0.2-0.4l0.7-0.2l0.2,0.2v-0.4v-0.4l0.4-0.2h0.4l0.4-0.4l0.4,0.2l-0.2-0.7l0.4,0.2l0.2-0.2v-0.4l0.4,0.2l-0.2-0.7
							l0.9,0.2v-0.4V609l0.4-0.2l0.2,0.2v-0.7h0.7l-0.4-0.4l0.4-0.2l0.4,0.2l-0.2-0.2h0.4l0.4-0.2l0.2-0.4l-0.4-0.2l1.1-0.9l0.7,0.4
							l-0.4-0.7l0.7,0.2l0.2-0.4l-0.4-0.2l0.4-0.2h0.9l0.2-0.2l-0.4-0.2l0.2-0.2l0.2-0.2h0.9v-0.4h-0.2l0.2-0.4h0.2l0.7,0.2
							l-0.2-0.4l0.4-0.7l0.7,0.2l-0.4-0.4l0.7-0.4l0.4,0.4v-0.2l-0.2-0.7l0.4,0.2l0.7-0.2l-0.4-0.4h0.7l0.7-0.7v-0.4l0.2-0.2
							l0.4,0.2l0.4-0.2v-0.7l0.2,0.4v-0.9l0.4-0.2l0.7,0.4h-0.2v-0.4h0.7l-0.2-0.9h0.2l0.7,0.2l0.2-0.4l0.2-0.2h0.4V596l0.7,0.2
							l0.2-0.7h0.2v-0.4l0.4,0.2l-0.2-0.2l0.4-0.4l0.2,0.2v-0.4h0.7l0.4-0.4h0.2l0.2-0.4v0.2l0.2-0.2l0.2-0.7l-0.2-0.2l0.9,0.2V592
							h0.9l0.2-0.2l0.2-0.9v0.2h0.4l0.2-0.4h0.2l0.4-0.4l0.2,0.2V590l0.4-0.2v-0.7l0.4,0.4l-0.2-0.7l0.7-0.2l0.2,0.4v-0.7h0.2
							l0.4-0.2v-0.2l0.2,0.2l0.2-0.9l0.4,0.4l0.4-0.4l-0.2-0.4l0.2,0.2l0.2-0.4l0.2-0.4h0.2l0.2,0.4l0.2-0.4l-0.2-0.4l0.7,0.2
							l-0.2-0.4l0.4-0.2h0.2h0.4l-0.2-0.4l0.2-0.2h0.4l0.2-0.7l0.2,0.2l0.2-0.7l0.4-0.2h0.7h-0.2l0.2-0.7l0.2-0.2h0.7l0.2-0.2
							l-0.2-0.4h0.2h0.4l-0.2-0.2l0.7-0.4l0.4,0.2l0.4-0.4v-0.4l0.2-0.2h0.2l0.2-0.4v-0.2h0.9l0.4-0.2l-0.4-0.4v-0.2l0.4,0.2
							l0.7-0.2l-0.2-0.9h0.9l-0.2-0.4l0.4-0.2l0.4,0.4v-0.4l0.4-0.2l-0.2-0.2l0.2-0.4l0.7-0.7h0.4h0.9l-0.2-0.2v-0.4l0.4,0.2
							l0.4-0.2V574l0.2,0.4l0.4-0.4l0.2,0.2l-0.2-0.4h0.9l-0.2-0.7l0.4-0.2l0.2-0.2l0.7,0.2v-0.4h0.2l-0.4-0.4h0.4l0.4-0.4l0.4,0.4
							l0.4-0.7l-0.2-0.7l0.9,0.2l-0.4-0.2l0.9-0.7l0.2,0.2v-0.7l0.2-0.4h0.7l0.2,0.2l0.2-0.4v0.2l0.7-0.7l0.4-0.4l-0.2-0.4l0.4-0.2
							v0.2h0.4l-0.2-0.7l0.7-0.2l0.2-0.2h0.4h0.2v-0.7l0.7-0.2v0.2l0.7-0.4h-0.2v-0.7l0.2,0.2l0.7-0.2v-0.4l0.4-0.4h0.4h-0.2
							l0.4-0.4h0.2v-0.7v0.2l0.4-0.4l0.2-0.2l0.4-0.4l0.4,0.2h0.7v-0.2l0.4-0.7l0.9,0.2l0.2,0.2v-0.2h0.9h0.4v0.4l0.4,0.2l0.9,0.7
							v0.4v0.9l0.4,0.9h-0.9l0.7,0.7l-1.1,0.2v1.3l-0.4-0.2l-0.7,0.2l-0.2,0.2l0.4,0.4l-0.4,0.4h-0.2h-0.2l-0.2,0.4h-0.4l-0.4,0.4
							l-0.2-0.2v0.4v0.4l-0.4,0.4h-0.4h0.2l-0.2,0.2l-0.4-0.2l-0.7,0.4l-0.2,0.2l0.2,0.7l-0.4-0.7l-0.4,0.4v0.9l-0.4-0.2l-0.4,0.9
							l-0.4,0.2h-0.2v0.4l-0.7-0.4l0.2,0.7h-0.2l-0.4,0.2l-0.2-0.2v0.9l-0.2,0.2h-0.2l-0.4-0.2l-0.7,0.4l0.2,0.4h-0.7v0.4l-0.2,0.4
							l-0.4-0.2l-0.2,0.7h0.2v0.7h-0.7v0.2l0.4,0.7l-0.4-0.2v0.2v0.4l-0.2,0.9l-0.4-0.2l0.2,0.4l0.4,0.2l-0.4,0.2l0.2,0.2l0.2,0.7
							h-0.2l0.2,0.9h-0.4v0.4l0.4,0.2v0.2l0.7,0.9l-0.4,0.2h0.4l0.2,0.9h0.2l0.2,0.4l0.4,0.7l0.2,0.2l-0.4,0.2l0.7,0.2v0.4l0.9,0.4
							l0.4,1.1l0.2,0.4l0.4-0.2l0.2,0.4l0.4,0.4l0.4,0.2l0.4,0.4l0.2-0.2l0.2,0.7v-0.2l0.9,0.7h0.2l0.2-0.4l0.4,0.4l0.2,0.2l1.1,0.4
							l-0.2-0.2l1.1,0.2l-0.2,0.2l0.2-0.7h0.4l0.4,0.4l0.4-0.2l0.2-0.2l0.7,0.4v-0.2l0.4-0.2v-0.2h0.2h0.9h-0.2l0.4-0.7l0.4,0.4
							l0.2-0.2V590h0.9v0.2l0.2-0.4l0.4-0.2l-0.2-0.7l0.4,0.2v-0.2l0.2,0.2v-0.4l0.2-0.4l0.4,0.2l0.2-0.7h0.4l0.2-0.2v-0.4h0.4h0.2
							V587l0.7-0.4h0.2l-0.4-0.4l0.4-0.2l0.2,0.4l0.2-0.9v0.2l0.4-0.4l0.2,0.2V585l0.2-0.4l0.2,0.4l0.7-0.2l0.2-0.2l-0.4-0.7
							l0.7,0.4l0.7-0.4l-0.2-0.2v-0.4h0.7l0.4-0.2l-0.7-0.4l0.7-0.4l0.2,0.4l0.7-0.2v-0.4v-0.2l0.7-0.4l0.4,0.2l0.7-0.2l0.2,0.4
							l0.4-0.7v0.2l0.7,0.2h0.7v0.7l0.2,0.2l0.7,0.4l0.2,0.2l-0.2,1.1v0.9l0.2,0.2l-0.4,0.4v0.7l-0.4-0.2l0.2,0.4l-0.4,0.2l-0.2,0.7
							l-0.2-0.4l-0.4,0.4l-0.2,0.4h-0.2h-0.4v0.7l-0.2-0.2l-0.7,0.2l0.2,0.7h-0.2l-0.2-0.2l-0.2,0.2l-0.2,0.7h-0.4l-0.2,0.2v0.2v0.2
							l-0.7-0.2l-0.2,0.4l-0.4,0.2v0.2l-0.2,0.2h-0.4l0.2,0.4l-0.4-0.2v0.7l-0.2,0.4l-0.4-0.2l-0.2-0.2l0.2,0.9h-0.2l-0.4-0.2
							l-0.4,0.4v0.7l-0.4-0.4l-0.2,0.7l-0.2,0.4v-0.2l-0.2,0.4h-0.7l0.2,0.4l-0.7,0.2h-0.7h-0.2v0.4v0.2v0.2l-0.7-0.2l-0.4,0.4v0.2
							v-0.2l-0.9,0.7l0.4,0.7l-0.7-0.2l0.2,0.7l-1.3,0.2l0.2,0.2l-0.4,0.2h-0.2v0.7l-0.4-0.2h-0.4l-0.7,0.7l0.2,0.7l-0.2-0.4
							l-0.2,0.2v0.2l-0.4,0.2l-0.4,0.2l0.4,0.2h-0.4l-0.2,0.4l-0.2,0.2l-0.4,0.2v-0.2v0.4l-0.7-0.2l-0.2,0.2l-0.2,0.4v0.7l-0.4-0.4
							l-0.9,0.7l0.2,0.2v0.2l-0.2,0.2h-0.7l0.2,0.2v0.4l-0.9-0.2l-0.4,0.4l0.2,0.7l-0.4,0.4l-0.4-0.2v-0.2l-0.4,0.4v0.2v0.7
							l-0.4,0.2v-0.2l-0.2,0.4l-0.7-0.4l-0.2,0.2v0.7v0.2h-0.4l-0.7,0.9l-0.2,0.4h-0.2h-0.4v0.4l-0.4-0.4l0.2,0.7h-0.7l0.2,0.2
							l-0.4,0.2l-0.2,0.4l-0.4-0.4v0.2v0.4v0.2l-0.9,0.4l-0.2,0.2l-0.2-0.4l-0.4,0.2v0.4l-0.9-0.4v-0.4l-0.4,0.7l-0.2-0.7h-0.4v-0.2
							l-0.9-0.4l-0.2-0.7l0.2-0.4l-0.7-0.7l0.2-0.2l-0.7-0.9h0.7v-0.7h0.2v-0.2l0.2-0.4l1.1-0.9v-0.2h0.4v0.2h0.2l0.4-0.7l-0.4-0.2
							l0.4-0.2h0.7v-0.4l0.7,0.2v-0.9h0.2v-0.4l0.2,0.4v-0.4V603l0.4-0.2h0.2v-0.7l0.4,0.4v-0.9v-0.4V601l0.2-0.2l0.2-0.7l-0.4-0.7
							l0.7,0.2l-0.2-0.2v-0.4l-0.2-0.4l-0.2-0.7v-0.4l-0.7-0.9l0.2-0.2l-0.2-0.7l-0.2,0.4l-0.2-0.9h-0.2l-0.2-0.7l-0.2-0.9l-0.4-0.4
							l-0.9-0.7l-0.2-0.7h-0.4l-0.4-0.9h-0.4l-0.2-0.2v-0.2l-0.4-0.4l-0.4-0.2l0.2-0.2h-0.7l-0.9-0.4l0.2-0.2l-0.4-0.2l-0.4-0.2
							l-0.2,0.2l-0.4-0.2l-0.4-0.4l0.2,0.2h-0.9l-0.2-0.7l-0.2,0.4l-0.7-0.7v0.2l-0.2,0.4l-1.1-0.4h-0.2v0.7l-0.7-0.2l-0.4,0.2
							l0.2,0.2h-0.7l-0.2,0.4l-0.2-0.2h-0.7v0.9l-0.2-0.4l-0.7,0.4l0.2,0.2l-0.2,0.2l-0.4-0.2l0.2,0.7l-0.2,0.2h-0.9h0.2l-0.4,0.2
							l-0.2,0.4v0.2l-0.2,0.2l-0.2-0.2l-0.4,0.4l0.2,0.4l-0.2,0.2l-0.4-0.2h-0.2l0.2,0.4l-0.7,0.2l-0.2-0.2l-0.4,0.4l0.2,0.7
							l-0.4-0.4l-0.7,0.4l0.2,0.2l-0.2,0.4h-0.4l0.4,0.2l-0.9-0.2l0.2,0.4v0.4l-0.9-0.2l-0.2,0.2v0.2l-0.4,0.2l0.2,0.7l-0.7-0.2
							l-0.4,0.4l-0.2,0.2l-0.2-0.2l0.2,0.4l-0.2,0.4h-0.7l0.2,0.7l-0.9-0.2l0.2,0.7l-0.7-0.4l0.2,0.4l-0.2,0.7l-0.2-0.2l-0.2,0.4
							l-0.7-0.2l0.4,0.9l-0.7-0.2l0.4,0.4l-0.4,0.4V601l-0.7,0.4l0.4,0.2v0.7v0.2h-0.7l0.2,0.2l-0.2,0.4l0.4,0.4l-0.2,0.2v0.4
							l0.2,0.2v0.9l-0.2-0.2l0.2,1.1l0.4,0.4v0.7h0.2l0.2,0.4l0.4,0.9v0.2h0.2l0.7,0.7l-0.2,0.2l0.7,0.4l-0.2,0.2l1.1,0.9l0.4,0.7
							v-0.2l0.2,0.7h0.2l0.9,0.7v0.4l0.2,0.2l0.4,0.4l0.4-0.4l0.2,0.2v0.2l0.9,0.2l0.4,0.2v0.4l0.7,0.2l-0.2-0.2l0.9,0.4v-0.4
							l0.4,0.9l0.7-0.4h0.2h-0.2l0.2-0.2h0.9l1.1,0.2l-0.2-0.4l0.2,0.4l0.4-0.4l0.2,0.2l0.2-0.2h0.4l0.4-0.2v-0.7l0.2-0.2l0.4-0.4
							v0.2l0.4,0.2l0.4-0.7l-0.2-0.2l0.4-0.2l0.4,0.2l-0.2-0.4h0.7V612l0.7,0.2l0.2-0.2l-0.4-0.7l0.9,0.4l-0.4-0.4h0.9l0.2,0.2
							l0.9-0.2v0.7h0.9l-0.2-0.4l0.7,0.7l-0.2,0.4l0.2,0.2l0.4,0.4l0.2,0.4v0.2l0.4,0.2v0.7l-0.2,0.9l0.2,0.2l-0.9-0.2l0.2,0.4v0.7
							l-0.7-0.2l-0.2,0.7L1405.4,617.1z"/>
					</g>
				</g>
			</g>
		</g>
	</g>
</g>
</svg>
