<?xml version="1.0" encoding="utf-8"?>
<!-- Generator: Adobe Illustrator 27.2.0, SVG Export Plug-In . SVG Version: 6.00 Build 0)  -->
<svg version="1.1" id="Ebene_1" xmlns="http://www.w3.org/2000/svg" xmlns:xlink="http://www.w3.org/1999/xlink" x="0px" y="0px"
	 viewBox="0 0 1920 1080" style="enable-background:new 0 0 1920 1080;" xml:space="preserve">
<style type="text/css">
	.st0{enable-background:new    ;}
	.st1{fill:#FF1E00;}
</style>
<g id="Ebene_2_00000078728324755421004830000011958430864884710056_">
	<g>
		<g>
			<g>
				<g>
					<g class="st0">
						<path class="st1" d="M617.5,640.9c-4.2,0.7-7.5-1.5-9.9-3.3c-1.3-1.1-2.4-2.9-3.1-4.2c-0.4-0.7-0.4-0.7-1.1-0.7
							c-1.3,0.2-3.3,0.4-4.8,0.4c-1.1,0-1.1,0-1.3,0.7c-1.5,4.8-5.3,8.1-9.7,9c-5.7,1.3-11.2,0.4-15.4-3.7c-3.5-2.9-5.1-6.8-5.1-11
							c0-0.2,0-0.9,0-1.1c0.2-1.5,0.2-1.5-0.9-2.2c-1.3-0.9-2.6-1.5-4.2-2.2c-0.2-0.2-0.2-0.2-0.4,0c-5.9,5.7-15.6,5.1-20.9-0.7
							c-2.6-2.6-4.4-6.2-4.8-10.1c-0.4-2.2,0.2-4.8,1.3-6.6c0.4-0.4,0.4-0.4-0.2-1.1c-0.4-0.7-1.1-1.3-1.8-2c-0.4-0.7-1.1-1.3-1.5-2
							c-0.4-0.2-0.9-0.4-1.3-0.4s-0.7,0.2-1.1,0.2c-0.2,0-0.4,0-0.9,0.2c-5.1,0.7-8.8-1.8-12.1-5.3c-3.3-4.2-4-9.2-3.5-13.9
							c0.4-5.5,3.5-11.4,10.1-13.2c1.3-0.4,3.3-0.4,4.6-0.2c0.2,0,0.4,0,0.4,0c0.4,0,0,0-0.2,0.2l0.4-0.4c0.9-0.4,1.3-1.1,1.8-2
							c0.2-0.2,0.4-0.4,0.4-0.7c1.8-1.1,2.9-1.5,4.4-0.4c2.2,1.1,2.9,4.2,1.1,6.2c0,0.4-0.2,0.7-0.4,1.1c-0.4,0.2-0.4,0.2,0,0.7
							c2.4,2.2,4.8,4.4,7,6.8c1.8,1.5,2,3.7,1.1,5.9c-0.4,0.9-0.9,1.8-1.8,2.9c-0.7,1.3-1.3,2.6-2.2,4c-0.7,0.9-1.1,2-1.8,2.9
							l-0.4,0.4c0,0.2,0-0.2,0,0v-0.2c1.1,1.3,2.2,2.2,3.5,3.7c0,0.2,0,0.2,0.4,0c3.7-2.6,8.1-3.1,12.3-2.6c1.8,0.2,4,1.1,5.1,2.2
							c4.6,3.5,7,8.6,5.9,14.7c-0.7,2.6-0.7,2.6,2,3.7c0.2,0.2,0.4,0.4,0.7,0.7c0.2,0,0.2,0,0.4,0.2c1.3,0.7,1.3,0.7,2.6-0.4
							c3.3-3.1,7.5-5.1,12.1-5.1c2.4,0,4.8,1.1,6.4,2.6c3.3,2.9,5.5,6.6,6.4,10.8c0,0,0,0,0.4,0c1.1-0.2,2.9-0.4,4.4-0.4
							c0.4,0,0.4,0,0.7-1.1c0.9-4.6,2.4-9.5,6.6-12.5c1.1-0.9,2.9-1.3,4-1.5c4.6-0.7,9,0.7,12.8,3.3c1.1,0.7,1.3,0.7,2.4-0.4
							c0.4-0.4,0.9-0.7,1.1-1.1c0.4-0.4,0.9-0.7,1.1-1.1c0.2-0.4,0.4-0.4,0-0.9c-1.8-2.6-3.3-5.5-4.2-8.8c-0.9-4.8,0-8.6,4.4-11.2
							c2.4-1.5,5.3-3.3,8.4-3.7c0.9-0.2,0.9-0.2,0.7-1.1c-0.2-0.9-0.4-1.8-0.4-2.6c0-1.8,0-1.8-2.2-2.2c-3.1-0.2-6.2-1.1-9-3.3
							c-2.6-1.8-4.8-4.2-4.6-8.1c0-3.7,0.9-7.3,2.6-10.3c0.2-0.7,0.2-0.7-0.2-1.1c-0.7-0.2-1.3-0.7-1.8-1.1
							c-0.4-0.4-1.1-0.7-1.8-1.1c-0.4-0.4-0.4-0.4-1.3,0.2c-2.4,2.6-5.7,4.6-9.2,5.3c-4.2,1.1-7.7-0.4-10.6-2.6
							c-3.3-2.9-5.3-6.4-5.5-10.8c0,0,0,0,0-0.2c-0.4-0.7-0.4-0.9-0.7-0.9c-1.1,0-2-0.2-2.9-0.4c-0.4,0-0.9-0.2-1.5-0.2
							c-1.1-0.2-1.1-0.2-1.8,0.9c-2.9,5.5-7.5,8.4-13.6,8.4c-5.5-0.2-11.9-3.7-14.3-9.7c-0.7-2.2-1.1-4.2-0.9-6.4l0.2-0.9
							c0.2-0.2,0.7,1.1,0.4,1.1h-0.4c-2.2-0.9-4.2-1.8-6.4-3.1c0,0.2,0,0.2,0,0.2s-0.2,0.2-0.4,0.4c-2.9,2.4-6.4,4.2-9.9,3.7
							c-3.7-0.2-7-2-9.5-4.2c-3.3-2.6-5.7-6.2-6.2-10.3c-0.9-4.8-0.4-9.5,4.2-12.8c0.7-0.4,0.7-0.7,0.7-0.9
							c-0.4-1.8-0.7-3.5-0.7-5.1c-0.2-0.7-0.2-1.1-0.2-1.8c0-0.4,0-0.9-0.2-1.1c-4.2-1.8-5.9-5.7-6.2-9.7c-0.4-6.4,2-12.1,7.9-16.1
							c5.1-3.3,10.6-3.5,15.8-0.4c0.2,0.2,0.4,0.2,0.9,0c1.3-1.3,3.1-2.2,4.8-3.1c0-0.2,0.2-0.2,0.2-0.2c-1.5-3.5-0.2-7.3,1.3-10.1
							c2.2-4.2,6.2-6.6,10.3-7.9c3.5-0.7,6.6-0.4,9.9,0.9c3.3,1.3,5.5,3.5,7.3,6.6c0.2,1.1,0.2,1.1,1.5,0.9c1.8,0,3.3,0,4.8,0
							c0.9,0.2,0.9,0.2,0.9-0.4c0.4-2,1.3-3.5,2.6-5.1c2.4-2.9,5.3-4.4,8.6-5.1c2.9-0.2,5.9-0.2,8.8,0.9c4.8,2,8.4,5.5,9.9,10.8
							c0,0.2,0,0.4,0.2,0.9c0.2,0.9,0.4,2.4-0.2,4c0,0,0.2,0,0,0c0.9,0.7,2,1.1,3.1,1.8c0.9,0.7,2,1.3,3.1,2c-0.2,0-0.2,0,0.2-0.4
							c2-1.1,4.4-2.2,7-2.2c3.7,0,6.8,1.5,9.5,3.5c4.4,3.5,6.4,8.6,6.6,13.9c0.4,3.5-0.9,6.8-2.9,9.7c-1.5,2.2-3.7,3.5-6.4,4.2
							l-0.2,0.7c-0.2,0.2-0.2,0.7-0.2,1.3c-0.2,0.2-0.2,0.7-0.2,0.9c-0.7,2.6-2.6,4-5.1,3.1c-2.2-0.9-3.7-2.9-2.9-5.1
							c0.4-1.3,1.3-1.3-1.3-2.2c-1.8-0.7-3.5-1.5-5.3-2.2c-0.9-0.4-1.8-0.9-2.6-1.3c-2.2-1.1-3.7-2.9-3.5-5.7c0-3.5,0.7-7,1.8-10.8
							c0.7-0.9,0.7-0.9-0.7-1.8c-0.2-0.2-0.4-0.2-0.9-0.4c-0.2-0.2-0.7-0.4-1.1-0.7c0,0-0.4-0.2-0.4-0.4c-0.4-0.2-0.7-0.4-0.9-0.4
							c0.2,0,0.2,0,0,0.4c0,0.2-0.4,0.7-0.4,0.9c-2.9,2.6-5.7,5.1-9.7,5.9c-4.2,1.1-8.1,0-10.8-2.9c-2.9-2.4-5.1-5.5-5.7-9
							c-0.2-0.9-0.2-0.9-1.1-0.9c-1.3,0.2-2.9,0.4-4.2,0.4c-0.4,0-0.4,0-0.7,0.4c-0.7,4.2-2.6,7.9-5.5,11c-3.3,3.1-7.3,3.3-11.4,2.6
							c-3.5-0.7-6.8-2.9-9.2-5.3c-0.7,0.2-1.1,0.7-1.5,0.9c-0.9,0.7-1.8,1.3-2.9,1.8c-0.2,0.2-0.2,0.2,0,0.7
							c0.2,0.7,0.4,1.5,0.7,2.2c0.4,1.5,1.1,3.3,1.3,5.1c0.2,3.3-0.9,7.3-3.7,9.9c-0.9,0.9-2.4,1.8-4,2c-1.3,0.2-2.9,0.7-4.4,0.9
							c-1.5,0.2-2.9,0.4-4.2,0.7c-0.2,0-0.2,0-0.2,0c0,1.5,0.2,2.9,0.4,4.8c0,0.7-0.7-0.7,0-0.7c2,0.2,4,0.2,5.9,0
							c1.5,0,2.9,0.4,4.2,0.7c0.4,0.2,0.9,0.4,1.5,0.4c2.2,0.9,3.7,2.6,4.8,4.6c1.3,4.2,2,8.6,0.7,12.8c-0.2,0.2-0.2,0.2,0,0.2
							c0.9,0.4,1.5,0.9,2.4,1.1c0.9,0.4,1.8,0.9,2.4,1.1c0.2,0.2,0.2,0.2,0.2,0c1.1-2.2,3.3-4.2,5.9-5.5c4.4-2.6,9.9-3.1,14.5,0
							c4.2,2.4,6.6,6.6,7.5,11.9c0,0,0,0-0.4,0c2,0.2,3.7,0.4,5.7,0.9c0.7,0.2,0.7,0.2,0.9-0.7c1.5-2.9,3.5-4.8,6.6-6.2
							c3.7-2.2,8.1-2.2,11.9-0.9c3.5,1.1,6.8,3.3,8.4,6.8c1.8,2.6,3.3,5.9,2.2,9.5c-0.2,0.9-0.2,0.9,0.9,1.5
							c1.1,0.7,2.2,1.8,3.3,2.4c0,0.2,0.2,0.2,0.4,0.4c0.7,0.4,0.7,0.4,1.1,0.2c5.1-2.9,10.1-2,14.5,0.9c3.7,1.8,6.2,5.7,7.5,9.7
							c0.9,3.3,0.9,7-0.7,10.8c-1.1,2.2-3.1,4.4-5.3,5.7c-0.9,0.4-0.9,0.4-0.7,1.8c0.2,0.9,0.2,2.6,0.2,3.7c-0.2,1.5,0,2,1.5,2.4
							c3.7,1.5,6.2,4.8,7.7,8.6c1.3,5.5,0.2,10.6-2.9,15.2c-1.5,2.4-3.7,3.7-6.2,5.1c-3.3,1.8-6.6,2-10.1,0.4
							c-0.4-0.2-0.4-0.2-0.4,0c-0.9,0.9-1.8,1.5-2.4,2.4c-0.9,0.7-1.5,1.3-2.2,2.2c-0.2,0-0.2,0,0,0.2c2.2,5.7,0.9,10.8-3.1,15
							c-2.6,2.6-5.5,4.4-9,5.1c-0.4,0-0.9,0.2-1.3,0.2C618.3,640.4,617.9,640.6,617.5,640.9z M527.3,590c-0.2-2.9-0.4-5.9-0.9-9.2
							c-0.2-1.8-0.7-3.5-1.3-5.1c-0.2-1.1-0.7-1.3-1.3-1.1c-0.4,0.4-0.9,0.7-1.1,0.9c-0.7,0.4-1.1,0.9-1.3,1.3
							c-2,2.9-2.2,5.7-1.8,8.6c0.4,3.7,1.8,6.2,4.6,8.1c1.8,0.9,2.9,0.4,3.1-1.5C527.3,591.6,527.3,590.7,527.3,590z M529.7,492.6
							c0,2.9,0.9,5.1,3.1,7c0,0,0,0,0.2,0l-0.9,2c-0.2-0.4-0.4-0.9-0.4-1.1c-0.2-0.4-0.4-0.7-0.7-0.9c-0.4-0.9-1.1-1.8-1.5-2.9
							c-0.7-2.9-0.7-6.2,0.4-9.2c1.3-2.6,2.9-5.3,5.5-6.8c2.6-1.5,6.2-3.1,9.5-2.2c0.2,0,0.7,0.2,0.9,0.2c0.2,0,0.4,0.2,0.7,0.2
							c2.2,1.5,1.3,1.1,0.4,0.7c0,0,0,0-0.2-0.2l-0.4,1.1c-2-0.9-3.5-1.3-5.5-1.1C533.4,480.7,529.7,486.6,529.7,492.6z
							 M531.9,522.5c0,0.7,0.2,1.5,0.2,2.2s0,1.1,0.2,1.8c1.3,4.4,4.2,7.3,8.6,8.8c2.6,0.9,5.7,0.9,8.4-1.1c0,0,0.2-0.2,0.2-0.4
							l0.9,2c-0.2,0-0.2,0,0,0l-0.7,0.2c-0.4,0-0.9,0.2-1.3,0.2c-1.8,0.4-3.7,0.9-5.9,0.2c-2.9-0.7-5.5-2-7.5-4.2
							c-1.8-2-3.3-4.6-3.7-7.7c-0.7-3.3,0-6.8,2.4-9.5v-0.2c0,0,0,0,0,0.2l1.1,1.1c-1.1,0,1.3-2.2,0,0
							C532.8,518.1,531.7,520.1,531.9,522.5z M533.9,566.5v1.1c-0.2,0-0.2-0.2-0.2-0.2c-2.6-0.4,1.1-2.9,0.7-0.4
							c-0.2,0.2-0.4,0.7-0.7,0.9c-0.4,0.4-0.7,0.7-0.9,1.1c0,0.2,0,0.4,0,0.7l-1.1-1.1c0,0,0.2,0,0.4,0
							C532.8,567.8,533.4,567.2,533.9,566.5z M534.7,585.9c1.3,0,2-0.9,2.2-2.4c0-1.1-0.9-2.4-2-2.4c-1.3-0.2-1.8,0.2-2,2.2
							C533,584.8,533.6,585.9,534.7,585.9z M535,598.6c-0.4,0.2-0.4-1.8,0.2-1.3l0.2,0.2c0.7,1.1,1.5,2.4,2.6,3.5
							c0.4,0.4,0.7,1.1,1.1,1.5h0.2l-0.9,0.2c0.2,0,0.2,0,0.2,0c-0.2-0.2-0.2-0.2-0.4-0.4c-0.4-0.7-1.1-1.1-1.5-1.8
							C536.1,599.9,535.6,599.3,535,598.6z M540.9,487.3c0-1.8-0.7-2.2-1.8-1.5c-2,1.1-3.3,2.6-3.5,5.1c-0.2,1.1,0.7,1.5,1.8,1.1
							C538.9,491.5,541.1,488.8,540.9,487.3z M539.1,523.8c-1.3,0-1.5,0.2-1.1,1.5c0,0.4,0.2,0.7,0.4,1.1c0.2,0.2,0.2,0.7,0.4,0.9
							c0.7,1.5,2.4,2.4,3.7,2.4c1.1-0.2,1.3-0.7,1.1-1.5C543.3,525.6,541.6,523.6,539.1,523.8z M542.2,582.8
							c-0.4-1.8-1.1-2.6-2.4-3.7c-0.2-0.2-0.7-0.2-1.3-0.4l1.3-2c0.4,0.7,0.7,1.3,0.9,1.8c0.2,0,0.2,0-0.2,0l0.9,0.4
							c1.1,1.5,2.4,3.7,1.1,6.2c-0.7,1.5-1.3,3.3-2,5.1c-0.2,0.2-0.2,0.2-0.2,0.4l-2-0.9c0.2,0,0.7-0.2,0.7-0.2
							c0.2-0.2,0.2-0.2,0-0.2l-0.2,0.4c0.4-0.9,0.9-1.5,1.3-2.2s0.9-1.3,1.1-2c0.4-0.7,0.7-1.1,0.9-2C542,583.2,542,583,542.2,582.8
							z M550.6,621.7c0.4,0,0.9,0,1.1,0c2.6-0.4,3.3-1.3,2.2-3.7c-0.2,0-0.2-0.2-0.4-0.4c0,0-0.2-0.2-0.2-0.4
							c-2.9-2.4-5.9-4.8-9.5-5.9c-1.5-0.7-3.1,0.2-2.6,2.4C542,618,546.6,622.2,550.6,621.7z M545.7,500.3c2-0.2,4-0.4,5.3-2.2
							c0.7-2,1.5-3.5,0.7-6.2c-0.4-2.2-1.8-2.4-3.3-1.3c-2.9,1.5-4.4,3.5-5.1,6.8C542.9,499.6,543.3,500.3,545.7,500.3z
							 M544.4,516.6c0.4,0.9,0.7,1.5,0.9,2.2c1.1,2.6,3.1,4.2,6.2,5.1c0.9,0.2,2-0.2,2-0.9c0.2-1.5,0.2-3.1-0.2-4.6
							c-0.2-1.3-0.7-2.2-1.8-2.9c-1.8-1.1-3.3-1.5-4.8-1.3C545.3,514.4,544.9,514.8,544.4,516.6z M552.3,599.7c-0.4,0-1.1,0-1.8,0
							c-0.4,0-0.7,0.2-0.9,0.2c-0.2,0-0.4,0-0.7,0.2c-0.2,0-0.4,0.2-0.9,0.4c-0.2,0.2-0.7,0.4-1.1,0.7l-0.4-2.2c0.2,0,0.4,0,0.7,0
							c0.2-0.2,0.7-0.2,1.3-0.2c0.2,0,0.4,0,0.7,0c5.5-1.1,10.3,1.3,13.2,5.7c1.8,2.6,2,5.7,2,8.8c0,0.2,0,0,0-0.2l-2,0.9
							c0-0.2,0.2-0.7,0.2-0.9c0,0,0,0,0,0.2v-0.2c0.4-1.5,0.2-3.1,0-4.6C562,603,557.4,599.1,552.3,599.7z M551.7,606.3
							c0,2,1.8,3.7,3.5,3.5c1.3-0.2,2-0.9,2-1.8c-0.4-1.8-2.2-3.1-4.2-3.1C551.5,605,551.5,605,551.7,606.3z M553.9,482.5l-0.9,0.7
							c0.4,0,0.4,0,0.7,0l-0.7-0.9c0.9-0.9,2-1.5,3.1-2.4c0.7-0.4,1.3-0.9,2-1.3l0.7-0.2c0.2,0,0.2,1.8,0,1.8
							c-0.4-0.2-0.9-0.2-0.9-0.4c-1.1,0.7-2.4,1.5-3.5,2.4c-0.2,0.2-0.4,0.4-0.7,0.4c-2.2,0.9,0.7,0.2,0-0.7l0.2,0.9
							C553.9,482.5,553.7,482.2,553.9,482.5z M555.9,530.9l1.5-0.4c-0.2,0.2-0.2,0.2-0.2,0.4c0,0.2-1.1-0.7-0.9-0.7h0.4
							c1.3,0.4,2.4,1.1,3.7,1.8c0.4,0.2,1.1,0.4,1.8,0.7h-0.4c0.2,0,0.9-0.2,0.9-0.2l-1.1,1.5c0-0.2,0-0.4,0-0.4c0-0.2,0-0.2,0-0.2
							c-0.7-0.2-1.3-0.4-2.2-0.9c-0.9-0.2-1.8-0.7-2.9-1.1C556.3,531.1,556.1,531.1,555.9,530.9z M572.1,459.1
							c1.8-0.2,4.2,0.9,6.4,2.2c0.4,0.2,1.1,0.7,1.5,1.1c0.2,0.4,0.7,0.7,0.9,0.9c0,0,0,0,0.2,0.2c0,0,0.4,0.2,0.7,0.2l-2,0.9
							c0-0.2,0-0.2,0-0.2c-2.4-2.9-5.3-4.4-9.2-4.4c-6.6,0.2-12.3,5.1-11.7,12.3c0-0.2,0-0.2,0-0.2c0.2,0.4,0.4,0.9,0.4,1.1l-2-0.9
							c0,0.2,0,0.2,0,0c0.2-2.2,0.4-4.4,1.8-6.6C562,461.6,566,459.1,572.1,459.1z M564.4,539h-1.1H564.4c0,0.4,0,0.7,0,1.1
							c0,0.4-0.2,0.7,0,1.1c0.7,2.4,1.5,4.6,3.3,6.2c2.4,2.2,5.3,3.1,8.4,2.9c3.1,0,5.7-0.9,7.5-3.7c0.4-0.2,0.9-0.4,1.1-0.9
							c0.2-0.2,0.4-0.4,0.4-0.7c-0.2,0.4,0,0,0-0.2l1.1,1.1c0.4,0,0.2,0,0.2,0.2c-0.2,0.4-0.9,0.9-1.3,1.1c-0.2,0.4-0.7,0.7-1.1,1.1
							c-2.6,2.4-5.9,2.6-9.2,2.4c-2,0-4.2-0.4-6.2-1.8c-3.7-2.2-6.2-6.2-5.9-10.8c0,0,0-0.2,0-0.4c-0.2-0.2-0.2-0.7-0.2-0.7h2.2
							c0,0,0,0.4-0.2,0.7c0,0.2,0,0.2,0,0.4S564.4,538.8,564.4,539z M563.1,619.5l0.4,0.9l-0.4,0.2h0.4c0.7-0.9-2.4-1.5,0-0.7
							c1.5,0.7,3.1,1.8,4.6,2.6l0.9-0.2c0.2,0,0,1.5-0.2,1.5l-0.7-0.2c-0.4-0.2-1.1-0.7-1.8-1.1c-1.1-0.7-2.4-1.3-3.5-2.2l0.7-0.9
							C563.3,619.5,563.3,619.5,563.1,619.5z M571.7,482.5c3.7,0,5.5-1.1,7-4.4c0.7-1.5,0.2-2.6-1.5-3.1c-1.3-0.7-2.6-0.2-4,0
							c-2,0.4-4.2,1.3-5.9,2.9c-1.3,1.1-1.5,2.2,0,3.1C568.8,482.2,569.9,482.7,571.7,482.5z M568.6,469.5c1.5,0.2,2.6-0.4,3.7-1.5
							c0.7-0.7,0.4-1.8,0.2-2.2c-2-0.9-5.3-0.2-5.9,1.8c-0.7,1.3-0.4,1.8,0.4,2C567.5,469.5,568.2,469.5,568.6,469.5z M579.6,535.3
							c0.9,0,1.5,0,2.2,0c2.9-0.4,2.6-2,1.5-3.7c-2.2-4-7.3-5.3-11.2-2.9c-2.4,1.8-2.4,3.1,0,4.6C574.6,534.6,577,535.3,579.6,535.3
							z M575.4,544.9c0.4,0,0.7,0,0.9,0c0.9,0,1.3-0.2,1.5-1.1c0.4-0.7,0.2-1.1-0.7-1.8c-1.1-1.3-3.1-1.8-4.8-1.1
							c-1.1,0.7-1.3,1.3-0.4,2.4C572.8,544.5,573.9,545.2,575.4,544.9z M583.6,638.7c1.5,0.2,3.3-0.9,5.1-2c0.7,0,1.1-1.1,0.7-1.8
							c-0.9-0.9-1.5-1.5-2.2-1.8c-1.5-0.9-3.1-1.3-4.8-1.8c-0.7-0.4-1.5-0.7-2.2-0.9c-1.8-0.4-3.5-0.4-5.3-0.4
							c-1.8,0-2.2,0.7-1.5,2.4c0,0.2,0.4,0.7,0.7,0.9C575.9,637.1,578.7,638.7,583.6,638.7z M592.6,623.5v-0.2
							c-1.1-2.2-2.2-4.2-4-5.7c-2.6-2-5.1-2-8.1-0.7c-1.8,0.4-3.3,1.3-4.6,2.4l-0.7,0.2c0.2,0,0.4-0.4,0.4-0.2
							c-0.2,0-0.2,0.2-0.2,0.4l-0.9-2c0.2,0,0.7,0,0.9,0c-0.4,0-0.7,0.2-0.7,0.7l0.7-0.9c2.4-1.3,5.1-2.6,7.9-2.4
							c4.6,0.2,7.7,2.6,9.9,6.2c0.2,0.4,0.7,1.1,0.9,1.3c0,0.2,0,0.2,0,0.2h0.2l-0.9-0.2C593.7,622.6,592.6,623.3,592.6,623.5z
							 M583.6,621.5v-1.1V621.5c-0.2,0-0.2,0-0.4,0c-1.1,0-1.5,0-1.5,0.4c-0.4,1.1-0.2,1.5,0.2,2c0.7,1.3,1.8,1.5,3.1,1.3
							c1.5-0.2,1.5-0.2,1.8-1.8c0.2-0.9,0-1.1-1.3-1.5C584.9,621.7,584,621.5,583.6,621.5z M596.1,540.1c1.3,0,0-0.2,0,0.4
							c0,0.2,0.2,0.2,0.2,0.2h-0.4c-0.4-0.2-0.7-0.2-1.1-0.2s-0.9,0-1.1-0.2c-1.1,0-2-0.2-2.9-0.2c0,0,0,0,0,0.2v-1.8
							c0,0.2,0.2,0.7,0.4,0.9c0,0.2-1.1-0.4-0.9-0.4h0.2c1.1,0.2,1.8,0.4,2.6,0.7C594.1,539.7,595,539.9,596.1,540.1z M617.7,469
							c0-2.4-0.4-4-1.5-5.3c-2.6-5.1-8.8-6.8-13.9-5.3c-3.1,1.1-5.1,2.2-6.2,5.3c-0.2,0-0.2,0.2-0.2,0.2c0,0.2,0,0.2,0,0.2l-2-0.9
							c0.2,0,0.4-0.2,0.4-0.2c0.7-0.4-0.2,1.5,0,0c2.6-3.7,6.2-5.5,10.6-5.7c6.4-0.7,14.1,4.4,14.3,12.5h-1.1c0,0.4,0,0.4,0.2,0.7
							h-1.1c0-0.2,0.2-0.7,0.4-1.1c0-0.2,0,0.2,0,0.2C617.7,469.5,617.7,469.3,617.7,469z M599.4,546.9c0.2,0.4,0.4,0.9,0.4,1.3
							c0.2,0.7,0.4,1.1,0.7,1.5c1.1,3.1,3.1,5.5,6.6,6.6c2.6,0.9,5.1,0.4,7.7-0.9c0.9-0.4,1.5-1.1,2.4-2c2-1.3,0,0.4,0,0.2l1.1,1.1
							c-0.2,0.2-0.4,0.2-0.7,0.4c-4.4,2.4-8.8,3.5-13.4,0.7c-3.1-2.2-5.3-5.1-6.4-8.8c0-0.2-0.2-0.4-0.2-0.7l2-0.4
							C599.6,546.5,599.6,546.7,599.4,546.9z M602.3,473c-0.2,0-0.4,0-0.7,0.2c-0.7,0-1.3,0.2-2.2,0.7c-1.3,0.2-1.8,1.3-1.1,2.4
							c2.4,4.2,6.8,5.9,11.2,3.1c1.8-1.3,2-2,0.4-3.3C608,473.9,605.6,473.2,602.3,473z M607.8,467.5l-1.5,1.1v-0.2l1.1-1.1
							c0.2,0,0.7,0,0.9,0c1.1,0,1.5-0.7,1.8-1.1c0.4-1.1,0-1.5-0.9-1.8c-1.1-0.7-2-1.1-2.9-1.1c-1.1,0-2,0.4-2.9,1.3
							c-0.4-0.2-0.2,1.3,0.4,1.8c0.9,0.2,1.5,0.4,2.4,0.7C606.7,467.3,607.1,467.5,607.8,467.5z M617.2,542.7c0.7,0,1.3,0,1.5,0
							l0.4-0.2c0.7,0,1.3-0.9,1.3-1.3c-0.2-0.9-0.4-1.5-0.9-2c-2.4-4-5.7-5.5-10.1-4.8c-1.5,0.2-2.9,0.9-4,1.3
							c-1.1,0.7-1.1,1.3-0.4,2.2c0.4,0.7,0.9,1.3,1.8,2C610.2,541.2,613.5,542.5,617.2,542.7z M615.7,613.6
							c-2.9-0.4-4.6,1.3-6.6,3.7c-0.9,1.5-2,3.3-2.2,5.3c0.2,0.2,0.2,0.4,0.2,0.7H606c0.2-0.2,0.2-0.2,0.7-0.4l-1.1-0.4
							c0.2-0.7,0.4-1.1,0.7-1.8c0.2-0.7,0.4-1.3,0.7-2c2-3.7,7.3-7.5,12.3-5.9c1.1,0.4,2.6,0.9,3.7,1.1c0.2,0,0.4,0,0.7,0l-1.1,1.1
							c0-0.2,1.8,1.3,0,0.4C620.1,614.2,618.3,613.4,615.7,613.6z M610.2,552l-0.7,0.9c0-0.2,0-0.2,0.2-0.2v-1.1
							c0.2,0,0.2,0,0.7-0.4c1.1,0,1.3,0,1.8-0.9c0.2-0.4,0.2-0.4-0.2-0.9c0-0.2-0.2-0.4-0.2-0.4c-0.7-1.1-1.8-1.3-3.1-1.5
							c-1.1,0-2,0.4-2,0.9c-0.4,1.3-0.4,1.8,0.7,2.4c0.2,0,0.4,0.2,0.9,0.2C608.7,551.1,609.3,551.5,610.2,552z M617.2,636.2
							c1.3-0.4,2.2-0.7,3.1-0.9c4-1.3,6.6-3.1,7.5-7c0.2-1.1-0.4-1.8-1.1-2c-1.1,0-2,0-2.6,0.4c-2.2,0.4-4.4,1.1-6.6,2.4
							c-1.8,0.4-2.9,1.3-4.4,2.4c-1.5,1.1-1.3,2.6,0.2,3.1c0.7,0.4,1.3,0.7,2,0.7C615.9,635.6,616.6,635.8,617.2,636.2z
							 M615.7,622.8c0.7,0,1.3-0.2,2.2-1.3c1.1-1.3,0.9-2.2-0.9-2.9c-1.1-0.4-1.8-0.2-2.9,0.9c-1.1,0.4-1.3,1.3-0.9,2.4
							C613.3,622.4,614.2,622.8,615.7,622.8z M624.7,477.8l-0.4,1.8c0-0.2-0.2-0.4-0.2-0.7c-1.8-1.1-3.3-2-5.1-2.6
							c-1.5-1.8,0-1.3,0.7-0.7c-0.4-0.2-0.9-0.7-0.7-0.7l0.7,0.2c1.3,1.1,2.9,2,4.4,2.9C624.3,478.1,624.5,477.8,624.7,477.8z
							 M627.1,551.8c-0.2-0.2-0.7-0.4-1.1-0.9c-0.4-0.2-0.9-0.7-1.3-0.7l-0.4-0.2c0-0.2,0.9,0,0.7,0.2c0,0-0.4,0-0.7,0l1.1-1.1
							c0,0.2,0,0.2,0,0.4c0.4,0.4,1.1,0.9,1.8,0.9l0.9,0.2c0.2,0.2,0.4,0.7,0.7,0.9c0.4,0.7,1.1,1.1,1.5,1.5l-0.7-0.2
							c0.2,0,0.2,0,0,0h0.4c0.2-0.2-0.2,0.9-0.4,0.7v0.2c-0.4-0.7-0.9-0.9-1.5-1.3C627.8,552.2,627.4,552,627.1,551.8z M630,496.1
							c2,0,2.4-0.4,2.4-2.4c0-3.1-1.3-5.1-3.7-7c-1.1-0.7-2.2-0.7-2.6-0.2c-1.3,1.8-2,3.5-1.3,5.7
							C625.2,494.8,627.4,496.1,630,496.1z M636.6,576.2c0.2,0,0.2,0,0.4,0c0.2,0,0.4,0,0.7,0l0.4,2c-0.2,0-0.9-0.2-1.1-0.2
							c0,0,0,0,0.2,0l-0.4-0.2c-0.9-0.4-1.5-0.7-2.4-0.9c-0.9-0.2-1.8-0.4-2.6-1.1c-3.5-1.8-5.5-4.8-5.5-9c0-1.1,0.2-2.2,0.4-3.3
							c0-0.7,0.2-1.3,0.2-2c2.2-2.9,0.4,0.7,0.4,0.4c-0.2-0.2-0.4-0.7-0.4-0.9l1.1,1.1c0.4,0,0.7-0.2,0.7-0.7l-0.2,0.4
							c-0.9,2-0.9,4.4-0.9,7c0,1.3,0.2,2,0.9,3.1C630.4,574.6,633.5,575.7,636.6,576.2z M646.9,489.3c-0.2-4.8-2-8.6-6.2-11.7
							c-3.5-2.2-6.4-2.6-10.1-0.7c-0.2,0.2-0.7,0.4-1.1,0.7l-0.4-2c0.2,0,0.2,0,0.2,0c3.5-1.3,6.8-1.3,9.7,0.2
							c5.5,2.6,8.4,7.3,8.6,13.4c0,4.4-1.8,8.4-5.7,10.6l0.4-0.4c0,0.2,0,0.2,0,0.2l-1.1-1.1c0,0,0.7,0,0.7,0.2c0.2,0-3.1,2.2,0-0.4
							c1.3-0.4,2.2-1.1,2.9-2.4C646.3,493.9,646.9,492.1,646.9,489.3z M630.2,598.2c0,2.9,0.9,5.1,2.2,7.3l-0.2-0.2
							c0.2,0.2,0,0-0.2,0l-1.1,1.1c0-0.2,0-0.4,0-0.7c-0.2-0.4-0.2-0.7-0.4-1.1c-0.2-0.9-0.7-2-1.1-2.6c-0.7-4.4,0-8.4,4.4-11
							c1.5-1.1,2.9-1.8,4.2-2.4c0.4-0.4,0.9-0.7,1.5-0.7l-0.9,2c0-0.2,0-0.2,0-0.2c-2.4,1.1-4.4,2-6.2,4
							C630.9,594.9,630,596.4,630.2,598.2z M632.4,616l1.1,1.1c-0.2,0-0.7-0.2-0.9-0.2c-0.2-0.2,1.1-1.3,1.1-1.1l-0.7,0.9
							c-0.4,0.2-0.7,0.7-1.1,1.1c-0.2,0.2-0.4,0.2-0.4,0.4c-0.2-0.4-0.4-0.7-0.4-0.7C631.5,617.3,632.4,616.4,632.4,616z
							 M636.6,568.5c0-0.9-0.7-2.2-2-2.9c-1.1-0.9-2-0.2-2.2,1.3c-0.2,1.1,0.4,2,1.1,2.9c1.1,0.7,1.3,0.7,2.4,0.2
							c0.4,0,0.4,0,0.4-0.7C636.4,569.1,636.6,568.9,636.6,568.5z M635.7,502.3l0.7,1.3c-0.2,0-0.7-0.2-0.9-0.4c0-0.2,0,0-0.2-0.2
							c-1.3-2.2,0.7,0,0.7,0.2l0.2-0.7c-0.2,0.4-0.2,0.9-0.2,1.3s-0.2,1.1-0.2,1.5v-0.2c0-0.4-0.2-0.7-0.7-0.7
							C635.3,503.8,635.5,503.1,635.7,502.3z M635.3,598.9c0,2,0.9,2.6,2,2.2c1.5-0.4,2.4-2.2,1.8-3.7c-0.4-1.5-1.5-2-2.9-0.9
							C635.5,597.5,635.3,598,635.3,598.9z M641,488c0.2-2.4-0.7-3.7-2.6-5.1c-1.5-0.7-2.4,0-2.2,1.3c0.2,1.8,0.9,3.5,2,4.8
							c1.1,0.7,1.8,1.1,2.6,0.7C641,489.7,641,488.8,641,488z M649.6,565.8c-0.2-4.4-2-7.5-5.5-9.7c-0.9-0.7-2.4-1.1-3.5-1.3
							c-1.5-0.2-2.2,1.1-1.3,2.9c1.1,4.4,3.3,7.9,6.2,11.9c0.7,0.7,1.3,1.1,2.2,0.9c0.9-0.2,1.1-0.7,1.5-1.8
							C649.1,567.6,649.4,566.7,649.6,565.8z M652.7,599.7c0-0.4-0.2-0.9-0.2-1.5c-0.2-0.7-0.2-1.3-0.4-1.8
							c-0.4-1.8-1.3-2.6-2.6-2.4c-0.9,0-1.5,0.9-2.2,1.8c-0.4,1.3-0.9,2.6-1.3,4c-0.7,2-1.5,4.2-2.2,6.2c-0.4,1.1-0.4,2-0.4,3.3
							c0,1.1,0.7,1.5,1.3,1.3c2.2-0.7,4-1.3,5.3-2.6C651.3,605.2,652.7,602.8,652.7,599.7z M644.7,584.1c-0.2-0.7-0.2-1.5-0.2-2.2
							c0-0.9,0-1.8-0.2-2.6c0,0.4,0.2,0.4,0.2,0.4l0.9-0.2c-0.4,0.2-0.4,0.7-0.4,0c0.2,0.7,0.2,1.5,0.2,2.4c0,0.7,0.2,1.5,0.2,2.4
							c0-0.2,0-0.2,0.2,0.2c0.2,0,0.4,0.4,0.7,0.7l-2,0.2c0.2-0.2,0.2-0.4,0.2-0.7C644.5,584.8,644.7,584.3,644.7,584.1z"/>
					</g>
				</g>
			</g>
			<g>
				<g>
					<g class="st0">
						<path class="st1" d="M571.3,565c6.2-0.4,9.7-4.2,10.6-10.1c0.7,5.9,4,9.5,10.1,10.1c-6.2,0.7-9.7,4.4-10.3,10.3
							C580.7,569.4,577.4,565.8,571.3,565z M610.9,425.7c6.2-0.4,9.7-4.2,10.6-10.1c0.7,5.9,4,9.5,10.1,10.1
							c-6.2,0.7-9.7,4.4-10.3,10.3C620.3,430.1,617,426.6,610.9,425.7z M628.7,554.8c6.2-0.4,9.7-4.2,10.6-10.1
							c0.7,5.9,4,9.5,10.1,10.1c-6.2,0.7-9.7,4.4-10.3,10.3C638.1,559.2,634.8,555.7,628.7,554.8z M631.1,637.8
							c6.2-0.4,9.7-4.2,10.3-10.1c0.9,5.9,4.2,9.5,10.3,10.1c-6.2,0.7-9.7,4.4-10.6,10.3C640.6,642.2,637.3,638.7,631.1,637.8z
							 M655.7,378.6c6.2-0.4,9.7-4.2,10.6-10.1c0.7,5.9,4,9.5,10.1,10.1c-6.2,0.7-9.7,4.4-10.3,10.3
							C665.2,383,661.9,379.5,655.7,378.6z M662.8,461.8c6.2-0.4,9.7-4.2,10.6-10.1c0.7,5.9,4,9.5,10.1,10.1
							c-6.2,0.7-9.7,4.4-10.3,10.3C672.2,466.2,668.9,462.7,662.8,461.8z M667.8,565.4V471h23.3v91.1c0,31.9,12.5,46.9,36.3,46.9
							c23.8,0,36.5-14.7,36.5-46.9V471h23.3v94.4c0,41.8-22.7,63.1-59.8,63.1C690.1,628.5,667.8,607.2,667.8,565.4z M669.6,324.3
							c6.2-0.4,9.7-4.2,10.6-10.1c0.7,5.9,4,9.5,10.1,10.1c-6.2,0.7-9.7,4.4-10.3,10.3C679.1,328.7,675.8,325.2,669.6,324.3z
							 M677.7,497c6.2-0.4,9.7-4.2,10.6-10.1c0.7,5.9,4,9.5,10.1,10.1c-6.2,0.7-9.7,4.4-10.3,10.3
							C687.2,501.4,683.9,497.9,677.7,497z M679.1,678.7c6.2-0.4,9.7-4.2,10.6-10.1c0.7,5.9,4,9.5,10.1,10.1
							c-6.2,0.7-9.7,4.4-10.3,10.3C688.5,683.1,685.2,679.6,679.1,678.7z M712.3,624.8c6.2-0.4,9.7-4.2,10.6-10.1
							c0.7,5.9,4,9.5,10.1,10.1c-6.2,0.7-9.7,4.4-10.3,10.3C721.7,629.2,718.4,625.7,712.3,624.8z M717.3,442.2
							c6.2-0.4,9.7-4.2,10.6-10.1c0.7,5.9,4,9.5,10.1,10.1c-6.2,0.7-9.7,4.4-10.3,10.3C726.8,446.6,723.5,443.1,717.3,442.2z
							 M719.5,544.1c6.2-0.4,9.7-4.2,10.6-10.1c0.7,5.9,4,9.5,10.1,10.1c-6.2,0.7-9.7,4.4-10.3,10.3
							C729,548.5,725.7,544.9,719.5,544.1z M728.6,333.7c6.2-0.4,9.7-4.2,10.6-10.1c0.7,5.9,4,9.5,10.1,10.1
							c-6.2,0.7-9.7,4.4-10.3,10.3C738,338.1,734.7,334.6,728.6,333.7z M758.7,649.9c6.2-0.4,9.7-4.2,10.6-10.1
							c0.7,5.9,4,9.5,10.1,10.1c-6.2,0.7-9.7,4.4-10.3,10.3C768.2,654.3,764.9,650.8,758.7,649.9z M767.1,399.5
							c6.2-0.4,9.7-4.2,10.6-10.1c0.7,5.9,4,9.5,10.1,10.1c-6.2,0.7-9.7,4.4-10.3,10.3C776.5,403.9,773.2,400.4,767.1,399.5z
							 M776.1,468.2c6.2-0.4,9.7-4.2,10.6-10.1c0.7,5.9,4,9.5,10.1,10.1c-6.2,0.7-9.7,4.4-10.3,10.3
							C785.5,472.6,782.2,469,776.1,468.2z M784,590.9c6.2-0.4,9.7-4.2,10.6-10.1c0.7,5.9,4,9.5,10.1,10.1
							c-6.2,0.7-9.7,4.4-10.3,10.3C793.5,595.3,790.2,591.8,784,590.9z M788.8,502.3c6.2-0.4,9.7-4.2,10.6-10.1
							c0.7,5.9,4,9.5,10.1,10.1c-6.2,0.7-9.7,4.4-10.3,10.3C798.3,506.7,795,503.1,788.8,502.3z M858.1,360.4
							c6.2-0.4,9.7-4.2,10.6-10.1c0.7,5.9,4,9.5,10.1,10.1c-6.2,0.7-9.7,4.4-10.3,10.3C867.6,364.8,864.3,361.2,858.1,360.4z
							 M861.4,527.6c6.2-0.4,9.7-4.2,10.6-10.1c0.7,5.9,4,9.5,10.1,10.1c-6.2,0.7-9.7,4.4-10.3,10.3
							C870.9,532,867.6,528.4,861.4,527.6z"/>
					</g>
				</g>
			</g>
			<g>
				<g>
					<g class="st0">
						<path class="st1" d="M907.2,580.6h-67.8L822.7,625h-24.9l62.3-154h27.5l62.5,154h-26L907.2,580.6z M864.1,452.3h-24.2v-24.6
							h24.2V452.3z M899.9,561l-21.6-56.5c-1.8-4.8-3.3-9.2-4.8-13.9c-1.5,4.6-3.5,9.2-5.3,13.9L846.9,561H899.9z M903.9,430.1
							c0,0,0,0-0.2,0c-1.1-0.2-2,0-2.9,0s-1.3,0-2.4,0c-0.7,0-1.5-0.2-2.6-0.2s-2-0.7-2.9-0.9c-0.2,0-0.2-0.2-0.4-0.2
							c-0.9,0-1.3-0.2-1.5-1.1c0,0,0,0,0-0.2c-0.2,0.4-0.7,0.7-1.1,0.4c0,0-0.2,0.2-0.4,0.7c0-0.9,0-1.3,0.4-1.5
							c0.9-0.4,0.9-1.1,0.9-2c0-1.3,0-1.8-0.7-3.1c0-0.2,0-0.2-0.2-0.4c-0.2-0.9-0.2-0.9-1.3-1.1c-2.2,0-4.6-0.2-7-0.4
							c-0.4,0-1.3,0-2,0c-1.3,0-2.4-0.7-3.5-1.1c-0.9-0.2-1.5-0.9-2.2-1.3c-1.1-0.2-1.5-0.2-2.6-0.7c-1.5-0.2-15.6-2.4-16.5-2.4
							c0.4-0.2-3.1-0.9-4.6-1.1c0.2-0.2,0.4-0.2,1.1-0.4c-1.1,0-1.8-0.4-2.6-0.4c0.4-0.4,0.9-0.4,1.3-0.7c0,0-1.5-0.2-2.6-0.2
							c0.2-0.7,0.9-1.1,1.3-1.1h-1.1l-0.2-0.2c0.4-0.2,14.7-8.1,15.6-8.6c1.3-1.1,3.1-1.8,4.8-2.6c1.8-0.4,3.5-1.1,5.1-1.8
							c0.2,0,0.9-0.2,1.3-0.2c1.1-0.4,2-1.1,2.9-2c4.4-2,8.6-3.3,13-4c2.4-0.2,4.4-0.4,6.8-0.2c0.2-0.7,0.2-1.3,0-2
							c-1.1-2.4-0.9-4.6,0.4-6.8c0.9-1.8,2.4-3.5,4.4-4.4c1.5-1.1,3.5-1.1,5.5-0.9c2.9,0.9,4.6,2.4,5.7,5.1c0.4,1.3,1.3,2,2.6,3.1
							c1.3,1.1,2.9,2,4.8,2.6c0.7,0.2,1.1,0.4,2,1.1c0.4,0.4,0.7,0.9,0.2,1.3c0,0-0.2,0.2-0.7,0.2c-1.1-0.2-2.6-0.4-4-0.7
							c-1.8-0.2-3.5-0.9-5.1-1.8c-0.4-0.2-1.1-0.2-1.5-0.2c-0.9,0.2-1.5,0.2-2.4,0.2c-0.7,0-1.3,0.4-1.5,1.1l0.2,0.4
							c0.4,0.2,0.9,0.7,1.3,0.7c1.1,0.7,2.4,1.5,3.5,2c2.6,1.3,4.2,3.1,5.5,5.5c0.7,2,1.3,4,1.3,6.2c0,1.8-0.7,3.5-1.3,5.1
							c-1.1,1.5-2.2,3.1-4,4.2c-1.1,0.4-2.4,0.9-3.5,1.5c-2.2,1.1-4.6,2-7.3,3.1c-2.9,1.3-5.7,2-9,2.4c-0.4,0.2-1.1,0-1.1,0.2
							c-0.2,0.2-0.2,0.7-0.2,1.3c0,1.5,0.2,2.2,0.9,3.7c0,0.7,0.2,1.1,0.2,1.3c1.3-0.2,2.2-0.7,3.5-0.9c0.4,0,0.7-0.4,1.1-0.4
							c0.2,0,0.4,0,0.4,0.7c0,0.2,0.7,0.4,0.9,0.7c0.9,0,1.5,0,2.4,0.4c0.7,0.2,1.3,0.2,2,0.2c0.2,0,0.9,0.2,0.9,0.4
							c0.2,0.2,0,0.4-0.2,0.4c-0.4,0-0.4-0.2-0.7-0.2c-0.4,0-1.1,0.2-1.3,0.9C903.7,429,904.1,429.2,903.9,430.1z M907.9,452.3h-24
							v-24.6h24V452.3z"/>
					</g>
				</g>
			</g>
			<g>
				<g>
					<g class="st0">
						<path class="st1" d="M1025.8,528.2l-0.9-0.9l-0.7-2.4l0.2-1.5l-0.2-1.5v-2l0.7-2l1.3-0.7l2,3.1l1.8,0.7l2.4,2.4l-0.2,1.8
							l-2,0.2h-1.5l-3.5,0.9l-2.9,0.2l-1.3-0.2l-1.1-0.2l-1.3-0.7l-2.2,0.2l-2.4-0.4l-2.6-0.9l-2.4-1.8l-2.4-2l-0.7-1.8l-1.1-0.2
							l-1.5-2.2l-1.1-3.3l-0.7-2.6l-0.7-2l-0.9-2l0.2-2.2l-0.7-2.6l0.2-1.8V499l-0.2-2.4l0.4-1.3l-0.2-3.3l0.7-2.2l0.7-0.4l0.4-2.2
							l0.9-2.9l1.8-1.5l1.1-0.9l0.4-1.3l1.3-2.2l1.3-2l2.9-1.1l0.4-1.1l1.3-1.5l1.3-0.7h1.8l1.8,2.2v2l0.4,1.5l-1.3,1.1l-1.5-1.3
							l-1.1-1.3l-2.4-1.8l-2-0.7l-2-0.2l-2.2-0.2h-1.5l-1.3,0.7l-0.2-0.4l-2,0.7l-1.3-1.3v0.4l-1.5,0.9l-2,1.5l-2,0.2l-0.7-0.7
							l-2.6,2l-1.8-0.4l-0.4,0.9l-2.4,2l-2.9,0.9l-1.1,0.9l-1.1,1.1l-2.4,1.8l-0.7,0.4l-1.1,1.3l-1.5,1.1l-1.1,0.7l-1.3,1.1
							l-0.4,1.5l-0.7-0.2l-0.9,1.5l-1.5,2.6l-0.9,1.8l-0.7,0.7l-0.9,0.4l-0.2,2.4l-0.7,0.9l-0.7,1.1l-0.9,2.6l-1.5,1.3l-0.2,0.2v2
							l-0.4,1.8l-0.4,1.8l-1.3,1.1l-0.4,1.8l0.2,1.1l-0.7,1.5l-0.9,1.5l0.4,1.3l-0.4,1.5l-0.4,3.1v1.1v0.2l-0.7,2l-0.2,1.3l-0.2,2.2
							l0.7,1.5l-0.2,0.9l0.2,1.5v0.9l0.4,2.6v2.4v1.1l0.2,1.1v1.8l0.7,2l0.4,0.7v2.2l0.4,1.5l0.9,1.5l-0.2,0.7v1.5l1.1,0.9l1.3,1.8
							l0.7,2l0.2,1.5l1.1,0.4l0.7,1.3l1.8,2.4l0.9,2.6l0.7,0.4l1.1,0.9l1.3,1.3l0.7,2.2l0.9,0.9l1.3,1.1l1.1,1.5l1.3,1.1l0.7,0.9
							l2,1.1l0.9,0.9l1.5,1.3l1.1,1.3l0.9,0.7l1.5,0.9l1.3,1.3l1.3,1.8l0.9,0.9l1.5,0.2l0.7,1.3l1.8,0.7l1.1,0.9l1.5,0.9h0.7
							l1.3,0.7l2,1.3l1.8,0.7l1.3,1.3l1.3,0.7l2.2,0.4l0.9,0.9h0.7l1.5,1.1l2.2,0.9h2.2l1.5,0.7l2,0.7l1.5,1.1h1.5l2.4,0.2l0.2,1.3
							l-2,1.8l-0.9-0.7v-2.2l-0.2-1.1l-1.1-1.5l0.2-1.5l-0.2-2.9l-0.7-1.8l-0.7-0.7l0.2-1.8l-0.2-2.6l0.7-2.2l0.2-2.9l-0.2-2
							l0.7-1.1l0.2-3.1l0.7-1.1l0.4-2.4l1.5-2.2l0.4-0.7l0.7-1.1l0.7-2.4l1.1-1.3l2.2-1.3l2-1.1l1.1-1.3l1.3-0.7l1.8-2l2.6-0.9
							l1.3-0.2l2.2-0.4l1.1-0.9l2.4-0.4l2.9-0.2l1.8,0.9l2.2,0.2l1.8,0.2l2.2,1.5l1.5,1.5l1.3,0.7l1.8,0.9l1.3,1.1l1.8,1.5l1.8,1.8
							l1.3,1.8l0.9,0.2l-0.2,0.9l0.4,0.2l-0.2-0.4h-0.2l0.9-0.7l0.7,0.4l0.7-1.3l2-2.6l1.5-1.5l1.8-0.7l0.9-1.5l2-0.9l2.2-1.3
							l1.3-1.1l1.3-0.4l2.6-1.1l2.4,0.4h1.8l1.1-0.2l2.9,0.2l2.4-0.2l1.5,0.7l0.9,0.4l2.2,0.4l2.4,0.2l2.2,2l0.7,0.4l1.1,0.2
							l2.6,1.8l1.8,1.8l1.3,0.9l1.3,1.1l1.3,1.8l0.9,1.8l1.1,2.4l1.1,2.4l0.2,2.6l0.2,2l0.9,2v2.2l-0.2,1.5l0.2,1.5l-0.2,1.8
							l0.4,1.8v2.6l-0.2,2.6l-0.7,1.1l-0.2,1.3l-1.5,2.2l-0.7,2l-0.9,2l-1.8,2.2l-0.9,0.9l-0.4,0.9l-1.5,1.5l-2.4,1.8l-0.9,0.7
							l-1.8,0.9v1.3l-0.9,0.7l-1.8,0.7l-0.7-0.4h1.3l1.1-0.7l1.8,1.3l1.3,2.4l1.1,1.3l1.5,1.5l1.1,2.6l0.9,1.1l0.4,1.1l1.3,2
							l0.9,3.3l0.4,0.7v2.6l0.9,2.4l-0.7,1.3l0.7,1.5l-0.2,2.6l-0.2,2.4l-1.3,2.4l-0.7,2.6l-1.3,2.9l-1.3,0.4l-0.9,1.8l-0.7,1.5
							l-1.1,1.5l-2,1.3l-1.5,1.1l-1.5,1.1l-0.9,1.3l-1.5,1.1l-1.8,0.9l-1.8,1.5l-2.2,0.2l-3.1,0.9l-1.5,1.5l-2.2,0.7l-1.5-0.4
							l-0.9,0.4l-2.9,0.4l-1.8-0.4h-2.2l-3.3-1.3l-1.8-1.1l-1.1-0.7l-1.3-1.3l-2-1.3l-2.2-1.8l-2.4-2l-0.9-1.5l-1.3-1.8l-0.4-0.7
							l-0.4,0.2l-0.9-0.9l-1.8,0.2l-2,1.8l-3.1,1.5l-1.5,1.1l-2.9,0.7l-2.4,1.1l-2,1.1l-2.4,0.4l-1.8,0.2h-1.1l-2.4,0.4l-1.8,0.7
							l-2-0.2l-2.6-0.7l-1.3-0.2l-2.2-0.7l-2.2-0.9l-1.5-0.2l-1.8-0.9l-1.3-1.3l-2.2-0.7l-2.4-1.3l-0.7-2.2l-1.5-1.5l-0.9-1.5
							l-0.9-1.1l-0.4-1.3l-1.5-2.2l-1.1-2l-0.7-2.4l-0.2-2.9l-0.7-2.6v-1.8l-0.7-1.1l-0.2-2.4l0.7-2.2l-0.4-2.6l1.1-1.3l-0.4-1.1
							v-1.5l0.9-1.8l0.7-2.2v-2l0.4,0.2l-0.9-1.3l-1.8-1.3l-2.4-1.5l-2.9-1.1l-2.9-1.3L995,612l-0.4-0.2l-1.1-0.4l-2.2-1.3l-1.1-0.4
							l-1.1-0.2l-2.9-1.3l-1.5-2l-0.9,0.2l-1.8-1.1l-1.8-2.2l-0.7-0.2l-1.8-0.7l-2-1.8l-2-1.3l-2.4-2l-0.4-0.7l-1.1-0.9l-1.5-1.8
							l-1.8-1.8l-1.8-1.1l-0.7-0.9l-0.9-1.1l-0.7-0.7l-2.4-1.5l-0.9-1.5l-2-1.3l-0.2-1.5l-1.3-1.3l-1.3-0.7l-1.8-2.2l-0.4-2v-0.7
							l-1.5-1.8l-0.9-1.8l-0.4-0.7l-0.9-1.1L947,568l-0.7-1.5l-1.1-2V563l-1.1-1.1l-1.1-2.2v-2l-0.9-2l-0.9-1.3l-0.2-1.3l-0.4-2
							l-0.9-1.8v-0.9v-2l-0.2-2.6l-0.4-1.5l-0.4-3.1v-2.6l-0.7-2.2l0.2-2.2l-0.2-1.8l-0.2-1.8l0.9-1.5l0.2-2v-1.8l0.2-2l0.9-2.2
							l-0.7-1.3l0.7-1.8l-0.4-1.3l0.9-2.9l0.7-1.8l0.2-0.2v-2.4l0.4-1.8l1.3-1.8l-0.2-1.3l0.4-1.8l0.9-1.8l0.7-1.5l0.9-1.8l1.1-1.5
							v-1.8l1.5-1.8l0.9-2l0.4-0.9l0.7-1.5l1.5-2.2l0.7-2.2l1.1-1.1l1.3-2l1.3-1.8l1.1-1.8l0.2-1.5l1.8-1.1l1.3-1.3l0.4-1.1l3.3-2.6
							l1.8-1.5l0.4-0.2l1.5-1.3l3.1-3.1l2-0.4l0.4-0.7l1.8-1.3l1.8-0.9l1.8-0.7l1.8-0.9l2-0.9h1.3l1.8-1.3l2.2-0.4h0.9h3.1l1.8-0.7
							l0.9-0.2l1.5-0.2l2-0.2l2,0.2l1.3-0.4l2,0.7l2.9-0.2l2.2,0.2h2.6h2.6l1.5,0.9h4.2l1.1,0.2l2,0.4l2.2,0.4l0.2,1.1l0.7,0.7
							l-0.7,0.2h-0.9l-1.5-1.1l-0.2-1.1l-1.3-1.5l-0.9-2.4l0.2-1.3l-0.7-1.8l-1.1-2.4l0.7-1.5l-0.7-2.6l0.2-1.3l-0.4-1.3l0.2-2.6
							l0.2-2.2l0.2-1.3l0.9-2.4v-1.3l0.9-2v-1.1l1.1-2.4l0.7-2.2l0.7-1.3l0.7-1.8l2-1.5l0.7-0.9l0.9-2.4l1.3-1.1l1.8-2l1.8-1.1
							l2.2-2.2l1.8-0.7l2-1.5l1.8-0.4l2-0.7l1.5-0.9l2.2-0.2h2l1.8-0.7l2.2,0.7l1.8-0.4l1.3,0.7l2.4,0.2l2.4,0.9h1.1l1.8,0.7
							l2.6,1.1l1.5,1.3l0.9,1.1l2.2,2l0.9,0.7l1.8,2l1.1,1.1l0.9,2l0.7,1.3l0.9,1.5l0.9,2l0.4,0.9l1.3,2l0.4,1.3l2.2,4.4l0.2,2.9
							l-0.4,0.4l0.7,2.6v4.8l-0.4,1.8v1.5l-0.4,2l0.4,2.2l0.9,1.8h-1.1l-1.1-0.9l-1.5-1.3l1.1-1.3h2.4l2.2,0.2l1.8-0.2l2.4,0.4h3.1
							l3.1,0.2l1.8,1.1l0.4,0.2l4.6,0.7l2.2,1.1l1.5,1.3l1.1,0.4l2.2,0.9l0.7,1.1l2.9,2.4l2.4,1.5l1.5,2.2l0.7,2.4l1.3,3.1v1.1
							l0.4,1.3l-0.2,2.6l0.4,3.7l-0.7,1.5l-0.2,1.1l0.4,2.2l-1.1,2.4l-0.2,1.1l-0.2,1.5l-0.2,1.8l-1.1,3.3l-1.1,1.8l-1.3,0.4v1.8
							l-1.8,1.5l-1.1,1.3l-1.1,2l-1.5,1.3l-1.5,0.9l-0.4,1.1l-1.1,0.9l-2,1.8l-2,1.3l-1.5,0.4l-2,0.9l-1.5,1.5l-1.8,2h-2.2l-2.2,0.4
							l-0.4-0.4l0.2-0.7l1.1,0.4l-0.2,0.9l0.9,1.5l0.9,0.7l0.7,2.4l1.5,3.1l1.1,2l0.4,3.3l0.7,1.8l1.1,2l0.2,3.3l0.4,2.4l-0.4,2.2
							l-0.9,2.2l-0.4,2l-0.9,0.9l-1.5,2.2l-1.1,2l-1.8,1.5l-0.9,1.8l-1.5,1.1l-1.8,2l-2.4,0.7l-2,1.5l-2.2,2l-2,0.4l-1.3,0.7l-2,0.4
							h-2.2l-1.1,0.9l-1.5,0.4l-2.4,0.2l-1.5-0.4l-3.5,0.4l-2.9-1.3l-2-0.2l-2.2-0.7l-1.3-1.3l-1.8-1.1l-2.9-1.1l-0.2-1.3l-1.1-0.9
							l-1.8-1.8l-1.5-2.6l-0.7-1.3l-1.1-0.9l-1.1-1.5v-2l-1.1-1.5l-1.1-2l-0.4-2.2l-0.4-2.2l-0.7-2.6l-0.4-2.4v-0.7l-0.2-0.7
							l-0.7-0.2l0.4-0.2v-0.4l-1.1,1.3l-2.2,0.4h-2.4l-2,0.4l-1.8,1.3L1025.8,528.2z M1023.6,508.6l1.8,0.2l0.2,0.7l1.8-0.7l1.8-0.4
							l2-0.7l1.8-0.9l1.1-0.2l0.9-0.2l1.1-0.9l3.1-2.6l1.3-0.9l1.5-1.1v-0.7l1.1-1.3l-1.3-1.3l-0.7-1.3l0.2-1.1l-1.3-1.5l-1.1-1.3
							l-1.1-2l-0.9-2.4l-2.4-2.4l-1.3-2l0.9-1.1l1.1,0.9l-0.9,1.5l-2.4,1.3l-0.9,0.9l-1.8,0.7l-0.4,1.1l-1.5,1.1l-1.8,1.1l-0.9,0.9
							l-1.1,1.3l-1.5,0.9l-1.1,0.4l-1.1,1.5l-1.3,1.5l-1.1,1.5v1.3l-0.2,0.4l0.2,0.4l0.2,1.5l1.3,1.3l0.7,0.9l1.5,1.3l1.1,1.5
							L1023.6,508.6z M1025.6,635.6l-0.2,2.2l0.4,2.2l0.2,1.1l-0.4,1.8l0.2,1.1l0.4,1.3h0.7l0.7,1.1h0.9l1.3,1.1l0.9,0.7l0.2,0.2
							h1.8l2.4,0.4l2.6-0.4l0.9-0.7l1.8-0.2l1.3-0.9l1.3-0.4l0.9-0.7l0.2-1.1l1.3-0.7l1.5-1.1l0.7-1.1l-0.4-0.4l0.9-0.9v-2l1.1-2.4
							l0.7-1.8l0.7-1.1l-1.1-2.2v-2.4l-0.4-1.1l-0.4-2.6l1.1-0.2l0.2,1.8l-0.9-0.2l-0.7-0.7l-0.7-0.4l-1.3-0.4l-2-0.2l-0.9-0.2
							l-1.3-0.4h-2l-0.7,0.2l-1.3-0.2l-2.2,0.9l-1.1,0.9h-2l-0.9,0.7l-0.2-0.4l-0.7,0.9l-2,1.8l-1.3,1.5v0.9l-1.1,2.4l-1.1,1.3
							V635.6z M1063,443.1l0.7-0.9l-0.7-3.5l-0.7-2.6v-2.4l-0.2-0.4l-1.5-1.8l0.2-1.8l-1.3-1.5l-0.2-1.5l-1.1-1.5l-1.1-1.3l-0.9-0.7
							l-0.7-0.7l-0.4,0.2l-0.9-0.2l-1.1-0.7l-2.4-0.2l-1.5-0.4l-0.9,0.9h-1.8l-1.8,0.2l-1.5,0.7l-1.1,0.4l-0.7,0.2l-1.8,2.4l-0.7,2
							l-1.1,2.4l-1.3,1.5l-0.2,1.1v1.3l-0.4,0.9l0.4,1.8l-0.2,1.8l-0.4,1.8l0.7,0.9l0.2,2.9l1.1,1.1l-0.2,1.3l1.3,1.3l0.4,2.4l1.3,2
							l0.7,1.8l0.4,0.7l1.1,0.9v0.4l-0.2-0.4l-0.2,0.4l0.7-0.7l1.8-0.2l1.5-0.7l1.1-0.2l1.8-1.1h2l2.2-0.9l2.4-0.4l1.3-0.2l1.1-0.4
							l2.2-1.1l1.3-1.1l0.2-0.2l0.2,0.2l0.2-0.2l0.4-1.3l0.2-2V443.1z M1036.8,588.7l0.2,1.1l-0.4,1.8l0.7,0.7l0.9,1.5l1.1,1.8
							l1.3,1.5l0.9,1.5l1.1,1.3l0.7,0.7l0.9,0.7l1.5,0.2l2,0.9l0.4,0.2l-0.9,0.2v-0.9h1.8l0.2-1.3l1.1-1.5l1.1-0.4l0.2-0.9l0.4-0.9
							v-1.1l0.4-1.3l-0.2-2l-0.2-0.7l-0.4-1.8l0.4-1.3l-0.4-0.9l-0.7-0.4l-0.7-1.8l-1.8-2h0.2V583l-1.3-1.1l-1.1-0.7l-1.5-0.2
							l-0.9-0.2l-2.4,2l-0.9,1.5l-0.9,1.1l-1.3,2.6L1036.8,588.7z M1055.9,519l-0.9,1.3v1.1l0.7,2.6l0.7,2.2l0.9,1.8l-0.4,1.8
							l1.8,2.4l2,2.4l-0.4,2l0.9,0.4l1.3-0.4l2.2,0.7l0.9-0.2l0.4,0.2l1.3-0.2l1.8-0.7l1.5-0.7l1.8-0.7h0.2l0.9-0.7l0.7-1.1l0.9-1.1
							l0.7-0.7l-0.4-2.6l0.2-1.5l-1.1-1.3l-0.7-0.4l-1.3-2.2l-0.4-2.4l-1.3-0.9l-0.2-1.1l-1.1-0.4l-0.9-1.3l-2.6-3.3l-1.1-1.1
							l-1.3-1.5l-1.8-1.5l-1.3-2.2l-0.9-1.8l1.3-1.1l1.3-0.7l1.5,0.9l-2,1.5l-1.1,3.1l-0.4,2l-1.1,0.7l-0.4,1.3l-1.5,2.2l-0.9,1.8
							V519z M1090.9,642.4l0.4-2.2l0.2-2.9l-0.2-0.9l-1.1-0.2l-0.4-2.2l-0.4-1.3l-1.3-1.8l-1.3-1.3l-1.1-1.1l-2.2-1.8l-1.3-1.3
							l-1.3-0.4l-2,0.7l-1.3,0.7l-1.3,1.1l-1.8,1.3l-0.9,0.7l-0.2-0.9l0.7-0.9l1.8-1.5l1.3-1.1l0.7-1.1l2-1.8l1.1-1.1l1.3-1.5
							l0.7,0.7l-0.9,1.1l-2,3.3l-1.1,0.9l-1.5,2.9l-1.5,1.1h0.2v1.3l-1.1,2.4l-0.9,2l-0.7,1.1l-0.4,2.2l-0.7,1.5v1.5l-1.3,0.4
							l-1.5-1.5l0.7-2l-0.2-1.1l0.7-0.2l0.2,1.8l0.4,2l1.1,1.1l0.9,2.2v1.5l0.9,0.9l0.2-1.3l-1.1,0.4l0.2,1.1l1.5,2.9l2.6,2.2
							l0.2,1.5l-1.1-0.4l0.9-1.5l2.9,1.1l1.1-0.2v0.7l1.5-0.7h1.3l1.1-0.9l0.7-0.4l0.4-0.4l1.1-0.4l0.4-0.7l0.9-1.1l0.4-1.8l0.9-2.2
							L1090.9,642.4z M1078.1,596l-0.2,2.6l-2,1.3l-1.1-0.9l0.4-1.3l0.9-1.1l1.3,1.8l0.4,1.3l0.9,1.1l0.2-0.2l1.8,1.5l1.1,0.7
							l-0.7,1.3l-0.2,0.4l0.4-1.3l1.3-1.3l2,0.2l1.5-0.2l1.3-0.2l2-0.7l1.8-1.8l0.9-1.1l0.2-0.9l0.9-0.4l1.1-2.2l0.9-1.3h0.2
							l-0.4-1.5l0.4-1.5v-1.5l0.2-1.5l-0.2-1.1l-0.4-1.3l-0.2-1.1v-0.4l-1.3-1.3l-1.1-1.8l-0.9,0.2h-0.4l-1.8-0.4l-1.1-0.2l0.2-0.7
							l-0.7,0.9l-1.5,0.4l-1.1,0.2l-0.4,0.7l-0.9,0.9l-0.7,1.8l-0.4,1.1l-0.7,2.2l-1.3,1.3l0.2,1.1l-0.9,1.5l-0.9,2.4L1078.1,596z
							 M1078.4,488.8l1.8,0.2l2.6-0.7h2l1.8-0.7l0.7-0.7l2-0.7l1.3-0.7l0.9-0.7l1.5-1.1l0.9-0.4l0.2,0.4l0.7-1.5l1.8-2.9l2.2-0.4
							l-0.7,2.4l-1.5-0.4l0.9-2l0.9-2.2l0.4-1.3l0.2-1.5l-0.2-1.5l0.2-1.5l-0.7-1.5l-0.7-0.7l-0.2-0.4l-1.3-0.9l-1.8-0.7l-1.1-0.7
							h-0.7l-2-0.2l-1.8-0.7l-0.7-0.2l-0.7,0.4l-2.2,0.2h-2l-1.3,0.2l-0.2,0.4l-0.4-0.2l-1.5,1.5l-0.9,1.3v0.2l-1.1,1.8h-1.8
							l-0.2-1.1l1.5-0.2l0.7,3.7l0.2,2.6l0.4,1.5v1.3l0.4,1.3l0.2,2.6v3.1l-1.3,2.4l-0.4,1.1l0.7-0.4h-0.2L1078.4,488.8z"/>
					</g>
				</g>
			</g>
			<g>
				<g>
					<g class="st0">
						<path class="st1" d="M1115.1,471h23.3v64h77.9v-64h23.3v154h-23.3v-70.2h-77.9V625h-23.3V471z"/>
					</g>
				</g>
			</g>
			<g>
				<g>
					<g class="st0">
						<path class="st1" d="M1257.9,489.7c24.9,11.7,36.5,15,39.2,8.4c13.9,28.6,8.8,40-21.1,58.1c6.8-8.8-2-12.8-31.2-14.7
							C1294.6,530.6,1297.3,523.8,1257.9,489.7z M1269.1,563.2c40.9-15.2,35.6-7,1.5,31.9c35.6-36.3,34.8-34.1,4.4,3.7
							c27.3-33.9,32.8-37.4,20.5-3.7c2.2-8.1,1.5-9.9-2-5.9c-1.3,2.4-4.2,8.1-8.8,16.5c9-14.1,7-8.4,2.2,1.8
							c0.7,0.9-1.5,6.4-3.1,10.6l-2.6,7h-24.9l11.4-28.2c2.2-5.5,4.6-11.7-4-8.6c13.9-16.1,16.7-22.9-9.5-13.9
							C1260.3,570,1265.4,566.3,1269.1,563.2c2.9-2.6,5.3-4.8,6.8-7c-6.8,4.2-14.5,8.4-23.8,13.4
							C1258.5,567.2,1264,565,1269.1,563.2z M1297,498.1c0.9-2.2,0.7-5.7-0.4-10.6c-1.5-6.2-4.6-14.5-9-25.1
							c22,31.2,24,26.2,17.8-7.3c9.5,25.1,10.8,21.8,8.6-1.8c4.2,18.9,4.6,17.6,2.4-0.4c1.1,9.9,2.6,14.3,4.4,13.4
							c1.5,39.8-1.3,46.9-24.2,21.1c-4.6-5.3-10.3-11.9-16.7-20C1287.1,479.6,1292.9,489.7,1297,498.1z M1292.9,604.8
							c20.7-34.8,29.3-40.9,40.7-15.6c-5.5-0.4-10.1,8.4-15.4,27.3c-2.9-35.9-8.8-35.9-26.6-7.3L1292.9,604.8c1.3-4,2.2-7,2.6-9.7
							c-1.3,4-2.9,8.4-4.8,13.4C1291.5,607.2,1292.2,605.9,1292.9,604.8z M1310.5,452.1c-5.9,0.2-12.1,0.2-12.1,0.2v-24.6h24.2V440
							v11.4C1322.6,452.3,1316.6,452.3,1310.5,452.1z M1321.5,465.5c1.3-1.8,2.6-6.2,4-13c0.7,2.4,1.1,4.4,1.8,6.2
							C1326.7,500.5,1325.9,504.2,1321.5,465.5l-1.3-12.5l0.7,13.4C1321,466.2,1321.2,466,1321.5,465.5z M1332,466.4
							c-3.3,31.7-4.2,30.6-4.8-7.3v-6.4c0,2,0,4,0,5.9v0.4C1328.7,463.3,1330.3,465.7,1332,466.4z M1332.5,466.6
							c0.9,0,1.5-0.2,2.4-0.9C1331.8,489.1,1330.9,490.4,1332.5,466.6c0.2-4,0.4-8.4,0.9-13.6l-1.3,13.4
							C1332.2,466.4,1332.2,466.4,1332.5,466.6z M1343.2,615.1c-0.7-7.7-1.1-14.1-1.3-19.6c-0.9-33.9,8.4-29.7,39.6,0.2
							c-26.4-34.8-23.1-34.8,8.4-8.8c-31.2-25.7-32.3-28.2,3.5-6.2c0.2,0.2,0.7,0.7,0.9,1.1c-1.8,3.3,0.7,9.5,2.9,15l11.4,28.2h-26
							l-2.6-7c-1.5-4.2-3.7-9.7-5.5-14.7c-2.4-5.9-4.6-11.7,3.1-4c-5.3-7.7-8.1-12.3-8.1-13.2c-4-2.9-2.6,2,4.4,16.1
							c-19.6-21.6-25.5-21.6-21.1,10.6c-4.2-7.5-7.5-13.2-10.8-17.2c-3.1-4.2-5.9-6.4-8.4-6.4
							C1336.4,595.5,1339.7,604.4,1343.2,615.1z M1335.5,465.3c2-1.8,4.4-5.7,6.8-11.4c0,1.5,0.2,2.9,0.2,4.2
							C1334.7,490.6,1333.3,491.9,1335.5,465.3c0.2-3.5,0.7-7.5,1.1-12.1c-0.7,4.8-1.1,9-1.8,12.5
							C1335.1,465.7,1335.3,465.5,1335.5,465.3z M1350.7,456.1c-4,12.5-4.2,15.4,0,7.3c-14.3,37-15.2,34.3-8.1-4.4
							c0.4-1.5,0.7-2.9,0.9-4.4c-0.2,1.3-0.7,2.4-0.9,3.5v0.9C1343.7,470.8,1346.5,469.5,1350.7,456.1z M1353.8,457.2
							c-5.3,19.8-4,23.1,9.5,4c-0.9,2.2-1.5,4-2.2,5.9c-22.7,38.1-23.5,35.9-9.5-5.3c0.4-1.5,1.1-3.1,1.5-4.6
							c-0.9,2.2-1.5,4.2-2.4,6.2l0.9-1.5C1352.3,460.5,1352.9,458.9,1353.8,457.2z M1342.4,440v-12.3h24v24.6h-11.9
							c-6.2,0-12.1,0-12.1-0.2V440z M1380.4,472.8c-12.8,19.6-16.7,29.5-8.8,31.9c-26.4,9.7-26.8,1.3-12.1-32.1
							C1354.5,489.5,1359.3,490.4,1380.4,472.8z M1364.1,462c-1.1,1.8-2,3.5-3.1,5.1c-0.7,2-1.1,3.7-1.5,5.5
							C1360.8,469.3,1362.4,465.7,1364.1,462z M1382.2,504.7c5.1-0.7,11.4-2,19.1-4c-33.9,23.1-31,29.9,7,38.9
							c-14.1,2-21.3,4.6-23.5,7.9C1353.8,535.3,1353.4,527.1,1382.2,504.7c4.4-3.3,9.5-7,15.2-11c-10.3,4.8-18.9,8.4-25.7,11
							C1374,505.3,1377.6,505.3,1382.2,504.7z M1402,567.4c-16.7-2-15,4.2-8.8,13c-32.1-24.2-38.3-31.7-8.4-28.2
							C1386.8,556.2,1392.7,561,1402,567.4z M1405.9,555.3c-8.1-2.9-15.2-5.3-21.1-7.7c-0.7,1.3-0.7,2.9,0,4.6
							C1390.5,552.9,1397.6,554,1405.9,555.3z M1393.4,580.8c0.2,0,0.7,0.2,0.9,0.4c-0.4-0.2-0.7-0.4-1.1-0.9
							C1393.4,580.6,1393.4,580.6,1393.4,580.8z"/>
					</g>
				</g>
			</g>
		</g>
	</g>
</g>
</svg>
