<?xml version="1.0" encoding="utf-8"?>
<!-- Generator: Adobe Illustrator 27.2.0, SVG Export Plug-In . SVG Version: 6.00 Build 0)  -->
<svg version="1.1" id="Ebene_1" xmlns="http://www.w3.org/2000/svg" xmlns:xlink="http://www.w3.org/1999/xlink" x="0px" y="0px"
	 viewBox="0 0 1920 1080" style="enable-background:new 0 0 1920 1080;" xml:space="preserve">
<style type="text/css">
	.st0{fill:#0000FF;}
</style>
<g>
	<path class="st0" d="M551.4,613.6c0.2-5.5,0-11.4,0.4-16.9c0.7-5.7,0.2-11.4,0.9-17.2c0-0.2,0-0.7,0-0.9c-0.2-1.3-0.7-2.2-1.5-2.6
		c-1.8-0.7-2.6-2-4-3.3c-1.5-1.5-2.2-3.5-2.4-5.5c-0.2-3.1-0.7-6.4-0.2-9.7c0.7-4.2,0.2-8.4,0.7-12.5c0.2-5.1-0.4-9.9-1.5-14.7
		c-0.4-3.7-0.4-7.5,0.2-11.2c0.7-2.9,0.7-5.7-0.2-8.8c-0.4-0.9-0.9-1.5-1.8-1.8c-1.5,0-2.9,0.2-3.3,1.3c-0.2,0.4-0.7,1.3-0.9,2
		c-0.7,3.1-1.3,5.9-1.8,9c-0.4,2.2-0.4,4.4-0.4,6.6c0,2.4,0,4.8,0,7.3c0,4,0,7.9,0.7,11.7c0.4,1.5,0.4,2.9,0.4,4.2
		c0.2,5.9,0.4,11.9,0.4,17.6c0,2.6-0.2,5.3-0.4,7.7c-0.2,4.2-2.9,6.4-6.2,8.1c-1.5,0.9-3.3,1.3-4.8,1.5c-3.1,0.9-5.9,1.3-8.8,1.8
		c-0.9,0.2-2,0.4-2.9,0.9c-4.2,1.1-8.1,1.5-12.3,1.3c-2.4,0-4.8,0.4-7,0.7c-1.5,0.2-2.6-0.2-3.3-1.3c-1.3-0.9-2.4-2-3.1-3.3
		c-2.2-3.1-2.4-6.8,0-10.1c1.3-1.8,2.9-3.3,4.8-4.4c2.6-1.1,4.8-2.2,7.7-3.1c2-0.4,4-1.1,5.9-2c4.2-1.5,5.7-3.5,5.7-8.1
		c0-2.9,0-5.7-0.4-8.6c-0.2-2.6-0.2-5.1,0-7.9c0.2-6.2,0.9-12.1,2-18.3c0.7-5.5,1.8-11,2.4-16.3c1.1-5.7,2.9-11.2,6.2-15.8
		c0.9-1.1,1.8-2.2,2.6-3.3c1.3-1.3,2.6-2.6,3.7-4c2-2.2,4.4-3.5,6.8-4.8c1.3-0.4,2.4-0.9,3.5-0.9c4.4,0,8.6-0.4,12.8-0.7
		c2.2-0.2,4.4-0.2,6.4,0.2c3.7,0.4,7.5-0.2,11.2-0.7c0.9,0,1.8-0.4,2.4-0.7c2.2-0.9,4.2-2,5.9-2.9c0.7-0.4,1.3-0.7,1.8-1.3
		c2.4-2,3.1-4.4,2.2-7.5c-0.7-1.8-1.3-3.3-2-5.1c-1.1-2.6-1.8-4.8-1.5-7.7c0.2-1.8,0-3.5,0.2-5.3c0.2-4,1.8-7.5,4.8-10.3
		c3.7-3.3,8.1-5.1,12.5-6.6c2.4,0,4.6-0.2,6.8-0.2c1.3,0,2.4,0,3.5,0.2c2.4,0.7,4.2,1.3,5.9,3.3c2.9,3.5,4.6,7.3,5.1,12.1
		c0.2,0.4,0.4,1.3,0.7,1.8c0.9,2.4,0.7,4.8,0.4,7.3c-0.4,3.1-1.3,5.9-3.5,8.6c-2.2,2.2-4.2,4.4-7,5.7c-0.7,0.4-1.1,1.1-0.9,1.8
		c0,0.4,0,0.9,0,1.5c-0.4,5.3,0.2,4.4,4.8,5.9c0.4,0.2,1.3,0.4,2,0.4c3.1,0,5.7,1.3,8.4,2.6c1.3,0.4,2.4,0.9,4,0.9
		c1.1,0,2.4,0.2,3.5,0.2c0.7,0,1.8,0,2.4-0.2c4.8-1.3,6.4-4.8,7.5-8.4c0.9-3.3,1.3-6.8,1.5-10.3c0.4-3.7,0.7-7.7,2-11.4
		c0.2-1.5,0.2-2.9,0.7-4.2c0.4-2.2,1.5-3.7,3.7-4.6c2.9-1.3,5.9-2.4,9.2-2c3.3,0.4,6.6,0.2,9.9,0.4c2.9,0,5.5,0.4,8.1,0.7
		c4.2,0.4,6.6,2.9,8.8,5.7c1.3,1.8,1.3,4,0.7,5.9c-0.7,1.3-1.3,2.6-1.8,3.7c-1.1,2.2-2.6,3.3-4.6,4.2c-1.8,0.7-3.5,1.1-5.3,1.1
		c-3.3,0-6.6,0.2-9.9,0.4c-0.7,0-1.5,0.9-1.8,1.8c-0.2,2.2-0.2,4.8-0.4,7c-0.4,3.7-0.7,7.3-0.9,10.8c-0.2,2-0.7,4.2-0.9,6.2
		c-0.2,0.2-0.2,0.4-0.2,0.4c-1.8,3.1-2.9,6.4-5.1,9c-0.9,1.3-1.8,2.4-2.6,3.7c-1.8,2.2-4,3.7-6.6,5.1c-2.9,0.9-5.7,1.8-9,2
		c-1.5,0.4-3.3,0.7-5.1,0.9c-0.7,0-1.5,0.2-2,0.2c-3.7,0.9-5.7,3.3-6.2,6.8c-0.4,1.8-0.4,4-0.4,6.2c0,7.5-0.2,15.2-1.5,22.4
		c-0.2,0.9-0.2,1.8-0.2,2.6c-0.2,1.3-0.2,2.4-0.4,3.5c-1.1,4.8-1.1,9.9-1.5,15c-0.2,3.5-0.2,7.3-0.2,10.8c0,2.9-0.2,5.5-0.4,8.1
		c0,2.6,0,5.3,0,7.9c0,2.4-0.2,5.1-0.4,7.7c-0.2,1.8-0.2,3.7-0.4,5.7c-0.4,3.3,1.1,5.5,3.7,7.5c1.1,0.9,2.4,1.8,3.7,2.4
		c4,2.9,7,5.9,9.9,9.7c0.9,1.5,1.5,2.9,1.5,4.4c0.4,2.4-0.4,4.4-2.4,5.7c-2.4,1.3-5.1,2.2-7.9,2.6c-2,0.4-4,0-5.9-1.3
		c-2.4-1.1-4.8-2.2-7.3-3.3c-2.6-1.3-5.1-2.4-7.3-4.2c-0.9-0.9-2.2-1.5-3.5-2.2c-0.7,0-1.5-0.2-2-0.4c-2.4-1.1-4.8-2-6.2-4.4
		c-2-3.3-3.7-6.6-3.3-10.6c0.2-4.4,0.4-9,0.4-13.4c0-0.9,0-2.2,0.2-3.1c0.9-3.1,0.7-6.2,0.9-9.2c0.2-3.3,0.4-6.4,0.9-9.7
		c0.4-2,0.9-4.2,0.2-6.2c-0.2-0.9,0-2,0.2-3.1c0-1.8,0.2-3.5,0-5.3c0-1.8-0.9-3.3-1.8-4.6c-0.2-0.2-0.7-0.4-1.1-0.4
		c-0.2,0-0.9,0.2-0.9,0.9c-0.4,2.6-0.7,5.3-0.9,7.7c-0.2,3.3,0,6.6-1.1,9.7c0,0.7,0,1.3,0,2.2c0,3.1-0.2,5.9-0.9,9
		c-0.7,2.6-0.9,5.1-1.1,7.9c-0.7,5.3-1.8,10.8-2.9,16.1c-0.2,0.7-0.4,1.3-0.4,2.2c0,2.9-0.9,5.7-1.8,8.4c-0.7,1.8-0.2,3.3,0.9,4.6
		c2.4,2.9,4.6,5.3,7,7.9c2.4,2.4,3.7,5.7,5.5,8.4c0.9,3.3,1.8,6.2,0.9,9.2c-0.4,1.1-1.1,2-1.8,2.4c-1.8,1.5-4,2.6-5.9,3.1
		c-2.6,0.9-5.5,0.7-8.1,0c-0.4,0-1.1-0.2-1.5-0.7c-2.2-2-5.1-3.7-6.6-6.2c-1.5-1.8-3.3-3.1-5.1-4.6c-2.4-1.5-4.6-3.3-7.5-4.6
		c-1.3-0.2-2.4-1.5-3.7-2.2c-1.1-0.9-1.8-1.5-1.8-2.9c-0.2-2.6-1.3-5.1-0.9-8.1c0.2-3.5,0.2-7.5,0.4-11.2
		C551.4,615.6,551.4,614.7,551.4,613.6z M529,533.3c0-2,0-3.7,0-5.7c0-2.6,0-5.5,0.9-8.1c0.9-2.9,1.5-5.9,2.4-9
		c0.2-1.3,1.1-2.4,2.2-3.3c1.3-1.1,2.9-2,4.2-3.1c1.8-1.5,3.7-1.8,5.7-1.3c2.6,0.7,4.8,2,5.7,4.8c0.7,3.1,1.3,6.2,1.3,9.5
		c-0.2,7.5-0.9,14.5,0.2,21.8c0,0.2,0,0.4,0,0.7c0,5.9-0.2,11.9-0.2,18c0,2.6,0,5.3,0.2,8.1c0,2.2,0.9,4,2.9,5.1
		c0.7,0.4,1.1,0.9,1.8,1.3c2.2,1.8,3.5,4,3.3,7c0,1.8-0.2,3.3-0.4,5.1c-0.2,1.3-0.4,2.9-0.4,4.2c0,1.5,0,3.1,0,4.6
		c-0.2,7.5-1.8,15.2-1.1,22.7c0,0.9,0,1.3,0,2.2c-0.2,3.1-0.4,6.4-0.4,9.7c0,2,0.2,3.7,0.4,5.5c0,1.3,0.9,2,1.8,2.4
		c0.4,0.2,0.7,0.4,0.9,0.4c5.7,2,10.3,5.7,14.5,9.9c1.8,2,3.5,3.3,5.9,4.8c1.3,0.9,2.4,0.7,4,0c1.5-1.1,2-2.2,1.5-4
		c-0.7-3.3-2.2-6.2-4.4-8.8c-1.3-1.5-3.1-3.1-4.6-4.8c-1.3-1.5-2.9-3.1-4.2-5.1c-1.1-0.9-1.5-2.2-1.3-3.5c1.5-4.8,1.5-9.7,3.1-14.3
		c1.3-3.7,2-7.9,2.6-11.9c0.7-4.6,1.3-9,2.4-13.2c0.4-2.2,0.7-4.2,0.7-6.2c0-2-0.2-4,0.2-5.7c0.7-3.7,0.7-7.3,0.9-10.8
		c0.2-2.2,0.7-4.6,1.1-6.6c0.2-1.5-0.2-2.4-1.3-3.3c-2.9-2.4-4.8-5.7-7.3-8.6c-0.7-1.1-0.9-2-0.9-2.9c0-1.3,0.7-2,1.8-2.4
		c1.5-0.4,2.9,0,4,0.9c0.7,0.9,1.1,1.8,1.8,2.6c0.7,0.9,1.3,2,2.2,2.9c1.1,1.5,3.1,1.8,4.4,0.7c0.9-0.7,1.8-1.3,2.2-2.2
		c1.5-1.1,2.6-2.2,3.7-3.7c0.9-0.7,1.8-0.9,2.9-0.9c2.4-0.2,4.2,1.3,4.6,4c0,0.2,0,0.9-0.4,1.3c-0.7,0.7-1.3,1.5-2.2,2.2
		c-1.1,1.1-2.2,2.2-3.3,3.1c-0.4,0.7-0.7,1.5-0.4,2c0.7,0.9,1.3,1.8,1.8,2.6c2.6,3.5,3.3,7,2.9,11.2c-0.2,2.2-0.2,4,0,6.2
		c0.2,2.4,0,4.4-0.2,6.6c-0.2,2-0.9,4-1.1,5.7c0,1.8,0,3.7-0.2,5.7c-0.4,3.5-1.1,7.3-1.3,10.6c0,0.9,0,1.5,0,2.2
		c0.2,1.3,0,2.9,0,4.2c-0.2,2-0.2,4.4-0.2,6.6c0,1.1,0.2,2,0.2,3.1c0.7,2,1.8,3.5,4.2,4.2c3.5,1.1,6.6,2.6,9.7,4.8
		c3.3,2.4,7.3,4,10.8,5.9c1.1,0.4,2.2,0.9,3.5,0.7c1.1-0.2,2.2-0.2,2.9-1.1c0.4-1.1-0.4-2.4-1.3-3.1c-0.7-1.1-1.5-1.8-2.4-2.6
		c-2.2-1.8-4.4-3.3-6.6-5.1c-2-1.5-3.7-2.9-5.7-4.4c-0.7-0.4-1.1-1.1-1.5-2c-0.7-1.8-1.3-3.5-0.9-5.3c0.7-6.4,0.2-13,1.5-19.1
		c0.2-0.4,0.2-1.1,0.2-1.5c0.2-6.4,0.4-12.8,0.4-19.1c0-2,0-4.2,0.2-6.2c0.2-1.3,0.4-2.9,0.7-4.2c0.7-4.4,0.9-8.6,1.5-13.2
		c0.9-6.4,1.8-12.5,1.3-18.9c0-2.4,0-4.6,0.2-6.8c0.2-4.4,1.1-8.6,4.2-11.9c0.2-0.2,0.7-0.7,0.9-1.3c1.5-2,3.5-2.6,5.7-2.2
		c0.7,0,1.3,0,1.5,0c4.2,0.4,8.1,0,11.7-1.5c2-0.4,3.5-1.8,4.6-3.3c2-2.4,3.7-5.1,5.5-8.1c2.4-3.5,3.5-7.7,3.7-11.9
		c0.4-4.8,0.9-9.7,1.5-14.3c0-0.7,0.4-1.3,0.4-1.8c0.2-2.9,2-4.2,4.4-4.8c1.8-0.2,3.5-0.4,5.3-0.2c1.1,0,2.2,0,3.5,0
		c1.5,0,3.1-0.4,4.4-1.1c2.2-0.9,3.1-2.6,3.7-4.8c0.2-0.9-0.7-2.4-1.8-2.6c-0.2-0.2-0.7-0.4-1.1-0.4c-4.4-1.1-9-1.3-13.6-0.9
		c-2.4,0.2-4.6,0.9-6.4,2c-0.7,0.2-1.3,0.7-1.5,1.3c-1.5,4.6-3.1,9-3.1,13.9c0,1.1,0,2.2,0,3.1c-0.4,3.3-0.9,6.6-1.3,9.9
		c-0.7,4.2-2.9,7.3-6.8,9.2c-3.1,1.5-6.6,2-9.9,2c-3.3,0-6.8-0.2-10.3-0.2c-2.2,0.2-4.2,0-5.9-1.3c-2.2-1.8-4.8-2.6-7.5-3.5
		c-1.5-0.4-3.1-1.1-4.4-2c-4.4-2.9-4.6-3.1-4.4-8.1c0.2-4.6,1.5-8.4,5.5-11.2c0.7-0.2,0.9-0.9,1.5-1.3c2.6-1.1,3.5-3.5,4.2-5.9
		c0.7-2,0.7-4,0.2-5.7c-0.2-2.9-0.7-5.7-1.1-8.6c-0.2-1.1-0.7-2.2-1.1-2.9c-1.3-1.5-3.1-2.4-4.8-2.9c-2-0.2-4-0.4-5.7,0.7
		c-1.8,0.4-3.5,1.3-5.3,2c-2.2,0.9-3.5,2.4-4.4,4.8c-0.7,2-1.1,3.7-1.1,5.9c0,4,0.4,7.5,1.8,11c0.9,2.9,1.5,5.3,1.3,8.1
		c-0.2,2.2-0.9,3.7-2.6,4.8c-1.1,1.3-2.4,2-3.3,3.3c-1.1,2-3.1,3.1-5.1,4.4c-5.9,3.1-12.1,3.7-18.5,3.1c-3.3-0.7-6.6-0.7-9.9-0.4
		c-3.3,0.2-6.8,0.7-10.3,0.9c-0.9,0-2,0.2-2.6,0.9c-4.4,3.5-8.1,7.5-10.3,12.8c-2,4.6-3.5,9.2-3.5,14.3c0,2-0.2,4-0.9,5.7
		c-0.4,1.5-0.7,3.1-0.9,4.6c-0.4,4.8-1.1,9.5-1.5,14.3c0,3.7-0.2,7.3-0.2,11c0,3.7,0.4,7.9,0.7,11.7c0.2,3.1-0.4,5.7-2.6,7.7
		c-3.1,2.6-6.6,4.8-10.8,5.7c-2.9,0.7-5.7,1.3-8.4,2.2c-1.3,0.4-2.4,0.9-3.3,1.8c-0.4,0.4-0.9,0.9-1.1,1.5c-0.2,0.7-0.4,1.3-0.4,2.2
		c0,2,1.5,2.9,3.1,2.9c1.1,0,2.4,0,3.5,0c3.1-0.2,5.9-0.7,8.8-0.7c2.2,0,4.2-0.4,5.9-0.9c2.2-0.4,4.2-0.9,6.2-1.3
		c0.9-0.2,1.8-0.2,2.4-0.7c3.7-0.9,5.9-3.3,6.2-7.3c0.2-1.1,0.4-2,0.4-3.1c0-6.2,0.2-12.3,0.2-18.5c0-1.5,0-2.9-0.4-4.2
		C528.8,542.3,529,537.9,529,533.3z M572.1,511.7c-2.2,0-2.9-0.7-3.5-1.8c0-0.4-0.2-0.7-0.2-1.1c-0.2-1.1-0.2-2.2,0.7-3.3
		c0.9-0.9,2.2-0.9,3.3-0.7c1.5,0.2,2.6,1.3,3.5,2.6c0.7,1.3,0,3.3-1.3,3.7C573.4,511.5,572.5,511.7,572.1,511.7z M592.6,453
		c-2.2,0-3.1-0.7-3.5-1.8c0-0.4-0.2-0.7-0.4-1.1c-0.2-1.1-0.2-2.2,0.9-3.3c0.9-0.9,2-0.9,3.3-0.7c1.5,0.2,2.6,1.3,3.3,2.6
		c0.9,1.3,0,3.3-1.3,3.7C593.9,452.8,592.8,453,592.6,453z M601.1,512.8c-2.2,0-3.5-1.1-3.7-3.3c-0.4-1.5,0.2-2.9,1.5-3.5
		c1.3-0.9,3.3-0.4,4.2,0.9c0.7,0.7,1.1,1.5,1.5,2.4c0.9,1.5-0.4,3.1-2,3.3C602.2,512.8,601.6,512.8,601.1,512.8z M605.8,453.2
		c-2.2,0-3.3-1.1-3.7-3.3c-0.4-1.5,0.2-2.9,1.5-3.5c1.3-0.7,3.3-0.2,4.2,0.9c0.7,0.7,1.3,1.5,1.5,2.4c0.9,1.5-0.2,3.3-2,3.3
		C606.9,453.2,606.2,453.2,605.8,453.2z"/>
	<path class="st0" d="M672.6,471.2h102.7v19.6H696v45.5h76.1v19.8H696v49.3h82.3v19.8H672.6V471.2z"/>
	<path class="st0" d="M805.1,535.7c0.4-4.4,0.4-8.6-1.5-12.1c1.8-4.6,1.3-8.6-1.8-12.1c3.1-4.2,3.5-7.7,0-11.4
		c1.8-1.8,2.6-3.5,2.6-5.1c19.4,5.1,21.6,8.1,0.2,12.5c21.8,2.2,19.4,5.9,1.5,13.6c17.8-1.5,20.2,0.9,4.4,11.9
		c16.7-4.8,15.2-1.1,3.7,9c11.4-5.5,13-4.6,3.5,4.6c9.9-6.6,8.8-4.8,0.7,2.2c8.1-7,10.3-8.1,2.2,1.3c11.2-8.6,12.1-7,4.4,5.1
		c13.4-12.1,18-13.6,9.5,6.4c14.3-17.4,16.9-15.8,13,2.6c-1.3,0.7-2.9,2.2-4.6,4.4c0.4-8.4-2.9-7.9-8.1-3.1
		c-1.5-4.8-4.6-5.7-6.6-4.6c0.4,0,0.2,0.9,0,2.4c0.7,0.9,0.7,3.5,0.7,6.6v55.2h-23.3v-77C805.5,544.1,805.5,539.7,805.1,535.7z
		 M803.7,482c1.8-1.8,1.5-4,0.9-5.9c0.9-2.9,0.9-4.8,0.7-4.8c0.2,0,2.9,0,3.5-2c5.3,1.8,8.1,1.8,2.6-3.3c5.5,2.4,8.6,3.1,8.8,1.8
		c26,21.1,21.8,20.5-10.3,5.1c27.5,15.6,22.7,14.5-2.2,4.6c22.2,10.8,22.7,12.1-1.1,4.6c20.9,7.9,17.6,7.3-0.7,1.3
		c18.3,5.9,20.7,7.5-0.4,3.5c20.5,7,18.3,8.6-1.1,7.9c0-1.5-0.9-3.1-2.2-4.8C805.1,487.5,805.3,484.9,803.7,482z M804.4,495v-0.2
		c-0.2,0-0.2,0-0.4,0C804.2,494.8,804.2,494.8,804.4,495z M820,466.8c-0.7-1.3-2.4-3.5-5.5-6.8c15.2,9.2,19.8,10.3,5.1-8.1
		C847.3,482,849.1,486,820,466.8l-5.9-4l6.2,4.8C820.2,467.5,820.2,467.3,820,466.8z M827.3,440.4c19.1,24,22.7,26.2,6.8-7.5
		c0.9,1.5,1.8,2.9,2.6,4.2c23.1,51,17.4,47.7-17.2,14.7C840.5,468.6,842.3,466.2,827.3,440.4z M827.3,561.9l0.2-0.2L827.3,561.9z
		 M836.8,437.1l4.8,7.9c14.3,22.7,14.5,17.6,3.3-20.9c5.5,13.6,9.2,22.4,11.4,26.4c7.5,30.1,4.2,27.9-14.7-5.5
		c-2.2-3.7-4.4-7.9-7-12.5C835.2,434.1,835.9,435.6,836.8,437.1z M849.1,563.9c8.1-16.5,11.2-18.3,9.9,1.1c-1.3-1.8-3.5,1.3-7,7.7
		C851.9,566.5,851.1,563.6,849.1,563.9c-0.4,0-1.1,0.2-1.5,0.4c-0.4,1.5-0.7,3.1-1.1,4.6C847.3,567.2,848.2,565.4,849.1,563.9z
		 M856.3,450.6c1.3,2.2,2.2,3.1,2.6,2.2c0.9-1.8-0.7-13.2-4.4-34.1c11.7,45.5,13.9,49.1,12.3-4.4c4.6,53.5,5.5,49.9,5.7-1.3
		c0.7,18,1.3,29.7,2.4,34.8c-4.8,25.3-8.6,25.7-16.1,5.1c-2.9-7.5-6.2-18-10.1-31.2C851.9,433.4,854.6,443.1,856.3,450.6z
		 M864.3,572c-0.4,0.9-0.7,1.8-1.1,2.9c1.3-12.1,0.4-13.6-3.3-1.3c0-2.9,0-5.1-0.2-6.6c-0.2-0.9-0.4-1.5-0.7-2l-0.7,6.8l1.3-4.8
		C865.6,544.5,866,548.2,864.3,572z M873.9,568c-0.4,1.5-0.9,3.7-1.3,6.6c-2.6-11.7-4.8-12.1-8.1-3.5c-0.2,0.2-0.2,0.7-0.2,0.9
		c-0.2,0.4-0.2,1.1-0.2,1.5l0.4-2.4C868,550.4,870.4,547.4,873.9,568z M874.8,573.3c0-2.6,0-5.1,0.2-7.3c0.7-22.4,3.1-21.8,11,1.5
		c-0.4,0.4-0.4,2.4-0.2,5.9c-3.7-9.9-5.1-9.2-5.5,1.3c-2.2-7.3-4-10.6-5.3-8.8c-0.4,0.4-0.7,1.1-1.1,2
		C874.2,569.8,874.6,571.3,874.8,573.3z M879,447c2-5.5,4.6-16.9,8.4-34.8c-7.3,56.3-5.1,56.8,17.4,3.3
		c-16.9,51.7-13.9,49.5,12.3,5.5c-10.3,21.1-15.8,33.2-15.4,37C883,479.4,878.1,476.7,879,447c0.2-9,0.9-20.7,2-34.8
		c-2.2,15-4.2,26.8-5.9,35.4C875.9,451.9,877.2,451.7,879,447z M886.7,567.6c-4-23.5-0.9-20.5,9.7,1.5c-7.3-23.8-7.7-29.9,6.2-12.8
		c0-1.1,0.9-0.4,2.4,1.3c0.4,1.3,1.1,2.6,1.8,4l1.3,1.8c-0.9-1.8-1.8-3.5-2.6-5.1c1.1,1.3,2.6,3.1,4.2,5.3c-3.7-8.8-1.1-6.4,3.1-0.7
		c-0.7-0.9,0.2,0.7,1.1,2.4c0.9,1.5,1.5,3.5,2.2,5.5c1.1,4.2,1.8,8.6,1.8,13.6v40.7h-23.3v-36.3c0-2.9-0.2-5.3-0.4-7.5
		c-0.2-2.4-0.7-4.4-0.9-5.7c-1.5-4.4-3.1-7.5-3.5-2.2C888.2,570.5,887.4,568.3,886.7,567.6c-0.2-0.2-0.4-0.2-0.7,0l1.3,4
		C887.1,570.2,886.9,568.9,886.7,567.6z M906.1,565.2c-1.3-2.9-2.4-5.1-2.9-6.6c-4-4.4-5.5-5.1-5.3-2.2
		C898.1,554.6,900.8,557.5,906.1,565.2z M906.5,457.2c4.8-3.5,13.2-11.9,25.5-24.9c-32.3,41.8-28.2,40.9,10.3,13
		c-1.3,1.1-2.6,2.2-3.7,3.3C898.8,479.2,888.9,485.5,906.5,457.2c4.6-7.5,11.2-17.4,19.6-29.9c-10.1,13-18,23.3-24.4,30.8
		C901.7,459.8,903.4,459.4,906.5,457.2z M909.8,547.8c-1.3,0.4,0.4,4.6,5.1,12.1c-9.5-9.2-13.2-11.4-10.6-3.7
		C895.9,538.8,897.9,537.2,909.8,547.8z M905.4,558.4c-0.2-0.9-0.7-1.5-1.1-2.2l0.7,1.5C905.2,557.9,905.4,558.1,905.4,558.4z
		 M949.2,458c-38.1,24-34.5,24.6,4,12.5c-10.3,4.4-17.6,7.7-22,10.1c-34.5,9.7-34.5,5.3-4.6-21.1C909.1,475.6,915.5,474.5,949.2,458
		z M919.3,556.4l-5.5-6.8c-13-16.5-13-19.6,7.9-6.8c1.5,2,3.5,4.2,6.2,7c-15-9.9-17.8-9.5-6.6,5.5c-3.1-2.6-5.7-4.6-7.5-5.7
		c-2-1.3-3.3-2-4-1.8C912.4,550,915.5,552.9,919.3,556.4z M932.9,531.7c1.8,1.5,4.2,3.1,6.8,4.8c-19.6-7.9-21.8-6.6-5.9,7.3
		c-9.7-5.3-14.3-7-14.5-5.5C903,523.2,907.6,522.5,932.9,531.7z M954.9,482.9c-36.3,10.1-33.7,11.9,0,12.1
		c-7.7,0.9-13.6,1.8-17.8,2.6c-29.9,0.7-34.8-1.3-10.1-12.3C929.2,486.2,938.6,485.3,954.9,482.9z M930.3,509.1
		c-1.1,1.8,5.9,4.6,19.4,9.2c-16.3-2.4-22.9-2.4-19.8,0.9C905.8,510.6,905.2,508.2,930.3,509.1z M932.9,521.6
		c2.6,1.8,6.6,4.2,12.1,6.8c-17.2-4.6-21.8-4.6-16.3,0C908.7,517.9,908,515.9,932.9,521.6z M952.5,510l-18-2.4
		c-24.9-3.7-25.5-5.5-3.3-7.9c-3.7,2,3.5,4.2,22,7.3c-8.8,0-15,0.2-18.7,0.7c-2.6,0.2-4,0.9-4.2,1.5
		C936.2,509.1,943.5,509.5,952.5,510z M921.7,542.7l7.9,5.1c-4.2-3.5-7.5-6.8-10.3-9.5C919,539.2,919.9,540.5,921.7,542.7z
		 M953.8,474.1c-8.8,2.6-16.3,4.8-22.7,6.6c-4.4,2.4-5.9,4-4.2,4.6C933.6,482.2,942.6,478.5,953.8,474.1z M942.6,445.5l-4,3.1
		c-4.8,4.2-8.8,7.9-12.1,11C931.1,455.4,936.4,450.8,942.6,445.5z M932.9,531.7c2.4,1.1,5.1,2,7.9,3.1c-4.6-2.4-8.6-4.4-12.1-6.4
		C929.6,529.5,931.1,530.6,932.9,531.7z M932.9,521.6c4,1.1,8.6,2.2,13.9,3.5c-6.6-2.2-12.3-4.2-16.9-5.9
		C930.5,519.9,931.4,520.7,932.9,521.6z M954.7,497.2c-6.6,0.2-12.3,0.4-17.6,0.4c-2.9,0.7-4.8,1.3-5.9,2
		C937.3,498.7,945,498.1,954.7,497.2z"/>
	<path class="st0" d="M931.8,471.2h25.7L998,582.8c2.6,7,5.1,13.4,7.3,20c2.2-6.6,4.4-13.2,7-20l40.7-111.5h25.1l-59.6,154h-28.4
		L931.8,471.2z"/>
	<path class="st0" d="M1113.5,451c-2-3.7-3.7-7.3-6.2-11c7.5,0.2,14.3,1.8,21.8,2.6c-3.3,3.1-5.9,6.2-8.8,9.5c2,1.1,4,2,5.5,3.3
		c6.4,5.7,7.9,12.3,7.3,20c-0.2,0.4-0.2,0.9-0.2,1.3c-1.1,8.4-2.2,16.5-3.1,24.4c-0.9,6.2-1.5,12.3-2.4,18.7
		c-0.7,5.7-1.5,11.4-2.4,17.6c-0.7,5.9-1.3,12.3-2.2,18.5c-0.4,5.7-1.5,11.7-2.2,17.6c-0.7,6.2-1.3,12.1-2.2,18.5
		c-0.4,2.9-1.1,5.9-2,9c-2,6.6-6.2,11.4-13.4,13.9c-1.3,0.2-2.9,0.4-4.8,0.7c2.4,4.4,4.4,8.6,7,13.2c-7.3-1.3-14.3-2-21.6-2.9
		c3.1-4,6.8-7,9.7-10.8c-0.4-0.2-0.7-0.2-1.1-0.4c-6.8-2.6-10.8-7.9-12.5-15c-0.4-3.3-0.4-6.6,0-10.1c0.7-4.4,0.9-8.8,1.8-13.4
		c0.9-6.8,1.5-14.1,2.4-20.7c0.7-5.7,1.5-11.2,2.4-16.7c0.7-6.6,1.5-12.8,2.2-19.4c0.7-5.7,1.5-11.7,2.2-17.2
		c0.9-6.4,1.5-12.8,2.2-18.7c0.7-4.8,1.3-9.2,2.2-14.1c1.3-9,7.7-16.7,16.7-18C1112.2,451.4,1112.6,451.4,1113.5,451z M1110.2,566.7
		c-1.3-0.4-1.5,0.4-2,1.3c-0.4,3.7-0.9,7-1.3,10.8c-0.4,4.4-0.9,9-1.5,13.4c0,1.3-0.4,2.6-0.9,4.2c-0.9,1.5-2,2.6-3.7,3.3
		c-1.5,0.4-2,1.8-1.1,3.1c0.4,1.3,1.1,1.5,2.4,1.1c0.9-0.2,2-0.7,2.6-1.1c3.1-2.4,4.4-5.9,4.8-9.5c0.7-5.3,1.3-10.6,2-16.1
		c0.7-6.8,1.8-14.1,2.6-20.9c0.7-5.1,1.3-9.9,1.8-15.2c0.9-6.8,2-13.9,2.9-20.9c0.7-4.8,1.3-9.9,2-15.2c0-0.7,0-1.5-0.2-2.4
		c-0.2-0.7-0.9-1.3-1.8-1.1c-0.9,0-1.8,0.4-2,1.3c-0.2,1.1-0.4,2.2-0.7,3.3c-0.7,5.7-1.5,11.4-2.2,17.2c-0.7,6.4-1.8,12.8-2.4,19.1
		c-0.4,4.8-0.9,9.2-1.5,14.1c0,0.4,0,0.9,0,1.3c-0.4,2.6-0.7,4.8-1.1,7.5C1108.9,566.5,1109.3,566.7,1110.2,566.7z M1111.3,474.5
		c0.2-2.6-1.5-5.5-4.4-6.2c-2.2-0.7-5.3,0.7-6.2,3.1c-0.9,1.8-0.7,3.1,0.2,3.5c1.1,0.7,2,0.2,3.1-1.5c0.4-0.4,1.1-1.1,1.5-1.1
		c0.9-0.2,1.3,0.4,1.5,1.3c0.2,0.4,0.2,0.9,0.2,1.1c0.2,0.9,0.9,1.3,2.2,1.3C1110.4,476.3,1111.1,475.4,1111.3,474.5z M1111.1,494.1
		c4.2,0.4,8.8-2.4,10.1-7.9c0.2-0.9-0.4-2-1.5-2.2c-0.9-0.2-1.8,0.2-2.4,1.3c-0.2,0.4-0.2,0.7-0.2,1.1c-0.9,2-2.2,3.3-4.4,3.7
		c-2,0.2-3.5-0.4-5.1-2.2c-0.9-1.3-1.1-2.4-1.1-4c0-1.3-0.9-2.2-1.8-2.2c-1.1,0-1.8,0.7-2,2.2
		C1101.9,488.8,1105.8,493.7,1111.1,494.1z M1126.9,476.1c0.4-3.3-2.9-6.2-6.2-5.7c-2.4,0.4-4.8,2.6-4.8,4.8c0,0.9,0.4,1.8,1.3,2
		c1.1,0.2,2-0.2,2.4-1.1c0.2-0.2,0.2-0.9,0.4-1.1c0.9-0.9,2.4-0.7,2.9,0.2c0.2,0.4,0,0.7,0.2,1.1c0.2,1.3,0.9,2.2,2,1.8
		C1126.3,477.8,1126.9,477.2,1126.9,476.1z"/>
	<path class="st0" d="M1145,547.4c0-48.6,32.3-79.9,75-79.9c37.4,0,63.6,22.7,66.9,55h-25.1c-3.5-21.6-18-35.2-42.2-35.2
		c-29.7,0-50.2,22.7-50.2,60.1c0,37.8,20.7,61.8,49.9,61.8c24.4,0,40.3-14.5,44-35.9h23.8c-4,33.9-29.5,55.4-67.8,55.4
		C1174.7,628.8,1145,598.4,1145,547.4z"/>
	<path class="st0" d="M1291.3,588.7c-0.2-5.1,1.3-9.5,4.4-13.4c0.2-0.7,0.4-1.1,1.1-1.1c1.3-0.9,1.8-2,2.2-3.5
		c0.2-0.4,0.4-0.9,0.7-1.5c2.4-5.7,5.7-10.6,9.7-15.2c0.7-0.9,1.3-1.5,1.8-2.4c1.1-1.3,2.2-2.6,3.3-3.7c0.2-0.2,0.2-0.2,0.2-0.4
		c-2-2.4-4-5.1-5.5-7.5c-0.4-0.4-0.7-0.7-1.5-0.9c-5.7-2-8.8-6.4-10.6-11.9c-2.6-5.9-2.9-12.5-2.2-18.7c0.4-3.5,1.1-7,2.4-10.1
		c1.8-4.4,3.3-8.8,5.9-13.6c0.4-0.7,0.9-1.5,1.3-2.4c1.3-2.4,2.9-5.3,5.5-7.3c2.2-2,4.8-3.7,7.9-4.2c0.9-0.2,1.3-0.4,1.8-1.1
		c3.7-4,7.9-7.3,12.5-10.1c4.6-2.9,9.5-4.8,14.5-6.2c1.5-0.4,3.3-0.9,4.8-1.1c1.8-0.4,3.3-0.9,4.8-1.1c1.3-0.2,3.1-0.7,4.6-0.7
		c0.9,0.2,1.1,0,2.2-1.3c2.9-2.9,6.6-4,10.3-4.2c4.4-0.4,9.2,0.2,13.6,0.7c6.6,0.7,13,2.2,19.4,3.7c1.8,0.4,3.5,0.9,5.3,1.1
		c3.7,1.1,7.7,2.4,11,5.3c3.5,2.6,6.2,6.8,5.9,12.1c-0.2,2.9-1.3,5.1-2.9,7c-1.5,2.6-4.2,4-6.6,5.3c-0.4,0-0.7,0.2-1.1,0.4
		c-2.2,1.5-4,2.6-5.5,4.2c-1.8,1.5-4,2.4-6.6,1.8c-4-0.9-7.9-1.3-11.9-2c-1.5-0.2-3.1-0.7-4.6-0.9c-1.3-0.2-2.4-0.4-3.5-0.7
		c-3.3-0.4-6.6-1.1-9.9-1.8c-0.9,0-2.2,0-3.1-0.2c-3.1-0.2-5.9-1.5-7.7-4c-1.1-0.9-2-0.9-3.1-0.7c-2.6,0.4-5.3,0.9-7.9,2
		c-5.9,1.1-11,4.2-15.2,8.1c-0.7,0.7-0.7,0.7-0.4,1.3c1.1,4,0.2,7.7-1.5,11c-1.8,4-3.3,7.9-5.1,11.4c-0.7,2.2-1.1,4.2-0.4,6.2
		c0.9,2.6,0,4.6-0.7,6.4c0,0.4-0.2,0.9-0.2,1.1c-0.2,0.7-0.4,1.1-0.2,1.8c-1.5,2-0.7-1.3,0,0.2l-2-0.4c0.2,0,0.7-0.4,1.1-0.4
		c6.4-6.2,13.9-10.8,21.6-14.5c5.3-2,10.1-3.7,15.6-4.4c1.1-0.2,2-0.2,2.9-0.4c1.8-0.2,3.5-0.4,5.1-0.4c4.4-0.2,8.8,1.5,11.9,4.4
		c0.4,0.4,0.9,0.4,1.8,0.7c0.2,0,0.4,0,0.7,0.2c7.3,1.1,13.9,4,19.4,8.1c5.1,3.7,8.8,9.5,10.1,15.8c0.9,5.1,0.2,10.1-1.3,14.7
		c-1.3,2.2-2.4,4.2-3.3,6.6c-0.2,0.2-0.2,0.2-0.2,0.4c-0.4,4.8-2.9,9-5.9,12.1c-3.5,4.4-9,6.6-14.1,8.8c-5.7,1.8-11.7,3.5-18,3.5
		c-0.4,0-0.7,0-1.1,0.2c-0.4,0-1.5,0.2-2.2,0c-2-0.2-4-0.4-5.9-0.7c-2.9-0.2-5.5-0.4-8.4-1.1c-3.1-0.7-6.6-1.5-9.5-3.7
		c-1.5-1.3-3.7-2.9-5.1-5.5c0-0.4-0.4-0.9-0.9-0.9c-1.5-1.1-3.1-1.8-4.6-2.6c-1.3-0.4-2.4-1.1-3.5-1.8c-0.4-0.2-0.4-0.2-0.4-0.2
		c-4.2,4.8-8.1,9.2-10.6,14.7c-0.2,0.4-0.2,0.4,0,0.7c0.4,0.4,0.9,1.1,1.1,1.5c0.4,0.4,0.7,0.9,0.9,1.1c1.5,1.5,1.8,3.5,2,5.1
		c0.9,5.3,4,9.5,7.7,13.2c1.1,0.9,2,2,2.9,2.9c2.2,2.2,3.5,4.8,4,7.3c0.2,1.8,0.9,2.4,2.4,2.9c5.7,2.9,11.4,5.1,17.6,5.9
		c1.1,0,2.2,0.2,3.3,0.4c1.3,0,2.6,0.2,3.7,0.4c2,0,3.1-0.2,4.2-2c1.8-2.6,4.4-4.2,7-5.3c7-2.4,13.2-5.5,19.4-9.9
		c0.9-0.4,1.8-0.9,2.6-1.5c0.7-0.4,1.5-1.1,2.4-1.5c5.7-3.7,11.7-3.7,17.6-1.3c5.3,2.4,8.4,6.6,10.1,11.7c2.2,6.2,0.4,12.3-3.7,16.9
		c-2.4,2.6-5.1,4.6-8.4,6.6c-4.6,3.1-9.2,6.4-15,8.8c-5.7,3.1-12.3,5.5-18.9,6.4c-4,0.4-8.1-0.7-11.9-2.9c-0.7-0.4-0.9-0.7-1.3-0.4
		c-2.4,0.7-4.6,0.7-7.3,0c-0.4-0.2-0.2-0.2-0.9-0.4c-3.5,0.4-7-0.4-10.6-1.3c-1.1-0.2-2.4-0.4-3.7-0.9c-6.6-1.3-13-3.5-19.1-7
		c-1.3-0.7-2.6-0.9-4.2-0.7c-2.4,0.2-4.8-0.2-7.3-0.7c-2.4-0.7-4.4-2.4-6.2-3.7c-0.4-0.4-0.9-0.9-1.3-1.1c-1.8-1.3-3.5-2.9-5.3-4.8
		c-4.6-4.6-8.8-10.1-11.2-16.3c-2.2-4.8-4-9.7-4.6-15C1291.7,592,1291.5,590.5,1291.3,588.7z M1298.5,585l0.4-0.9l0.9,1.8l-1.3-1.1
		c0,0,0,0,0-0.2s-0.2-0.7-0.2-0.9l2,0.9c0,0.2-0.2,0.4-0.4,0.4c-0.4,0.4,0.2-1.1,0.2-0.4c-0.2,0.7-0.2,1.1-0.4,1.5
		c-0.2,0.9-0.4,1.3-0.4,1.8c0.4,2.9,0.7,5.7,1.1,8.4c0.9,5.5,3.1,10.8,6.4,15.2c2.6,4.6,6.4,8.6,10.3,11.9c2,2,3.7,3.3,6.2,3.7
		c0.4,0.2,0.4,0.2,0.7,0.2l-1.3,1.1c0,0,0,0,0-0.2c0-0.2-0.2-0.7-0.2-0.9l0.4,0.9c-0.2-0.2-0.2-0.2,0-0.2c-2.2-0.4-3.5-1.5-4.8-2.4
		c-0.4-0.4-1.1-0.9-1.5-1.3c-5.7-5.1-10.8-11.2-14.1-18.3c-2.4-5.7-4-11-4-17.4c0-0.7,0-1.3,0.2-2
		C1298.5,585.9,1298.5,585.4,1298.5,585z M1303.2,581c0.9,2,1.5,3.7,3.3,4.6c0.2,0,0.4,0,0.7,0l-1.3,1.3c0-0.2,0-0.2,0.2-0.2
		c-1.5-1.3-3.1-3.1-4-5.1c-0.2,0-0.2,0-0.2-0.2c-0.2,0-0.9-0.7-0.9-1.3L1303.2,581C1303.2,580.8,1303.2,580.8,1303.2,581z
		 M1302.7,589.8h-1.3H1302.7c0,0.9,0.2,2,0.4,3.1c0.7,4.2,1.8,7.9,3.7,11.4c2.6,6.4,6.8,11,12.1,15.8c0.7,0.9,1.5,1.5,2.6,2.2
		c0.4,0.2,0.7,0.2,0.9,0.4c0.4,0.2,0.7,0.4,0.9,0.7l-2,0.7v-0.2c-0.9-5.1,1.3-8.8,5.1-10.8c0.9-0.9,2-1.1,2.9-1.3
		c0.4-0.2,0.7-0.2,0.9-0.2c2-1.1-0.9,0,0.4,0.7c-2.2-1.8-4.2-3.5-5.9-5.5c-3.7-4.2-6.4-9.2-7.7-15.2c-0.2-0.4-0.4-1.1-0.7-1.8
		c0-0.7-0.2-1.1-0.4-1.8l-0.2-0.4c0,0.7,1.5,0.4,1.1,0.4c-0.9,0.9-2.4,1.8-3.3,2.4C1310,592,1306.2,592,1302.7,589.8
		c-0.2-0.2-0.7-0.4-0.9-0.7c-0.4-0.4-0.7-0.7-0.9-0.9l2-0.9c0,0.7,0,1.1-0.2,1.5c0,0.2,0,0.4,0,0.7V589.8z M1302.3,513.7
		c0,3.3,0.7,6.8,2,10.3c0.4,1.8,1.3,3.3,2.6,4.4c0,0-0.4,0,0,0l-1.3,1.3c0-0.2,0-0.7,0.2-0.7c0-0.2,0.2,0.9,0.2,0.7l-0.4-0.9
		c0,0.4-0.2-0.2-0.2-0.4c-2.6-3.5-3.3-7.5-3.7-11.4c-0.7-5.3,0.2-10.1,1.8-15.4c1.5-4.6,3.5-9.2,6.2-13.6c1.3-2.9,2.6-5.5,5.1-7.5
		c0.2-0.2,0.2-0.2,0.2-0.2c0.9-1.8,0.2,0.2,0,0v-0.4l1.1,1.1c0,0,0,0-0.2,0c-0.9,0.9-1.8,1.8-2.4,2.6c-3.1,4.6-5.3,9.5-7.5,14.7
		C1303.4,503.4,1302.3,508,1302.3,513.7z M1305.4,577.9l-1.3-1.8h0.7l1.1,1.3c0,0.2,0,0.4,0,0.7c0,0,0,0,0.2,0
		c0,0.2,0.2,0.7,0.4,1.3h-2.2c0.2-0.4,0.4-0.9,0.7-1.3c0-0.2,0,0.4,0,0.2c0.4-4.8,2.4-9,5.1-13.2c1.8-3.1,4.2-5.7,6.4-8.4
		c1.3-1.5,2.6-3.1,3.7-4.6c1.5-1.8,3.1-3.3,4.4-4.8c1.5-1.5,3.1-3.1,4.4-4.6c1.8-1.5,3.3-3.1,5.7-3.7c0.2-0.2,0.2-0.2,0.4-0.4l0.9,2
		c-0.2,0-0.7,0-0.9-0.2c-0.2,0.2-0.4,0.2-0.7,0.2c-1.5,0.4-2.4,0.7-3.1,1.3c-2,1.5-4,3.5-5.7,5.5c-2.6,3.1-5.3,6.2-8.1,9.5
		c-4,4.2-6.8,8.4-9.2,13.6c-0.9,1.8-1.5,3.5-2.2,5.5C1305.8,576.6,1305.6,577.3,1305.4,577.9z M1306.2,513.3
		c-0.2,3.5,0.4,6.6,1.5,9.7c0,0,0,0.2,0.2,0.4c0,0,0.2,0.4,0.4,0.7l-2-0.2c0.2-0.2,0.7-0.7,0.9-0.9c1.3-2.2,3.3-3.5,5.7-4.4
		c2.9-0.4,5.3-0.2,7.5,0.2c1.3,0.2-0.2,0.2,0,0.7c-1.1-3.1-1.1-6.6,0-9.9c1.3-4.6,3.1-9.5,5.3-14.1c0.2-0.4,0.4-0.9,0.7-1.3
		c0.4-0.4,0.7-1.1,1.1-1.8c0.2-0.9-0.4,0.7,0.7,0.7c-0.4,0-1.1,0-1.5,0c-4.8,0-9.2-1.5-11.2-7.3c-0.2-0.2-0.4-0.7-0.9-1.1l2,0.2
		c-0.2,0.2-0.4,0.4-0.9,0.9c-2.9,4.8-4.8,9.7-7,14.7C1307.3,504.7,1306,508.6,1306.2,513.3z M1312.2,524.9v-1.3c-0.2,0-0.2,0-0.4,0
		l0.7,0.9c-1.1,1.1-2,4.8-1.1,5.9l0.2,0.7v0.4l-1.3-1.1c0.2,0-0.7,0.4-0.7,0.4v-0.2c0.2-0.9,0.4-1.8,0.7-2.6
		c0.4-1.1,0.7-2.4,0.9-3.5c0-0.2,0-0.4,0-0.7C1311.1,523.6,1312,524.9,1312.2,524.9z M1313.9,572.2c0,0,0.2-0.2,0.4-0.4
		c2.4-4.8,5.7-9,9.5-12.8c0-0.2,0.2-0.4,0.2-0.4c0.2-0.4,0.4-0.7,0.4-0.9l0.4-0.4c-0.7,0.4,2.2,2-0.2,0.9c-0.4-1.1-1.3-1.8-2.2-2.2
		l-0.7-1.1c0-0.7,1.8-0.7,1.8,0l-0.4,0.9c-1.3,1.5-2.6,3.1-4,4.6c-1.3,1.5-2.6,3.1-4,4.6c-0.9,1.1-1.5,2.4-2.4,4
		c-0.2,0.9-0.7,1.8-1.1,2.4c0.2-0.2,0,0.2,0,0.4l-0.7-0.9c0.7,0.4,1.5,0.7,2.4,1.1C1313.5,572,1313.7,572.2,1313.9,572.2z
		 M1314.4,530.9c0,1.3,0,2,0,2.2c1.5,2.9,3.3,5.7,5.9,8.4c-0.2,0-0.2,0,0,0l-1.1,1.1v-0.4c0-0.2,0-0.2,0.2-0.2
		c-0.9-1.1-1.5-2-2.2-3.1c-0.4-0.4-0.7-0.9-0.9-1.3c-1.5-1.8-2.9-3.7-3.5-6.2c0-0.7,0-1.1-0.2-1.5h2
		C1314.4,530.2,1314.4,530.6,1314.4,530.9z M1338.1,616l1.1,1.5c0,0,0,0-0.2,0l-1.1-1.3c0-0.2,0-0.4,0-0.7c0-0.4,0-0.7,0-1.1
		c-0.2-2.9-0.7-5.1-2.6-7c-0.9-1.1-2-2.2-3.1-3.1c-0.4-0.7-1.1-1.1-1.5-1.5c-3.5-3.7-6.4-8.4-7.3-13.6c-0.2-0.7-0.4-1.1-0.4-1.8
		c-0.2-1.1-0.4-1.8-0.9-2.4c-0.9-1.3-2.2-2.4-3.5-3.5c-0.9-0.7-1.8-1.5-2.4-2.2c-0.4-0.2-0.9-0.7-1.5-0.9c-2.2-0.9,0.7-0.4,0.2,0
		c-0.2,0-0.9,0.2-1.3,0.2l0.9-2c0.2,0,0.4,0.7,0.7,0.9c0,0.2-2.2-1.1-0.2-0.2c0.7,0.2,1.1,0.7,1.8,1.1c0.7,0.4,1.3,1.1,2,1.5
		c2.6,2,5.1,4.4,5.7,7.7c0.4,4.6,2,7.9,4.2,11c2.2,2.9,4,5.3,6.8,7.3c0.7,0.7,0.9,1.3,1.1,1.8c1.8,2.2,2.6,5.1,2.6,8.1
		c-0.2,1.3-0.4,2.9-0.4,4.4c0,0.2,0,0.4,0.4,0.9l-2-0.4c0,0,0.2-0.2,0.4-0.2c0-0.2,0.2-0.2,0.2-0.2c0-0.7,0-1.3,0.2-1.8
		C1337.9,617.5,1337.9,616.9,1338.1,616z M1319.9,482c0.2,1.1,0.7,2.2,1.1,3.5l-0.2-0.4c0,0-0.2,0-0.4,0l-1.1,1.1
		c0-0.4,0.2-0.9,0.4-1.3c0,0.2,0,0.9,0.2,1.1l-0.4-0.7c-0.2-2-0.4-4-0.7-5.9c0-0.2,0.2,0.4,0.2,0.4c-0.2-0.2-0.7-0.7-0.7-1.1h1.3
		c-0.2,0.2-0.2,0.2-0.4,0.4h1.1c0,0.7,0,1.3-0.2,1.8C1320.1,481.4,1320.1,481.6,1319.9,482z M1338.6,552.9l1.1,1.5
		c-0.2,0-0.9-0.2-1.1-0.2c0,0,0,0,0.2,0l0.7-0.2c-0.7,0.2-0.9,0.4-1.1,0.9c-1.3,1.5-2.9,3.1-4.2,4.6c-2.6,2.9-5.5,5.9-7.9,9
		c-1.1,1.5-2.2,3.1-3.1,4.6c-0.7,1.1-1.5,2.4-2.4,3.7c0,0-0.2,0.2-0.2,0.4c0-0.2,0-0.2,0.2-0.2c0,0.2,0.4,0.7,0.4,0.9l-2-0.4
		c0.2-0.2,0.4-0.4,0.7-0.7c0.4-0.4,0.7-1.1,0.9-1.8c0.7-0.9,1.1-2.2,1.8-3.1c2.4-3.1,5.1-6.2,7.7-9.2c1.3-1.5,2.6-3.1,4-4.6
		c1.3-1.3,2.6-3.1,4.2-4.8C1338.4,553.3,1338.6,553.3,1338.6,552.9z M1322.5,540.3c0.2-0.2,0.2-0.2,0.4-0.4l-0.7-0.9
		c0.4-0.4,0.9-0.9,1.3-1.3c0.7-0.9,0.7-1.1,0.2-1.5l-0.2-0.2c-0.2-0.2-0.2-0.2,0-0.2c-0.4,0.4-1.3,1.1-2,1.5c0,0.2,0.2,0.2,0.4,0.4
		c0.2,0.4,0.9,1.1,1.1,1.5l-1.1,0.7C1323.4,541.2,1321.2,539,1322.5,540.3z M1334.8,491.9c-0.4-3.1-1.1-6.2-2.4-8.6
		c-0.2-0.4-0.4-0.7-0.4-0.9c-0.2,0-0.2,0-0.2,0c-0.7-0.2-1.3-0.7-1.5-1.3l2.2-0.4c0,0.7,0,1.1-0.2,1.3c0,0.2,0,0.2,0,0.2v-0.7
		c0,0.2,0.2,0.7,0.4,0.9c0.7,0.9,1.1,1.8,1.5,2.6c0.2,0.9,0.4,1.5,0.7,2.4c0.4,1.3,0.9,2.9,0.9,4.4c0,1.8-0.9,3.5-1.5,4.8
		c-0.2,0.4-0.4,0.9-0.7,1.1c-1.8,4.2-4,8.6-5.5,13c-0.4,1.8-0.9,3.1-0.4,4.8c0.2,0.4,0.2,0.7,0.2,1.1c0.2,0.9,0.4,2.2,0.2,3.5
		c-0.7,3.5-2.2,7-4.8,10.1c0,0,0,0,0,0.2c0,0.2-0.2,0.7-0.4,0.9l-0.9-2c0.2,0,0.7,0,1.1,0c0.2,0,0.2,0.2,0.4,0.2l-0.9,0.2
		c0,0,0,0,0.2-0.2c0-0.2,0.2-0.4,0.2-0.4c0.7-1.5,1.5-3.1,2.4-4.6c0.4-0.9,0.9-2,1.3-2.9c0.7-1.1,0.9-2.2,0.7-3.7
		c-1.8-3.3-0.7-6.8,0.7-9.5c2-4.6,4-9,5.7-13.4C1334.2,494.1,1334.6,493,1334.8,491.9z M1368.9,458.7l-0.9,2
		c-0.2-0.2-0.4-0.4-0.7-0.7c0-0.2,1.8,0.7,0,0.2c-0.9-0.9-1.8-1.3-2.9-1.3c-3.7-0.2-7.9,0.4-11.9,1.1c-4.6,1.3-9,2.6-13.4,5.3
		c-5.3,2.6-10.1,6.4-14.1,11c-0.7,0.4-0.9,1.3-1.3,2.2c-0.2,0.2-0.2,0.4-0.4,0.7c-0.7,1.3,0-0.4,0-0.2l-0.9-0.4c-0.2,0-0.2,0-0.2,0
		c3.1-4,6.6-7.7,11.2-10.8c4.6-3.3,10.8-6.2,16.7-7.9c4-0.9,8.1-2,12.3-2c1.8,0,4,0,5.5,0.9C1368.3,458.7,1368.7,458.7,1368.9,458.7
		z M1326.5,622.4c0,1.3,0.4,2.6,1.3,4.2l-0.7-0.4c0.4,0,0.4,0,0.2,0l-1.1,1.3c0-0.2,0-0.4,0-0.7c-0.2-1.5-0.7-3.1-1.1-4.4
		c-0.2-0.2-0.2-0.7-0.4-1.1c0-0.2,0-0.2,0-0.4h2c0,0.2,0,0.2,0,0.7c0,0.2-0.2,0.4-0.2,0.7S1326.5,622.4,1326.5,622.4z M1331.1,551.3
		l-1.3,1.1c0-0.2,0.2-0.7,0.2-0.9c0.2,0,0,0,0,0.2l0.7,1.1c-0.9-0.4-1.8-1.3-2.6-2c-0.4-0.2-0.9-0.7-1.5-1.1l2-0.9
		c0,0.4-0.2,0.9-0.4,1.3c-0.7,1.1-0.2-1.3-0.2-0.2l-0.4-0.9c0.7,0.4,1.3,0.9,1.8,1.3s0.7,0.7,1.1,0.9
		C1330.4,551.3,1330.9,551.3,1331.1,551.3z M1370.7,638c1.1,0,2.9-0.2,4.8-0.4c0.7-0.4,1.3-0.9,2.2-1.3l-0.2,2c0,0,0,0-0.2-0.2
		c0,0,0,0.2-0.2,0.2h-0.4c-2.9,0.2-5.9,0.7-9.2,0.7c-0.4,0-0.9-0.2-1.3-0.2c-0.4,0-0.9-0.2-1.3-0.2c-3.7-0.2-7.7-0.7-11.4-1.5
		c-4-1.1-7.7-2.4-11.4-4c-0.7-0.4-1.3-0.7-2-0.9c-4-1.5-7.9-3.1-10.6-7.3l0.4,0.4c-0.2,0-0.2,0-0.2,0l1.3-1.3c0,0.2-0.2,0.9-0.2,0.9
		c-0.2,0.2,0,0,0,0l-0.4-0.9c0.2,0,0.4,0.4,0.4,0.7l0.2,0.4c0.9,2,2.4,3.1,4.6,4c4.6,2.9,9.5,4.8,14.5,5.9
		C1356.8,636.9,1363.2,637.8,1370.7,638z M1358.4,465.3c0-0.2,0-0.4,0-0.7c0-0.4-0.2-0.9-0.2-1.5c0-0.4,0-0.4-0.7-0.4
		c-0.4,0.2-0.7,0.2-1.1,0.2c-0.7,0.2-1.1,0.2-1.3,0.4c-8.4,1.8-15.8,4.8-22,9.9c-1.8,1.1-1.8,1.1-0.2,2.9c0.2,0.2,0.4,0.4,0.7,0.7
		c0.9,0.9-2.4,1.1,0.2-0.2c4-4.2,9-6.6,14.3-8.4c3.3-1.3,6.6-2,10.1-2.6L1358.4,465.3z M1336.2,535.5v1.3V535.5c0.4,0,1.1,0,1.5,0.2
		c0.4,0,0.9,0,1.3,0c-0.2,0-0.2,0,0,0l-0.4,0.7c0,0.2,0,0.4,0,0.2c0,0-0.2-0.7-0.2-0.9l0.9,1.1c-2-0.7-3.7-0.4-5.7,0.4l-0.4,0.2
		c-0.2,0,0.7-0.4,0.7-0.4c0,0.2-0.2,0.4-0.4,0.4l-0.9-2c0.4,0,0.7,0,0.9,0C1334.4,535.5,1335.5,535.5,1336.2,535.5z M1376,512.4
		c0,0,0.2,0,0.4,0c0.2-0.2,0.4-0.2,0.9-0.4v2c-0.2,0-0.7-0.4-0.9-0.7c-0.7-0.7,1.3,0.2,0.4,0.2c-1.3-0.2-2.4-0.4-3.5-0.4
		c-1.5,0-2.6,0.4-4.2,0.9c-6.2,0.7-11.7,3.1-17.4,5.5c-4.8,2.4-9,5.3-13.4,8.6c-0.2,0.2-0.7,0.4-0.9,0.9c-1.1,1.1-2.2,2-3.1,3.7
		c0,0,0,0.2-0.2,0.4l-1.1-1.1c0.2,0,0.4-0.2,0.4-0.2l0.9-0.4c0.4,0-0.9,0.7-0.4,0.2c0.9-1.3,1.8-2.4,2.9-3.3
		c5.1-4.6,11.2-8.1,17.4-11C1361,514.6,1368.3,511.9,1376,512.4z M1363,471.5l-0.2,2.4c-0.9-0.7-1.3-0.7-1.3-0.7
		c-1.1,0-2.6,0.2-4,0.4c-6.2,1.3-11.9,3.5-16.9,7.3c-0.7,0.4-1.1,1.1-1.8,1.8c-0.4,0.2-0.7,0.7-0.9,0.9c0,0.2,0,0.4,0,0.9l-2.2-0.9
		c0.2-0.2,0.9-0.7,1.1-0.7s0.4,0,0.4,0c0.7-0.4,1.5-1.3,2.4-2c4.4-3.5,9.5-5.9,14.5-7.3c2.6-0.7,5.1-1.1,7.3-1.3
		C1361.9,472.1,1362.3,471.7,1363,471.5z M1385,527.6c-0.2-0.4-0.4-1.1-0.4-1.3l2.2,0.9c-0.2,0-0.4,0.2-0.4,0.4
		c-0.7,0.4,0-1.3,0-0.7l-0.4,0.9c0,0.2,0,0.2-0.2,0.4c0,0.4-0.2,0.9-0.4,1.1c-2.4,4.6-5.5,7.7-11.2,8.8c-6.6,1.5-12.8,4.4-18.5,8.6
		c-0.9,0.4-1.8,0.9-2.4,1.5c-1.1,0.7-2.4,1.5-3.7,2c-4.2,1.5-8.4,0.7-12.5-1.1c-0.4-0.7,0,0.2,0.4-0.7c0.2-0.2,0.2-0.2,0.2-0.2
		c0.2,0,0.4,0,0.4,0c0.4,0.2,1.1,0.7,1.8,1.3c1.1,0.4,2.2,0.4,3.5,0.7c0.4,0,0.9,0,1.3,0c2.2,0,4-0.2,5.5-1.1c3.3-2,6.4-4,9.5-5.9
		c5.1-3.3,10.8-5.3,16.3-6.4c1.1-0.4,2.4-1.1,3.7-1.8c1.5-1.1,2.9-2.9,4.2-5.1C1384.3,529.1,1384.6,528.4,1385,527.6z M1373.6,516.8
		c-2.4,0.2-4.2,0.4-6.6,0.9c-7.3,1.8-14.5,4.8-20.7,9.2c-1.8,0.9-3.3,2.2-5.1,3.5c-0.9,0.9-1.8,1.5-2.9,2.4c-2,0.7,0.2-0.7,0-0.2
		c0,0.2-0.2,0.7-0.4,0.9l-0.9-2.2c0.2,0,0.9,0.2,0.9,0.2c0.2,0.2,0,0,0,0c5.9,0.9,9,4.8,10.1,10.3c0,0.2,0,0.2,0,0.2v-0.2
		c7.7-5.1,15.6-9.2,25.1-11.4c0.2,0,0.2,0,0.7-0.2c0.4-0.2,1.1-0.7,1.5-0.7l-0.7,1.8c-0.4-0.7-0.9-1.5-1.5-2.2
		c-2.9-4.2-3.7-8.8-0.2-13.4c0-0.2,0.4-0.7,0.4-0.7v1.8C1373.6,516.8,1373.8,516.8,1373.6,516.8z M1349.4,562.5c0.2,0,0.2,0,0.4,0
		c0-0.2,0.2-0.2,0.4-0.2l-0.4,2c-0.2-0.2-0.9-0.9-1.1-1.5l1.1,0.7c-0.2,0-0.7,0-0.9,0c-2.2-1.1-4.8-2.2-7.7-3.3
		c-0.2,0-0.7-0.2-0.9-0.4c-0.4-0.2-0.9-0.4-1.3-0.4h-0.2h-0.4l1.1-1.8c0,0.2,0.2,0.7,0.2,0.9c2,1.1,4.2,2,6.2,3.1
		C1347.2,562.1,1348.2,562.3,1349.4,562.5z M1366.1,634.5c0.7,0,1.3,0,2,0h-0.2c0.2,0,0.2,0,0.4,0.2c0-0.4,0-1.1,0-2
		c0-0.2-0.2-0.7-0.2-1.3c0,0.2,0,0.2,0,0.2s-0.2-0.2-0.2-0.4l1.1,0.7c-1.8,0-3.3-0.4-5.1-0.7c-1.3,0-3.1-0.2-5.1-0.4
		c-5.3-0.9-10.3-2.4-15.4-4.6c-0.4-0.2-0.9-0.4-1.3-0.4c-0.7-0.4-1.1-0.2-0.7-0.4l-0.4,0.2c0,0-0.2,0.2-0.4,1.1
		c0,0.4-0.2,0.9-0.4,1.3c-0.4,0.4-0.9-0.4,0-0.2c3.1,1.1,5.9,2.2,8.8,3.3c1.3,0.4,2.4,0.9,3.5,1.3
		C1357.3,633.4,1361.5,634,1366.1,634.5z M1367.6,623.5c0.4,0,0.7,0,0.9,0c0.7,0.2,0.9,0.2,0.9,0.2l0.4-0.2c0.4,0,0.4,1.3,0.4,0.4
		c0,0.9,0.9,0.7,0.4,0.7c-0.2,0-0.4,0.2-0.7,0.2c-3.1,0-5.9-0.4-8.6-0.9c-0.9-0.2-1.8-0.2-2.6-0.4c-5.7-1.3-11.2-3.5-16.7-5.9
		c0.2,0,0.2,0,0,0c0,0-0.4,0.2-0.7,0.2l1.3-1.3c0,0.2,0.2,0.9-0.2,0.4l0.2,0.2c0,0,0,0,0.2,0c0.2,0,0.4,0,0.7,0.2
		c1.1,0.4,2,0.9,3.1,1.3c1.3,0.7,2.6,1.3,4.2,1.8C1356.6,622.4,1361.9,623.3,1367.6,623.5z M1343.9,555.1h0.2
		c-0.2,0.2-0.7,0.2-0.9,0c-0.4,0.2-0.7,0.4-0.9,0.7c0,0,0.4,0.4,0.7,0.7c0.2,0,0.2,0,0.2,0c0-0.4,0.2-0.9,0.4-1.3
		C1343.6,555.1,1343.6,555.1,1343.9,555.1z M1351.6,565.8c0.2,0.9,0,0.9,0.4,1.1l-0.7-0.9c1.1-0.7,2.2-1.3,3.5-2
		c0.7-0.2,1.1-0.4,1.8-0.9h0.7c-0.4,0-0.7,0.2-0.7,0.7c0-0.2,0-0.4,0-1.3l1.1,1.3c-0.2,0,0,0,0.2-0.2l-1.1,0.7c0.2,0,0.2,0-0.2,0.4
		c-1.8,0.4-3.3,1.1-4.8,2c-1.5,0.4,0.2-0.4,0,0c-0.4,0.2-0.9,0.4-1.3,0.4l0.9-2c-0.2-0.2-0.4,0,0,0
		C1352.9,565.8,1352.2,565.8,1351.6,565.8z M1372.5,573.1c3.1-0.4,6.8-0.9,10.1-1.3c5.9-0.7,11.4-2.6,16.5-5.7
		c0.4-0.4,0.9-1.1,1.5-1.8c0.2-0.4,0.7-0.9,1.1-1.3c0.2-0.2,0,1.5-0.2,0.4c0-0.2-0.2-0.7-0.2-0.9l1.3,1.3c-0.2,0,0,0,0-0.2l-0.4,0.7
		c-0.2,0-0.7,0.4-1.1,0.9c-0.2,0.2-0.2,0.2-0.4,0.4c-0.4,0.4-1.1,1.1-1.3,1.3c-7.7,4.4-15.6,6.6-24.4,6.6c-1.3,0-2.6,0-4,0
		c-5.9,0.2-11.2-0.4-16.7-2.6l-0.4-0.4c0,0.2,0.4,0.2,0,0.2c0.2,0,0.2,0,0,0c-0.2,0-0.9,0.2-1.1,0.2l0.4-2.2c0.4,0,0.9,0.4,1.1,0.9
		c0.7,0.2,1.1,0.7,2.2,0.9C1361.5,572.2,1366.7,572.9,1372.5,573.1z M1372.2,569.4c2.4-0.2,4.8-0.4,7.7-0.7c3.3-0.2,6.6-1.1,9.7-2.2
		c0.7-0.2,1.3-0.4,1.8-0.7c0.7-0.2,1.5-0.7,2.2-1.1c1.1-0.7,2.2-1.3,3.5-1.8v-0.2c0,0,0.2-0.2,0.2-0.4l1.1,1.5c-0.2,0-0.4,0-0.9,0
		c-4.2-0.9-6.2-3.1-7.5-6.4c-0.9-2.2-0.9-4.2-0.9-6.2c0-0.7,0,0.7,0.9,0.2c-6.2,2.9-12.5,3.5-18.7,4.2c-0.4,0-1.1,0-1.5,0
		c-1.1,0-2.4-0.4-3.5-0.7c-0.7,0-1.3,0-2-0.2c-0.4-0.2-0.7-0.2-1.1-0.2c-0.2,0-0.7,0-1.1,0c0.2,0.4,0.2,0.7,0.4,1.1
		c1.3,4.4,0.4,8.6-3.1,12.1c-0.4,0-0.9,0.4-1.3,1.1l0.2-1.1v-0.2l-0.9-0.4l0.7,0.2c0.2,0.2,0.2,0.2,0.2,0.2h0.4
		C1363,568.5,1367.6,569.6,1372.2,569.4z M1389.4,543.8c0.4,0.2,0.7,0.4,1.1,0.4c0.4,0,0.7,0,1.3,0.2c1.1,0.4,2.2,0.7,3.3,1.1
		c1.1,0.4,2.2,0.7,3.3,1.1c0,0,0.2-0.2,0.4-0.2s0.9,0,1.1,0l-0.7,2.2c-0.2-0.2-0.7-0.4-0.9-0.7c-0.2,0-0.4-0.2-0.4-0.2h0.4
		c0,0-0.2,0-0.4,0c-2.6-0.7-5.3-1.3-8.1-2.2c-1.5-0.7-2-0.9-2.9-0.2c-1.1,0.7-2.4,1.1-3.5,1.5c-2,0.4-4,0.7-5.7,0.9
		c-1.1,0.2-2,0.4-3.1,0.4c-4.2,0.7-8.1,0-11.7-0.4c-1.5-0.2-2.6,0.2-4.4,0.9l0.4-0.2l0.2-0.2l-0.4-1.1c0,0-0.2,0-0.4,0
		c1.8-0.2,3.7-0.4,5.3-0.2c3.1,0.4,6.4,0.4,9.7,0.2c1.1,0,2.4,0,3.5,0c3.1-0.2,6.4-1.1,9.5-2.2c0.7-0.4,1.3-0.7,2-0.9
		C1388.5,544.1,1389,544.1,1389.4,543.8z M1409,482.7c0.4-0.2,0.9-0.4,1.3-0.7c0.4-0.2,0.9-0.4,1.3-0.7c2-1.8,4-3.1,5.5-4.4
		c0.9-0.4,1.1-0.9,1.8-1.5c1.8-0.7,0,0,0,0c0.2-0.2,0.7-0.4,0.9-0.7l0.4,2.2c-0.4,0-0.7,0-0.9,0c0,0,0,0-0.2,0.2
		c-1.1,1.3-3.1,2.6-4.4,3.5c-1.1,0.7-2,1.5-3.1,2.2c-2,1.1-4,0.7-5.5,0.2c-0.7,0-1.1-0.2-1.5-0.2c-4-1.1-7.3-1.8-11.2-2.2
		c-3.1-0.7-6.2-1.3-9.2-1.8c-1.5,0-2.9-0.2-4.2-0.4c-1.3-0.2-2.6-0.4-4.2-0.4c-3.7-0.7-7.5-2.2-9.9-5.9c-0.9-1.1-1.8-2.6-2.6-4.2
		v-0.2c-0.2,0-0.7-0.4-0.9-0.4l2-0.4c0,0.2-0.2,0.4-0.2,0.7c0,0,0,0,0-0.2c0,0.2,0,0.2,0,0.4c0.2,0.2,0.2,0.4,0.4,0.7
		c1.1,2.4,2.9,4.4,5.3,6.6c1.1,1.1,1.8,1.5,3.5,1.5c1.5,0,3.3,0.2,4.6,0.7c2.4,0.2,4.6,0.7,6.8,0.9c2.2,0.4,4.6,0.9,6.8,1.1
		c2.2,0.4,4.4,1.1,6.6,1.5c1.8,0.2,3.3,0.7,4.8,0.9C1405,481.8,1406.8,482.2,1409,482.7z M1392.9,540.3l-1.3,0.2
		c-0.2-1.1-0.4-2.2-1.5-2.6c-1.5-0.9-2.9-1.3-4.4-1.8c-0.4-0.2-0.9,0-1.3,0.4c-0.7,0.9-1.8,2.2-3.1,3.1c-1.3,0.9-3.1,1.3-4.4,1.8
		c-1.1,0.2-1.8,0.4-2.6,0.9c-1.8,0.4-3.3,0.9-4.8,1.3c-0.9,0.4-1.8,0.7-2.6,0.9c-0.4,0.4-1.1,1.1-1.5,1.3l-0.4-2.4
		c0.2,0,0.9,0.2,1.1,0.2s0.2,0.2,0.4,0.2c2.2,0,4.8,0,7.3,0c3.5,0,6.8-0.9,10.1-2.2c2.2-0.7,4.4-1.5,6.8,0.4
		c1.1,0.7,1.1,0.7,1.1-0.9l1.3,0.2C1392.9,541,1392.9,541,1392.9,540.3z M1372.7,460.2c0,0,0,0,0-0.2c-0.4-1.3-2.9-3.3-4.4-3.5
		c-0.4,0-0.7,0.2-0.9,0.2l1.1-1.8c0,0.2,0.2,0.2,0.2,0.4c0,0.2-0.9-0.4-0.9-0.4l0.7,0.2c2,0.9,4.2,2.4,5.3,4.4h0.2c0,0,0,0-0.2,0
		l-0.9,0.4L1372.7,460.2z M1376,452.8c-0.4,0.2-0.9,0.2-1.3,0.4c-0.7,0-1.1,0.2-1.5,0.2h0.2c-0.2,0-0.9,0.2-1.1,0.2
		c-1.1,0.2,0.7,0.2,0.2-0.9v0.2c0-0.2,0-0.2,0-0.4c0.2,0,0.2,0,0.4,0c1.3-0.4,2.6-0.4,3.7-0.4c0.9,0,1.8,0,2.4,0.2c0.7,0,1.3,0,2,0
		c4.2,0,7.9,0.4,11.9,1.5c2.9,0.7,5.9,1.3,8.8,1.8c3.3,0.7,6.4,1.3,9.7,2c2.6,0.7,6.2,2,7.9,5.3c0.2,0.4,0.4,0.9,0.7,1.1
		c0.2,0.7,0.4,1.1,0.7,1.5c0.2,0.2,0.7,0.4,0.7,0.4h-1.5c-0.2,0.2-0.2,0.2-0.2,0v0.2c-0.4-1.3-1.1-2.9-2.2-4.2
		c-1.8-1.8-3.7-2.6-6.4-3.3c-2.2-0.4-4.6-1.1-6.8-1.8c-2-0.4-3.7-0.9-5.5-1.3c-4.6-0.9-9-1.3-13.4-1.8
		C1382.1,453.6,1379.3,453.2,1376,452.8z M1373.8,628.1c0,0.2,0.2,0.4,0.2,0.7c0,0.2,0,0.4,0,0.4l-1.8-0.2c0.2-0.2,0.4-0.4,0.4-0.7
		c2.9-2.2,0.2,0.2,0.2,0.2c0-0.2,0-0.7,0.2-0.9c1.3-5.1,4-9.5,9.9-11.4c2-0.4,3.3-1.1,4.8-1.8c1.1-0.2,2-0.7,2.9-1.1
		c5.9-3.1,11-6.4,16.5-10.1c1.3-1.1,3.3-2,4.8-2.2c4.2-0.2,8.6,0,12.3,2.6c0.2,0,0.4,0,0.4,0l-0.9,2c0,0-0.2-0.7-0.4-0.9
		c-0.2-0.2,2,1.1,0.2,0.2c-3.7-2.9-7.9-3.7-12.3-2.9c-2.4,0.4-4.4,2.2-6.4,3.7c-6.6,4.6-13.6,8.8-21.3,11.2
		c-3.1,1.3-5.9,2.4-7.5,5.5C1375.3,624.4,1374.4,626.3,1373.8,628.1z M1377.1,456.5v-1.3V456.5c-0.4,0-1.1,0-2,0
		c0.9,0,0.2-1.8,0.9-1.1c0,0,0.2,0.4,0.2,0.7c0,0,0,0,0.2,0c3.3,4.4,2.4,9.2-0.2,13.4c0,0.2-0.4,0.4-0.4,0.9
		c-0.2,0.2-0.4,0.2-0.4,0.4l-0.2,0.2c0.4-0.4,0-1.1-0.4-1.1c0.4,0,0.7,0,1.1,0c0.7,0,1.5,0,2.4,0.2c3.1,0.4,6.2,0.9,9.2,1.3
		c1.3,0.2,2.9,0.4,4.4,0.7c4.4,0.9,8.4,1.8,12.5,2.6c1.1,0.2,2.4,0.7,3.7,0.9c0.4,0,0.9,0,1.3-0.4c2-0.2,3.3-2,4.6-4
		c1.3-2,1.3-3.7,0.2-5.7c-0.9-2-2-3.1-3.7-3.5c-2.9-0.7-5.9-1.3-8.6-2c-2-0.4-3.7-0.9-5.7-1.1c-3.5-0.4-7-1.1-10.3-1.3
		C1383,457.2,1379.9,456.7,1377.1,456.5z M1379.3,515.7l1.3,1.1c-1.3,0-4.4,2.9-4.4,3.5c0-0.2-1.1-0.7-0.9-0.7c-0.2,0-0.2,0,0,0
		c1.3-1.3,2.6-2.6,4-3.7C1379.3,515.9,1379.3,515.9,1379.3,515.7z M1383.7,634.5c0,0.2,0,0.2,0,0.2l1.3-0.2c0,0.2-0.4,0.4-0.7,0.7
		h-0.2c-0.7,1.8-2.2,3.3-3.5,4.8v0.2c-0.2,0,0,0,0-0.2l-1.3-1.1c0.2,0,0.2,0,0.4,0c1.5-0.9,2.6-2,3.3-3.7L1383.7,634.5z
		 M1386.1,518.8c-0.4,0-0.7,0-1.1,0c-0.7,0-1.1-0.2-1.3,0h-0.4c-0.2,0.2-0.4,0.4-0.7,0.7v-2.2c0.2,0,0.4,0.4,0.7,0.4
		c0,0.2,0,0.2-0.2,0.2c3.1-0.7,5.9,0.2,8.4,0.9c6.6,1.5,12.1,4.2,16.1,9.7c4,4.8,5.3,10.3,3.5,16.9c-1.8,4.2-4.4,8.4-9,11
		c-0.2,0.2-0.7,0.4-1.1,0.4l0.9-2c0-0.2-0.4-0.2,0-0.2c2.2,0,3.7-1.1,5.3-3.1c1.8-2.9,2.9-5.5,3.5-8.8c1.1-6.2-0.4-10.6-4.8-15.2
		c-2.6-3.5-6.2-5.5-10.3-6.8C1392,519.4,1389.2,518.5,1386.1,518.8z M1385.9,641.3c2-0.4,3.7-0.9,5.5-1.3
		c7.9-2.2,14.7-5.7,21.3-10.3c4-2.6,7.7-5.1,10.8-8.1c1.8-1.5,2.2-4,2-6.2c0,0,0,0-0.2-0.4l-0.2-0.2l2.2-0.7c0,0.2,0,0.7,0,0.9
		c-0.2,0.2-0.2,0.2-0.2,0.2c-0.2,2.9-1.1,6.2-3.5,8.1c-1.5,1.1-3.3,2.2-4.6,3.3c-7.9,6.2-16.7,11.2-26.6,14.3
		c-0.7,0.2-1.3,0.4-2,0.4c-1.3,0.4-2.6,0.9-4.4,0.9c-0.2,0-0.4,0-0.7,0c-0.7,0-1.1,0-1.3,0.2l-0.7-2
		C1384.1,640.6,1385,640.9,1385.9,641.3z M1421.5,616.2c0-3.5-1.5-5.7-5.3-6.8c-2-0.7-3.1-0.4-4.8,0.7c-6.4,4-13,8.4-20.9,11.9
		c-2,0.9-4,1.8-6.2,2.4c0.2,0.2,0.4,0.4,0.9,1.1c3.5,3.1,4.4,7.7,2.6,12.1c0,0.4-0.2,0.9-0.4,1.5l-1.1-1.5c0.4,0,0.9,0,1.1,0
		c8.1-2.4,15.6-5.3,22.4-10.1c1.5-1.1,2.9-2.2,4.4-3.3c1.5-1.1,3.1-2.4,4.6-3.3C1420.9,619.7,1421.7,618.4,1421.5,616.2z
		 M1395.6,540.3c0-1.5-0.4-2.6-1.5-4c-1.3-1.3-3.3-2-5.3-2.9c-0.4,0-0.9-0.2-1.3-0.4l-0.2,0.2l-0.9,0.2c-0.2,0,1.1-0.7,0.9-0.4
		c0,0.2-0.4,0.7-0.4,0.9l-0.9-2c0.2,0,0.7,0,0.9,0.2c1.1,0.2,2.2,0.4,3.3,0.9c2,0.9,4.2,2,5.1,4.6c1.5,2,1.1,4.6,0,6.4l0.2-0.2
		c-0.2,0.2-0.9-0.4-0.9-0.4c0.2-0.2,0.7-0.4,0.7-0.7s0.2-0.4,0.2-1.1C1395.3,541.2,1395.6,540.8,1395.6,540.3z M1407.2,539.7
		c0-1.3,0-2.6-0.4-3.5c-1.1-3.1-2.6-5.7-5.3-7.9c-2.9-2.9-6.6-4.2-10.3-5.3c-0.9-0.2,0-0.2,0-0.4c0,1.1-0.2,2.2-0.4,3.1
		c-0.2,0.9-0.9-0.2-0.2,0h-0.2c0.9,0,1.8,0.4,2,0.4c3.3,1.1,6.8,2.9,8.8,5.7c2.6,2.9,4,6.8,2.9,10.8c-0.4,2-0.4,2,1.3,2.4
		c1.3,0.4,1.3,0.4,1.5-0.4C1407,542.7,1407.2,541.2,1407.2,539.7z M1400,559c0.2,0,0.2,0,0.2,0c0.7-0.4,1.8-0.7,2.9-0.9
		c0-0.2,0.2-0.4,0.4-0.4v1.8c0,0,0,0-0.4,0c-0.2,0-0.4,0-0.9,0.2c-0.4,0-0.9,0-1.5,0c-0.7,0-1.1,0-1.8,0c-0.7-0.2-1.5-0.2-2.4-0.2
		c0.2,0,0.4,0,0.2,0c-0.2,0.2-0.7,0.2-0.9,0.2l1.1-1.8c0,0.2,0.2,0.7,0.2,0.9c0.2,0.4-1.1-0.4-0.7-0.4c0.9,0,1.3,0.2,2,0.2
		C1399.1,558.8,1399.5,558.8,1400,559z M1423.7,464.4c-0.4-1.8-1.5-2.9-2.9-3.7c-1.1-2.2,0.7,0.2,0.4,0.2l1.1-1.3v0.7
		c0,0.2-0.4-0.9-0.2-0.7l0.2,0.2c0.2,0.4,0.7,0.9,1.1,1.5c0.4,0.7,0.9,1.3,1.3,2.2l-1.1,1.1V464.4z"/>
</g>
</svg>
