<?xml version="1.0" encoding="utf-8"?>
<!-- Generator: Adobe Illustrator 27.2.0, SVG Export Plug-In . SVG Version: 6.00 Build 0)  -->
<svg version="1.1" id="Ebene_1" xmlns="http://www.w3.org/2000/svg" xmlns:xlink="http://www.w3.org/1999/xlink" x="0px" y="0px"
	 viewBox="0 0 1920 1080" style="enable-background:new 0 0 1920 1080;" xml:space="preserve">
<style type="text/css">
	.st0{enable-background:new    ;}
	.st1{fill:#0000FF;}
</style>
<g id="Ebene_2_00000096035131284717884480000007106509288881722789_">
	<g>
		<g>
			<g>
				<g>
					<g class="st0">
						<path class="st1" d="M474.7,574.2h24c1.3,22,18,34.8,40.9,34.8c22.2,0,36.1-9.2,36.1-25.3c0-13.6-10.8-20.2-28.6-24l-24.2-5.3
							c-23.8-5.1-42.9-18.9-42.9-42.9c0-25.7,24.4-44.2,57.6-44.2c35.4,0,57.2,19.1,59,48.2h-24c-1.1-16.7-13.9-28.4-35.9-28.4
							c-18.7,0-32.8,9-32.8,22.4c0,12.8,9.5,19.1,26.6,23.1l26.6,5.7c24.4,5.3,42.5,18.7,42.5,42.9c0,26.6-22.2,47.3-60.7,47.3
							C500.2,628.5,475.8,607.4,474.7,574.2z"/>
					</g>
				</g>
			</g>
			<g>
				<g>
					<g class="st0">
						<path class="st1" d="M761.8,631.9l-2.4-0.4v-1.1l-1.3,1.3l-1.8-0.7l-0.7-0.2v1.8l-2.2-2v-0.2l-1.3,0.4l-3.3,1.5l0.4-2.2h-0.4
							l-0.7-0.7l0.9-0.4l-2-0.4l-0.7,2l-1.5-0.7l-0.4-0.4l-1.3,0.2l-2.4-0.4l0.2-1.1h0.4l-1.1,0.4l-2,1.1l-1.1-1.8v-2.2h0.2
							l-0.2,2.2l-2-0.2v0.4h-2.9l-0.4-1.3l-1.3,0.2l-1.1-0.7l-0.2-0.2l-1.5,0.4l-0.4-1.1l0.9,1.1V625l-2,0.4l0.4,0.9l-5.5-4.2l2-0.9
							l1.1,1.8l-0.7,0.4l-1.8,0.9l-0.9-0.7l-0.2,0.7l-4.4-2.6l2.2-1.3l0.9,2l-2,0.2l-0.7-0.4l-2-0.7l0.9,1.1v-0.7l-3.3-2.4l-0.7-0.7
							h-0.4l-3.5,0.9l-0.4-2.2l-0.9-0.7l2-1.3l0.4,1.8l-2.4,0.9l-1.5-2h-0.9h-1.3l-0.4-1.1l-1.8,1.3l0.2-1.3l0.2-0.2l-1.3-1.3
							l-3.3-1.3l1.3-1.5l1.3,1.8l-0.9,0.4l-1.3-0.4l-1.5,0.4l-1.1-1.5v-0.2l-0.7-0.4l-0.4-0.2l-3.1-0.9l0.4-1.1h0.4l-3.3,0.7
							l1.5-2.9l1.3,1.3l-1.1,0.7l-2.6-0.7l-3.1-3.5h3.5l-0.4,2.2l-2.4-1.1l0.9-2l0.4,0.2l-0.4,2h-1.5l-0.7-1.1l-0.9-0.7l0.2-0.7
							l-2-0.4v-0.9l-0.7-0.4h-0.4l-1.5-1.3v-0.2h0.2l-3.1,1.3l0.2-2l-2-1.8l1.5-1.8l0.9,0.9l-1.5,1.8l-1.1-0.9l-0.9,0.2l-1.5-2.6
							v0.2l-0.2-0.2l-0.7,0.4l-2-1.3l-0.7-2l-1.5,1.3l-0.4-2.4l-0.4,0.2l-1.5-1.5l0.2-0.4l0.2,0.2l-3.1,1.1l0.7-2l0.2,0.2l-2.6-0.7
							l-0.9-3.3l0.7-0.2l-1.3-0.2l-2-0.9l0.2-0.9l1.5,1.1v1.5l-3.1-3.7l-1.1,1.1l-1.1-2.2l-0.4,0.4l-1.1-1.8l-1.1,0.9l-1.8-4.8h2.2
							v2.2h-2.6l0.4-1.3l-1.3-0.9l-0.2-0.2l-1.3-0.7l0.7-2h1.1l-0.4,2l-2.4-1.1l-0.9-1.1l-0.9-1.1l1.5-1.5l0.7,0.4l-1.1,1.8
							l-1.5-0.7l-1.3-0.4l-0.4-2l-0.2-0.2l-1.5-1.3l-0.2-0.2l-1.5,0.7l-0.4-3.3l2,0.2l-0.4,0.9l-2-0.7l0.2-0.9l0.2,0.2v-1.8h-2.2
							v-0.2l-1.1-1.1l-0.7-0.2l-0.7-0.7v-0.7l-1.1-0.2v-0.9l-0.7-0.9l-0.7-1.1l0.4,0.4l-1.1,1.1l-1.5-1.5l-0.7-1.5h-0.7l-0.2-1.3
							l-0.7-0.2l0.4-2.2h-2.6l-0.4-0.4l-0.9,0.9h1.5l-2.4-1.5l-0.9-2v-0.4l-0.7-0.7V546l2.2,0.4l-1.1,3.1l-1.8-3.7l-0.7,0.4l-0.9-2
							l-1.1,0.4l-0.4-0.4l0.4-1.3l-1.3-0.2h-2.6l1.3-1.3l-1.3-0.7l0.4-2.2l2,0.9l-1.8,2.4l-0.9-2.2l-1.3-2l-1.8-1.3l0.2-0.4l1.1,0.2
							v0.9l-3.7-1.8v-1.5l-1.1-1.1l-0.4-0.2l-2.2,0.7v-2.2v-0.2h-0.7l-0.2-0.9H597l1.5-2l-1.8-1.5l-0.2,0.4l-0.4-2l-0.9,0.2v-0.2
							l-1.1,0.7l-0.7-4.6h1.5l0.4,2.2l-1.8,0.4l-0.7-1.8l-4.4,0.4l1.8-1.8v-0.2l-2.9-2l1.5-0.7l0.4,0.7h-0.7l-1.3-1.1l0.2-0.9
							L586,515v-0.2l-1.5-1.3l1.5-1.8l0.2,0.2l-1.1,2l-2-0.4l-0.2-2.4l-0.2-0.4l0.2,0.4l-2.2,1.3v-2.2l-0.7-1.8l-3.7,1.5l1.8-3.3
							l-0.4-0.4l-1.1,0.7l-1.3-1.8H575l-1.1-1.8l0.4-0.2l-2.6,0.9v-3.5l2,0.4l-0.9,2l-1.5-2l0.2-0.2l-2-0.7v0.4l-1.1-1.8l-0.9,0.4
							l-0.2-2l-2.2,0.7l0.7-2.2h-0.7l-2.4-4.2l3.5,1.1l-1.3,2l-0.9-1.1h-1.8l0.4-2h-0.2l-0.9-0.9l-0.9,0.4l-2.4-1.8l0.2-0.9
							l-0.4-0.7h-0.4l-0.9-0.7l-2-1.8l0.4-1.1h0.2l-2.2,1.5l-0.4-4l0.2,0.2l-1.8,0.9v-2.2l-0.4-0.2l0.7-2h0.7l-0.4,2.2l-0.7-0.2
							l-2-1.1l-0.2-2.2v0.2l-1.5-0.2l-0.4-2.2l0.7-0.2v2.2l-2.4-0.9l-0.9-3.1l1.3-0.9l1.5,1.8l-1.8,1.5l-0.9-1.5l-2.2-2.4l-0.7-0.4
							l0.9-2v-0.2l3.5-1.1l0.9,0.4l2-1.5v2.2l0.4-0.4l0.7,0.7l2-2.4l0.2,2h0.2l2.4-0.9l1.1,1.8l1.1-1.3l-3.1,0.7l-0.4-0.4l7.7-0.7
							l-2,2l-0.2-0.2h0.9l1.1-2.9l2.4,3.3l-2,0.9l-0.4-2.4h3.1l0.9,0.4l1.5-2.4l1.1,4l-2.2,0.2v-0.9l3.7-1.5l0.7,1.1l1.1-0.4
							l1.5,2.2l0.4,2h0.2l0.2,0.2l-1.3,1.8l-0.4-0.4l2-1.1l0.2,0.9h0.2l0.7,0.4v1.3l2.2-0.2l0.4,1.8l-2.2,0.2v-0.7l2-0.7l1.1,1.8
							l-2,0.7v-2.4l5.7,4.2l-2.6,1.1l-0.9-2l2.6-0.9l1.5,1.5v0.4l1.1,0.4l0.7,1.8l-1.8,1.3l-0.2-0.2l1.5-1.8l0.9,0.7l0.2,0.7
							l2.6,1.5l0.2,2l-0.2,0.9v0.2l0.4,0.7l0.7,0.2l3.5-0.4l-1.1,2l1.1,0.4l1.3,1.8l-1.5,1.1l-1.3-1.8l2-1.5l0.9,2l2.2-0.2l-0.9,2.9
							h-0.7l0.9-0.9l2.2,2.2l2.4-0.4l-0.4,2.4v0.2l0.9-0.2l1.1,2.4l-2.2,0.7l-0.2-0.9l1.8-1.1l2.2,2l-0.4,0.2l1.5,1.3h0.2l2.9,0.2
							l-2,2l0.2,0.7l-0.2-0.2l2.9-1.8v2.4l0.2,0.4l1.3,2.2l-1.8,1.5l-0.9-1.1l2.6-2.6l0.7,2.9l1.3,1.3l1.3,1.1l-0.2,0.2l2,0.7v1.3
							l1.1,0.4l0.2,0.2h1.8l-0.2,1.3l-0.4-0.2l3.5,1.5l0.9,2.9l-1.8,1.1l-0.9-0.7l1.3-1.8l1.3,0.9l-0.4,1.1h2.2l0.4,1.3h3.5l-2,2.2
							l-0.7-0.2l2.4-0.2l0.7,1.8l1.1,1.5l-1.1,1.8L626,528l1.3-0.7l0.7,0.9l2.2,0.7l1.8,1.1v2.2V532l1.8,0.2l0.9,1.8l0.9,0.7
							l-1.3,1.8l1.5,0.9l-0.4-1.8l2,0.2l0.2,0.9l1.1-0.2v2.2l1.3,0.9l0.7,1.1l-1.8,1.5l-0.2-0.2l1.8-1.5l1.1,1.8h0.4h1.1h0.7l0.7,2
							h0.2h0.2l0.4-0.2l1.3,2l0.4-0.7l0.4,0.2l0.7,1.8l1.1,1.5l2.2,0.2l-2,2.9l-1.3-1.5l1.8-0.9l1.5,2.2l1.1,1.1l1.1,0.2l-0.4,2.2
							h1.5l-0.4-0.7l-2,1.1l-0.2-0.7l2.2-0.9l0.4,1.8h0.2l1.3-0.7l1.3,1.3v1.1l0.2,0.9h4.6l-2.2,1.8l2.2,0.7v1.1l1.3,1.1l-1.5,1.8
							l-0.9-0.7l1.5-1.8l1.1,1.3l2.2,0.7l-0.2,1.1h0.2l0.7,0.9l1.3,1.1l-1.3-0.7l2.9,1.1l1.3,1.1l0.7,1.3l-0.2,0.2l1.3,1.8V572v-0.2
							l2.6-0.7l-0.2,2h-0.2l0.4,2l1.5-0.7l0.4,0.2l-0.2,2l1.1,1.1l0.2,0.4l-0.2-0.2l1.8-1.1l0.9,1.5l1.5-1.5v3.1l1.8,0.4v1.3
							l-0.4-0.2v1.3l2.2-0.2l1.3-1.1l0.7,3.3v0.4l0.2,0.2l0.4,0.2l0.9,0.2v0.9l2,0.4h0.2l0.4,0.2l2.2-2.2v3.3l-0.7,0.2h2.4l0.2,0.2
							l0.4-0.4l0.9,2.4h0.4l0.9,0.9l0.4,1.3l0.4,0.2l2-0.9l0.9,1.3l1.5,0.7l-0.4,0.2l1.3,1.8l0.9-1.1h1.1v0.2l2-1.1l-0.4,2.9
							l1.3,0.9V598h0.2l0.7,0.4l0.4-0.9l2.2,2.2l0.2,2.2l-0.9-0.2l0.7-2l2.2,1.1l0.7,0.2l-0.4-0.4l0.2-1.5l2.6,3.3h0.4l-0.2,2.2
							l-0.7-0.2l1.1-2l0.7,0.4l4.6,1.3l-2.6,1.8l-1.5-1.3l0.9-2.2l4.4,1.1v0.9h-0.4l0.4,2.2h-0.4l-0.2-2.2l0.9-0.2h2.6h2.2v0.4
							l0.4-0.2l0.7,1.8l0.4-0.4l2,0.4v0.7h-0.7l0.9-0.4l1.5,0.2l1.1-1.3l1.1,1.3l0.7-0.7l1.5,1.3l0.4-0.4h1.1l1.3,0.4l2.2-1.3l0.7,2
							l-2.2,0.2l0.7-2.2l2.9,1.3l-0.2,0.2l0.2,0.4l1.8-1.5l0.2,0.4l0.9-0.2l0.2-0.7l1.8-0.4l1.1,2l-0.4,0.4l-1.3-2l1.3-0.4l1.3-1.1
							l1.5,1.8L755,607l-1.5-1.8l0.9-0.7v-1.1h0.9l0.4-0.2l-1.5-0.9l2.2-0.9l-0.7,0.4l-0.7-0.2l2.2-3.1v0.9l-0.9-0.7l0.4-1.1
							l-0.7-0.7l0.2-1.3l-0.4-0.7l-1.1-0.9l-0.7-0.7l-0.2-1.5l-0.2-0.4l-0.4-0.7l1.8-1.1l0.2,0.4l-1.5,1.3l-2-1.8v-1.5l-0.7-0.2
							l-1.3-1.8l1.8-1.3l0.7,2h-0.9l-1.1-0.9l-2.9-0.9l0.9-1.8l-0.2-0.4l-1.5-0.2l0.4-2.2l0.4,0.4l-2.9-0.9l-1.3-1.3l0.2-0.7h-0.2
							l-0.7-2.9v-0.2h-1.1l-0.9-1.3l-0.9,0.4l-0.2-1.8h-0.9v-2.2h-2.2l-0.4-0.4l0.7-1.3l0.4,0.4l-2.9,1.1v-2l-1.1,0.2l-0.4-1.8
							l1.1,1.3l-2.4-2.4l-1.3-2.2v-0.4H729l-0.4-1.8h-0.7l-0.9,0.2l-1.1-2l0.7-0.4l-4,1.1l1.1-2.2l-0.7,0.2l-0.7-1.8v-0.4v0.2
							l-1.8-1.1v-1.5h-0.9l0.4-2l-2-1.1l0.4,1.1l-1.8,1.1l-0.4-3.1v0.2l-1.1,0.2v-2.2h-0.7l-0.2,0.2l-2-0.9l0.2-1.3v0.7l-2.4-0.7
							l-0.7-2.4v-1.3v0.2l0.2,0.2l-0.7,0.4l-1.3-1.8H707l-0.7-0.9l-2.4-2.6l1.1,0.2l-0.7-1.1l-0.9-0.7l-0.2-0.4l-2-0.2l-0.7-0.4
							l-0.9-1.3l-0.4-0.7h0.2l0.4-2.2l0.7,0.2l-1.1,2l-2.2-1.8l0.2-0.7l-2.2-1.3h-2.2l0.9-2l-0.2-0.4l-1.1-0.9l-1.1-0.4l-0.7-2.2
							v-0.4l-1.5-0.2l0.9-2l0.9,0.7l-1.3,1.8l-1.1-0.9h-2.4l0.7-2.9v0.2l-1.1,0.2l-1.3-0.4l-0.9-2.9l2-1.1l0.7,0.7l-1.3,2l-2.4-1.1
							l0.4-1.3l0.9,0.7v-1.3l-2,0.7l-0.9-1.1l-0.2-1.5l-1.1,0.7l-1.5-0.9l-2-2.4l0.2-0.2l-0.4-0.4l1.1-2l0.7,0.2l-1.3,1.8l-1.3-1.8
							l-1.1-0.7l1.1-1.8l0.4,0.2l-1.1,1.8l-2-1.3l0.2-0.2H672l-2-0.7l-0.2-2.9l0.7,2l0.4-0.9l-2.2-1.3l-1.8-2l-0.4,0.7l-0.7,0.2
							l-1.1-2.9l-0.2-0.4l-0.2-1.3h-0.2l-2-0.9l0.9-2.2l1.3,0.4l-1.3,2l-0.9-1.1l-1.3-0.4l0.4-2.2h-2l1.1,1.1l-1.1-0.2l-0.4,0.2
							l-1.3-2l0.4-0.2l0.9,0.9v-2.2l-2,0.7l-1.1-1.5l0.4,0.4l-2.6,0.7l0.7-2.6h-3.1l1.3-1.3v-0.2l-0.2-0.7l-0.9-1.5l-0.4-0.2
							l-0.4-0.4l-0.9,0.4l-1.1-1.8l-0.2,0.2l-1.5-1.8l-0.4,0.4h-0.7l-0.2-0.7l-1.8,1.1l0.7-2.2l0.9-0.4l-0.9-1.8h-0.7l-0.4-0.9
							l-0.9,0.2l-2.2-0.4l0.4-2h-0.7l-1.3-0.7l-0.7-0.2l0.4-2.2h-1.5l0.4,0.7l1.1-2l0.9,0.2l0.4-0.4l1.1-0.7l3.1-0.4v1.5l0.2,0.2
							v0.2l-0.7-1.8h2.9l1.5,0.2l0.9,0.9l1.5-2.2l0.9,2l-1.3,0.9l0.7,0.4l0.7-2h3.3v0.9l1.1,0.4l0.4-1.1h2l0.2,0.2l0.4-1.8l1.5,2.2
							l-0.2,0.2l1.8-1.1l1.3,0.9l2.6-3.1v4.2h1.1l1.5,0.7l0.7,1.5l0.4,0.7h0.7v2.2h2l-0.7-0.9l1.5,1.3l1.1,2.2l-3.1,3.1v-4.2
							l5.1,0.7l-1.1,1.3l0.7,0.7l1.5-0.4l0.9,2.2l0.9,0.9l-1.1,1.3l-1.1-2l2.2-0.4l0.7,2.4l-0.4-0.4l2.9,1.8l2,4l-3.1-0.7l0.4-2.2
							l2.4,0.2l1.3,2l-0.2,0.2l1.3,1.1h2l-1.3,1.5l2,1.1v1.5l-2,0.7l-0.4-0.7l1.3-1.5l1.3,0.4l0.7,1.8h2.4l-0.7,1.1l0.7,0.2h1.8
							l-0.4,2.4l1.5,0.9l-1.1-1.1v0.9l2.6,0.9l1.5,3.3h0.7l-0.2-0.2l-0.9-1.3l0.4-1.5l2,4.4h0.4l1.1,0.7v0.2h1.3l0.7,2l-2.2,0.4
							v-0.2l2-0.7l1.5,2.2v0.2l0.2,0.2l0.4,0.7l2.4,2l-1.3,1.8l-0.9-0.7l1.3-1.8l2,1.3l0.2,0.4l1.8-1.8l0.2,2.4l-0.7,0.4l1.8,1.3
							l-0.2,0.2h0.2l0.2,0.7l1.3-1.3l0.4,3.7l0.4,0.9l-2,0.7v-2.6l3.7,2l0.4,1.5l-0.4-0.2l3.5-0.4l-1.1,2l0.7,1.5l0.4,0.7h0.2
							l0.9,0.9l2.4,0.7l1.3,2.9h-1.1l-0.2-1.5l0.4-0.2l1.8,2l0.4,0.9l0.9,0.4l1.1,0.4l0.4,1.5l1.3,1.3l-1.1,1.3l-1.3-1.8l2-1.1
							l0.7,2l1.1-0.4l1.8,3.1l-0.2-0.2l1.1,0.2l0.7,0.9v1.3h0.9l0.9,1.1l0.7-0.2h2.9l-2.6,3.1l-1.3-1.8l1.5-0.4l1.8,2.2l-0.4,0.2
							l2,1.1l-0.2,0.4h0.2l3.7,1.3l-2,1.1l-0.2-0.2l1.3-0.7l0.7,2.2h3.5l-2.9,3.1l-1.8-1.3l0.9-2l4,2.2l-0.2,1.5l-0.4-0.2h0.9h1.3
							l0.9,1.5h0.9v3.1l-2-0.4l0.9-2l4,2l-1.1,1.5l-0.2-0.2l1.1-0.9l0.4,1.3l-0.2,0.2l1.8,1.5l-0.2,0.2l2.2,0.4l0.4,4.2l-2.2-1.3
							l1.3-1.3l0.4,0.7v-0.9l5.1,3.3l-1.3,0.9l-0.7-0.7l4.2,2l-1.3,5.5l-1.5-3.1l2-0.9l0.2,0.9l1.8-0.2l0.4,2.9v-0.7l1.8,0.7
							l1.1,1.3v1.1l0.2,0.4l-2.2,0.4v-2.4l3.7,1.1l-0.2,3.1l-2-0.9l1.5-2.2l1.3,2.6l-0.7,0.7l3.1,0.4l1.3,1.3l-0.9,0.9l0.2,0.4
							l0.9,0.9l0.4,0.2l0.2-0.2l2.6,1.1l-0.7,2h-0.2l-0.4,2.2l-0.7-0.2l1.1-2l1.8,1.5l0.4,0.4l0.2-0.4l1.5,1.5l0.4,0.9h0.2l1.5,2.6
							l-0.9,0.9l-1.3-0.9v1.8h2.2v-0.2l2.2,1.1v1.3l-0.2,1.1l0.4,1.1l0.7,0.9l-2,0.7v-0.7l2-0.7l2.9,4h-3.1v-2.2h4.2l-2.2,2.4h0.2
							l1.1,0.4l0.4,1.8l1.3,1.3l-1.8,1.1v0.9l1.8,0.9l-0.7,0.7l0.7,0.4l0.4,0.9l0.7,1.3l-1.1,1.5l0.2,0.2l-0.2,2h-0.7v0.9v0.4
							l-0.2,0.9l0.9,1.1v2.6l-2.4-0.4l0.4-0.7l0.7,1.3h0.4l-2.9,5.1l-1.1-2.2l-0.2,0.2l0.9-1.3l-2.4,0.7l0.7,2.2l-1.1,0.2l-0.9,1.3
							l-0.4,0.9h-1.5l-1.1,0.4l-0.4-2h0.7v2.2h-0.9l-0.4,0.9l-1.3,0.2l-0.2,0.2l-1.8,0.4h-0.9l-0.7-0.4h0.2l-2.2,0.7v-0.2l-0.9,0.9
							l-1.8-0.9v-0.2v2l-3.5-2l1.1-1.8l2,1.3l-2.6,2l-1.1-0.7l-0.4,1.8l-1.8-1.8l-1.1,0.9l-1.5-0.4V631.9z"/>
					</g>
				</g>
			</g>
			<g>
				<g>
					<g class="st0">
						<path class="st1" d="M760.5,552.9l-0.4-0.7l0.4-0.7l0.4-0.2l-0.7-1.1h0.2l0.7-1.3l0.4-0.9l0.7,0.2l0.2-0.4l0.4,0.2l0.7-0.2
							h0.2l0.2-0.7h0.9l-0.4,0.2l0.7,1.1l0.7-0.4l0.4,1.3l0.2,0.2l0.7,1.1h-0.7l0.9,0.9h-0.7v0.9l0.4,0.9l-0.4,0.4l0.4,1.1l-0.4,0.2
							l0.4-2.2v0.9l-0.2-0.2l-0.2,1.3l0.4,0.7h0.2v1.1l-0.2,0.4l-0.4-1.5l0.2,0.7l0.2,0.7v0.9h0.2v1.1h0.4l-0.4,0.2l0.9,1.1v0.2
							l0.7,1.1l0.2,0.7l-0.2-0.4l0.2,0.4v1.3l0.9-0.2l-0.2,0.7l0.9,0.7h-0.2l0.4,0.9l0.4-0.7l0.4,0.2l0.9,1.1l0.2-0.4l0.2,0.2v1.1
							h0.7l0.2,0.2l0.4-0.4l1.3,0.2v0.7l0.9-0.7l-0.2,0.2h0.7l1.5,0.4v-0.7l0.9,0.7v-0.7h0.9l0.2,0.7l0.2-0.7l1.1-0.2l0.4-0.7
							l0.2,0.7l0.4-1.1h0.7l0.9-0.9l-0.2-0.2l0.9-0.9h0.2l0.4-0.4v-0.7h0.7l0.2-1.1l0.2,0.2l-0.4-1.1l0.2-0.2l0.7-0.7l0.2,0.2v-1.5
							h-0.2l0.2-1.1l0.4,0.4l-0.4-0.9l1.1-0.7l-0.9-0.7l0.2-0.7l-0.2-0.2l0.2,1.5l0.7-0.2l-0.9-0.4l0.9-0.7l-0.9-0.9l0.7-0.4
							l-0.4,1.5h-0.2l0.2-0.7l0.7-0.4l-0.2-0.2v-0.4l0.2-1.1l-0.9-0.9l0.9-0.7l-0.2-0.7l0.2-0.7v-0.4l-0.9-0.9l0.2-0.7l0.7-0.2
							l-0.9-0.9l0.7,0.4l-0.4-0.9l0.4-0.9h0.2v-1.5l-0.9-0.4l0.9-0.2v-1.3h-0.2l-0.7-1.1l0.9-0.2l-0.2-0.4l-0.7-0.2v-0.9l0.7-0.2
							v-1.1H788v2l0.4-0.2l0.2-0.9l-0.2-0.9h0.2l-0.9-1.1v-0.9l0.9-0.4H788l0.4-0.9h0.2l-0.2,1.3l-0.7,0.4l0.9-1.1l-0.7-1.5
							l-0.2,0.4l0.2-1.1l-0.4-0.9h0.2v-1.1h-0.2l-0.4-0.9l0.4-0.4l-0.2-0.7l-0.9-1.1l0.2-0.9v-0.2l-0.9-0.2l0.2-0.9l-0.7,0.2
							l-0.7-1.1h0.4l-0.9-0.2h-0.4v-0.9l-0.4-0.2l-0.4-0.4v0.4l-0.9-0.4l-0.7-0.9v0.2l-0.7-0.2l-0.4-0.2l-0.2,0.2h-0.2l-0.4-0.7
							l-0.9,0.7l-0.4-0.7l-0.7,0.4l-1.1-0.7v0.2h-0.7l-1.1,0.7l-0.4,0.4l-0.2-0.2l-0.9,0.7l0.2-0.7l-0.7,0.7v0.4l-1.3,0.2v-0.2
							l-0.2,0.7l-0.9,0.4l-0.2,0.2l-0.4,0.7h-0.2l0.4,0.4l-0.9,0.4l-0.4,1.3v-0.2v0.4l-0.2,0.2l-0.2,0.9l-0.7,1.1h0.4l-0.4,0.9
							l0.2,0.4v0.9l-0.2,0.7l-0.4,0.4l0.4-0.2l-0.2,0.9v0.2l-0.4,1.1l0.4,0.9l-0.2-2.6l0.4,1.1v0.9h-0.4l-0.2,1.1l0.2,0.7l0.2-0.4
							l0.2,0.9l-0.2,0.2v-0.2l-0.2,1.1l-0.2,0.2l0.2,0.4l-0.4,0.7l0.4,0.9l-1.1,0.7v0.2v0.2l-1.1-0.2l-0.2,0.9v-0.4l-0.7,0.9
							l-0.9-0.4l-0.2,0.2l-0.2-0.9l-0.9,0.7l0.2-1.5l-0.4,0.4l-0.9-0.7l0.4-0.4l-0.2-1.1l-0.4,0.2v-0.7l-0.2-1.8l0.2-0.4l0.2-0.4
							l0.2-0.2l-0.7-0.4l0.2-0.4l-0.2-1.1h0.4l-0.4-0.9l0.7-0.9H760l0.2-0.4l-0.2-0.7v-0.4l0.2-0.9v-2.2l-0.2-0.4l0.2-0.7l0.4-0.9
							v-0.4l-0.7-0.7l0.2-0.7l-0.2,0.2v-0.9l0.4-0.9l0.2-0.2v-1.1h-0.2l-0.4-0.4v-1.1l0.7-0.4v-1.3l-0.7-1.1l0.4-0.4l0.2,0.2
							l-0.4-1.3v-0.7l0.2-0.2h0.2v-2l-0.7-0.2l0.4-0.9l0.2-0.9v-0.4l-0.7-0.9l0.4-0.4v0.2l-0.2-0.9v-0.9l0.2-0.7l-0.2-0.7l0.4,0.2
							l-0.2-0.7l-0.2-1.1l0.2-0.4v-0.4H760l0.7-0.7v-1.5l-0.2-0.9l-0.4-0.2l0.7-0.9l-0.2-0.2l-0.2-0.9h0.4l-0.7-2.4l0.4-0.7
							l-0.4-0.4v-0.2h0.7v-2h-0.2l0.2-0.2v-1.1l-0.7-0.9l0.2-0.2l0.2-0.7l0.2-0.2V488l-0.4-0.4v-0.2l-0.2-1.5l0.4-0.2l-0.4-1.1
							l0.2-0.4H760l0.2-0.7l0.4-1.3l-0.7-0.2l0.4-0.9v-1.1l-0.4-0.2v-0.7l0.7-0.4l-0.2-0.4l-0.4-0.2l0.2-0.9l0.4-1.1l-0.4-0.2
							l0.4-0.2l-0.2-0.9v-0.2l0.2-0.7l-0.2-0.4l0.2-1.1l-0.7-0.9h0.2l0.2-0.4v-0.9l-0.2-0.7l0.2-1.1v-0.4l-0.2-0.2H760l0.7-0.9
							l-0.2-1.1h-0.2l0.4-0.7l-0.2-0.7l-0.2-0.4l0.2-0.4v-0.9H760l0.4-0.9l-0.2-0.7l0.4-0.2l-0.4-0.2l0.4-0.4l0.2-0.7h0.2l0.7-0.4
							l0.9-0.9h0.4l0.7,0.2h0.2l0.7-0.4l0.4,0.4l0.7,0.4l0.2-0.2l-0.2,0.9l0.4-0.2l0.4,0.7l0.4,0.2v0.9l-0.2,0.2l-0.2,0.2l0.2,1.1
							h0.4v1.1l-0.7-0.2l0.2,0.7l0.4,0.9l-0.4,0.2h-0.2v1.5l0.7,0.4h-0.7v-4.2l0.2,1.1h0.4v0.7l-0.4,0.4h0.2v0.9h0.2l-0.7,1.5
							l0.4-0.4l0.2,0.9h-0.7l0.2,0.7v1.3l-0.2,0.2l0.2,0.2l0.4-4.4v-0.2l-0.4,0.7v0.4l0.2,0.9l-0.4,1.1l0.7,0.2l-0.2,0.9l-0.4,0.4
							l0.4,0.4h-0.2l0.4,0.4l-0.7,0.7l0.2,1.1l-0.2,0.7l0.2-0.2l0.4,1.3l-0.7,0.9v0.9h0.7v0.2l-0.2,1.3l-0.2-0.2l0.7,1.3v0.4
							l-0.2,0.2l0.2,1.1l-0.2,0.2l0.9,0.2v0.7v1.1l0.9,0.2l0.2,0.7l-0.2,1.1v-0.7l0.9,1.3l-0.4-0.2l1.1,1.1v0.2h0.4h0.4l-0.2,0.9
							l0.2,0.7l1.3,0.2l-0.2,0.2l0.7-0.2v0.2l0.7,0.2l0.4,0.7l0.7-0.2l0.7-0.4v0.4l0.2,0.7l0.4-0.2l1.1-0.4l1.1,0.7l0.2-0.7l0.7,0.7
							v-0.7l0.2-0.4h0.7l0.7-0.2v0.2l1.1-0.4l0.2,0.4V488h1.1l0.2-0.2l0.4,0.2l0.2-0.2l-0.2-1.1l1.1-0.4l-0.4-0.4l0.9-0.4h0.2v-0.9
							l0.4,0.2l0.4-0.2l-0.4-0.4l0.4-1.5l0.4-0.4l0.2-0.2l-0.4-0.4l0.7-0.2l0.2-0.2l-0.4-1.1l0.4-0.9l0.2,0.2l0.4-1.1l-0.7-0.2
							l0.2-0.9l0.7-0.7v0.2l-0.7-1.3l0.7-0.4v-1.3l-0.7-0.2l-0.2-0.7v-0.4l0.9-0.9l-0.2-0.2l-0.4-0.9l-0.2-0.4l0.9-0.7l-0.9-0.4
							l0.2-0.4v-0.4l-0.2-0.9l0.7,4l-0.7-0.4l0.9-1.3v-1.1h-0.9l0.9-0.4v-0.7l-0.2-1.3l-0.7-0.4v-0.4h0.2l-0.2-0.2v-1.1l0.2-0.4
							l0.7,4.2h-0.2v-1.3l-0.7-0.4l0.2-0.7v-0.4l-0.2-0.2v-1.1h0.9v-0.4l-0.2-0.9l-0.7-0.2l1.1-1.1l-0.4-0.9h0.9l-0.4-0.7l0.9-0.2
							l0.7-0.7l0.2-0.2h0.2l1.3,0.2l0.4,0.2l0.2-0.2l0.2,0.2l0.7,0.7l-0.2,0.2h0.2l0.9,0.4l-0.2,0.9h-0.2l0.4,0.7l0.7,0.2v0.9v0.7
							l-0.2,0.9l0.2-0.2l-0.7,0.7l0.4,0.2v1.1l-0.4-0.2l0.4,0.7v0.9l-0.7,0.9l0.7,1.1l0.2,0.2l-0.7,0.9l-0.2-0.4l0.2,1.5v-0.4
							l0.7,1.5l-0.9,0.7l0.2,0.7l0.4,0.4v0.7l0.2,1.1l-0.9,0.4l0.7,0.9v-0.2l0.2,0.9l-0.7,0.2l-0.2,1.3v1.8l0.2-0.4l-0.2,1.1h0.2
							l0.7,0.9l-0.2,1.1l-0.7,0.9h0.7v2h-0.7l0.9,1.1l-0.9,0.2v1.5l0.7,0.4v0.7l0.2,0.9h-0.9l0.2,0.7l-0.2,0.2l0.7,0.9v0.4l0.2,0.9
							l-0.9,0.9l0.7,1.1l-0.7,0.2h0.7l-0.4,1.3l0.7-0.2l-0.9,1.3v1.1l0.9,0.2l-0.7,0.7h-0.2l0.7,1.3l0.2,0.7v1.5l-0.2,1.1h-0.4v1.1
							l-0.2,0.7h0.7l0.2,0.7l-0.7,0.7l0.7,1.1l-0.9,0.9l0.2,1.1l0.7,0.4l-0.2,0.2h-0.7v1.1l0.9,1.1l-0.2,0.4l-0.4,1.1l0.4,0.2
							l-0.4,0.4l-0.2,0.4v1.5h0.7v1.8h-0.4l0.4,0.7l0.2,0.4l-0.7,0.2v0.4l0.4,1.1v0.7l-0.4,1.1h-0.2l0.7,0.9v0.7h0.2l-0.7,1.1
							l0.4,0.4l-0.4,1.1l0.4,0.4v0.7l-0.7,0.2l0.2,0.9l0.4,0.2v0.9l-0.7,0.2l0.9,0.9l-0.9,0.2v0.9l0.7-0.4l0.2,0.7l-0.7,0.9v0.7h0.4
							l-0.7,0.7v1.1h0.9l-0.9,1.3l0.7,0.2h-0.4v1.1l0.4,0.4l-0.7,0.7h0.7l0.2,1.5l-0.9,0.4l0.9-0.2l-0.7,1.1v0.9l-0.2,0.4h0.2v1.3
							l0.4,0.4l-0.4,1.1l0.4,0.4l0.2-0.2l-0.9,1.3v0.9l0.9,1.1l-0.9,1.3l0.9,0.9H795l-0.7,1.1v0.9l0.2-0.4l-0.2,0.9l0.2,0.2
							l-0.2,1.5l0.7,0.9l-0.4,0.4l0.4,0.2v1.1h-0.4l0.7,0.2l-0.7,0.7l0.4,0.4l-0.7,1.1l0.9,0.9l-0.9,0.9l0.2,0.9v0.4l-0.2,0.9
							l0.9,0.9v0.2l-0.9,0.9l0.7,1.1l-0.7,0.4v-0.2l0.9,0.4v0.9l-0.7,1.1l0.4-0.2l-0.7,0.9l0.2,1.1l0.7,0.2v0.4l-0.7,0.7v2l0.7,1.1
							h-0.9l0.2,1.1l0.7,0.4l-0.9,0.2v0.7h0.9v1.5h-0.9l0.9,0.7l-0.2,1.3l-0.7,0.2l0.7,0.9h0.2l-0.2,1.1v-0.2l-0.7,0.4l0.9,1.5
							L795,590v0.7l-0.7-0.4v0.9l0.9,1.1v1.1l-0.7-0.2l-0.2,0.9l0.9,0.4l-0.9,0.2l0.9,0.7v2.4l-0.7-0.2l-0.2,0.9l0.2,1.1l0.4,0.4
							h-0.4l0.7,0.7v0.7h-0.9l0.7,1.1l-0.7,0.7l0.2,0.2l0.4,0.9l-0.4,0.4l-0.2,0.4l0.9,1.1l-0.9,0.4l0.7,0.2l-0.4,0.9v0.7l0.4,0.2
							l-0.7,0.4l0.7,0.7l-0.4,1.1l0.7,0.4v1.1l-0.2,0.4l-0.7,0.7h0.7l0.2,1.5h-0.7l0.7,0.4v0.2l-0.9,1.1h0.2l0.7,1.5h-0.9v0.4
							l0.9,0.7l-0.7,1.1V620l0.4,1.1v0.9l-0.7-0.2l0.9,1.1l-0.9,0.9l0.9,0.2l-0.7,0.9l0.4-0.4l0.2,0.9v0.2l-0.2,0.9l-0.4,1.1
							l0.7,0.7v0.7l-0.9,0.7l0.2,0.4h-0.2v1.1h-0.2l-0.4,0.2l-0.7,0.2l-0.7,0.4l-0.4,0.2l-0.7,0.2l-0.9-0.2h0.2l-1.1-0.4l0.4-0.4
							l-1.1-0.4v0.2l-0.2-1.1l-0.2-0.4l0.2,0.2l-0.9-0.9l0.2-0.7v-0.9v-0.7l-0.2-1.1l0.7-1.1l-0.4-0.2v-1.3l0.4-0.9v-0.9l0.2,0.4
							l-0.7-0.7v-1.1l-0.2-0.2l0.9-1.1l-0.7-0.2l0.4-0.4l-0.4-0.7h0.4l0.2,4l-0.4-0.4l0.2-0.9l-0.4-0.4h0.7l-0.7-0.4l-0.2-1.1
							l0.2-0.7v-0.4l0.4-0.4l-0.7,5.3l0.7-1.1v-0.7l0.2,0.2l-0.9-0.4v-1.8l0.7-1.1l-0.7-0.7v-0.4l0.2-0.4v-0.2l-0.2-0.9l0.2-1.3
							l-0.2-0.4l0.7-0.4l-0.4-0.9h-0.4l0.4-0.4l-0.2-0.4l0.2-1.3h-0.2l-0.4-0.4v-0.7l0.2-0.4v-0.7l-0.2-0.4l-0.9-0.4v-1.1l-0.7-0.7
							h0.2V603l-0.9-0.2l0.2-0.4l-0.9-0.2l0.2-1.1l-1.1-0.2v0.4l-0.2-0.7h-0.9l0.2-0.7l-0.9-0.4l0.2-0.4l-1.1,0.4l-0.4-0.4H780
							l-0.4-0.2l-0.2,0.2h-0.2l-0.4-0.2l-0.9-0.4l-0.4,0.2H777l-1.1,0.2v-0.2l-1.1,0.4h-0.2l-0.4,0.4h0.2h-1.1h-0.4v0.7l-0.7,0.4
							v0.4l-0.7,0.2h-0.7l-0.4,0.7l0.2,0.4l-0.7,0.4v-0.4l-0.4,1.1v-0.2l-0.4,0.9l-0.7,0.9l0.7,0.4l-1.1,0.7l0.2,0.4l-0.4-0.2
							l-0.2,1.1l-0.2,0.4v-0.2l-0.2,1.1l0.2,0.2v0.4l0.2,0.4l-0.7,1.1v0.9l0.4-0.2l-0.7,0.4v1.3l0.2,0.4l-0.2,1.1h0.2l-0.2,0.7
							l0.4,0.7v1.5h0.2l-0.2,1.1h-0.4v0.9l0.4,0.7l-0.2,0.2l0.4-3.3v0.4h-0.7l0.2,0.9l0.4,0.7l-0.2,0.7h-0.2v0.9l0.2,0.7l0.2-0.4
							l-0.2-2.9l0.2-0.4l-0.2,1.5v-0.4l-0.4,1.5h0.7l-0.7,0.7l0.4,0.7l-0.2,0.9l0.2,0.2h0.2l-0.7,1.3l0.4,0.2l0.2,0.9v1.1h-0.7
							l0.4,0.2v1.1l-0.4,1.1h-0.2v1.5v0.2h-0.2l-0.2,0.2v1.1h-0.9l-0.7-0.2l0.2,0.7l-1.1-0.4h-0.4l-0.2,0.2l-1.1-0.2l0.4-0.4
							l-1.1-0.2l-0.4-0.9l-0.4-1.5l-0.2,0.4l0.4-1.5l0.2-0.7l-0.7-0.9l0.7-0.7v0.4l-0.7-0.7l0.4-1.1h0.2l-0.2-0.4v-1.5l0.2,0.4v-0.7
							l-0.4-0.9v-0.7l0.4-0.4l-0.4-0.7v-0.7l0.2-0.2l-0.2-0.7l0.2-0.7l0.2-0.4l-0.7-1.1v-0.2h0.7V614H760l0.4-1.1l-0.2,0.2l0.4-0.4
							l-0.2-1.5v-1.5l-0.4-0.2l0.4-0.9l-0.2-0.2l0.4-1.1v-0.4l-0.4-0.7l-0.2-0.9h0.7l-0.2-1.1H760l0.2-0.7v-0.7h0.4l-0.7-1.5h0.2
							l0.2-1.1H760l0.4-0.2l0.2-1.1l-0.7-0.2v-1.1h0.4l0.2-0.7l-0.4-0.7l0.4-0.7l-0.7-0.4l0.2-0.4V594l0.2-1.1V592h-0.2l0.2-1.1
							l-0.2-0.7v-0.4l-0.2-0.7l0.7-0.4l-0.2-1.1l-0.2-0.9l-0.2-0.4l0.7-0.9l-0.4-0.9l0.2-0.2H760l0.7-0.7l-0.7-1.1l0.2-0.2l-0.2-0.9
							l0.2-0.7L760,581l0.2-1.1V579l0.4,0.2v-1.1h-0.4l0.4-0.7l-0.7-0.7v-0.4l0.2-1.1H760v-0.7l0.7-0.2v-0.9l-0.4-0.2v-0.7l0.4-0.7
							l-0.4-0.9h0.4v-0.9l-0.4-1.1H760l0.7-0.4l-0.2-0.7l-0.2-0.2l0.2-0.7v-1.1l0.2-0.4L760,565l0.7-0.4v-0.7H760l0.7-1.3l-0.7-0.2
							l0.4-0.7V561l0.2-1.1l-0.4-0.2l0.4-0.7v-0.9h-0.2l-0.4-0.9l0.2-0.2l-0.2-0.4v-0.4l0.2-0.4l-0.2-0.7l0.7-0.7l-0.4-0.4
							L760.5,552.9z M853.5,535l0.9,0.4v0.9l-0.2,0.4l1.3,0.7h-0.2l0.2,1.8l0.2,0.9h-0.7l0.2,0.7h-0.4l-0.4,0.7l-0.2,0.2l0.2,0.7
							l-0.9,0.4l0.2-0.7l-1.1-0.7v0.9l-1.3-1.1h-0.4l-1.1-0.7l0.4-0.4l-1.1-0.2l0.4-0.4l-0.4-0.9l-0.9-0.4v-0.7l-1.1-0.9l0.2-0.4
							l1.1,2.2l-0.7-0.7h0.4l-0.7-1.3l-0.7-0.2h-0.2l-0.7-0.9l-0.2-0.7l1.3,1.3l-0.7-0.7l-0.4-0.4l-0.7-0.9v0.2l-0.9-1.1l-0.2,0.2
							l0.2-0.4l-1.5-0.4l-0.2-0.2l-0.9-0.9l-0.7-0.4l0.4,0.2l-0.4-0.2l-0.9-1.3l-0.4,0.9l-0.4-0.9h-1.1l0.2-0.2l-0.9-0.4v0.7h-0.4
							l-1.3-0.7l0.2,0.7l-0.4-0.2l-0.7-0.9l-0.4,0.2h-0.4v0.7l-1.1,0.4l-0.4-0.7l-0.2,1.1v-0.4l-0.7,0.4l-1.3,0.4l0.4,0.4h-1.1
							l0.4,0.7l-0.9,0.4l-0.4-0.4l0.2,0.7l-0.7,0.7v0.9l-0.4-0.4l0.2,1.3l-0.4,0.2l-0.2,1.3l0.2,0.2v1.1h-0.2v0.9l0.4,0.4l-0.7,0.4
							l0.4,1.1h-0.2l1.1,0.7v0.4l-0.2,1.1l-0.2-0.2l0.9,1.3l0.7,1.1h-0.7l0.9,0.4l-0.2,1.1l0.9,0.4l0.2,0.4l0.4,0.2l-1.3-1.3
							l-0.2,0.4l0.9,0.2l-0.2,0.9l1.1,0.2v0.9l-0.9-1.8h0.2l0.4,0.9l-0.2,0.4l0.2,0.2l0.4,0.4l0.4,1.1l1.1,0.4l-0.2,0.9l0.7,0.7
							l0.2,0.7l0.4,0.4l0.9,0.4l0.2,0.7l-0.2,0.4l1.1,0.4h-0.4l0.7,0.7l0.2,0.9l-0.2,0.2l1.1,1.5l0.7-0.2l-0.2,0.7l0.9,1.3v-0.2
							l1.1,0.9l-0.4,0.7h0.4h0.7l0.4,0.9L841,563l0.7,1.1l0.2-0.2l-1.3-1.8v0.4l0.4,0.9l0.7,0.7h-0.2l1.3,0.7l0.4,0.9l-0.2,0.9
							l0.4-0.2l0.2,0.9l-0.7-1.3v-0.4l0.2,1.3l1.3,1.1v-0.4l0.4,1.1l0.9,0.7h-0.2l0.7,1.1l0.2-0.2l0.9,0.7v0.7l0.4,0.4l1.5,0.4
							l0.2,0.9l0.2,0.2l0.9-0.2l0.4,0.9l0.2-0.4l1.1,0.7l-0.2,0.2l0.9-0.2l0.2-0.2l0.7,0.9h0.4l0.7,0.2l-0.2-0.4h1.1l0.9,0.4
							l-0.2-0.2l0.7-0.2h0.7v-0.2v-0.2l0.9,0.2l0.2-0.9l0.7,0.4l0.4-0.7l1.1-0.2l-0.2-0.2l0.7-0.2l0.4-1.1v-0.7h0.2l0.4-0.9l0.2,0.7
							l0.2-0.9l-0.4-0.7l0.9-0.9v0.2V568l0.4-1.1v-0.4v-0.7v-0.2l-0.7-0.2l0.7-0.7l-0.7-1.5l0.2,0.2l-0.4-0.4v-0.4l-0.2-0.9
							l-0.2-1.3l-0.4,0.2v-1.1l-0.7-0.2l-0.4-0.9l-0.2-0.7V557l-0.2,0.4l-0.2-0.9l-0.2-0.2l-0.2-1.3l-0.9-0.4l1.5,2.2l-0.9-0.9
							l-0.7-0.7l0.4-0.2l-0.4-1.3l-0.7-0.2v0.2l-0.7-0.7v-0.2l0.2,0.2l-0.4-1.1v-0.4l-0.4-0.2l-0.2-0.9l-0.9-0.7l0.7-1.1l-0.2-0.2
							l-0.2-0.2l1.1-0.2l-0.4-0.9l0.2,0.2v-1.1h1.1v-0.4l0.7,0.7l0.2-0.9l0.7,1.3l0.2-0.4h1.1v0.9l0.9,0.9l0.2-0.7l0.2,0.7l1.3,1.5
							v0.4l0.2,0.7v0.4l0.7-0.2l0.2,0.7l0.9,0.9l-0.4,0.2l0.9,0.7v1.1l0.7-0.4v0.7l0.7,0.4l0.2,0.4l0.4,0.9l1.3,2.2l0.4,0.2l0.2,0.7
							l0.2,1.1l0.2,0.4l0.9,0.2l0.4,0.9v-0.4l0.4,0.9l0.2,0.9v0.4l0.7,1.1l0.2-0.2l0.7,0.2l0.7,1.1l-0.2,0.7l0.7,1.3l1.3,0.7v0.7
							h-0.4l1.3,0.9l0.2,0.7v0.2v0.2l1.1,1.8h0.7l0.2,0.9l0.2,0.9l0.4,0.7l1.1,0.2v0.9l-0.2-0.2l0.7,0.7l0.4,0.7l0.4,0.9l0.4,0.4
							h-0.4l0.7,0.7l0.9,0.9v0.4l0.4,0.4l0.2-0.2l-0.2,0.9l1.1,1.5l0.7,0.7h0.7l-0.2,1.1l0.4,0.2l0.7,0.7l-0.2,0.2l2,2v0.7l0.7,0.2
							l0.2,0.2l-0.7,0.4l1.3,1.8h0.2v0.2l0.7,1.1l1.1,0.4v0.4v0.7v0.2l0.4,0.7l0.7,0.2l0.2,0.2l0.9,1.1v0.7l0.9,0.7l0.2,0.7l0.2-0.2
							l0.2,0.7l0.4,1.5h0.7l0.2,0.9l0.7,1.1h0.4l0.4,0.4l-0.2,0.9l0.4,0.2h0.4l0.4,0.9l0.2,1.3h0.4v0.4l0.7,0.7v0.2l0.2,0.7l0.7,0.4
							l0.4,1.1l1.1,0.4l-0.2,0.2l0.2,0.7l0.4,0.7l0.4,0.4l0.7,1.1l0.2,0.4l0.4,0.2l0.2-0.2l-0.2,1.3l0.9,0.9l0.2-0.2v0.9l0.7,0.4
							l0.4,0.2v0.4l0.4,0.7l0.4-0.2v1.1l0.7,0.4l-0.2,0.4l0.4-0.2l-0.2,0.7l0.2,0.7l-0.2,0.2l-0.2,0.7v1.1l-0.4,0.2l-0.7,0.2h-0.2
							l-0.2,0.9l-0.7-0.2h-0.7v0.2l-0.2-0.9l-0.2,0.4l-0.9-0.2h-0.4l-0.4-0.7v-0.4v-0.2l-0.7-0.9l-0.4,0.2l-0.7-0.9l0.7-0.2
							l-0.4-0.2l-0.9-0.7l0.2-0.4h0.2l-0.9-1.5h-0.9l0.4-0.4l2.4,3.7l-0.7-0.7l-0.4,0.2l-0.4-0.7l0.2-0.7l-0.2,0.2l-0.4-0.9h-0.2
							l-0.4-1.5l-0.2,0.4l-0.7-0.7l0.7-0.2l-0.7-0.4l-0.9-1.3l2.2,3.7v0.4l0.2-0.9l-0.4-0.4l-0.7-0.7l-0.4-1.3l-0.7,0.2l-0.2-0.9
							v-0.9h-0.7h0.2l-0.7-0.4l0.2-0.9l-0.9-0.9L898,612v0.4l-1.1-1.1v-1.1l-0.4-0.9l-0.7,0.4l-0.2-0.2l-0.7-1.3h0.4l-1.3-0.9
							l-0.2-0.2v-0.4l-0.9-0.9v-0.4l-0.9,0.2l-0.4-0.4l-0.7-1.1l-0.7,0.2l-0.7-0.4l-0.4-1.1l0.4,0.4l-1.5-0.7h0.4l-1.5-0.4l-0.2-0.2
							l-0.4,0.2l-0.2,0.2l-0.4-0.9l-0.4-0.4l-1.1,0.4V601l-0.4,0.7l-0.2-0.2h-0.7l-0.7-0.2l-0.4,0.7l-0.2,0.4l-0.2-0.2l-0.7-0.7
							l-0.2,0.4l-0.4,1.1l-1.3-0.2l0.4,0.9l-1.1-0.4l0.4,0.9v0.2l-0.4,0.4l-0.4,0.7l-0.2-0.2l-0.4,0.9l-0.4-0.4l0.7,1.1l-0.9,0.7
							v0.4h-0.7v0.2l0.9,0.9l-0.2,1.1l0.2,0.2l-0.2,0.9H876l0.7,0.9H876l-0.2,0.4l0.9,0.2l0.4,1.5v0.7v0.4h0.4l-0.4,0.7v0.4l1.1,0.7
							l0.2,1.1l-0.4-0.2l0.4,1.3h0.7l0.2,0.9l0.2,0.9l-0.2-0.2l1.3,1.1l-0.2,0.4l0.9,1.3h0.4l0.7,0.4l0.2,0.4v1.1l0.4,0.2l0.7,0.7
							l0.4,0.4l-0.2,0.9h0.9v0.4l0.4,0.4l0.7,0.7l-2.9-3.3h0.7l0.2,1.8l0.7,0.9l0.7-0.2l-0.2,0.9l0.4,0.4l0.9,1.1l0.7,0.2l0.2,0.2
							l-0.2,0.2h0.4l0.4,0.9l0.2,0.7l-2.9-3.5l0.2-0.2l0.7,1.3l0.7,0.2l0.2,0.7l0.2,0.4h0.4l0.7,0.9l-0.7,0.4l0.2,0.2l0.7,0.7h0.4
							v1.3l0.9,0.4l-0.9,0.7l0.9,0.2l-0.7,0.7l-0.2,0.9v0.4h-0.2l-1.1,0.4h-0.4v0.4h-0.4l-0.9-0.2l0.2-0.4l-0.2,0.2h-1.1l-0.2-0.7
							l0.2-0.2l-0.9-0.2h-0.4l-0.4-0.7l-0.4-0.7l-0.2-0.9v0.4v-0.9h-0.4l-0.4-0.9h0.2l-0.7-0.4l-0.4-0.9l-0.2-1.1l-1.1-0.7l-0.2-0.2
							l-0.2-0.9h0.4l-1.1-1.1l0.2,0.2l-1.3-1.1v-1.1l-0.4-0.2l-0.4-0.4l-0.4-0.7l-0.9-0.9l0.2-0.9l-0.9-0.4l0.2,0.2l-0.7-0.7
							l0.2-0.4l-0.9-1.5l-0.9-1.5v0.4l-0.7-1.1v0.2l-0.9-0.7l-0.7-1.1v-1.1l-0.4,0.2l-1.1-1.8l0.2-0.2l-1.1-0.7l0.2-0.7l-0.9-1.5
							h-0.7l-0.4-0.7l-0.7-0.7l0.4-0.4l-0.4-0.4v-0.2l-0.9-0.7l-0.4-0.4l-0.7-0.7v-1.1l-0.9-0.9v-0.4l-0.2,0.2l-0.7-1.3l-0.2,0.4
							l-0.4-1.8l-0.7-0.9h-0.7v-0.7l0.2-0.2l-1.3-0.9l-0.4-0.4l-1.1-1.5l-0.4-1.1l0.2-0.2l-0.7-1.1l-0.2-0.7l-0.4,0.4l-0.7-0.7v-0.9
							l-0.9-0.7v-1.3l-0.9-0.9l-0.7-0.2v-0.4l0.2-0.2l-0.7-0.9l-1.1-0.7v-0.4l-0.7-1.1l-0.2-0.2l-0.2-0.7v-0.4l-1.1-1.5l-0.2,0.4
							l-1.1-1.5l0.2-0.2l-0.7-0.7l-0.4-0.2l0.2-0.4l-0.4-0.4l-0.9-0.9l-0.2-0.7l-0.4-1.1l-0.9-0.7l-0.4-0.7H843l-0.2-1.1l-0.4-0.2
							l-0.4-1.1l-0.4-0.4l-0.4-0.4l0.2-0.7l-0.7-0.7h-0.4l-0.4-0.9l0.2-0.4l-1.1-0.4l0.4-0.7l-0.7-0.7l-0.2,0.4l-0.4-0.4l-0.2-0.9
							l-0.4-0.9l-0.2,0.2v-0.9l-0.7-0.9l-0.4,0.2l-0.4-1.5H835l0.2-0.2l-0.7-0.9l-0.4-0.2l-0.2-1.1l-0.2,0.2l-1.1-1.1l0.2-0.9
							l-0.4,0.7l-0.2-1.3l-0.7-0.7V559h-0.2l-0.9-1.1l-0.4-0.2l-0.4-1.1l-0.4-0.4v0.4l-0.4-1.8l-0.4-0.7l-1.3-0.7l-0.2-1.8l-1.1-0.4
							h0.2l-0.4-1.3l-0.4-0.9v0.4l-0.4-0.9h-0.2l-0.7-1.5l-0.9-0.4l-0.2-0.7l-0.4-0.2l-0.7-0.9l0.2-0.2h-0.4v-0.7l-0.7-0.4l-0.2-1.3
							l-1.1-0.4v-1.1l-0.7-0.7l-0.2-0.4l-0.4-0.9l-1.1-0.4l-0.2-0.2l0.2-1.3l-1.1-0.7v-0.9l0.2,0.4l-0.9-0.2l-0.7-0.9l-0.2-1.1v0.2
							l-0.2-0.9L813,532h-0.4l-0.4-0.7v-0.7l-1.1-1.8L810,528l0.7-0.4l-0.9-0.9l-0.9-0.2l0.4-0.7l-0.2-0.4l-0.7,0.4l-1.1-1.5
							l0.7-0.4l-0.9-0.2l-0.7-1.3l0.2-0.4l-0.9-0.7l-0.2,0.2l-0.4-1.1v0.2v-0.9l-1.3-0.9l-0.2-0.7l-0.2-0.4h0.4l-0.4-0.9l-1.3-0.7
							l-0.7-0.9h0.7l-0.4-0.9l-0.9-0.2l0.4-0.7h-0.9l-1.5-2.4h0.4l-0.2-0.9l-0.9-0.9l-0.7-0.4h0.2l-0.7-0.4l-0.4-0.7l0.4-0.4
							l-1.1-0.7v-0.9h-0.2l-0.7-0.7l-0.2-0.7V504l-1.3-0.7l0.2-0.9h-0.4l-0.4-0.9l-0.2-0.4l-0.4-0.2v-0.7l-0.7-0.4l-0.4-1.1
							l-0.7-0.2l-0.9-1.1l0.2-0.2l-0.2-1.1l-0.4,0.2l-1.1-1.1l0.4-0.2l-0.7-0.4l-0.2-0.2V493l-0.2,0.2l-1.3-1.1l0.7-0.4l-0.4-0.4
							l-0.9-0.2l-0.2-1.3v0.4l-0.9-1.1l-0.4-0.7h0.7l-1.3-0.7v-1.1h-0.7l-0.2-0.9v0.2l-0.7-0.7l-0.2-0.2l-0.2-0.9l-0.7-1.1l-0.7-0.2
							l-0.4-0.9l0.2-0.9l-0.7-0.2l0.2-0.2l-0.7-0.9l0.2-0.2l0.2-0.4l0.4-0.4l0.4-0.7l0.2-0.4l0.2-0.4l0.9-0.4l-0.2,0.2l1.1-0.2v0.7
							l0.9-0.4l0.9,0.7l0.4,0.4l-0.2-0.2l1.1,0.4l0.2,0.9l0.4,0.9l0.4,0.4l0.9,0.9l0.2,1.3h0.4l0.9,1.3l0.2,0.9l0.7,0.9l-0.4-0.2
							l0.7,0.2l0.7,1.1l0.4,0.2l0.2,1.3h0.4v0.4l0.7,0.7h-0.2l-2.6-3.7l0.7,0.2l0.4,1.1l0.4,0.2l-0.4,0.4h0.7l0.9,0.9l0.2,0.9
							l0.2,0.2l0.2,0.7l-2.9-5.1l0.2,1.1l0.4,0.7l-0.4-0.2l0.9,0.2l1.1,1.5l0.2,1.3l0.9,0.4l0.2,0.2l0.2,0.7v0.2l0.9,0.7l0.7,1.3
							l0.2,0.2v0.9l0.7,0.4l0.4-0.2v0.9h0.2l0.9,1.5V497l0.9,0.2l0.2,0.7l0.2,0.7l0.2,0.4l0.7,0.4l0.9-0.2l0.7,0.9l1.1,0.4l-0.2,0.2
							l0.4,0.7l0.9-0.2v0.4l0.9-0.2l0.4,1.3l1.1-0.4l-0.4-0.4l0.9,0.7l0.7-0.7l0.2,0.7h0.9v0.4l0.7-0.7h0.4l0.4-0.2h0.7v-0.4h0.7
							h0.9l0.2-0.4l0.2-0.2l0.9-0.9l0.2,0.2l0.2-0.9l0.2-0.2l0.2-0.4h-0.2l0.9-0.4l0.4-0.4l-0.4-0.7l0.2-0.7l-0.2-0.4l0.2-0.7
							l0.4-0.2v-0.9l-0.4-0.2l0.4-0.7l0.2,0.2l-0.4-1.3l0.2,0.2l-0.2-0.9v-1.1l-0.9-0.2l0.4-1.1l-0.4-0.2h0.4l-0.4-1.3l-0.2-0.7
							l0.2,0.4l-0.4-1.3h-0.4L813,486l-0.4-0.4l-0.2-1.3l-0.4-0.9l-0.2,0.4l0.2-0.9l-0.9-1.3h-0.4l-0.4-1.1H810l-0.2-0.9l-0.7-0.2
							l-1.1-1.5h-0.2l-0.4-1.1l0.2-0.2l-0.4-0.7l-0.7-0.4v-0.2l1.8,3.1l-0.4-0.4l0.7-0.2l-0.9-0.7l-0.7-0.2l-0.2-0.9l0.2-0.2
							l-0.7-0.7l-0.4-0.4v0.2l2.4,3.3l-0.4-0.4v0.2l-0.7-1.3l0.2,0.2l-0.4-1.5l-0.7,0.4v-1.1l-0.7-0.2l-0.2-0.9l-0.4-0.2h-0.2
							l-0.2-1.5h-0.7l-0.7-0.7l-0.7-1.1l0.4-0.2h-0.4l-0.7-1.1l-0.4-1.3h0.2l-0.9-1.3v-0.2v-0.2l0.2-0.2l-0.7-1.1l0.4-0.2l0.7-0.2
							l-0.4-0.4l1.1-0.2l0.4-0.2v-0.4l0.9-0.2v0.4l0.9-0.2l0.9,0.4l1.3,1.1v-0.4l0.4,1.5l0.4,0.9l1.1,0.4l-0.2,0.9l-0.2-0.2l0.9,0.2
							l0.2,1.3h-0.2l0.7,0.4l0.9,1.3l-0.4-0.2l0.4,0.4l0.9,0.7l0.4,0.7l-0.2,0.7l0.9,0.4l0.4,0.4v0.4l0.4,0.4l0.4,0.9l-0.2,0.4
							l1.3,0.7l0.2,0.2l-0.7,0.2l0.9,1.3l0.7-0.2l0.2,1.1v-0.2v0.7l1.1,1.1l1.1,1.5h0.4l0.2,1.1l0.2,0.2l0.4,1.1l0.2,0.4l0.9,0.4
							l0.7,0.7l-0.7,0.4l0.9,0.9l0.4-0.2l0.2,0.4l0.4,0.9l-0.4,0.2l1.5,0.9l-0.2,0.2l0.4,1.1l0.4-0.2l-0.2,0.4l0.4,1.1h0.7l0.7,1.1
							l-0.2,0.2l0.2,0.7l0.9,0.4l-0.2,0.7l0.9,0.2v0.4l0.7,0.7l0.4,1.3l0.4,0.7l0.2-0.2l0.4,1.3l0.7,0.2l0.2,0.7l0.7,0.4l-0.2,0.9
							l0.9,0.9l0.7,0.7l0.4,0.2v1.3l0.9,0.4v0.4l0.4-0.2l-0.2,0.9l1.1,0.7v0.2l0.9,0.7l0.2,0.9v-0.2l0.4,1.1l0.7,0.7h-0.7l0.7,1.1
							l0.4-0.2l0.2,0.9l0.9,0.2l0.2,0.4l0.7,1.3l0.2-0.2l0.2,0.4l-0.4,0.7l0.7,0.9h0.4l0.4,0.4v1.1l0.9,0.4l-0.2,0.2l0.4,0.9
							l1.1,0.7h0.2l-0.2,0.9l0.4,0.4h0.4v0.7l0.9,1.1v0.7h0.9l-0.2,0.9l0.4,0.7l0.4-0.4l0.4,1.5h0.7v0.7l0.4,0.9l0.7,1.1h0.4v0.9
							l0.4,0.7h0.2l0.9,0.4v0.4l0.4,0.2l0.2,0.4l0.2,0.4l0.4,0.4v1.1h0.7L853.5,535z M925,543l0.4,0.9l-0.4,0.7l-0.4,0.2l0.7,1.1
							H925l-0.7,1.3l-0.4,0.9l-0.7-0.2l-0.2,0.4l-0.4-0.2l-0.7,0.2h-0.2l-0.2,0.7h-0.9l0.4-0.4l-0.7-1.1l-0.7,0.7l-0.4-1.3l-0.2-0.4
							l-0.7-0.9h0.7l-0.9-0.9h0.7v-0.9l-0.4-0.9l0.4-0.4l-0.4-1.1l0.4-0.4l-0.4,2.2v-0.7l0.2,0.2l0.2-1.3l-0.4-0.7h-0.2v-1.1
							l0.2-0.4l0.4,1.5l-0.2-0.9l-0.2-0.4v-0.9h-0.2v-1.1h-0.4l0.4-0.2l-0.9-1.1v-0.2l-0.7-1.1l-0.2-0.7l0.2,0.2l-0.2-0.2v-1.3
							l-0.9,0.2l0.2-0.9l-0.9-0.4h0.2l-0.4-0.9l-0.4,0.7l-0.4-0.2l-0.9-1.3l-0.2,0.7l-0.2-0.2v-1.1h-0.7l-0.2-0.4l-0.4,0.7l-1.3-0.2
							v-0.7l-0.9,0.7l0.2-0.4h-0.7l-1.5-0.2v0.7l-0.9-0.7v0.7h-0.9l-0.2-0.7l-0.2,0.7l-1.1,0.2l-0.4,0.4l-0.2-0.4l-0.4,1.1h-0.7
							l-0.9,0.9l0.2,0.2l-0.9,0.9h-0.2l-0.4,0.4v0.7h-0.7l-0.2,1.1l-0.2-0.4l0.4,1.1l-0.2,0.4l-0.7,0.7l-0.2-0.2v1.3h0.2l-0.2,1.1
							l-0.4-0.2l0.4,0.9l-1.1,0.4l0.9,0.9l-0.2,0.7l0.2,0.2l-0.2-1.8l-0.7,0.4l0.9,0.4l-0.9,0.7l0.9,0.7l-0.7,0.7l0.4-1.8h0.2
							l-0.2,0.9l-0.7,0.2l0.2,0.4v0.4l-0.2,1.1l0.9,0.9l-0.9,0.7l0.2,0.7l-0.2,0.7v0.4l0.9,0.9l-0.2,0.4l-0.7,0.4l0.9,0.7l-0.7-0.2
							l0.4,0.9l-0.4,0.9h-0.2v1.5l0.9,0.2l-0.9,0.4v1.3h0.2l0.7,1.1l-0.9,0.2l0.2,0.2l0.7,0.4v0.7l-0.7,0.4v1.1h0.4v-2l-0.4,0.2
							l-0.2,0.9l0.2,0.9h-0.2l0.9,1.1v0.7l-0.9,0.7h0.7l-0.4,0.9h-0.2l0.2-1.5l0.7-0.2l-0.9,1.1l0.7,1.3l0.2-0.2l-0.2,1.1l0.4,0.9
							h-0.2v1.1h0.2l0.4,0.9l-0.4,0.4l0.2,0.7l0.9,1.1l-0.2,0.7v0.4l0.9,0.2l-0.2,0.9l0.7-0.4l0.7,1.1h-0.4l0.9,0.4h0.4v0.7l0.4,0.4
							l0.4,0.4v-0.4l0.9,0.4l0.7,0.9v-0.2l0.7,0.2l0.4,0.2l0.2-0.2h0.2l0.4,0.4l0.9-0.4l0.4,0.4l0.7-0.2l1.1,0.7v-0.4h0.7l1.1-0.4
							l0.4-0.7l0.2,0.4l0.9-0.7l-0.2,0.7l0.7-0.7v-0.4l1.3-0.4v0.4l0.2-0.7l0.9-0.4l0.2-0.4l0.4-0.4h0.2l-0.4-0.7l0.9-0.2l0.4-1.3
							v0.2v-0.4l0.2-0.4l0.2-0.7l0.7-1.1h-0.4l0.4-0.9L918,565v-0.7l0.2-0.7l0.4-0.4l-0.4,0.2l0.2-0.9v-0.2l0.4-1.1l-0.4-0.9
							l0.2,2.4l-0.4-1.1V561h0.4l0.2-1.1l-0.2-0.7l-0.2,0.2l-0.2-0.7l0.2-0.4v0.4l0.2-1.1l0.2-0.4l-0.2-0.2l0.4-0.9l-0.4-0.7
							l1.1-0.7v-0.2v-0.2l1.1,0.2l0.2-0.9v0.2l0.7-0.7l0.9,0.4l0.2-0.2l0.2,0.9l0.9-0.7l-0.2,1.3l0.4-0.2l0.9,0.7l-0.4,0.4l0.2,1.1
							l0.4-0.2v0.4l0.2,2l-0.2,0.2l-0.2,0.7l-0.2,0.2l0.7,0.2l-0.2,0.7l0.2,1.1H925l0.4,0.9l-0.7,0.7h0.7l-0.2,0.7l0.2,0.4v0.7
							l-0.2,0.9v2.2l0.2,0.4l-0.2,0.7l-0.4,0.7v0.7l0.7,0.4l-0.2,0.9l0.2-0.2v0.9l-0.4,0.7l-0.2,0.4v1.1h0.2l0.4,0.4v1.1l-0.7,0.2
							v1.5l0.7,1.1l-0.4,0.4l-0.2-0.2l0.4,1.3v0.7l-0.2,0.2h-0.2v2l0.7,0.2l-0.4,0.9l-0.2,0.7v0.7l0.7,0.9l-0.4,0.4v-0.2l0.2,0.9
							v0.7L925,590l0.2,0.7l-0.4-0.4l0.2,0.9l0.2,1.1l-0.2,0.2v0.7h0.4l-0.7,0.4v1.8l0.2,0.9l0.4,0.2l-0.7,0.9l0.2,0.2l0.2,0.9h-0.4
							l0.7,2.4l-0.4,0.4l0.4,0.7v0.2h-0.7v2h0.2l-0.2,0.2v1.1l0.7,0.9l-0.2,0.2l-0.2,0.7l-0.2,0.2v0.4l0.4,0.7v0.2l0.2,1.3l-0.4,0.4
							l0.4,1.1l-0.2,0.4h0.2l-0.2,0.7l-0.4,1.3l0.7,0.2l-0.4,0.9v1.1l0.4,0.2v0.7l-0.7,0.4l0.2,0.2l0.4,0.4l-0.2,0.7l-0.4,1.1
							l0.4,0.4l-0.4,0.2l0.2,0.9v0.2l-0.2,0.4l0.2,0.7l-0.2,1.1l0.7,0.9h-0.2l-0.2,0.4v0.9l0.2,0.4l-0.2,1.1v0.7l0.2,0.2h0.2
							l-0.7,0.9l0.2,1.1h0.2l-0.4,0.7l0.2,0.7l0.2,0.4l-0.2,0.4v0.9h0.4l-0.4,0.9l0.2,0.7l-0.4,0.2l0.4,0.2l-0.4,0.4l-0.2,0.7h-0.2
							l-0.7,0.4l-0.9,0.9h-0.4l-0.7-0.2h-0.2l-0.7,0.4l-0.4-0.4l-0.7-0.4l-0.2,0.2l0.2-0.9l-0.4,0.2l-0.4-0.7l-0.4-0.2v-0.9l0.2-0.2
							l0.2-0.2l-0.2-1.1h-0.4v-1.1l0.7,0.2l-0.2-0.7l-0.4-0.9l0.4-0.2h0.2v-1.5l-0.7-0.7h0.7v4.4l-0.2-1.1h-0.4v-0.7l0.4-0.4h-0.2
							v-1.1h-0.2l0.7-1.3l-0.4,0.2l-0.2-0.7h0.7l-0.2-0.7v-1.3l0.2-0.2l-0.2-0.4l-0.4,4.4v0.4l0.4-0.7v-0.4l-0.2-0.9l0.4-1.1
							l-0.7-0.2l0.2-0.9l0.4-0.7l-0.4-0.2h0.2l-0.4-0.4l0.7-0.7l-0.2-1.1l0.2-0.9l-0.2,0.4l-0.4-1.5l0.7-0.7v-0.9h-0.7v-0.2l0.2-1.5
							l0.2,0.4l-0.7-1.5v-0.2l0.2-0.2l-0.2-1.1l0.2-0.2l-0.9-0.4V614v-1.1l-0.9-0.2l-0.2-0.7l0.2-1.1v0.7l-0.9-1.5l0.4,0.4l-1.1-1.1
							V609h-0.4H914l0.2-0.7l-0.2-0.7l-1.3-0.2l0.2-0.2l-0.7,0.2v-0.2l-0.7-0.4l-0.4-0.4l-0.7,0.2l-0.7,0.2v-0.2l-0.2-0.9l-0.4,0.4
							l-1.1,0.4l-1.1-0.9l-0.2,0.9l-0.7-0.9v0.9l-0.2,0.2h-0.7l-0.7,0.4v-0.4l-1.1,0.7l-0.2-0.7v1.1h-1.1l-0.2,0.4l-0.4-0.4
							l-0.2,0.4l0.2,1.1l-1.1,0.4l0.4,0.2l-0.9,0.7h-0.2v0.9l-0.4-0.4l-0.4,0.4l0.4,0.4l-0.4,1.3l-0.4,0.7l-0.2,0.2l0.4,0.2
							l-0.7,0.4l-0.2,0.2l0.4,1.1l-0.4,0.9l-0.2-0.4l-0.4,1.1l0.7,0.4l-0.2,0.7l-0.7,0.9v-0.2l0.7,1.3l-0.7,0.2v1.5l0.7,0.2l0.2,0.4
							v0.7l-0.9,0.9l0.2,0.2l0.4,0.9l0.2,0.4l-0.9,0.7l0.9,0.4l-0.2,0.2v0.7l0.2,0.9l-0.7-4l0.7,0.2l-0.9,1.5v1.1h0.9l-0.9,0.4v0.7
							l0.2,1.3l0.7,0.4v0.4h-0.2l0.2,0.2v1.1l-0.2,0.4l-0.7-4.4h0.2v1.5l0.7,0.4l-0.2,0.7v0.4l0.2,0.2v1.1h-0.9v0.4l0.2,0.9l0.7,0.2
							l-1.1,1.1l0.4,0.9h-0.9l0.4,0.7l-0.9,0.2l-0.7,0.7l-0.2,0.2h-0.2l-1.3-0.2l-0.4-0.2l-0.2,0.2l-0.2-0.2l-0.7-0.7l0.2-0.2h-0.2
							l-0.9-0.4l0.2-0.9h0.2l-0.4-0.7l-0.7-0.2v-0.9v-0.7l0.2-0.9l-0.2,0.2l0.7-0.7l-0.4-0.2v-1.1l0.4,0.2l-0.4-0.7v-0.9l0.7-0.9
							l-0.7-1.1l-0.2-0.2l0.7-0.9l0.2,0.2l-0.2-1.3v0.2l-0.7-1.3l0.9-0.9l-0.2-0.4l-0.4-0.7v-0.4l-0.2-1.1l0.9-0.7l-0.7-0.7v0.2
							l-0.2-0.9l0.7-0.2l0.2-1.3v-1.8l-0.2,0.2l0.2-1.1h-0.2l-0.7-0.7l0.2-1.1l0.7-0.9h-0.7v-2h0.7l-0.9-1.1l0.9-0.2v-1.8l-0.7-0.2
							v-0.9l-0.2-0.7h0.9l-0.2-0.7l0.2-0.2l-0.7-0.9v-0.4l-0.2-0.9l0.9-0.9l-0.7-1.1l0.7-0.2h-0.7l0.4-1.3l-0.7,0.2l0.9-1.3v-1.1
							l-0.9-0.4l0.7-0.4h0.2l-0.7-1.3l-0.2-0.7v-1.5l0.2-1.1h0.4v-1.1l0.2-0.7h-0.7l-0.2-0.9l0.7-0.4l-0.7-1.1l0.9-0.9l-0.2-1.1
							l-0.7-0.4l0.2-0.4h0.7v-1.1l-0.9-1.1l0.2-0.2l0.4-1.1l-0.4-0.2l0.4-0.7l0.2-0.2v-1.5h-0.7v-1.8h0.4l-0.4-0.9l-0.2-0.2l0.7-0.2
							v-0.7l-0.4-1.1v-0.4l0.4-1.1h0.2l-0.7-0.9v-0.9h-0.2l0.7-1.1l-0.4-0.2l0.4-1.1l-0.4-0.4v-0.7l0.7-0.2l-0.2-0.9l-0.4-0.2v-0.9
							l0.7-0.2l-0.9-0.9l0.9-0.2v-0.9l-0.7,0.2l-0.2-0.4l0.7-0.9v-0.9h-0.4l0.7-0.4v-1.1h-0.9l0.9-1.3l-0.7-0.4h0.4v-1.1l-0.4-0.2
							l0.7-0.9h-0.7l-0.2-1.3l0.9-0.4l-0.9,0.2l0.7-1.1v-0.9l0.2-0.4h-0.2v-1.5l-0.4-0.2l0.4-1.1l-0.4-0.4l-0.2,0.2l0.9-1.3v-0.9
							l-0.9-1.1l0.9-1.3l-0.9-0.9h0.2l0.7-1.1v-0.9l-0.2,0.2l0.2-0.7l-0.2-0.4l0.2-1.3l-0.7-0.9l0.4-0.4l-0.4-0.2v-1.1h0.4l-0.7-0.4
							l0.7-0.4l-0.4-0.7l0.7-1.1l-0.9-0.7l0.9-0.9l-0.2-0.9v-0.4l0.2-0.9l-0.9-0.9v-0.2l0.9-0.9l-0.7-1.1l0.7-0.4v0.2l-0.9-0.7v-0.7
							l0.7-1.1l-0.4,0.2l0.7-0.9l-0.2-1.1l-0.7-0.2v-0.7l0.7-0.4v-2l-0.7-1.1h0.9l-0.2-1.1l-0.7-0.4l0.9-0.4v-0.4h-0.9v-1.8h0.9
							l-0.9-0.4l0.2-1.3l0.7-0.4l-0.7-0.7h-0.2l0.2-1.1v0.2l0.7-0.7l-0.9-1.3l0.2-0.4v-0.7l0.7,0.2v-0.7l-0.9-1.1v-1.1l0.7,0.2
							l0.2-0.9l-0.9-0.4l0.9-0.4l-0.9-0.4v-2.4l0.7,0.2l0.2-0.9l-0.2-1.1l-0.4-0.4h0.4l-0.7-0.7v-0.9h0.9l-0.7-1.1l0.7-0.4l-0.2-0.2
							l-0.4-0.9l0.4-0.7l0.2-0.2l-0.9-1.1l0.9-0.4l-0.7-0.4l0.4-0.7v-0.7l-0.4-0.2l0.7-0.7l-0.7-0.4l0.4-1.1l-0.7-0.7v-1.1l0.2-0.2
							l0.7-0.9h-0.7l-0.2-1.3h0.7l-0.7-0.4v-0.4l0.9-1.1h-0.2l-0.7-1.3h0.9v-0.4l-0.9-0.7l0.7-1.1v0.2l-0.4-1.1v-0.7l0.7,0.2
							l-0.9-1.1l0.9-0.9l-0.9-0.2l0.7-0.9l-0.4,0.2l-0.2-0.7v-0.4l0.2-0.7l0.4-1.1l-0.7-0.7v-0.9l0.9-0.4l-0.2-0.7h0.2v-0.9h0.2
							l0.4-0.2l0.7-0.2l0.7-0.4l0.4-0.2l0.7-0.2l0.9,0.2h-0.2l1.1,0.4l-0.4,0.4l1.1,0.4v-0.2l0.2,0.9l0.2,0.7l-0.2-0.2l0.9,0.7
							l-0.2,0.9v0.9v0.4l0.2,1.1l-0.7,1.1l0.4,0.4v1.3l-0.4,0.9v0.7l-0.2-0.2l0.7,0.7v1.1l0.2,0.2l-0.9,1.1l0.7,0.2l-0.4,0.2
							l0.4,0.9h-0.4l-0.2-4.2l0.4,0.7l-0.2,0.9l0.4,0.4h-0.7l0.7,0.2l0.2,1.1l-0.2,0.9v0.2l-0.4,0.7l0.7-5.3l-0.7,1.1v0.7l-0.2-0.4
							l0.9,0.7v1.5l-0.7,1.1l0.7,0.9v0.2l-0.2,0.7v0.2l0.2,0.9l-0.2,1.3l0.2,0.2l-0.7,0.7l0.4,0.9h0.4l-0.4,0.4l0.2,0.2l-0.2,1.5
							h0.2l0.4,0.4v0.7l-0.2,0.4v0.7l0.2,0.4l0.9,0.2v1.1l0.7,0.9h-0.2v0.9l0.9,0.2l-0.2,0.2l0.9,0.4l-0.2,1.1l1.1,0.2v-0.7l0.2,0.9
							h0.9l-0.2,0.7l0.9,0.4l-0.2,0.2l1.1-0.2l0.4,0.2h0.4l0.4,0.4l0.2-0.4h0.2l0.4,0.4l0.9,0.4l0.4-0.2h0.4l1.1-0.2v0.2l1.1-0.7
							h0.2l0.4-0.2h-0.2h1.1h0.4v-0.9l0.7-0.2V495l0.7-0.4h0.7l0.4-0.4l-0.2-0.7l0.7-0.2v0.2l0.4-1.1v0.4l0.4-0.9l0.7-0.9l-0.7-0.4
							l1.1-0.7l-0.2-0.4l0.4,0.2l0.2-1.1l0.2-0.7v0.4l0.2-1.1l-0.2-0.4v-0.2l-0.2-0.4l0.7-1.1v-0.9l-0.4,0.2l0.7-0.4v-1.5l-0.2-0.2
							l0.2-1.1h-0.2l0.2-0.9l-0.4-0.4v-1.8h-0.2l0.2-1.1h0.4v-0.7l-0.4-0.7l0.2-0.2l-0.4,3.3v-0.7h0.7l-0.2-0.7l-0.4-0.7l0.2-0.9
							h0.2v-0.7l-0.2-0.7l-0.2,0.2l0.2,3.1l-0.2,0.2l0.2-1.3v0.2l0.4-1.3h-0.7l0.7-0.9l-0.4-0.4l0.2-0.9l-0.2-0.2h-0.2l0.7-1.3
							l-0.4-0.4l-0.2-0.7v-1.1h0.7l-0.4-0.4v-1.1l0.4-1.1h0.2v-1.3v-0.2h0.2l0.2-0.2v-1.1h0.9l0.7,0.2l-0.2-0.7l1.1,0.4h0.4l0.2-0.2
							l1.1,0.2l-0.4,0.4l1.1,0.2l0.4,0.9l0.4,1.3l0.2-0.2l-0.4,1.3l-0.2,0.9l0.7,0.9l-0.7,0.4v-0.2l0.7,0.7l-0.4,1.1h-0.2l0.2,0.4
							v1.3l-0.2-0.2v0.7l0.4,0.7v0.9l-0.4,0.2l0.4,0.9v0.7l-0.2,0.2l0.2,0.4l-0.2,0.9l-0.2,0.2l0.7,1.1v0.4h-0.7v1.3h0.7l-0.4,1.1
							l0.2-0.2l-0.4,0.4l0.2,1.3v1.8l0.4,0.2l-0.4,0.9l0.2,0.2l-0.4,1.1v0.2l0.4,0.9l0.2,0.9h-0.7l0.2,1.1h0.4l-0.2,0.4v0.9h-0.4
							l0.7,1.3h-0.2l-0.2,1.1h0.4l-0.4,0.4l-0.2,1.1l0.7,0.2v1.1H925l-0.2,0.4l0.4,0.9l-0.4,0.7l0.7,0.4l-0.2,0.2v0.9l-0.2,1.1v0.9
							h0.2l-0.2,1.1l0.2,0.4v0.7l0.2,0.4l-0.7,0.7l0.2,1.1l0.2,0.9l0.2,0.4l-0.7,0.9l0.4,0.9l-0.2,0.2h0.4l-0.7,0.4l0.7,1.1
							l-0.2,0.4l0.2,0.7l-0.2,0.9l0.2-0.2l-0.2,1.1v0.9l-0.4-0.4v1.1h0.4l-0.4,0.9l0.7,0.7v0.4l-0.2,1.1h0.2v0.7l-0.7,0.2v0.9
							l0.4,0.2v0.4l-0.4,0.9l0.4,0.9h-0.4v0.9l0.4,1.1h0.2l-0.7,0.4l0.2,0.7l0.2,0.2l-0.2,0.4v1.1l-0.2,0.7l0.7,0.7l-0.7,0.4v0.4
							h0.7l-0.7,1.5l0.7,0.2l-0.4,0.4v0.9l-0.2,1.1l0.4,0.2l-0.4,0.7v0.9h0.2l0.4,0.7l-0.2,0.4l0.2,0.4v0.2l-0.2,0.7l0.2,0.4
							l-0.7,0.9l0.4,0.2L925,543z"/>
					</g>
				</g>
			</g>
			<g>
				<g>
					<g class="st0">
						<path class="st1" d="M969.2,473c0,0,0,0-0.2,0c-1.1-0.2-2,0-2.9,0s-1.3,0-2.4,0c-0.7,0-1.5-0.2-2.6-0.2c-1.1,0-2-0.7-2.9-0.9
							c-0.2,0-0.2-0.2-0.4-0.2c-0.9,0-1.3-0.2-1.5-1.1c0,0,0,0,0-0.2c-0.2,0.4-0.7,0.7-1.1,0.4c0,0-0.2,0.2-0.4,0.7
							c0-0.9,0-1.3,0.4-1.5c0.9-0.4,0.9-1.1,0.9-2c0-1.3,0-1.8-0.7-3.1c0-0.2,0-0.2-0.2-0.4c-0.2-0.9-0.2-0.9-1.3-1.1
							c-2.2,0-4.6-0.2-7-0.4c-0.4,0-1.3,0-2,0c-1.3,0-2.4-0.7-3.5-1.1c-0.9-0.2-1.5-0.9-2.2-1.3c-1.1-0.2-1.5-0.2-2.6-0.7
							c-1.5-0.2-15.6-2.4-16.5-2.4c0.4-0.2-3.1-0.9-4.6-1.1c0.2-0.2,0.4-0.2,1.1-0.4c-1.1,0-1.8-0.4-2.6-0.4
							c0.4-0.4,0.9-0.4,1.3-0.7c0,0-1.5-0.2-2.6-0.2c0.2-0.7,0.9-1.1,1.3-1.1h-1.1l-0.2-0.2c0.4-0.2,14.7-8.1,15.6-8.6
							c1.3-1.1,3.1-1.8,4.8-2.6c1.8-0.4,3.5-1.1,5.1-1.8c0.2,0,0.9-0.2,1.3-0.2c1.1-0.4,2-1.1,2.9-2c4.4-2,8.6-3.3,13-4
							c2.4-0.2,4.4-0.4,6.8-0.2c0.2-0.7,0.2-1.3,0-2c-1.1-2.4-0.9-4.6,0.4-6.8c0.9-1.8,2.4-3.5,4.4-4.4c1.5-1.1,3.5-1.1,5.5-0.9
							c2.9,0.9,4.6,2.4,5.7,5.1c0.4,1.3,1.3,2,2.6,3.1c1.3,1.1,2.9,2,4.8,2.6c0.7,0.2,1.1,0.4,2,1.1c0.4,0.4,0.7,0.9,0.2,1.3
							c0,0-0.2,0.2-0.7,0.2c-1.1-0.2-2.6-0.4-4-0.7c-1.8-0.2-3.5-0.9-5.1-1.8c-0.4-0.2-1.1-0.2-1.5-0.2c-0.9,0.2-1.5,0.2-2.4,0.2
							c-0.7,0-1.3,0.4-1.5,1.1l0.2,0.4c0.4,0.2,0.9,0.7,1.3,0.7c1.1,0.7,2.4,1.5,3.5,2c2.6,1.3,4.2,3.1,5.5,5.5c0.7,2,1.3,4,1.3,6.2
							c0,1.8-0.7,3.5-1.3,5.1c-1.1,1.5-2.2,3.1-4,4.2c-1.1,0.4-2.4,0.9-3.5,1.5c-2.2,1.1-4.6,2-7.3,3.1c-2.9,1.3-5.7,2-9,2.4
							c-0.4,0.2-1.1,0-1.1,0.2c-0.2,0.2-0.2,0.7-0.2,1.3c0,1.5,0.2,2.2,0.9,3.7c0,0.7,0.2,1.1,0.2,1.3c1.3-0.2,2.2-0.7,3.5-0.9
							c0.4,0,0.7-0.4,1.1-0.4c0.2,0,0.4,0,0.4,0.7c0,0.2,0.7,0.4,0.9,0.7c0.9,0,1.5,0,2.4,0.4c0.7,0.2,1.3,0.2,2,0.2
							c0.2,0,0.9,0.2,0.9,0.4c0.2,0.2,0,0.4-0.2,0.4c-0.4,0-0.4-0.2-0.7-0.2c-0.4,0-1.1,0.2-1.3,0.9
							C969,471.9,969.5,472.1,969.2,473z M943.9,471h35.2l73.7,125.6c-0.2-6.6-0.4-13.9-0.4-20.9V471h23.5v154h-31.7L967,493.7
							c0.2,7.3,0.2,13.4,0.2,19.8V625h-23.3V471z"/>
					</g>
				</g>
			</g>
			<g>
				<g>
					<g class="st0">
						<path class="st1" d="M1146.8,490.6h-52.6V471h128.3v19.6h-52.4V625h-23.3V490.6z"/>
					</g>
				</g>
			</g>
			<g>
				<g>
					<g>
						<g>
							<g class="st0">
								<path class="st1" d="M1226.9,471h60.7v11.9h-60.7V471z M1226.9,494.8h60.7v11.9h-60.7V494.8z M1226.9,518.3h60.7v11.9h-60.7
									V518.3z M1226.9,542.1h60.7V554h-60.7V542.1z M1226.9,565.8h60.7v11.9h-60.7V565.8z M1226.9,589.4h60.7v11.9h-60.7V589.4z
									 M1226.9,613.1h60.7V625h-60.7V613.1z M1268.9,471h-23.3v154h23.3V471z"/>
							</g>
						</g>
					</g>
				</g>
			</g>
			<g>
				<g>
					<g class="st0">
						<path class="st1" d="M1313.3,504.7c32.1-39.8,77-42.5,110-15.8c27.7,22.4,34.5,54.3,18.9,79l-18.9-15.4
							c8.6-15.4,4.2-34.8-12.1-48c-23.5-18.7-54.1-15.6-78.8,15.2c-22.7,28.2-22,60.1,1.5,79c20.2,16.5,44,15.8,61.4-5.7l1.3-1.8
							l-35.6-28.8l12.3-15.4l52.6,42.2l-51,63.4l-15.6-12.8l3.7-4.8c2.9-3.5,6.2-7.3,9.7-11.2c-15.2,5.7-35.2,3.1-52.8-11
							C1285.2,584.8,1284.3,541,1313.3,504.7z"/>
					</g>
				</g>
			</g>
		</g>
	</g>
</g>
</svg>
