<?xml version="1.0" encoding="utf-8"?>
<!-- Generator: Adobe Illustrator 26.4.1, SVG Export Plug-In . SVG Version: 6.00 Build 0)  -->
<svg version="1.1" id="Ebene_1" xmlns="http://www.w3.org/2000/svg" xmlns:xlink="http://www.w3.org/1999/xlink" x="0px" y="0px"
	 viewBox="0 0 1920 1080" style="enable-background:new 0 0 1920 1080;" xml:space="preserve">
<style type="text/css">
	.st0{fill:#0000FF;}
</style>
<g>
	<path class="st0" d="M634.95,435.39c0.88-0.22,1.32-0.44,1.76-0.66c0.88-0.44,1.76-0.66,2.42-1.32c0.22-0.66,0.66-0.88,1.32-0.66
		c0.66,0.22,1.76,0.22,2.64,0.66h0.44c0.22,0.22,0.66,0.66,0.44,0.88c-0.22,0.22-0.22,0-0.44,0c-0.22,0-0.44-0.22-0.88,0
		c-1.76,0.22-2.86,1.1-3.96,2.64c-0.44,0.88-0.22,1.98-0.22,3.08v0.22c0.22,0.22,0.66,0.66,0.88,0.88c0,0.22,0.22,0.22,0.22,0.22
		c0.66,0,1.54,0.22,2.42,0c0.44-0.22,1.1-0.44,1.54-0.88s1.1-0.66,1.1-1.54c0-0.22,0.22-0.44,0.22-0.66
		c0.44-0.22,0.44-0.44,0.44-0.88c0.22-0.66,0.22-1.32,0.22-1.76c0,0,0.22-0.22,0.44-0.22c-0.22,0.22,0.44,0.44,0,0.66
		c-0.22,0.88-0.22,1.32-0.22,2.2c0,1.54-0.22,2.64-1.1,3.3c-1.32,2.42-1.32,2.42-1.98,5.06c0,0.66-0.22,1.32-0.44,1.98
		c-0.22,0.44-0.88,1.1,0,1.32c0.22,0-0.22,0.66,0.22,0.44c0.22,0,0.22-0.22,0.22-0.44v-0.22c0-1.1,0.44-1.76,0.88-2.42v-0.66
		c0.22-1.32,0.44-2.2,0.88-3.08c0.22-0.44,0.44-0.66,0.44-1.32c0.44-0.22,0.66-0.44,0.66-0.88c0-0.22,0.44-0.44,0.66-0.66
		c0,0,0-0.22,0.22-0.44c0-1.32,0.22-2.42,0.44-3.74v-1.54c0.44,0.22,0.88,0.44,1.1,0.66c0.66,0.22,1.1,0.44,1.32,0.88
		c0.44,0,0.44,0.22,0.44,0.66c0,0.88-0.22,1.32-0.22,1.98c0,1.1,0.44,1.76,0.44,2.64c0.22,0.44,0.44,1.1,0.44,1.32
		c0.22,0.88,0.88,0.88,0.66,1.54c0,0.22,0.22,0,0.66,0c0.22,0,0.44-0.44,0.22-0.66c-0.22-0.22-0.88-0.22-0.88-0.44
		c-0.22-1.1-0.66-1.76-0.66-2.42c0-1.32-0.22-3.08,0-4.62c0-0.44,0-0.88-0.44-0.88l-0.66-0.44c-0.22-0.22-0.88-0.44-1.32-0.66
		c-0.22,0-0.22,0-0.44-0.22c-0.22-0.22,0-0.44,0.22-0.66c0.22-0.22,0.66,0,0.88,0c1.1,0,2.2,0,3.3-0.66
		c0.44-0.44,0.88-0.66,1.54-0.44c0.66,0.22,1.76,0,2.2,0.22c0.44,0,0.44-0.22,0.44-0.44c0.22-0.22,0-0.22-0.22-0.22h-0.44
		c-0.44,0-1.32,0-1.54,0c-1.32-0.66-2.2,0-3.52,0.22c0,0.22-0.22,0.22-0.22,0.22v-0.22c0.22-0.44,0.44-0.88,0.66-1.32
		c0.22-0.22,0.22-0.22,0.44-0.22c0.88,0.22,1.32-0.44,1.76-0.88c0.44,0,0.22-0.22,0.22-0.44c0.22-0.44,0.44-0.44,0.88-0.22
		c0.66,0,1.32,0,1.54,0.22c0.44,0.22,1.1,0.22,1.54,0.44c0,0.44,0.66,0.44,0.88,0c0.66-0.22,1.32-0.66,2.2-0.88
		c1.1-0.44,1.98-0.66,2.86-0.66c0.22,0,0.22,0,0-0.22v-0.22c-0.44,0-1.1-0.22-1.54,0c-0.88,0.22-1.98,0.66-2.86,1.1
		c-0.44,0.22-0.88,0.44-1.54,0.22c-1.1-0.22-1.98-0.66-3.52-0.66l-0.22-0.22c0-0.22,0-0.44,0-0.66c0-0.22,0-0.44-0.44-0.44
		c-0.66,0-0.66-0.44-0.66-1.1c0-0.44,0-0.66-0.22-0.88c0-0.66-0.22-1.1-0.44-1.98v-0.88c0.44-0.44,0.44-1.1,0.66-1.54
		c0.44-1.1,0.44-1.76,0.88-2.42c0.22-0.22,0.22-0.66,0.22-1.1c0-0.22,0-0.22-0.22-0.22c-0.22,0.66-0.66,1.1-0.66,1.54l-0.66,1.1
		c0,1.1-0.22,1.54-0.66,1.98c-0.22,0.22-0.44,1.32-0.44,1.54c0.44,0.88,0.88,1.76,0.88,2.42c0,0.44,0.22,0.66,0.22,0.88v0.22h-0.22
		c-0.66-0.22-1.1,0-1.32,0.44c-0.22,0.22-0.66,0.66-0.44,1.32c0,0.44-0.22,0.22-0.44,0.22c-0.22,0.22-0.88-0.22-0.88,0.22
		c-0.88,0-1.32,0.44-1.76,1.32c0,0-0.22,0,0-0.44c0.22-0.44,0.22-1.32,0.44-1.98c0-0.66,0-1.54,0.44-2.42
		c0.66-0.44,0.88-0.88,1.32-1.32c0.22-0.66,0.22-0.88,0.22-1.1v-0.22c-0.22,0-0.22,0-0.22,0c-0.44,0-0.44,0.22-0.44,0.22
		c0,1.1-0.66,1.76-1.32,2.2c-0.22,0-0.22,0.22-0.22,0.44c-0.22,0.88-0.22,1.76-0.66,2.2c-0.22,0.22-0.22,0.66-0.22,0.88
		c0,0.66-0.22,1.54,0.22,2.2v0.22c-0.44,0-0.22,0.66-0.66,0.66c-0.44-0.44-1.32,0.22-1.54-0.88c-0.22-0.22-0.66-0.44-1.1-1.1
		l-1.76-0.66c-0.22-0.22-0.66-0.22-0.88,0c-0.88,0.22-1.76,0.66-2.2,1.32c-0.44,0.66-1.32,0.66-1.98,0.44
		c-0.44,0-1.1-0.22-1.54-0.44h-0.22c0,0.44,0,0.66,0.22,0.66c0.44,0,1.1,0.22,1.54,0.66c1.54,0.22,2.42-0.44,3.52-1.32
		c0.22-0.66,0.66-0.88,1.1-0.22c1.1,0.44,2.42,0.88,3.08,1.98c0.22,0,0.22,0,0.22,0.22h-0.22c-0.66,0-1.54-0.22-2.42-0.44
		c-0.44-0.22-0.66-0.66-0.88-0.22h-0.44c-0.22-0.44-0.22-0.44-0.44,0c0,0.22-0.22,0.22-0.22,0.22c-0.44,0.22-1.1,0.44-1.32,0.88
		c-0.44,0.66-0.66,1.1-1.54,1.32c-0.66,0.22-1.54,0.44-2.2,0.44c-0.22,0-0.44,0-0.44,0.22s0.22,0.22,0.22,0.44
		C634.51,435.61,634.73,435.39,634.95,435.39z"/>
	<path class="st0" d="M621.31,537.25c-0.22,0-0.44,0-0.66-0.22c-0.66-0.44-1.76-0.88-2.2-1.98c0-0.44-0.44-0.88-0.66-1.54
		c-0.22-0.22-0.88-0.44-0.44-0.88c-0.22-0.66-0.66-0.22-1.1-0.44c0,0-0.22,0-0.44-0.22c-0.88-0.44-1.54-0.44-2.42-0.44
		c-0.66-0.22-1.1-0.66-1.54-0.88c-0.22,0-0.22-0.22-0.22-0.22c0.44-0.22,0.22-0.88,0.66-1.32c0.66-0.88,1.1-1.76,1.76-2.42
		c0.44-0.44,0.66-1.1,1.1-1.32c0.66-0.22,0.88-0.88,1.1-1.32c0-0.22-0.22-0.44-0.44-0.66c0,0.22-0.22,0.22-0.22,0.44
		c0,0.66-0.44,1.1-1.1,1.32c-0.22,0-0.44,0.22-0.66,0.44c-0.44,0.88-1.54,1.32-1.54,2.64c-0.22,0-0.22,0-0.22,0.22
		c0-0.22-0.22-0.22-0.22-0.44c0.22-0.88,0-1.54-0.66-2.2c-0.44-0.44-0.22-0.44,0.22-0.44c0.44-0.22,0.66-0.66,0.88-1.1
		c0-0.88-0.22-1.32-0.88-1.76c0,0,0-0.22-0.22-0.44c0.22,0,0.44,0.22,0.66,0.22c0.22,0.22,0.44,0.44,0.88,0.66
		c0.44,0,1.1,0.22,1.76,0.22c0.44,0,0.44-0.22,0.44-0.22c0.22-0.22,0.22-0.44,0.22-0.66c0.44-1.54,0.88-2.86,1.32-3.96
		c0-0.44,0.22-0.66,0.44-0.88c0.22-0.66,0.44-1.32,1.1-1.76v-0.22c0-0.22,0-0.22,0-0.44c-0.22,0.22-0.44,0.22-0.66,0.22
		c-0.22,0.44-0.66,0.88-0.88,1.54c-0.22,0.88-0.66,1.76-0.88,2.42c-0.44,0.44-0.66,1.1-0.66,1.76c0,0.44-0.22,0.88-0.22,1.32
		c0,0.22-0.22,0.22-0.44,0.22c-0.44,0-1.32-0.22-1.98-0.44c-0.22-0.22-0.66-0.44-1.1-0.44c-0.44,0.44-0.66,0-0.88-0.22
		c-0.44-0.22-0.88-0.44-1.1,0c-0.44,0.44-0.66,0.66-1.32,0.66c-0.22,0-0.66,0.22-1.1,0.22c-0.44,0.22-0.88,0.66-1.1,0.44
		c-0.22,0-0.66-0.44-0.66-0.88c0-0.22-0.44-0.44-0.66-0.88c-0.22-0.22-0.44-0.44-0.66-0.88c-0.66-0.88-1.54-1.76-2.42-2.64h-0.44
		h-0.22v0.44c0.22,0,0.22,0.22,0.22,0.22c0.44,0.44,0.88,0.66,1.1,0.88c0.66,0.88,1.32,1.76,1.98,2.42c0.66,0.66,1.1,1.32,1.32,1.76
		c0.22,0.44,0.44,0.22,0.66,0.22c0.44-0.44,1.1-0.44,1.76-0.66c0-0.22,0.22-0.22,0.44-0.22v0.44c-0.22,0.22-0.22,0.44-0.22,0.44
		c-0.22,1.1,0.22,1.98,0.88,2.2l0.44,0.22c-0.66,0.66-0.88,1.32-0.88,2.42l-0.22,0.22c0-0.22,0-0.22,0-0.22
		c0-0.66-0.22-1.1-0.88-1.32c-0.44-0.22-0.66-0.66-1.1-1.1c-0.66-0.44-1.54-0.66-1.76-1.1c-0.88-0.66-1.54-0.66-2.42-1.1
		c-0.88-0.44-1.54-0.66-2.42-0.66c-0.22-0.22-0.44-0.22-0.66,0c0,0.22,0,0.44,0.44,0.44c1.32,0.22,2.2,0.88,3.3,1.1
		c0.88,0.88,1.76,1.1,2.42,1.54c0.88,0.44,1.32,0.88,1.54,1.54c0.22,0.66,0.88,1.1,1.1,1.76c0,0.22,0.44,0.44,0.66,0.44
		c0.44,0.22,0.66,0.22,0.66,0.88c0,0.22-0.44,0.44-0.88,0.44h-1.32c-0.66,0.22-1.32,0.22-1.98,0.44c-0.22,0-0.22,0.66-0.22,0.88
		c-0.88,1.1-1.32,2.42-2.2,3.3c-0.88,0.88-1.54,1.76-2.64,1.98l-0.22,0.22c-0.22,0.22-0.22,0.44-0.22,0.44h0.44h0.22
		c0.88-0.22,1.54-0.88,2.2-1.54c0.44-0.22,0.88-0.44,0.88-0.88c0.22-0.44,0.88-0.44,0.88-0.88c0-0.22,0.44-0.44,0.44-0.66
		c0.22-0.88,0.66-1.32,1.1-1.98c0.22,0,0.44-0.22,0.66,0c0.66,0.22,1.1,0.22,1.76,0c0.22-0.22,0.66-0.22,0.66,0
		c0.22,0.22,0,0.44-0.22,0.66c-0.22,0.44-0.44,0.66-0.66,0.88c-1.1,0.88-1.76,1.98-2.2,3.3c-0.22,0.44-0.22,0.66,0,1.1
		c0.66,1.32,1.1,2.64,1.54,3.96c0.22,0.22,0.44,0.88,0.22,1.1c-0.22,0.44-0.22,0.66-0.22,1.1c-0.22,0.44-0.22,0.88-0.22,1.32
		c0,0.44-0.22,0.88-0.66,1.32c-0.22,0-0.22,0.22-0.22,0.44s0,0.44,0.22,0.44c0.22,0,0.44,0,0.66-0.22v-0.66
		c0.66-1.1,1.1-2.42,1.1-3.74c-0.22-0.22-0.22-0.66,0-0.88c0.44-0.22-0.22-0.66,0-1.1c-0.66-0.22-0.66-0.88-0.88-1.32
		c-0.22-0.44-0.22-0.88-0.44-1.32l-0.44-0.44c0.44-0.22,0.22-0.88,0.22-1.32l0.66-0.66c0.22-0.44,0.44-0.66,0.88-0.88v-0.22
		c0,0.22,0.22,0.44,0.22,0.44c-0.66,0.66-0.66,1.32-0.66,2.2c0,0.66,0.22,1.76,0.88,2.42c0,0.22,0,0.44,0.22,0.44
		c0.22,0.44,0.66,0.66,1.1,0.88c0.44,0.44,0.88,0.44,1.32,0c0.44-0.44,1.1-0.88,1.32-1.32c0.88-0.88,1.1-1.98,0.88-2.64
		c0-1.1,0-2.2-0.88-2.86c0-0.22-0.22-0.44-0.66-0.44s-0.22-0.22,0-0.22c0-0.22,0.22-0.22,0.22-0.44c0,0,0-0.22-0.22-0.22h0.66
		c0,0,0,0.22,0.22,0.22c0.88,0.88,1.98,1.54,2.86,2.42c0.88,0.66,0.66,1.98,0.88,2.64c0,0.22,0,0.44-0.22,0.66
		c-0.44,0.22-0.66,0.66-0.88,1.1c-0.22,0.88,0,1.76,0.66,2.42c0.22,0.22,0.44,0,0.44-0.22c0.22-0.22,0-0.22,0-0.44
		c-0.66-0.66-0.66-1.54,0-2.2s0.88-1.32,0.66-1.98c-0.44-1.1-0.44-2.2-1.32-3.08c0-0.22-0.22-0.44-0.44-0.44
		c-0.22-0.22-0.44-0.66-0.88-0.88c-0.88-0.44-1.54-1.1-2.2-1.54h-0.22c0.22,0,0.22-0.22,0.22-0.22c0.22,0,0.44,0.22,0.66,0.22
		c1.32,0.22,2.2,1.1,3.52,0.88c0.22,0,0.66,0.22,0.66,0.44c0,1.1,0.88,1.32,1.1,2.2c0.22,0.22,0.44,0.66,0.88,0.88
		c0.88,0.66,1.76,0.88,2.64,1.76h0.22c0-0.22,0.22-0.22,0.22-0.44C621.97,537.69,621.75,537.25,621.31,537.25z"/>
	<path class="st0" d="M763.87,432.97h0.22h0.22h2.64c0.22-0.22,0.44-0.22,0.66-0.22l0.66-0.44c1.1-0.44,1.98-1.1,3.08-1.32
		l2.64-1.32c0.22-0.22,0.66-0.22,0.88-0.44h0.44c0.44,0.22,0.88,0.66,1.1,1.32l0.44,0.66c-1.32,0.22-2.42,0.88-3.3,1.54
		c-0.66,0.22-0.88,0.66-1.1,1.32c-0.44,0.66-0.44,1.54-0.66,2.42c0,0.44,0,0.66,0.44,0.88c0.22,0,0.44,0,0.44,0.22
		c0.22,0,0.44,0,0.66,0.22c0.88,0,1.54,0.22,2.42,0.22h0.44v0.22c-0.44,0.66-1.1,1.32-1.54,1.98l-0.22,0.22
		c-0.22,0.22-0.22,0.44-0.44,0.66l-1.98,1.54c-0.22,0.22-0.44,0.44-0.66,0.66l-0.22,0.22c-0.22,0-0.22,0.22-0.22,0.22h0.22v0.22
		h0.22c0.22-0.22,0.22-0.22,0.44-0.22l0.66-0.66c0.44-0.44,1.1-0.88,1.54-1.54c1.1-0.88,1.98-1.98,3.08-3.08
		c0.22-0.22,0.44-0.66,0.88-0.88l0.44-0.66c0.22-0.88,0.88-1.54,1.32-2.2c0.22,0,0.44-0.22,0.44-0.22v0.22
		c-0.22,0.22-0.22,0.22-0.22,0.44c0,0.22,0,0.44,0.22,0.44c0,0.22,0.22,0.22,0.44,0.22c0.22-0.22,0.22-0.22,0.44-0.44l0.66-0.66
		c0,0,0-0.22,0.22-0.22c0-0.22,0-0.22,0-0.22c0,0.22,0.22,0.44,0.22,0.44c0.22,0.22,0.22,0.44,0.22,0.66c0,0.22,0.22,0.22,0.44,0.44
		c0.22,0,0.44,0.22,0.44,0.22h0.22c0,0,0.22,0.22,0,0.22c-0.22,1.54-0.44,3.08-0.44,4.84v0.22v0.22c-0.22,1.1-0.22,1.98,0,3.3v0.22
		l0.44-0.22c0,0,0,0,0-0.44c-0.22-1.1,0-2.2,0.22-3.3c0-0.22,0-0.44,0-0.66v-0.66c0.22-0.22,0.22-0.44,0.22-0.66
		c0.22-0.88,0.22-1.76,0.22-2.64c0-0.22,0.22-0.66,0.22-1.1s-0.22-0.66-0.66-0.88c0,0-0.22,0-0.44,0v-0.22c0,0,0,0,0-0.44
		s0.22-0.66,0.44-1.1h0.22v0.22c0.22,0,0.22,0.22,0.22,0.22c0.66,0.66,1.32,0.66,1.98,0.44c0.66-0.22,1.1-0.44,1.54-0.88
		c0.22-0.22,0.22-0.22,0.44,0c0.22,0.22,0.66,0.22,1.1,0c0.22,0,0.22-0.22,0.22-0.22l0.22-0.22h-0.22c0,0,0,0-0.22,0
		c-0.22,0-0.22,0-0.22,0h-0.44c-0.22,0-0.22-0.22-0.22-0.22v-0.22c0.66-0.44,0.66-0.44,1.1-0.22c0,0.22,0.22,0.22,0.22,0.22
		c0.22,0.22,0.66,0.44,1.1,0.22h0.22h0.22l1.54-0.22l-0.88-0.22c0,0,0,0-0.22,0h-0.44c-0.44,0-0.44,0-0.66-0.22l-0.88-0.66
		c0,0-0.22,0-0.22-0.22c-0.44-0.22-0.88-0.22-1.32,0.22l-0.66,0.66c-0.22,0-0.22,0-0.44,0.22h-0.22c-0.22-0.22-0.22-0.44,0-0.66
		c0.44-0.44,0.66-0.88,0.66-1.32v-0.22h0.22c0.44,0.44,0.88,0.66,1.54,0.22c0.66-0.22,1.1-0.66,1.54-1.32c0-0.44,0.22-1.1-0.22-1.76
		l0.22-0.22c0.44-0.22,0.88-0.44,1.54-0.44h0.88c0.88,0,1.76,0,2.42-0.44c0.22,0,0.44,0,0.66-0.22c0.44-0.22,0.88-0.22,1.32-0.66
		c0.44-0.22,0.66-0.44,1.1-0.44c0.44,0,0.66,0,1.1-0.22c0.44,0,0.88,0,1.32-0.22c0.44,0,0.66,0,1.1-0.22c0,0,0.22-0.22,0.22-0.44
		c0,0-0.22-0.22-0.44-0.22h-0.22c-0.44,0-0.66,0-0.88,0.22c-0.44,0-0.66,0-0.88,0l-2.2,0.66c-0.22,0.22-0.44,0.22-0.44,0.22
		c-0.22,0-0.44,0.22-0.66,0.44c-0.22,0-0.44,0.22-0.66,0.22c-0.22,0-0.22,0.22-0.44,0.22c-0.44,0.22-0.88,0.44-1.32,0.44
		c-1.1,0-2.2,0-3.52,0.44c-0.44,0.22-0.66,0.44-0.88,0c0-0.22-0.22-0.22-0.22-0.22c-0.22,0-0.22-0.22-0.22-0.44v-0.22
		c0,0,0-0.22,0.22-0.44c0-0.66,0.22-1.32,0-1.98c0-0.44,0-0.88,0.22-1.32c0.22-0.22,0.44-0.66,0-0.88h0.22
		c0.44-1.1,0.88-1.98,1.1-3.08c0.22,0,0.22-0.22,0.22-0.44c0.44-0.88,0.66-1.98,0.66-3.3c0-0.22,0-0.22-0.22-0.44h-0.22
		c-0.22,0-0.44,0.22-0.44,0.44c0,0.22,0,0.44,0,0.66v0.44c-0.22,1.76-0.88,3.3-1.76,5.06c-0.22,0.44-0.22,0.88-0.44,1.32
		c0,0.66,0,1.1,0,1.76v2.2v0.22c-0.22,0.22-0.22,0.22-0.44,0.22c-0.66,0-1.32,0.22-1.76,0.22s-0.66,0.22-0.88,0.66
		c-0.22,0.66-0.44,1.1-0.22,1.76v0.22h-0.22l-0.22-0.22c-0.22-0.22-0.44-0.44-0.44-0.66h-0.22c-0.22-0.44-0.44-0.66-0.66-0.66
		c-0.22,0.22-0.44,0.44-0.66,0.88l-0.66,2.2l-0.22,0.66v0.22c0.22,0.22,0,0.44-0.22,0.44c-0.22,0-0.44,0.22-0.44,0.22
		c-0.22,0-0.22,0.22-0.22,0.22h-0.22c0-0.44,0-0.88-0.22-1.32c0-0.66-0.22-1.54-0.22-2.42c0-0.22-0.44-0.66-0.66-0.88
		c-0.44,0-0.88,0-1.1,0.22c-0.22,0-0.22,0-0.44,0.22c0,0.22-0.22,0.22-0.22,0.22c-0.22,0.22-0.44,0-0.44,0h-0.66
		c-0.22,0-0.22,0-0.44-0.22c-0.44-0.44-0.66-1.1-0.88-1.98c0,0,0,0,0-0.22l-0.22-0.22l-0.22,0.44v0.22
		c0.22,0.88,0.44,1.54,0.88,1.98c0.44,0.44,0.88,0.66,1.32,0.66c0,0.22,0.22,0.22,0.22,0.22c0.44,0,0.88-0.22,1.1-0.44
		c0.44-0.22,0.66-0.22,0.88-0.22l0.22,0.88c0,0,0,0.22,0,0.44v1.54c0.22,0.22,0.22,0.66,0.22,1.1v0.22c0,0,0,0-0.22,0.22v-0.22
		c-0.44-0.22-0.88-0.44-1.32-0.44c-0.22,0-0.44-0.22-0.44-0.44l-1.98-2.2c-0.22-0.22-0.44-0.44-0.66-0.44
		c-0.22,0-0.44,0.22-0.44,0.22h-0.22c-0.66,0-1.1,0.22-1.54,0.44c0,0,0,0.22-0.22,0.22l-1.1,0.44c-1.54,1.1-3.3,1.98-5.06,2.86
		h-0.22c-0.66,0-1.1,0-1.76,0h-0.88c-0.22,0-0.22,0-0.44,0l-0.22,0.22C763.65,432.97,763.87,432.97,763.87,432.97z M786.31,431.87
		c0,0,0,0.22,0.22,0.22c-0.44,0.22-0.66,0.44-0.88,0.44L786.31,431.87z"/>
	<path class="st0" d="M705.57,369.61c0.66,0,1.1-0.22,1.32-0.22c1.1,0,2.2,0.22,3.3,0.22c0.88,0,1.54,0,2.2,0.22
		c0.44,0,0.44-0.22,0.44-0.44c0-0.66,0.44-1.1,0.88-1.76c-0.22,0-0.22-0.22,0-0.44c0.22,0.22,0.44,0.22,0.44,0.22v0.44
		c0.66,1.1,1.76,1.32,2.42,0.88l0.44-0.22c0,1.1,0.22,1.54,1.1,2.42v0.22c-0.22,0-0.22,0-0.22,0c-0.44-0.44-0.88-0.66-1.54-0.22
		h-1.54c-0.66,0.22-1.54,0.66-1.98,0.44c-1.1,0.22-1.54,0.66-2.42,1.1s-1.54,0.66-2.2,1.32c-0.22,0-0.44,0.22-0.44,0.44
		c0.22,0.22,0.44,0.44,0.66,0c1.1-0.66,2.2-0.88,3.08-1.54c1.32-0.22,1.98-0.66,2.86-0.88c0.88-0.22,1.54-0.44,1.98,0
		c0.66,0.22,1.54,0,2.2,0.22c0,0.22,0.66,0,0.66,0c0.44-0.22,0.66-0.44,1.1,0c0.22,0.22,0,0.66-0.22,0.88
		c-0.22,0.44-0.66,0.66-0.88,1.1c-0.22,0.66-0.66,1.1-1.1,1.76c0,0.22,0.44,0.66,0.66,0.66c0.22,1.54,0.88,2.64,0.88,3.96
		c0,1.1,0.22,2.2-0.44,3.3v0.22c0.22,0.22,0.22,0.44,0.22,0.44s0.22-0.22,0.44-0.22v-0.22c0.44-0.88,0.44-1.76,0.44-2.64
		c0.22-0.44,0.22-0.88,0-1.32c-0.22-0.44,0.22-0.88-0.22-1.1v-0.88c-0.66-0.66-0.66-1.32-0.88-2.2c0.22,0,0.22-0.44,0.44-0.44
		c0.66-0.22,0.88-0.66,1.32-1.32c0-0.22,0.22-0.66,0.44-0.44c0.22,0,0.22,0.22,0.22,0.66c0.22,0.44,0.22,0.66,0.22,1.1
		c0,1.32,0.22,2.64,0.88,3.74c0.22,0.44,0.44,0.66,0.88,0.88c1.54,0.22,2.64,0.88,3.96,1.54c0.44-0.22,0.88,0.22,1.1,0.44
		c0,0.44,0.22,0.66,0.66,0.88c0,0.44,0.44,0.88,0.66,1.1c0.44,0.22,0.66,0.66,0.66,1.32c-0.22,0.22,0,0.44,0.22,0.44
		c0,0.22,0.22,0.44,0.44,0.22c0-0.22,0.22-0.22,0.22-0.66c-0.22-0.22-0.44-0.22-0.44-0.44c-0.44-1.1-1.1-2.42-1.98-3.3
		c-0.44,0-0.66-0.22-0.66-0.66c0-0.44-0.66-0.22-0.88-0.66c-0.66,0.22-1.1-0.22-1.54-0.22l-1.32-0.66c-0.22,0-0.66,0-0.66,0
		c0.22-0.44-0.44-0.66-0.88-0.88v-1.1c-0.22-0.44-0.22-0.66,0-1.1l-0.22-0.22c0.22,0.22,0.44,0.22,0.44,0.22
		c0.22,0.88,0.66,1.32,1.32,1.98c0.44,0.44,1.32,0.88,2.42,0.88c0,0.22,0.22,0.22,0.44,0.22c0.44,0,0.88-0.22,1.32-0.22
		c0.66-0.22,0.88-0.44,0.88-1.1c0-0.66,0.22-1.32,0-1.76c-0.22-1.32-0.88-2.2-1.32-2.42c-0.88-0.88-1.76-1.54-2.86-1.32
		c0-0.22-0.44-0.22-0.66,0.22c-0.44,0.22-0.44,0-0.22-0.22c-0.22-0.22,0-0.22-0.22-0.44c0,0,0-0.22-0.22,0l0.44-0.44h0.22
		c1.32-0.22,2.64-0.44,3.74-0.44c1.1-0.22,1.98,0.66,2.64,1.1c0,0,0.22,0.22,0.22,0.44c0,0.66,0,1.1,0.22,1.54
		c0.66,0.66,1.32,1.1,2.2,1.1c0.44,0,0.44-0.22,0.22-0.44c0-0.44-0.22-0.22-0.22-0.22c-1.1,0-1.76-0.66-1.76-1.54
		s-0.44-1.54-0.88-1.98c-1.1-0.22-1.98-1.1-3.3-1.1c-0.22,0-0.44,0-0.66,0.22c-0.22,0-0.66-0.22-1.1,0
		c-0.88,0.22-1.98,0.44-2.64,0.44l-0.22,0.22c0.22-0.22,0-0.22,0-0.22l0.66-0.44c1.1-0.66,2.2-0.88,3.08-1.98
		c0-0.22,0.44-0.22,0.66-0.22c0.88,0.88,1.54,0.22,2.42,0.66c0.22,0,0.66,0.22,1.1,0c1.1-0.22,1.98-0.66,3.08-0.66l0.22-0.22
		c-0.22-0.22,0-0.22-0.22-0.44c0-0.22-0.66-0.22-0.88,0l-0.66,0.44c-0.66,0-1.76,0.66-2.86,0.22c-0.44-0.22-0.88-0.22-1.54-0.66
		c-0.44,0-0.88,0.44-1.1-0.22c-0.44-0.22-0.44,0.44-0.88,0.44c0,0-0.22,0.22-0.44,0.22c-1.1,0.44-1.54,0.88-1.98,1.54
		c-0.66,0.44-1.32,0.44-1.76,0.44l-0.22,0.22c0-0.66-0.66-0.88-0.66-1.54l-0.66-2.86c0-0.66-0.22-1.32-0.22-1.76
		c0.44-0.66,0-1.1-0.22-1.76h-0.66c0,0.22,0,0.22,0.22,0.44c0.44,0.44,0.44,1.1,0.22,1.76c-0.22,0.22-0.22,0.44-0.22,0.66
		c0.44,1.1,0,2.2,0.88,3.08c-0.22,0-0.22,0,0,0.22c-0.22-0.22-0.22,0-0.44-0.22c-0.44-0.66-1.1-0.88-1.98-0.88
		c-0.66,0-0.44-0.22-0.22-0.44c0-0.44,0-0.88-0.22-1.54c-0.66-0.44-1.1-0.66-1.98-0.44c0,0,0-0.22-0.44-0.22
		c0.22,0,0.44,0,0.66-0.22c0.22,0,0.66,0,1.1-0.22c0.22-0.44,0.88-0.66,1.32-1.1l0.22-0.44c-0.22-0.44-0.22-0.66-0.44-0.66
		c-0.88-1.32-1.54-2.64-1.98-3.74c-0.44-0.22-0.44-0.66-0.44-0.88c-0.22-0.66-0.66-1.32-0.44-1.98l-0.22-0.22
		c-0.22,0-0.22,0-0.44-0.22c0.22,0.22,0,0.44-0.22,0.66c0.22,0.44,0.22,1.1,0.66,1.54c0.44,0.88,0.88,1.76,1.1,2.42
		c0,0.66,0.44,1.1,0.88,1.54c0.22,0.44,0.44,0.88,0.88,1.1c0,0.22,0,0.44-0.22,0.44c-0.22,0.44-1.1,0.88-1.54,1.32
		c-0.44,0-0.88,0.22-1.1,0.44c0,0.66-0.44,0.44-0.88,0.44c-0.44,0.22-0.88,0.44-0.66,0.88c0,0.66,0,0.88-0.44,1.32
		c-0.22,0.22-0.22,0.66-0.66,1.1c0,0.44,0,1.1-0.44,1.1c0,0.22-0.66,0.22-1.1-0.22h-0.88c-0.44,0-0.66,0-1.1-0.22h-3.74
		c0,0.22-0.22,0.44-0.22,0.44l-0.22,0.22c0,0,0.22,0,0.44,0.22C705.35,369.39,705.57,369.61,705.57,369.61z"/>
	<path class="st0" d="M749.79,591.81v-0.22c-0.44-0.22-0.88-0.66-1.32-0.66c-0.88,0-2.2-0.22-3.08,0c-0.44,0-1.1,0-1.54-0.44
		c-0.88-0.66-1.54-1.32-2.86-1.98l-0.22-0.44c0,0,0.22-0.22,0.22-0.44c0.22-0.22,0.22-0.44-0.22-0.66
		c-0.66-0.22-0.44-0.66-0.22-1.32c0.22-0.44,0.44-0.44,0.22-0.88c0.22-0.66,0.22-1.1,0.44-1.98l0.22-0.88
		c0.66-0.22,0.88-0.66,1.32-1.1c0.88-0.88,1.1-1.32,1.76-1.76l0.66-0.88c0-0.22,0-0.22-0.22-0.44c-0.44,0.66-0.88,0.88-1.1,1.1
		c-0.44,0.44-0.66,0.44-1.1,0.88c-0.44,0.88-0.88,1.32-1.32,1.54c-0.22,0-0.88,1.1-1.1,1.32c0,0.88,0.22,1.98,0,2.42
		c-0.22,0.44-0.22,0.66-0.22,0.88l-0.22,0.22c-0.66-0.44-1.1-0.44-1.54-0.22c-0.22,0.22-0.88,0.44-0.88,1.1
		c-0.22,0.44-0.22,0.22-0.44,0c-0.44,0.22-0.88-0.44-0.88-0.22c-0.88-0.22-1.54,0-2.2,0.66c0,0-0.22-0.22,0.22-0.44
		c0.22-0.22,0.66-1.1,1.1-1.76c0.22-0.44,0.66-1.32,1.32-1.98c0.88,0,1.32-0.44,1.76-0.66c0.44-0.44,0.66-0.66,0.66-0.88l0.22-0.22
		c-0.22,0-0.22,0-0.22,0c-0.44-0.22-0.66,0-0.66,0c-0.44,0.88-1.32,1.32-1.98,1.32c-0.22,0-0.22,0.22-0.44,0.44
		c-0.44,0.66-0.88,1.54-1.32,1.76c-0.44,0-0.66,0.44-0.66,0.66c-0.22,0.66-0.88,1.32-0.66,2.2v0.22c-0.44-0.22-0.66,0.44-0.88,0.22
		c-0.22-0.44-1.32-0.22-1.1-1.32c-0.22-0.44-0.44-0.66-0.66-1.54l-1.32-1.32c-0.22-0.22-0.44-0.44-0.88-0.22
		c-0.88-0.22-1.76-0.22-2.42,0.22c-0.66,0.44-1.54,0.22-1.98-0.44c-0.44,0-0.88-0.44-1.32-0.88l-0.22-0.22
		c-0.22,0.44-0.22,0.66,0,0.88c0.44,0,0.88,0.44,1.1,1.1c1.32,0.88,2.42,0.66,3.74,0.22c0.44-0.44,1.1-0.66,1.1,0.22
		c0.88,0.88,1.98,1.76,1.98,3.08c0.22,0,0.22,0,0.22,0.22h-0.22c-0.66-0.22-1.32-0.88-1.98-1.32c-0.44-0.44-0.44-0.88-0.88-0.66
		l-0.22-0.22c0-0.44,0-0.44-0.44-0.22l-0.22,0.22c-0.66,0-1.32,0-1.76,0.22c-0.66,0.44-0.88,0.88-1.76,0.66
		c-0.88,0-1.76-0.22-2.2-0.44c-0.22-0.22-0.44-0.22-0.66,0c0,0.22,0.22,0.22,0.22,0.44c0,0.44,0.22,0.22,0.44,0.22
		c0.88,0.22,1.54,0.22,1.98,0.22c0.88,0,1.76,0,2.64-0.22c0.44-0.66,1.1-0.66,1.54-0.22c0.44,0.44,1.54,0.88,2.2,1.76
		c0.22,0,0.44,0.22,0.44,0.22c0,0.22,0.22,0.88,0,0.88c-0.22,0.22-0.22,0-0.44-0.22c-0.22,0-0.22-0.22-0.88-0.22
		c-1.54-0.66-3.08-0.22-4.62,0.88c-0.66,0.44-0.88,1.54-1.32,2.64l-0.22,0.22c0.22,0.22,0.44,0.88,0.44,1.1
		c0,0.22,0.22,0.44,0.22,0.44c0.66,0.22,1.32,0.66,2.2,0.88c0.44,0,1.1,0,1.76-0.22s1.32-0.22,1.54-0.88
		c0.22-0.22,0.44-0.44,0.44-0.66c0.66,0,0.66-0.22,0.88-0.66c0.44-0.44,0.66-1.1,0.88-1.54h0.44c-0.22,0.22,0.22,0.66-0.22,0.66
		c-0.66,0.66-0.66,1.1-1.1,1.98c-0.66,1.32-1.32,2.2-2.2,2.64c-2.2,1.54-2.2,1.54-3.96,3.74c-0.22,0.66-0.66,1.1-1.1,1.76
		c-0.44,0.22-1.32,0.66-0.66,1.1c0.22,0-0.44,0.44,0,0.44c0.22,0.22,0.44,0,0.44-0.22l0.22-0.22c0.44-1.1,1.1-1.54,1.76-1.98
		c0,0,0-0.22,0.22-0.44c0.66-1.1,1.32-1.98,1.98-2.64c0.44-0.22,0.66-0.22,0.88-0.88c0.44,0,0.88-0.22,1.1-0.66
		c0-0.22,0.44-0.22,0.88-0.22c0,0,0-0.22,0.22-0.44c0.66-1.1,1.32-1.98,1.98-3.3l0.66-1.32c0.22,0.44,0.44,0.66,0.66,1.1
		c0.44,0.44,0.88,0.88,0.88,1.32c0.44,0.22,0.22,0.44,0.22,0.66c-0.44,0.88-0.88,1.32-1.1,1.76c-0.44,1.1-0.22,1.76-0.66,2.64v1.32
		c-0.22,0.88,0.44,1.32,0,1.76c-0.22,0.22,0,0,0.44,0.22c0.22,0.22,0.66-0.22,0.44-0.44c0-0.44-0.66-0.66-0.44-0.88
		c0.22-1.1,0-1.76,0.22-2.42c0.66-1.1,1.1-2.86,1.98-4.18c0-0.44,0.22-0.88-0.22-1.1c0-0.22-0.22-0.22-0.44-0.66
		c0-0.22-0.66-0.66-0.88-1.1c-0.22,0-0.22,0-0.22-0.44c-0.22-0.22,0-0.22,0.44-0.44c0.22,0,0.44,0.22,0.66,0.44
		c1.1,0.44,2.2,0.88,3.3,0.66c0.66-0.22,1.1-0.22,1.76,0.22c0.44,0.44,1.54,0.66,1.76,1.1c0.44,0.22,0.66,0,0.66-0.22
		c0.22-0.22,0-0.22-0.22-0.44h-0.22c-0.44-0.22-1.32-0.66-1.54-0.66c-0.88-1.1-1.98-0.88-3.3-1.32c0,0.22-0.22,0.22-0.22,0.22v-0.22
		c0.44-0.22,0.88-0.66,1.1-0.88c0.44-0.22,0.44-0.22,0.66,0c0.66,0.44,1.32,0,1.76-0.22c0.44,0.22,0.44,0,0.44-0.22
		c0.44-0.44,0.66-0.22,0.88,0c0.66,0.44,1.32,0.66,1.32,0.88l1.32,1.1c-0.22,0.22,0.44,0.66,0.88,0.22c0.66,0,1.32,0,2.2,0.22
		c1.32,0,2.2,0,2.86,0.44C749.79,592.03,749.79,592.03,749.79,591.81z"/>
	<polygon class="st0" points="742.31,471.03 614.05,471.03 614.05,490.61 666.63,490.61 666.63,625.03 689.95,625.03 689.95,490.61 
		742.31,490.61 	"/>
	<path class="st0" d="M946.69,553.09c-18.92-5.5-38.28-10.78-57.42-16.06l-45.54-12.76c16.5-7.7,19.58-19.36,16.28-34.1
		c16.94,2.42,32.34,4.84,47.74,7.04c20.02,2.64,40.04,5.06,60.28,7.48c5.28,0.66,10.34-1.1,10.12-7.7
		c-0.22-9.02,5.28-18.92-3.52-26.62c-0.66-0.66-1.98-0.66-3.08-0.66c-22.22-2.2-44.44-4.18-66.66-6.38
		c-21.56-2.42-43.12-5.28-64.46-7.92c-22.88-2.86-45.76-5.94-68.64-8.36c-3.52-0.22-9.24,2.64-10.78,5.72
		c-2.42,4.18-2.2,10.12-2.86,15.18c-0.66,5.72,2.64,6.6,7.7,7.26c14.08,1.54,28.16,3.96,42.24,6.16c-3.08,6.38-6.38,11-7.26,15.84
		c-0.66,5.06,0.88,10.56,1.54,16.72c-6.38-1.76-12.32-3.08-18.26-4.84c-17.15-4.99-21.32-6.2-24.05,3.71
		c-0.05,0.02-0.1,0.03-0.15,0.03c-0.88,0-1.54,0.44-2.2,0.88c-0.66,0.22-1.32,0-1.76,0c-0.22,0.22-0.44,0-0.44,0
		c0.22-0.44-0.22-0.88,0-1.54c0-1.1-0.22-1.98,0-2.86c0.22-0.66,0-1.32,0.22-1.76c0.44-0.44,0.22-1.1,0.22-1.76
		c0,0-0.44-0.22-0.66-0.22v0.44c0.44,0.66,0.22,1.1-0.22,1.76c-0.22,0-0.22,0.44-0.22,0.66c0,1.1-0.66,1.98,0,3.08v0.22
		c0,0-0.22,0-0.44-0.22c-0.22-0.88-0.88-1.32-1.76-1.32c-0.66-0.22-0.44-0.44,0-0.66c0.22-0.44,0.22-0.88,0.22-1.32
		c-0.66-0.66-1.1-1.1-1.76-1.1c0,0-0.22,0-0.44-0.22h0.66c0.22,0,0.66,0,1.1,0c0.44-0.22,1.1-0.44,1.54-0.88
		c0.44-0.22,0.22-0.44,0.22-0.44c0.22-0.22,0-0.44,0-0.66c-0.66-1.54-0.88-2.86-1.1-3.96c-0.22-0.44-0.22-0.66-0.22-0.88
		c0-0.88-0.22-1.54,0-2.2v-0.22c-0.22-0.22-0.22-0.22-0.22-0.22l-0.44,0.44c0,0.44-0.22,1.1,0,1.76l0.66,2.64
		c-0.22,0.44,0,1.1,0.44,1.76c0.22,0.44,0.22,0.88,0.44,1.1c0,0.22,0,0.44-0.22,0.44c-0.44,0.22-1.32,0.66-1.98,0.88
		c-0.22-0.22-0.66,0-1.1,0.22c-0.22,0.44-0.66,0.22-0.88,0.22c-0.44,0-0.88,0-0.88,0.66c-0.22,0.44-0.22,0.88-0.88,1.1
		c0,0.22-0.44,0.66-0.66,0.88c-0.22,0.44-0.44,1.1-0.66,0.88c-0.22,0.22-0.88,0-1.1-0.22c-0.22-0.22-0.66-0.22-1.1-0.44
		c-0.22,0-0.66-0.22-0.88-0.44c-1.1-0.44-2.42-0.66-3.52-0.88c-0.22,0.22-0.44,0.22-0.44,0.22l-0.22,0.22l0.22,0.22
		c0.22,0,0.44,0.22,0.44,0.22h1.32c1.1,0.44,1.98,0.88,3.08,1.1c0.88,0.22,1.54,0.44,1.98,0.66c0.44,0.22,0.44,0,0.66-0.22
		c0.22-0.44,0.66-0.88,1.1-1.32c0-0.22,0-0.44,0.22-0.44c0.22,0,0.22,0.22,0.22,0.22c0,0.44,0.22,0.44,0.22,0.44
		c0.22,1.1,1.1,1.76,1.76,1.54l0.66-0.22c-0.22,1.1,0,1.76,0.44,2.64v0.22c-0.22-0.22-0.22-0.22-0.22-0.22
		c-0.22-0.44-0.66-0.66-1.32-0.44c-0.44,0-0.88-0.22-1.54-0.44c-0.88,0-1.76,0.22-2.2,0c-1.1,0-1.54,0.44-2.64,0.44
		c-0.88,0-1.54,0.22-2.2,0.66c-0.44,0-0.66,0.22-0.66,0.44c0.22,0.22,0.22,0.44,0.66,0.22c1.1-0.66,2.2-0.44,3.3-0.88
		c1.32,0.22,2.2,0,2.86,0c1.1-0.22,1.54,0,2.2,0.44c0.44,0.44,1.32,0.44,1.76,0.88c0.22,0.22,0.66,0,0.88,0
		c0.44,0,0.66-0.22,1.1,0.22c0,0.22-0.22,0.66-0.66,0.88c-0.22,0.22-0.66,0.66-1.1,0.88l-1.32,1.32c-0.22,0.22,0.22,0.66,0.22,0.88
		c0,1.32,0.22,2.86,0,3.96c-0.22,1.32-0.22,2.42-1.1,3.08v0.44c-0.22,0.22,0,0.44,0,0.44l0.22-0.22l0.22-0.22
		c0.66-0.66,0.88-1.54,1.1-2.42c0.22-0.44,0.44-0.88,0.22-1.32c0-0.44,0.44-0.88,0.22-1.1c0-0.22,0.22-0.66,0-0.88
		c-0.22-0.88,0-1.54,0-2.2c0-0.22,0.22-0.44,0.44-0.44c0.66-0.22,1.1-0.44,1.54-0.88c0-0.22,0.44-0.66,0.44-0.44
		c0.44,0.22,0.22,0.44,0.22,0.66v1.1c-0.44,1.32-0.44,2.64,0,3.96c0,0.66,0,0.66,0.44,1.1c1.07,0.54,2,1.22,2.9,1.93
		c-0.02,0.09-0.03,0.18-0.05,0.27c0,0.44-0.44,0.66-0.44,1.1c-0.66,6.6,0.88,11.44,8.36,13.2c6.16,1.54,11.88,3.52,19.36,5.72
		c-9.46,12.32-12.98,24.42-4.4,40.48c-7.48-1.32-12.54-1.76-17.6-2.86c-6.82-1.54-11.22,1.32-12.76,7.7
		c-1.32,6.38-1.76,13.2-2.64,19.8c-0.66,6.38,2.42,8.8,8.58,9.24c32.78,1.32,65.78,3.08,98.78,3.96c23.32,0.66,46.86,0,70.18,0.44
		c7.48,0,11.44-2.2,12.32-9.68c0.44-5.28-0.22-13.2,2.64-14.96c11-7.04,10.34-19.36,15.4-28.82
		C960.11,562.55,956.37,555.73,946.69,553.09z M847.25,502.49c-0.44,9.9-7.92,11.22-15.62,11.22c-8.14,0.22-17.82-8.36-17.38-15.18
		c0.88-9.02,5.94-12.98,13.86-11.44C840.87,487.09,847.91,492.81,847.25,502.49z M773.11,465.09l-0.66-3.3
		c3.08-1.1,6.16-3.3,8.8-2.86c24.64,2.64,49.06,6.16,73.48,9.02c32.34,3.74,64.68,7.48,96.8,11c12.1,1.32,13.42,2.64,9.9,14.52
		C898.29,488.19,836.25,473.01,773.11,465.09z M759.06,517.16c-0.14-0.06-0.3-0.12-0.47-0.15c-0.22-0.22-0.44-0.22-0.88,0
		c-0.44,0.22-0.22,0,0-0.22c-0.22,0,0-0.22-0.22-0.44c0,0,0-0.22-0.22,0c0.22-0.22,0.44-0.22,0.44-0.44c0,0,0.22,0.22,0.44,0.22
		c0.34,0.07,0.71,0.11,1.09,0.15C759.18,516.57,759.12,516.86,759.06,517.16z M756.83,514.81c0.22-0.22,0.44,0,0.66-0.22
		c0.71-0.29,1.52-0.3,2.24-0.51c-0.08,0.31-0.15,0.62-0.22,0.95c-0.01,0-0.02,0-0.03,0c-0.88,0.22-1.76,0-2.64,0h-0.22
		C756.83,515.03,756.83,514.81,756.83,514.81z M757.05,524.27l-1.1-0.66c-0.44-0.22-0.66-0.22-0.66-0.22
		c0.22-0.44-0.22-0.88-0.66-1.32c0.22-0.22,0.22-0.44,0.22-0.88c0-0.44,0-0.66,0.22-1.1v-0.22c0,0.22,0.44,0.22,0.44,0.22
		c-0.22,0.88,0.22,1.54,0.66,2.2c0.2,0.59,0.92,1.18,1.7,1.45c-0.06,0.38-0.13,0.78-0.2,1.17
		C757.4,524.79,757.18,524.53,757.05,524.27z M910.83,615.13c-29.92-0.44-59.62-1.1-89.54-1.98c-17.16-0.44-34.32-1.32-51.48-2.42
		c-3.3,0-6.38-1.76-9.24-2.64c-1.1-12.32,5.72-13.42,14.52-12.98c38.94,1.98,77.66,3.96,116.6,5.5c10.78,0.66,21.56,0.22,32.34,0.22
		C926.01,614.03,918.53,615.35,910.83,615.13z M786.75,564.97c0.44-8.58,6.16-11.22,13.42-11.44c9.02-0.22,12.98,4.18,12.76,13.86
		c0.88,9.46-5.94,12.32-12.76,13.64C794.01,582.35,786.31,572.45,786.75,564.97z M815.13,590.49c4.4-11.44,8.14-20.9,12.54-32.56
		l93.72,31.24c0,0.44-0.22,0.88-0.22,1.32H815.13z M927.33,578.61c-21.34-7.26-42.9-13.64-64.68-20.24
		c-28.38-8.8-57.2-17.16-85.58-26.18c-2.64-0.88-6.16-5.5-6.16-8.36c0.22-5.72,3.96-6.82,9.68-5.28
		c31.24,8.36,62.48,16.06,93.5,24.42c20.68,5.72,41.36,12.1,62.04,18.7c3.08,1.1,5.5,4.4,7.04,5.5
		C941.19,581.25,937.89,582.35,927.33,578.61z"/>
	<path class="st0" d="M1011.81,471.03l-62.26,154h24.86l16.72-44.44h67.76l16.94,44.44h25.96l-62.48-154H1011.81z M998.61,561.01
		l21.34-56.54c1.98-4.62,3.74-9.24,5.28-13.86c1.54,4.62,3.08,9.02,4.84,13.86l21.56,56.54H998.61z"/>
	<path class="st0" d="M1289.23,516.13l-103.4,66c-5.06,3.08-9.24,6.16-13.86,9.24c1.76-5.06,3.3-10.12,4.84-15.84l34.54-118.14
		l-29.26-22.22l-92.84,122.98l18.26,13.64l66.88-88.66c4.18-5.5,8.14-11,11.88-16.28l-39.38,134.64l21.56,16.28l117.92-75.46
		c-4.18,5.28-7.92,10.34-12.32,16.06l-66.88,88.66l18.26,13.86l92.84-122.98L1289.23,516.13z"/>
</g>
</svg>
