<?xml version="1.0" encoding="utf-8"?>
<!-- Generator: Adobe Illustrator 26.4.1, SVG Export Plug-In . SVG Version: 6.00 Build 0)  -->
<svg version="1.1" id="Ebene_1" xmlns="http://www.w3.org/2000/svg" xmlns:xlink="http://www.w3.org/1999/xlink" x="0px" y="0px"
	 viewBox="0 0 1920 1080" style="enable-background:new 0 0 1920 1080;" xml:space="preserve">
<style type="text/css">
	.st0{fill:#0000FF;}
</style>
<g>
	<rect x="533.86" y="427.69" class="st0" width="23.98" height="24.64"/>
	<rect x="577.64" y="427.69" class="st0" width="23.98" height="24.64"/>
	<path class="st0" d="M604.26,562.11c0,32.12-12.76,46.86-36.52,46.86c-23.76,0-36.3-14.96-36.3-46.86v-91.08h-23.32v94.38
		c0,41.8,22.22,63.14,59.62,63.14c37.18,0,59.84-21.34,59.84-63.14v-94.38h-23.32V562.11z"/>
	<path class="st0" d="M769.92,549.35c3.52-2.64,7.92-5.5,12.98-9.02c-4.84,2.2-9.02,4.18-12.76,5.72
		C769.48,547.59,769.48,548.69,769.92,549.35z"/>
	<path class="st0" d="M777.62,560.13c-0.66-2.42,2.42-5.94,9.9-11.22c-10.12,1.98-16.06,2.42-17.6,0.44
		C753.86,561.23,756.28,563.65,777.62,560.13z"/>
	<path class="st0" d="M770.14,546.05c1.32-2.42,4.4-6.16,9.68-11.22c-17.16,8.14-23.98,9.46-20.68,0.88
		C745.28,553.75,748.58,555.51,770.14,546.05z"/>
	<path class="st0" d="M712.06,500.51c0.22,1.76,0.66,3.52,0.88,5.06l-0.66-6.6C712.28,499.41,712.06,500.07,712.06,500.51z"/>
	<path class="st0" d="M727.9,500.51c-6.38,31.46-10.12,33.44-14.96,5.06c3.96,39.38,7.48,45.1,17.82,19.8
		C728.56,522.51,727.68,514.59,727.9,500.51z"/>
	<path class="st0" d="M779.6,561.89c3.08-1.32,6.6-2.64,10.56-4.18l-12.54,2.42C777.84,560.79,778.5,561.45,779.6,561.89z"/>
	<path class="st0" d="M730.76,525.37c1.1,1.1,2.2,1.32,3.74,0.66c0.88-5.94,2.42-13.42,4.4-22.44
		C735.82,512.39,733.18,519.65,730.76,525.37z"/>
	<path class="st0" d="M759.14,535.71c0-0.22,0.22-0.22,0.22-0.44l-0.22,0.22C759.14,535.49,759.14,535.49,759.14,535.71z"/>
	<path class="st0" d="M651.34,635.15c2.86-2.64,5.72-5.06,8.14-7.26c-0.22,0-0.22,0.22-0.44,0.22L651.34,635.15z"/>
	<path class="st0" d="M642.1,622.83c4.4-2.2,8.36-4.18,11.88-5.72c-1.32,0-3.08,0.44-5.28,0.88
		C646.72,619.53,644.52,621.07,642.1,622.83z"/>
	<path class="st0" d="M713.82,661.99c0.88-11.44,1.54-20.68,2.64-27.5c-1.54,1.54-2.86,6.16-4.4,13.42
		C712.5,652.09,713.16,656.71,713.82,661.99z"/>
	<path class="st0" d="M784.66,617.55c-2.86-1.76-5.28-3.3-7.7-4.62c-1.54-0.22-2.86-0.22-3.96-0.22
		C776.52,614.03,780.26,615.79,784.66,617.55z"/>
	<path class="st0" d="M786.2,577.51c-7.48-3.74-5.5-7.92,5.94-13.64c-5.94-0.22-10.12-0.88-12.54-1.98
		C756.5,571.79,758.26,575.09,786.2,577.51z"/>
	<path class="st0" d="M791.26,599.51c-0.22,0-0.44-0.22-0.44-0.22h-0.66C790.6,599.51,790.82,599.51,791.26,599.51z"/>
	<path class="st0" d="M772.56,525.15c-1.1,0.66-1.54,1.1-1.98,1.1C760.9,536.15,763.98,533.29,772.56,525.15z"/>
	<path class="st0" d="M645.18,533.51l2.86,2.42c0.66,0.22,1.32,0.22,1.76,0.22L645.18,533.51z"/>
	<path class="st0" d="M771.9,524.93c-0.44,0.44-1.1,0.88-1.54,1.32h0.22L771.9,524.93z"/>
	<path class="st0" d="M793.46,578.17c-2.64-0.22-5.06-0.44-7.26-0.66l2.64,1.32L793.46,578.17z"/>
	<path class="st0" d="M758.48,625.03c3.96,2.86,8.58,6.38,13.64,10.34c-5.06-5.28-9.02-9.68-12.32-13.42
		C758.7,622.39,758.26,623.27,758.48,625.03z"/>
	<path class="st0" d="M716.46,634.49c2.86-3.52,5.5,5.5,9.02,26.62c-0.66-24.2,1.32-32.56,8.36-27.28
		C723.72,612.93,719.32,612.49,716.46,634.49z"/>
	<path class="st0" d="M674.22,629.65c-2.42,4.84-5.72,10.56-9.68,17.38c5.06-5.94,9.46-11.22,13.64-15.62
		C677.3,630.09,675.98,629.65,674.22,629.65z"/>
	<path class="st0" d="M678.18,631.41c1.76,3.3,1.32,10.34-1.76,22.66c21.56-29.7,28.6-29.7,32.78,8.14
		c0.88-5.72,1.98-10.34,2.86-14.3C706.56,611.61,699.52,608.53,678.18,631.41z"/>
	<path class="st0" d="M738.46,638.23c3.08,3.52,6.82,8.36,11.22,14.74c-10.56-30.14-5.72-31.02,17.16-11.88
		c-5.06-7.92-7.92-13.2-8.36-16.06C735.6,608.09,730.76,609.85,738.46,638.23z"/>
	<path class="st0" d="M793.9,580.59c-1.98-0.66-3.52-1.1-5.06-1.76c-34.1,4.84-33.44,8.8,1.98,20.46h0.88
		C777.62,591.15,778.5,586.31,793.9,580.59z"/>
	<path class="st0" d="M759.8,621.95c2.64-1.1,8.8,1.32,18.7,6.16c-9.9-10.34-11.44-14.74-5.5-15.4
		C748.8,603.03,744.84,604.35,759.8,621.95z"/>
	<path class="st0" d="M776.96,612.93c2.64,0.22,5.72,0.66,9.46,1.54c-13.42-10.56-11.88-14.3,3.74-15.18
		C754.3,593.79,750.12,595.77,776.96,612.93z"/>
	<path class="st0" d="M733.84,633.83c2.86,5.72,5.94,12.98,9.68,21.78c-1.98-6.6-3.74-12.32-5.06-17.38
		C736.7,636.25,735.16,634.93,733.84,633.83z"/>
	<path class="st0" d="M650.9,574.65c-5.72,0.66-12.54,1.32-20.46,1.76c9.68,1.54,17.82,3.08,24.2,4.62
		C654.64,579.05,653.32,576.85,650.9,574.65z"/>
	<path class="st0" d="M659.92,528.23c0.66,5.72-1.76,9.02-10.12,7.92C682.8,555.29,683.9,552.87,659.92,528.23z"/>
	<path class="st0" d="M648.04,535.93c-1.1-0.22-2.64-0.44-4.18-0.88c18.26,20.02,18.26,27.72-12.1,28.82
		c9.02,3.96,15.4,7.48,19.14,10.78C683.46,570.69,679.72,562.33,648.04,535.93z"/>
	<path class="st0" d="M667.62,511.95c32.12,41.36,38.72,41.8,44.44-11.44c0-0.44-0.22-1.1-0.22-1.76
		c-5.28,35.2-12.1,35.42-28.38,5.94c3.52,18.92,3.3,25.74-1.1,21.56c-0.22-1.98-2.64-8.36-7.04-18.92c9.9,15.84,9.9,10.34,6.82-3.3
		c0.44,0.44,0.88,0.66,1.32,0.66c1.76-0.22,1.76-4.62,1.76-7.92v-6.82h36.74c13.64,0,21.78,3.74,25.52,10.12
		c1.98,3.3,2.86,7.04,4.62,8.36c-1.54,6.82-2.42,10.56,0.88,5.72c-8.58,13.2-10.78,14.08-3.52-6.16
		c-6.82,10.34-11.66,16.5-14.96,18.04c-3.74,23.76,2.86,23.32,25.52,4.84c-4.18,5.72-4.18,7.04-0.88,4.62
		c0.88-1.98,1.98-4.18,3.74-7.04c1.98-1.54,4.18-3.52,6.6-5.5c-3.96,4.62-7.26,8.8-10.12,12.32c2.42-1.76,6.16-4.62,11-9.02
		c-0.66-0.22,0.66-2.42,1.76-5.06c1.32-3.74,2.2-7.7,2.2-12.1c0-27.06-21.12-38.72-50.16-38.72h-62.04v33.22
		c0,6.6,0,13.64-4.84,15.4c1.32,3.52,2.2,6.6,2.64,9.24C685.66,553.53,687.86,551.11,667.62,511.95z"/>
	<path class="st0" d="M659.48,627.89c3.52-1.54,2.86,1.98-3.3,12.54c8.14-6.6,14.3-10.34,18.04-10.78
		C685.88,607.87,681.04,608.97,659.48,627.89z"/>
	<path class="st0" d="M653.98,617.11c6.82-0.66,3.96,4.4-6.16,14.3c14.3-8.58,14.3-7.04,2.64,3.3c3.74-3.3,6.6-5.5,8.58-6.6
		C682.14,606.99,681.92,603.69,653.98,617.11z"/>
	<path class="st0" d="M654.64,581.03c-0.22,5.06-7.7,10.12-22.66,16.5c30.14,0,30.14,5.94,8.36,22.88c3.3-1.1,6.16-1.98,8.36-2.42
		C678.18,596.21,681.92,588.07,654.64,581.03z"/>
	<polygon class="st0" points="827.12,555.95 903.24,555.95 903.24,536.15 827.12,536.15 827.12,490.61 906.54,490.61 906.54,471.03 
		803.8,471.03 803.8,625.03 909.4,625.03 909.4,605.23 827.12,605.23 	"/>
	<path class="st0" d="M1070.22,626.79l1.1-1.32c0.66-0.88,0.66-2.42-0.22-4.4l-0.88-5.06l-1.54-1.32l0.44-2.42
		c0.22-1.76-0.22-3.08-0.88-4.4l0.66-2.42c0.44-1.76,0.22-2.86-0.88-5.06l-0.88-2.86l0.88-1.1c0.44-0.88,0.22-2.42-0.44-5.5
		l-0.66-3.74l-1.32-6.82l0.44-1.54c0.22-1.1,0.44-2.2,0.44-3.3c0-1.32-1.1-1.76-3.08-2.64l-1.98-4.18l0.22-1.98
		c0-1.32-0.66-2.2-1.98-3.08v-1.76c0-1.1-1.32-2.42-4.4-5.06l-0.22-0.66l-3.96-3.52l0.44-5.28l1.32-1.54l0.22-0.44l1.54,0.22
		c1.32,0.22,2.86-0.66,5.5-3.3l2.42-3.08l1.76-1.32c1.1-0.88,1.76-1.54,2.2-2.42l2.64-5.28l0.22-1.54c0-0.88-0.22-2.2-0.66-4.18
		v-1.98l0.88-5.06l0.66-0.88c0.44-0.44,0.44-2.2,0.22-5.5c0.22-4.62-0.44-7.26-1.76-9.02l-1.54-2.42l1.32-3.96l-0.44-1.32
		c-0.22-0.88-1.32-2.2-3.74-3.96l0.44-1.54c0.22-0.88-0.66-2.42-2.86-5.5l-1.32-1.76l-3.08-3.3v-0.88c0-0.44-1.54-1.54-4.84-3.08
		l-1.32-1.76c-0.88-1.32-2.86-2.64-7.7-5.28c-0.44,0-0.66-0.22-0.66-0.22l-1.1-1.1c-0.66-0.66-1.98-1.32-4.62-2.42l-4.18-1.32
		l-1.76,0.22l-1.1-0.66c-0.88-0.44-2.64-0.88-6.16-1.32c-1.76-0.22-3.3-0.22-5.72,0.22l-3.96-0.44h-3.3c-3.08-0.22-4.62-0.22-5.94,0
		l-6.16,1.32l-2.64-0.66c-1.76-0.44-3.52-0.66-5.94-0.22l-3.3,0.88l-0.66-0.22c-0.44,0-1.98,0.44-5.06,1.32l-1.98-0.44
		c-1.32-0.22-3.08,0.22-5.28,1.76l-1.54-0.22c-1.1-0.22-2.42-0.22-4.18,0l-2.64,1.1l-4.4,0.44l-2.42,0.88l-1.54-0.44
		c-1.1-0.22-2.86-0.22-5.28,0l-2.42,1.32h-5.94l-1.32-0.44c-0.88-0.22-2.2,0.22-4.18,1.76l-1.76-0.88
		c-1.32-0.66-3.08-0.22-5.28,1.54l-1.54,0.44l-2.86-0.22c-1.76-0.22-3.52,1.32-5.06,4.18l-0.44,1.54c-0.22,1.1,0.22,2.42,1.54,4.84
		l1.54,3.52l-0.44,3.3l-0.66,1.54c-0.44,1.1-0.44,2.42,0.44,3.52l0.22,1.98c0.22,1.32,0.88,3.08,2.42,6.16l-0.66,3.52l-1.54,2.86
		l0.22,1.32c0.22,1.1,0.88,2.42,2.2,5.5l0.22,1.76c0.22,1.54,0.66,2.86,1.76,5.28l-0.44,1.1c-0.88-0.22-1.76-0.44-2.86-0.22
		c-1.32,0.22-6.16,4.18-6.16,4.18l-0.22,0.88c-0.22,0.44,0,1.76,0.66,3.96v3.74c0.22,3.3,0.66,5.06,1.76,6.6l-0.44,1.32
		c-0.22,1.1-0.44,2.2-0.44,3.52s0.44,3.3,1.76,6.16v3.52c-0.88,0.66-0.44,2.42,1.1,5.28l-0.22,1.54c-0.22,1.32-1.1,3.52,0.66,8.58
		c0,0.22,0.22,0.44,0.22,0.66l-0.88,0.88c-0.66,0.66-0.66,1.98,0,3.96l0.66,3.74l1.1,4.18l0.88,2.86l-0.44,0.88
		c-0.22,0.66-0.22,1.98,0.44,4.62l0.66,3.08l0.88,4.4l-0.22,1.76c-0.22,1.1,0.22,2.86,1.76,5.06l-0.44,1.32
		c-0.44,1.1,0,2.2,1.1,3.74l-0.44,1.98c-0.44,1.32-0.22,2.86,0.88,5.06v1.76c0,1.32,0.22,2.64,0.66,5.72l0.66,1.54v4.4
		c-0.22,2.42,0.44,10.12,0.44,10.12l-0.44,1.54c-0.22,1.1-0.22,2.2,0.22,3.96c0.88,2.86,1.54,4.4,2.64,5.5
		c0.88,0.88,2.86,1.1,6.16,0.44l2.64-0.44l2.2,0.22c1.54,0.22,2.42,0.22,3.96-0.22l4.4-1.54l1.32,0.66c0.88,0.44,2.2,0.22,4.62-0.44
		l0.88,0.44c0.66,0.44,1.98-0.22,5.06-1.54l1.1-0.66l2.64,0.88c1.76,0.44,3.08,0.66,4.18,0.44l3.74-1.1l2.42-0.22
		c1.54-0.22,2.86-0.88,3.52-2.42c0.66-1.54,0.66-3.3-0.44-5.28l-0.88-2.2l0.88-2.42c0.66-1.76,0.66-3.3,0.44-5.5
		c0-1.98-2.42-8.58-2.42-8.58l0.44-1.98c0.22-1.54-0.22-2.86-1.1-5.06l-0.22-3.96l-0.44-2.2v-2.2c0-1.54-0.22-2.86-0.88-5.28
		l-0.44-1.76l0.22-1.76c0.22-1.1,0.88-3.74-1.32-8.14c0-0.22-0.22-0.44-0.22-0.66l0.66-1.54c0.44-1.32,0.66-2.64,1.32-6.38l2.2,0.66
		c1.54,0.44,3.3,0.44,5.94,0l3.3-0.22l0.88-0.44l5.5,0.22c5.28-0.44,8.14-0.88,10.78-1.76l0.88,0.22c0.44,0.22,1.98,0.22,5.28-0.44
		l1.76,3.3v1.98c0,1.54,0.22,3.08,0.88,6.16l-0.22,2.86c-0.22,2.2,0.22,3.52,1.32,5.06l-0.22,5.06l-1.54,3.52l0.22,1.32
		c0.22,1.1,0.66,2.2,1.54,4.4l2.2,3.96l0.66,2.64l-0.44,1.32c-0.44,1.1-0.88,1.98-1.1,3.74c-0.22,1.76,0,3.3,0.88,5.5l1.32,1.98
		v4.84l-0.22,1.32c-0.22,1.1,0.66,1.98,2.42,3.3c1.76,1.32,3.08,1.54,4.4,1.32l2.86-0.66l4.18-0.88l2.2,0.22
		c1.54,0.22,2.86,0.22,4.84-0.22l1.32-0.88l3.08-0.22l1.98,0.22c1.32,0.22,2.64,0.22,4.62,0l5.28-0.22h2.86
		c2.42-0.22,3.74-0.44,4.18-0.88l2.42-0.66c1.54-0.44,2.64-1.1,3.96-2.2c1.32-1.1,1.32-2.86,0.44-5.28l0.88-1.98
		C1072.87,629.43,1071.98,628.11,1070.22,626.79z M1015.22,521.85c-3.08,0.88-4.84,1.98-5.06,3.96l-1.54,1.54
		c-1.1,1.1-1.98,2.42-3.08,4.4l-5.28,0.88l-0.22-0.22c-0.22,0-2.86,0.22-8.36,1.54l-2.2-0.66c-1.54-0.44-2.86,0.22-3.96,1.32
		l-1.1-0.22c-0.44,0-1.32,0.22-3.08,0.66v-0.44c0-1.32-0.66-2.2-1.32-3.74l-0.44-3.08l0.88-2.42c0.44-1.54-0.44-3.08-2.64-5.28
		l-0.44-3.3l0.88-1.32l3.96-5.5l1.54,0.44c1.1,0.44,2.42,0,3.96-0.88l3.3,0.22c2.42,0.22,3.96,0,6.38-1.1l3.96,0.44
		c3.08,0.44,4.84,0.44,7.92,0l3.74,0.44h2.2l1.1,0.88l0.22,1.76c0.22,1.32,0.88,3.52,2.64,8.36
		C1018.08,520.75,1016.76,521.19,1015.22,521.85z"/>
	<rect x="1222.68" y="427.69" class="st0" width="23.98" height="24.64"/>
	<rect x="1178.9" y="427.69" class="st0" width="23.98" height="24.64"/>
	<path class="st0" d="M1202.44,461.57l0.22,0.44c0.44,0.44,1.1,0.66,1.32,1.1c0.44,0.22,0.88,0.22,1.1,0.22
		c0.22,0.22,0.44,0.22,0.66,0.22c-0.44,0-0.44,0.22-0.44,0.22c-0.88-0.22-1.32,0-1.98,0.44c-0.22,0.66-0.22,1.1-0.22,1.54
		c0.22,0.22,0.44,0.44-0.22,0.44c-0.88,0-1.54,0.22-1.98,0.88c-0.22,0.22-0.22,0-0.44,0.22c0.22-0.22,0.22-0.22,0-0.22
		c0.88-0.88,0.44-1.98,0.88-3.08c0-0.22,0-0.44-0.22-0.66c-0.22-0.66-0.22-1.32,0.22-1.76c0.22-0.22,0.22-0.22,0.22-0.44h-0.66
		c-0.22,0.66-0.66,1.1-0.22,1.76c0,0.44-0.22,1.1-0.22,1.76l-0.66,2.86c0,0.66-0.66,0.88-0.66,1.54l-0.22-0.22
		c-0.44,0-1.1,0-1.76-0.44c-0.44-0.66-0.88-1.1-1.98-1.54c-0.22,0-0.44-0.22-0.44-0.22c-0.44,0-0.44-0.66-0.88-0.44
		c-0.22,0.66-0.66,0.22-1.1,0.22c-0.66,0.44-1.1,0.44-1.54,0.66c-1.1,0.44-2.2-0.22-2.86-0.22l-0.66-0.44
		c-0.22-0.22-0.88-0.22-0.88,0c-0.22,0.22,0,0.22-0.22,0.44l0.22,0.22c1.1,0,1.98,0.44,3.08,0.66c0.44,0.22,0.88,0,1.1,0
		c0.88-0.44,1.54,0.22,2.42-0.66c0.22,0,0.66,0,0.66,0.22c0.88,1.1,1.98,1.32,3.08,1.98l0.66,0.44c0,0-0.22,0,0,0.22l-0.22-0.22
		c-0.66,0-1.76-0.22-2.64-0.44c-0.44-0.22-0.88,0-1.1,0c-0.22-0.22-0.44-0.22-0.66-0.22c-1.32,0-2.2,0.88-3.3,1.1
		c-0.44,0.44-0.88,1.1-0.88,1.98s-0.66,1.54-1.76,1.54c0,0-0.22-0.22-0.22,0.22c-0.22,0.22-0.22,0.44,0.22,0.44
		c0.88,0,1.54-0.44,2.2-1.1c0.22-0.44,0.22-0.88,0.22-1.54c0-0.22,0.22-0.44,0.22-0.44c0.66-0.44,1.54-1.32,2.64-1.1
		c1.1,0,2.42,0.22,3.74,0.44h0.22l0.44,0.44c-0.22-0.22-0.22,0-0.22,0c-0.22,0.22,0,0.22-0.22,0.44c0.22,0.22,0.22,0.44-0.22,0.22
		c-0.22-0.44-0.66-0.44-0.66-0.22c-1.1-0.22-1.98,0.44-2.86,1.32c-0.44,0.22-1.1,1.1-1.32,2.42c-0.22,0.44,0,1.1,0,1.76
		c0,0.66,0.22,0.88,0.88,1.1c0.44,0,0.88,0.22,1.32,0.22c0.22,0,0.44,0,0.44-0.22c1.1,0,1.98-0.44,2.42-0.88
		c0.66-0.66,1.1-1.1,1.32-1.98c0,0,0.22,0,0.44-0.22l-0.22,0.22c0.22,0.44,0.22,0.66,0,1.1v1.1c-0.44,0.22-1.1,0.44-0.88,0.88
		c0,0-0.44,0-0.66,0l-1.32,0.66c-0.44,0-0.88,0.44-1.54,0.22c-0.22,0.44-0.88,0.22-0.88,0.66s-0.22,0.66-0.66,0.66
		c-0.88,0.88-1.54,2.2-1.98,3.3c0,0.22-0.22,0.22-0.44,0.44c0,0.44,0.22,0.44,0.22,0.66c0.22,0.22,0.44,0,0.44-0.22
		c0.22,0,0.44-0.22,0.22-0.44c0-0.66,0.22-1.1,0.66-1.32c0.22-0.22,0.66-0.66,0.66-1.1c0.44-0.22,0.66-0.44,0.66-0.88
		c0.22-0.22,0.66-0.66,1.1-0.44c1.32-0.66,2.42-1.32,3.96-1.54c0.44-0.22,0.66-0.44,0.88-0.88c0.66-1.1,0.88-2.42,0.88-3.74
		c0-0.44,0-0.66,0.22-1.1c0-0.44,0-0.66,0.22-0.66c0.22-0.22,0.44,0.22,0.44,0.44c0.44,0.66,0.66,1.1,1.32,1.32
		c0.22,0,0.22,0.44,0.44,0.44c-0.22,0.88-0.22,1.54-0.88,2.2v0.88c-0.44,0.22,0,0.66-0.22,1.1c-0.22,0.44-0.22,0.88,0,1.32
		c0,0.88,0,1.76,0.44,2.64v0.22c0.22,0,0.44,0.22,0.44,0.22s0-0.22,0.22-0.44v-0.22c-0.66-1.1-0.44-2.2-0.44-3.3
		c0-1.32,0.66-2.42,0.88-3.96c0.22,0,0.66-0.44,0.66-0.66c-0.44-0.66-0.88-1.1-1.1-1.76c-0.22-0.44-0.66-0.66-0.88-1.1
		c-0.22-0.22-0.44-0.66-0.22-0.88c0.44-0.44,0.66-0.22,1.1,0c0,0,0.66,0.22,0.66,0c0.66-0.22,1.54,0,2.2-0.22
		c0.44-0.44,1.1-0.22,1.98,0c0.88,0.22,1.54,0.66,2.86,0.88c0.88,0.66,1.98,0.88,3.08,1.54c0.22,0.44,0.44,0.22,0.66,0
		c0-0.22-0.22-0.44-0.44-0.44c-0.66-0.66-1.32-0.88-2.2-1.32c-0.88-0.44-1.32-0.88-2.42-1.1c-0.44,0.22-1.32-0.22-1.98-0.44h-1.54
		c-0.66-0.44-1.1-0.22-1.54,0.22c0,0,0,0-0.22,0v-0.22c0.88-0.88,1.1-1.32,1.1-2.42l0.44,0.22c0.66,0.44,1.76,0.22,2.42-0.88v-0.44
		c0,0,0.22,0,0.44-0.22c0.22,0.22,0.22,0.44,0,0.44c0.44,0.66,0.88,1.1,0.88,1.76c0,0.22,0,0.44,0.44,0.44
		c0.66-0.22,1.32-0.22,2.2-0.22c1.1,0,2.2-0.22,3.3-0.22c0.22,0,0.66,0.22,1.32,0.22c0,0,0.22-0.22,0.22,0
		c0.22-0.22,0.44-0.22,0.44-0.22l-0.22-0.22c0,0-0.22-0.22-0.22-0.44h-3.74c-0.44,0.22-0.66,0.22-1.1,0.22h-0.88
		c-0.44,0.44-1.1,0.44-1.1,0.22c-0.44,0-0.44-0.66-0.44-1.1c-0.44-0.44-0.44-0.88-0.66-1.1c-0.44-0.44-0.44-0.66-0.44-1.32
		c0.22-0.44-0.22-0.66-0.66-0.88c-0.44,0-0.88,0.22-0.88-0.44c-0.22-0.22-0.66-0.44-1.1-0.44c-0.44-0.44-1.32-0.88-1.54-1.32
		c-0.22,0-0.22-0.22-0.22-0.44c0.44-0.22,0.66-0.66,0.88-1.1c0.44-0.44,0.88-0.88,0.88-1.54c0.22-0.66,0.66-1.54,1.1-2.42
		c0.44-0.44,0.44-1.1,0.66-1.54c-0.22-0.22-0.44-0.44-0.22-0.66c-0.22,0.22-0.22,0.22-0.44,0.22l-0.22,0.22
		c0.22,0.66-0.22,1.32-0.44,1.98c0,0.22,0,0.66-0.44,0.88c-0.44,1.1-1.1,2.42-1.98,3.74
		C1202.66,460.91,1202.66,461.13,1202.44,461.57z"/>
	<path class="st0" d="M1275.92,536.37c0,0.44,0,0.66,0.44,0.88c0,0.22,0.22,0.44,0.22,0.66c0,0.88,0.66,1.1,1.1,1.54
		c0.44,0.44,1.1,0.66,1.54,0.88c0.88,0.22,1.76,0,2.42,0c0,0,0.22,0,0.22-0.22c0.22-0.22,0.66-0.66,0.88-0.88v-0.22
		c0-1.1,0.22-2.2-0.22-3.08c-1.1-1.54-2.2-2.42-3.96-2.64c-0.44-0.22-0.66,0-0.88,0s-0.22,0.22-0.44,0
		c-0.22-0.22,0.22-0.66,0.44-0.88h0.44c0.88-0.44,1.98-0.44,2.64-0.66c0.66-0.22,1.1,0,1.32,0.66c0.66,0.66,1.54,0.88,2.42,1.32
		c0.44,0.22,0.88,0.44,1.76,0.66c0.22,0,0.44,0.22,0.66,0c0-0.22,0.22-0.22,0.22-0.44c0-0.22-0.22-0.22-0.44-0.22
		c-0.66,0-1.54-0.22-2.2-0.44c-0.88-0.22-1.1-0.66-1.54-1.32c-0.22-0.44-0.88-0.66-1.32-0.88c0,0-0.22,0-0.22-0.22
		c-0.22-0.44-0.22-0.44-0.44,0h-0.44c-0.22-0.44-0.44,0-0.88,0.22c-0.88,0.22-1.76,0.44-2.42,0.44h-0.22c0-0.22,0-0.22,0.22-0.22
		c0.66-1.1,1.98-1.54,3.08-1.98c0.44-0.66,0.88-0.44,1.1,0.22c1.1,0.88,1.98,1.54,3.52,1.32c0.44-0.44,1.1-0.66,1.54-0.66
		c0.22,0,0.22-0.22,0.22-0.66h-0.22c-0.44,0.22-1.1,0.44-1.54,0.44c-0.66,0.22-1.54,0.22-1.98-0.44c-0.44-0.66-1.32-1.1-2.2-1.32
		c-0.22-0.22-0.66-0.22-0.88,0l-1.76,0.66c-0.44,0.66-0.88,0.88-1.1,1.1c-0.22,1.1-1.1,0.44-1.54,0.88c-0.44,0-0.22-0.66-0.66-0.66
		v-0.22c0.44-0.66,0.22-1.54,0.22-2.2c0-0.22,0-0.66-0.22-0.88c-0.44-0.44-0.44-1.32-0.66-2.2c0-0.22,0-0.44-0.22-0.44
		c-0.66-0.44-1.32-1.1-1.32-2.2v-51.04h-23.32v91.08c0,32.12-12.76,46.86-36.52,46.86c-23.76,0-36.3-14.96-36.3-46.86v-91.08h-23.32
		v60.06c-1.46-0.74-2.9-1.5-4.18-2.42l-1.1-0.44c-0.22,0-0.22-0.22-0.22-0.22c-0.44-0.22-0.88-0.44-1.54-0.44h-0.22
		c0,0-0.22-0.22-0.44-0.22s-0.44,0.22-0.66,0.44l-1.98,2.2c0,0.22-0.22,0.44-0.44,0.44c-0.44,0-0.88,0.22-1.32,0.44v0.22
		c-0.22-0.22-0.22-0.22-0.22-0.22v-0.22c0-0.44,0-0.88,0.22-1.1v-1.54c0-0.22,0-0.44,0-0.44l0.22-0.88c0.22,0,0.44,0,0.88,0.22
		c0.22,0.22,0.66,0.44,1.1,0.44c0,0,0.22,0,0.22-0.22c0.44,0,0.88-0.22,1.32-0.66c0.44-0.44,0.66-1.1,0.88-1.98v-0.22l-0.22-0.44
		l-0.22,0.22c0,0.22,0,0.22,0,0.22c-0.22,0.88-0.44,1.54-0.88,1.98c-0.22,0.22-0.22,0.22-0.44,0.22h-0.66c0,0-0.22,0.22-0.44,0
		c0,0-0.22,0-0.22-0.22c-0.22-0.22-0.22-0.22-0.44-0.22c-0.22-0.22-0.66-0.22-1.1-0.22c-0.22,0.22-0.66,0.66-0.66,0.88
		c0,0.88-0.22,1.76-0.22,2.42c-0.22,0.44-0.22,0.88-0.22,1.32h-0.22c0,0,0-0.22-0.22-0.22c0,0-0.22-0.22-0.44-0.22
		s-0.44-0.22-0.22-0.44v-0.22l-0.22-0.66l-0.66-2.2c-0.22-0.44-0.44-0.66-0.66-0.88c-0.22,0-0.44,0.22-0.66,0.66h-0.22
		c0,0.22-0.22,0.44-0.44,0.66l-0.22,0.22h-0.22v-0.22c0.22-0.66,0-1.1-0.22-1.76c-0.22-0.44-0.44-0.66-0.88-0.66
		s-1.1-0.22-1.76-0.22c-0.22,0-0.22,0-0.44-0.22v-0.22v-2.2c0-0.66,0-1.1,0-1.76c-0.22-0.44-0.22-0.88-0.44-1.32
		c-0.88-1.76-1.54-3.3-1.76-5.06v-0.44c0-0.22,0-0.44,0-0.66s-0.22-0.44-0.44-0.44h-0.22c-0.22,0.22-0.22,0.22-0.22,0.44
		c0,1.32,0.22,2.42,0.66,3.3c0,0.22,0,0.44,0.22,0.44c0.22,1.1,0.66,1.98,1.1,3.08h0.22c-0.44,0.22-0.22,0.66,0,0.88
		c0.22,0.44,0.22,0.88,0.22,1.32c-0.22,0.66,0,1.32,0,1.98c0.22,0.22,0.22,0.44,0.22,0.44v0.22c0,0.22,0,0.44-0.22,0.44
		c0,0-0.22,0-0.22,0.22c-0.22,0.44-0.44,0.22-0.88,0c-1.32-0.44-2.42-0.44-3.52-0.44c-0.44,0-0.88-0.22-1.32-0.44
		c-0.22,0-0.22-0.22-0.44-0.22s-0.44-0.22-0.66-0.22c-0.22-0.22-0.44-0.44-0.66-0.44c0,0-0.22,0-0.44-0.22l-2.2-0.66
		c-0.22,0-0.44,0-0.88,0c-0.22-0.22-0.44-0.22-0.88-0.22h-0.22c-0.22,0-0.44,0.22-0.44,0.22c0,0.22,0.22,0.44,0.22,0.44
		c0.44,0.22,0.66,0.22,1.1,0.22c0.44,0.22,0.88,0.22,1.32,0.22c0.44,0.22,0.66,0.22,1.1,0.22c0.44,0,0.66,0.22,1.1,0.44
		c0.44,0.44,0.88,0.44,1.32,0.66c0.22,0.22,0.44,0.22,0.66,0.22c0.66,0.44,1.54,0.44,2.42,0.44h0.88c0.66,0,1.1,0.22,1.54,0.44
		l0.22,0.22c-0.44,0.66-0.22,1.32-0.22,1.76c0.44,0.66,0.88,1.1,1.54,1.32c0.66,0.44,1.1,0.22,1.54-0.22h0.22v0.22
		c0,0.44,0.22,0.88,0.66,1.32c0.22,0.22,0.22,0.44,0,0.66h-0.22c-0.22-0.22-0.22-0.22-0.44-0.22l-0.66-0.66
		c-0.44-0.44-0.88-0.44-1.32-0.22c0,0.22-0.22,0.22-0.22,0.22l-0.88,0.66c-0.22,0.22-0.22,0.22-0.66,0.22h-0.44
		c-0.22,0-0.22,0-0.22,0l-0.88,0.22l1.54,0.22h0.22h0.22c0.44,0.22,0.88,0,1.1-0.22c0,0,0.22,0,0.22-0.22
		c0.44-0.22,0.44-0.22,1.1,0.22v0.22c0,0,0,0.22-0.22,0.22h-0.44c0,0,0,0-0.22,0s-0.22,0-0.22,0h-0.22l0.22,0.22
		c0,0,0,0.22,0.22,0.22c0.44,0.22,0.88,0.22,1.1,0c0.22-0.22,0.22-0.22,0.44,0c0.44,0.44,0.88,0.66,1.54,0.88
		c0.66,0.22,1.32,0.22,1.98-0.44c0,0,0-0.22,0.22-0.22v-0.22h0.22c0.22,0.44,0.44,0.66,0.44,1.1s0,0.44,0,0.44v0.22
		c-0.22,0-0.44,0-0.44,0c-0.44,0.22-0.66,0.44-0.66,0.88s0.22,0.88,0.22,1.1c0,0.88,0,1.76,0.22,2.64c0,0.22,0,0.44,0.22,0.66v0.66
		c0,0.22,0,0.44,0,0.66c0.22,1.1,0.44,2.2,0.22,3.3c0,0.44,0,0.44,0,0.44l0.44,0.22v-0.22c0.22-1.32,0.22-2.2,0-3.3v-0.22v-0.22
		c0-1.76-0.22-3.3-0.44-4.84c-0.22,0,0-0.22,0-0.22h0.22c0,0,0.22-0.22,0.44-0.22c0.22-0.22,0.44-0.22,0.44-0.44
		c0-0.22,0-0.44,0.22-0.66c0,0,0.22-0.22,0.22-0.44c0,0,0,0,0,0.22c0.22,0,0.22,0.22,0.22,0.22l0.66,0.66
		c0.22,0.22,0.22,0.22,0.44,0.44c0.22,0,0.44,0,0.44-0.22c0.22,0,0.22-0.22,0.22-0.44c0-0.22,0-0.22-0.22-0.44v-0.22
		c0,0,0.22,0.22,0.44,0.22c0.44,0.66,1.1,1.32,1.32,2.2l0.44,0.66c0.44,0.22,0.66,0.66,0.88,0.88c1.1,1.1,1.98,2.2,3.08,3.08
		c0.44,0.66,1.1,1.1,1.54,1.54l0.66,0.66c0.22,0,0.22,0,0.44,0.22h0.22v-0.22h0.22c0,0,0-0.22-0.22-0.22l-0.22-0.22
		c-0.22-0.22-0.44-0.44-0.66-0.66l-1.98-1.54c-0.22-0.22-0.22-0.44-0.44-0.66l-0.22-0.22c-0.44-0.66-1.1-1.32-1.54-1.98v-0.22h0.44
		c0.88,0,1.54-0.22,2.42-0.22c0.22-0.22,0.44-0.22,0.66-0.22c0-0.22,0.22-0.22,0.44-0.22c0.44-0.22,0.44-0.44,0.44-0.88
		c-0.22-0.88-0.22-1.76-0.66-2.42c-0.22-0.66-0.44-1.1-1.1-1.32c-0.88-0.66-1.98-1.32-3.3-1.54l0.44-0.66
		c0.22-0.66,0.66-1.1,1.1-1.32h0.44c0.22,0.22,0.66,0.22,0.88,0.44l2.64,1.32c1.1,0.22,1.98,0.88,3.08,1.32l0.22,0.15v33.95
		c0,18.63,4.43,33.19,12.63,43.61c0.02,0.66-0.09,1.34-0.09,2.15c0.22,0.66-0.22,1.1,0,1.54c0,0-0.22,0.22-0.44,0
		c-0.44,0-1.1,0.22-1.76,0c-0.66-0.44-1.32-0.88-2.2-0.88c-0.22,0-0.44-0.22-0.44-0.22c-0.44,0-0.66-0.66-1.32-0.22
		c0.22,0.66-0.44,0.44-0.66,0.66c-0.66,0.44-1.32,0.44-1.54,0.88c-0.88,0.66-1.98,0.44-2.86,0.44c-0.22,0-0.44,0-0.66-0.22
		c-0.44-0.22-0.88,0-0.88,0.22c-0.22,0.22,0,0.44,0,0.44v0.22c1.32-0.22,2.2,0,3.3,0c0.44,0,0.88-0.22,1.1-0.22
		c0.66-0.66,1.54-0.44,2.2-1.32c0.22-0.22,0.66-0.22,0.88,0c0.88,0.88,2.2,0.66,3.3,1.1c0.22,0.22,0.44,0,0.66,0.22
		c0,0,0,0.22,0.22,0.22h-0.22c-0.88,0-1.76,0.22-2.64,0c-0.66,0-1.1,0.22-1.32,0.22c-0.22,0-0.44,0-0.66,0.22
		c-1.1,0.22-1.76,1.1-2.64,1.76c-0.66,0.44-0.88,1.32-0.66,2.2c0.22,0.88-0.22,1.54-1.1,1.76c-0.22,0.22-0.44,0-0.22,0.44
		c-0.22,0.22-0.22,0.44,0.22,0.44c0.88-0.22,1.54-0.88,1.76-1.76c0.22-0.44,0.22-0.88,0-1.32s0-0.66,0-0.66
		c0.66-0.44,1.1-1.76,2.2-1.76c1.32-0.22,2.64-0.22,3.74-0.44c0.22,0,0.44-0.22,0.44-0.22c0,0.22,0.22,0.22,0.44,0.44
		c-0.22-0.22-0.22,0-0.22,0c-0.22,0.22,0,0.44-0.22,0.44c0.22,0.22,0.44,0.44,0,0.22c-0.44-0.22-0.66-0.22-0.88,0
		c-1.1,0.22-1.54,1.1-2.2,1.98c-0.66,0.44-0.88,1.54-0.66,2.64c0,0.44,0.22,1.32,0.44,1.98c0,0.44,0.44,0.66,1.1,0.66
		c0.44,0,0.88,0,1.32-0.22c0.22,0.22,0.22,0,0.44-0.22c0.88-0.22,1.76-0.88,1.98-1.54c0.44-0.66,0.88-1.32,0.66-2.2
		c0,0,0.44,0,0.44-0.22v0.22c0.22,0.44,0.22,0.66,0.22,1.1c0,0.44,0,0.66,0.22,0.88c-0.44,0.44-0.88,0.88-0.66,1.32
		c0,0-0.22,0-0.66,0.22l-1.1,0.66c-0.22,0.44-0.66,0.88-1.32,0.66c0,0.66-0.88,0.66-0.66,1.1c0,0.22-0.22,0.66-0.44,0.66
		c-0.66,1.1-1.1,2.42-1.1,3.74c-0.22,0.22-0.22,0.44-0.44,0.44l0.44,0.66c0.22,0,0.44,0,0.44-0.22c0.22-0.22,0.22-0.44,0-0.44
		c0-0.66,0-1.1,0.22-1.54l0.66-1.32c0.22-0.22,0.22-0.44,0.22-0.88c0-0.44,0.66-0.88,0.88-0.88c1.1-0.88,2.2-1.76,3.52-2.42
		c0.44-0.44,0.44-0.44,0.44-1.1c0.44-1.32,0.44-2.64,0-3.96v-1.1c0-0.22-0.22-0.44,0.22-0.66c0-0.22,0.44,0.22,0.44,0.44
		c0.44,0.44,0.88,0.66,1.54,0.88c0.22,0,0.44,0.22,0.44,0.44c0,0.66,0.22,1.32,0,2.2c-0.22,0.22,0,0.66,0,0.88
		c-0.22,0.22,0.22,0.66,0.22,1.1c-0.22,0.44,0,0.88,0.22,1.32c0.22,0.88,0.44,1.76,1.1,2.42l0.22,0.22l0.22,0.22
		c0,0,0.22-0.22,0-0.44v-0.44c-0.88-0.66-0.88-1.76-1.1-3.08c-0.22-1.1,0-2.64,0-3.96c0-0.22,0.44-0.66,0.22-0.88l-1.32-1.32
		c-0.44-0.22-0.88-0.66-1.1-0.88c-0.44-0.22-0.66-0.66-0.66-0.88c0.44-0.44,0.66-0.22,1.1-0.22c0.22,0,0.66,0.22,0.88,0
		c0.12-0.12,0.26-0.2,0.42-0.27c10.19,9.82,24.67,14.79,42.7,14.79c37.18,0,59.84-21.34,59.84-63.14v-30.53
		c0.19-0.1,0.4-0.19,0.66-0.27c0.22-0.22,0.66-0.44,1.1-0.66v1.54c0.22,1.32,0.44,2.42,0.44,3.74c0.22,0.22,0.22,0.44,0.22,0.44
		c0.22,0.22,0.66,0.44,0.66,0.66c0,0.44,0.22,0.66,0.66,0.88c0,0.66,0.22,0.88,0.44,1.32c0.44,0.88,0.66,1.76,0.88,3.08v0.66
		c0.44,0.66,0.88,1.32,0.88,2.42v0.22c0,0.22,0,0.44,0.22,0.44c0.44,0.22,0-0.44,0.22-0.44c0.88-0.22,0.22-0.88,0-1.32
		c-0.22-0.66-0.44-1.32-0.44-1.98c-0.66-2.64-0.66-2.64-1.98-5.06c-0.88-0.66-1.1-1.76-1.1-3.3c0-0.88,0-1.32-0.22-2.2
		c-0.44-0.22,0.22-0.44,0-0.66c0.22,0,0.44,0.22,0.44,0.22C1275.71,535.05,1275.71,535.71,1275.92,536.37z M1134.68,531.09
		c0.22,0,0.22-0.22,0.22-0.22l0.66,0.66C1135.34,531.53,1135.12,531.31,1134.68,531.09z M1166.36,610.73v-0.22
		c0.11-0.18,0.17-0.35,0.22-0.52c0.1,0.12,0.19,0.24,0.29,0.36c-0.02,0.06-0.05,0.1-0.07,0.16
		C1166.58,610.73,1166.36,610.73,1166.36,610.73z M1273.72,533.29c-0.22,0.22-0.22,0.22-0.44,0.22c-0.2,0.1-0.43,0.2-0.66,0.29
		v-1.17c0.22,0,0.66-0.22,0.88,0C1273.72,532.85,1273.94,533.07,1273.72,533.29z M1274.38,529.33c-0.44-0.88-0.88-1.32-1.76-1.32
		v-4.34c0.23,0.27,0.47,0.55,0.88,0.82c0.44,0.88,0.44,1.76,0.44,2.42c0.22,0.66,0.22,1.54,0.44,1.98S1274.38,529.33,1274.38,529.33
		z"/>
	<path class="st0" d="M1200.24,685.53c-0.44,0.22-1.32,0.44-2.2,0.44c-0.88,0.22-1.1-0.22-1.76-0.66c-0.44-0.22-1.1-0.22-1.76-0.22
		l-0.22-0.22c-0.44-0.22-0.44-0.22-0.44,0.22l-0.22,0.22c-0.44-0.22-0.44,0.22-0.88,0.66c-0.66,0.44-1.32,1.1-1.98,1.32h-0.22
		c0-0.22,0-0.22,0.22-0.22c0-1.32,1.1-2.2,1.98-3.08c0-0.88,0.66-0.66,1.1-0.22c1.32,0.44,2.42,0.66,3.74-0.22
		c0.22-0.66,0.66-1.1,1.1-1.1c0.22-0.22,0.22-0.44,0-0.88l-0.22,0.22c-0.44,0.44-0.88,0.88-1.32,0.88
		c-0.44,0.66-1.32,0.88-1.98,0.44c-0.66-0.44-1.54-0.44-2.42-0.22c-0.44-0.22-0.66,0-0.88,0.22l-1.32,1.32
		c-0.22,0.88-0.44,1.1-0.66,1.54c0.22,1.1-0.88,0.88-1.1,1.32c-0.22,0.22-0.44-0.44-0.88-0.22v-0.22c0.22-0.88-0.44-1.54-0.66-2.2
		c0-0.22-0.22-0.66-0.66-0.66c-0.44-0.22-0.88-1.1-1.32-1.76c-0.22-0.22-0.22-0.44-0.44-0.44c-0.66,0-1.54-0.44-1.98-1.32
		c0,0-0.22-0.22-0.66,0c0,0,0,0-0.22,0l0.22,0.22c0,0.22,0.22,0.44,0.66,0.88c0.44,0.22,0.88,0.66,1.76,0.66
		c0.66,0.66,1.1,1.54,1.32,1.98c0.44,0.66,0.88,1.54,1.1,1.76c0.44,0.22,0.22,0.44,0.22,0.44c-0.66-0.66-1.32-0.88-2.2-0.66
		c0-0.22-0.44,0.44-0.88,0.22c-0.22,0.22-0.22,0.44-0.44,0c0-0.66-0.66-0.88-0.88-1.1c-0.44-0.22-0.88-0.22-1.54,0.22l-0.22-0.22
		c0-0.22,0-0.44-0.22-0.88c-0.22-0.44,0-1.54,0-2.42c-0.22-0.22-0.88-1.32-1.1-1.32c-0.44-0.22-0.88-0.66-1.32-1.54
		c-0.44-0.44-0.66-0.44-1.1-0.88c-0.22-0.22-0.66-0.44-1.1-1.1c-0.22,0.22-0.22,0.22-0.22,0.44l0.66,0.88
		c0.66,0.44,0.88,0.88,1.76,1.76c0.44,0.44,0.66,0.88,1.32,1.1l0.22,0.88c0.22,0.88,0.22,1.32,0.44,1.98
		c-0.22,0.44,0,0.44,0.22,0.88c0.22,0.66,0.44,1.1-0.22,1.32c-0.44,0.22-0.44,0.44-0.22,0.66c0,0.22,0.22,0.44,0.22,0.44l-0.22,0.44
		c-1.32,0.66-1.98,1.32-2.86,1.98c-0.44,0.44-1.1,0.44-1.54,0.44c-0.88-0.22-2.2,0-3.08,0c-0.44,0-0.88,0.44-1.32,0.66v0.22
		c0,0.22,0,0.22,0.22,0.22c0.66-0.44,1.54-0.44,2.86-0.44c0.88-0.22,1.54-0.22,2.2-0.22c0.44,0.44,1.1,0,0.88-0.22l1.32-1.1
		c0-0.22,0.66-0.44,1.32-0.88c0.22-0.22,0.44-0.44,0.88,0c0,0.22,0,0.44,0.44,0.22c0.44,0.22,1.1,0.66,1.76,0.22
		c0.22-0.22,0.22-0.22,0.66,0c0.22,0.22,0.66,0.66,1.1,0.88v0.22c0,0-0.22,0-0.22-0.22c-1.32,0.44-2.42,0.22-3.3,1.32
		c-0.22,0-1.1,0.44-1.54,0.66h-0.22c-0.22,0.22-0.44,0.22-0.22,0.44c0,0.22,0.22,0.44,0.66,0.22c0.22-0.44,1.32-0.66,1.76-1.1
		c0.66-0.44,1.1-0.44,1.76-0.22c1.1,0.22,2.2-0.22,3.3-0.66c0.22-0.22,0.44-0.44,0.66-0.44c0.44,0.22,0.66,0.22,0.44,0.44
		c0,0.44,0,0.44-0.22,0.44c-0.22,0.44-0.88,0.88-0.88,1.1c-0.22,0.44-0.44,0.44-0.44,0.66c-0.44,0.22-0.22,0.66-0.22,1.1
		c0.88,1.32,1.32,3.08,1.98,4.18c0.22,0.66,0,1.32,0.22,2.42c0.22,0.22-0.44,0.44-0.44,0.88c-0.22,0.22,0.22,0.66,0.44,0.44
		c0.44-0.22,0.66,0,0.44-0.22c-0.44-0.44,0.22-0.88,0-1.76v-1.32c-0.44-0.88-0.22-1.54-0.66-2.64c-0.22-0.44-0.66-0.88-1.1-1.76
		c0-0.22-0.22-0.44,0.22-0.66c0-0.44,0.44-0.88,0.88-1.32c0.22-0.44,0.44-0.66,0.66-1.1l0.66,1.32c0.66,1.32,1.32,2.2,1.98,3.3
		c0.22,0.22,0.22,0.44,0.22,0.44c0.44,0,0.88,0,0.88,0.22c0.22,0.44,0.66,0.66,1.1,0.66c0.22,0.66,0.44,0.66,0.88,0.88
		c0.66,0.66,1.32,1.54,1.98,2.64c0.22,0.22,0.22,0.44,0.22,0.44c0.66,0.44,1.32,0.88,1.76,1.98l0.22,0.22
		c0,0.22,0.22,0.44,0.44,0.22c0.44,0-0.22-0.44,0-0.44c0.66-0.44-0.22-0.88-0.66-1.1c-0.44-0.66-0.88-1.1-1.1-1.76
		c-1.76-2.2-1.76-2.2-3.96-3.74c-0.88-0.44-1.54-1.32-2.2-2.64c-0.44-0.88-0.44-1.32-1.1-1.98c-0.44,0,0-0.44-0.22-0.66h0.44
		c0.22,0.44,0.44,1.1,0.88,1.54c0.22,0.44,0.22,0.66,0.88,0.66c0,0.22,0.22,0.44,0.44,0.66c0.22,0.66,0.88,0.66,1.54,0.88
		c0.66,0.22,1.32,0.22,1.76,0.22c0.88-0.22,1.54-0.66,2.2-0.88c0,0,0.22-0.22,0.22-0.44s0.22-0.88,0.44-1.1l-0.22-0.22
		c-0.44-1.1-0.66-2.2-1.32-2.64c-1.54-1.1-3.08-1.54-4.62-0.88c-0.66,0-0.66,0.22-0.88,0.22c-0.22,0.22-0.22,0.44-0.44,0.22
		c-0.22,0,0-0.66,0-0.88c0,0,0.22-0.22,0.44-0.22c0.66-0.88,1.76-1.32,2.2-1.76c0.44-0.44,1.1-0.44,1.54,0.22
		c0.88,0.22,1.76,0.22,2.64,0.22c0.44,0,1.1,0,1.98-0.22c0.22,0,0.44,0.22,0.44-0.22c0-0.22,0.22-0.22,0.22-0.44
		C1200.68,685.31,1200.46,685.31,1200.24,685.53z"/>
	<path class="st0" d="M1315.74,473.45c2.64-3.08,5.28-5.72,9.24-6.38c0.22,0,0.44-0.22,0.44-0.22c0.88-1.1,1.32-2.2,1.76-3.52
		c0-0.22,0.22-0.44,0.22-0.88h-0.88c-1.76,0.44-3.3,0.66-4.62,1.54c-2.2,0.88-4.4,2.42-5.5,4.62c-0.66,1.32-1.1,2.64-1.54,3.74
		c-0.22,0.44-0.66,0.88-1.32,1.1c-2.42,0.88-3.96,2.86-5.5,4.4c-2.64,2.42-4.62,5.28-6.82,8.14c-2.2,3.3-1.76,7.26,0,10.12
		c0.88,1.32,2.42,2.86,4.62,2.64c0.88,0,1.98-0.44,3.08-0.66c0.66-0.44,1.1-0.88,1.1-1.54c-0.22-2.42,0-5.28-0.22-7.48
		c0-2.2,0.22-4.4,0.88-6.6C1311.56,478.95,1313.54,476.31,1315.74,473.45z"/>
	<path class="st0" d="M1377.34,623.27c0.88,0.88,1.98,1.54,3.08,2.2c0.88,0.44,1.32,0.22,1.76-0.22c0.88-0.88,1.54-2.2,2.64-3.3
		c0.44-0.88,1.1-1.54,1.76-2.2c1.54-5.28,3.96-10.56,6.6-15.4c0.88-1.76,1.54-3.3,3.3-4.84c0.44-0.44,0.44-1.1,0.22-1.76
		c-1.32-3.08-1.32-3.08-3.52-0.66c-1.54,1.32-2.42,3.08-1.54,5.5c0.66,1.32,0,1.98-1.54,2.86c-0.22,0-0.22,0.22-0.44,0.44
		c-2.64,2.2-5.5,4.18-8.58,5.72c-0.88,0.22-1.32,0.88-1.76,1.32c-1.54,1.98-2.42,4.4-2.2,7.26v2.42
		C1377.12,622.83,1377.12,623.27,1377.34,623.27z"/>
	<path class="st0" d="M1352.26,536.59v0.88c0,0.22,0,0.22-0.44,0.66c0-0.44-0.22-0.44-0.22-0.66c-0.22-0.88-0.44-1.54-0.88-2.2
		c-0.66-1.1-1.32-1.32-2.64-0.88c-2.86,1.32-5.72,1.76-8.14,3.3c-0.44,0.44-0.66,0.66-0.88,0.66c-4.84,1.1-9.02,1.98-13.86,1.32
		c-3.96-0.66-7.26-1.54-10.12-4.62c-0.22-0.22-0.44-0.44-0.66-0.22c-1.32,0-2.64,0.22-3.74,0.22c-0.44,0-0.88,0-1.1-0.22
		c0.22,0.44,0.22,0.88,0.44,1.1l0.66,0.66c3.74,3.52,7.7,6.16,12.98,4.62c1.1-0.22,2.42-0.22,3.52,0.66
		c0.44,0.44,1.32,0.66,2.2,0.88c3.74,1.32,7.48,2.2,11.44,3.3c1.1,0.22,2.42,0,3.52,0.22c1.76,0,3.08-1.1,4.18-1.98
		c2.42-1.76,3.74-4.4,4.18-7.26c0-0.22,0-0.22-0.22-0.22v-1.1C1352.48,535.93,1352.26,536.37,1352.26,536.59z"/>
	<path class="st0" d="M1290.22,518.77c2.2,3.52,4.84,6.16,7.92,8.58c0.88,0.88,2.64,1.32,2.86,3.08c0-0.88,0.66-0.66,1.1-0.44
		c1.1,0.22,1.76,0.66,2.64,0.88h0.44c0-0.22,0-0.44-0.22-0.44c-0.22-0.44-0.66-0.88-1.1-1.1c-2.42-2.64-4.84-5.5-6.16-8.8
		c-2.2-4.62-4.4-9.46-6.16-14.08c-1.32-2.42-1.98-5.28-1.54-7.48c1.1-4.4,2.86-8.8,6.16-11.88c0.66-0.88,0.88-1.54,1.32-2.2
		c0.66-1.1,1.1-2.42,1.76-3.74c-2.64,1.32-5.28,2.86-6.82,5.06c-3.08,3.74-5.06,8.14-5.94,12.76c-0.66,3.3-0.66,6.82,0,10.12
		C1287.14,512.39,1288.24,515.69,1290.22,518.77z"/>
	<path class="st0" d="M1296.16,577.07c-0.66,1.1-0.88,1.54-0.22,2.42l2.64,3.3c0.44,0.44,0.88,1.32,1.32,1.76
		c2.2,1.1,4.4,1.98,6.6,3.3l7.04,3.74c2.42,1.1,4.62,2.2,6.16,4.62c0.22,0.44,0.66,0.66,1.1,0.44c0.88-0.22,1.76-0.22,2.86-0.44
		c0.22,0,0.44-0.22,0.66-0.22l-0.44-0.66c-1.98-2.42-3.52-5.06-7.26-4.62c-1.54,0.22-3.3,0-3.74-2.2c0-0.22-0.22-0.22-0.44-0.44
		c-1.32-1.98-2.86-3.52-3.08-5.94c-0.44-2.42-2.42-3.74-4.62-5.06l-2.86-1.32C1299.68,574.43,1297.48,575.09,1296.16,577.07z"/>
	<path class="st0" d="M1310.24,543.41c3.52,2.86,7.92,4.4,12.1,5.28c3.52,1.1,7.04,1.1,10.12,1.1c2.86,0,5.5-0.22,7.92-1.54
		c0.66-0.22,1.1-0.44,1.54-0.88h-1.54c-0.22,0-0.22-0.22-0.44-0.22c-4.4-1.1-8.58-2.2-12.98-3.74c-1.98-0.44-4.18-0.88-5.94-0.44
		c-2.2,0.44-4.4,0-6.38-0.66c-3.08-1.1-5.28-3.52-7.26-6.16c-1.32-1.54-2.64-2.86-4.18-4.18l-2.2-1.32c0.44,2.2,1.1,3.74,2.2,5.28
		C1304.96,539.01,1307.6,541.43,1310.24,543.41z"/>
	<path class="st0" d="M1427.95,573.11c-1.76-7.04-4.84-13.42-10.78-17.82c-0.22,0-0.66-0.44-0.88-0.44c-0.44,0.44-0.22,0.88,0,1.32
		c0.88,1.76,1.98,3.52,2.86,5.5c1.32,3.96,2.64,8.14,3.74,12.32c0,0-0.22,0.22-0.22,0.44c0-0.22-0.22-0.22-0.22-0.44
		c-0.66-1.1-1.1-2.64-1.54-3.74c-1.54-4.84-3.3-9.9-5.72-14.08c-0.66-0.66-1.32-1.76,0-2.42c0.22-0.22,0.22-0.88,0.22-1.32
		c-0.88-2.2-1.32-4.62-2.2-6.6c-2.2-4.84-6.16-9.02-10.56-11.88c-5.94-3.96-12.76-5.94-20.24-5.5l-1.54,0.88
		c0.44,0.44,0.88,1.1,1.32,1.1c5.72,1.54,10.78,4.18,16.06,6.38l0.44,0.44c-0.22,0-0.44,0.22-0.66,0.22c-1.1-0.44-2.2-0.44-3.3-0.88
		c-4.62-2.2-9.24-3.96-13.86-5.72c-0.88,0-1.32-0.66-1.76-1.32l0.44-0.44c-0.22-0.66-0.66-0.88-0.88-1.1
		c-1.54-1.1-3.08-2.42-4.84-3.3c-5.06-3.08-10.12-4.18-15.62-4.62c-1.76-0.22-3.08,0.22-4.62,0.22c-2.42,0-4.84,0.88-6.82,1.76
		l-0.88,0.66l0.66,0.44c0.44,0.22,0.88,0.22,1.1,0.44c3.74,0.44,7.26,0.88,10.78,1.54c0.66,0,1.1,0.44,1.54,0.44
		c-0.44,0.22-1.1,0.66-1.54,0.66c-0.22,0.44-0.44,0-0.88,0c-1.98-0.22-3.96-0.66-6.16-1.1c-1.76-0.22-3.74-0.66-5.72-1.1
		c-0.44-0.22-0.66-0.66-1.1-0.88c0.88-0.66,0-0.88-0.22-1.1c-0.88-0.88-1.76-1.98-2.42-2.86c-5.28-4.84-11.22-7.26-18.26-7.48
		c-1.54,0-1.76,0-1.54-1.54c0.22-1.54,0.66-2.86,0.88-4.18v-1.32c-0.44-1.54-0.88-3.08-1.32-4.4c0-0.66,0-1.1-0.66-1.1
		c-0.44,0-0.88,0.22-0.88,0.66c-0.66,1.32-1.32,2.86-1.76,4.62c0,0.22-0.22,0.44-0.22,0.66c-0.22-0.22-0.88-0.44-0.88-0.66
		c-0.22-0.22-0.22-0.44-0.22-0.44c0.44-2.2,1.54-3.96,2.86-5.5c0.22-0.22,0.88-0.88,1.1-0.44c1.1,0.66,2.2,0,3.52-0.44
		c3.52-0.66,6.6-1.76,9.24-3.96c3.08-2.42,5.72-4.84,7.92-8.14l0.44-0.66c-0.44-0.22-0.66-0.44-1.1-0.44c-0.22,0-0.88,0.22-1.1,0.44
		c-3.08,0.88-5.72,2.42-8.36,3.96c0,0-0.22,0.22-0.44,0.22v-0.66c0.22-0.44,0.66-0.88,1.1-1.1c2.42-1.54,5.28-3.08,8.14-3.74
		c1.1-0.22,2.2-1.1,2.2,0.66c0,0.22,0.44,0.44,0.66,0.44c3.52,1.1,6.82,2.42,10.56,2.2c1.54,0,3.3-0.22,5.06-0.66
		c3.3-0.22,6.38-1.32,9.24-2.64c0.22-0.22,0.44-0.44,0.66-0.88c-0.22-0.22-0.66-0.66-0.88-0.66c-0.66-0.22-1.32-0.44-1.98-0.44
		h-1.98c-2.2-0.44-4.62-0.66-6.82,0c-0.22,0-0.44-0.22-0.66-0.22c0-0.22,0.22-0.44,0.44-0.44c0.22-0.44,0.66-0.88,1.32-0.88
		c3.52,0,7.26,0,10.78,1.1c0.44,0,1.1,0.44,1.1,0.66c0,1.98,1.32,2.86,2.42,3.74c1.76,1.76,3.52,3.3,5.28,4.62
		c2.64,1.54,5.72,2.64,9.24,2.64c0.44,0,0.88-0.22,1.32-0.44c-0.22-0.66-0.22-1.32-0.44-1.54c-1.32-1.1-3.08-2.2-4.62-3.52
		c-0.22-0.22-0.88-0.44-1.1-0.66c0.44,0,1.1-0.44,1.54,0c0.66,0,1.1,0.22,1.32,0.44c1.54,1.32,3.08,2.86,4.4,4.4
		c0.22,0.22,0.22,1.1,0,1.1c-1.54,1.76-2.2,3.74-3.52,5.5c-0.22,0.22-0.66,0.44,0,0.66c1.54,0.44,2.86,1.1,4.4,1.54
		c1.1,0.44,2.42,0.22,3.08-0.66c1.1-1.54,2.64-3.08,3.52-4.84c1.1-1.76,2.42-2.86,4.4-2.86h0.44l0.22-0.22
		c0.66-0.88,0.22-2.64-0.88-3.08c-1.54-0.66-3.08-1.32-5.06-1.54c-2.64-0.44-5.5-0.88-8.14-1.1c-0.22,0-0.44,0-0.66-0.22
		c0.22,0,0.44-0.22,0.66-0.22l1.54-0.22c-0.44,0-1.1,0-1.54,0c-2.42,0.22-4.62-0.44-5.94-2.2c-1.76-1.98-2.86-3.96-4.18-5.72
		c-1.1-1.54-1.54-3.3-0.44-5.06c0.44-0.66,0.22-1.32-0.44-1.98c-0.66-0.88-1.76-0.88-2.86-0.22c-3.96,2.64-7.7,5.06-11.66,7.48
		c-0.22,0.22-1.1,0.66-1.1,0.66c-1.1-1.32-1.76,0-2.42,0c-0.44,0.22-1.32,0.44-1.76,0.44c-3.52,0-6.82-1.32-9.9-2.86
		c-2.42-1.32-3.3-2.64-3.08-4.84c0.22-0.22,0-0.66-0.66-0.66c-1.98-0.44-2.2-0.44-3.3,1.54c-1.98,3.74-4.18,7.26-6.16,11.22
		c-0.22,0.44-0.66,0.88-0.88,1.1l-0.66-0.44c-0.22,0.44-0.44,0.88-0.66,1.1c-0.66,1.76-1.98,2.42-3.74,2.86
		c-2.2,0.88-4.84,0.88-7.04,1.32c-2.42,0.44-4.4,0.22-5.5-1.98c-0.22-0.22-0.66-0.44-0.88-0.44c-1.32,0-2.42,0.88-2.42,1.98
		s0.22,2.2,0.22,3.08c0.22,2.86,0.66,5.06,1.76,7.48c0.44,1.54,1.1,3.3,1.54,5.06c0.22,0.22,0,0.66-0.22,1.1
		c-0.66,2.42-1.98,4.84-2.42,7.04c-0.22,1.54-1.32,2.42-2.64,3.08c-1.54,0.66-1.76,2.64-0.44,3.3c0.66,0.44,1.54,0.66,2.42,0.66
		c2.42,0,4.62,0.44,7.04,0c1.54-0.22,3.08-0.22,4.62-0.22c0.66-0.22,1.32-0.22,2.2,0c0.22,0,0.22,0.22,0.44,0.22
		c-1.32,0.22-1.32,0.44,0,0.44c1.54-0.22,3.3,0.66,4.4,1.76c1.98,1.76,3.96,3.74,5.5,6.16c1.32,1.76,1.98,3.3,0.44,5.06l-0.44,0.66
		c0,0.22,0,0.44,0.22,0.66c0.88,1.1,2.2,1.54,3.52,0.66c2.64-1.32,5.06-2.86,7.7-4.18c2.2-1.1,4.4-1.98,6.38-3.08
		c0.22,0,0.44,0.22,0.66,0.22c0,0.22-0.22,0.22-0.22,0.44c-0.22,0-0.44,0.22-0.66,0.44h0.66c1.76-0.88,3.74-1.1,5.5-0.44
		c4.4,1.32,7.48,3.52,10.34,6.82c0.88,0.88,0.88,1.98,0.44,3.3c-0.22,0.22-0.22,0.22-0.22,0.44c-0.44,1.1,0.22,2.64,1.54,2.64
		c0.88,0.22,1.76,0,2.64-0.44c2.64-1.54,5.28-2.64,8.36-3.52c2.64-0.66,5.5-1.1,8.14-0.88c0.22,0,0.22,0,0.66,0.22
		c0,0-0.44,0.22-0.66,0.22c-0.66,0.22-1.54,0.22-2.42,0.44h-0.44c0.22,0.22,0.44,0.22,0.66,0.22h1.54c3.52-0.22,6.16,1.54,8.36,3.96
		c2.42,2.64,3.74,5.72,4.62,9.24c0.44,2.42,0.22,3.08-1.98,4.4c-0.66,0.22-0.88,0.66-0.88,1.32c0,1.54,0.88,2.42,2.86,2.86
		c6.16,1.1,10.56,4.84,14.74,9.24c0,0.22,0,0.66,0.44,0.88c-0.44,0-0.66-0.22-0.88-0.22l-0.66-0.44c0,0.22,0.22,0.44,0.22,0.66
		c1.32,1.32,1.76,2.86,2.2,4.4c0.44,1.76,0.22,3.3,0,5.06c-0.44,3.96-2.64,7.26-5.5,10.12c-0.44,0.66-0.88,0.66-1.32,0.44
		c-0.22-0.44-0.66-0.44-1.1-0.66c-1.54-0.44-2.64,0.22-2.64,1.98c0,0.66,0.22,1.1,0.44,1.54c2.2,4.18,3.3,8.8,3.3,13.2
		c0,1.76-0.44,3.52-0.66,5.5c0,0,0,0.22-0.22,0.44c0-0.22-0.22-0.44-0.22-0.66v-0.88c0-0.22,0-0.44-0.22-0.66v0.66
		c-0.22,3.96-2.86,6.16-5.94,8.14c-3.08,1.98-6.38,2.86-10.12,2.64c-1.32,0-2.2-0.22-2.42-1.32c-0.22-1.1-1.1-2.2-2.42-1.98
		c-1.32,0-1.76,1.1-1.98,2.2c-1.98,5.28-4.84,9.9-9.02,13.42c-0.44,0.22-0.88,0.22-1.1,0.44c0.22-0.22,0.44-0.66,0.44-0.88
		c0.22-0.22,0.22-0.44,0.22-0.66c-0.22,0.22-0.22,0.22-0.44,0.22l-0.44,0.44c-1.76,1.98-4.18,3.08-7.04,3.08
		c-4.18,0-7.7-1.54-11.44-4.18c-1.32-0.88-2.64-1.98-1.32-3.96c0.22-0.22,0-0.66,0.22-0.88c0.66-1.1-0.22-0.66-0.66-0.88
		c-1.32-1.32-2.42-0.66-3.74,0c-1.54,0.88-3.52,1.76-5.5,2.42c-3.3,1.32-6.6,2.2-9.9,2.42c-0.66,0-1.32-0.22-2.2-0.22
		c0.88-0.22,1.54-0.22,1.98-0.44c0.44,0,0.88-0.22,1.32-0.44c-0.44,0-0.88-0.44-1.32,0c-2.64,0.22-4.84-0.44-6.6-1.76
		c-3.52-2.2-5.5-5.5-7.04-9.46c-0.66-1.54-0.88-2.86,0.88-3.74c0.88-0.66,0.66-1.54,0.44-2.64c-0.22-0.66-0.88-1.1-1.98-0.88
		c-0.88,0-1.98,0.22-2.86,0.22c-3.3,0.22-6.6,0.44-10.12,0.44c-1.76,0-3.3-0.44-5.06-0.66c-0.22,0-0.22-0.22-0.66-0.44h0.88
		c0.22-0.44,0.44,0,0.66-0.44h0.66c-0.22,0-0.44-0.22-0.66-0.22c-1.98-0.44-3.96-0.88-5.06-2.42c-1.54-1.98-3.08-3.74-3.96-5.72
		c-0.66-2.2-0.88-4.4-1.1-6.6c-0.22-1.1,0-2.2,0.44-3.3c0.22-0.44,1.32-0.44,1.76-0.66c1.76-0.66,1.98-1.54,1.32-3.08
		c-0.22-0.44-0.88-0.88-1.32-1.54c-1.1-0.44-1.98-1.1-2.86-1.76c-4.4-3.08-6.82-7.48-8.14-12.32c-0.22-0.88,0-1.32,0.22-1.98
		c0,0.44,0.44,0.88,0.66,1.32c0,0.44,0.22,0.66,0.22,0.88c0-0.22,0.22-0.44,0.22-0.88c-1.54-4.18,0.44-7.92,3.52-11.44
		c1.1-1.32,2.42-2.86,3.3-4.4c0.44-0.66,0.44-1.54,0.66-2.2c0-1.32-0.44-2.64-1.54-2.64c-1.32,0-2.86,0-3.96,0.66
		c-2.64,1.1-4.62,3.3-6.16,5.28c-3.08,4.18-4.18,9.46-4.62,14.3c-0.22,2.86,0.22,5.5,0.66,8.14c0.66,2.42,1.98,5.06,3.52,7.26
		c0,0.44,0.22,0.44,0.44,0.66c0.22-0.22,0.44-0.66,0.44-0.88v-1.1c-0.88-3.08-0.66-6.16-0.88-9.24c0-4.84,1.32-8.58,2.86-12.98
		c0-0.22,0.22-0.44,0.22-0.44c0,0.22,0.22,0.22,0.22,0.44l-0.66,3.96c-0.88,3.3-1.54,7.04-1.76,11c0,2.86,0.66,5.72,1.1,8.36
		c0,0.88,0,1.76-0.22,1.76c-0.88,0.44-0.88,1.32-0.66,2.2c0,1.54,0,3.08,0.22,4.84c0.88,5.06,3.08,9.46,6.38,13.42
		c3.36,4.2,7.38,7.5,12.12,9.61c0.29,0.81,0.57,1.71,0.86,2.71c0,0.22,0,0.44,0.22,0.66c0,0,0,0.22,0.44,0.22
		c0.66,0,1.32-0.22,1.76-0.22c0.44-0.22,0.66-0.44,0.88-0.66c0.22,0,0.44-0.22,0.66-0.22c-0.22,0.22-0.22,0.44-0.22,0.44
		c-0.66,0.44-0.88,0.88-0.88,1.76c0.22,0.44,0.44,0.88,0.88,1.1c0.44,0,0.66,0,0.22,0.44c-0.66,0.66-0.88,1.32-0.66,2.2
		c0,0.22-0.22,0.22-0.22,0.44c0-0.22,0-0.22-0.22-0.22c0-1.32-1.1-1.76-1.54-2.64c-0.22-0.22-0.44-0.44-0.66-0.44
		c-0.66-0.22-1.1-0.66-1.1-1.32c0-0.22-0.22-0.22-0.22-0.44c-0.22,0.22-0.44,0.44-0.44,0.66c0.22,0.44,0.44,1.1,1.1,1.32
		c0.44,0.22,0.66,0.88,1.1,1.32c0.66,0.66,1.1,1.54,1.76,2.42c0.44,0.44,0.22,1.1,0.66,1.32c0,0,0,0.22-0.22,0.22
		c-0.44,0.22-0.88,0.66-1.54,0.88c-0.88,0-1.54,0-2.42,0.44c-0.22,0.22-0.44,0.22-0.44,0.22c-0.44,0.22-0.88-0.22-1.1,0.44
		c0.44,0.44-0.22,0.66-0.44,0.88c-0.22,0.66-0.66,1.1-0.66,1.54c-0.44,1.1-1.54,1.54-2.2,1.98c-0.22,0.22-0.44,0.22-0.66,0.22
		c-0.44,0-0.66,0.44-0.66,0.66s0.22,0.22,0.22,0.44h0.22c0.88-0.88,1.76-1.1,2.64-1.76c0.44-0.22,0.66-0.66,0.88-0.88
		c0.22-0.88,1.1-1.1,1.1-2.2c0-0.22,0.44-0.44,0.66-0.44c1.32,0.22,2.2-0.66,3.52-0.88c0.22,0,0.44-0.22,0.66-0.22
		c0,0,0,0.22,0.22,0.22h-0.22c-0.66,0.44-1.32,1.1-2.2,1.54c-0.44,0.22-0.66,0.66-0.88,0.88c-0.22,0-0.44,0.22-0.44,0.44
		c-0.88,0.88-0.88,1.98-1.32,3.08c-0.22,0.66,0,1.32,0.66,1.98s0.66,1.54,0,2.2c0,0.22-0.22,0.22,0,0.44c0,0.22,0.22,0.44,0.44,0.22
		c0.66-0.66,0.88-1.54,0.66-2.42c-0.22-0.44-0.44-0.88-0.88-1.1c-0.22-0.22-0.22-0.44-0.22-0.66c0.22-0.66,0-1.98,0.88-2.64
		c0.88-0.88,1.98-1.54,2.86-2.42c0.22,0,0.22-0.22,0.22-0.22h0.66c-0.22,0-0.22,0.22-0.22,0.22c0,0.22,0.22,0.22,0.22,0.44
		c0.22,0,0.44,0.22,0,0.22c-0.44,0-0.66,0.22-0.66,0.44c-0.88,0.66-0.88,1.76-0.88,2.86c-0.22,0.66,0,1.76,0.88,2.64
		c0.22,0.44,0.88,0.88,1.32,1.32c0.44,0.44,0.88,0.44,1.32,0c0.44-0.22,0.88-0.44,1.1-0.88c0.22,0,0.22-0.22,0.22-0.44
		c0.66-0.66,0.88-1.76,0.88-2.42c0-0.88,0-1.54-0.66-2.2c0,0,0.22-0.22,0.22-0.44v0.22c0.44,0.22,0.66,0.44,0.88,0.88l0.66,0.66
		c0,0.44-0.22,1.1,0.22,1.32l-0.44,0.44c-0.22,0.44-0.22,0.88-0.44,1.32s-0.22,1.1-0.88,1.32c0.22,0.44-0.44,0.88,0,1.1
		c0.22,0.22,0.22,0.66,0,0.88c0,1.32,0.44,2.64,1.1,3.74v0.66c0.22,0.22,0.44,0.22,0.66,0.22s0.22-0.22,0.22-0.44
		c0-0.22,0-0.44-0.22-0.44c-0.44-0.44-0.66-0.88-0.66-1.32c0-0.44,0-0.88-0.22-1.32c0-0.44,0-0.66-0.22-1.1
		c-0.22-0.22,0-0.88,0.22-1.1c0.44-1.32,0.88-2.64,1.54-3.96c0.22-0.44,0.22-0.66,0-1.1c-0.44-1.32-1.1-2.42-2.2-3.3
		c-0.22-0.22-0.44-0.44-0.66-0.88c-0.22-0.22-0.44-0.44-0.22-0.66c0-0.22,0.44-0.22,0.66,0c0.66,0.22,1.1,0.22,1.76,0
		c0.22-0.22,0.44,0,0.66,0c0.44,0.66,0.88,1.1,1.1,1.98c0,0.22,0.44,0.44,0.44,0.66c0,0.44,0.66,0.44,0.88,0.88
		c0,0.44,0.44,0.66,0.88,0.88c0.66,0.66,1.32,1.32,2.2,1.54h0.22h0.44c0,0,0-0.22-0.22-0.44l-0.22-0.22
		c-1.1-0.22-1.76-1.1-2.64-1.98c-0.88-0.88-1.32-2.2-2.2-3.3c0-0.22,0-0.88-0.22-0.88c-0.66-0.22-1.32-0.22-1.98-0.44h-1.32
		c-0.44,0-0.88-0.22-0.88-0.44c0-0.66,0.22-0.66,0.66-0.88c0.22,0,0.66-0.22,0.66-0.44c0.22-0.66,0.88-1.1,1.1-1.76
		c0.22-0.66,0.66-1.1,1.54-1.54c0.26-0.18,0.56-0.32,0.88-0.48c2.93,4.44,6.72,7.91,11.66,10.38c3.52,1.98,7.04,3.08,11,3.52
		c2.86,0.22,5.28,0.44,8.14,0c0.44-0.22,1.32-0.44,1.76-0.44c-0.44-0.44-1.32-0.88-1.76-1.1c-0.22-0.22-0.66-0.22-1.1-0.44
		c-4.84-0.88-9.24-3.52-14.08-5.5c-0.22,0-0.22-0.22-0.44-0.22c0.22,0,0.44-0.22,0.44-0.22c1.1,0.22,1.98,0.22,3.08,0.66
		c4.18,1.98,8.58,3.52,12.98,5.06c1.1,0.22,2.42,0.22,2.2,1.76c-0.22,0.22,0.22,0.44,0.44,0.44c1.54,0.88,2.64,1.76,4.18,2.64
		c5.94,2.42,12.1,3.08,18.48,1.98c7.26-1.1,13.86-4.4,18.48-10.34c-0.66-0.44-1.1-0.44-1.76-0.22c-4.62,2.2-9.24,4.18-14.08,4.84
		l-2.64,0.66c-0.22,0-0.22,0-0.44-0.22l0.22-0.22c1.76-1.1,3.3-1.32,4.84-1.54c4.4-1.32,8.58-2.86,12.54-4.62
		c0.22-0.22,0.66-0.44,1.1-0.44c0.66,0,1.32,0.22,0.66,1.1c0.66-0.22,1.1-0.44,1.76-0.22c2.2,0,4.18-0.66,6.16-1.1
		c5.5-1.98,10.12-5.06,13.64-9.46c4.62-5.28,7.04-11.44,7.92-18.26c0-0.88-0.22-1.98-0.44-3.08c0-0.22-0.22-0.44-0.44-0.66
		l-0.44,0.44c-0.22,0.44-0.66,0.88-0.66,1.32c-1.1,3.74-3.3,7.48-5.28,10.78l-3.52,5.28c0,0-0.22,0.22-0.44,0.22
		c0-0.22-0.22-0.44,0-0.66c0.22-0.88,0.66-1.98,1.32-2.86c0.44-0.66,0.88-1.32,1.32-2.2c2.2-3.52,4.4-7.26,5.72-11.22
		c0.22-0.88,0.66-2.2,1.76-2.64c1.76-1.1,1.76-1.1,2.2-1.98C1428.17,588.73,1429.49,581.03,1427.95,573.11z M1392.75,493.25
		c0.44,0,1.1,0,1.54-0.22c-0.22,0.44-0.22,1.1-0.66,1.54c-0.66,1.1-1.76,2.2-2.42,3.74c-0.22,0.44-0.44,0.88-0.88,1.1
		c0,0-0.22,0-0.44-0.22c-0.22-0.22-0.44-0.66-0.44-0.88c0.88-1.76,1.76-3.08,2.86-4.84C1392.3,493.47,1392.52,493.25,1392.75,493.25
		z M1373.6,478.95c0.44-0.66,0.88-0.66,1.54,0c1.54,2.42,3.08,4.84,5.28,6.38c0.44,0,0.44,0.22,0.66,0.44
		c-0.22,0.22-0.22,0.44-0.66,0.44c-0.66,0-1.32,0-1.76-0.22l-4.84-4.84C1373.17,480.27,1373.17,479.61,1373.6,478.95z
		 M1344.34,478.29c0.44,0,0.88,0.22,1.1,0.22c1.98,0.66,4.18,1.54,5.94,2.42c1.1,0.22,2.2,0.44,3.08,0.44l1.1,0.44
		c-0.22,0-0.44,0.66-0.88,0.66c-0.44,0.22-1.1,0.44-1.98,0.66c-2.64-0.66-5.28-1.54-8.14-2.64
		C1344.12,480.49,1344.12,478.51,1344.34,478.29z M1320.58,492.59c3.08-0.88,6.16-1.1,8.8-2.42c0.22,0,0.44,0,1.1,0.22
		c-0.88,0.88-1.54,1.98-2.42,2.2c-2.2,0.66-4.84,1.54-7.04,1.98c-0.44,0.22-1.32-0.88-1.32-1.54
		C1319.7,492.81,1320.36,492.59,1320.58,492.59z M1318.6,511.51c0,0.22-0.22,0.44-0.22,0.44c-0.22,0.88-1.32,0.66-1.98,0.88
		c0-0.44,0-0.88,0.22-1.32c0.22-1.32,0.66-3.08,1.32-4.4c0-0.44,0.22-0.88,0.44-1.1c0.22-0.22,0.66-0.22,0.88-0.22
		s0.22,0.44,0.22,0.44C1319.04,507.99,1318.82,509.97,1318.6,511.51z M1330.7,518.77h-0.44h-0.88c-2.86-1.1-5.72-2.86-7.7-5.5
		c-0.22-0.22-0.22-0.66-0.22-1.1c0.44,0.22,0.66,0.44,0.88,0.66c2.42,2.42,5.28,3.96,8.36,5.5c0.22,0,0.44,0.22,0.88,0.22
		C1331.14,518.77,1330.92,518.77,1330.7,518.77z M1340.16,526.69c0,0-0.22,0-0.44-0.44c-1.54-2.42-3.96-4.4-6.6-6.6
		c-0.22,0-0.22-0.44-0.44-0.66c0.22-0.22,0.66-0.22,1.1-0.44c0.66,0.22,1.76,0.66,2.2,1.1c1.98,1.54,3.3,3.08,5.06,4.62
		C1341.7,524.93,1341.26,526.25,1340.16,526.69z M1374.71,532.41c-0.88,0.88-0.88,0.88-1.98-0.44c-1.32-0.88-2.2-1.76-3.08-2.42
		c-1.98-1.54-3.74-2.42-5.5-3.3c-0.44,0-0.88-0.22-1.1-0.44c-0.22,0-0.22-0.22-0.22-0.44c0,0,0.22-0.22,0.44-0.22h1.32
		c0-0.22,0-0.22,0-0.22c1.32,0.44,2.42,0.66,3.52,1.32c2.2,1.32,4.4,2.86,6.16,4.18C1375.14,530.87,1376.02,531.31,1374.71,532.41z
		 M1409.91,552.65c-0.88,0-2.2,0.66-2.2-0.88c-0.22-4.84-2.64-8.58-5.94-11.88c-0.44-0.22-0.66-0.88-0.88-1.32
		c0.44,0.22,1.1,0.22,1.76,0.44c1.1,0.66,1.76,1.32,2.64,2.42c2.42,2.64,3.74,5.72,5.06,9.24v0.66
		C1410.34,551.99,1410.79,552.87,1409.91,552.65z M1297.04,607.21c-1.98-1.54-3.08-3.74-3.96-5.94c-0.88-2.2-1.1-4.62-1.76-7.04
		v-1.32c0.22-0.22,0.44-0.66,0.44-0.66c1.54,0,1.98,0.44,1.98,1.54c0,4.62,1.76,8.8,4.18,12.32c0.22,0.66,0.22,1.1,0.44,1.54
		C1297.92,607.43,1297.26,607.43,1297.04,607.21z M1301,609.41c0.66,0.22,1.76,0.44,2.64,0.88c0.22,0,0.22,0.44,0.44,0.66
		c1.1,0.88,1.98,1.76,3.3,2.64c2.2,1.76,4.84,3.52,7.48,5.5c0.44,0.44,0.88,1.32,0.88,1.32c-0.6,0.45-0.48,0.9-0.28,1.35
		c-0.23,0.11-0.64-0.27-1.04-0.47c-0.44,0-0.88-0.22-1.1-0.22c-0.64,0-0.87-0.21-1.28-0.62c0.49,0.04,0.99,0.09,1.5,0.18
		c0.22,0,0.66-0.22,0.66-0.22c0.22-0.22,0-0.44-0.44-0.66c0-0.22-0.22-0.44-0.66-0.66c-3.52-2.86-7.04-5.28-10.34-7.92
		C1301.88,610.73,1301.44,609.85,1301,609.41z M1310.02,620.63c-0.44,0-0.88,0.22-1.1,0.44c-0.66,0.22-1.54,0.44-1.98,0.44
		c-0.22,0-0.44,0-0.44-0.22c0-0.44-0.22-0.88-0.22-1.32c0-0.36-0.07-0.71-0.2-1.04c1.2,0.49,2.43,0.92,3.72,1.26
		c0.38,0.08,0.79,0.12,1.21,0.16c-0.04,0.02-0.07,0.04-0.11,0.06C1310.68,620.63,1310.46,621.07,1310.02,620.63z M1315.08,624.81
		c-0.44,0.44-0.66,0.88-1.1,1.1c-0.66,0.22-0.88,0.66-0.88,1.32c0,0,0,0,0,0.22l-0.22-0.22c0-1.1-0.22-1.76-0.88-2.42l0.44-0.22
		c0.66-0.22,1.1-1.1,0.88-2.2c0,0,0-0.22-0.22-0.44v-0.44c0.22,0,0.44,0,0.44,0.22c0.66,0.22,1.32,0.22,1.76,0.66
		c0.15,0,0.3,0.1,0.45,0.02c0.29,0.52,0.6,1.01,0.91,1.51C1316.32,624.23,1315.63,624.45,1315.08,624.81z M1328.28,630.09
		c-0.44-0.44-1.32-0.88-1.76-1.32c-2.25-1.69-4.17-3.69-5.51-6.15c0.28-0.09,0.57-0.17,0.89-0.23c0.44,0,0.44-0.22,0.44-0.44
		c-0.22-0.22-0.44-0.22-0.66,0c-0.34,0-0.65,0.04-0.95,0.11c-0.13-0.25-0.25-0.51-0.37-0.77c-0.44-0.66-1.1-1.32,0-1.76
		c1.54-0.66,1.32-1.1,1.76,0.66c1.54,3.08,3.08,5.72,5.94,7.7c0.22,0.22,0.66,0.44,0.88,0.88c0.44,0.22,0.44,0.44,0.66,0.88
		C1329.38,629.87,1328.72,629.87,1328.28,630.09z M1370.96,638.89c-1.1,0.44-2.64,0.66-3.3,0.88c-4.84-0.44-8.58-1.76-12.1-3.96
		c-0.66-0.44-0.44-0.44-0.22-1.1c1.1-1.32,1.32-1.54,2.86-0.44c3.52,3.08,7.7,3.96,12.1,3.96c0.22,0,0.44,0,0.44,0.22
		c0.22,0,0.44,0,0.66,0.22C1371.18,638.67,1371.18,638.89,1370.96,638.89z M1409.46,620.19c-0.66,0.88-1.32,2.2-1.98,2.64
		c-2.86,2.2-6.16,3.3-9.24,4.18h-1.32c-1.98,0-2.2-0.22-2.2-1.54c0.22-0.66,0.44-0.88,1.32-0.88c1.1,0,2.64,0,3.74-0.22
		c2.64-0.44,5.06-1.98,7.26-3.52c0.88-0.44,1.32-0.66,1.76-1.1c0.22,0,0.66,0,0.88-0.22
		C1409.68,619.75,1409.68,619.97,1409.46,620.19z M1420.03,592.69c-0.44,0.44-0.66,0.44-1.32,0c-0.88-0.88-1.32-1.1-0.22-2.2
		c2.64-2.64,3.96-5.94,4.4-9.46c0-1.1,0.22-1.98,0.22-3.3c0.22-0.22,0.22-0.44,0.44-0.44c0,0,0.22,0.22,0.44,0.22
		c0.22,1.32,0.44,2.2,0.66,2.86C1423.99,584.99,1422.88,589.17,1420.03,592.69z"/>
	<path class="st0" d="M1408.8,478.07c0.22,0.22,0.22,0.22,0.22,0.44c1.1,1.54,2.2,3.3,3.08,5.06c1.76,4.18,3.08,8.14,3.08,12.98
		c0,2.64,0.66,4.84,0.88,7.48c0,0.66,0,1.76-0.22,2.42c0,0.22-0.22,0.44-0.44,0.44l-0.66-0.44c-0.44-1.98-0.88-3.74-1.32-5.5
		c-0.22-0.88,0-1.54,0-2.42c0-1.54,0.44-2.86,0.22-3.96c-0.88-5.28-2.42-9.9-5.06-14.52c-2.86-4.4-9.02-6.16-13.42-2.64l-0.66,0.66
		c-0.22,0.88-0.44,1.98-0.66,3.08c-0.22,1.32,0.44,2.42,1.32,2.64c1.98,0.44,3.74,1.32,5.5,1.98c2.64,1.1,5.28,2.64,7.48,5.06
		c2.64,3.52,3.74,7.26,3.96,11c0.22,2.2,0.22,4.62,0.44,6.6c0.22,1.76,1.32,3.08,3.08,3.52c1.32,0.44,2.42-0.22,3.52-1.1
		c2.2-2.42,3.08-5.06,2.86-8.36c-0.22-3.96-0.88-7.92-2.42-11.88c-2.2-5.28-5.5-9.24-10.12-12.32
		C1409.46,478.07,1409.03,478.07,1408.8,478.07z"/>
	<path class="st0" d="M1316.18,608.53c2.2,0,4.18,0.22,6.16,0.22c1.32,0,2.42-0.22,3.74-0.22c4.4-0.22,8.58,0.22,13.2,1.1
		c2.64,0.44,4.84,1.32,6.82,3.08c1.32,0.88,1.32,0.66,3.08,0c0.44-0.22,0.88-0.88,1.32-0.88c0.66-0.22,0.44-0.44,0.22-0.66
		c-1.54-2.42-5.5-3.74-8.36-3.08c-1.54,0.44-3.08,0.44-4.62-0.88c-3.08-2.42-6.16-4.18-9.46-5.94c-1.54-1.1-3.08-2.2-5.06-1.98
		c-2.42,0-4.4,0.66-6.38,1.98c-0.66,0.44-1.54,1.1-1.76,1.76c-0.44,1.1-0.44,2.42-0.22,3.74
		C1314.86,607.43,1315.08,608.31,1316.18,608.53z"/>
	<path class="st0" d="M1364.14,458.49c0.44-0.88,1.1-1.32,1.76-1.76c0.22,0,0.66-0.22,0.88-0.44c-0.22-0.22-0.44-0.44-0.66-0.44
		c-2.2-0.88-4.62-1.32-7.26-1.1c-2.42,0-4.18,1.1-5.72,2.42c-1.54,1.32-2.64,2.42-4.62,1.54h-0.66c-4.18,1.1-8.36,1.98-12.54,3.08
		c-1.76,0.44-3.08,1.1-4.4,2.2c-2.2,1.54-2.86,3.96-3.08,6.82c-0.22,0.88,0,1.98,0.66,3.08c1.32,1.76,2.64,2.2,4.18,2.64
		c0.44,0.22,0.88-0.22,1.32-0.44l0.66-1.32c1.32-1.32,2.2-2.64,3.52-3.74c0.88-1.54,1.76-3.3,3.08-4.62
		c3.96-4.18,9.24-6.6,14.96-7.7c1.98-0.22,3.74,0,5.72,0.44C1362.82,459.37,1363.26,459.37,1364.14,458.49z"/>
	<path class="st0" d="M1372.5,457.39c0,0,0.22,0.22,0.44,0.22c4.84,0.66,9.46,2.2,14.08,3.96c2.64,1.1,5.72,1.54,9.02,1.54
		l1.54,0.22c4.18,0.88,6.6,3.74,8.8,6.82c2.2,2.64,3.52,5.94,5.94,8.36l0.66,0.44c0.22-0.22,0.22-0.44,0.22-0.88
		c0-0.66,0-1.32-0.22-1.98c-0.88-3.52-2.64-7.04-5.06-9.68c-2.86-3.52-6.38-5.94-9.9-7.92c-5.06-2.2-10.12-3.3-15.18-3.08h-3.96
		c-1.98,0-4.18,0.66-5.94,1.54C1372.72,456.95,1372.5,457.17,1372.5,457.39z"/>
	<path class="st0" d="M1300.12,482.03l-0.66,3.08c0,0.22,0,0.44,0,0.66l0.44-0.44c2.86-4.84,6.82-8.14,10.56-11.66
		c1.76-1.76,3.74-3.52,4.84-5.72c0.88-1.76,1.98-3.52,3.74-4.84c1.98-1.32,4.84-2.42,7.7-2.86c1.76-0.22,4.18-0.22,5.72-1.76
		c0.44-0.44,0.88-1.1,1.54-1.54c-0.66,0-1.32-0.44-1.98-0.44c-3.3,0-6.16,0-9.68,1.1c-4.84,1.98-9.02,4.4-12.54,8.14
		c-3.96,3.96-6.82,8.58-8.8,13.64c-0.66,0.88-1.1,1.1-1.76,1.76C1299.9,481.15,1300.12,481.37,1300.12,482.03z"/>
	<path class="st0" d="M1332.68,460.91c0.22,0,0.44,0,0.66-0.22c5.06-1.32,9.9-2.64,14.74-3.52c1.98-0.22,3.52-0.66,5.28-1.76
		c2.42-1.76,5.06-2.86,8.58-2.42c2.64,0.22,4.84,0.66,7.48,1.76c0.44,0.22,1.1,0.44,1.76,0.44c0.88,0,2.2-0.22,3.3-0.22
		c0.22,0,0.22-0.22,0.66-0.22c0-0.22,0-0.44-0.44-0.44c-1.1-0.66-2.2-1.54-3.74-2.42c-3.74-1.76-7.92-2.86-12.32-2.64
		c-1.98,0.22-3.74,0.22-5.28,0.44c-6.16,1.1-11.22,3.52-16.28,6.6c-0.66,0.44-1.54,0.88-1.98,1.76c-0.88,0.66-1.32,1.54-1.98,2.42
		L1332.68,460.91z"/>
	<path class="st0" d="M1362.17,468.39c0.44,0,0.66,0,0.88,0.44c0.22,0.66,0.88,1.1,1.1,1.54c0.44,0.88,1.32,1.32,1.98,0.88
		c2.2-1.1,4.62-1.76,6.6-3.08c3.52-2.2,7.26-2.42,11-3.08c1.1,0.22,2.2,0.44,3.3,0.44c4.62,0.44,9.24,1.76,12.54,6.16
		c0.22,0.22,0.44,0.44,0.88,0.44c1.32,0.22,2.86,0.44,4.4,0.88c0.66,0,0.66,0,0.44-0.66c-1.1-2.2-2.64-3.96-4.62-5.28
		c-1.98-1.54-4.18-2.86-7.04-2.64c-0.66,0.22-1.32,0-1.98,0.22c-1.54,0-3.08,0-4.4-1.54c0-0.22-0.44-0.22-1.1-0.44
		c-3.96-1.54-8.14-2.42-12.32-3.3c-1.1-0.22-2.64-0.66-3.96-0.22c-4.4,0.88-6.6,3.52-7.7,7.48c-0.22,0.44-0.22,1.1-0.22,1.54
		C1361.94,468.39,1362.17,468.39,1362.17,468.39z"/>
	<path class="st0" d="M1401.76,601.49c0.88,1.32,2.2,1.98,3.74,1.76c3.08,0.22,4.4-1.1,3.52-3.74c-0.44-2.64-0.44-5.5-2.64-7.48
		v-0.22c-1.1-2.86-2.2-5.5-3.52-8.36c-1.32-2.86-2.86-5.72-3.3-9.02c0-1.54-0.88-1.98-2.2-2.64h-0.88c-0.66-0.44-1.1-0.22-1.1,0.66
		c0.44,2.42,0.44,5.06,3.08,6.82c1.32,0.88,2.64,1.98,1.54,3.96v1.1c0.22,3.08-0.44,5.94-1.32,8.58c-0.22,0.88-0.22,1.76,0,2.64
		C1399.34,597.53,1400.45,599.51,1401.76,601.49z"/>
	<path class="st0" d="M1397.37,592.47v-0.44c0.66-1.76,1.1-3.52,1.32-5.5c0.22-2.64,0.66-5.5-2.2-7.26
		c-0.44-0.22-0.44-0.44-1.1-0.66c-2.2-1.98-1.98-4.62-1.76-7.26c0-0.88,0-1.1-0.66-1.54c-0.66-0.44-1.54-0.88-1.32-1.76
		c-0.22,0.66-0.66,1.32-0.66,1.76c-1.1,3.74-0.88,7.26,0.44,10.78c1.1,2.42,2.42,5.06,3.52,7.92c0.22,0.44,0.88,1.32,0,1.76
		c1.32,0,1.32,1.1,1.98,1.76C1396.92,592.25,1397.14,592.47,1397.37,592.47z"/>
	<path class="st0" d="M1409.46,565.19c-3.08-1.76-5.28-3.52-8.58-4.18c-4.18-1.1-8.36-2.64-12.54-3.74
		c-1.32-0.44-2.86-0.88-3.96-1.54c-1.1-0.44-1.76-1.76-2.64-1.98c-0.88,0-1.98,0.88-2.86,1.1c-1.1,0.88-1.1,0.88-0.22,1.76
		c2.2,1.76,4.4,3.08,7.92,2.2c1.1-0.44,2.2-0.22,3.3,0.88c2.42,2.64,4.18,5.06,6.16,7.92c0.44,0.88,1.32,1.54,2.42,1.98
		c1.76,0.88,3.74,1.54,6.38,1.1c0.44,0,1.76,0.44,2.2,0c1.32-0.88,1.98-1.98,2.86-3.08
		C1410.56,566.73,1410.12,565.63,1409.46,565.19z"/>
	<path class="st0" d="M1317.5,522.95l-7.92-1.32c-3.08-0.66-5.94-2.86-8.58-5.06c-1.98-1.98-3.3-4.18-4.18-6.6
		c-1.54-4.62-1.76-9.24,0.44-13.64c0.22-0.22,0.44-0.66,0.22-0.66c-0.66-1.32-0.88-2.64-0.88-4.4c0,0-0.22-0.22-0.22-0.44
		c-0.22,0-0.44,0.22-0.66,0.44c-0.22,0-0.44,0.44-0.66,0.66c-1.76,3.08-3.08,6.16-2.86,9.9c-0.22,1.98,0.22,4.18,1.54,5.94
		c1.54,1.98,2.64,3.96,2.86,6.16c0,0.66,0.22,1.32,0.44,1.76c1.76,5.5,5.06,9.68,9.02,13.86c0.88,0.88,1.98,1.32,2.86,1.76
		c3.3,1.1,6.38,0.66,9.24-1.54c0.88-0.66,1.1-1.54,1.32-2.42v-2.64C1319.26,523.17,1319.04,523.17,1317.5,522.95z"/>
	<path class="st0" d="M1394.5,568.49c0-0.44,0-0.66-0.22-0.88c-1.54-2.42-3.52-4.84-5.5-6.6c-0.88-0.88-1.76-1.32-3.08-0.88
		c-2.64,0.44-5.28,0.44-7.48-1.32c-0.44-0.44-1.1-1.1-1.76-1.54c-0.66-0.66-1.32-1.1-2.42-0.88c-0.66,0.22-1.54-0.22-2.42-0.44
		c1.32,2.64,3.74,4.4,5.94,6.38c2.2,2.2,5.28,2.86,8.36,3.74c2.2,0.66,3.96,0.88,5.72,1.98c0.88,0.22,1.54,0.22,2.2,0.44H1394.5z"/>
	<path class="st0" d="M1382.4,541.43c-3.08,0.66-5.94,1.1-8.8,2.86c-1.1,0.66-2.86,1.1-4.18,1.54c-2.64,0.44-5.06,1.1-7.92,1.54
		c-3.96,0.66-7.26,0.66-10.78-0.88c-0.22-0.22-0.66-0.22-0.66-0.22c-0.22,1.76-2.2,1.54-3.08,2.2c-0.22,0.22-0.44,0.44,0,0.66
		c3.52,1.76,7.04,3.52,11,1.1c1.54-1.1,3.3-1.98,5.28-0.44c2.86,0.44,5.28,0.88,8.14,1.54c1.76,0.44,3.3,1.1,4.62,1.32
		c0.88,0,1.54,0,1.98-0.22c1.76-0.88,3.52-1.54,4.84-2.86c2.2-1.98,2.86-3.96,1.98-6.6C1384.38,541.87,1383.29,541.21,1382.4,541.43
		z"/>
	<path class="st0" d="M1356.22,610.29c0.22,0.22,0.22,0.22,0.22,0.44c0,0,0-0.22,0-0.44H1356.22z"/>
	<path class="st0" d="M1346.76,625.69c1.54,0,6.38-1.32,7.48-2.42c0.88-0.44,1.98-1.32,2.86-1.76c3.96-1.76,7.7-3.74,11.22-5.28
		c1.76-0.88,3.74-1.32,5.72-1.1c1.54,0.22,1.76-0.44,1.76-1.32c0.22-0.66,0.66-1.1,0.88-1.98c0.22-0.22,0-0.66,0-0.66
		c-3.08-1.1-6.6,0.44-8.58,3.08c-0.66,0.88-1.32,1.54-2.2,1.54c-0.88,0-1.54-0.22-2.2-0.22c-1.32-0.22-2.42-0.22-3.74-0.22
		c-2.42-0.44-4.4-0.66-6.38-0.88c-3.08-0.44-7.92,2.64-9.24,5.5c-0.22,0.44-0.66,1.1-0.66,1.54c0.22,0.88,0.66,1.76,0.88,2.86
		C1345,625.25,1345.44,625.91,1346.76,625.69z"/>
	<path class="st0" d="M1373.38,554.41c0.44,0,0.66-0.22,0.88-0.44c-0.44-0.22-0.66-0.44-0.88-0.44l-10.12-2.2
		c-1.76-0.44-3.74-0.44-5.72,0.44c-1.98,1.1-3.96,1.98-6.6,1.32c-1.32-0.22-2.64-1.1-3.96-1.32c-2.2-0.44-3.52-2.86-5.72-1.54
		c-0.44,0-1.54-1.1-1.76,0c-0.22,0.44,0.66,0.88,0.88,1.54c0.44,0.22,0.66,0.66,1.1,0.66c4.4,3.3,9.9,4.62,15.4,5.06
		c1.32,0,2.64-0.44,3.96-0.44c3.3,0,6.16-0.66,9.46-1.32c0.44-0.22,0.88,0,1.32,0.22C1371.62,554.63,1372.72,554.85,1373.38,554.41z
		"/>
	<path class="st0" d="M1316.62,576.85c-1.1-0.88-2.2-2.2-3.3-3.08c-0.66-0.66-1.54-1.32-1.98-1.98c-1.1-0.88-1.98-0.44-2.42,0.88
		c-0.44,1.1-0.88,2.2-1.1,3.52c-0.22,0.22-0.22,0.44,0,0.44c0.66,0.44,1.54,0.88,2.2,1.54c0.22,0.22,0.44,0.22,0.66,0
		c0.66-0.66,1.54-2.42,0.88-3.52c0-0.44-0.44-0.66-0.66-1.1v-0.66c0.22,0,0.44,0,0.44,0.22c1.1,0.88,1.54,1.76,2.42,2.64
		c0.66,0.44,0.44,0.88,0,1.32c-0.22,0.44-0.44,3.74-0.44,3.96v0.22l3.3-3.08C1317.06,577.51,1317.06,577.29,1316.62,576.85z"/>
	<path class="st0" d="M1345.67,601.93c-4.18-1.32-8.8-2.42-13.42-3.3c-0.66,0-0.88,0-1.1-0.88c-0.88-3.96-3.3-6.82-6.16-9.68
		c-2.64-2.64-5.28-4.18-8.8-5.5c-0.88-0.22-1.76-0.88-2.86-1.32c-0.66-0.22-1.54-0.22-2.2-0.44c-0.22,0-0.44,0-0.66-0.22
		c0,0.22-0.22,0.66,0,0.88c0.66,1.32,1.32,3.3,2.42,4.62c1.54,2.42,3.3,3.74,6.16,3.52c0.44-0.44,0.88,0,1.32,0.22
		c2.2,0.22,3.52,1.98,4.84,3.52c1.76,1.54,2.64,3.74,5.28,3.96l0.44,0.44c-0.22,0.44-0.22,0.66-0.44,0.88h-1.98
		c-0.22,0-0.44,0.44-0.66,0.44c0,0.22,0.22,0.22,0.44,0.44c3.3,2.2,6.82,4.4,10.34,6.38c1.1,0.88,2.42,1.32,3.74,0.88
		c3.08-0.88,5.94-0.66,8.8,1.76c0.44,0.44,1.32,0.88,1.98,1.32c0.44,0.22,0.88,0.44,1.32,0.44c0.66,0.44,1.32,0,1.76,0
		c-0.44-1.76-1.32-2.86-2.42-4.18C1351.38,604.35,1348.74,602.81,1345.67,601.93z"/>
	<path class="st0" d="M1380.42,608.75v1.1c0.44,0,0.88,0,1.1-0.22l5.5-3.52c2.42-1.54,3.74-3.3,3.3-6.38
		c-0.22-2.2,0.44-3.52,2.2-5.06l1.32-0.88c0.66-0.44,1.1-1.1,1.1-1.98c-0.22-0.44-0.22-1.1-0.22-1.54c-2.64,0.88-4.84,2.2-6.6,4.18
		c-1.98,2.2-2.86,4.84-3.96,7.48c-1.1,1.54-1.76,3.08-2.64,4.84c-0.22,0.22-0.66,0.22-1.1,0.22
		C1381.52,607.65,1380.87,608.09,1380.42,608.75z"/>
	<path class="st0" d="M1380.42,606.99c-3.3-1.98-7.04-1.32-10.78-1.1c0,0-0.22,0-0.22,0.22c-3.52,1.54-7.26,2.86-10.78,4.62
		c-0.66,0.22-1.54,0.66-2.2,0c0,1.1-0.66,1.32-1.32,1.76c-0.22,0.22-0.22,0.44-0.44,0.44c0.22,0.22,0.44,0.22,0.66,0.22
		c0.22,0.22,0.66,0.22,0.88,0.44c2.42,0.22,4.62,0.66,6.82,0.66c1.76,0,3.52-0.22,4.84-1.54c0.44-0.66,0.88-1.1,1.54-1.76
		c1.32-1.76,3.08-2.2,5.06-2.2C1376.9,608.97,1379.1,608.97,1380.42,606.99z"/>
</g>
</svg>
