<?xml version="1.0" encoding="utf-8"?>
<!-- Generator: Adobe Illustrator 27.2.0, SVG Export Plug-In . SVG Version: 6.00 Build 0)  -->
<svg version="1.1" xmlns="http://www.w3.org/2000/svg" xmlns:xlink="http://www.w3.org/1999/xlink" x="0px" y="0px"
	 viewBox="0 0 1920 1080" style="enable-background:new 0 0 1920 1080;" xml:space="preserve">
<style type="text/css">
	.Schlagschatten{fill:none;}
	.Abgerundete_x0020_Ecken_x0020_2_x0020_Pt_x002E_{fill:#FFFFFF;stroke:#1D1D1B;stroke-miterlimit:10;}
	.Interaktiv_x0020_X_x0020_spiegeln{fill:none;}
	.Weich_x0020_abgeflachte_x0020_Kante{fill:url(#SVGID_1_);}
	.Abenddämmerung{fill:#FFFFFF;}
	.Laub_GS{fill:#FFDD00;}
	.Pompadour_GS{fill-rule:evenodd;clip-rule:evenodd;fill:#51AEE2;}
	.st0{fill:none;}
	.st1{fill:#0000FF;}
</style>
<linearGradient id="SVGID_1_" gradientUnits="userSpaceOnUse" x1="6408.4189" y1="4526.4546" x2="6409.1265" y2="4527.1616">
	<stop  offset="0" style="stop-color:#E6E6EB"/>
	<stop  offset="0.1754" style="stop-color:#E2E2E7"/>
	<stop  offset="0.3552" style="stop-color:#D6D6DB"/>
	<stop  offset="0.5371" style="stop-color:#C2C3C6"/>
	<stop  offset="0.7204" style="stop-color:#A5A7A9"/>
	<stop  offset="0.9031" style="stop-color:#818485"/>
	<stop  offset="1" style="stop-color:#6B6E6E"/>
</linearGradient>
<g id="Ebene_1">
	<rect class="st0" width="1920" height="1080"/>
	<rect x="0" class="st0" width="1920" height="1080"/>
</g>
<g id="Ebene_2">
	<g>
		<path class="st1" d="M120.15,499.02l-0.66-1.32l-0.44-1.54v-0.66l-0.66-0.88l-0.22-1.32l-0.88-0.22l-0.44-1.1l0.44-0.88l-1.1-1.54
			l0.22-0.88l-0.44-0.88l-0.22-0.88l-0.44-1.1l0.66-1.1l0.22-0.88l-0.66-0.66l0.66-1.54l0.22-0.88l-0.88-0.88l0.66-1.1l0.22-0.88
			v-1.98l0.44-0.88v-1.1l0.44-1.32l0.22-0.66l0.22-1.54l0.44-0.66l0.44-0.44l0.66-0.66l-0.44-1.54l0.88-1.1l0.44-0.88l0.44-0.44
			l0.88-1.32l0.44-0.22l0.44-0.88l0.66-1.1l0.88-0.22v-1.76l1.1-0.66l1.32-0.66l0.88-0.66l0.66-1.1l0.66-0.66l1.54-0.44l0.44-0.88
			l1.32-0.66l1.32-0.22h1.54l0.66-0.44h0.88l1.32-0.66h0.44h1.32l1.1-0.44l1.1-0.66h1.54l0.66-0.44h0.88l0.22,0.22h1.32h1.32
			l1.1-0.66l1.76,0.22l0.88-0.44l1.32,0.22l0.44,0.22l1.32,0.44l0.88,0.22h1.1l0.66,0.88l1.1,0.22l1.54,0.66l0.88,0.44h0.88
			l0.88,0.66l0.44,0.66l1.1,1.32l0.66,0.22l0.88,0.22l0.44,1.32l0.22,0.44l1.54,0.66l0.66,0.22l0.44,1.32l1.54,1.54l0.66,1.54
			l0.44,0.66v0.44l1.54,0.66v0.88l0.44,1.1l0.44,0.44l0.66,1.1l0.44,0.88l0.44,1.32l0.88,1.32l0.44,0.44v1.1l0.44,0.66v1.1
			l0.22,0.66l0.22,1.76v0.22l0.22,1.32l0.22,0.66v0.66l0.22,1.32l0.22,1.76v0.66l-0.22,1.32l-0.22,0.66l0.66,0.88l-0.66,1.76
			l-0.22,0.44l0.66,1.98l-1.1,1.76l0.22,0.44l-0.22,1.32l0.66,1.1l-0.22,0.88l1.1,0.22l0.22,1.32l0.88,1.1l1.1,1.1l1.1,1.32h0.66
			l0.22,0.66l0.44,1.54l0.88,0.44l0.66,0.88l0.22,1.54l0.44,0.44l0.88,0.88v0.88l0.66,0.44v1.32l0.66,1.32l0.22,0.88v0.44l0.22,1.98
			l0.22,0.66l0.44,0.22l0.66,1.32l0.22,1.32l-0.22,0.44l0.44,1.76l0.44,1.54l-0.44,0.88l-0.22,1.98l-0.22,1.54l0.88,0.88v0.88
			l0.22,0.44l0.88,0.88l1.1,1.1l0.88,0.66l1.1,1.1l0.66,1.1h0.66l1.1,0.88l1.1,1.1l0.44,1.1h0.88l0.66,0.66l1.1,1.54l0.44,0.44
			l0.44,0.88l1.32,0.88v1.76l1.32,0.44l-0.22,1.1l0.44,0.44l0.66,1.1l0.44,0.88l0.22,0.88l0.66,1.54l-0.44,1.32l0.22,0.88l0.22,0.44
			v1.32l0.44,1.1v1.32l0.66,0.22v0.66l0.22,2.2l-0.66,1.1l0.22,1.32l0.22,0.66l-0.44,2.2l0.88,1.1l0.44,1.1l0.66,0.66l0.44,0.44
			l1.54,0.66l0.22,0.22l1.54,1.32l0.88,0.66l0.66,1.1l0.88,1.1h0.66l0.66,1.1l0.88,0.88l0.66,0.66l0.22,0.88l0.88,0.66l0.22,0.88
			v0.88l1.76,0.88l1.1,1.54l0.88,0.22l0.66,0.88l0.88,0.66l0.66,0.22l1.1,0.22l1.32,0.22h1.1l0.66,0.44l0.66-0.44l1.98,0.66
			l0.44-0.22l1.32,0.44l1.32,0.22l1.1,0.22l0.44,0.22l0.66,0.44h1.32l1.54-0.44l0.66,0.44h0.66h1.32l0.88-0.88l0.88-0.22l1.1-0.22
			l0.44-0.66h1.1l1.32-0.66l1.32-0.66l0.88-0.44l0.66-0.88h1.54l1.1-0.22l0.66-0.44l2.2-0.44l1.1-0.22l1.76,0.22l0.88-0.22
			l1.54-0.88l0.44-1.1l0.44-0.88l0.66-1.1l0.66-0.88l0.44-1.1l0.88-1.32l-0.44-1.32l0.88-0.66l0.22-0.66l1.1-1.32l0.22-0.88
			l0.44-0.88l0.44-0.88l0.88-1.1l0.22-0.22l0.88-0.66l1.32-0.88l0.66-0.88l0.22-1.1l1.1-0.22l0.66-0.88l0.88-1.54l1.1-0.44
			l1.54-0.66l0.88-0.66l0.44-0.66l0.44-0.66l1.32-0.66l0.44-0.22h1.32l1.1-0.88l0.44-0.44l0.88-0.88l0.22-0.66l1.32-0.66l0.22-0.44
			v-1.54l0.44-1.54v-1.32l0.66-0.44l-0.44-1.32l0.88-0.66l-0.22-0.88l0.66-1.54l0.44-0.88l0.44-0.44l-0.44-1.32l0.44-1.32h1.1
			l-0.44-1.54l0.88-1.1v-0.22l0.66-1.76l0.88-0.66l0.66-0.44l0.88-1.1l0.66-0.88l0.22-0.44v-1.32l0.88-0.66l1.32-0.66l0.44-1.98
			l0.66-0.66l0.66-1.1l0.22-1.32l0.66-1.32l-0.66-0.66l0.44-0.66v-1.54l0.22-1.32v-1.76l-0.88-0.88l0.44-0.44l-0.44-1.54l0.22-0.88
			l-0.22-1.32l0.22-0.44v-1.1v-1.1l0.66-0.44v-1.1l0.22-1.54l0.22-0.88l-0.22-0.88l0.44-1.32v-0.44l0.44-1.54v-0.44l0.66-0.88
			l0.22-0.88v-1.1l0.88-0.88l0.88-1.1l0.22-0.22l-0.22-1.54l0.44-0.88l0.44-1.1l0.88-0.66l0.44-0.88l0.22-1.54l-0.22-0.88
			l-0.22-1.32l-0.66-1.1l-0.22-1.32l-0.66-1.1l-0.22-0.66l-0.22-1.32l0.22-0.44l-0.22-1.1l-0.44-1.32l0.66-0.88l-0.44-1.1l0.44-1.32
			l-0.22-0.22v-1.32l-0.44-1.32l0.22-0.88l0.44-0.88v-0.88l0.22-1.76l-0.22-0.88l0.22-0.66l0.66-1.32l0.22-0.88v-1.1l0.44-0.22
			l0.66-1.1l-0.22-1.1l1.32-0.88l0.22-0.88l-0.44-1.32l0.88-0.22l0.22-0.88l0.66-1.1l1.1-1.1l0.66-0.88l0.44-0.22l0.88-1.1
			l0.22-0.44l0.44-0.66l1.54-0.44l0.66-1.54l1.54-0.66l0.66-0.44l1.54-0.44l0.22-0.44l1.54-1.1v-0.66h1.32h0.66l0.88-0.44l1.76-0.44
			l0.88-0.66l1.1,0.66l0.22-0.88l1.1-0.44l0.88,0.22l1.54-0.44h1.54l0.88,0.22l0.44-0.44l1.32,0.66l0.88-0.22l0.66,0.44h1.54
			l1.1,0.44l1.98,0.66l1.54-0.22l1.1,0.44l1.32-0.22l1.32,1.1l0.66,0.22l1.1,0.44l0.66,0.22l1.32,0.22l1.1,1.1h0.66l1.1,1.54
			l0.88,0.44l0.44,0.88l0.66,1.1l1.1,1.1l0.66,0.22l0.88,0.88v1.1l0.88,0.88l0.44,0.44l0.44,1.54l1.1,0.66l-0.22,0.44l0.22,1.54
			l0.88,0.66l0.44,1.1l-0.22,0.22l0.22,1.76l0.88,0.88l0.44,0.88v1.32l0.44,1.1l-0.44,0.88l0.44,0.66l0.66,2.2l-0.44,1.54
			l-0.44,0.88l0.22,0.66l0.66,0.88l-0.22,1.1l-0.22,1.32l-0.66,0.88l0.44,1.1l-0.22,1.1l-0.22,1.32l0.22,0.44l-0.44,1.54v0.88
			l-0.44,0.88l-0.66,1.1l-0.66,0.66l-0.22,1.1l0.22,0.66l-1.54,1.98l-0.44,0.66l0.22,1.54l-0.66,0.88l0.22,1.32l0.44,0.44v1.98
			l0.44,1.1l0.66,1.76v0.88l1.32,3.3l0.22,1.32v0.44l-0.22,0.44v1.54l0.22,0.88l-0.66,1.54l0.44,0.88l-0.88,0.66l0.66,1.1
			l-0.88,1.98l-0.22,0.88l-0.22,1.54l0.22,0.88l-0.66,1.1h-0.66l-0.22,1.32l-0.44,1.54l-0.22,0.88l0.22,1.1l-0.88,0.44l-0.22,1.1
			l-0.22,0.66l-0.88,0.88l-0.66,0.88l-0.66,1.32l-0.66,0.66l0.22,0.66l-1.54,0.44l-0.88,1.54l-0.88,1.1l-1.32,1.1l-0.44,0.88v0.88
			l-0.44,1.1v0.88l0.44,1.32l-0.22,1.54l0.22,0.66v1.54l0.22,1.76v0.88v1.32l0.22,1.32l-0.44,1.1l0.44,0.22l-0.22,1.32l-0.22,0.66
			v1.32v0.44v1.32l-0.88,1.1l-0.88,1.32v0.88l-0.22,0.44l-0.22,1.1l-0.88,1.1l-0.22,0.88l-0.44,0.66l-0.66,1.32l-0.44,0.88
			l-0.88,0.44l-0.22,0.88l-1.1,0.44l-1.1,1.32l-0.66,1.32l-0.44,0.66l-1.32,0.44l-0.22,1.54l-1.54,0.88l-0.88,0.66l-0.22,0.44
			l-0.66,0.88l-0.22,0.88l-1.1,0.44l-0.44,0.88l-1.32,1.32l-0.88,0.22l-1.1,0.44l-1.32,1.1l-1.1,0.44l-0.22,1.1l-0.44,0.66
			l-0.44,0.44l0.44,1.54l-0.22,1.54v1.32v0.66l-0.22,1.76l-0.88,0.44l0.66,0.66l-0.44,1.76v0.44l-0.66,1.54l-0.44,0.44l-0.66,1.1
			l-0.66,0.88v1.1l-0.66,1.32l-0.44,1.1l-0.22,0.66l-0.22,1.98l-0.22,0.22l-1.32,1.1v0.88l-0.66,0.22l-1.32,0.88l0.22,0.88
			l-1.32,1.32l-0.22,0.44l-0.88,0.66l-0.44,0.22l-1.54,1.32l-0.66,0.44l-1.1,0.22l-0.66,0.44l-0.88,0.66l-0.88,0.66l-1.1-0.22
			l-0.66,0.88l-0.88,0.44h-1.1l-0.88,0.44l-1.32,0.22l-1.1,0.44l-1.76,1.1l-0.44,0.44l-1.32,0.22l-0.88,0.44l-0.22,0.66l-1.1,0.22
			l-0.22,1.1l-0.66,0.66l-0.88,1.32l-0.66,0.88l-0.66,1.32l-0.22,1.1l-0.88,1.1l-0.22,0.44l-0.88,0.88l0.22,0.66l-1.1,1.1l-0.44,1.1
			h-0.88l-0.66,1.1l-0.44,0.44l-1.54,0.66v0.88l-1.1,0.88l-0.66,0.22l-1.1,1.1l-0.88,0.44l-0.66,0.66l-2.2,0.22l-0.44,0.66
			l-1.1,0.22l-0.88,0.44l-1.76,0.22l-0.22,0.22h-0.88l-1.98,0.44l-0.88,0.22l-1.54,0.44l-0.66,0.22l-0.88,0.66l-1.54-0.22l-1.1,0.22
			h-0.66l-1.1-0.44l-1.32,0.22h-1.32l-1.54,0.66l-1.32-0.66l-0.66-0.22h-1.1l-0.88-0.44l-1.1,0.66h-1.1l-1.32,0.66l-0.88-0.22
			l-1.1,0.22l-1.54,1.76l-1.1-0.44l-0.44,0.22l-1.76,1.32l-0.88,0.44l-1.1,0.22l-0.66,0.66l-0.88,0.88l-0.66,0.22l-1.76,0.22
			l-0.44,0.66h-0.88l-1.54,0.88l-0.88-0.22l-1.1,0.88l-0.66-0.22l-1.54,0.22l-0.88,0.44h-1.1l-1.32-0.66l-0.44,0.44h-1.1l-1.54,0.22
			l-0.88-0.66l-0.44-0.22h-1.54l-0.22,0.22h-1.76h-1.1l-0.66-0.22l-1.54-0.22l-1.1-0.66l-0.44-0.44h-1.1l-0.44-0.44l-1.76-0.22
			l-0.66-0.88l-0.88-0.44l-1.98-0.22l-0.66-0.66l-1.32-0.66l-0.22-0.66h-0.44l-0.88-1.1l-1.32-0.66l-0.44-0.22l-0.44-1.1l-0.88-1.32
			l-0.66-0.44l-0.88-0.44l-1.1-1.32l-0.44-0.66l-1.1-1.1l-0.44-0.66l-1.1-0.88l-0.88-0.22l-0.22-1.32l-1.1-0.44l-0.22-0.22
			l-0.88-0.66l-0.66-0.66l-1.1-0.66l-0.66-0.66l-1.54-0.22h-0.66l-0.66-0.22l-1.32-0.66h-1.98l-0.66-0.66l-0.88-0.22l-0.66-0.66
			l-1.1-0.44l-1.54-0.66l-0.66,0.22l-0.66-1.54l-1.32-0.44V622l-1.1-0.44l-1.1-0.88v-0.88l-0.88-0.44l-1.32-1.32l-0.22-0.88
			l0.22-0.66l-1.1-0.88l-0.88-0.88l-0.88-0.88l-0.22-1.1l-1.54-1.32l-0.22-1.1l-0.22-0.22l0.22-1.76l-0.88-0.66l-0.44-0.66v-1.32
			l-0.66-0.66l-1.32-0.44v-1.32l0.44-1.54v-0.66l-0.44-0.88l-0.88-1.1l-0.66-1.76l0.22-0.66l-0.66-1.76v-0.22l-1.1-0.88v-1.1
			l-0.88-0.66l-1.1-1.76l-1.98-0.88h-0.44l-0.22-0.66l-1.54-1.1l-0.66-1.32l-1.1-0.88l-1.54-1.1l-0.66-0.22v-0.88l-1.32-0.66
			l-0.44-0.22l-0.66-1.32l-0.88-0.88l-0.88-0.44v-1.32l-0.66-0.88l-0.22-0.66l-0.22-0.44l-0.66-1.32l-0.66-0.66l-0.22-0.66
			l-0.44-1.1l-1.1-0.44v-1.98l0.44-0.88l-0.22-0.88l-0.44-0.44l-0.44-0.66l0.44-1.76l-0.88-0.88v-0.88l-0.22-1.32l-0.44-0.44
			l-0.22-1.54l0.44-1.1l-0.22-1.32l-0.22-1.32l-0.66-0.88v-1.1l-0.88-0.88l-1.1-1.54l-0.88-0.88l-0.22-0.66l-1.54-1.1l-0.22-1.1
			l-1.1-0.44l-0.88-0.44l-0.88-1.1v-1.1l-0.22-0.66l-1.32-0.44l-0.88-1.1v-0.44l-0.88-0.88v-1.1l-0.66-0.66l-0.44-1.32l-0.66-0.88
			l-0.44-0.88l-0.66-0.22l-0.22-1.76l-0.66-1.1l0.22-0.66l-0.88-1.32l0.66-0.88l-0.66-0.44l-0.44-1.32v-1.32v-0.88v-0.66v-1.32
			v-0.88v-2.2l0.22-0.66l-0.44-0.44v-1.54l0.22-0.88v-1.54l1.1-1.32v-0.88l-0.66-1.76l0.22-1.1l-0.22-0.88l-0.44-0.66v-0.88
			l-0.44-1.32l-0.66-1.1l-0.66-1.32l-1.1-0.88l-0.66-0.88l-0.44-1.1l-0.66-0.66l-0.44-1.32l-0.66-0.66l-0.44-0.66L120.15,499.02z
			 M121.91,487.36l-0.44,1.54l0.44,1.32l0.66,0.88l0.22,0.66l0.66,0.88l0.88,1.54v0.66l0.66,1.32l0.66,0.66l0.66,0.88v0.44l0.88,1.1
			l0.22,0.44l1.54,0.66l1.1,0.66l0.66-0.22l1.1-1.32l-0.22-1.54l-0.88-1.98l-1.1-1.32l-0.88-0.44l0.22-1.1l-0.22-1.32l-0.44-0.44
			l-0.88-0.88l0.22-0.88l-0.88-1.1v-1.1l0.44-1.54l-0.44-0.88l-0.44-0.66l0.66-0.88l-0.44-1.1l0.66-1.1v-0.88l-0.22-1.76l0.66-0.66
			v-0.66l0.22-1.32v-0.88v-0.44l0.44-1.32l1.1-1.32l0.44-1.32l0.66-1.1l0.88-0.66l0.44-0.88l1.1-0.88l0.22-0.44l1.32-0.44v-1.54
			l1.32-0.44h0.88l0.88-0.44l0.66-0.44l0.88-0.22h1.32l0.88-0.88l1.32,0.44l1.1-0.44l1.32-0.22l1.98,0.44l0.44-0.44l1.76,0.66
			l0.66-0.22l0.88,0.66h1.1l0.22,0.22l1.76-0.22l0.88,0.22l1.32,0.66l0.88,0.88l0.22,0.44l1.32,0.66l0.44,0.44l1.1,0.44l0.44,0.88
			l1.32,0.88l0.22,0.22l0.66,0.88l0.44,0.88l0.66,0.66v0.88l0.88,0.66l0.44,2.42l0.22,1.54l0.22,0.88l0.22,0.22l0.88,1.32l0.22,1.54
			l0.22,1.1l0.22,0.44l0.44,1.54l0.22,0.88l0.22,0.22v1.1v1.54l0.22,1.1l-0.44,1.32l0.22,0.66l-0.44,1.1l0.66,1.1l1.54-0.22l1.1-1.1
			l0.44-0.22l0.22-1.32l-0.22-1.1l0.88-1.32l-0.22-0.66l0.66-0.88l-0.88-1.1l0.44-1.32l-0.44-0.44v-1.32v-1.1l-0.22-0.88l0.22-1.32
			l-0.44-0.66l-0.66-1.1v-1.98l-0.44-0.88l-0.66-1.1v-1.1h-0.44l-0.88-1.1l-0.44-1.1l0.22-1.32l-1.1-0.44v-1.1l-0.22-0.44
			l-1.54-0.66l-0.22-1.32l-1.32-0.66l-0.22-0.22l-0.66-0.88l-1.1-1.1l-0.66,0.22l-1.54-0.88l-0.66-0.66l-0.44-0.22l-0.66-0.88
			l-1.54-0.44l-1.76-1.1l-0.88-0.88l-0.66,0.22l-0.88-0.66l-1.54,0.22l-1.54,0.22l-1.32,0.22l-1.32-0.22h-0.44l-1.54,0.66
			l-0.66,0.22l-1.1-0.22h-0.66l-0.88,0.88l-0.66,0.44l-1.98,0.22h-1.1l-1.98,0.22l-2.2,0.22l-1.76,2.42l-1.32,0.88v0.88l-0.44,0.22
			l-1.1,0.88l-0.88,1.1l-0.44,0.44l-0.22,0.88l-0.66,0.66l-1.1,1.1v1.1l-0.44,0.88l-0.22,0.22l-0.88,1.32l-0.22,1.32l-0.22,0.88
			l-1.1,0.88l0.44,0.44l-0.66,1.32l0.22,0.88l0.22,0.88v1.76l-0.44,0.66v0.66l-0.22,0.88l-0.44,1.1v0.66l0.44,1.76L121.91,487.36z
			 M132.91,522.12l-0.44,1.32l0.22,1.32v1.32l0.44,1.98l0.66,1.32l-0.44,0.22l1.1,0.88l0.22,1.76v0.44l0.66,1.1v1.32l0.22,0.22
			l0.88,1.32v0.44l0.22,1.32l0.88,0.88l0.66,0.88l0.88,0.44l0.66,1.54l0.22-0.22l0.66,1.32l1.1,0.88l1.1,1.1l1.1-0.22l0.88,0.22
			l1.32-0.66l0.66-1.1l0.22-0.66l0.22-0.66l0.22-1.54l-1.1-1.76l-0.66-1.1l-0.88-0.22l-0.44-1.1l-0.66-0.66l-0.44-0.88l-1.32-1.98
			l-0.88-1.1l-0.22-1.32l-0.44-0.88l-0.44-0.66l-0.44-0.66l0.44-0.88l-1.1-0.44v-0.88l-0.66-1.1l0.44-1.54v-1.1l-0.22-0.88
			l-0.22-0.66v-1.32l-0.22-0.66v-1.54l0.44-1.1l-0.22-1.1l0.44-0.44l0.22-1.32v-0.44l0.44-0.88l0.66-1.32l0.44-0.88l1.1-0.88v-0.66
			l0.66-0.44l0.44-1.54l0.88-0.66l1.1-0.44l1.1-0.88l0.66-0.44l0.22-0.44l1.54-0.66l1.1-0.88l1.54-0.66v-1.32l1.1-0.66l0.66-0.66
			l-0.22-1.54v-1.32l-1.76-0.88l-1.54,0.88h-0.44l-1.32,0.88l-0.88,0.88l-1.32,0.66l-0.66,0.44l-0.66,0.44l-1.1,1.32l-0.44,0.66
			l-1.1,0.44l-0.88,1.1l-0.44,0.66l-0.66,1.32l-0.66,0.22l-0.22,1.32l-0.88,0.66l-0.88,0.66v0.66l-0.66,0.88l-0.44,1.1l-0.88,0.66
			v1.1l-0.22,1.32l-0.22,0.66l-0.66,0.88l-0.22,1.1l-0.44,0.66l0.44,1.32l-0.44,0.66v1.54l0.44,1.1L132.91,522.12z M135.33,481.64
			l0.22,1.98l0.44,1.76v0.66l0.44,0.88l0.88,1.54v0.66l0.88,0.22l0.44,0.66l0.44,0.88h1.32l0.88-0.22l1.1,0.88l1.54-0.22l0.66-0.66
			h1.32l1.76-0.88h0.88l0.44-0.66l0.88,0.22l1.98-0.44v-0.44h1.32l1.76-0.22l1.32,0.22l0.88,0.22h1.1l1.32-0.22l0.88-1.54l0.88-2.2
			v-0.66l-0.22-1.1v-1.1l-0.22-1.32l-1.1-1.1v-0.88l-0.66-1.54l-0.44-0.44l-0.66-1.32l-0.66-0.88l-0.44-0.44v-0.66l-1.32-1.1
			l-1.32-0.88l-0.66-1.32l-0.88-0.22l-0.44-0.88h-1.76l-0.88-1.1l-1.1,0.44l-1.1-0.22l-0.66,0.66l-1.54,0.44l-1.1-0.44l-1.54,0.22
			l-1.32,1.1l-1.1-0.22l-0.66,1.32l-0.44,0.88l-1.32,0.88l-0.44,0.44l-0.44,0.88l-0.66,1.1v0.88l-0.88,0.88l0.22,1.76l0.44,1.54
			L135.33,481.64z M144.79,519.92v0.88l0.66,1.76l0.22,1.32l0.22,0.22l-0.44,0.66l0.44,1.32l0.88,1.54l0.66,1.1l0.88,1.54l0.66,0.66
			l1.1,0.44v0.44l1.32,0.22l0.66,0.66l0.88-0.22l1.32-0.44l1.76-0.66l1.32-0.88h0.66l0.88-0.88l0.44-0.22l0.66-0.22l1.76-0.22
			l0.66-0.66l1.1-0.66h1.1l0.66-0.66h0.44h1.54h1.32l0.88-0.44l1.32-0.22v-0.88l1.54-0.44l0.88-0.88l0.22-0.66v-0.88v-1.1v-0.88
			l-0.44-0.66l-0.44-1.1l-1.1-1.1l-0.66-1.1l-0.88-0.66l-1.32-1.1l-0.44-0.88l-0.44-0.44l-0.88-0.22l-0.66-0.22l-1.76,0.22h-0.44
			l-1.54,0.44l-1.98,0.44l-0.66,0.88l-0.66-0.44l-1.54,0.88l-0.66,0.22l-1.1,0.22l-1.32-0.22l-0.66,0.44l-0.44-0.22h-1.32l-1.1,0.22
			l-1.1,1.1l-0.66,0.22l-0.88,0.44l-1.98,0.44v0.44L144.79,519.92z M149.19,557.98l0.44,1.76l0.88,1.76l-0.22,1.1v0.22l-0.22,1.1
			v1.76l0.44,1.32l0.44,0.22l0.88,1.32l0.22,0.44v1.32v1.1l1.1,0.88l0.44,0.66l0.44,0.44l0.22,1.32l0.22,1.1l1.1,0.22l0.22,1.32
			l0.66,1.1h0.66l0.66,0.88l1.1,0.66l0.44,1.32l1.54,1.1l1.1,0.88h0.66l0.66,0.66h0.66l1.32-1.1l1.32-0.88l-0.66-1.76v-1.1
			l-0.66-0.66l-1.1-0.88l-0.88-0.88l-1.54-0.44l-0.66-0.66v-0.22l-0.88-1.1l-0.66-0.66l-1.32-0.66l-0.22-1.1l-0.88-0.66l0.22-0.88
			l-0.66-1.1v-0.88l-0.88-0.66l-0.66-1.1l-0.44-1.54l-0.22-0.44v-1.1l0.22-0.66l0.22-0.66l-0.44-1.54l-0.22-1.32l0.22-0.88l0.22-1.1
			l-0.22-1.98v-0.44l-0.44-1.98l0.44-1.1v-0.88l0.22-0.44l0.44-0.66l0.44-1.1v-1.1l0.66-0.88l0.88-0.88l0.44-0.88l0.44-0.66
			l1.1-1.32l1.54-0.44l0.22-0.88l0.88-1.32v-0.44l0.88-1.98v-0.88l-1.32-0.44l-1.1,0.22l-1.32,0.88l-0.88,0.44l-0.22,0.88
			l-1.98,1.98l-0.44,1.1l-0.66-0.22l-0.66,1.1v0.88l-1.1,0.44l-0.44,0.88l-1.32,2.2l-0.22,1.1l0.22,0.44l-1.1,1.98l0.22,0.44
			l-0.44,0.88l0.22,1.1l-0.66,0.66v1.1l-0.44,1.32l0.66,1.1L149.19,557.98z M152.27,509.8l0.88,0.44l1.32,0.22l1.32-0.44l0.88-0.66
			l1.1-0.44l0.44-0.22h1.32l1.32-1.1v-0.66h1.1l1.54-0.88v-1.1l0.66-0.44l0.88-0.66l0.66-0.88l0.44-1.1l0.66-0.44l1.1-1.54l0.22-1.1
			l-0.88-0.44l-1.32-0.66l-0.66,0.44l-1.1,0.66l-1.1,0.66l-0.22,0.66l-0.88,0.66l-0.88,1.1l-0.88,0.44l-0.66,0.22l-0.66,1.1h-0.88
			l-1.1,0.66l-0.66,0.44l-0.66,0.44h-1.54l-0.66,0.44l-1.32,0.66l-0.66,1.32l-0.44,1.76L152.27,509.8z M161.29,556.88l-0.22,1.98
			v1.32l1.1,3.08l0.44,0.66v1.1l0.22,0.66l0.44,1.54l1.54,0.66l0.44,1.98l0.44,0.66l0.22,0.66l1.1,0.22l1.32,0.66l1.1-0.44h0.66
			l0.88,0.22l1.1-0.88l1.1-0.88l1.76-0.44l0.44-0.44l0.44-0.88l1.32-0.44l0.66-0.88l1.32-0.44l0.88,0.44l0.88-1.1h0.66l1.32-0.66
			l1.54,0.22l1.54-0.44l1.1-0.22l0.66-1.1h0.88l0.44-1.54l0.66-0.44l0.44-0.22l-0.22-1.54v-0.88l0.88-1.98l-0.44-0.88l-0.22-1.1
			l-0.66-1.1l-0.44-1.32v-0.88l-0.66-0.22l-1.32-0.66h-0.66l-1.76-0.88l-0.66-0.22h-0.44l-1.32-0.44l-1.32-0.44l-1.32,0.88
			l-1.54,0.44l-0.88,0.22l-0.88,0.66h-0.88l-1.1,0.66l-0.88-0.22l-1.32,0.66l-1.1,0.66l-1.32,0.44l-1.1,0.44l-0.44,0.66h-0.88
			l-1.98,0.22l-2.2,0.66l-0.88,1.54H161.29z M167.89,544.56l0.22,1.54h2.2l2.2,0.44l0.88-0.88h0.44l0.88-0.44l1.1-0.66l0.88-1.32
			l0.22-0.66l1.32-0.66h0.66l0.44-1.32l1.32-0.66l0.22-0.66l0.66-1.1v-0.88l0.66-0.66l0.88-1.32l0.22-0.22l0.66-1.1v-1.54l0.44-1.1
			l0.22-0.44l-0.22-0.88l0.44-0.66v-0.88l-0.44-1.76l0.44-1.1v-1.1l-0.44-0.88v-0.44l0.22-1.32l-0.44-0.88l-0.22-1.32l-0.88-0.88
			l-0.22-1.1l-0.44-0.88l-0.22-0.88l-0.22-0.22l-0.44-1.1l-0.88-1.32l-0.22-0.44l-0.88-1.32l-0.66-0.88l0.44-0.44l-1.1-1.76
			l-1.32-0.88l-0.44-1.1l-1.32,0.22l-0.44,0.88l-0.22,1.32l0.66,1.76l1.1,0.66l-0.22,1.1l0.88,0.88l0.88,1.32l0.88,1.32l0.22,0.22
			l0.44,1.32l0.66,1.1l0.44,0.44l-0.66,1.1l0.66,1.1l-0.44,1.1v1.76l-0.44,0.88v1.32v1.1l-0.22,0.88l-0.66,1.1l-0.22,1.1l-0.22,1.32
			l-0.66,0.44v0.88l-0.66,0.88l-0.88,0.88l-0.88,0.22l-0.88,1.32l-0.44,0.44l-0.88,1.32l-1.76,0.44l-0.88,1.32l-0.88,0.44v1.1
			l-0.66,1.54L167.89,544.56z M173.17,599.78l0.22,1.98v1.32l1.1,0.66l0.44,0.66l0.66,1.32v0.44l0.88,1.32l0.66,0.66l0.22,0.44
			l1.1,1.54l0.44,0.44V611l0.88,0.44l0.88,1.54l0.88,0.88l0.22,0.66l0.44,1.32l0.88,0.66h0.66l0.88,0.88l1.1,0.88l0.66,0.66
			l0.22,0.22l0.66,0.44l1.32-0.22l1.1,0.22l1.32,0.44l1.32,0.44l1.1-0.66l-0.22-1.54l-0.66-1.76l-0.44-0.44l-0.22-1.1h-1.1
			l-0.88-0.88l-1.1-0.22l-0.88-1.32l-1.1-0.88l-1.32-0.44l-0.66-1.1l-0.44-0.66l-0.88-0.44l-0.66-1.76l-1.32-0.22v-1.1l-1.76-0.22
			v-1.1l-0.22-1.1l-0.66-0.88l-0.44-0.88l0.22-1.54h-0.66l-0.66-1.76l-0.22-0.66l-0.44-1.1l0.22-1.1l-0.22-0.66l-0.22-0.66
			l-0.22-1.54v-0.44v-0.88l-0.22-2.2l0.44-2.64l1.1-1.1l1.32-1.32l-0.22-1.1l0.22-0.66l0.66-1.1l0.22-0.66l0.88-1.1l0.66-1.1
			l0.88-0.66l0.44-0.66l0.44-1.1l1.1-0.22l0.88-1.32l-0.66-1.32l-0.66-0.44l-1.32,0.22l-0.44,0.22l-1.1,0.88l-1.54,0.66l-0.88,1.32
			l-1.1,0.88l-0.22,0.88l-0.88,0.88l-0.22,0.44l-1.32,1.76l-0.44,0.66l-0.88,1.54l-0.44,0.88l0.22,0.88l-0.66,0.66l-0.22,1.32
			l-0.88,1.32v0.66v0.88l-0.66,1.32l0.22,1.32l0.22,0.88l0.44,0.44l-0.44,1.76l0.22,0.44l0.66,1.54l0.22,0.44l-0.22,1.1
			L173.17,599.78z M185.93,599.12l1.1,1.54l0.22,1.32l0.44,0.44l0.88,0.66l0.66,1.32l0.66,0.22l0.88,0.88l0.88,1.32l0.88,0.44
			l1.54-0.66l0.44,0.66l0.88-0.88l0.66-0.22l0.66-1.32l0.88-1.1l0.44-1.1v-1.32l1.1-1.1v-0.66l0.66-1.1l0.88-0.66l0.22-0.22
			l0.66-0.66l0.88-0.66l0.66-1.1l0.88-1.1l1.32-1.1l0.88-1.76l0.44-0.88l0.44-1.1l-0.66-1.98l-0.22-1.1l-2.2-1.98l-0.66-0.44
			l-0.44-0.22l-1.32,0.44h-1.32h-1.98l-0.22,0.44h-0.88l-1.54,1.54l-0.88,0.22l-1.1,1.1l-0.22,0.44l-1.1,1.1l-0.66,0.44l-1.1,0.22
			l-1.32,0.66l-0.88,0.44l-1.1,0.22l-0.22,0.66l-0.66,0.66l-0.88,1.1l-1.1,0.88l-0.22,0.66l0.44,1.1l-0.22,1.1v0.66l0.66,0.44
			L185.93,599.12z M188.57,541.04l-0.22,1.54l1.32,0.66l0.22,0.44l1.32,1.54l1.32,0.88l0.22,0.66l0.88,1.1l0.22,0.88l0.22,0.44
			l0.88,1.54l0.44,0.66l0.44,0.66v0.66l0.22,1.1l0.44,1.32l0.22,0.66l0.44,1.54l0.22,1.1l0.22,0.44l0.22,1.1v1.1l-0.66,1.54
			l-0.22,0.22l0.22,1.54l-0.22,0.44l-0.22,0.88l-0.44,1.32l-0.22,0.88l-0.44,0.88l-0.44,1.32v0.66l-0.66,1.1l-0.22,0.22l-0.66,1.54
			l-0.22,0.88l-0.88,0.88v1.32l1.1,0.44l1.32-0.44l0.22-0.66l1.54-1.54l0.44-0.66l1.1-2.42h0.22l0.66-1.54l0.66-1.32l0.44-0.22
			l0.22-0.66v-1.32l0.22-0.88l0.44-0.66l-0.44-1.1l0.44-0.88l-0.22-1.76l-0.22-1.32l0.22-0.44l0.22-0.66l-0.44-1.1v-1.32v-0.66
			l0.22-0.66v-1.54l-0.22-0.88v-1.32v-0.44l-1.1-1.32v-1.1l-0.66-1.32l-0.44-1.1v-0.66l-0.66-0.66l-0.22-1.54l-1.32-0.88l-1.1-0.66
			l-0.66-0.22l-0.88-0.88l-0.66-0.44l-1.32-0.66l-1.1-0.88l-1.54,0.88L188.57,541.04z M191.65,576.9l-0.44-0.22l0.44,0.44v0.66
			l0.44,0.88v0.22v-0.44L191.65,576.9z M203.53,627.72l0.44,1.1l1.32,1.32l0.66,1.1l0.22,0.88l0.88,0.66l0.44,0.44l0.44,1.54
			l0.88,0.66l0.88,0.22l0.44,0.88l1.1,0.66l0.88,0.66l0.44,0.44l1.76,0.44v0.22l1.54,0.44l0.88,0.88h0.88l1.54,0.44l1.54,0.66h0.22
			l1.54,0.66l0.66-0.22l1.1-0.22l1.1,0.66h1.54l0.66,0.22l1.54,0.22l1.76-0.22l0.88-0.66l0.66,0.44l0.88-0.44h1.98h0.66l0.44-0.44
			l0.66-0.22l0.88-0.22l1.54-0.44h0.66l1.32-0.88l0.88-0.88l1.32-0.44v-1.98l0.22-1.32l-1.98-0.44l-0.88-0.66h-1.54h-0.66l-1.1,1.1
			h-0.44l-1.54,0.88h-2.42l-1.54,0.22l-0.66,0.44l-1.76,0.22l-0.44,0.22l-1.32-0.44l-0.66-0.22l-1.32,0.22l-0.44,0.22l-0.88-0.22
			l-1.1-0.66l-1.1,0.22l-0.44,0.22l-1.54-0.66l-0.88-0.22l-0.44-1.1l-0.66-0.66l-1.76-0.88l-1.54-0.88l-0.22-0.88l-0.44-0.88h-1.1
			l-0.44-1.1l-1.1-0.22v-1.1l-0.22-0.44l-0.88-1.54l-0.66-0.22l-0.88-1.54v-0.66l-0.22-1.32l-0.44-1.32l-0.44-1.1l-0.22-1.32
			l-0.22-0.66l-0.22-0.88l-0.66-1.1l0.44-1.32l0.22-0.44l-0.22-0.88l-0.66-1.54l0.66-0.88l0.66-1.32v-0.66l0.22-0.66l1.1-1.54
			l0.22-0.88l-0.22-1.1l1.32-1.32l-0.22-0.44v-2.2l-1.1-0.22h-0.44l-1.98,0.44l-0.44,0.88l-0.44,0.88l-0.66,0.44l-0.66,0.22
			l-0.66,1.1l-0.22,0.88l-0.66,0.66l-0.22,1.1l-0.44,0.88l0.22,1.32l-0.88,0.66l-0.22,1.32l0.66,1.32l-0.44,1.32l0.22,0.88
			l-0.22,0.44l-0.44,1.1l0.66,0.88l-0.44,1.76l0.66,0.88l-0.22,0.44v1.54l0.22,1.32v0.44l1.1,0.66l0.22,0.88l0.22,1.32
			L203.53,627.72z M206.61,575.8l-0.66,1.1l0.66,1.1l0.88,0.66l1.1,0.66l0.66,1.32l0.88,0.66h0.88l0.88,0.66l1.1,1.98v0.44
			l0.44,0.22l1.1,0.88l-0.22,1.32l1.1,1.32l0.22,1.32l0.66,1.76l-0.44,0.22l0.66,1.32l-0.22,0.88l0.66,1.1l0.22,1.1v0.44l-0.22,1.32
			l0.22,1.32l0.22,0.66v0.88l-0.44,1.32v1.32l0.44,0.66l-0.22,1.76l-0.44,0.22l-0.66,1.54v1.32l0.88,1.1l1.76-0.88l0.88-0.44
			l0.88-1.76l0.44-0.88v-1.54l0.22-1.1l0.22-1.98l0.44-0.88v-0.44l-0.22-1.1v-1.54l-0.44-1.76v-0.44l0.44-1.1l-1.1-0.88l-0.66-1.54
			v-1.32v-0.44l-0.22-1.1l-0.44-0.88l-0.44-1.32l-0.44-0.22l-0.44-1.1l-0.66-0.66l-0.22-1.54l-0.66-0.66l-0.88-0.66l-0.66-0.88
			l-0.44-0.66l-0.44-1.54l-1.1-0.44l-0.88-0.44l-0.44-1.1l-0.88-0.66l-1.32-0.88l-1.1,0.44L206.61,575.8z M218.05,623.1l0.22,1.32
			l0.66,0.44l0.66,1.1l0.66,0.66l0.44,0.44l1.1,0.44l0.44,0.88l1.76,0.44l0.22,0.88l0.88-0.22l1.1-0.44l1.32-0.22h0.88l1.76-0.66
			l1.32-0.66l1.1-0.44l0.44-0.66l-0.44-1.32l0.44-0.66l-0.88-2.2l-0.44-0.66l-0.66-1.32l-0.22-0.88l-0.44-0.66l-0.44-0.88v-1.32
			l-0.44-1.32l0.22-0.66v-0.66v-1.1l-0.44-0.88l0.66-1.32l0.66-1.32v-0.66v-0.88l0.44-1.98l-0.22-1.1l-0.22-0.66l-0.88-0.22
			l-1.32,1.98l-1.1,0.88v0.88l-0.66,0.66l-0.44,0.88l-0.22,1.54l-0.66,1.1l-0.22,0.66l-0.88,1.1l-0.22,0.44l0.22,0.66l-1.54,1.54
			v0.66l-0.44,0.22l-0.44,0.88l-0.88,1.54l-0.44,0.88l-1.98,1.54L218.05,623.1z M230.37,591.86l-0.22,0.66l0.22,1.32l1.32,1.32h0.44
			l1.1,0.88l1.32,0.22l0.22,0.66l1.54,0.66h1.1l0.66,0.22l0.66,0.22l1.54,0.88h0.44l1.32,0.66l0.66,0.66l1.54,1.1l0.66,0.22
			l0.44,1.76l1.54,0.88v0.88l1.32,0.22l0.88,0.44v1.1l0.66,1.54l0.22,0.66l0.44,0.66l0.44,0.88l1.32,1.32l0.22,0.44l2.2,0.44
			l0.44-1.32v-0.88l-0.66-1.98v-0.22l-0.66-0.88v-1.32l0.22-0.66l-0.88-1.1v-1.1l-1.32-0.66l-0.44-0.88l-0.66-0.66l-0.88-0.88v-0.44
			l-0.88-1.1l-0.88-0.88l-0.66-1.1l-0.44-0.44l-0.66-0.66l-0.88-0.44l-2.42-1.54l-0.88-0.22l-0.66-0.66v0.22l-1.98-0.22l-0.66-0.44
			l-0.88-0.66l-0.88-0.44h-0.66l-1.32-0.66l-1.32,0.44l-0.66-0.22l-1.1,0.66L230.37,591.86z M239.17,609.68l-0.88,0.66l-0.66,0.88
			l0.22,1.98l-0.66,1.54l0.66,1.54h0.44l-0.22,1.54l0.66,1.32v0.88l0.66,1.1l0.66,0.66l1.32,0.66l0.44,1.32l1.32,0.44l0.88,0.66
			v0.88l0.88,0.88l1.32,0.44l0.66,0.44l0.66,0.88l1.1,0.44l0.88,0.88l0.88,0.44l0.44,0.22h1.32l0.22,0.66l1.32,0.44h1.1l1.32,0.66
			l0.66,0.44h1.1l0.66,0.66l1.1-0.44l1.32,0.22l0.88,0.22l0.88,0.66l0.44-0.22l2.86,0.44l0.88,0.22l1.76-0.44l1.1-0.66l1.54,0.22
			l0.88-0.66l1.54,0.22l1.1-0.22h1.1l1.54-0.44l1.98-1.54h0.88l1.32-1.1h0.44l1.1-0.66l0.88-1.1l0.88-0.88l0.44-0.88l0.88-0.88
			l0.44-0.22l0.44-1.1l0.44-1.54l0.88-0.66l0.22-1.32l-0.22-1.32l-1.1-0.66l-1.54-1.32l-0.88,0.22l-0.22,1.1l-1.32,1.1l-1.32,1.32
			h-0.88l-0.66,1.32l-0.44,0.66l-0.22,0.66l-0.88,0.66l-0.22,1.1l-1.54,0.22l-1.1,1.32l-1.1,0.44l-0.88,1.1l-0.88,0.22l-0.44,0.22
			l-1.32,0.44l-1.1,0.66l-0.66,0.22h-2.2l-1.1,0.66l-1.1-0.66h-0.88l-1.32,0.66l-0.66-0.66h-0.88l-1.1-0.22l-1.32-0.44h-0.88
			l-0.88-0.44l-0.66-0.44h-1.32l-0.44-0.22l-1.98-1.1l-0.22-0.44l-0.88-0.66v-0.66l-1.1-0.44l-1.1-0.88l-0.66-0.44l-0.44-0.66
			l-0.22-1.32l-0.44-0.88l-1.1-0.66l-0.66-1.32l0.66-1.54l-0.88-0.88v-1.98l-1.98-1.98l-0.44-0.44l-0.66-0.66l-1.1-0.66l-0.44-1.32
			h-1.1L239.17,609.68z M251.05,588.78l0.22,1.54l1.1,0.88l2.86,0.22l1.1-0.66l0.88,0.66l1.1-0.66l0.88-0.22l1.32,0.44l0.66-0.66
			h0.88l1.1-0.22h1.76l0.88,0.22l1.32,0.44l0.66-0.22h0.88h0.88l0.88,0.44h0.66l1.32,0.66l1.54,0.44l0.88,0.22l0.22,0.66l1.32,0.44
			l1.98,0.66l1.32-0.22l1.1,0.44l0.66,0.22l0.66,0.22l0.44-1.76l0.44-1.54l-1.1-0.66l-1.1-0.88l-1.32-0.44h-0.88l-1.76-1.1
			l-0.44-0.44l-0.88-0.44l-1.1-0.44l-0.66-0.22l-0.88-0.44h-1.54h-0.66l-1.54-0.66l-0.44,0.44l-1.32-0.44l-1.54-0.66h-0.88h-1.32
			l-1.98,0.44h-0.66l-0.44,0.22l-1.76,0.66l-1.32,0.22h-1.1h-0.22l-1.32,0.66l-1.98,0.22l-0.44,0.88L251.05,588.78z M261.83,601.32
			l-1.1,2.2v1.76l0.66,1.32l-0.22,1.32l0.44,0.44l0.22,1.32v0.88l0.22,1.1l-0.22,1.1l-0.44,1.1l0.22,1.32l-0.22,1.1v1.32l0.44,1.98
			l-0.66,0.22l0.66,1.54l0.44,0.66h1.32l0.88,0.22l1.32,0.66l1.1,0.22l1.54,0.44l1.1-0.66l0.44-0.88l0.88-0.44l0.88,0.22l1.1-1.32
			l1.1-0.44l0.66-0.66l0.88-0.44l0.22-0.88l0.88-1.54l0.22-0.44l0.22-1.54v-0.88l-0.22-1.32l-0.66-1.1l-1.1-0.88l-0.88-1.1
			l-1.1-0.44l-0.22-0.44l-0.66-0.88l-1.32-0.44v-0.66l-0.66-0.44l-1.54-0.88l-0.66-0.88h-1.1l-0.66-1.1l-0.22-1.1l-1.1-0.44
			l-1.76-0.44L261.83,601.32z M271.07,574.92l-1.32,1.54l0.22,1.98l0.22,0.88l0.88,0.66l1.54,0.44l1.32,0.22h0.66l0.66-0.88
			l0.88-1.1l0.66-1.54v-0.66v-0.88v-0.88l0.44-1.54l1.1-0.22l0.22-1.54l0.88-0.22l0.88-0.88l-0.22-0.66l0.88-1.32l1.32-0.44
			l0.44-0.66l0.66-0.22l1.32-1.1l0.88-0.22l0.44-0.22l1.1-0.44l1.1-0.88l0.66-0.66l0.88,0.44l1.1-0.44l1.32-0.22l0.66-0.44
			l0.44-0.44h1.76l0.44-0.22l1.98-0.44h1.1l1.76,0.22h1.32l1.1-1.32l0.44-0.88l-1.1-0.88l-0.66-0.44l-0.88,0.22l-0.88-0.88
			l-0.66,0.22h-0.88l-1.1-0.44l-1.32-0.66h-1.32l-1.32,1.1l-1.76-0.22l-1.1,0.22h-0.22l-1.32,1.1h-1.1l-1.1,0.44l-0.66,0.22
			l-0.44,0.22l-0.88,0.66l-1.54,0.66l-0.66,0.88l-0.88-0.22l-0.88,1.1l-0.22,0.66l-1.1,0.44l-0.44,0.66l-0.66,1.1l-1.32,1.1
			l-0.66,0.44l-0.88,1.1l-1.1,0.44l-0.22,1.32v0.66l-1.1,0.66l-0.66,0.66l-0.88,0.88v0.66L271.07,574.92z M275.91,599.12l-0.88,1.32
			l1.32,1.76l0.66,1.1l0.66,1.1l0.88,1.1l0.88,0.22l0.88,0.66l0.66,0.22l1.1,1.32h0.66l0.66,0.44l0.88,0.44l0.66,0.66l0.88,0.44
			l0.66,0.66l1.32,0.66h0.88h0.88l1.1-0.44l1.32,0.66l0.44-0.22l1.98-0.44l1.98,0.44l1.54-0.44h0.66l1.1-0.22l1.54,0.44l0.44-0.88
			l1.54-0.22l0.66-0.44h0.88l1.76-0.66h0.66l0.22-0.66l0.66-0.66l1.1,0.22l0.66-1.54l1.32-0.44h0.88l0.44-0.44l1.32-0.88l0.66-1.32
			l0.22-1.32l0.22-0.88l0.66-0.66l0.88-0.44l0.22-0.88l0.88-1.32l0.22-0.22v-1.1l1.32-0.44l0.44-1.54l0.66-0.66v-2.2v-0.88l0.22-1.1
			l0.44-1.32l-0.22-1.54l0.22-1.1l-0.66-0.66l-0.44-0.66l-1.32-0.22h-1.1l-0.44,0.88l-0.88,1.1l-0.66,0.66l-0.44,1.32v0.44
			l-0.22,0.88l-1.1,1.76l0.44,1.32l-0.88,1.1l-0.44,1.1l-0.44,1.1l-0.22,0.44l-0.66,0.66l-0.44,0.88l-0.88,0.88l-0.88,0.88
			l-0.88,0.22l-1.1,0.22l-0.66,0.66l-0.22,0.88l-2.2,0.22l-0.66,0.44l-1.32,0.22l-0.44,0.88h-1.54l-1.54,1.1l-1.1,0.88l-0.44-0.44
			l-1.1,0.44l-0.88,0.66h-0.88l-1.1,0.66l-1.54-0.22l-0.44-0.22l-1.1-0.22h-1.32l-0.88-0.66l-0.66-0.44l-1.32-0.22h-0.88l-1.32-0.44
			l-0.88-0.66l-1.1-0.88l-0.44-0.22l-1.54-0.66l-0.44-0.88l-1.76-0.44l-0.44-0.88L275.91,599.12z M282.73,577.56l-0.22,1.1
			l-0.22,1.76l-0.22,1.1l0.44,1.76l0.44,0.88v0.44l1.32,1.32l0.66,0.44l0.44,0.66l1.1,0.88l0.66,0.22l0.44,0.44l0.66,1.1l0.66,1.1
			l1.1,0.44l0.88,0.88v0.66l0.88,0.22l1.1,1.76l1.76,0.22l0.22,0.44l1.32,0.66l1.76,0.66l1.1-0.22l0.66-0.66l0.66-0.22l1.1-0.22
			l0.44-0.22l1.32-0.66l0.66-0.66l1.32-0.44l0.66-1.32l-0.22-0.22l0.88-1.76l0.44-0.66l0.22-0.66l1.32-2.2l0.22-0.88l0.22-1.32
			v-1.54l-1.54-1.32l-0.66-0.44l-1.54-2.2l-0.66-0.22l-0.66-0.88l-1.32-0.66l-0.66-0.88l-0.66-0.66l-0.22-1.1l-0.66-0.22l-1.76-1.1
			l-0.88-1.54l-1.54-0.44l-0.44-0.66l-0.66-0.22h-1.32l-0.44-0.22l-0.66,0.22h-1.32l-1.1,1.1h-1.98l-1.32,1.54h-0.66l-0.66,0.66
			l-0.66,0.66l0.22,0.66l-0.66,1.32l-1.32,0.22L282.73,577.56z M294.39,545l0.44,0.88l-0.44,1.32l1.54,1.32l1.1-0.44l0.88-0.66
			v-1.76l-0.44-1.1h0.66l0.66-1.54l0.22-0.88v-1.32l1.54-0.44l0.44-1.54l0.22-0.44l0.88-0.66v-0.88l1.1-0.44l0.44-1.32l1.1-0.66
			l0.22-0.44l1.32-1.1l0.22-0.66l0.66-0.44l1.32-0.66l0.88-0.88l1.1-0.88l0.88-1.1l0.88-0.44l1.32-0.66l1.1-0.22l0.66-0.44h1.32
			l0.66-0.44l1.32-0.44l0.44,0.44l1.1,0.22h1.54l1.1,0.22h0.66l1.54,0.66l1.54,0.22l1.32-0.44l0.66,0.22l0.66-1.1l0.88-1.98
			l-0.44-1.32l-1.1-0.22l-1.32-0.66l-0.44,0.44l-1.32-0.66l-1.76-0.22l-0.66,0.66l-0.88-0.66l-0.66,0.22l-0.66-0.22h-0.88
			l-2.42,0.66l-1.54-0.22l-0.22,0.44l-1.32-0.22l-1.1,0.66l-0.88-0.22l-1.32,0.22l-0.44,0.66l-1.32,0.66l-0.88,0.44h-1.32
			l-0.66,1.32l-1.1,0.66l-0.88,0.88l-0.66,0.22l-0.66,0.88l-0.44,0.88l-0.88,0.22l-0.66,1.54l-0.44,0.66l-0.66,0.66l-0.88,0.44
			l-0.66,1.54v0.66l-0.88,0.66l-0.44,1.54v0.44l-1.1,1.32l-0.44,0.88l-0.66,1.1l-0.44,1.76v1.32L294.39,545z M305.39,547.42
			l0.44,1.32v1.76l0.44,0.88l0.66,0.44l1.54,1.32l0.88,0.88l0.66,0.22l0.44,0.66l1.54,0.66l1.1,0.88l1.76,1.76l1.54,0.22l0.66,0.66
			l1.54,1.32l0.88,0.66l2.2,0.44l0.88-0.22l1.98-0.66l1.1-1.1l1.1-0.88h0.22l1.1-0.66v-0.66l0.44-0.88l0.88-1.1l1.1-1.76l0.66-1.32
			l-0.22-0.66v-0.66l-0.22-1.76l-1.54-0.44l-0.88-0.66l-0.88-0.44h-1.76h-0.44l-1.32-0.66l-0.66-0.66l-1.32,0.22l-1.1-0.88
			l-0.66-0.66l-0.66-0.44l-0.88-0.44h-0.88l-0.66-0.88l-1.1-0.66l-0.88-0.88l-0.22-1.32l-1.98-1.1l-0.22-0.66h-0.66l-1.1-0.66
			l-0.66,0.44l-1.1,1.1l-0.88,0.44l-0.88,1.32l-0.22,1.76l-0.44,1.32l-0.44,0.66l-0.66,0.22v1.1L305.39,547.42z M306.49,506.5
			l-0.88,1.54l0.22,1.54l0.22,0.66l0.22,0.88l-0.44,1.76l1.1,0.88l1.98,1.32l1.32-0.44l-0.44-0.88v-1.54l0.44-1.1l0.22-1.54v-1.54
			l0.44-1.1l-0.22-0.88l0.22-0.88l0.66-0.88l0.22-1.1l0.66-1.1l-0.22-1.1l0.44-0.88l0.88-0.88l0.88-0.44l0.44-0.66l0.22-1.76
			l0.66-1.1h1.1l0.88-1.76l0.88-0.66l1.1-0.66l0.44-0.66l1.1-0.88l1.76-0.22l0.88-0.66l1.1-0.66l0.44-0.22l1.32-0.22l1.1-0.22
			l0.88-0.22l0.88-0.22l1.1,0.44l1.32,0.44l1.1-0.44h1.54h0.88l1.54-0.66l0.88-0.66l0.66-0.88l-0.22-0.88l-0.44-0.66l-1.32-0.44
			l-0.66-0.66l-1.1-0.22l-0.66-0.22l-1.54-0.66l-1.54-0.44l-3.3,0.66l-0.88,0.44l-0.44,0.66h-0.88l-1.32,0.66l-0.66-0.22l-0.88,0.44
			l-0.88-0.22l-1.76,0.22l-1.76,0.88l-1.1-0.22l-0.88,0.66l-0.22,1.1l-1.32,0.44l-1.1,0.22l-0.44,1.32l-1.1,0.66l-0.22,1.1
			l-0.88,1.54l-0.66,1.1l-0.66,0.66l0.22,0.88l-0.66,0.88v1.1l-1.32,0.44l-0.44,0.66v1.32l-0.44,0.88l-0.44,0.66v1.54l-0.22,0.88
			v0.88v0.88l-0.44,0.88L306.49,506.5z M310.45,570.74l-1.1,0.88v1.54l0.88,0.88l1.76,0.44l0.88,1.1l1.76-0.22l1.32-0.22l0.66-0.44
			l0.88,0.44l1.54-0.44l0.88,0.22l1.32-0.88l0.88-0.22l0.66-0.22l0.88-0.22l0.88-0.44h1.32l0.44-0.44l1.32-0.66l1.32-0.44l0.22-0.88
			l0.88-0.66l0.66-0.44l1.32-0.22l1.1-1.1l0.66-0.66v-0.66l0.44-0.44l0.88-1.1l1.1-0.66l0.44-0.66l0.44-0.66l0.88-1.32l0.44-0.22
			l0.44-0.88l0.44-1.32l0.88-0.88l0.22-0.88l0.88-0.88l0.22-0.66l0.22-1.32l0.22-0.22l0.22-1.54l0.88-1.32l1.32-1.76l-1.1-0.66
			l-0.22-1.32l-0.44-1.1l-1.32-0.22l-0.66,0.88l-0.88,0.88l-0.44,0.88l-0.44,1.54l0.22,0.66l-1.32,1.98l-0.66,0.88l-0.22,1.32
			l0.44,1.1l-0.88,0.22l-0.22,1.76l-0.22,0.66l-1.1,0.22v1.32l-0.66,0.66l-0.22,1.32l-1.32,0.88h-1.1l-0.22,0.88l-1.1,0.22
			l-0.44,1.54l-0.44,0.44h-0.88l-0.88,0.66h-1.76l-0.22,0.88l-0.66-0.22l-1.98,0.88h-0.22l-1.32,0.66l-0.66,0.22l-0.88-0.66
			l-1.54,0.22l-0.66,0.88l-1.98-0.22l-1.32,0.22l-0.88,0.22l-1.1-0.22l-1.32-0.22L310.45,570.74z M310.01,468.88v1.54v1.76
			l-0.22,0.88l0.88,1.32l0.88,1.1l0.44,0.66l1.1-1.32l-0.44-0.88l1.1-1.32l-0.66-0.44l0.22-2.2l0.44-0.88l-0.44-1.32l0.88-0.66
			l-0.22-0.66l0.44-1.32l0.22-0.88v-1.1l0.88-1.1l0.66-0.22l0.66-0.88l0.44-0.88l0.66-1.1l0.66-0.66l0.22-1.1l0.88-0.66l0.66-1.1
			h1.32l0.88-0.88l0.66-0.66l0.44-0.22l1.54-0.66l0.88-0.44l0.22-0.22l0.88-0.22l1.1-0.44l1.76-0.44l0.66,0.22l0.44-0.88l1.1,0.22
			h1.32h1.1h0.88h1.32l0.88,0.44h0.88l0.66-0.22l0.88,0.22l1.1,1.1l0.88-0.22l1.32,0.88l1.54,0.88l0.44,0.66l0.66,0.88l0.66,0.66
			l0.66,0.66l0.22,0.66l0.88,0.88l0.22,0.88l1.1,1.1v1.32l0.88,0.66l0.66,0.66l0.66,1.1l0.44,1.32v0.88v0.44l0.22,1.32l-0.22,0.44
			l0.44,1.76v0.88v1.1v0.66l0.66,1.76v0.22l-0.44,0.88v1.54l-0.22,0.88l-0.66,1.1l-0.66,1.76l-0.44,0.66l-0.88,1.1l-0.66,1.54
			l-0.44,0.22l-0.22,0.22l-0.88,1.32l-0.66,0.66l-1.1,1.32l-0.66,0.44l-0.66,0.44l-0.22,0.88l-1.1,1.32l-0.88,0.44l-0.44,0.66
			l-1.32,0.22l-0.66,0.44l-1.1,0.66l-0.66,0.44l-1.54,0.22h-1.54l-1.54,0.66l-1.1,0.66l-1.1,0.44h-0.66l-1.1,0.66l-1.1-0.22
			l0.88,1.1l0.44,1.98l1.32,0.22l1.1,0.22l1.76,0.44l1.54,0.22l0.88,0.22h1.32l0.44-1.1l0.88-0.22l1.54-0.88l0.44-0.44h0.44
			l1.1-0.88l1.54-1.1l0.66-0.44l0.88-0.22l1.32-1.1l0.22-0.66l1.32-0.44l0.66-0.44l0.44-1.32l0.88-0.44l0.88-1.1l0.88-0.44
			l0.66-0.66l0.44-0.66l0.22-1.32l1.32-0.44v-0.66l0.22-1.1l0.88-0.66v-0.88l0.66-1.54l0.22-0.88l-0.44-0.44l0.66-1.76v-0.88
			l-0.22-0.22l0.66-1.98v-0.44l0.22-1.54v-1.32l-0.44-1.76l0.22-0.44l-0.22-1.54l-0.22-1.32v-0.66l-0.88-1.54v-1.1l-0.44-1.1
			l-0.66-0.66l0.22-1.1l-0.88-1.1l0.22-0.66l-0.88-0.88v-1.54l-0.66-0.66l-0.66-1.1h-0.88l-0.66-1.54l-0.22-0.44l-1.1-1.1
			l-0.22-0.88l-1.1-0.22l-1.32-0.22l-0.44-0.88l-1.1-0.88l-0.88-0.22h-1.1l-1.1-0.88h-0.88l-0.88-0.66h-0.44l-1.32,0.22l-1.32-0.66
			h-1.32l-1.98,0.22l-0.66-0.66l-0.44,0.22l-1.1,0.22l-1.32,0.66l-0.88-0.66l-1.32,0.66l-1.32-0.22l-0.44,0.66h-0.88l-1.1,0.88
			l-1.98,0.66l-1.1,0.88l-0.66,0.22l-0.66,0.44l-0.88,0.66l-0.88,0.88l-0.88,0.66l-0.66,0.44l-0.22,0.22l-1.32,0.66l-0.66,0.88
			l-0.22,1.1l-0.44,1.1l-0.88,0.88l-1.1,0.66l-0.44,1.1l-0.22,0.66l-1.1,0.88l-0.44,0.88l0.44,1.54l-0.22,0.44l-0.22,0.88
			l-0.66,1.32l0.44,0.44L310.01,468.88z M317.49,510.02v1.54l0.22,1.54l-0.22,0.44l1.32,0.22l1.32,0.88l0.44,0.44h1.76l1.54,0.44
			l0.66-0.22l1.32,0.22l0.44,0.66l1.32-0.22l0.88,0.22l0.66,0.44h1.1l1.1,0.66l0.88,0.22l1.1,0.22l1.32,0.88l0.44-0.22l1.54,0.66
			l2.2-0.44l0.44-0.66l1.32-0.88l0.44-1.76l0.88-0.66l0.44-0.66l-0.22-0.88l0.88-1.1l0.44-1.32l-0.66-1.32l-0.66-0.88l-0.44-0.88
			l-0.22-1.1l-0.88-0.44l-1.98,0.88l-0.88,0.44l-0.88-0.44l-1.1,0.66l-1.76,0.66l-0.44-0.88h-0.88l-1.54-0.66l-0.22-0.22h-1.54
			l-0.88-0.44l-1.1-0.44l-1.1-0.66l-0.44-0.66l-0.66-0.22l-1.1-1.54l-1.1-0.88l-1.76,0.22h-1.1l-1.1,1.32l-1.32,1.76l-0.44,1.1
			l0.22,0.88v0.88v1.32V510.02z M320.13,470.42v1.54v1.54l0.22,0.88l0.88,0.44l1.1,0.22l0.22,0.88l0.66,0.66h1.32h1.54l1.76-0.22
			l0.88-0.66l0.88,0.66l0.88-0.44l1.1-0.22l1.76,0.66l0.66-0.66l0.88,0.22l2.42,0.22h0.88l0.88-0.44l1.76,0.66l0.44-0.44l1.1,0.44
			l1.54-0.44l1.32-1.1l0.22-0.88l0.44-1.32l0.22-1.98l0.44-0.88v-1.1l-0.66-0.88v-1.54l-0.88-1.76l-0.66-0.22l-0.88-0.88l-0.44-1.76
			l-0.66-0.22l-0.66-1.1l-0.44-1.1l-0.44-0.22l-1.54-0.88v-0.44l-1.1-0.44l-1.76-0.88h-0.88l-1.76-0.44l-0.66,0.44h-0.88h-0.88
			l-0.66,0.44l-1.54,0.22l-0.88,0.88l-0.88,0.66l-0.66,0.66h-0.88l-0.22,1.1l-1.1,0.88l-0.44,0.88l-0.66,0.44l-0.66,0.88l-0.66,0.88
			l-1.1,0.88v0.66l-0.22,1.54l-0.66,0.22v1.1V470.42z M324.09,535.1l-1.1,0.88l1.76,1.76l0.88-0.22l1.1,0.44h1.54l1.54-0.44
			l0.66,0.44l1.32,0.22l1.76-0.88l0.44,0.44l1.98-0.66l0.44-0.88l1.32-0.44l1.32,0.22l0.88-0.66v-0.88l0.88-0.66h1.1l0.22-0.88
			l1.1-0.44l1.1-0.88l0.22-0.88l1.76-1.1l1.1-0.44l0.44-1.1l0.44-0.44l1.54-1.1l-0.22-0.66l0.66-1.1l0.88-0.44V523l1.32-0.44v-1.1
			v-1.32l0.88-0.88v-0.66l0.44-0.88l0.44-1.1l0.22-0.66l-0.22-0.88l0.88-0.88l0.44-0.88l-0.44-1.54l0.44-0.88l0.22-0.66l0.66-1.32
			v-1.1l0.22-2.2l-0.44-0.44l-0.22-1.54l-0.44-1.1l-0.44-0.44l-1.1-1.32h-0.66l-2.2,0.44l-0.88,0.66l-0.22,0.44v1.1v1.1l0.22,0.88
			l-0.22,1.98l-0.44,1.54l0.22,0.88v0.88l0.22,1.76l-0.22,0.66v0.66l-0.66,1.54l-0.44,0.66l-0.66,1.54l0.22,1.1v0.88l-0.88,0.22
			l-0.44,1.54l-0.66,1.32l-1.32,0.66l-0.66,1.1l-0.88,0.22l-0.66,1.1l-0.44,0.66l-0.88,0.66l-0.44,1.1l-0.88,0.66l-1.1,0.66
			l-0.66,0.22l-0.88,1.1l-0.66,0.66l-1.54-0.22l-0.44,0.88l-1.1,0.22h-0.44l-1.32,1.1l-1.1,0.22V534l-1.32,0.44h-1.32h-1.98h-1.32
			L324.09,535.1z"/>
		<path class="st1" d="M331.35,471.3h35.2l73.7,125.62c-0.22-6.6-0.44-13.86-0.44-20.9V471.3h23.54v154h-31.68l-77.22-131.34
			c0.22,7.26,0.22,13.42,0.22,19.8V625.3h-23.32V471.3z"/>
		<path class="st1" d="M480.29,508.04l8.36,1.76l12.76,78.1l-7.04,5.5L480.29,508.04z M486.67,596.48l6.6-6.16l4.4,18.26l-5.94,9.24
			L486.67,596.48z M488.87,499.02l48.62-21.56c29.04-12.98,55.66-14.96,77-2.86l-2.86,7.04c-19.14-11.22-43.12-9.46-70.84,3.08
			l-41.36,18.48l12.98,29.26l-9.24-1.54L488.87,499.02z M550.25,623.98l-56.32,5.06l-1.32-14.74l7.26-8.14l1.32,14.3l48.4-4.4
			c34.1-3.08,55.22-17.82,64.02-41.14l6.82,3.74C610.09,603.96,586.55,620.68,550.25,623.98z M502.07,512.22l-8.14-3.08v-3.74
			l8.14,5.28V512.22z M509.99,512.88l7.92,3.3v4.4l-7.92-5.28V512.88z M523.85,578l-8.58,2.64l12.1-60.28l6.6,6.6L523.85,578z
			 M518.13,578l8.58-2.42l-1.98,9.46l-9.46,5.5L518.13,578z M551.35,489.56l-22-4.18l-4.4,23.54l-7.26-4.84l5.28-27.94l29.92,5.5
			c26.18,5.06,41.8,17.38,47.96,35.42l-6.6,4.18C589.41,504.74,575.77,494.18,551.35,489.56z M553.33,614.3l-29.04,11.22
			l-6.16-16.06l4.62-9.68l6.16,15.4l21.56-8.14c23.76-9.24,36.74-23.32,35.86-44.88l7.92,1.76
			C594.03,587.9,578.85,604.4,553.33,614.3z M608.11,531.8l-6.16,5.5c-2.2-5.5-5.06-10.34-8.14-14.3l4.4-6.6
			C602.17,520.8,605.47,525.86,608.11,531.8z M603.49,545.88l6.82,4.84c-2.42,8.58-5.5,15.62-9.46,21.56l-5.5-5.72
			C598.65,561.06,601.51,554.02,603.49,545.88z M612.51,548.96c0,1.76,0,3.74-0.22,5.72l-7.7-3.08c0-0.88,0-1.76,0-2.42
			c-0.22-5.28-0.88-10.12-1.76-14.52l7.26-4.4C611.41,535.98,612.07,542.14,612.51,548.96z M633.85,513.76l-6.6,4.4
			c-3.08-7.48-6.82-13.64-11.44-18.92l4.84-5.72C625.93,499.02,630.33,505.84,633.85,513.76z M621.09,555.56l7.92,1.76
			c0.22,10.12-0.88,19.36-3.52,27.94l-7.04-3.3C620.65,574.04,621.53,565.24,621.09,555.56z M640.45,544.12
			c1.76,5.06,3.3,10.12,4.4,14.96l-8.14-0.44c-1.1-3.74-2.2-7.7-3.74-11.66c-3.3-9.46-7.48-17.38-12.32-23.98l5.28-6.16
			C631.65,524.32,636.49,533.34,640.45,544.12z"/>
		<path class="st1" d="M652.55,471.3h102.74v19.58h-79.42v45.54h76.12v19.8h-76.12v49.28h82.28v19.8h-105.6V471.3z"/>
		<path class="st1" d="M746.93,517.28l53.46-39.38c23.54-17.38,47.74-17.6,63.36,3.52c11.88,16.28,7.92,35.86-1.1,47.3
			c14.08-6.82,29.92-2.64,41.8,13.42l23.98,32.78l-18.7,13.86l-21.56-29.48c-12.98-17.6-23.98-18.26-41.14-5.72l-28.82,21.12
			l38.72,52.8l-18.92,13.86L746.93,517.28z M846.59,498.8c-9.46-12.98-22.88-13.64-38.72-1.98l-30.58,22.22l29.04,39.82l30.8-22.66
			C852.53,524.76,856.05,511.56,846.59,498.8z"/>
		<path class="st1" d="M943.17,613.64c0.22-5.5,0-11.44,0.44-16.94c0.66-5.72,0.22-11.44,0.88-17.16c0-0.22,0-0.66,0-0.88
			c-0.22-1.32-0.66-2.2-1.54-2.64c-1.76-0.66-2.64-1.98-3.96-3.3c-1.54-1.54-2.2-3.52-2.42-5.5c-0.22-3.08-0.66-6.38-0.22-9.68
			c0.66-4.18,0.22-8.36,0.66-12.54c0.22-5.06-0.44-9.9-1.54-14.74c-0.44-3.74-0.44-7.48,0.22-11.22c0.66-2.86,0.66-5.72-0.22-8.8
			c-0.44-0.88-0.88-1.54-1.76-1.76c-1.54,0-2.86,0.22-3.3,1.32c-0.22,0.44-0.66,1.32-0.88,1.98c-0.66,3.08-1.32,5.94-1.76,9.02
			c-0.44,2.2-0.44,4.4-0.44,6.6c0,2.42,0,4.84,0,7.26c0,3.96,0,7.92,0.66,11.66c0.44,1.54,0.44,2.86,0.44,4.18
			c0.22,5.94,0.44,11.88,0.44,17.6c0,2.64-0.22,5.28-0.44,7.7c-0.22,4.18-2.86,6.38-6.16,8.14c-1.54,0.88-3.3,1.32-4.84,1.54
			c-3.08,0.88-5.94,1.32-8.8,1.76c-0.88,0.22-1.98,0.44-2.86,0.88c-4.18,1.1-8.14,1.54-12.32,1.32c-2.42,0-4.84,0.44-7.04,0.66
			c-1.54,0.22-2.64-0.22-3.3-1.32c-1.32-0.88-2.42-1.98-3.08-3.3c-2.2-3.08-2.42-6.82,0-10.12c1.32-1.76,2.86-3.3,4.84-4.4
			c2.64-1.1,4.84-2.2,7.7-3.08c1.98-0.44,3.96-1.1,5.94-1.98c4.18-1.54,5.72-3.52,5.72-8.14c0-2.86,0-5.72-0.44-8.58
			c-0.22-2.64-0.22-5.06,0-7.92c0.22-6.16,0.88-12.1,1.98-18.26c0.66-5.5,1.76-11,2.42-16.28c1.1-5.72,2.86-11.22,6.16-15.84
			c0.88-1.1,1.76-2.2,2.64-3.3c1.32-1.32,2.64-2.64,3.74-3.96c1.98-2.2,4.4-3.52,6.82-4.84c1.32-0.44,2.42-0.88,3.52-0.88
			c4.4,0,8.58-0.44,12.76-0.66c2.2-0.22,4.4-0.22,6.38,0.22c3.74,0.44,7.48-0.22,11.22-0.66c0.88,0,1.76-0.44,2.42-0.66
			c2.2-0.88,4.18-1.98,5.94-2.86c0.66-0.44,1.32-0.66,1.76-1.32c2.42-1.98,3.08-4.4,2.2-7.48c-0.66-1.76-1.32-3.3-1.98-5.06
			c-1.1-2.64-1.76-4.84-1.54-7.7c0.22-1.76,0-3.52,0.22-5.28c0.22-3.96,1.76-7.48,4.84-10.34c3.74-3.3,8.14-5.06,12.54-6.6
			c2.42,0,4.62-0.22,6.82-0.22c1.32,0,2.42,0,3.52,0.22c2.42,0.66,4.18,1.32,5.94,3.3c2.86,3.52,4.62,7.26,5.06,12.1
			c0.22,0.44,0.44,1.32,0.66,1.76c0.88,2.42,0.66,4.84,0.44,7.26c-0.44,3.08-1.32,5.94-3.52,8.58c-2.2,2.2-4.18,4.4-7.04,5.72
			c-0.66,0.44-1.1,1.1-0.88,1.76c0,0.44,0,0.88,0,1.54c-0.44,5.28,0.22,4.4,4.84,5.94c0.44,0.22,1.32,0.44,1.98,0.44
			c3.08,0,5.72,1.32,8.36,2.64c1.32,0.44,2.42,0.88,3.96,0.88c1.1,0,2.42,0.22,3.52,0.22c0.66,0,1.76,0,2.42-0.22
			c4.84-1.32,6.38-4.84,7.48-8.36c0.88-3.3,1.32-6.82,1.54-10.34c0.44-3.74,0.66-7.7,1.98-11.44c0.22-1.54,0.22-2.86,0.66-4.18
			c0.44-2.2,1.54-3.74,3.74-4.62c2.86-1.32,5.94-2.42,9.24-1.98s6.6,0.22,9.9,0.44c2.86,0,5.5,0.44,8.14,0.66
			c4.18,0.44,6.6,2.86,8.8,5.72c1.32,1.76,1.32,3.96,0.66,5.94c-0.66,1.32-1.32,2.64-1.76,3.74c-1.1,2.2-2.64,3.3-4.62,4.18
			c-1.76,0.66-3.52,1.1-5.28,1.1c-3.3,0-6.6,0.22-9.9,0.44c-0.66,0-1.54,0.88-1.76,1.76c-0.22,2.2-0.22,4.84-0.44,7.04
			c-0.44,3.74-0.66,7.26-0.88,10.78c-0.22,1.98-0.66,4.18-0.88,6.16c-0.22,0.22-0.22,0.44-0.22,0.44c-1.76,3.08-2.86,6.38-5.06,9.02
			c-0.88,1.32-1.76,2.42-2.64,3.74c-1.76,2.2-3.96,3.74-6.6,5.06c-2.86,0.88-5.72,1.76-9.02,1.98c-1.54,0.44-3.3,0.66-5.06,0.88
			c-0.66,0-1.54,0.22-1.98,0.22c-3.74,0.88-5.72,3.3-6.16,6.82c-0.44,1.76-0.44,3.96-0.44,6.16c0,7.48-0.22,15.18-1.54,22.44
			c-0.22,0.88-0.22,1.76-0.22,2.64c-0.22,1.32-0.22,2.42-0.44,3.52c-1.1,4.84-1.1,9.9-1.54,14.96c-0.22,3.52-0.22,7.26-0.22,10.78
			c0,2.86-0.22,5.5-0.44,8.14c0,2.64,0,5.28,0,7.92c0,2.42-0.22,5.06-0.44,7.7c-0.22,1.76-0.22,3.74-0.44,5.72
			c-0.44,3.3,1.1,5.5,3.74,7.48c1.1,0.88,2.42,1.76,3.74,2.42c3.96,2.86,7.04,5.94,9.9,9.68c0.88,1.54,1.54,2.86,1.54,4.4
			c0.44,2.42-0.44,4.4-2.42,5.72c-2.42,1.32-5.06,2.2-7.92,2.64c-1.98,0.44-3.96,0-5.94-1.32c-2.42-1.1-4.84-2.2-7.26-3.3
			c-2.64-1.32-5.06-2.42-7.26-4.18c-0.88-0.88-2.2-1.54-3.52-2.2c-0.66,0-1.54-0.22-1.98-0.44c-2.42-1.1-4.84-1.98-6.16-4.4
			c-1.98-3.3-3.74-6.6-3.3-10.56c0.22-4.4,0.44-9.02,0.44-13.42c0-0.88,0-2.2,0.22-3.08c0.88-3.08,0.66-6.16,0.88-9.24
			c0.22-3.3,0.44-6.38,0.88-9.68c0.44-1.98,0.88-4.18,0.22-6.16c-0.22-0.88,0-1.98,0.22-3.08c0-1.76,0.22-3.52,0-5.28
			c0-1.76-0.88-3.3-1.76-4.62c-0.22-0.22-0.66-0.44-1.1-0.44c-0.22,0-0.88,0.22-0.88,0.88c-0.44,2.64-0.66,5.28-0.88,7.7
			c-0.22,3.3,0,6.6-1.1,9.68c0,0.66,0,1.32,0,2.2c0,3.08-0.22,5.94-0.88,9.02c-0.66,2.64-0.88,5.06-1.1,7.92
			c-0.66,5.28-1.76,10.78-2.86,16.06c-0.22,0.66-0.44,1.32-0.44,2.2c0,2.86-0.88,5.72-1.76,8.36c-0.66,1.76-0.22,3.3,0.88,4.62
			c2.42,2.86,4.62,5.28,7.04,7.92c2.42,2.42,3.74,5.72,5.5,8.36c0.88,3.3,1.76,6.16,0.88,9.24c-0.44,1.1-1.1,1.98-1.76,2.42
			c-1.76,1.54-3.96,2.64-5.94,3.08c-2.64,0.88-5.5,0.66-8.14,0c-0.44,0-1.1-0.22-1.54-0.66c-2.2-1.98-5.06-3.74-6.6-6.16
			c-1.54-1.76-3.3-3.08-5.06-4.62c-2.42-1.54-4.62-3.3-7.48-4.62c-1.32-0.22-2.42-1.54-3.74-2.2c-1.1-0.88-1.76-1.54-1.76-2.86
			c-0.22-2.64-1.32-5.06-0.88-8.14c0.22-3.52,0.22-7.48,0.44-11.22C943.17,615.62,943.17,614.74,943.17,613.64z M920.73,533.34
			c0-1.98,0-3.74,0-5.72c0-2.64,0-5.5,0.88-8.14c0.88-2.86,1.54-5.94,2.42-9.02c0.22-1.32,1.1-2.42,2.2-3.3
			c1.32-1.1,2.86-1.98,4.18-3.08c1.76-1.54,3.74-1.76,5.72-1.32c2.64,0.66,4.84,1.98,5.72,4.84c0.66,3.08,1.32,6.16,1.32,9.46
			c-0.22,7.48-0.88,14.52,0.22,21.78c0,0.22,0,0.44,0,0.66c0,5.94-0.22,11.88-0.22,18.04c0,2.64,0,5.28,0.22,8.14
			c0,2.2,0.88,3.96,2.86,5.06c0.66,0.44,1.1,0.88,1.76,1.32c2.2,1.76,3.52,3.96,3.3,7.04c0,1.76-0.22,3.3-0.44,5.06
			c-0.22,1.32-0.44,2.86-0.44,4.18c0,1.54,0,3.08,0,4.62c-0.22,7.48-1.76,15.18-1.1,22.66c0,0.88,0,1.32,0,2.2
			c-0.22,3.08-0.44,6.38-0.44,9.68c0,1.98,0.22,3.74,0.44,5.5c0,1.32,0.88,1.98,1.76,2.42c0.44,0.22,0.66,0.44,0.88,0.44
			c5.72,1.98,10.34,5.72,14.52,9.9c1.76,1.98,3.52,3.3,5.94,4.84c1.32,0.88,2.42,0.66,3.96,0c1.54-1.1,1.98-2.2,1.54-3.96
			c-0.66-3.3-2.2-6.16-4.4-8.8c-1.32-1.54-3.08-3.08-4.62-4.84c-1.32-1.54-2.86-3.08-4.18-5.06c-1.1-0.88-1.54-2.2-1.32-3.52
			c1.54-4.84,1.54-9.68,3.08-14.3c1.32-3.74,1.98-7.92,2.64-11.88c0.66-4.62,1.32-9.02,2.42-13.2c0.44-2.2,0.66-4.18,0.66-6.16
			c0-1.98-0.22-3.96,0.22-5.72c0.66-3.74,0.66-7.26,0.88-10.78c0.22-2.2,0.66-4.62,1.1-6.6c0.22-1.54-0.22-2.42-1.32-3.3
			c-2.86-2.42-4.84-5.72-7.26-8.58c-0.66-1.1-0.88-1.98-0.88-2.86c0-1.32,0.66-1.98,1.76-2.42c1.54-0.44,2.86,0,3.96,0.88
			c0.66,0.88,1.1,1.76,1.76,2.64s1.32,1.98,2.2,2.86c1.1,1.54,3.08,1.76,4.4,0.66c0.88-0.66,1.76-1.32,2.2-2.2
			c1.54-1.1,2.64-2.2,3.74-3.74c0.88-0.66,1.76-0.88,2.86-0.88c2.42-0.22,4.18,1.32,4.62,3.96c0,0.22,0,0.88-0.44,1.32
			c-0.66,0.66-1.32,1.54-2.2,2.2c-1.1,1.1-2.2,2.2-3.3,3.08c-0.44,0.66-0.66,1.54-0.44,1.98c0.66,0.88,1.32,1.76,1.76,2.64
			c2.64,3.52,3.3,7.04,2.86,11.22c-0.22,2.2-0.22,3.96,0,6.16c0.22,2.42,0,4.4-0.22,6.6c-0.22,1.98-0.88,3.96-1.1,5.72
			c0,1.76,0,3.74-0.22,5.72c-0.44,3.52-1.1,7.26-1.32,10.56c0,0.88,0,1.54,0,2.2c0.22,1.32,0,2.86,0,4.18
			c-0.22,1.98-0.22,4.4-0.22,6.6c0,1.1,0.22,1.98,0.22,3.08c0.66,1.98,1.76,3.52,4.18,4.18c3.52,1.1,6.6,2.64,9.68,4.84
			c3.3,2.42,7.26,3.96,10.78,5.94c1.1,0.44,2.2,0.88,3.52,0.66c1.1-0.22,2.2-0.22,2.86-1.1c0.44-1.1-0.44-2.42-1.32-3.08
			c-0.66-1.1-1.54-1.76-2.42-2.64c-2.2-1.76-4.4-3.3-6.6-5.06c-1.98-1.54-3.74-2.86-5.72-4.4c-0.66-0.44-1.1-1.1-1.54-1.98
			c-0.66-1.76-1.32-3.52-0.88-5.28c0.66-6.38,0.22-12.98,1.54-19.14c0.22-0.44,0.22-1.1,0.22-1.54c0.22-6.38,0.44-12.76,0.44-19.14
			c0-1.98,0-4.18,0.22-6.16c0.22-1.32,0.44-2.86,0.66-4.18c0.66-4.4,0.88-8.58,1.54-13.2c0.88-6.38,1.76-12.54,1.32-18.92
			c0-2.42,0-4.62,0.22-6.82c0.22-4.4,1.1-8.58,4.18-11.88c0.22-0.22,0.66-0.66,0.88-1.32c1.54-1.98,3.52-2.64,5.72-2.2
			c0.66,0,1.32,0,1.54,0c4.18,0.44,8.14,0,11.66-1.54c1.98-0.44,3.52-1.76,4.62-3.3c1.98-2.42,3.74-5.06,5.5-8.14
			c2.42-3.52,3.52-7.7,3.74-11.88c0.44-4.84,0.88-9.68,1.54-14.3c0-0.66,0.44-1.32,0.44-1.76c0.22-2.86,1.98-4.18,4.4-4.84
			c1.76-0.22,3.52-0.44,5.28-0.22c1.1,0,2.2,0,3.52,0c1.54,0,3.08-0.44,4.4-1.1c2.2-0.88,3.08-2.64,3.74-4.84
			c0.22-0.88-0.66-2.42-1.76-2.64c-0.22-0.22-0.66-0.44-1.1-0.44c-4.4-1.1-9.02-1.32-13.64-0.88c-2.42,0.22-4.62,0.88-6.38,1.98
			c-0.66,0.22-1.32,0.66-1.54,1.32c-1.54,4.62-3.08,9.02-3.08,13.86c0,1.1,0,2.2,0,3.08c-0.44,3.3-0.88,6.6-1.32,9.9
			c-0.66,4.18-2.86,7.26-6.82,9.24c-3.08,1.54-6.6,1.98-9.9,1.98s-6.82-0.22-10.34-0.22c-2.2,0.22-4.18,0-5.94-1.32
			c-2.2-1.76-4.84-2.64-7.48-3.52c-1.54-0.44-3.08-1.1-4.4-1.98c-4.4-2.86-4.62-3.08-4.4-8.14c0.22-4.62,1.54-8.36,5.5-11.22
			c0.66-0.22,0.88-0.88,1.54-1.32c2.64-1.1,3.52-3.52,4.18-5.94c0.66-1.98,0.66-3.96,0.22-5.72c-0.22-2.86-0.66-5.72-1.1-8.58
			c-0.22-1.1-0.66-2.2-1.1-2.86c-1.32-1.54-3.08-2.42-4.84-2.86c-1.98-0.22-3.96-0.44-5.72,0.66c-1.76,0.44-3.52,1.32-5.28,1.98
			c-2.2,0.88-3.52,2.42-4.4,4.84c-0.66,1.98-1.1,3.74-1.1,5.94c0,3.96,0.44,7.48,1.76,11c0.88,2.86,1.54,5.28,1.32,8.14
			c-0.22,2.2-0.88,3.74-2.64,4.84c-1.1,1.32-2.42,1.98-3.3,3.3c-1.1,1.98-3.08,3.08-5.06,4.4c-5.94,3.08-12.1,3.74-18.48,3.08
			c-3.3-0.66-6.6-0.66-9.9-0.44c-3.3,0.22-6.82,0.66-10.34,0.88c-0.88,0-1.98,0.22-2.64,0.88c-4.4,3.52-8.14,7.48-10.34,12.76
			c-1.98,4.62-3.52,9.24-3.52,14.3c0,1.98-0.22,3.96-0.88,5.72c-0.44,1.54-0.66,3.08-0.88,4.62c-0.44,4.84-1.1,9.46-1.54,14.3
			c0,3.74-0.22,7.26-0.22,11c0,3.74,0.44,7.92,0.66,11.66c0.22,3.08-0.44,5.72-2.64,7.7c-3.08,2.64-6.6,4.84-10.78,5.72
			c-2.86,0.66-5.72,1.32-8.36,2.2c-1.32,0.44-2.42,0.88-3.3,1.76c-0.44,0.44-0.88,0.88-1.1,1.54c-0.22,0.66-0.44,1.32-0.44,2.2
			c0,1.98,1.54,2.86,3.08,2.86c1.1,0,2.42,0,3.52,0c3.08-0.22,5.94-0.66,8.8-0.66c2.2,0,4.18-0.44,5.94-0.88
			c2.2-0.44,4.18-0.88,6.16-1.32c0.88-0.22,1.76-0.22,2.42-0.66c3.74-0.88,5.94-3.3,6.16-7.26c0.22-1.1,0.44-1.98,0.44-3.08
			c0-6.16,0.22-12.32,0.22-18.48c0-1.54,0-2.86-0.44-4.18C920.51,542.36,920.73,537.96,920.73,533.34z M963.85,511.78
			c-2.2,0-2.86-0.66-3.52-1.76c0-0.44-0.22-0.66-0.22-1.1c-0.22-1.1-0.22-2.2,0.66-3.3c0.88-0.88,2.2-0.88,3.3-0.66
			c1.54,0.22,2.64,1.32,3.52,2.64c0.66,1.32,0,3.3-1.32,3.74C965.17,511.56,964.29,511.78,963.85,511.78z M984.31,453.04
			c-2.2,0-3.08-0.66-3.52-1.76c0-0.44-0.22-0.66-0.44-1.1c-0.22-1.1-0.22-2.2,0.88-3.3c0.88-0.88,1.98-0.88,3.3-0.66
			c1.54,0.22,2.64,1.32,3.3,2.64c0.88,1.32,0,3.3-1.32,3.74C985.63,452.82,984.53,453.04,984.31,453.04z M992.89,512.88
			c-2.2,0-3.52-1.1-3.74-3.3c-0.44-1.54,0.22-2.86,1.54-3.52c1.32-0.88,3.3-0.44,4.18,0.88c0.66,0.66,1.1,1.54,1.54,2.42
			c0.88,1.54-0.44,3.08-1.98,3.3C993.99,512.88,993.33,512.88,992.89,512.88z M997.51,453.26c-2.2,0-3.3-1.1-3.74-3.3
			c-0.44-1.54,0.22-2.86,1.54-3.52c1.32-0.66,3.3-0.22,4.18,0.88c0.66,0.66,1.32,1.54,1.54,2.42c0.88,1.54-0.22,3.3-1.98,3.3
			C998.61,453.26,997.95,453.26,997.51,453.26z"/>
		<path class="st1" d="M1100.03,490.88h-52.58V471.3h128.26v19.58h-52.36V625.3h-23.32V490.88z"/>
		<path class="st1" d="M1190.67,565.68V471.3h23.32v91.08c0,31.9,12.54,46.86,36.3,46.86c23.76,0,36.52-14.74,36.52-46.86V471.3
			h23.32v94.38c0,41.8-22.66,63.14-59.84,63.14C1212.89,628.82,1190.67,607.48,1190.67,565.68z M1216.41,427.96h23.98v24.64h-23.98
			V427.96z M1260.19,427.96h23.98v24.64h-23.98V427.96z"/>
		<path class="st1" d="M1272.07,489.16l0.44-2.86V483l0.22-1.76l0.66-1.54l0.88-1.76l1.1-1.54l0.88-1.1l1.32-1.54l1.76-2.2l1.76-1.1
			l0.88-1.32l2.2-1.1l1.98-1.1l0.44-0.66h1.32l1.1-0.88l2.2-0.66v-1.76l0.66-2.2l-0.22-1.32l0.22-1.98l0.66-1.54v-1.32l0.66-1.32
			l1.32-1.98l0.66-1.54l1.1-1.1l1.1-1.76l3.08-2.2l1.1-1.1l1.76-1.1l0.88-0.88l2.42-0.44l1.32-0.88l1.76-0.66l3.52-0.88l3.3,0.66
			l1.98,0.66h1.98l3.3,1.54l0.88,1.54l1.1,0.66l1.76,0.88l0.44,1.76l2.2,2.86l1.54,1.1l0.66,1.54l0.88,2.2l0.88,1.54l0.66,1.76
			l-0.66,1.76l1.32-1.1l1.32-0.44l3.08,0.66l1.32-0.44h1.98l1.54,0.88l1.32,0.22l1.98,0.44l1.54,0.44l1.32,0.66l1.98,0.66l1.54,0.66
			l2.42,1.1l1.98,0.66l1.54,1.54l0.88,0.44l1.98,0.88l1.32,0.88l1.32,1.54l0.88,0.66l1.98,0.88l0.88,1.54l3.08,2.2l0.88,1.1
			l1.54,0.88l1.32,1.54l1.54,1.32l1.1,0.66l1.54,1.98l1.32,0.88l0.88,1.1l1.1,1.98l1.1,0.66l1.32,1.32l1.1,2.86l0.44-1.32l1.76-4.18
			l1.32-3.74l-0.22-1.32l1.1-1.76l0.66-1.32l1.1-1.54l0.44-1.76l1.1-1.1l1.1-1.76l1.54-1.32l2.42-2.2l0.88-1.1l1.76-1.32l1.1-1.76
			l1.32-1.1l0.88-0.66l1.32-1.32l1.76-1.32l0.88-1.32l1.76-1.54l1.32-0.88l2.2-1.98l1.32-1.1l1.98-1.32l1.54-0.66l1.32-0.88
			l2.86-2.64l1.32-3.96l1.32-1.32l0.66-1.98l1.1-1.32l0.66-1.32l1.76-1.32l1.1-1.1l-0.66-1.54l-0.44-0.44l-0.66-1.76l-0.22-4.18
			l0.22-2.2l0.44-3.52l1.1-1.98l0.88-1.54l0.66-1.1l1.1-0.88l0.66-1.98l1.54-1.32l2.2-2.2l1.54-0.22l1.54-1.1l1.76-0.88l1.54-0.44
			l1.98-0.22l1.54-0.22l1.54,0.22l1.98-0.22l3.3,0.88h1.98l1.54,1.1l1.76,0.22l2.2,1.98l1.98,1.32l1.1,1.32l0.88,0.44l1.32,1.32
			l1.54,2.42l1.54,1.54l1.76-2.2l1.98-0.44l1.54-1.1l2.42-0.44h2.64l1.54-0.88l1.76,0.22l1.32-0.66l1.76-0.22l1.98,0.22l1.98,0.66
			l2.64,0.66l1.54,0.44l3.3,0.88l1.54,1.1l2.2,1.1l0.88,0.66l1.98,1.76l1.32,1.1l1.98,3.08l0.66,1.76l1.1,1.54l0.22,1.1l0.66,1.98
			l0.22,1.54l0.22,1.76l0.44,1.32l0.44,1.98l-0.22,1.76l-0.22,3.52v1.1l-0.66,2.2l-1.54,2.86l-1.54,1.32l-0.88,0.88l-0.66,1.54
			l-1.1,1.32l-1.54,1.54l-1.54,1.1l-1.54,0.44l-1.1,1.1l-2.2,0.22l-1.32,0.88l-1.32,0.66l-3.3,0.44l-0.88,0.22l0.66,1.32v1.54
			l0.44,1.76l0.44,1.54l-0.66,1.76v1.54l-0.22,1.98l-0.44,3.52l-0.22,1.54l-2.42,3.08l-0.44,1.76l-1.76,1.32l-1.1,0.88l-1.32,0.88
			l-3.3,2.42l-1.76,0.88l-0.88,0.66l-2.2,0.66l-1.54,0.44l-1.32,0.22l-1.76-0.22l-1.98,0.22l-1.54,0.66l-2.2,0.44h-1.1l-1.98-0.22
			l-2.42-0.66l-0.66-0.44l-2.42-0.44l-1.1-0.44l-1.98-0.66l-1.32-0.22l-1.1-1.54l-2.2-0.44l-1.32-1.76l-0.88-0.88l-0.88-1.54
			l-1.54-0.88l-1.1-1.76l-0.66-1.54l-0.66-1.76l-1.54-3.52v-1.32l-1.32,0.22l-1.98-0.22l-1.32-0.88l-1.54-0.66l-3.52-2.2l-1.1-0.88
			l-1.32-1.1v-0.44l-1.76-1.1l-3.08,1.54l-1.32,1.1l-1.54,1.54l-1.32,0.66l-1.98,0.88l-0.66,1.32l-1.76,1.54l-0.66,1.32l-2.86,1.98
			l-1.1,1.76l-1.54,0.66l-0.44,1.76l-1.54,1.76l-0.22,1.1l-1.98,3.96l-0.44,2.86l-0.22,2.42l-0.88,1.32l-0.22,1.98l-0.66,1.76
			l-0.44,1.54v1.54l0.66,1.1l1.1-0.66l1.76-1.76l2.2-1.1l1.54-1.1l0.88-1.1l1.98-1.1l1.76-0.88l1.1-0.22l1.98-1.32l1.54-0.22
			l3.08-0.66l3.96,0.66h1.32l0.88,0.66l2.64,3.08l1.32,1.1l0.44,1.76l1.1,1.1l1.1,2.42v1.76l0.66,1.32l0.88,3.3l-0.44,1.98v1.76
			l0.22,1.76l-0.44,1.54l-0.66,1.54l-0.66,1.76l-2.42,1.76l-1.98,2.64l-0.22,1.1l-1.1,1.32l-2.42,3.52l-1.32,0.88l-1.98,0.88
			l-1.1,1.54l-1.98,1.1l-1.76,0.44l-5.28,1.76l-3.52,1.32l-1.32,0.66l-1.32,0.44l-1.76,0.44l-1.54,0.88l-2.2,1.32l-0.44,2.2
			l0.22,1.1v2.2l-0.22,3.3l0.44,1.98v1.76l-0.66,3.52l0.22,1.1V560l-0.22,1.76v3.3l0.44,1.98v2.2l-0.44,1.1l0.22,2.42l-0.44,1.1
			l0.66,2.2v3.74l-0.22,1.32l-0.44,1.98l0.22,1.76l-0.22,1.32l-0.22,1.76l0.44,1.98l-0.22,1.54v3.3l0.44,1.76l-0.66,1.76l0.66,1.98
			v1.54l-0.44,1.98l-0.22,1.98l0.66,1.32l-0.22,1.32l-0.44,3.96v1.54l0.44,1.76l-0.66,1.76l0.44,1.54v3.74l-0.44,1.32l0.22,1.76
			l-0.44,1.76l-0.66,1.98l0.22,1.76l-0.44,1.76v1.1l-0.44,1.98v3.52l-1.76,3.74l-0.88,1.32l-1.76,0.66h-3.52l-1.54-1.1l-1.98-1.1
			l-0.66-3.08l-0.88-2.86v-3.3l0.66-1.98v-2.2l-0.44-1.54l0.44-1.54l-0.66-3.74l0.66-1.54l-0.22-2.2v-1.54l-0.22-2.2l0.44-1.76v-1.1
			l-0.44-1.98l0.22-1.98l0.22-1.76l-0.66-1.98l0.44-1.76l-0.44-1.32l0.44-1.98v-1.76l-0.22-1.98l0.22-1.32l-0.66-1.98v-1.76
			l0.66-1.54l-0.22-2.2l-0.66-1.32l0.66-1.98l-0.22-1.54l-0.44-1.76v-3.74l0.44-1.76l-0.66-1.76v-3.3l0.22-1.1l-1.98-0.66h-1.32
			l-3.52-1.54l-1.76-0.66l-5.28-0.66l-1.1-0.88l-2.2-0.66h-1.1l-1.76-0.44l-2.42-1.32h-1.1l-3.3-1.76l-1.1-0.88l-1.98-0.66
			l-0.88-1.1l-1.98-1.1l-0.88-1.1l-0.66-1.54l-1.76-1.1l-0.22-1.32l-2.2-3.74l-0.22-1.32l-0.22-1.54v-1.76l-0.22-1.98v-1.1
			l0.88-1.98l0.66-1.54l1.32-1.98l1.1-1.76l2.2-2.42l1.32-1.76l1.54-0.88l1.54-0.66l1.98-1.1l1.76-0.22l1.98-0.22l1.54,0.44h3.52
			l2.2,0.66l1.54,1.1l1.54,0.22l2.64,1.32l1.76,1.32l3.08,1.32l0.88,1.54l1.32,0.66l1.98-0.44l0.66-3.96l-0.44-1.1l0.22-2.2
			l0.66-1.32l-0.88-2.2l0.22-3.74v-1.98l-0.88-2.42l-1.1-1.76l-0.44-1.98l-1.32-1.1l-0.88-1.54l-2.42-4.84l-0.44-1.76l-1.1-1.1
			l-1.32-2.2l-1.32-0.88l-2.2-3.3l-1.32-1.76l-1.54-1.32l-0.44-1.1l-1.98-0.88l-0.88-1.54l-1.32-1.1l-1.54-0.88l-2.2-1.76
			l-1.76-1.54l-1.1-1.32l-1.76-0.66l-2.42-1.54l-0.22-0.22l0.44,2.64l0.44,1.54l0.22,2.2l0.22,1.32l-0.22,2.42l-0.44,1.76
			l-1.54,3.52l-0.22,1.98l-3.08,3.08v0.88l-0.88,0.22l-0.66,0.66h-0.22l-3.3,2.42l-2.2,1.1v3.96l-0.66,2.2l-1.1,2.42l-0.44,1.54
			l-0.66,2.2l-1.32,0.88l-1.1,1.1l-2.64,2.2l-1.76,0.66l-1.76,1.1l-1.54,0.66l-1.76,0.66l-0.88,0.88l-1.98-0.22l-1.98,1.1
			l-1.76-0.44l-1.1,0.44l-1.76,0.22l-3.96-0.44h-1.1l-1.54-0.66l-2.2-0.22l-0.88-1.1l-2.2-0.22l-0.88-1.1l-1.54-1.54l-1.1-0.88
			l-1.76-2.64l-1.54-1.54l-0.88-3.08l-0.44-2.42l-0.22-1.1l0.22-1.1l-1.1,0.66l-1.54,0.22l-3.08-0.22l-2.42-0.66l-1.1-0.22
			l-1.76-0.44l-3.3-0.44l-1.54-0.88l-1.76-1.1l-1.54-1.54l-1.54-1.32l-0.44-1.54l-1.1-1.32l-0.88-1.98l-0.88-1.76l-0.44-1.76
			l-0.88-2.86V489.16z M1289.01,489.6l0.44,1.1l0.88,0.88l0.22,0.66l1.76,0.44h2.42l1.98-0.88l1.54-1.54l1.54-1.32l1.76-2.2
			l0.22-3.74l0.88-1.54l0.66-3.3l-0.44-0.66l-2.2,1.1l-1.54,0.88h-1.98l-1.76,1.54l-3.52,2.2l-0.88,1.1l-1.54,3.3L1289.01,489.6z
			 M1308.81,462.98l0.22,1.32l1.32,1.98l0.44,1.98l1.1-0.22h1.76l0.66-0.22l1.1-0.66l0.66-1.32l1.1-1.98v-1.32l0.66-3.52l-0.88-2.2
			l-1.54-1.32l-1.98,0.66l-2.2,0.66l-0.88,1.32l-0.88,1.1L1308.81,462.98z M1308.81,463.2v-0.22V463.2z M1310.79,468.7l-0.22-0.44
			h0.22V468.7z M1312.77,506.98l1.98,3.52l2.64-0.22l2.2-0.44l1.1-0.44l3.96-1.76v-1.98l-1.1-2.42l-0.66-3.3l-0.88-1.54l0.44-3.08
			l-1.1,0.44l-3.08,0.66l-2.42,0.88l-0.88-0.22l-0.66,1.54l-1.32,1.54l-0.22,1.76l0.22,3.3L1312.77,506.98z M1327.95,487.4
			l-0.88,0.66h2.64l0.66-0.44l3.52-0.66l2.2-1.76l1.76-1.54l1.1-2.86l-3.74-2.86l-1.32-0.66h-2.2l-1.54,1.76l-0.22-0.22l0.44,1.54
			l-0.22,1.98v2.2l-0.22,1.32L1327.95,487.4z M1362.71,541.74l-0.88,0.66l-0.66,0.88l-0.66,0.44v1.54l0.44,1.98l1.1,1.32l1.98,1.1
			l1.54,0.88l2.42,0.88l3.74-0.66l1.76,0.44l3.3-0.22l0.44-0.66l-1.32-1.32l-1.32-1.1l-0.44-1.76l-1.76-1.1l-2.86-2.42l-1.32-0.44
			l-3.52-0.44H1362.71z M1389.11,491.58l-1.76-0.44L1389.11,491.58z M1418.81,509.84h-1.98l-3.52,0.44l-1.32,0.44l-2.86,2.42
			l-1.76,1.1l-0.44,1.76l-1.32,1.1l-1.32,1.32l0.44,0.66l3.3,0.22l1.76-0.44l3.74,0.66l2.42-0.88l1.54-0.88l1.98-1.1l1.1-1.32
			l0.44-1.98v-1.54l-0.66-0.44l-0.66-0.88L1418.81,509.84z M1441.47,453.96h3.74l2.42-1.54l-0.66-2.42l0.88-2.2l0.44-1.76l0.44-1.1
			l0.66-1.32l2.42-2.86l1.1-1.54l1.1-1.1l0.88-0.66l1.98-0.88l3.08-2.2l0.88-1.32l-1.76-3.74l-0.88-0.88l-1.1-1.32l-0.44-1.32
			l-2.42-2.86l-1.54-1.32l-2.86,1.1l-1.54,1.1l-0.22,1.76v1.1l1.32,3.52l0.44,1.54l0.66,1.54v0.66h-0.44l1.54,0.66l0.44,2.64v1.98
			l-0.66,1.32l-1.54,1.76l-3.08,1.1l-0.88,1.54l-1.32,1.1l-2.2,1.76l-0.66,0.88l0.44,1.54L1441.47,453.96z M1458.41,472.22
			l1.98,1.54l1.32,0.88l3.08,0.44h3.96l1.54-0.22l3.52-0.88l0.88-0.88l1.54-1.1l1.54-3.52l0.22-1.54l-0.44-1.98l-0.66-1.32
			l-2.86-2.86l-2.42-0.88l-1.54,1.54l-1.54,0.88l-1.32,0.88l-4.62,0.66l-1.1,0.44l-1.1-0.22l-1.32,0.22l-0.44-1.98l1.1-1.1
			l0.88,0.66l-0.22,2.2l-0.66,1.98l-0.88,1.76l-0.44,1.1V472.22z M1468.53,441.64l0.44-0.88l1.1-0.66l2.2-3.08l2.64,0.22l1.1,0.44
			v0.22l-1.98,1.54l-1.76,0.22l-2.2,0.88L1468.53,441.64z M1469.85,455.06l0.66-0.44l3.3-0.22l0.88-1.32l1.32-1.54l1.1-0.66
			l0.22-0.22l-0.22,1.98l-1.1,1.76l-1.1,1.32l-0.88,1.1l-0.22,1.76l-2.42-0.66l-0.66-0.66L1469.85,455.06z M1470.51,455.94
			l0.88-0.66h1.54l-0.88,0.66H1470.51z M1476.01,438.78l0.44,1.54l1.1,3.74l0.66,2.42l0.22,0.22l1.32-0.66l3.08-0.22l1.76-0.66
			l1.32,0.44h1.76l1.1-0.22l3.3-1.32l3.08-2.2l1.1-1.54l0.66-1.54l1.1-3.74l-1.1-1.76l-1.98-2.2l-1.32-1.32l-1.32-0.66l-1.76-0.22
			h-1.98l-3.52,0.66l-1.1,0.22l-1.76,1.32l-1.32,0.88l-1.54,1.76l-1.76,1.54h0.22l-1.32,2.2l-0.44,0.44V438.78z M1489.21,459.9
			l1.32-0.22l0.66,0.66l-1.54,0.88L1489.21,459.9z"/>
		<path class="st1" d="M1457.75,603.96l79.2-100.32c3.52-4.62,6.6-8.14,10.56-12.76h-86.02V471.3h112.64v20.46l-78.98,99.66
			c-3.74,4.62-7.7,9.46-11.66,14.08h93.72v19.8h-119.46V603.96z"/>
		<path class="st1" d="M1616.15,451.06c-1.98-3.74-3.74-7.26-6.16-11c7.48,0.22,14.3,1.76,21.78,2.64c-3.3,3.08-5.94,6.16-8.8,9.46
			c1.98,1.1,3.96,1.98,5.5,3.3c6.38,5.72,7.92,12.32,7.26,20.02c-0.22,0.44-0.22,0.88-0.22,1.32c-1.1,8.36-2.2,16.5-3.08,24.42
			c-0.88,6.16-1.54,12.32-2.42,18.7c-0.66,5.72-1.54,11.44-2.42,17.6c-0.66,5.94-1.32,12.32-2.2,18.48
			c-0.44,5.72-1.54,11.66-2.2,17.6c-0.66,6.16-1.32,12.1-2.2,18.48c-0.44,2.86-1.1,5.94-1.98,9.02c-1.98,6.6-6.16,11.44-13.42,13.86
			c-1.32,0.22-2.86,0.44-4.84,0.66c2.42,4.4,4.4,8.58,7.04,13.2c-7.26-1.32-14.3-1.98-21.56-2.86c3.08-3.96,6.82-7.04,9.68-10.78
			c-0.44-0.22-0.66-0.22-1.1-0.44c-6.82-2.64-10.78-7.92-12.54-14.96c-0.44-3.3-0.44-6.6,0-10.12c0.66-4.4,0.88-8.8,1.76-13.42
			c0.88-6.82,1.54-14.08,2.42-20.68c0.66-5.72,1.54-11.22,2.42-16.72c0.66-6.6,1.54-12.76,2.2-19.36c0.66-5.72,1.54-11.66,2.2-17.16
			c0.88-6.38,1.54-12.76,2.2-18.7c0.66-4.84,1.32-9.24,2.2-14.08c1.32-9.02,7.7-16.72,16.72-18.04
			C1614.83,451.5,1615.27,451.5,1616.15,451.06z M1612.85,566.78c-1.32-0.44-1.54,0.44-1.98,1.32c-0.44,3.74-0.88,7.04-1.32,10.78
			c-0.44,4.4-0.88,9.02-1.54,13.42c0,1.32-0.44,2.64-0.88,4.18c-0.88,1.54-1.98,2.64-3.74,3.3c-1.54,0.44-1.98,1.76-1.1,3.08
			c0.44,1.32,1.1,1.54,2.42,1.1c0.88-0.22,1.98-0.66,2.64-1.1c3.08-2.42,4.4-5.94,4.84-9.46c0.66-5.28,1.32-10.56,1.98-16.06
			c0.66-6.82,1.76-14.08,2.64-20.9c0.66-5.06,1.32-9.9,1.76-15.18c0.88-6.82,1.98-13.86,2.86-20.9c0.66-4.84,1.32-9.9,1.98-15.18
			c0-0.66,0-1.54-0.22-2.42c-0.22-0.66-0.88-1.32-1.76-1.1c-0.88,0-1.76,0.44-1.98,1.32c-0.22,1.1-0.44,2.2-0.66,3.3
			c-0.66,5.72-1.54,11.44-2.2,17.16c-0.66,6.38-1.76,12.76-2.42,19.14c-0.44,4.84-0.88,9.24-1.54,14.08c0,0.44,0,0.88,0,1.32
			c-0.44,2.64-0.66,4.84-1.1,7.48C1611.53,566.56,1611.97,566.78,1612.85,566.78z M1613.95,474.6c0.22-2.64-1.54-5.5-4.4-6.16
			c-2.2-0.66-5.28,0.66-6.16,3.08c-0.88,1.76-0.66,3.08,0.22,3.52c1.1,0.66,1.98,0.22,3.08-1.54c0.44-0.44,1.1-1.1,1.54-1.1
			c0.88-0.22,1.32,0.44,1.54,1.32c0.22,0.44,0.22,0.88,0.22,1.1c0.22,0.88,0.88,1.32,2.2,1.32
			C1613.07,476.36,1613.73,475.48,1613.95,474.6z M1613.73,494.18c4.18,0.44,8.8-2.42,10.12-7.92c0.22-0.88-0.44-1.98-1.54-2.2
			c-0.88-0.22-1.76,0.22-2.42,1.32c-0.22,0.44-0.22,0.66-0.22,1.1c-0.88,1.98-2.2,3.3-4.4,3.74c-1.98,0.22-3.52-0.44-5.06-2.2
			c-0.88-1.32-1.1-2.42-1.1-3.96c0-1.32-0.88-2.2-1.76-2.2c-1.1,0-1.76,0.66-1.98,2.2C1604.49,488.9,1608.45,493.74,1613.73,494.18z
			 M1629.57,476.14c0.44-3.3-2.86-6.16-6.16-5.72c-2.42,0.44-4.84,2.64-4.84,4.84c0,0.88,0.44,1.76,1.32,1.98
			c1.1,0.22,1.98-0.22,2.42-1.1c0.22-0.22,0.22-0.88,0.44-1.1c0.88-0.88,2.42-0.66,2.86,0.22c0.22,0.44,0,0.66,0.22,1.1
			c0.22,1.32,0.88,2.2,1.98,1.76C1628.91,477.9,1629.57,477.24,1629.57,476.14z"/>
		<path class="st1" d="M1637.93,550.94c-4.84-3.74-7.92-9.68-7.92-16.06c0-1.1,0-1.98,0.22-3.3c1.1-6.16,4.84-11.22,9.9-14.08
			l2.64-1.54l1.32-0.66c-1.76-3.08-2.86-6.82-2.86-10.34c0-3.74,1.32-7.7,3.52-11c1.76-2.64,3.96-4.84,6.6-6.38l2.64-1.54
			c3.3-1.98,6.82-2.64,10.56-2.64v-0.22c0-6.6,3.74-13.64,10.12-17.38l2.64-1.54c6.6-3.74,14.74-3.52,20.68,0.44
			c1.76-3.3,9.02-8.36,18.92-11.66c29.04-9.46,52.8,12.76,52.8,24.2c8.14-2.2,16.72,0.66,21.56,7.7c2.64,3.3,3.96,7.48,3.96,11.44
			c0,7.04-3.3,13.64-10.12,17.6l-2.64,1.54c-2.42,1.54-5.28,2.2-8.14,2.42c-0.88,0.88-1.98,1.76-3.08,2.42l-2.64,1.54
			c-3.08,1.76-6.38,2.64-10.12,2.64c-4.84,0-9.24-1.98-12.76-4.84c-4.62,1.76-10.12,1.54-14.96-0.66c-3.08-1.32-5.72-3.52-7.7-6.16
			l-2.64,1.98l-2.64,1.54c-1.1,0.66-2.2,1.1-3.52,1.32c-2.64,1.1-5.5,1.54-8.36,1.32c-0.22,3.3-1.54,6.6-3.3,9.68
			c-1.76,2.64-4.4,4.84-7.04,6.38l-1.54,0.88c2.64,3.3,4.18,7.7,4.18,12.54v0.22c0,5.06-2.2,10.12-5.94,13.64
			c4.62,2.42,8.36,6.6,9.68,11.88c0.66,2.2-1.1,2.64-1.1-8.58c0-6.6,3.3-12.32,8.14-16.06c-0.22-0.88-0.22-1.76-0.22-2.42
			c0-7.7,4.18-14.08,10.12-17.6l2.64-1.54c3.08-1.76,6.38-2.64,9.9-2.64c6.38,0,11.88,2.86,15.62,7.26l6.82-4.62
			c2.86-1.54,6.38-2.64,9.9-2.64c8.14,0,14.96,4.84,18.26,11.44h2.64c11,0,20.02,8.8,20.02,19.8c0,6.6-3.08,12.54-8.14,16.28
			c5.06,3.52,8.14,9.46,8.14,16.06c0,6.82-3.08,12.54-8.14,16.06c5.06,3.74,8.14,9.68,8.14,16.28c0,7.48-3.96,13.86-10.12,17.38
			l-2.64,1.54c-2.86,1.76-6.38,2.64-9.9,2.64c-7.48,0-14.08-4.18-17.38-10.56l-0.66,0.22c-1.54,1.54-3.52,3.08-5.5,4.18l-2.64,1.54
			c-6.82,3.96-15.4,3.08-21.34-1.32c-1.76,2.64-3.96,4.84-6.82,6.38l-2.64,1.54c-2.86,1.76-6.38,2.64-10.12,2.64h-0.44
			c-7.92,0-14.74-5.28-17.82-12.1l-2.42,1.32c-6.16,3.3-13.42,3.74-19.58,0.22c-6.82-3.52-11.22-10.56-10.56-17.6l0.22-2.2
			c-7.48,1.32-15.62-1.98-20.02-8.58l-0.66-0.66c-1.98-3.52-3.08-7.04-3.08-10.78c0-3.96,1.32-7.92,3.52-11
			c-7.26-2.2-12.98-8.36-14.08-16.28c0-0.66-0.44-1.76-0.44-2.86C1629.57,560.62,1633.09,554.68,1637.93,550.94z"/>
	</g>
</g>
</svg>
