<?xml version="1.0" encoding="utf-8"?>
<!-- Generator: Adobe Illustrator 26.4.1, SVG Export Plug-In . SVG Version: 6.00 Build 0)  -->
<svg version="1.1" id="Ebene_1" xmlns="http://www.w3.org/2000/svg" xmlns:xlink="http://www.w3.org/1999/xlink" x="0px" y="0px"
	 viewBox="0 0 1920 1080" style="enable-background:new 0 0 1920 1080;" xml:space="preserve">
<style type="text/css">
	.st0{fill:#0000FF;}
</style>
<g>
	<path class="st0" d="M465.67,562.11c0,32.12-12.76,46.86-36.52,46.86c-23.76,0-36.3-14.96-36.3-46.86v-91.08h-23.32v94.38
		c0,41.8,22.22,63.14,59.62,63.14c37.18,0,59.84-21.34,59.84-63.14v-94.38h-23.32V562.11z"/>
	<path class="st0" d="M591.95,447.49c-1.1-5.06-1.76-16.72-2.42-34.76c-0.22,51.26-1.1,54.78-5.72,1.32
		c1.54,53.46-0.66,49.94-12.32,4.4c3.74,20.9,5.28,32.34,4.4,34.1C583.37,473.23,587.11,472.79,591.95,447.49z"/>
	<path class="st0" d="M573.25,450.35c-2.2-3.96-5.94-12.76-11.44-26.4c11.22,38.5,11,43.56-3.3,20.9
		C577.43,478.29,580.73,480.49,573.25,450.35z"/>
	<path class="st0" d="M575.89,452.55c-2.86-7.48-6.16-18.04-10.12-31.24c3.08,11.88,5.72,21.56,7.48,29.04
		C574.57,452.55,575.45,453.43,575.89,452.55z"/>
	<path class="st0" d="M591.73,573.11c0-2.64,0-5.06,0.22-7.26c-0.44,0.44-0.66,1.1-1.1,1.98
		C591.07,569.59,591.51,571.13,591.73,573.11z"/>
	<path class="st0" d="M551.47,561.45c8.58-20.02,3.96-18.48-9.46-6.38c7.7-12.1,6.82-13.64-4.4-5.06c8.14-9.46,5.94-8.36-2.2-1.32
		c8.14-7.04,9.24-8.8-0.66-2.2c9.46-9.24,7.92-10.12-3.52-4.62c11.44-10.12,12.98-13.86-3.74-9.02c15.84-11,13.42-13.42-4.4-11.88
		c17.82-7.7,20.24-11.44-1.54-13.64c21.34-4.4,19.14-7.48-0.22-12.54c0,1.54-0.88,3.3-2.64,5.06c3.52,3.74,3.08,7.26,0,11.44
		c3.08,3.52,3.52,7.48,1.76,12.1c1.98,3.52,1.98,7.7,1.54,12.1c0.44,3.96,0.44,8.36,0.44,12.54v77h23.32v-55.22
		c0-3.08,0-5.72-0.66-6.6c0.22-1.54,0.44-2.42,0-2.42c1.98-1.1,5.06-0.22,6.6,4.62c5.28-4.84,8.58-5.28,8.14,3.08
		c1.76-2.2,3.3-3.74,4.62-4.4C568.41,545.61,565.77,544.07,551.47,561.45z"/>
	<path class="st0" d="M565.99,563.65c1.98-0.22,2.86,2.64,2.86,8.8c3.52-6.38,5.72-9.46,7.04-7.7
		C577.21,545.39,574.13,547.15,565.99,563.65z"/>
	<path class="st0" d="M553.67,436.93c-0.88-1.32-1.76-2.64-2.64-4.18c15.84,33.66,12.32,31.46-6.82,7.48
		c14.96,25.74,13.2,28.16-7.7,11.44C571.05,484.67,576.77,487.97,553.67,436.93z"/>
	<path class="st0" d="M536.51,451.67c14.74,18.48,10.12,17.38-5.06,8.14c3.08,3.3,4.84,5.5,5.5,6.82
		C565.99,485.77,564.23,481.81,536.51,451.67z"/>
	<path class="st0" d="M522.43,486.65c21.12,3.96,18.7,2.42,0.44-3.52c18.26,5.94,21.56,6.6,0.66-1.32
		c23.76,7.48,23.32,6.16,1.1-4.62c24.86,9.9,29.7,11,2.2-4.62c32.12,15.4,36.3,16.06,10.34-5.06c-0.22,1.32-3.3,0.66-8.8-1.76
		c5.5,5.06,2.64,5.06-2.64,3.3c-0.66,1.98-3.3,1.98-3.52,1.98c0.22,0,0.22,1.98-0.66,4.84c0.66,1.98,0.88,4.18-0.88,5.94
		c1.54,2.86,1.32,5.5-1.54,7.92c1.32,1.76,2.2,3.3,2.2,4.84C540.69,495.23,542.89,493.69,522.43,486.65z"/>
	<path class="st0" d="M595.91,446.83c0.22-9.02,0.88-20.68,1.98-34.76c-2.2,14.96-4.18,26.84-5.94,35.42
		C592.83,451.67,594.15,451.45,595.91,446.83z"/>
	<path class="st0" d="M520.89,494.57c0.22,0,0.22,0,0.44,0.22v-0.22C521.11,494.57,521.11,494.57,520.89,494.57z"/>
	<path class="st0" d="M563.35,568.71c0.88-1.76,1.76-3.52,2.64-5.06c-0.44,0-1.1,0.22-1.54,0.44
		C564.01,565.63,563.79,567.17,563.35,568.71z"/>
	<path class="st0" d="M531.01,462.67l6.16,4.84c0-0.22,0-0.44-0.22-0.88L531.01,462.67z"/>
	<path class="st0" d="M575.23,571.57l1.32-4.84c-0.22-0.88-0.44-1.54-0.66-1.98L575.23,571.57z"/>
	<path class="st0" d="M551.47,432.31c0.66,1.54,1.32,3.08,2.2,4.62l4.84,7.92C556.31,441.11,554.11,436.93,551.47,432.31z"/>
	<path class="st0" d="M643.87,485.11c6.6-3.08,15.62-6.82,26.84-11.22c-8.8,2.64-16.28,4.84-22.66,6.6
		C643.65,482.91,642.11,484.45,643.87,485.11z"/>
	<path class="st0" d="M618.57,457.83c-0.44-3.74,5.06-15.84,15.4-36.96c-26.18,44-29.26,46.2-12.32-5.5
		c-22.44,53.46-24.64,53.02-17.38-3.3c-3.74,17.82-6.38,29.26-8.36,34.76C595.03,476.53,599.87,479.17,618.57,457.83z"/>
	<path class="st0" d="M659.49,445.29l-3.96,3.08c-4.84,4.18-8.8,7.92-12.1,11C648.05,455.19,653.33,450.57,659.49,445.29z"/>
	<path class="st0" d="M623.41,456.95c4.62-7.48,11.22-17.38,19.58-29.92c-10.12,12.98-18.04,23.32-24.42,30.8
		C618.57,459.59,620.33,459.15,623.41,456.95z"/>
	<path class="st0" d="M655.53,448.37c1.1-1.1,2.42-2.2,3.74-3.3c-38.5,27.94-42.68,28.82-10.34-12.98
		c-12.32,12.98-20.68,21.34-25.52,24.86C605.81,485.33,615.71,478.95,655.53,448.37z"/>
	<path class="st0" d="M648.05,480.49c4.4-2.42,11.66-5.72,22-10.12c-38.5,12.1-42.02,11.44-3.96-12.54
		c-33.66,16.5-40.04,17.6-22.66,1.54C613.51,485.77,613.51,490.17,648.05,480.49z"/>
	<path class="st0" d="M622.24,557.93c-0.23-0.77-0.63-1.38-1.03-1.98l0.66,1.54C622.01,557.64,622.15,557.78,622.24,557.93z"/>
	<path class="st0" d="M638.59,542.53l7.92,5.06c-4.18-3.52-7.48-6.82-10.34-9.46C635.95,539.01,636.83,540.33,638.59,542.53z"/>
	<path class="st0" d="M636.17,538.13c0.22-1.54,4.84,0.22,14.52,5.5c-15.84-13.86-13.64-15.18,5.94-7.26
		c-2.64-1.76-5.06-3.3-6.82-4.84C624.51,522.29,619.89,522.95,636.17,538.13z"/>
	<path class="st0" d="M630.67,549.35c1.76,1.1,4.4,3.08,7.48,5.72c-11.22-14.96-8.36-15.4,6.6-5.5c-2.64-2.86-4.62-5.06-6.16-7.04
		C617.69,529.77,617.69,532.85,630.67,549.35z"/>
	<path class="st0" d="M626.71,547.59c2.64,2.2,5.72,5.06,9.46,8.58l-5.5-6.82C628.69,548.03,627.37,547.37,626.71,547.59z"/>
	<path class="st0" d="M649.81,531.53c2.42,1.1,5.06,1.98,7.92,3.08c-4.62-2.42-8.58-4.4-12.1-6.38
		C646.51,529.33,648.05,530.43,649.81,531.53z"/>
	<path class="st0" d="M576.55,566.73c0.22,1.54,0.22,3.74,0.22,6.6c3.74-12.32,4.62-10.78,3.3,1.32c0.44-1.1,0.66-1.98,1.1-2.86
		c0-0.12,0-0.29,0.03-0.46C582.92,547.99,582.45,544.44,576.55,566.73z"/>
	<path class="st0" d="M645.63,528.23c-5.5-4.62-0.88-4.62,16.28,0c-5.5-2.64-9.46-5.06-12.1-6.82
		C624.95,515.69,625.61,517.67,645.63,528.23z"/>
	<path class="st0" d="M602.95,567.39l1.32,3.96c-0.22-1.32-0.44-2.64-0.66-3.96C603.39,567.17,603.17,567.17,602.95,567.39z"/>
	<path class="st0" d="M621.21,555.95c-2.64-7.7,1.1-5.5,10.56,3.74c-4.62-7.48-6.38-11.66-5.06-12.1
		C614.83,537.03,612.85,538.57,621.21,555.95z"/>
	<path class="st0" d="M581.39,570.91c3.3-8.58,5.5-8.14,8.14,3.52c0.44-2.86,0.88-5.06,1.32-6.6
		C587.33,547.15,584.91,550.23,581.39,570.91z"/>
	<path class="st0" d="M591.95,565.85c1.32-1.76,3.08,1.54,5.28,8.8c0.44-10.56,1.76-11.22,5.5-1.32c-0.22-3.52-0.22-5.5,0.22-5.94
		C595.03,544.07,592.61,543.41,591.95,565.85z"/>
	<path class="st0" d="M581.17,571.79c-0.22,0.44-0.22,1.1-0.22,1.54l0.44-2.42c-0.1,0.1-0.16,0.26-0.19,0.42
		C581.19,571.48,581.18,571.63,581.17,571.79z"/>
	<path class="st0" d="M619.45,556.17c-13.86-17.16-13.42-11-6.16,12.76c-10.56-22-13.64-25.08-9.68-1.54
		c0.66,0.66,1.54,2.86,2.86,5.94c0.44-5.28,1.98-2.2,3.52,2.2c0.22,1.32,0.66,3.3,0.88,5.72c0.22,2.2,0.44,4.62,0.44,7.48v36.3
		h23.32v-40.7c0-5.06-0.66-9.46-1.76-13.64c-0.66-1.98-1.32-3.96-2.2-5.5c-0.88-1.76-1.76-3.3-1.1-2.42
		c-4.18-5.72-6.82-8.14-3.08,0.66c-1.54-2.2-3.08-3.96-4.18-5.28c0.88,1.54,1.76,3.3,2.64,5.06l-1.32-1.76
		c-0.66-1.32-1.32-2.64-1.76-3.96C620.33,555.73,619.45,555.07,619.45,556.17z M622.97,564.97c-5.28-7.7-7.92-10.56-8.14-8.8
		c-0.22-2.86,1.32-2.2,5.28,2.2C620.55,559.91,621.65,562.11,622.97,564.97z"/>
	<path class="st0" d="M737.59,538.35l-26.62-5.72c-17.16-3.96-26.62-10.34-26.62-23.1c0-13.42,14.08-22.44,32.78-22.44
		c22,0,34.76,11.66,35.86,28.38h23.98c-1.76-29.04-23.54-48.18-58.96-48.18c-25.4,0-45.65,10.81-53.77,27.41
		c-26.25-0.47-25.78-2.71,7.57-12.01c-16.28,2.42-25.74,3.3-27.94,2.42c-24.64,11-19.8,12.98,10.12,12.32
		c2.57-0.54,5.81-1.08,9.71-1.62c-0.22,0.48-0.41,0.97-0.61,1.46c-3.21,0.1-6.22,0.16-9.1,0.16c-2.86,0.66-4.84,1.32-5.94,1.98
		c4.18-0.6,9.09-1.09,14.83-1.63c-0.89,2.32-1.54,4.75-1.96,7.26c-11.66-2.26-15.91-4.02-12.86-5.63
		c-22.22,2.42-21.56,4.18,3.3,7.92c2.23-0.26,5.32-0.45,9.3-0.55c-0.07,0.59-0.12,1.18-0.16,1.78l-9.14-1.23
		c-2.64,0.22-3.96,0.88-4.18,1.54c3.83,0,8.22,0.18,13.26,0.43c-0.04,0.73-0.07,1.47-0.07,2.21c0,1.55,0.08,3.06,0.24,4.52
		c-9.52-3.42-14.36-5.68-13.44-7.16c-25.08-0.88-24.42,1.54-0.44,10.12c-2.69-2.88,2-3.25,14.04-1.69c0.35,2.54,0.94,4.95,1.74,7.24
		c-6.11-2.04-11.43-3.9-15.78-5.55c0.66,0.66,1.54,1.54,3.08,2.42c3.68,1.02,7.93,2.04,12.74,3.24
		c5.65,16.01,21.7,25.71,40.72,29.76l24.2,5.28c17.82,3.74,28.6,10.34,28.6,23.98c0,16.06-13.86,25.3-36.08,25.3
		c-22.88,0-39.6-12.76-40.92-34.76h-23.98c1.1,33.22,25.52,54.34,64.24,54.34c38.5,0,60.72-20.68,60.72-47.3
		C780.05,557.05,762.01,543.63,737.59,538.35z"/>
	<path class="st0" d="M954.73,450.79c-0.44-2.2-1.98-3.74-4.4-4.4c-4.62-0.88-9.24-1.32-13.86-1.32c-3.74,0.22-7.92,0.22-12.1,0
		c-11.22-0.22-22.66-0.44-33.66-1.1c-7.48,0-14.96,0-22.22-1.1c-1.54-0.22-3.08-0.22-4.84-0.22c-6.38,0-12.98-0.22-19.58-0.44
		c-5.06-0.44-10.34-0.66-15.4,0c-3.3,0.44-6.16,0-9.02-0.66c-2.86-0.44-4.84-1.32-5.94-3.96c-1.32-1.98-3.3-3.08-5.72-3.52
		c-1.32-0.22-2.86-0.22-4.62-0.22c-1.1,0-2.42,0.44-3.52,1.32c-2.2,1.32-4.18,3.3-4.84,5.94c-0.22,1.1-0.66,1.98-1.32,2.64
		c-0.66,1.32-0.88,2.64-0.88,4.18c0,8.14-0.88,16.5,0.22,24.42c0.22,1.76,0,3.3,0,5.06v25.52c0,12.54-0.22,25.3-0.22,38.06v4.4
		c-1.54,11.22-1.76,22.66-1.76,33.88c0,2.42-0.22,4.84-0.22,7.26c-0.22,7.48-0.88,14.74-0.44,22.22c0.22,5.72,0,11.22,0.22,16.72
		c0,4.4-0.22,8.8,0,12.98c0,2.64,1.76,4.84,3.96,5.72c4.18,1.98,8.8,2.42,13.42,0.88c3.74-1.1,6.38-4.84,6.16-8.36
		c0-1.32-0.44-2.42-0.44-3.74c-0.88-1.98-0.88-3.96-0.44-6.16c0.44-2.64,0.66-5.28,0.44-7.92c-0.44-6.16-1.1-12.1-1.76-18.04
		c-0.44-6.16-0.44-12.54,0.88-18.7c0.44-0.88,0.88-1.76,0.88-2.86c-1.1-3.96,0.44-8.14,0.66-12.32c0-0.66,0.22-1.76,0.44-2.64
		c0.22-0.88,0.88-1.76,1.98-1.98c2.86-0.88,5.94-0.88,9.02-0.88c7.48,0.22,14.96,0.22,22.44,0.22c11,0.22,22.22,0.22,33.66,0.44
		c2.86,0.22,5.94,0.22,9.24,0.66c4.84,0.66,9.24,0.88,14.08,0.66c10.34-0.22,20.24,0.88,29.92,2.2c3.08,1.1,5.5,0,7.48-2.2
		c1.32-1.32,2.86-3.08,4.4-4.18c2.86-2.42,4.18-5.06,3.74-9.02c0-1.32,0-2.86,0.22-4.4c0.22-5.28-0.22-10.78,0.66-16.28
		c0.44-3.52,0.66-6.82,0.44-10.34c0-6.6,0.22-13.42,1.1-20.02c0.22-2.86,0.22-5.72,0.22-8.58c0.22-5.28,0-10.34,1.54-15.18
		c0.22-0.88,0-1.76,0.22-2.86c0-5.94,0-12.1-0.22-18.04C954.95,453.21,954.95,452.11,954.73,450.79z M806.45,478.07
		c0.22,3.3,0,6.16-0.44,9.24c-0.22,4.18-0.22,8.36-0.44,12.32c-0.22,9.9-0.22,20.02,0,29.7c0,3.08-0.44,6.16-0.44,9.24
		c0,2.86,0.22,5.5,0.22,8.14c0,2.64-1.1,5.28-0.44,7.92c-1.32,6.38-0.66,12.76-1.76,19.36c-0.88,5.28-0.88,11-1.1,16.5
		c0,1.1,0.22,2.42,0,3.52c-1.32,5.06-0.22,10.34,0.44,15.18c0.66,4.4,0.66,9.02,0.88,13.64c0.22,3.74-0.66,7.04-1.76,10.56
		c0,0.22-0.88,0.44-1.32,0.44c-0.22,0-0.44-0.22-0.66-0.22c0-0.22-0.22-0.66-0.44-0.66c-0.88-3.3-1.76-6.38-1.1-10.12
		c0.22-1.1,0.22-2.64,0.22-3.96c0.22-15.18,0.22-30.14,0.44-45.1c0-6.6,0.44-13.42,0.66-20.02h0.44c0-5.72,0.22-11.22,0.22-16.72
		c0.22-8.14,0.22-15.84,0.22-23.76c0-1.76,0.44-3.3,0.44-5.06c0.44-5.94,0.44-11.66,0.22-17.38c-0.66-4.4-0.22-9.02,0.22-13.64
		c0.66-5.06,0.66-10.12,0.66-15.18c0-3.96,0.22-7.7,0.22-11.66c0-1.32,0.44-2.2,1.32-3.08c0.66-1.1,2.2-1.76,2.42-1.32
		c0.66,0.44,0.88,1.32,0.88,1.98c0.22,7.48,0.44,15.18-0.66,22.88C805.79,473.23,806.01,475.65,806.45,478.07z M945.71,472.35
		c-0.44,8.14-1.98,16.5-1.98,24.64c-0.22,7.04-0.66,13.86-0.88,20.9c-0.44,5.94-0.88,12.1-0.88,18.04c0,4.84-1.76,9.46-2.2,14.3
		c-0.22,1.1-0.66,1.76-1.1,2.64c-0.44,1.54-1.54,2.42-3.3,2.42c-1.98,0.22-4.18,0-6.16,0c-8.58-0.22-17.38-0.22-25.96-0.44
		c-1.76,0-3.3,0-4.62-0.22c-7.92-0.88-15.84-0.88-23.76-0.88c-5.06,0-10.12-0.66-15.62-0.88h-4.4c-9.68-0.22-19.8-0.22-29.92-0.22
		c-2.42,0-5.06-0.44-7.7-0.66c-0.66,0-1.76-0.88-1.76-1.98c-0.22-0.44-0.22-0.88-0.22-1.1c0-8.8,0.22-17.6,0.44-26.18
		c1.54-5.94,1.32-11.88,0-18.04c-0.22-1.32,0-3.3,0-5.06v-22.22c0-4.62,0-9.24,0-13.86c0.44-2.64,0.88-5.06,1.32-7.7
		c1.1-4.4,1.54-5.06,6.82-5.06c2.42,0,4.62-0.22,7.04-0.22h11.88v0.22h10.78c5.28,0,11,0,16.28,1.1c0.66,0.22,1.32,0.22,2.2,0.22
		c8.58,0.44,17.82,0.88,26.84,0.88c12.54,0.44,25.08,0.44,37.4,0.66c2.2,0,4.62,0.22,6.82,1.32c1.98,0.66,2.86,1.98,2.86,3.74
		C945.93,463.33,945.93,467.95,945.71,472.35z"/>
	<path class="st0" d="M928.11,491.27c-0.22-3.52-1.54-6.82-3.08-9.68c-2.42-4.4-5.5-7.92-10.56-10.34c-5.28-2.86-11-4.4-17.16-5.28
		c-2.86-0.22-5.5-0.66-7.92-2.42c-3.74-1.98-7.92-2.42-12.32-1.54c-4.62,0.88-8.36,2.42-12.32,3.74
		c-7.92,2.42-14.08,7.04-18.7,13.64l-1.54,2.42c-2.2,2.2-3.08,4.84-3.74,7.7c-1.1,3.74-1.98,7.48-3.52,11.22
		c-2.64,7.7-1.1,15.18,2.42,22.22c1.98,3.52,4.4,7.04,7.04,10.34c5.06,6.16,11.44,10.12,19.36,12.32c3.52,1.1,7.04,1.1,11.66,1.1
		c7.26,0.22,15.4-1.98,23.54-4.18c3.74-1.1,7.26-2.86,9.68-5.94c0.44-1.1,1.32-1.98,2.2-2.86c5.06-4.18,8.36-9.68,11.44-15.18
		c1.32-2.42,2.42-4.62,3.3-7.48c0.66-5.94,2.2-12.32,0.22-18.48V491.27z M871.13,533.73c-0.44,1.76-1.76,2.42-3.52,1.98
		c-2.64-0.66-5.06-1.98-7.26-3.52c-3.52-2.86-6.82-5.94-9.46-9.68c-0.88-1.54-1.98-3.3-2.86-4.84c-3.74-6.16-3.96-12.32-1.76-18.7
		c0.44-1.76,2.42-2.2,3.74-0.88c7.26,6.16,14.52,12.32,19.58,20.02c2.2,1.98,2.64,4.62,2.86,7.26c0,0.44,0,0.88,0.44,2.42
		C872.23,529.33,872.01,531.75,871.13,533.73z M877.29,476.75c-1.1,7.04-1.98,13.86-2.42,20.68c-0.44,4.4-1.54,4.62-4.62,1.98
		c-2.42-1.54-4.62-3.08-6.82-4.84c-3.08-2.64-5.94-5.72-8.58-9.24c-1.98-2.42-1.98-3.3,0.44-5.94c4.84-5.06,10.78-7.7,17.6-9.68
		c0.44-0.22,0.88,0,1.54-0.22c0.66,0,2.2,0.88,2.2,1.76c0.44,1.1,0.66,2.64,0.88,3.52C877.29,475.65,877.29,476.31,877.29,476.75z
		 M886.53,480.27c0.22-1.1,0.44-2.42,0.88-3.3c0.22-0.88,0.88-1.76,2.42-1.76c4.84-0.22,9.46,0.22,14.08,1.98
		c1.76,0.66,2.2,2.2,0.88,3.3l-9.46,11.44c-1.76,1.76-3.3,3.96-4.84,5.5c-1.1,1.1-2.42,1.98-3.52,2.86c-0.44,0.44-1.98,0-1.98-0.66
		c0-1.54-0.22-3.3-0.22-4.18C885.43,489.95,885.87,485.11,886.53,480.27z M918.43,500.95c0,0.22,0,0.44,0,0.66
		c0.44,12.32-6.38,21.34-15.84,28.82c-2.64,2.2-5.72,3.08-9.02,4.18c-1.98,0.44-4.4,0.88-6.6,1.1c-1.32,0.22-2.42-0.44-2.86-1.54
		c-0.22-0.66-0.66-1.1-0.66-1.54c0.66-2.86,0.44-5.72,0.44-8.8c0-1.32,0.88-3.08,1.76-4.62c3.74-6.6,8.58-12.98,14.08-18.48
		c1.76-1.98,3.52-4.4,5.06-6.38c2.64-2.86,5.06-5.5,8.8-7.04c0.88-0.44,2.2,0,2.64,0.88c1.1,2.42,2.2,4.84,2.2,7.7V500.95z"/>
	<path class="st0" d="M1073.31,625.03v-40.7c0-20.02-10.12-32.78-25.74-35.42c14.08-4.18,28.82-17.38,28.82-37.4
		c0-26.4-19.58-40.48-48.84-40.48h-66.44v154h23.32v-65.56h31.54c-1.72,3.22-4.75,5.19-9.1,5.5c6.16,0.88,9.46,4.4,10.34,10.34
		c0.66-5.94,4.18-9.68,10.34-10.34c-4.34-0.46-7.25-2.35-8.83-5.5h1.57c21.34,0,29.7,7.26,29.7,29.26v36.3H1073.31z M1022.49,539.67
		h-38.06v-49.06h38.06c19.36,0,29.92,8.36,29.92,24.42S1041.85,539.67,1022.49,539.67z"/>
	<path class="st0" d="M1163.29,452.55c0.66-5.94,4.18-9.68,10.34-10.34c-6.16-0.66-9.46-4.18-10.12-10.12
		c-0.88,5.94-4.4,9.68-10.56,10.12C1159.11,443.09,1162.41,446.61,1163.29,452.55z"/>
	<path class="st0" d="M1165.71,533.95c-0.88,5.94-4.4,9.68-10.56,10.12c6.16,0.88,9.46,4.4,10.34,10.34
		c0.66-5.94,4.18-9.68,10.34-10.34C1169.67,543.41,1166.37,539.89,1165.71,533.95z"/>
	<path class="st0" d="M1115.55,334.63c0.66-5.94,4.18-9.68,10.34-10.34c-6.16-0.66-9.46-4.18-10.12-10.12
		c-0.88,5.94-4.4,9.68-10.56,10.12C1111.37,325.17,1114.67,328.69,1115.55,334.63z"/>
	<path class="st0" d="M1064.29,554.85c6.16,0.88,9.46,4.4,10.34,10.34c0.66-5.94,4.18-9.68,10.34-10.34
		c-6.16-0.66-9.46-4.18-10.12-10.12C1073.97,550.67,1070.45,554.41,1064.29,554.85z"/>
	<path class="st0" d="M1304.09,370.71c0.66-5.94,4.18-9.68,10.34-10.34c-6.16-0.66-9.46-4.18-10.12-10.12
		c-0.88,5.94-4.4,9.68-10.56,10.12C1299.91,361.25,1303.21,364.77,1304.09,370.71z"/>
	<path class="st0" d="M1174.51,344.09c0.66-5.94,4.18-9.68,10.34-10.34c-6.16-0.66-9.46-4.18-10.12-10.12
		c-0.88,5.94-4.4,9.68-10.56,10.12C1170.33,334.63,1173.63,338.15,1174.51,344.09z"/>
	<path class="st0" d="M1056.81,436.05c0.66-5.94,4.18-9.68,10.34-10.34c-6.16-0.66-9.46-4.18-10.12-10.12
		c-0.88,5.94-4.4,9.68-10.56,10.12C1052.63,426.59,1055.93,430.11,1056.81,436.05z"/>
	<path class="st0" d="M1213.01,409.87c0.66-5.94,4.18-9.68,10.34-10.34c-6.16-0.66-9.46-4.18-10.12-10.12
		c-0.88,5.94-4.4,9.68-10.56,10.12C1208.83,400.41,1212.13,403.93,1213.01,409.87z"/>
	<path class="st0" d="M1077.05,627.67c-0.66,5.94-4.18,9.68-10.34,10.12c6.16,0.88,9.46,4.4,10.12,10.34
		c0.88-5.94,4.4-9.68,10.56-10.34C1081.23,637.13,1077.93,633.61,1077.05,627.67z"/>
	<path class="st0" d="M1125.23,668.59c-0.88,5.94-4.4,9.68-10.56,10.12c6.16,0.88,9.46,4.4,10.34,10.34
		c0.66-5.94,4.18-9.68,10.34-10.34C1129.19,678.05,1125.89,674.53,1125.23,668.59z"/>
	<path class="st0" d="M1204.87,639.77c-0.88,5.94-4.4,9.68-10.56,10.12c6.16,0.88,9.46,4.4,10.34,10.34
		c0.66-5.94,4.18-9.68,10.34-10.34C1208.83,649.23,1205.53,645.71,1204.87,639.77z"/>
	<path class="st0" d="M1101.69,388.97c0.66-5.94,4.18-9.68,10.34-10.34c-6.16-0.66-9.46-4.18-10.12-10.12
		c-0.88,5.94-4.4,9.68-10.56,10.12C1097.51,379.51,1100.81,383.03,1101.69,388.97z"/>
	<path class="st0" d="M1222.91,565.41v-90.55c1.5-3.81,4.68-6.18,9.46-6.69c-6.16-0.66-9.46-4.18-10.12-10.12
		c-0.88,5.94-4.4,9.68-10.56,10.12c2.82,0.4,5.04,1.37,6.7,2.86h-18.8v91.08c0,32.12-12.76,46.86-36.52,46.86
		c-23.76,0-36.3-14.96-36.3-46.86v-61.9c1.73-1.78,4.16-2.89,7.26-3.22c-3.17-0.34-5.57-1.44-7.26-3.23v-22.73h-17.88
		c0.96-5.3,4.41-8.62,10.18-9.24c-6.16-0.66-9.46-4.18-10.12-10.12c-0.88,5.94-4.4,9.68-10.56,10.12c5.77,0.82,9.03,3.96,10.14,9.24
		h-5.08v94.38c0,38.75,19.11,59.9,51.69,62.79c1.64,1.72,2.66,4.05,3.09,6.95c0.3-2.7,1.19-4.93,2.65-6.64
		c0.73,0.02,1.45,0.04,2.19,0.04C1200.25,628.55,1222.91,607.21,1222.91,565.41z"/>
	<path class="st0" d="M1230.17,580.81c-0.88,5.94-4.4,9.68-10.56,10.12c6.16,0.88,9.46,4.4,10.34,10.34
		c0.66-5.94,4.18-9.68,10.34-10.34C1234.13,590.27,1230.83,586.75,1230.17,580.81z"/>
	<path class="st0" d="M1235.01,492.15c-0.88,5.94-4.4,9.68-10.56,10.12c6.16,0.88,9.46,4.4,10.34,10.34
		c0.66-5.94,4.18-9.68,10.34-10.34C1238.97,501.61,1235.67,498.09,1235.01,492.15z"/>
	<path class="st0" d="M1364.81,575.75c0,7.04,0.22,14.3,0.44,20.9l-73.7-125.62h-35.2v154h23.32V513.49c0-6.38,0-12.54-0.22-19.8
		l19.74,33.57c-0.67,0.15-1.39,0.25-2.14,0.31c0.97,0.14,1.85,0.35,2.68,0.62l56.94,96.84h31.68v-154h-23.54V575.75z"/>
	<path class="st0" d="M1487.79,532.19v19.8h67.32v-81.18h-20.24v6.16c0,4.62,0.22,9.68,0.66,14.74
		c-8.14-13.86-25.52-24.42-48.18-24.42c-44.44,0-72.82,33.44-72.82,80.08c0,50.82,33.22,81.18,75.68,81.18
		c35.64,0,60.94-20.68,64.24-49.5h-24.42c-2.86,17.38-18.26,29.7-39.6,29.7c-29.92,0-51.7-21.78-51.7-61.38
		c0-35.86,20.68-60.5,50.82-60.5c26.18,0,44.22,15.4,44.22,43.12v2.2H1487.79z"/>
</g>
</svg>
