<?xml version="1.0" encoding="utf-8"?>
<!-- Generator: Adobe Illustrator 26.4.1, SVG Export Plug-In . SVG Version: 6.00 Build 0)  -->
<svg version="1.1" id="Ebene_1" xmlns="http://www.w3.org/2000/svg" xmlns:xlink="http://www.w3.org/1999/xlink" x="0px" y="0px"
	 viewBox="0 0 1920 1080" style="enable-background:new 0 0 1920 1080;" xml:space="preserve">
<style type="text/css">
	.st0{fill:#0000FF;}
</style>
<g>
	<path class="st0" d="M185.61,471.03h25.08l27.5,107.8c1.76,6.82,3.52,13.42,5.28,21.34c1.54-7.48,3.52-14.74,5.28-21.34
		l28.38-107.8h31.24l27.5,107.8c1.76,6.82,3.74,14.08,5.28,21.56c1.76-7.92,3.3-14.52,5.06-21.56l28.38-107.8h23.54l-41.36,154
		h-30.14l-28.82-113.08c-1.54-6.16-3.3-12.98-5.06-20.9c-1.76,7.92-3.52,14.74-5.06,20.9l-30.36,113.08h-30.36L185.61,471.03z
		 M188.91,636.91c0,0.22,0.88-0.22,1.1,0.22c-0.22-0.44,0.44,0,0.44,0c0,0.22,0.66-0.22,0.88,0.22c0.44,0.22,0.88,0.66,1.1,1.1
		c0.44,0,0.88,0.44,1.32,0.66l0.66,0.66c0.44,0,0.22,0.44,0.44,0.66c0.66,0,0.88,0.22,0.66,0.22c0.44,0.88,0.88,0.88,1.32,1.32
		l0.22-0.22l0.88,0.66c0,0,0.44,0,0.66,0.22c0.22-0.44,0.66-0.44,0.88-0.22l0.88-0.44c0,0,0.22-0.22,0.22-0.44
		c-0.44,0,0-0.44,0.22-0.66l-0.22,0.22c0,0-0.66-0.44-0.66,0c0-0.44,0-0.44-0.44-0.44c0-0.22-0.66-0.66-0.66-0.66
		c-1.1-0.22-1.76-0.66-2.64-1.32l-0.22-0.44c-0.22,0.22-0.44-0.22-0.88-0.22c0.22-0.22,0.22-0.22-0.22-0.44l-0.22-1.54
		c-0.22-0.22-0.22-0.22-0.22-1.1c-0.22,0-0.22-0.44-0.22-0.44c0.44,0,0-0.22,0.44-0.44l-0.22-0.66c-0.22-0.22-0.22-0.22,0-0.44
		l0.22-0.44c-0.22-0.44-0.22-0.66-0.44-0.66c0.22-0.44,0.22-0.66,0.22-0.66c-0.44-0.22-0.66-0.44-0.44-0.44l-0.22-0.22
		c0,0,0-0.44-0.66-0.44c-0.22,0,0.22-0.22,0.44-0.44c0-0.44,0-0.66,0.44-0.22l0.22,0.22c0.22,0,0.22,0.22,0.66,0.66v0.66l0.44,1.1
		l0.22,1.1c0,0.22,0,0.66-0.22,0.88c0.22,0.22,0,0.66,0,0.66l0.22,1.1l0.22,0.88l0.22,0.22c0.44,0.44,0.22,0.66,0.66,0.88
		c1.32,0.66,2.42,0.88,3.08,1.76c0.66,0,0.66,0.22,1.1,0.44l-0.22-0.44c0.44-0.44,0.44-0.44,0.66-0.44c-0.22,0,0-0.22,0-0.66
		l0.44-0.22h-0.44c-0.22,0.22-0.22,0.22-0.44,0.22c-0.44,0-0.66,0-1.1-0.22c-0.22,0-0.44-0.22-0.88,0c-0.44-0.22-0.44-0.66-1.1-1.1
		c-0.22,0.22-0.22,0.22-0.44-0.44h-0.22c0.22,0-0.22-0.22,0-0.44c-0.44-0.88,0-0.88,0.44-1.32c-0.44,0-0.22-0.66-0.22-0.66v-0.66
		c0-0.44,0.22-0.44,0.22-0.44c0.44,0,0.44-0.22,0.44-0.22c0-0.22,0.44,0,0.44,0c0.44-0.44,1.1-0.88,1.1-0.88
		c0.22-0.22,0-0.88,0.44-0.88l0.66-0.22l0.22-0.22l0.66,0.66c0-0.22,0.22-0.66,1.1-0.88l-0.22-0.22c0.22,0.22,0.44,0,0.44,0
		c0.88,0,1.1-0.22,1.32,0.22c0.44,0.44,0.88,0.66,1.54,0.66l0.22,0.88c0.22,0.22,0.44,0.44,0.22,0.66l0.22,1.1v0.66
		c-0.44,0.44-0.88,1.1-1.32,1.32l0.22,0.66l0.22,0.22l0.88-0.44c0.22,0.22,0.44,0.44,0.88-0.22c-0.22,0-0.44-0.66-0.22-0.44
		c0,0,0-0.66,0.44-0.88c0,0-0.22-0.66,0-0.44v-0.66c-0.22-0.44-0.22-0.88-0.22-0.88v-0.22c0.22-0.44,0-0.66,0-1.1v-0.44
		c-0.22,0-0.22-0.66-0.66-0.66c0,0-0.22-0.66-0.44-0.88c-0.88,0-1.1-0.22-1.54-0.22l-0.22-0.66c-0.44-0.44-1.1,0-1.32-1.1
		c0-0.22-0.44-0.22-0.88-0.44l-0.22-0.88c0,0,0-0.66-0.22-0.88c0-0.22-0.22-0.44,0-0.88c0.66,0.66,0.66-0.22,0.88,0.44
		c0.44,0.22,0.44,1.1,0.66,1.32c-0.22,0.44,0.22,0.88,0.22,0.88l2.2,1.1l0.66,0.44c0.22,0.44,0.66,0.66,1.32,1.1l0.22,0.44
		c0,0,0,0.66,0.22,0.44c0,0.44,0.22,1.1,0,0.88l0.44,1.32v0.44l-0.44,0.22l0.22,0.66c0,0,0,0.44-0.44,0.66l0.22,0.44
		c0,0.66,0.22,0.66-0.22,0.88c0.22,0.22,0.22,0.66,0.22,0.66v0.44l0.44,0.44c0-0.22,0-0.22,0.66-0.22l0.22-0.66
		c0.22,0.22,0.44,0,0.66-0.66h0.44v-0.66c0-0.22,0.44-0.88,0.44-0.88l-0.22-0.22v-0.66c0-0.22-0.22-0.88-0.66-1.76v-0.44l-0.22-0.88
		c0-0.22,0-0.22-0.22-0.66c0.22-0.22,0-0.66,0-1.1v-1.54c0,0-0.22-0.44,0-0.44c0.22-0.66,0.44-1.1,0.66-1.1
		c0.22-0.44,0.44-0.44,0.66-0.66l0.22,0.22l0.22-0.22c0.44,0,0.44,0.44,0.44,0.44c-0.22,0.44-0.66,0.44-0.66,0.44l-0.22,1.1v0.88
		c-0.44,0.66,0,1.1,0,1.32l0.22,0.66v1.54c0,0.22,0.44,0.22,0.44,0.44c0,0.66-0.22,0.66-0.22,1.54v0.66c0.44,0,0.44,0.22,0.22,0.44
		v0.88c0,0.22-0.22,0.22-0.22,0.88v0.22c0,0-0.44,0.22-0.44,0.44l-1.1,1.1l0.22,0.22h-0.44l0.22,0.22c0,0.44,0.44,0.66,0.66,0.44
		c-0.22,0.22,0.44,0,0.88-0.22c0,0,0.44-0.44,0.44,0h1.54c0.44,0,0.66-0.22,1.1,0c0.66,0.22,0.66,0,1.1,0.88c0.66,0,1.1,0,1.32,0.22
		c0.66,0.22,0.88,0.22,1.32,1.1c0.88,0.22,1.54,0.88,2.42,1.32l3.3,2.2c0.66,0,1.1,0,1.32,0.22c0.44,0.66,0.66,0.44,1.32,0.44v0.22
		c-0.22,0,0.22,0.22,0.22,0.66l-0.22,0.22h-0.88c-0.22,0-0.44-0.22-0.66,0l-0.88-0.66c-1.32-0.88-2.86-1.54-4.4-2.42
		c-0.66-0.88-1.54-1.32-2.2-1.76c-0.44,0-0.88-0.22-1.1-0.44c-0.66-0.22-1.1-0.44-1.76-1.1c0,0-0.22,0-0.66,0.44l-0.44-0.66
		l-0.88,0.22c-0.22-0.22-0.66-0.22-0.66-0.22l-0.88,0.44h0.22c0,0,0.66,0.22,0.88-0.22c-0.22,0.22,0,0.88,0,0.88
		c0.22-0.66,0.44,0,0.44,0l0.22-0.44c0.66,0,0.66,0,0.88,0.44c0.44-0.44,0.88,0,1.1,0.22c0.88,0.66,1.76,0.88,2.86,1.32
		c0.44,0.44,0.44,0.88,0.66,1.1c0.22-0.22,0.88,0.66,0.88,0.66l0.88,0.66c0,0,0.22,0.44,0.22,0.66c0.22,0.22,0.22,0.44,0.88,0.66
		v0.22l0.22,0.88l0.22,0.44v0.22v0.44c0.22,0.22,0,0.44,0.44,0.44c0.22,0.66-0.66,0.66-0.22,0.66h0.22v0.22l-0.22,0.22
		c0,0,0.44,0.88,0,0.88v1.32l-0.44,0.22l-0.22,0.66l-0.44,0.44v0.44h-0.22l-1.1,0.22l-0.88,0.44c-0.44,0-0.44,0-0.44-0.22
		l-0.88-0.22c-0.22,0-0.22,0-0.22,0.44c-0.22,0.44-0.44,0.66-0.22,1.1c-0.22,0.22-0.22,0.88-0.44,1.1
		c-0.44,0.88-0.44,1.32-1.32,1.76l-0.66,0.44h-0.44h-0.66l-0.66,0.44c-0.66,0-0.66-0.44-1.1-0.44c0,0-0.22,0-0.66-0.22
		c-0.44-0.66-0.66-0.66-1.1-0.22l0.22-0.44l-0.66,0.44l-0.66,1.76c0,0-0.88,0-1.1,0.22v0.44h-0.22l0.22,0.22l-0.22-0.22
		c-0.22-0.22-0.66-0.22-1.1,0h-0.44c-0.44,0-0.88,0.44-0.88-0.44c-0.66,0-0.66,0.22-1.32,0l-0.22-0.66
		c-0.66,0.44-0.66-0.66-1.54-0.88c0.22,0-0.22-0.44-0.22-0.22l-0.22-0.88c-0.44-0.66-0.66-0.66-0.88-1.1v-1.1l-0.44-1.1l-0.44-1.76
		c-0.22-0.22-0.22-0.22,0-0.44c0-0.22-0.22-0.44,0-0.44c-0.22-0.66,0-1.1,0-1.1v-0.88c-0.22-0.22,0.66-0.44,0-0.22
		c0.44-0.44,0.22-0.66,0.44-1.1c-0.22-0.44,0-0.66,0.22-1.1c0.44-0.22,0.22-0.66,0.22-0.66c0.22-0.66,0.22-0.66,0.66-1.32
		c-0.66,0.22-0.44,0.66-0.66,0.66c-0.44,0.66-0.66,1.1-1.32,1.76c0,0.22,0,0.44-0.22,0.88v0.44c0.22,0.44,0.22,0.44-0.22,0.44
		l0.22,0.66l-0.22,0.44c0.44-0.22,0.22,0.22,0.22,0.22c-0.44,0-0.22,0.22-0.22,0.66l0.22,0.22c0.22,0.22,0,0.44-0.44,0.44
		c0.66,0.22,0.22,0.88,0.22,1.1v0.22l0.22,0.88v0.44c0,0.22,0,0.66,0.22,0.88c-0.22-0.22-0.22,0.66-0.22,1.32
		c-0.22,0.22-0.22,0.66-0.22,0.66l0.22,0.44l-0.22,0.22c0.44,0.66,0,0.66,0.22,0.88l-0.22,0.44l0.44,0.88
		c-0.66,0.44-0.66,0.44-0.22,0.88c-0.44,0.44-0.44,0.44-0.22,0.44l-0.22,0.88h-0.22c-0.44-0.44-0.66-0.66-0.88-0.66h-0.22
		c0-0.88,0.88-0.88,0.88-1.32c-0.44-0.44-0.44-0.66-0.44-0.88c0.44-0.22,0.44-0.22,0-0.66l0.22-0.66c0,0-0.22-0.22,0.22-0.88v-0.44
		c-0.22,0-0.22,0,0.22-0.66l-0.22-0.44l-0.22-0.88c0.22-0.44,0.22-0.66,0-1.32v-0.66l-0.22-0.66v-0.44l0.22-0.44
		c-0.22,0-0.22,0,0.22-0.66v-0.44l-0.22-0.66c0-0.22,0-0.44,0.44-0.88l-0.22-0.66l0.44-0.66c-0.22-0.66,0-0.66,0.22-0.88
		c0.44-0.66,0.44-1.32,1.1-1.98c0-0.22,0.44-0.44,0.44-0.44l0.44-0.22v-0.44l-0.22-0.22l-0.66,0.22l-0.88,0.22
		c-0.22,0-0.66-0.66-0.66-0.44c-0.66-0.22-0.66,0-0.88-0.22c-1.1-0.44-1.76-1.32-2.42-1.32h-0.44c0.22-0.44,0-0.44-0.22-1.1
		c0,0-0.44-0.22-0.66,0c0-0.22-0.66-0.66-0.66-1.1c-0.22,0-0.44-0.22-0.44-0.22c0-0.44-0.66-0.44-0.88-0.88
		c-0.66-0.44-0.88-0.22-1.76-0.66c0,0.22-0.66,0-0.66,0c-0.44,0.22-0.44,0.22-0.44,0l-0.22-0.66
		C188.69,637.35,188.47,636.69,188.91,636.91z M200.35,651.87v0.66c-0.22,0.22,0,0.66,0,0.66v0.22c0.22,0,0.22,0.66,0.44,1.1v1.1
		l0.22,0.22l0.22,0.22c0,0.44,0.22,0.88,0.22,0.88c-0.22-0.44,0.22-1.1-0.22-1.32c0-0.66,0.44-0.66,0.22-0.88l0.22-0.22
		c-0.44-0.22-0.44-0.22-0.22-0.66v-0.44c0-0.44,0-0.66-0.22-0.88c0,0,0.22-0.22,0-0.44c-0.22-0.44,0-0.88,0.22-1.1
		c0.22,0.22,0.22,0.44,0.22,1.32v0.22c0,0,0.22,0.44,0.22,0.66l-0.22,0.44c-0.22,0,0,0.44,0,0.44c0,0.22-0.22,0,0,0.44v0.22
		c0,0.22,0,0.44,0.22,0.88c0,0.44,0.22,0.88,0,1.1l0.88,1.76h0.22l0.22,0.44c0,0,0.22,0.22,0.44,0.22c0.22-0.66,0.22-1.54,0.44-1.76
		l-0.22-0.22l-0.22-0.44l-0.22-0.88c-0.22,0-1.1-6.38-0.66-10.12c-0.22,0.22-0.22-0.22-0.66,0l-0.22-0.22
		c-0.44,0.22-0.66,0-0.66,0.22l0.22-0.66h-0.44l0.22,0.22v0.44l0.22,0.66h-0.44c0.44,0.22,0.44,0.22,0.44,0v0.22l-0.44,0.22
		c0,0,0.44,0.44,0.22,0.44l-0.22-0.44c0,0.44-0.22,0.88-0.22,0.88c-0.22,0.22-0.88,0.88-0.44,0.88h0.22
		c-0.22,0.88-0.44,1.76-0.22,2.64c-0.44,0-0.44,0-0.22,0.22L200.35,651.87z M201.45,657.15l0.22,0.66
		C201.67,657.59,201.67,657.37,201.45,657.15z M203.65,650.33c0.22,0,0.66,0.44,0.88,0.44l0.22,0.22c0.66,0.66,1.1,1.1,1.76,1.76
		c0.44,0.22,1.1,0.44,1.32,0.88v-0.44l0.44,0.22l-0.44,0.22c-0.22,0-1.32-0.22-1.54-0.66c-0.66-0.66-1.1-1.1-1.76-1.54
		c1.32,1.98,3.3,3.96,3.3,3.96l0.22,0.22l-0.66,0.22l-0.22,0.44l0.22,0.44c0,0,0.22,1.98,0.22,3.08c0.22,0,0.44-0.22,0.88-0.88
		c-0.22,0,0,0,0.22-0.22c-0.22-0.22-0.44-0.44-0.22-0.66c0.22-0.22,0.66-0.44,0.66-0.66l-0.22-0.22c-0.44-0.44,0-0.66,0.22-1.1
		h-0.22c0-0.22,0.22-0.44,0.22-0.88c0-0.44-0.22-1.1-0.22-1.32l-0.22-0.44v-0.88l-0.44-0.66v-0.22c0-1.32-0.88-2.64-1.98-3.74
		l-0.66-0.66c-0.22-0.22-0.88,0-1.1-0.44c-0.66,0.22-0.88-0.44-1.32-0.66c-0.44,0.22-0.22,0.66,0,0.88v0.22
		c0,0.44,0.44,0.66,0.88,0.88c0.44,0.44,0.22,0,0.88,0.44l0.22,0.44h0.44h0.44l0.22,0.22v0.22c-0.44,0-0.44-0.22-0.44-0.22
		c-0.66,0.22-0.66,0.22-0.88,0c-0.22-0.22-0.22-0.22-0.66,0l0.22-0.22l-0.44-0.44c-0.44-0.22-0.66-0.22-0.88-0.66
		c0,0-0.22,0.44-0.22,0.66v0.22C202.99,649.23,203.21,649.89,203.65,650.33z M203.65,655.61v0.66c0,0,1.32,0.66,1.98,0.88
		c0.22,0.22,0.22,0.66,0.22,1.1v0.22c0.66,0.66,0.66,0.88,1.32,0.88l-0.22-2.42l-0.44-0.66l0.22-0.88l0.66-0.22
		c-0.44,0-1.1-0.66-1.54-1.32c-1.32-1.32-2.2-2.64-2.86-3.3C203.21,652.97,203.65,655.39,203.65,655.61z M205.41,660.01
		c0.22-0.44,0.66-0.22,0.88,0v0.22l0.44,0.22h0.44l-0.22-0.44c-0.66-0.22-0.66-1.1-1.32-1.76h-0.22c0-0.22,0-0.44-0.44-0.66
		l-0.44-0.66v0.66c0,0-0.44,1.1-0.44,1.98C204.75,659.57,204.97,660.01,205.41,660.01z M210.69,645.49
		c-0.22,0.22,0.22,0.22,0.22,0.22c-0.44,0.44-0.44,0.44-0.22,0.44c0,0,0,0.22,0.22,0.66l0.22,0.66c0,0,0.44,0,0,0.44l0.66-0.22
		c-0.22,0.66,0.66,1.32,1.1,1.76c0,0.22-0.22,0,0,0.22l0.44,0.44l0.22,0.44c0.88,0.66,0.66,1.1,1.32,1.1
		c0.22,0.66,0.66,1.1,0.88,0.66c0.22,0.44,0.66,0.44,0.66,0.88l0.66-0.22h0.22c0.22,0.22,0.88,0.44,0.88,0.44
		c0.88,0.44,1.1-0.22,1.98-0.22c0,0,0-0.22,0.22-0.22c-1.32-0.66-2.42-1.76-2.86-1.98l-0.66-0.22l-0.66,0.44h-0.22
		c0-0.22-0.44-2.86-1.32-5.28c0,0.66,0,1.76,0.22,2.2c0.22,0.66,0.22,1.76-0.22,1.98l-0.22-0.22c0-0.44,0.22-1.32,0-1.76
		c-0.22-0.44-0.22-1.54-0.44-1.98l0.22-0.22c-0.22-0.44-0.22-0.66-0.22-1.1l-1.1-1.32v-0.22c-0.44-0.22-0.66-0.22-0.66-0.22
		c0.22,0.22,0.22,0.66,0.22,1.32c0,0,0,0.22-0.44,0.44l0.44,0.22l0.22,0.44c-0.22,0-0.22,0.22-0.66,0.66l0.22,0.22l-0.22,0.22h-0.44
		c0-0.44,0.22-0.44,0.22-0.66c0.22-0.22,0.22-0.44,0.22-0.66v-0.22h-0.22v-1.1c0.22-0.22,0-0.88,0-0.88v-0.22
		c-0.22-0.44-0.44-0.22-0.44-0.22l-0.22,0.22v0.66h-0.22v0.44l-0.22,0.22v0.22l-0.22,0.22v0.44
		C210.47,645.27,210.47,645.27,210.69,645.49z M216.85,643.51l0.22,0.44c0.22,0,0.22,0.22,0.44,0.44l0.22-0.22
		c0.22,0.22,0.22,0.22,0.44,0.22c0.44,0,0.44,0.22,0.66,0.44h-0.22l1.1,0.66c0,0.22,0.44,0.22,0.22,0.22h0.22l-0.88-0.88
		c-0.66-0.66-0.88-0.88-1.54-1.54h-0.22v-0.44h-0.22l-0.22-0.22c-0.22,0-0.44,0-0.44-0.22c-0.88-0.44-1.54-1.1-2.64-1.54
		c-0.44,0.44-0.44,0.44-0.66,0h-0.22l-0.22-0.22l-0.44,0.22c0-0.22,0-0.22-0.22,0c0-0.22-0.22-0.22-0.44-0.22h-0.22l-0.88,0.22
		l4.84,2.2C215.97,642.85,216.63,643.29,216.85,643.51z M219.05,647.03l0.44,0.88v0.66l0.44,0.22c0.44-0.22,0.88,0.22,1.32,0.44
		c0-0.88-0.22-1.54-0.66-2.42c0.22-0.22,0,0-0.22-0.22c-0.66-0.44-0.66-0.44-0.66-0.66c-0.66-0.22-0.88-0.22-0.88-0.66
		c-0.22-0.22-0.66-0.22-0.88-0.22l-0.22-0.22l-0.22-0.22c-0.44,0-0.66-0.44-0.88-0.44v-0.22c-0.22-0.22-0.88-0.44-1.1-0.66
		l-4.62-1.98v0.44h0.22C214.43,643.51,219.05,647.03,219.05,647.03z M215.75,648.13c0.44,0.66,0.44,1.98,0.66,2.42h0.22l0.66-0.22
		l0.88,0.44c0,0,1.1,1.32,1.98,1.54c0-0.22,0-1.1-0.44-1.32c-0.22-0.22-0.22-0.22-0.22-0.44c0,0-0.22-0.22-0.44-0.88
		c-0.22-0.22,0-1.54,0-1.54v-0.44h-0.44l-4.4-3.3C214.87,645.27,215.53,646.37,215.75,648.13z M233.84,414.64
		c-0.15-0.41-0.31-0.83-0.1-0.9c0.21-0.08,0.21-0.08,0.34-0.36l-0.23-0.62c0,0-0.15-0.41,0.11-0.98l0.05-0.49
		c-0.08-0.21-0.08-0.21,0.26-0.57l-0.31-0.83l-0.02-0.7c0.05-0.49-0.02-0.7-0.18-1.11c0.21-0.08,0.18-0.77,0.11-0.98l-0.23-0.62
		l0.21-0.08c-0.08-0.21-0.08-0.21,0.26-0.57c-0.28-0.13-0.28-0.13-0.02-0.7c0.21-0.08-0.08-0.21,0.05-0.49l-0.23-0.62l0.52-1.13
		l-0.15-0.41c-0.08-0.21,0.13-0.28,0.39-0.85c-0.15-0.41,0.05-0.49,0.18-0.77c0.47-0.64,0.44-1.34,1.32-2.13
		c-0.08-0.21,0.13-0.28,0.34-0.36l0.41-0.15l-0.31-0.83l-1.44,0.54c-0.21,0.08-0.44-0.54-0.85-0.39c-0.28-0.13-0.7,0.02-0.77-0.18
		c-1.13-0.52-1.64-1.27-2.42-1.45l-0.21,0.08c0.13-0.28-0.15-0.41-0.31-0.83c-0.08-0.21-0.15-0.41-0.64-0.47
		c-0.08-0.21-0.64-0.47-0.79-0.88c-0.08-0.21-0.28-0.13-0.36-0.34c-0.15-0.41-0.64-0.47-0.92-0.6c-0.51-0.75-0.92-0.6-1.77-0.99
		c-0.13,0.28-0.7,0.02-0.7,0.02c-0.21,0.08-0.41,0.15-0.49-0.05l-0.02-0.7c0,0-0.36-0.34,0.13-0.28c0.28,0.13,0.9-0.1,0.98,0.11
		c0.13-0.28,0.41-0.15,0.41-0.15c0.08,0.21,0.77,0.18,1.13,0.52c0.28,0.13,0.92,0.6,1.08,1.01c0.28,0.13,0.85,0.39,1.57,1.06
		l0.08,0.21c0.36,0.34,0.51,0.75,0.79,0.88c0.41-0.15,0.7-0.02,0.77,0.18c0.23,0.62,0.79,0.88,1.15,1.21l0.21-0.08l0.72,0.67
		c0,0,0.7-0.02,0.77,0.18c0.13-0.28,0.62-0.23,0.83-0.31l0.9-0.1c-0.08-0.21,0.34-0.36,0.26-0.57c-0.49-0.05-0.02-0.69,0.18-0.77
		l-0.21,0.08c0,0-0.57-0.26-0.41,0.15c-0.15-0.41-0.15-0.41-0.64-0.47c-0.08-0.21-0.72-0.67-0.72-0.67
		c-0.98-0.11-1.7-0.78-2.42-1.45l-0.36-0.34c-0.21,0.08-0.28-0.13-0.77-0.18l-0.51-0.75l-0.25-1.31c-0.08-0.21-0.08-0.21,0.11-0.98
		c-0.21,0.08-0.15-0.41-0.15-0.41c0.41-0.15-0.08-0.21,0.26-0.57l-0.02-0.7c-0.08-0.21-0.08-0.21,0.05-0.49l-0.15-0.41
		c-0.15-0.41,0.05-0.49-0.23-0.62c0.34-0.36-0.02-0.7,0.18-0.77c-0.28-0.13-0.57-0.26-0.36-0.34l-0.28-0.13c0,0-0.15-0.41-0.44-0.54
		c-0.21,0.08-0.08-0.21,0.26-0.57c0.13-0.28,0.13-0.28,0.41-0.15l0.28,0.13c0.36,0.34,0.23,0.62,0.59,0.96l0.23,0.62l0.25,1.31
		l0.31,0.83c-0.41,0.15-0.26,0.57-0.39,0.85c0.08,0.21,0.02,0.7,0.02,0.7l0.18,1.11l0.31,0.83l-0.05,0.49c0.36,0.34,0.44,0.54,1,0.8
		c0.92,0.6,2.19,0.83,2.98,1.71c0.28,0.13,0.49,0.05,0.85,0.39l-0.15-0.41c0.41-0.15,0.41-0.15,0.54-0.44
		c0.13-0.28,0.41-0.15,0.54-0.44l0.26-0.57l-0.41,0.15c-0.49-0.05-0.49-0.05-0.7,0.02c-0.41,0.15-0.62,0.23-0.98-0.11
		c-0.41,0.15-0.49-0.05-0.98-0.11c-0.28-0.13-0.44-0.54-0.8-0.88c-0.49-0.05-0.49-0.05-0.64-0.47l-0.21,0.08
		c0.21-0.08,0.05-0.49-0.02-0.7c-0.23-0.62-0.1-0.9,0.16-1.47c-0.41,0.15,0.05-0.49,0.05-0.49c0.21-0.08,0.05-0.49-0.02-0.69
		c0.13-0.28,0.41-0.15,0.41-0.15c0.41-0.15,0.26-0.57,0.26-0.57c-0.08-0.21,0.41-0.15,0.41-0.15l1.03-0.38
		c0.34-0.36,0.11-0.98,0.73-1.21l0.41-0.15l0.49,0.05l0.57,0.26c0.21-0.08,0.26-0.57,0.95-0.59l-0.08-0.21
		c0.08,0.21,0.7-0.02,0.7-0.02c0.62-0.23,0.83-0.31,1.18,0.03c0.23,0.62,0.72,0.67,1.28,0.93c0.15,0.41,0.36,0.34,0.31,0.83
		c0.15,0.41,0.36,0.34,0.23,0.62l0.18,1.11c0.08,0.21,0.02,0.69,0.02,0.69c-0.26,0.57-0.8,1-1.14,1.36l-0.05,0.49l0.08,0.21
		l1.11-0.18c0.08,0.21,0.64,0.47,0.62-0.23c-0.08-0.21-0.23-0.62-0.02-0.7c0,0,0.05-0.49,0.39-0.85c0,0-0.15-0.41,0.13-0.28
		l-0.23-0.62l0.18-0.77l-0.23-0.62c0.21-0.08,0.05-0.49,0.11-0.98l-0.15-0.41c-0.21,0.08-0.15-0.41-0.44-0.54
		c-0.08-0.21-0.31-0.83-0.51-0.75c-0.85-0.39-1.13-0.52-1.62-0.57l-0.15-0.41c-0.36-0.34-1.05-0.31-1.36-1.14
		c-0.08-0.21-0.57-0.26-0.64-0.47l-0.31-0.83c-0.08-0.21-0.1-0.9-0.31-0.83c0.13-0.28-0.31-0.83,0.11-0.98
		c0.57,0.26,0.7-0.02,0.85,0.39c0.36,0.34,0.38,1.03,0.46,1.24c-0.13,0.28,0.38,1.03,0.38,1.03l2.26,1.04l0.44,0.54
		c0.36,0.34,0.85,0.39,1.28,0.93l0.15,0.41c0,0,0.23,0.62,0.44,0.54c0.15,0.41,0.1,0.9-0.11,0.98l0.38,1.03l0.02,0.7l-0.34,0.36
		l0.15,0.41c0,0,0.15,0.41-0.18,0.77l0.08,0.21l-0.13,0.28c-0.05,0.49,0.23,0.62,0.02,0.69c-0.21,0.08-0.05,0.49-0.05,0.49
		l0.02,0.69l0.64,0.47c-0.08-0.21-0.08-0.21,0.41-0.15l0.26-0.57c0.21-0.08,0.41-0.15,0.88-0.79l0.41-0.15l-0.23-0.62l0.39-0.85
		l-0.08-0.21l0.05-0.49c-0.15-0.41-0.38-1.03-0.41-1.73l-0.23-0.62l-0.31-0.83c0.05-0.49,0.05-0.49-0.1-0.9
		c-0.08-0.21-0.23-0.62,0.31-1.05l-0.46-1.24c0.21-0.08,0.26-0.57,0.47-0.64c-0.23-0.62,0.11-0.98,0.24-1.26
		c0.21-0.08,0.41-0.15,0.75-0.51l0.08,0.21l0.41-0.15c0.28,0.13,0.36,0.34,0.36,0.34c-0.13,0.28-0.54,0.44-0.54,0.44
		c0.15,0.41-0.31,1.05-0.44,1.34l0.02,0.7c-0.05,0.49-0.11,0.98,0.05,1.39l0.23,0.62c0.08,0.21-0.05,0.49-0.16,1.47
		c0.41-0.15,0.57,0.26,0.64,0.47c0.02,0.69-0.39,0.85-0.16,1.47c0,0,0.15,0.41,0.02,0.7c0.08,0.21,0.15,0.41,0.1,0.9
		c-0.13,0.28,0.08,0.21-0.05,0.49c0.08,0.21-0.34,0.36-0.39,0.85l0.08,0.21l-0.47,0.64c0,0-0.75,0.51-0.67,0.72l-0.13,0.28
		l-0.21,0.08l-0.05,0.49c0.15,0.41,0.44,0.54,0.57,0.26c0.08,0.21,0.49,0.05,0.9-0.1c0.21-0.08,0.47-0.64,0.62-0.23l1.67,0.08
		c0.21-0.08,0.41-0.15,0.9-0.1c0.44,0.54,0.64,0.47,1,0.8c0.77,0.18,1.26,0.24,1.34,0.44c0.57,0.26,0.85,0.39,1.57,1.06
		c0.72,0.67,1.36,1.14,2.13,1.32c1.36,1.14,2.29,1.73,3.49,2.46c0.62-0.23,0.9-0.1,1.26,0.24c0.15,0.41,0.57,0.26,1.13,0.52
		l0.28,0.13c-0.21,0.08,0.08,0.21,0.02,0.7l-0.21,0.08l-0.7,0.02c-0.21,0.08-0.57-0.26-0.77-0.18l-1.13-0.52
		c-1.21-0.73-2.77-1.79-4.47-2.57c-0.31-0.83-1.44-1.34-1.8-1.68l-1.41-0.65c-0.7,0.02-0.85-0.39-1.49-0.86l-0.62,0.23l-0.64-0.47
		l-0.9,0.1c-0.08-0.21-0.49-0.05-0.49-0.05l-1.03,0.38c0.28,0.13,0.41-0.15,0.49,0.05c0,0,0.28,0.13,0.62-0.23l0.23,0.62
		c0.26-0.57,0.41-0.15,0.41-0.15l0.21-0.08c0.7-0.02,0.7-0.02,1.05,0.31c0.21-0.08,0.9-0.1,0.77,0.18c1,0.8,2.06,1.11,2.98,1.71
		c0.28,0.13,0.51,0.75,0.79,0.88c0.21-0.08,0.51,0.75,0.51,0.75c0.49,0.05,0.85,0.39,0.92,0.6l0.23,0.62c0.36,0.34,0.51,0.75,1,0.8
		l0.08,0.21l0.1,0.9l0.08,0.21c0.21-0.08,0.08,0.21,0.36,0.34l-0.05,0.49c0.15,0.41-0.05,0.49,0.23,0.62
		c0.15,0.41,0.15,0.41,0.02,0.7l0.21-0.08l-0.26,0.57c0,0,0.23,0.62-0.26,0.57l0.15,0.41c-0.13,0.28-0.13,0.28,0.02,0.7l-0.47,0.64
		l-0.26,0.57c0,0-0.34,0.36-0.54,0.44l0.08,0.21l-1.24,0.46l-0.9,0.1c-0.41,0.15-0.41,0.15-0.49-0.05
		c-0.62,0.23-0.77-0.18-0.77-0.18c-0.49-0.05-0.49-0.05-0.34,0.36c-0.26,0.57-0.39,0.85-0.44,1.34c-0.21,0.08,0.1,0.9-0.31,1.05
		c-0.26,0.57-0.52,1.13-1.19,1.85c-0.21,0.08-0.49-0.05-0.9,0.1l-0.83,0.31l-0.9,0.1c-0.62,0.23-0.57-0.26-0.98-0.11
		c-0.08-0.21-0.28-0.13-0.64-0.47c-0.44-0.54-0.85-0.39-1.05-0.31l-0.15-0.41l-0.47,0.64l-0.78,1.7c0,0-0.62,0.23-0.9,0.1
		l-0.13,0.28c-0.21,0.08-0.21,0.08-0.13,0.28c-0.15-0.41-0.77-0.18-0.98-0.11c-0.21,0.08-0.7,0.02-0.7,0.02
		c-0.41,0.15-0.62,0.23-0.85-0.39c-0.41,0.15-0.62,0.23-1.05-0.31l-0.36-0.34c-0.62,0.23-0.72-0.67-1.49-0.86
		c-0.08-0.21-0.15-0.41-0.36-0.34l-0.02-0.69c-0.59-0.96-0.79-0.88-0.95-1.29l-0.18-1.11l-0.51-2.63c-0.15-0.41-0.15-0.41-0.02-0.7
		c-0.08-0.21-0.36-0.34-0.15-0.41c-0.15-0.41,0.11-0.98,0.11-0.98c-0.08-0.21,0.05-0.49-0.1-0.9c-0.08-0.21,0.26-0.57-0.15-0.41
		c0.54-0.44,0.47-0.64,0.6-0.92c-0.23-0.62-0.02-0.7,0.24-1.26c0.21-0.08,0.26-0.57,0.26-0.57c0.18-0.77,0.18-0.77,0.44-1.34
		c-0.41,0.15-0.26,0.57-0.47,0.64c-0.18,0.77-0.8,1-1.4,1.93c0.08,0.21,0.15,0.41,0.1,0.9l-0.13,0.28c0.08,0.21,0.08,0.21-0.26,0.57
		l0.15,0.41l-0.13,0.28c0.28,0.13,0.08,0.21,0.08,0.21c-0.13,0.28,0.08,0.21,0.02,0.7l-0.05,0.49c0.08,0.21,0.15,0.41-0.26,0.57
		c0.49,0.05,0.23,0.62,0.31,0.83l-0.34,0.36l0.54,1.44c-0.21,0.08-0.26,0.57,0.02,0.69c-0.21,0.08-0.47,0.64-0.31,1.05
		c0.08,0.21-0.18,0.77-0.18,0.77l0.31,0.83l-0.21,0.08c0.02,0.7-0.18,0.77,0.1,0.9l-0.13,0.28l0.31,0.83
		c-0.26,0.57-0.26,0.57-0.31,1.05c-0.41,0.15-0.34,0.36-0.26,0.57l-0.05,0.49l-0.21,0.08c-0.57-0.26-0.85-0.39-1.05-0.31l-0.08-0.21
		C233.37,415.28,233.99,415.05,233.84,414.64z M219.49,649.67c0.22,0.44,0,0.66,0.44,0.66l0.22,0.22c0.66,0.66,0.44,1.54,0.66,1.54
		v-0.22c0.44-0.66,0.66-1.54,0.44-2.2c-0.44-0.22-1.32-0.44-1.32-0.44v-0.22l-0.66-0.22C219.71,649.01,219.49,649.45,219.49,649.67z
		 M237.43,409.79c-0.15-0.41-0.02-0.7-0.1-0.9l-0.08-0.21l0.18-0.77l-0.15-0.41l-0.08-0.21c0.13-0.28,0.05-0.49-0.02-0.69
		c0,0,0.13-0.28,0.05-0.49c-0.15-0.41-0.02-0.7,0.11-0.98l0.59-5.38c-0.21,0.08-0.41,0.15-0.7,0.02l0.23,0.62l-0.41,0.15
		c0.49,0.05,0.49,0.05,0.41-0.15l0.08,0.21l-0.34,0.36c0,0,0.08,0.21-0.13,0.28l-0.08-0.21l-0.18,0.77c-0.13,0.28,0.1,0.9-0.39,0.85
		l0.28,0.13c-0.47,0.64-0.37,1.54-0.47,2.52c-0.21,0.08-0.21,0.08-0.13,0.28l0.15,0.41l0.23,0.62l-0.26,0.57l0.08,0.21l0.46,1.24
		c-0.05,0.49,0.02,0.7,0.18,1.11l0.08,0.21c0.08,0.21,0.08,0.21,0.36,0.34c-0.05,0.49,0.02,0.69,0.02,0.69
		C237.33,410.76,237.51,409.99,237.43,409.79z M238.92,412.52l0.15,0.41c0.21-0.08,0.28,0.13,0.57,0.26l0.37-1.54l0.05-0.49
		l-0.57-0.26l-0.31-0.83c0.13-0.28-0.77-6.52-0.27-10.22c-0.21,0.08-0.28-0.13-0.49-0.05l-0.28-0.13l-0.59,5.38
		c0.15,0.41,0.02,0.7,0.25,1.31l-0.13,0.28l0.31,0.83c0,0-0.28-0.13-0.21,0.08c-0.21,0.08-0.13,0.28-0.05,0.49
		c0.08,0.21-0.13,0.28-0.26,0.57l0.08,0.21l0.31,0.83c0.15,0.41,0.1,0.9,0.18,1.11C238.33,411.57,238.35,412.26,238.92,412.52z
		 M241.33,413.97c0.49,0.05,0.77,0.18,0.98,0.11l0.23,0.62l0.41-0.15l0.13-0.28c-0.64-0.47-1.08-1.01-1.31-1.63l-0.28-0.13
		c-0.08-0.21-0.15-0.41-0.59-0.96c0,0-0.15-0.41-0.44-0.54l-0.18,0.77c0,0-0.11,0.98-0.42,2.03
		C240.56,413.79,240.92,414.13,241.33,413.97z M241.6,411.53l0.31,0.83l0.08,0.21c0.23,0.62,0.59,0.95,1.08,1.01l-0.22-2.5
		l-0.02-0.69l0.18-0.77l0.41-0.15c-0.57-0.26-1-0.8-1.8-1.68c-1.15-1.21-1.82-2.38-2.54-3.05c0.22,2.5,0.57,4.71,0.52,5.2l0.15,0.41
		C239.75,410.34,241.16,410.99,241.6,411.53z M237.58,399.41l-0.57-0.26l0.23,0.62L237.58,399.41z M240.54,404.88l0.28,0.13
		c0.51,0.75,1.23,1.42,1.67,1.96l1.41,0.65l0.13-0.28l0.15,0.41l-0.21,0.08c-0.49-0.05-1.54-0.37-1.83-0.5
		c-0.31-0.83-0.95-1.29-1.59-1.76c-0.08-0.21-0.08-0.21-0.28-0.13c1.25,2.12,3.54,3.85,3.54,3.85l0.36,0.34l-0.83,0.31l-0.26,0.57
		l-0.05,0.49c0,0,0.48,1.93,0.38,2.91l0.21-0.08c0.28,0.13,0.41-0.15,0.75-0.51c-0.08-0.21,0.13-0.28,0.05-0.49
		c-0.08-0.21-0.15-0.41-0.02-0.7c0.34-0.36,0.54-0.44,0.75-0.51l-0.15-0.41c-0.08-0.21-0.15-0.41,0.18-0.77l-0.28-0.13
		c0.34-0.36,0.26-0.57,0.11-0.98c0.05-0.49-0.18-1.11-0.05-1.39l-0.46-1.24l-0.02-0.69l-0.08-0.21c-0.25-1.31-0.99-2.68-2.07-3.69
		c-0.08-0.21-0.36-0.34-0.72-0.67c-0.08-0.21-0.49-0.05-0.85-0.39c-0.7,0.02-1.05-0.31-1.49-0.86c-0.34,0.36-0.18,0.77-0.11,0.98
		l0.08,0.21c0.15,0.41,0.64,0.47,1.08,1.01c0.08,0.21,0.28,0.13,0.64,0.47c0.28,0.13,0.28,0.13,0.36,0.34l0.41-0.15
		c0.21-0.08,0.41-0.15,0.49,0.05l0.15,0.41l-0.13,0.28l-0.08-0.21c-0.21,0.08-0.49-0.05-0.49-0.05c-0.41,0.15-0.28-0.13-0.49-0.05
		c-0.28-0.13-0.28-0.13-0.49-0.05l-0.08-0.21c-0.08-0.21-0.44-0.54-0.72-0.67c-0.28-0.13-0.57-0.26-0.64-0.47
		c0,0-0.34,0.36-0.26,0.57l0.08,0.21c-0.05,0.49,0.25,1.31,0.61,1.65L240.54,404.88z M248.79,403.7c0.08,0.21,0.28,0.13,0.28,0.13
		s0.08,0.21-0.13,0.28l0.36,0.34l0.28,0.13c0,0,0.21-0.08,0.08,0.21c0.64,0.47,0.79,0.88,1.44,1.34c0.15,0.41,0.23,0.62,0.72,0.67
		c0.08,0.21,0.57,0.26,0.64,0.47l0.41-0.15l0.57,0.26l0.64,0.47c0.77,0.18,1.31-0.25,1.93-0.48l0.41-0.15
		c-1.13-0.52-2.57-1.86-2.85-1.99l-0.08-0.21l-0.7,0.02l-0.54,0.44l-0.08-0.21c-0.08-0.21-0.45-3.12-1.58-5.52l0.08,0.21l0.08,0.21
		c-0.18,0.77,0.12,1.6,0.35,2.22c0.02,0.7-0.01,1.88-0.21,1.96l-0.21,0.08l-0.28-0.13l0.21-0.08c0.13-0.28,0.03-1.18,0.08-1.67
		c-0.44-0.54-0.54-1.44-0.63-2.35l0.21-0.08l-0.38-1.03c0.05-0.49-0.66-1.16-0.95-1.29l-0.08-0.21c-0.08-0.21-0.36-0.34-0.36-0.34
		c-0.05,0.49,0.1,0.9-0.03,1.18c0,0,0.15,0.41-0.05,0.49l0.08,0.21c-0.13,0.28-0.13,0.28-0.05,0.49s-0.05,0.49-0.18,0.77
		c0,0,0.08,0.21-0.13,0.28l0.08,0.21l-0.7,0.02l0.21-0.08c-0.15-0.41,0.05-0.49,0.18-0.77c0.21-0.08,0.13-0.28,0.05-0.49l0.13-0.28
		l-0.08-0.21c-0.08-0.21-0.15-0.41-0.1-0.9c-0.08-0.21,0.11-0.98,0.03-1.18l-0.28-0.13c-0.08-0.21-0.28-0.13-0.28-0.13l-0.13,0.28
		l-0.05,0.49l0.08,0.21l-0.21,0.08c-0.13,0.28-0.05,0.49-0.26,0.57l0.08,0.21l-0.13,0.28l-0.28-0.13l0.31,0.83
		c0.08,0.21-0.05,0.49-0.05,0.49c-0.13,0.28-0.13,0.28-0.05,0.49c0,0,0.08,0.21,0.36,0.34l0.23,0.62c0,0,0.36,0.34-0.05,0.49
		l0.49,0.05C247.91,402.62,248.35,403.16,248.79,403.7z M254.97,401.41l0.59,0.96l0.15,0.41l0.36,0.34
		c0.21-0.08,0.77,0.18,1.26,0.24c-0.02-0.7-0.33-1.52-0.56-2.14c-0.08-0.21-0.28-0.13-0.36-0.34c-0.36-0.34-0.64-0.47-0.72-0.67
		c-0.57-0.26-0.77-0.18-0.92-0.6c-0.08-0.21-0.44-0.54-0.64-0.47l-0.28-0.13l-0.28-0.13c-0.49-0.05-0.57-0.26-0.85-0.39l-0.08-0.21
		c-0.08-0.21-0.72-0.67-1-0.8l-4.52-2.08l0.15,0.41l-0.13,0.28C250.41,397.94,254.97,401.41,254.97,401.41z M252.98,397.92
		c0,0,0.21-0.08,0.08,0.21l0.64,0.47l0.21-0.08c0.21-0.08,0.28,0.13,0.57,0.26c0.28,0.13,0.36,0.34,0.57,0.26l0.08,0.21
		c0.08,0.21,0.44,0.54,0.44,0.54c0.28,0.13,0.49,0.05,0.57,0.26c0.13-0.28-0.08-0.21-0.08-0.21c-0.28-0.13-0.64-0.47-0.59-0.96
		c-0.57-0.26-0.92-0.6-1.44-1.34l-0.28-0.13l-0.15-0.41l-0.21,0.08l-0.08-0.21c-0.21,0.08-0.49-0.05-0.57-0.26
		c-0.64-0.47-1.57-1.06-2.62-1.37l-0.21,0.08c-0.21,0.08-0.21,0.08-0.28-0.13l-0.28-0.13l-0.28-0.13l-0.41,0.15
		c-0.08-0.21-0.08-0.21-0.28-0.13c-0.08-0.21-0.28-0.13-0.49-0.05l-0.21,0.08c-0.49-0.05-0.7,0.02-0.7,0.02l4.6,2.28
		C252.06,397.33,252.62,397.59,252.98,397.92z M253.34,404.59l0.85,0.39c0,0,1.15,1.21,2,1.6c0.05-0.49-0.18-1.11-0.54-1.44
		l-0.15-0.41c0,0-0.28-0.13-0.44-0.54c-0.23-0.62,0.01-1.88,0.01-1.88L255,402.1l-0.36-0.34c-0.28-0.13-2-1.6-4.21-3.13
		c0.59,0.95,1.05,2.19,1.38,3.71c0.59,0.95,0.56,2.14,0.71,2.55L253.34,404.59z M257.49,403.76c-0.7,0.02-1.47-0.16-1.47-0.16
		l-0.08-0.21l-0.57-0.26c0.08,0.21,0.02,0.7,0.31,0.83c0.08,0.21,0.15,0.41,0.44,0.54l-0.13,0.28c0.51,0.75,0.74,1.37,0.69,1.86
		l0.34-0.36C257.2,405.51,257.38,404.74,257.49,403.76z M322.89,513.05v-0.22c0.66-0.22,1.1,0.44,1.54,0.22
		c0.22-0.44,0.44-0.66,0.66-0.66c0.22,0.22,0.22,0.22,0.44-0.22l0.66-0.22c0,0,0.22-0.22,0.88-0.22l0.44-0.22c0-0.22,0-0.22,0.66,0
		l1.1-1.1c0.44,0,0.66,0,1.1-0.44l0.66-0.44l0.44-0.44h0.88c0-0.44,0-0.44,0.66-0.22c0,0.22,0-0.22,0.44-0.22l0.44-0.44
		c0.22,0,0.44-0.22,1.1,0l0.44-0.44h0.88c0.44-0.44,0.44-0.22,0.88-0.22c0.66,0.22,1.32,0,2.2,0.22c0.22,0,0.66,0.22,0.66,0.22
		l0.22,0.22l0.44-0.22l0.22-0.22l-1.1-1.1c0-0.22,0.22-0.88,0-0.88c0-0.66-0.22-0.66-0.22-0.88c0-1.1,0.44-2.2,0.22-2.86l-0.22-0.22
		c0.44,0,0.44-0.22,0.88-0.66c0,0,0-0.44-0.22-0.66c0.22-0.22,0.22-0.88,0.66-1.1v-0.44c0.44-0.22,0.22-0.88,0.44-1.1
		c0-0.88-0.22-1.1-0.22-1.98c-0.22,0-0.22-0.66-0.22-0.66c-0.44-0.22-0.44-0.22-0.22-0.44l0.44-0.44c0,0,0.44-0.44,0.44,0
		c0,0.22,0.66,0.88,0.44,1.1c0.22-0.22,0.22,0.44,0.22,0.44c-0.22,0,0.44,0.44,0.22,0.88c-0.22,0.44-0.22,1.1-0.66,1.54
		c0.22,0.22,0,0.88,0,1.54l-0.22,0.66c0,0.44-0.44,0.44-0.44,0.88c0.22,0.44,0.22,0.66,0,0.66c-0.44,0.66-0.22,1.1-0.44,1.76h0.22
		l-0.22,1.1c0,0,0.22,0.44,0,0.66c0.44,0,0.66,0.44,0.66,0.66l0.66,0.66c0.22,0,0.44,0.22,0.66,0c-0.22-0.44,0.44-0.22,0.66,0
		l-0.22-0.22c0,0,0-0.66-0.44-0.44c0.44-0.22,0.44-0.22,0.22-0.66c0.22,0,0.44-0.88,0.44-0.88c-0.44-1.1-0.22-1.98,0-3.08l0.22-0.22
		c-0.22-0.22,0-0.44-0.22-0.88c0.22,0,0.22,0,0.44-0.44l1.1-0.88c0.22-0.44,0.22-0.44,1.1-0.66c-0.22-0.22,0.22-0.44,0.22-0.44
		c0.22,0.44,0.22,0,0.66,0.22l0.44-0.44c0-0.22,0-0.22,0.44-0.22h0.44c0.22-0.44,0.44-0.44,0.44-0.66c0.44,0,0.66-0.22,0.66-0.22
		c0-0.44,0-0.66,0.22-0.44v-0.44c0,0,0.44-0.22,0.22-0.66c-0.22-0.22,0.22,0,0.44,0.22c0.44-0.22,0.44-0.22,0.44,0.22v0.22
		c0,0.22-0.22,0.44-0.44,1.1l-0.44,0.22l-0.88,0.88l-0.88,0.66l-0.88,0.22c-0.22,0.22-0.66,0.22-0.66,0.22l-0.88,0.66l-0.88,0.88
		c-0.22,0.44-0.44,0.44-0.44,1.1c0,1.32,0.22,2.42-0.22,3.52c0.22,0.44,0.22,0.66,0.22,1.1l0.22-0.44l0.66,0.44
		c0-0.22,0.22,0,0.66-0.22l0.44,0.22l-0.44-0.44c-0.22,0-0.22,0-0.22-0.22c-0.22-0.44-0.44-0.66-0.22-1.1
		c-0.22-0.22,0-0.44-0.44-0.88c0-0.44,0.22-0.66,0.44-1.32c-0.22-0.22-0.22-0.22,0.22-0.66v-0.22c0,0.22,0-0.22,0.22-0.22
		c0.66-0.66,0.88-0.44,1.54-0.22c-0.22-0.44,0.44-0.44,0.44-0.44s0.44-0.22,0.66-0.22c0.22-0.22,0.44,0,0.44,0
		c0.22,0.44,0.44,0.22,0.44,0.22c0.22,0,0.22,0.44,0.22,0.44l1.1,0.66c0.22,0,0.88-0.44,1.1,0l0.66,0.66l-0.22,0.66
		c0.22,0,0.66,0,1.32,0.66v-0.22c0,0.22,0.22,0.44,0.22,0.44c0.44,0.66,0.66,0.88,0.44,1.32c-0.22,0.44-0.22,0.88,0,1.54l-0.66,0.66
		c-0.22,0.22-0.22,0.44-0.44,0.44l-0.88,0.66l-0.66,0.44l-1.76-0.66l-0.66,0.66l0.88,0.66c-0.22,0.22-0.22,0.66,0.44,0.66
		c0-0.22,0.44-0.66,0.44-0.44c0,0,0.44-0.22,0.88,0c0,0,0.44-0.44,0.44-0.22l0.66-0.22c0.22-0.44,0.66-0.44,0.66-0.44l0.22-0.22
		c0.44,0,0.66-0.22,0.88-0.44l0.44-0.22c0-0.22,0.44-0.44,0.22-0.88c0.22,0,0.66-0.44,0.66-0.66c-0.22-0.88-0.22-1.1-0.44-1.54
		l0.44-0.44c0.22-0.66-0.44-1.1,0.44-1.76c0.22,0,0-0.44,0-0.88l0.66-0.66c0,0,0.66-0.44,0.66-0.66c0.22,0,0.44-0.44,0.88-0.22
		c-0.22,0.66,0.44,0.44,0,0.88c0,0.44-0.66,0.88-0.88,1.1c-0.44,0-0.66,0.66-0.66,0.66v2.42l-0.22,0.88
		c-0.22,0.22-0.22,0.88-0.44,1.54l-0.22,0.44c0,0-0.66,0.22-0.22,0.44c-0.44,0.22-0.88,0.66-0.88,0.44l-0.88,0.88l-0.44,0.22
		l-0.44-0.22l-0.44,0.44c0,0-0.44,0.22-0.88-0.22l-0.22,0.44c-0.66,0.22-0.66,0.44-0.88,0.22l-0.66,0.44l-0.22,0.22l-0.22,0.66
		c0.22-0.22,0.22-0.22,0.44,0.44h0.66c0,0.22,0.22,0.22,0.88,0.22c0,0,0.22,0.22,0.22,0.44l0.66-0.44h0.88l0.22-0.22l0.44-0.22
		l1.32-1.32l0.44-0.22l0.66-0.66l0.66-0.44c0.22,0,0.44-0.44,0.88-0.44l1.32-0.66c0,0,0.44-0.44,0.44-0.22
		c0.66-0.22,1.1-0.22,1.32,0c0.44,0,0.44,0.22,0.88,0.22l-0.22,0.44h0.44c0,0.44-0.22,0.66-0.22,0.66c-0.44,0-0.66-0.44-0.66-0.44
		c-0.22,0.22-0.88,0.22-1.1,0.22l-0.88,0.44c-0.66,0-0.88,0.44-1.1,0.66l-0.66,0.44c-0.22,0.22-0.22,0.22-1.32,0.66
		c0.22,0,0,0.44-0.22,0.66c-0.44,0.22-0.66,0-1.32,0.44c0,0-0.44,0.22-0.66,0.22c0.22,0.44,0,0.44-0.44,0.44l-0.66,0.44
		c-0.22,0-0.44-0.22-0.88,0.22h-0.22c0,0-0.44-0.22-0.66-0.22c0,0-1.1-0.44-1.32-0.44l-0.22,0.22l-0.22-0.22v0.22
		c-0.44,0.22-0.44,0.66-0.22,0.66c-0.22,0,0.22,0.44,0.66,0.66c0,0.22,0.66,0.22,0.22,0.44l0.66,1.54c0.22,0.22,0.44,0.44,0.44,0.88
		c0,0.66,0.22,0.66-0.22,1.32c0.22,0.66,0.44,1.1,0.22,1.32c0.22,0.66,0.22,0.88-0.22,1.76c0,0.88-0.22,1.76-0.22,2.64
		c-0.22,1.54-0.44,2.64-0.44,3.96c0.22,0.66,0.44,0.88,0.22,1.32c-0.44,0.66,0,0.66,0.22,1.32l-0.22,0.22c0-0.22,0,0.22-0.44,0.44
		l-0.22-0.22l-0.44-0.66c0-0.22,0-0.66-0.22-0.66v-1.1c0-1.54,0.22-3.3,0.44-5.06c0.44-0.88,0.44-1.98,0.66-2.64
		c-0.22-0.44-0.22-0.88-0.22-1.32c0-0.66,0-1.1,0.22-1.98l-0.66-0.44l0.44-0.66l-0.66-0.66c0.22-0.22,0-0.66,0-0.66l-0.88-0.66
		c0,0.22,0.22,0.22,0.22,0.22s0,0.66,0.44,0.66c-0.22,0-0.66,0.44-0.66,0.44c0.66,0,0.22,0.44,0.22,0.44h0.44
		c0.22,0.66,0.22,0.66,0,0.88c0.44,0.22,0.44,0.88,0.22,1.1c-0.22,1.1,0,1.98,0,3.3l-0.66,1.1c0.22,0-0.22,0.88-0.22,0.88
		c0,0.44,0,0.88-0.22,1.1c0,0-0.22,0.44-0.44,0.44c0,0.44-0.22,0.44-0.22,1.1l-0.22,0.22l-0.66,0.44l-0.22,0.44
		c0.22,0,0,0-0.22,0.22l-0.44,0.22c-0.22,0.22-0.44,0.22-0.22,0.44c-0.44,0.44-0.44,0.44-0.66,0.22v0.22h-0.44
		c0,0-0.66,0.66-0.88,0.22l-0.22,0.22l-0.88,0.44l-0.44-0.22h-0.66c0,0-0.44-0.22-0.66-0.22l-0.22,0.22l-0.22-0.22l-0.66-0.88
		l-0.66-0.66c-0.22-0.44-0.22-0.44,0-0.44l-0.22-0.88c-0.22-0.22-0.22-0.22-0.44,0c-0.66,0-0.88-0.22-1.32,0.22
		c-0.22,0-0.66,0.22-1.1,0.22c-0.88-0.22-1.32,0.22-2.2-0.44l-0.66-0.44l-0.22-0.44l-0.22-0.44c0-0.22-0.66-0.44-0.66-0.44
		c-0.22-0.66,0-0.88-0.22-1.32c0.22,0,0-0.22,0-0.66c0.44-0.66,0.22-0.88-0.22-1.1h0.44l-0.66-0.44l-1.98,0.22
		c0,0-0.22-0.66-0.66-0.88l-0.22,0.22l-0.22-0.22v0.22v-0.22c0.22-0.22,0.22-0.22,0-0.44c0,0,0.22,0,0.22,0.22l0.22-0.44
		c0-0.66,0.88-1.1,0.88-1.98v-0.22c0.22,0,0.44-0.22,0.44-0.66l0.44-0.66l-0.66,0.22l-1.98,0.44c0.22,0.66,0,1.1,0.22,1.54
		c0.44,0,0.44,0.44,0.44,0.66l-0.22,0.22v0.44v0.22c0-0.22-0.22-0.44-0.44-0.44c0-0.22-0.22-0.44-0.22-0.44
		c-0.22-0.44-0.66-0.66,0-1.1c-0.22-0.44-0.44-0.44-0.44-1.1l0.44-0.44c-0.66-0.44,0.22-0.88,0-1.76c0.22,0,0.44-0.44,0.22-0.44
		l0.66-0.44c0.44-0.66,0.22-0.88,0.66-1.32l0.88-0.44l0.88-0.88l1.32-1.1c0.22-0.44,0.22-0.44,0.44-0.22
		c0.22-0.22,0.22-0.44,0.44-0.22c0.44-0.44,0.88-0.44,0.88-0.44c0.22-0.22,0.44-0.22,0.88-0.44c0-0.22,0.66,0.22,0.22-0.22
		c0.44,0.22,0.66,0,1.1,0c0.22-0.44,0.66-0.44,1.1-0.22c0.44,0.22,0.66-0.22,0.66-0.22h1.54c-0.44-0.44-0.88,0-0.88-0.22
		c-0.88,0-1.32-0.22-2.2-0.44c-0.22,0.22-0.44,0.22-0.88,0.22l-0.44,0.22c-0.22,0.22-0.22,0.22-0.44,0l-0.44,0.44h-0.44
		c0.22,0.22-0.22,0.22-0.22,0.22c-0.22-0.22-0.22-0.22-0.66,0.22l-0.22,0.22c0,0.22-0.22,0.22-0.44-0.22c0,0.66-0.66,0.66-0.88,0.66
		h-0.22l-0.88,0.66l-0.22,0.22c-0.22,0.22-0.66,0.44-0.66,0.66c0-0.22-0.88,0-1.32,0.22c-0.22,0-0.66,0.22-0.66,0.22l-0.44,0.44
		l-0.22-0.22c-0.44,0.66-0.66,0.44-0.66,0.66h-0.44l-0.66,0.66c-0.66-0.22-0.66-0.22-0.88,0.22c-0.66-0.22-0.66-0.22-0.66,0
		l-0.66,0.22l-0.22-0.22C322.89,513.49,322.89,513.27,322.89,513.05z M329.93,517.01l0.22-0.22l0.22-0.44l0.66-0.66
		c0-0.22,5.28-3.74,8.8-4.84c-0.22-0.22,0-0.44-0.22-0.66v-0.22l-5.06,1.98c-0.22,0.22-0.44,0-1.1,0.66l-0.22,0.22l-0.44,0.44h-0.44
		c-0.22-0.22-0.44,0-0.44,0c-0.22,0.22-0.22,0-0.44,0.22l-0.22,0.22c-0.22,0-0.44,0.22-0.66,0.44c-0.44,0.44-0.66,0.66-0.88,0.66
		c-0.66,0.66-1.1,1.1-1.32,1.54v0.22l-0.22,0.22v0.66L329.93,517.01z M330.37,521.63c0-0.22,0.22,0,0.44,0
		c0-0.22,0.22-0.44,0.44-0.44c0.44,0.22,0.66,0.44,0.88,0.44l0.22-0.44c0.22-0.22,0.44-0.22,0.88-0.22v-0.22
		c0.22,0,0.44,0,0.88-0.22c0.44-0.22,0.88-0.66,1.1-0.66l0.44-0.44l0.66-0.44l0.44-0.66h0.22c1.1-0.88,1.98-1.98,2.42-3.52
		c0.22-0.22,0.22-0.44,0.22-0.88c0.22-0.22-0.22-0.66,0-1.1c-0.44-0.44,0-1.1,0-1.54c-0.44-0.22-0.66,0.22-0.66,0.44h-0.22
		c-0.44,0.22-0.44,0.66-0.44,1.32c-0.22,0.44,0,0.22,0,0.88c-0.22,0.44-0.22,0.44-0.44,0.44c0,0,0.22,0.22,0.22,0.44
		c0.22,0.22,0.44,0.44,0.22,0.44v0.22l-0.44,0.22l0.22-0.22c-0.22-0.22,0-0.44,0-0.44c-0.44-0.44-0.44-0.44-0.44-0.66
		c0-0.44,0-0.44-0.22-0.66h0.22c0.22-0.22,0.22-0.44,0.22-0.66c0-0.44,0-0.66,0.22-0.88c0,0-0.44-0.22-0.66,0h-0.22
		c-0.44,0.22-0.88,0.88-1.1,1.32v1.1l-0.22,0.22c0,0.88-0.44,1.54-0.66,2.42c0,0.44,0,1.1-0.22,1.54l0.44-0.22l-0.22,0.44
		l-0.22-0.22c-0.22-0.22-0.44-1.32-0.22-1.76c0.44-0.88,0.66-1.54,0.66-2.2v-0.22c-1.1,2.2-1.98,4.84-1.98,4.84l-0.22,0.44
		l-0.44-0.66h-0.44l-0.44,0.44c0,0-1.54,1.1-2.64,1.54C329.49,521.41,329.71,521.63,330.37,521.63z M331.69,519.43l0.44-0.66
		l0.88-0.22l0.44,0.44c-0.22-0.44,0-1.32,0.44-1.98c0.66-1.76,1.32-3.08,1.76-3.96c-2.2,1.32-4.18,2.64-4.4,2.86l-0.44,0.22v2.2
		c-0.22,0.22-0.44,0.44-0.88,0.66h-0.22c-0.22,0.88-0.44,1.1-0.22,1.76L331.69,519.43z M330.37,513.71c0.44-0.22,0.66,0,0.88-0.22
		h0.22c0-0.44,0-0.44,0.44-0.44c0.22,0,0.44-0.22,0.44-0.22c0.44-0.22,0.66-0.22,0.66-0.44c0,0,0.22,0,0.44-0.22
		c0.22-0.44,0.66-0.44,1.1-0.44l5.06-1.98c-0.22-0.22-0.22-0.44-0.44-0.44l-0.44,0.44l-0.22-0.44c0,0.66,0,0.66,0.22,0.44
		l-0.22,0.22l-0.44-0.22c0,0-0.22,0.44-0.22,0.22l0.22-0.44c-0.44,0.22-0.88,0.22-0.88,0.22l-0.88,0.22
		c-0.88,0.22-1.76,0.44-2.42,0.88c-0.22-0.22-0.22-0.22-0.22,0l-0.44,0.44c-0.22,0-0.44,0.22-0.66,0.22c-0.22,0-0.44,0.22-0.44,0.22
		l-0.22,0.22c0,0.22-0.44,0.44-0.88,0.88c-0.44,0.22-0.66,0.22-0.88,0.44l-0.22,0.22v0.44l-0.44,0.44
		C329.27,514.59,330.15,514.15,330.37,513.71z M339.83,509.31l-0.22-0.44v0.22l-0.44,0.22H339.83z M339.61,526.69v1.32
		c0,0.88,0.88,0.88,1.1,1.54c0,0,0.22,0,0.44,0.22c-0.22-1.54,0.44-3.08,0.44-3.52v-0.66l-0.88-0.44v-0.22c0.22,0,6.16-5.5,4.4-3.74
		l-0.22,0.22c-0.66,0.66-1.54,0.88-1.98,1.32c-0.44,0.44-1.54,0.88-1.76,0.66v-0.22c0.44-0.22,1.32-0.44,1.54-0.88
		c0.44-0.44,1.32-0.88,1.76-1.32l0.22,0.22c0.22-0.44,0.44-0.66,0.88-0.88c0.22-0.44,0.66-1.1,0.66-1.54h0.22v-0.66
		c-0.22,0.22-0.66,0.44-1.1,0.66c0,0-0.22,0.22-0.66,0v0.44l-0.22,0.22c-0.22,0-0.44,0-0.88-0.22c0,0-0.22,0.44-0.22,0.22h-0.22
		l-0.44-0.66l0.22,0.22c0.44-0.22,0.44,0,0.66,0c0.22,0,0.44,0,0.66-0.22h0.22v-0.22c0.22-0.22,0.44-0.22,0.88-0.44
		c0.22,0,0.88-0.44,0.88-0.44l0.22-0.22c0.22-0.22,0-0.44,0-0.44h-0.22l-0.66,0.22l-0.22-0.22c-0.22,0.22-0.44,0.22-0.44,0.22h-0.22
		h-0.22h-0.22l-0.44,0.22c-0.22,0-0.22,0-0.22,0.22c-0.22,0-0.22,0.44-0.22,0.44c-0.44-0.22-0.44-0.22-0.44,0c0,0-0.22,0-0.44,0.44
		l-0.44,0.44c0,0,0.22,0.44-0.44,0.22l0.44,0.44c-0.66,0.22-0.88,1.1-1.1,1.76c-0.22,0-0.22,0.22-0.22,0.22l-0.22,0.44
		c-0.22,0.66,0.22,0.44-0.22,0.44c-0.22,1.1-0.66,1.1-0.44,1.76c-0.44,0.44-0.66,0.88-0.22,1.1c-0.22,0.22-0.22,0.66-0.44,0.88
		L339.61,526.69z M342.47,528.23l0.44-0.44c0,0,0-0.22,0.44-0.66c0.22-0.44,1.54-0.66,1.54-0.66l0.22-0.22v-0.44l0.88-5.28
		c-0.44,0.88-1.1,1.98-2.64,2.86c-0.44,0.88-1.54,1.32-1.76,1.76v0.22l0.44,0.44v0.88c0,0-0.66,1.54-0.44,2.64
		C341.81,529.11,342.47,528.67,342.47,528.23z M344.45,529.11c0-0.66-0.22-1.32-0.22-1.32l0.22-0.22l-0.22-0.66
		c0,0.44-0.44,0.44-0.66,0.66c-0.22,0.22-0.44,0.22-0.22,0.66l-0.22,0.22c-0.66,0.66-1.1,1.1-1.1,1.32l0.22-0.22
		C343.13,529.77,343.79,529.55,344.45,529.11z M344.89,528.89c0.66-0.44,1.1-0.88,1.76-1.54c0.22,0,0-0.22,0.22-0.44
		c0-0.66,0-0.88,0.22-0.88c0-0.66-0.22-0.88,0.22-1.1c0-0.22,0-0.66-0.22-0.88l0.22-0.22v-0.22c-0.22-0.44,0-0.88,0-1.1l0.22-0.22
		c0-0.22,0-0.88,0.22-1.1l-0.44-5.06l-0.22,0.22v0.22c0,3.74-1.32,9.46-1.32,9.46l-0.66,0.66l-0.44,0.22v0.66
		C344.89,527.79,344.89,528.45,344.89,528.89z M347.53,526.25c0-0.22,0.22-0.88,0.44-1.1c0.22-0.66,0.22-1.1,0.66-1.98l-0.22-0.22
		c0,0,0.22-0.22,0.44-0.22v-0.44c0-0.22-0.22-0.44,0-0.44c0-1.1,0.44-1.98,0.22-3.08c-0.44-0.22-0.44-0.22-0.22-0.66l-0.22-0.22
		l0.22-0.22l-0.44-0.44c0.22,0,0.22,0,0-0.22c0.22,0,0-0.22,0-0.44l-0.22-0.22c-0.44-0.44-0.44-0.66-0.44-0.66v5.28
		c0.44,0.44,0.22,1.1,0.22,1.54l-0.22,0.22c0,0.22-0.22,0.44-0.22,0.66l0.22,0.22v0.44c0.22,0.44,0,0.44,0,0.66h-0.22v1.1
		c-0.22,0.22,0,0.44-0.22,0.44C347.53,526.47,347.53,526.25,347.53,526.25z"/>
</g>
<g>
	<path class="st0" d="M440.59,625.03h-23.32v-154h23.32V625.03z"/>
</g>
<g>
	<path class="st0" d="M459.07,489.73c24.86,11.66,36.52,14.96,39.16,8.36c13.86,28.6,8.8,40.04-21.12,58.08
		c6.82-8.8-1.98-12.76-31.24-14.74C495.81,530.65,498.45,523.83,459.07,489.73z M470.29,563.21c40.92-15.18,35.64-7.04,1.54,31.9
		c35.64-36.3,34.76-34.1,4.4,3.74c27.28-33.88,32.78-37.4,20.46-3.74c2.2-8.14,1.54-9.9-1.98-5.94c-1.32,2.42-4.18,8.14-8.8,16.5
		c9.02-14.08,7.04-8.36,2.2,1.76c0.66,0.88-1.54,6.38-3.08,10.56l-2.64,7.04h-24.86l11.44-28.16c2.2-5.5,4.62-11.66-3.96-8.58
		c13.86-16.06,16.72-22.88-9.46-13.86C461.49,570.03,466.55,566.29,470.29,563.21c2.86-2.64,5.28-4.84,6.82-7.04
		c-6.82,4.18-14.52,8.36-23.76,13.42C459.73,567.17,465.23,564.97,470.29,563.21z M498.23,498.09c0.88-2.2,0.66-5.72-0.44-10.56
		c-1.54-6.16-4.62-14.52-9.02-25.08c22,31.24,23.98,26.18,17.82-7.26c9.46,25.08,10.78,21.78,8.58-1.76
		c3.96,18.04,4.62,17.6,2.64,1.98c1.1,8.14,2.64,11.88,4.18,11c1.54,39.82-1.32,46.86-24.2,21.12
		c-4.62-5.28-10.34-11.88-16.72-20.02C488.33,479.61,494.05,489.73,498.23,498.09z M494.05,604.79
		c20.68-34.76,29.26-40.92,40.7-15.62c-5.5-0.44-10.12,8.36-15.4,27.28c-2.86-35.86-8.8-35.86-26.62-7.26L494.05,604.79
		c1.32-3.96,2.2-7.04,2.64-9.68c-1.32,3.96-2.86,8.36-4.84,13.42C492.73,607.21,493.39,605.89,494.05,604.79z M511.65,452.11
		c-5.94,0.22-12.1,0.22-12.1,0.22v-24.64h24.2v23.76C523.75,452.33,517.81,452.33,511.65,452.11z M517.81,455.41
		c0-0.88-0.22-1.54-0.22-2.42C517.59,453.87,517.81,454.53,517.81,455.41z M522.65,465.53c1.32-1.76,2.64-6.16,3.96-12.98
		c0.66,2.42,1.1,4.4,1.76,6.16C527.93,500.51,527.05,504.25,522.65,465.53l-1.32-12.54l0.66,13.42
		C522.21,466.19,522.43,465.97,522.65,465.53z M528.37,452.77v5.94V452.77z M533.21,466.41c-3.3,31.68-4.18,30.58-4.84-7.26
		C529.91,463.33,531.45,465.75,533.21,466.41z M533.65,466.63c0.88,0,1.54-0.22,2.42-0.88
		C532.99,489.07,532.11,490.39,533.65,466.63c0.22-3.96,0.44-8.36,0.88-13.64l-1.32,13.42
		C533.43,466.41,533.43,466.41,533.65,466.63z M544.43,615.13c-0.66-7.7-1.1-14.08-1.32-19.58c-0.88-33.88,8.36-29.7,39.6,0.22
		c-26.18-34.54-23.1-34.76,7.48-9.46c-30.36-25.08-31.24-27.28,4.4-5.5c0.22,0.22,0.66,0.66,0.88,1.1
		c-1.76,3.3,0.66,9.46,2.86,14.96l11.44,28.16h-25.96l-2.64-7.04c-1.54-4.18-3.74-9.68-5.5-14.74c-2.42-5.94-4.62-11.66,3.08-3.96
		c-5.28-7.7-8.14-12.32-8.14-13.2c-3.96-2.86-2.64,1.98,4.4,16.06c-19.58-21.56-25.52-21.56-21.12,10.56
		c-4.18-7.48-7.48-13.2-10.78-17.16c-3.08-4.18-5.94-6.38-8.36-6.38C537.61,595.55,540.91,604.35,544.43,615.13z M536.73,465.31
		c1.98-1.76,4.4-5.72,6.82-11.44c0,1.54,0.22,2.86,0.22,4.18C535.85,490.61,534.53,491.93,536.73,465.31
		c0.22-3.52,0.66-7.48,1.1-12.1c-0.66,4.84-1.1,9.02-1.76,12.54C536.29,465.75,536.51,465.53,536.73,465.31z M551.69,456.73
		c-3.74,11.88-3.96,14.52,0.22,6.6c-14.3,36.96-15.18,34.32-8.14-4.4C544.87,470.59,547.73,469.49,551.69,456.73z M552.79,461.79
		l2.2-4.62c-5.28,19.8-3.96,23.1,9.46,3.96c-0.88,2.2-1.54,3.96-2.2,5.94C539.59,505.13,538.71,502.93,552.79,461.79
		c0.44-1.54,1.1-3.08,1.54-4.62c-0.88,2.2-1.54,4.18-2.42,6.16L552.79,461.79z M543.55,427.69h23.98v24.64h-11.88
		c-6.16,0-12.1,0-12.1-0.22V427.69z M544.65,454.53c-0.22,1.32-0.66,2.42-0.88,3.52v0.88C544.21,457.39,544.43,456.07,544.65,454.53
		z M581.61,472.79c-12.76,19.58-16.72,29.48-8.8,31.9c-26.4,9.68-26.84,1.32-12.1-32.12C555.65,489.51,560.49,490.39,581.61,472.79z
		 M551.91,456.07c0,0.22-0.22,0.44-0.22,0.66C551.69,456.51,551.91,456.29,551.91,456.07z M565.33,462.01
		c-1.1,1.76-1.98,3.52-3.08,5.06c-0.66,1.98-1.1,3.74-1.54,5.5C562.03,469.27,563.57,465.75,565.33,462.01z M583.37,504.69
		c5.06-0.66,11.44-1.98,19.14-3.96c-33.88,23.1-31.02,29.92,7.04,38.94c-14.08,1.98-21.34,4.62-23.54,7.92
		C554.99,535.27,554.55,527.13,583.37,504.69c4.4-3.3,9.46-7.04,15.18-11c-10.34,4.84-18.92,8.36-25.74,11
		C575.23,505.35,578.75,505.35,583.37,504.69z M603.17,567.39c-16.72-1.98-14.96,4.18-8.8,12.98c-32.12-24.2-38.28-31.68-8.36-28.16
		C587.99,556.17,593.93,561.01,603.17,567.39z M607.13,555.29c-8.14-2.86-15.18-5.28-21.12-7.7c-0.66,1.32-0.66,2.86,0,4.62
		C591.73,552.87,598.77,553.97,607.13,555.29z M594.59,580.81h0.44c0,0.22,0.22,0.22,0.44,0.44c-0.22,0-0.44-0.22-0.44-0.44
		c-0.22,0-0.44-0.22-0.66-0.44C594.59,580.59,594.59,580.59,594.59,580.81z"/>
</g>
<g>
	<path class="st0" d="M690.29,565.41v-94.38h23.32v91.08c0,31.9,12.54,46.86,36.3,46.86c23.76,0,36.52-14.74,36.52-46.86v-91.08
		h23.32v94.38c0,41.8-22.66,63.14-59.84,63.14C712.51,628.55,690.29,607.21,690.29,565.41z"/>
</g>
<g>
	<path class="st0" d="M827.57,520.09c0.44-3.08,0-5.94,0-9.24c0.44-7.92,1.1-15.84,3.74-23.32c2.2-6.16,4.84-12.32,9.46-16.94
		c3.3-3.52,7.04-5.28,11.66-5.28c0.88,0,1.98-0.66,2.42-1.1c5.72-3.74,12.1-6.38,18.92-7.48c7.92-1.54,15.84-0.44,23.54,2.64
		c3.3,1.32,6.38,3.3,9.46,5.06c0.88,0.66,1.76,0.88,2.64,0.88c3.96,0,7.48,1.54,10.34,3.96c3.96,3.08,6.82,7.26,9.46,11.66
		c4.4,6.6,7.48,13.86,9.68,21.56c1.32,3.96,2.64,7.92,3.08,12.1c0.88,3.96,0.22,7.92-1.76,11.44c-1.1,1.54-0.88,3.08-0.88,5.06
		c0.44,3.08,1.1,6.6,1.32,9.9c0.44,2.2,0.88,4.62,1.1,6.82l0.44,6.16c0,2.86,0.22,5.72,0.66,8.8c0,2.2,0.22,4.84,0.44,7.26
		c0,0.66,0.22,1.32,0.88,1.54c3.96,3.3,5.5,7.48,6.16,12.32c0.88,4.84,1.98,9.9,3.96,14.74c1.1,2.86,2.42,5.72,4.4,8.36
		c1.54,2.64,2.86,5.28,2.64,8.58c-0.44,0.88,0.22,1.54,1.32,2.2c3.96,2.42,8.36,3.3,13.2,2.64c3.08-0.22,5.5-2.2,7.48-4.62
		c0.44-0.22,0-1.1-0.22-1.54c-1.1-3.08-1.32-5.94-0.44-8.8c0.66-2.86,0.66-5.5,1.1-8.36c0.22-3.74,0-7.48,0-11.22v-10.78
		c-0.44-4.18,1.32-7.92,3.52-11c1.1-1.76,1.1-3.08,0.88-4.84c0-0.22-0.22-0.88-0.22-1.32c-0.22-4.4-0.22-9.02-0.66-13.64
		c0-3.74-0.22-7.7-0.44-11.44c0-2.86-0.22-5.72-0.22-8.36c0-3.08-1.32-4.84-2.86-7.04c-2.2-2.2-3.3-4.84-3.52-8.14l-0.88-11.88
		c-0.66-7.04-0.88-14.3-0.88-21.34c0-2.2-0.66-3.96-0.66-6.16c0.22-4.62,1.98-8.8,5.28-12.1c5.5-5.28,11.88-6.6,19.14-3.96
		c5.94,2.42,9.46,6.82,10.78,13.2c0.22,1.54,0.22,3.3,0.44,4.84c0,3.3,0.22,6.82,0.66,10.56c0,3.3,0,6.82,0.44,10.56
		c0.44,5.06,0,9.9,0.22,15.18c0.22,3.74-1.32,7.04-3.74,9.9c-0.88,1.1-0.88,1.98-0.88,3.08c0.22,1.1,0.44,2.2,0.44,3.3
		c0.22,4.84,0.22,9.68,0.44,14.52c0,2.86,0.44,5.94,0.66,8.8c0,3.08,0.22,6.16,0.22,9.24c0.22,1.32,0.22,2.64,0.44,3.96
		c0.44,0.88,0.88,1.32,1.1,1.98c2.86,2.64,4.62,5.72,4.84,9.68l0.66,11.66c0.44,3.74,0.66,7.48,0.66,10.78
		c-0.22,8.14-1.32,16.06-4.62,23.54c-1.76,5.28-5.5,9.02-10.78,11c-1.32,0.66-2.42,1.76-3.3,2.64c-1.76,1.76-3.3,3.74-5.28,5.06
		c-5.06,3.96-10.56,6.6-16.94,7.26c-4.84,0.44-9.46,0.44-14.08-0.66c-5.28-1.1-9.9-3.08-14.74-5.5c-0.88-0.44-2.2-0.88-3.08-0.88
		c-4.4-0.22-7.92-1.54-11.22-3.96c-3.96-3.08-6.6-7.26-9.46-11.44c-2.86-4.62-4.84-9.24-6.38-14.3c-1.32-3.52-2.42-7.26-2.86-10.78
		c-0.88-4.62-1.54-8.8-1.76-13.2c0-3.3,1.32-6.38,2.86-9.02c0.66-1.32,1.32-2.42,1.1-3.74c-0.44-5.28-0.66-10.78-1.1-16.06
		c-0.22-4.84-0.88-9.46-1.32-14.52c-0.22-2.2-0.88-4.62-1.1-6.82c0-1.76-1.1-3.08-2.42-3.74c-2.86-1.98-4.62-5.06-5.5-8.58
		c-1.54-5.5-3.52-11-5.72-16.5c-1.76-3.96-3.74-7.48-6.16-10.78c-1.76-2.42-2.2-5.28-2.2-7.92c0-1.32-0.22-1.76-1.32-2.42
		c-3.52-2.2-7.48-3.74-12.1-3.52c-3.96,0.22-7.7,1.54-11,3.52c-0.88,0.44-1.32,1.1-1.1,1.98c0.44,3.74-0.88,7.26-2.2,10.56
		c-1.32,3.3-1.54,6.6-1.98,10.12c-0.66,3.08-0.88,6.16-1.1,9.24v3.74c0.22,4.62-1.32,9.02-4.84,12.32
		c-0.66,0.88-0.88,1.54-0.66,2.64v13.86c0,2.86-0.22,5.72,0,8.58c0,5.94,0.22,11.44,0.44,17.16c0,0.88,0.22,1.54,0.88,2.2
		c3.3,3.08,4.62,7.26,4.62,11.88c0.44,4.18,0.88,8.36,0.88,12.32c0.22,2.2,0,4.18,0.22,6.38c0,6.16,0.22,12.1,0.22,18.48
		c0.44,5.28-1.98,9.46-5.72,12.76c-3.52,2.86-7.7,4.62-12.1,4.4c-3.96-0.22-7.48-1.54-10.34-4.18c-3.74-2.86-5.72-6.6-6.38-11.22
		l-0.66-11.44c-0.44-3.74,0-7.7-0.66-11.66c-0.66-5.94-0.44-11.66-0.22-17.38c0-3.52,1.1-7.04,3.74-9.24
		c1.1-1.32,1.32-2.42,1.32-3.96c-0.22-13.2-0.22-26.4-0.66-39.6c0-0.88-0.22-1.76-0.66-2.2
		C829.33,528.01,827.57,524.49,827.57,520.09z M829.99,516.79c0.22,2.64,0,5.28,0.88,7.7c1.32,4.4,4.4,7.26,8.58,8.8
		c0.88,0.44,1.32,0.44,1.98,0c0.22,0,0.44-0.66,0.22-0.88c-0.22-0.66-0.88-0.66-1.32-0.66c-6.16-2.64-9.02-7.04-8.8-13.64
		c0-4.18-0.44-8.58,0.44-12.98c0.44-2.64,0.66-5.28,0.88-7.92c1.32-7.7,3.96-14.74,8.58-21.12c3.96-5.72,9.9-7.48,16.06-4.4
		c0.88,0.22,1.54,1.32,2.42,0c0.44-1.1-0.66-1.32-1.32-1.98c0,0-0.22,0-0.22-0.22c-3.3-1.54-6.38-2.2-9.9-1.1
		c-2.42,0.88-5.06,1.98-6.6,3.96c-1.76,2.42-3.08,5.06-4.62,7.48c-3.96,7.26-5.72,15.18-6.6,23.54c-0.66,3.96-0.66,7.92-0.66,11.44
		V516.79z M830.65,588.29c0,5.28,0.22,10.56,0.44,15.84h-0.22c0.22,3.52,0.44,6.82,0.44,10.12c0.22,3.08,0.22,6.16,0.66,9.24
		c0.22,1.76,0.22,3.52,0.66,5.5c1.32,5.72,5.28,9.02,10.78,10.56c0.88,0.22,1.98,0.22,2.64,0.22l-2.2-1.32
		c-4.62-1.76-7.92-4.4-9.68-9.24c-0.44-1.54-0.44-3.08-0.66-4.84c-0.22-4.18-0.88-8.36-0.88-12.76c-0.22-5.28-0.44-10.56-0.44-15.84
		c-0.22-1.98,0-3.96,0-6.16c-0.22-6.16,2.42-10.56,8.14-13.2c0.44-0.22,1.1-0.44,1.54-1.1c0.66-0.22,0.66-1.1,0-1.32h-1.32
		C833.95,577.29,830.65,581.25,830.65,588.29z M834.83,536.59c0.22,11.88,0.22,23.54,0.44,35.42c0,0.44,0.22,1.54,0.66,1.32
		c0.66,0,0.88-0.88,0.88-1.76v-1.32v-16.28v-16.94c0-0.44,0-1.1-0.22-1.54c-0.22-0.44-0.66-0.44-1.32-1.1
		c-0.22,0.66-0.44,0.88-0.44,1.32V536.59z M837.25,520.97c0.44-0.22,0.88-0.22,1.54-0.88c1.76-0.88,3.3-1.98,5.72-2.2
		c2.86,0,5.5,0.88,7.7,3.08c0.22,0.22,0.88,0.22,1.1,0.44l0.22-0.88c0-2.64,0.22-5.72,0.22-8.36c0-4.4,0.66-8.8,1.54-13.42
		c0.88-3.08,1.98-6.38,3.3-9.46c1.1-2.42,1.32-2.42-1.32-2.42h-0.88c-4.4,0.22-9.02-2.86-9.68-7.7c0-0.22,0-0.22-0.22-0.44
		c-0.44,0-0.66,0.22-0.66,0.44c-3.3,4.84-5.5,10.12-6.82,15.62c-1.32,6.38-2.2,12.98-1.76,19.58v5.28V520.97z M837.69,588.07
		c0,4.18-0.22,8.36,0.22,12.54c0.66,4.62,0.66,9.02,0.66,13.2c0.22,3.52,0.22,6.6,0.44,9.9c0.22,1.76,0.22,3.74,1.54,5.28
		c2.86,3.08,7.26,3.96,10.56,1.98c2.42-1.32,4.62-3.08,4.18-6.16c-0.22-1.76,0-3.3,0-4.84h0.44l-0.88-8.14
		c-0.22-4.62-0.22-9.02-0.44-13.42c0-3.74-0.44-7.48-0.66-11.22c0,0,0.22-0.22,0-0.22c-0.22-0.22-0.44-0.44-0.66-0.44l-0.88,0.66
		c-3.96,3.52-9.24,3.52-13.2,0l-1.1-0.66C837.69,586.97,837.69,587.41,837.69,588.07z M842.53,539.23c0,9.9,0.22,20.02,0.44,30.14
		v0.44c0,0.88,0.22,1.1,1.1,0.88c0.66-0.44,1.76-0.66,2.64-0.44c1.1,0.44,1.1-0.22,1.1-0.88v-15.4v-13.2c0-3.96,0.66-3.52-3.52-3.52
		C842.53,537.25,842.53,537.25,842.53,539.23z M847.81,522.07c0,0.22,0.22,0.44,0.44,0.66c1.32,1.76,2.64,3.3,3.96,4.84h0.44
		c0-0.22,0.44-0.44,0.44-0.44c-0.88-2.42-2.42-4.4-4.62-5.72c0,0-0.22,0-0.44-0.22C847.81,521.41,847.81,521.85,847.81,522.07z
		 M848.25,585.87c0.22,0,0.88,0.22,1.1,0c2.42-1.1,3.08-3.3,4.18-5.5c0,0-0.22,0-0.22-0.22v-0.22c-0.22,0-0.66,0-0.66,0.22
		c-1.32,1.54-2.2,3.74-4.18,4.62C848.25,584.77,848.25,585.65,848.25,585.87z M848.69,579.49c0,0.44,0,0.88,0.44,1.1
		c0.22-0.22,0.66-0.22,0.66-0.44c0.66-1.98,1.54-3.52,1.54-5.06c0.44-3.96,0-7.92,0-11.88h0.44c-0.44-5.28-0.66-10.34-0.66-15.4
		c-0.22-3.96-0.22-7.92,0-11.88c0.22-1.98,0-3.96-0.22-5.72c0-0.44-0.44-1.32-1.1-1.76c0,0.44-0.22,0.88-0.22,1.76v0.44
		c0.22,11.44-0.44,22.88,0.22,33.88c0.22,2.86,0,5.72,0.22,8.8C850.01,575.31,849.79,577.51,848.69,579.49z M853.53,634.27
		c0.22,0,0.88,0,0.88-0.22c2.2-1.32,3.52-3.3,4.18-5.72c0.44-2.2,0.44-4.4,0.66-6.16l-0.66-10.34c0-5.5-0.22-10.78-0.22-16.06
		c-0.44-2.64-0.44-5.06-0.66-7.7c-0.22-1.54-0.66-3.3-1.32-4.62c0-0.44-0.44-0.44-0.44-0.66c-0.22,0.22-0.66,0.44-0.66,1.1
		c-0.22,0.22-0.22,0.44,0,0.66c1.76,2.86,0.66,6.38,1.1,9.46c0.88,2.64,0.66,5.72,0.88,8.36c0,3.96,0.22,7.92,0.22,11.88
		c0.22,3.96,0.22,7.92,0,11.88c0,0.66-0.22,1.76-0.44,2.86c-0.66,1.76-1.76,3.08-3.3,4.4C853.75,633.61,853.75,634.05,853.53,634.27
		z M854.85,524.05c0,0.44,0.22,0.66,0.44,0.88l0.66-0.44c1.1-1.76,1.32-3.52,1.32-5.06c0-4.84,0.44-9.24,0.66-14.08
		c0.88-5.28,1.98-10.56,4.4-15.18c0.44-0.66,0.44-1.32,0.66-1.98l-0.22-1.54c-0.22,0.44-0.88,0.88-1.1,1.1
		c-1.1,2.64-2.42,5.28-3.08,8.14c-1.1,3.52-1.98,7.04-1.98,10.56c-0.22,3.74-0.66,7.48-0.88,10.78c-0.44,1.98-0.66,3.96-0.88,5.94
		V524.05z M855.29,484.01c0,0.22,0.66,0.44,0.88,0.44c0.44,0.44,0.88,0,1.32,0v0.44c1.54-0.44,3.08-0.66,4.4-1.1
		c0.44,0,0.66-0.22,0.66-0.22s0-0.44-0.22-0.44c-2.2,0-4.4,0-6.38,0.44C855.73,483.57,855.29,484.01,855.29,484.01z M857.05,465.53
		c0.44,0,1.32,0.22,1.98,0.22c0.22,0,0.88-0.22,1.1-0.44c0.44-0.22,1.1-0.88,1.76-1.1c3.96-1.76,8.36-3.08,12.54-3.96
		c4.18-0.44,8.14-0.44,12.1-0.22c5.5,0.66,10.78,2.64,15.62,5.72c0.66,0.66,1.32,0.22,1.76,0c0.66-0.22,0.88-0.44,0.22-0.66
		l-0.88-0.88c-7.04-3.74-14.08-6.16-23.54-6.38c-1.98,0.66-5.28,0.88-8.8,1.54c-4.4,0.88-8.58,2.64-12.98,5.06
		C857.49,464.65,857.27,465.09,857.05,465.53z M858.81,480.49c0.22,0,0.44,0.44,0.44,0.44c2.2,0.22,3.96-0.44,5.72-1.32
		c5.72-3.74,11.88-5.72,18.48-5.06c4.4,0.44,8.36,1.76,12.1,4.4l3.96,2.2c0.22,0.22,0.66,0,1.32,0c-0.22-0.66-0.22-1.1-0.66-1.1
		c-1.32-1.1-2.64-1.76-3.96-2.64c-4.4-2.86-9.68-4.4-15.4-4.84c-0.88,0-1.98,0.66-3.08,0.66c-3.08,0-5.94,0.66-8.58,1.98
		c-3.52,1.76-6.6,3.52-9.9,5.06C859.03,480.27,859.03,480.49,858.81,480.49z M863.87,470.37c0,0.44,0.66,1.32,1.1,1.98
		c0.22,0.22,0.66,0.88,0.66,1.1c0,1.32,0.66,1.1,1.32,0.88c3.3-1.98,6.82-3.08,10.56-3.3c5.06-0.66,9.9,0,14.52,1.98
		c1.32,0.44,2.42,1.54,3.52,1.32c0.66-0.44,1.32-1.98,1.76-3.08c0.88-0.88,0.66-1.54-0.44-1.76c-5.06-2.64-10.34-3.74-16.06-3.96
		c-0.88,0-2.2,0.22-3.52,0.44c-3.96,0.44-7.7,1.32-11.44,3.08C865.19,469.27,864.31,469.71,863.87,470.37z M899.73,484.01l3.96,0.88
		v-0.44c0.88,0,1.32,0.44,2.2,0c0.22,0,0.44-0.44,0.66-0.66c-0.22-0.22-0.44-0.66-0.66-0.66c-2.2,0.66-3.96,0.66-6.16,0
		c0,0-0.22,0.44-0.44,0.44C899.51,483.79,899.51,484.01,899.73,484.01z M899.29,487.97c0.44,1.54,1.54,3.08,2.2,4.84
		c2.42,3.96,4.62,7.92,6.38,12.1c1.98,3.74,2.86,7.92,4.18,11.88c1.1,1.98,1.32,4.62,3.08,6.82c0.22,0,0.44,0.22,0.66,0.44
		c0-0.22,0.22-0.44,0.66-0.66l-0.88-1.54l-0.88-2.2c-1.76-6.38-3.96-12.98-6.82-18.7c-2.42-4.84-5.06-9.02-7.26-13.42
		c-0.44-0.44-0.88-0.44-1.1-0.66L899.29,487.97z M901.93,471.91c0.22,0.22,1.32,0.22,1.54,0c1.98-1.1,4.18-2.2,6.6-1.98
		c4.18,0,7.7,2.2,10.56,5.28c1.1,1.1,1.76,2.42,2.86,3.74c3.74,5.28,6.82,10.78,9.24,16.94c2.2,5.5,3.74,11,5.06,16.94
		c1.32,5.28,0.22,9.68-3.96,13.42c-0.88,1.1-2.2,1.54-3.3,2.64c0,0-0.22,0.44-0.22,0.88c0.22,0.22,0.66,0.44,1.1,0.44
		c0.22,0,0.88-0.22,1.1-0.44c1.54-1.32,3.08-2.42,4.4-3.96c2.42-2.64,3.52-5.94,2.86-9.68c-0.22-1.76-0.66-3.52-1.32-5.5
		c-0.88-5.06-2.2-9.9-4.18-14.74c-1.76-3.74-3.3-7.7-5.5-11c-2.2-3.74-4.4-7.26-7.04-10.56c-2.2-2.64-4.62-4.84-7.92-5.94
		c-3.96-1.1-7.7-0.44-11.44,1.98C901.49,470.81,901.49,471.25,901.93,471.91z M903.47,488.41c2.86,4.4,5.5,8.8,7.26,13.64
		c1.32,3.3,2.64,6.82,3.74,10.12c1.1,2.42,1.54,4.84,2.42,7.26c0.22,0.22,0.22,0.44,0.22,0.66c0.22-0.22,0.66-0.22,0.88-0.44
		l2.42-2.42c1.54-1.32,3.3-2.42,5.5-1.98c1.98,0,3.96,0.22,5.72,1.32c0.22,0.22,0.66,0,1.1,0.22c0-0.66,0-0.88-0.22-1.32
		c-0.88-3.52-1.54-6.82-2.64-10.34c-1.98-6.82-4.84-13.2-8.58-19.36c-1.76-2.64-3.52-4.84-5.72-7.48c0-0.44-0.44-0.44-0.88-0.66
		c0,0.22,0,0.66-0.22,0.88c-0.22,1.98-1.1,3.96-2.42,5.5c-1.98,2.42-4.84,3.52-8.14,3.52C903.25,487.53,902.81,487.53,903.47,488.41
		z M918.43,526.03l0.22,0.22c0.44,0,0.44,0,0.44-0.22c1.32-1.98,2.64-3.74,3.52-5.94c0.44,0,0-0.44-0.22-0.66h-0.44
		C920.63,520.09,918.21,524.71,918.43,526.03z M920.85,585.21l0.88,5.94c0.44,4.84,1.54,9.24,3.08,13.86
		c2.2,6.6,5.06,12.54,9.02,18.04c1.54,2.42,3.3,5.06,6.38,6.16c0.44,0.22,0.88,0.22,1.54,0.44c-0.22-0.44-0.88-0.88-1.1-1.76
		c0,0-0.22,0-0.22-0.22c-2.64-1.32-4.18-3.52-5.5-5.5c-4.62-6.16-7.7-12.98-9.68-20.46c-1.54-6.38-3.3-12.32-2.64-19.14v-0.88
		l-0.44-0.44c-0.22,0.22-0.88,0.22-0.88,0.44C921.07,582.79,921.07,584.11,920.85,585.21z M921.07,528.89
		c0,4.18,1.1,8.36,1.54,12.76c0.66,4.84,1.1,9.9,1.32,14.96c0.66,5.06,0.66,10.12,1.1,14.74c0.22,1.98,0.88,3.52,1.32,5.06
		c0,0.22,0.66,0.22,0.88,0.22s0.22-0.44,0.22-0.66c-0.44-3.08-0.88-5.94-0.88-8.8c-0.44-4.84-0.88-9.46-1.54-14.3l-0.66-12.32
		c-0.44-1.54-0.66-2.86-0.66-4.62c-0.44-1.98-0.66-4.18-0.66-6.16c-0.44-1.32,0.22-3.08,0.22-4.4c0-0.22,0-0.44-0.22-0.66
		c-0.44,0.22-0.66,0.22-0.66,0.44C921.95,526.25,921.07,527.35,921.07,528.89z M924.37,578.61c0.66,1.98,2.64,3.52,4.4,4.84
		c0.22,0,0.88-0.22,1.32-0.44c-0.22-0.44-0.22-0.88-0.22-0.88c-1.98-1.32-3.52-2.86-5.28-4.18h-0.22
		C924.37,578.17,923.93,578.17,924.37,578.61z M924.59,585.21c0.22,0.66,0.22,1.76,0.44,2.64c0.66,3.3,0.88,6.82,1.54,10.12
		c1.76,7.04,3.96,13.64,7.92,19.58c1.76,2.42,3.3,4.62,4.84,6.6l1.32,0.88c0-0.66,0.22-0.88,0.22-1.32c0-2.86,1.32-4.84,3.52-6.38
		c1.98-1.54,4.4-2.2,6.82-2.42c1.1-0.22,0.88-0.44,0.22-1.1c0-0.22,0-0.44-0.22-0.66c-5.06-7.48-7.7-15.62-9.46-24.42
		c-0.22-1.98-0.88-3.96-1.32-5.72c-0.22-1.32-0.22-0.44-0.88-0.22c-3.96,3.96-8.58,5.5-13.64,1.98l-0.88-0.44
		C924.81,584.55,924.59,584.77,924.59,585.21z M925.69,537.25c0,0.88,0.22,1.32,0.22,1.98l1.54,13.86c0.22,3.96,0.44,8.36,1.1,12.32
		c0,0.66-0.22,1.76,0,1.98c0.44,0.22,1.54,0,2.42,0h1.98c0.22-0.22,0.66-0.44,0.66-0.66c0-1.98,0-3.96-0.44-5.94l-1.32-13.42
		c-0.44-3.74-0.66-7.04-0.88-10.78c0-0.88-0.44-1.98-0.88-2.42c-0.22-0.22-1.32,0.22-2.2,0.22
		C925.25,534.61,925.25,535.05,925.69,537.25z M934.27,571.13l0.88,1.1c0.44,0,1.1,0.22,1.54,0.44c3.52,1.1,6.38,2.86,7.92,6.16
		c1.32,2.42,1.54,5.06,2.42,7.7c1.1,4.62,1.98,9.24,3.74,13.42c1.32,3.74,3.3,7.26,5.5,10.56c1.54,2.64,1.76,5.28,1.32,8.14
		c-0.22,1.76-0.88,3.74-1.1,5.5l0.88,0.66c0.44-0.44,0.88-0.66,0.88-1.1c0.66-2.42,0.88-4.84,1.1-7.48
		c-0.44-1.98-0.44-4.62-1.98-7.04c-4.62-6.16-7.04-13.2-8.58-20.9c-0.22-2.42-0.66-5.06-1.54-7.48c-1.1-3.96-3.52-6.82-7.04-8.58
		c-1.32-0.88-3.3-1.1-4.84-1.54C935.15,570.69,934.93,570.91,934.27,571.13z M936.25,532.63l0.22,2.64c0.22,1.54,0.22,3.3,0.44,5.06
		c0.22,1.98,0.88,4.4,0.88,6.6c0.22,2.64,0.44,5.5,0.44,8.14c0.66,3.96,0.88,7.92,1.1,11.66c0,0.66,0.22,1.54,0.44,1.98l1.1,0.88
		c0.22-0.66,0.22-0.88,0.66-1.1c-0.44-1.32-0.66-2.64-0.66-3.74c-0.22-2.86-0.22-5.72-0.44-9.02c-0.22-1.76-0.22-3.96-0.66-5.94
		c-0.44-3.74-0.66-7.7-1.32-11.44c-0.22-2.64-0.66-5.28-0.88-7.92c0-0.22-0.44-0.22-0.44-0.44c-0.22,0-0.44,0.22-0.44,0.22
		C936.47,531.09,936.25,531.75,936.25,532.63z M943.51,624.15l1.54,5.06c0,0.22,0.66,0.44,0.66,0.44c0.22-0.22,0.44-0.44,0.22-0.66
		l-0.88-6.16c0-0.22-0.22-0.44-0.44-0.66c-0.22,0-0.44,0.22-0.44,0.44C943.73,623.05,943.51,623.71,943.51,624.15z M948.13,627.01
		c0.44,2.2,1.54,3.96,3.3,5.28c6.6,4.4,13.86,6.38,23.1,7.04c1.98-0.66,5.5-1.1,8.8-2.2c6.16-1.76,11.22-5.5,14.96-10.56
		c0.66-1.32,1.76-2.42,1.54-4.18c0-0.22-0.22-0.22-0.22-0.66c-0.44,0-0.44,0.44-0.66,0.66c-1.98,3.08-4.4,6.6-7.92,9.02
		c-2.86,1.98-5.94,3.52-9.46,4.62c-2.64,0.88-5.06,1.1-7.7,1.1c-1.98,0.22-4.18,0.22-6.38-0.22c-2.86-0.66-5.72-1.54-8.58-2.64
		c-3.96-1.54-7.7-3.52-10.12-7.48c0-0.22-0.22-0.22-0.22-0.44C948.35,626.57,948.13,626.79,948.13,627.01z M958.25,630.53
		c-0.44,1.1,0,1.54,0.88,1.76c4.4,1.98,9.02,3.3,14.08,3.3l5.28-0.88c4.62-0.44,8.8-2.86,12.54-5.72c0.22-0.22,0.66-1.1,0.22-1.32
		c-0.66-0.88-1.54-1.98-2.64-2.64c0-0.22-0.44,0-0.88,0c-0.66,0.22-1.1,0.66-1.32,1.1c-3.96,3.08-8.8,4.18-13.64,4.18
		c-3.08,0.22-6.16-0.88-9.24-1.98c-1.32-0.22-2.64-1.32-3.3-0.88C959.35,627.67,959.13,629.43,958.25,630.53z M961.33,619.97
		c0,0.22,0,0.88,0.22,1.1l1.1,0.66c3.3,1.32,6.82,2.64,10.56,2.64c1.32-0.22,2.86-0.22,4.18-0.44c2.86-0.88,5.28-2.2,7.7-4.4
		c0.44-0.66,0-1.1,0-1.76c-0.66,0.44-1.1,0.44-1.32,0.66c-1.1,0.44-1.98,1.54-2.64,1.98c-4.62,2.64-9.02,3.08-13.64,1.32
		c-1.76-0.44-3.3-1.32-5.28-1.98C961.99,619.75,961.55,619.75,961.33,619.97z M980.69,467.07c0,8.58,0.44,17.16,0.44,25.96v0.44
		c0.44,3.3,0.66,6.38,0.88,9.46c0.44,2.42,0.44,4.84,0.66,7.26c0.22,1.32,0.66,2.86,1.32,3.96c1.98,3.3,5.06,5.5,8.58,6.6
		c0.88,0.22,1.98,1.1,2.42,0c0.22-1.32-1.1-1.32-1.76-1.54c-2.42-0.88-4.84-2.2-6.38-4.4c-2.2-1.98-2.86-5.28-3.08-8.14
		c-0.66-4.18-0.88-8.58-1.1-12.98c-0.22-5.72-0.22-11.44-0.66-17.16c0-0.66,0.44-1.54,0-1.98c-1.76-7.7,1.98-14.52,8.36-17.38
		c0.66-0.44,1.32-0.66,1.76-1.1c0.22,0,0.22-0.22,0.44-0.66c-0.22,0-0.22,0-0.44-0.22c-0.22,0.22-0.22,0.22-0.44,0.22
		c-3.96,0.88-7.04,3.3-9.02,6.6C981.57,463.33,980.69,465.31,980.69,467.07z M985.09,605.89c-0.88,3.08-0.88,5.72,0.44,8.36
		c1.1,1.98,2.2,4.4,3.52,6.82c0.22,0.22,0.88,0.22,1.32,0.44c0-0.44,0.22-1.1,0-1.54c-0.88-1.54-2.2-2.86-2.64-4.4
		c-1.32-2.64-2.2-5.28-1.76-7.92c1.32-5.06,1.32-10.12,1.98-15.18c0-1.98-0.66-4.4-0.66-6.6v-11.22c0-1.1,0.44-1.98,0.66-2.64
		c0.66-2.64,1.98-5.28,4.62-7.04l3.96-2.2c0.44-0.44,0.88-0.66,0.66-0.88c0-0.44-0.66-0.44-1.1-1.1c-1.1,0.88-2.42,1.32-3.52,2.2
		c-4.4,2.86-7.04,7.04-6.82,12.54c0.22,3.52,0.66,7.04,0.66,10.34c0,4.62,0.44,8.8-0.66,12.98
		C985.53,601.27,985.53,603.91,985.09,605.89z M987.29,469.93c0,3.08,0.66,5.72,0.66,8.36h-0.22c0.22,4.84,0.44,9.9,0.44,14.96
		c0,0.22,0,0.44,0.22,0.88l0.88,10.12c0,1.1,0.22,2.2,0.44,3.3c0,1.32,0.22,1.32,1.1,0.44c2.2-1.98,4.84-2.86,7.7-2.86
		c1.98,0,3.96,1.1,5.5,2.2c1.1,0.66,1.54,0.44,1.54-0.88c-0.22-6.6-0.44-13.2-0.44-19.8v-0.22c-0.22-4.18-0.88-8.14-1.1-12.54
		c0-1.76-0.22-3.52-0.44-5.28c0-0.22-0.44-0.44-0.44-0.66c-1.98-5.28-8.36-6.82-12.54-3.52
		C988.61,465.97,987.29,467.95,987.29,469.93z M988.17,524.49c0.22,2.2,0.44,4.62,0.44,7.04c0.44,2.64,0.44,5.28,0.66,7.7
		c0.22,3.96,0.22,7.92,0.44,11.88c0,3.08,0.22,5.94,0.66,9.24v0.44c0.22,0,0.66-0.22,0.66-0.22l0.88-2.86
		c-0.22-1.32-0.66-2.64-0.66-3.74c-0.22-4.4-0.44-9.02-0.44-13.2c-0.22-4.18-0.22-8.14-0.44-12.32c0-1.76-0.44-3.3-0.66-4.84
		c0-0.22,0-0.88-0.22-1.1c0,0-0.44-0.22-0.88-0.22c0,0-0.22,0.22-0.22,0.44C988.17,523.39,988.17,523.83,988.17,524.49z
		 M991.25,609.63c-0.22,0.88,0,0.88,0.88,0.66c2.2-0.66,4.18-1.1,6.6-0.66c2.64,0.66,5.06,1.32,6.16,4.18l0.66,1.32
		c0,0,0.22,0.44,0.66,0.44c0,0,0.22-0.44,0.22-0.66c2.86-7.26,3.3-14.96,3.96-23.54c0-0.88-0.66-2.86-0.66-4.84
		c-0.22-3.52-0.22-7.04-0.44-10.56c0-0.66-0.44-1.32-0.44-2.2c-0.88,0.22-1.32,0.44-2.2,1.1c-3.52,2.64-7.92,2.64-11.66,0.22
		l-1.32-0.88c-0.22-0.22-0.44-0.22-0.66,0.44v1.32c0.22,3.52,0.44,7.26,0.44,11c0,3.74-0.44,7.04-0.22,10.78
		C993.23,601.71,992.35,605.67,991.25,609.63z M995.87,529.33c0.22,3.96,0.66,7.7,1.1,11.66c0.22,5.06,0.22,10.12,0.44,14.74
		c0,1.98,0,1.98,1.76,1.76h1.76c1.76,0,1.76,0,1.76-1.98c0-1.76-0.44-3.3-0.44-5.28c-0.44-2.86-0.44-5.72-0.66-9.02
		c0-4.62-0.22-9.46-0.44-14.08c0-3.08,0.22-2.64-2.42-2.64c-3.08,0-2.86-0.44-2.86,2.86V529.33z M1000.05,508.87
		c0,0,0,0.66,0.22,0.66l2.64,2.42c0.88,0.66,1.32,1.54,1.98,2.42c0.22,0,0.44,0,0.66,0.22c0,0,0-0.22,0.22-0.22
		c0-0.22-0.22-0.22-0.22-0.22c-0.66-2.42-2.42-4.62-4.4-5.5C1000.93,508.21,1000.27,508.65,1000.05,508.87z M1000.49,615.13
		l0.88,1.32c0.22,1.1,0.44,2.2,0.44,3.3c0.44,1.1,0,1.98,0.88,2.86c0.22-0.88,0.44-1.76,1.1-3.08c-0.66-1.32-1.32-3.3-1.98-4.84
		l-0.66-0.88C1000.93,614.47,1000.49,614.69,1000.49,615.13z M1000.93,460.03c0.44,0.44,0.44,1.1,0.88,1.32
		c2.64,2.64,4.4,5.5,3.96,9.24c0,1.98,0.44,4.18,0.66,6.38l0.66,11.44c0.44,2.42,0,4.84,0.44,7.04c0.44,4.62,0.44,9.24,0,13.86
		c-0.44,0.66,0,1.1,0.22,1.54c0,0.44,0.22,0.44,0.44,0.66v-0.66c1.32-2.2,1.1-4.62,1.1-7.04c0-2.86-0.22-5.72-0.44-9.02
		c-0.44-4.62-0.44-9.46-0.66-14.3v-0.66c-0.22-3.3-0.66-6.38-0.66-9.9c0-3.96-1.98-6.82-4.84-9.46
		C1002.25,460.25,1001.37,460.25,1000.93,460.03z M1002.47,515.91c0.22,2.2,0.44,4.18,0.44,6.16c0.22,3.96,0.22,7.7,0.66,11.22
		c0.22,4.84,0.22,9.68,0.44,14.3v0.66l0.88,11.88c0.22,2.2-0.44,4.62-1.1,7.04v0.44c0.22,0,0.44,0,0.66-0.22l0.66-0.66
		c1.32-2.2,1.54-4.4,1.54-6.6l-0.88-5.72c0-2.86-0.22-5.94-0.22-8.8c-0.22-3.3-0.44-6.16-0.44-9.24c-0.22-5.06-0.22-9.9-0.66-14.96
		c-0.22-1.76-0.22-3.96-1.32-5.5c0-0.22-0.22-0.44-0.22-0.44C1002.69,515.69,1002.47,515.69,1002.47,515.91z M1003.57,572.89
		c0,0.44,0,0.44,0.22,0.66l1.32-0.88c1.1-1.32,1.76-2.42,2.64-3.74c0.22-0.44,0.22-1.32,0.44-1.98c-0.44,0.44-1.1,1.1-1.32,1.54
		c-1.32,1.32-2.42,2.64-3.3,3.96C1003.13,572.45,1003.13,572.67,1003.57,572.89z M1006.43,619.75c0,0.22,0,0.44,0.22,0.66l0.88-0.22
		c0.88-1.54,1.98-3.08,2.64-4.62c3.08-7.48,3.52-15.4,3.96-23.32c-0.44-0.88-0.66-1.76-0.66-2.64c0-4.18-0.22-8.36-0.44-12.76
		c0-1.98,0-4.4-1.32-6.6l-0.88-0.44c-0.22,0.44-0.44,0.88-0.44,1.1l0.66,2.64c0.44,1.76,0.44,3.96,0.66,5.72
		c0.22,3.96,0.66,7.7,0.66,11.66c0,2.64-0.22,5.06-0.44,7.7c0,3.74-0.44,7.04-1.32,10.34c-0.88,3.3-1.32,7.04-3.96,9.68
		C1006.43,618.87,1006.43,619.09,1006.43,619.75z"/>
</g>
<g>
	<path class="st0" d="M1036.79,471.03h49.28c50.82,0,82.5,23.98,82.5,77c0,46.64-27.28,77-79.2,77h-52.58V471.03z M1087.17,605.23
		c35.2,0,57.2-16.94,57.2-57.2c0-36.52-18.26-57.42-57.86-57.42h-26.4v114.62H1087.17z"/>
</g>
<g>
	<path class="st0" d="M1220.27,587.63l1.54-3.96l0.44-3.3l1.32-2.64l0.66-2.2l1.54-1.98l1.1-1.54l1.32-1.98l1.32-1.1l1.76-1.32
		l1.98-1.54l1.76-1.32l0.44-0.66l1.76-1.76l3.08-1.76l1.76-1.1l2.86-1.54l3.08-1.54l1.98-0.22l2.2-0.44l1.54-0.88l2.2-1.1l3.08-0.44
		l2.86-2.86l0.66-1.76l1.76-3.3l1.54-3.52l0.88-0.88l-0.22-1.32l1.98-2.42l2.42-2.64l1.1-1.1l0.66-1.54l2.64-2.64l2.42-3.08
		l1.1-0.88l0.44-0.66l1.1-1.1l1.1-1.98l1.32-2.2l0.66-1.32l1.98-1.54l0.66-0.66l2.2-1.76l1.32-1.54l2.64-2.42l1.54-0.66l1.76-1.54
		l3.74-1.1l2.64,0.22l1.76,1.32l1.76,2.2l1.32,2.64l0.44,1.32v1.54l0.22,2.64l-1.32,3.3l-2.64,4.84l-1.76,2.64l-1.54,0.66
		l-0.44,0.66l-1.54,2.42l-1.32,1.98l-2.2,1.76l-0.88,2.42l-1.98,1.1l-1.32,1.54l-0.22,1.32l-0.44-0.44v0.66l2.2,1.54l1.76,1.98
		l1.98,1.76v1.1l1.1,0.88l2.42,2.86l1.54,2.2l2.86,3.52l1.1,1.98l0.44,0.88l1.98,1.98l1.54,2.64l0.44,1.54l0.66,1.98l1.1,2.64
		l1.32,3.74v2.86l0.88,3.08v2.42l-0.22,2.2v3.08l-0.88,2.86l-0.88,3.08l-1.32,2.42l-2.86,2.42l-0.44,0.44l-1.76,1.32l-2.42,1.32
		l-2.86,1.32l-3.3-0.66h-2.42l-1.32,0.22l-1.76-1.1l-2.64-0.88l-1.98-1.54l-1.32-0.66l-2.2-1.54l-0.88-0.44l-1.76-0.66l-1.1-1.32
		l-1.1,0.44l1.76,1.98l0.44,1.32l1.98,2.2l2.2,1.98l1.1,1.1l1.54,0.88l1.54,1.54l1.32,1.98l3.3,1.1l1.1,0.66l1.98,1.76l1.54,0.44
		l1.76,0.22l2.64,0.66l2.64,0.22l1.98-0.66l1.98,0.44l2.64,0.22l1.98-0.88l2.2-0.22l0.66-0.22l1.76-0.66l1.32-1.32l1.76-0.22
		l1.98-1.1l2.42-1.76l1.76-0.88l1.54-0.22l1.54-1.76l1.76-0.66l1.54-1.1l0.88-0.88l1.98-0.88l1.54-1.1l1.32-1.32l1.54-1.76
		l2.42-1.76l1.98-2.86l1.32-0.88l0.22-0.66l0.22-1.54l-0.66-1.98l-0.88-0.88l-0.88-2.42l-0.66-3.08l-0.22-2.2l-0.22-1.54l-1.54-1.76
		l0.22-2.86l-0.22-1.54l-0.88-2.42l0.22-1.76v-1.98l-0.66-2.86l0.88-3.3l0.22-3.52v-1.76l-0.66-3.3l0.22-2.64l0.44-1.1l0.22-2.64
		v-1.98l0.88-3.3l0.22-1.76l1.76-2.64l0.88-1.54l2.2-2.64l2.64-2.2l3.3-1.54l1.76-1.1l1.98-0.88l1.54-0.22h2.86l3.3-1.1l4.18-0.22
		l2.86,0.88l2.42,1.76l1.98,2.42l1.54,1.76l3.3,3.52l1.1,2.64l0.88,2.2v2.64l0.22,2.86l-0.22,3.96v3.08l-0.44,2.42v3.52l0.22,2.42
		l0.44,2.42l-1.1,2.64l-0.44,3.08l-0.66,2.2l-0.44,1.54l-0.88,2.2l-0.22,2.42l-1.54,2.42l-1.1,2.42l-0.44,2.42l-0.88,2.2l-1.54,2.42
		l-2.2,3.96l-1.1,1.54l-1.32,1.98l-0.66,0.88l0.22,1.32l0.66,1.76l0.66,1.32l3.3,2.64l1.32,2.2h0.66l1.76,1.1l1.54,0.44l1.54-0.22
		l1.1,0.88h1.98l2.2-0.66l2.42-0.22l0.66-0.66l1.76-0.66h1.98l1.1-0.88l1.98-0.88l1.54-1.32l2.86-1.54l1.32-0.66l0.44-0.66
		l1.98-1.32l1.76-1.1l1.98-2.42l0.88-1.32l1.32-1.76l2.42-2.86l1.76-1.32l0.22-1.1l1.1-1.32l1.54-1.76l1.54-2.2l0.88-1.54l1.98-2.2
		l0.22-1.32l2.2-3.3l0.66-1.32l0.66-1.98v-1.1l1.32-1.98l0.66-1.98l0.44-1.98l0.88-1.98l0.22-1.54l0.44-1.76v-1.32l0.66-3.3
		l0.44-2.64l0.66-3.08l-0.22-1.98l1.1-2.86l0.22-2.42l0.22-1.76v-2.64l0.44-1.32l-0.22-2.2l0.44-2.2l-0.44-1.32l0.66-1.98
		l-0.22-1.98l-0.66-2.2l-0.22-3.08l-0.22-1.32v-4.4l-0.88-1.1l-0.66-2.86l-1.32-3.08l-0.44-2.2l-0.88-2.42l-0.66-1.54v-2.42
		l-0.22-2.2l-1.76-2.42l-1.1-2.42l-0.88-2.2l-0.66-2.86l-1.76-3.3l-0.44-2.42v-0.88l-0.88-1.32l-1.1-1.98l-1.54-2.42l-1.1-1.98
		l-0.88-1.98l-1.76-1.32l-1.1-1.98l-0.88-1.1l0.22,1.76l0.66,1.54l-0.88,0.22l0.22,2.42l0.66,3.3l0.44,1.32l-0.22,3.08v2.42
		l-1.1,2.42l-0.22,3.74l-1.1,1.32l-1.32,2.42l-0.88,1.32l-1.76,1.98l-1.32,2.86l-1.32,1.76h-2.2l-1.54,1.76l-1.54,1.1l-2.86,0.44
		l-2.42,2.2l-2.42,0.22l-2.42,0.66l-2.42-0.22l-2.86-0.22l-2.64,0.22l-2.42-1.54l-2.2-1.76l-1.32-1.76l-1.1-1.1l-1.98-3.96
		l-1.1-1.98l-0.44-1.76v-3.96l-0.22-1.32v-2.64l-0.22-2.64l0.22-1.32l-1.98,0.44l-4.18,0.88l-2.86,0.66h-2.86l-3.08-0.66l-1.54-0.22
		l-2.86-1.76l-3.52-1.76l-1.1-1.1l-1.32-0.44l-1.76-2.2l-2.2-2.42l-1.32-3.08l-0.66-3.52l-1.32-1.98l-0.22-2.42l-0.22-2.2v-1.54
		l-0.22-2.86l0.44-2.64l0.66-2.86l0.66-2.42v-2.64l0.88-2.42l1.98-2.42l1.32-1.76l2.2-2.64l1.54-0.88l2.86-0.88l2.64-1.76l0.66-1.54
		l-0.88-3.08l-0.66-2.2l-0.88-2.64v-1.32l-0.44-1.76l-0.88-3.96v-2.86l0.22-3.3l0.44-2.86l0.66-1.32l0.66-1.76l0.88-3.3l1.32-2.86
		l1.76-2.2l2.42-2.86l4.4-2.2l1.54-0.22l2.2-0.22l2.42-0.88l2.42,0.44l2.2-0.44l1.32,0.44l2.64,0.66l2.42,0.88l5.5,2.64l0.66,0.88
		l3.08,0.66l1.98-1.76l1.32-0.88l1.98-0.44l1.32-1.1l1.76-0.66l2.42,0.22l0.44-0.44l2.42-0.88l4.84-0.88l1.54,0.44l1.98-0.22
		l3.3,0.22l2.64,0.44l3.08,1.98l3.52,1.98l1.54,0.22l1.98,3.3l0.22,1.32l1.76,2.64l0.44,2.42l0.22,2.86l0.66,1.1h0.88l2.42,0.22
		l3.3,0.66l1.76,0.66l1.98,1.1l2.2,1.32l1.32,1.1l2.42,2.2l0.88,2.64l1.32,1.98l1.1,2.42l0.44,2.2l0.44,2.86v2.64l-0.22,3.08
		l-0.22,1.76l-0.22,2.64l-0.66,2.86l-1.54,2.64l-1.32,3.3l-1.32,1.1l-1.1,2.2l-2.2,1.76l-1.54,2.42l-1.54,1.98l-1.98,1.98
		l-3.08,1.98l-1.98,0.66l0.44,1.54l0.22,0.66l1.32,2.2l1.98,3.96l0.22,1.1l0.66,2.64l1.32,3.3l1.32,2.64l1.54,3.3l1.1,2.64l1.1,2.86
		l1.32,2.2l0.88,2.42l1.1,3.96l1.32,3.3l0.44,3.74l0.66,3.3l0.66,2.42l0.88,2.64l0.88,2.42l0.88,3.08l0.44,3.96v1.54l0.44,2.42v2.86
		l0.44,1.54l-0.66,2.42l-0.22,2.2l0.44,1.54v5.06l-0.66,2.86l0.22,1.32l-0.66,1.76l-0.22,2.2l-0.66,1.76l-0.44,1.32l0.22,1.76
		l-0.44,3.08l-0.44,2.2v2.42l-0.88,1.76l0.22,1.98l-0.44,1.98l-0.66,3.08l0.22,1.54l-0.88,1.54l-1.1,2.42l-0.66,2.2l-0.22,1.76
		l-0.44,1.98l-1.76,3.52l-1.1,3.08l-1.32,2.2l-1.1,1.32l-0.66,1.76l-1.32,1.54l-1.32,2.42l-1.1,1.54l-0.66,1.98l-1.32,1.32
		l-1.32,1.1l-0.44,2.2l-1.54,1.76l-1.32,0.88l-1.54,1.98l-1.76,1.1l-0.66,1.1l-1.54,1.98l-1.32,1.76l-1.98,0.88l-1.32,1.32
		l-1.54,1.32l-1.54,1.76l-4.4,2.64l-1.54,1.32l-2.42,0.66l-0.44,1.1l-1.54,1.1l-3.08,1.54l-3.74,1.76l-3.74,0.66l-1.98,0.44
		l-1.98,0.22l-2.64-0.44l-1.76,0.66l-3.3,0.88l-1.98-0.44l-2.2-0.44l-2.42-0.88l-1.98-1.32l-2.2-0.22l-1.76-1.1l-2.42-1.32
		l-2.2-1.32l-1.76-0.88l-2.42-2.64l-1.1-2.86l-1.54-1.54l-0.66-1.76h-1.1l-1.32,0.88l-1.54,1.76l-1.54,0.44l-1.76,1.76l-0.44,0.88
		l-1.98,0.88l-1.32,0.88l-1.32,1.32l-2.42,1.76l-1.76,0.44l-1.54,1.54l-1.1-0.22l-1.54,1.98l-2.64,1.54h-1.1l-1.98,0.66l-1.98,1.54
		l-3.74,2.2l-1.76,1.32l-1.98,0.22l-4.62,1.98l-1.76-0.22h-1.54l-2.2,0.22h-1.76l-1.98,0.44l-2.2-0.66l-1.54,0.22l-1.76-0.88
		l-1.98-0.44l-1.98,0.22l-2.2-0.22l-0.88-0.66l-2.64-0.88l-0.88-1.1l-1.54-0.22l-1.98-0.44l-1.54-1.32l-1.98-1.32l-1.76-1.32
		l-1.54-0.22l-1.32-1.98l-1.32-0.66l-1.76-1.76l-2.2-1.32l-0.88-1.54l-1.98-1.98l-1.1-0.66l-1.54-1.76l-1.32-1.54l-1.32-1.98
		l-1.32-1.54l-0.44-2.2l-2.2-5.28l-0.88-1.1l0.22,0.44l-0.66-0.66h-1.76l-1.54,1.76l-1.98,1.98l-2.2,1.1l-1.32,1.1l-2.2,1.1h-1.1
		l-2.42,0.66l-2.86,0.44l-1.54-0.22l-2.64-0.22l-2.86-0.44l-3.3-1.1l-2.64-1.1l-1.32-1.54l-2.42-2.2l-1.54-1.76l-1.1-3.08
		l-1.76-2.64l-1.1-3.08v-3.96L1220.27,587.63z M1251.07,579.27l0.22-1.1l-1.76,0.88l-1.1,0.66l-1.76,1.32l-1.1,1.32l-1.54,0.88
		l-1.32,0.88l-0.66,0.88l-1.54,1.76l-1.1,1.98l0.88,1.1l0.44,0.66h1.1l0.88-0.66l0.44-0.44l1.76-0.44l1.54-1.1l1.1-1.54l0.88-1.54
		l0.88-1.1l1.1-2.2l0.66-0.88V579.27z M1279.45,566.95l0.44,1.54v0.88l1.1,0.66l1.98,2.64l1.76,2.86l1.1,1.1l1.32,0.66l1.98,1.98
		l1.32,1.98h0.88l1.32,0.44h0.88l-0.44-2.2l-0.44-1.98l-1.54-1.76l-1.1-2.2l0.22-0.22l-1.32-1.54l-0.88-1.54l-1.32-0.88l-1.76-1.54
		l-1.1-1.54l-0.22-0.66l-2.86-0.66L1279.45,566.95z M1352.49,429.67l0.88,0.44h-0.22L1352.49,429.67z M1354.25,454.97l0.88,1.98
		l1.54,1.76l1.76,0.88h1.98l1.98-1.1l2.2-0.66l2.64-1.54l2.2-0.22l0.88-0.22l1.32-0.22l1.32-1.54l2.86-1.1l0.44-1.1l-0.66-1.54
		l-0.88-1.32l-1.32-1.76l-1.1-0.66l-1.54-0.22l-3.3,1.32l-2.2,0.44l-0.66-0.22l-1.1,0.66l-3.08,1.32l-3.08,0.44l-0.88,0.22
		l-1.32,2.2l-0.88,1.1V454.97z M1355.35,613.37l0.44-0.66l0.44,0.22L1355.35,613.37z M1358.65,563.65l0.44,3.52l0.22,1.98l1.54-0.22
		l0.88-1.54h-0.44l0.22-0.66l1.32-1.1l0.22-1.32v-1.1l0.66-2.86l0.66-1.76l0.44-1.98l-0.22-2.86l0.66-3.08l0.22-2.42l-0.22-2.42
		l-1.1-0.88l-0.88,0.44l-1.32,0.44l-0.88,0.66l-0.88,1.1l-0.22,1.76l-0.66,1.76v2.86l-0.44,1.98l0.44,1.98l-0.44,2.42
		L1358.65,563.65z M1366.35,410.09l0.44,1.76l-0.22,1.32l0.22,1.1l-0.22,1.54l0.88,1.1l1.76,1.32l1.1,1.98l1.76,1.76l1.76,1.54
		l1.76,0.88l1.32,1.54l0.88,0.22l0.22-1.1l2.42-1.54l0.22-2.86l-1.32-0.44l-1.1-2.2l-1.1-1.76l-1.1-1.98l-1.98-2.42l-1.54-1.32
		l-0.44-1.1l-1.32-0.66h-1.76L1366.35,410.09z M1385.05,393.59l1.1,0.22l-0.22,0.88L1385.05,393.59z M1387.25,483.35l0.22-0.88h1.32
		l2.2-1.54l1.32-0.22l0.44-1.54l1.1-1.1l-0.22-1.32l0.22-2.42l0.22-1.76l-0.22-2.2l0.22-2.42l0.22-1.76l-0.88-1.76l-0.88-2.86v-1.98
		l-1.32,0.22l-0.88,1.98l-1.32,3.08l-0.88,3.74l-0.22,3.52v8.36l-0.44,2.64l0.44,0.22H1387.25z M1394.95,416.03l1.32,2.2l1.32,0.66
		l1.98,1.32l1.76,0.88l2.42-1.1l0.44-1.54l0.22-1.54l1.1-1.98l0.66-1.98l1.1-2.42l0.88-2.86l0.22-1.98l-1.98-0.44h-1.98l-1.32,0.22
		l-2.2,1.76l-1.1-0.22l-1.54,2.2l-1.32,2.64l-1.76,1.76L1394.95,416.03z M1412.99,434.95l0.88,1.98l1.98,1.76h0.66l0.66,0.44
		l0.44-0.66l-1.1,0.66l0.22,0.66l1.1-1.1l0.66,0.44v-1.1l1.76-1.1l1.32-0.44l1.32-1.32l2.86-1.76l0.66-1.76l0.22-0.44l1.32-2.42
		l1.76-1.98l0.88-1.54l0.44-0.22l-0.88-0.88h-1.32l-1.32-0.22l-1.54,1.1l-1.54,1.54h-2.42l-1.54,1.76l-3.08,1.1l-1.76-0.22
		l-1.76,1.32l-0.66,1.76L1412.99,434.95z M1430.59,427.25l0.44,0.66v0.44L1430.59,427.25z"/>
</g>
<g>
	<path class="st0" d="M1554.45,580.59h-67.76l-16.72,44.44h-24.86l62.26-154h27.5l62.48,154h-25.96L1554.45,580.59z M1547.19,561.01
		l-21.56-56.54c-1.76-4.84-3.3-9.24-4.84-13.86c-1.54,4.62-3.3,9.24-5.28,13.86l-21.34,56.54H1547.19z"/>
</g>
<g>
	<path class="st0" d="M1727.81,514.59c0,24.2-18.04,37.62-42.46,42.9l-26.62,5.72c-17.16,3.96-26.62,10.34-26.62,23.1
		c0,13.42,14.08,22.44,32.78,22.44c22,0,34.76-11.66,35.86-28.38h23.98c-1.76,29.04-23.54,48.18-58.96,48.18
		c-33.22,0-57.64-18.48-57.64-44.22c0-23.98,19.14-37.84,42.9-42.9l24.2-5.28c17.82-3.74,28.6-10.34,28.6-23.98
		c0-16.06-13.86-25.3-36.08-25.3c-22.88,0-39.6,12.76-40.92,34.76h-23.98c1.1-33.22,25.52-54.34,64.24-54.34
		C1705.59,467.29,1727.81,487.97,1727.81,514.59z"/>
</g>
</svg>
