<?xml version="1.0" encoding="utf-8"?>
<!-- Generator: Adobe Illustrator 26.4.1, SVG Export Plug-In . SVG Version: 6.00 Build 0)  -->
<svg version="1.1" id="Ebene_1" xmlns="http://www.w3.org/2000/svg" xmlns:xlink="http://www.w3.org/1999/xlink" x="0px" y="0px"
	 viewBox="0 0 650 195" style="enable-background:new 0 0 650 195;" xml:space="preserve">
<g>
	<g>
		<path d="M2.38,43.32h7.63c0.42,7,5.74,11.06,13.02,11.06c7.07,0,11.48-2.94,11.48-8.05c0-4.34-3.43-6.44-9.1-7.63l-7.7-1.68
			C10.15,35.41,4.06,31,4.06,23.37c0-8.19,7.77-14.07,18.34-14.07c11.27,0,18.2,6.09,18.76,15.33h-7.63
			c-0.35-5.32-4.41-9.03-11.41-9.03c-5.95,0-10.43,2.87-10.43,7.14c0,4.06,3.01,6.09,8.47,7.35l8.47,1.82
			c7.77,1.68,13.51,5.95,13.51,13.65c0,8.47-7.07,15.05-19.32,15.05C10.5,60.61,2.73,53.89,2.38,43.32z"/>
	</g>
	<g>
		<path d="M45.71,39.4c0,0.14,0,0.35-0.07,0.49c-0.21,0.77-0.14,1.61-0.14,2.45c0.07,0.63,0.28,1.26,0.63,1.82
			c0.14,0.28,0.35,0.56,0.49,0.84c0.07,0,0.07,0.07,0,0.14c-0.07,0,0,0.07,0.07,0.07c0.21,0,0.28,0.07,0.35,0.28
			c0.35,0.49,0.49,1.12,0.7,1.68c0.28,0.98,0.77,1.96,1.26,2.87c0.28,0.56,0.7,1.12,0.98,1.61c0,0.07,0,0.07,0,0.07h-0.07
			c-0.77-0.49-1.47-1.05-2.1-1.82c-0.49-0.56-0.91-1.19-1.4-1.89c-0.7-1.19-1.26-2.45-1.54-3.85c-0.14-0.42-0.14-0.84-0.21-1.33
			c0-0.49-0.14-0.98-0.14-1.54c0.14-1.05,0.28-2.1,0.7-3.01c0.07-0.07,0.07-0.21,0.21-0.21c0-0.07,0.07,0,0.07,0
			C45.57,38.49,45.64,38.98,45.71,39.4z M44.8,32.19c0-1.4,0.21-2.59,0.63-3.85c0.28-0.84,0.56-1.75,1.12-2.45
			c0.28-0.21,0.42-0.42,0.56-0.56c0.07-0.14,0.07-0.14,0.14-0.14c0,0,0,0.14,0,0.21c0,0.28,0,0.7-0.07,0.98
			c0,0.21-0.14,0.42-0.21,0.56c-0.49,0.91-0.77,1.82-1.05,2.8c0,0.35,0.07,0.77,0.07,1.12c0.14,0.35,0.21,0.7,0.35,0.98
			c0.07,0.21-0.21,0.21-0.14,0.28c0.07,0.07,0.21,0,0.21,0.14c0.07,0.42,0.21,0.77,0.07,1.19c-0.07,0.28-0.07,0.63-0.07,0.91
			c0,0.49-0.07,1.05-0.07,1.47c0,0.7-0.07,1.33-0.07,2.03c0,0.21,0.07,0.56,0.07,0.84c0,0.07,0,0.07,0,0.14
			c0-0.07-0.07-0.07-0.07-0.07c-0.28-0.35-0.49-0.77-0.63-1.12c-0.07-0.42-0.21-0.7-0.35-1.12c-0.14-0.84-0.28-1.61-0.35-2.38
			C44.8,33.52,44.8,32.82,44.8,32.19z M52.71,52.77c-0.77,0.07-1.47-0.35-2.03-0.84c-0.28-0.35-0.63-0.7-0.77-1.12
			c-0.77-1.33-1.47-2.66-1.89-4.13c-0.07-0.14-0.14-0.35-0.14-0.49c0-0.35-0.07-0.56-0.28-0.77c-0.28-0.35-0.49-0.63-0.77-0.98
			c-0.42-0.35-0.49-0.91-0.63-1.4c-0.21-0.7-0.07-1.4-0.07-2.1c0-0.07,0.07-0.07,0.07-0.14c0-0.07,0.07-0.21,0.07-0.28
			c0.07,0.07,0.14,0.14,0.14,0.21c0.21,0.21,0.42,0.49,0.63,0.7c0.14,0.14,0.14,0.28,0.14,0.49c0,0.91,0.14,1.75,0.49,2.59
			c0.21,0.49,0.42,1.05,0.77,1.61c0.42,0.77,1.05,1.54,1.75,2.17c0.49,0.42,1.05,0.84,1.75,1.05c0.21,0.07,0.35,0.28,0.63,0.42
			c0.42,0.28,0.91,0.49,1.33,0.77c0.28,0.07,0.35,0.14,0.42,0.28c0.07,0.63,0.07,1.19-0.42,1.61c-0.21,0.21-0.42,0.28-0.77,0.35
			C53.06,52.77,52.92,52.77,52.71,52.77z M46.62,37.79c0.07-0.77,0.07-1.54,0.07-2.31c0.14-0.56,0.21-1.12,0.21-1.68
			c0.07-0.14,0.14-0.28,0.14-0.42c0.07-0.14,0.14-0.42,0.07-0.63c-0.14-0.28-0.21-0.7-0.42-0.98c-0.28-0.63-0.21-1.26-0.14-1.82
			c0.07-0.63,0.35-1.19,0.49-1.68c0.07,0,0.07-0.07,0.07-0.07c0.07-0.21,0.14-0.28,0.21-0.35c0.07,0.07,0.07,0.14,0.21,0.35
			s0.21,0.49,0.35,0.84c0,0.07,0.07,0.14,0,0.21c-0.28,0.7-0.49,1.47-0.49,2.31c-0.07,1.75,0.35,3.36,1.05,4.9
			c0.14,0.56,0.42,1.12,0.84,1.47c0.14,0.14,0.21,0.42,0.28,0.56c0.28,0.49,0.42,0.91,0.7,1.33c0.21,0.28,0.28,0.63,0,0.91
			c-0.28,0.49-0.7,0.84-1.26,0.77c-0.42-0.07-0.84-0.21-1.05-0.42c-0.42-0.42-0.91-0.91-1.05-1.54c0-0.14-0.07-0.35-0.21-0.56
			C46.69,38.56,46.62,38.21,46.62,37.79z M47.6,25.12c0-0.91,0-1.68,0.07-2.45c0.07-1.19,0.21-2.24,0.63-3.43
			c0.07-0.07,0-0.14,0.14-0.07c0-0.07,0.07-0.07,0.07-0.07c-0.21-0.14-0.07-0.28,0-0.42c0.35-0.98,0.84-1.96,1.54-2.87
			c0.42-0.49,0.84-0.98,1.26-1.47c0.56-0.42,1.26-0.84,1.82-1.12c0.14,0,0.14,0,0.21,0c0,0,0,0.07-0.07,0.07
			c-0.21,0.35-0.42,0.77-0.63,1.05c0,0.21-0.07,0.28-0.21,0.28c-0.77,0.63-1.4,1.33-1.89,2.1c-0.49,0.7-0.7,1.47-0.7,2.31
			c0,0.7,0,1.4-0.28,2.03c-0.35,0.98-0.77,1.96-1.05,3.01c-0.21,0.7-0.42,1.47-0.63,2.17c0,0.07,0,0.07,0,0.14
			c0-0.07-0.07-0.07-0.07-0.14C47.74,25.82,47.67,25.4,47.6,25.12z M48.16,26.94c0-0.7,0.28-1.33,0.49-1.96
			c0.21-0.84,0.56-1.75,0.84-2.66c0.21-0.42,0.35-0.91,0.63-1.26c0.14-0.21,0.14-0.49,0.14-0.77c-0.14-1.05-0.07-2.03,0.56-3.01
			c0.35-0.35,0.63-0.77,0.84-1.12c0.21-0.07,0.28-0.14,0.42-0.21c0.07-0.14,0.14-0.21,0.21-0.28c-0.07,0.14-0.07,0.28-0.07,0.35
			s0.07,0.14,0.14,0.07c0.07,0,0.21-0.07,0.28-0.07c0.07-0.07,0.14-0.28,0.28-0.21c0.07,0.14,0,0.49-0.07,0.56
			c-0.14,0.07-0.21,0.14-0.42,0.21c-0.21,0.14-0.21,0.35-0.21,0.49c0.07,0.14,0,0.21-0.07,0.42c-0.49,0.42-0.77,1.05-1.12,1.68
			c-0.28,0.77-0.42,1.47-0.49,2.24c-0.07,0.63-0.14,1.26-0.14,1.82c0.07,0.84,0.07,1.68,0.35,2.52c0.21,0.56,0.28,1.12,0.42,1.75
			c0.07,0.28,0.14,0.56,0.21,0.84c0.14,0.28,0.07,0.42-0.07,0.7c-0.35,0.28-0.7,0.56-1.19,0.63c-0.21,0-0.42-0.07-0.7-0.28
			c-0.56-0.42-0.91-0.98-1.12-1.68C48.3,27.5,48.16,27.15,48.16,26.94z M66.5,62.29c-0.28,0-0.63,0-0.91,0
			c-0.56-0.07-1.05-0.14-1.54-0.14c-0.49-0.07-0.98-0.07-1.33-0.14c-0.7-0.21-1.33-0.28-1.96-0.42c-0.77-0.21-1.47-0.49-2.24-0.7
			c-1.75-0.63-3.29-1.4-4.76-2.38c-0.63-0.49-1.19-1.05-1.82-1.47c-1.05-0.77-1.82-1.89-2.45-2.94c-0.35-0.7-0.7-1.47-0.77-2.38
			c0-0.14,0-0.28,0-0.42c0.07,0.14,0.14,0.28,0.28,0.35c0.14,0.28,0.28,0.42,0.42,0.56c0.28,0.21,0.49,0.42,0.56,0.7
			c0.21,0.7,0.63,1.26,0.98,1.82c0.63,0.84,1.4,1.47,2.17,2.03c0.91,0.63,1.82,1.19,2.73,1.68c1.26,0.63,2.52,0.98,3.78,1.33
			c0.42,0.07,0.91,0.07,1.19,0.21c0.35,0.14,0.56,0,0.77,0.07c0.35,0.14,0.63,0.07,0.84,0.14c0.56,0.07,1.19,0.14,1.75,0.28h0.07
			c0.56,0,0.98,0.07,1.47,0.07c0.35,0,0.77,0.07,1.19,0.07c0.84,0,1.75,0,2.66-0.07c2.45-0.28,4.76-0.77,7-1.68
			c0.56-0.21,1.12-0.49,1.68-0.77l0.14-0.07c0,0.07,0,0.07-0.14,0.14c-0.21,0.35-0.42,0.63-0.7,0.91c-0.21,0.21-0.49,0.35-0.77,0.56
			c-0.28,0.28-0.7,0.56-1.05,0.84c-0.49,0.21-0.91,0.35-1.47,0.56s-1.12,0.35-1.75,0.49c-0.7,0.14-1.47,0.28-2.17,0.49
			c-0.49,0.07-0.98,0.14-1.54,0.21h-0.07C67.97,62.22,67.27,62.29,66.5,62.29z M55.16,30.58c0,1.05,0,2.03-0.21,2.87
			c-0.14,0.84-0.35,1.61-0.63,2.31c-0.21,0.7-0.56,1.33-0.84,2.03c-0.14,0.14-0.14,0.28,0,0.56c0.7,1.12,1.12,2.45,1.54,3.85
			c0.14,0.56,0.28,1.12,0.42,1.61c0.07,0.35,0.07,0.63,0.07,0.98c0.07,0.7,0.07,1.33,0.07,2.03c0,0.14,0,0.28-0.07,0.42
			c0,0.14,0.07,0.14,0.14,0.21c1.26,0.56,2.38,1.26,3.5,2.1c0.98,0.77,2.17,1.4,3.5,1.82c0.7,0.21,1.4,0.49,2.1,0.63
			c0.56,0.07,1.26,0.14,1.89,0.21c0.98,0.14,1.82,0.07,2.73,0.07c0.63,0,1.26-0.14,1.96-0.21c0.35-0.07,0.84-0.14,1.33-0.21
			c0.21,0,0.42,0,0.77,0.07c0.35,0,0.84,0,1.19,0.07c0.21,0,0.28-0.07,0.35-0.28c0.21-0.28,0.42-0.56,0.77-0.91
			c0.28-0.35,0.63-0.7,0.91-0.98c1.33-1.33,2.87-2.45,4.62-3.15c0.49-0.21,1.05-0.42,1.61-0.56c0.07,0,0.14-0.21,0.21,0
			c0.14,0.14,0.35,0.07,0.49,0c0.28-0.35,0.63-0.63,0.91-0.98c0.42-0.42,0.84-0.98,1.26-1.47c0.28-0.42,0.77-0.91,0.84-1.54
			c0-0.21,0.14-0.42,0.42-0.56c0.14-0.07,0.21-0.21,0.28-0.35c0.07-0.07,0.07-0.28,0.07-0.35c-0.07,0.07-0.14,0.07-0.21,0.21
			c-0.35,0.28-0.56,0.56-0.7,0.98c-0.28,0.63-0.7,1.05-1.12,1.54c-0.56,0.7-1.12,1.4-1.68,2.03c-0.07,0.07-0.07,0.14-0.14,0.14
			c-0.07,0-0.21,0-0.28,0c0-0.07,0-0.14,0-0.21c0.21-0.56,0.35-1.12,0.56-1.61c0.49-1.05,0.98-2.03,1.61-2.87
			c0.42-0.49,0.77-0.91,1.33-0.98c0.42-0.07,0.7-0.14,1.05,0.07c0.35,0.35,0.42,0.98,0.14,1.4c-0.07,0.14-0.35,0.35-0.49,0.49
			c-0.35,0.49-0.84,0.91-0.98,1.61c0,0.07,0,0.14-0.07,0.28c0,0,0,0.07,0,0.14c0-0.07-0.07-0.14-0.07-0.14c0-0.21,0-0.35,0-0.49
			c-0.21,0.14-0.21,0.28-0.21,0.49c-0.14,0.63-0.28,1.47-0.42,2.17c-0.07,0.56-0.21,1.19-0.28,1.75c-0.07,0.49-0.14,0.91-0.21,1.33
			c-0.07,0.21-0.14,0.35-0.42,0.56c-0.28,0.14-0.56,0.07-0.77-0.21c-0.07-0.14-0.14-0.21-0.21-0.28c-0.14-0.28-0.14-0.28-0.49-0.21
			c-0.35,0.07-0.77,0.14-1.19,0.21c-0.77,0.14-1.54,0.35-2.38,0.77c-0.49,0.28-0.98,0.7-1.26,1.26c0,0.07-0.07,0.07-0.07,0.07V51.3
			c0-0.07,0-0.07,0-0.07c0.07-0.07,0.07-0.28,0.14-0.42c-0.14,0.14-0.28,0.21-0.35,0.35c-0.35,0.56-0.7,1.19-1.05,1.75
			c-0.49,0.91-1.05,1.82-1.47,2.66c-0.07,0.14-0.28,0.28-0.42,0.35c-0.35,0.35-0.84,0.07-0.98-0.35c0-0.07,0-0.21-0.07-0.21
			c0-0.14,0.07-0.35-0.07-0.42c-0.28-0.07-0.49-0.21-0.84-0.14c-0.28,0.07-0.56,0.07-0.98,0.14c-0.98,0-2.03,0.07-3.01,0.07
			c-0.77-0.07-1.47-0.14-2.17-0.21c-1.12-0.07-2.1-0.42-3.22-0.63c-0.91-0.28-1.75-0.56-2.66-0.98c-1.26-0.49-2.45-1.26-3.57-1.96
			c-0.42-0.28-0.7-0.49-1.05-0.63c-0.07,0-0.07-0.07-0.14-0.07c0.07,0,0.07,0,0.14,0c0.14,0,0.35,0.07,0.42,0.14
			c0.07,0,0.07,0,0.14,0c0-0.07,0-0.07-0.07-0.14c-0.07-0.07-0.21-0.21-0.35-0.21c-0.98-0.28-1.96-0.56-3.01-0.91
			c-0.49-0.21-1.12-0.56-1.68-0.77c-0.35-0.07-0.49-0.28-0.56-0.63c-0.07-0.21,0.07-0.42,0.35-0.63c0.14-0.07,0.28-0.14,0.42-0.14
			c0.28,0,0.35-0.14,0.35-0.28c0.14-0.63,0.21-1.26,0.28-1.82c0.14-0.7,0.07-1.4,0.07-2.1c0-0.42-0.14-0.98-0.56-1.4v-0.07h0.14
			c0.07,0.07,0.07,0.14,0.14,0.14c0.07,0.14,0.07,0.14,0.14,0.14c0-0.14,0-0.21-0.07-0.21c-0.42-0.56-0.84-1.19-1.26-1.75
			c-0.63-0.84-1.26-1.68-1.82-2.59c-0.14-0.14-0.21-0.28-0.21-0.42c-0.07-0.56,0.21-0.91,0.7-0.77c0.07,0,0.21,0.07,0.28,0.07
			c0.35,0.07,0.28,0.07,0.56-0.28c0.63-0.7,1.12-1.47,1.54-2.31c0.28-0.7,0.49-1.4,0.42-2.1c0-0.28-0.07-0.56-0.14-0.77
			c0-0.07,0-0.07,0.07-0.14c0,0.07,0,0.07,0,0.07c0.07,0.14,0.14,0.28,0.21,0.49c0,0,0,0,0.14,0.07c0-0.07,0-0.07,0-0.14
			c-0.14-0.35-0.21-0.7-0.35-1.12c-0.49-1.4-0.91-2.8-1.4-4.27c-0.14-0.21-0.14-0.56,0-0.77c0.21-0.28,0.49-0.42,0.77-0.21h0.07
			c0.56,0.28,0.56,0.28,1.12-0.07c0.63-0.49,1.12-1.05,1.68-1.61c0.49-0.49,0.98-1.05,1.12-1.82c0.07-0.35,0.14-0.7,0.14-1.05
			c0-0.07,0.07-0.07,0.07-0.14c0,0.07,0,0.07,0,0.14c0,0.21,0,0.42,0,0.63c0,0.07,0.07,0.07,0.07,0.07s0.07,0,0.07-0.07
			c0,0,0-0.07,0-0.14c0.07-0.77,0.07-1.61,0.07-2.38c0.07-0.7,0.21-1.4,0.21-2.03c0.07-0.28,0.07-0.63,0.07-0.91
			c0.07-0.28,0.21-0.42,0.35-0.56c0.14-0.14,0.49-0.14,0.7,0c0.07,0.07,0.14,0.14,0.28,0.21c0.07,0.14,0.07,0.42,0.28,0.42
			s0.49,0,0.7-0.07c0.49-0.35,0.98-0.56,1.47-0.91c0.91-0.35,1.89-0.77,2.87-0.98c0.63-0.14,1.26-0.28,1.75-0.35
			c1.26-0.28,2.59-0.28,3.85-0.28c0.56,0,0.98,0.07,1.47,0.14c0.42,0.14,0.91,0.14,1.33,0.21c0.7,0.07,1.26,0.21,1.89,0.28
			c0.77,0.14,1.47,0.42,2.24,0.56c0.28,0,0.42-0.07,0.63-0.07c0.07,0,0.07,0,0.21,0c-0.14,0-0.14,0.07-0.21,0.07
			c-0.21,0-0.42,0.07-0.7,0.14h-0.07c0,0.07,0.07,0.07,0.07,0.07c0.49-0.07,1.05-0.07,1.47-0.07c0.49-0.07,1.05-0.14,1.47-0.21
			c0.56-0.07,1.12-0.21,1.68-0.28c0.35,0,0.77-0.07,1.19-0.07c0.28,0,0.42,0.07,0.56,0.35c0.28,0.35,0.28,0.63-0.14,0.91
			c-0.21,0.21-0.21,0.49-0.07,0.77c0.28,0.63,0.63,1.33,0.91,1.96c0.14,0.21,0.42,0.56,0.63,0.77c0.21,0.21,0.49,0.49,0.7,0.7
			c0.28,0.35,0.7,0.56,1.19,0.63c0.07,0,0.07,0.07,0.14,0.07h0.07l-0.07,0.07c-0.14-0.07-0.35-0.07-0.49-0.07c-0.07,0-0.07,0-0.14,0
			c0.07,0.07,0.07,0.07,0.07,0.07c0.21,0.07,0.42,0.14,0.63,0.21c0.91,0.28,1.75,0.42,2.73,0.63c0.7,0.14,1.47,0.21,2.17,0.42
			c0.28,0.07,0.56,0.14,0.7,0.42c0.14,0.35,0.14,0.49-0.14,0.7c0,0.07-0.14,0.07-0.21,0.14c-0.35,0.21-0.42,0.49-0.35,0.84
			c0.14,0.77,0.28,1.54,0.63,2.24c0.21,0.35,0.35,0.77,0.63,1.12c0.07,0.21,0.14,0.42,0.21,0.63c0.07,0.35,0,0.63-0.35,0.84
			c-0.21,0.28-0.49,0.42-0.84,0.28c-0.56-0.21-0.98-0.49-1.33-0.98c-0.35-0.7-0.84-1.26-1.19-2.1C88.2,24.7,87.99,24,87.78,23.3
			c-0.14-0.14-0.21-0.28-0.35-0.35c-1.4-0.35-2.52-1.05-3.71-1.82c-0.63-0.42-1.26-0.77-1.68-1.33c-0.49-0.49-0.91-0.84-1.26-1.26
			c-0.49-0.63-0.84-1.26-1.33-1.82c-0.07-0.21-0.21-0.35-0.49-0.28c-0.7,0-1.4-0.07-2.1-0.14c-1.05-0.07-2.03-0.49-3.08-0.7
			c-0.63-0.14-1.33-0.21-2.03-0.28c-1.19-0.28-2.45-0.21-3.71-0.21c-0.56,0-1.05,0.14-1.61,0.28c-0.84,0.14-1.61,0.35-2.52,0.7
			c-0.77,0.28-1.47,0.7-2.17,1.12c-0.56,0.49-1.19,0.7-1.89,0.98h-0.07c-0.35,0.07-0.63,0.14-0.56,0.63
			c-0.21,1.12-0.56,2.31-0.91,3.36c-0.49,1.12-1.05,2.1-1.75,3.01c-0.35,0.56-0.84,1.12-1.26,1.68c-0.14,0.07-0.28,0.21-0.35,0.35
			c-0.07,0.14-0.14,0.14-0.21-0.07c0,0,0-0.14-0.14,0c-0.14,0.14-0.21,0.35-0.28,0.56c-0.21,1.19-0.56,2.24-0.77,3.36
			c-0.07,0.21-0.07,0.42-0.14,0.77c0,0,0,0.07,0,0.14c0.28,0.56,0.14,1.12-0.07,1.68c-0.35,1.05-0.77,2.03-1.47,2.8
			c-0.14,0.14-0.14,0.21,0.07,0.21c0.07,0.14,0.14,0.14,0.14,0.21c0.28,0.14,0.28,0.14,0.49-0.07c0.49-0.91,0.91-1.82,1.12-2.73
			c0.07-0.28,0.14-0.49,0.07-0.7c-0.07-0.77-0.07-1.54,0.07-2.31c0.28-1.05,0.49-1.96,0.63-3.01c0.07-0.14,0-0.42,0.35-0.42
			c0.07,0,0.14,0.28,0.14,0.42C55.16,28.97,55.23,29.81,55.16,30.58z M67.9,60.19c-0.7-0.07-1.4-0.14-2.03-0.21
			c-0.28-0.07-0.56-0.07-0.84-0.07c-0.49-0.07-0.91-0.07-1.4-0.07c-0.7-0.07-1.4-0.21-2.1-0.28c-0.77-0.14-1.54-0.21-2.31-0.42
			c-0.77-0.21-1.47-0.42-2.1-0.63c-1.33-0.56-2.52-1.26-3.57-2.1c-0.56-0.42-0.98-0.84-1.47-1.33c-0.49-0.49-0.84-0.98-1.12-1.61
			V53.4c0,0,0.07,0,0.21,0c0.28,0.14,0.7,0.28,1.05,0.28c0.07,0,0.21,0.14,0.35,0.21c0.35,0.56,0.91,1.05,1.33,1.47
			c1.12,0.98,2.31,1.68,3.57,2.31c1.19,0.49,2.45,0.98,3.71,1.26c0.77,0.21,1.61,0.42,2.38,0.49c0.77,0.07,1.54,0.07,2.31,0.07
			c0.42,0,0.7,0,1.05,0c0.56,0,1.19-0.07,1.82-0.14c0.84-0.07,1.82-0.21,2.66-0.49c0.98-0.28,2.03-0.7,3.01-0.98
			c0.14-0.07,0.28-0.21,0.49-0.28c0.49-0.56,1.05-1.12,1.47-1.82c0.07-0.21,0.21-0.42,0.35-0.56c0.35-0.35,0.63-0.7,0.84-1.05
			c0.28-0.42,0.56-0.56,0.98-0.49c0.49,0.07,1.19,0.56,1.19,1.12c0.14,0.42-0.07,0.84-0.21,1.26c-0.28,0.98-0.91,1.54-1.75,1.82
			c-0.91,0.35-1.68,0.7-2.52,0.98c-0.91,0.35-1.75,0.63-2.8,0.77c-0.42,0.14-0.98,0.21-1.54,0.35c-0.21,0-0.56,0-0.77,0.07
			c-0.63,0-1.26,0.07-1.75,0.14C68.18,60.19,68.04,60.19,67.9,60.19z M53.9,47.1c0.14,0,0.21,0,0.28,0c0.14,0,0.14-0.07,0.14-0.21
			c0.07-0.56,0.07-1.12,0.07-1.68c0-0.28,0-0.63-0.07-0.91c0-0.28-0.07-0.56-0.21-0.77c-0.35-0.56-0.56-1.12-0.63-1.68
			c0-0.49-0.07-0.91-0.14-1.33c-0.07-0.77-0.28-1.47-0.07-2.24c0,0-0.14-0.21-0.21-0.28c-0.07,0.07-0.14,0.21-0.14,0.28
			c0,0.07,0,0.14,0,0.21c0,0.56,0.07,1.19,0.07,1.75c0.07,0.56,0.07,1.12,0.14,1.75c0.14,0.21,0.21,0.42,0.35,0.63
			c0.28,0.35,0.35,0.84,0.35,1.33c0,0.98,0.07,1.89-0.21,2.87C53.55,47.1,53.55,47.1,53.9,47.1z M80.57,9.02
			c-0.14,0-0.14,0.07-0.21,0.07c-0.42,0-0.84,0.07-1.33,0.21c0,0-0.07,0-0.14-0.07c-0.7-0.42-1.54-0.7-2.31-0.91
			c-0.84-0.21-1.68-0.49-2.59-0.63c-0.49-0.07-0.98-0.14-1.54-0.14c-0.63-0.07-1.33-0.14-1.89-0.14c-0.28,0-0.49,0-0.7,0
			c-0.07,0.07-0.28,0.07-0.35,0.07c-0.91-0.07-1.89,0.07-2.87,0.28c-0.98,0.14-1.89,0.42-2.87,0.77c-1.61,0.56-3.15,1.33-4.48,2.45
			c-0.77,0.49-1.47,1.12-2.1,1.82c-0.28,0.35-0.49,0.7-0.63,1.19c-0.14,0.42-0.28,0.98-0.28,1.54c0,0.28-0.14,0.63-0.28,0.91
			c-0.07,0.42-0.14,0.84-0.21,1.33c0,0.35-0.14,0.49-0.28,0.56c-0.49,0.21-1.05,0.28-1.47,0.07c-0.42-0.14-0.56-0.56-0.63-0.84
			c-0.14-0.35-0.14-0.63-0.28-0.98c-0.07-0.49,0.14-0.98,0.35-1.47c0.07-0.28,0.35-0.56,0.63-0.91c0.28-0.28,0.63-0.7,0.91-0.98
			c0.42-0.49,0.84-0.98,1.33-1.33c0.42-0.42,0.91-0.77,1.47-1.19c0.77-0.49,1.61-1.05,2.45-1.47c1.19-0.63,2.45-1.05,3.64-1.4
			c1.47-0.28,3.01-0.63,4.48-0.84c0.56-0.07,1.26-0.14,1.96-0.21c0.49-0.07,1.05-0.07,1.61-0.07c0.14,0,0.35-0.07,0.49-0.07
			c0.7,0.07,1.4,0.07,2.03,0.21c1.4,0.21,2.73,0.56,3.99,0.98c0.7,0.28,1.26,0.56,1.89,1.05C80.36,8.88,80.43,8.95,80.57,9.02z
			 M83.16,9.58c-0.07,0-0.07,0-0.07,0c-0.14-0.07-0.28-0.21-0.49-0.21c-0.21-0.07-0.35-0.07-0.49-0.14
			c-0.21-0.07-0.42-0.14-0.49-0.21c-0.98-0.84-2.1-1.54-3.43-1.89c-0.84-0.21-1.68-0.42-2.52-0.63c-0.49-0.07-0.98-0.07-1.47-0.14
			c-0.98-0.14-1.96-0.21-2.87-0.14c-0.56,0-1.05,0.07-1.47,0.07c-0.21,0.07-0.49,0.21-0.63-0.07h-0.07c0,0.14-0.07,0.21-0.28,0.21
			c-0.63,0.07-1.19,0.21-1.89,0.35c-1.4,0.14-2.87,0.56-4.27,0.98c-0.49,0.14-1.05,0.35-1.47,0.56c-1.19,0.49-2.24,1.05-3.22,1.75
			c-0.56,0.42-1.05,0.77-1.61,1.19c-0.56,0.49-1.12,0.91-1.54,1.4c-0.49,0.56-0.98,1.19-1.4,1.68l-0.07,0.07c0-0.07,0-0.07,0-0.14
			c0.21-1.12,0.77-2.17,1.4-3.15c0.07-0.07,0.14-0.14,0.14-0.28c0.7-0.63,1.4-1.33,2.24-1.89c0.98-0.77,2.1-1.47,3.29-2.03
			c1.4-0.7,2.87-1.26,4.41-1.54c0.77-0.14,1.54-0.35,2.38-0.49c0.42-0.07,0.84-0.07,1.26-0.07c0.14,0,0.28-0.07,0.42-0.07
			c0.14,0,0.21,0.07,0.21,0.07c0,0.07,0.07,0.07,0.07,0.07c0.07-0.28,0.28-0.14,0.35-0.14c0.42,0,0.77,0,1.12,0
			c0.56,0,1.05,0.07,1.61,0.14c0.49,0,0.91,0.07,1.4,0.14c0.7,0.07,1.4,0.28,2.1,0.42c1.05,0.21,2.1,0.56,3.15,0.91
			c0.63,0.28,1.33,0.63,1.96,1.05c0.63,0.35,1.19,0.84,1.68,1.4c0.21,0.21,0.35,0.42,0.56,0.7C83.16,9.51,83.16,9.51,83.16,9.58z
			 M59.22,18.19c-0.14,0-0.21,0-0.35,0c-0.14,0.14-0.28,0.28-0.42,0.42c-0.49,0.7-0.98,1.4-1.4,2.17c-0.35,0.42-0.56,0.84-0.49,1.33
			c0,0.21-0.07,0.42-0.21,0.56c-0.56,0.98-1.33,1.96-2.24,2.66c-0.07,0.07-0.28,0.21-0.42,0.28c0.14,0.14,0.35,0.21,0.42,0.42
			s0.14,0.14,0.28,0c0.42-0.42,0.77-0.91,1.19-1.33c0.28-0.35,0.42-0.63,0.7-0.98c0.21-0.28,0.21-0.56,0.28-0.98
			c0.14-0.7,0.42-1.33,0.77-1.96c0.56-0.77,1.05-1.61,1.68-2.24C59.08,18.47,59.15,18.33,59.22,18.19z M74.27,53.47
			c0.07-0.28,0-0.35-0.28-0.35c-0.35,0-0.77-0.07-1.12,0c-0.56,0.07-1.19,0.07-1.75,0.21c-0.42,0-0.84,0.14-1.26,0.14
			c-0.98-0.07-1.82,0.07-2.66-0.07c-0.42-0.07-0.77-0.07-1.12-0.07c-0.28-0.14-0.49-0.14-0.77-0.21c-0.28,0-0.7-0.07-0.98-0.07
			c-0.28-0.07-0.63-0.07-0.84-0.14c-0.56-0.07-1.12-0.21-1.61-0.42c-1.05-0.21-1.96-0.63-2.8-1.19c-0.77-0.49-1.47-1.19-2.1-1.82
			c-0.56-0.49-0.98-1.05-1.33-1.75c-0.07-0.07-0.14-0.28-0.35-0.14c-0.14,0.07,0,0.21,0,0.28c0.49,0.77,1.05,1.47,1.68,2.1
			c0.21,0.21,0.42,0.49,0.77,0.7c0.56,0.56,1.26,0.98,2.03,1.33c1.19,0.42,2.52,0.84,3.85,1.19c0.7,0.28,1.4,0.35,2.03,0.49
			c0.42,0.07,0.84,0.07,1.33,0.14c0.49,0.07,1.05,0.21,1.61,0.21c0.77,0,1.47-0.14,2.24-0.14c0.28,0,0.56-0.07,0.77-0.07
			c0.42,0,0.7-0.07,1.12-0.07c0.35,0,0.7,0.07,1.05,0.07c0.07,0,0.35,0.07,0.35,0.07c0.14-0.07,0.14-0.28,0.14-0.35
			C74.27,53.47,74.27,53.47,74.27,53.47z M79.45,16.16c-0.14-0.14-0.28-0.21-0.49-0.35c-0.77-0.35-1.54-0.77-2.38-1.12
			c-1.4-0.63-2.87-0.98-4.41-1.05c-1.05-0.07-2.03-0.07-2.94-0.07c-0.63,0-1.19,0-1.82,0.07c-0.28,0-0.7,0-0.98,0.07
			c-0.7,0.21-1.4,0.35-2.1,0.49c-1.19,0.35-2.24,0.7-3.29,1.33c-0.56,0.28-1.19,0.63-1.82,0.77c-0.14,0-0.21,0.07-0.21,0.21
			c0.07,0.21,0.07,0.42,0.21,0.49c0.07,0.07,0.28,0,0.42-0.07c0.49-0.21,1.05-0.42,1.54-0.7c0.77-0.56,1.68-0.91,2.52-1.33
			c0.77-0.21,1.61-0.49,2.38-0.63c0.84-0.14,1.54-0.21,2.31-0.35c0.49-0.07,1.12-0.21,1.68-0.21c0.7,0,1.47,0.14,2.17,0.21
			c0.91,0.07,1.89,0.28,2.73,0.49c0.84,0.28,1.61,0.56,2.38,0.91c0.49,0.21,0.84,0.42,1.33,0.7c0.14,0.07,0.21,0.14,0.35,0.21
			c0.14,0.07,0.21,0.07,0.35,0.07C79.38,16.3,79.38,16.23,79.45,16.16z M83.02,47.31c-0.07,0.07-0.21,0.07-0.28,0.14
			c-0.91,0.28-1.75,0.56-2.52,0.98c-0.28,0.14-0.56,0.35-0.7,0.63c-0.21,0.21-0.35,0.49-0.7,0.77c-0.35,0.28-0.84,0.63-1.33,0.91
			c-0.7,0.42-1.4,0.7-2.1,1.12c-0.14,0.07-0.28,0.07-0.42,0.14c0,0.07-0.07,0.14-0.07,0.21c0.07,0,0.14,0.07,0.21,0.07
			c0.07,0,0.14-0.07,0.14-0.07c1.05-0.49,1.96-0.91,2.87-1.47c0.42-0.21,0.77-0.49,0.91-0.91c0.14-0.21,0.28-0.35,0.42-0.42
			c0.56-0.35,1.12-0.63,1.68-0.84c0.56-0.14,1.12-0.28,1.68-0.49c0.14,0,0.35,0.21,0.42-0.07c0.07-0.21-0.07-0.35-0.14-0.56
			C83.09,47.38,83.09,47.38,83.02,47.31z M78.61,59.28c-0.14,0-0.35,0-0.49,0c-0.07,0-0.14-0.07-0.14-0.07s0.07-0.07,0.14-0.14
			c0.35-0.21,0.63-0.42,0.91-0.63c0.21-0.07,0.35-0.21,0.49-0.21c0.84-0.14,1.75-0.49,2.52-0.98c0.84-0.35,1.26-1.05,1.75-1.89
			c0-0.14,0-0.28,0.14-0.14c0.07,0,0.07-0.07,0.07-0.07c-0.07-0.07-0.07-0.14,0-0.21c0.28-0.49,0.56-0.77,0.98-1.12
			c0.21-0.14,0.42-0.35,0.7-0.49c0.63-0.63,1.19-1.19,1.82-1.82c0.42-0.35,0.77-0.84,1.19-1.26c0,0,0,0,0.07,0v0.07
			c-0.07,0.21-0.14,0.42-0.21,0.56c-0.42,1.19-1.05,2.17-1.75,3.22c-0.28,0.42-0.63,0.84-0.98,1.19c-0.35,0.42-0.7,0.91-1.19,1.26
			c-0.42,0.49-1.05,0.84-1.61,1.26c-0.77,0.56-1.68,0.84-2.59,1.12C79.87,59.21,79.24,59.28,78.61,59.28z M82.32,12.8
			c-0.42,0.07-0.7,0.07-1.05,0.14c-0.28,0-0.49-0.07-0.7-0.07c-0.49,0-0.98-0.07-1.33,0c-0.35,0.07-0.56,0-0.7-0.21
			c-0.35-0.49-0.56-1.12-0.28-1.61c0.28-0.42,0.63-0.63,1.05-0.77c0.7-0.35,1.4-0.35,2.1-0.21c0.35,0.21,0.77,0.35,1.05,0.56
			c1.05,0.56,1.96,1.19,2.87,1.82c0.42,0.21,0.77,0.49,1.19,0.91c0.14,0.28,0.63,0.28,0.91,0.35c0.7,0.14,1.4,0.28,1.96,0.7
			c0.63,0.56,1.26,1.12,1.61,1.82c0.07,0.07,0.07,0.07,0.07,0.14c-0.07,0-0.07,0-0.14,0c-0.42-0.07-0.77-0.14-1.19-0.14
			c-0.14,0-0.14-0.07-0.21-0.14c-0.49-0.7-1.05-1.19-1.68-1.54c-1.05-0.63-2.1-1.12-3.29-1.33C83.79,12.94,83.09,12.8,82.32,12.8z
			 M89.18,48.15c-0.14,0.84-0.42,1.47-0.98,2.03c-0.63,0.7-1.33,1.33-2.03,2.03c-0.42,0.49-0.91,0.84-1.47,1.26
			c-0.07,0.07-0.21,0.14-0.28,0.21c-0.28,0.07-0.49,0.35-0.63,0.63c-0.14,0.28-0.28,0.63-0.49,0.91c-0.14,0.49-0.49,0.84-0.91,1.12
			c-0.7,0.56-1.47,0.91-2.31,1.05c-0.07,0.07-0.07,0-0.14,0l0.07-0.07c0.07-0.21,0.07-0.21-0.14-0.21c-0.14,0-0.14,0-0.21,0
			c-0.07-0.07-0.21-0.07-0.28-0.07c0-0.14,0.21-0.42,0.35-0.42c0.21,0,0.35-0.07,0.56-0.07c0.07-0.07,0.14-0.14,0.14-0.21
			c0.14-0.14,0.28-0.35,0.42-0.42c0.98-0.35,1.89-0.98,2.59-1.82c0.84-0.98,1.54-2.03,1.96-3.29c0.35-0.63,0.56-1.33,0.56-2.1
			c0-0.07,0.07-0.21,0.07-0.28c0.35-0.56,0.49-1.19,0.56-1.82c0.07-0.14,0.14-0.21,0.21-0.28c0.98-0.49,2.03-0.07,2.17,0.98
			C89.04,47.66,89.04,47.87,89.18,48.15z M87.92,22.81c-0.07-0.14-0.14-0.28-0.35-0.35c-0.77-0.84-1.54-1.47-2.31-2.31
			c-0.35-0.28-0.77-0.7-1.33-0.77c-0.14-0.07-0.21-0.14-0.35-0.21c-0.98-0.84-1.75-1.75-2.17-3.01c-0.07-0.07-0.07-0.21-0.14-0.42
			c-0.21,0.07-0.35,0.21-0.49,0.28c-0.21,0.07-0.21,0.07-0.07,0.28c0.56,0.91,1.12,1.82,1.89,2.59c0.14,0.07,0.28,0.14,0.35,0.21
			c0.77,0.28,1.47,0.7,2.03,1.26c0.28,0.28,0.63,0.49,0.91,0.84c0.56,0.56,0.98,1.05,1.54,1.54c0.07,0.07,0.21,0.14,0.35,0.14
			C87.78,22.88,87.85,22.88,87.92,22.81z M82.18,9.86c0.84,0.07,1.68,0.21,2.52,0.49c1.05,0.21,1.96,0.63,2.87,1.05
			c0.42,0.14,0.7,0.42,1.05,0.56c0.07,0.07,0.21,0.07,0.14,0.21c0,0,0,0,0.07,0.07c0.07-0.21,0.14-0.07,0.21,0
			c0.98,0.56,1.75,1.26,2.45,2.03c0.42,0.63,0.98,1.26,1.4,1.96c0.14,0.35,0.28,0.77,0.35,1.26c0.07,0,0.07,0.07,0.07,0.07
			c-0.07,0-0.14,0-0.14,0c-0.28-0.28-0.63-0.49-0.98-0.7c0,0-0.07-0.14-0.07-0.28c-0.56-0.91-1.19-1.68-1.96-2.31
			c-0.56-0.42-1.19-0.63-1.82-0.77c-0.07-0.07-0.21-0.07-0.28-0.07l-0.07-0.07c0-0.14,0-0.21-0.07-0.07c-0.14,0.07-0.28,0-0.42,0
			c-0.63-0.14-0.98-0.56-1.47-0.84c-0.77-0.56-1.54-1.05-2.24-1.61c-0.63-0.28-1.19-0.56-1.75-0.91L81.9,9.86h0.14
			C82.11,9.86,82.18,9.86,82.18,9.86z M89.67,17.14c0.7,0,1.33,0.14,1.82,0.49c0.35,0.21,0.7,0.63,0.98,0.84
			c0.28,0.35,0.49,0.56,0.77,0.84c0.63,0.7,1.33,1.4,1.96,2.1c0.07,0.07,0.14,0.14,0.14,0.35c0.07,0.28,0.42,0.42,0.7,0.56
			c0.35,0.14,0.63,0.21,0.91,0.28c0.14,0.07,0.28,0,0.35,0c-0.07-0.07-0.07-0.28-0.14-0.28c-0.07-0.14-0.28-0.14-0.42-0.21
			c-0.28-0.21-0.63-0.28-0.84-0.56c-0.84-0.91-1.68-1.82-2.59-2.66c-0.35-0.42-0.77-0.77-1.12-1.19c-0.07-0.07-0.07-0.07-0.07-0.14
			c0.07,0,0.07,0,0.07,0.07c0.84,0.21,1.54,0.56,2.24,0.91c0.98,0.56,1.82,1.19,2.73,1.82c0.28,0.28,0.7,0.49,0.98,0.84
			s0.49,0.84,0.28,1.4c-0.14,0.56-0.49,0.7-0.98,0.77c-0.28,0.07-0.63-0.07-0.84-0.21c-0.42-0.21-0.77-0.42-1.12-0.63
			c-0.35-0.35-0.77-0.63-1.19-0.91c-0.77-0.35-1.68-0.84-2.52-1.05c-0.35-0.14-0.77-0.14-1.05-0.21c-0.35-0.07-0.56-0.28-0.84-0.35
			c-0.42-0.14-0.91-0.28-1.33-0.35c-0.35-0.07-0.56-0.42-0.56-0.7c-0.14-0.42-0.07-0.84,0.21-1.26c0.07-0.14,0.35-0.28,0.49-0.28
			C89.04,17.21,89.46,17.14,89.67,17.14z M94.5,45.42c0,0.42-0.07,0.84-0.28,1.19c-0.42,0.63-0.91,1.19-1.26,1.82
			c-0.42,0.42-0.77,0.91-1.26,1.33c-0.28,0.21-0.56,0.49-0.84,0.77c-0.63,0.35-1.26,0.7-1.89,0.91c-0.07,0-0.14,0-0.14,0
			s0-0.07,0-0.14c0.21-0.35,0.42-0.63,0.63-0.84c0.07-0.21,0.14-0.28,0.21-0.35c0.84-0.49,1.54-1.05,2.17-1.82
			c0.49-0.56,0.63-1.26,0.77-1.89c0.14-0.21,0.21-0.49,0.21-0.7c0-0.07,0.07-0.14,0-0.14c-0.07-0.14-0.21-0.42-0.28-0.42
			c-0.14,0-0.14,0.14-0.14,0.35s-0.07,0.42-0.07,0.63c-0.07,0.49-0.28,0.98-0.63,1.33c-0.49,0.63-0.98,1.19-1.61,1.68
			c-0.07,0-0.07,0-0.14,0c0,0-0.07-0.07,0-0.14c0.14-0.35,0.07-0.7,0.07-1.12c0-0.14,0.07-0.21,0.21-0.28
			c0.49-0.42,0.77-0.91,1.12-1.33c0.28-0.49,0.49-0.98,0.84-1.33c0.21-0.42,0.56-0.7,0.98-0.77C94.02,44.02,94.58,44.72,94.5,45.42z
			 M89.04,23.23c0,0.07,0,0.14,0,0.14c0.35,1.05,0.84,2.03,1.33,2.94c0.14,0.21,0.42,0.49,0.7,0.63c0,0,0.07,0,0.14,0
			c0,0,0-0.07,0-0.14s0-0.07-0.07-0.21c-0.7-0.98-1.12-2.17-1.4-3.36c0-0.07,0-0.21-0.07-0.21c-0.14,0-0.35,0.14-0.63,0.14V23.23z"
			/>
	</g>
	<g>
		<path d="M97.51,10.49h7.42v20.37h24.78V10.49h7.42v49.01h-7.42V37.16h-24.78v22.33h-7.42V10.49z"/>
		<path d="M177.31,45.35h-21.56l-5.32,14.14h-7.91l19.81-49.01h8.75l19.88,49.01h-8.26L177.31,45.35z M175,39.12l-6.86-17.99
			c-0.56-1.54-1.05-2.94-1.54-4.41c-0.49,1.47-1.05,2.94-1.68,4.41l-6.79,17.99H175z"/>
	</g>
	<g>
		<path d="M196.21,59.49h-2.03V10.49h2.03V59.49z M198.17,59.49h4.13V10.49h-4.13V59.49z M203.63,31.42v-14.7h2.66v14.7H203.63z
			 M203.63,59.49V37.65h2.66v21.84H203.63z M206.29,16.72h4.13v-6.23h-4.13V16.72z M206.29,37.65h8.12v21.84h-3.99V16.72h3.92v14.7
			h-8.05V37.65z M214.34,10.49v6.23h8.12v14.7h-3.99V10.49H214.34z M214.34,31.42l0.07,6.23h8.05v21.84h-3.99V31.42H214.34z
			 M222.46,37.65h5.18v-6.23h-1.12v-14.7h2.38v-6.23h1.68v49.01h-4.06V31.42h-4.06V37.65z M222.46,16.72h4.06v-6.23h-4.06V16.72z"/>
	</g>
	<g>
		<path d="M236.53,10.49h32.69v6.23h-25.27v14.7h24.01v6.23h-24.01v21.84h-7.42V10.49z"/>
		<path d="M276.85,10.49h7.42v20.37h24.78V10.49h7.42v49.01h-7.42V37.16h-24.78v22.33h-7.42V10.49z"/>
	</g>
	<g>
		<path d="M325.36,50.25c0.7-1.82,1.47-3.71-0.84-4.13c0.7-0.63,1.26-1.19,1.75-1.75c11.13-5.53,11.48-5.04-0.21,3.92
			c13.72-8.4,16.94-9.38,14.35,4.06c-0.98,1.4-2.1,3.08-3.36,5.18c3.08-11.2,1.89-12.39-4.62-6.79c-0.14,0.63-0.77,1.75-1.61,3.15
			c0.84,0,0.14,1.75-0.35,3.08l-0.84,2.24h-7.91C321.72,59.21,323.19,55.5,325.36,50.25z M326.55,18.26
			c4.34,2.03,6.93,2.73,8.12,2.24c5.67,8.82,2.73,10.08-12.39,9.24l-0.42-0.21C333.9,29.11,334.74,26.94,326.55,18.26z
			 M326.48,40.66c-0.84-0.35-2.24-0.56-4.2-0.63c8.54-4.06,9.73-6.3,0.7-10.01c-0.21-0.07-0.42-0.21-0.7-0.28h-0.42l1.12,0.28
			C337.68,33.94,338.17,35.62,326.48,40.66z M327.11,41.01c9.66-2.52,8.96-1.61-0.84,3.36C327.6,42.9,328.02,41.71,327.11,41.01
			c-0.14-0.14-0.35-0.28-0.63-0.35c-1.05,0.42-2.24,0.91-3.5,1.47C324.52,41.71,325.85,41.29,327.11,41.01z M326.27,44.37
			c-0.63,0.28-1.26,0.63-1.96,0.98C325.01,45,325.64,44.72,326.27,44.37z M331.94,50.32c2.1-3.08,2.45-4.06,1.19-3.29
			c0.56-0.21-0.84,1.61-3.92,5.18C330.54,51.16,331.38,50.53,331.94,50.32z M334.67,20.5c0.56-0.28,0.84-0.84,0.77-1.68
			c0-1.47-0.84-3.71-2.24-6.86c5.46,5.39,6.09,3.78,4.62-2.52c0.42,0.63,0.77,1.12,1.12,1.47c3.29,10.78,3.22,13.37-3.5,7.91
			c-1.4-1.19-3.15-2.66-5.18-4.55C332.08,16.65,333.55,18.75,334.67,20.5z M338.94,10.91c0.14,0.14,0.28,0.35,0.42,0.42
			c1.12,1.12,1.26-0.14,0.91-2.8c0.49,0.98,0.84,1.4,0.98,1.33c2.66,10.29,2.45,11.13-1.89,1.47c-0.35-0.63-0.63-1.26-0.91-2.03
			C338.59,9.86,338.73,10.42,338.94,10.91z M343.77,48.78c-0.98,0.63-2.1,1.82-3.36,3.57c-0.35,1.75-0.77,3.71-1.26,5.88
			C340.9,54.31,342.37,51.16,343.77,48.78z M341.25,9.86h0.07c0.07-0.14-0.07-0.7-0.28-1.61c0.49,1.82,1.33,1.89,2.24-0.07
			c1.4,10.71,1.19,11.76-1.96,1.68l-0.42-1.33C340.97,9.02,341.11,9.44,341.25,9.86z M343.42,7.83c0.56,0.77,1.12,1.26,1.61,1.54
			c0.49,7.77,0.14,7.91-1.75-1.19V7.97v0.21C343.35,8.04,343.35,7.9,343.42,7.83z M350.7,59.49c-2.38-8.96-4.13-12.39-6.93-10.71
			c4.27-7.35,7.35-7.42,13.79-1.12c-0.21,0.49,0.77,3.08,3.01,7.84c-0.21-0.7-0.07-0.91,0.98,0.28c-3.01-5.46-3.71-7.21,1.26-0.98
			l-3.64-5.53c1.33,1.4,2.8,3.01,4.41,4.83c-0.14-0.28-0.28-0.49-0.49-0.7c-2.24-2.87-3.78-4.69-4.69-5.46
			c-0.42-0.91,1.05,0.77,4.69,5.46c-9.38-13.86-8.75-14.42,3.08-5.39c-0.14,0.63,0.42,1.75,1.19,2.94
			c-0.07,1.05,0.56,2.66,1.05,3.99c1.12,2.59,1.75,4.27,1.75,4.27h-8.26l-0.84-2.24l-0.42-1.12
			C352.87,45.07,350.98,45.14,350.7,59.49z M345.03,9.37h0.14c0.21,0.14,0.49,0.21,0.77,0.14c0.28,7.7,0.07,7.14-0.77-0.14
			l-0.21-1.61C344.96,8.32,345.03,8.88,345.03,9.37z M345.94,9.51h0.07c0.35,0,0.77-0.28,1.12-0.63
			c-0.07,10.43-0.35,10.15-1.12,0.63c-0.07-0.56-0.14-1.19-0.14-1.82C345.87,8.32,345.87,8.95,345.94,9.51z M348.11,7.48
			c0.21,0.49,0.42,0.84,0.56,1.19c-1.05,12.39-1.33,11.9-1.47,0.21c0-0.42,0-0.84-0.07-1.19v1.19h0.07
			C347.48,8.53,347.76,8.04,348.11,7.48z M348.74,8.74c0.91,1.33,1.61,0.98,1.82-1.05c-0.28,2.52-0.14,2.87,0.7,0.07
			c-0.21,4.27,0.21,5.39,2.17,0.49c-0.42,3.64-0.49,5.88,0.14,6.37C349.09,24.49,348.53,21.83,348.74,8.74
			c0-0.35,0.07-0.7,0.07-1.05l-0.14,0.98C348.74,8.67,348.74,8.74,348.74,8.74z M354.48,14.41c0.77-0.56,1.96-2.1,3.5-4.62
			c-3.36,11.13-2.52,13.02,7.91,5.46c-6.23,8.33-7.63,11.83-2.52,12.88C352.52,29.46,351.47,26.45,354.48,14.41
			c0.42-1.61,0.91-3.36,1.47-5.32c-0.91,2.17-1.75,3.99-2.38,5.53C353.78,14.83,354.06,14.76,354.48,14.41z M367.57,28.55
			c1.54,0,3.36,0,5.46-0.14c-13.23,5.11-12.32,7.42-0.63,12.95c-5.95-0.7-7.98-0.21-7.42,1.54
			C354.41,36.11,354.62,33.8,367.57,28.55c1.47-0.63,3.15-1.26,4.9-1.89c-3.57,0.7-6.58,1.19-9.1,1.47
			C364.49,28.41,365.89,28.48,367.57,28.55z M358.4,47.94c-0.49-0.42-0.77-0.49-0.84-0.28l1.61,1.61
			C358.75,48.64,358.54,48.22,358.4,47.94z M365.54,43.81c0.7,1.05,2.03,2.38,3.92,4.06c-2.24-0.7-3.15-0.56-3.29,0.14
			C355.6,39.82,354.76,38.7,365.54,43.81c1.4,0.63,2.94,1.47,4.76,2.31c-1.96-1.19-3.78-2.24-5.32-3.22
			C365.12,43.18,365.26,43.46,365.54,43.81z M368.13,49.48c-0.7-0.49-1.33-0.98-1.96-1.47C366.8,48.5,367.43,48.99,368.13,49.48z"/>
	</g>
	<g>
		<path d="M375.06,40.52V10.49h7.42v28.98c0,10.15,3.99,14.91,11.55,14.91s11.62-4.69,11.62-14.91V10.49h7.42v30.03
			c0,13.3-7.21,20.09-19.04,20.09C382.13,60.61,375.06,53.82,375.06,40.52z"/>
		<path d="M420.14,43.32h7.63c0.42,7,5.74,11.06,13.02,11.06c7.07,0,11.48-2.94,11.48-8.05c0-4.34-3.43-6.44-9.1-7.63l-7.7-1.68
			c-7.56-1.61-13.65-6.02-13.65-13.65c0-8.19,7.77-14.07,18.34-14.07c11.27,0,18.2,6.09,18.76,15.33h-7.63
			c-0.35-5.32-4.41-9.03-11.41-9.03c-5.95,0-10.43,2.87-10.43,7.14c0,4.06,3.01,6.09,8.47,7.35l8.47,1.82
			c7.77,1.68,13.51,5.95,13.51,13.65c0,8.47-7.07,15.05-19.32,15.05C428.26,60.61,420.49,53.89,420.14,43.32z"/>
		<path d="M468.16,10.49h32.69v6.23h-25.27v14.49h24.22v6.3h-24.22v15.68h26.18v6.3h-33.6V10.49z"/>
	</g>
	<g>
		<path d="M531.44,4.05l15.75,14.07c6.93,6.23,8.61,13.72,2.94,20.02c-4.2,4.76-10.5,4.69-14.7,2.66c3.08,3.99,2.8,9.17-1.47,13.93
			l-8.61,9.59l-5.6-4.9l7.77-8.61c4.69-5.25,4.2-8.68-0.84-13.23l-8.47-7.63l-14,15.54l-5.46-4.97L531.44,4.05z M531.37,33.38
			c4.62,4.06,8.96,4.27,12.32,0.49c3.5-3.78,2.73-8.05-1.82-12.18l-9.03-8.05l-10.43,11.62L531.37,33.38z"/>
	</g>
	<g>
		<path d="M36.05,122.49l-19.18-22.26l-3.57,3.71v18.55H5.95v-49h7.35V94.7c0.84-1.05,1.89-2.1,3.01-3.29l17.22-17.92h9.31
			l-21,21.63l24.15,27.37H36.05z"/>
		<path d="M49.35,103.52V73.49h7.42v28.98c0,10.15,3.99,14.91,11.55,14.91c7.56,0,11.62-4.69,11.62-14.91V73.49h7.42v30.03
			c0,13.3-7.21,20.09-19.04,20.09C56.42,123.61,49.35,116.82,49.35,103.52z"/>
	</g>
</g>
<g>
	<path d="M91,122.35l0.21-0.77l-0.07-0.49l0.21-0.77l0.21-0.28l0.28-0.77l0.84-0.98l1.05-0.63l0.42-0.28l0.77-0.35l0.35-0.7
		l0.63-0.7l0.42-0.21l1.05-0.91l0.35-0.14l0.56-0.35l0.7,0.07l1.05-0.21l0.49-0.14l0.56-0.14l0.77,0.21l0.35-0.14h0.7l0.42-0.07
		l0.49-0.14l1.12-0.14l0.77,0.07l0.56,0.21l0.42-0.07l1.12,0.28h0.49l0.63,0.07l0.14-0.14l-0.28-0.91l-0.07-0.49v-0.56l-0.21-0.84
		l-0.14-0.98l0.07-0.56l-0.21-0.7l0.07-0.35v-0.42l-0.28-0.63l0.21-0.98l-0.07-0.63l-0.28-0.77l0.28-0.42l-0.07-0.42l-0.14-0.63
		l0.07-0.56l0.14-0.56l-0.14-0.77l-0.07-0.7l-0.28-0.56l0.14-0.63l-0.07-0.28v-0.7l-0.07-0.63l0.07-0.42l-0.07-0.77v-0.91
		l-0.21-0.42v-0.7l0.14-1.12l-0.07-0.56l-0.07-0.42l0.14-0.63l-0.28-0.7l0.35-0.56l-0.07-0.84v-0.49h-0.07l-0.21-0.07l-0.77,0.14
		h-1.26l-0.49-0.35l-0.98-0.42l-0.77-0.28l-0.28-0.14l-0.7-0.07l-0.42-0.42l-0.98-0.42L100.24,87l-0.56-0.28l-0.49-0.49l-0.42-0.49
		l-0.21-0.56l-0.28-0.49l-0.21-0.35l-0.35-1.26l-0.07-0.63l-0.14-0.98l0.14-0.56l-0.14-1.05l0.07-0.49l0.14-0.7l0.7-0.98l0.14-0.35
		l0.07-0.42l0.35-0.49l-0.28-0.28l-0.28-0.42l-0.77-0.49l-0.84-0.7l-0.49-0.14l-0.42-0.56L94.99,73l-0.14-0.63l-0.63-0.63l0.14-0.49
		l-0.14-0.7l0.14-1.12l-0.07-1.33l0.14-0.42l0.21-0.84l0.21-0.35L95.34,66l0.77-1.05l0.63-0.63l0.56-0.63l0.42-0.14l0.42-0.42
		l1.05-0.63l0.42-0.28l0.63-0.35l1.33-0.42l0.42-0.14l0.7-0.07l0.77-0.21l1.05-0.07h0.56l0.35-0.14l1.26,0.28l0.35-0.07l0.77,0.14
		l0.7-0.56l0.21-0.21l0.28-0.35l0.91-0.91l0.35-0.21l0.35-0.35l1.68-1.26l0.49-0.07l0.7-0.28l0.98-0.21l0.7-0.28h0.49l0.7,0.07
		l0.42-0.14h0.91l1.05,0.42l0.7-0.07l0.42,0.42l0.42,0.14l0.56,0.28l0.63,0.49l0.21,0.28l0.42,0.42l0.91,0.84l0.14,0.56l0.35,0.56
		l0.28,0.63l0.35,1.05l0.28,0.91l0.07,0.91v0.56l0.21,0.91l-0.21,0.56l-0.07,0.35v0.7l-0.56,1.05l-0.07,0.77l-1.05,0.77l-0.14,0.28
		l0.21,0.21l0.56,0.7l0.21,0.35l0.42,0.35l0.42,0.42l0.42,0.49l0.21,0.77l0.42,0.91l0.07,0.35l0.35,0.63l0.07,0.42l0.35,0.56
		l0.28,1.05l-0.14,0.49l0.14,0.7l-0.14,0.63v0.49L126,80.49l-0.21,0.35l-0.14,0.49l-0.91,0.98l-0.35,0.49l-0.49,0.28l-0.42,0.49
		l-0.7,0.42l-0.42,0.28l-2.03,0.49l-0.63-0.07l-0.42-0.14l-0.84,0.28l-0.28,0.35l-0.14,0.56l0.21,0.42l0.14,0.56l-0.28,0.77
		l-0.21,0.56l-1.12,0.84l-0.84,0.77l-0.21,0.14l-0.7,0.35l-0.7,0.28l-0.07,0.98l-0.07,0.42l0.14,0.35l0.07,0.77l-0.14,0.49
		l0.21,0.42l0.07,0.7l-0.14,0.77v0.28l0.21,1.26l-0.14,0.63l-0.07,0.49l0.14,0.49l0.14,0.35l-0.14,0.84l0.07,0.42l-0.07,0.56
		l0.14,0.56l-0.14,1.26l-0.07,0.42v0.49l0.07,0.49l0.07,0.56l0.21,0.56l-0.14,0.63l0.14,1.19v0.56l0.21,0.56l-0.14,0.56l0.07,0.42
		l0.07,0.49l0.07,1.05l0.21,0.56l0.28,1.26l0.07,0.7l0.21,0.56l0.28,0.91l0.28,0.63l0.28,0.21l0.42,0.42l0.56,0.28l0.42,0.35
		l0.91,0.35l0.63,0.35l1.05,0.21l0.63,0.14l1.4,0.35l0.63-0.14l0.56,0.28l0.63-0.07l0.56,0.14l0.98,0.21l0.56,0.07h0.49l0.63,0.21
		l0.56-0.07l0.49,0.21l1.68,0.21l0.56,0.14h0.63l0.63,0.14l0.56,0.14l0.42,0.07l0.56-0.14h0.98l0.49,0.28l0.63,0.07h0.42l0.84-0.07
		l0.56,0.14l0.56,0.21l0.28-0.07h0.77l0.42,0.14l0.63-0.07l0.49,0.14l0.21,0.07l0.91,0.21h1.33l0.42,0.14l0.98-0.14l0.28,0.14
		l0.42-0.07l0.56,0.14h0.77l0.56,0.28l0.63,0.07l0.77-0.07l0.63,0.14l0.56,0.35l0.7,0.35l0.63,1.05l0.28,0.28l0.21,0.91l-0.07,0.77
		l-0.49,0.56l-0.42,0.49l-0.98,0.77l-0.7,0.07l-0.42,0.14l-0.56,0.14l-0.49,0.28l-0.77-0.28l-0.35,0.07l-0.77,0.14l-0.91-0.21
		l-0.63,0.28l-0.56-0.28l-0.49,0.07l-0.7-0.07l-0.98-0.14l-0.42,0.21l-1.19-0.28l-0.56-0.07l-0.56-0.21l-0.35-0.07l-0.7-0.07
		l-0.42-0.14h-0.63l-0.56-0.07h-0.56l-0.63-0.07l-0.56,0.07l-0.77-0.14l-0.42-0.14l-0.42-0.07l-0.63-0.14l-0.49,0.14l-0.77-0.21
		h-2.24l-0.7-0.21l-1.12-0.42l-0.35-0.07l-0.84-0.14l-0.56-0.21l-0.98,0.07l-0.56-0.21l-0.56,0.14l-0.77-0.21l-0.49-0.14h-0.63
		l-1.19-0.07l-0.49-0.28l-0.84-0.49l-0.42-0.07l-0.49-0.14l-0.42-0.07l-0.35-0.14l-0.21,0.28l-0.35,1.4l-0.07,0.7l-0.21,0.63
		l-0.63,1.05l-0.42,1.05l-0.35,0.77l-0.7,0.42l-0.98,0.7l-0.84,0.7l-0.49,0.56l-0.49,0.49l-0.42,0.14l-1.26,0.63l-0.42,0.07
		l-0.56,0.35l-0.49,0.07l-0.7,0.21l-0.35,0.14l-1.12,0.14l-1.12,0.42h-1.05l-0.91,0.28h-0.77l-0.56-0.14l-1.12-0.21l-0.7-0.28
		l-0.35-0.28l-0.63-0.07l-0.7-0.56l-0.63-0.21l-0.91-0.42l-0.56-0.28l-0.91-0.84l-0.42-0.56l-1.05-0.84l-0.21-0.63l-0.35-0.91
		l-0.28-0.42l-0.14-0.56l-0.49-0.49l-0.07-0.63l-0.21-0.35l-0.21-0.77l-0.28-0.98v-0.56L91,122.35z M97.93,122.63l0.14,0.77
		l0.21,0.56l0.21,0.42l0.07,0.42l0.21,0.35l0.49,0.07l0.84,0.49l0.77,0.42l0.49,0.28l0.42,0.14h0.28l0.56,0.07l1.05,0.07l0.63,0.07
		l0.42-0.21l0.28-0.28l1.54-0.7l0.56-0.42l0.7-0.35l0.91-0.49l0.63-0.91l0.21-0.42l0.14-0.56l0.14-0.49l0.07-0.42v-0.49h-0.28
		l-0.49-0.07l-0.63-0.14l-0.91-0.35l-0.63-0.21h-1.12l-0.98-0.07h-0.49l-0.7,0.21l-0.7-0.07l-0.98,0.21l-0.49-0.14l-0.91,0.49
		l-0.63,0.14l-0.49,0.28l-0.42,0.35L98.7,122l-0.56,0.49L97.93,122.63z M100.52,69.29l0.07,0.63v0.21l0.7,0.77l0.49,0.42l0.91,0.42
		l0.42,0.35l0.49,0.14l0.49,0.28l0.35,0.07l1.19,0.35l0.35,0.07l0.21-0.21l0.63-0.91l0.63-0.63l0.07-0.14v-0.7l-0.28-0.21
		l-0.77-1.33l-0.14-0.28l-0.84-0.91l-0.21-0.35L105,67.19l-0.49-0.07l-0.42-0.14l-0.77,0.14l-0.42,0.14l-0.35,0.42l-0.63,0.14
		l-0.35,0.28l-0.42,0.35l-0.49,0.28L100.52,69.29z M104.02,81.12l0.07,0.56l0.42,0.28l0.91,0.56l0.56,0.07l0.49,0.28l1.12,0.35
		l0.35,0.07l0.56-0.14l0.42-0.14l0.56-0.35l0.28-0.21l0.21-0.49v-0.91l-0.28-0.42l-0.63-1.12l-0.35-0.35l-0.63-0.91l-0.7,0.28
		l-1.33,0.07l-0.56,0.14l-0.63,0.14l-0.56,0.98L104.02,81.12z M112.14,70.83l0.07-0.07l0.56,0.21l0.7-0.84l0.42-0.56l0.35-0.28
		l0.42-0.42l0.49-0.28l0.77-0.84l0.42-0.21l0.28-0.35l0.49-0.35l0.77-0.91l0.21-0.91l-0.07-0.35l-0.28-1.05l-0.28-0.42h-0.21
		l-1.19-0.14l-0.77,0.14l-0.63,0.42l-0.84,0.91l-0.35,0.35l-0.07,0.35L113.19,66l-0.7,1.82L112.14,70.83z M119.63,78.04l0.14-0.77
		l-0.35-0.35l-0.35-0.28l-0.63-0.49l-0.42-0.49h-0.14l-1.19-0.49l-0.28-0.07l-0.49,0.07l0.14,0.56l-0.28,0.49v0.7l-0.28,0.63
		l-0.07,0.49l-0.07,0.56l1.4,0.28l0.49,0.07l0.7-0.07l0.63-0.28l0.35-0.07l0.56-0.28L119.63,78.04z"/>
</g>
<g>
	<path d="M153.16,79.72h-16.73v-6.23h40.81v6.23h-16.66v42.77h-7.42V79.72z"/>
	<path d="M182.77,103.52V73.49h7.42v28.98c0,10.15,3.99,14.91,11.55,14.91c7.56,0,11.62-4.69,11.62-14.91V73.49h7.42v30.03
		c0,13.3-7.21,20.09-19.04,20.09C189.84,123.61,182.77,116.82,182.77,103.52z"/>
</g>
<g>
	<path d="M228.69,72.23h22.4c9.94,0,16.8,4.9,16.8,14.14c0,5.53-3.15,9.52-6.93,11.76c3.71,1.96,5.95,5.95,5.95,11.41v14.21h-9.94
		v-12.81c0-6.44-1.82-8.05-8.19-8.05h-10.15v20.86h-9.94V72.23z M236.11,121.23v-20.86h12.67c7.49,0,10.71,2.73,10.71,10.57v10.29
		h4.9v-11.69c0-5.88-2.52-9.24-6.93-10.01l-0.21-2.52c4.2-1.33,8.12-4.9,8.12-10.64c0-7.77-5.39-11.62-14.28-11.62h-19.88v46.49
		H236.11z M236.11,78.46h13.37c6.79,0,10.78,3.08,10.78,9.03c0,5.95-3.99,9.1-10.78,9.1h-13.37V78.46z M257.74,87.49
		c0-4.55-2.52-6.51-8.26-6.51h-10.85v13.09h10.85C255.22,94.07,257.74,92.04,257.74,87.49z"/>
</g>
<g>
	<path d="M287.07,79.72h-16.73v-6.23h40.81v6.23h-16.66v42.77h-7.42V79.72z"/>
	<path d="M341.11,108.35h-21.56l-5.32,14.14h-7.91l19.81-49h8.75l19.88,49h-8.26L341.11,108.35z M338.8,102.12l-6.86-17.99
		c-0.56-1.54-1.05-2.94-1.54-4.41c-0.49,1.47-1.05,2.94-1.68,4.41l-6.79,17.99H338.8z"/>
</g>
<g>
	<path d="M391.93,111.57c0.63-0.49,1.12-0.84,1.75-1.26c0.28-0.35,0.63-0.63,0.91-0.98c0.14-0.56,0.63-0.77,0.91-1.19
		c0.35-0.35,0.91-0.63,1.26-0.63c0.77-0.14,1.54,0.14,2.17,0.49c0.14,0.14,0.28,0.42,0.28,0.56c0.14,0.35,0.14,0.84,0.14,1.26
		c-0.56,0.63-1.05,1.26-1.54,1.89c-0.56,0.77-1.19,1.4-2.1,1.82l-0.07,0.14c-0.42,0.49-0.91,0.77-1.4,0.98
		c-0.28,0.14-0.56,0.42-0.77,0.63c-0.56-0.21-1.05-0.21-1.54-0.21c-0.56,0.14-1.05,0.21-1.54,0.35c-0.42-0.35-0.91-0.63-1.26-0.91
		c-0.7-0.35-1.19-0.84-1.68-1.47c-0.28-0.42-0.42-1.05-0.28-1.54c0-0.42,0.14-0.7,0.14-0.91c0-0.42-0.28-0.63-0.49-0.63
		c-0.91,0.14-1.68-0.14-2.45-0.28c-0.91-0.14-1.82-0.35-2.59-0.77c-0.84-0.35-1.47-0.98-1.89-1.89c-0.14-0.42-0.35-0.63-0.28-1.19
		c0.14-0.14,0-0.49-0.07-0.77c-0.14-0.21-0.14-0.63,0-0.84c0.07-0.28,0.07-0.56,0.07-0.77c-0.07-0.42,0-0.77,0.14-1.19
		c0.14-0.63,0.42-1.12,0.63-1.68c0.28-0.35,0.56-0.77,0.91-0.98c0.28-0.28,0.42-0.49,0.63-0.77c0.91-1.19,1.96-1.68,3.36-1.4
		c0.63,0.14,1.26,0.14,1.89,0.21c0.63,0.14,1.26,0.28,1.82,0.56c0.77,0.14,1.12,0.14,1.89,0c0.77-0.63,0.91-1.4,1.05-2.31
		c0-0.49,0.14-0.91,0.35-1.19c0.28-0.21,0.42-0.49,0.49-0.63c0.14-0.21,0.14-0.35,0.28-0.49c0.63-0.63,1.26-1.12,1.96-1.82
		c0.63-0.49,1.4-0.63,2.03-0.98c0.35-0.28,0.91-0.42,1.4-0.49c0.63,0.21,1.4,0.49,2.17,0.63c0.49,0,0.98,0.35,1.54,0.63
		c0.21,0.21,0.63,0.49,0.91,0.77c0.49,0.49,0.7,1.12,0.84,1.89c0,0.63,0,1.26-0.14,1.96c0,0.63-0.21,1.12-0.49,1.61
		c-0.35,0.56-0.35,1.19-0.63,1.82c0,0.21,0,0.63,0.28,0.91c0.14,0.07,0.21,0.35,0.21,0.49c0.28,0.35,0.56,0.63,0.91,0.63
		c0.42-0.14,0.91-0.14,1.26-0.14c0.56,0,0.91,0,1.33,0c0.35,0.14,0.63,0.14,0.84,0c0.7-0.14,1.19-0.14,1.68,0
		c0.49,0.14,1.05,0,1.54,0c0.77,0.91,1.54,1.54,2.45,2.03c0.35,0.42,0.77,0.77,1.12,1.05c0.14,0.42,0.14,0.63,0.14,0.91
		c0.14,0.35,0.28,0.63,0,0.98c0,0.14,0,0.28-0.14,0.42c0,0.14,0,0.28,0,0.35c0.14,0.42-0.14,0.7-0.21,1.05
		c-0.28,0.35,0.21,0.63,0.07,1.12c-0.07,0.42-0.21,0.91-0.35,1.33c0,0.07-0.14,0.21-0.14,0.35c0.14,0.63-0.28,1.19-0.49,1.68
		c-0.28,0.35-0.63,0.77-0.63,1.4v0.14c-0.63,0.63-0.91,1.4-1.68,1.89l-0.14,0.14c-0.49,1.05-1.4,1.26-2.31,1.82
		c-0.35,0.21-0.77,0.35-1.12,0.49c-0.63,0.14-1.4,0.28-2.03-0.14c-0.14-0.14-0.28-0.14-0.56-0.28c-0.14-0.07-0.21-0.21-0.49-0.21
		c-0.91-0.28-1.82-0.28-1.89,0.98c-0.14,0.28-0.14,0.42-0.28,0.63c-0.14,0.28-0.28,0.7-0.28,1.05c0,0.28-0.14,0.49-0.21,0.63
		c0,0.14-0.14,0.28-0.14,0.42c0.14,0.63-0.28,1.12-0.49,1.75c-0.28,0.42-0.56,0.91-0.7,1.4c-0.07,0.42-0.35,0.56-0.49,0.91
		c-0.49,1.19-1.05,2.17-1.75,3.22c-0.7,0.91-1.54,1.61-2.73,1.89c-0.49,0.14-0.91,0.28-1.26,0.28c-0.28,0-0.49,0-0.63-0.14
		c-0.56-0.14-1.05-0.28-1.54-0.42c-0.77-0.07-1.4-0.49-1.96-0.98c-0.07-0.14-0.21-0.28-0.35-0.28c-0.77-0.49-1.05-1.26-1.05-2.03
		c0-0.28-0.07-0.35-0.07-0.49c-0.28-0.77-0.42-1.68-0.56-2.45c0-0.28,0-0.49,0.14-0.77c0.14-0.63-0.28-1.05-0.91-1.12
		c-0.49,0.21-0.98-0.14-1.54,0c-0.21,0-0.49-0.14-0.84-0.28c0,0.14-0.14,0.35-0.28,0.49l-0.14,0.14c-0.91,0-1.26,0.63-1.54,1.26
		c-0.35,0.91-0.63,1.82-0.98,2.59c-0.56,0.91-1.05,1.75-1.96,2.45c-0.35,0.07-0.63,0.49-0.98,0.77c-0.56,0.21-0.91,0.63-1.4,0.84
		c-0.42,0.28-0.77,0.56-1.19,0.42c-0.35,0-0.49,0.21-0.77,0.35c-0.77-0.14-1.54-0.14-2.17-0.21c-0.49-0.14-0.91-0.42-1.26-0.42
		c-0.63-0.14-1.05-0.35-1.54-0.77c-0.28-0.14-0.49-0.35-0.77-0.63c-0.14,0-0.28-0.14-0.35-0.28c-0.7-0.21-0.91-0.84-1.19-1.54
		c-0.49-0.98-0.63-2.17-0.35-3.29c0.21-1.26,0.84-2.31,1.4-3.43c0.14-0.28,0.21-0.56,0.35-0.77c0-0.28,0.14-0.56,0.28-0.91
		c0.14-0.28,0.14-0.63,0-1.05c-1.4-0.21-2.66-0.35-4.2-0.21c-0.42-0.56-0.91-0.56-1.4-0.56c-0.77-0.07-1.47-0.07-2.1-0.35
		c-0.98-0.28-1.89-0.63-2.8-0.91c-0.28-0.14-0.49-0.49-0.77-0.49c-0.35-0.14-0.63-0.28-0.91-0.49c-0.07-0.14-0.21-0.28-0.35-0.42
		c-0.49-0.28-0.91-0.63-1.19-1.05c-0.49-0.7-0.98-1.4-1.4-2.17c-0.07,0-0.07-0.07-0.07-0.07c0-0.77-0.28-1.33-0.28-1.96
		c0-0.77,0-1.4,0.14-1.89c0.35-0.63,0.77-1.19,0.98-1.68c0.77-0.98,1.68-1.75,2.73-2.31c0.77-0.21,1.4-0.49,2.17-0.91
		c0.14,0.14,0.35,0.28,0.49,0.42c0.28,0,0.49,0,0.77,0c0.49,0.14,1.05,0.14,1.4,0.28c0.49,0.07,0.77,0.07,1.19-0.14
		c0.21-0.14,0.49-0.14,0.84-0.28c0-0.14,0-0.35,0-0.49c-0.35-1.05-0.77-1.96-1.75-2.59c-0.63-0.21-1.19-0.63-1.54-1.12
		c-0.49-0.77-1.4-1.19-1.96-1.82c-0.07-0.35-0.35-0.77-0.49-0.98c-0.91-1.96-0.77-3.71,0.28-5.39c0.14-0.28,0.21-0.35,0.35-0.63
		c0.77-0.63,1.4-1.26,2.17-1.89c0.28-0.14,0.42-0.28,0.63-0.42c0.14-0.14,0.42-0.28,0.56-0.35c0.63-0.7,1.4-1.19,2.17-1.47
		c0.63-0.21,1.12-0.35,1.75-0.35c0.28,0,0.56,0,0.63,0c0.42-0.14,0.7,0,1.05,0c0.49,0.14,1.05,0.35,1.68,0.35
		c0.14,0,0.35,0.14,0.49,0.28c0.77,0.49,1.54,0.63,2.45,0.63c0.49,0.14,0.91,0.28,1.4,0.28c0.35-0.14,0.77-0.14,1.26,0
		c0.14,0,0.28,0,0.42,0c0-0.14,0.07-0.14,0.07-0.14c0-0.14-0.07-0.14-0.07-0.28c-1.19-0.63-2.17-1.4-3.22-2.24
		c-0.28-0.42-0.49-0.7-0.91-0.77c0-0.56,0-0.56-0.35-0.91c-0.42-0.42-0.63-0.91-0.77-1.4c-0.14-0.14-0.14-0.42-0.14-0.42
		c-0.49-0.35-0.42-0.98-0.42-1.4c0.14-1.26,0.56-2.31,1.19-3.29c0.35-0.42,0.49-0.91,0.77-1.4c0.49-0.28,1.12-0.42,1.54-0.91
		c0-0.14,0.21-0.14,0.35-0.28c0.14,0,0.42,0,0.63-0.14c0.56-0.49,1.33-0.35,2.1-0.49c0.21,0,0.49,0.14,0.77,0
		c0.21,0,0.35,0,0.63,0.14c0.21,0.14,0.63,0.28,0.84,0.28c0.56,0,1.05,0,1.47,0.35c0.49,0.28,1.12,0.42,1.75,0.14
		c0.49,0.49,1.05,0.91,1.68,0.98c0.35,0.14,0.91,0.28,1.12,0.77h0.14c0.77,0.14,1.54,0.56,2.45,0.42c0.14-0.28,0.21-0.63,0.35-1.05
		c-0.21-0.49-0.49-0.98-0.77-1.54c-0.63-0.84-0.77-1.75-0.63-2.8c0.28-0.91,0.49-1.68,1.05-2.38c0.21-0.42,0.63-0.77,1.12-1.05
		c1.19-0.91,2.59-1.19,3.99-1.4c0.91,0,1.68-0.14,2.52,0.14c0.63,0.07,1.54,0.07,2.31,0.21c0.77,0.77,1.82,1.33,2.59,2.17
		c0.21,0.42,0.49,0.77,0.63,1.19c0.35,0.91,0.63,1.75,0.21,2.8c0,0,0,0.14,0,0.28c0.14,0.77-0.07,1.4-0.21,2.17
		c0.14,0.21,0.35,0.07,0.49,0c0.28-0.42,0.49-0.77,0.77-1.33c0.42-0.77,0.77-1.4,1.26-2.03c0.28-0.21,0.56-0.35,0.77-0.63
		c0.91-0.35,1.96-0.63,2.94-0.91c0.28-0.14,0.63-0.14,0.91-0.14c0.49-0.07,1.05-0.07,1.54-0.07c0,0,0.14,0,0.28,0
		c1.4,0.21,2.66,0.77,3.71,1.61c0.21,0.63,0.77,1.05,1.12,1.4c0.14,0.28,0.35,0.56,0.49,0.7c0.28,0.35,0.42,0.63,0.42,1.12
		c0,0.14,0.14,0.35,0.21,0.63c0.14,0.28,0.14,0.49,0.28,0.77c-0.28,0.42-0.77,0.49-0.63,1.05c-0.63,0.77-1.05,1.61-1.68,2.31
		c-0.35,0.49-0.77,0.98-1.26,1.47c-0.49,0.56-0.77,1.05-0.91,1.68c-0.14,0.14-0.35,0.14-0.49,0.28c-0.28,0-0.49,0-0.77,0.14
		c-0.91,0.07-0.91,0.07-1.68-0.14c-0.49,0-0.63-0.42-0.77-0.77c-0.14-0.28-0.14-0.49-0.21-0.77c0.35-0.28,0.21-0.91,0.49-1.19
		c0-0.84,0.49-1.26,0.98-1.89c0.42-0.49,0.77-1.05,1.19-1.4c0.49-0.49,0.77-1.12,1.12-1.82c0-0.07,0-0.35-0.21-0.35
		c-0.42,0.14-0.63-0.28-0.77-0.49c-0.14-0.28-0.42-0.42-0.56-0.56c-0.21-0.21-0.49-0.21-0.84-0.07c-0.63,0.21-1.33,0.07-2.1,0.21
		c-0.77,0.91-1.47,1.82-2.03,2.94c-0.14,0.42-0.35,0.49-0.63,0.77c-0.28,0.28-0.49,0.42-0.63,0.63c-0.14,0.14-0.28,0.42-0.42,0.63
		c-0.35,0.14-0.98,0-0.98,0.7c-0.49,0-0.91-0.14-1.19-0.28c-1.12-0.28-2.03-0.77-2.8-1.54c-0.14-0.14-0.21-0.28-0.35-0.42
		c-0.28-0.35-0.49-0.7-0.63-1.12c-0.28-0.49-0.56-1.05-0.63-1.4c0.07-0.91,0.35-1.82,0.49-2.66c0.14-0.56-0.14-1.05-0.42-1.54
		c-0.07,0-0.07-0.14-0.21-0.14c-0.56-0.14-1.05-0.49-1.54-0.49c-0.14,0-0.14,0-0.28,0c-0.77-0.42-1.54,0-2.31,0.35
		c-0.49,0.28-1.12,0.49-1.54,1.19c0,0.49,0.14,0.98,0.56,1.47c0.35,0.56,0.63,1.19,0.63,1.82c0,0.35,0.21,0.63,0.21,0.91
		c-0.07,0.63-0.07,1.12-0.35,1.61c-0.28,0.56-0.49,1.05-0.77,1.54c-0.28,0.28-0.49,0.56-0.91,0.7c-0.63,0.21-1.4,0.49-2.03,0.63
		c-0.28,0-0.35,0-0.49,0.07c-0.28,0.42-0.63,0.42-1.05,0.28c-0.35,0-0.77,0-1.12,0c-0.14-0.14-0.42-0.14-0.56-0.28
		c-0.77-0.63-1.75-0.98-2.52-1.4c-0.49-0.21-1.05-0.35-1.54-0.49c-0.35-0.14-0.77-0.14-1.12-0.35c-0.7-0.42-1.33-0.56-2.1-0.56
		c-0.63,0-1.61,0.14-2.17,0.63c-0.14,0-0.14,0.14-0.21,0.14c-0.14,0.56-0.42,1.05-0.63,1.54c0,0.28,0,0.49,0,0.77
		c0.07,0.42,0.63,0.42,0.7,0.77c0.14,0.42,0.42,0.49,0.7,0.91c0.07,0.28,0.21,0.35,0.63,0.49c0.91,0.42,1.61,1.19,2.66,1.54
		c0.14,0,0.28,0.14,0.28,0.28c0.21,0.21,0.49,0.49,0.77,0.63c0.49,0.14,0.77,0.49,0.84,0.91c0.28,0.21,0.42,0.63,0.28,1.12
		c-0.14,0,0,0.14,0,0.14c-0.14,0.77-0.35,1.26-0.77,1.75c-0.35,0.42-0.35,0.42-0.49,0.91c-0.28,0.14-0.49,0.14-0.77,0.42
		c-0.49,0.21-1.05,0.49-1.68,0.49c-0.35,0-0.91,0-1.26,0.14c-0.49,0.14-1.19,0.14-1.68,0.14c-1.75-0.28-3.43-0.56-5.25-0.77
		c-0.14,0-0.35-0.14-0.49-0.14c-1.12-0.77-2.03-0.77-3.43,0.14c-0.63,0.35-1.33,0.91-1.82,1.26c-0.77,0.49-1.12,1.26-1.4,2.03
		c-0.14,0.14-0.14,0.42-0.14,0.49c0.14,0.42,0.28,0.77,0.42,1.19c0.14,0.14,0.21,0.28,0.35,0.35c0.56,0.28,0.91,0.77,1.4,1.19
		c0.56,0.63,0.56,0.63,1.4,0.77c0,0.21-0.07,0.49,0.14,0.63c0.56,0.35,1.05,1.05,1.4,1.68c0.14,0.07,0.42,0.21,0.42,0.35
		c0.14,0.42,0.21,0.77,0.35,1.26c0.14,0.28,0.56,0.56,0.56,1.05c0,0.14,0,0.28,0,0.35c-0.14,1.05-0.42,1.96-0.77,2.87
		c-0.42,0.49-0.77,0.84-1.4,0.84c-0.42,0.14-0.7,0.28-1.05,0.42c-0.49,0.14-1.19,0.28-1.68,0.28c-0.49,0-1.12,0.21-1.68,0
		c-0.35,0-0.63,0-0.98-0.14c-0.28,0-0.49-0.28-0.77-0.42c-0.28,0.28-0.49,0.42-0.77,0.63c-0.14,0.28-0.42,0.42-0.63,0.56
		c-0.91,0.63-1.19,1.54-0.91,2.52c0.14,0.77,0.49,1.26,1.12,1.82c1.05,0.77,2.17,1.12,3.36,1.54c0.35,0.07,0.77,0.07,1.12,0.07
		c0.56-0.07,0.91,0.14,1.19,0.42c0.35-0.14,0.63-0.42,0.91,0c0.77-0.14,1.47,0.28,2.38,0.28c0.14,0,0.28,0,0.42-0.14
		c0.21,0,0.49,0,0.84,0.14c0.28,0.07,0.7,0.07,1.05,0.07c0.49,0,0.91,0.14,1.4,0.42c0.42,0.28,0.77,0.49,1.26,0.91
		c0.14,0.49,0.28,0.98,0.42,1.54c0,0.07,0,0.35-0.14,0.49c-0.14,0.14-0.14,0.35-0.14,0.63c0.28,0.91-0.14,1.68-0.35,2.59
		c-0.56,0.84-1.05,1.89-1.4,2.8c-0.14,0.21-0.14,0.49-0.14,0.77c0,0.63,0.14,1.26,0.14,1.89c0.35,0.28,0.63,0.49,0.98,0.77
		c0.28,0.14,0.56,0.28,0.91,0.35c0.91,0.14,1.68-0.21,2.31-0.84c1.05-0.91,1.68-2.17,2.31-3.36c0.21-0.49,0.49-1.12,0.77-1.61
		c0.35-0.77,1.12-1.54,1.89-2.1c0.77-0.49,1.82-0.84,2.73-1.12c0.21,0,0.49-0.14,0.7-0.14c0.28-0.14,0.42-0.14,0.7-0.14
		c0.49,0,0.98,0.14,1.61,0.28c1.05,0.14,2.1,0.63,2.94,1.12c0.28,0.14,0.56,0.28,0.77,0.42c0.28,0.35,0.14,0.77,0.63,1.12
		c0.14,0.14,0.28,0.56,0.42,0.77c0.14,0.77,0.49,1.54,0.35,2.31c0,0.28,0,0.49,0,0.77c0.14,0.35,0.14,0.77,0.28,1.12
		c0.14,0.7,0.28,0.77,0.91,0.91c0.14,0,0.21,0,0.49,0c0.14-0.14,0.28-0.21,0.42-0.49c0.49-0.77,0.98-1.54,1.47-2.45
		c0.28-0.21,0.42-0.49,0.7-0.91c0,0,0.07-0.07,0.07-0.21c0.14-0.56,0.28-0.91,0.56-1.26c0.35-0.56,0.35-1.05,0.63-1.68
		c0.14-0.42,0.28-0.91,0.35-1.4c0-0.77,0.42-1.33,0.63-1.96c0.14-0.35,0.42-0.77,0.56-1.12c0.35-0.63,0.91-1.05,1.54-1.4
		c0.63-0.28,1.26-0.56,1.75-0.63c0.63-0.14,1.4-0.14,1.96,0.21c0.21,0.28,0.63,0.28,0.84,0.28c0.42,0,0.91,0.14,1.19,0.63
		c0.14-0.14,0.35-0.14,0.49-0.28c0.63-0.77,1.4-1.4,1.82-2.24c0.35-0.77,0.63-1.54,0.84-2.45c0.28-0.63,0.42-1.26,0.42-1.89
		c0-0.56,0.14-0.91,0.14-1.47c0-0.21,0-0.49-0.28-0.63c-0.35-0.49-0.77-0.84-1.26-0.98c-0.14,0-0.28-0.14-0.42-0.14
		c-0.77,0.14-1.54,0.14-2.24,0.14c-0.28,0-0.56,0-0.77,0c-0.7,0-1.47-0.14-2.1-0.14c-0.98,0-1.75-0.42-2.38-1.19
		c-0.14-0.07-0.28-0.21-0.42-0.35c-0.21-0.28-0.49-0.63-0.49-1.05c-0.14-0.35-0.28-0.77-0.42-1.12c-0.21-0.49-0.21-1.19-0.21-1.82
		c0-0.49,0-0.98-0.14-1.54c0-0.35,0.14-0.63,0.28-0.98c0.21-0.63,0.63-1.26,0.84-1.96c0-0.07-0.07-0.21-0.21-0.35
		c-0.56-0.28-1.05-0.28-1.68-0.42c0,0-0.28,0-0.28,0.14c-0.49,0.28-0.98,0.56-1.26,1.05c-0.14,0.28-0.35,0.35-0.49,0.49
		c-0.28,0.28-0.42,0.56-0.56,0.91c-0.07,0.49-0.21,1.05-0.35,1.68c-0.28,0.21-0.49,0.63-0.63,0.91c-0.14,0.35,0,0.7-0.28,0.98
		c-0.21,0.42-0.49,0.77-0.98,1.19c-1.33,0.77-2.59,0.77-3.99,0.35c-0.35-0.28-0.77-0.28-1.12-0.49c-0.14-0.14-0.56-0.14-0.7-0.14
		c-0.63,0-1.12,0-1.75-0.14c-0.63,0-1.19,0.28-1.54,0.63c-0.49,0.56-0.91,1.05-0.77,1.82c0,0.63,0,1.26-0.14,1.89v0.14
		c0.28,0.35,0.63,0.63,1.05,0.77c0.63,0.14,1.12,0.14,1.75,0.14c0.14,0,0.28,0,0.42,0c0.49-0.42,0.98-0.14,1.54,0.14
		c0.77,0.35,1.54,0.77,2.31,1.26c0.77,0.35,1.4,0.98,1.61,1.89c0.14,0.42,0.14,0.77-0.07,1.19
		C391.93,110.94,391.79,111.22,391.93,111.57z"/>
</g>
<g>
	<path d="M418.81,73.49h32.69v6.23h-25.27v14.49h24.22v6.3h-24.22v15.68h26.18v6.3h-33.6V73.49z"/>
</g>
<g>
	<g>
		<path d="M20.37,185.49h-7.14v-34.3c0-1.47,0-2.87,0.14-4.27c-2.31,3.71-6.51,6.58-11.62,6.79v-6.93
			c5.95-0.77,11.13-4.9,12.6-10.29h6.02V185.49z"/>
	</g>
	<g>
		<path d="M27.37,172.68c-0.28-0.14-0.63-0.21-1.05-0.35C28.42,172.05,30.17,172.05,27.37,172.68z M27.51,172.75
			c4.62-0.49,5.6-0.56,0.42,0.42C27.86,173.03,27.72,172.89,27.51,172.75c-0.07,0-0.14,0-0.14-0.07l-0.91,0.21
			C26.81,172.82,27.16,172.82,27.51,172.75z M28,173.66c6.44-0.35,6.79,0.42-0.21,3.78h-0.21c1.47-1.33,1.33-2.1-0.77-2.45
			C27.51,174.5,27.93,174.08,28,173.66c0.07,0,0.07-0.07,0.07-0.14L28,173.24c6.09-0.98,5.95-0.84,0.07,0.28
			c-0.49,0.07-0.98,0.21-1.47,0.28C27.09,173.73,27.58,173.73,28,173.66z M27.93,173.17c-0.42,0.07-0.84,0.21-1.33,0.28l1.4-0.21
			C28,173.24,27.93,173.24,27.93,173.17z M28.84,163.65c1.61,0.84,0.07,0.7-2.03,0.21C28.28,164.21,28.91,164.14,28.84,163.65z
			 M28.84,163.65c0-0.14,0-0.28-0.14-0.42c-0.14-0.28-0.49-0.7-0.91-1.19c5.74,2.1,5.25,2.24,0.91,1.19
			c-0.42-0.07-0.98-0.21-1.54-0.35C27.93,163.16,28.49,163.44,28.84,163.65z M27.72,161.97l-0.28-0.28c0.35,0,0.63,0,0.84-0.07
			C34.86,164,35,164.14,27.72,161.97l-0.28-0.07l0.35,0.14C27.72,162.04,27.72,161.97,27.72,161.97z M28.42,161.62
			c1.12-0.21,1.12-0.91,0-2.24c0.35,0,0.63-0.07,0.84-0.21C35.91,163.09,35.07,163.44,28.42,161.62l-0.77-0.21l0.63,0.21
			C28.35,161.62,28.35,161.62,28.42,161.62z M27.86,177.44c7.42-1.75,7.56-0.91,2.45,2.59c-0.21-0.21-0.77-0.35-1.68-0.28
			C29.82,178.35,29.54,177.65,27.86,177.44h-0.07c0,0.07-0.07,0.07-0.07,0.07C27.79,177.51,27.86,177.51,27.86,177.44z M29.4,159.1
			c0.7-0.35,0.7-1.19,0.35-2.24c0.7-0.7,0.84-1.75,1.05-2.87c0.98-7.98,2.24-17.5,2.24-17.5h27.51v6.65H38.43l-0.42,3.01l-0.42,2.8
			c-0.14,0.98-0.35,1.89-1.47,1.33c0.21,0.56,0.42,1.05,0.49,1.4c2.87,2.52,3.36,2.1,1.47-2.52c3.92,7.98,3.36,8.61-1.05,4.27
			c-0.14-0.28-0.28-0.63-0.49-0.98c-0.07,0.07-0.35,0.07-0.63-0.14l-0.98-0.98c0.14,0.21,0.28,0.42,0.42,0.63l-0.63-0.56
			c1.96,2.94,1.82,3.08-0.56,0.49c0.7,0.91,1.19,1.68,1.47,2.17c0.84,0.49,1.33,0.63,1.54,0.49c2.03,3.08,1.68,3.64-1.61,1.47
			c0.07-0.21-0.14-0.77-0.7-1.54c-0.42-0.28-1.05-0.77-1.89-1.4c1.12,1.26,1.89,2.17,2.24,2.73c-0.84-0.56-1.75-1.19-2.87-2.03
			c0.84,0.84,1.54,1.54,2.1,2.17c0.49,0.21,0.77,0.28,0.98,0.21c0.14,0.42-0.07,0.42-0.7,0.14c3.5,3.92,1.68,3.36-4.41,0
			C36.47,161.06,36.89,162.04,29.4,159.1l-0.63-0.21l0.49,0.28C29.33,159.17,29.33,159.17,29.4,159.1z M30.45,180.31
			c5.67-2.31,6.37-1.89,1.33,2.94c0.56-1.33-0.07-1.68-1.96-1.33C30.38,181.22,30.59,180.66,30.45,180.31
			c0-0.14-0.07-0.21-0.14-0.28c-0.28,0.28-0.7,0.49-1.05,0.77C29.68,180.59,30.1,180.45,30.45,180.31z M34.58,185.21
			c-0.35,0.14-0.91,0.35-1.47,0.7c1.12-2.24,0.63-2.8-1.75-1.96l0.28-0.42c0-0.14,0.07-0.21,0.14-0.28
			c-0.21,0.14-0.35,0.35-0.56,0.49l0.42-0.21C37.94,179.75,38.36,180.38,34.58,185.21z M35.21,185.14c4.34-3.57,5.39-3.64,2.8,1.61
			c-0.28-0.56-1.19-0.21-2.87,0.98C35.98,185.91,35.98,185.14,35.21,185.14c-0.14,0-0.35,0-0.63,0.07
			c-0.28,0.35-0.56,0.77-0.91,1.19C34.23,185.91,34.72,185.49,35.21,185.14z M35.42,156.16c0.07,0,0.14-0.07,0.14-0.14l-0.35-0.21
			C35.28,155.95,35.35,156.09,35.42,156.16z M37.17,154.55c0.14-0.14,0.07-0.56-0.14-1.12l-1.12-1.12
			c-0.21-0.14-0.35-0.21-0.56-0.35C36.05,152.94,36.68,153.78,37.17,154.55z M41.37,189.9c-0.21,0.35-0.49,0.7-0.77,1.05
			c0.91-4.41-0.14-4.41-2.94-1.54c0.28-0.84,0.42-1.47,0.42-1.89c0.07-0.35,0-0.63-0.07-0.77c-0.28,0.63-0.7,1.33-1.12,2.17
			l1.19-1.4C42.91,181.99,43.47,182.97,41.37,189.9z M40.74,147.83c0.91,1.47,1.61,2.45,2.1,2.94c1.54,6.02,0.56,5.74-4.76-1.61
			C41.58,153.5,42.14,152.8,40.74,147.83z M42.07,189.13l-0.7,0.77c-0.14,0.42-0.21,0.77-0.35,1.19
			C41.37,190.39,41.72,189.69,42.07,189.13z M42.84,150.77c0.42,0.42,0.7,0.49,0.84,0.35c0.42-0.28,0.42-1.68,0.07-4.34
			c1.47,3.22,2.31,4.34,2.8,3.57c0.35,5.6-0.49,5.39-2.87,0.77l-1.75-3.71C42.28,148.67,42.63,149.86,42.84,150.77z M42.07,189.13
			c3.22-6.02,4.2-6.65,3.36,0.42c-0.35,0.63-0.77,1.47-1.26,2.59C44.31,188.29,43.75,187.31,42.07,189.13z M46.27,188.57
			c1.89-5.46,2.59-5.18,2.87-0.07c-0.49,0.21-1.05,1.61-1.75,4.2C47.32,189.48,46.97,188.15,46.27,188.57
			c-0.21,0.07-0.49,0.42-0.84,0.98c-0.07,0.84-0.21,1.75-0.35,2.73C45.5,190.81,45.92,189.55,46.27,188.57z M46.55,150.35
			c0.14-0.21,0.28-0.7,0.35-1.4c0.07-0.7,0.14-1.61,0.14-2.8c1.47,4.9,2.45,5.88,3.36,1.61c-0.63,8.33-1.33,9.24-3.5,1.19
			c-0.21-0.77-0.42-1.68-0.7-2.66C46.34,147.9,46.48,149.23,46.55,150.35z M49.28,192.84c0.14-1.54,0.28-2.87,0.42-3.99
			c0.77-6.3,1.47-6.72,3.15,0.49c-1.12-2.59-1.68-1.12-2.17,3.5c-0.35-2.03-0.63-3.36-0.98-3.99c-0.21-0.28-0.35-0.42-0.56-0.35
			C49.21,189.69,49.28,191.16,49.28,192.84z M50.75,145.94c0.77,6.51,1.68,6.16,3.57,0.28c-0.07,0.91-0.07,1.75-0.07,2.45
			c-2.73,9.59-3.22,8.12-3.64-1.75c-0.07-0.35-0.07-0.63-0.07-0.98c-0.07,0.63-0.07,1.26-0.14,1.82l0.21-0.84
			C50.61,146.57,50.68,146.29,50.75,145.94z M53.55,192.63c-0.07-0.56-0.07-1.12-0.14-1.61c-0.63-9.87,0-10.29,3.08-2.94l0.63,3.85
			c-2.59-5.95-3.43-6.23-3.22,0.63c-0.14-0.56-0.35-1.12-0.49-1.54c-0.21-0.7-0.35-1.19-0.56-1.68
			C53.06,190.32,53.27,191.44,53.55,192.63z M54.32,150.42c0.28,2.1,1.26,1.19,3.43-3.29c-0.56,2.59-0.77,4.2-0.63,4.97
			C54.18,157.98,53.41,157.84,54.32,150.42c0.14-1.19,0.35-2.52,0.56-3.99c-0.21,0.84-0.42,1.54-0.63,2.24
			C54.25,149.37,54.32,149.93,54.32,150.42z M57.96,191.58c-0.56-1.89-1.05-3.5-1.4-4.9c-1.75-6.44-1.12-7.07,3.43-1.05
			c-1.61-1.4-1.54,0.07,0.21,5.11c-2.24-3.71-3.36-4.97-3.64-4.06c-0.07,0.28-0.07,0.77-0.07,1.4
			C56.98,189.13,57.4,190.25,57.96,191.58z M57.54,152.59c0.56,0,1.75-1.47,3.57-4.13c-1.96,5.04-2.31,6.93,0.07,4.9
			C55.86,159.8,55.3,159.24,57.54,152.59c0.49-1.33,1.05-3.01,1.75-4.9c-0.84,1.75-1.54,3.22-2.17,4.41
			C57.19,152.45,57.33,152.59,57.54,152.59z M61.6,187.38c-4.83-9.03-4.62-10.29,1.19-5.67c-0.21,0.56,0.84,2.31,3.15,5.46
			c-6.23-5.74-6.3-4.62-2.8,2.03C62.58,188.5,62.09,187.87,61.6,187.38c-0.63-0.77-1.19-1.33-1.61-1.75l2.73,3.78
			C62.3,188.71,61.95,188.01,61.6,187.38z M62.65,152.03c0.49-0.49,1.05-1.05,1.61-1.68c-4.13,7.14-3.08,7.21,2.94,2.45
			c-2.03,2.38-3.29,4.06-3.57,4.9C57.12,162.39,57.05,161.2,62.65,152.03l1.19-1.89c-0.98,1.26-1.89,2.31-2.66,3.22
			C61.6,153.01,62.09,152.59,62.65,152.03z M63.56,181.64c-4.69-4.9-4.69-5.67,1.47-2.38c-1.82-0.28-0.35,1.61,3.5,5.39
			C66.15,182.97,64.47,181.99,63.56,181.64c-0.49-0.14-0.7-0.14-0.77,0.07l4.76,3.99C65.94,184.09,64.61,182.76,63.56,181.64z
			 M70.28,182.27c-1.26-0.84-2.38-1.68-3.36-2.38c-8.33-6.02-8.82-7.35-0.42-5.81c0.07,0.7,2.24,1.96,6.16,3.85
			c-8.47-2.38-9.52-1.96-1.89,3.64c-1.61-0.77-2.87-1.33-3.85-1.68c-0.84-0.35-1.47-0.56-1.89-0.63
			C66.43,180.03,68.18,181.08,70.28,182.27z M63.77,158.4c0.63,0.21,2.52-0.56,6.09-2.52c-2.66,2.31-4.13,3.78-4.55,4.55
			C59.22,163.37,59.15,162.67,63.77,158.4c1.26-1.19,2.8-2.59,4.69-4.27c-1.89,1.47-3.5,2.66-4.83,3.57
			C63.56,158.05,63.56,158.33,63.77,158.4z M65.45,161.13c0.7,0.28,2.94-0.28,6.65-1.54c-7.7,4.41-8.33,5.6,1.54,4.48l-1.19,0.42
			C59.22,166.73,57.33,166.52,65.45,161.13c1.54-0.98,3.36-2.17,5.53-3.5c-2.24,1.12-4.13,2.1-5.67,2.8
			C65.17,160.78,65.24,160.99,65.45,161.13z M73.44,175.48c-2.38-0.77-4.34-1.4-5.95-1.96c-7.42-2.59-6.86-3.29,1.12-3.64
			c-3.15,0.77-1.68,1.82,5.25,3.78c-3.15-0.28-5.25-0.28-6.37-0.14c-0.7,0.14-0.98,0.28-0.98,0.56
			C68.39,174.43,70.7,174.92,73.44,175.48z M70.49,169.46c-10.99-0.56-11.2-1.26,0.7-4.55c-6.72,2.52-5.11,3.36,3.08,4.06
			C72.8,169.11,71.54,169.32,70.49,169.46c-0.77,0.14-1.4,0.28-1.89,0.42l5.67-0.21C72.88,169.6,71.61,169.53,70.49,169.46z
			 M72.46,164.49c-0.49,0.14-0.84,0.28-1.26,0.42l2.45-0.63C73.23,164.35,72.8,164.42,72.46,164.49z"/>
	</g>
	<g>
		<path d="M69.51,176.53h8.96v8.96h-8.96V176.53z"/>
	</g>
	<g>
		<path d="M89.74,158.12h30.52v6.44H89.74V158.12z"/>
	</g>
	<g>
		<path d="M134.12,145.87l0.84-0.49c0.49-0.28,1.05-0.49,1.61-0.63c0.21-2.17,1.4-4.2,3.36-5.46l0.84-0.49
			c0.56-0.28,1.26-0.56,1.89-0.7c0.07-0.77,0.28-1.54,0.63-2.17c0.56-1.4,1.54-2.45,2.8-3.15l0.84-0.49
			c1.75-1.05,3.99-1.26,6.02-0.42c0.7,0.35,1.26,0.77,1.75,1.19c0.63-0.14,1.4-0.28,2.1-0.28c3.71,0,6.65,2.94,6.65,6.65
			c0,2.24-0.98,4.13-2.66,5.39c1.68,1.19,2.66,3.22,2.66,5.39c0,2.24-0.98,4.13-2.66,5.39c1.68,1.19,2.66,3.15,2.66,5.39
			c0,2.17-0.98,4.06-2.66,5.39c1.68,1.12,2.66,3.15,2.66,5.39c0,2.17-0.98,4.06-2.66,5.39c1.68,1.12,2.66,3.15,2.66,5.39
			c0,2.45-1.33,4.62-3.29,5.81l-0.91,0.49c-0.91,0.56-2.1,0.84-3.29,0.84c-0.63,0-1.26-0.07-1.89-0.21
			c-0.28,0.21-0.56,0.42-0.91,0.63l-0.84,0.49c-1.05,0.56-2.17,0.91-3.43,0.91c-3.71,0-6.79-2.94-6.79-6.65
			c0-2.24,1.19-4.2,2.8-5.39c-1.61-1.26-2.8-3.22-2.8-5.39c0-2.24,1.19-4.2,2.8-5.39c-1.61-1.26-2.8-3.22-2.8-5.39
			s1.12-4.06,2.66-5.32c-1.05-0.07-2.1-0.49-3.08-1.05l-0.14,0.14l-0.91,0.49c-0.91,0.56-2.03,0.84-3.22,0.84
			c-3.64,0-6.65-3.01-6.65-6.65C130.76,149.23,132.09,147.06,134.12,145.87z M134.4,146.5l0.91-0.49c0.56-0.35,1.26-0.63,1.96-0.7
			c0-0.21,0-0.49,0.07-0.7l-0.77,0.42c-0.7,0.14-1.4,0.35-2.03,0.63c-1.4,0.91-2.38,2.38-2.73,4.13
			C132.23,148.39,133.21,147.2,134.4,146.5z M138.25,157.21c0.84,0,1.61-0.21,2.24-0.42l-0.21,0.14c-0.84,0.49-1.82,0.77-2.87,0.77
			c-0.42,0-0.84-0.07-1.26-0.14c0.7,0.21,1.4,0.35,2.1,0.35c0.98,0,1.96-0.21,2.8-0.63l0.56-0.42l0.7-0.42
			c-0.21-0.07-0.42-0.21-0.63-0.35c-0.14,0.14-0.35,0.28-0.56,0.35l-0.63,0.35l0.21-0.07c0.07-0.07,0.14-0.07,0.14-0.14
			c0.28-0.21,0.49-0.42,0.7-0.63l0.84-0.49c1.19,0.91,2.38,1.33,3.71,1.4c0.14,0.07,0.49,0.28,0.77,0.56
			c-1.89,1.19-3.22,3.01-3.22,5.39c0,2.31,1.4,4.34,3.36,5.39l-0.49,0.28c-1.68,1.05-2.87,2.87-2.87,5.11c0,2.31,1.4,4.34,3.36,5.39
			l-0.49,0.28c-1.68,1.05-2.87,2.87-2.87,5.11c0,3.36,2.66,5.95,6.09,5.95c0.98,0,1.82-0.21,2.66-0.56c0.42-0.35,0.84-0.7,1.26-1.19
			l0.84-0.49c0.7,0.28,1.54,0.42,2.31,0.42c0.98,0,1.82-0.21,2.59-0.56c1.54-1.05,2.52-2.87,2.52-4.9c0-2.45-1.26-4.48-3.29-5.39
			l0.42-0.21c1.82-1.12,2.87-3.01,2.87-5.18c0-2.45-1.26-4.48-3.29-5.39l0.42-0.21c1.82-1.12,2.87-3.01,2.87-5.18
			c0-2.45-1.19-4.41-3.29-5.39l0.28-0.21c1.89-1.12,3.01-2.87,3.01-5.18c0-2.38-1.26-4.41-3.29-5.39l0.77-0.42l0.14-0.14
			c1.54-1.12,2.38-2.8,2.38-4.83c0-3.36-2.59-5.95-5.95-5.95c-0.77,0-1.61,0.14-2.31,0.35c-0.56-0.49-1.05-0.91-1.82-1.33
			c-1.68-0.63-3.5-0.56-4.97,0.14c-0.91,0.63-1.61,1.47-2.1,2.59c-0.35,0.7-0.56,1.47-0.56,2.31v0.56l-0.84,0.49
			c-0.84,0.07-1.82,0.28-2.66,0.63c-1.75,1.33-2.73,3.36-2.52,5.46l-0.84,0.49c-0.91,0.07-1.75,0.28-2.45,0.63
			c-1.61,1.05-2.59,2.87-2.59,4.97C132.3,154.62,134.89,157.21,138.25,157.21z M140.28,139.92l0.84-0.49
			c0.7-0.35,1.47-0.63,2.24-0.7v-0.63l-0.7,0.35c-0.77,0.07-1.54,0.35-2.31,0.63c-1.4,1.05-2.38,2.59-2.73,4.2
			C138.04,141.95,138.95,140.76,140.28,139.92z M146.02,157.91l-0.28-0.28l-0.77,0.42c-0.91,0.91-1.61,2.03-1.89,3.43
			C143.57,159.94,144.69,158.75,146.02,157.91z M145.95,168.83l0.21-0.14l-0.63-0.42c-1.19,0.98-2.1,2.31-2.45,3.92
			C143.57,170.72,144.62,169.53,145.95,168.83z M145.95,179.61l0.21-0.14l-0.63-0.42c-1.19,0.98-2.1,2.31-2.45,3.92
			C143.57,181.5,144.62,180.31,145.95,179.61z M143.92,136.21c0.56-1.26,1.4-2.24,2.52-2.87l0.84-0.49c1.26-0.77,2.8-0.98,4.34-0.63
			c-1.75-0.56-3.57-0.42-5.11,0.35c-1.05,0.63-1.89,1.61-2.38,2.87c-0.21,0.42-0.35,0.91-0.49,1.4
			C143.71,136.63,143.78,136.42,143.92,136.21z M145.53,157.49c-0.14-0.07-0.28-0.14-0.35-0.14c-0.35,0-0.63-0.07-0.98-0.14
			C144.62,157.35,145.04,157.42,145.53,157.49z M149.73,191.02c1.05,0,2.1-0.21,3.01-0.7c0.42-0.28,0.77-0.56,1.12-0.91l0.84-0.49
			c0.63,0.21,1.4,0.28,2.1,0.28c1.05,0,2.03-0.21,2.87-0.63c1.4-0.98,2.45-2.45,2.8-4.13c-0.42,1.4-1.4,2.59-2.66,3.29l-0.84,0.49
			c-0.84,0.49-1.89,0.77-3.01,0.77c-0.7,0-1.4-0.07-2.03-0.28c-0.35,0.28-0.7,0.56-1.12,0.84l-0.84,0.49
			c-0.91,0.49-1.96,0.77-3.08,0.77c-0.42,0-0.84,0-1.26-0.14C148.26,190.95,149.03,191.02,149.73,191.02z M154.14,133.48
			c0.07,0.14,0.21,0.28,0.35,0.35c0.77-0.21,1.54-0.35,2.31-0.35c0.49,0,0.84,0,1.26,0.14c-0.63-0.28-1.33-0.35-2.1-0.35
			C155.33,133.27,154.7,133.34,154.14,133.48z M160.09,145.17c1.19-0.91,2.03-2.24,2.38-3.78c-0.42,1.4-1.33,2.45-2.59,3.22
			l-0.42,0.21L160.09,145.17z M160.09,155.95c1.19-0.98,2.03-2.24,2.38-3.78c-0.49,1.4-1.47,2.52-2.8,3.36l-0.21,0.07L160.09,155.95
			z M160.09,166.73c1.19-0.98,2.03-2.31,2.38-3.85c-0.49,1.47-1.47,2.59-2.8,3.36l-0.21,0.14L160.09,166.73z M160.09,177.51
			c1.19-0.98,2.03-2.31,2.38-3.85c-0.49,1.47-1.47,2.59-2.8,3.36l-0.21,0.14L160.09,177.51z"/>
	</g>
	<g>
		<path d="M170.17,172.61c0-5.6,3.85-10.5,10.29-12.53c-5.39-1.89-9.1-5.81-9.1-11.27c0-7.77,6.58-13.51,16.66-13.51
			c9.94,0,16.59,5.74,16.59,13.44c0,5.39-3.57,9.52-9.1,11.34c6.44,1.96,10.36,6.79,10.36,12.32c0,8.61-6.79,14.21-17.92,14.21
			C176.68,186.61,170.17,180.94,170.17,172.61z M188.02,180.87c6.23,0,10.57-3.5,10.57-8.82c0-4.97-4.34-8.75-10.57-8.75
			c-6.16,0-10.57,3.71-10.57,8.75C177.45,177.37,181.72,180.87,188.02,180.87z M188.02,156.93c5.53,0,9.38-3.22,9.38-7.91
			s-3.71-7.91-9.38-7.91c-5.74,0-9.45,3.22-9.45,7.77C178.57,153.64,182.35,156.93,188.02,156.93z"/>
		<path d="M212.8,176.53h8.96v8.96h-8.96V176.53z"/>
		<path d="M239.89,170.16h7.56c0.07,6.02,2.1,10.22,8.12,10.22c6.23,0,8.47-4.13,8.47-10.43v-33.46h7.49v34.3
			c0,9.94-6.37,15.82-16.03,15.82C244.79,186.61,239.96,179.96,239.89,170.16z"/>
	</g>
	<g>
		<path d="M275.38,139.78c-0.07-1.05-0.14-2.17,0.14-3.29c0.7-2.59,2.38-4.13,4.97-4.62c0.07-0.07,0.07-0.07,0.14-0.07l0.21-0.07
			c-0.91-1.26-1.75-2.45-2.59-3.71c2.38,0,4.62,0.21,7.07,0.35c-1.05,1.12-2.03,2.24-2.94,3.43c1.05,0.28,2.03,0.56,2.87,1.26
			c1.61,1.26,2.45,2.87,2.52,4.9c0.14,4.2,0.42,8.33,0.98,12.53c0.63,4.48,1.61,8.89,3.08,13.23c0.98,2.87,2.1,5.74,3.92,8.26
			c1.47,2.24,3.22,4.13,5.53,5.53c1.68,1.05,3.5,1.54,5.46,1.4c1.61-0.14,3.08-0.84,4.41-1.75c2.73-2.1,4.83-4.62,6.58-7.56
			c2.03-3.64,3.29-7.49,3.92-11.55c0.63-3.15,0.63-6.23,0.49-9.45c0-0.56-0.07-1.12-0.14-1.75c-0.63-2.73,0.98-5.67,3.5-7l0.56-0.28
			c-1.12-0.91-2.45-1.68-3.78-2.45c2.17-0.91,4.34-1.75,6.51-2.59c-0.28,1.61-0.84,3.08-1.4,4.55c0.14,0.07,0.21,0.14,0.28,0.07
			c2.45-0.35,4.69,1.19,5.6,2.87c0.63,1.05,0.91,2.03,1.05,3.22c0.42,3.29,0.49,6.65,0.28,9.94c-0.28,4.69-1.26,9.24-2.87,13.65
			c-1.47,3.99-3.36,7.7-5.95,11.13c-2.24,3.08-4.9,5.81-8.19,7.91c-2.94,1.96-6.23,3.22-9.73,3.57c-4.76,0.42-9.17-0.84-13.23-3.36
			c-1.61-0.98-3.08-2.17-4.48-3.5c-4.06-3.78-6.86-8.33-8.89-13.37c-2.31-5.74-3.78-11.62-4.69-17.64
			c-0.42-2.66-0.77-5.32-0.91-8.05C275.59,143.63,275.52,141.74,275.38,139.78z M278.11,138.38c0,0.91,0,1.82,0.07,2.66l0.42,6.65
			c0.28,3.36,0.84,6.65,1.47,10.01c1.19,5.81,2.94,11.34,5.67,16.59c2.45,4.62,5.67,8.54,10.08,11.34
			c3.64,2.24,7.63,3.43,12.04,3.01c2.24-0.28,4.48-0.98,6.51-2.1c2.66-1.4,4.9-3.29,6.93-5.53c3.01-3.22,5.32-6.86,7-10.92
			c2.52-5.88,3.64-12.04,3.71-18.48c-0.07-0.77-0.07-1.68-0.14-2.52c-0.07-1.26-0.14-2.59-0.35-3.85c-0.21-1.68-1.68-2.87-3.29-2.8
			c-0.63,0.07-0.98,0.28-0.98,0.77c0,0.42,0.28,0.63,0.98,0.7h0.14c0.77-0.07,1.68,0.56,1.82,1.68c0.14,0.91,0.28,1.82,0.28,2.66
			c0.07,1.54,0.07,3.08,0.07,4.62c0,2.59-0.28,5.11-0.77,7.56c-0.7,3.78-1.82,7.35-3.5,10.85c-1.89,3.85-4.27,7.35-7.49,10.36
			c-1.68,1.61-3.57,3.08-5.81,4.13c-3.22,1.54-6.58,1.96-10.08,1.33c-3.71-0.84-6.86-2.66-9.59-5.18c-3.01-2.66-5.32-5.88-7-9.45
			c-1.61-3.43-2.87-6.93-3.78-10.57c-1.4-5.04-2.24-10.29-2.66-15.54c-0.14-1.68-0.21-3.36-0.35-5.11c0-0.84-0.07-1.75-0.07-2.59
			c0-1.19,0.56-1.96,1.75-2.17c0.14,0,0.28-0.07,0.42-0.14c0.28-0.14,0.42-0.35,0.35-0.7c-0.14-0.35-0.28-0.56-0.63-0.56
			c-0.28,0-0.63,0-0.84,0.07C279.02,135.65,278.11,136.84,278.11,138.38z M325.79,143.35c-0.35-0.07-0.7,0.21-0.7,0.56
			c0,0.35,0.28,0.7,0.63,0.7c0.28,0.07,0.7-0.35,0.77-0.63C326.49,143.63,326.13,143.35,325.79,143.35z"/>
	</g>
	<g>
		<path d="M339.99,136.49h11.2l23.45,39.97c-0.07-2.1-0.14-4.41-0.14-6.65v-33.32H382v49h-10.08l-24.57-41.79
			c0.07,2.31,0.07,4.27,0.07,6.3v35.49h-7.42V136.49z"/>
		<path d="M400.68,185.49h-7.42v-49h7.42V185.49z"/>
		<path d="M436.24,167.29l5.25-3.92c4.55-3.43,9.17-7.49,9.17-13.23c0-5.25-3.29-8.89-8.75-8.89c-5.95,0-9.59,4.2-9.59,11.62v0.77
			h-7.49v-1.19c0-10.64,7.07-17.15,17.08-17.15c9.66,0,16.03,5.95,16.03,14.84c0,7.98-5.18,13.16-13.58,19.39l-3.36,2.52
			c-4.62,3.43-6.86,5.25-7.42,6.86h24.92v6.58h-34.23C424.41,177.44,428.4,173.1,436.24,167.29z"/>
	</g>
	<g>
		<path d="M476.07,190.6c-0.07,0-0.07-0.07-0.07-0.07c-0.07-0.28,0-0.49,0-0.77v-0.21c0-0.07,0-0.07,0-0.07
			c-0.07-0.28-0.21-0.63-0.21-0.91v-0.21l-0.07-0.07l-0.21-0.77c-0.21-0.07-0.28-0.28-0.49-0.49v-0.07
			c-0.07-0.14-0.07-0.21-0.14-0.21c-0.21-0.07-0.42-0.28-0.49-0.49c-0.14,0-0.14-0.07-0.21-0.14v-0.07
			c-0.07-0.28-0.28-0.42-0.42-0.63c-0.14-0.07-0.28-0.07-0.35-0.21c-0.21,0-0.35-0.14-0.42-0.28l-0.07-0.07
			c-0.21-0.35-0.28-0.63-0.35-0.98c-0.14-0.07-0.14-0.07-0.14-0.21c0-0.21-0.07-0.49-0.14-0.63c-0.21-0.28-0.42-0.63-0.49-0.91
			c-0.07-0.07-0.14-0.28-0.35-0.35c-0.14-0.21-0.35-0.28-0.42-0.49c-0.42-0.28-0.7-0.49-0.98-0.77c-0.07,0-0.21-0.14-0.28-0.14
			c0-0.07-0.14-0.07-0.14-0.14c-0.28-0.21-0.49-0.42-0.63-0.7c-0.21-0.07-0.28-0.07-0.28-0.28c-0.14-0.21-0.14-0.28-0.14-0.49
			c-0.07-0.28-0.14-0.49-0.28-0.7c-0.07-0.14-0.14-0.35-0.28-0.42c-0.14-0.21-0.21-0.42-0.28-0.56c0-0.21-0.14-0.28-0.28-0.35
			c-0.14-0.07-0.21-0.14-0.28-0.28c-0.14-0.07-0.21-0.21-0.21-0.28c-0.07-0.07-0.07-0.07-0.07-0.21c-0.14-0.14-0.21-0.35-0.35-0.42
			c-0.07-0.14-0.14-0.21-0.35-0.21c-0.21-0.21-0.35-0.28-0.56-0.42c-0.14-0.07-0.21-0.14-0.21-0.28c-0.07-0.14-0.07-0.35-0.21-0.49
			v-0.56c0-0.49,0-0.84-0.28-1.26c0-0.14-0.07-0.28-0.07-0.49v-0.14c0-0.21-0.14-0.35-0.21-0.42v-0.07
			c-0.28-0.28-0.35-0.7-0.49-1.05c-0.07-0.14-0.14-0.35-0.14-0.49c0-0.21-0.07-0.42-0.07-0.49c-0.07-0.21-0.14-0.35-0.14-0.42
			c-0.21-0.28-0.28-0.42-0.28-0.7v-0.21c-0.14-0.21-0.14-0.35-0.21-0.49v-0.21c0-0.21-0.14-0.35-0.21-0.56
			c0-0.07-0.07-0.07-0.07-0.21c-0.21-0.14-0.28-0.35-0.42-0.7c0-0.07,0-0.14-0.07-0.28c-0.28-0.28-0.49-0.56-0.56-0.84
			c0-0.28-0.14-0.49-0.21-0.77c-0.07,0-0.07-0.07-0.07-0.21c0.07-0.14,0.07-0.28,0-0.49v-0.7c0-0.14,0-0.14,0-0.21
			c0-0.07,0-0.21-0.14-0.28l-0.21-0.7c-0.21-0.21-0.21-0.42-0.28-0.7c0-0.28,0-0.56-0.07-0.84c0-0.14-0.14-0.42,0-0.56
			c0-0.28,0.07-0.56,0.28-0.77c0.07-0.07,0.07-0.21,0.07-0.28c0.07-0.28,0.14-0.56,0.07-0.91l0.07-0.35c0.07,0,0.07-0.21,0.07-0.28
			c0-0.21,0.14-0.28,0.21-0.42c0-0.07,0.07-0.07,0.21-0.14c0-0.14,0.07-0.14,0.07-0.21c-0.07-0.28-0.07-0.63-0.07-0.98
			c-0.14-0.07-0.14-0.21-0.14-0.28c0-0.21,0-0.35-0.07-0.42v-0.35c0.07-0.21,0.07-0.28,0.07-0.49s0.14-0.42,0.14-0.56
			c0.07-0.21,0.07-0.42,0.07-0.56c0-0.21,0.07-0.28,0.07-0.42c-0.07-0.21,0-0.35,0-0.56c0.14-0.07,0.14-0.28,0.14-0.42
			c0.07-0.14,0.07-0.35,0.07-0.56c0.07-0.07,0.21-0.21,0.21-0.35c0.07-0.28,0.07-0.56,0.07-0.84c0-0.28,0.14-0.42,0.21-0.7
			c0,0,0-0.14,0.07-0.21c0.21-0.21,0.42-0.49,0.49-0.7c0.21-0.28,0.42-0.56,0.63-0.77c0,0,0-0.07,0.07-0.07l0.07-0.35
			c0-0.21,0-0.42,0.14-0.63v-0.14c0-0.14-0.14-0.21-0.14-0.28c-0.07-0.35-0.07-0.7,0-1.12c0-0.07,0.14-0.07,0.21-0.14
			c0,0,0.07,0,0.07-0.14c0,0,0.14,0,0.14-0.07c0.07-0.14,0.14-0.28,0.14-0.49c0-0.07,0-0.21,0.14-0.28c0.07-0.21,0.07-0.42,0-0.7
			v-0.21c0-0.07,0-0.14,0-0.28c0-0.07,0.07-0.14,0.07-0.35s0.07-0.35,0.28-0.49v-0.21c0-0.07,0-0.28,0.14-0.35
			c0.14-0.14,0.14-0.42,0.35-0.49c0.21-0.07,0.28-0.21,0.49-0.28c0.21,0,0.21-0.14,0.21-0.28v-0.14c0,0,0,0,0-0.07l0.14-0.21
			c0-0.07,0.07-0.14,0.14-0.14c0.07-0.14,0.21-0.21,0.21-0.28c0.07-0.28,0.28-0.42,0.35-0.7c0-0.21,0.21-0.42,0.28-0.56
			c0-0.14,0-0.14,0.07-0.21c0.14-0.07,0.28-0.21,0.35-0.28c0.07-0.14,0.21-0.28,0.21-0.42V136c0.07-0.14,0.07-0.28,0.28-0.35
			l0.56-0.49c0.14-0.21,0.28-0.49,0.49-0.63c0.14-0.28,0.28-0.42,0.28-0.7v-0.49c0-0.21,0.21-0.28,0.35-0.28h0.21
			c0.07,0,0.14-0.07,0.21-0.21v-0.21c0.07-0.07,0.07-0.14,0.21-0.14c0.14-0.14,0.28-0.21,0.35-0.21l0.28-0.28
			c0.07,0,0.07-0.14,0.07-0.21c0.14-0.07,0.14-0.21,0.14-0.28c0-0.14,0.07-0.28,0.21-0.49c0.07,0,0.07-0.21,0.07-0.28v-0.28
			l0.14-0.07c0.07-0.21,0.14-0.42,0.35-0.63c0.07-0.07,0.21-0.21,0.21-0.28s0.07-0.07,0.07-0.21c0.28-0.07,0.35-0.28,0.56-0.42
			l0.49-0.21c0.07,0,0.07,0,0.21-0.14c0.21-0.14,0.35-0.14,0.49-0.35c0.21-0.07,0.49-0.21,0.63-0.28c0.14-0.07,0.21-0.07,0.28-0.21
			c0.21-0.14,0.35-0.28,0.63-0.42c0.14-0.28,0.49-0.35,0.63-0.56c0.14-0.07,0.21-0.14,0.42-0.14c0-0.14,0.21-0.21,0.35-0.21
			c0.14-0.07,0.21-0.07,0.28-0.14c0.21-0.35,0.56-0.63,0.98-0.84c0,0,0.14,0,0.14-0.07c0,0,0.07,0,0.07-0.14
			c0.07-0.14,0.28-0.28,0.28-0.56c0.07-0.21,0.21-0.28,0.21-0.49c0-0.07,0.07-0.07,0.07-0.07c0.21,0,0.21,0,0.42-0.07
			c0.07-0.14,0.28-0.21,0.35-0.42h0.07c0.14,0,0.35-0.14,0.42-0.28h0.07c0.14,0,0.14,0,0.14,0c0.07,0,0.35-0.14,0.49-0.21
			c0.14-0.07,0.28-0.21,0.35-0.21c0-0.07,0.07-0.07,0.21-0.07c0.07-0.07,0.14-0.07,0.28-0.21c0-0.07,0.21-0.28,0.28-0.35h0.42h0.07
			c0.07,0,0.07,0,0.21-0.14c0.14-0.14,0.35-0.28,0.56-0.28c0.28-0.07,0.49-0.07,0.77-0.07c0.07,0,0.21,0,0.21-0.07
			c0.07,0,0.14-0.14,0.28-0.14c0.21,0.14,0.35,0,0.56,0.21c0.21,0.07,0.35,0.21,0.56,0.21s0.49,0.07,0.7,0.14
			c0.21,0.14,0.35,0.14,0.63,0h0.35c0.28,0,0.42,0,0.63,0.14c0.07,0,0.07,0.07,0.21,0.07h0.07c0.35,0.14,0.63,0.14,0.91,0h0.35
			c0.07,0.14,0.21,0,0.28,0h0.28c0.14,0.14,0.21,0,0.28,0h0.35c0.14,0,0.21,0,0.28,0c0.21-0.07,0.35,0,0.56-0.07
			c0.28,0,0.56,0,0.7,0.21c0.07,0,0.14,0.07,0.28,0.07c0.21,0.21,0.35,0.28,0.63,0.28c0.28,0.07,0.49,0.21,0.77,0.35
			c0.14,0,0.28,0.14,0.42,0.21h0.28h0.07c0.21-0.07,0.49-0.07,0.7-0.21c0.28,0.14,0.49,0,0.63-0.07c0-0.07,0.07,0,0.14,0l0.07,0.07
			c0.21,0.21,0.42,0.21,0.63,0.14l0.14-0.21c0.14,0,0.14,0,0.21,0c0.07,0.07,0.21,0.07,0.28,0.07c0.14-0.07,0.21-0.07,0.28-0.07
			c0.28,0,0.56-0.07,0.84-0.21c0.07-0.07,0.21-0.07,0.35-0.07c0.21,0,0.35-0.07,0.56-0.07c0-0.14,0.07,0,0.07,0
			c0.14,0,0.21,0,0.28,0.07c0.14,0,0.21,0.07,0.35,0h0.35c0.21,0,0.35-0.07,0.56-0.28c0.14-0.07,0.35-0.28,0.49-0.28
			c0-0.14,0.14-0.21,0.21-0.21c0.21,0,0.35-0.07,0.49-0.07c0.14,0,0.28-0.14,0.28-0.21c0,0,0-0.07,0.07-0.07
			c0.14-0.14,0.21-0.14,0.28,0c0.14,0,0.14,0,0.14,0.07l0.07,0.07c0,0.28,0,0.49,0.14,0.77v0.98c0,0.14,0.07,0.28,0.14,0.49
			c0.21,0.28,0.28,0.63,0.49,0.98c0,0.28,0.14,0.42,0.21,0.56l0.56,0.56c0.28,0.28,0.63,0.7,0.98,0.98c0,0.07,0.07,0.14,0.21,0.14
			l0.14,0.21c0.21,0.21,0.49,0.49,0.7,0.77c0.07,0.14,0.21,0.28,0.28,0.49c0,0.14,0.07,0.28,0.07,0.49c0,0.35,0.14,0.63,0.35,0.98
			c0,0.21,0.07,0.35,0.28,0.56c0.07,0.21,0.07,0.35,0.21,0.63c0.07,0.14,0.14,0.35,0.28,0.42c0.07,0.07,0.14,0.21,0.28,0.28
			l0.28,0.49v0.07c0.07,0.21,0.28,0.42,0.35,0.63c0,0.14,0.21,0.28,0.35,0.35l0.63,0.49c0.07,0.07,0.21,0.14,0.21,0.28
			c0,0.28,0.07,0.49,0.07,0.7c0.07,0.28,0.07,0.42,0.07,0.63c0,0.63,0.07,1.12,0.21,1.54c0.14,0.21,0.14,0.42,0.14,0.56
			c0.07,0.14,0.07,0.21,0.07,0.28c0,0.14,0,0.35,0.07,0.56c0.14,0,0.14,0.07,0.14,0.07c0.28,0.35,0.35,0.77,0.42,1.12
			c0,0.28,0.14,0.56,0.14,0.91l0.14,0.49c0,0.14,0.07,0.35,0.14,0.56c0.14,0.28,0.21,0.49,0.21,0.84c0,0.14,0,0.21,0.07,0.28
			c0.14,0.21,0.14,0.42,0.14,0.63v0.28c0.07,0.14,0.07,0.42,0.28,0.63c0,0,0,0.07,0.07,0.21c0.07,0.21,0.21,0.49,0.28,0.77
			c0.07,0.21,0.07,0.35,0.21,0.49c0.28,0.21,0.35,0.56,0.49,1.05c0.07,0.28,0.07,0.56,0.28,0.84v0.28c0,0.21,0,0.49,0,0.7
			c0.07,0.42,0.07,0.42,0,0.84v0.21c0,0.21,0,0.28,0.07,0.49c0.21,0.21,0.28,0.49,0.35,0.77c0.07,0.28,0.14,0.49,0.14,0.84
			c0,0.28,0.14,0.7,0.14,0.98c0.07,0.28,0.07,0.56,0.07,0.84c0,0.35-0.07,0.7-0.28,0.98c-0.07,0.07-0.14,0.21-0.14,0.35
			c-0.07,0.35-0.07,0.63-0.07,0.98c0,0.21,0,0.42-0.07,0.49c-0.14,0.21-0.14,0.28-0.14,0.49c0,0.07,0,0.28-0.07,0.42
			c-0.07,0.07-0.21,0.14-0.21,0.28c-0.07,0-0.07,0.07-0.07,0.14c0,0.42,0,0.77,0.07,1.19v0.42c0,0.14,0.14,0.35,0.14,0.56
			c0.07,0.14,0.07,0.35,0,0.42c0,0.21-0.14,0.35-0.14,0.49c0,0.28,0,0.63-0.07,0.91v0.56c0,0.21-0.14,0.35-0.14,0.56
			c0,0.28-0.07,0.42-0.07,0.7c0,0.21-0.07,0.28-0.07,0.49c0,0.14,0,0.42-0.14,0.63c0,0.21-0.07,0.42-0.14,0.56
			c0,0.42-0.14,0.7-0.14,0.98c0,0.28-0.07,0.56-0.07,0.84c-0.14,0.14-0.14,0.21-0.14,0.28c-0.28,0.21-0.42,0.56-0.56,0.91
			c-0.07,0.35-0.28,0.56-0.49,0.84c0,0.14-0.07,0.14-0.07,0.21c-0.14,0.07-0.21,0.28-0.21,0.49c0.07,0.21,0.07,0.49,0,0.7v0.28
			c0,0.07,0,0.14,0,0.28c0.07,0.35,0.07,0.84,0.07,1.33c-0.07,0.07-0.07,0.21-0.14,0.28h-0.21c0,0,0,0-0.07,0.14
			c0,0.14-0.14,0.42-0.21,0.7v0.28c-0.07,0.28-0.07,0.56-0.07,0.84l0.07,0.35c0,0.07,0,0.21,0,0.28c-0.07,0.14-0.07,0.28-0.21,0.49
			c0,0.21-0.07,0.35-0.14,0.56c-0.07,0.14-0.07,0.21-0.07,0.35l-0.07,0.35c-0.21,0.21-0.28,0.49-0.49,0.63
			c-0.07,0.14-0.28,0.21-0.42,0.35c-0.14,0.07-0.21,0.14-0.21,0.35v0.14c0,0.07,0,0.07,0,0.07c0,0.21,0,0.28-0.14,0.35
			c0,0.14-0.07,0.14-0.07,0.21c-0.14,0.07-0.21,0.21-0.28,0.28c-0.14,0.28-0.21,0.56-0.28,0.84c-0.14,0.35-0.21,0.42-0.28,0.7
			c0,0.14-0.14,0.14-0.14,0.21c-0.14,0.21-0.28,0.35-0.35,0.56c-0.14,0.07-0.14,0.28-0.21,0.42v0.14c0,0.21-0.07,0.42-0.21,0.49
			c-0.21,0.28-0.35,0.49-0.56,0.63c-0.21,0.28-0.42,0.56-0.56,0.91c-0.14,0.28-0.21,0.49-0.21,0.77c0,0.21,0,0.42-0.07,0.56
			c0,0.28-0.14,0.35-0.42,0.42c0,0-0.07-0.07-0.07,0c-0.21,0-0.21,0.07-0.21,0.28c0,0.07,0,0.21-0.14,0.28
			c0,0.07-0.07,0.21-0.14,0.21c-0.14,0.07-0.21,0.21-0.42,0.28c-0.07,0-0.14,0.07-0.28,0.21c0,0-0.07,0.07-0.07,0.21
			c0,0.07,0,0.28-0.07,0.42c0,0.21-0.14,0.42-0.14,0.56c-0.07,0.14-0.21,0.21-0.21,0.35v0.35v0.14v0.63c0,0,0,0.14-0.07,0.21
			c-0.07,0.21-0.28,0.28-0.49,0.28h-0.07c0,0.07,0,0.21-0.14,0.21v-0.21h-0.07c-0.28,0-0.77,0.07-1.12,0.07
			c-1.19,0-2.45-0.07-3.71-0.07h-3.29c-0.91,0-1.75,0-2.66,0c-0.63,0.07-1.26,0-1.82,0.07h-3.57c-0.35,0-0.84,0-1.26,0h-2.66
			c-0.49,0-0.84,0-1.26,0h-2.52c-0.28,0-0.63,0-0.91,0c-0.42,0.14-0.77,0.14-1.19,0.14h-0.77
			C476.42,190.81,476.21,190.67,476.07,190.6z M478.59,156.58c0.07,0.14,0.21,0.49,0.21,0.84v0.21c0.14,0.21,0.14,0.63,0.14,0.98
			c0,0.35,0.14,0.56,0.21,0.77c0.21,0.14,0.21,0.14,0.21,0.21c0,0.21,0.07,0.35,0.21,0.7c0.14,0.07,0.14,0.28,0.28,0.56v0.28
			c0.28,0.7,0.49,1.12,0.84,1.68c0.07,0,0.07,0.21,0.07,0.35c0,0.35,0,0.42,0.14,0.77c0.21,0,0.21,0.07,0.21,0.35
			c0.07,0.07,0.14,0.42,0.35,0.56c0.07,0.21,0.07,0.28,0.07,0.42l0.35,0.35c0.28,0.07,0.42,0.28,0.77,0.42h0.28
			c0.28,0,0.35,0.35,0.56,0.35c0.21,0.07,0.35,0.28,0.49,0.56c0,0.21,0.07,0.21,0.28,0.28c0.07,0,0.21,0.14,0.21,0.35
			s0.14,0.42,0.28,0.7c0,0.07,0.28,0.21,0.35,0.42c0,0,0.28,0,0.42,0.07c0.21,0.14,0.49,0.14,0.63,0.14c0.21,0,0.35,0,0.42-0.14
			c0.21,0,0.28,0,0.35-0.07c0.35,0,0.7-0.21,1.12-0.42c0.14-0.14,0.35-0.14,0.63,0h0.21c0.07-0.14,0.07-0.14,0.28-0.14
			c0.42-0.14,0.56-0.14,0.98,0.14c0.21,0,0.21,0,0.28,0.07c0.28,0.14,0.77,0.14,1.12-0.07c0.35-0.14,0.63-0.14,0.77-0.28
			c0.14,0,0.21,0,0.21-0.21c0.21-0.07,0.21-0.07,0.28-0.21c0.14-0.21,0.28-0.21,0.42-0.21h0.07c0.42,0,0.7,0,0.91-0.21
			c0.07-0.21,0.14-0.49,0.42-0.7c0.21-0.07,0.21-0.21,0.35-0.42c0.07,0,0.28-0.35,0.35-0.56c0.07-0.42,0.42-1.12,0.49-1.54h0.07
			c0.14,0,0.14,0,0.21,0h0.42c0.14,0,0.14,0,0.28-0.21c0.07-0.21,0.28-0.56,0.28-0.91c0.07-0.56,0.21-0.98,0.21-1.54
			c0-0.91,0.14-1.47,0.28-2.1c0-0.14,0-0.14,0.07-0.21h0.07c0.14-0.28,0.35-0.28,0.35-0.35c0.14-0.7,0.35-1.12,0.84-1.47
			c0.07-0.07,0.07-0.21,0.07-0.42c0.21-0.14,0.21-0.42,0.28-0.63c0-0.35,0-0.7-0.07-1.05c0-0.07-0.21-0.21-0.28-0.42
			c-0.07-0.35-0.28-0.56-0.28-0.98c0-0.21,0-0.35-0.14-0.7c-0.28-0.35-0.42-0.77-0.77-1.19l-0.28-0.42
			c-0.14-0.28-0.28-0.35-0.35-0.7c0-0.21-0.28-0.42-0.42-0.63c-0.28-0.28-0.56-0.35-0.77-0.49c-0.07-0.21-0.14-0.35-0.28-0.35
			c-0.28,0-0.35-0.21-0.56-0.28c-0.07-0.35-0.21-0.35-0.42-0.49c-0.07,0-0.07-0.07-0.07-0.07c-0.21-0.21-0.21-0.35-0.21-0.56
			c0-0.14-0.07-0.21-0.14-0.42c-0.14,0-0.21-0.14-0.21-0.14c-0.14-0.14-0.28,0-0.42,0c-0.07,0-0.07,0.14-0.28,0.14
			c-0.21,0.28-0.35,0.21-0.35,0.21c-0.42-0.49-0.7-0.7-1.05-1.12l-1.12-1.26c-0.14-0.21-0.63-0.21-0.84-0.42
			c-0.28-0.21-0.56-0.21-0.98-0.21h-0.28c-0.28,0.21-0.77,0.21-1.12,0.21h-0.7c-0.35,0-0.84,0.14-1.33,0.35
			c-0.14,0.07-0.21,0.35-0.42,0.42c-0.35,0.35-0.63,0.56-1.05,0.91c-0.07,0.07-0.35,0.35-0.49,0.42c-0.14,0-0.35,0.14-0.63,0.21
			c-0.21,0-0.28,0.14-0.42,0.14c-0.28,0.42-0.56,0.77-0.77,0.91c-0.21,0.28-0.49,0.63-0.56,0.84c-0.28,0.35-0.49,0.56-0.77,0.7
			c-0.28,0.07-0.42,0.35-0.56,0.35c-0.28,0.42-0.7,0.84-1.05,1.05l-0.14,0.28c-0.28,0.21-0.49,0.42-0.49,1.05
			c0,0.14-0.14,0.49-0.14,0.56v0.49c0.14,0,0.14,0.21,0.14,0.21c0,0.42,0,0.63-0.14,0.98v0.42
			C478.31,155.6,478.38,156.09,478.59,156.58z"/>
	</g>
	<g>
		<path d="M529.48,167.29l5.25-3.92c4.55-3.43,9.17-7.49,9.17-13.23c0-5.25-3.29-8.89-8.75-8.89c-5.95,0-9.59,4.2-9.59,11.62v0.77
			h-7.49v-1.19c0-10.64,7.07-17.15,17.08-17.15c9.66,0,16.03,5.95,16.03,14.84c0,7.98-5.18,13.16-13.58,19.39l-3.36,2.52
			c-4.62,3.43-6.86,5.25-7.42,6.86h24.92v6.58h-34.23C517.65,177.44,521.64,173.1,529.48,167.29z"/>
		<path d="M557.27,170.72h7.28c0,6.02,3.78,10.01,10.15,10.01c6.16,0,10.43-3.36,10.43-9.03c0-5.46-4.41-8.61-10.22-8.61h-3.08
			v-6.16h3.15c4.97,0,9.03-2.66,9.03-7.98c0-4.76-3.43-7.7-8.82-7.7c-6.16,0-9.66,3.5-9.87,9.17h-7.42
			c0.28-9.03,6.72-15.12,17.36-15.12c9.31,0,16.03,5.39,16.03,13.3c0,5.25-3.36,9.38-8.96,11.13c6.3,1.75,10.08,6.09,10.08,12.39
			c0,8.54-7.35,14.49-17.71,14.49C563.92,186.61,557.27,180.45,557.27,170.72z"/>
	</g>
</g>
</svg>
