<?xml version="1.0" encoding="utf-8"?>
<!-- Generator: Adobe Illustrator 26.4.1, SVG Export Plug-In . SVG Version: 6.00 Build 0)  -->
<svg version="1.1" id="Ebene_1" xmlns="http://www.w3.org/2000/svg" xmlns:xlink="http://www.w3.org/1999/xlink" x="0px" y="0px"
	 viewBox="0 0 650 195" style="enable-background:new 0 0 650 195;" xml:space="preserve">
<g>
	<path d="M23.03,54.34c-7.28,0-12.6-4.06-13.02-11.06H2.38c0.35,10.57,8.12,17.29,20.44,17.29c12.25,0,19.32-6.58,19.32-15.05
		c0-7.7-5.74-11.97-13.51-13.65l-8.47-1.82c-5.46-1.26-8.47-3.29-8.47-7.35c0-4.27,4.48-7.14,10.43-7.14c7,0,11.06,3.71,11.41,9.03
		h7.63C40.6,15.35,33.67,9.25,22.4,9.25c-10.57,0-18.34,5.88-18.34,14.07c0,7.63,6.09,12.04,13.65,13.65l7.7,1.68
		c5.67,1.19,9.1,3.29,9.1,7.63C34.51,51.4,30.1,54.34,23.03,54.34z"/>
	<path d="M48.93,33.06h-3.15v3.78h3.15c-0.07-0.7-0.07-1.4-0.07-2.17C48.86,34.11,48.86,33.62,48.93,33.06z"/>
	<path d="M56.7,36.84h-7.77c0.07,1.33,0.21,2.59,0.42,3.78h7.84C56.98,39.43,56.77,38.17,56.7,36.84z"/>
	<path d="M72.59,15.56c3.43,0,6.3,0.84,8.47,2.45h9.87c-0.98-1.4-2.1-2.66-3.43-3.78H57.82c-1.4,1.12-2.59,2.38-3.71,3.78h9.94
		C66.43,16.4,69.37,15.56,72.59,15.56z"/>
	<path d="M60.2,21.79h-8.47c-0.56,1.19-1.12,2.38-1.54,3.71h8.05C58.73,24.1,59.43,22.91,60.2,21.79z"/>
	<path d="M57.12,29.28h-7.84c-0.21,1.19-0.35,2.45-0.35,3.78h7.77C56.77,31.73,56.91,30.47,57.12,29.28z"/>
	<path d="M56.7,36.84h39.76v-3.78h-9.04c-1.96-0.21-3.08-1.4-3.29-3.29c-0.28,1.89-1.33,3.01-3.29,3.29H56.7
		c-0.07,0.56-0.07,1.05-0.07,1.61C56.63,35.44,56.63,36.14,56.7,36.84z"/>
	<path d="M90.93,51.89h-9.87c-2.24,1.54-5.11,2.45-8.54,2.45c-3.15,0-5.95-0.84-8.33-2.45H53.83c1.05,1.4,2.31,2.66,3.64,3.78h30.1
		C88.83,54.55,89.95,53.29,90.93,51.89z"/>
	<path d="M96.46,59.45v-3.78h-8.89c-2.03,1.68-4.41,2.94-7.07,3.78H96.46z"/>
	<path d="M58.38,44.4h-8.19c0.35,1.33,0.84,2.52,1.4,3.71h8.82C59.57,46.99,58.94,45.73,58.38,44.4z"/>
	<path d="M96.46,51.89v-3.78h-3.64c-0.49,1.33-1.12,2.59-1.89,3.78H96.46z"/>
	<path d="M84.63,48.11H60.41c1.05,1.54,2.38,2.8,3.78,3.78h16.87C82.53,50.91,83.72,49.58,84.63,48.11z"/>
	<path d="M86.17,44.4c0.14-0.49,0.28-0.98,0.35-1.47h7.56l-0.21,1.47h2.59v-3.78H57.19c0.35,1.33,0.7,2.59,1.19,3.78H86.17z"/>
	<path d="M85.75,25.5h8.12c-0.21-1.26-0.56-2.52-0.98-3.71h-8.54C84.98,22.91,85.47,24.17,85.75,25.5z"/>
	<path d="M45.78,40.62v3.78h4.41c-0.35-1.19-0.63-2.45-0.84-3.78H45.78z"/>
	<path d="M45.78,25.5v3.78h3.5c0.28-1.33,0.56-2.59,0.91-3.78H45.78z"/>
	<path d="M45.78,55.67v3.78h18.9c-2.73-0.84-5.11-2.1-7.21-3.78H45.78z"/>
	<path d="M45.78,18.01v3.78h5.95c0.7-1.33,1.47-2.59,2.38-3.78H45.78z"/>
	<path d="M80.5,59.45H64.68c2.38,0.77,5.04,1.12,7.84,1.12C75.39,60.57,78.05,60.15,80.5,59.45z"/>
	<path d="M45.78,48.11v3.78h8.05c-0.84-1.12-1.61-2.45-2.24-3.78H45.78z"/>
	<path d="M81.06,18.01H64.05c-1.47,0.98-2.8,2.24-3.85,3.78h24.15C83.51,20.25,82.39,18.99,81.06,18.01z"/>
	<path d="M86.03,26.76c-0.07-0.42-0.14-0.84-0.28-1.26H58.24c-0.49,1.19-0.84,2.45-1.12,3.78h39.34V25.5h-2.59
		c0.07,0.42,0.07,0.84,0.14,1.26H86.03z"/>
	<path d="M96.46,21.79v-3.78h-5.53c0.77,1.19,1.4,2.45,1.96,3.78H96.46z"/>
	<path d="M72.73,9.25c-2.73,0-5.39,0.42-7.77,1.19h15.68C78.26,9.67,75.6,9.25,72.73,9.25z"/>
	<path d="M45.78,10.45v3.78h12.04c2.1-1.68,4.48-2.94,7.14-3.78H45.78z"/>
	<path d="M96.46,14.23v-3.78H80.64c2.66,0.84,4.97,2.17,6.86,3.78H96.46z"/>
	<path d="M84.63,48.11h8.19c0.49-1.19,0.84-2.38,1.05-3.71h-7.7C85.82,45.73,85.33,46.99,84.63,48.11z"/>
	<path d="M129.08,17.24c0.21-1.89,1.26-3.01,3.22-3.22c-1.96-0.21-3.08-1.4-3.29-3.29c-0.28,1.89-1.33,3.01-3.29,3.29
		C127.68,14.16,128.8,15.35,129.08,17.24z"/>
	<path d="M143.85,9.25c0.21-1.89,1.26-3.01,3.22-3.22c-1.96-0.21-3.08-1.4-3.29-3.29c-0.28,1.89-1.33,3.01-3.29,3.29
		C142.45,6.17,143.57,7.36,143.85,9.25z"/>
	<path d="M153.38,49.72c-0.02,0.14-0.06,0.27-0.08,0.4l-0.57,1.4c-0.55,0.81-1.42,1.31-2.64,1.49c0.72,0.05,1.32,0.25,1.81,0.56
		l-2.38,5.88h7.91l5.32-14.14h11.85c1.09,0.5,1.74,1.5,1.95,2.87c0.16-1.4,0.77-2.37,1.88-2.87h5.89l5.39,14.14h8.26l-19.88-49
		h-8.75L153.4,49.85C153.39,49.81,153.38,49.77,153.38,49.72z M171.92,21.09c0.63-1.47,1.19-2.94,1.68-4.41
		c0.49,1.47,0.98,2.87,1.54,4.41L182,39.08h-16.87L171.92,21.09z"/>
	<path d="M178.72,98.16c-1.96-0.21-3.08-1.4-3.29-3.29c-0.28,1.89-1.33,3.01-3.29,3.29c1.96,0.14,3.08,1.33,3.36,3.22
		C175.71,99.49,176.76,98.37,178.72,98.16z"/>
	<path d="M146.52,88.92c0.21-1.89,1.26-3.01,3.22-3.22c-1.96-0.21-3.08-1.4-3.29-3.29c-0.28,1.89-1.33,3.01-3.29,3.29
		C145.11,85.84,146.23,87.03,146.52,88.92z"/>
	<path d="M102.41,32.99c-0.28,1.89-1.33,3.01-3.29,3.29c1.96,0.14,3.08,1.33,3.36,3.22c0.16-1.46,0.83-2.46,2.03-2.93v22.88h7.42
		V37.12h19.24c-0.42,1.47-1.44,2.35-3.14,2.59c1.96,0.14,3.08,1.33,3.36,3.22c0.21-1.89,1.26-3.01,3.22-3.22
		c-1.71-0.18-2.77-1.11-3.16-2.59h5.26v22.33h7.42v-49h-7.42v20.37h-24.78V10.45h-7.19c0.47-0.29,1.04-0.49,1.73-0.56
		c-1.96-0.21-3.08-1.4-3.36-3.29c-0.21,1.89-1.26,3.01-3.22,3.29c1.96,0.14,3.08,1.33,3.29,3.22c0.16-1.11,0.6-1.95,1.33-2.5v25.38
		C103.29,35.49,102.57,34.45,102.41,32.99z"/>
	<path d="M151.91,28.02c0.21-1.89,1.26-3.01,3.22-3.22c-1.96-0.21-3.08-1.4-3.29-3.29c-0.28,1.89-1.33,3.01-3.29,3.29
		C150.51,24.94,151.63,26.13,151.91,28.02z"/>
	<path d="M113.26,62.6c-0.28,1.89-1.33,3.01-3.29,3.29c1.96,0.14,3.08,1.33,3.36,3.22c0.21-1.89,1.26-3.01,3.22-3.22
		C114.59,65.68,113.47,64.49,113.26,62.6z"/>
	<path d="M130.9,106.63c1.96,0.14,3.08,1.33,3.36,3.22c0.21-1.89,1.26-3.01,3.22-3.22c-1.96-0.21-3.08-1.4-3.29-3.29
		C133.91,105.24,132.86,106.36,130.9,106.63z"/>
	<path d="M118.09,57.91c0.21-1.89,1.26-3.01,3.22-3.22c-1.96-0.21-3.08-1.4-3.29-3.29c-0.28,1.89-1.33,3.01-3.29,3.29
		C116.69,54.83,117.81,56.02,118.09,57.91z"/>
	<path d="M111.09,95.57c0.21-1.89,1.26-3.01,3.22-3.22c-1.96-0.21-3.08-1.4-3.29-3.29c-0.28,1.89-1.33,3.01-3.29,3.29
		C109.69,92.49,110.81,93.68,111.09,95.57z"/>
	<path d="M133.91,72.12c-1.96-0.21-3.08-1.4-3.29-3.29c-0.28,1.89-1.33,3.01-3.29,3.29c1.96,0.14,3.08,1.33,3.36,3.22
		C130.9,73.45,131.95,72.33,133.91,72.12z"/>
	<polygon points="210.77,37.61 234.78,37.61 234.78,31.38 210.77,31.38 210.77,16.68 236.04,16.68 236.04,10.45 203.35,10.45 
		203.35,59.45 210.77,59.45 	"/>
	<polygon points="251.09,37.61 275.1,37.61 275.1,31.38 251.09,31.38 251.09,16.68 276.36,16.68 276.36,10.45 243.67,10.45 
		243.67,59.45 251.09,59.45 	"/>
	<polygon points="291.48,37.12 316.26,37.12 316.26,59.45 323.68,59.45 323.68,10.45 316.26,10.45 316.26,30.82 291.48,30.82 
		291.48,10.45 284.06,10.45 284.06,59.45 291.48,59.45 	"/>
	<path d="M352.8,17.38c0.07-0.21,0.07-0.42-0.28-0.35c-0.14,0-0.35,0.07-0.56,0.14c-0.91,0.28-1.61,0.77-1.54,1.89
		c0.07,0.49-0.21,0.84-0.56,1.19c-0.35,0.21-0.63,0.49-0.91,0.77c-0.14,0.14-0.14,0.35-0.21,0.49c0.21,0,0.42,0.14,0.56,0.07
		c0.98-0.49,1.89-1.12,2.45-2.17c0.14-0.35,0.35-0.84,0.56-1.26l0.49-0.42C352.8,17.59,352.73,17.52,352.8,17.38z"/>
	<path d="M349.23,19.83c0.49-0.42,0.91-0.91,0.84-1.75c0-0.49,0.21-0.77,0.63-0.91c0.7-0.35,1.33-0.56,2.03-0.7
		c1.05-0.21,2.24-1.61,2.31-2.59c0-0.07,0-0.07,0.07-0.21c-0.21-0.28-0.35-0.7-0.63-0.98c-0.07-0.14-0.35-0.21-0.49-0.14
		c-0.7,0.42-1.4,0.77-1.89,1.4c-0.63,1.05-1.4,2.1-2.1,3.08c-0.35,0.63-0.63,1.26-1.19,1.75c-0.35,0.28-0.28,0.49-0.14,0.91
		C348.81,19.97,348.95,20.04,349.23,19.83z"/>
	<path d="M347.41,22.49l-0.14,0.35c-0.49,1.05-0.77,2.17-0.21,3.36c0.14,0.49,0.14,0.98-0.07,1.47c-0.21,0.49-0.49,0.98-0.77,1.47
		c-0.21,0.28-0.21,0.63-0.21,0.91c0,0.07,0.07,0.21,0.14,0.21c0.07,0,0.14,0,0.21-0.07c0.49-0.42,0.84-0.91,1.05-1.47
		c0.84-1.4,1.12-2.87,0.98-4.41V22.7c-0.07-0.42,0-0.91-0.28-1.33C347.62,21.58,347.62,22.14,347.41,22.49z"/>
	<path d="M345.66,23.54c0.14,1.12,0.07,2.31-0.35,3.36c-0.21,0.49-0.14,0.77,0.14,1.05c0.28,0.35,0.42,0.35,0.56,0
		c0.49-0.84,0.77-1.75,0.21-2.66c-0.14-0.28-0.28-0.63-0.14-1.05c0.56-0.98,0.98-2.1,1.4-3.08c0.14-0.35,0.21-0.7,0.35-0.98
		c-0.14-0.98-0.49-1.82-1.12-2.45c-0.28-0.21-0.77-0.28-1.19-0.28c-0.49,0-0.63,0.35-0.63,0.84c0,0.56,0,1.12,0.14,1.68
		C345.38,21.16,345.45,22.35,345.66,23.54z"/>
	<path d="M352.8,17.73v0.07h0.07C352.8,17.8,352.8,17.73,352.8,17.73z"/>
	<path d="M361.27,29c0.07-0.49-0.07-0.77-0.35-1.12c0-0.07-0.07-0.14-0.14-0.14c-0.07,0-0.14,0.07-0.21,0.14
		c-0.07,0.14-0.07,0.28-0.14,0.35c-0.42,1.61-0.07,3.15,0.56,4.62c0.56,1.47,1.47,2.73,2.52,3.92c0.07,0.14,0.14,0.21,0.28,0.28
		c0.07,0.07,0.21,0.07,0.21,0.07c0.07-0.07,0.07-0.14,0.07-0.21c-0.28-1.05-0.49-2.03-0.7-3.15c-0.14-0.49-0.42-0.91-0.84-1.26
		c-0.98-0.77-1.33-1.75-1.33-3.01C361.27,29.28,361.27,29.14,361.27,29z"/>
	<path d="M343.49,36.56c-0.07,0.49,0.21,0.77,0.49,1.05c0.14,0.21,0.28,0.14,0.35-0.07c0.42-0.98,0.56-1.96-0.07-2.8
		c-0.35-0.42-0.35-0.84-0.28-1.33c0.28-0.98,0.49-2.1,0.7-3.15l0.21-0.98c0-0.84-1.05-2.24-2.03-2.45c-0.35-0.14-0.7-0.07-0.98,0.14
		c-0.49,0.28-0.56,0.49-0.42,0.91c0.28,0.77,0.56,1.54,0.91,2.31C343.28,32.22,343.91,34.25,343.49,36.56z"/>
	<path d="M360.36,21.09c-0.14-0.42-0.35-0.56-0.77-0.63c-0.28,0-0.42,0.07-0.42,0.35c0.14,0.77,0.42,1.47,1.19,1.89
		c0.56,0.28,0.84,0.7,0.91,1.26c0.21,1.19,0.56,2.24,0.91,3.43c0.28,1.05,1.47,1.96,2.59,1.82c0.63,0.14,1.12-0.21,1.33-0.77
		c0.14-0.21,0.21-0.49-0.07-0.7c-0.42-0.56-0.98-1.05-1.61-1.54C362.67,24.87,361.2,23.26,360.36,21.09z"/>
	<path d="M358.4,19.27c-0.07-0.14-0.07-0.28-0.14-0.42c-0.28-0.28-0.63-0.56-0.98-0.77c-0.49-0.49-0.98-0.63-1.61-0.21
		c-0.56,0.35-1.19,0.35-1.61-0.07c-0.49-0.35-0.84-0.14-1.19,0c0.21,0.21,0.42,0.42,0.7,0.63c0.49,0.35,0.91,0.7,1.54,0.7
		c0.98,0.14,1.89,0.21,2.8,0.28C358.12,19.41,358.26,19.27,358.4,19.27z"/>
	<path d="M361.27,27.32c0,0.07,0.14,0.07,0.21,0.07c0-0.07,0.07-0.14,0.07-0.21c-0.28-0.91-0.49-1.75-0.7-2.59
		c-0.14-0.84-0.56-1.4-1.26-1.82c-0.63-0.42-0.91-0.91-0.98-1.61l-0.21-1.05c-0.07-0.07-0.21-0.21-0.35-0.21
		c-0.07,0-0.21,0.07-0.28,0.14l-0.21,0.84c0.21,0.63,0.35,1.4,0.63,2.1c0.7,1.47,1.68,2.8,2.73,4.06
		C360.99,27.11,361.13,27.25,361.27,27.32z"/>
	<path d="M358.47,50c1.89-0.21,3.64-0.91,5.25-1.89c0.21-0.07,0.49-0.35,0.49-0.49c-0.14-0.35-0.42-0.07-0.63-0.07
		c-0.91,0.14-1.82,0.28-2.73,0.28c-0.84,0-1.54,0.21-2.17,0.7c-1.05,0.7-2.1,0.77-3.29,0.49c-0.28-0.14-0.63-0.21-0.91-0.28h-0.91
		c-0.07,0-0.21,0.14-0.21,0.14c0,0.14,0.07,0.28,0.14,0.35c1.12,0.7,2.52,0.77,3.92,0.91C357.7,50.14,358.05,50.07,358.47,50z"/>
	<path d="M376.82,60.92c0.28,0.7,1.12,0.84,1.61,0.28c0.21-0.21,0.42-0.49,0.49-0.84c0-0.35,0-0.77-0.07-1.12
		c-0.28-1.33-0.98-2.59-1.82-3.64c-0.07-0.14-0.14-0.21-0.28-0.28c-0.07,0-0.14-0.07-0.21,0c-0.07,0-0.14,0.14-0.07,0.21
		c0.14,0.77,0.35,1.54,0.56,2.38c0.07,0.42,0.21,0.84,0.28,1.26l-0.14,0.14c-0.07,0-0.14,0-0.14-0.07l-0.28-0.49
		c-0.21-0.77-0.28-1.54-0.49-2.24c-0.21-0.77-0.42-1.54,0.21-2.24V54.2c0.42-1.47,0.49-2.87,0.14-4.41c-0.21-1.19-0.7-2.38-1.4-3.36
		c-0.35-0.49-0.56-0.98-0.07-1.47l0.14-0.14c0.07-0.07,0.07-0.14,0-0.21h-0.21c-1.19,0.35-2.31,0.84-3.43,1.26
		c-0.77,0.28-1.33,0.56-1.89,1.12c-0.77,0.77-1.68,1.12-2.73,1.12c-0.42,0-0.84,0-1.19-0.07c-0.42-0.14-0.84,0-1.19,0.21
		c-0.21,0.07-0.21,0.28,0,0.35c0.56,0.14,0.7,0.56,0.7,1.05c0,0.56,0.07,1.12,0.21,1.61c0.42,1.89,1.47,3.5,2.73,5.04
		c0.07,0.21,0.42,0.42,0.49,0.35c0.28-0.14,0.07-0.42,0-0.7c-0.14-0.63-0.28-1.26-0.42-1.75c-0.14-1.05-0.49-2.03-1.33-2.66
		c-0.56-0.49-0.84-1.12-0.84-1.89c0-0.14,0-0.21,0.07-0.35c0-0.07,0.14-0.14,0.21-0.21c0.14,0,0.28,0.07,0.35,0.14
		c0.07,0.14,0.07,0.28,0.07,0.42c0.14,0.98,0.49,1.82,1.33,2.24c0.21,0.21,0.42,0.56,0.49,0.98c0.28,1.19,0.56,2.38,0.77,3.57
		c0.21,1.47,1.33,2.1,2.66,2.31c0.56,0.14,1.26-0.42,1.47-1.05c0.07-0.28-0.07-0.49-0.28-0.63c-0.35-0.49-0.77-0.84-1.26-1.26
		c-0.56-0.56-1.26-1.05-1.68-1.61c-1.19-1.26-2.1-2.73-2.38-4.62c-0.07-0.42,0-0.49,0.35-0.63c0.42-0.07,0.84-0.14,1.26-0.07
		c0.63,0.07,1.05-0.14,1.47-0.63c0.28-0.28,0.63-0.56,0.98-0.77c0.49-0.28,0.7-0.21,1.05,0.14c0.21,0.14,0.42,0.35,0.56,0.56
		c0.42,0.98,0.91,1.89,0.7,3.01c-0.14,0.63-0.35,1.19-0.56,1.75c-0.21,0.63-0.49,1.12-1.26,1.12c-0.35,0-0.56,0.49-0.28,0.77
		c0.14,0.21,0.42,0.42,0.63,0.56c0.77,0.7,1.68,1.26,2.45,2.03c0.84,0.7,1.26,1.61,1.33,2.8C376.68,60.43,376.75,60.71,376.82,60.92
		z M373.88,46.71c0-0.07,0.07-0.21,0.14-0.35c0.07,0.07,0.21,0.14,0.21,0.21c0.28,0.84,0.49,1.75,0.7,2.59c0,0.14,0,0.21,0.07,0.28
		c-0.07,0-0.07,0.07-0.14,0.07h-0.07c-0.14-0.21-0.28-0.42-0.35-0.63C374.22,48.11,374.08,47.41,373.88,46.71z M375.34,53.64
		c0,0.14-0.07,0.28-0.21,0.35c-0.07,0.07-0.21,0.14-0.35,0.07l-0.21-0.28v-0.14c0.49-0.98,0.56-2.03,0.56-3.08
		c0-0.07,0.07-0.14,0.07-0.21c0.14,0,0.21,0.07,0.28,0.14c0.07,0.42,0.14,0.77,0.28,1.26L375.34,53.64z"/>
	<path d="M342.16,47.06l0.21-0.21c-0.07-0.07-0.14-0.14-0.28-0.14c-1.12-0.28-2.17-0.49-3.22-0.77c-0.7-0.21-1.33-0.28-2.03,0
		c-1.05,0.42-1.89,0.21-2.87-0.28c-0.28-0.21-0.7-0.35-0.84-0.63c-0.42-0.28-0.84-0.28-1.26-0.42c-0.07,0-0.21,0-0.28,0.07
		c0,0.07,0,0.21,0.07,0.28c0.49,0.63,1.19,1.19,1.89,1.47c1.05,0.42,1.75,0.98,1.96,2.1c0,0.07,0,0.21,0.07,0.21
		c0.07,0.14,0.21,0.21,0.28,0.21c0.07,0,0.14-0.21,0.21-0.28c0.07-0.35-0.14-0.77,0.21-1.05c0.42,0.35,0.14,0.77,0.14,1.12
		c0.07,0.42-0.07,0.77-0.49,0.98c-0.28,0.14-0.42,0.49-0.49,0.84c-1.19,1.96-1.47,4.06-0.98,6.3c0.07,0.56,0.28,1.05,0.49,1.61
		c0,0,0.14,0.07,0.14,0.14l0.28-0.28c0.14-1.12,0.14-2.17,0.28-3.29c0-0.07,0.14-0.14,0.21-0.21l0.14,0.21
		c0.14,1.26-0.21,2.45-0.42,3.64c0,0.21-0.14,0.28-0.28,0.42c-1.26,0.77-1.82,2.03-2.31,3.22c-0.35,0.7-0.07,1.26,0.42,1.54
		c0.63,0.28,1.19,0.14,1.68-0.42c0.42-0.56,0.84-1.19,1.4-1.68c0.49-0.56,1.05-0.91,1.75-0.56h0.14c0.35,0,0.63-0.28,0.49-0.63
		c-0.07-0.28-0.28-0.63-0.42-0.91c-0.56-0.84-1.05-1.68-1.54-2.66c-0.63-1.05-0.7-2.31-0.07-3.43c0.35-0.63,0.84-1.26,1.19-1.82
		c0.28-0.42,0.63-0.63,1.19-0.49c0.28,0.07,0.56,0,0.77-0.28c0.14-0.35-0.07-0.56-0.21-0.84c-0.14-0.14-0.28-0.28-0.42-0.49
		c-0.42-0.49-0.91-1.05-1.33-1.61c-0.14-0.28-0.07-0.42,0.28-0.49c0.56-0.14,0.91,0,1.12,0.56c0.42,0.77,0.91,1.47,1.4,2.24
		c0.49,0.63,0.84,1.4,1.12,2.03c0.49,1.47,0.84,2.87,0.42,4.41c-0.14,0.56,0.21,0.84,0.49,1.19c0.07,0,0.28-0.07,0.28-0.14
		c0.42-0.91,0.63-1.82,0.14-2.73c-0.49-0.77-0.7-1.4-0.42-2.31c0.07-0.14,0.07-0.28,0.07-0.49c0-0.91,0-1.96,0.07-2.87
		c0-0.28-0.14-0.7,0.21-0.77c0.28,0,0.56,0.14,0.84,0.28c0.14,0.07,0.21,0.28,0.28,0.42c0.14,0.14,0.21,0.14,0.49,0.07
		c0.14-0.07,0.42-0.07,0.63-0.07l2.03,0.21c1.54,0,2.94-0.28,4.41-0.7c0.35-0.14,0.7-0.35,1.05-0.56c0.14,0,0.21-0.14,0.28-0.21
		c-0.14-0.07-0.21-0.14-0.28-0.14c-1.12-0.14-2.31-0.21-3.43-0.28c-0.56-0.07-1.12,0-1.68,0.28c-1.26,0.7-2.52,0.56-3.71-0.07
		c-0.63-0.28-1.26-0.49-1.89-0.49c-0.07,0-0.14-0.14-0.21-0.21C342.02,47.13,342.09,47.13,342.16,47.06z M336.21,60.71
		c-0.7,0.56-1.26,1.33-1.75,2.17c-0.07,0.07-0.21,0.07-0.35,0.14c0-0.07-0.07-0.14-0.07-0.21c-0.07-0.07-0.07-0.21,0-0.28
		c0.35-0.91,0.91-1.61,1.54-2.24c0.14-0.07,0.21-0.14,0.35-0.14c0.14,0,0.21,0.07,0.28,0.14c0.07,0.07,0.07,0.21,0.07,0.35
		C336.28,60.64,336.28,60.71,336.21,60.71z M337.4,51.05c-0.7,0.77-1.19,1.75-1.54,2.8c0,0-0.07,0.07-0.14,0.07
		c-0.07,0-0.14-0.07-0.14-0.14c-0.07-0.14-0.07-0.35-0.07-0.49c0.21-0.98,0.63-1.75,1.19-2.59c0.07-0.07,0.14-0.14,0.21-0.14
		l0.49,0.21C337.4,50.91,337.4,50.98,337.4,51.05z"/>
	<path d="M370.38,44.19c-0.63,0.14-0.7,0.28-0.56,0.7c0,0.21,0.21,0.42-0.07,0.63c-0.28,0.21-0.49,0.14-0.77-0.07
		c-0.14-0.14-0.35-0.21-0.49-0.42c-0.77-0.84-1.61-1.75-2.17-2.8c-0.14-0.28-0.28-0.49-0.35-0.7c0,0-0.14,0-0.14,0.07
		c-0.07,0-0.14,0.14-0.07,0.21l0.56,0.98c0.07,0.07,0.07,0.28,0.14,0.42c-0.14,0-0.28,0-0.42-0.07c-0.56-0.35-0.56-0.35-1.12,0.14
		l-1.75,1.61c-0.28,0.21-0.49,0.42-0.77,0.63c-1.82,1.19-3.64,2.1-5.95,1.82c-0.49-0.07-0.7,0.35-0.91,0.63
		c-0.07,0.07,0.07,0.28,0.14,0.28c1.12,0.35,2.17,0.35,3.15-0.49c0.42-0.42,0.91-0.49,1.54-0.49c1.4-0.07,2.8-0.21,4.2-0.35
		c0.56-0.07,0.98-0.35,1.33-0.7c0.14-0.28,0.35-0.56,0.63-0.84c0-0.07,0.21,0,0.21,0c0.14,0.42,0.42,0.84,0,1.26
		c-0.14,0.21-0.42,0.42-0.28,0.56c0.14,0.14,0.42,0.14,0.63,0.14c1.19,0,2.17-0.21,2.87-1.26c0.35-0.49,0.7-0.63,1.19-0.7
		c1.61-0.28,3.01-0.91,4.34-1.61c1.05-0.56,1.54-1.82,1.19-3.01c-0.14-0.56-0.91-1.12-1.4-1.05c-0.14,0.07-0.35,0.14-0.42,0.28
		c-0.42,0.56-0.84,1.19-1.19,1.82c-0.35,0.56-0.56,1.12-1.12,1.47c-0.49-0.49-0.56-1.05-0.7-1.61l-0.56,1.75
		C371.14,43.84,370.79,44.12,370.38,44.19z"/>
	<path d="M377.94,43.42c1.12-0.42,2.1-0.91,2.38-2.1c0-0.07,0.07-0.14,0.14-0.21l0.28-0.07c0.07,0,0.14,0.14,0.14,0.21
		c-0.28,1.26-0.91,2.1-2.03,2.59c-0.63,0.35-1.19,0.56-1.82,0.7c-0.49,0.07-0.77,0.28-1.12,0.49c-0.07,0-0.07,0.14-0.07,0.21
		s0.07,0.14,0.14,0.14h0.63c0.28,0,0.56,0,0.77-0.07c1.82-0.42,3.36-1.26,4.69-2.66c0.28-0.21,0.35-0.63,0.49-1.05
		c0.14-0.49-0.07-0.98-0.49-1.33c-0.42-0.21-0.91-0.21-1.33,0c-0.42,0.28-0.77,0.63-1.19,0.98c-0.42,0.35-0.84,0.7-1.33,0.91
		c-0.35,0.21-0.56,0.35-0.63,0.7c-0.07,0.21-0.42,0.49-0.14,0.7C377.52,43.63,377.79,43.49,377.94,43.42z"/>
	<path d="M354.27,16.68c-0.14,0.21-0.07,0.35,0.07,0.49c0.56,0.35,1.19,0.42,1.75,0c0.42-0.28,0.7-0.28,1.05,0.07
		c0.56,0.56,1.26,0.98,1.75,1.61c0.63,0.7,1.47,0.91,2.38,1.05l0.91-0.21c0.42-0.07,0.63-0.42,0.84-0.7
		c0.21-0.42,0.07-0.91-0.42-1.12c-0.77-0.42-1.54-0.84-2.52-0.84c-0.84-0.07-1.61-0.14-2.38-0.28c-0.98-0.14-1.89-0.07-2.8-0.42
		C354.55,16.19,354.41,16.47,354.27,16.68z"/>
	<path d="M330.68,44.19c0.21,0,0.56-0.07,0.84-0.14c0.07,0,0.14-0.14,0.21-0.21c-0.07-0.07-0.07-0.14-0.14-0.14
		c-0.77-0.35-1.61-0.63-2.38-0.98c-0.84-0.28-1.61-0.7-2.59-0.63c-0.07,0-0.21-0.14-0.28-0.21l0.21-0.21
		c0.63-0.21,1.26-0.21,1.89,0.21c1.26,0.63,2.59,0.98,3.92,1.54c0.49,0.14,0.84,0.07,1.26,0c0.28-0.07,0.56-0.21,0.84-0.28
		c0.07,0,0.21,0.14,0.28,0.21c0.07,0.35,0,0.7-0.35,0.91c-0.63,0.42-0.63,0.49,0.07,0.77c0.98,0.49,1.82,0.7,2.87,0.21
		c0.42-0.21,0.77-0.14,1.26,0c1.05,0.35,2.17,0.56,3.29,0.84c0.84,0.21,1.75,0.35,2.66-0.14c0-0.07,0.07-0.07,0.07-0.07
		c0.21,0.07,0.35,0.14,0.49,0.28c0.14,0.21,0.07,0.42-0.07,0.56c-0.14,0.14-0.21,0.21-0.35,0.28c-0.14,0.14-0.21,0.21,0,0.35
		c0.91,0.42,1.82,0.77,2.8,0.21c0.77-0.42,1.54-0.56,2.38-0.35c0.14,0.07,0.28,0.07,0.42,0.07l2.94,0.21
		c1.19,0.07,2.1-0.49,2.8-1.61c0.35-0.7,0.21-1.19-0.21-1.82c-0.28-0.35-0.56-0.42-0.98-0.21c-0.63,0.42-1.33,0.84-2.03,1.26
		c-0.56,0.28-0.98,0.56-1.47,0.84c-1.05,0.42-2.03,0.7-3.08,0.84c-0.7,0.14-1.33,0.14-2.03-0.07c-0.42-0.07-0.56-0.21-0.42-0.63
		c0.21-0.77-0.14-1.47-0.14-2.31c0-0.28-0.21-0.56-0.42-0.84c-0.07-0.14-0.35-0.21-0.49-0.14c-0.77,0.28-1.54,0.63-2.24,0.98
		c-1.61,0.77-3.22,1.05-4.97,0.98c-0.35,0-0.49-0.14-0.42-0.56c0.21-1.19,0.84-2.03,1.61-2.94c0.21-0.21,0.42-0.21,0.7-0.14
		c0.49,0.14,0.77,0.07,0.91-0.49c0-0.21,0.21-0.21,0.35-0.14c0.14,0.14,0.35,0.28,0.42,0.49c0.35,0.35,0.63,0.7,0.28,1.19
		c0,0.07,0,0.21-0.07,0.28c0,0.35,0.35,0.7,0.77,0.56c0.21-0.14,0.42-0.28,0.7-0.42c0.98-0.42,1.89-0.91,2.8-1.47
		c0.84-0.42,1.75-0.49,2.59-0.28c1.12,0.21,1.96,0.77,2.8,1.54c0.49,0.35,0.77,0.7,0.63,1.4c-0.07,0.49,0.35,0.84,0.77,0.56
		c0.28-0.14,0.63-0.42,0.91-0.63l2.45-1.82c0.84-0.63,1.89-0.77,2.94-0.56c0.84,0.14,1.68,0.49,2.45,0.98
		c0.42,0.28,0.77,0.63,0.77,1.26c0.07,0.63,0.56,0.84,1.05,0.35l0.42-0.42c0.7-0.84,1.47-1.61,2.24-2.45
		c0.63-0.77,1.61-0.98,2.59-1.05c0.91-0.07,1.75,0.14,2.59,0.35c0.7,0.21,1.05,0.56,1.05,1.33c0.7,0.21,0.91,0.21,1.12-0.21
		c0.07-0.21,0.21-0.42,0.28-0.7c0.42-0.77,0.77-1.54,1.12-2.45c0.35-0.77,0.98-1.4,1.54-1.96c0.28-0.21,0.63-0.28,0.91-0.49
		c0.42-0.35,0.49-0.77,0.14-1.26c-0.14-0.14-0.28-0.28-0.49-0.35c-0.63-0.35-1.19-0.28-1.75,0.21c-0.49,0.42-0.91,0.91-1.33,1.26
		c-0.63,0.7-0.63,0.7-1.26,0c-0.07-0.07-0.07-0.14-0.14-0.14c-0.14-0.07-0.21-0.07-0.35-0.07c0,0-0.07,0.14-0.07,0.21
		c0.14,0.63,0.28,1.26,0.35,1.89c0.91-0.07,1.47-0.63,2.24-0.98l0.84-0.49c0.07-0.07,0.21,0,0.28,0c-0.07,0.07,0,0.21-0.07,0.28
		c-0.77,0.63-1.68,1.05-2.59,1.4c-0.21,0.07-0.56,0.07-0.7-0.21c-0.14-0.14-0.28-0.28-0.35-0.42c-0.14-0.42-0.28-0.84-0.35-1.26
		c-0.14-0.35-0.07-0.63,0.14-0.98c0.28-0.28,0.35-0.77,0.42-1.12c0.49-2.94-0.35-5.46-2.1-7.77l-0.42-0.28c0-0.07-0.14,0-0.21,0
		v0.14c0,0.14,0.07,0.35,0.07,0.49c0.28,1.05,0.56,2.03,0.77,3.01c0.07,0.07,0,0.14-0.07,0.21c-0.07,0-0.14-0.07-0.21-0.07
		c0-0.07-0.07-0.14-0.14-0.21l-0.84-3.57c-0.07-0.14,0-0.35,0.07-0.56c0.56-0.91,0.7-1.82,0.63-2.8c-0.07-1.75-0.63-3.43-1.61-4.97
		c-0.63-0.84-1.4-1.68-2.24-2.38c-0.14-0.07-0.28-0.35-0.49-0.14c-0.07,0.07,0,0.35,0.07,0.49c0.14,0.21,0.35,0.42,0.49,0.7
		c0.49,1.05,0.98,2.24,1.54,3.29c0,0.07-0.07,0.21-0.14,0.28c-0.07-0.07-0.14-0.07-0.14-0.14l-0.77-1.4
		c-0.28-0.77-0.7-1.47-1.12-2.24c-0.35-0.56-0.7-1.12-0.7-1.75c0-0.42-0.28-0.91-0.49-1.33c-1.89-3.64-6.58-5.46-10.36-4.2
		c-0.49,0.14-0.98,0.21-1.26,0.77c0.42,0,0.84,0,1.26,0.07h0.77c0.84-0.07,1.75,0.14,2.59,0.21c0.28,0,0.56,0.14,0.84,0.21
		c0.07,0.07,0.14,0.14,0.14,0.21c-0.07,0-0.14,0.07-0.21,0.07c-0.28,0-0.56,0-0.84-0.07c-1.47-0.35-3.01-0.42-4.62-0.28
		c-0.14,0-0.35,0-0.49-0.14c-0.7-0.42-1.47-0.42-2.24-0.35c-1.82,0.21-3.43,0.77-4.76,1.96c-1.75,1.33-2.87,3.08-3.29,5.32
		c-0.07,0.14-0.07,0.42-0.07,0.63c0,0.07,0.07,0.21,0.14,0.21c0,0,0.14,0,0.21-0.07c0.21-0.35,0.42-0.7,0.63-0.98
		c0.49-0.77,0.98-1.54,1.54-2.17c0.21-0.35,0.49-0.56,0.77-0.84c0.07-0.07,0.14-0.07,0.21-0.07c0,0.07,0.07,0.14,0,0.21
		c-0.14,0.28-0.28,0.63-0.56,0.84c-0.84,0.91-1.54,2.03-2.17,3.08c-0.21,0.42-0.42,0.84-1.05,0.91c-0.21,0-0.42,0.28-0.56,0.42
		c-2.1,1.82-2.94,4.27-3.01,6.93c-0.07,0.7,0.21,1.54,0.35,2.31l0.14,0.14c0.07-0.07,0.14-0.14,0.14-0.21
		c0.14-0.42,0.28-0.84,0.35-1.33c0.21-0.7,0.42-1.47,0.56-2.24c0.07-0.07,0.14-0.14,0.21-0.14l0.14,0.14c0,0.28,0,0.56-0.07,0.77
		c-0.21,0.98-0.49,1.96-0.77,2.94c-0.07,0.28-0.21,0.49-0.42,0.56c-0.63,0.42-1.05,1.12-1.47,1.82c-0.98,1.61-1.26,3.43-1.12,5.32
		c0.07,0.42,0,0.63-0.42,0.7c-0.21,0.07-0.28,0.28-0.07,0.35c0.42,0.21,0.7,0.35,1.12,0.49c0.84,0.28,1.68,0.49,2.45,0.7l0.21,0.21
		c-0.07,0-0.14,0-0.21,0c-0.28,0-0.63,0.07-0.84,0c-0.98-0.35-1.96-0.63-2.87-0.98c-0.28-0.07-0.42-0.28-0.56-0.56
		c-0.77-1.4-1.96-2.38-3.36-3.01c-0.63-0.28-1.19-0.14-1.54,0.42c-0.28,0.49-0.21,1.05,0.28,1.4c0.07,0.14,0.21,0.21,0.28,0.28
		c0.77,0.56,1.19,1.33,1.68,2.03c0.28,0.49,0.35,0.91,0,1.4c-0.28,0.42,0,0.91,0.56,0.84c0.49-0.07,0.91-0.28,1.33-0.42
		c1.12-0.35,2.1-0.7,3.15-1.05c0.07,0,0.21,0,0.28,0.07c0,0,0,0.14-0.07,0.21c0,0.07,0,0.28-0.07,0.35
		c-0.7,0.35-0.84,0.91-0.77,1.61c0,0.07-0.14,0.21-0.14,0.21c-0.07,0-0.28-0.07-0.28-0.14c-0.21-0.63-0.7-0.7-1.26-0.56
		c-0.77,0.21-1.4,0.42-2.1,0.56c-0.77,0.21-1.47,0.35-2.31,0.35c-0.91,0-1.75-0.07-2.66-0.21c-0.7-0.14-1.26,0-1.75,0.63
		c-0.14,0.14-0.35,0.21-0.49,0.35v0.7c1.12,0.91,1.12,0.91,1.96,1.12C328.16,44.05,329.35,44.26,330.68,44.19z M341.95,40.34
		c-0.63-0.77-1.54-1.33-2.38-1.89l-0.14-0.21c0.07-0.07,0.21-0.21,0.28-0.21c0.21,0,0.35,0.07,0.49,0.14
		c0.77,0.35,1.47,0.98,2.17,1.54c0.14,0.14,0.14,0.28,0.14,0.35C342.51,40.34,342.09,40.55,341.95,40.34z M352.17,41.74
		c-0.14,0.21-0.28,0.14-0.42,0c-0.77-0.7-1.61-1.12-2.52-1.47c-0.14,0-0.14-0.14-0.28-0.14l0.35-0.21c0,0,0.07,0,0.21,0
		c0.14,0.07,0.42,0.07,0.7,0.14c0.56,0.21,1.19,0.56,1.68,0.84c0.14,0.07,0.21,0.21,0.28,0.28
		C352.38,41.32,352.31,41.53,352.17,41.74z M362.18,41.46c-0.14,0.21-0.28,0.28-0.49,0.14c-0.77-0.56-1.68-0.84-2.59-1.05
		c-0.14,0-0.35,0-0.21-0.28c0-0.14,0.14-0.14,0.28-0.21c0.28,0,0.49,0.07,0.77,0.07c0.7,0.21,1.33,0.49,2.03,0.7
		C362.32,40.97,362.32,41.18,362.18,41.46z M367.22,39.71c-0.07,0-0.14,0.07-0.21,0.07c-1.05,0.21-2.17,0.35-3.15,0.56
		c-0.28-0.07-0.42-0.07-0.63-0.14l-0.07-0.07l0.07-0.07l0.07-0.07c1.33,0,2.59-0.42,3.85-0.63l0.14,0.14
		C367.29,39.57,367.29,39.64,367.22,39.71z M371.29,38.8c0.07,0,0.21,0.07,0.28,0.21c0.07,0.07,0.07,0.21,0,0.35
		c0,0.07-0.07,0.14-0.14,0.14c-0.07,0.07-0.21,0.07-0.28,0.07c-0.84-0.35-1.75-0.42-2.73-0.49c-0.07,0-0.14-0.07-0.14-0.14
		c0-0.14,0.07-0.28,0.14-0.28l1.05-0.21C370.02,38.59,370.65,38.66,371.29,38.8z M370.23,30.89c0-0.07,0.07-0.14,0.14-0.14
		c0.07,0,0.28,0,0.28,0.07c0,0.42,0.07,0.84,0.14,1.33c-0.14,0.63-0.14,1.19-0.28,1.82c-0.07,0.07-0.07,0.21-0.14,0.21
		c-0.14,0.14-0.28,0.21-0.42,0.21c-0.14-0.07-0.28-0.28-0.28-0.35C370.09,33.06,370.23,32.01,370.23,30.89z M367.15,24.1
		c0.42-0.98,0.35-2.1,0.35-3.08c0-0.14,0.07-0.21,0.14-0.28c0.14,0.07,0.28,0.14,0.28,0.21c0.14,0.42,0.21,0.91,0.21,1.26
		c0,0.63-0.07,1.12-0.14,1.54c0,0.28-0.14,0.49-0.28,0.7c-0.07,0.07-0.28,0.14-0.35,0.07c-0.07-0.07-0.14-0.21-0.28-0.35
		C367.08,24.17,367.08,24.1,367.15,24.1z M359.52,10.38c0.28,0.07,0.63,0.14,0.91,0.35c0.91,0.77,1.75,1.61,2.24,2.8
		c0.07,0.14,0.07,0.28,0.14,0.56c-0.07,0-0.14,0.07-0.28,0.07c-0.14,0.07-0.28,0.07-0.42,0c-0.14,0-0.14-0.21-0.21-0.28
		c-0.49-1.4-1.33-2.38-2.59-3.22c-0.07,0-0.07-0.07-0.14-0.14C359.31,10.45,359.38,10.38,359.52,10.38z M346.15,11.5
		c1.12-0.7,2.45-0.98,3.78-0.84c0.21,0,0.42,0.14,0.35,0.35c0,0.21-0.21,0.42-0.35,0.42c-0.28,0.07-0.49,0-0.63,0
		c-1.26-0.07-2.17,0.21-3.08,0.63c-0.21,0.14-0.35,0.21-0.56,0.28c-0.07,0.07-0.21,0-0.21,0c-0.07-0.07-0.07-0.21-0.07-0.21
		C345.66,11.92,345.87,11.64,346.15,11.5z M339.15,22.7c0-0.28,0.07-0.49,0.14-0.7c0.49-0.91,1.12-1.68,1.96-2.31
		c0.21-0.21,0.56-0.07,0.63,0.28c0,0.07,0,0.21-0.07,0.28c-1.12,0.63-1.75,1.54-2.38,2.59c0,0.07-0.14,0.07-0.21,0.07
		C339.15,22.84,339.15,22.77,339.15,22.7z M337.12,35.93c0,0.07-0.14,0.14-0.21,0.21c-0.07-0.07-0.21-0.14-0.21-0.21
		c0-0.21,0.07-0.42,0.14-0.56c0.07-0.28-0.14-0.56,0.21-0.7c0.07,0.21,0.14,0.49,0.14,0.63C337.19,35.51,337.19,35.72,337.12,35.93z
		 M336.91,33.41c-0.07-0.14-0.21-0.28-0.21-0.35c0.28-1.19,0.84-2.24,1.68-3.01c0.07-0.07,0.28-0.07,0.42,0
		c0.07,0,0.14,0.14,0.21,0.21c-0.07,0.14-0.07,0.21-0.07,0.28c-0.91,0.7-1.4,1.68-1.75,2.66L336.91,33.41z M337.61,34.81
		c-0.07-1.05,0.49-1.96,1.19-2.8l0.7-0.7c0.28-0.35,0.7-0.56,1.12-0.35c0.14,0,0.28,0.07,0.35,0.07c0.35-0.07,0.63-0.35,0.56-0.7
		c-0.07-0.14-0.21-0.35-0.28-0.56c-0.42-0.91-0.91-1.68-1.26-2.59c-0.98-2.24,0-4.2,1.47-5.53c0.21-0.21,0.49-0.28,0.77-0.49
		c0.35-0.28,0.7-0.35,1.12-0.07l0.35,0.14c0.35,0.07,0.7-0.28,0.63-0.63c0-0.28-0.14-0.63-0.21-0.98c-0.21-0.84-0.42-1.82-0.35-2.73
		c0.07-1.96,1.05-3.29,2.8-4.06c0.91-0.42,1.89-0.7,2.94-0.35c0.35,0.07,0.7,0.21,0.77,0.63l0.21,0.49
		c0.14,0.21,0.56,0.28,0.77,0.07c0.21-0.14,0.42-0.42,0.56-0.63c0.63-0.84,1.47-1.4,2.38-1.89c2.38-1.47,5.67-0.07,6.65,2.73
		c0.21,0.49,0.21,0.98-0.28,1.4c-0.42,0.35-0.35,0.77,0.14,0.98l0.56,0.21c1.12,0.07,2.1,0.56,3.08,0.98
		c1.61,0.7,2.73,3.22,2.31,4.62c-0.21,0.49-0.28,1.05-0.42,1.61c-0.14,0.42-0.35,0.77-0.91,0.91c-0.28,0-0.63,0.07-0.63,0.49
		c-0.07,0.35,0.21,0.56,0.49,0.77c0.77,0.42,1.47,0.98,2.17,1.54l0.63,0.42c1.19,0.98,1.54,2.31,1.33,3.78
		c-0.07,0.49-0.21,0.98-0.35,1.47c-0.14,0.63-0.49,1.19-1.26,1.4c-0.56,0.07-0.56,0.7-0.07,0.98c0.63,0.42,1.19,0.91,1.82,1.4
		c0.14,0.07,0.21,0.14,0.28,0.28l-0.07,0.14c-0.49,0.14-0.91,0.35-1.33,0c-0.77-0.7-1.61-1.33-2.31-1.96
		c-1.4-1.54-2.73-3.08-2.94-5.25c-0.07-0.42-0.49-0.49-0.84-0.63c0-0.07-0.21,0.07-0.21,0.14c-0.07,0.98-0.07,1.89,0.84,2.52
		c0.21,0.14,0.35,0.28,0.49,0.42c0.28,0.21,0.35,0.56,0.49,0.91c0.28,1.26,0.56,2.52,0.91,3.85c0.07,0.28,0.28,0.56,0.42,0.77
		c0.14,0.28,0.07,0.49-0.21,0.63c-0.21,0.14-0.49,0.28-0.77,0.42c-0.28,0.21-0.49,0.07-0.49-0.28c0-0.14,0.07-0.28,0-0.49
		c0-0.42-0.35-0.91-0.42-0.77c-0.21,0.21-0.28,0.42-0.35,0.7c-0.07,0.35-0.07,0.77-0.07,1.12c-0.07,0.35-0.14,0.42-0.49,0.35
		l-2.38-0.63c-1.26-0.35-2.52-0.14-3.71,0.21c-0.77,0.21-1.54,0.56-2.24,0.84c-0.07,0-0.14,0.14-0.14,0.21
		c0.07,0.07,0.14,0.14,0.21,0.14h2.73c0.21,0,0.42,0,0.63,0c0.07,0,0.14,0.14,0.14,0.14s0,0.14-0.07,0.14
		c-0.35,0.07-0.77,0.21-1.12,0.21c-0.84,0-1.68-0.07-2.45-0.14c-0.21-0.07-0.49-0.14-0.63-0.28c-1.47-1.33-3.15-1.82-5.04-1.96
		c-0.7-0.07-1.33,0-2.03,0c-0.42,0-0.49-0.14-0.42-0.56c0.07-0.07,0.07-0.07,0.07-0.14c0.91-2.45,0.35-4.76-0.28-7.14
		c0-0.14-0.14-0.28-0.21-0.42l-0.07-0.07c-0.07,0-0.21,0.07-0.21,0.14c-0.07,0.35-0.21,0.7-0.28,1.12c0,0.56-0.14,1.12-0.28,1.68
		c-0.07,0.56-0.07,1.05,0.21,1.54c0.91,1.54,0.42,3.01-0.49,4.34c-0.21,0.28-0.14,0.35,0.28,0.42c1.05,0.21,2.17,0.35,3.22,0.56
		c0.07,0,0.07,0.07,0.14,0.07c-0.07,0.07-0.14,0.14-0.21,0.14c-0.14,0.07-0.28,0.07-0.56,0.07c-0.91-0.14-2.1-0.28-3.15-0.56
		c-0.21-0.07-0.42-0.28-0.49-0.49c-0.14-0.14-0.14-0.42-0.21-0.63c-0.35-0.98-1.05-1.54-2.03-1.89c-0.14-0.07-0.35-0.14-0.49-0.07
		c-0.63,0.35-1.12,0.07-1.75-0.07C337.54,36.35,337.75,36.28,337.61,34.81z M332.71,37.54c-0.07,0.07-0.21,0-0.28-0.07
		c-0.07,0-0.07-0.07-0.07-0.07c-0.56-0.91-1.26-1.61-1.96-2.17c-0.07-0.07-0.07-0.21-0.14-0.28c0.14,0,0.28-0.14,0.35-0.07
		c1.05,0.49,1.82,1.19,2.38,2.17c0.07,0.07,0,0.07,0.07,0.21C332.99,37.33,332.85,37.47,332.71,37.54z M335.93,43.21
		c0.14-0.84,0.56-1.82,1.19-2.73c0.14-0.14,0.35-0.14,0.49,0c0.07,0.14,0.07,0.28,0.14,0.42c0,0.07-0.07,0.14-0.14,0.21
		c-0.56,0.77-0.98,1.54-1.19,2.52c-0.07,0.14-0.28,0.21-0.35,0.28c-0.07-0.14-0.14-0.28-0.14-0.42V43.21z"/>
	<path d="M344.33,50.56c-0.14-0.28-0.28-0.56-0.42-0.77l-0.28-0.21c0,0.07-0.07,0.14-0.07,0.21l-0.21,2.73c0,0.84,0,1.68,0.49,2.45
		c0.49,0.84,0.56,1.68,0.21,2.59l-0.42,1.19c-0.21,0.35-0.28,0.7-0.28,1.19c0,0.21,0,0.49-0.07,0.7c1.61-1.47,1.96-3.36,2.03-5.32
		C345.31,53.71,344.89,52.03,344.33,50.56z"/>
	<path d="M368.34,57.28c-0.07-0.14-0.07-0.21-0.21-0.21c-0.07-0.07-0.21,0.07-0.21,0.21c-0.14,0.63-0.28,1.19-0.35,1.75
		c0.07,1.19,0.28,2.17,0.7,3.29c0.07,0.49,0.42,0.84,0.91,1.05c0.56,0.14,1.05,0.07,1.4-0.28c0.35-0.35,0.49-0.77,0.35-1.33
		c-0.21-0.77-0.35-1.54-0.56-2.38c-0.14-0.42-0.56-0.7-0.91-0.63c-0.42,0-0.21,0.42-0.21,0.7c0.07,0.77,0.21,1.47,0.77,1.89
		c0.14,0.07,0.28,0.21,0.35,0.35c0,0.07,0,0.21-0.07,0.35h-0.21c-0.7-0.42-1.19-0.98-1.47-1.75c-0.14-0.7-0.28-1.4-0.14-2.03
		C368.62,57.84,368.48,57.56,368.34,57.28z"/>
	<path d="M343,60.5c-0.14-0.14-0.28-0.21-0.35-0.35l-0.14,0.35c-0.07,0.7-0.21,1.54-0.42,2.38c-0.21,0.84-0.56,1.75-0.28,2.73
		c0,0.07-0.07,0.21-0.14,0.21c-0.07,0-0.21,0-0.21-0.07c-0.35-0.49-0.63-1.05-0.35-1.61c0.56-1.4,0.77-2.94,1.05-4.41
		c0.07-0.35,0-0.7-0.14-1.05c-0.28-0.84-0.91-1.33-1.68-1.75c-0.42-0.21-1.26,0-1.61,0.49c-0.14,0.14-0.14,0.35-0.14,0.49
		c0,0.14,0.07,0.28,0.21,0.42l1.05,2.1c0.49,1.26,0.77,2.59,0.84,3.99c0,0.42-0.07,0.84,0,1.26c0.14,0.56,0.49,1.05,1.12,1.19
		c0.7,0.21,1.54-0.28,1.61-1.12c0.07-1.26,0.14-2.45-0.07-3.71c-0.14-0.49-0.07-0.91-0.07-1.4C343.21,60.57,343.07,60.57,343,60.5z"
		/>
	<path d="M403.9,60.57c11.83,0,19.04-6.79,19.04-20.09V10.45h-7.42v28.98c0,10.22-4.06,14.91-11.62,14.91s-11.55-4.76-11.55-14.91
		V10.45h-7.42v30.03C384.93,53.78,392,60.57,403.9,60.57z"/>
	<path d="M449.26,54.34c-7.28,0-12.6-4.06-13.02-11.06h-7.63c0.35,10.57,8.12,17.29,20.44,17.29c12.25,0,19.32-6.58,19.32-15.05
		c0-7.7-5.74-11.97-13.51-13.65l-8.47-1.82c-5.46-1.26-8.47-3.29-8.47-7.35c0-4.27,4.48-7.14,10.43-7.14c7,0,11.06,3.71,11.41,9.03
		h7.63c-0.56-9.24-7.49-15.33-18.76-15.33c-10.57,0-18.34,5.88-18.34,14.07c0,7.63,6.09,12.04,13.65,13.65l7.7,1.68
		c5.67,1.19,9.1,3.29,9.1,7.63C460.74,51.4,456.33,54.34,449.26,54.34z"/>
	<path d="M532.85,40.55c-6.02-1.75-12.18-3.43-18.27-5.11l-14.49-4.06c5.25-2.45,6.23-6.16,5.18-10.85
		c5.39,0.77,10.29,1.54,15.19,2.24c6.37,0.84,12.74,1.61,19.18,2.38c1.68,0.21,3.29-0.35,3.22-2.45c-0.07-2.87,1.68-6.02-1.12-8.47
		c-0.21-0.21-0.63-0.21-0.98-0.21c-7.07-0.7-14.14-1.33-21.21-2.03c-6.86-0.77-13.72-1.68-20.51-2.52
		c-7.28-0.91-14.56-1.89-21.84-2.66c-1.12-0.07-2.94,0.84-3.43,1.82c-0.77,1.33-0.7,3.22-0.91,4.83c-0.21,1.82,0.84,2.1,2.45,2.31
		c4.48,0.49,8.96,1.26,13.44,1.96c-0.98,2.03-2.03,3.5-2.31,5.04c-0.21,1.61,0.28,3.36,0.49,5.32c-2.03-0.56-3.92-0.98-5.81-1.54
		c-7.21-2.1-7.21-2.1-8.47,5.39c0,0.14-0.14,0.21-0.14,0.35c-0.21,2.1,0.28,3.64,2.66,4.2c1.96,0.49,3.78,1.12,6.16,1.82
		c-3.01,3.92-4.13,7.77-1.4,12.88c-2.38-0.42-3.99-0.56-5.6-0.91c-2.17-0.49-3.57,0.42-4.06,2.45c-0.42,2.03-0.56,4.2-0.84,6.3
		c-0.21,2.03,0.77,2.8,2.73,2.94c10.43,0.42,20.93,0.98,31.43,1.26c7.42,0.21,14.91,0,22.33,0.14c2.38,0,3.64-0.7,3.92-3.08
		c0.14-1.68-0.07-4.2,0.84-4.76c3.5-2.24,3.29-6.16,4.9-9.17C537.12,43.56,535.93,41.39,532.85,40.55z M501.2,24.45
		c-0.14,3.15-2.52,3.57-4.97,3.57c-2.59,0.07-5.67-2.66-5.53-4.83c0.28-2.87,1.89-4.13,4.41-3.64
		C499.17,19.55,501.41,21.37,501.2,24.45z M477.61,12.54l-0.21-1.05c0.98-0.35,1.96-1.05,2.8-0.91c7.84,0.84,15.61,1.96,23.38,2.87
		c10.29,1.19,20.58,2.38,30.8,3.5c3.85,0.42,4.27,0.84,3.15,4.62C517.45,19.9,497.7,15.06,477.61,12.54z M521.44,60.29
		c-9.52-0.14-18.97-0.35-28.49-0.63c-5.46-0.14-10.92-0.42-16.38-0.77c-1.05,0-2.03-0.56-2.94-0.84c-0.35-3.92,1.82-4.27,4.62-4.13
		c12.39,0.63,24.71,1.26,37.1,1.75c3.43,0.21,6.86,0.07,10.29,0.07C526.27,59.94,523.89,60.36,521.44,60.29z M481.95,44.33
		c0.14-2.73,1.96-3.57,4.27-3.64c2.87-0.07,4.13,1.33,4.06,4.41c0.28,3.01-1.89,3.92-4.06,4.34
		C484.26,49.86,481.81,46.71,481.95,44.33z M490.98,52.45c1.4-3.64,2.59-6.65,3.99-10.36l29.82,9.94c0,0.14-0.07,0.28-0.07,0.42
		H490.98z M526.69,48.67c-6.79-2.31-13.65-4.34-20.58-6.44c-9.03-2.8-18.2-5.46-27.23-8.33c-0.84-0.28-1.96-1.75-1.96-2.66
		c0.07-1.82,1.26-2.17,3.08-1.68c9.94,2.66,19.88,5.11,29.75,7.77c6.58,1.82,13.16,3.85,19.74,5.95c0.98,0.35,1.75,1.4,2.24,1.75
		C531.1,49.51,530.05,49.86,526.69,48.67z"/>
	<path d="M571.34,35.23c4.48-1.33,9.17-5.53,9.17-11.9c0-8.4-6.23-12.88-15.54-12.88h-21.14v49h7.42V38.59h11.41
		c6.79,0,9.45,2.31,9.45,9.31v11.55h7.42V46.5C579.53,40.13,576.31,36.07,571.34,35.23z M563.36,32.29h-12.11V16.68h12.11
		c6.16,0,9.52,2.66,9.52,7.77C572.88,29.56,569.52,32.29,563.36,32.29z"/>
	<path d="M63.92,132.88l-0.21-0.63l-0.35-0.42l-0.77-0.7l-0.56-0.42l-0.42-0.63l-0.49-0.28l-6.09-5.53l-0.42-0.21l-0.21-0.35
		l-0.56-0.42l-0.49-0.56l-0.42-0.42l-0.84-0.77l-0.42-0.49l-0.14-0.35l-0.56-0.35l-0.7-0.91l-0.35-0.49l-0.21-0.28l-0.14-1.26
		l0.07-0.49l0.14-0.49l-0.07-0.77l0.35-1.05l0.28-0.42l0.07-0.84l0.42-0.35l0.49-0.98l0.35-0.77l0.14-0.35l0.42-0.56l0.28-0.7
		l0.21-0.42l0.21-0.63l-0.07-1.05l0.14-0.63l-0.42-1.05v-0.35l0.07-0.63l-0.28-0.63l-0.14-0.91l-0.07-0.42l-0.35-0.63l-0.35-0.21
		l-0.56-0.28l-0.49-0.28l-0.63-0.14l-0.84-0.35l-0.56-0.35l-0.56-0.28h-0.42l-1.33-0.14H45.5l-1.26,0.14l-0.49,0.28l-0.42,0.49
		l-0.35,0.42l-0.63,1.05v0.7l-0.28,0.56l-0.28,0.49l-0.28,1.12l-0.14,0.63v1.61l0.07,0.84l0.07,0.28l-0.14,0.56l0.21,0.63
		l-0.14,0.56l-0.07,0.63l-0.28,0.07l-0.63-1.05l-0.98-0.84l-0.35-0.35l-0.35-0.56l-0.28-0.35l-0.28-0.56l-0.49-0.21l-0.35-0.63
		l-0.35-0.28l-0.56-0.7l-0.91-0.49l-0.28-0.49l-0.56-0.28l-0.98-0.63l-0.42-0.56l-0.56-0.21l-0.56-0.49l-0.42-0.28l-0.35-0.63
		l-0.35-0.28l-0.42-0.35l-0.84-0.84l-0.42-0.35l-0.28-0.42L28.7,99l-0.28-0.28l-0.35-0.56l-0.63-0.42l-0.35-0.42l-0.07-0.28
		l0.56-0.56l0.49-0.42l0.63-0.28l0.77-0.77l0.56-0.21l1.05-0.84l0.49-0.28l0.35-0.42l0.49-0.49l0.56-0.28L33.25,92l0.56-0.21
		l0.49-0.28l0.49-0.21l1.05-0.42l0.63-0.42l1.19-0.7l0.49-0.28l0.42-0.35l0.35-0.28l0.9-0.28l0.29,0.35l0.21,0.56l0.28,1.26
		l0.49,0.49l0.28,0.56l0.35,0.42l0.35,0.49l0.28,0.35l0.63,0.49l0.42,0.35l0.28,0.28l1.33,0.63h0.28l0.84,0.35l1.19,0.14l0.42,0.07
		l0.63-0.07l0.49-0.07l0.7-0.14l0.35-0.28l0.63-0.28l0.42-0.07l0.7-0.49l0.77-0.56l0.49-0.49l0.35-0.42l0.21-0.56l0.35-0.42
		l0.49-0.7v-0.56l0.28-0.56l0.14-0.49l0.14-0.7l0.28-0.98l-0.07-0.63l-0.21-0.49l-0.07-0.7l-0.07-0.49l-0.21-0.49l-0.07-0.63v-0.7
		l0.21-0.63l0.84-0.14l1.12-0.35l0.42-0.49l0.91-0.56l0.91-0.63l0.49-0.28l0.28-0.49l0.91-0.77l0.14-0.56l0.21-0.63l0.35-1.12
		l0.35-0.63v-1.05l0.07-0.49L61.81,74l-0.07-0.63l-0.28-1.12l-0.28-0.56l-0.28-0.98l-1.05-0.98l-0.14-0.28l-0.56-0.49l-0.49-1.05
		L58.1,67.7l-0.35-0.49l-1.12-0.42l-0.35-0.28l-0.7-0.14l-0.42-0.07l-0.49-0.21l-0.49-0.28l-0.42-0.07l-1.12-0.28l-0.63-0.07h-0.7
		l-0.56-0.56l-0.35-0.49l-0.28-0.28l-0.35-0.49l-0.42-0.21l-1.54-1.05l-0.7-0.14l-0.56-0.21l-0.49-0.07l-1.12-0.35h-0.77l-0.35,0.14
		l-1.33,0.07L42,62.1l-0.42,0.14l-0.77,0.28h-0.35l-1.05,0.77l-0.63,0.28l-0.42,0.28l-0.49,0.63l-1.12,0.63l-0.49,0.56l-0.42,0.91
		l-0.21,0.77l-0.14,0.35l-0.42,0.77L35,68.82l-0.14,0.56l-0.07,0.7l0.14,0.63l-0.14,0.49L35,71.42l-0.42-0.07l-0.7-0.07l-0.56-0.07
		l-0.35,0.28h-0.56l-0.42,0.21l-1.12,0.42l-0.42,0.21l-0.28,0.56l-0.84,0.91l-0.21,0.49l-0.77,1.54l-0.21,1.33l0.07,1.05l-0.28,0.77
		l-0.07,0.63l0.21,0.98v0.63l0.35,0.7l0.07,0.63l0.07,0.49l0.35,0.42l0.28,0.42l0.7,0.98l0.35,0.42l0.42,0.56l0.07,0.56l-0.98,0.7
		l-0.56,0.14l-0.28,0.28l-1.05,0.7l-0.56,0.21l-0.28,0.49l-0.49,0.21l-0.77,0.21l-0.35,0.42l-1.19,0.35l-0.28,0.49l-0.7,0.7
		l-0.49-0.14v-0.7l-0.07-1.19l-0.14-0.49l-0.14-0.42v-1.19l-0.14-0.42l-0.07-1.05l-0.14-0.49l-0.07-0.7l-0.07-0.63l0.14-0.49
		l-0.07-0.42l-0.14-0.56v-0.63l-0.28-1.05V80.1l0.07-0.28l-0.21-0.77l0.07-0.98l0.07-0.49l-0.28-0.56v-1.47l0.14-0.42l-0.21-0.56
		l0.28-0.77l-0.21-0.49l0.14-0.49l-0.35-1.4L21,70.78v-0.49l0.21-0.7l0.28-0.77l-0.07-0.56l0.14-0.84L21.84,67l-0.42-1.89
		l-0.14-0.56l-0.35-0.49l-0.21-0.49l-0.42-0.35l-1.05-0.7l-0.42-0.14h-1.12l-0.56,0.35l-1.19,0.49l-0.28,0.42l0.07,0.56l-0.28,0.7
		l0.14,1.33l-0.07,1.12l0.07,0.56l-0.35,0.56l0.07,0.63l-0.07,0.49l-0.14,1.26v0.63l0.21,0.63l0.07,0.42l-0.21,0.7l0.14,0.7
		l0.14,0.49l-0.07,0.49l0.14,1.12l-0.07,0.77L15.4,77.3v1.26l0.14,0.63v0.63l0.07,1.12l-0.14,0.42l0.21,0.7l0.07,0.42l-0.07,0.56
		l0.07,0.63l0.14,0.84l0.07,0.35l-0.07,0.63v0.63l0.14,0.56l-0.07,0.49l0.35,0.98v0.77l-0.14-0.21l-0.63-0.21l-0.49-0.07l-0.91-0.14
		l-0.56-0.14l-0.56,0.07l-0.63-0.07l-0.49-0.14l-1.19,0.35l-1.12,0.07L9.1,88.71l-0.63,0.07l-0.63-0.07l-0.28,0.35l-0.7,0.14
		l-1.05,0.49l-0.42,0.28l-0.56,0.28l-0.42,0.42l-0.63,0.35l-0.77,0.91L2.8,92.49l-0.42,0.35l-0.56,0.98L1.4,94.38l-0.14,0.49
		l-0.28,0.49l-0.14,0.7l0.07,0.42l0.07,0.98l-0.21,1.19v0.42L0.7,99.84v1.05l0.35,1.05l0.35,0.56l0.14,0.56l0.35,0.63l0.21,0.49
		l1.05,0.77l0.35,0.21l0.63,0.42l0.49,0.14l0.49,0.42l0.49,0.35l-0.21,0.28l0.35,0.28l0.49,0.28l0.84,0.42l1.12,0.35l0.49,0.14
		l0.49,0.28l0.7-0.14l0.63-0.14l0.49-0.21l0.49-0.07l0.42-0.14l0.63-0.14l0.49-0.28l0.7-0.28l0.35-0.35l0.98-0.56l1.12-0.49
		l0.49-0.49l0.56-0.21l0.49-0.49l0.24-0.28l0.11,0.49l0.14,0.56l0.07,0.91v1.19l0.21,0.49l0.07,0.49l-0.14,0.7l0.07,0.49l0.21,0.42
		l-0.14,1.33l0.21,0.63l-0.07,0.56v0.42l0.14,0.56l-0.07,1.26l0.07,0.49l-0.14,0.63l-0.07,0.28v0.84l-0.14,0.42l0.14,0.56l-0.07,0.7
		l-0.14,0.7L18.27,120l0.07,0.42l0.07,0.7v0.63l-0.07,0.42v2.03l0.07,1.05l-0.14,0.42l0.21,0.56l-0.14,0.98l-0.07,1.33l-0.14,1.12
		l0.21,0.63l-0.07,0.49l0.21,0.77l0.42,0.28l0.35,0.49l0.49,0.56l0.35,0.42l0.49,0.14l1.75,0.21l0.91-0.77l0.56-0.28l0.49-1.12
		l0.28-0.49l0.07-0.7l0.07-0.49l0.14-0.7l0.14-0.49v-1.05l0.14-0.98l-0.21-1.05l0.14-0.7l-0.07-0.35l0.07-0.77l0.14-0.56l0.07-0.56
		l-0.07-0.63l0.14-0.63l-0.07-0.49l-0.07-0.7l0.14-0.56l-0.07-0.35l0.07-0.63v-0.63l-0.21-0.49l0.14-0.63l0.14-0.77v-1.19
		l-0.21-0.63v-1.54l-0.14-0.7l0.07-0.49v-0.56l-0.07-1.12l-0.14-0.7l-0.07-0.49l-0.14-0.7v-0.7l-0.07-0.91l-0.07-0.56v-0.63
		l-0.07-0.42l-0.14-1.05v-0.38l0.49,0.45l0.42,0.35l0.49,0.42l0.49,0.35l0.77,0.98l1.47,1.26l0.28,0.35l0.35,0.14l0.42,0.56
		l0.49,0.21l0.49,0.63l0.42,0.35l0.84,0.63l0.7,0.98l0.49,0.84l0.84,0.98L34.3,113l0.56,0.49l0.14-0.21l0.07,0.21l-0.84,0.14h-0.35
		l-0.49,0.42l-0.7,0.21l-0.56,0.35l-0.42,0.35l-0.35,0.84l-0.14,0.77l-0.07,0.56l0.14,0.42l-0.07,0.56l0.28,1.68l0.35,0.56
		l0.21,0.56l0.14,0.56l0.84,0.84l0.49,0.28l0.35,0.28l0.63,0.42l0.28,0.21l0.77,0.42l0.35,0.14l0.7,0.21l0.77,0.14l0.63-0.14
		l0.77,0.21l0.42-0.07l0.77-0.42l0.42-0.14l0.56-0.14l0.77-0.07l0.91-0.14l0.84-0.21l0.63-0.35h0.91l0.56,0.49l0.28,0.56l0.7,0.7
		l0.56,0.28l0.21,0.56l0.49,0.42l0.42,0.35l0.42,0.21l0.35,0.35l0.35,0.49l0.49,0.28l0.42,0.42l0.49,0.28l6.93,6.58l0.35,0.42
		l0.42,0.42l0.7,0.14l0.49,0.49h0.42l0.11,0.06H33.11l-3.64,28h7c1.26-2.94,4.97-5.95,9.73-5.95c6.37,0,9.87,4.69,9.87,10.92
		c0,6.86-4.13,11.27-10.57,11.27c-5.95,0-9.45-3.64-9.52-8.68H28.7c0.07,8.47,6.51,14.56,17.01,14.56
		c10.36,0,17.64-6.86,17.64-17.43c0-9.31-6.23-16.52-15.33-16.52c-5.11,0-9.24,2.38-11.69,5.53c0.28-1.05,0.42-2.31,0.56-3.36
		l1.61-11.69h22.12v-6.39l0.42,0.24l0.56,0.07l0.42-0.21l0.77,0.07l0.63-0.91l0.28-0.35l0.42-0.56l0.14-0.49l-0.21-1.12
		L63.92,132.88z M50.4,74.22L50.54,74l0.42-0.35l0.49-0.63l0.28-0.21l0.42-0.49l0.7-0.56l0.91,0.14l0.49,0.35l0.56,0.35l0.56,0.56
		l0.28,1.26l-0.42,1.12l-0.56,0.28l-0.35,0.56l-0.42,0.28l-0.63,0.21l-0.35,0.28l-0.07,0.14l-0.42-0.07l-0.7,0.14l-0.56,0.14
		l-0.63-0.07l-0.63-0.28l0.07,0.14h-0.07l-0.28-1.26l-0.14-0.84L50.4,74.22z M46.27,85.07l-0.07-0.56l0.14-0.77l0.28-0.63l0.63-0.21
		l0.56,0.56l0.42,0.63l0.21,0.42l0.35,0.35l0.49,1.12v0.49l-0.7,1.19l-0.14,0.49l-0.7,0.84l-0.56,0.42l-0.63-0.14l-0.63-0.91v-0.42
		l-0.42-0.49l-0.28-0.28l-0.14-0.98l0.49-0.35l0.42-0.35L46.27,85.07z M40.39,70.64l0.28-0.42l0.56-0.7l0.98-0.42l0.28-0.35
		l0.63-0.35l0.35-0.35l1.19-0.49l0.35,0.07l0.49,0.28l0.42,0.07l-0.28,0.77l-0.14,0.56l-0.07,0.49l-0.56,1.05l-0.28,0.42l-0.21,0.84
		l-0.84,0.56h-0.35l-0.63-0.14l-0.77,0.21h-0.35l-0.91-0.28V71.9l-0.14-0.63V70.64z M33.88,78.28l0.49-0.98l1.26-0.14l0.56-0.21
		l0.49,0.07h0.77l-0.07,0.77l0.35,0.56l-0.07,0.98l0.14,0.63l0.28,0.7l0.07,0.49l0.42,0.77l-0.28,0.49l-0.42,0.21l-0.7,0.21h-1.12
		l-1.12-0.7l-0.35-0.49l-0.35-0.35l-0.28-1.33l-0.28-0.77L33.88,78.28z M16.94,96.9l-0.84,0.7l-0.35,0.56l-0.77,0.77l-0.49,0.35
		l-1.68,0.84l-0.35,0.56l-0.63,0.28l-0.35,0.42l-0.42,0.14l-0.63,0.35l-1.05,0.49H8.82l-0.91-0.63l-0.63-0.49l-0.77-0.63l0.07-1.26
		l-0.21-1.47l0.14-0.77L7,96.69l0.21-0.49l0.98-0.7l0.35-0.14l0.7-0.35l0.49-0.14l0.56-0.14l0.77-0.28l0.42-0.07l0.77,0.07
		l0.42-0.21L14,94.1l0.35,0.07l1.19,0.56l0.91,0.77l0.49,0.42l0.28,0.56L16.94,96.9z M40.6,118.6l-0.42,0.35l-0.77,0.84L38.99,120
		l-1.05,0.14l-0.35-0.42l-0.49-0.42l-0.28-0.56v-0.84l0.14-0.35l1.19-0.07l0.63,0.14l0.42,0.14h0.77l0.35,0.14l0.84,0.28l0.14-0.07
		L40.6,118.6z M48.16,107.82l-0.14,0.84l-0.21,0.35l-0.42,0.49l-0.07,0.7l-0.42,0.28l-0.28,0.7l-0.42,0.98h-0.28l-0.14-0.98
		l-0.21-0.63l0.21-0.49l-0.07-0.56l-0.28-1.05l-0.14-0.84l0.07-0.63l0.35-1.12l0.35-0.28l0.56-0.28l0.49,0.14l0.63,0.07l0.56,0.35
		l0.28,0.49l0.07,0.49L48.16,107.82z"/>
	<path d="M103.46,103.48V73.45h-7.42v2.5c-0.55,0.78-1.4,1.26-2.59,1.43c1.16,0.08,2.02,0.54,2.59,1.29v23.77
		c0,10.22-4.06,14.91-11.62,14.91c-7.56,0-11.55-4.76-11.55-14.91V73.45h-7.42v30.03c0,13.3,7.07,20.09,18.97,20.09
		C96.25,123.57,103.46,116.78,103.46,103.48z"/>
	<path d="M137.55,69.66L104.65,106l24.15,21.98l4.27-4.69l-14.99-13.53c0.2-0.05,0.42-0.09,0.64-0.11
		c-0.38-0.04-0.72-0.13-1.04-0.24l-1.9-1.71c-0.18-0.39-0.3-0.84-0.36-1.33c-0.04,0.3-0.12,0.57-0.2,0.83l-0.85-0.77l28.63-31.78
		L137.55,69.66z"/>
	<path d="M222.67,102.43c0,10.22-4.06,14.91-11.62,14.91c-7.56,0-11.55-4.76-11.55-14.91V73.45h-7.42v7.94
		c-0.66,0.46-1.29,0.9-1.96,1.23l-0.21-1.4c-0.42-2.45-2.03-4.55-4.62-4.97c-1.33-0.21-2.59-0.56-3.85-0.91l-3.29-0.91
		c2.03-2.94,1.47-5.6-0.63-8.26l3.57-0.84c-1.05-0.77-1.96-1.47-2.87-2.17c-0.91-0.63-1.75-1.4-2.8-1.96
		c0.07,1.26,0.14,2.45,0.28,3.71c-0.35-0.07-0.56-0.14-0.77-0.28c-2.59-0.84-5.32,0.07-6.79,2.31c-0.56,0.84-1.05,1.75-1.61,2.66
		l-0.28,0.42c-4.41-1.96-8.54-4.13-12.53-6.65c-0.7-0.49-1.4-0.98-2.1-1.33c-0.7-0.31-1.39-0.47-2.08-0.49
		c-0.1-0.3-0.18-0.62-0.22-0.98c-0.05,0.36-0.14,0.69-0.26,0.99c-1.01,0.06-1.99,0.39-2.9,0.96c-0.56,0.35-1.05,0.77-1.68,1.26
		c-0.28-1.4-0.49-2.73-0.77-4.06c-0.77,0.63-4.06,4.9-4.2,5.39l4.13-0.21c-0.14,0.42-0.28,0.77-0.42,1.05
		c-0.98,2.73,0.07,5.46,2.03,6.72c0.35,0.28,0.77,0.56,1.12,0.77c4.06,2.59,8.26,4.97,12.6,7l1.82,0.84
		c-0.07,0.21-0.14,0.35-0.14,0.49c-1.26,3.01-2.38,6.09-3.36,9.17c-2.31,7.7-3.85,15.54-4.41,23.59c-0.14,1.47-0.28,2.94-0.28,4.41
		c0.07,2.24,1.05,4.06,3.08,5.11c0.7,0.42,1.47,0.56,2.31,0.91c-0.77,1.05-1.68,2.1-2.45,3.43l6.93-0.42
		c-0.98-1.12-1.89-2.1-2.8-3.08c0.7-0.28,1.33-0.42,1.96-0.77c1.75-0.84,3.01-2.17,3.36-4.13c0.14-0.63,0.14-1.33,0.21-2.03
		c0.07-1.47,0.21-2.87,0.28-4.34c0.21-2.94,0.7-5.88,1.26-8.82c1.19-6.23,3.01-12.32,5.39-18.27c0.14-0.21,0.28-0.49,0.35-0.77
		c0.21,0.07,0.28,0.07,0.35,0.14c3.36,0.98,6.72,1.89,10.08,2.59c2.73,0.56,5.18-0.63,6.44-3.08c0.14-0.35,0.28-0.77,0.49-1.19
		c0.77,0.83,1.46,1.66,2.24,2.49v16.77c0,13.3,7.07,20.09,18.97,20.09c11.83,0,19.04-6.79,19.04-20.09V73.45h-7.42V102.43z
		 M145.95,68.89c-0.28-0.07-0.49-0.35-0.42-0.7c0-0.35,0.28-0.63,0.63-0.63c0.35,0.07,0.56,0.35,0.56,0.7S146.3,68.89,145.95,68.89z
		 M147.77,66.37l-0.14,0.21c-0.35,0.28-0.63,0.28-0.91,0.14c-0.21-0.21-0.28-0.49-0.07-0.91c0.33-0.55,0.86-0.95,1.47-1.18
		c0.34,0.28,0.62,0.63,0.83,1.04C148.56,65.76,148.19,65.99,147.77,66.37z M169.19,68.82c0.14-0.49,0.77-0.91,1.4-0.91
		c1.19,0,2.17,1.19,1.89,2.31c-0.14,0.49-0.42,0.7-0.84,0.63c-0.35-0.07-0.56-0.35-0.42-0.84c0.07-0.35-0.07-0.56-0.28-0.7
		c-0.21-0.14-0.49-0.14-0.7,0.07c-0.07,0.07-0.21,0.21-0.28,0.21c-0.21,0-0.49,0-0.63-0.14C169.12,69.31,169.05,69.1,169.19,68.82z
		 M150.43,66.09c-0.25-0.17-0.48-0.28-0.69-0.35c0.2-0.44,0.48-0.81,0.84-1.1c0.14,0.06,0.28,0.11,0.41,0.19
		c1.82,1.12,3.57,2.31,5.39,3.29c2.66,1.47,5.39,2.73,8.05,4.13l0.49,0.28c-0.21,0.42-0.35,0.77-0.56,1.12
		c-0.91-0.35-1.75-0.77-2.59-1.19C157.85,70.57,154.07,68.47,150.43,66.09z M172.41,79.12c-0.07,0.21-0.14,0.49-0.28,0.7
		c-1.54,3.15-2.87,6.44-4.06,9.73c-1.47,4.06-2.66,8.12-3.57,12.32c-0.77,3.5-1.33,7-1.68,10.57l-0.42,6.09
		c-0.07,1.19-0.49,2.24-1.54,2.8c-0.21,0.14-0.42,0.21-0.56,0.28c-0.42,0.07-0.77-0.07-0.91-0.42c-0.07-0.28,0-0.56,0.42-0.77
		c0.56-0.21,0.98-0.56,1.12-1.12c0.07-0.35,0.14-0.7,0.14-1.05c0.07-2.73,0.35-5.46,0.63-8.12c0.56-4.2,1.33-8.26,2.38-12.32
		c1.54-5.88,3.57-11.55,6.16-17.01c0.28-0.7,0.63-1.4,0.98-2.1c0.21-0.35,0.49-0.42,0.84-0.28
		C172.34,78.49,172.48,78.7,172.41,79.12z M174.02,74.99c-0.56,0.77-1.61,1.33-3.01,0.98c-1.68-0.42-2.52-1.89-2.52-2.94
		c0.14-0.35,0.14-0.77,0.28-1.05c0.21-0.42,0.49-0.56,0.84-0.42c0.35,0.14,0.49,0.42,0.35,0.84c-0.07,0.28-0.14,0.56-0.14,0.84
		c0.14,0.77,0.7,1.26,1.4,1.47s1.33,0.07,1.82-0.49c0.35-0.42,0.63-0.49,0.91-0.28C174.3,74.22,174.3,74.57,174.02,74.99z
		 M175.63,72.96V72.6c0.07-0.28-0.07-0.49-0.35-0.63c-0.21-0.14-0.42-0.07-0.63,0.14c-0.42,0.28-0.7,0.28-0.98-0.07
		c-0.21-0.28-0.14-0.63,0.21-0.98c0.49-0.42,1.26-0.56,1.89-0.28c0.7,0.35,1.19,0.91,1.19,1.82c0,0.07-0.07,0.35-0.14,0.49
		c-0.14,0.35-0.42,0.42-0.7,0.42C175.77,73.45,175.63,73.23,175.63,72.96z M187.11,82.55c0,0.14-0.07,0.35-0.21,0.49
		s-0.42,0.21-0.56,0.21c-0.21-0.07-0.35-0.28-0.42-0.49s0-0.42,0-0.63c0-1.05-0.56-1.61-1.54-1.89l-7.49-1.89
		c-0.21-0.07-0.42-0.14-0.7-0.21l0.28-0.7c0.07-0.14,0.21-0.28,0.28-0.49c0.21,0.07,0.42,0.07,0.56,0.14
		c2.52,0.63,4.97,1.26,7.42,1.82C186.55,79.33,187.32,81.08,187.11,82.55z"/>
	<path d="M270.64,125.37c0.3-1.04,1.83-1.52,2.87-0.85c1.16,0.55,1.89,1.77,2.01,2.99c0.3,1.28,0.18,2.44,0.3,3.6
		c0,1.28,0.31,2.56,1.04,3.54c1.04,1.1,2.99,1.4,4.27,0.55c1.28-0.85,1.83-2.75,1.04-4.15c-0.43-0.85-1.22-1.46-1.83-2.32
		c-0.55-0.79-0.79-2.07-0.12-2.68c0.73-0.67,2.07-0.18,2.75,0.67c0.67,0.85,0.79,1.89,1.28,2.81c0.49,1.22,1.71,2.44,2.99,1.95
		c1.1-0.43,1.77-2.2,1.59-3.42c-0.43-2.81-2.62-5.31-5.49-6.22c-1.4-0.55-3.29-0.3-4.7-0.92c-1.46-0.61-2.44-1.59-2.2-3.05
		c0.18-1.16,1.77-3.97-1.59-5.67c-3.66-1.83-3.48,4.45-6.1,1.95c-1.34-1.28-0.43-2.5,0.49-3.36c0.73-0.79,1.34-2.07,0.73-3.05
		c-0.55-0.85-1.89-0.85-2.68-0.49c-0.85,0.55-1.46,1.28-2.26,1.89c-0.79,0.61-2.01,0.73-2.75,0.06c-0.79-0.79-0.67-2.07-0.12-2.93
		c0.55-0.85,1.46-1.34,1.95-2.26c0.61-0.73,0.85-1.89,0.24-2.75c0.12-0.06,0.31-0.18,0.43-0.3c0.67-0.61,1.1-1.53,1.59-2.07
		c0.49-0.49,1.46-0.79,2.26-0.31c0.85,0.55,0.92,1.59,0.43,2.2c-0.55,0.67-1.52,1.1-2.26,1.83c-1.04,0.79-1.89,2.26-1.16,3.35
		c0.73,0.98,2.62,1.16,3.78,0.61c2.56-1.1,4.21-3.6,3.97-5.86c-0.06-1.16-0.98-2.62-0.98-3.78s0.49-2.01,1.77-1.95
		c1.16,0.06,4.15,1.1,4.33-1.65c0.18-3.05-5.12-2.44-3.96-4.64c0.61-1.16,2.01-0.49,3.05,0.12c0.98,0.49,2.32,0.92,2.93,0.31
		c0.49-0.49,0.06-1.52-0.61-2.07c-0.73-0.67-1.65-1.1-2.44-1.65c-0.79-0.61-1.34-1.53-1.04-2.14c0.37-0.67,1.52-0.73,2.44-0.37
		c0.98,0.43,1.71,1.1,2.68,1.4c0.92,0.43,2.07,0.49,2.5-0.12c0.37-0.49,0.06-1.22-0.24-1.83c-0.37-0.61-0.92-1.22-1.1-1.83
		c-0.18-0.61-0.31-1.1,0.73-1.46c0.35-0.11,0.64-0.34,0.86-0.64v1.25h16.73v42.77h7.42V79.68h16.66v-6.23h-40.6
		c-0.36-0.91-1.1-1.68-2.05-1.94c-0.92-0.31-1.89-0.18-3.05-0.31c-0.98-0.18-2.14-0.92-2.14-1.83c0.12-0.98,1.46-1.59,2.68-1.46
		c1.04,0.12,1.89,0.73,2.87,1.04c1.22,0.49,2.93,0.49,3.48-0.73c0.49-1.1-0.3-2.81-1.34-3.54c-2.26-1.65-5.67-1.83-8.48-0.49
		c-1.53,0.67-2.75,2.2-4.21,2.75c-1.59,0.61-3.05,0.61-3.97-0.55c-0.79-0.98-1.71-4.09-5.55-2.87c-4.15,1.34,0.79,5.61-3.05,5.73
		c-2.01,0.06-2.2-1.46-2.2-2.68c-0.06-1.1-0.61-2.5-1.77-2.75c-1.1-0.18-2.07,0.73-2.38,1.59c-0.3,0.98-0.12,1.95-0.3,2.93
		c-0.12,0.98-0.92,1.95-1.95,2.01c-1.22,0-2.14-0.98-2.38-1.95c-0.18-1.04,0.12-2.01-0.18-2.99c-0.12-1.04-0.98-2.07-2.14-2.13
		c-0.92-0.06-1.65,0.61-2.2,1.16c-0.49,0.61-0.85,1.4-1.59,1.83c-0.61,0.49-1.16,0.85-2.44,0.12c-1.89-1.04-5.61-0.18-5.98,2.14
		c-0.24,1.04,0.61,2.2,1.77,2.44c2.01,0.43,4.09-1.46,5.8-0.55c1.1,0.55,1.22,1.83,0.73,2.81c-0.49,0.98-1.34,1.71-2.07,2.56
		c-0.85,0.79-1.4,1.83-1.22,2.87c0.3,0.79,1.16,1.52,2.14,1.65c0.92,0.12,2.01-0.31,2.5-1.04c0.49-0.67,0.49-1.46,0.67-2.26
		c0.06-0.79,0.43-1.59,1.28-1.89c0.85-0.3,2.01,0.18,2.5,0.85c0.06,0.12,0.18,0.24,0.24,0.3l-0.61-0.18
		c-1.04-0.24-2.2,0.73-2.44,1.95c-0.43,2.2,1.46,4.58,0.55,6.41c-0.55,1.22-1.83,1.34-2.81,0.79s-1.71-1.46-2.56-2.26
		c-0.79-0.92-1.83-1.59-2.87-1.34c-0.79,0.3-1.52,1.28-1.65,2.38c-0.12,0.98,0.31,2.2,1.04,2.75c0.67,0.55,1.46,0.55,2.26,0.67
		c0.79,0.06,1.59,0.49,1.89,1.4c0.3,0.98-0.18,2.26-0.85,2.81c-1.04,0.92-1.65,0.92-3.11,0.92c-1.71,0-2.75,2.38-2.68,4.33
		c0.06,2.07,0.73,5.19,2.62,5.43c3.17,0.37,3.23-1.28,4.21,0.79c0.92,1.65,0,3.97-1.22,5.06c-1.28,1.16-2.44,1.34-3.84,2.26
		c-1.16,0.85-2.2,2.13-2.68,3.78c-0.43,1.65-0.18,3.6,0.85,4.82c0.92,1.1,2.68,1.28,3.6-0.06c0.73-0.98,1.04-2.87,2.44-3.84
		c0.98-0.61,2.38,0.24,2.68,1.65c0.43,1.4,0.06,3.05-0.67,4.15c-0.67,1.34-1.59,2.2-2.32,3.29c-0.85,1.1-1.59,2.44-1.71,3.72
		c-0.06,1.53,1.1,3.11,2.62,3.42c1.52,0.24,3.23-0.73,3.66-2.26c0.31-0.92,0.18-1.89,0.31-3.17c0.18-1.04,0.92-2.32,1.83-2.32
		c0.98,0.06,1.59,1.59,1.46,2.87c-0.12,1.16-0.73,2.01-1.04,2.99c-0.49,1.22-0.49,2.93,0.73,3.48c1.1,0.49,2.81-0.31,3.54-1.34
		c1.65-2.26,1.83-5.79,0.49-8.91c-0.67-1.65-2.2-2.99-2.75-4.64c-0.61-1.71-0.61-3.36,0.55-4.39c0.79-0.73,3.11-1.52,3.17-4.21
		c0.55-0.49,1.34-0.79,2.14-0.43c0.79,0.3,1.22,1.46,1.1,2.32c-0.24,1.22-0.67,1.65-1.71,2.68c-1.22,1.16-0.55,3.42,0.67,4.51
		c1.28,1.22,3.66,2.62,5.12,1.4c2.5-1.95,1.52-2.99,3.48-2.5c1.65,0.37,2.38,2.44,2.14,3.96c-0.18,1.65-0.92,2.5-1.34,4.09
		c-0.3,1.34-0.3,2.81,0.31,4.15c0.67,1.28,2.01,2.32,3.48,2.32c1.34,0.06,2.68-1.1,2.56-2.56
		C271.07,128.3,270.15,126.95,270.64,125.37z M274.91,73.76c1.22,0.67,1.95,1.59,2.99,2.32c0.61,0.55,1.34,1.04,2.14,1.4
		c-0.12,0.18-0.31,0.37-0.61,0.49c-0.79,0.37-1.95-0.24-2.62-0.98c-0.67-0.79-1.04-1.65-1.52-2.5c-0.12-0.31-0.31-0.61-0.55-0.85
		L274.91,73.76z M270.82,73.21c-0.12,0.43-0.06,1.04,0.31,1.46c0.43,0.61,1.1,1.04,1.71,1.52c0.67,0.43,1.28,1.04,1.22,1.65
		c0,0.3-0.18,0.61-0.49,0.79c-0.12-0.18-0.24-0.31-0.43-0.43c-0.92-0.73-2.62-1.04-3.48-2.44
		C269.11,74.86,269.72,73.64,270.82,73.21z M254.6,105.48c-0.92,0.3-1.83,0.3-2.75,0.37c-1.77-1.04-4.51,1.71-4.64-1.65
		c-0.06-2.2,1.46-2.44,2.68-2.44c0.98-0.06,2.2-0.49,2.62-1.53c1.22,0.98,3.23,1.34,3.6,2.81
		C256.43,104.14,255.63,105.11,254.6,105.48z M259.9,96.82c-0.73,1.16-0.61,2.87,0.24,3.97c-0.18,0-0.3,0-0.49-0.06
		c-0.79-0.12-1.4-0.24-1.71-1.59c-0.49-1.95-3.6-3.9-5.43-2.5c-0.37,0.24-0.61,0.61-0.79,1.04c-0.18-0.18-0.43-0.37-0.67-0.43
		c-0.98-0.37-1.95-0.18-2.93-0.37c-0.98-0.12-1.95-0.98-2.01-2.14c0-1.34,0.98-2.38,1.95-2.62c1.04-0.24,2.01,0.06,2.99-0.24
		c1.04-0.12,2.07-1.1,2.13-2.32c0.06-1.04-0.61-1.83-1.16-2.44c-0.61-0.55-1.4-0.92-1.83-1.71c-0.49-0.73-0.85-1.34-0.12-2.75
		c0.24-0.43,0.37-0.98,0.43-1.53c0.73,0.43,1.71,0.61,2.56,0.61c1.89-0.06,4.7-0.73,4.94-2.62c0.37-3.17-1.16-3.23,0.67-4.21
		c1.52-0.92,3.66,0,4.64,1.22c1.1,1.28,1.22,2.44,2.07,3.84c0,0.06,0.06,0.06,0.06,0.12c-0.12,0.92,0.12,1.95,1.16,2.68
		c2.62,1.77,3.11,0.92,3.42,2.5c0.24,1.28-1.22,2.01-2.62,2.01c-1.46-0.06-2.5-0.55-3.97-0.79c-1.28-0.12-2.56-0.06-3.48,0.55
		c-0.85,0.67-1.22,1.77-0.73,2.93c0.49,1.04,1.95,2.01,3.17,1.77c0.92-0.12,1.77-0.98,3.23-0.73c1.04,0.18,2.01,1.34,1.83,2.2
		c-0.06,0.92-0.85,1.59-1.83,1.77c-0.98,0.37-2.01,0.37-2.99,0.55C261.61,95.66,260.57,95.96,259.9,96.82z"/>
	<path d="M347.8,122.45h8.75l19.88-49h-8.26l-5.39,14.14h-21.56l-5.32-14.14h-7.91L347.8,122.45z M360.47,93.82l-6.86,17.99
		c-0.56,1.54-1.05,2.94-1.54,4.41c-0.49-1.47-1.05-2.94-1.68-4.41l-6.79-17.99H360.47z"/>
	<path d="M414.58,115.8c-0.14,1.61-0.21,3.22-0.21,4.69v1.96h6.44V96.62h-21.42v6.3h14.63v0.7c0,8.82-5.74,13.72-14.07,13.72
		c-9.59,0-16.17-7.84-16.17-19.25c0-12.6,6.93-19.53,16.45-19.53c6.79,0,11.69,3.92,12.6,9.45h7.77
		c-1.05-9.17-9.1-15.75-20.44-15.75c-13.51,0-24.08,9.66-24.08,25.83c0,14.84,9.03,25.48,23.17,25.48
		C406.46,123.57,412,120.21,414.58,115.8z"/>
	<path d="M466.81,80.94v-8.75h-35.21v51.52h36.12v-8.82h-26.18v-13.16h24.22v-8.82h-24.22V80.94H466.81z M463.24,95.43v3.78h-24.22
		v18.2h26.18v3.78h-31.08V74.71h30.17v3.71h-25.27v17.01H463.24z"/>
	<path d="M1.75,146.74v6.93c5.11-0.21,9.31-3.08,11.62-6.79c-0.14,1.4-0.14,2.8-0.14,4.27v34.3h7.14v-49h-6.02
		C12.88,141.84,7.7,145.97,1.75,146.74z"/>
	<rect x="69.65" y="176.49" width="8.96" height="8.96"/>
	<rect x="89.74" y="158.08" width="30.52" height="6.44"/>
	<path d="M159.39,132.31c-0.49-0.28-1.05-0.49-1.54-0.42c-0.56,0.07-0.7,0-0.84-0.35c-0.07-0.28-0.21-0.42-0.42-0.63
		c-0.28-0.63-0.28-0.56-0.91-0.21c-0.14,0.07-0.42,0.42-0.56-0.14c0-0.07-0.21-0.07-0.35-0.07c-0.28,0.21-0.63,0.35-0.98,0.49
		c-0.21,0.07-0.35,0.21-0.49,0c0,0,0.14-0.21,0.28-0.21c0.42-0.28,0.77-0.35,1.19-0.56c0,0,0.07-0.14,0.07-0.21
		c-0.07,0-0.14-0.07-0.21-0.07c-0.42,0.21-0.84,0.35-1.26,0.56c-0.21,0.21-0.35,0.28-0.63,0c-0.77-0.56-1.54-0.98-2.59-0.98
		c-0.63,0.14-1.26,0.21-1.75,0.42c-1.33,0.49-2.38,1.26-3.15,2.45c-1.19,1.68-1.89,3.5-1.4,5.6c0.28,1.47,0.98,2.59,2.24,3.5
		c0.35,0.21,0.77,0.35,1.12,0.56c0.07,0.07,0.14,0.21,0.14,0.28c-0.07,0-0.14,0-0.14,0c-0.7-0.21-1.4-0.42-1.96-0.35
		c-1.54,0.14-2.73,1.05-3.64,2.24c-0.77,1.19-1.33,2.38-1.26,3.78c0,0.42-0.14,0.56-0.42,0.63c-0.63,0.14-1.33,0.28-1.96,0.42
		c-0.28,0.14-0.63,0.35-0.84,0.28c-0.28-0.14-0.49-0.49-0.63-0.7c-1.05-1.54-2.66-2.24-4.48-2.31c-1.33-0.07-2.59,0.28-3.64,1.12
		c-1.19,0.98-1.89,2.1-2.17,3.5c-0.07,0.63-0.07,1.19-0.14,1.82c0,0.35,0,0.42-0.35,0.49c-0.42,0.07-0.84,0.21-1.19,0.35
		c-0.21,0.07-0.35,0.21-0.42,0.28c-0.35,0.42-0.28,1.12,0.07,1.68c0.35,0.35,0.77,0.56,1.33,0.28c0.28-0.07,0.63-0.21,0.91-0.28
		c0.21-0.07,0.49,0,0.63,0.21c0.21,0.42,0.49,0.7,0.7,0.91c1.47,1.54,3.36,2.03,5.39,1.75c2.45-0.42,4.27-2.59,4.55-4.83
		c0.07-0.49,0.14-1.05,0.14-1.61c0-0.14,0-0.28,0.21-0.35c0.91-0.14,1.82-0.49,2.66-0.7c0.21-0.07,0.28,0,0.35,0.21
		c0.49,0.84,1.12,1.47,1.89,2.1c0.07,0.07,0.14,0.21,0.21,0.35c0.35,0.84,0.77,1.82,1.54,2.38c0.84,0.77,1.82,1.4,2.94,1.68
		c0.42,0.07,0.49,0.21,0.49,0.56c0,0.63,0.07,1.19,0.21,1.75c0.07,0.98,0.07,1.05-0.91,1.54c-0.91,0.35-1.68,0.91-2.17,1.75
		c-1.12,1.54-1.54,3.15-1.12,5.04c0.35,1.54,1.26,2.87,2.52,3.78c0.77,0.49,1.54,0.77,2.45,0.98c0.07,0,0.28,0.14,0.28,0.21
		c0.07,0.91,0.14,1.82,0.28,2.73c0,0.28-0.07,0.42-0.28,0.56c-1.05,0.42-2.03,0.98-2.73,1.96c-1.33,1.68-1.82,3.5-1.12,5.6
		c0.28,1.05,0.91,2.03,1.82,2.8c0.77,0.63,1.75,1.19,2.73,1.33c0.14,0,0.21,0.21,0.21,0.35c0.07,0.35,0.14,0.84,0.14,1.26
		c0.07,0.7,0.49,1.19,1.19,1.19c0.7,0,1.33-0.49,1.33-1.05c0-0.28,0-0.49-0.14-0.7c-0.14-0.77-0.07-1.05,0.7-1.26
		c0.84-0.21,1.61-0.77,2.24-1.4c0.56-0.63,1.12-1.4,1.33-2.24c0.35-1.05,0.49-2.31,0.21-3.43c-0.14-0.7-0.42-1.47-0.91-2.1
		c-0.49-0.7-0.98-1.19-1.68-1.68c-0.7-0.42-1.33-0.7-2.1-0.84c-0.14-0.07-0.42,0-0.42-0.42c-0.14-0.84-0.28-1.75-0.35-2.59
		c-0.07-0.42,0.07-0.63,0.49-0.7c1.19-0.35,2.03-1.26,2.73-2.17c1.12-1.4,1.33-3.01,1.05-4.62c-0.42-2.52-2.31-4.27-4.83-4.83
		c-0.49-0.14-0.49-0.14-0.49-0.7c-0.07-0.77-0.07-1.54-0.28-2.31c-0.07-0.49,0.14-0.56,0.49-0.7c2.38-0.84,4.13-3.29,4.06-5.74
		c-0.07-2.1-0.98-3.57-2.45-4.9c-0.35-0.28-0.35-0.35-0.07-0.7c0.63-0.35,1.19-0.84,1.61-1.33c0.49-0.42,0.77-0.49,1.33-0.28
		c1.12,0.42,2.24,0.35,3.29-0.21c1.54-0.7,2.52-1.82,3.22-3.36c0.42-0.98,0.63-1.96,0.63-2.94c0-0.63-0.07-1.33-0.21-1.96
		C161.84,134.27,161.07,132.88,159.39,132.31z M126.07,154.02c-0.49,0.21-0.84,0.28-1.33,0.42c-0.14-0.07-0.21-0.14-0.28-0.21
		c0.07-0.07,0.07-0.21,0.14-0.21c0.35-0.21,0.84-0.42,1.19-0.49c0.07-0.07,0.28,0,0.42,0.07
		C126.14,153.81,126.14,154.02,126.07,154.02z M127.82,149.96c0.56-1.4,1.61-2.17,3.15-2.52c1.19-0.21,2.1,0.07,3.01,0.63
		c0.56,0.21,0.7,0.91,0.35,1.47c-0.21,0.28-0.49,0.7-0.91,0.91c-1.19,0.77-2.59,1.26-4.06,1.4c-0.21,0-0.49-0.07-0.7-0.14
		C127.75,151.5,127.4,150.94,127.82,149.96z M134.05,154.65c-0.49,0.42-0.98,0.77-1.54,0.91c-0.56,0.14-1.05,0-1.47-0.42
		c-0.42-0.49-0.28-1.33,0.35-1.75c0.42-0.28,0.98-0.56,1.4-0.49c0.28,0,0.42,0,0.56,0c0.42,0,0.77,0.21,0.84,0.56
		C134.33,153.88,134.33,154.23,134.05,154.65z M136.85,154.37c-0.7,1.75-1.89,2.8-3.64,3.29c-0.21,0.07-0.42,0.14-0.63,0.14
		c-0.14,0-0.35,0-0.56,0c-1.82-0.07-3.36-0.77-4.34-2.38c-0.07,0,0-0.21,0-0.28c0,0.07,0.07,0.07,0.14,0.07
		c0.14,0.28,0.28,0.42,0.56,0.56c0.77,0.77,1.68,1.12,2.66,1.33c0.91,0.14,1.68,0,2.52-0.21c1.75-0.63,2.73-1.89,3.08-3.5
		c0.21-0.63,0.21-1.33,0.21-1.89c0.07-0.14,0.07-0.21,0.07-0.28c0.07,0.07,0.07,0.14,0.14,0.28
		C137.27,152.48,137.13,153.39,136.85,154.37z M137.34,150.03c-0.14-0.21-0.14-0.35,0.07-0.42c0.98-0.28,1.82-0.42,2.66-0.77
		c0.28-0.07,0.28,0.07,0.28,0.42c-0.07,0.07-0.14,0.14-0.28,0.21c-0.7,0.21-1.47,0.49-2.24,0.63
		C137.69,150.17,137.41,150.1,137.34,150.03z M140.49,150.59c-0.91,0.35-1.75,0.56-2.66,0.77l-0.07-0.07c0-0.07,0-0.14,0.07-0.14
		c0-0.07,0.14-0.14,0.21-0.14c0.77-0.21,1.54-0.42,2.38-0.63c0.07,0,0.21,0,0.28,0.07C140.63,150.52,140.63,150.59,140.49,150.59z
		 M152.67,179.57c0.07-0.21,0.28-0.49,0.42-0.63c0.49-0.63,1.12-0.7,1.75-0.07c0.77,0.7,1.33,1.61,1.47,2.73
		c0.21,1.12,0,2.03-0.56,3.01c-0.21,0.49-0.49,0.98-1.12,1.19c-0.42,0.14-0.7,0.14-1.05-0.07c-0.35-0.28-0.63-0.7-0.77-1.12
		c-0.21-1.05-0.35-2.03-0.49-3.01C152.46,180.9,152.53,180.2,152.67,179.57z M152.32,188.46c0.07,0,0.21,0.14,0.21,0.21
		c0.07,0.21,0,0.42,0,0.7c0,0.21,0.07,0.35,0,0.63c0,0.07-0.07,0.14-0.14,0.21c-0.07,0-0.21-0.07-0.21-0.14
		c-0.14-0.56-0.21-1.05-0.21-1.47C151.97,188.53,152.25,188.46,152.32,188.46z M154.14,131.82c0.35-0.14,0.63-0.21,0.91-0.35
		c0.28-0.14,0.35,0.07,0.42,0.21c0.07,0.21-0.07,0.28-0.21,0.28c-0.35,0.14-0.63,0.35-1.05,0.49c-0.07-0.07-0.14-0.14-0.14-0.35
		C154,132.03,154.07,131.89,154.14,131.82z M145.11,139.46c-0.35-0.84-0.77-1.68-0.63-2.45c0-2.1,0.63-3.71,2.03-5.04
		c1.05-0.98,2.24-1.54,3.71-1.54c0.77,0,1.4,0.35,2.03,0.7c0.07,0.07,0.07,0.14,0.07,0.21c-0.07,0-0.14,0-0.28,0
		c-0.28-0.14-0.63-0.21-0.98-0.35c-1.33-0.28-2.45,0.21-3.43,0.91c-1.89,1.33-2.73,3.22-2.59,5.46c0.21,1.68,1.05,3.08,2.73,3.85
		c0.07,0,0.14,0.07,0.21,0.14c-0.07,0-0.21,0.14-0.28,0C146.65,141,145.67,140.44,145.11,139.46z M150.43,160.39
		c0,0.14-0.07,0.42-0.14,0.42c-0.14,0.07-0.35,0.07-0.35-0.28c-0.07-0.28-0.21-0.49-0.21-0.84c0.14-0.35,0.14-0.77-0.07-1.12
		c-0.07-0.28-0.07-0.49-0.07-0.7c0.07-0.07,0.28-0.21,0.35-0.21c0.07,0,0.21,0.14,0.21,0.21c0.07,0.35,0.14,0.84,0.21,1.19
		c-0.07,0-0.07,0-0.07,0C150.29,159.55,150.36,160.04,150.43,160.39z M150.22,176.14c0,0.07-0.14,0.14-0.14,0.21
		c-0.07-0.07-0.14-0.14-0.14-0.21c-0.07-0.77-0.07-1.47-0.21-2.17c0-0.14,0-0.35,0-0.42c0-0.14,0-0.21,0-0.35
		c0.14,0.07,0.35,0.21,0.35,0.28C150.15,174.32,150.15,175.16,150.22,176.14z M148.96,165.71c0.49,0.77,0.77,1.61,0.35,2.45
		c-0.07,0.14-0.14,0.35-0.35,0.49c-0.49,0.56-0.91,0.56-1.4,0c-0.49-0.49-0.63-0.98-0.56-1.61c0-0.49,0-0.91,0.28-1.33
		C147.7,165.01,148.68,165.15,148.96,165.71z M148.54,137.29c-0.49,0.49-1.19,0.56-1.47,0c-0.21-0.21-0.21-0.7-0.28-0.98
		c0.07-1.26,0.49-2.17,1.68-2.73c0.49-0.28,1.12,0,1.19,0.7C149.73,135.46,149.45,136.51,148.54,137.29z M149.38,145.48
		c-0.28,0-0.28-0.14-0.28-0.42c0-0.35,0-0.84,0-1.19c0-0.42,0-0.7,0-1.12c0-0.21,0-0.35,0.28-0.35c0.21,0,0.28,0.07,0.28,0.28
		c0,0.84,0,1.61,0,2.38C149.66,145.34,149.59,145.48,149.38,145.48z M150.64,142.05c0.42-0.07,0.91-0.21,1.26-0.35
		c0.28-0.07,0.49-0.14,0.56,0.14c0,0.07,0.07,0.14,0.14,0.21c0.21,0.28,0.21,0.49-0.07,0.7c-0.49,0.49-0.98,0.91-1.47,1.4
		c-0.14,0.14-0.35,0.28-0.56,0.14c-0.21-0.21-0.56-0.28-0.56-0.7c0-0.14,0-0.35,0-0.49C149.94,142.33,149.94,142.33,150.64,142.05z
		 M148.47,151.64c-0.28,0.77-0.28,1.47-0.91,1.82c-0.42,0.14-0.7,0.14-1.05-0.07c-0.63-0.56-0.77-1.26-0.7-2.03
		c0.07-0.35,0.21-0.77,0.35-1.05c0.35-0.7,1.05-0.84,1.61-0.14C148.05,150.52,148.19,151.15,148.47,151.64z M142.8,151.92
		c0,0.07,0,0.14,0,0.21c-0.07,0-0.14,0-0.21-0.07c-0.28-0.35-0.56-0.77-0.84-1.12v-0.14c0.07,0,0.07,0,0.14,0
		c0.35,0.28,0.63,0.56,0.91,0.98C142.8,151.78,142.8,151.85,142.8,151.92z M142.66,147.16c-0.49-0.21-0.84-0.91-0.63-1.47
		c0.56-1.33,1.47-2.24,2.94-2.59c0.77-0.21,1.54,0.07,2.24,0.35c0.07,0.07,0.14,0.21,0.21,0.35c0,0.28,0,0.56,0,0.91
		c0,0.14,0,0.28,0,0.42c0,0.42-0.14,0.49-0.42,0.63c-0.77,0.35-1.47,0.77-2.17,1.26c-0.28,0.28-0.7,0.42-1.05,0.35
		C143.36,147.3,143.01,147.3,142.66,147.16z M148.33,156.96c0,0.07,0,0.07,0,0.07c-0.42-0.07-0.91-0.14-1.26-0.35
		c-1.96-0.84-3.08-2.1-3.5-4.2c-0.21-1.61,0.28-2.94,1.12-4.2c0.63-0.98,1.61-1.61,2.73-1.89c0.14,0,0.28,0.07,0.35,0.07
		c-0.07,0.07-0.14,0.07-0.21,0.07c-1.19,0.56-2.1,1.33-2.73,2.38c-0.35,0.77-0.63,1.61-0.63,2.59c0,1.19,0.35,2.17,1.05,3.22
		c0.77,1.05,1.82,1.82,3.22,2.03c0.07,0,0.14,0.14,0.21,0.21c-0.07,0-0.14,0-0.21,0C148.4,156.96,148.4,156.96,148.33,156.96z
		 M146.86,171.24c-1.05-0.84-1.82-1.75-2.03-3.08c-0.63-2.59,0.91-5.53,3.57-6.3c0,0,0.07-0.07,0.14-0.07c0.07,0,0.14,0,0.21,0.07
		c-0.07,0-0.14,0.07-0.21,0.14c-0.63,0.28-1.26,0.63-1.68,1.19c-1.47,1.54-1.96,4.06-1.05,6.02c0.77,1.54,2.03,2.45,3.57,2.87
		c0.14,0.07,0.21,0.07,0.28,0.07c0.21,0,0.28,0.14,0.42,0.14c-0.07,0.07-0.21,0.07-0.35,0.07
		C148.61,172.29,147.63,171.94,146.86,171.24z M150.43,187.69c-0.77-0.28-1.47-0.49-2.03-0.91c-1.19-0.77-2.03-1.82-2.24-3.15
		c-0.35-1.61-0.14-3.08,0.77-4.41c0.7-0.98,1.54-1.54,2.66-1.96c0.07,0,0.14-0.07,0.28-0.07c0.07,0,0.07,0,0.14,0
		c-0.07,0.07-0.07,0.14-0.07,0.14c-0.49,0.21-0.84,0.56-1.26,0.77c-1.05,0.7-1.61,1.75-1.89,2.87c-0.7,2.73,0.84,5.46,3.43,6.37
		c0.07,0,0.14,0.07,0.21,0.07c0.07,0.07,0.21,0.07,0.28,0.14C150.64,187.55,150.5,187.55,150.43,187.69z M151.48,164.03
		c0.14-0.84,1.19-1.26,1.96-0.63c1.05,0.84,1.47,1.82,1.61,3.08c0.07,1.05-0.07,2.1-0.7,2.94c-0.21,0.28-0.42,0.63-0.77,0.84
		c-0.28,0.21-0.84,0.21-1.12,0c-0.63-0.49-0.84-1.19-0.98-1.82c-0.21-0.77-0.28-1.68-0.42-2.52
		C151.13,165.36,151.27,164.73,151.48,164.03z M150.99,173.27c0-0.21,0.14-0.35,0.28-0.21c0.21,0,0.35,0.14,0.35,0.21
		c0,0.84,0.07,1.75,0.14,2.59c0,0.28-0.07,0.42-0.28,0.42c-0.35,0-0.35-0.14-0.35-0.42c-0.07-0.7-0.07-1.4-0.14-2.03
		C150.99,173.62,150.99,173.48,150.99,173.27z M150.85,182.51c-0.14,0.42-0.35,0.98-0.56,1.47c-0.21,0.35-0.98,0.42-1.4,0.07
		c-0.84-0.63-0.91-2.31-0.35-3.01c0.42-0.63,1.12-0.7,1.61-0.14C150.5,181.32,150.78,181.88,150.85,182.51z M152.53,148.21
		c0.98,0.84,1.4,1.96,1.4,3.43c0.07,1.19-0.42,2.24-1.26,3.08c-0.77,0.7-1.47,0.63-1.89-0.28c-0.28-0.42-0.49-0.91-0.56-1.33
		c-0.21-1.33-0.35-2.66,0.07-3.92c0.07-0.28,0.14-0.42,0.21-0.56C150.92,147.79,151.83,147.65,152.53,148.21z M153.3,143.24
		c-0.14,0.42-0.56,0.7-0.98,0.84c-0.07,0.56-0.63,0.63-0.91,0.91c-0.14,0-0.35-0.14-0.42-0.21c-0.07,0-0.07-0.14,0-0.21
		c0.28-0.28,0.7-0.49,0.98-0.7c0,0,0.07,0,0.21,0c0.21-0.35,0.49-0.7,0.84-1.05c0,0,0.21,0,0.21,0.07
		C153.3,143.03,153.37,143.17,153.3,143.24z M154.07,139.18c-0.49,0.35-0.98,0.77-1.54,0.98c-1.05,0.56-1.89-0.14-1.89-1.26
		c0-0.07,0-0.21,0-0.28c0-1.4,0.42-2.66,1.61-3.5c0.84-0.56,1.68-0.28,2.1,0.63c0.21,0.49,0.35,0.91,0.42,1.4
		C154.91,137.92,154.63,138.62,154.07,139.18z M160.79,141.56c-0.84,1.05-1.89,1.89-3.15,2.24c-0.84,0.14-1.82,0-2.59-0.42
		c0,0-0.07-0.07-0.07-0.14c0.07,0,0.07,0,0.14,0c0.28,0,0.49,0.07,0.7,0.07c2.24,0.28,3.71-0.84,4.69-2.73
		c0.49-0.77,0.7-1.68,0.7-2.59c0-1.4-0.28-2.66-1.19-3.71c-0.7-0.84-1.68-1.26-2.8-1.26c-0.07,0-0.14-0.14-0.28-0.21
		c0.14,0,0.21,0,0.28,0c1.89-0.21,3.22,0.7,3.99,2.24c0.42,0.91,0.63,1.82,0.63,3.08C161.84,139.18,161.56,140.37,160.79,141.56z
		 M157.64,137c0.21-0.35,0.49-0.49,0.91-0.49c0.35-0.07,0.63,0.14,0.7,0.49c0.28,0.42,0.42,0.91,0.35,1.54
		c-0.21,0.7-0.42,1.4-0.98,1.89c-0.21,0.28-0.56,0.42-0.91,0.28c-0.42-0.21-0.7-0.49-0.7-0.91
		C156.94,138.83,156.94,137.85,157.64,137z"/>
	<path d="M198.8,149.47c0-8.61-6.79-14.21-17.92-14.21c-11.27,0-17.78,5.67-17.78,14c0,5.6,3.85,10.5,10.29,12.53
		c-5.39,1.89-9.1,5.81-9.1,11.27c0,7.77,6.58,13.51,16.66,13.51c9.94,0,16.59-5.74,16.59-13.44c0-5.39-3.57-9.52-9.1-11.34
		C194.88,159.83,198.8,155,198.8,149.47z M190.33,172.85c0,4.69-3.71,7.91-9.38,7.91c-5.74,0-9.45-3.22-9.45-7.77
		c0-4.76,3.78-8.05,9.45-8.05C186.48,164.94,190.33,168.16,190.33,172.85z M180.95,158.57c-6.16,0-10.57-3.71-10.57-8.75
		c0-5.32,4.27-8.82,10.57-8.82c6.23,0,10.57,3.5,10.57,8.82C191.52,154.79,187.18,158.57,180.95,158.57z"/>
	<rect x="205.66" y="176.49" width="8.96" height="8.96"/>
	<path d="M256.9,169.91c0,6.3-2.24,10.43-8.47,10.43c-6.02,0-8.05-4.2-8.12-10.22h-7.56c0.07,9.8,4.9,16.45,15.61,16.45
		c9.66,0,16.03-5.88,16.03-15.82v-34.3h-7.49V169.91z"/>
	<path d="M315.35,150.1c-0.77,0.84-1.12,1.4-0.84,1.68c2.24-1.61,5.39-3.64,9.45-6.23C320.47,147.44,317.6,148.98,315.35,150.1z"/>
	<path d="M308.98,180.2l1.82,1.68c-0.63-0.84-1.26-1.54-1.75-2.24C308.98,179.78,308.91,179.99,308.98,180.2z"/>
	<path d="M320.96,168.37l-5.67-1.05c0.56,0.14,1.33,0.35,2.24,0.63C318.58,168.02,319.7,168.23,320.96,168.37z"/>
	<path d="M316.54,154.23c-1.12,0.7-1.61,1.26-1.54,1.61c2.52-1.19,5.88-2.66,10.22-4.55C321.66,152.55,318.79,153.53,316.54,154.23z
		"/>
	<path d="M315,155.84c-7.21,3.43-7.07,4.27,0.28,3.5c1.05-0.77,4.41-1.82,10.01-3.29C318.58,156.68,315.15,156.75,315,155.84z"/>
	<path d="M314.51,151.78c-6.09,4.2-5.67,4.9,2.03,2.45c1.54-1.05,4.41-2.59,8.47-4.55C318.51,151.64,315.07,152.41,314.51,151.78z"
		/>
	<path d="M320.82,139.32c-2.03,1.54-3.64,2.66-4.83,3.43c-8.82,9.8-9.24,11.62-0.63,7.35c1.33-1.33,3.99-3.43,7.91-6.3
		C311.22,150.1,311.15,148.91,320.82,139.32z"/>
	<path d="M288.05,186.71c0.35,0.14,0.63,0.49,0.84,0.98c0.77-0.7,1.47-0.91,2.03-0.49C290.99,181.74,290.43,181.25,288.05,186.71z"
		/>
	<path d="M285.32,185.94c0.35,0.21,0.63,0.56,0.84,0.98c0.7-0.35,1.33-0.49,1.82-0.28C288.89,180.69,288.05,181.11,285.32,185.94z"
		/>
	<path d="M316.75,162.49c1.54-0.28,3.99-0.56,7.42-0.84c-5.18-0.35-8.19-0.77-9.03-1.4C308.56,161.79,309.4,162.35,316.75,162.49z"
		/>
	<path d="M314.65,163.26c2.31-0.21,5.39-0.49,9.24-0.7c-2.8,0-5.25,0-7.14-0.07C315.42,162.7,314.72,162.98,314.65,163.26z"/>
	<path d="M283.01,184.75c2.31-5.53,1.54-5.46-2.1-1.4c2.73-4.83,2.59-5.74-1.82-1.82c3.5-4.97,2.73-5.11-1.82-1.96
		c3.92-4.34,4.06-5.39-1.61-2.52c5.04-4.34,4.27-4.76-1.54-2.94c5.46-3.43,5.95-4.62-1.12-3.71c6.58-2.87,6.09-3.78-0.21-4.34
		c-0.07,0.28-0.35,0.49-0.84,0.56c1.05,0.98,1.12,2.03,0.42,3.22c0.91,0.84,1.05,1.82,0.7,2.94c0.7,0.77,0.98,1.61,0.98,2.59
		c0.56,0.7,0.91,1.47,1.12,2.38c0.56,0.63,0.98,1.33,1.33,2.03c0.56,0.56,1.05,1.19,1.47,1.82c0.63,0.49,1.26,0.98,1.75,1.61
		c0.77,0.35,1.4,0.77,1.96,1.4c0.84,0.07,1.61,0.42,2.1,1.19c0.56-0.14,1.05-0.07,1.54,0.14
		C286.86,180.62,286.51,179.92,283.01,184.75z"/>
	<path d="M315.35,166.27l6.58,0.56c-3.15-0.42-5.74-0.84-7.63-1.19C314.23,165.78,314.58,165.99,315.35,166.27z"/>
	<path d="M291.06,187.27c0.28,0.21,0.56,0.56,0.77,1.05c0.84-1.12,1.54-1.47,2.24-1.05C293.37,181.25,292.6,181.88,291.06,187.27z"
		/>
	<path d="M314.3,165.64c0.07-0.42,2.87-0.35,8.26,0c-5.32-1.05-8.05-1.82-7.91-2.38C308.21,163.89,308,164.52,314.3,165.64z"/>
	<path d="M272.44,165.01c0.21,0.35,0.35,0.7,0.35,0.91C279.02,165.5,279.51,165.29,272.44,165.01z"/>
	<path d="M272.86,158.92c7.07,0.84,6.51-0.49,1.19-4.06c5.32,1.47,5.88,0.56,1.89-3.57c4.41,1.89,4.2,0.49,1.4-3.15
		c2.8,1.26,3.01,0.21,1.19-2.52c1.96,0.56,1.96-0.56,1.12-2.24c0.84-0.49,0.84-1.47,0.84-2.38v-4.55h-7.42v14.98
		c0,1.26,0,2.52-0.07,3.71c0.07,1.26,0,2.45-0.56,3.36c0.56,1.26,0.63,2.31-0.42,3.15c0.28,0.35,0.49,0.63,0.63,0.91
		C279.02,162.49,279.58,161.65,272.86,158.92z"/>
	<path d="M304.76,131.16c0.09-0.46,0.2-0.97,0.31-1.51C304.95,130.21,304.85,130.7,304.76,131.16z"/>
	<path d="M315.15,160.25c2.31-0.56,5.6-1.26,9.87-2.1c-4.06,0.56-7.28,0.98-9.73,1.19C314.79,159.69,314.79,159.97,315.15,160.25z"
		/>
	<path d="M272.65,162.63c0.21,0.63-0.07,1.12-0.77,1.61l0.56,0.77C279.58,164.45,279.02,163.82,272.65,162.63z"/>
	<path d="M305.06,185.03l0.49,0.49c-0.63-2.8,0.07-3.15,2.24-1.33l-0.21-0.56C302.54,177.33,301.77,177.19,305.06,185.03z"/>
	<path d="M272.3,162.56c0.14,0,0.21,0.07,0.35,0.07v-0.07C272.51,162.56,272.44,162.56,272.3,162.56z"/>
	<path d="M312.34,177.61c0.49,0.14,1.12,0.42,1.82,0.77c-2.66-2.73-3.22-3.85-1.47-3.71C305.69,171.45,306.25,172.5,312.34,177.61z"
		/>
	<path d="M307.51,183.35c-0.63-2.24-0.07-2.66,2.45-0.77c-0.56-1.05-0.91-1.82-0.98-2.38C303.17,175.02,303.45,176.56,307.51,183.35
		z"/>
	<path d="M302.4,185.94c0.21,0.14,0.49,0.42,0.77,0.77c-0.14-2.17,0.35-2.87,1.68-1.82C300.72,178.31,300.51,179.29,302.4,185.94z"
		/>
	<path d="M309.05,179.64c0.28-0.35,1.26,0,3.01,1.12c-1.89-2.59-2.31-3.85-0.63-3.43C305.27,173.48,304.43,173.76,309.05,179.64z"/>
	<path d="M315.28,167.32c-2.8-0.77-0.98-0.49,5.95,0.63c-2.8-0.7-4.76-1.26-5.88-1.68C307.09,165.64,307.58,165.92,315.28,167.32z"
		/>
	<path d="M313.74,174.88c0.63,0.14,1.47,0.42,2.38,0.7c-4.83-3.64-4.97-4.76,1.82-3.43l-1.26-0.7
		C305.27,168.58,304.78,169.21,313.74,174.88z"/>
	<path d="M294.21,187.41c0.28,0.21,0.49,0.56,0.77,0.98c0.56-1.33,1.19-1.75,1.89-1.33C295.68,181.6,294.98,181.25,294.21,187.41z"
		/>
	<path d="M297.08,187.2c0.21,0.21,0.49,0.56,0.77,0.98c0.42-1.54,0.98-2.17,1.75-1.68C297.5,180.48,297.01,181.32,297.08,187.2z"/>
	<path d="M299.81,186.64c0.21,0.21,0.49,0.49,0.77,0.91c0.21-1.75,0.7-2.31,1.54-1.82C299.53,180.13,298.83,179.92,299.81,186.64z"
		/>
	<path d="M315.56,170.82c-3.85-2.38-2.38-3.01,5.18-2.1l-3.22-0.77C307.44,166.62,306.74,167.25,315.56,170.82z"/>
	<path d="M306.18,132.38c-2.1,8.12-2.1,9.31,0.77,2.31C306.25,135.33,306.04,134.55,306.18,132.38z"/>
	<path d="M313.81,178.8l-1.47-1.19c-0.35-0.14-0.63-0.28-0.91-0.28C312.2,177.75,312.97,178.24,313.81,178.8z"/>
	<path d="M307.93,184.05l-0.42-0.7l0.07,0.28C307.72,183.77,307.79,183.91,307.93,184.05z"/>
	<path d="M315.77,176.14c-0.7-0.42-1.4-0.84-2.03-1.26l-1.05-0.21C313.6,175.09,314.65,175.58,315.77,176.14z"/>
	<path d="M299.95,187.55c-0.07-0.28-0.07-0.63-0.14-0.91l-0.21-0.14C299.67,186.85,299.81,187.2,299.95,187.55z"/>
	<path d="M306.95,134.7c0.14-0.07,0.28-0.28,0.49-0.49c0.35-1.12,0.77-2.38,1.26-3.78L306.95,134.7z"/>
	<path d="M305.27,185.59l-0.21-0.56c-0.07-0.07-0.14-0.14-0.21-0.14C304.99,185.1,305.13,185.31,305.27,185.59z"/>
	<path d="M302.61,186.78l-0.21-0.84c-0.14-0.07-0.21-0.14-0.28-0.21C302.26,186.08,302.47,186.43,302.61,186.78z"/>
	<path d="M313.67,143.94c0.42-0.07,1.19-0.49,2.31-1.19c1.19-1.33,2.52-2.87,4.06-4.48C317.52,140.58,315.42,142.47,313.67,143.94z"
		/>
	<path d="M318.29,136.3c-7.21,6.79-7.21,5.74-2.1-1.89c-1.96,2.24-3.22,3.5-3.71,3.85c-6.72,10.85-7.07,12.81,1.19,5.67
		C312.2,144.36,313.95,141.77,318.29,136.3z"/>
	<path d="M297.08,188.11c0-0.28,0-0.63,0-0.91l-0.21-0.14L297.08,188.11z"/>
	<path d="M309.54,130.7c-0.91,1.68-1.61,2.8-2.1,3.5c-3.29,9.66-3.08,10.43,2.1,0.91C308.84,135.39,308.84,134,309.54,130.7z"/>
	<path d="M312.2,137.92c-0.14,0.42-0.07,0.56,0.28,0.35l2.8-4.55C314.16,135.25,313.11,136.66,312.2,137.92z"/>
	<path d="M313.32,132.46c-2.24,3.99-2.73,3.99-1.05-0.63c-0.98,1.47-1.75,2.52-2.24,3.01c-5.25,11.76-5.11,12.74,2.17,3.08
		c0.21-0.77,1.05-2.31,2.45-4.69C311.08,137.29,311.08,136.45,313.32,132.46z"/>
	<path d="M309.54,135.12c0.14,0,0.28-0.14,0.49-0.28c0.42-1.05,0.91-2.17,1.47-3.36L309.54,135.12z"/>
	<path d="M304.29,134.7c0.07,0.21,0.28,0,0.56-0.63c0.28-1.12,0.56-2.59,0.98-4.34C305.06,132.38,304.57,134,304.29,134.7z"/>
	<path d="M272.23,165.99c0.21,0,0.35,0,0.56,0.07v-0.14C272.58,165.99,272.44,165.99,272.23,165.99z"/>
	<path d="M285.32,185.94c-0.07,0.07-0.07,0.07-0.07,0.14C285.25,186.01,285.32,186.01,285.32,185.94z"/>
	<path d="M304.85,134.06c-0.98,4.69-0.7,4.27,1.4-2.24c0.07-0.56,0.14-1.19,0.28-1.96C305.76,131.89,305.2,133.29,304.85,134.06z"/>
	<path d="M304.76,131.16c-0.66,3.3-0.83,4.58-0.46,3.53C304.24,134.35,304.37,133.17,304.76,131.16z"/>
	<path d="M294.14,188.18c0-0.28,0.07-0.56,0.07-0.77l-0.14-0.14C294.07,187.55,294.14,187.83,294.14,188.18z"/>
	<path d="M290.92,187.9c0.07-0.21,0.14-0.42,0.14-0.63c0,0-0.07-0.07-0.14-0.07V187.9z"/>
	<path d="M318.23,171.87c-0.98-0.35-1.82-0.7-2.66-1.05c0.35,0.21,0.7,0.42,1.12,0.63L318.23,171.87z"/>
	<path d="M287.91,187.06l0.14-0.35l-0.07-0.07C287.98,186.78,287.91,186.92,287.91,187.06z"/>
	<path d="M306.25,131.82c0,0.21,0,0.42-0.07,0.56c0.21-0.7,0.49-1.54,0.7-2.45C306.67,130.63,306.46,131.26,306.25,131.82z"/>
	<path d="M360.43,169.77c0,2.24,0.07,4.55,0.14,6.65l-23.45-39.97h-11.2v49h7.42v-35.49c0-2.03,0-3.99-0.07-6.3l24.57,41.79h10.08
		v-49h-7.49V169.77z"/>
	<rect x="379.19" y="136.45" width="7.42" height="49"/>
	<path d="M426.93,172.01l3.36-2.52c8.4-6.23,13.58-11.41,13.58-19.39c0-8.89-6.37-14.84-16.03-14.84
		c-10.01,0-17.08,6.51-17.08,17.15v1.19h7.49v-0.77c0-7.42,3.64-11.62,9.59-11.62c5.46,0,8.75,3.64,8.75,8.89
		c0,5.74-4.62,9.8-9.17,13.23l-5.25,3.92c-7.84,5.81-11.83,10.15-11.97,18.2h34.23v-6.58h-24.92
		C420.07,177.26,422.31,175.44,426.93,172.01z"/>
	<path d="M468.79,135.25c-11.27,0-18.34,9.59-18.34,25.69c0,16.17,6.65,25.62,18.34,25.62c11.55,0,18.34-9.38,18.34-25.48
		C487.13,144.71,479.99,135.25,468.79,135.25z M468.86,180.69c-6.79,0-11.06-6.23-11.06-19.46c0-13.72,3.99-20.02,11.06-20.02
		c6.79,0,10.92,6.3,10.92,19.95C479.78,174.53,475.65,180.69,468.86,180.69z"/>
	<path d="M534.52,179.5c-0.14-0.42-0.14-0.91-0.14-1.33c-0.14-0.14-0.14-0.42-0.14-0.56c0-0.14-0.14-0.42-0.21-0.49l-0.07-0.07
		c-0.14-0.07-0.35-0.07-0.49,0h-0.07c-0.07,0.07-0.07,0.14-0.07,0.21c-0.07,0.21-0.21,0.35-0.35,0.35
		c-0.14,0.07-0.42,0.07-0.49,0.07c-0.21,0.07-0.49,0.21-0.63,0.21c-0.28,0-0.42,0-0.7,0c-0.07,0-0.21,0-0.28,0
		c-0.28-0.14-0.42-0.21-0.7-0.28c-0.28-0.07-0.63-0.07-1.05,0c-0.07,0-0.14,0-0.21-0.07c-0.07,0-0.21-0.07-0.21-0.28
		c-0.07,0-0.14-0.07-0.21-0.07c-0.14,0-0.42-0.07-0.56-0.21c-0.21,0-0.28,0-0.28,0c-0.28,0.07-0.63-0.07-1.05-0.07
		c-0.07,0-0.14,0-0.21,0c-0.28-0.14-0.35-0.14-0.49-0.28c0,0,0-0.07-0.14-0.07c0-0.07-0.07-0.07-0.14-0.07
		c-0.35,0-0.56,0.07-0.91,0.07c-0.21,0-0.21,0-0.28,0.14c-0.14,0-0.14,0.07-0.21,0.07c-0.21,0-0.49,0-0.7,0.14
		c-0.21,0-0.35-0.14-0.49-0.21c-0.56-0.14-0.98-0.28-1.4-0.42c-0.56-0.07-0.98-0.21-1.33-0.63c-0.07-0.07-0.21-0.07-0.42-0.14
		c-0.56-0.07-1.12-0.28-1.54-0.56c-0.14-0.14-0.49-0.21-0.63-0.28c-0.35,0-0.63,0-0.91-0.07c-0.14,0-0.35-0.07-0.49-0.14
		c-0.21-0.21-0.49-0.28-0.7-0.28c-0.21,0.07-0.35,0-0.49-0.14c-0.21-0.07-0.42-0.28-0.63-0.35c-0.07-0.07-0.14-0.07-0.21-0.07
		c-0.07,0-0.14-0.07-0.28-0.07c-0.21,0-0.49-0.07-0.56-0.35c-0.14-0.21-0.21-0.49-0.56-0.63c-0.14-0.28-0.21-0.42-0.35-0.7
		c-0.07-0.21-0.21-0.35-0.35-0.63c-0.28-0.35-0.35-0.84-0.49-1.12c0-0.07,0-0.07,0-0.21c-0.14-0.21-0.14-0.49-0.14-0.77
		c0.14-0.35,0-0.56-0.14-0.84c-0.07-0.14-0.14-0.35-0.21-0.49c-0.14-0.14-0.14-0.42,0-0.49c0.14-0.21,0.21-0.49,0.35-0.7
		c0.14-0.21,0.14-0.42,0.21-0.63c0.07-0.21,0.21-0.35,0.21-0.56c0.07-0.14,0.21-0.28,0.21-0.42c0.07-0.21,0.07-0.35,0.21-0.56
		c0.14-0.28,0.28-0.56,0.35-0.77c0.07-0.35,0.21-0.7,0.49-1.12c0.07-0.14,0.07-0.21,0.07-0.28c0.07-0.21,0.07-0.28,0.14-0.42
		c0.28-0.42,0.49-1.05,0.84-1.54c0-0.07,0.07-0.28,0.14-0.42c0-0.07,0.07-0.14,0.07-0.28c0-0.14,0-0.49,0.21-0.63
		c0-0.21,0.21-0.42,0.42-0.56c0.07-0.21,0.21-0.42,0.35-0.7c0.21-0.14,0.35-0.28,0.42-0.49c0-0.14,0-0.14,0.07-0.21
		c0.14-0.07,0.21-0.14,0.28-0.28c0-0.14,0-0.21,0.07-0.28c0.28-0.35,0.42-0.49,0.49-0.7c0.07-0.14,0.14-0.14,0.28-0.21
		c0.14-0.07,0.28-0.14,0.49-0.28c0.14-0.21,0.21-0.35,0.56-0.42c0.07-0.07,0.07-0.07,0.14-0.21c0.14-0.28,0.42-0.56,0.56-0.77
		c0.07-0.07,0.21-0.21,0.28-0.21c0.07-0.07,0.14-0.14,0.21-0.14c0.28-0.07,0.56-0.21,0.91-0.35c0.07,0,0.14-0.07,0.28-0.07
		c0.14-0.21,0.28-0.28,0.35-0.42c0.49-0.14,0.91-0.28,1.26-0.63h0.07c0.07-0.07,0.14-0.07,0.28-0.14c0.14,0,0.28,0,0.56,0
		c0.07,0,0.14,0,0.21,0c0.42-0.21,0.84-0.21,1.26-0.42c0.21-0.07,0.49-0.07,0.63,0c0.35,0.07,0.56,0,0.84,0.07c0.07,0,0.14,0,0.28,0
		c0.14-0.07,0.28-0.07,0.35-0.14c0.07,0,0.14,0,0.28-0.21c0.07-0.07,0.14-0.07,0.14-0.14c0.14-0.07,0.21-0.21,0.35-0.42
		c0-0.14,0-0.21,0-0.42c-0.21-0.21-0.21-0.49-0.21-0.84c0.07-0.28,0.07-0.42,0.07-0.7c0-0.14,0-0.28,0-0.49
		c-0.07-0.21-0.07-0.28-0.07-0.49c0.07-0.28,0.07-0.56,0.21-0.91c0.07-0.07,0.07-0.21,0.14-0.28c0.07-0.49,0.21-0.77,0.63-0.91
		c0.21-0.07,0.35-0.14,0.42-0.28c0.14-0.14,0.14-0.28,0.28-0.49c0-0.14,0-0.21,0.07-0.28c0.07-0.07,0.14-0.21,0.14-0.35
		c0.07-0.14,0.28-0.35,0.35-0.42c0-0.07,0-0.07,0-0.14c0-0.14,0-0.28,0.14-0.35c0.07-0.28,0.07-0.49,0-0.63
		c-0.14-0.14-0.14-0.35-0.21-0.49c-0.14-0.28-0.14-0.42-0.14-0.56c-0.07-0.35-0.07-0.49-0.14-0.7c-0.14-0.49-0.21-0.98-0.42-1.47
		c-0.07-0.07-0.07-0.14-0.07-0.21c0-0.28-0.07-0.56-0.07-0.91c0-0.14,0-0.21,0-0.42c0-0.49-0.07-0.91-0.14-1.47
		c0-0.07,0-0.21,0-0.28c0-0.28,0-0.42-0.14-0.63c-0.14-0.28-0.14-0.7-0.14-1.12c0-0.07,0-0.14-0.07-0.21c0-0.42,0-0.77,0-1.26
		c0-0.07,0-0.14,0-0.21c0-0.21-0.07-0.42-0.28-0.63c-0.14-0.14-0.28-0.28-0.56-0.49c-0.21-0.07-0.49-0.14-0.63-0.28
		c-0.07,0-0.14-0.07-0.14-0.07c-0.14-0.14-0.14-0.21-0.14-0.28c-0.14-0.14-0.21-0.35-0.35-0.49h-0.14
		c-0.07-0.14-0.14-0.21-0.14-0.42c-0.07-0.28-0.14-0.56-0.21-0.77c-0.21-0.42-0.28-0.84-0.49-1.12c-0.14-0.14-0.21-0.21-0.21-0.28
		c-0.07-0.21-0.07-0.28-0.21-0.42c0-0.07-0.07-0.28-0.07-0.42c0.07-0.35,0-0.56,0-0.84c-0.14-0.07-0.14-0.14-0.21-0.14
		c-0.21-0.14-0.49-0.42-0.56-0.63c-0.14-0.42-0.35-0.7-0.56-0.91c-0.28-0.14-0.35-0.28-0.49-0.42c-0.07-0.07-0.07-0.14-0.14-0.21
		c-0.14,0-0.21-0.14-0.28-0.14c-0.35-0.21-0.49-0.49-0.63-0.77c0-0.07,0-0.21-0.07-0.28c0-0.14-0.14-0.21-0.35-0.42
		c-0.07-0.07-0.14-0.14-0.14-0.35c-0.14-0.14-0.14-0.28-0.21-0.42c-0.07-0.07-0.14-0.21-0.21-0.28c-0.07,0-0.21-0.07-0.21-0.07
		c-0.07-0.07-0.14-0.14-0.21-0.21c-0.07-0.21-0.14-0.42-0.35-0.7c0,0,0-0.07-0.07-0.07c-0.21-0.14-0.49-0.21-0.63-0.42
		c-0.07,0-0.07,0-0.07,0c-0.14,0-0.14,0.07-0.21,0.07c-0.07,0.21-0.14,0.28-0.28,0.28c-0.28,0.07-0.42,0.07-0.77,0.07
		c-0.14,0-0.21-0.07-0.42-0.14s-0.56-0.07-0.77-0.07c-0.14,0-0.35,0-0.42,0c-0.28-0.14-0.35,0-0.49,0.07
		c-0.07,0.07-0.28,0.07-0.35,0.07c-0.21,0-0.49-0.07-0.84-0.07c-0.07,0-0.14-0.07-0.21-0.07c-0.28-0.21-0.56-0.21-0.91-0.14h-0.07
		c-0.28,0.14-0.42,0.14-0.49,0c-0.28-0.14-0.49-0.14-0.84-0.14c-0.07-0.07-0.14-0.07-0.21,0c-0.21,0-0.35,0-0.49,0
		c-0.21,0-0.35,0-0.49-0.07c-0.07,0-0.21,0-0.21,0c-0.28,0.07-0.63,0.07-0.98,0.07c-0.35,0.07-0.77,0.07-1.12,0.14
		c-0.14,0.14-0.42,0.14-0.56,0.14c-0.28,0-0.49,0-0.77-0.21c-0.21-0.07-0.63-0.14-0.84-0.28c-0.21-0.21-0.35-0.28-0.49-0.28
		c-0.42-0.07-0.91-0.14-1.33-0.42c-0.07,0-0.14-0.14-0.28-0.14c-0.14,0-0.21,0-0.28,0c-0.21-0.07-0.35-0.07-0.49-0.07
		c-0.28-0.07-0.49-0.21-0.7-0.28c-0.28-0.14-0.56-0.14-0.84,0c-0.28,0.07-0.42,0.07-0.49,0c-0.35,0-0.7-0.07-0.98-0.14
		c-0.14-0.07-0.21-0.07-0.35,0c-0.07,0.07-0.14,0.07-0.28,0c-0.07,0-0.14,0-0.21,0c-0.42,0-0.77,0-1.12-0.14
		c-0.21-0.14-0.28-0.14-0.42,0c-0.07,0-0.21,0-0.28,0.07c-0.21,0.07-0.42,0.14-0.42,0.42c0,0.35-0.07,0.7-0.07,1.05
		c0,0.07,0,0.14-0.07,0.14c-0.14,0.28-0.14,0.49-0.42,0.84c0,0.14-0.07,0.21-0.14,0.28c-0.07,0.21-0.14,0.28-0.28,0.42
		c-0.07,0.07-0.14,0.28-0.21,0.42c-0.07,0.14-0.14,0.28-0.35,0.49c-0.21,0.14-0.42,0.42-0.7,0.63c-0.07,0.21-0.28,0.28-0.35,0.42
		c-0.14,0.07-0.21,0.28-0.28,0.49c-0.14,0.21-0.21,0.42-0.35,0.56c0,0.14-0.07,0.21-0.07,0.28c-0.07,0.14-0.21,0.35-0.07,0.49
		c0,0.07,0,0.35,0,0.42c0,0.14,0.07,0.14,0.14,0.21c0.07,0,0.14,0,0.21,0c0.28,0.21,0.56,0.28,0.98,0.28c0.28,0,0.49,0.07,0.77,0.07
		c0.14,0.07,0.28,0.14,0.42,0.21c0.07,0.21,0.21,0.28,0.28,0.42c0.21,0.07,0.28,0.21,0.35,0.21c0.21,0.14,0.49,0.35,0.7,0.56
		c0.14,0,0.14,0.07,0.21,0.14c0.14,0.14,0.28,0.28,0.56,0.35c0.07,0,0.14,0.07,0.21,0.07c0,0.07,0.14,0.14,0.14,0.14
		c0.21,0.49,0.49,0.84,0.84,0.98c0.14,0.21,0.28,0.28,0.49,0.28c0.35,0.07,0.77,0.21,0.98,0.42c0.14,0.07,0.14,0.07,0.21,0.07
		c0.14,0.07,0.21,0.14,0.49,0.42c0.07,0.07,0.14,0.14,0.21,0.21c0.07,0,0.21,0,0.28,0c0.14-0.07,0.21-0.21,0.42-0.21
		c0.14-0.21,0.28-0.21,0.56-0.21c0.07,0,0.21,0,0.28,0c0.35-0.07,0.7,0,0.98,0.21c0.14,0.07,0.21,0.07,0.35,0.14
		c0.28,0,0.42,0.07,0.56,0.14c0.28,0,0.49,0,0.7,0c0.14,0,0.21,0.07,0.35,0.21c0.28,0.07,0.42,0.14,0.63,0.28
		c0.07,0.07,0.07,0.07,0.14,0.21c0.14,0,0.21,0.07,0.42,0.14c0.07,0.07,0.14,0.14,0.21,0.21c0.07,0,0.28,0.21,0.35,0.28
		c0.07,0.21,0.21,0.49,0.35,0.63c0.07,0.21,0.07,0.28,0.14,0.35c0.14,0.14,0.21,0.42,0.42,0.63c0.14,0.28,0.49,0.28,0.7,0.35
		c0.07,0.07,0.21,0.14,0.21,0.14c0.07,0.21,0.14,0.28,0.21,0.35c0.14,0.14,0.35,0.35,0.49,0.49c0.07,0.07,0.07,0.21,0.14,0.35
		c0.21,0.35,0.35,0.7,0.7,0.98c0.21,0.21,0.42,0.63,0.49,0.98c0,0.14,0.07,0.28,0.14,0.35c0.07,0.28,0.28,0.42,0.42,0.63
		c0.07,0.21,0.14,0.28,0.14,0.56c0,0.14,0,0.28,0,0.56c0,0.21-0.07,0.49,0,0.91c0,0.07,0,0.14,0,0.28c0,0.35-0.07,0.63-0.07,0.91
		s-0.07,0.42-0.07,0.56c0,0.14-0.07,0.21-0.07,0.28c-0.07,0.07-0.07,0.07-0.21,0.07c-0.14,0.28-0.21,0.56-0.35,0.84
		c0,0.14-0.14,0.28-0.14,0.49c0,0.28-0.14,0.63-0.28,0.91c-0.21,0.07-0.35,0.35-0.35,0.56c0,0.07,0,0.14-0.07,0.21
		c0,0.21,0,0.28-0.14,0.35c-0.14,0.14-0.28,0.35-0.28,0.49c-0.14,0.21-0.21,0.56-0.35,0.84c-0.07,0.07-0.07,0.14,0,0.21
		c0,0,0,0.07,0.14,0.07c0,0.21,0,0.28,0,0.42c0,0-0.14,0.07-0.14,0.14c-0.21,0-0.35,0-0.63,0c-0.21,0-0.42,0.14-0.49,0.35
		c-0.14,0.14-0.42,0.28-0.56,0.49c-0.07,0.07-0.14,0.07-0.14,0.14c-0.28,0.14-0.35,0.28-0.42,0.42c-0.21,0.07-0.21,0.21-0.28,0.28
		c0,0.14-0.07,0.28-0.07,0.42c-0.07,0.14-0.21,0.21-0.42,0.21h-0.07c-0.07,0-0.14,0-0.21,0.07c-0.35,0.28-0.77,0.42-1.12,0.42
		c-0.07,0-0.14,0.07-0.14,0.14c0,0.14,0,0.28,0,0.35c0.07,0.14,0.07,0.35,0.07,0.49c0,0.28,0,0.49-0.07,0.84
		c0,0.21-0.07,0.49-0.07,0.91c0,0.07-0.07,0.14-0.07,0.21c-0.21,0.07-0.28,0.28-0.28,0.42c-0.07,0.14-0.07,0.21-0.07,0.35
		c-0.07,0.14-0.14,0.35-0.35,0.49c-0.07,0.07-0.14,0.07-0.28,0.07c-0.07,0-0.21,0-0.28,0c-0.14,0-0.21,0-0.28,0
		c-0.21,0.14-0.42,0.21-0.7,0.28c-0.14,0-0.21,0.14-0.49,0.21c-0.07,0.07-0.14,0.14-0.21,0.21c-0.07,0.07-0.28,0.21-0.42,0.28
		c-0.14,0.07-0.35,0.14-0.49,0.21c-0.07,0.28-0.14,0.28-0.42,0.28c-0.21,0.07-0.56,0.14-0.84,0.14c-0.07,0-0.14,0-0.21,0.07
		c-0.14,0.07-0.28,0.21-0.49,0.28c-0.28,0.21-0.56,0.42-0.91,0.49c-0.07,0-0.21,0-0.35,0.07c-0.07,0-0.14,0-0.21,0
		c-0.14,0-0.28,0-0.35,0c-0.07-0.07-0.21-0.07-0.42-0.14c-0.07-0.14-0.14-0.21-0.21-0.28c-0.07,0-0.14,0-0.14,0.07
		c-0.14,0.21-0.21,0.35-0.28,0.49c-0.07,0.28-0.21,0.49-0.42,0.7c0,0.07-0.07,0.21-0.14,0.28c-0.14,0.14-0.35,0.35-0.42,0.56
		c-0.07,0.42-0.35,0.77-0.49,1.05c0,0.14-0.07,0.14-0.14,0.14c-0.07,0.07-0.21,0.07-0.21,0.07c-0.21,0-0.28,0.07-0.35,0.07
		c0,0.07,0,0.07-0.14,0.14c0,0.07-0.07,0.07-0.21,0.21c-0.14,0-0.14,0.07-0.21,0.14c0,0.07,0,0.35,0,0.42s0,0.14-0.14,0.21
		c-0.14,0.07-0.28,0.21-0.35,0.28c-0.14,0.07-0.14,0.07-0.14,0.07c-0.07-0.07-0.14-0.07-0.28-0.07c-0.07-0.07-0.21,0-0.07,0.07
		c0,0.14,0,0.35,0,0.49c-0.14,0.07-0.14,0.21-0.21,0.42c0,0.14,0,0.21,0.07,0.42c0.21,0.21,0.35,0.49,0.21,0.7c0,0.07,0,0.14,0,0.28
		c0,0.21-0.07,0.35-0.07,0.56c-0.14,0.21-0.21,0.42-0.21,0.56c-0.07,0.21-0.07,0.42-0.14,0.7c0,0.21,0,0.28-0.07,0.35
		c0,0.14-0.07,0.35-0.28,0.42c-0.07,0.07-0.14,0.14-0.21,0.21c-0.21,0-0.21,0.21-0.28,0.28c0,0.07,0,0.14,0,0.21
		c0,0.28-0.07,0.42-0.07,0.63c0,0.14-0.07,0.28-0.35,0.49c-0.07,0.07-0.14,0.14-0.21,0.28c-0.07,0.21-0.35,0.7-0.42,0.77
		c-0.07,0.07-0.21,0.14-0.35,0.21c0,0.07-0.07,0.21-0.07,0.28c-0.07,0.21-0.07,0.49-0.14,0.77c0,0.14,0,0.21-0.07,0.21
		c-0.07,0.28-0.21,0.63-0.35,0.98c-0.07,0.28-0.14,0.77-0.35,1.19c-0.07,0.28-0.14,0.42-0.21,0.7c0,0.07,0,0.21,0,0.28
		c0.07,0.07,0.07,0.28,0.07,0.35c0.14,0.21,0.28,0.63,0.28,0.98c-0.14,0.35,0,0.56,0,0.84c0,0.28-0.14,0.56,0.07,0.84
		c0,0.28,0,0.35,0,0.49c-0.07,0.28-0.07,0.42-0.07,0.7c0,0.07-0.14,0.14-0.14,0.21c-0.07,0.28-0.14,0.56-0.28,0.84
		c-0.07,0.14-0.07,0.35-0.07,0.49c0.07,0.14,0.07,0.35,0.07,0.49c0.07,0.07,0.07,0.07,0.07,0.21c0.14,0.14,0.14,0.28,0.21,0.35
		c0,0.07,0,0.14,0.14,0.14c0,0.14,0.07,0.14,0.07,0.21c0.07,0.42,0.14,0.7,0.42,1.19c0,0.21,0,0.35,0,0.42
		c-0.14,0.07-0.14,0.14-0.14,0.28c0,0.07,0,0.14,0.14,0.28c0.07,0.42,0.14,0.84,0.07,1.26c0,0.21-0.07,0.42-0.07,0.56
		c0,0.07,0,0.35,0,0.49c0.07,0.07,0.14,0.21,0.21,0.21c0.28,0,0.49,0,0.77,0c0.35,0,0.84,0,1.26,0c0.07,0,0.21,0,0.28,0
		c0.7,0,1.26,0.14,1.96,0c0.35,0,0.77,0,1.19,0c0.49,0,1.05,0,1.61,0c0.77,0,1.4,0,2.1,0c0.7,0,1.33,0,2.1,0
		c0.35-0.07,0.63,0,0.98,0c0.21,0,0.56,0,0.84,0c0.56,0,1.19,0,1.82,0c0.77-0.07,1.61-0.07,2.31-0.07c0.63,0,1.12,0,1.75,0
		c0.07,0,0.07,0,0.21,0c0.63,0,1.4,0,2.1,0c0.77,0,1.47,0,2.24,0c0.07,0,0.14,0,0.21,0c0.7,0,1.33,0.07,1.96,0c0.21,0,0.28,0,0.35,0
		c0.14,0,0.28,0,0.42,0c0.35,0,0.7,0,1.12,0c0.56,0,1.05,0,1.75,0h0.07c0.35,0,0.7,0,1.05,0c0.28,0,0.35,0,0.49,0
		c0.28,0,0.56,0,0.91,0c0.14,0,0.42,0,0.56,0c0.63,0,1.26,0,1.96,0c0.07,0,0.14,0,0.35,0c0.07,0,0.21,0,0.42,0c0.35,0,0.7,0,1.05,0
		c0.14,0,0.28,0,0.49,0s0.56,0,0.91,0c0.21,0,0.49,0,0.77,0c0.21,0,0.42,0,0.56,0c0.28,0,0.49,0,0.84,0c0.14,0,0.35,0,0.63,0
		c0.63,0,1.12-0.07,1.75,0c0.07,0,0.14,0,0.14,0c0.35,0,0.7,0,0.98,0c0.07,0,0.21,0,0.21,0c0.14-0.07,0.21-0.07,0.28-0.07
		c0.07-0.07,0.07-0.07,0.07-0.14c0-0.42,0-0.84,0-1.19c0-0.14,0.14-0.35,0-0.63c0-0.21,0-0.49,0-0.7c0.14-0.28,0.14-0.49,0.14-0.77
		c0-0.14,0-0.42,0-0.56c0.07-0.28,0.07-0.49,0.07-0.77c-0.07-0.35-0.21-0.84-0.21-1.26C534.59,179.71,534.52,179.64,534.52,179.5z"
		/>
	<path d="M560.84,159.69c5.6-1.75,8.96-5.88,8.96-11.13c0-7.91-6.72-13.3-16.03-13.3c-10.64,0-17.08,6.09-17.36,15.12h7.42
		c0.21-5.67,3.71-9.17,9.87-9.17c5.39,0,8.82,2.94,8.82,7.7c0,5.32-4.06,7.98-9.03,7.98h-3.15v6.16h3.08
		c5.81,0,10.22,3.15,10.22,8.61c0,5.67-4.27,9.03-10.43,9.03c-6.37,0-10.15-3.99-10.15-10.01h-7.28c0,9.73,6.65,15.89,17.43,15.89
		c10.36,0,17.71-5.95,17.71-14.49C570.92,165.78,567.14,161.44,560.84,159.69z"/>
</g>
</svg>
