<?xml version="1.0" encoding="utf-8"?>
<!-- Generator: Adobe Illustrator 26.4.1, SVG Export Plug-In . SVG Version: 6.00 Build 0)  -->
<svg version="1.1" id="Ebene_1" xmlns="http://www.w3.org/2000/svg" xmlns:xlink="http://www.w3.org/1999/xlink" x="0px" y="0px"
	 viewBox="0 0 650 195" style="enable-background:new 0 0 650 195;" xml:space="preserve">
<g>
	<path d="M4.97,53.54c0.7,0.35,1.4,0.49,2.1,0.49c0.91,0,1.82-0.21,2.59-0.77c0.35-0.21,0.56-0.07,0.77,0.14
		c0.63,0.42,1.26,0.98,1.89,1.4c0.28,0.28,0.35,0.42,0.21,0.77c-0.42,1.12-0.49,2.24-0.14,3.43c0.35,1.54,1.26,2.73,2.73,3.64
		c1.19,0.56,2.38,0.84,3.64,0.77c0.91,0,1.68-0.35,2.38-0.7c0.7-0.49,1.26-0.84,1.61-1.61c0.07-0.14,0.14-0.35,0.49-0.28
		c0.91,0.28,1.89,0.42,2.8,0.63c0.28,0,0.42,0.14,0.42,0.42c0.21,1.19,0.84,2.17,1.89,2.87c1.4,1.12,3.01,1.33,4.76,1.12
		c1.12-0.28,2.17-0.7,3.15-1.47s1.61-1.68,1.96-2.87c0.35-0.91,0.28-1.82-0.07-2.66c-0.07-0.35-0.07-0.49,0.14-0.7
		c0.63-0.56,1.33-1.19,1.96-1.68c0.28-0.28,0.42-0.35,0.84-0.21c0.77,0.42,1.68,0.56,2.52,0.42c1.96-0.42,3.36-1.47,4.2-3.15
		c0.77-1.33,1.05-2.73,0.84-4.27c-0.14-1.19-0.56-2.31-1.33-3.15c-0.7-0.91-1.68-1.4-2.87-1.54c-0.28-0.07-0.35-0.14-0.35-0.42
		c-0.21-0.91-0.49-1.82-0.77-2.73c0-0.21-0.07-0.21,0.14-0.49c0.7-0.49,1.33-1.19,1.61-2.03c0.49-1.47,0.35-2.87-0.28-4.27
		c-0.84-1.82-2.31-3.08-4.27-3.78c-1.05-0.35-2.24-0.42-3.36-0.07c-0.98,0.42-1.89,0.91-2.45,1.82c-0.21,0.28-0.35,0.21-0.56,0.14
		c-0.7-0.14-1.33-0.49-1.96-0.56c-0.84-0.14-0.98-0.63-1.05-1.33c-0.07-1.26-0.7-2.38-1.61-3.22c-1.19-1.12-2.59-1.75-4.34-1.68
		c-1.54,0.07-2.66,0.84-3.78,1.82c-0.49,0.49-0.84,1.19-1.19,1.82c-0.14,0.14-0.21,0.21-0.49,0.14c-0.49-0.21-1.12-0.42-1.68-0.56
		c-0.91-0.28-0.91-0.28-0.77-1.19c0-0.14,0-0.21,0-0.28c0.07-0.98-0.07-1.89-0.28-2.8c-0.07-0.56-0.35-1.05-0.49-1.47
		c-0.35-0.98-1.05-1.33-2.03-1.33c-1.26-0.07-2.59-0.07-3.92,0c-0.28,0-0.42-0.14-0.49-0.49c0-0.7,0.07-1.33,0.28-1.96
		c0.07-0.07,0.21-0.14,0.28-0.14c0.98,0.07,1.89,0.14,2.87,0.21c0.35,0,0.63,0,0.91,0c1.47-0.07,2.66-0.84,3.15-2.31
		c0.49-1.54,0.56-3.15,0.21-4.69c-0.07-0.42,0.07-0.56,0.28-0.63c0.7-0.28,1.4-0.49,2.1-0.77c0.28-0.14,0.42-0.07,0.63,0.21
		c0.63,1.33,1.75,2.31,2.94,3.08c0.63,0.42,1.26,0.63,2.03,0.63c1.26,0.07,2.24-0.56,3.15-1.33s1.61-1.75,2.17-2.8
		c0.07-0.21,0.14-0.35,0.35-0.28c0.91,0.28,1.68,0.49,2.45,0.77c0.14,0,0.21,0.07,0.21,0.35c-0.14,0.84-0.21,1.68-0.21,2.52
		c0,0.42,0.07,0.7,0.14,1.05c0,0.49,0.07,0.98,0.14,1.4c0.14,0.77,0.63,1.12,1.33,1.26c1.12,0.21,2.31,0.42,3.5,0.7
		c1.05,0.21,1.05,0.21,0.77,1.19c-0.07,0.42-0.07,0.7,0.28,1.05c0.21,0.21,0.49,0.49,0.98,0.49c0.7,0,0.91-0.14,1.05-0.84
		c0.14-0.42,0.28-0.91,0.35-1.47c0-0.21,0.07-0.28,0.28-0.35c1.82-0.7,2.73-2.1,2.87-3.92c0.14-1.47-0.28-2.87-0.91-4.13
		c-1.05-1.68-2.52-2.8-4.34-3.36c-2.03-0.56-3.71,0.07-5.04,1.54c-0.21,0.21-0.35,0.21-0.56,0.14c-0.84-0.21-1.75-0.49-2.66-0.77
		c-0.21-0.07-0.28-0.14-0.35-0.42c0-0.42,0-0.77-0.14-1.19c-0.7-1.89-2.03-3.08-4.06-3.64c-0.91-0.28-1.82-0.35-2.8-0.14
		c-1.54,0.35-2.94,1.05-3.92,2.38c-0.63,0.84-0.98,1.89-0.98,2.94c0,0.35-0.07,0.49-0.35,0.63c-0.84,0.21-1.68,0.56-2.45,0.91
		C16.73,10,16.59,10,16.38,9.86c-0.14-0.21-0.35-0.35-0.56-0.56c-1.4-1.19-3.01-1.54-4.69-0.98c-2.45,0.77-4.06,2.38-4.76,4.83
		c-0.63,2.03-0.35,3.78,1.4,5.18c0.21,0.21,0.28,0.49,0.14,0.84c-0.21,0.84-0.42,1.75-0.21,2.66c0.07,0.49,0,0.84-0.56,0.98
		c-0.07,0-0.07,0.07-0.14,0.14c-1.61,1.26-1.82,2.94-1.47,4.76c0.28,1.89,1.4,3.36,2.94,4.48c0.98,0.77,2.1,1.19,3.36,1.26
		c1.68,0.07,3.08-0.63,4.13-1.96c0.21-0.28,0.35-0.28,0.63-0.14c0.77,0.21,1.61,0.49,2.38,0.7c0.28,0.07,0.42,0.14,0.49,0.42
		c0.07,1.89,0.84,3.43,2.38,4.48c0.77,0.63,1.61,1.05,2.52,1.19c1.96,0.21,3.57-0.42,4.9-1.68c0.42-0.56,0.84-1.19,1.19-1.82
		c0.14-0.28,0.42-0.28,0.63-0.21c0.56,0.07,1.05,0.21,1.54,0.35c0.91,0.35,0.91,0.35,0.91,1.33c0,1.4,0.07,2.73,0.56,4.06
		c0.35,1.05,0.98,1.54,1.96,1.82c1.12,0.28,3.29,0.35,4.41,0.14c0.49-0.14,0.63,0.07,0.7,0.35c0.14,0.63,0.21,1.33,0.49,1.96
		c0.07,0.35,0,0.49-0.35,0.63c-1.47,0.42-2.66,1.4-3.85,2.31c-0.77,0.63-0.98,1.68-0.77,2.66c0.49,1.47,1.12,2.8,1.96,3.99
		c0.14,0.28,0.21,0.49-0.07,0.7c-0.56,0.42-1.05,0.84-1.54,1.33c-0.49,0.28-0.49,0.28-0.84-0.07c-1.05-0.91-2.24-1.68-3.64-2.1
		c-0.63-0.14-1.26-0.28-1.89-0.07c-1.05,0.35-1.75,0.98-2.38,1.89c-0.7,0.84-1.19,1.82-1.54,2.87c-0.14,0.35-0.35,0.49-0.56,0.42
		c-0.63-0.14-1.26-0.35-1.89-0.49c-0.63-0.14-0.63-0.14-0.63-0.77c0.07-1.19-0.07-2.45-0.49-3.57c-0.56-1.19-1.33-2.17-2.66-2.59
		c-1.75-0.42-3.43-0.42-5.04,0.56c-0.42,0.28-0.77,0.56-1.26,0.84c-0.07,0-0.21,0.07-0.21,0.07c-0.7-0.56-1.4-1.05-2.1-1.61
		c-0.21-0.21-0.14-0.49,0-0.7c0.7-1.47,1.19-3.01,1.26-4.69c0-0.21,0.28-0.35,0-0.63c-0.21-0.14-0.42-0.28-0.56-0.35
		c-1.19-0.56-2.24-1.26-3.22-1.96c-0.7-0.49-0.7-0.49-0.28-1.26c0.56-0.77,0.56-1.05,0-1.75c-0.42-0.7-1.12-0.7-1.68-0.07
		c-0.21,0.35-0.49,0.7-0.7,1.12c-0.14,0.28-0.35,0.35-0.7,0.35c-0.42,0-0.84,0-1.19,0.07c-0.98,0.35-1.89,0.84-2.38,1.68
		c-0.7,0.98-1.12,1.96-1.19,3.01c-0.14,1.26,0,2.38,0.49,3.57C2.38,51.44,3.43,52.77,4.97,53.54z M40.46,20.57
		c0,0.07-0.14,0.14-0.21,0.21c-0.07-0.14-0.14-0.21-0.14-0.28c0.07-0.42,0.07-0.77,0.14-1.19c0-0.07,0.14-0.14,0.21-0.14
		c0.07,0,0.21,0.07,0.35,0.14c0,0.07,0,0.28,0,0.35h0.07C40.67,19.94,40.6,20.36,40.46,20.57z M40.53,14.27
		c-0.7-0.56-1.26-1.12-1.54-2.03c-0.07-0.42-0.14-0.91,0.28-1.19c0.35-0.35,0.84-0.35,1.26-0.14c1.12,0.56,1.61,1.4,1.82,2.59
		c0,0.35-0.14,0.77-0.49,0.98C41.3,14.76,40.88,14.48,40.53,14.27z M36.05,9.3c0.42-0.28,0.77-0.49,1.19-0.77
		c0.98-0.42,2.03-0.42,3.01-0.21c1.05,0.28,1.89,0.84,2.66,1.54c1.19,1.05,1.89,2.87,1.89,4.48c0.07,1.05-0.35,2.17-1.05,3.01
		c-0.42,0.49-1.05,0.77-1.68,0.98c-0.07,0-0.07-0.07-0.14-0.07L42,18.19c0.14-0.07,0.35-0.21,0.49-0.35
		c1.4-0.77,1.89-2.87,1.68-4.27c-0.28-1.4-0.98-2.66-2.1-3.57c-1.4-1.19-3.71-1.75-5.32-0.77c-0.14,0.07-0.28,0.28-0.42,0.35
		c-0.14,0.07-0.28,0.07-0.42,0.14C35.98,9.58,35.98,9.37,36.05,9.3z M35,13.99c0.21-0.63,0.98-0.91,1.75-0.56
		c1.26,0.42,2.03,1.33,2.31,2.66c0.21,0.7-0.28,1.4-0.98,1.54c-0.91,0.21-1.75,0-2.59-0.42C35,17,35,16.51,34.93,16.02
		c-0.07-0.28,0-0.63,0-0.84c0,0,0,0,0-0.07C34.93,14.76,34.86,14.41,35,13.99z M31.64,10c0.07-0.07,0.14,0,0.21,0
		c0.14,0,0.28,0.07,0.49,0.07c0.49,0.35,1.12,0.42,1.68,0.56c0.28,0.07,0.28,0.28,0.21,0.49c-0.07,0.07-0.21,0.14-0.35,0.14
		c-0.77-0.21-1.54-0.49-2.45-0.7l-0.07-0.14C31.43,10.28,31.57,10.07,31.64,10z M28.56,12.87c-0.77,0.77-1.61,1.33-2.8,1.33
		c-1.05,0-2.03-0.63-2.66-1.4c-0.49-0.56-0.49-1.47,0.49-2.03c0.63-0.35,1.4-0.49,2.66-0.49c0.56-0.14,1.26,0.07,1.96,0.42
		C29.26,11.19,29.05,12.31,28.56,12.87z M24.29,6.43c0.77-0.49,1.54-0.63,2.45-0.35c0.07,0.07,0.21,0.07,0.35,0.14
		c0.28,0.28,0.63,0.56,0.63,0.98c0.07,0.49-0.28,0.84-0.7,0.98c-0.42,0.21-0.84,0.28-1.33,0.35c-0.49-0.07-0.84-0.14-1.26-0.28
		C23.59,7.83,23.59,6.85,24.29,6.43z M20.58,8.53c-0.14-1.89,1.4-4.06,3.78-4.69c1.96-0.35,3.71,0,5.18,1.26
		c0.84,0.77,1.4,1.68,1.4,2.87c0,0.21,0.07,0.35,0.07,0.56c-0.35-0.07-0.14-0.35-0.21-0.56c-0.42-1.19-1.12-2.17-2.1-2.8
		c-0.84-0.56-1.75-0.84-2.8-0.77c-2.17,0-4.34,0.98-5.04,3.78c-0.07,0.35,0,0.77-0.07,1.12c0,0.07,0,0.07-0.14,0.21
		c0-0.14-0.07-0.14-0.07-0.21C20.58,9.02,20.58,8.81,20.58,8.53z M17.57,11.33c0.91-0.21,1.68-0.56,2.45-0.84
		c0.28-0.14,0.21,0.21,0.49,0.28c-0.21,0.07-0.28,0.14-0.35,0.28c-0.77,0.28-1.54,0.49-2.24,0.84c-0.21,0.14-0.35,0-0.42-0.21
		C17.43,11.54,17.36,11.47,17.57,11.33z M12.32,29.04c0.14,0.56-0.42,1.05-1.05,1.12c-0.35-0.14-0.77-0.21-1.05-0.42
		c-0.84-0.49-1.33-1.19-1.47-2.17c-0.07-0.49,0.56-0.98,0.98-0.91C10.92,26.87,12.04,27.71,12.32,29.04z M9.24,21.06
		c0.07-0.49,0.14-0.98,0.21-1.47c0-0.28,0.14-0.35,0.35-0.35c0.35,0.07,0.28,0.35,0.21,0.56c-0.14,0.49-0.14,0.91-0.21,1.4
		c0,0.14,0,0.35,0,0.49c0,0.28,0,0.42-0.28,0.42c-0.21,0-0.21-0.21-0.21-0.42c0-0.21,0-0.42,0-0.63
		C9.24,21.06,9.24,21.06,9.24,21.06z M10.36,14.69c-0.63-0.07-0.84-0.35-0.91-1.05c0.14-0.42,0.28-0.84,0.56-1.19
		c0.42-0.56,1.05-1.05,1.82-1.05c0.98-0.07,1.26,0.7,0.98,1.33c-0.28,0.91-0.84,1.54-1.75,1.82C10.85,14.62,10.57,14.69,10.36,14.69
		z M16.94,15.18c0.14,1.26-0.35,3.08-2.1,3.57c-0.35,0.07-0.7,0-0.98,0.07c0,0,0,0,0-0.07c-0.28,0-0.49,0.07-0.7,0
		c-0.84,0-1.33-0.7-1.19-1.47c0.56-1.82,1.68-2.8,3.43-3.29C16.03,13.85,16.8,14.41,16.94,15.18z M7.07,15.88
		c-0.35-1.12-0.28-2.17,0.21-3.22c0.42-0.98,0.91-1.75,1.68-2.31c0.77-0.7,1.68-1.19,2.73-1.4c1.26-0.21,2.45,0.07,3.5,0.77
		c0.28,0.14,0.49,0.35,0.7,0.56c0,0.07,0,0.14,0,0.21c-0.07,0-0.07,0-0.14,0c-0.07-0.07-0.14-0.07-0.21-0.14
		c-1.26-1.05-2.73-1.12-4.2-0.63c-2.03,0.7-3.36,2.17-3.85,4.41c-0.07,0.21,0,0.49,0,0.84c-0.14,1.05,0.42,1.89,0.98,2.73
		c0.07,0,0,0.07,0.07,0.14c-0.07,0-0.21,0-0.28,0C7.7,17.35,7.28,16.65,7.07,15.88z M8.12,19.31c0.07-0.07,0.07-0.14,0.14-0.28
		c0.07,0,0.21-0.07,0.28-0.14c0,0.07,0.07,0.21,0.07,0.28c-0.07,0.56-0.28,1.19-0.35,1.75c-0.07,0.35,0,0.63,0,0.98c0,0,0,0,0.07,0
		c-0.07,0.07,0,0.14-0.07,0.21c0,0.07-0.14,0.14-0.21,0.14c0,0,0-0.07,0-0.14C7.84,21.2,7.98,20.29,8.12,19.31z M15.61,30.79
		c-0.49,0.42-0.84,0.91-1.4,1.26c-1.75,0.98-3.57,0.7-5.25-0.42c-1.47-0.91-2.38-2.31-2.73-3.99c0-0.28,0-0.63,0-0.98
		c-0.07-1.26,0.35-2.31,1.33-3.08c0.21-0.14,0.35-0.21,0.49-0.35c0-0.07,0.14,0,0.21,0c-0.07,0-0.07,0.14-0.07,0.21
		c-0.21,0.14-0.35,0.28-0.49,0.49c-0.56,0.56-0.77,1.26-0.91,1.96c-0.14,0.98,0,1.89,0.42,2.87c0.35,0.77,0.84,1.33,1.47,1.89
		c0.63,0.56,1.33,0.91,2.1,1.19c1.68,0.49,3.22,0.21,4.48-1.05c0-0.07,0.14-0.07,0.21-0.14c0.07-0.07,0.14-0.07,0.14-0.07
		C15.61,30.65,15.68,30.72,15.61,30.79z M14.14,27.22c-1.19-0.49-2.17-1.19-2.52-2.52c-0.35-0.91,0.07-1.61,0.98-1.75
		c0.56-0.14,1.26-0.07,1.82,0c0.98,0.14,1.26,0.91,1.47,1.68c0.14,0.42,0.14,0.77,0.28,1.19C16.31,26.94,15.19,27.64,14.14,27.22z
		 M22.68,28.27c0.63-0.7,1.47-1.19,2.45-1.26c1.05-0.07,1.96,0.07,2.73,0.7c0.49,0.49,0.98,0.91,1.4,1.54
		c0.35,0.56,0.14,1.12-0.49,1.47c-0.56,0.35-1.19,0.42-1.75,0.42c-1.12-0.07-2.17-0.28-3.15-0.63c-0.42-0.14-0.77-0.42-1.12-0.7
		C22.33,29.39,22.33,28.76,22.68,28.27z M26.81,33.94c-0.07,0.56-0.21,0.84-0.77,1.12c-0.91,0.28-1.96,0.07-2.59-0.7
		c-0.28-0.35-0.21-0.91,0.07-1.26c0.42-0.35,0.91-0.63,1.47-0.49c0.49,0.07,0.98,0.28,1.4,0.49C26.6,33.24,26.67,33.73,26.81,33.94z
		 M19.53,30.58c-0.77-0.21-1.54-0.49-2.24-0.7c-0.21-0.07-0.35-0.07-0.28-0.35c0.07-0.28,0.21-0.28,0.42-0.21
		c0.7,0.28,1.4,0.42,2.1,0.63c0.14,0.07,0.21,0.21,0.49,0.42C19.74,30.51,19.6,30.58,19.53,30.58z M30.1,34.01
		c-0.21,0.28-0.35,0.56-0.49,0.77c-0.84,1.4-2.03,2.31-3.64,2.59c-0.14,0-0.28,0.07-0.42,0.14c-0.07,0-0.14,0-0.42,0
		c-1.82-0.21-3.43-0.98-4.34-2.87c-0.49-0.77-0.63-1.61-0.56-2.45c0-0.14,0.07-0.21,0.07-0.28c0,0.07,0.07,0.14,0.07,0.21
		c0.21,2.59,1.96,4.2,4.27,4.62c1.54,0.21,2.94-0.14,4.06-1.4c0.42-0.35,0.84-0.91,1.19-1.4c0-0.07,0.14-0.14,0.21-0.14
		C30.1,33.87,30.1,33.94,30.1,34.01z M42,49.55c0,0.56-0.14,0.98-0.42,1.33c-0.63,0.77-1.82,0.49-2.03-0.42
		c-0.21-0.84,0.21-1.89,0.98-2.17c0.56-0.21,1.4,0.28,1.47,0.98C42,49.41,42,49.55,42,49.55z M44.38,48.43
		c0.07-0.35,0.42-0.77,0.7-1.05c0.49-0.56,0.98-0.49,1.47-0.07c0.7,0.7,0.91,1.54,0.98,2.45c0,0.14,0,0.28,0,0.56
		c0.07,1.75-0.7,3.15-2.03,4.2c-0.42,0.42-1.05,0.56-1.54,0.7c-0.35,0.07-0.84-0.42-1.05-0.77c-0.14-0.56-0.07-1.05,0.07-1.54
		C43.4,51.37,43.89,49.9,44.38,48.43z M43.68,43.74c0,0.14,0.07,0.28,0.07,0.49c0.14,0.14,0.14,0.28-0.14,0.28
		c-0.14,0.07-0.35,0.07-0.35-0.21c0-0.07-0.07-0.14-0.07-0.28c-0.28-0.63-0.42-1.33-0.63-2.03c-0.07-0.35,0.07-0.56,0.35-0.63
		c0.07,0.07,0.21,0.14,0.21,0.28C43.33,42.27,43.47,43.04,43.68,43.74z M37.45,36.88c0.84,0,1.68,0.84,1.61,1.61
		c0,0.63-0.56,1.26-1.12,1.19c-0.84,0-1.68-0.63-1.61-1.61C36.33,37.3,36.68,36.88,37.45,36.88z M33.39,34.78
		c-0.77-0.28-1.47-0.49-2.31-0.63c-0.07,0-0.14-0.21-0.21-0.35c0.14,0,0.14,0,0.21,0c0.77,0.21,1.61,0.49,2.45,0.7
		c0.07,0.07,0.07,0.14,0.14,0.21C33.53,34.71,33.46,34.78,33.39,34.78z M33.74,33.59c-0.63-0.21-1.4-0.56-2.17-0.7
		c0,0-0.14,0-0.21,0c-0.07-0.14-0.14-0.28-0.14-0.42c0-0.07,0.14-0.14,0.35-0.21c0.84,0.35,1.68,0.56,2.52,0.77
		c0.07,0.07,0.14,0.35,0.07,0.42C34.16,33.66,34.02,33.66,33.74,33.59z M40.88,41.36c-0.77,0.14-1.54,0.21-2.17,0.35
		c-0.7-0.07-1.33-0.14-1.89-0.21c-1.19-0.07-1.89-0.84-2.31-1.96c-0.14-0.49-0.21-1.05-0.28-1.54c-0.07-0.28-0.14-0.56-0.14-0.91
		c0-0.49,0.07-1.05,0.14-1.61c0-0.07,0.07-0.07,0.07-0.14c0,0.07,0.07,0.07,0.07,0.14c0.07,0.7,0.07,1.47,0.14,2.17
		c0.21,0.63,0.35,1.33,0.63,1.96c0.49,0.98,1.4,1.33,2.38,1.61c1.12,0.14,2.17,0.21,3.29,0c0.07,0,0.21,0.07,0.28,0.07
		C41.02,41.29,40.95,41.36,40.88,41.36z M39.69,36.11c-0.28-0.28-0.77-0.63-1.05-0.98c-0.49-0.49-0.84-0.98-1.26-1.61
		c-0.35-0.77,0.07-1.47,0.91-1.61c1.82-0.28,3.29,0.35,4.41,1.61c0.84,0.91,1.26,1.96,1.4,3.22c-0.07,0.28-0.07,0.7-0.21,0.98
		c-0.21,0.56-0.7,0.77-1.26,0.56c-0.49-0.14-0.84-0.42-1.26-0.7C40.81,37.09,40.25,36.6,39.69,36.11z M41.37,42.48
		c0-0.14-0.07-0.21-0.07-0.28c0-0.07,0.07-0.14,0.14-0.21c0.14,0,0.21,0.07,0.21,0.14c0.07,0.14,0.14,0.21,0.14,0.35
		c0.14,0.7,0.28,1.4,0.56,2.1c-0.14,0.07-0.21,0.07-0.28,0.14L42,44.65c-0.07-0.14-0.14-0.28-0.14-0.35
		C41.86,43.67,41.65,43.04,41.37,42.48z M37.24,49.62c0-0.07,0-0.21,0-0.21c0.07-0.63,0.35-1.26,0.84-1.75
		c0.91-0.84,2.03-1.54,3.22-1.96c0,0,0,0,0.07,0c0.07,0,0.21,0,0.35,0c-0.07,0.07-0.14,0.14-0.28,0.14
		c-0.63,0.42-1.26,0.77-1.96,1.19c-0.84,0.63-1.47,1.47-1.54,2.59c-0.07,0.42,0.07,0.91,0.21,1.33c0.21,0.77,0.63,1.54,0.91,2.31
		c0,0.14,0,0.21,0,0.28c-0.07-0.07-0.14-0.07-0.14-0.07C38.15,52.21,37.45,50.95,37.24,49.62z M37.87,57.4
		c0.7-0.49,1.19-1.05,1.82-1.54c0.07-0.14,0.21-0.14,0.35-0.14c0.14,0,0.21,0.14,0.28,0.28c-0.07,0.07-0.07,0.14-0.14,0.14
		c-0.63,0.63-1.33,1.19-1.96,1.68c-0.14,0.21-0.28,0.28-0.42,0C37.59,57.67,37.59,57.54,37.87,57.4z M36.68,61.88
		c-0.7,1.61-1.82,2.52-3.43,2.8c-0.42,0.07-0.77,0.07-1.19,0.14c-1.05,0-2.03-0.28-2.94-1.12c-0.49-0.56-0.42-1.26,0.28-1.68
		c0.7-0.56,1.47-0.7,2.31-0.91c0.84-0.35,1.75-0.49,2.66-0.7c0.56-0.21,1.19-0.07,1.68,0.07C36.61,60.69,36.96,61.39,36.68,61.88z
		 M30.94,56.9c0.42-0.28,0.98-0.35,1.61-0.14c0.84,0.35,1.05,1.4,0.28,2.03c-0.35,0.21-0.77,0.49-1.4,0.42
		c-0.49,0-1.05-0.21-1.19-0.7C30.03,57.88,30.31,57.25,30.94,56.9z M29.61,55.22c0.63-0.56,1.05-0.7,1.68-0.7
		c1.68-0.07,2.87,0.63,3.92,1.47c0.28,0.14,0.42,0.28,0.63,0.49c0,0.07,0,0.14,0,0.21c0,0-0.07,0-0.14,0
		c-0.42-0.35-0.77-0.56-1.19-0.77c-1.12-0.7-2.45-1.12-3.85-0.7c-0.63,0.21-1.19,0.7-1.75,1.33c-0.63,0.77-1.05,1.54-1.4,2.38
		c0,0.07-0.14,0.14-0.14,0.21C27.3,59.08,27.3,59,27.3,58.94C27.79,57.54,28.35,56.13,29.61,55.22z M24.01,58.87
		c0.21,0,0.42,0.07,0.7,0.07c0.42,0.14,0.98,0.21,1.47,0.28c0.07,0,0.21,0.14,0.28,0.14c-0.07,0.07-0.14,0.21-0.28,0.21
		s-0.21,0-0.35,0c-0.56-0.21-1.19-0.28-1.89-0.42c-0.07-0.07-0.21-0.14-0.28-0.21C23.87,58.87,23.94,58.87,24.01,58.87z
		 M23.38,60.06c0.21,0,0.35,0,0.56,0c0.7,0.14,1.33,0.35,2.03,0.42c0.28,0.07,0.42,0.07,0.35,0.28c0,0.14-0.14,0.21-0.28,0.35
		c-0.07,0-0.21,0-0.28,0c-0.77-0.21-1.61-0.35-2.38-0.56c-0.07,0-0.14-0.14-0.14-0.14C23.24,60.2,23.31,60.06,23.38,60.06z
		 M19.53,57.04c-0.91,0-1.68-0.49-1.96-1.33c-0.21-0.63,0.14-1.26,0.77-1.4c0.56-0.28,1.96,0.21,2.24,1.12
		C20.93,56.27,20.44,57.11,19.53,57.04z M15.19,53.05c0.98-0.7,2.1-1.05,3.36-1.05s2.45,0.35,3.29,1.47
		c0.7,0.77,0.98,1.68,1.12,2.66c0.14,0.35,0.21,0.63,0.21,0.91c0,0.56-0.07,1.05-0.21,1.47c0,0.07,0,0.14-0.07,0.14
		c0,0-0.07-0.07-0.07-0.14c0-0.28,0-0.63,0-0.98c0-1.19-0.28-2.24-0.98-3.15c-0.77-1.19-1.96-1.68-3.29-1.75
		c-1.19-0.14-2.24,0.14-3.29,0.63c-0.07,0.14-0.14,0.14-0.28,0.14C15.05,53.26,15.12,53.12,15.19,53.05z M14.42,57.11
		c0.63-0.07,1.19,0.14,1.75,0.35c1.26,0.63,2.59,1.33,3.5,2.38c0.42,0.49,0.7,0.91,0.49,1.54c-0.28,0.49-0.63,0.63-0.91,0.77
		c-0.49,0.07-0.91,0.14-1.33,0.14c-0.98-0.07-1.96-0.35-2.73-0.91c-1.05-0.77-1.54-1.75-1.75-3.01
		C13.37,57.88,13.93,57.25,14.42,57.11z M12.81,54.03c0.07,0.21,0.14,0.28,0.28,0.35c-0.14,0.14-0.21,0.28-0.28,0.35
		c-0.07,0.07-0.21,0-0.28-0.07c-0.63-0.42-1.19-0.91-1.75-1.4c-0.14,0-0.14-0.07-0.21-0.14c-0.07-0.07-0.28-0.21-0.14-0.42
		c0.21-0.28,0.42-0.21,0.63,0.07C11.62,53.19,12.18,53.61,12.81,54.03z M9.38,43.67c0.63,0.35,1.19,0.77,1.89,1.05
		c0.07,0.07,0.28,0.21,0.35,0.28c0.56,0.28,1.05,0.77,0.91,1.19c-0.07,1.89-0.63,3.22-1.33,4.55c-0.07,0.07-0.14,0.07-0.21,0.14
		c0-0.07,0-0.14,0-0.21c0.28-0.84,0.63-1.68,0.84-2.52c0.07-0.56,0.14-1.19,0.14-1.68c-0.07-0.77-0.56-1.12-1.05-1.47
		c-0.56-0.42-1.12-0.77-1.61-1.19c-0.07,0-0.21-0.14-0.28-0.21C9.24,43.6,9.31,43.6,9.38,43.67z M9.03,45.7
		c0.84,0,1.4,0.49,1.47,1.26c0.07,0.7-0.63,1.47-1.19,1.47c-0.77,0-1.4-0.77-1.4-1.61C7.91,46.26,8.47,45.56,9.03,45.7z M7,41.29
		c0.21-0.42,0.42-0.77,0.77-1.19c0.07-0.07,0.21-0.14,0.35-0.28c0.07,0.21,0.14,0.49,0.07,0.56c-0.21,0.42-0.42,0.84-0.77,1.19
		C7.35,41.71,7.07,41.71,7,41.71C6.65,41.57,6.93,41.36,7,41.29z M2.38,47.03c0.07-0.98,0.28-2.03,1.12-2.8
		c0.49-0.42,1.19-0.42,1.54,0.14c0.21,0.42,0.49,0.98,0.63,1.47c0.56,1.47,1.05,2.94,1.61,4.34c0.14,0.42,0.14,0.77,0.21,1.26
		c0.21,0.77-0.7,1.4-1.68,1.05c-1.54-0.42-2.45-1.54-3.08-2.94C2.45,48.78,2.17,47.87,2.38,47.03z"/>
	<path d="M73.43,60.62c12.18,0,20.3-6.86,21.56-17.64h-7.56c-1.19,6.79-6.23,11.41-14,11.41c-9.31,0-15.89-7.63-15.89-19.67
		c0-11.9,6.51-19.11,15.96-19.11c7.7,0,12.32,4.34,13.44,11.2h7.98C93.88,16.51,85.54,9.3,73.64,9.3
		c-13.58,0-23.87,9.94-23.87,25.41C49.77,50.95,59.22,60.62,73.43,60.62z"/>
	<path d="M110.04,37.16h24.78v4.06c-0.22,0.18-0.44,0.4-0.71,0.7l0.35,0.42c0.09,0.12,0.21,0.25,0.35,0.39V59.5h7.42V48.99
		c0.28,0.26,0.67,0.5,1.25,0.56l0.14,0.35c0.07,0.28,0.35,0.63,0.98,1.4l0.42,0.98l0.49,0.21c0.35,0.14,0.77,0.21,1.47,0.35
		c0.63,0.07,1.26,0,2.1-0.49l0.56-0.63l1.26-0.42l1.19-0.49l0.49-0.07c0.35,0,0.7-0.14,1.26-0.49l1.26-0.98l1.61-0.84l0.49-0.07
		c0.35,0,0.77-0.35,1.33-1.05l1.12,0.07l1.75-0.07l0.77,0.98l0.77,0.42l0.14,0.49c0.07,0.42,0.49,0.63,1.26,0.77l0.21,0.49
		c0.14,0.35,0.35,0.7,0.63,1.05c0.28,0.35,0.7,0.56,1.4,0.63l1.19,0.77l0.35,1.05l0.35,0.35c0.21,0.21,0.7,0.49,1.82,1.05l0.07,0.28
		c0,0.14,0.35,0.56,1.12,1.33l0.91,0.84l0.21,0.28c0.14,0.28,0.49,1.12,2.1,1.33h0.35l0.63,1.12v0.42c0,0.28,0.35,0.56,1.26,0.98
		l1.12,0.77c0.14,0.21,0.56,0.49,1.54,1.12l0.14,0.56c0.07,0.35,0.35,0.42,0.77,0.21c0.35-0.14,0.49-0.49,0.42-0.91
		c0.28,0.14,0.63,0.28,1.12,0.49l0.28,0.35l0.21,0.21l0.07,0.28c0.07,0.35,0.35,0.77,1.05,1.12l0.63,0.63
		c0.28,0.28,0.56,0.42,0.84,0.49l0.14,0.07c0.49,0.49,1.12,0.84,2.17,1.12l0.7,0.84c0.35,0.49,0.77,0.84,1.47,1.33l0.28,0.07
		c0.14,0.07,0.42,0.07,0.63-0.07l0.28-0.21l0.07-0.21c0.07-0.14,0-0.63-0.21-1.54l0.14-0.21l1.82,0.63
		c0.21,0.14,0.63,0.21,1.47,0.28l0.28-0.35c0.21-0.28,0.14-0.77-0.07-1.54l0.28-0.49c0.21-0.42,0.14-0.91-0.14-1.96l-0.35-0.49v-0.7
		c0-0.49-0.21-0.91-0.63-1.33l-0.07-1.54l-0.14-0.7l-0.21-1.33l0.14-0.42c0.07-0.28,0-0.7-0.42-1.75l0.14-0.42
		c0.07-0.35-0.07-0.56-0.42-1.05l-0.21-1.47c0-0.42-0.21-0.98-0.63-1.96c0-0.07-0.07-0.21-0.14-0.28l0.35-0.42
		c0.21-0.21-0.07-0.63-0.77-1.19l0.28-0.49c0.14-0.35,0.07-0.7-0.21-1.33l-0.14-0.28l0.49-1.26l0.07-0.49c0-0.21-0.21-0.49-0.7-0.84
		l0.07-0.28c0.07-0.28,0.07-0.7-0.14-1.4c-0.07-0.49-0.28-0.84-0.7-1.61l-0.28-1.4l-0.21-0.84l-0.35-1.12l0.14-0.49
		c0.07-0.21,0.07-1.26,0.07-1.82c0-0.21,0-0.49-0.07-0.7c-0.21-0.77-0.7-2.1-0.7-2.1V33.1c0-0.35-0.28-0.77-0.77-1.68l-0.42-1.26
		l0.21-0.56c0.14-0.42-0.21-2.52-0.28-2.66l0.14-0.28c0.07-0.21-0.28-0.63-1.05-1.75l-0.07-0.84l-0.21-0.91l0.28-0.42
		c0.14-0.28-0.07-0.84-0.56-1.82l0.28-0.35c0.14-0.21,0-0.63-0.42-1.4l-0.07-0.98c0.07-0.91-0.07-1.47-0.42-2.03l-0.7-1.47
		l0.42-0.84l0.07-0.42c0.07-0.35,0-0.7-0.14-1.61l-0.21-0.77c-0.21-0.91-0.56-1.54-1.26-2.31l-0.21-0.49
		c-0.14-0.35-0.63-0.56-1.4-0.77l-0.7-0.35c-0.49-0.21-1.33-0.42-3.01-0.56h-0.35l-0.42-0.35c-0.28-0.21-0.91-0.21-2.03-0.07
		l-0.63-0.07l-0.98-0.21l-2.66-0.49l-0.35-0.35c-0.28-0.28-0.7-0.21-1.26,0.07c-0.56,0.35-0.91,0.84-1.05,1.47l-0.63,0.35
		c-0.42,0.28-0.7,0.7-0.77,1.47l-0.63,0.49c-0.49,0.42-0.7,0.7-0.7,0.91l-0.7,1.26l-0.49,0.77l-0.56,0.28
		c-0.35,0.21-0.56,0.77-0.49,1.82l-0.98,0.49l-0.28,0.35c-0.21,0.28-0.49,0.77-0.84,1.75l-0.49,0.21c-0.28,0.14-0.35,0.56-0.07,1.05
		l-0.42,0.98c-0.28,0.63-0.21,1.4,0.28,2.24l0.63,1.19c0.07,0.28,0.35,0.63,0.84,1.33l0.07,0.77c0.07,0.49,0.21,0.91,0.7,1.4
		l0.91,1.33c0,0.07,0.07,0.14,0.07,0.21l-0.07,0.07c-0.42-0.07-0.77,0.07-1.05,0.63l-0.84,0.07c-0.63,0.07-1.12,0.28-1.68,0.63
		l-0.49,0.14c-0.42,0.14-0.91,0.35-1.68,0.91l-0.42,0.07c-0.28,0.07-0.77,0.28-1.4,0.91h-0.14c-0.07,0-0.42,0.21-1.05,0.63
		l-1.26,0.77l-1.26,0.35l-0.14,0.63l-0.49-0.07c-0.35,0-0.77,0.07-1.4,0.28c-0.7,0.21-1.19,0.42-1.68,0.77l-1.26,0.84
		c-0.07-0.07-0.56,0.28-1.47,0.91l-0.56-0.07c-0.35,0-0.7,0.28-1.05,0.84l-1.47,0.63c-0.34,0.11-0.6,0.2-0.83,0.3V10.49h-7.42v20.37
		h-24.78V10.49h-7.42v49h7.42V37.16z M174.58,48.57v0.07l0.07,0.91l-0.14-1.05L174.58,48.57z"/>
	<polygon points="205.94,37.65 229.95,37.65 229.95,31.42 205.94,31.42 205.94,16.72 231.21,16.72 231.21,10.49 198.52,10.49 
		198.52,59.5 205.94,59.5 	"/>
	<polygon points="246.33,37.65 270.34,37.65 270.34,31.42 246.33,31.42 246.33,16.72 271.6,16.72 271.6,10.49 238.91,10.49 
		238.91,59.5 246.33,59.5 	"/>
	<path d="M319.34,30.23c-6.58-1.05-7-0.42-0.49,3.22c0.14-0.77,0.42-1.54,0.98-2.1C319.62,30.93,319.42,30.58,319.34,30.23z"/>
	<path d="M297.15,43.53c-0.84-8.19-1.82-8.75-4.13-3.01c0.63,0.56,0.77,2.73,0.77,6.37C295.4,40.66,296.31,39.05,297.15,43.53z"/>
	<path d="M302.26,46.61c-0.77-8.19,0.28-7.63,3.57-0.98c-0.14-0.7-0.28-1.4-0.35-1.96c-5.74-11.55-6.93-11.2-7.91,2.45
		c0.07,0.28,0.07,0.7,0.14,1.05C298.55,37.86,299.53,37.86,302.26,46.61z"/>
	<path d="M293.02,40.52c-0.21-0.28-0.56-0.28-0.91,0c-0.28,1.54-0.7,3.43-1.19,5.67L293.02,40.52z"/>
	<path d="M297.57,46.12c-0.14-1.05-0.28-1.89-0.42-2.59c0.14,1.05,0.21,2.24,0.35,3.57C297.5,46.75,297.57,46.4,297.57,46.12z"/>
	<path d="M288.68,45.49c1.54-2.73,2.59-4.41,3.43-4.97c0.91-5.32,0.14-5.67-3.22-0.84C289.8,39.33,289.73,41.08,288.68,45.49z"/>
	<path d="M286.3,43.53c0.98-1.54,1.82-2.8,2.59-3.85c-0.35,0.14-0.84,0.56-1.47,1.26c-0.42,0.84-0.77,1.68-1.26,2.59H286.3z"/>
	<path d="M311.78,40.94c-0.28,0.21-0.21,0.77-0.07,1.54c-0.35,0.49-0.35,1.47-0.35,2.59V59.5h7.42v-24.5c0-0.56,0-1.05,0.07-1.54
		c-6.86-2.59-6.37-1.96-0.63,1.05c-5.74-3.01-6.51-3.36-0.14,0.56c-7.14-3.71-7.07-3.22-0.84,1.33c-7.84-4.55-9.45-5.04-2.03,2.66
		c-8.12-6.09-9.73-6.37-6.44-0.14C309.26,38.77,310.24,39.54,311.78,40.94z M313.25,39.12c-1.89-1.68-1.68-0.63-0.28,2.24
		c-0.35-0.21-0.56-0.35-0.77-0.42C310.73,37.65,311.29,37.37,313.25,39.12z"/>
	<path d="M319.27,30.02c0,0.07,0,0.14,0.07,0.21c0.21,0.07,0.49,0.07,0.77,0.14C319.83,30.23,319.55,30.16,319.27,30.02z"/>
	<path d="M279.16,43.04V59.5h7.42V45.07c0-0.7,0-1.4-0.28-1.54l-0.42,0.63c0.07-0.21,0.21-0.42,0.28-0.63
		c-0.14,0-0.35,0.14-0.7,0.42c0.14-0.42,0.28-0.77,0.35-1.05c0.63-0.77,1.12-1.4,1.61-1.96c4.2-9.1,2.66-8.4-5.74,0.21
		c7.21-9.03,5.88-8.4-1.89-1.89c6.86-6.86,7.14-7.63-0.91-2.17c0.28,0.56,0.28,1.26,0.28,1.96V43.04z M286.02,41.85
		c0-0.56-0.56-0.21-1.89,1.26c0.91-1.61,1.47-2.73,1.54-3.15C287.14,38.56,287.14,39.19,286.02,41.85z M285.39,38.91
		c0.35-0.28,0.07,0.28-0.98,1.96l-1.26,1.47C284.62,40.17,285.32,39.05,285.39,38.91z"/>
	<path d="M309.96,43.6c-0.77-1.82-1.26-3.08-1.4-3.78c-4.62-5.67-5.67-5.81-3.36,2.03C304.92,38.56,306.25,39.12,309.96,43.6z"/>
	<path d="M308.77,38.91c-0.21,0-0.28,0.35-0.21,0.91c0.77,0.84,1.54,1.89,2.45,3.01C310.1,41.29,309.4,39.96,308.77,38.91z"/>
	<path d="M305.2,41.85c0.07,0.49,0.14,1.12,0.28,1.82l0.84,1.75C305.9,44.09,305.55,42.9,305.2,41.85z"/>
	<path d="M320.04,16.3c-1.19-0.56-1.26-1.4-0.77-2.38c-0.49-0.56-0.49-1.19-0.49-1.75v-1.68h-1.12c-0.49,0-0.98,0-1.19-0.35
		c-4.34,3.99-4.55,5.25,2.45,3.36c-6.51,4.27-6.09,5.53,0.84,5.32C318.85,18.19,319.13,17.35,320.04,16.3z"/>
	<path d="M281.54,5.87c0.42,0.49,0.77,0.91,1.05,1.33c1.33,1.19,2.1,1.75,2.24,1.68C284.41,8.6,283.36,7.62,281.54,5.87z"/>
	<path d="M278.11,14.69c0.07,0.56-0.91,0.77-2.94,0.56c2.17,1.33,3.08,2.31,2.45,2.87C283.29,18.82,283.64,18.12,278.11,14.69z"/>
	<path d="M282.24,5.31c1.89,2.31,2.8,3.5,2.59,3.57C285.53,9.3,284.55,8.04,282.24,5.31z"/>
	<path d="M280.14,7.97l-0.42-0.28c1.89,2.52,1.12,2.66-1.19,1.47c0.63,0.77,0.7,1.12,0.49,1.05
		C285.39,13.92,284.9,12.87,280.14,7.97z"/>
	<path d="M278.46,10c-0.07-0.07-0.21-0.14-0.28-0.14c0.98,0.7,0.91,1.26-0.98,1.12c1.82,1.68,1.89,2.38-0.91,1.75
		c0.7,0.56,1.19,0.98,1.47,1.33C285.67,16.86,285.46,15.74,278.46,10z"/>
	<path d="M282.59,7.2c-0.35-0.35-0.77-0.7-1.26-1.12c2.66,3.5,2.38,4.06,0.07,2.73C285.11,11.33,285.53,10.98,282.59,7.2z"/>
	<path d="M273.77,22.53l1.47,0.21c0.35-0.14,0.7-0.28,0.98-0.35C275.45,22.46,274.68,22.46,273.77,22.53z"/>
	<path d="M279.79,7.62l0.35,0.35c0.49,0.35,0.91,0.56,1.26,0.84C280.91,8.46,280.42,8.04,279.79,7.62z"/>
	<path d="M275.94,13.43c0.77,0.49,1.54,0.91,2.17,1.26c-0.07-0.14-0.14-0.35-0.35-0.63C277.2,13.92,276.57,13.64,275.94,13.43z"/>
	<path d="M278.11,9.72c0.14,0.07,0.21,0.21,0.35,0.28c0.21,0.14,0.42,0.21,0.56,0.21C278.74,10.07,278.39,9.93,278.11,9.72z"/>
	<path d="M278.18,9.86l-0.14-0.14C278.11,9.79,278.11,9.79,278.18,9.86z"/>
	<path d="M314.12,7.97c0.21-0.2,0.43-0.41,0.67-0.63C314.55,7.57,314.32,7.78,314.12,7.97z"/>
	<path d="M316.47,10.07v0.07c0.14-0.07,0.21-0.21,0.35-0.28C316.68,9.93,316.54,10,316.47,10.07z"/>
	<path d="M319.76,18.82c0.07,0.07,0.14,0.14,0.28,0.21l0.63-0.21C320.32,18.82,320.04,18.82,319.76,18.82z"/>
	<path d="M276.85,18.47c-0.63,0.14-1.47,0.28-2.66,0.28c3.57,1.61,4.2,2.66,2.03,3.64C283.71,21.76,283.29,20.78,276.85,18.47z"/>
	<path d="M320.54,22.74c0,0.07,0.07,0.07,0.14,0.14c0.14,0,0.28-0.07,0.42-0.07C320.88,22.81,320.67,22.81,320.54,22.74z"/>
	<path d="M320.81,19.38c-0.28-0.14-0.56-0.21-0.77-0.35c-6.51,2.1-7,3.08,0.49,3.71C318.99,21.69,319.06,20.71,320.81,19.38z"/>
	<path d="M278.88,37.09c-0.21,0.14-0.35,0.28-0.56,0.42C278.53,37.37,278.74,37.23,278.88,37.09z"/>
	<path d="M320.81,27.29l-0.07-0.07c-0.03,0-0.05,0-0.07,0c-1.82-1.61-1.6-2.8,0.49-4.06c-0.21-0.07-0.35-0.21-0.49-0.28
		c-8.53,1.12-8.54,2.03-0.02,4.34c-7.67-0.48-7.38,0.36-1.38,2.81C318.99,28.9,319.34,27.99,320.81,27.29z"/>
	<path d="M278.39,36.46c0.21,0.21,0.35,0.35,0.49,0.63C285.88,31.49,284.97,31.98,278.39,36.46z"/>
	<path d="M312.9,9.58c0.28-0.07,0.98-0.49,2.1-1.26l0.35-0.35C314.09,8.81,313.32,9.37,312.9,9.58z"/>
	<path d="M316.54,9.44c-2.31,0.98-3.29,1.05-1.12-1.4L315,8.32c-3.08,3.29-2.73,3.78,1.47,1.75C316.4,9.93,316.4,9.72,316.54,9.44z"
		/>
	<path d="M314.12,7.97c-1.51,1.44-2.02,2.04-1.22,1.61C312.42,9.76,312.83,9.21,314.12,7.97z"/>
	<path d="M274.47,17.63c0.84,0.28,1.68,0.56,2.38,0.84c0.35-0.07,0.63-0.21,0.77-0.35C276.71,17.98,275.66,17.84,274.47,17.63z"/>
	<path d="M275.87,28.13c-0.21,0-0.42-0.07-0.63-0.07c-0.28,0.07-0.63,0.21-0.98,0.28L275.87,28.13z"/>
	<path d="M274.19,27.92c0.42,0,0.77,0.07,1.05,0.14c10.01-3.01,10.08-3.99,0-5.32c-0.42,0.14-0.98,0.28-1.54,0.42
		C278.46,24.42,278.81,25.68,274.19,27.92z"/>
	<path d="M276.64,31.49c7.07-3.36,7.7-4.34-0.77-3.36C278.39,28.69,278.39,29.74,276.64,31.49z"/>
	<path d="M276.29,31.77c0.14-0.07,0.21-0.21,0.35-0.28c-0.42,0.14-0.84,0.35-1.26,0.56C275.66,31.98,276.01,31.91,276.29,31.77z"/>
	<path d="M277.9,35.2l0.14-0.21c-0.35,0.21-0.63,0.42-0.98,0.63L277.9,35.2z"/>
	<path d="M278.39,36.46c6.51-4.41,7.21-5.25-0.49-1.26c-0.14,0.28-0.35,0.56-0.56,0.91C277.76,36.18,278.11,36.32,278.39,36.46z"/>
	<path d="M278.04,34.99c7.21-5.04,6.37-5.46-1.75-3.22c-0.21,0.21-0.49,0.49-0.77,0.7C278.18,32.47,278.81,33.31,278.04,34.99z"/>
	<path d="M337.33,45.35h21.56l5.39,14.14h8.26l-19.88-49h-8.75l-19.81,49h7.91L337.33,45.35z M346.5,21.13
		c0.63-1.47,1.19-2.94,1.68-4.41c0.49,1.47,0.98,2.87,1.54,4.41l6.86,17.99h-16.87L346.5,21.13z"/>
	<path d="M415.45,10.49h-7.42v28.98c0,10.22-4.06,14.91-11.62,14.91s-11.55-4.76-11.55-14.91V10.49h-7.42v30.03
		c0,13.3,7.07,20.09,18.97,20.09c11.83,0,19.04-6.79,19.04-20.09V10.49z"/>
	<path d="M456.12,42.06c-0.49-2.1-1.4-3.78-2.73-5.04c2.66,0.7,4.76,1.47,6.44,2.31c-0.7-2.03-1.68-3.64-2.87-4.83
		c2.24,0.77,4.2,1.68,5.74,2.73c-1.54-3.85-4.2-6.44-7.21-8.05h7.56c0.21-1.96,0.21-3.85,0.14-5.6h-3.5
		c-0.21-1.26-0.42-2.45-0.63-3.5h-2.73c1.47,1.12,2.31,2.45,2.52,3.5H455c0.91,1.54,0.63,3.43-0.07,5.32
		c-1.4-0.7-2.8-1.19-4.27-1.47l-8.47-1.75c-2.1-0.49-3.71-0.84-4.97-1.19c0.07,1.54,0.28,2.73,0.84,3.71
		c-1.61-0.42-2.87-0.91-3.92-1.33c0.42,2.1,1.26,3.71,2.59,4.97c-2.59-0.7-4.69-1.47-6.3-2.38c0.7,2.03,1.68,3.64,3.01,4.97
		c-2.31-0.77-4.27-1.75-5.88-2.8c2.45,5.88,7.49,8.89,12.18,9.87l7.7,1.68c2.38,0.49,4.2,0.91,5.53,1.26
		c-0.07-1.54-0.28-2.73-0.84-3.78C453.67,41.15,455,41.57,456.12,42.06z"/>
	<path d="M427.7,14.97c-3.29,2.38-5.11,5.39-5.11,8.4c0,3.29,1.75,6.02,4.97,8.26c-0.91-2.31-1.47-5.04-1.47-8.26
		C426.09,20.22,426.65,17.42,427.7,14.97z"/>
	<path d="M430.57,17.07c1.4-0.84,3.15-1.61,5.25-2.17c-0.77,1.05-1.33,2.31-1.68,3.78c1.12-0.56,2.52-1.05,3.99-1.4
		c-0.49,0.98-0.77,2.24-0.84,3.71c1.68-0.49,3.92-0.84,6.86-0.84c3.43,0,5.88,0.35,7.63,1.05c-0.28-1.47-0.77-2.8-1.54-3.85
		c1.68,0.35,3.08,0.91,4.27,1.54c-0.56-1.61-1.19-3.01-2.03-4.13c2.24,0.56,4.13,1.33,5.67,2.24c-0.84-2.17-1.89-3.85-3.15-5.11
		c2.45,0.77,4.55,1.89,6.23,3.22c-2.94-6.86-9.1-10.36-16.8-10.36c-7.98,0-14,3.85-16.73,10.22c1.68-1.19,3.71-2.24,6.02-3.01
		C432.32,13.36,431.27,15.04,430.57,17.07z"/>
	<path d="M421.05,44.37c0.49,3.78,2.38,7.21,5.53,9.8c-1.26-2.73-2.03-6.02-2.17-9.8H421.05z"/>
	<path d="M456.54,46.33c0-0.7-0.84-1.19-3.57-1.89c0.07,0.56,0.07,1.19,0.07,1.89c0,0.91,0,1.75-0.14,2.59
		C455.42,48.15,456.54,47.1,456.54,46.33z"/>
	<path d="M454.86,20.08h1.47c-0.56-0.42-1.12-0.77-1.82-1.19L454.86,20.08z"/>
	<path d="M424.62,38.77c-0.21,1.96-0.28,3.85-0.21,5.6h3.5c0.14,1.26,0.28,2.38,0.49,3.5h1.96c-0.98-1.12-1.47-2.31-1.68-3.5h3.64
		c-0.49-1.61-0.42-3.5,0.21-5.6H424.62z"/>
	<path d="M436.1,48.29c-0.28-1.12-0.49-2.45-0.56-3.92h-3.22C432.88,45.98,434.14,47.38,436.1,48.29z"/>
	<path d="M433.51,50.53c0.63,1.82,1.54,3.36,2.52,4.55c-2.52-0.7-4.69-1.61-6.37-2.73c0.91,2.24,2.1,4.06,3.57,5.46
		c-2.66-0.91-4.83-2.17-6.65-3.64c3.29,7.28,9.94,10.99,18.27,10.99c8.4,0,14.63-3.71,17.57-10.29c-1.68,1.19-3.71,2.24-6.16,3.08
		c1.47-1.4,2.59-3.22,3.29-5.18c-1.4,0.84-3.15,1.61-5.25,2.17c0.77-1.05,1.33-2.31,1.68-3.78c-1.12,0.56-2.52,1.05-4.13,1.47
		c0.63-1.05,0.91-2.31,1.05-3.71c-1.82,0.49-4.41,0.91-7.84,0.91c-3.92,0-6.86-0.56-8.96-1.54c0.42,1.68,1.12,3.08,1.96,4.13
		C436.31,51.93,434.77,51.3,433.51,50.53z"/>
	<path d="M458.15,17c0.35,0.98,0.63,1.96,0.91,3.08h2.52C460.74,18.96,459.62,17.91,458.15,17z"/>
	<path d="M460.04,46.33c0-1.68-1.26-3.08-3.92-4.27c0.28,1.26,0.42,2.66,0.42,4.27c0,1.75-0.14,3.43-0.56,4.83
		C458.64,49.83,460.04,48.01,460.04,46.33z"/>
	<path d="M466.55,23.58c-0.56-3.29-2.38-6.23-5.32-8.47c1.12,2.38,1.75,5.25,1.96,8.47H466.55z"/>
	<path d="M429.66,52.35c-0.49-1.33-0.91-2.8-1.26-4.48h-2.87C426.37,49.55,427.77,51.02,429.66,52.35z"/>
	<path d="M433.51,50.53c-0.35-0.84-0.63-1.68-0.84-2.66h-2.31C431.13,48.85,432.18,49.69,433.51,50.53z"/>
	<path d="M464.17,45.56c0-2.59-1.33-4.55-4.34-6.23c0.56,1.75,0.84,3.78,0.84,6.23c0,2.59-0.35,5.04-1.12,7.21
		C462.7,50.74,464.17,48.15,464.17,45.56z"/>
	<path d="M434.14,18.68c-2.52,1.19-3.92,2.8-3.92,4.06c0,1.68,1.19,2.94,3.92,4.13c-0.28-1.26-0.42-2.59-0.42-4.13
		C433.72,21.27,433.86,19.94,434.14,18.68z"/>
	<path d="M437.29,20.99c-2.38,0.63-3.57,1.47-3.57,1.75c0,0.7,0.77,1.05,3.5,1.75v-1.75C437.22,22.11,437.22,21.55,437.29,20.99z"/>
	<path d="M430.57,17.07c-2.94,1.82-4.48,4.13-4.48,6.3c0,2.38,1.4,4.41,4.34,6.09c-0.56-1.75-0.84-3.78-0.84-6.09
		C429.59,21.06,429.94,18.96,430.57,17.07z"/>
	<path d="M462.42,54.87c3.5-2.59,5.25-5.95,5.25-9.31s-1.75-6.16-4.97-8.33c0.91,2.31,1.47,5.04,1.47,8.33
		C464.17,49.06,463.54,52.21,462.42,54.87z"/>
	<path d="M451.78,21.2c0.14,0.77,0.21,1.54,0.28,2.38H455C454.44,22.6,453.39,21.76,451.78,21.2z"/>
	<polygon points="481.88,37.51 506.1,37.51 506.1,31.21 481.88,31.21 481.88,16.72 507.15,16.72 507.15,10.49 474.46,10.49 
		474.46,59.5 508.06,59.5 508.06,53.19 481.88,53.19 	"/>
	<path d="M524.16,38.63h11.41c6.79,0,9.45,2.31,9.45,9.31V59.5h7.42V46.54c0-6.37-3.22-10.43-8.19-11.27
		c4.48-1.33,9.17-5.53,9.17-11.9c0-8.4-6.23-12.88-15.54-12.88h-21.14v49h7.42V38.63z M524.16,16.72h12.11
		c6.16,0,9.52,2.66,9.52,7.77c0,5.11-3.36,7.84-9.52,7.84h-12.11V16.72z"/>
	<path d="M5.95,73.49v49h7.35v-18.55l3.57-3.71l19.18,22.26h9.94L21.84,95.12l21-21.63h-9.31L16.31,91.41
		c-1.12,1.19-2.17,2.24-3.01,3.29V73.49H5.95z"/>
	<path d="M80.5,90.01l4.34,0.21l5.18-15.12l-7-2.45L77.14,89.8l1.12,0.07l-4.2,3.85l4.76,9.73c2.8,5.67,3.29,10.08,1.68,13.44
		l4.62,4.2l1.26-0.7c3.29-5.11,3.36-11.62-0.42-19.32L80.5,90.01z"/>
	<path d="M77.84,121.45c0.49,0,0.91,0,1.4-0.07l-1.33-0.56L77.84,121.45z"/>
	<path d="M77.98,122.84l-0.21-0.56l-9.1-0.56l9.1-0.56l-2.24-5.81c-1.89,1.4-4.27,2.1-7.14,2.1c-7.56-0.07-11.55-4.83-11.55-14.98
		v-3.85l2.17-1.19l-4.97-24.29l-7.28,1.47l5.18,25.2l-2.52,0.7v3.01c0,9.87,3.85,16.17,10.71,18.76l2.1-0.14
		c1.75,0.7,3.71,1.19,5.88,1.47C71.82,124.04,75.11,123.83,77.98,122.84z"/>
	<polygon points="103.6,73.49 103.6,122.5 136.22,122.5 136.22,116.19 111.02,116.19 111.02,73.49 	"/>
	<path d="M140.14,70.27c-0.07,0-0.21,0.07-0.28,0.14c-0.49,0.42-1.19,0.63-1.68,1.26c-0.07,0.07-0.21,0.14-0.28,0.21
		c-1.19,0.77-2.45,1.26-3.78,1.54c-0.28,0-0.49,0.14-0.77,0.14c-0.35-0.14-0.7-0.21-1.05-0.28c-0.14,0-0.28,0-0.35,0.07
		c-0.21,0.28-0.42,0.49-0.7,0.63c-0.14,0.07-0.14,0.14,0,0.14c0.42,0.28,0.91,0.35,1.33,0.42c0.49,0.07,0.91,0,1.4-0.28
		c0.14-0.21,0.42-0.35,0.56-0.42c0.21-0.14,0.35-0.42,0.63-0.21c0.28,0.14,0.63,0.14,0.91,0.14c0.84,0.07,1.82,0.07,2.66,0.07
		c0,0.07,0,0.07,0,0.07c0.14,0,0.28,0,0.42,0c0.49-0.07,0.91-0.21,1.19-0.56c0.28-0.28,0.56-0.63,0.77-0.91
		c0.42-0.7,0.35-1.47-0.14-2.1C140.77,70.06,140.49,69.85,140.14,70.27z"/>
	<path d="M139.09,74.47c0-0.07,0.07-0.07,0.07-0.14h-0.07c-1.05,0-2.17-0.07-3.22-0.07c-0.14,0-0.28,0-0.35,0
		c-0.35-0.21-0.7,0-0.98,0.14c-0.07,0-0.14,0.14-0.14,0.21c-0.07,0-0.07,0.07-0.07,0.07c-0.28,0-0.28,0-0.42,0.07
		c-0.56,0.35-1.19,0.49-1.75,0.42c-0.56-0.07-1.12-0.35-1.68-0.56c-0.14-0.07-0.21-0.07-0.35,0c-0.28,0-0.42,0-0.63,0.07
		c-0.07,0-0.14,0-0.14,0c0,0.07,0.07,0.14,0.07,0.28c0.07,0.07,0.14,0.07,0.14,0.14c0.63,0.35,1.26,0.7,1.96,0.84
		c0.63,0.14,1.12,0.28,1.75,0.28c0.42,0,0.77,0,1.12-0.07c0.21-0.07,0.42-0.07,0.7-0.14c0.98-0.21,1.89-0.56,2.87-0.84
		C138.32,74.96,138.74,74.68,139.09,74.47z"/>
	<path d="M131.11,69.78c-0.35,0.28-0.84,0.49-1.26,0.7c-0.14,0.07-0.28,0.21-0.35,0.35c-0.42,0.35-0.77,0.63-1.26,0.84
		c-0.98,0.56-2.1,0.84-3.15,1.19c-0.42,0.07-0.7,0.21-0.98,0.49c-0.49,0.7-0.42,1.82,0.49,2.17c0.07,0,0.14,0.07,0.21,0
		c0.35,0,0.7-0.07,1.12-0.14c0.91-0.14,1.96-0.42,2.87-0.84c0.35-0.14,0.7-0.42,1.05-0.63c0.14,0,0.14,0,0.14-0.07h-0.14
		c-0.42,0-0.98-0.07-1.47-0.07c-0.49,0-0.98-0.07-1.54-0.07l-0.07-0.07c-0.63,0-1.19-0.21-1.68,0.28c-0.07,0.07-0.28,0.07-0.42,0.07
		s-0.14-0.14-0.07-0.21c0,0,0.07-0.07,0.07-0.14c0.35-0.21,0.56-0.42,0.77-0.49c0.14-0.07,0.42-0.14,0.49-0.07
		c0.56,0.14,0.98,0.14,1.54,0.21c0.14,0,0.35,0,0.49,0c0.63,0,1.19,0.07,1.82,0.14c0.63,0.14,1.19-0.21,1.68-0.7
		c0.14-0.21,0.28-0.42,0.49-0.77c0.49-0.7,0.35-1.4-0.14-1.96C131.67,69.64,131.46,69.57,131.11,69.78z"/>
	<path d="M169.26,74.54l0.07,0.07c0.63,0.35,1.19,0.63,1.82,0.63c0.49,0,0.91,0.07,1.33,0.14c0.21,0,0.35-0.07,0.63-0.07
		c0.42-0.07,0.56-0.07,1.12-0.35c0,0,0,0.07,0.07,0.07l0.07,0.07c0.49-0.28,0.84-0.49,0.98-0.98c0.07-0.14,0.14-0.28,0.21-0.42
		v-0.14c-0.07-0.14-0.07-0.21-0.14-0.28c-0.07-0.35-0.21-0.7-0.56-0.84c-0.49-0.21-0.84-0.14-1.26-0.07
		c-0.49,0.21-1.12,0.21-1.68,0.21c-0.21-0.07-0.28-0.07-0.49,0.14c-0.07,0.21-0.21,0.35-0.28,0.49c-0.07,0.07-0.21,0.14-0.35,0.35
		c0.21,0,0.35,0.07,0.49,0.14c0,0,0.07,0,0.14,0c0.98,0.14,1.82,0.07,2.52-0.7c0.07-0.14,0.21-0.35,0.35-0.14
		c0.21,0.07-0.07,0.21-0.07,0.35c0,0.07-0.07,0.07-0.07,0.07c-0.28,0.28-0.56,0.49-0.77,0.63c-0.49,0.35-0.84,0.49-1.4,0.49
		c-0.56,0-1.19-0.14-1.68-0.28c-0.07-0.07-0.28-0.07-0.35-0.07c-0.21,0.07-0.42,0.28-0.7,0.35c-0.07,0-0.07,0-0.14,0
		C169.19,74.47,169.19,74.54,169.26,74.54z"/>
	<path d="M160.37,74.96c-0.14,0.07-0.35,0.07-0.42,0.07s-0.14,0-0.07,0.07c0.28,0.14,0.42,0.28,0.63,0.35
		c0.35,0.14,0.63,0.42,0.98,0.42c0.84,0.14,1.61,0.21,2.38,0.21c0.28-0.07,0.49-0.07,0.77-0.14c0.07,0,0.28,0,0.28-0.21
		c0,0,0,0,0.07,0c0,0.21,0.21,0.14,0.35,0.07c1.12-0.35,2.24-0.84,3.29-1.47c0.14-0.07,0.28-0.07,0.28-0.07
		c0.14-0.28,0.35-0.42,0.63-0.56c0.07-0.07,0.07-0.07,0.21-0.28c-0.14,0-0.21,0-0.28,0c-0.7,0.14-1.4,0.21-2.24,0.28
		c-0.42,0-0.91,0-1.47,0.07c-0.28,0.07-0.77,0.07-0.84,0.63h-0.07c-0.07-0.14-0.14-0.07-0.21,0c-0.07,0.07-0.28,0.14-0.42,0.21
		c-0.28,0.14-0.49,0.42-0.84,0.49c-0.7,0.07-1.33,0.07-1.96-0.14C161.07,74.75,160.72,74.68,160.37,74.96z"/>
	<path d="M161.84,74.33c0.07,0,0.14,0.07,0.14,0.07c0.56,0,1.05,0.07,1.54,0c0.35,0,0.7-0.14,0.98-0.49
		c0.21-0.14,0.42-0.35,0.7-0.56c0.14-0.14,0.28-0.21,0.49-0.07c0.21,0,0.35,0.07,0.42,0.07c0.56-0.07,0.98-0.14,1.54-0.14
		c0.49-0.07,0.91-0.07,1.4-0.07c0.21-0.07,0.49-0.07,0.7-0.14c0.56-0.14,0.84-0.49,1.19-0.84c0.28-0.56,0.49-1.05,0.56-1.68
		c-0.07-0.49-0.28-0.98-0.77-1.26c-0.28-0.28-0.28-0.21-0.49,0c-0.42,0.28-0.7,0.56-1.05,0.84c-0.21,0.14-0.35,0.28-0.56,0.42
		c-0.07,0.21-0.14,0.28-0.21,0.35c-0.84,0.77-1.68,1.4-2.73,1.82c-0.98,0.49-1.96,0.91-3.08,0.63c-0.07,0-0.21-0.07-0.28,0.07
		c0,0.21-0.21,0.21-0.35,0.07c-0.07,0-0.14-0.07-0.14-0.07c-0.21-0.21-0.35,0-0.42,0.07c-0.14,0.21,0,0.28,0.07,0.28
		c0.14,0.07,0.21,0.07,0.21,0.14c0.07,0.07,0.14,0.07,0.07,0.14C161.49,74.12,161.7,74.26,161.84,74.33z"/>
	<path d="M147.21,84.69c0-0.21,0-0.56,0.07-0.84c-0.07-0.49-0.42-0.84-0.56-1.33c-0.07-0.07-0.07,0-0.07,0.07
		c-0.28,0.63-0.42,1.26-0.42,1.96c-0.07,0.91,0,1.82,0.28,2.87c0.14,0.77,0.21,1.61,0.35,2.38c0.14,0.98,0.35,1.96,0.56,2.87
		c0.07,0.56,0.14,1.19,0.28,1.75c0,0.14,0,0.35,0.07,0.42c0.07,0.14,0,0.28,0,0.42c0.07,0.28,0.07,0.56,0.21,0.84
		c0.07,0.63,0.14,1.19,0.28,1.68c0.07,0.49,0.14,0.98,0.21,1.4c0,0.42,0.07,0.77,0.21,1.26c0,0.49,0.07,0.91,0.14,1.4
		c0.07,0.56,0.14,1.12,0.21,1.61c0,0.28,0,0.56,0.07,0.77c0.07,0.49,0.14,1.05,0.28,1.61c0.07,0.63,0.07,1.33,0.35,1.96
		c0.35,0.84,0.63,1.75,1.12,2.45c0,0.07,0.07,0.07,0.07,0.07v-0.07c0-0.49,0-0.98-0.07-1.4c0-0.7,0-1.4-0.14-2.1
		c0-0.63,0-1.26-0.07-1.96c0-0.35,0-0.84-0.07-1.26c0-0.91-0.07-1.82-0.14-2.8c0,0,0-0.07,0-0.14c0-0.35-0.07-0.77-0.14-1.19
		c0-0.49-0.07-1.05-0.14-1.54c-0.07-0.49-0.21-1.05-0.35-1.61c-0.07-0.35-0.14-0.84-0.21-1.26c-0.07-0.21-0.35-0.07-0.35-0.21
		c0,0,0.28-0.07,0.21-0.21c-0.28-0.63-0.42-1.26-0.56-1.89c-0.49-1.75-0.91-3.57-1.4-5.32C147.28,86.51,147.07,85.6,147.21,84.69z"
		/>
	<path d="M150.43,115.91c-0.07-0.14-0.07-0.28-0.14-0.35c-0.35-0.7-0.63-1.4-0.56-2.17c0.07-0.21,0.07-0.49,0.07-0.63
		c0.14-0.56,0.28-0.98,0.35-1.47c0.07-0.14,0.14-0.28,0.14-0.42c-0.07-0.42-0.14-0.84-0.35-1.19c0-0.07,0-0.07,0-0.07h-0.07
		c-0.14,0.21-0.21,0.42-0.28,0.7c-0.35,0.63-0.56,1.19-0.63,1.82c-0.07,0.7-0.14,1.33-0.21,2.03c-0.07,0.14,0,0.42,0,0.56
		c0,0.14,0,0.35,0,0.56c0,0.14,0.07,0.35,0.07,0.49c0.35,0.21-0.28,0.28,0,0.35c0,0,0,0,0,0.07c0.07,0.21,0.07,0.49,0.14,0.7
		c0.07,0.63,0.14,1.33,0.28,1.96c0.28,0.7,0.42,1.4,0.63,2.1c0.21,0.42,0.42,0.91,0.56,1.4h0.07c0,0,0,0,0-0.14
		c0.07-0.56,0.07-1.12,0.07-1.75c0.07-0.63,0.07-1.33,0.07-2.03c0.07,0,0.07-0.07,0.07-0.14c0.14-0.7,0.21-1.33-0.14-2.03
		c0-0.14-0.07-0.21-0.21-0.21c-0.14,0-0.07-0.07,0-0.07C150.36,115.91,150.43,115.91,150.43,115.91z"/>
	<path d="M150.29,123.9c0,0,0-0.07-0.07-0.07l-0.07,0.07c-0.42,0.77-0.49,1.61-0.56,2.45c-0.07,0.49,0.14,0.84,0.28,1.33
		c0.07,0.14,0.21,0.28,0.28,0.49c0,0.07-0.07,0.14-0.07,0.21c-0.14,0-0.21,0-0.21-0.07c-0.14-0.07-0.28-0.14-0.28-0.35
		c-0.14-0.28-0.35-0.7-0.42-0.98c-0.14-0.56-0.28-0.98-0.14-1.54c0.14-0.84,0.35-1.82,0.7-2.59c0.07-0.07,0.07-0.14,0.07-0.21
		c-0.14-0.28-0.14-0.7-0.14-1.12c0-0.07-0.07-0.07-0.14,0c0,0-0.07,0.14-0.07,0.21c-0.49,0.63-0.91,1.26-1.05,2.1
		c-0.07,0.42-0.21,0.98-0.28,1.47c-0.07,0.42-0.28,0.91-0.28,1.26c-0.07,0.35,0,0.63,0,0.98c0,0.07,0.14,0.14,0.21,0.14
		c-0.07,0-0.21,0.07-0.28,0.07c0,0,0,0.07,0,0.14c0.07,0.56,0.28,1.12,0.7,1.47c0.28,0.21,0.49,0.28,0.7,0.35
		c0.63-0.07,1.12-0.42,1.26-1.05c0.14-0.28,0.14-0.7,0.14-0.98c0-0.84,0.07-1.68,0.35-2.59c0.07-0.07,0.07-0.14,0-0.21
		C150.57,124.67,150.43,124.25,150.29,123.9z"/>
	<path d="M151.34,110.66c0.21,0.49,0.42,0.98,0.7,1.33c0.42,0.42,0.77,0.7,1.26,0.91c0.28,0.21,0.63,0.21,0.91,0
		c0.42-0.07,0.63-0.35,0.91-0.7c0.14-0.21,0.14-0.49,0-0.77c-0.14-0.21-0.28-0.42-0.42-0.56c-0.21-0.56-0.49-1.05-0.77-1.54
		c-0.07-0.14-0.14-0.28-0.35-0.42c-0.35-0.49-0.56-1.05-0.91-1.61c-0.07-0.21-0.07-0.35-0.14-0.49c-0.07-0.49-0.14-0.84-0.14-1.33
		c-0.07-0.35-0.14-0.84-0.28-1.26c0-0.42-0.07-0.84-0.14-1.19c-0.07-0.63-0.14-1.19-0.28-1.75c0-0.35-0.07-0.84-0.14-1.19
		c-0.21-0.84-0.35-1.61-0.49-2.38c-0.07-0.7-0.14-1.4-0.35-2.03c-0.14-0.98-0.28-1.89-0.49-2.87c-0.07-0.56-0.28-1.19-0.35-1.89
		c-0.14-0.56-0.21-1.12-0.28-1.75c-0.14-0.56-0.21-1.26-0.42-1.89c-0.07-0.56-0.21-1.12-0.21-1.68c0-0.07,0-0.14-0.07-0.21
		c-0.35-0.21-0.63-0.49-0.84-0.77c0-0.07-0.07-0.07-0.21-0.07c0,0.07,0,0.07,0,0.14c0,0.63-0.07,1.33,0.14,2.03
		c0.14,0.7,0.28,1.4,0.42,2.1c0.14,0.63,0.28,1.33,0.42,2.03c0.56,1.68,1.05,3.5,1.54,5.18c0.14,0.77,0.28,1.47,0.49,2.17
		c0.07,0.63,0.07,1.26,0.07,1.96s0.07,1.47,0.14,2.24c0.07,0.84,0.07,1.68,0.14,2.52c0,0.56,0,1.12,0.07,1.68c0,0.98,0,2.03,0,3.15
		C151.34,110.03,151.27,110.38,151.34,110.66z"/>
	<path d="M143.01,73.84c-0.49,0-1.05,0-1.54-0.14c-0.14,0-0.21,0-0.28,0c-0.21,0.21-0.42,0.42-0.7,0.7c-0.07,0.07-0.21,0.14,0,0.21
		c0.63,0.21,1.26,0.35,1.89,0.35c0.28,0,0.63,0,0.84,0c0.14,0,0.21,0.14,0.28,0.35c0,0.14-0.14,0.14-0.28,0.14
		c-0.07,0-0.14,0-0.21,0c-0.98,0.14-1.89,0.07-2.8-0.21c-0.42-0.14-0.77-0.42-1.19-0.14c-0.14,0.07-0.21,0.07-0.35,0.14
		c0.07,0.07,0.14,0.14,0.21,0.28c0.07,0,0.07,0,0.14,0.07c0.49,0.28,0.91,0.56,1.47,0.63c0.42,0.07,0.84,0.28,1.26,0.35
		c0.63,0,1.26,0,1.89,0.07c0.21,0,0.28,0.07,0.35,0.21c0.07,0.28,0.21,0.56,0.35,0.84c0.49,1.19,1.12,2.38,1.82,3.43
		c0.35,0.42,0.56,0.84,0.91,1.26c0.21,0.14,0.35,0.35,0.56,0.63l0.07,0.07c0-0.07,0-0.07,0-0.14c-0.21-1.05-0.42-2.03-0.77-3.08
		c-0.14-0.56-0.21-1.19-0.42-1.82c-0.21-0.42-0.28-0.84-0.84-0.91v-0.14c0.21-0.07,0-0.14,0-0.14c-0.21-0.21-0.42-0.42-0.56-0.7
		c-0.28-0.28-0.49-0.63-0.56-0.98c-0.35-0.91-0.49-1.89-0.49-2.87c0-0.07,0-0.14,0-0.21c-0.21-0.42-0.35-0.7-0.56-1.05
		c-0.07,0-0.07-0.07-0.07-0.07v0.07c-0.21,0.84-0.35,1.61-0.14,2.52C143.29,73.77,143.29,73.84,143.01,73.84z"/>
	<path d="M158.83,127.54c0.07-0.84,0-1.68-0.07-2.52c-0.21-0.84-0.35-1.61-0.63-2.38c0-0.07-0.07-0.14-0.14-0.21
		c-0.14,0.07-0.21,0.14-0.21,0.21c-0.07,0.21-0.07,0.56-0.07,0.77c0,0.14,0,0.21,0,0.42c-0.07,0.35-0.14,0.77-0.14,1.19
		c-0.07,0.35-0.07,0.7-0.07,1.05c-0.14,0.63-0.14,1.19-0.14,1.82c0,0.28,0,0.49,0,0.7c0,0.07-0.07,0.14-0.21,0.28
		c0-0.14-0.07-0.21,0-0.28c0.14-0.14,0-0.35-0.07-0.49c-0.21-0.56-0.07-1.19,0-1.75c0-0.56,0.21-1.12,0.21-1.68
		c0.07-0.63,0.14-1.33,0.14-1.96c0.07-0.14,0.07-0.28,0.14-0.49c0-0.14,0.14-0.21,0.21-0.28c0.21,0.21,0.28,0,0.28-0.07
		c0.49-0.84,0.91-1.89,1.19-2.87c0.28-0.77,0.42-1.54,0.42-2.31c0.07-0.98,0.07-1.82-0.07-2.66c-0.07-0.7-0.14-1.4-0.35-2.03
		c-0.14-0.84-0.42-1.68-0.91-2.38c0-0.07,0-0.28,0-0.35c0.14-0.35,0.42-0.7,0.49-1.05c0.14-0.49,0.35-0.91,0.35-1.4
		c0.07-0.7,0.07-1.47,0.07-2.24c0-0.49,0-0.84-0.07-1.26c0-1.05,0-2.1-0.07-3.15c0-0.63,0-1.33-0.07-1.96v-0.07
		c0-0.56-0.07-1.12-0.14-1.61c0-0.35,0-0.63-0.07-1.05c-0.07-0.63-0.21-1.26-0.28-1.82c0-0.35,0-0.56-0.07-0.91
		c-0.07-0.35-0.14-0.84-0.21-1.26c-0.07-0.56-0.07-1.12-0.21-1.68c-0.07-0.7-0.28-1.33-0.42-1.89c-0.14-0.98-0.28-1.96-0.56-2.87
		c-0.21-0.84-0.49-1.54-0.84-2.17c-0.28-0.84-0.77-1.4-1.33-2.03c-0.07-0.21-0.14-0.28-0.07-0.42c0.07-0.63,0.28-1.26,0.28-1.82
		c0.07-0.56,0.07-1.19,0-1.82c0-0.21,0-0.35-0.14-0.63c0-0.14,0.14-0.21,0.28-0.21c0.77-0.07,1.47-0.14,2.17-0.21
		c0.28-0.14,0.63-0.21,0.84-0.28c0.35-0.21,0.84-0.35,1.26-0.63c0.28-0.21,0.49-0.42,0.84-0.56c0-0.14,0-0.14,0.07-0.21
		c-0.07,0-0.07,0-0.14,0c-0.56,0.07-1.12,0.21-1.68,0.21c-1.12,0-2.38,0.07-3.5,0.07c-0.14,0-0.21,0-0.28,0
		c-0.21,0-0.21-0.21-0.21-0.35c-0.07-0.14,0.07-0.07,0.21-0.07c0.7-0.07,1.4-0.07,2.17-0.07c0.56-0.07,1.05-0.07,1.54-0.07
		c0.63-0.07,1.19-0.07,1.82-0.07c0.49,0,0.77-0.28,1.05-0.49c0.35-0.35,0.63-0.84,0.77-1.33c0.14-0.21,0.21-0.42,0.21-0.63
		c0-0.42-0.28-0.91-0.56-1.26c-0.35-0.35-0.42-0.35-0.77,0c-0.42,0.21-0.77,0.42-1.19,0.77c-0.07,0.07-0.21,0.21-0.28,0.28
		c-0.63,0.7-1.26,1.33-2.24,1.47c-0.49,0.14-1.05,0.21-1.47,0.35c-0.49,0.07-0.98,0.07-1.33,0.14c-0.28,0.07-0.35,0.07-0.42-0.14
		c-0.63-1.61-1.4-3.08-2.59-4.2c0,0-0.14,0-0.14-0.07c0-0.07,0-0.21,0-0.35h0.21c0.35,0,0.77,0,1.12,0.07
		c0.7,0.07,1.4,0.21,2.17,0.35c0.91,0.07,1.75,0.21,2.59,0.35c0.28,0,0.56,0.28,0.7,0.49c0,0,0,0.07,0,0.14c0,0.14,0,0.42,0,0.63
		s0.07,0.49,0.28,0.56c0.35,0.07,0.49,0,0.63-0.28c0.14-0.14,0.35-0.35,0.56-0.49c0.21-0.35,0.56-0.63,0.84-0.84
		c0.56-0.49,0.98-1.05,1.54-1.4c0.28-0.28,0.49-0.35,0.7-0.49h0.07v0.07c-0.07,0.07-0.14,0.07-0.14,0.14c0,0,0,0.07-0.07,0.07
		c0.07,0,0.07,0,0.14,0c0.49-0.28,0.98-0.35,1.47-0.28c1.12,0.14,1.96,0.7,2.8,1.33c0.14,0.14,0.35,0.28,0.21,0.63
		c-0.07,0.14,0,0.28,0,0.42c0,0.28,0.21,0.42,0.35,0.49c0.14,0.14,0.56,0,0.63-0.14c0.35-0.42,0.77-0.84,1.12-1.26
		c0.56-0.63,1.19-1.19,1.75-1.82c0.14-0.14,0.35-0.21,0.63-0.35c0,0,0,0,0.07,0v0.07c-0.14,0.14-0.35,0.28-0.49,0.49v0.07
		c0,0,0.07,0,0.07-0.07c0.14-0.07,0.35-0.28,0.49-0.35c0.35-0.21,0.84-0.35,1.33-0.28c0.21,0.07,0.42,0.07,0.7,0.07
		c0.28-0.07,0.7-0.49,0.7-0.77c0.14-0.7-0.35-1.4-1.05-1.54c-0.42-0.07-0.84-0.07-1.33,0c-0.84,0.21-1.75,0.42-2.52,0.91
		c-0.35,0.14-0.56,0.42-0.84,0.63c0,0-0.07,0.14-0.07,0.21c0,0.07,0.14,0.14,0.21,0.14c0.35-0.07,0.7-0.07,0.98-0.14
		c0.49,0,0.84-0.07,1.33-0.07c0.56-0.07,1.12-0.14,1.61-0.28c0.21-0.07,0.49-0.07,0.7-0.07c0.07,0,0.28,0.07,0.35,0.14
		c0,0-0.35,0.14-0.49,0.14c0,0,0,0,0-0.07c-0.28-0.14-0.56-0.07-0.7,0.07c-0.35,0.28-0.91,0.28-1.33,0.42
		c-0.49,0.07-0.98,0.07-1.54,0.07c0,0-0.07,0-0.14,0c-0.28,0-0.7,0.07-1.12,0.07c-0.14,0-0.28-0.07-0.21-0.28
		c0-0.14-0.07-0.21-0.21-0.21c-0.28-0.14-0.49-0.21-0.7-0.35c-0.77-0.42-1.61-0.56-2.45-0.63c-0.84-0.07-1.68,0-2.52,0.21
		c-1.05,0.28-2.03,0.7-2.87,1.4c-0.14,0.07-0.21,0.07-0.42,0c-0.28-0.14-0.63-0.42-0.91-0.56c-0.28-0.14-0.7-0.28-1.19-0.28
		s-1.12-0.07-1.75-0.07c-1.19,0-2.31-0.07-3.5-0.07c-0.35,0-0.35,0-0.49-0.42c0,0,0-0.07-0.07-0.07c-0.07-0.84-0.21-1.68-0.49-2.52
		c-0.21-0.35-0.42-0.77-0.7-0.98c-0.42-0.28-0.77-0.28-1.19-0.14c-0.28,0.21-0.56,0.56-0.49,0.91c0,0.35,0,0.63,0.07,0.91
		c0,0.21,0.14,0.42,0.14,0.56c0,0.42,0,0.84,0,1.26c0,0.35,0,0.35-0.42,0.35c-0.84,0-1.75-0.07-2.66,0.14c-0.7,0.07-1.4,0-1.96,0
		c-0.21,0-0.28,0-0.35-0.21c-0.21-0.28-0.49-0.49-0.77-0.84c-0.28-0.28-0.77-0.49-1.26-0.28c-0.63,0.14-1.05,0.91-0.91,1.47
		c0.07,0.21,0,0.28-0.21,0.42c-0.28,0.14-0.63,0.28-0.91,0.49c-0.28,0.14-0.42,0.14-0.63-0.07c-0.14,0-0.14,0-0.14,0
		c-1.4-0.98-2.87-1.4-4.55-1.4c-0.56,0-1.05,0.14-1.54,0.21c-0.77,0.21-1.47,0.42-2.17,0.91c-0.21,0.14-0.21,0.14-0.56-0.14
		c-0.98-0.77-2.17-1.26-3.43-1.54c-0.28-0.07-0.7,0-0.98,0.28c-0.28,0.21-0.49,0.49-0.49,0.91c-0.07,0.35,0.07,0.7,0.49,0.91
		c0.21,0.14,0.56,0.35,0.84,0.49c0.77,0.28,1.4,0.91,2.03,1.47c0.14,0.21,0.21,0.28,0.14,0.63c-0.07,0.21-0.14,0.49,0,0.77
		c0.07,0.14,0.14,0.21,0.21,0.21c0.28,0.07,0.49,0.07,0.63-0.14c0.63-0.49,1.19-0.91,1.82-1.4c0.63-0.49,1.26-0.84,1.82-1.26
		c0.21-0.07,0.35-0.21,0.49-0.14c-0.07,0.07-0.21,0.21-0.35,0.28c0,0,0,0.14-0.14,0.14c0.14,0,0.14,0,0.21,0
		c0.21-0.21,0.49-0.28,0.84-0.28c0.56-0.07,0.98,0.07,1.47,0.35c0.77,0.28,1.4,0.84,1.96,1.4c0.14,0.14,0.28,0.28,0.14,0.49
		c-0.07,0.21-0.07,0.35-0.07,0.49c-0.07,0.42,0.28,0.77,0.63,0.63c0.14,0,0.28-0.07,0.35-0.21c0.63-0.63,1.26-1.19,1.96-1.68
		c0.35-0.28,0.84-0.63,1.26-0.91c0.07-0.07,0.14-0.07,0.28,0.07c0.35,0.63,0.84,1.26,1.33,1.89c0.14,0.14,0.35,0.21,0.35,0.35
		c0.07,0.28,0.35,0.35,0.42,0.49c0.14,0.14,0.35,0.28,0.56,0.56c0.07,0,0.07,0,0.14,0.07c0-0.07,0-0.14,0-0.14
		c-0.07-0.21-0.14-0.35-0.21-0.56c-0.42-1.26-0.91-2.52-1.33-3.85c-0.21-0.42-0.42-0.98-0.91-1.26c-0.07-0.07-0.14-0.21-0.21-0.28
		c-0.14-0.14-0.14-0.21-0.07-0.35c0.07,0,0.21,0,0.28,0.07c0.35,0.21,0.63,0.49,0.98,0.7c0.14,0.14,0.28,0.28,0.28,0.56
		c0,0.21,0,0.35,0.07,0.49c0.49,1.47,1.05,2.94,1.54,4.55c0,0.14,0.21,0.21,0.28,0.35c0.35,0.7,1.05,1.12,1.75,1.33
		c0.56,0.21,1.12,0.28,1.68-0.14c0.28-0.42,0.49-0.7,0.42-1.26c0-0.07,0-0.14-0.07-0.21c-0.49-0.56-0.91-1.05-1.4-1.47
		c-0.21-0.28-0.56-0.42-0.84-0.63c-0.49-0.49-0.91-0.91-1.47-1.4c0-0.07-0.07-0.07-0.07-0.14c0.07,0,0.07,0,0.14,0
		c0.63,0,1.19,0,1.68-0.28c0.14,0,0.21,0,0.21,0c0,0.07,0,0.07-0.07,0.21c-0.14,0.14-0.28,0.28-0.21,0.42
		c0.07,0.35,0.21,0.56,0.49,0.7c0.35,0.35,0.77,0.63,1.19,0.91c0.42,0.35,0.91,0.63,1.4,1.05c0.42,0.49,0.98,0.98,1.47,1.54
		c0.14,0.14,0.28,0.42,0.42,0.63c0.07,0,0,0.07,0,0.07h-0.07c-0.14-0.14-0.28-0.28-0.49-0.49h-0.07c0,0,0,0.07,0.07,0.07
		c0.14,0.21,0.28,0.35,0.35,0.49c0.07,0.07,0.14,0.14-0.07,0.14c-0.28,0-0.56,0.07-0.84,0.07c-0.7,0.14-1.4,0.21-2.03,0.28
		c-0.7,0-1.4,0.07-2.1,0.07c-0.07,0-0.14,0-0.14,0c-0.35,0.14-0.63,0-0.91-0.14c-0.21-0.21-0.42-0.42-0.7-0.56c0,0-0.07,0-0.14-0.07
		c0,0.07,0,0.07,0,0.14c0,0.07,0,0.14,0,0.21c0.07,0.63,0.14,1.33,0.42,1.96c0.14,0.56,0.35,0.98,0.91,1.33
		c0.21,0.14,0.42,0.49,0.63,0.7c0.14,0.14,0.21,0.28,0.21,0.63c0,0.14,0,0.28,0,0.42c0.35,1.33,0.7,2.66,1.05,3.99
		c0.07,0.56,0.28,1.05,0.63,1.54c0.35,0.49,0.84,0.7,1.26,0.98c0.28,0.14,0.49,0.21,0.7,0.28c0.7,0.07,1.12-0.35,1.4-0.77
		c0.35-0.49,0.28-0.98-0.14-1.26c-0.14-0.14-0.28-0.42-0.56-0.63c-0.21-0.35-0.49-0.7-0.84-1.05c-0.35-0.42-0.84-0.84-1.26-1.19
		c-0.49-0.7-0.98-1.47-1.54-2.17c-0.21-0.42-0.42-0.77-0.7-1.19c-0.21-0.35-0.14-0.35,0.28-0.35c0.28,0,0.49,0,0.84,0
		c0.14,0,0.28,0,0.28-0.28c0,0,0,0,0.07,0c0,0.21,0.21,0.21,0.28,0.21c0.7-0.07,1.33-0.07,1.96-0.07c0,0,0.14-0.14,0.21-0.14
		c0.42,0,0.84-0.07,1.33-0.07c0.07,0,0.14,0,0.14,0s0.07,0.07,0.07,0.21s0,0.35,0,0.49c-0.14,0.7-0.42,1.33-0.56,1.96
		c-0.07,0.28-0.21,0.49-0.56,0.49c-0.21,0-0.42,0.07-0.63,0.14c-0.35,0.35-0.28,0.84,0.14,1.33c0.49,0.42,1.12,0.91,1.68,1.47
		c0.28,0.21,0.56,0.63,0.84,0.91c0.42,0.42,0.77,0.77,1.12,1.26c0.21,0.21,0.42,0.56,0.49,0.91c0.14,0.07,0,0.14,0,0.14l-0.07-0.07
		c-0.14-0.21-0.28-0.35-0.42-0.63h-0.07v0.07c0.21,0.21,0.35,0.49,0.42,0.7c0.14,0.98,0.49,1.89,0.63,2.73
		c0.21,1.12,0.42,2.1,0.56,3.15c0.07,0.63,0.14,1.33,0.21,2.03c0,0.7,0.07,1.4,0.14,2.1c0,1.12,0,2.17,0.07,3.29
		c0,0.14,0,0.28,0,0.49c0,0.91-0.07,1.89-0.07,2.87c-0.07,0.56-0.07,1.19-0.07,1.89v0.07c-0.07,0.42-0.14,0.77-0.14,1.26
		c-0.07,0.35-0.07,0.63-0.07,0.91c-0.07,0.42-0.14,0.77-0.49,1.05c-0.07,0.07-0.07,0.07-0.14,0.07c-0.14,0-0.28-0.07-0.49-0.07
		c-0.14,0-0.28,0-0.42,0.07c-0.35,0.14-0.49,0.63-0.28,0.91c0.21,0.35,0.35,0.56,0.56,0.77c0.49,0.7,0.98,1.4,1.4,2.17
		c0.49,0.7,0.91,1.47,1.19,2.24c0,0.21,0.07,0.28,0.14,0.42l-0.07,0.07c0,0,0,0-0.07-0.07c-0.07-0.07-0.14-0.21-0.28-0.42
		l-0.07-0.07c0,0.07,0,0.07,0,0.21c0.28,0.42,0.42,0.98,0.42,1.54c-0.07,0.35-0.14,0.77-0.21,1.05c-0.28,1.26-0.91,2.24-1.61,3.29
		c-0.14,0.21-0.35,0.42-0.7,0.21c-0.07,0-0.14,0-0.21,0c-0.35-0.14-0.77,0.14-0.77,0.56c-0.07,0.28,0,0.56,0.14,0.77
		c0.84,1.33,1.68,2.66,2.17,4.13c0.14,0.35,0.35,0.84,0.49,1.26l-0.07,0.14c0,0-0.07,0-0.07-0.14c-0.07-0.14-0.21-0.28-0.28-0.42
		c0,0,0-0.07-0.07-0.07c0,0,0,0.07,0,0.14c0.35,0.84,0.28,1.68-0.07,2.66c-0.14,0.42-0.14,0.98,0.14,1.54
		c0.21,0.28,0.56,0.42,0.98,0.35s0.7-0.42,0.91-0.77C158.76,129.22,158.83,128.38,158.83,127.54z M159.74,66.77
		c0.63,0.07,1.33-0.07,1.96-0.07c0.49,0.07,1.12,0,1.68-0.07c0.35-0.07,0.7-0.14,0.91-0.28c0.49-0.28,0.91-0.21,1.26-0.14
		c0.7,0.21,1.33,0.49,2.03,0.77c0.14,0.14,0.14,0.21,0.07,0.35v0.07c-0.14,0.49-0.14,0.49-0.56,0.14c-0.49-0.35-1.19-0.7-1.82-0.84
		c-0.42-0.07-0.77-0.07-1.19-0.14c-0.07,0-0.21,0.07-0.35,0.14c-0.28,0.21-0.56,0.28-0.91,0.28c-0.98,0-1.89,0.14-2.94,0.14
		c-0.07,0-0.14,0-0.21,0c0,0-0.07-0.14-0.14-0.21C159.6,66.84,159.67,66.77,159.74,66.77z M151.76,66.77c0.07,0,0.07,0,0.07,0
		c0.77,0,1.47,0.07,2.24,0.14c0,0,0.07,0,0.14,0c0.63,0,1.26,0,1.89,0.07c0.63,0.14,1.26,0,1.89,0.35c0.14,0.07,0.28,0.07,0.42,0.21
		c0.35,0.14,0.35,0.28,0.14,0.49c-0.14,0.28-0.14,0.35-0.35,0.14c-0.63-0.21-1.19-0.49-1.82-0.49c-0.56-0.07-1.12-0.14-1.75-0.21
		c-0.42-0.07-0.7-0.07-1.12-0.07c-0.49,0-1.12-0.07-1.75-0.07c-0.07,0-0.21,0-0.21-0.21C151.62,66.77,151.55,66.77,151.76,66.77z
		 M128.87,67.61c-0.07,0.07-0.07,0.21-0.14,0.28c-0.07,0.07,0,0.14-0.14,0.07c-0.7-0.98-1.68-1.47-2.8-1.75
		c-0.21,0-0.21,0-0.07-0.07c0.14-0.21,0.35-0.21,0.56-0.21c0.14,0,0.21,0,0.28,0c0.77,0.21,1.54,0.7,2.24,1.19
		C129.01,67.33,129.01,67.33,128.87,67.61z M137.9,68.17c0,0.07-0.14,0.14-0.14,0.21c-0.07,0.14-0.14,0.14-0.14,0
		c-0.77-0.84-1.68-1.26-2.8-1.54c-0.28-0.07-0.49-0.07-0.77,0.07c-0.14,0.07-0.35,0.21-0.56,0.21c-0.63-0.14-1.33-0.14-2.03-0.21
		c-0.42,0-0.84-0.07-1.19-0.07c-0.07,0-0.14,0-0.14,0c-0.07-0.07-0.14-0.14-0.14-0.14c0-0.07,0.07-0.14,0.07-0.14
		c0.42,0,0.77,0.07,1.12,0.07c0.07,0,0.07,0.07,0.14,0.07c0.91,0,1.75,0,2.59,0.07c0.28,0,0.56-0.07,0.77-0.14
		c0.56-0.21,1.05-0.07,1.47,0.07c0.56,0.21,1.12,0.56,1.54,0.91C138.04,67.82,138.04,67.82,137.9,68.17z M140.98,67.4
		c-0.14,0-0.21,0-0.35,0c-0.49-0.07-0.98-0.07-1.47-0.07c-0.14,0-0.21-0.14-0.28-0.21c0.07,0,0.21-0.21,0.28-0.21
		c0.49,0.28,1.05,0.07,1.61,0.21c0.07,0,0.21,0,0.28,0.07c0.07,0,0.07,0.14,0.07,0.14C141.05,67.4,141.05,67.4,140.98,67.4z
		 M148.19,67.19c-0.35,0-0.56,0-0.84,0v-0.07c-0.56,0.07-1.12,0.14-1.68,0.21c-0.21,0-0.42,0.07-0.7,0.07c-0.07,0-0.14,0-0.21-0.07
		c-0.07,0-0.07-0.07-0.14-0.14c0.07,0,0.07,0,0.14,0c0.56-0.07,1.12-0.07,1.61-0.07c0.63-0.14,1.19-0.14,1.82-0.21
		c0,0,0.07,0.07,0.14,0.07C148.26,67.12,148.26,67.19,148.19,67.19z M150.15,67.47c0,0.14-0.07,0.21-0.28,0.14s-0.35-0.07-0.49-0.14
		c0-0.07,0.07-0.28,0.07-0.49c0.14-0.77,0.21-1.54,0.14-2.31c0-0.56-0.14-0.98-0.21-1.47c0-0.07-0.14-0.07,0-0.14
		c0-0.07,0-0.14,0.07-0.14c0,0,0.07,0,0.14,0.07c0.14,0.21,0.28,0.56,0.35,0.77c0.21,0.49,0.21,0.91,0.28,1.47
		c0,0.21,0.07,0.49,0.07,0.77C150.22,66.49,150.15,66.98,150.15,67.47z M152.04,74.4c-0.7,0.07-1.4,0.07-2.1,0.14
		c-0.35,0-0.77,0.07-1.12,0.14c-0.07,0-0.42,0-0.35,0.35h-0.07c0,0,0-0.07-0.07-0.07c0-0.21,0-0.21-0.14-0.14
		c-0.56,0.14-1.19,0.21-1.68,0.35c-0.28,0-0.28-0.21-0.28-0.35c-0.07-0.14,0-0.14,0.14-0.14c1.26-0.28,2.52-0.56,3.78-0.77
		c0.35-0.07,0.77-0.07,1.12-0.07c0.28,0,0.49,0,0.77,0.07c0.21,0,0.28,0.14,0.28,0.35C152.25,74.4,152.11,74.4,152.04,74.4z
		 M153.93,76.99c0,0.91-0.07,1.68-0.21,2.45c-0.14,0.28-0.21,0.35-0.49,0.21c-0.14-0.07-0.28-0.07-0.42-0.21
		c0-0.07,0.14-0.28,0.21-0.42c0.21-0.7,0.28-1.4,0.35-2.1c0-0.77-0.07-1.47-0.21-2.17c0-0.21-0.07-0.35-0.21-0.49
		c-0.42-0.42-0.49-0.98-0.63-1.4c-0.28-0.63-0.42-1.26-0.56-1.82c-0.21-0.7-0.49-1.4-0.63-2.1c0,0-0.07-0.07-0.07-0.14
		c0.07-0.07,0.07-0.21,0.07-0.28c0.07,0.07,0.21,0.14,0.21,0.21c0.35,0.91,0.56,1.75,0.91,2.73c0.28,1.05,0.49,2.24,1.12,3.22
		C153.79,75.45,154,76.22,153.93,76.99z M157.36,108.28c-0.21-0.07-0.35-0.14-0.49-0.21c-0.21-0.21-0.21-0.21-0.07-0.42
		c0.21-0.7,0.49-1.33,0.56-2.1c0-0.56,0-1.12,0.07-1.68c0.07-1.12,0-2.1,0-3.22c0-0.91,0-1.89-0.07-2.87c0-0.77-0.07-1.47-0.21-2.17
		c0-0.84-0.07-1.61-0.21-2.38c-0.07-1.19-0.28-2.24-0.63-3.29c-0.28-1.05-0.49-2.24-0.77-3.29c-0.14-1.19-0.42-2.24-0.63-3.43
		c-0.14-0.7-0.28-1.4-0.42-2.17c0-0.07,0-0.14,0-0.28c0.07-0.14,0.14-0.14,0.14,0c0.07,0.07,0.14,0.21,0.21,0.28
		c0.07,0.84,0.35,1.68,0.49,2.66c0.14,0.7,0.28,1.47,0.49,2.24c0.14,0.7,0.21,1.4,0.35,2.17c0.14,0.63,0.21,1.26,0.42,1.96
		c0.07,0.35,0.14,0.84,0.21,1.19c0.07,0.63,0.21,1.33,0.35,1.96c0.21,0.77,0.35,1.47,0.42,2.24c0.07,0.49,0.14,0.91,0.21,1.4
		c0,0.49,0.07,0.91,0.21,1.4c0,0.07,0,0.07,0,0.14c0,1.47,0.07,2.87,0.07,4.27c0,0.77,0,1.47,0,2.17c-0.07,1.05-0.07,1.96-0.42,2.8
		c-0.07,0.07-0.07,0.14-0.07,0.14C157.5,108,157.43,108.14,157.36,108.28z M156.38,120.39c0.21-0.14,0.35-0.35,0.42-0.56
		c0.28-0.49,0.56-0.98,0.77-1.47c0.28-0.7,0.49-1.47,0.56-2.24c0.07-0.42,0-0.7-0.14-1.05c-0.28-0.49-0.21-1.05-0.14-1.68
		c0-0.07,0-0.21,0-0.28c0-1.05,0-2.1,0-3.15c0-0.07,0-0.14,0.14-0.21c0-0.14,0.07-0.21,0.07-0.28c0.14,0.07,0.21,0.14,0.21,0.28
		c-0.07,0.14-0.07,0.21-0.07,0.42s0.07,0.42,0.07,0.7c0,0.49,0,1.05,0,1.61c-0.14,0.7-0.07,1.4-0.07,2.1s0.14,1.4,0.21,2.03
		c0,0.14,0.07,0.28,0.07,0.35c-0.07,0.42-0.07,0.7-0.14,0.98c-0.28,0.98-0.7,1.82-1.05,2.66c-0.14,0.07-0.21,0.14-0.21,0.14
		c-0.07,0.21-0.07,0.07-0.14,0.07C156.8,120.67,156.59,120.54,156.38,120.39z M157.15,129.43c-0.07,0.14-0.07,0.21-0.07,0.28
		c0,0.07-0.07,0.14-0.07,0.21c0-0.07-0.07-0.21-0.14-0.28c0-0.07,0-0.07,0-0.21c0.07-0.14,0.07-0.28,0.14-0.42
		c0,0,0.07-0.07,0.14-0.07c0,0,0.14,0.07,0.14,0.14C157.15,129.15,157.15,129.29,157.15,129.43z"/>
	<path d="M153.93,122.36c-0.07-0.28-0.14-0.49-0.35-0.7c-0.28-0.49-0.56-1.05-0.77-1.61c-0.35-0.84-0.7-1.75-0.91-2.59
		c-0.21-0.77-0.28-1.47-0.35-2.24c-0.14-0.63-0.14-1.33,0.07-2.03c0.07-0.07,0-0.28,0-0.28c-0.35-0.28-0.21-0.49-0.07-0.77
		c0.21-0.28,0.21-0.28-0.14-0.49c-0.07-0.14-0.14-0.14-0.14,0.07c-0.07,0.07-0.14,0.21-0.21,0.28c0,0.07-0.07,0.14-0.14,0.07
		c0-0.07,0-0.14-0.07-0.21c0,0,0,0-0.14-0.07c0,0.07,0,0.07,0,0.14c-0.21,0.49-0.28,0.91-0.28,1.47c0,0.42,0,0.7,0,1.12
		c0,0.28,0.07,0.56,0.21,0.91c0.21,0.14,0.28,0.35,0.42,0.63c0.21,0.42,0.35,0.91,0.14,1.47v0.07c-0.07,0.56-0.07,1.05-0.07,1.61
		c-0.07,0.56-0.07,1.19-0.07,1.82c0,0,0,0,0,0.07c-0.07,0.42-0.14,0.84-0.14,1.4c0,0.14,0.07,0.35,0.07,0.63
		c0.14,0.49,0.42,0.91,0.77,1.26c0.21,0.35,0.63,0.56,0.91,0.84c0.14,0.07,0.35,0.14,0.49,0.14c0.56-0.07,0.98-0.35,1.33-0.7
		c0.14-0.35,0.21-0.56,0.07-0.84C154.28,123.33,154.14,122.84,153.93,122.36z"/>
	<path d="M213.99,73.49h-7.42v28.98c0,10.22-4.06,14.91-11.62,14.91c-7.56,0-11.55-4.76-11.55-14.91V73.49h-7.42v30.03
		c0,13.3,7.07,20.09,18.97,20.09c11.83,0,19.04-6.79,19.04-20.09V73.49z"/>
	<path d="M252.98,110.94v11.55h7.42v-12.95c0-6.37-3.22-10.43-8.19-11.27c4.48-1.33,9.17-5.53,9.17-11.9
		c0-8.4-6.23-12.88-15.54-12.88H224.7v49h7.42v-20.86h11.41C250.32,101.63,252.98,103.94,252.98,110.94z M232.12,79.72h12.11
		c6.16,0,9.52,2.66,9.52,7.77c0,5.11-3.36,7.84-9.52,7.84h-12.11V79.72z"/>
	<polygon points="288.68,122.5 288.68,79.72 305.34,79.72 305.34,73.49 264.53,73.49 264.53,79.72 281.26,79.72 281.26,122.5 	"/>
	<path d="M345.87,127.12c-0.28,2.87,2.31,7.56,4.97,7.21c1.26-0.14,2.1-1.68,1.89-3.29c-0.42-2.8-3.43-4.97-3.22-7.56
		c0.14-1.68,1.47-2.31,2.73-2.03c1.26,0.35,2.45,1.19,3.71,1.82c1.26,0.91,2.66,1.26,3.64,0.63c0.77-0.7,1.19-2.1,0.84-3.5
		c-0.28-1.26-1.19-2.52-2.24-2.94c-0.91-0.42-1.82-0.14-2.73,0c-0.91,0.21-1.89,0-2.66-1.05c-0.7-1.05-0.7-2.8-0.21-3.71
		c0.77-1.4,1.47-1.68,3.08-2.17c1.82-0.63,1.96-3.99,1.12-6.3c-0.91-2.45-2.94-6.02-5.11-5.6c-3.64,0.7-2.94,2.66-4.9,0.56
		c-1.68-1.61-1.61-4.83-0.77-6.58c0.91-1.89,2.1-2.52,3.29-4.2c0.91-1.47,1.54-3.36,1.4-5.53c-0.21-2.1-1.26-4.41-2.94-5.53
		c-1.4-1.05-3.43-0.56-3.85,1.4c-0.42,1.47,0,3.85-1.12,5.53c-0.77,1.12-2.66,0.56-3.57-1.05c-1.05-1.54-1.33-3.64-0.98-5.25
		c0.21-1.89,0.84-3.22,1.19-4.83c0.49-1.68,0.77-3.5,0.35-5.04c-0.49-1.68-2.31-3.01-4.06-2.73s-3.29,1.96-3.15,3.78
		c0,1.12,0.49,2.1,0.84,3.64c0.28,1.4,0,3.22-1.05,3.57c-1.05,0.21-2.31-1.33-2.73-3.01c-0.35-1.33,0-2.52,0-3.71
		c0.07-1.47-0.56-3.36-2.03-3.5c-1.4-0.14-2.94,1.4-3.36,2.8c-0.63,1.82-0.42,4.06,0.42,6.3c-0.7,2.03-0.07,4.69-1.61,6.09
		c-1.05,0.98-2.52,0.63-3.29-0.35c-0.84-0.98-1.26-2.31-1.82-3.43c-0.49-1.33-1.33-2.45-2.52-2.59c-0.98,0-2.17,0.63-2.73,1.75
		c-0.56,0.98-0.56,2.38,0,3.29c0.49,0.84,1.33,1.19,2.1,1.68c0.84,0.42,1.54,1.12,1.47,2.24c-0.07,1.12-1.12,2.31-2.1,2.59
		c-1.47,0.42-2.1,0.21-3.64-0.42c-1.82-0.7-3.92,1.4-4.69,3.43c-0.77,2.17-1.26,5.74,0.7,6.79c3.22,1.68,3.85,0,4.13,2.52
		c0.14,0.98-0.14,1.96-0.77,2.73c-1.54,0-3.22,0.98-3.85,2.45c-1.26,0.21-2.31,0.07-3.78,0.42c-1.54,0.42-3.22,1.26-4.41,2.8
		c-1.12,1.54-1.61,3.64-1.05,5.39c0.56,1.54,2.38,2.45,3.92,1.4c0.77-0.42,1.4-1.33,2.31-2.03c-0.56,1.19,0.07,3.08,1.05,3.99
		c0.49,0.42,0.98,0.84,1.47,1.19c-0.28,0.28-0.56,0.56-0.91,0.77c-1.26,1.12-2.59,1.61-3.78,2.45c-1.4,0.77-2.73,1.89-3.36,3.15
		c-0.7,1.61-0.14,3.85,1.33,4.76c1.54,0.91,3.78,0.56,4.9-0.84c0.7-0.91,0.98-1.96,1.61-3.22c0.63-1.05,1.96-2.1,2.94-1.68
		c0.98,0.49,1.05,2.31,0.35,3.64c-0.56,1.12-1.61,1.75-2.31,2.66c-1.05,1.12-1.75,2.94-0.7,4.06c0.98,0.98,3.15,0.84,4.34,0.07
		c2.73-1.75,4.41-5.46,4.2-9.24c0-2.03-1.12-4.06-1.05-5.95c0-0.42,0.07-0.77,0.14-1.12c0.7-0.7,1.4-1.47,2.1-1.75
		c1.19-0.56,2.24-0.35,2.73,1.05c0.42,1.19,0.56,4.83,3.5,3.78c3.08-1.12,0.35-6.44,3.08-6.16c1.4,0.07,1.33,1.89,1.12,3.22
		c-0.14,1.26,0,2.87,0.84,3.29c0.7,0.28,1.54-0.63,1.89-1.61c0.35-1.05,0.42-2.17,0.7-3.29c0.21-1.12,0.91-2.1,1.68-2.1
		c0.91,0.14,1.4,1.33,1.4,2.45c-0.07,1.19-0.42,2.31-0.35,3.43c-0.07,1.19,0.35,2.45,1.19,2.66c0.63,0.14,1.26-0.56,1.75-1.12
		c0.42-0.63,0.84-1.47,1.4-1.89c0.49-0.49,0.98-0.84,1.75,0.07c0.35,0.42,0.91,0.7,1.54,0.7c0,0.21,0,0.35,0.07,0.49
		c0.35,1.26,1.4,1.96,2.31,2.52c0.84,0.42,1.89,0.63,2.66,1.4C345.45,124.53,346.08,125.16,345.87,127.12z M316.33,102.4
		c0.07-0.14,0.14-0.28,0.14-0.42c0.07,0,0.07,0.07,0.07,0.07c0.56,0.91,1.68,1.4,2.1,3.01C317.03,104.78,315.49,104.78,316.33,102.4
		z M337.05,104.64c-0.7,0.56-1.19,1.47-0.98,2.59c0,0.14,0.07,0.21,0.07,0.35c-0.14,0.35-0.42,0.56-0.7,0.7
		c-0.63,0.21-1.4-0.42-1.68-1.26c-0.35-1.26-0.28-1.96-0.07-3.64c0.28-1.89-1.12-3.29-2.38-3.43c-1.33-0.14-3.43,0.42-3.92,2.59
		c-0.7,3.57,0.35,3.71-1.12,4.69c-1.26,0.91-2.59-0.35-3.08-1.89c-0.56-1.47-0.49-2.73-0.84-4.27c0.56-0.14,1.12-0.42,1.47-1.05
		c0.7-1.12,0.14-2.66-0.63-3.29c-0.91-0.77-2.03-0.98-3.01-1.61c-0.98-0.56-1.68-1.82-1.26-3.08c0.56-1.4,2.03-2.03,3.15-1.89
		c1.19,0.21,2.1,0.91,3.29,0.98c1.19,0.28,2.66-0.28,3.22-1.54c0.49-1.05,0.14-2.1-0.21-3.01c-0.42-0.84-1.12-1.54-1.26-2.59
		c-0.21-0.91-0.35-1.68,0.98-2.87c0.14-0.14,0.28-0.21,0.42-0.42c1.19,1.05,2.59,1.96,3.5,3.29c1.33,1.82,2.03,3.85,1.19,5.53
		c-0.7,1.4-3.71,3.78-0.63,8.47c3.29,4.97,5.74-3.15,7.56,1.96c0.56,1.54,0.28,2.52-0.35,3.08c-0.07-0.07-0.21-0.14-0.35-0.21
		c-0.7-0.28-1.47,0.14-1.96,0.91C337.26,104.01,337.19,104.29,337.05,104.64z M344.19,114.86c-0.49,0.35-0.98,0.49-1.54,0.63
		c-0.14-0.7-0.42-1.26-0.91-1.54c-1.33-0.7-3.15,1.26-4.2,0.07c-0.7-0.77-0.56-2.24-0.07-3.29c0.21-0.42,0.42-0.77,0.63-1.12
		c0.28,0.14,0.56,0.21,0.77,0.21c1.19,0,2.17-0.56,3.29-0.7c1.12-0.21,2.59,0.49,3.08,1.89
		C345.8,112.62,345.17,114.23,344.19,114.86z"/>
	<path d="M382.27,102.96h14.63v0.7c0,8.82-5.74,13.72-14.07,13.72c-9.59,0-16.17-7.84-16.17-19.25c0-12.6,6.93-19.53,16.45-19.53
		c6.79,0,11.69,3.92,12.6,9.45h7.77c-1.05-9.17-9.1-15.75-20.44-15.75c-13.51,0-24.08,9.66-24.08,25.83
		c0,14.84,9.03,25.48,23.17,25.48c7.21,0,12.74-3.36,15.33-7.77c-0.14,1.61-0.21,3.22-0.21,4.69v1.96h6.44V96.66h-21.42V102.96z"/>
	<polygon points="413.21,116.19 413.21,122.5 446.81,122.5 446.81,73.49 414.12,73.49 414.12,79.72 439.39,79.72 439.39,94.21 
		415.17,94.21 415.17,100.51 439.39,100.51 439.39,116.19 	"/>
	<path d="M14.91,134.32l-5.32,2.87c0.84,3.78-0.14,7.84-2.38,11.13l2.73,7.28c2.24-2.52,3.5-5.67,3.71-8.75
		c0.56,1.33,1.19,2.52,1.89,3.85l2.17,4.13l-6.02,2.31l3.29,17.78l-2.59,3.15l3.71,8.4l6.51-2.94l-4.06-9.17l3.15-2.38l-3.22-17.29
		l5.11-4.06L14.91,134.32z"/>
	<path d="M2.59,146.22l-2.03,6.65c1.47,0.35,2.87,0.49,4.27,0.42l3.29-7.07C6.3,146.5,4.41,146.5,2.59,146.22z"/>
	<path d="M47.95,152.66c-5.11,0-9.24,2.38-11.69,5.53c0.28-1.05,0.42-2.31,0.56-3.36l1.61-11.69h22.12v-6.65H33.04l-3.64,28h7
		c1.26-2.94,4.97-5.95,9.73-5.95c6.37,0,9.87,4.69,9.87,10.92c0,6.86-4.13,11.27-10.57,11.27c-5.95,0-9.45-3.64-9.52-8.68h-7.28
		c0.07,8.47,6.51,14.56,17.01,14.56c10.36,0,17.64-6.86,17.64-17.43C63.28,159.87,57.05,152.66,47.95,152.66z"/>
	<rect x="69.58" y="176.53" width="8.96" height="8.96"/>
	<rect x="89.74" y="158.12" width="30.52" height="6.44"/>
	<path d="M130.97,146.78v6.93c5.11-0.21,9.31-3.08,11.62-6.79c-0.14,1.4-0.14,2.8-0.14,4.27v34.3h7.14v-49h-6.02
		C142.1,141.88,136.92,146.01,130.97,146.78z"/>
	<path d="M166.74,136.98l-0.14,0.07c0,0-0.07,0-0.07,0.07l0.25-0.15C166.77,136.98,166.76,136.98,166.74,136.98z"/>
	<path d="M199.99,184.03c0.06-0.06,0.11-0.07,0.13-0.12l-0.34,0.19L199.99,184.03z"/>
	<path d="M166.78,136.97c0.02,0,0.04-0.02,0.06-0.04L166.78,136.97z"/>
	<path d="M163.1,145.87c-0.07,0.07-0.07,0.07-0.14,0.07l-0.28,0.21l0.52-0.32L163.1,145.87z"/>
	<path d="M166.46,136.35l-0.28,0.14c-0.07,0.07-0.14,0.07-0.14,0.14l0.45-0.28H166.46z"/>
	<path d="M200.13,159.94c-0.07,0-0.07,0.07-0.14,0.07L200.13,159.94z"/>
	<polygon points="199.92,160.08 199.99,160.01 199.8,160.12 	"/>
	<path d="M177.59,150.84l0.14,0.07c0.49,0.84,0.7,1.61,0.84,2.31c0.77-0.42,1.89-0.7,2.94-0.77c0.98,0,1.96,0.28,2.73,0.63
		l0.84-0.49c0-0.63,0.14-1.19,0.35-1.89c0.35-0.63,0.63-1.19,0.91-1.54c-0.77-0.28-1.4-0.63-2.17-1.19c-0.7-0.63-1.19-1.33-1.4-2.24
		l-0.84,0.49c-0.35,0.35-0.7,0.7-1.12,0.91l-0.49,0.28c-0.84,0.28-1.75,0.42-2.31,0.28l-0.84,0.49c0.28,0.84,0.42,1.47,0.42,2.38
		V150.84z M182.42,151.96c-1.12,0.07-2.24,0.35-3.01,0.77l-0.14-0.56c0.7-0.21,1.47-0.35,2.24-0.42c0.63,0,1.26,0.14,1.82,0.28
		C183.05,151.96,182.7,151.96,182.42,151.96z M184.31,152.31l-0.7-0.21l0.84-0.49C184.38,151.82,184.38,152.1,184.31,152.31z
		 M184.8,150.42l0.49-0.84c0.07,0.07,0.14,0.07,0.21,0.07c-0.28,0.35-0.56,0.91-0.91,1.54L184.8,150.42z M182.91,149.02
		c0.56,0.42,1.05,0.7,1.54,0.98l-0.49,0.91c-0.07,0.14-0.14,0.35-0.14,0.49c-0.49-0.07-0.98-0.14-1.47-0.14
		c-0.84,0.07-1.75,0.21-2.45,0.49c-0.14-0.56-0.35-1.19-0.77-1.75c0-0.42,0-0.84-0.07-1.26l0.63-0.21c0.35-0.14,0.7-0.35,1.12-0.49
		l0.84-0.49v-0.07C181.93,148.04,182.42,148.6,182.91,149.02z M179.41,147.9l1.05-0.49l0.84-0.49l0.63-0.42
		c0.07,0.21,0.21,0.42,0.28,0.63l-0.63,0.35l-0.42,0.28c-0.21,0.14-0.42,0.21-0.63,0.28c-0.49,0.21-1.05,0.35-1.54,0.35l-0.63,0.42
		l-0.14-0.63C178.57,148.18,179.06,148.04,179.41,147.9z"/>
	<path d="M166.85,136.94l0.07-0.04c-0.01,0.01-0.03,0.01-0.04,0.01C166.86,136.93,166.86,136.93,166.85,136.94z"/>
	<path d="M205.18,168.97c0-0.7-0.14-1.33-0.35-2.03c-0.91-2.8-3.64-4.55-6.51-4.41c0.07-0.28,0.07-0.63,0.07-0.84v-0.84
		c0.35-0.14,0.77-0.35,1.12-0.56l0.3-0.17l-0.09,0.03c-0.42,0.21-0.91,0.35-1.4,0.42l-0.63,0.35l-0.14-0.56
		c0.56-0.14,1.12-0.35,1.61-0.63l0.91-0.49c0.91-0.56,1.75-1.47,2.24-2.59l0.35-0.98c-0.14,0.63-0.35,1.19-0.56,1.75
		c-0.42,1.05-1.12,1.89-1.96,2.52l0.21-0.14c1.12-0.63,2.03-1.61,2.59-2.87c0.35-0.84,0.63-1.75,0.63-2.66
		c0-2.03-0.98-3.92-2.59-5.11c1.33-1.19,2.1-2.94,2.17-4.76c0-1.05-0.21-2.03-0.77-3.01c-1.4-2.66-4.27-3.85-7.07-3.22
		c0-2.66-1.61-5.18-4.27-6.09c-1.89-0.63-3.78-0.35-5.32,0.56l-0.84,0.49c-0.28,0.14-0.56,0.35-0.84,0.56
		c-1.33-1.89-3.71-3.01-6.16-2.66c-0.77,0.14-1.54,0.42-2.17,0.77l-0.84,0.49c-1.4,0.77-2.38,2.03-2.87,3.43
		c-1.82-0.63-3.78-0.42-5.39,0.56l-0.11,0.07h0.04c1.4-0.56,2.94-0.7,4.41-0.21c-1.33-0.28-2.73,0-3.92,0.7l-0.1,0.06
		c1.74-0.68,3.82-0.47,5.35,0.71l0.91-0.49c0.07-1.75,0.98-3.43,2.38-4.41c0.49-0.28,0.98-0.42,1.54-0.49
		c2.66-0.35,5.11,1.05,6.16,3.36l0.84-0.49c0.42-0.63,0.91-1.19,1.54-1.61c1.33-0.63,2.8-0.77,4.34-0.28
		c2.38,0.84,3.78,3.01,3.78,5.46v0.98c2.8-1.12,5.74-0.07,7.14,2.59c0.56,0.91,0.7,1.68,0.7,2.66c-0.07,1.96-0.98,3.71-2.73,4.76
		c1.96,1.12,3.15,3.01,3.15,5.11c0,0.77-0.21,1.54-0.56,2.38c-0.42,0.98-1.05,1.75-1.89,2.31c-0.63,0.28-1.33,0.49-2.03,0.49
		l-0.84,0.49c0.07,0.7,0.14,1.19,0.14,1.75c0,0.42-0.14,1.19-0.21,1.68c2.94-0.63,5.74,0.98,6.65,3.78c0.21,0.7,0.35,1.19,0.35,1.82
		c0,1.75-0.84,3.5-2.31,4.55c-0.14,0.07-0.28,0.14-0.42,0.14l-0.84,0.49c1.54,1.19,2.31,2.87,2.31,4.69c0,0.98-0.14,2.03-0.7,2.87
		c-0.35,0.7-0.91,1.26-1.54,1.68c0,0.01-0.01,0.02-0.01,0.02l0.29-0.16c0.84-0.42,1.54-1.12,2.1-2.03c0.21-0.28,0.28-0.49,0.42-0.77
		c-0.14,0.56-0.35,1.12-0.63,1.61c-0.56,0.84-1.19,1.54-1.96,2.03c-1.33,0.63-2.94,0.84-4.41,0.42v-0.07
		c1.26,0.21,2.52-0.07,3.64-0.7l0.21-0.14c-1.4,0.56-3.08,0.63-4.55-0.07l-0.84,0.49v0.77c0,1.89-0.84,3.57-2.38,4.62
		c-2.8,1.4-5.74,0.28-7.28-2.03l-0.91,0.49c-0.42,0.98-1.12,1.89-2.03,2.52c-0.7,0.35-1.54,0.49-2.38,0.49h-0.56
		c-2.66-0.35-4.69-2.31-5.11-4.97l-0.91,0.49l-0.56,0.49c-1.89,0.91-4.13,0.7-5.81-0.7c-1.54-1.19-2.24-2.8-2.24-4.55
		c0-1.05,0.28-2.1,1.05-3.08c-3.01-0.21-5.39-2.45-5.53-5.46v-0.28c0-1.96,0.91-3.64,2.38-4.62c0.56-0.28,1.12-0.49,1.75-0.56
		l0.91-0.49c-0.98-0.98-1.33-2.24-1.33-3.5c0-1.75,0.7-3.43,2.24-4.55l0.07-0.07l-0.42,0.21c-1.26,0.7-2.03,1.75-2.38,2.87
		c0.28-1.19,0.84-2.31,1.75-3.15l0.98-0.77l0.21-0.07c-0.07,0.28-0.14,0.56-0.14,0.91l0.84-0.49c0.07-0.77,0.14-1.4,0.42-2.24
		c-3.08,0.28-5.67-1.89-6.09-4.97c0-0.21-0.07-0.49-0.07-0.63c0-1.89,0.98-3.57,2.38-4.62c0.49-0.21,0.98-0.35,1.47-0.42l0.84-0.49
		c-0.91-1.19-1.54-2.59-1.54-3.85c0-1.47,0.63-2.8,1.68-3.99c0.28-0.28,0.56-0.49,0.84-0.7l-0.42,0.21
		c-0.42,0.21-0.84,0.56-1.26,0.98c-0.63,0.7-1.12,1.47-1.4,2.24c0.28-1.19,0.84-2.31,1.75-3.22c0.21-0.21,0.49-0.49,0.84-0.7
		l-0.28,0.14c-0.49,0.28-0.98,0.63-1.4,1.05c-1.19,1.26-1.89,2.87-1.89,4.48c0,1.05,0.42,2.24,1.05,3.36l-0.14,0.07l-0.18,0.11
		l0.32-0.11l0.63-0.35c0.14,0.21,0.28,0.35,0.35,0.56l-0.84,0.35l-0.84,0.49c-1.19,0.7-2.03,1.82-2.52,3.15
		c0.35-1.54,1.19-2.87,2.38-3.78l-0.14,0.07c-1.89,1.05-3.22,3.22-3.22,5.46l0.07,0.7c0.42,3.15,2.87,5.46,5.88,5.67
		c-0.07,0.35-0.14,0.63-0.14,0.98l-0.14,0.07c-0.42,0.28-0.7,0.56-1.12,0.84c-1.33,1.26-1.96,3.01-1.96,4.69
		c0,0.98,0.21,2.03,0.7,2.94l-0.35,0.21l-0.84,0.49c-1.96,1.12-3.22,3.15-3.22,5.53v0.28c0.14,3.01,2.31,5.39,5.11,5.95
		c-0.42,0.84-0.63,1.75-0.63,2.59c0,1.89,0.84,3.78,2.45,5.11c2.03,1.61,4.9,1.75,7.14,0.49l0.14-0.14
		c-1.4,0.56-2.94,0.63-4.41,0.21c1.26,0.28,2.66,0.07,3.85-0.63l0.84-0.49l0.21-0.14c0,0.28,0.07,0.49,0.14,0.7l-0.14,0.14
		l-0.49,0.21c0.84,2.38,2.94,4.13,5.53,4.48h0.63c1.12,0,2.17-0.28,3.15-0.84l0.84-0.49c0.63-0.35,1.19-0.84,1.68-1.4
		c1.96,1.89,4.97,2.52,7.7,0.98l0.84-0.49c1.68-0.98,2.87-2.73,3.08-4.62c1.4,0.14,2.87-0.14,4.13-0.91l0.84-0.49
		c0.91-0.49,1.68-1.26,2.31-2.24c0.56-0.91,0.77-2.17,0.77-3.22c0-1.61-0.63-3.29-1.75-4.48
		C204.06,173.24,205.18,171.07,205.18,168.97z M172.41,136.7l-0.56-0.28l0.77-0.42L172.41,136.7z M177.94,131.73
		c-0.7,0.14-1.33,0.35-1.96,0.7l-0.84,0.49c-1.19,0.7-2.03,1.75-2.52,3.01c0.35-1.54,1.26-2.94,2.66-3.85
		c0.56-0.28,1.12-0.49,1.68-0.56c1.05-0.14,1.96-0.07,2.87,0.21C179.27,131.66,178.57,131.59,177.94,131.73z M186.06,133.2
		l-0.84,0.49c-0.49,0.28-0.91,0.63-1.33,1.05l-0.35-0.56l0.63-0.35c0.35-0.35,0.7-0.7,1.12-0.91c1.4-0.7,3.15-0.84,4.76-0.35
		C188.65,132.29,187.25,132.57,186.06,133.2z M194.6,139.15v-0.49c1.05-0.21,2.17-0.21,3.15,0.14
		C196.77,138.59,195.65,138.73,194.6,139.15z M199.71,149.16c1.26-0.77,2.03-1.82,2.45-3.01c-0.28,1.26-0.91,2.45-1.89,3.36
		L199.71,149.16z M197.47,163.37c0.07-0.14,0.07-0.21,0.07-0.35c0.77,0,1.54,0.07,2.24,0.35
		C199.08,163.23,198.31,163.23,197.47,163.37z M164.57,157.21c0.56,0.14,1.05,0.14,1.61,0.07l-0.07,0.28
		C165.62,157.49,165.06,157.42,164.57,157.21z M161.84,168.06c0.28-0.14,0.56-0.28,0.84-0.35l0.63-0.35
		c0.14,0.14,0.21,0.35,0.35,0.56c-0.35,0.07-0.77,0.28-1.12,0.49l-0.84,0.49c-1.19,0.63-2.03,1.75-2.52,3.01
		C159.53,170.3,160.51,168.97,161.84,168.06z M163.45,179.4l0.98,0.14c-0.35,0.42-0.63,0.91-0.77,1.4c0.07-0.49,0.28-0.91,0.49-1.4
		C163.87,179.54,163.66,179.47,163.45,179.4z M183.96,189.63c-0.49,0.7-1.12,1.33-1.82,1.82c-0.84,0.42-1.75,0.63-2.73,0.63h-0.63
		l-1.05-0.21h0.84c1.05,0,1.96-0.28,2.8-0.7l0.84-0.49c0.77-0.49,1.47-1.12,1.96-1.89l0.42,0.49L183.96,189.63z M192.36,190.54
		c-1.54,0.77-3.15,0.84-4.62,0.42c1.26,0.21,2.59,0,3.92-0.77l0.84-0.49c1.19-0.7,2.03-1.82,2.45-3.08
		C194.6,188.23,193.69,189.63,192.36,190.54z M195.23,185.21v-0.42l0.49,0.14L195.23,185.21z M201.53,174.71l-0.56-0.49l0.77-0.42
		c1.19-0.7,2.03-1.82,2.45-3.08C203.84,172.33,202.86,173.8,201.53,174.71z"/>
	<path d="M177.45,173.73c0.49,0.7,0.77,1.47,0.84,2.31c0.98-0.49,1.96-0.91,3.22-0.91c0.77,0,1.4,0.14,2.17,0.49l0.84-0.49
		c0.42-0.63,0.77-0.98,1.4-1.4l0.98-0.42l0.84-0.49c-0.63-0.28-0.91-0.84-1.12-1.54c-0.35-0.77-0.42-1.47-0.35-2.38
		c-0.98,0.42-1.96,0.63-3.01,0.49c-1.33-0.07-2.38-0.63-3.29-1.54l-0.84,0.49c-0.07,0.98-0.56,1.96-1.4,2.8l-0.91,0.77l-0.56,0.35
		C176.75,172.68,177.1,173.1,177.45,173.73z M182.35,174.64c-1.19,0-2.24,0.42-3.15,0.91l-0.14-0.63c0.7-0.28,1.54-0.49,2.45-0.49
		c0.63,0,1.19,0.07,1.82,0.28C182.98,174.64,182.7,174.64,182.35,174.64z M186.2,172.75c0.14,0.21,0.35,0.35,0.56,0.49l-0.42,0.21
		l-0.91,0.49c-0.56,0.35-0.91,0.63-1.26,1.05c-0.28-0.14-0.49-0.21-0.7-0.21l0.84-0.49c0.28-0.42,0.63-0.77,1.12-1.05l0.07-0.07
		l-0.42,0.21l-0.56,0.35l-0.56,0.42c-0.49-0.14-1.05-0.21-1.61-0.21c-0.98,0-1.89,0.28-2.66,0.63c-0.21-0.63-0.42-1.19-0.77-1.68
		c-0.21-0.35-0.49-0.7-0.7-0.98l0.84-0.77c0.35-0.35,0.7-0.77,0.98-1.26c0.7,0.42,1.47,0.63,2.31,0.7c0.77,0.07,1.61,0,2.38-0.21
		c0,0.63,0.14,1.12,0.42,1.61c0.07,0.35,0.21,0.77,0.42,1.12L186.2,172.75z M182.42,169.88c1.05,0.14,2.03-0.07,3.01-0.49
		l-0.07,0.56c-0.7,0.14-1.47,0.21-2.17,0.14c-0.49-0.07-0.98-0.14-1.47-0.28C181.93,169.81,182.14,169.88,182.42,169.88z
		 M177.31,171.7c0.35-0.21,0.84-0.7,1.26-1.05c0.56-0.56,0.91-1.12,1.19-1.75c0.14,0.07,0.28,0.21,0.49,0.28l-0.7,0.42
		c-0.28,0.7-0.77,1.47-1.33,2.03l-0.63,0.56l-0.42-0.42L177.31,171.7z"/>
	<rect x="211.19" y="176.53" width="8.96" height="8.96"/>
	<path d="M262.43,169.95c0,6.3-2.24,10.43-8.47,10.43c-6.02,0-8.05-4.2-8.12-10.22h-7.56c0.07,9.8,4.9,16.45,15.61,16.45
		c9.66,0,16.03-5.88,16.03-15.82v-34.3h-7.49V169.95z"/>
	<path d="M310.8,165.47c0,10.22-4.06,14.91-11.62,14.91c-7.56,0-11.55-4.76-11.55-14.91v-28.98h-7.42v30.03
		c0,13.3,7.07,20.09,18.97,20.09c11.83,0,19.04-6.79,19.04-20.09v-30.03h-7.42V165.47z"/>
	<polygon points="331.8,132.92 328.37,138.87 334.39,143.21 334.6,142.86 334.6,143.35 341.6,148.39 341.46,138.52 	"/>
	<polygon points="327.04,183.46 333.69,186.69 337.61,178.77 328.51,180.46 	"/>
	<path d="M370.45,158.33l0.56-7.21l-0.28,0.14l0.56-2.59l-4.13-1.33l4.76-0.63l-2.73-11.06l-7.28,1.82l2.24,8.89l-1.96,9.31
		l5.81-2.73l-3.85,2.45l-0.21-0.42l-6.09,4.76l4.2,9.03c0.98,2.03,1.96,4.06,2.94,5.95l-13.37-9.24l-3.29,6.16l17.99,12.39l9.1-4.2
		l-9.59-20.79L370.45,158.33z"/>
	<path d="M332.92,148.81c-0.91-1.68-1.82-3.29-2.87-5.11l-6.86,2.8l11.55,20.86l-3.57-0.49l-5.18,13.51l8.96-2.59l3.78-9.87
		l-3.22-0.42l5.18-4.62L332.92,148.81z"/>
	<polygon points="348.81,165.82 355.6,164 355.46,163.16 349.58,162.25 349.3,145.8 342.23,140.76 342.65,163.09 348.67,164.84 	"/>
	<rect x="381.85" y="136.49" width="7.42" height="49"/>
	<path d="M429.52,172.05l3.36-2.52c8.4-6.23,13.58-11.41,13.58-19.39c0-8.89-6.37-14.84-16.03-14.84
		c-10.01,0-17.08,6.51-17.08,17.15v1.19h7.49v-0.77c0-7.42,3.64-11.62,9.59-11.62c5.46,0,8.75,3.64,8.75,8.89
		c0,5.74-4.62,9.8-9.17,13.23l-5.25,3.92c-7.84,5.81-11.83,10.15-11.97,18.2h34.23v-6.58H422.1
		C422.66,177.3,424.9,175.48,429.52,172.05z"/>
	<path d="M506.25,148.32l-0.07-0.14l0.14-0.49v-0.28l-0.21-0.21l0.21-0.42v-0.35l-0.14-0.42l0.07-0.28l-0.14-0.35l0.07-0.42v-0.35
		v-0.56l-0.07-0.35l-0.07-0.56v-0.21l-0.07-0.42l-0.14-0.42l0.07-0.28l-0.14-0.28l0.07-0.42v-0.21l-0.07-0.49l-0.07-0.28l-0.07-0.35
		l-0.14-0.49l-0.07-0.28l-0.14-0.42v-0.14l-0.14-0.42l0.07-0.28l-0.21-0.49l-0.14-0.35l-0.07-0.28v-0.42l-0.14-0.21l-0.21-0.28
		l-0.07-0.42l-0.14-0.35l-0.07-0.21l-0.21-0.35l-0.21-0.49l-0.14-0.28v-0.14l-0.14-0.49l-0.14-0.35l-0.28-0.14l-0.07-0.49
		l-0.07-0.28l-0.42-0.14l-0.14-0.49l-0.07-0.21l-0.28-0.35l-0.21-0.35v-0.21l-0.35-0.42v-0.21l-0.42-0.14l-0.07-0.42l-0.35-0.35
		l-0.07-0.28l-0.28-0.21l-0.28-0.35l-0.07-0.21l-0.35-0.21l-0.28-0.35l-0.14-0.21l-0.14-0.35l-0.21-0.28l-0.42-0.14l-0.28-0.14
		l-0.07-0.28l-0.28-0.28l-0.28-0.21l-0.28-0.21l-0.35-0.35l-0.14-0.35l-0.35-0.21l-0.14-0.21l-0.42-0.21l-0.21-0.14l-0.14-0.14
		l-0.49-0.28l-0.14-0.14l-0.42-0.35h-0.21l-0.35-0.35l-0.14-0.14l-0.28-0.21l-0.35-0.21l-0.28-0.14l-0.35-0.07l-0.49-0.35h-0.14
		l-0.35-0.07l-0.21-0.35l-0.49-0.14l-0.35-0.07l-0.35-0.14l-0.21-0.21l-0.21-0.14l-0.35,0.07l-0.28-0.35l-0.7-0.07l-0.49-0.07
		l-0.35-0.28l-0.28,0.07l-0.35-0.07l-0.14-0.14l-0.56-0.28l-0.21,0.14l-0.35-0.21l-0.42,0.07l-0.42-0.21h-0.14h-0.42l-0.42,0.07
		l-0.35-0.28l-0.35,0.07l-0.35,0.07h-0.28h-0.21h-0.49l-0.42-0.14l-0.35-0.07l-0.28,0.07l-0.35,0.07l-0.42,0.14l-0.14-0.14h-0.56
		h-0.35l-0.35,0.07l-0.14,0.07h-0.35l-0.49,0.28h-0.28l-0.28,0.07h-0.77l-0.35,0.14h-0.35l-0.21,0.14h-0.42l-0.28,0.14l-0.63,0.21
		l-0.35,0.07l-0.35,0.07l-0.49,0.07l-0.14-0.07l-0.35,0.21h-0.49l-0.42,0.35l-0.14,0.07l-0.42-0.07l-0.42,0.07l-0.14,0.35
		l-0.35-0.14l-0.49,0.28l-0.21,0.14l-0.42,0.14l-0.35,0.07l-0.28,0.07l-0.28,0.28l-0.49,0.07h-0.21l-0.21,0.14l-0.49,0.28
		l-0.14,0.14l-0.28,0.28l-0.56,0.14l-0.21,0.07l-0.21,0.14l-0.28,0.14l-0.49,0.21l-0.35,0.28h-0.28l-0.28,0.35l-0.07,0.21
		l-0.56,0.07l-0.28,0.28l-0.14,0.07l-0.28,0.28l-0.28,0.35l-0.42,0.07l-0.07,0.28l-0.28,0.21l-0.28,0.14l-0.35,0.49h-0.21
		l-0.35,0.42l-0.07,0.14l-0.28,0.42l-0.21,0.21l-0.28,0.14l-0.21,0.35l-0.56,0.56l-0.35,0.21l-0.21,0.35v0.28l-0.42,0.14v0.42
		l-0.35,0.21l-0.21,0.14l-0.21,0.49l-0.21,0.28l-0.35,0.28l-0.21,0.21v0.35l-0.21,0.14l-0.42,0.35l-0.14,0.28l-0.14,0.28l-0.21,0.35
		l-0.28,0.14l-0.07,0.28l-0.14,0.28l-0.14,0.42l-0.35,0.28l-0.21,0.21v0.28l-0.42,0.35v0.42l-0.28,0.14l-0.07,0.28l-0.35,0.35
		l0.07,0.21l-0.42,0.49l-0.14,0.14l-0.14,0.35l0.07,0.42l-0.21,0.21l-0.14,0.42l-0.35,0.28v0.21l-0.14,0.49l-0.14,0.14l-0.07,0.35
		l-0.07,0.49l-0.21,0.14l-0.14,0.28l-0.07,0.35l-0.28,0.56l0.07,0.21l-0.14,0.21l-0.14,0.49v0.28l-0.28,0.35l0.07,0.42l-0.28,0.14
		v0.35v0.56l-0.14,0.21l-0.07,0.42l-0.21,0.35l-0.07,0.21l0.14,0.35l-0.21,0.42v0.35l-0.14,0.35l0.07,0.35l-0.21,0.35l0.14,0.21
		v0.42l-0.14,0.28l-0.14,0.49l0.07,0.42l0.14,0.14l-0.28,0.42l0.21,0.49v0.21l-0.21,0.28l0.21,0.42l-0.21,0.49l0.21,0.28l-0.21,0.21
		l0.14,0.42l-0.07,0.35v0.28l0.21,0.42l0.07,0.42l-0.21,0.35l0.28,0.21v0.35l-0.07,0.49l0.07,0.42v0.7l0.21,0.35l-0.14,0.28
		l0.14,0.35l0.07,0.35l0.14,0.28l0.07,0.28l0.14,0.35v0.28v0.42l0.21,0.49l-0.07,0.28l0.21,0.35l0.14,0.28l-0.07,0.42l0.21,0.28
		v0.28l0.07,0.42l0.14,0.21l0.28,0.28l-0.07,0.49l0.14,0.21l0.14,0.28l0.21,0.49v0.28l0.14,0.42l0.28,0.35l0.14,0.21l0.14,0.28
		l0.14,0.28l0.14,0.35l0.21,0.35l0.07,0.42l0.14,0.21l0.35,0.28l0.07,0.21l0.28,0.42l0.07,0.14l0.07,0.42l0.28,0.28l0.21,0.42
		l0.21,0.07l0.28,0.49v0.28l0.21,0.28l0.21,0.28l0.21,0.21l0.21,0.35l0.35,0.14l0.21,0.35l0.14,0.21l0.21,0.21l0.35,0.35l0.14,0.14
		l0.21,0.42l0.35,0.14l0.35,0.28l0.07,0.21l0.42,0.14l0.07,0.28l0.28,0.21l0.35,0.21l0.28,0.35l0.21,0.14l0.56,0.63l0.35,0.07
		l0.14,0.21l0.35,0.28l0.35,0.14l0.35,0.21l0.35,0.14l0.07,0.21l0.49,0.42l0.28,0.14l0.49,0.56l0.21,0.07l0.21,0.21l0.42,0.28
		l0.28,0.07l-0.07,0.42l-0.35,0.21l-0.28,0.07l-0.28,0.07l-0.35,0.07l-0.35,0.35l-0.56-0.14l-0.35,0.07l-0.28,0.07h-0.35l-0.21,0.21
		l-0.49,0.14h-0.42l-0.49,0.07h-0.49l-0.21,0.35l-0.14,0.35v0.14l-0.21,0.28v0.35l0.14,0.91l0.21,0.14l0.14,0.49l0.07,0.35
		l0.07,0.35l0.21,0.21l0.28,0.14l0.28,0.49l0.28,0.21l0.42,0.14l0.35,0.21h0.21h0.42l0.42,0.28l0.7,0.07l0.21,0.07l0.35-0.21
		l0.49,0.21l0.21-0.07l0.21,0.21l0.35-0.07l0.49,0.07l0.42,0.07l0.28-0.21l0.35,0.21l0.35,0.07h0.21h0.56l0.21-0.07h0.42l0.42,0.21
		h0.28l0.35-0.14h0.28l0.21,0.28h0.56h0.21l0.42-0.07h0.28l0.42,0.07h0.21l0.35,0.14h0.35l0.28,0.14l0.7-0.07l0.42-0.07l0.35,0.21
		l0.84-0.14l0.21,0.14l0.49-0.07l0.28,0.28l0.28-0.14l0.49,0.21l0.21-0.07l0.35,0.07h0.21l0.42,0.21l0.28-0.21l0.35,0.14l0.42,0.21
		h0.42l0.28-0.07h0.35l0.42,0.07l0.21,0.14l0.49,0.14l0.35-0.07l0.28-0.07l0.21,0.07l-0.28-0.21l-0.35-0.07l-0.14-0.07v-0.28
		l0.21,0.21h0.42l0.35-0.21l0.21,0.07h0.42l0.49,0.14l0.35-0.21l0.21,0.07l0.35,0.14h0.49l0.28-0.07h0.42l0.35,0.21l0.35-0.07
		l0.35-0.07l0.28,0.07h0.49l0.35,0.21h0.35l0.42,0.07l0.28-0.07l0.35,0.14l0.7-0.14h0.28l0.28,0.07l0.35,0.21l0.35-0.07h0.49
		l0.42-0.14h0.28l0.21,0.21l0.56-0.14l0.63-0.21l0.21-0.21h0.35l0.42-0.42h0.28l0.14-0.42h0.42l0.28-0.28l0.21-0.35l0.49-0.14
		l0.28-0.07l0.21-0.21l0.84-0.28l0.14,0.07l0.42-0.42l0.07-0.07l0.35-0.21l0.21-0.28l0.14-0.28l0.07-0.49l0.21-0.21l0.14-0.42
		l-0.07-0.35l-0.07-0.35l0.07-0.28l-0.14-0.14l0.07-0.91l-0.35-0.07l-0.14-0.28l-0.14-0.21l-0.42-0.42l-0.21-0.28h-0.28l-0.21-0.35
		l-0.21-0.28l-0.42-0.07l-0.21-0.21l-0.49-0.42l-0.35-0.07h-0.21l-0.49-0.14l-0.28-0.21l-0.28-0.07l-0.42,0.07l-0.42-0.21l0.07-0.28
		l0.14-0.14l0.28-0.14l0.42-0.35l0.14-0.07l0.28-0.35l0.49-0.28l0.14-0.07l0.14-0.28l0.35-0.21l0.35-0.35h0.21l0.14-0.35l0.35-0.28
		l0.14-0.14l0.49-0.42l0.14-0.07l0.35-0.35l0.14-0.42l0.07-0.21l0.28-0.14l0.35-0.42l0.14-0.14l0.21-0.21l0.35-0.35l0.21-0.21
		l0.07-0.35l0.35-0.35l0.14-0.14l0.14-0.49l0.35-0.07l0.07-0.42l0.28-0.42l0.14-0.07l0.28-0.35l0.21-0.28l0.07-0.42l0.07-0.28
		l0.21-0.14l0.28-0.35v-0.35l0.28-0.28l0.07-0.49l0.35-0.14l-0.07-0.42l0.28-0.42l0.28-0.07v-0.42l0.14-0.28l0.21-0.35l0.21-0.28
		l0.07-0.35l0.07-0.42l0.07-0.21l0.07-0.49l0.35-0.28l0.14-0.28l-0.07-0.35l0.07-0.35l0.49-0.56l0.07-0.28l0.14-0.42l-0.14-0.42
		l0.21-0.21l0.07-0.28l0.14-0.42l-0.07-0.35l0.07-0.42l0.07-0.28l0.07-0.49l0.28-0.28l-0.07-0.21l0.14-0.35l0.14-0.49l-0.07-0.14
		v-0.49v-0.28l0.07-0.49l0.14-0.14l0.07-0.35l-0.07-0.28l0.07-0.35l0.07-0.49l-0.07-0.28v-0.35l0.14-0.42l0.07-0.35l-0.07-0.28
		v-0.42l0.14-0.21l-0.07-0.35l-0.07-0.49l-0.07-0.21l0.14-0.56l0.07-0.28v-0.28l-0.07-0.49L506.25,148.32z M504.5,149.79v0.28
		l-0.14,0.14l0.14,0.42v0.49v0.14l-0.28,0.49l0.14,0.42l-0.07,0.35v0.21l-0.14,0.49l0.07,0.35v0.21l-0.07,0.28l-0.14,0.35l0.07,0.42
		l-0.14,0.49l0.14,0.28v0.42l-0.21,0.35l0.07,0.28l-0.07,0.21l-0.07,0.35l-0.07,0.56l-0.21,0.21l0.07,0.35l-0.21,0.28l-0.07,0.35
		v0.28l-0.14,0.42l-0.07,0.49l-0.14,0.35l-0.14,0.07l0.07,0.35l-0.35,0.42l0.07,0.35l-0.28,0.42l-0.14,0.14v0.49l-0.07,0.28
		l-0.07,0.21l-0.49,0.84l0.07,0.21l-0.28,0.28l-0.21,0.35l0.07,0.35l-0.21,0.28l-0.28,0.42l0.07,0.21l-0.35,0.42l-0.07,0.42
		l-0.28,0.14l-0.07,0.28l-0.07,0.42l-0.14,0.14l-0.21,0.42l-0.28,0.35l-0.28,0.28l0.07,0.28l-0.21,0.14l-0.21,0.49l-0.21,0.28
		l-0.28,0.14l-0.07,0.35l-0.21,0.28l-0.42,0.35l-0.14,0.14l-0.14,0.35l-0.63,0.56l-0.21,0.28l-0.21,0.28l-0.14,0.28l-0.28,0.21
		l-0.35,0.14l-0.07,0.28l-0.21,0.35l-0.28,0.28l-0.21,0.21l-0.35,0.07l-0.42,0.35l-0.28,0.14l-0.28,0.14l-0.07,0.28l-0.35,0.28
		l-0.35,0.07l-0.14,0.14l-0.28,0.42l-0.42,0.21l-0.35-0.07l-0.07,0.21l-0.49,0.28l-0.28,0.07l-0.21,0.28h-0.35l-0.42,0.42
		l-0.14,0.14h-0.42l-0.42,0.07l-0.28,0.14l-0.14,0.21l-0.49,0.28l-0.14-0.07l-0.56,0.07l-0.28,0.28h-0.21l-0.49,0.28l-0.21-0.14
		l-0.21,0.14l-0.35,0.14l-0.42,0.14h-0.28h-0.42l-0.28,0.14l-0.49,0.07l-0.28,0.21l-0.7,0.07l-0.56,0.07h-0.35l-0.42,0.14
		l-0.28-0.14l-0.56,0.14l-0.14-0.07l-0.56,0.07l-0.21,0.14l-0.49-0.14l-0.35,0.21l-0.21-0.14l-0.42,0.07l-0.28-0.07l-0.28,0.28
		h-0.77l-0.28-0.14l-0.49,0.14l-0.21-0.07l-0.42,0.07l-0.28-0.21h-0.35l-0.56,0.07l-0.21-0.07h-0.28l-0.42-0.14l-0.49-0.14
		l-0.35,0.21l-0.21-0.21l-0.42-0.14l-0.35-0.07h-0.28l-0.35-0.07h-0.21l-0.49-0.14l-0.28-0.21l-0.35-0.07l-0.28-0.07l-0.7-0.35
		l-0.21,0.14l-0.42-0.14l-0.28-0.21l-0.35-0.14l-0.42-0.14l-0.21-0.28l-0.35-0.14l-0.35-0.07l-0.21-0.28l-0.49,0.07l-0.21-0.35
		l-0.35-0.21l-0.21,0.07l-0.28-0.42l-0.28-0.14l-0.35-0.14l-0.42-0.21l-0.14-0.07l-0.49-0.35l-0.14-0.21l-0.42-0.14l-0.21-0.07
		l-0.21-0.49l-0.21-0.07l-0.42-0.14l-0.14-0.28l-0.21-0.35l-0.42-0.21l-0.14-0.14l-0.21-0.28l-0.42-0.21l-0.14-0.35l-0.42-0.35
		l-0.28-0.42l-0.42-0.28l-0.07-0.21l-0.35-0.21l-0.21-0.35l-0.07-0.21l-0.28-0.42l-0.28-0.35v-0.21l-0.28-0.14l-0.14-0.42
		l-0.21-0.21l-0.28-0.35l-0.07-0.35L455,168.2l-0.14-0.35l-0.35-0.28l-0.07-0.21l-0.28-0.56l-0.14-0.21l0.07-0.21l-0.21-0.42
		l-0.35-0.21l-0.14-0.35l-0.14-0.35l0.07-0.21l-0.14-0.42l-0.14-0.28l-0.35-0.28l0.07-0.49l-0.28-0.21l0.07-0.35l-0.35-0.28
		l0.07-0.49l-0.14-0.35l-0.14-0.28l-0.14-0.42l-0.21-0.21l-0.07-0.42v-0.35l-0.14-0.35v-0.28l-0.21-0.42l-0.07-0.21l-0.14-0.42
		v-0.28l-0.07-0.28l-0.07-0.28l-0.14-0.42l0.07-0.35l-0.14-0.49l0.14-0.14l-0.14-0.49l-0.07-0.21v-0.42l-0.07-0.28v-0.49v-0.28
		l-0.14-0.42l0.07-0.42v-0.35l0.07-0.21l-0.21-0.28l0.21-0.35l-0.14-0.35v-0.42l0.21-0.35l-0.14-0.49l0.07-0.14l0.14-0.42v-0.28
		l-0.21-0.35l0.07-0.56v-0.28l0.21-0.21l-0.07-0.28l0.07-0.42v-0.49l0.28-0.14l-0.14-0.49l0.14-0.42v-0.21l0.14-0.49v-0.35
		l0.28-0.14l-0.07-0.49l0.07-0.14l0.21-0.42l0.07-0.49l0.07-0.14l0.07-0.35l0.07-0.35l0.35-0.28l0.14-0.42l-0.07-0.21l0.28-0.56
		l-0.07-0.21l0.35-0.28v-0.49l0.14-0.14l0.28-0.42v-0.35l0.07-0.14l0.28-0.42l0.07-0.21l0.14-0.28l0.21-0.56l0.21-0.21l0.14-0.42
		l0.21-0.07l0.28-0.49l0.21-0.28l-0.07-0.14l0.35-0.35l0.21-0.35l0.14-0.21l0.28-0.42l0.14-0.35l0.21-0.07l0.28-0.42l0.35-0.42
		l0.21-0.42l0.14-0.28l0.28-0.21l0.07-0.35l0.21-0.35l0.35-0.28l0.21-0.14l0.35-0.28l0.07-0.28l0.28-0.14l0.07-0.42l0.21-0.35
		l0.28-0.28l0.21-0.21l0.35-0.14l0.14-0.21l0.42-0.35l0.07-0.35l0.35-0.28l0.21-0.07l0.21-0.35l0.35-0.07l0.14-0.35l0.42-0.35
		l0.28-0.21l0.14-0.21l0.42-0.14l0.21-0.28l0.07-0.28l0.35-0.21h0.28l0.28-0.28l0.28-0.14l0.35-0.42l0.14-0.21h0.35l0.28-0.14
		l0.42-0.42h0.35l0.28-0.14l0.35-0.28l0.21-0.28l0.35,0.07l0.35-0.14l0.28-0.35l0.42,0.07l0.28-0.21l0.21-0.21l0.42-0.14l0.35-0.14
		l0.14,0.07l0.49-0.14l0.14-0.07l0.49-0.21l0.28-0.07l0.7-0.28l0.28-0.07l0.49,0.07l0.21-0.21h0.63l0.56-0.07l0.35-0.07l0.28-0.21
		l0.35,0.07l0.35-0.14l0.21,0.14h0.42l0.28-0.28h0.35l0.49,0.14l0.21-0.21l0.28,0.14l0.56,0.07h0.21l0.42-0.14l0.35-0.07l0.42,0.21
		l0.21-0.07l0.49-0.14l0.28,0.14h0.35l0.21,0.07h0.56l0.21-0.07l0.28,0.28h0.56l0.28,0.07l0.28,0.14h0.35l0.21-0.07l0.35,0.14
		l0.49,0.21l0.35-0.14l0.21,0.07l0.49,0.28l0.28,0.07l0.35,0.21h0.21l0.49,0.07l0.21,0.28l0.35-0.07l0.42,0.07l0.21,0.21l0.21,0.28
		l0.42,0.14l0.42,0.14l0.21,0.14h0.35l0.14,0.35l0.56,0.14h0.21l0.35,0.28l0.28,0.28l0.21,0.14l0.28,0.21l0.42,0.14l0.14,0.28h0.35
		l0.21,0.21l0.28,0.35l0.35,0.07l0.28,0.35l0.35,0.07l0.14,0.28l0.28,0.28l0.7,0.35l0.28,0.28l0.14,0.21l0.35,0.28l0.07,0.35
		l0.21,0.14l0.35,0.35h0.21l0.21,0.35l0.35,0.21l0.07,0.42l0.28,0.07l0.21,0.28l0.21,0.35l0.21,0.28l0.35,0.21v0.42l0.42,0.28v0.21
		l0.21,0.28l0.28,0.42l0.28,0.28l0.07,0.35l0.28,0.14l0.14,0.35l0.07,0.21l0.21,0.49l0.14,0.14v0.35l0.35,0.35l0.14,0.42l0.07,0.21
		l0.07,0.42l0.21,0.35l-0.07,0.35l0.21,0.14l0.14,0.35l0.07,0.42l0.14,0.42l0.21,0.35l-0.14,0.14l0.21,0.35l0.21,0.49l0.07,0.35
		l0.07,0.35v0.28v0.35l0.21,0.35l-0.21,0.35l0.21,0.21v0.42l0.07,0.49l0.07,0.21v0.49l-0.07,0.14l0.14,0.56l-0.07,0.35l0.07,0.28
		l0.07,0.21v0.42l-0.07,0.49l0.21,0.35l-0.07,0.42l0.07,0.35v0.21l-0.07,0.35l0.07,0.63l0.14,0.56v0.21v0.49l0.07,0.35V149.79z"/>
	<path d="M525.7,172.05l3.36-2.52c8.4-6.23,13.58-11.41,13.58-19.39c0-8.89-6.37-14.84-16.03-14.84c-10.01,0-17.08,6.51-17.08,17.15
		v1.19h7.49v-0.77c0-7.42,3.64-11.62,9.59-11.62c5.46,0,8.75,3.64,8.75,8.89c0,5.74-4.62,9.8-9.17,13.23l-5.25,3.92
		c-7.84,5.81-11.83,10.15-11.97,18.2h34.23v-6.58h-24.92C518.84,177.3,521.08,175.48,525.7,172.05z"/>
	<path d="M584.15,167.29c-0.07-1.68-0.63-3.29-1.82-4.62c-1.12-1.26-2.52-2.03-4.27-1.89c-0.49,0.07-0.98,0.21-1.54,0.28
		c-0.07-0.56-0.07-1.12-0.14-1.61c0-0.14,0.14-0.35,0.28-0.42c0.35-0.42,0.77-0.84,1.19-1.26c3.43-3.85,4.62-8.4,3.64-13.44
		c-0.84-4.34-3.08-7.98-6.44-10.78c-4.83-3.99-10.36-5.74-16.66-4.9c-1.47,0.14-2.87,0.7-3.99,1.68c-1.12,1.12-1.89,2.38-1.82,3.99
		c0.07,0.63,0.14,1.26,0.28,1.96c-1.54-0.14-3.08,0-4.69,0.35c0.07,0.14,0.14,0.21,0.21,0.28l4.34,4.34
		c0.07,0.07,0.21,0.14,0.42,0.21c0-1.33,0.14-2.59,0.7-3.85c0.28,0.21,0.42,0.42,0.56,0.63c0.84,0.91,1.89,1.61,2.94,2.17
		c0.98,0.42,1.96,0.7,3.01,0.56c1.61-0.21,3.22,0.07,4.69,0.84c2.17,1.05,3.71,2.66,4.2,5.11c0.21,0.91,0,1.68-0.56,2.31
		c-0.42,0.63-1.05,1.05-1.75,1.47c-1.54,0.84-3.22,1.05-4.9,1.05c-1.96,0.07-3.5,0.91-4.69,2.31c-0.63,0.7-1.12,1.61-1.68,2.52
		c-0.84-1.05-1.82-2.17-2.8-3.43c-0.49,2.38-1.05,4.55-1.54,6.93c1.47-0.7,2.8-1.33,4.2-2.03c0,0.21,0.07,0.28,0.07,0.35
		c-0.14,2.8,2.03,5.25,4.76,5.67c1.19,0.14,2.38,0.14,3.64,0.07c2.94-0.14,5.81-0.91,8.47-2.24c0.21-0.07,0.42-0.21,0.63-0.21
		c0.7,0,1.4,0.07,2.1,0.35c-0.14,0.21-0.28,0.35-0.42,0.49c-1.05,1.05-1.82,2.24-2.52,3.57c-0.35,0.63-0.56,1.26-0.56,2.03
		c0.14,1.47-0.28,2.8-1.05,3.92c-1.89,2.8-4.55,4.13-7.77,4.41c-2.03,0.21-4.06-0.07-6.02-0.63c-0.77-0.21-1.47-0.21-2.24,0.07
		c-1.4,0.49-2.8,1.26-4.13,2.1l-0.49,0.21c0-1.12,0.28-2.03,1.47-2.59c-2.31-0.28-4.48-0.56-6.65-0.91
		c0.56,2.31,1.96,3.78,4.06,4.48c0,0.07,0.07,0.07,0,0.07c0,0.07,0,0.14-0.07,0.21c-0.84,1.19-0.91,2.52-0.42,3.85
		c0.77,2.24,2.38,3.64,4.55,4.34c3.64,1.19,7.35,1.61,11.13,1.26c3.29-0.35,6.44-1.26,9.31-2.87c3.71-2.03,6.58-4.9,8.61-8.61
		C583.66,174.29,584.43,170.86,584.15,167.29z M559.58,160.64c-0.28,0-0.63-0.35-0.63-0.7c0-0.42,0.21-0.63,0.7-0.63
		c0.42,0,0.7,0.28,0.7,0.63C560.35,160.29,560,160.64,559.58,160.64z M571.34,152.45c-1.82,1.82-4.06,2.8-6.51,3.22
		c-0.77,0.07-1.54,0.14-2.31,0.14c-1.12,0-2.1,0.49-2.31,1.82c-0.07,0.49-0.42,0.7-0.84,0.63c-0.35-0.07-0.56-0.35-0.49-0.84
		c0.21-1.33,1.4-2.94,3.43-2.94c1.54,0,3.15-0.21,4.62-0.77c1.33-0.49,2.45-1.19,3.43-2.17c1.68-1.75,2.1-3.78,1.4-6.02
		c-0.77-2.66-2.52-4.55-4.9-5.88c-1.75-0.98-3.64-1.47-5.6-1.54c-0.42,0.07-0.77,0-1.12,0.07c-1.33,0.28-2.31-0.35-3.15-1.26
		c-0.21-0.28-0.42-0.63-0.56-0.91c-0.21-0.49-0.14-0.84,0.28-1.05c0.35-0.14,0.7,0,0.91,0.49c0.28,0.7,0.7,1.19,1.4,1.4
		c0.21,0.07,0.42,0.07,0.63,0.07c3.92-0.42,7.35,0.7,10.22,3.29c1.75,1.54,2.87,3.36,3.36,5.67
		C573.79,148.39,573.16,150.56,571.34,152.45z M552.44,183.67c-0.42,0.07-0.91-0.35-0.91-0.7c0-0.35,0.28-0.56,0.63-0.56
		c0.49-0.07,0.98,0.28,0.98,0.63S552.86,183.67,552.44,183.67z M577.36,166.03c-0.07,0.07-0.07,0-0.14,0.07
		c-0.91,0.35-1.4,1.05-1.4,2.03c0.07,4.69-2.31,7.91-6.09,10.36c-2.24,1.47-5.25,2.17-8.12,2.17c-1.89,0-3.78-0.28-5.6-0.77
		c-0.7-0.21-1.33-0.07-1.82,0.35c-0.21,0.21-0.42,0.49-0.56,0.77c-0.28,0.49-0.63,0.56-0.98,0.35c-0.42-0.21-0.49-0.63-0.21-1.05
		c0.84-1.47,2.52-2.17,4.13-1.68c1.96,0.56,4.06,0.77,6.16,0.63c3.78-0.28,7.07-1.75,9.52-4.76c1.47-1.82,2.31-3.85,2.24-6.23
		c-0.14-1.47,1.05-2.94,2.31-3.5c0.56-0.21,0.91-0.07,1.12,0.35C578.06,165.54,577.92,165.82,577.36,166.03z"/>
</g>
</svg>
