<?xml version="1.0" encoding="utf-8"?>
<!-- Generator: Adobe Illustrator 27.5.0, SVG Export Plug-In . SVG Version: 6.00 Build 0)  -->
<svg version="1.1" id="Ebene_1" xmlns="http://www.w3.org/2000/svg" xmlns:xlink="http://www.w3.org/1999/xlink" x="0px" y="0px"
	 viewBox="0 0 1920 1080" style="enable-background:new 0 0 1920 1080;" xml:space="preserve">
<style type="text/css">
	.st0{fill:#0000FF;}
	.st1{font-family:'SHKT-Spikes';}
	.st2{font-size:220px;}
	.st3{font-family:'SHKT-A';}
	.st4{letter-spacing:-1;}
	.st5{font-family:'SHKT-Action';}
	.st6{font-family:'SHKT-Coral';}
	.st7{font-family:'SHKT-Balloon';}
	.st8{letter-spacing:-5;}
	.st9{font-family:'SHKT-Outline';}
	.st10{font-family:'SHKT-Insects';}
</style>
<text transform="matrix(1 0 0 1 256.4492 625.0293)" class="st0 st1 st2">W</text>
<text transform="matrix(1 0 0 1 489.6494 625.0293)"><tspan x="0" y="0" class="st0 st3 st2 st4">O</tspan><tspan x="165.44" y="0" class="st0 st3 st2"> </tspan></text>
<text transform="matrix(1 0 0 1 720.2095 625.0293)" class="st0 st5 st2">G</text>
<text transform="matrix(1 0 0 1 880.8096 625.0293)" class="st0 st3 st2">E</text>
<text transform="matrix(1 0 0 1 1048.8896 625.0293)" class="st0 st6 st2">n</text>
<text transform="matrix(1 0 0 1 1224.8896 625.0293)" class="st0 st3 st2">A</text>
<text transform="matrix(1 0 0 1 1375.3691 625.0293)"><tspan x="0" y="0" class="st0 st7 st2 st4">U</tspan><tspan x="151.58" y="0" class="st0 st7 st2 st8"> </tspan></text>
<text transform="matrix(1 0 0 1 1550.2695 625.0293)" class="st0 st9 st2">?</text>
<text transform="matrix(1 0 0 1 1663.5693 625.0293)" class="st0 st10 st2"> </text>
</svg>
